<?xml version="1.0" encoding="UTF-8" standalone="no"?>
<!DOCTYPE svg PUBLIC "-//W3C//DTD SVG 1.1//EN"
 "http://www.w3.org/Graphics/SVG/1.1/DTD/svg11.dtd">
<!-- Generated by graphviz version 2.44.1 (20200629.0800)
 -->
<!-- Title: AboutUnit.cpp Pages: 1 -->
<svg width="1406pt" height="140pt"
 viewBox="0.00 0.00 1405.50 140.00" xmlns="http://www.w3.org/2000/svg" xmlns:xlink="http://www.w3.org/1999/xlink">
<g id="graph0" class="graph" transform="scale(1 1) rotate(0) translate(4 136)">
<title>AboutUnit.cpp</title>
<polygon fill="white" stroke="transparent" points="-4,4 -4,-136 1401.5,-136 1401.5,4 -4,4"/>
<!-- Node1 -->
<g id="node1" class="node">
<title>Node1</title>
<g id="a_node1"><a xlink:title=" ">
<polygon fill="#bfbfbf" stroke="black" points="506.5,-112.5 506.5,-131.5 584.5,-131.5 584.5,-112.5 506.5,-112.5"/>
<text text-anchor="middle" x="545.5" y="-119.5" font-family="Helvetica,sans-Serif" font-size="10.00">AboutUnit.cpp</text>
</a>
</g>
</g>
<!-- Node2 -->
<g id="node2" class="node">
<title>Node2</title>
<g id="a_node2"><a xlink:title=" ">
<polygon fill="white" stroke="#bfbfbf" points="0,-0.5 0,-19.5 71,-19.5 71,-0.5 0,-0.5"/>
<text text-anchor="middle" x="35.5" y="-7.5" font-family="Helvetica,sans-Serif" font-size="10.00">Classes.hpp</text>
</a>
</g>
</g>
<!-- Node1&#45;&gt;Node2 -->
<g id="edge1" class="edge">
<title>Node1&#45;&gt;Node2</title>
<path fill="none" stroke="midnightblue" d="M506.26,-119.59C439.79,-116.42 301.28,-106.43 188.5,-76 141.69,-63.37 90.42,-39.32 60.71,-24.28"/>
<polygon fill="midnightblue" stroke="midnightblue" points="61.99,-21.01 51.5,-19.56 58.8,-27.23 61.99,-21.01"/>
</g>
<!-- Node3 -->
<g id="node3" class="node">
<title>Node3</title>
<g id="a_node3"><a xlink:title=" ">
<polygon fill="white" stroke="#bfbfbf" points="89,-0.5 89,-19.5 160,-19.5 160,-0.5 89,-0.5"/>
<text text-anchor="middle" x="124.5" y="-7.5" font-family="Helvetica,sans-Serif" font-size="10.00">Controls.hpp</text>
</a>
</g>
</g>
<!-- Node1&#45;&gt;Node3 -->
<g id="edge2" class="edge">
<title>Node1&#45;&gt;Node3</title>
<path fill="none" stroke="midnightblue" d="M506.25,-120.32C445.76,-118.18 326.88,-109.63 232.5,-76 198.92,-64.04 164.35,-40.98 143.64,-25.79"/>
<polygon fill="midnightblue" stroke="midnightblue" points="145.51,-22.82 135.41,-19.63 141.31,-28.42 145.51,-22.82"/>
</g>
<!-- Node4 -->
<g id="node4" class="node">
<title>Node4</title>
<g id="a_node4"><a xlink:title=" ">
<polygon fill="white" stroke="#bfbfbf" points="178,-0.5 178,-19.5 249,-19.5 249,-0.5 178,-0.5"/>
<text text-anchor="middle" x="213.5" y="-7.5" font-family="Helvetica,sans-Serif" font-size="10.00">StdCtrls.hpp</text>
</a>
</g>
</g>
<!-- Node1&#45;&gt;Node4 -->
<g id="edge3" class="edge">
<title>Node1&#45;&gt;Node4</title>
<path fill="none" stroke="midnightblue" d="M506.26,-118.86C436.92,-114.44 296.21,-102.41 255.5,-76 238.47,-64.95 226.91,-44.29 220.29,-29.22"/>
<polygon fill="midnightblue" stroke="midnightblue" points="223.5,-27.82 216.5,-19.87 217.02,-30.45 223.5,-27.82"/>
</g>
<!-- Node5 -->
<g id="node5" class="node">
<title>Node5</title>
<g id="a_node5"><a xlink:title=" ">
<polygon fill="white" stroke="#bfbfbf" points="267,-0.5 267,-19.5 330,-19.5 330,-0.5 267,-0.5"/>
<text text-anchor="middle" x="298.5" y="-7.5" font-family="Helvetica,sans-Serif" font-size="10.00">Forms.hpp</text>
</a>
</g>
</g>
<!-- Node1&#45;&gt;Node5 -->
<g id="edge4" class="edge">
<title>Node1&#45;&gt;Node5</title>
<path fill="none" stroke="midnightblue" d="M526.12,-112.37C482.83,-93.09 378.11,-46.45 327.22,-23.79"/>
<polygon fill="midnightblue" stroke="midnightblue" points="328.35,-20.46 317.79,-19.59 325.5,-26.86 328.35,-20.46"/>
</g>
<!-- Node6 -->
<g id="node6" class="node">
<title>Node6</title>
<g id="a_node6"><a xlink:title=" ">
<polygon fill="white" stroke="#bfbfbf" points="437,-0.5 437,-19.5 506,-19.5 506,-0.5 437,-0.5"/>
<text text-anchor="middle" x="471.5" y="-7.5" font-family="Helvetica,sans-Serif" font-size="10.00">Buttons.hpp</text>
</a>
</g>
</g>
<!-- Node1&#45;&gt;Node6 -->
<g id="edge5" class="edge">
<title>Node1&#45;&gt;Node6</title>
<path fill="none" stroke="midnightblue" d="M539.69,-112.37C527.48,-94.22 498.95,-51.8 482.93,-27.99"/>
<polygon fill="midnightblue" stroke="midnightblue" points="485.77,-25.94 477.28,-19.59 479.96,-29.84 485.77,-25.94"/>
</g>
<!-- Node7 -->
<g id="node7" class="node">
<title>Node7</title>
<g id="a_node7"><a xlink:title=" ">
<polygon fill="white" stroke="#bfbfbf" points="348,-0.5 348,-19.5 419,-19.5 419,-0.5 348,-0.5"/>
<text text-anchor="middle" x="383.5" y="-7.5" font-family="Helvetica,sans-Serif" font-size="10.00">ExtCtrls.hpp</text>
</a>
</g>
</g>
<!-- Node1&#45;&gt;Node7 -->
<g id="edge6" class="edge">
<title>Node1&#45;&gt;Node7</title>
<path fill="none" stroke="midnightblue" d="M532.79,-112.37C504.99,-93.49 438.56,-48.38 404.47,-25.24"/>
<polygon fill="midnightblue" stroke="midnightblue" points="406.39,-22.31 396.15,-19.59 402.46,-28.1 406.39,-22.31"/>
</g>
<!-- Node8 -->
<g id="node8" class="node">
<title>Node8</title>
<g id="a_node8"><a xlink:title=" ">
<polygon fill="white" stroke="#bfbfbf" points="524,-0.5 524,-19.5 589,-19.5 589,-0.5 524,-0.5"/>
<text text-anchor="middle" x="556.5" y="-7.5" font-family="Helvetica,sans-Serif" font-size="10.00">Menus.hpp</text>
</a>
</g>
</g>
<!-- Node1&#45;&gt;Node8 -->
<g id="edge7" class="edge">
<title>Node1&#45;&gt;Node8</title>
<path fill="none" stroke="midnightblue" d="M546.36,-112.37C548.14,-94.62 552.23,-53.67 554.64,-29.6"/>
<polygon fill="midnightblue" stroke="midnightblue" points="558.13,-29.89 555.64,-19.59 551.16,-29.19 558.13,-29.89"/>
</g>
<!-- Node9 -->
<g id="node9" class="node">
<title>Node9</title>
<g id="a_node9"><a xlink:title=" ">
<polygon fill="white" stroke="#bfbfbf" points="607.5,-0.5 607.5,-19.5 675.5,-19.5 675.5,-0.5 607.5,-0.5"/>
<text text-anchor="middle" x="641.5" y="-7.5" font-family="Helvetica,sans-Serif" font-size="10.00">Dialogs.hpp</text>
</a>
</g>
</g>
<!-- Node1&#45;&gt;Node9 -->
<g id="edge8" class="edge">
<title>Node1&#45;&gt;Node9</title>
<path fill="none" stroke="midnightblue" d="M553.03,-112.37C569.02,-94.05 606.55,-51.05 627.22,-27.36"/>
<polygon fill="midnightblue" stroke="midnightblue" points="630.06,-29.43 634,-19.59 624.79,-24.82 630.06,-29.43"/>
</g>
<!-- Node10 -->
<g id="node10" class="node">
<title>Node10</title>
<g id="a_node10"><a xlink:title=" ">
<polygon fill="white" stroke="#bfbfbf" points="945.5,-0.5 945.5,-19.5 1019.5,-19.5 1019.5,-0.5 945.5,-0.5"/>
<text text-anchor="middle" x="982.5" y="-7.5" font-family="Helvetica,sans-Serif" font-size="10.00">Graphics.hpp</text>
</a>
</g>
</g>
<!-- Node1&#45;&gt;Node10 -->
<g id="edge9" class="edge">
<title>Node1&#45;&gt;Node10</title>
<path fill="none" stroke="midnightblue" d="M579.43,-112.46C657.84,-92.72 851.58,-43.96 938.75,-22.01"/>
<polygon fill="midnightblue" stroke="midnightblue" points="939.75,-25.37 948.59,-19.53 938.04,-18.58 939.75,-25.37"/>
</g>
<!-- Node11 -->
<g id="node11" class="node">
<title>Node11</title>
<g id="a_node11"><a xlink:title=" ">
<polygon fill="white" stroke="#bfbfbf" points="1139.5,-0.5 1139.5,-19.5 1215.5,-19.5 1215.5,-0.5 1139.5,-0.5"/>
<text text-anchor="middle" x="1177.5" y="-7.5" font-family="Helvetica,sans-Serif" font-size="10.00">ComCtrls.hpp</text>
</a>
</g>
</g>
<!-- Node1&#45;&gt;Node11 -->
<g id="edge10" class="edge">
<title>Node1&#45;&gt;Node11</title>
<path fill="none" stroke="midnightblue" d="M584.57,-114.51C677.17,-99.07 917.5,-58.67 1129.23,-20.21"/>
<polygon fill="midnightblue" stroke="midnightblue" points="1130.08,-23.61 1139.29,-18.38 1128.83,-16.72 1130.08,-23.61"/>
</g>
<!-- Node12 -->
<g id="node12" class="node">
<title>Node12</title>
<g id="a_node12"><a xlink:title=" ">
<polygon fill="white" stroke="#bfbfbf" points="1234,-0.5 1234,-19.5 1283,-19.5 1283,-0.5 1234,-0.5"/>
<text text-anchor="middle" x="1258.5" y="-7.5" font-family="Helvetica,sans-Serif" font-size="10.00">fstream</text>
</a>
</g>
</g>
<!-- Node1&#45;&gt;Node12 -->
<g id="edge11" class="edge">
<title>Node1&#45;&gt;Node12</title>
<path fill="none" stroke="midnightblue" d="M584.85,-116.89C688.24,-105.73 976.09,-72.27 1223.78,-19.97"/>
<polygon fill="midnightblue" stroke="midnightblue" points="1224.63,-23.37 1233.68,-17.87 1223.18,-16.52 1224.63,-23.37"/>
</g>
<!-- Node13 -->
<g id="node13" class="node">
<title>Node13</title>
<g id="a_node13"><a xlink:title=" ">
<polygon fill="white" stroke="#bfbfbf" points="1301.5,-0.5 1301.5,-19.5 1343.5,-19.5 1343.5,-0.5 1301.5,-0.5"/>
<text text-anchor="middle" x="1322.5" y="-7.5" font-family="Helvetica,sans-Serif" font-size="10.00">vector</text>
</a>
</g>
</g>
<!-- Node1&#45;&gt;Node13 -->
<g id="edge12" class="edge">
<title>Node1&#45;&gt;Node13</title>
<path fill="none" stroke="midnightblue" d="M584.81,-118.34C696.62,-110.19 1025.54,-82.29 1291.5,-20 1291.6,-19.98 1291.7,-19.95 1291.8,-19.93"/>
<polygon fill="midnightblue" stroke="midnightblue" points="1292.43,-23.38 1301.23,-17.49 1290.67,-16.61 1292.43,-23.38"/>
</g>
<!-- Node14 -->
<g id="node14" class="node">
<title>Node14</title>
<g id="a_node14"><a xlink:title=" ">
<polygon fill="white" stroke="#bfbfbf" points="1361.5,-0.5 1361.5,-19.5 1397.5,-19.5 1397.5,-0.5 1361.5,-0.5"/>
<text text-anchor="middle" x="1379.5" y="-7.5" font-family="Helvetica,sans-Serif" font-size="10.00">vcl.h</text>
</a>
</g>
</g>
<!-- Node1&#45;&gt;Node14 -->
<g id="edge13" class="edge">
<title>Node1&#45;&gt;Node14</title>
<path fill="none" stroke="midnightblue" d="M584.57,-118.99C671.02,-114.24 884.93,-100.8 1062.5,-76 1189.33,-58.28 1223.85,-53.5 1351.53,-20"/>
<polygon fill="midnightblue" stroke="midnightblue" points="1352.52,-23.36 1361.3,-17.43 1350.74,-16.59 1352.52,-23.36"/>
</g>
<!-- Node15 -->
<g id="node15" class="node">
<title>Node15</title>
<g id="a_node15"><a xlink:href="_about_unit_8h.html" target="_top" xlink:title=" ">
<polygon fill="white" stroke="black" points="264.5,-56.5 264.5,-75.5 332.5,-75.5 332.5,-56.5 264.5,-56.5"/>
<text text-anchor="middle" x="298.5" y="-63.5" font-family="Helvetica,sans-Serif" font-size="10.00">AboutUnit.h</text>
</a>
</g>
</g>
<!-- Node1&#45;&gt;Node15 -->
<g id="edge14" class="edge">
<title>Node1&#45;&gt;Node15</title>
<path fill="none" stroke="midnightblue" d="M506.36,-112.44C461.75,-102.69 389.01,-86.79 342.48,-76.62"/>
<polygon fill="midnightblue" stroke="midnightblue" points="343.2,-73.19 332.68,-74.47 341.7,-80.03 343.2,-73.19"/>
</g>
<!-- Node16 -->
<g id="node16" class="node">
<title>Node16</title>
<g id="a_node16"><a xlink:href="_interface_unit_8h.html" target="_top" xlink:title=" ">
<polygon fill="white" stroke="black" points="612,-56.5 612,-75.5 691,-75.5 691,-56.5 612,-56.5"/>
<text text-anchor="middle" x="651.5" y="-63.5" font-family="Helvetica,sans-Serif" font-size="10.00">InterfaceUnit.h</text>
</a>
</g>
</g>
<!-- Node1&#45;&gt;Node16 -->
<g id="edge21" class="edge">
<title>Node1&#45;&gt;Node16</title>
<path fill="none" stroke="midnightblue" d="M562.53,-112.32C579.53,-103.66 605.88,-90.24 625.49,-80.25"/>
<polygon fill="midnightblue" stroke="midnightblue" points="627.19,-83.31 634.51,-75.65 624.01,-77.08 627.19,-83.31"/>
</g>
<!-- Node15&#45;&gt;Node2 -->
<g id="edge15" class="edge">
<title>Node15&#45;&gt;Node2</title>
<path fill="none" stroke="midnightblue" d="M264.39,-58C217.61,-48.39 133.43,-31.11 81.23,-20.39"/>
<polygon fill="midnightblue" stroke="midnightblue" points="81.73,-16.92 71.24,-18.34 80.33,-23.78 81.73,-16.92"/>
</g>
<!-- Node15&#45;&gt;Node3 -->
<g id="edge16" class="edge">
<title>Node15&#45;&gt;Node3</title>
<path fill="none" stroke="midnightblue" d="M270.93,-56.44C241.4,-47.28 194.38,-32.69 161.62,-22.52"/>
<polygon fill="midnightblue" stroke="midnightblue" points="162.53,-19.14 151.94,-19.52 160.46,-25.82 162.53,-19.14"/>
</g>
<!-- Node15&#45;&gt;Node4 -->
<g id="edge17" class="edge">
<title>Node15&#45;&gt;Node4</title>
<path fill="none" stroke="midnightblue" d="M284.84,-56.32C271.58,-47.9 251.23,-34.97 235.65,-25.07"/>
<polygon fill="midnightblue" stroke="midnightblue" points="237.44,-22.06 227.12,-19.65 233.69,-27.97 237.44,-22.06"/>
</g>
<!-- Node15&#45;&gt;Node5 -->
<g id="edge18" class="edge">
<title>Node15&#45;&gt;Node5</title>
<path fill="none" stroke="midnightblue" d="M298.5,-56.08C298.5,-49.01 298.5,-38.86 298.5,-29.99"/>
<polygon fill="midnightblue" stroke="midnightblue" points="302,-29.75 298.5,-19.75 295,-29.75 302,-29.75"/>
</g>
<!-- Node15&#45;&gt;Node7 -->
<g id="edge19" class="edge">
<title>Node15&#45;&gt;Node7</title>
<path fill="none" stroke="midnightblue" d="M312.16,-56.32C325.42,-47.9 345.77,-34.97 361.35,-25.07"/>
<polygon fill="midnightblue" stroke="midnightblue" points="363.31,-27.97 369.88,-19.65 359.56,-22.06 363.31,-27.97"/>
</g>
<!-- Node15&#45;&gt;Node10 -->
<g id="edge20" class="edge">
<title>Node15&#45;&gt;Node10</title>
<path fill="none" stroke="midnightblue" d="M332.82,-64.01C427.21,-60.98 698.73,-50.21 935.2,-19.85"/>
<polygon fill="midnightblue" stroke="midnightblue" points="935.9,-23.29 945.37,-18.53 935,-16.35 935.9,-23.29"/>
</g>
<!-- Node16&#45;&gt;Node2 -->
<g id="edge22" class="edge">
<title>Node16&#45;&gt;Node2</title>
<path fill="none" stroke="midnightblue" d="M611.79,-63.56C520.01,-59.88 285.96,-48.41 81.48,-20.13"/>
<polygon fill="midnightblue" stroke="midnightblue" points="81.84,-16.65 71.46,-18.73 80.87,-23.58 81.84,-16.65"/>
</g>
<!-- Node16&#45;&gt;Node3 -->
<g id="edge23" class="edge">
<title>Node16&#45;&gt;Node3</title>
<path fill="none" stroke="midnightblue" d="M611.88,-62.77C530.78,-57.9 339.84,-44.82 170.55,-20.17"/>
<polygon fill="midnightblue" stroke="midnightblue" points="170.87,-16.68 160.46,-18.69 169.84,-23.61 170.87,-16.68"/>
</g>
<!-- Node16&#45;&gt;Node4 -->
<g id="edge24" class="edge">
<title>Node16&#45;&gt;Node4</title>
<path fill="none" stroke="midnightblue" d="M611.92,-61.64C542.47,-55.5 394,-41.24 259.54,-20.22"/>
<polygon fill="midnightblue" stroke="midnightblue" points="259.9,-16.73 249.47,-18.63 258.8,-23.64 259.9,-16.73"/>
</g>
<!-- Node16&#45;&gt;Node5 -->
<g id="edge25" class="edge">
<title>Node16&#45;&gt;Node5</title>
<path fill="none" stroke="midnightblue" d="M611.81,-60.31C554.09,-53.26 443.42,-38.92 340.29,-20.22"/>
<polygon fill="midnightblue" stroke="midnightblue" points="340.8,-16.76 330.33,-18.4 339.54,-23.64 340.8,-16.76"/>
</g>
<!-- Node16&#45;&gt;Node6 -->
<g id="edge26" class="edge">
<title>Node16&#45;&gt;Node6</title>
<path fill="none" stroke="midnightblue" d="M622.98,-56.44C592.43,-47.28 543.79,-32.69 509.9,-22.52"/>
<polygon fill="midnightblue" stroke="midnightblue" points="510.47,-19.04 499.89,-19.52 508.46,-25.74 510.47,-19.04"/>
</g>
<!-- Node16&#45;&gt;Node7 -->
<g id="edge27" class="edge">
<title>Node16&#45;&gt;Node7</title>
<path fill="none" stroke="midnightblue" d="M611.84,-57.08C569.07,-48.52 498.71,-34.42 428.89,-20.28"/>
<polygon fill="midnightblue" stroke="midnightblue" points="429.54,-16.84 419.04,-18.28 428.14,-23.7 429.54,-16.84"/>
</g>
<!-- Node16&#45;&gt;Node8 -->
<g id="edge28" class="edge">
<title>Node16&#45;&gt;Node8</title>
<path fill="none" stroke="midnightblue" d="M636.24,-56.32C621.28,-47.82 598.25,-34.73 580.77,-24.8"/>
<polygon fill="midnightblue" stroke="midnightblue" points="582.15,-21.55 571.73,-19.65 578.69,-27.64 582.15,-21.55"/>
</g>
<!-- Node16&#45;&gt;Node9 -->
<g id="edge29" class="edge">
<title>Node16&#45;&gt;Node9</title>
<path fill="none" stroke="midnightblue" d="M649.85,-56.08C648.52,-48.93 646.62,-38.64 644.96,-29.69"/>
<polygon fill="midnightblue" stroke="midnightblue" points="648.38,-28.95 643.12,-19.75 641.5,-30.22 648.38,-28.95"/>
</g>
<!-- Node16&#45;&gt;Node10 -->
<g id="edge30" class="edge">
<title>Node16&#45;&gt;Node10</title>
<path fill="none" stroke="midnightblue" d="M691.08,-59.14C744.14,-51.19 841.51,-36.29 935.37,-19.97"/>
<polygon fill="midnightblue" stroke="midnightblue" points="936.07,-23.4 945.32,-18.23 934.87,-16.51 936.07,-23.4"/>
</g>
<!-- Node16&#45;&gt;Node11 -->
<g id="edge31" class="edge">
<title>Node16&#45;&gt;Node11</title>
<path fill="none" stroke="midnightblue" d="M691.08,-62.57C771.64,-57.34 960.64,-43.66 1129.28,-20.05"/>
<polygon fill="midnightblue" stroke="midnightblue" points="1129.92,-23.49 1139.33,-18.62 1128.94,-16.56 1129.92,-23.49"/>
</g>
<!-- Node16&#45;&gt;Node12 -->
<g id="edge35" class="edge">
<title>Node16&#45;&gt;Node12</title>
<path fill="none" stroke="midnightblue" d="M691.05,-64.34C783,-62.3 1018.29,-54.05 1223.67,-19.81"/>
<polygon fill="midnightblue" stroke="midnightblue" points="1224.46,-23.23 1233.73,-18.11 1223.29,-16.33 1224.46,-23.23"/>
</g>
<!-- Node16&#45;&gt;Node13 -->
<g id="edge36" class="edge">
<title>Node16&#45;&gt;Node13</title>
<path fill="none" stroke="midnightblue" d="M691.18,-65.12C792.2,-64.81 1066.98,-60.02 1291.5,-20 1291.6,-19.98 1291.7,-19.96 1291.8,-19.95"/>
<polygon fill="midnightblue" stroke="midnightblue" points="1292.31,-23.42 1301.3,-17.8 1290.77,-16.59 1292.31,-23.42"/>
</g>
<!-- Node16&#45;&gt;Node14 -->
<g id="edge37" class="edge">
<title>Node16&#45;&gt;Node14</title>
<path fill="none" stroke="midnightblue" d="M691.12,-63.8C816.67,-59.79 1205.47,-45.73 1351.3,-19.65"/>
<polygon fill="midnightblue" stroke="midnightblue" points="1352.19,-23.04 1361.37,-17.75 1350.9,-16.16 1352.19,-23.04"/>
</g>
<!-- Node17 -->
<g id="node17" class="node">
<title>Node17</title>
<g id="a_node17"><a xlink:title=" ">
<polygon fill="white" stroke="#bfbfbf" points="693.5,-0.5 693.5,-19.5 807.5,-19.5 807.5,-0.5 693.5,-0.5"/>
<text text-anchor="middle" x="750.5" y="-7.5" font-family="Helvetica,sans-Serif" font-size="10.00">System.ImageList.hpp</text>
</a>
</g>
</g>
<!-- Node16&#45;&gt;Node17 -->
<g id="edge32" class="edge">
<title>Node16&#45;&gt;Node17</title>
<path fill="none" stroke="midnightblue" d="M667.41,-56.32C683.14,-47.74 707.44,-34.49 725.71,-24.52"/>
<polygon fill="midnightblue" stroke="midnightblue" points="727.53,-27.52 734.63,-19.65 724.18,-21.37 727.53,-27.52"/>
</g>
<!-- Node18 -->
<g id="node18" class="node">
<title>Node18</title>
<g id="a_node18"><a xlink:title=" ">
<polygon fill="white" stroke="#bfbfbf" points="826,-0.5 826,-19.5 927,-19.5 927,-0.5 826,-0.5"/>
<text text-anchor="middle" x="876.5" y="-7.5" font-family="Helvetica,sans-Serif" font-size="10.00">System.IOUtils.hpp</text>
</a>
</g>
</g>
<!-- Node16&#45;&gt;Node18 -->
<g id="edge33" class="edge">
<title>Node16&#45;&gt;Node18</title>
<path fill="none" stroke="midnightblue" d="M687.15,-56.44C726.16,-47.08 788.77,-32.06 831.22,-21.87"/>
<polygon fill="midnightblue" stroke="midnightblue" points="832.11,-25.25 841.01,-19.52 830.47,-18.45 832.11,-25.25"/>
</g>
<!-- Node19 -->
<g id="node19" class="node">
<title>Node19</title>
<g id="a_node19"><a xlink:title=" ">
<polygon fill="white" stroke="#bfbfbf" points="1037.5,-0.5 1037.5,-19.5 1121.5,-19.5 1121.5,-0.5 1037.5,-0.5"/>
<text text-anchor="middle" x="1079.5" y="-7.5" font-family="Helvetica,sans-Serif" font-size="10.00">Vcl.ImgList.hpp</text>
</a>
</g>
</g>
<!-- Node16&#45;&gt;Node19 -->
<g id="edge34" class="edge">
<title>Node16&#45;&gt;Node19</title>
<path fill="none" stroke="midnightblue" d="M691.22,-61C758.31,-54.07 898.55,-38.91 1027.2,-20.12"/>
<polygon fill="midnightblue" stroke="midnightblue" points="1027.84,-23.57 1037.23,-18.65 1026.83,-16.64 1027.84,-23.57"/>
</g>
</g>
</svg>
