<?xml version="1.0" encoding="UTF-8" standalone="no"?>
<!DOCTYPE svg PUBLIC "-//W3C//DTD SVG 1.1//EN"
 "http://www.w3.org/Graphics/SVG/1.1/DTD/svg11.dtd">
<!-- Generated by graphviz version 2.44.1 (20200629.0800)
 -->
<!-- Title: DisplayUnit.h Pages: 1 -->
<svg width="495pt" height="140pt"
 viewBox="0.00 0.00 494.50 140.00" xmlns="http://www.w3.org/2000/svg" xmlns:xlink="http://www.w3.org/1999/xlink">
<g id="graph0" class="graph" transform="scale(1 1) rotate(0) translate(4 136)">
<title>DisplayUnit.h</title>
<polygon fill="white" stroke="transparent" points="-4,4 -4,-136 490.5,-136 490.5,4 -4,4"/>
<!-- Node1 -->
<g id="node1" class="node">
<title>Node1</title>
<g id="a_node1"><a xlink:title=" ">
<polygon fill="#bfbfbf" stroke="black" points="273.5,-112.5 273.5,-131.5 347.5,-131.5 347.5,-112.5 273.5,-112.5"/>
<text text-anchor="middle" x="310.5" y="-119.5" font-family="Helvetica,sans-Serif" font-size="10.00">DisplayUnit.h</text>
</a>
</g>
</g>
<!-- Node2 -->
<g id="node2" class="node">
<title>Node2</title>
<g id="a_node2"><a xlink:href="_track_unit_8h.html" target="_top" xlink:title=" ">
<polygon fill="white" stroke="black" points="230.5,-56.5 230.5,-75.5 296.5,-75.5 296.5,-56.5 230.5,-56.5"/>
<text text-anchor="middle" x="263.5" y="-63.5" font-family="Helvetica,sans-Serif" font-size="10.00">TrackUnit.h</text>
</a>
</g>
</g>
<!-- Node1&#45;&gt;Node2 -->
<g id="edge1" class="edge">
<title>Node1&#45;&gt;Node2</title>
<path fill="none" stroke="midnightblue" d="M296.08,-104.43C287.84,-94.97 277.85,-83.48 271.12,-75.75"/>
<polygon fill="midnightblue" stroke="midnightblue" points="293.53,-106.84 302.74,-112.08 298.81,-102.24 293.53,-106.84"/>
</g>
<!-- Node8 -->
<g id="node8" class="node">
<title>Node8</title>
<g id="a_node8"><a xlink:href="_display_unit_8cpp.html" target="_top" xlink:title=" ">
<polygon fill="white" stroke="black" points="315,-56.5 315,-75.5 400,-75.5 400,-56.5 315,-56.5"/>
<text text-anchor="middle" x="357.5" y="-63.5" font-family="Helvetica,sans-Serif" font-size="10.00">DisplayUnit.cpp</text>
</a>
</g>
</g>
<!-- Node1&#45;&gt;Node8 -->
<g id="edge7" class="edge">
<title>Node1&#45;&gt;Node8</title>
<path fill="none" stroke="midnightblue" d="M324.92,-104.43C333.16,-94.97 343.15,-83.48 349.88,-75.75"/>
<polygon fill="midnightblue" stroke="midnightblue" points="322.19,-102.24 318.26,-112.08 327.47,-106.84 322.19,-102.24"/>
</g>
<!-- Node3 -->
<g id="node3" class="node">
<title>Node3</title>
<g id="a_node3"><a xlink:href="_actions_due_unit_8cpp.html" target="_top" xlink:title=" ">
<polygon fill="white" stroke="black" points="0,-0.5 0,-19.5 103,-19.5 103,-0.5 0,-0.5"/>
<text text-anchor="middle" x="51.5" y="-7.5" font-family="Helvetica,sans-Serif" font-size="10.00">ActionsDueUnit.cpp</text>
</a>
</g>
</g>
<!-- Node2&#45;&gt;Node3 -->
<g id="edge2" class="edge">
<title>Node2&#45;&gt;Node3</title>
<path fill="none" stroke="midnightblue" d="M220.64,-54.08C180.64,-43.9 121.78,-28.9 85.09,-19.56"/>
<polygon fill="midnightblue" stroke="midnightblue" points="219.82,-57.49 230.38,-56.56 221.55,-50.7 219.82,-57.49"/>
</g>
<!-- Node4 -->
<g id="node4" class="node">
<title>Node4</title>
<g id="a_node4"><a xlink:href="_interface_unit_8cpp.html" target="_top" xlink:title=" ">
<polygon fill="white" stroke="black" points="121,-0.5 121,-19.5 210,-19.5 210,-0.5 121,-0.5"/>
<text text-anchor="middle" x="165.5" y="-7.5" font-family="Helvetica,sans-Serif" font-size="10.00">InterfaceUnit.cpp</text>
</a>
</g>
</g>
<!-- Node2&#45;&gt;Node4 -->
<g id="edge3" class="edge">
<title>Node2&#45;&gt;Node4</title>
<path fill="none" stroke="midnightblue" d="M238.91,-51.45C220.82,-41.48 196.77,-28.23 181.21,-19.65"/>
<polygon fill="midnightblue" stroke="midnightblue" points="237.31,-54.56 247.75,-56.32 240.69,-48.43 237.31,-54.56"/>
</g>
<!-- Node5 -->
<g id="node5" class="node">
<title>Node5</title>
<g id="a_node5"><a xlink:href="_text_unit_8cpp.html" target="_top" xlink:title=" ">
<polygon fill="white" stroke="black" points="228,-0.5 228,-19.5 299,-19.5 299,-0.5 228,-0.5"/>
<text text-anchor="middle" x="263.5" y="-7.5" font-family="Helvetica,sans-Serif" font-size="10.00">TextUnit.cpp</text>
</a>
</g>
</g>
<!-- Node2&#45;&gt;Node5 -->
<g id="edge4" class="edge">
<title>Node2&#45;&gt;Node5</title>
<path fill="none" stroke="midnightblue" d="M263.5,-45.8C263.5,-36.91 263.5,-26.78 263.5,-19.75"/>
<polygon fill="midnightblue" stroke="midnightblue" points="260,-46.08 263.5,-56.08 267,-46.08 260,-46.08"/>
</g>
<!-- Node6 -->
<g id="node6" class="node">
<title>Node6</title>
<g id="a_node6"><a xlink:href="_track_unit_8cpp.html" target="_top" xlink:title=" ">
<polygon fill="white" stroke="black" points="317,-0.5 317,-19.5 394,-19.5 394,-0.5 317,-0.5"/>
<text text-anchor="middle" x="355.5" y="-7.5" font-family="Helvetica,sans-Serif" font-size="10.00">TrackUnit.cpp</text>
</a>
</g>
</g>
<!-- Node2&#45;&gt;Node6 -->
<g id="edge5" class="edge">
<title>Node2&#45;&gt;Node6</title>
<path fill="none" stroke="midnightblue" d="M287.05,-51.18C303.98,-41.24 326.28,-28.15 340.76,-19.65"/>
<polygon fill="midnightblue" stroke="midnightblue" points="285.13,-48.24 278.28,-56.32 288.68,-54.28 285.13,-48.24"/>
</g>
<!-- Node7 -->
<g id="node7" class="node">
<title>Node7</title>
<g id="a_node7"><a xlink:href="_train_unit_8cpp.html" target="_top" xlink:title=" ">
<polygon fill="white" stroke="black" points="412.5,-0.5 412.5,-19.5 486.5,-19.5 486.5,-0.5 412.5,-0.5"/>
<text text-anchor="middle" x="449.5" y="-7.5" font-family="Helvetica,sans-Serif" font-size="10.00">TrainUnit.cpp</text>
</a>
</g>
</g>
<!-- Node2&#45;&gt;Node7 -->
<g id="edge6" class="edge">
<title>Node2&#45;&gt;Node7</title>
<path fill="none" stroke="midnightblue" d="M302.88,-53.57C337.97,-43.38 388.52,-28.7 420.17,-19.52"/>
<polygon fill="midnightblue" stroke="midnightblue" points="301.6,-50.29 292.97,-56.44 303.55,-57.02 301.6,-50.29"/>
</g>
</g>
</svg>
