<?xml version="1.0" encoding="UTF-8" standalone="no"?>
<!DOCTYPE svg PUBLIC "-//W3C//DTD SVG 1.1//EN"
 "http://www.w3.org/Graphics/SVG/1.1/DTD/svg11.dtd">
<!-- Generated by graphviz version 2.44.1 (20200629.0800)
 -->
<!-- Title: DisplayUnit.h Pages: 1 -->
<svg width="503pt" height="140pt"
 viewBox="0.00 0.00 502.50 140.00" xmlns="http://www.w3.org/2000/svg" xmlns:xlink="http://www.w3.org/1999/xlink">
<g id="graph0" class="graph" transform="scale(1 1) rotate(0) translate(4 136)">
<title>DisplayUnit.h</title>
<polygon fill="white" stroke="transparent" points="-4,4 -4,-136 498.5,-136 498.5,4 -4,4"/>
<!-- Node1 -->
<g id="node1" class="node">
<title>Node1</title>
<g id="a_node1"><a xlink:title=" ">
<polygon fill="#bfbfbf" stroke="black" points="206.5,-112.5 206.5,-131.5 280.5,-131.5 280.5,-112.5 206.5,-112.5"/>
<text text-anchor="middle" x="243.5" y="-119.5" font-family="Helvetica,sans-Serif" font-size="10.00">DisplayUnit.h</text>
</a>
</g>
</g>
<!-- Node2 -->
<g id="node2" class="node">
<title>Node2</title>
<g id="a_node2"><a xlink:href="_display_unit_8cpp.html" target="_top" xlink:title=" ">
<polygon fill="white" stroke="black" points="62,-56.5 62,-75.5 147,-75.5 147,-56.5 62,-56.5"/>
<text text-anchor="middle" x="104.5" y="-63.5" font-family="Helvetica,sans-Serif" font-size="10.00">DisplayUnit.cpp</text>
</a>
</g>
</g>
<!-- Node1&#45;&gt;Node2 -->
<g id="edge1" class="edge">
<title>Node1&#45;&gt;Node2</title>
<path fill="none" stroke="midnightblue" d="M212.02,-108.77C185.91,-98.63 149.46,-84.47 126.42,-75.52"/>
<polygon fill="midnightblue" stroke="midnightblue" points="210.89,-112.08 221.48,-112.44 213.42,-105.56 210.89,-112.08"/>
</g>
<!-- Node3 -->
<g id="node3" class="node">
<title>Node3</title>
<g id="a_node3"><a xlink:href="_interface_unit_8cpp.html" target="_top" xlink:title=" ">
<polygon fill="white" stroke="black" points="0,-0.5 0,-19.5 89,-19.5 89,-0.5 0,-0.5"/>
<text text-anchor="middle" x="44.5" y="-7.5" font-family="Helvetica,sans-Serif" font-size="10.00">InterfaceUnit.cpp</text>
</a>
</g>
</g>
<!-- Node1&#45;&gt;Node3 -->
<g id="edge2" class="edge">
<title>Node1&#45;&gt;Node3</title>
<path fill="none" stroke="midnightblue" d="M225.49,-105.58C208.32,-91.41 181.32,-70.47 155.5,-56 127.93,-40.55 93.96,-27.58 70.92,-19.6"/>
<polygon fill="midnightblue" stroke="midnightblue" points="223.6,-108.56 233.51,-112.3 228.09,-103.2 223.6,-108.56"/>
</g>
<!-- Node4 -->
<g id="node4" class="node">
<title>Node4</title>
<g id="a_node4"><a xlink:href="_track_unit_8h.html" target="_top" xlink:title=" ">
<polygon fill="white" stroke="black" points="241.5,-56.5 241.5,-75.5 307.5,-75.5 307.5,-56.5 241.5,-56.5"/>
<text text-anchor="middle" x="274.5" y="-63.5" font-family="Helvetica,sans-Serif" font-size="10.00">TrackUnit.h</text>
</a>
</g>
</g>
<!-- Node1&#45;&gt;Node4 -->
<g id="edge3" class="edge">
<title>Node1&#45;&gt;Node4</title>
<path fill="none" stroke="midnightblue" d="M253.68,-103.27C258.97,-94.05 265.22,-83.17 269.48,-75.75"/>
<polygon fill="midnightblue" stroke="midnightblue" points="250.56,-101.67 248.62,-112.08 256.63,-105.15 250.56,-101.67"/>
</g>
<!-- Node5 -->
<g id="node5" class="node">
<title>Node5</title>
<g id="a_node5"><a xlink:href="_interface_unit2_87_80_8cpp.html" target="_top" xlink:title=" ">
<polygon fill="white" stroke="black" points="107,-0.5 107,-19.5 218,-19.5 218,-0.5 107,-0.5"/>
<text text-anchor="middle" x="162.5" y="-7.5" font-family="Helvetica,sans-Serif" font-size="10.00">InterfaceUnit2.7.0.cpp</text>
</a>
</g>
</g>
<!-- Node1&#45;&gt;Node5 -->
<g id="edge9" class="edge">
<title>Node1&#45;&gt;Node5</title>
<path fill="none" stroke="midnightblue" d="M231.18,-104.27C213.67,-80.49 182.23,-37.79 168.83,-19.59"/>
<polygon fill="midnightblue" stroke="midnightblue" points="228.4,-106.39 237.14,-112.37 234.03,-102.24 228.4,-106.39"/>
</g>
<!-- Node6 -->
<g id="node6" class="node">
<title>Node6</title>
<g id="a_node6"><a xlink:href="_text_unit_8cpp.html" target="_top" xlink:title=" ">
<polygon fill="white" stroke="black" points="331,-0.5 331,-19.5 402,-19.5 402,-0.5 331,-0.5"/>
<text text-anchor="middle" x="366.5" y="-7.5" font-family="Helvetica,sans-Serif" font-size="10.00">TextUnit.cpp</text>
</a>
</g>
</g>
<!-- Node1&#45;&gt;Node6 -->
<g id="edge10" class="edge">
<title>Node1&#45;&gt;Node6</title>
<path fill="none" stroke="midnightblue" d="M270.25,-107.6C284.81,-99.57 302.62,-88.51 316.5,-76 335.74,-58.65 352.9,-33.12 361.21,-19.8"/>
<polygon fill="midnightblue" stroke="midnightblue" points="268.4,-104.62 261.23,-112.42 271.7,-110.79 268.4,-104.62"/>
</g>
<!-- Node8 -->
<g id="node8" class="node">
<title>Node8</title>
<g id="a_node8"><a xlink:href="_train_unit_8cpp.html" target="_top" xlink:title=" ">
<polygon fill="white" stroke="black" points="420.5,-0.5 420.5,-19.5 494.5,-19.5 494.5,-0.5 420.5,-0.5"/>
<text text-anchor="middle" x="457.5" y="-7.5" font-family="Helvetica,sans-Serif" font-size="10.00">TrainUnit.cpp</text>
</a>
</g>
</g>
<!-- Node1&#45;&gt;Node8 -->
<g id="edge11" class="edge">
<title>Node1&#45;&gt;Node8</title>
<path fill="none" stroke="midnightblue" d="M272.25,-108.32C291.69,-99.59 317.85,-87.52 340.5,-76 377.98,-56.92 420.95,-32.33 442.91,-19.56"/>
<polygon fill="midnightblue" stroke="midnightblue" points="270.73,-105.17 263.02,-112.44 273.58,-111.56 270.73,-105.17"/>
</g>
<!-- Node4&#45;&gt;Node3 -->
<g id="edge4" class="edge">
<title>Node4&#45;&gt;Node3</title>
<path fill="none" stroke="midnightblue" d="M231.08,-54.81C187.71,-44.62 121.79,-29.15 81.03,-19.58"/>
<polygon fill="midnightblue" stroke="midnightblue" points="230.52,-58.27 241.06,-57.15 232.12,-51.45 230.52,-58.27"/>
</g>
<!-- Node4&#45;&gt;Node5 -->
<g id="edge5" class="edge">
<title>Node4&#45;&gt;Node5</title>
<path fill="none" stroke="midnightblue" d="M247.25,-51.86C226.48,-41.85 198.48,-28.35 180.45,-19.65"/>
<polygon fill="midnightblue" stroke="midnightblue" points="245.98,-55.13 256.51,-56.32 249.02,-48.83 245.98,-55.13"/>
</g>
<!-- Node4&#45;&gt;Node6 -->
<g id="edge6" class="edge">
<title>Node4&#45;&gt;Node6</title>
<path fill="none" stroke="midnightblue" d="M298.05,-51.18C314.98,-41.24 337.28,-28.15 351.76,-19.65"/>
<polygon fill="midnightblue" stroke="midnightblue" points="296.13,-48.24 289.28,-56.32 299.68,-54.28 296.13,-48.24"/>
</g>
<!-- Node7 -->
<g id="node7" class="node">
<title>Node7</title>
<g id="a_node7"><a xlink:href="_track_unit_8cpp.html" target="_top" xlink:title=" ">
<polygon fill="white" stroke="black" points="236,-0.5 236,-19.5 313,-19.5 313,-0.5 236,-0.5"/>
<text text-anchor="middle" x="274.5" y="-7.5" font-family="Helvetica,sans-Serif" font-size="10.00">TrackUnit.cpp</text>
</a>
</g>
</g>
<!-- Node4&#45;&gt;Node7 -->
<g id="edge7" class="edge">
<title>Node4&#45;&gt;Node7</title>
<path fill="none" stroke="midnightblue" d="M274.5,-45.8C274.5,-36.91 274.5,-26.78 274.5,-19.75"/>
<polygon fill="midnightblue" stroke="midnightblue" points="271,-46.08 274.5,-56.08 278,-46.08 271,-46.08"/>
</g>
<!-- Node4&#45;&gt;Node8 -->
<g id="edge8" class="edge">
<title>Node4&#45;&gt;Node8</title>
<path fill="none" stroke="midnightblue" d="M313.24,-53.57C347.76,-43.38 397.51,-28.7 428.64,-19.52"/>
<polygon fill="midnightblue" stroke="midnightblue" points="312.1,-50.26 303.5,-56.44 314.08,-56.97 312.1,-50.26"/>
</g>
</g>
</svg>
