<?xml version="1.0" encoding="UTF-8" standalone="no"?>
<!DOCTYPE svg PUBLIC "-//W3C//DTD SVG 1.1//EN"
 "http://www.w3.org/Graphics/SVG/1.1/DTD/svg11.dtd">
<!-- Generated by graphviz version 2.44.1 (20200629.0800)
 -->
<!-- Title: DisplayUnit.h Pages: 1 -->
<svg width="114pt" height="84pt"
 viewBox="0.00 0.00 114.00 84.00" xmlns="http://www.w3.org/2000/svg" xmlns:xlink="http://www.w3.org/1999/xlink">
<g id="graph0" class="graph" transform="scale(1 1) rotate(0) translate(4 80)">
<title>DisplayUnit.h</title>
<polygon fill="white" stroke="transparent" points="-4,4 -4,-80 110,-80 110,4 -4,4"/>
<!-- Node1 -->
<g id="node1" class="node">
<title>Node1</title>
<g id="a_node1"><a xlink:title=" ">
<polygon fill="#bfbfbf" stroke="black" points="12,-56.5 12,-75.5 86,-75.5 86,-56.5 12,-56.5"/>
<text text-anchor="middle" x="49" y="-63.5" font-family="Helvetica,sans-Serif" font-size="10.00">DisplayUnit.h</text>
</a>
</g>
</g>
<!-- Node2 -->
<g id="node2" class="node">
<title>Node2</title>
<g id="a_node2"><a xlink:title=" ">
<polygon fill="white" stroke="#bfbfbf" points="0,-0.5 0,-19.5 36,-19.5 36,-0.5 0,-0.5"/>
<text text-anchor="middle" x="18" y="-7.5" font-family="Helvetica,sans-Serif" font-size="10.00">vcl.h</text>
</a>
</g>
</g>
<!-- Node1&#45;&gt;Node2 -->
<g id="edge1" class="edge">
<title>Node1&#45;&gt;Node2</title>
<path fill="none" stroke="midnightblue" d="M43.88,-56.08C39.59,-48.61 33.34,-37.72 28.06,-28.52"/>
<polygon fill="midnightblue" stroke="midnightblue" points="31.04,-26.68 23.02,-19.75 24.97,-30.17 31.04,-26.68"/>
</g>
<!-- Node3 -->
<g id="node3" class="node">
<title>Node3</title>
<g id="a_node3"><a xlink:title=" ">
<polygon fill="white" stroke="#bfbfbf" points="54,-0.5 54,-19.5 106,-19.5 106,-0.5 54,-0.5"/>
<text text-anchor="middle" x="80" y="-7.5" font-family="Helvetica,sans-Serif" font-size="10.00">memory</text>
</a>
</g>
</g>
<!-- Node1&#45;&gt;Node3 -->
<g id="edge2" class="edge">
<title>Node1&#45;&gt;Node3</title>
<path fill="none" stroke="midnightblue" d="M54.12,-56.08C58.41,-48.61 64.66,-37.72 69.94,-28.52"/>
<polygon fill="midnightblue" stroke="midnightblue" points="73.03,-30.17 74.98,-19.75 66.96,-26.68 73.03,-30.17"/>
</g>
</g>
</svg>
