<?xml version="1.0" encoding="UTF-8" standalone="no"?>
<!DOCTYPE svg PUBLIC "-//W3C//DTD SVG 1.1//EN"
 "http://www.w3.org/Graphics/SVG/1.1/DTD/svg11.dtd">
<!-- Generated by graphviz version 2.44.1 (20200629.0800)
 -->
<!-- Title: DisplayUnit.cpp Pages: 1 -->
<!--zoomable 140 -->
<svg id="main" version="1.1" xmlns="http://www.w3.org/2000/svg" xmlns:xlink="http://www.w3.org/1999/xlink" xml:space="preserve" onload="init(evt)">
<style type="text/css"><![CDATA[
.edge:hover path { stroke: red; }
.edge:hover polygon { stroke: red; fill: red; }
]]></style>
<script type="text/javascript"><![CDATA[
var edges = document.getElementsByTagName('g');
if (edges && edges.length) {
  for (var i=0;i<edges.length;i++) {
    if (edges[i].id.substr(0,4)=='edge') {
      edges[i].setAttribute('class','edge');
    }
  }
}
]]></script>
        <defs>
                <circle id="rim" cx="0" cy="0" r="7"/>
                <circle id="rim2" cx="0" cy="0" r="3.5"/>
                <g id="zoomPlus">
                        <use xlink:href="#rim" fill="#404040">
                                <set attributeName="fill" to="#808080" begin="zoomplus.mouseover" end="zoomplus.mouseout"/>
                        </use>
                        <path d="M-4,0h8M0,-4v8" fill="none" stroke="white" stroke-width="1.5" pointer-events="none"/>
                </g>
                <g id="zoomMin">
                        <use xlink:href="#rim" fill="#404040">
                                <set attributeName="fill" to="#808080" begin="zoomminus.mouseover" end="zoomminus.mouseout"/>
                        </use>
                        <path d="M-4,0h8" fill="none" stroke="white" stroke-width="1.5" pointer-events="none"/>
                </g>
                <g id="dirArrow">
                        <path fill="none" stroke="white" stroke-width="1.5" d="M0,-3.0v7 M-2.5,-0.5L0,-3.0L2.5,-0.5"/>
                </g>
               <g id="resetDef">
                       <use xlink:href="#rim2" fill="#404040">
                               <set attributeName="fill" to="#808080" begin="reset.mouseover" end="reset.mouseout"/>
                       </use>
               </g>
        </defs>

<script type="text/javascript">
var viewWidth = 1458;
var viewHeight = 140;
var sectionId = 'dynsection-0';
</script>
<script xlink:href="svgpan.js"/>
<svg id="graph" class="graph">
<g id="viewport">
<title>DisplayUnit.cpp</title>
<polygon fill="white" stroke="transparent" points="-4,4 -4,-136 1454,-136 1454,4 -4,4"/>
<!-- Node1 -->
<g id="node1" class="node">
<title>Node1</title>
<g id="a_node1"><a xlink:title=" ">
<polygon fill="#bfbfbf" stroke="black" points="562,-112.5 562,-131.5 647,-131.5 647,-112.5 562,-112.5"/>
<text text-anchor="middle" x="604.5" y="-119.5" font-family="Helvetica,sans-Serif" font-size="10.00">DisplayUnit.cpp</text>
</a>
</g>
</g>
<!-- Node2 -->
<g id="node2" class="node">
<title>Node2</title>
<g id="a_node2"><a xlink:title=" ">
<polygon fill="white" stroke="#bfbfbf" points="0,-0.5 0,-19.5 71,-19.5 71,-0.5 0,-0.5"/>
<text text-anchor="middle" x="35.5" y="-7.5" font-family="Helvetica,sans-Serif" font-size="10.00">Classes.hpp</text>
</a>
</g>
</g>
<!-- Node1&#45;&gt;Node2 -->
<g id="edge1" class="edge">
<title>Node1&#45;&gt;Node2</title>
<path fill="none" stroke="midnightblue" d="M561.73,-121.08C483.73,-120.23 313.74,-113.74 176.5,-76 133.02,-64.04 86.16,-39.96 58.9,-24.7"/>
<polygon fill="midnightblue" stroke="midnightblue" points="60.54,-21.61 50.12,-19.71 57.08,-27.69 60.54,-21.61"/>
</g>
<!-- Node3 -->
<g id="node3" class="node">
<title>Node3</title>
<g id="a_node3"><a xlink:title=" ">
<polygon fill="white" stroke="#bfbfbf" points="89,-0.5 89,-19.5 160,-19.5 160,-0.5 89,-0.5"/>
<text text-anchor="middle" x="124.5" y="-7.5" font-family="Helvetica,sans-Serif" font-size="10.00">Controls.hpp</text>
</a>
</g>
</g>
<!-- Node1&#45;&gt;Node3 -->
<g id="edge2" class="edge">
<title>Node1&#45;&gt;Node3</title>
<path fill="none" stroke="midnightblue" d="M562,-118.77C474.66,-113.74 277.99,-100.07 215.5,-76 186.23,-64.72 157.66,-41.79 140.56,-26.41"/>
<polygon fill="midnightblue" stroke="midnightblue" points="142.86,-23.76 133.14,-19.54 138.11,-28.9 142.86,-23.76"/>
</g>
<!-- Node4 -->
<g id="node4" class="node">
<title>Node4</title>
<g id="a_node4"><a xlink:title=" ">
<polygon fill="white" stroke="#bfbfbf" points="178,-0.5 178,-19.5 249,-19.5 249,-0.5 178,-0.5"/>
<text text-anchor="middle" x="213.5" y="-7.5" font-family="Helvetica,sans-Serif" font-size="10.00">StdCtrls.hpp</text>
</a>
</g>
</g>
<!-- Node1&#45;&gt;Node4 -->
<g id="edge3" class="edge">
<title>Node1&#45;&gt;Node4</title>
<path fill="none" stroke="midnightblue" d="M561.96,-121.61C474.83,-121.96 280.21,-117.9 231.5,-76 218.34,-64.68 214.39,-44.68 213.39,-29.85"/>
<polygon fill="midnightblue" stroke="midnightblue" points="216.88,-29.63 213.1,-19.74 209.89,-29.83 216.88,-29.63"/>
</g>
<!-- Node5 -->
<g id="node5" class="node">
<title>Node5</title>
<g id="a_node5"><a xlink:title=" ">
<polygon fill="white" stroke="#bfbfbf" points="267,-0.5 267,-19.5 330,-19.5 330,-0.5 267,-0.5"/>
<text text-anchor="middle" x="298.5" y="-7.5" font-family="Helvetica,sans-Serif" font-size="10.00">Forms.hpp</text>
</a>
</g>
</g>
<!-- Node1&#45;&gt;Node5 -->
<g id="edge4" class="edge">
<title>Node1&#45;&gt;Node5</title>
<path fill="none" stroke="midnightblue" d="M561.76,-112.75C525.63,-105.14 472.83,-92.53 428.5,-76 389.93,-61.61 347.72,-39.16 322.17,-24.77"/>
<polygon fill="midnightblue" stroke="midnightblue" points="323.66,-21.59 313.24,-19.68 320.2,-27.67 323.66,-21.59"/>
</g>
<!-- Node6 -->
<g id="node6" class="node">
<title>Node6</title>
<g id="a_node6"><a xlink:title=" ">
<polygon fill="white" stroke="#bfbfbf" points="348,-0.5 348,-19.5 417,-19.5 417,-0.5 348,-0.5"/>
<text text-anchor="middle" x="382.5" y="-7.5" font-family="Helvetica,sans-Serif" font-size="10.00">Buttons.hpp</text>
</a>
</g>
</g>
<!-- Node1&#45;&gt;Node6 -->
<g id="edge5" class="edge">
<title>Node1&#45;&gt;Node6</title>
<path fill="none" stroke="midnightblue" d="M561.78,-112.5C531.91,-105.44 491.75,-93.66 459.5,-76 435.68,-62.95 412.43,-41.83 397.82,-27.22"/>
<polygon fill="midnightblue" stroke="midnightblue" points="400.14,-24.58 390.65,-19.86 395.13,-29.47 400.14,-24.58"/>
</g>
<!-- Node7 -->
<g id="node7" class="node">
<title>Node7</title>
<g id="a_node7"><a xlink:title=" ">
<polygon fill="white" stroke="#bfbfbf" points="435,-0.5 435,-19.5 506,-19.5 506,-0.5 435,-0.5"/>
<text text-anchor="middle" x="470.5" y="-7.5" font-family="Helvetica,sans-Serif" font-size="10.00">ExtCtrls.hpp</text>
</a>
</g>
</g>
<!-- Node1&#45;&gt;Node7 -->
<g id="edge6" class="edge">
<title>Node1&#45;&gt;Node7</title>
<path fill="none" stroke="midnightblue" d="M561.86,-119.31C530.69,-115.56 490.37,-104.96 469.5,-76 459.92,-62.71 461.53,-43.58 464.71,-29.52"/>
<polygon fill="midnightblue" stroke="midnightblue" points="468.18,-30.1 467.43,-19.53 461.43,-28.27 468.18,-30.1"/>
</g>
<!-- Node8 -->
<g id="node8" class="node">
<title>Node8</title>
<g id="a_node8"><a xlink:title=" ">
<polygon fill="white" stroke="#bfbfbf" points="487,-56.5 487,-75.5 552,-75.5 552,-56.5 487,-56.5"/>
<text text-anchor="middle" x="519.5" y="-63.5" font-family="Helvetica,sans-Serif" font-size="10.00">Menus.hpp</text>
</a>
</g>
</g>
<!-- Node1&#45;&gt;Node8 -->
<g id="edge7" class="edge">
<title>Node1&#45;&gt;Node8</title>
<path fill="none" stroke="midnightblue" d="M590.84,-112.32C577.58,-103.9 557.23,-90.97 541.65,-81.07"/>
<polygon fill="midnightblue" stroke="midnightblue" points="543.44,-78.06 533.12,-75.65 539.69,-83.97 543.44,-78.06"/>
</g>
<!-- Node9 -->
<g id="node9" class="node">
<title>Node9</title>
<g id="a_node9"><a xlink:title=" ">
<polygon fill="white" stroke="#bfbfbf" points="570.5,-56.5 570.5,-75.5 638.5,-75.5 638.5,-56.5 570.5,-56.5"/>
<text text-anchor="middle" x="604.5" y="-63.5" font-family="Helvetica,sans-Serif" font-size="10.00">Dialogs.hpp</text>
</a>
</g>
</g>
<!-- Node1&#45;&gt;Node9 -->
<g id="edge8" class="edge">
<title>Node1&#45;&gt;Node9</title>
<path fill="none" stroke="midnightblue" d="M604.5,-112.08C604.5,-105.01 604.5,-94.86 604.5,-85.99"/>
<polygon fill="midnightblue" stroke="midnightblue" points="608,-85.75 604.5,-75.75 601,-85.75 608,-85.75"/>
</g>
<!-- Node10 -->
<g id="node10" class="node">
<title>Node10</title>
<g id="a_node10"><a xlink:title=" ">
<polygon fill="white" stroke="#bfbfbf" points="524.5,-0.5 524.5,-19.5 598.5,-19.5 598.5,-0.5 524.5,-0.5"/>
<text text-anchor="middle" x="561.5" y="-7.5" font-family="Helvetica,sans-Serif" font-size="10.00">Graphics.hpp</text>
</a>
</g>
</g>
<!-- Node1&#45;&gt;Node10 -->
<g id="edge9" class="edge">
<title>Node1&#45;&gt;Node10</title>
<path fill="none" stroke="midnightblue" d="M561.85,-118.18C532.87,-113.77 496.47,-102.84 477.5,-76 461.3,-53.07 494.09,-34.42 523.33,-23.07"/>
<polygon fill="midnightblue" stroke="midnightblue" points="524.85,-26.24 533.03,-19.51 522.44,-19.67 524.85,-26.24"/>
</g>
<!-- Node11 -->
<g id="node11" class="node">
<title>Node11</title>
<g id="a_node11"><a xlink:title=" ">
<polygon fill="white" stroke="#bfbfbf" points="656.5,-56.5 656.5,-75.5 732.5,-75.5 732.5,-56.5 656.5,-56.5"/>
<text text-anchor="middle" x="694.5" y="-63.5" font-family="Helvetica,sans-Serif" font-size="10.00">ComCtrls.hpp</text>
</a>
</g>
</g>
<!-- Node1&#45;&gt;Node11 -->
<g id="edge10" class="edge">
<title>Node1&#45;&gt;Node11</title>
<path fill="none" stroke="midnightblue" d="M618.96,-112.32C633,-103.9 654.55,-90.97 671.04,-81.07"/>
<polygon fill="midnightblue" stroke="midnightblue" points="673.3,-83.8 680.08,-75.65 669.7,-77.8 673.3,-83.8"/>
</g>
<!-- Node12 -->
<g id="node12" class="node">
<title>Node12</title>
<g id="a_node12"><a xlink:title=" ">
<polygon fill="white" stroke="#bfbfbf" points="876,-0.5 876,-19.5 925,-19.5 925,-0.5 876,-0.5"/>
<text text-anchor="middle" x="900.5" y="-7.5" font-family="Helvetica,sans-Serif" font-size="10.00">fstream</text>
</a>
</g>
</g>
<!-- Node1&#45;&gt;Node12 -->
<g id="edge11" class="edge">
<title>Node1&#45;&gt;Node12</title>
<path fill="none" stroke="midnightblue" d="M647.03,-117.01C708.35,-110.63 817.92,-96.7 851.5,-76 869.68,-64.79 883.47,-44.16 891.72,-29.14"/>
<polygon fill="midnightblue" stroke="midnightblue" points="895.05,-30.32 896.53,-19.83 888.83,-27.11 895.05,-30.32"/>
</g>
<!-- Node13 -->
<g id="node13" class="node">
<title>Node13</title>
<g id="a_node13"><a xlink:title=" ">
<polygon fill="white" stroke="#bfbfbf" points="994.5,-56.5 994.5,-75.5 1036.5,-75.5 1036.5,-56.5 994.5,-56.5"/>
<text text-anchor="middle" x="1015.5" y="-63.5" font-family="Helvetica,sans-Serif" font-size="10.00">vector</text>
</a>
</g>
</g>
<!-- Node1&#45;&gt;Node13 -->
<g id="edge12" class="edge">
<title>Node1&#45;&gt;Node13</title>
<path fill="none" stroke="midnightblue" d="M647.17,-118.39C716.24,-113.64 856.82,-101.78 984.37,-75.9"/>
<polygon fill="midnightblue" stroke="midnightblue" points="985.23,-79.3 994.31,-73.85 983.81,-72.45 985.23,-79.3"/>
</g>
<!-- Node14 -->
<g id="node14" class="node">
<title>Node14</title>
<g id="a_node14"><a xlink:title=" ">
<polygon fill="white" stroke="#bfbfbf" points="821.5,-0.5 821.5,-19.5 857.5,-19.5 857.5,-0.5 821.5,-0.5"/>
<text text-anchor="middle" x="839.5" y="-7.5" font-family="Helvetica,sans-Serif" font-size="10.00">vcl.h</text>
</a>
</g>
</g>
<!-- Node1&#45;&gt;Node14 -->
<g id="edge13" class="edge">
<title>Node1&#45;&gt;Node14</title>
<path fill="none" stroke="midnightblue" d="M647.1,-118.58C706.35,-114.26 809.13,-102.99 833.5,-76 844.53,-63.79 844.98,-44.52 843.3,-30.13"/>
<polygon fill="midnightblue" stroke="midnightblue" points="846.69,-29.18 841.66,-19.86 839.78,-30.29 846.69,-29.18"/>
</g>
<!-- Node15 -->
<g id="node15" class="node">
<title>Node15</title>
<g id="a_node15"><a xlink:title=" ">
<polygon fill="white" stroke="#bfbfbf" points="1055,-56.5 1055,-75.5 1162,-75.5 1162,-56.5 1055,-56.5"/>
<text text-anchor="middle" x="1108.5" y="-63.5" font-family="Helvetica,sans-Serif" font-size="10.00">Vcl.Imaging.jpeg.hpp</text>
</a>
</g>
</g>
<!-- Node1&#45;&gt;Node15 -->
<g id="edge14" class="edge">
<title>Node1&#45;&gt;Node15</title>
<path fill="none" stroke="midnightblue" d="M647.14,-117.22C724.23,-110.27 892.18,-94.55 1044.87,-76.03"/>
<polygon fill="midnightblue" stroke="midnightblue" points="1045.4,-79.49 1054.9,-74.81 1044.55,-72.54 1045.4,-79.49"/>
</g>
<!-- Node16 -->
<g id="node16" class="node">
<title>Node16</title>
<g id="a_node16"><a xlink:title=" ">
<polygon fill="white" stroke="#bfbfbf" points="1180,-56.5 1180,-75.5 1311,-75.5 1311,-56.5 1180,-56.5"/>
<text text-anchor="middle" x="1245.5" y="-63.5" font-family="Helvetica,sans-Serif" font-size="10.00">Vcl.Imaging.pngimage.hpp</text>
</a>
</g>
</g>
<!-- Node1&#45;&gt;Node16 -->
<g id="edge15" class="edge">
<title>Node1&#45;&gt;Node16</title>
<path fill="none" stroke="midnightblue" d="M647.23,-118.22C740.24,-112.04 968.24,-96.18 1169.58,-76.16"/>
<polygon fill="midnightblue" stroke="midnightblue" points="1170.15,-79.62 1179.75,-75.14 1169.45,-72.65 1170.15,-79.62"/>
</g>
<!-- Node17 -->
<g id="node17" class="node">
<title>Node17</title>
<g id="a_node17"><a xlink:title=" ">
<polygon fill="white" stroke="#bfbfbf" points="1329,-56.5 1329,-75.5 1450,-75.5 1450,-56.5 1329,-56.5"/>
<text text-anchor="middle" x="1389.5" y="-63.5" font-family="Helvetica,sans-Serif" font-size="10.00">Vcl.Imaging.GIFImg.hpp</text>
</a>
</g>
</g>
<!-- Node1&#45;&gt;Node17 -->
<g id="edge16" class="edge">
<title>Node1&#45;&gt;Node17</title>
<path fill="none" stroke="midnightblue" d="M647.35,-119.31C757.2,-114.76 1057.97,-100.95 1318.9,-76.1"/>
<polygon fill="midnightblue" stroke="midnightblue" points="1319.32,-79.57 1328.94,-75.13 1318.66,-72.6 1319.32,-79.57"/>
</g>
<!-- Node18 -->
<g id="node18" class="node">
<title>Node18</title>
<g id="a_node18"><a xlink:href="_display_unit_8h.html" target="_top" xlink:title=" ">
<polygon fill="white" stroke="black" points="750.5,-56.5 750.5,-75.5 824.5,-75.5 824.5,-56.5 750.5,-56.5"/>
<text text-anchor="middle" x="787.5" y="-63.5" font-family="Helvetica,sans-Serif" font-size="10.00">DisplayUnit.h</text>
</a>
</g>
</g>
<!-- Node1&#45;&gt;Node18 -->
<g id="edge17" class="edge">
<title>Node1&#45;&gt;Node18</title>
<path fill="none" stroke="midnightblue" d="M633.5,-112.44C664.68,-103.24 714.43,-88.56 748.91,-78.39"/>
<polygon fill="midnightblue" stroke="midnightblue" points="750.04,-81.7 758.64,-75.52 748.06,-74.99 750.04,-81.7"/>
</g>
<!-- Node20 -->
<g id="node20" class="node">
<title>Node20</title>
<g id="a_node20"><a xlink:href="_graphic_unit_8h.html" target="_top" xlink:title=" ">
<polygon fill="white" stroke="black" points="240.5,-56.5 240.5,-75.5 316.5,-75.5 316.5,-56.5 240.5,-56.5"/>
<text text-anchor="middle" x="278.5" y="-63.5" font-family="Helvetica,sans-Serif" font-size="10.00">GraphicUnit.h</text>
</a>
</g>
</g>
<!-- Node1&#45;&gt;Node20 -->
<g id="edge20" class="edge">
<title>Node1&#45;&gt;Node20</title>
<path fill="none" stroke="midnightblue" d="M561.77,-114.1C507.84,-105.36 412.26,-89.79 330.5,-76 329.23,-75.79 327.94,-75.57 326.64,-75.35"/>
<polygon fill="midnightblue" stroke="midnightblue" points="327,-71.86 316.55,-73.62 325.82,-78.76 327,-71.86"/>
</g>
<!-- Node21 -->
<g id="node21" class="node">
<title>Node21</title>
<g id="a_node21"><a xlink:href="_utilities_8h.html" target="_top" xlink:title=" ">
<polygon fill="white" stroke="black" points="919,-56.5 919,-75.5 976,-75.5 976,-56.5 919,-56.5"/>
<text text-anchor="middle" x="947.5" y="-63.5" font-family="Helvetica,sans-Serif" font-size="10.00">Utilities.h</text>
</a>
</g>
</g>
<!-- Node1&#45;&gt;Node21 -->
<g id="edge28" class="edge">
<title>Node1&#45;&gt;Node21</title>
<path fill="none" stroke="midnightblue" d="M647.35,-115.36C705.68,-107.5 813.27,-92.38 904.5,-76 905.95,-75.74 907.44,-75.47 908.93,-75.18"/>
<polygon fill="midnightblue" stroke="midnightblue" points="909.73,-78.59 918.86,-73.23 908.38,-71.73 909.73,-78.59"/>
</g>
<!-- Node18&#45;&gt;Node14 -->
<g id="edge18" class="edge">
<title>Node18&#45;&gt;Node14</title>
<path fill="none" stroke="midnightblue" d="M796.09,-56.08C803.66,-48.22 814.88,-36.57 824.01,-27.08"/>
<polygon fill="midnightblue" stroke="midnightblue" points="826.66,-29.38 831.07,-19.75 821.62,-24.53 826.66,-29.38"/>
</g>
<!-- Node19 -->
<g id="node19" class="node">
<title>Node19</title>
<g id="a_node19"><a xlink:title=" ">
<polygon fill="white" stroke="#bfbfbf" points="751.5,-0.5 751.5,-19.5 803.5,-19.5 803.5,-0.5 751.5,-0.5"/>
<text text-anchor="middle" x="777.5" y="-7.5" font-family="Helvetica,sans-Serif" font-size="10.00">memory</text>
</a>
</g>
</g>
<!-- Node18&#45;&gt;Node19 -->
<g id="edge19" class="edge">
<title>Node18&#45;&gt;Node19</title>
<path fill="none" stroke="midnightblue" d="M785.85,-56.08C784.52,-48.93 782.62,-38.64 780.96,-29.69"/>
<polygon fill="midnightblue" stroke="midnightblue" points="784.38,-28.95 779.12,-19.75 777.5,-30.22 784.38,-28.95"/>
</g>
<!-- Node20&#45;&gt;Node2 -->
<g id="edge21" class="edge">
<title>Node20&#45;&gt;Node2</title>
<path fill="none" stroke="midnightblue" d="M240.26,-56.5C197.15,-46.92 127.07,-31.35 81.13,-21.14"/>
<polygon fill="midnightblue" stroke="midnightblue" points="81.66,-17.67 71.14,-18.92 80.14,-24.51 81.66,-17.67"/>
</g>
<!-- Node20&#45;&gt;Node3 -->
<g id="edge22" class="edge">
<title>Node20&#45;&gt;Node3</title>
<path fill="none" stroke="midnightblue" d="M254.1,-56.44C228.3,-47.4 187.42,-33.06 158.48,-22.92"/>
<polygon fill="midnightblue" stroke="midnightblue" points="159.38,-19.52 148.79,-19.52 157.07,-26.13 159.38,-19.52"/>
</g>
<!-- Node20&#45;&gt;Node4 -->
<g id="edge23" class="edge">
<title>Node20&#45;&gt;Node4</title>
<path fill="none" stroke="midnightblue" d="M268.06,-56.32C258.35,-48.26 243.68,-36.08 232,-26.37"/>
<polygon fill="midnightblue" stroke="midnightblue" points="234.06,-23.53 224.13,-19.83 229.59,-28.92 234.06,-23.53"/>
</g>
<!-- Node20&#45;&gt;Node5 -->
<g id="edge24" class="edge">
<title>Node20&#45;&gt;Node5</title>
<path fill="none" stroke="midnightblue" d="M281.8,-56.08C284.48,-48.85 288.35,-38.41 291.69,-29.4"/>
<polygon fill="midnightblue" stroke="midnightblue" points="295.07,-30.34 295.26,-19.75 288.5,-27.91 295.07,-30.34"/>
</g>
<!-- Node20&#45;&gt;Node6 -->
<g id="edge25" class="edge">
<title>Node20&#45;&gt;Node6</title>
<path fill="none" stroke="midnightblue" d="M295.21,-56.32C311.81,-47.7 337.5,-34.36 356.72,-24.39"/>
<polygon fill="midnightblue" stroke="midnightblue" points="358.57,-27.37 365.83,-19.65 355.34,-21.16 358.57,-27.37"/>
</g>
<!-- Node20&#45;&gt;Node7 -->
<g id="edge26" class="edge">
<title>Node20&#45;&gt;Node7</title>
<path fill="none" stroke="midnightblue" d="M308.92,-56.44C341.78,-47.2 394.28,-32.44 430.47,-22.26"/>
<polygon fill="midnightblue" stroke="midnightblue" points="431.54,-25.59 440.22,-19.52 429.65,-18.85 431.54,-25.59"/>
</g>
<!-- Node20&#45;&gt;Node10 -->
<g id="edge27" class="edge">
<title>Node20&#45;&gt;Node10</title>
<path fill="none" stroke="midnightblue" d="M316.51,-57.76C361.15,-49.26 437.71,-34.67 514.03,-20.09"/>
<polygon fill="midnightblue" stroke="midnightblue" points="515.13,-23.44 524.3,-18.13 513.82,-16.57 515.13,-23.44"/>
</g>
<!-- Node21&#45;&gt;Node12 -->
<g id="edge31" class="edge">
<title>Node21&#45;&gt;Node12</title>
<path fill="none" stroke="midnightblue" d="M939.74,-56.08C932.96,-48.3 922.96,-36.8 914.74,-27.37"/>
<polygon fill="midnightblue" stroke="midnightblue" points="917.32,-25 908.12,-19.75 912.04,-29.59 917.32,-25"/>
</g>
<!-- Node21&#45;&gt;Node14 -->
<g id="edge30" class="edge">
<title>Node21&#45;&gt;Node14</title>
<path fill="none" stroke="midnightblue" d="M930.15,-56.32C912.83,-47.66 885.98,-34.24 866,-24.25"/>
<polygon fill="midnightblue" stroke="midnightblue" points="867.32,-21 856.81,-19.65 864.19,-27.26 867.32,-21"/>
</g>
<!-- Node22 -->
<g id="node22" class="node">
<title>Node22</title>
<g id="a_node22"><a xlink:title=" ">
<polygon fill="white" stroke="#bfbfbf" points="943,-0.5 943,-19.5 986,-19.5 986,-0.5 943,-0.5"/>
<text text-anchor="middle" x="964.5" y="-7.5" font-family="Helvetica,sans-Serif" font-size="10.00">deque</text>
</a>
</g>
</g>
<!-- Node21&#45;&gt;Node22 -->
<g id="edge29" class="edge">
<title>Node21&#45;&gt;Node22</title>
<path fill="none" stroke="midnightblue" d="M950.31,-56.08C952.58,-48.85 955.87,-38.41 958.71,-29.4"/>
<polygon fill="midnightblue" stroke="midnightblue" points="962.08,-30.34 961.75,-19.75 955.4,-28.24 962.08,-30.34"/>
</g>
<!-- Node23 -->
<g id="node23" class="node">
<title>Node23</title>
<g id="a_node23"><a xlink:title=" ">
<polygon fill="white" stroke="#bfbfbf" points="1004.5,-0.5 1004.5,-19.5 1054.5,-19.5 1054.5,-0.5 1004.5,-0.5"/>
<text text-anchor="middle" x="1029.5" y="-7.5" font-family="Helvetica,sans-Serif" font-size="10.00">locale.h</text>
</a>
</g>
</g>
<!-- Node21&#45;&gt;Node23 -->
<g id="edge32" class="edge">
<title>Node21&#45;&gt;Node23</title>
<path fill="none" stroke="midnightblue" d="M960.67,-56.32C973.35,-47.98 992.73,-35.21 1007.71,-25.35"/>
<polygon fill="midnightblue" stroke="midnightblue" points="1009.93,-28.08 1016.36,-19.65 1006.08,-22.23 1009.93,-28.08"/>
</g>
</g>
</svg>
        <g id="navigator" transform="translate(0 0)" fill="#404254">
                <rect fill="#f2f5e9" fill-opacity="0.5" stroke="#606060" stroke-width=".5" x="0" y="0" width="60" height="60"/>
                <use id="zoomplus" xlink:href="#zoomPlus" x="17" y="9" onmousedown="handleZoom(evt,'in')"/>
                <use id="zoomminus" xlink:href="#zoomMin" x="42" y="9" onmousedown="handleZoom(evt,'out')"/>
                <use id="reset" xlink:href="#resetDef" x="30" y="36" onmousedown="handleReset()"/>
                <g id="arrowUp" xlink:href="#dirArrow" transform="translate(30 24)" onmousedown="handlePan(0,-1)">
                  <use xlink:href="#rim" fill="#404040">
                        <set attributeName="fill" to="#808080" begin="arrowUp.mouseover" end="arrowUp.mouseout"/>
                  </use>
                  <path fill="none" stroke="white" stroke-width="1.5" d="M0,-3.0v7 M-2.5,-0.5L0,-3.0L2.5,-0.5"/>
                </g>
                <g id="arrowRight" xlink:href="#dirArrow" transform="rotate(90) translate(36 -43)" onmousedown="handlePan(1,0)">
                  <use xlink:href="#rim" fill="#404040">
                        <set attributeName="fill" to="#808080" begin="arrowRight.mouseover" end="arrowRight.mouseout"/>
                  </use>
                  <path fill="none" stroke="white" stroke-width="1.5" d="M0,-3.0v7 M-2.5,-0.5L0,-3.0L2.5,-0.5"/>
                </g>
                <g id="arrowDown" xlink:href="#dirArrow" transform="rotate(180) translate(-30 -48)" onmousedown="handlePan(0,1)">
                  <use xlink:href="#rim" fill="#404040">
                        <set attributeName="fill" to="#808080" begin="arrowDown.mouseover" end="arrowDown.mouseout"/>
                  </use>
                  <path fill="none" stroke="white" stroke-width="1.5" d="M0,-3.0v7 M-2.5,-0.5L0,-3.0L2.5,-0.5"/>
                </g>
                <g id="arrowLeft" xlink:href="#dirArrow" transform="rotate(270) translate(-36 17)" onmousedown="handlePan(-1,0)">
                  <use xlink:href="#rim" fill="#404040">
                        <set attributeName="fill" to="#808080" begin="arrowLeft.mouseover" end="arrowLeft.mouseout"/>
                  </use>
                  <path fill="none" stroke="white" stroke-width="1.5" d="M0,-3.0v7 M-2.5,-0.5L0,-3.0L2.5,-0.5"/>
                </g>
        </g>
        <svg viewBox="0 0 15 15" width="100%" height="30px" preserveAspectRatio="xMaxYMin meet">
         <g id="arrow_out" transform="scale(0.3 0.3)">
          <a xlink:href="_display_unit_8cpp__incl_org.svg" target="_base">
           <rect id="button" ry="5" rx="5" y="6" x="6" height="38" width="38"
                fill="#f2f5e9" fill-opacity="0.5" stroke="#606060" stroke-width="1.0"/>
           <path id="arrow"
             d="M 11.500037,31.436501 C 11.940474,20.09759 22.043105,11.32322 32.158766,21.979434 L 37.068811,17.246167 C 37.068811,17.246167 37.088388,32 37.088388,32 L 22.160133,31.978069 C 22.160133,31.978069 26.997745,27.140456 26.997745,27.140456 C 18.528582,18.264221 13.291696,25.230495 11.500037,31.436501 z"
             style="fill:#404040;"/>
          </a>
         </g>
        </svg>
</svg>
