<?xml version="1.0" encoding="UTF-8" standalone="no"?>
<!DOCTYPE svg PUBLIC "-//W3C//DTD SVG 1.1//EN"
 "http://www.w3.org/Graphics/SVG/1.1/DTD/svg11.dtd">
<!-- Generated by graphviz version 2.44.1 (20200629.0800)
 -->
<!-- Title: GraphicUnit.h Pages: 1 -->
<svg width="628pt" height="84pt"
 viewBox="0.00 0.00 627.50 84.00" xmlns="http://www.w3.org/2000/svg" xmlns:xlink="http://www.w3.org/1999/xlink">
<g id="graph0" class="graph" transform="scale(1 1) rotate(0) translate(4 80)">
<title>GraphicUnit.h</title>
<polygon fill="white" stroke="transparent" points="-4,4 -4,-80 623.5,-80 623.5,4 -4,4"/>
<!-- Node1 -->
<g id="node1" class="node">
<title>Node1</title>
<g id="a_node1"><a xlink:title=" ">
<polygon fill="#bfbfbf" stroke="black" points="274.5,-56.5 274.5,-75.5 350.5,-75.5 350.5,-56.5 274.5,-56.5"/>
<text text-anchor="middle" x="312.5" y="-63.5" font-family="Helvetica,sans-Serif" font-size="10.00">GraphicUnit.h</text>
</a>
</g>
</g>
<!-- Node2 -->
<g id="node2" class="node">
<title>Node2</title>
<g id="a_node2"><a xlink:href="_display_unit_8cpp.html" target="_top" xlink:title=" ">
<polygon fill="white" stroke="black" points="0,-0.5 0,-19.5 85,-19.5 85,-0.5 0,-0.5"/>
<text text-anchor="middle" x="42.5" y="-7.5" font-family="Helvetica,sans-Serif" font-size="10.00">DisplayUnit.cpp</text>
</a>
</g>
</g>
<!-- Node1&#45;&gt;Node2 -->
<g id="edge1" class="edge">
<title>Node1&#45;&gt;Node2</title>
<path fill="none" stroke="midnightblue" d="M264.3,-55.36C213.44,-45.19 134.05,-29.31 85.32,-19.56"/>
<polygon fill="midnightblue" stroke="midnightblue" points="263.9,-58.85 274.39,-57.38 265.27,-51.98 263.9,-58.85"/>
</g>
<!-- Node3 -->
<g id="node3" class="node">
<title>Node3</title>
<g id="a_node3"><a xlink:href="_graphic_unit_8cpp.html" target="_top" xlink:title=" ">
<polygon fill="white" stroke="black" points="103.5,-0.5 103.5,-19.5 189.5,-19.5 189.5,-0.5 103.5,-0.5"/>
<text text-anchor="middle" x="146.5" y="-7.5" font-family="Helvetica,sans-Serif" font-size="10.00">GraphicUnit.cpp</text>
</a>
</g>
</g>
<!-- Node1&#45;&gt;Node3 -->
<g id="edge2" class="edge">
<title>Node1&#45;&gt;Node3</title>
<path fill="none" stroke="midnightblue" d="M276.55,-53.3C245.27,-43.13 200.68,-28.62 172.68,-19.52"/>
<polygon fill="midnightblue" stroke="midnightblue" points="275.6,-56.68 286.2,-56.44 277.77,-50.02 275.6,-56.68"/>
</g>
<!-- Node4 -->
<g id="node4" class="node">
<title>Node4</title>
<g id="a_node4"><a xlink:href="_interface_unit_8cpp.html" target="_top" xlink:title=" ">
<polygon fill="white" stroke="black" points="208,-0.5 208,-19.5 297,-19.5 297,-0.5 208,-0.5"/>
<text text-anchor="middle" x="252.5" y="-7.5" font-family="Helvetica,sans-Serif" font-size="10.00">InterfaceUnit.cpp</text>
</a>
</g>
</g>
<!-- Node1&#45;&gt;Node4 -->
<g id="edge3" class="edge">
<title>Node1&#45;&gt;Node4</title>
<path fill="none" stroke="midnightblue" d="M295.32,-49.54C284.62,-39.91 271.24,-27.87 262.32,-19.83"/>
<polygon fill="midnightblue" stroke="midnightblue" points="293.09,-52.24 302.86,-56.32 297.77,-47.03 293.09,-52.24"/>
</g>
<!-- Node5 -->
<g id="node5" class="node">
<title>Node5</title>
<g id="a_node5"><a xlink:href="_interface_unit2_810_80_8cpp.html" target="_top" xlink:title=" ">
<polygon fill="white" stroke="black" points="315.5,-0.5 315.5,-19.5 431.5,-19.5 431.5,-0.5 315.5,-0.5"/>
<text text-anchor="middle" x="373.5" y="-7.5" font-family="Helvetica,sans-Serif" font-size="10.00">InterfaceUnit2.10.0.cpp</text>
</a>
</g>
</g>
<!-- Node1&#45;&gt;Node5 -->
<g id="edge4" class="edge">
<title>Node1&#45;&gt;Node5</title>
<path fill="none" stroke="midnightblue" d="M329.97,-49.54C340.84,-39.91 354.44,-27.87 363.52,-19.83"/>
<polygon fill="midnightblue" stroke="midnightblue" points="327.47,-47.07 322.3,-56.32 332.11,-52.32 327.47,-47.07"/>
</g>
<!-- Node6 -->
<g id="node6" class="node">
<title>Node6</title>
<g id="a_node6"><a xlink:href="_track_unit_8cpp.html" target="_top" xlink:title=" ">
<polygon fill="white" stroke="black" points="450,-0.5 450,-19.5 527,-19.5 527,-0.5 450,-0.5"/>
<text text-anchor="middle" x="488.5" y="-7.5" font-family="Helvetica,sans-Serif" font-size="10.00">TrackUnit.cpp</text>
</a>
</g>
</g>
<!-- Node1&#45;&gt;Node6 -->
<g id="edge5" class="edge">
<title>Node1&#45;&gt;Node6</title>
<path fill="none" stroke="midnightblue" d="M350.19,-53.44C383.37,-43.26 430.93,-28.66 460.74,-19.52"/>
<polygon fill="midnightblue" stroke="midnightblue" points="348.92,-50.16 340.39,-56.44 350.97,-56.86 348.92,-50.16"/>
</g>
<!-- Node7 -->
<g id="node7" class="node">
<title>Node7</title>
<g id="a_node7"><a xlink:href="_train_unit_8cpp.html" target="_top" xlink:title=" ">
<polygon fill="white" stroke="black" points="545.5,-0.5 545.5,-19.5 619.5,-19.5 619.5,-0.5 545.5,-0.5"/>
<text text-anchor="middle" x="582.5" y="-7.5" font-family="Helvetica,sans-Serif" font-size="10.00">TrainUnit.cpp</text>
</a>
</g>
</g>
<!-- Node1&#45;&gt;Node7 -->
<g id="edge6" class="edge">
<title>Node1&#45;&gt;Node7</title>
<path fill="none" stroke="midnightblue" d="M360.44,-55.41C413.34,-44.83 497.35,-28.03 545.45,-18.41"/>
<polygon fill="midnightblue" stroke="midnightblue" points="359.73,-51.98 350.61,-57.38 361.1,-58.85 359.73,-51.98"/>
</g>
</g>
</svg>
