<?xml version="1.0" encoding="UTF-8" standalone="no"?>
<!DOCTYPE svg PUBLIC "-//W3C//DTD SVG 1.1//EN"
 "http://www.w3.org/Graphics/SVG/1.1/DTD/svg11.dtd">
<!-- Generated by graphviz version 2.44.1 (20200629.0800)
 -->
<!-- Title: InterfaceUnit2.10.0.cpp Pages: 1 -->
<!--zoomable 196 -->
<svg id="main" version="1.1" xmlns="http://www.w3.org/2000/svg" xmlns:xlink="http://www.w3.org/1999/xlink" xml:space="preserve" onload="init(evt)">
<style type="text/css"><![CDATA[
.edge:hover path { stroke: red; }
.edge:hover polygon { stroke: red; fill: red; }
]]></style>
<script type="text/javascript"><![CDATA[
var edges = document.getElementsByTagName('g');
if (edges && edges.length) {
  for (var i=0;i<edges.length;i++) {
    if (edges[i].id.substr(0,4)=='edge') {
      edges[i].setAttribute('class','edge');
    }
  }
}
]]></script>
        <defs>
                <circle id="rim" cx="0" cy="0" r="7"/>
                <circle id="rim2" cx="0" cy="0" r="3.5"/>
                <g id="zoomPlus">
                        <use xlink:href="#rim" fill="#404040">
                                <set attributeName="fill" to="#808080" begin="zoomplus.mouseover" end="zoomplus.mouseout"/>
                        </use>
                        <path d="M-4,0h8M0,-4v8" fill="none" stroke="white" stroke-width="1.5" pointer-events="none"/>
                </g>
                <g id="zoomMin">
                        <use xlink:href="#rim" fill="#404040">
                                <set attributeName="fill" to="#808080" begin="zoomminus.mouseover" end="zoomminus.mouseout"/>
                        </use>
                        <path d="M-4,0h8" fill="none" stroke="white" stroke-width="1.5" pointer-events="none"/>
                </g>
                <g id="dirArrow">
                        <path fill="none" stroke="white" stroke-width="1.5" d="M0,-3.0v7 M-2.5,-0.5L0,-3.0L2.5,-0.5"/>
                </g>
               <g id="resetDef">
                       <use xlink:href="#rim2" fill="#404040">
                               <set attributeName="fill" to="#808080" begin="reset.mouseover" end="reset.mouseout"/>
                       </use>
               </g>
        </defs>

<script type="text/javascript">
var viewWidth = 2382;
var viewHeight = 196;
var sectionId = 'dynsection-0';
</script>
<script xlink:href="svgpan.js"/>
<svg id="graph" class="graph">
<g id="viewport">
<title>InterfaceUnit2.10.0.cpp</title>
<polygon fill="white" stroke="transparent" points="-4,4 -4,-192 2378,-192 2378,4 -4,4"/>
<!-- Node1 -->
<g id="node1" class="node">
<title>Node1</title>
<g id="a_node1"><a xlink:title=" ">
<polygon fill="#bfbfbf" stroke="black" points="1282.5,-168.5 1282.5,-187.5 1398.5,-187.5 1398.5,-168.5 1282.5,-168.5"/>
<text text-anchor="middle" x="1340.5" y="-175.5" font-family="Helvetica,sans-Serif" font-size="10.00">InterfaceUnit2.10.0.cpp</text>
</a>
</g>
</g>
<!-- Node2 -->
<g id="node2" class="node">
<title>Node2</title>
<g id="a_node2"><a xlink:title=" ">
<polygon fill="white" stroke="#bfbfbf" points="178,-56.5 178,-75.5 249,-75.5 249,-56.5 178,-56.5"/>
<text text-anchor="middle" x="213.5" y="-63.5" font-family="Helvetica,sans-Serif" font-size="10.00">Classes.hpp</text>
</a>
</g>
</g>
<!-- Node1&#45;&gt;Node2 -->
<g id="edge1" class="edge">
<title>Node1&#45;&gt;Node2</title>
<path fill="none" stroke="midnightblue" d="M1282.3,-176.15C1062.74,-172.76 294.83,-159.01 250.5,-132 233.73,-121.78 223.86,-100.94 218.59,-85.6"/>
<polygon fill="midnightblue" stroke="midnightblue" points="221.81,-84.17 215.53,-75.63 215.12,-86.22 221.81,-84.17"/>
</g>
<!-- Node3 -->
<g id="node3" class="node">
<title>Node3</title>
<g id="a_node3"><a xlink:title=" ">
<polygon fill="white" stroke="#bfbfbf" points="0,-56.5 0,-75.5 71,-75.5 71,-56.5 0,-56.5"/>
<text text-anchor="middle" x="35.5" y="-63.5" font-family="Helvetica,sans-Serif" font-size="10.00">Controls.hpp</text>
</a>
</g>
</g>
<!-- Node1&#45;&gt;Node3 -->
<g id="edge2" class="edge">
<title>Node1&#45;&gt;Node3</title>
<path fill="none" stroke="midnightblue" d="M1282.35,-176.03C1062.49,-172.2 289,-157.04 181.5,-132 135.81,-121.36 86.79,-96.42 58.77,-80.71"/>
<polygon fill="midnightblue" stroke="midnightblue" points="60.19,-77.5 49.77,-75.58 56.72,-83.58 60.19,-77.5"/>
</g>
<!-- Node4 -->
<g id="node4" class="node">
<title>Node4</title>
<g id="a_node4"><a xlink:title=" ">
<polygon fill="white" stroke="#bfbfbf" points="89,-56.5 89,-75.5 160,-75.5 160,-56.5 89,-56.5"/>
<text text-anchor="middle" x="124.5" y="-63.5" font-family="Helvetica,sans-Serif" font-size="10.00">StdCtrls.hpp</text>
</a>
</g>
</g>
<!-- Node1&#45;&gt;Node4 -->
<g id="edge3" class="edge">
<title>Node1&#45;&gt;Node4</title>
<path fill="none" stroke="midnightblue" d="M1282.34,-176.41C1067.86,-173.98 328.37,-163.39 227.5,-132 194.41,-121.7 161.47,-97.95 142.05,-82.19"/>
<polygon fill="midnightblue" stroke="midnightblue" points="144.05,-79.3 134.13,-75.59 139.57,-84.68 144.05,-79.3"/>
</g>
<!-- Node5 -->
<g id="node5" class="node">
<title>Node5</title>
<g id="a_node5"><a xlink:title=" ">
<polygon fill="white" stroke="#bfbfbf" points="267,-56.5 267,-75.5 330,-75.5 330,-56.5 267,-56.5"/>
<text text-anchor="middle" x="298.5" y="-63.5" font-family="Helvetica,sans-Serif" font-size="10.00">Forms.hpp</text>
</a>
</g>
</g>
<!-- Node1&#45;&gt;Node5 -->
<g id="edge4" class="edge">
<title>Node1&#45;&gt;Node5</title>
<path fill="none" stroke="midnightblue" d="M1282.35,-176.04C1116.12,-172.96 641.07,-161.72 488.5,-132 461.74,-126.79 456.29,-120.84 430.5,-112 397.6,-100.72 360.06,-87.93 333.45,-78.88"/>
<polygon fill="midnightblue" stroke="midnightblue" points="334.41,-75.51 323.81,-75.6 332.15,-82.13 334.41,-75.51"/>
</g>
<!-- Node6 -->
<g id="node6" class="node">
<title>Node6</title>
<g id="a_node6"><a xlink:title=" ">
<polygon fill="white" stroke="#bfbfbf" points="530,-56.5 530,-75.5 599,-75.5 599,-56.5 530,-56.5"/>
<text text-anchor="middle" x="564.5" y="-63.5" font-family="Helvetica,sans-Serif" font-size="10.00">Buttons.hpp</text>
</a>
</g>
</g>
<!-- Node1&#45;&gt;Node6 -->
<g id="edge5" class="edge">
<title>Node1&#45;&gt;Node6</title>
<path fill="none" stroke="midnightblue" d="M1282.33,-176.54C1141.65,-174.88 786.3,-167.21 673.5,-132 638.9,-121.2 603.76,-97.44 583.06,-81.84"/>
<polygon fill="midnightblue" stroke="midnightblue" points="585.17,-79.05 575.12,-75.71 580.9,-84.59 585.17,-79.05"/>
</g>
<!-- Node7 -->
<g id="node7" class="node">
<title>Node7</title>
<g id="a_node7"><a xlink:title=" ">
<polygon fill="white" stroke="#bfbfbf" points="348,-56.5 348,-75.5 419,-75.5 419,-56.5 348,-56.5"/>
<text text-anchor="middle" x="383.5" y="-63.5" font-family="Helvetica,sans-Serif" font-size="10.00">ExtCtrls.hpp</text>
</a>
</g>
</g>
<!-- Node1&#45;&gt;Node7 -->
<g id="edge6" class="edge">
<title>Node1&#45;&gt;Node7</title>
<path fill="none" stroke="midnightblue" d="M1282.39,-175.82C1126.24,-172.3 700.07,-160.32 562.5,-132 507.09,-120.59 445.78,-95.4 411.22,-79.94"/>
<polygon fill="midnightblue" stroke="midnightblue" points="412.35,-76.61 401.79,-75.67 409.46,-82.98 412.35,-76.61"/>
</g>
<!-- Node8 -->
<g id="node8" class="node">
<title>Node8</title>
<g id="a_node8"><a xlink:title=" ">
<polygon fill="white" stroke="#bfbfbf" points="617,-56.5 617,-75.5 682,-75.5 682,-56.5 617,-56.5"/>
<text text-anchor="middle" x="649.5" y="-63.5" font-family="Helvetica,sans-Serif" font-size="10.00">Menus.hpp</text>
</a>
</g>
</g>
<!-- Node1&#45;&gt;Node8 -->
<g id="edge7" class="edge">
<title>Node1&#45;&gt;Node8</title>
<path fill="none" stroke="midnightblue" d="M1282.43,-175.56C1134.61,-171.52 752.19,-158.59 701.5,-132 681.76,-121.65 666.94,-100.18 658.26,-84.74"/>
<polygon fill="midnightblue" stroke="midnightblue" points="661.23,-82.86 653.47,-75.65 655.04,-86.13 661.23,-82.86"/>
</g>
<!-- Node9 -->
<g id="node9" class="node">
<title>Node9</title>
<g id="a_node9"><a xlink:title=" ">
<polygon fill="white" stroke="#bfbfbf" points="1091.5,-56.5 1091.5,-75.5 1159.5,-75.5 1159.5,-56.5 1091.5,-56.5"/>
<text text-anchor="middle" x="1125.5" y="-63.5" font-family="Helvetica,sans-Serif" font-size="10.00">Dialogs.hpp</text>
</a>
</g>
</g>
<!-- Node1&#45;&gt;Node9 -->
<g id="edge8" class="edge">
<title>Node1&#45;&gt;Node9</title>
<path fill="none" stroke="midnightblue" d="M1321.21,-168.38C1301.7,-159.56 1270.77,-145.32 1244.5,-132 1210.95,-114.99 1172.92,-93.89 1149.07,-80.44"/>
<polygon fill="midnightblue" stroke="midnightblue" points="1150.8,-77.39 1140.37,-75.51 1147.35,-83.48 1150.8,-77.39"/>
</g>
<!-- Node10 -->
<g id="node10" class="node">
<title>Node10</title>
<g id="a_node10"><a xlink:title=" ">
<polygon fill="white" stroke="#bfbfbf" points="437.5,-56.5 437.5,-75.5 511.5,-75.5 511.5,-56.5 437.5,-56.5"/>
<text text-anchor="middle" x="474.5" y="-63.5" font-family="Helvetica,sans-Serif" font-size="10.00">Graphics.hpp</text>
</a>
</g>
</g>
<!-- Node1&#45;&gt;Node10 -->
<g id="edge9" class="edge">
<title>Node1&#45;&gt;Node10</title>
<path fill="none" stroke="midnightblue" d="M1282.25,-175.9C1134.8,-172.71 749.72,-161.7 625.5,-132 578.61,-120.79 527.86,-96.08 498.76,-80.56"/>
<polygon fill="midnightblue" stroke="midnightblue" points="500.22,-77.37 489.76,-75.68 496.88,-83.52 500.22,-77.37"/>
</g>
<!-- Node11 -->
<g id="node11" class="node">
<title>Node11</title>
<g id="a_node11"><a xlink:title=" ">
<polygon fill="white" stroke="#bfbfbf" points="1177.5,-56.5 1177.5,-75.5 1253.5,-75.5 1253.5,-56.5 1177.5,-56.5"/>
<text text-anchor="middle" x="1215.5" y="-63.5" font-family="Helvetica,sans-Serif" font-size="10.00">ComCtrls.hpp</text>
</a>
</g>
</g>
<!-- Node1&#45;&gt;Node11 -->
<g id="edge10" class="edge">
<title>Node1&#45;&gt;Node11</title>
<path fill="none" stroke="midnightblue" d="M1323.15,-168.5C1307.6,-160.39 1284.67,-147.19 1267.5,-132 1251.49,-117.84 1236.63,-98.35 1226.93,-84.41"/>
<polygon fill="midnightblue" stroke="midnightblue" points="1229.59,-82.1 1221.08,-75.79 1223.79,-86.03 1229.59,-82.1"/>
</g>
<!-- Node12 -->
<g id="node12" class="node">
<title>Node12</title>
<g id="a_node12"><a xlink:title=" ">
<polygon fill="white" stroke="#bfbfbf" points="1805,-112.5 1805,-131.5 1870,-131.5 1870,-112.5 1805,-112.5"/>
<text text-anchor="middle" x="1837.5" y="-119.5" font-family="Helvetica,sans-Serif" font-size="10.00">Clipbrd.hpp</text>
</a>
</g>
</g>
<!-- Node1&#45;&gt;Node12 -->
<g id="edge11" class="edge">
<title>Node1&#45;&gt;Node12</title>
<path fill="none" stroke="midnightblue" d="M1398.73,-173.46C1483.74,-167.8 1646.94,-155.1 1794.73,-132.12"/>
<polygon fill="midnightblue" stroke="midnightblue" points="1795.56,-135.53 1804.89,-130.52 1794.47,-128.62 1795.56,-135.53"/>
</g>
<!-- Node13 -->
<g id="node13" class="node">
<title>Node13</title>
<g id="a_node13"><a xlink:title=" ">
<polygon fill="white" stroke="#bfbfbf" points="1348,-56.5 1348,-75.5 1397,-75.5 1397,-56.5 1348,-56.5"/>
<text text-anchor="middle" x="1372.5" y="-63.5" font-family="Helvetica,sans-Serif" font-size="10.00">fstream</text>
</a>
</g>
</g>
<!-- Node1&#45;&gt;Node13 -->
<g id="edge12" class="edge">
<title>Node1&#45;&gt;Node13</title>
<path fill="none" stroke="midnightblue" d="M1351.49,-168.37C1360.95,-160.17 1373.94,-146.92 1379.5,-132 1385.08,-117.05 1382.42,-98.91 1378.88,-85.59"/>
<polygon fill="midnightblue" stroke="midnightblue" points="1382.14,-84.27 1375.87,-75.72 1375.44,-86.31 1382.14,-84.27"/>
</g>
<!-- Node14 -->
<g id="node14" class="node">
<title>Node14</title>
<g id="a_node14"><a xlink:title=" ">
<polygon fill="white" stroke="#bfbfbf" points="1888.5,-112.5 1888.5,-131.5 1940.5,-131.5 1940.5,-112.5 1888.5,-112.5"/>
<text text-anchor="middle" x="1914.5" y="-119.5" font-family="Helvetica,sans-Serif" font-size="10.00">sstream</text>
</a>
</g>
</g>
<!-- Node1&#45;&gt;Node14 -->
<g id="edge13" class="edge">
<title>Node1&#45;&gt;Node14</title>
<path fill="none" stroke="midnightblue" d="M1398.73,-175.35C1496.22,-171.88 1698.64,-161.69 1878.33,-131.92"/>
<polygon fill="midnightblue" stroke="midnightblue" points="1878.95,-135.37 1888.23,-130.26 1877.79,-128.47 1878.95,-135.37"/>
</g>
<!-- Node15 -->
<g id="node15" class="node">
<title>Node15</title>
<g id="a_node15"><a xlink:title=" ">
<polygon fill="white" stroke="#bfbfbf" points="1415.5,-56.5 1415.5,-75.5 1457.5,-75.5 1457.5,-56.5 1415.5,-56.5"/>
<text text-anchor="middle" x="1436.5" y="-63.5" font-family="Helvetica,sans-Serif" font-size="10.00">vector</text>
</a>
</g>
</g>
<!-- Node1&#45;&gt;Node15 -->
<g id="edge14" class="edge">
<title>Node1&#45;&gt;Node15</title>
<path fill="none" stroke="midnightblue" d="M1353.29,-168.37C1365.12,-159.98 1382.75,-146.42 1395.5,-132 1408.44,-117.36 1419.99,-98.2 1427.51,-84.48"/>
<polygon fill="midnightblue" stroke="midnightblue" points="1430.63,-86.07 1432.23,-75.59 1424.45,-82.78 1430.63,-86.07"/>
</g>
<!-- Node16 -->
<g id="node16" class="node">
<title>Node16</title>
<g id="a_node16"><a xlink:title=" ">
<polygon fill="white" stroke="#bfbfbf" points="1597.5,-0.5 1597.5,-19.5 1633.5,-19.5 1633.5,-0.5 1597.5,-0.5"/>
<text text-anchor="middle" x="1615.5" y="-7.5" font-family="Helvetica,sans-Serif" font-size="10.00">vcl.h</text>
</a>
</g>
</g>
<!-- Node1&#45;&gt;Node16 -->
<g id="edge15" class="edge">
<title>Node1&#45;&gt;Node16</title>
<path fill="none" stroke="midnightblue" d="M1329.23,-168.43C1319.53,-160.27 1306.22,-147.05 1300.5,-132 1287.76,-98.49 1298.71,-77.36 1327.5,-56 1368.32,-25.72 1522.41,-15.25 1586.87,-12.15"/>
<polygon fill="midnightblue" stroke="midnightblue" points="1587.29,-15.63 1597.12,-11.68 1586.97,-8.64 1587.29,-15.63"/>
</g>
<!-- Node17 -->
<g id="node17" class="node">
<title>Node17</title>
<g id="a_node17"><a xlink:title=" ">
<polygon fill="white" stroke="#bfbfbf" points="1958.5,-112.5 1958.5,-131.5 2004.5,-131.5 2004.5,-112.5 1958.5,-112.5"/>
<text text-anchor="middle" x="1981.5" y="-119.5" font-family="Helvetica,sans-Serif" font-size="10.00">stdio.h</text>
</a>
</g>
</g>
<!-- Node1&#45;&gt;Node17 -->
<g id="edge16" class="edge">
<title>Node1&#45;&gt;Node17</title>
<path fill="none" stroke="midnightblue" d="M1398.92,-176.56C1506.2,-174.92 1741.79,-167.39 1948.09,-131.9"/>
<polygon fill="midnightblue" stroke="midnightblue" points="1948.96,-135.3 1958.21,-130.13 1947.75,-128.41 1948.96,-135.3"/>
</g>
<!-- Node18 -->
<g id="node18" class="node">
<title>Node18</title>
<g id="a_node18"><a xlink:title=" ">
<polygon fill="white" stroke="#bfbfbf" points="2022.5,-112.5 2022.5,-131.5 2078.5,-131.5 2078.5,-112.5 2022.5,-112.5"/>
<text text-anchor="middle" x="2050.5" y="-119.5" font-family="Helvetica,sans-Serif" font-size="10.00">algorithm</text>
</a>
</g>
</g>
<!-- Node1&#45;&gt;Node18 -->
<g id="edge17" class="edge">
<title>Node1&#45;&gt;Node18</title>
<path fill="none" stroke="midnightblue" d="M1398.93,-176.46C1514.5,-174.67 1780.43,-166.91 2012.35,-131.91"/>
<polygon fill="midnightblue" stroke="midnightblue" points="2012.96,-135.36 2022.32,-130.38 2011.9,-128.44 2012.96,-135.36"/>
</g>
<!-- Node19 -->
<g id="node19" class="node">
<title>Node19</title>
<g id="a_node19"><a xlink:href="_interface_unit_8h.html" target="_top" xlink:title=" ">
<polygon fill="white" stroke="black" points="711,-112.5 711,-131.5 790,-131.5 790,-112.5 711,-112.5"/>
<text text-anchor="middle" x="750.5" y="-119.5" font-family="Helvetica,sans-Serif" font-size="10.00">InterfaceUnit.h</text>
</a>
</g>
</g>
<!-- Node1&#45;&gt;Node19 -->
<g id="edge18" class="edge">
<title>Node1&#45;&gt;Node19</title>
<path fill="none" stroke="midnightblue" d="M1282.31,-171.67C1166.42,-161.07 908.6,-137.47 800.12,-127.54"/>
<polygon fill="midnightblue" stroke="midnightblue" points="800.38,-124.05 790.1,-126.62 799.74,-131.02 800.38,-124.05"/>
</g>
<!-- Node23 -->
<g id="node23" class="node">
<title>Node23</title>
<g id="a_node23"><a xlink:href="_graphic_unit_8h.html" target="_top" xlink:title=" ">
<polygon fill="white" stroke="black" points="345.5,-112.5 345.5,-131.5 421.5,-131.5 421.5,-112.5 345.5,-112.5"/>
<text text-anchor="middle" x="383.5" y="-119.5" font-family="Helvetica,sans-Serif" font-size="10.00">GraphicUnit.h</text>
</a>
</g>
</g>
<!-- Node1&#45;&gt;Node23 -->
<g id="edge35" class="edge">
<title>Node1&#45;&gt;Node23</title>
<path fill="none" stroke="midnightblue" d="M1282.28,-176.36C1138.61,-174.28 755.78,-165.77 438.5,-132 436.27,-131.76 434,-131.5 431.7,-131.2"/>
<polygon fill="midnightblue" stroke="midnightblue" points="431.98,-127.71 421.59,-129.8 431.02,-134.64 431.98,-127.71"/>
</g>
<!-- Node24 -->
<g id="node24" class="node">
<title>Node24</title>
<g id="a_node24"><a xlink:href="_display_unit_8h.html" target="_top" xlink:title=" ">
<polygon fill="white" stroke="black" points="1825.5,-56.5 1825.5,-75.5 1899.5,-75.5 1899.5,-56.5 1825.5,-56.5"/>
<text text-anchor="middle" x="1862.5" y="-63.5" font-family="Helvetica,sans-Serif" font-size="10.00">DisplayUnit.h</text>
</a>
</g>
</g>
<!-- Node1&#45;&gt;Node24 -->
<g id="edge43" class="edge">
<title>Node1&#45;&gt;Node24</title>
<path fill="none" stroke="midnightblue" d="M1398.53,-175.87C1470.43,-173.09 1596,-163.65 1698.5,-132 1717.11,-126.25 1719.63,-119.76 1737.5,-112 1766.82,-99.27 1801.03,-87.13 1826.25,-78.68"/>
<polygon fill="midnightblue" stroke="midnightblue" points="1827.39,-81.99 1835.78,-75.51 1825.19,-75.34 1827.39,-81.99"/>
</g>
<!-- Node26 -->
<g id="node26" class="node">
<title>Node26</title>
<g id="a_node26"><a xlink:href="_text_unit_8h.html" target="_top" xlink:title=" ">
<polygon fill="white" stroke="black" points="1310,-112.5 1310,-131.5 1371,-131.5 1371,-112.5 1310,-112.5"/>
<text text-anchor="middle" x="1340.5" y="-119.5" font-family="Helvetica,sans-Serif" font-size="10.00">TextUnit.h</text>
</a>
</g>
</g>
<!-- Node1&#45;&gt;Node26 -->
<g id="edge46" class="edge">
<title>Node1&#45;&gt;Node26</title>
<path fill="none" stroke="midnightblue" d="M1340.5,-168.08C1340.5,-161.01 1340.5,-150.86 1340.5,-141.99"/>
<polygon fill="midnightblue" stroke="midnightblue" points="1344,-141.75 1340.5,-131.75 1337,-141.75 1344,-141.75"/>
</g>
<!-- Node27 -->
<g id="node27" class="node">
<title>Node27</title>
<g id="a_node27"><a xlink:href="_train_unit_8h.html" target="_top" xlink:title=" ">
<polygon fill="white" stroke="black" points="1626,-112.5 1626,-131.5 1689,-131.5 1689,-112.5 1626,-112.5"/>
<text text-anchor="middle" x="1657.5" y="-119.5" font-family="Helvetica,sans-Serif" font-size="10.00">TrainUnit.h</text>
</a>
</g>
</g>
<!-- Node1&#45;&gt;Node27 -->
<g id="edge50" class="edge">
<title>Node1&#45;&gt;Node27</title>
<path fill="none" stroke="midnightblue" d="M1398.55,-168.48C1452.32,-160.37 1534.76,-147.39 1615.87,-132.03"/>
<polygon fill="midnightblue" stroke="midnightblue" points="1616.58,-135.46 1625.75,-130.15 1615.27,-128.58 1616.58,-135.46"/>
</g>
<!-- Node30 -->
<g id="node30" class="node">
<title>Node30</title>
<g id="a_node30"><a xlink:href="_utilities_8h.html" target="_top" xlink:title=" ">
<polygon fill="white" stroke="black" points="1466,-112.5 1466,-131.5 1523,-131.5 1523,-112.5 1466,-112.5"/>
<text text-anchor="middle" x="1494.5" y="-119.5" font-family="Helvetica,sans-Serif" font-size="10.00">Utilities.h</text>
</a>
</g>
</g>
<!-- Node1&#45;&gt;Node30 -->
<g id="edge55" class="edge">
<title>Node1&#45;&gt;Node30</title>
<path fill="none" stroke="midnightblue" d="M1364.9,-168.44C1390.7,-159.4 1431.58,-145.06 1460.52,-134.92"/>
<polygon fill="midnightblue" stroke="midnightblue" points="1461.93,-138.13 1470.21,-131.52 1459.62,-131.52 1461.93,-138.13"/>
</g>
<!-- Node33 -->
<g id="node33" class="node">
<title>Node33</title>
<g id="a_node33"><a xlink:href="_track_unit_8h.html" target="_top" xlink:title=" ">
<polygon fill="white" stroke="black" points="1541.5,-112.5 1541.5,-131.5 1607.5,-131.5 1607.5,-112.5 1541.5,-112.5"/>
<text text-anchor="middle" x="1574.5" y="-119.5" font-family="Helvetica,sans-Serif" font-size="10.00">TrackUnit.h</text>
</a>
</g>
</g>
<!-- Node1&#45;&gt;Node33 -->
<g id="edge60" class="edge">
<title>Node1&#45;&gt;Node33</title>
<path fill="none" stroke="midnightblue" d="M1377.58,-168.44C1419.42,-158.79 1487.39,-143.1 1531.52,-132.92"/>
<polygon fill="midnightblue" stroke="midnightblue" points="1532.42,-136.3 1541.38,-130.64 1530.85,-129.48 1532.42,-136.3"/>
</g>
<!-- Node35 -->
<g id="node35" class="node">
<title>Node35</title>
<g id="a_node35"><a xlink:href="_about_unit_8h.html" target="_top" xlink:title=" ">
<polygon fill="white" stroke="black" points="259.5,-112.5 259.5,-131.5 327.5,-131.5 327.5,-112.5 259.5,-112.5"/>
<text text-anchor="middle" x="293.5" y="-119.5" font-family="Helvetica,sans-Serif" font-size="10.00">AboutUnit.h</text>
</a>
</g>
</g>
<!-- Node1&#45;&gt;Node35 -->
<g id="edge68" class="edge">
<title>Node1&#45;&gt;Node35</title>
<path fill="none" stroke="midnightblue" d="M1282.5,-177.66C1129.41,-178.72 701.78,-177.15 337.63,-131.92"/>
<polygon fill="midnightblue" stroke="midnightblue" points="338.04,-128.45 327.68,-130.67 337.17,-135.39 338.04,-128.45"/>
</g>
<!-- Node36 -->
<g id="node36" class="node">
<title>Node36</title>
<g id="a_node36"><a xlink:href="_a_p_i_8h.html" target="_top" xlink:title="File containing classes and methods for broadcasting ROS status data.">
<polygon fill="white" stroke="black" points="1746,-112.5 1746,-131.5 1787,-131.5 1787,-112.5 1746,-112.5"/>
<text text-anchor="middle" x="1766.5" y="-119.5" font-family="Helvetica,sans-Serif" font-size="10.00">API.h</text>
</a>
</g>
</g>
<!-- Node1&#45;&gt;Node36 -->
<g id="edge75" class="edge">
<title>Node1&#45;&gt;Node36</title>
<path fill="none" stroke="midnightblue" d="M1398.51,-172.82C1475.18,-166.73 1614.26,-153.71 1731.5,-132 1732.97,-131.73 1734.46,-131.43 1735.97,-131.11"/>
<polygon fill="midnightblue" stroke="midnightblue" points="1736.93,-134.48 1745.88,-128.8 1735.34,-127.66 1736.93,-134.48"/>
</g>
<!-- Node39 -->
<g id="node39" class="node">
<title>Node39</title>
<g id="a_node39"><a xlink:title=" ">
<polygon fill="white" stroke="#bfbfbf" points="2097,-112.5 2097,-131.5 2146,-131.5 2146,-112.5 2097,-112.5"/>
<text text-anchor="middle" x="2121.5" y="-119.5" font-family="Helvetica,sans-Serif" font-size="10.00">dirent.h</text>
</a>
</g>
</g>
<!-- Node1&#45;&gt;Node39 -->
<g id="edge79" class="edge">
<title>Node1&#45;&gt;Node39</title>
<path fill="none" stroke="midnightblue" d="M1398.57,-177.41C1523.17,-177.44 1825.39,-173.02 2086.68,-131.77"/>
<polygon fill="midnightblue" stroke="midnightblue" points="2087.42,-135.2 2096.74,-130.16 2086.31,-128.29 2087.42,-135.2"/>
</g>
<!-- Node40 -->
<g id="node40" class="node">
<title>Node40</title>
<g id="a_node40"><a xlink:title=" ">
<polygon fill="white" stroke="#bfbfbf" points="2164,-112.5 2164,-131.5 2229,-131.5 2229,-112.5 2164,-112.5"/>
<text text-anchor="middle" x="2196.5" y="-119.5" font-family="Helvetica,sans-Serif" font-size="10.00">Filectrl.hpp</text>
</a>
</g>
</g>
<!-- Node1&#45;&gt;Node40 -->
<g id="edge80" class="edge">
<title>Node1&#45;&gt;Node40</title>
<path fill="none" stroke="midnightblue" d="M1398.61,-176.99C1531.09,-176.28 1865.67,-170.6 2153.69,-132.04"/>
<polygon fill="midnightblue" stroke="midnightblue" points="2154.47,-135.46 2163.91,-130.65 2153.53,-128.52 2154.47,-135.46"/>
</g>
<!-- Node41 -->
<g id="node41" class="node">
<title>Node41</title>
<g id="a_node41"><a xlink:title=" ">
<polygon fill="white" stroke="#bfbfbf" points="2247,-112.5 2247,-131.5 2374,-131.5 2374,-112.5 2247,-112.5"/>
<text text-anchor="middle" x="2310.5" y="-119.5" font-family="Helvetica,sans-Serif" font-size="10.00">Vcl.HTMLHelpViewer.hpp</text>
</a>
</g>
</g>
<!-- Node1&#45;&gt;Node41 -->
<g id="edge81" class="edge">
<title>Node1&#45;&gt;Node41</title>
<path fill="none" stroke="midnightblue" d="M1398.65,-175.58C1540.26,-171.81 1914.46,-159.9 2236.92,-132.08"/>
<polygon fill="midnightblue" stroke="midnightblue" points="2237.26,-135.56 2246.92,-131.21 2236.66,-128.59 2237.26,-135.56"/>
</g>
<!-- Node19&#45;&gt;Node2 -->
<g id="edge19" class="edge">
<title>Node19&#45;&gt;Node2</title>
<path fill="none" stroke="midnightblue" d="M710.7,-118.87C628.25,-114.12 432.64,-101.2 259.52,-76.17"/>
<polygon fill="midnightblue" stroke="midnightblue" points="259.86,-72.68 249.46,-74.69 258.85,-79.6 259.86,-72.68"/>
</g>
<!-- Node19&#45;&gt;Node3 -->
<g id="edge20" class="edge">
<title>Node19&#45;&gt;Node3</title>
<path fill="none" stroke="midnightblue" d="M710.99,-120.21C608.51,-117.76 325.72,-108.48 81.58,-76.12"/>
<polygon fill="midnightblue" stroke="midnightblue" points="81.83,-72.63 71.45,-74.76 80.9,-79.56 81.83,-72.63"/>
</g>
<!-- Node19&#45;&gt;Node4 -->
<g id="edge21" class="edge">
<title>Node19&#45;&gt;Node4</title>
<path fill="none" stroke="midnightblue" d="M710.8,-119.64C617.86,-116.08 378.85,-104.82 170.36,-76.11"/>
<polygon fill="midnightblue" stroke="midnightblue" points="170.84,-72.65 160.46,-74.73 169.88,-79.58 170.84,-72.65"/>
</g>
<!-- Node19&#45;&gt;Node5 -->
<g id="edge22" class="edge">
<title>Node19&#45;&gt;Node5</title>
<path fill="none" stroke="midnightblue" d="M710.81,-118.16C638.84,-112.68 481.83,-99.26 340.46,-76.18"/>
<polygon fill="midnightblue" stroke="midnightblue" points="340.75,-72.68 330.31,-74.5 339.61,-79.58 340.75,-72.68"/>
</g>
<!-- Node19&#45;&gt;Node6 -->
<g id="edge23" class="edge">
<title>Node19&#45;&gt;Node6</title>
<path fill="none" stroke="midnightblue" d="M721.03,-112.44C689.33,-103.24 638.77,-88.56 603.73,-78.39"/>
<polygon fill="midnightblue" stroke="midnightblue" points="604.41,-74.94 593.83,-75.52 602.46,-81.67 604.41,-74.94"/>
</g>
<!-- Node19&#45;&gt;Node7 -->
<g id="edge24" class="edge">
<title>Node19&#45;&gt;Node7</title>
<path fill="none" stroke="midnightblue" d="M710.73,-116.2C651.65,-108.91 537,-94.12 429.38,-76.06"/>
<polygon fill="midnightblue" stroke="midnightblue" points="429.77,-72.58 419.33,-74.36 428.6,-79.48 429.77,-72.58"/>
</g>
<!-- Node19&#45;&gt;Node8 -->
<g id="edge25" class="edge">
<title>Node19&#45;&gt;Node8</title>
<path fill="none" stroke="midnightblue" d="M734.27,-112.32C718.15,-103.7 693.2,-90.36 674.54,-80.39"/>
<polygon fill="midnightblue" stroke="midnightblue" points="676.16,-77.28 665.69,-75.65 672.86,-83.46 676.16,-77.28"/>
</g>
<!-- Node19&#45;&gt;Node9 -->
<g id="edge26" class="edge">
<title>Node19&#45;&gt;Node9</title>
<path fill="none" stroke="midnightblue" d="M790.25,-116.55C850.85,-109.55 970.2,-94.97 1081.24,-76.11"/>
<polygon fill="midnightblue" stroke="midnightblue" points="1082.01,-79.53 1091.27,-74.39 1080.83,-72.63 1082.01,-79.53"/>
</g>
<!-- Node19&#45;&gt;Node10 -->
<g id="edge27" class="edge">
<title>Node19&#45;&gt;Node10</title>
<path fill="none" stroke="midnightblue" d="M710.96,-113.26C660.96,-103.48 575.01,-86.66 521.65,-76.23"/>
<polygon fill="midnightblue" stroke="midnightblue" points="522.25,-72.78 511.76,-74.29 520.9,-79.65 522.25,-72.78"/>
</g>
<!-- Node19&#45;&gt;Node11 -->
<g id="edge28" class="edge">
<title>Node19&#45;&gt;Node11</title>
<path fill="none" stroke="midnightblue" d="M790.12,-117.82C862.83,-111.76 1022.69,-97.34 1167.38,-76.06"/>
<polygon fill="midnightblue" stroke="midnightblue" points="1167.95,-79.51 1177.33,-74.58 1166.92,-72.59 1167.95,-79.51"/>
</g>
<!-- Node19&#45;&gt;Node13 -->
<g id="edge32" class="edge">
<title>Node19&#45;&gt;Node13</title>
<path fill="none" stroke="midnightblue" d="M790.36,-117.54C904.4,-107.64 1230.71,-79.31 1337.91,-70"/>
<polygon fill="midnightblue" stroke="midnightblue" points="1338.22,-73.49 1347.88,-69.14 1337.61,-66.52 1338.22,-73.49"/>
</g>
<!-- Node19&#45;&gt;Node15 -->
<g id="edge33" class="edge">
<title>Node19&#45;&gt;Node15</title>
<path fill="none" stroke="midnightblue" d="M790.36,-121.21C893.12,-121.13 1175.15,-116.87 1405.5,-76 1405.6,-75.98 1405.7,-75.96 1405.8,-75.95"/>
<polygon fill="midnightblue" stroke="midnightblue" points="1406.31,-79.42 1415.3,-73.8 1404.77,-72.59 1406.31,-79.42"/>
</g>
<!-- Node19&#45;&gt;Node16 -->
<g id="edge34" class="edge">
<title>Node19&#45;&gt;Node16</title>
<path fill="none" stroke="midnightblue" d="M790.22,-112.47C823.5,-104.74 871.94,-92.09 912.5,-76 930.24,-68.96 932.14,-61.2 950.5,-56 1073.06,-21.28 1476.68,-13 1587.27,-11.36"/>
<polygon fill="midnightblue" stroke="midnightblue" points="1587.37,-14.86 1597.32,-11.22 1587.27,-7.86 1587.37,-14.86"/>
</g>
<!-- Node20 -->
<g id="node20" class="node">
<title>Node20</title>
<g id="a_node20"><a xlink:title=" ">
<polygon fill="white" stroke="#bfbfbf" points="959.5,-56.5 959.5,-75.5 1073.5,-75.5 1073.5,-56.5 959.5,-56.5"/>
<text text-anchor="middle" x="1016.5" y="-63.5" font-family="Helvetica,sans-Serif" font-size="10.00">System.ImageList.hpp</text>
</a>
</g>
</g>
<!-- Node19&#45;&gt;Node20 -->
<g id="edge29" class="edge">
<title>Node19&#45;&gt;Node20</title>
<path fill="none" stroke="midnightblue" d="M790.04,-112.97C836.44,-103.55 913.53,-87.9 964.68,-77.52"/>
<polygon fill="midnightblue" stroke="midnightblue" points="965.45,-80.94 974.55,-75.52 964.05,-74.08 965.45,-80.94"/>
</g>
<!-- Node21 -->
<g id="node21" class="node">
<title>Node21</title>
<g id="a_node21"><a xlink:title=" ">
<polygon fill="white" stroke="#bfbfbf" points="700,-56.5 700,-75.5 801,-75.5 801,-56.5 700,-56.5"/>
<text text-anchor="middle" x="750.5" y="-63.5" font-family="Helvetica,sans-Serif" font-size="10.00">System.IOUtils.hpp</text>
</a>
</g>
</g>
<!-- Node19&#45;&gt;Node21 -->
<g id="edge30" class="edge">
<title>Node19&#45;&gt;Node21</title>
<path fill="none" stroke="midnightblue" d="M750.5,-112.08C750.5,-105.01 750.5,-94.86 750.5,-85.99"/>
<polygon fill="midnightblue" stroke="midnightblue" points="754,-85.75 750.5,-75.75 747,-85.75 754,-85.75"/>
</g>
<!-- Node22 -->
<g id="node22" class="node">
<title>Node22</title>
<g id="a_node22"><a xlink:title=" ">
<polygon fill="white" stroke="#bfbfbf" points="819.5,-56.5 819.5,-75.5 903.5,-75.5 903.5,-56.5 819.5,-56.5"/>
<text text-anchor="middle" x="861.5" y="-63.5" font-family="Helvetica,sans-Serif" font-size="10.00">Vcl.ImgList.hpp</text>
</a>
</g>
</g>
<!-- Node19&#45;&gt;Node22 -->
<g id="edge31" class="edge">
<title>Node19&#45;&gt;Node22</title>
<path fill="none" stroke="midnightblue" d="M768.33,-112.32C786.22,-103.62 813.98,-90.12 834.55,-80.11"/>
<polygon fill="midnightblue" stroke="midnightblue" points="836.25,-83.18 843.71,-75.65 833.19,-76.88 836.25,-83.18"/>
</g>
<!-- Node23&#45;&gt;Node2 -->
<g id="edge36" class="edge">
<title>Node23&#45;&gt;Node2</title>
<path fill="none" stroke="midnightblue" d="M356.56,-112.44C327.84,-103.32 282.17,-88.81 250.18,-78.65"/>
<polygon fill="midnightblue" stroke="midnightblue" points="250.9,-75.21 240.31,-75.52 248.78,-81.88 250.9,-75.21"/>
</g>
<!-- Node23&#45;&gt;Node3 -->
<g id="edge37" class="edge">
<title>Node23&#45;&gt;Node3</title>
<path fill="none" stroke="midnightblue" d="M345.31,-113.52C342.33,-112.99 339.37,-112.48 336.5,-112 225.94,-93.68 194.91,-95.45 81.17,-76.2"/>
<polygon fill="midnightblue" stroke="midnightblue" points="81.45,-72.7 71.01,-74.46 80.27,-79.6 81.45,-72.7"/>
</g>
<!-- Node23&#45;&gt;Node4 -->
<g id="edge38" class="edge">
<title>Node23&#45;&gt;Node4</title>
<path fill="none" stroke="midnightblue" d="M345.28,-113.03C298.68,-103.32 219.99,-86.91 170.22,-76.53"/>
<polygon fill="midnightblue" stroke="midnightblue" points="170.87,-73.09 160.37,-74.48 169.44,-79.95 170.87,-73.09"/>
</g>
<!-- Node23&#45;&gt;Node5 -->
<g id="edge39" class="edge">
<title>Node23&#45;&gt;Node5</title>
<path fill="none" stroke="midnightblue" d="M369.84,-112.32C356.58,-103.9 336.23,-90.97 320.65,-81.07"/>
<polygon fill="midnightblue" stroke="midnightblue" points="322.44,-78.06 312.12,-75.65 318.69,-83.97 322.44,-78.06"/>
</g>
<!-- Node23&#45;&gt;Node6 -->
<g id="edge40" class="edge">
<title>Node23&#45;&gt;Node6</title>
<path fill="none" stroke="midnightblue" d="M412.18,-112.44C443.03,-103.24 492.23,-88.56 526.33,-78.39"/>
<polygon fill="midnightblue" stroke="midnightblue" points="527.37,-81.73 535.95,-75.52 525.37,-75.02 527.37,-81.73"/>
</g>
<!-- Node23&#45;&gt;Node7 -->
<g id="edge41" class="edge">
<title>Node23&#45;&gt;Node7</title>
<path fill="none" stroke="midnightblue" d="M383.5,-112.08C383.5,-105.01 383.5,-94.86 383.5,-85.99"/>
<polygon fill="midnightblue" stroke="midnightblue" points="387,-85.75 383.5,-75.75 380,-85.75 387,-85.75"/>
</g>
<!-- Node23&#45;&gt;Node10 -->
<g id="edge42" class="edge">
<title>Node23&#45;&gt;Node10</title>
<path fill="none" stroke="midnightblue" d="M398.12,-112.32C412.45,-103.82 434.51,-90.73 451.25,-80.8"/>
<polygon fill="midnightblue" stroke="midnightblue" points="453.1,-83.77 459.92,-75.65 449.53,-77.75 453.1,-83.77"/>
</g>
<!-- Node24&#45;&gt;Node16 -->
<g id="edge44" class="edge">
<title>Node24&#45;&gt;Node16</title>
<path fill="none" stroke="midnightblue" d="M1825.25,-56.86C1775.47,-45.97 1688.34,-26.93 1643.67,-17.16"/>
<polygon fill="midnightblue" stroke="midnightblue" points="1644.3,-13.71 1633.78,-15 1642.81,-20.55 1644.3,-13.71"/>
</g>
<!-- Node25 -->
<g id="node25" class="node">
<title>Node25</title>
<g id="a_node25"><a xlink:title=" ">
<polygon fill="white" stroke="#bfbfbf" points="1836.5,-0.5 1836.5,-19.5 1888.5,-19.5 1888.5,-0.5 1836.5,-0.5"/>
<text text-anchor="middle" x="1862.5" y="-7.5" font-family="Helvetica,sans-Serif" font-size="10.00">memory</text>
</a>
</g>
</g>
<!-- Node24&#45;&gt;Node25 -->
<g id="edge45" class="edge">
<title>Node24&#45;&gt;Node25</title>
<path fill="none" stroke="midnightblue" d="M1862.5,-56.08C1862.5,-49.01 1862.5,-38.86 1862.5,-29.99"/>
<polygon fill="midnightblue" stroke="midnightblue" points="1866,-29.75 1862.5,-19.75 1859,-29.75 1866,-29.75"/>
</g>
<!-- Node26&#45;&gt;Node13 -->
<g id="edge48" class="edge">
<title>Node26&#45;&gt;Node13</title>
<path fill="none" stroke="midnightblue" d="M1345.78,-112.08C1350.21,-104.61 1356.66,-93.72 1362.12,-84.52"/>
<polygon fill="midnightblue" stroke="midnightblue" points="1365.23,-86.14 1367.31,-75.75 1359.21,-82.57 1365.23,-86.14"/>
</g>
<!-- Node26&#45;&gt;Node15 -->
<g id="edge47" class="edge">
<title>Node26&#45;&gt;Node15</title>
<path fill="none" stroke="midnightblue" d="M1355.92,-112.32C1371.04,-103.82 1394.32,-90.73 1411.97,-80.8"/>
<polygon fill="midnightblue" stroke="midnightblue" points="1414.11,-83.61 1421.11,-75.65 1410.68,-77.51 1414.11,-83.61"/>
</g>
<!-- Node26&#45;&gt;Node16 -->
<g id="edge49" class="edge">
<title>Node26&#45;&gt;Node16</title>
<path fill="none" stroke="midnightblue" d="M1336.92,-112.22C1331.96,-98.48 1325.04,-71.82 1338.5,-56 1370.21,-18.73 1522.71,-12.24 1586.91,-11.18"/>
<polygon fill="midnightblue" stroke="midnightblue" points="1587.18,-14.67 1597.13,-11.04 1587.08,-7.67 1587.18,-14.67"/>
</g>
<!-- Node27&#45;&gt;Node15 -->
<g id="edge51" class="edge">
<title>Node27&#45;&gt;Node15</title>
<path fill="none" stroke="midnightblue" d="M1625.98,-113.82C1583.49,-104.09 1509.19,-86.95 1467.59,-76.15"/>
<polygon fill="midnightblue" stroke="midnightblue" points="1468.32,-72.72 1457.76,-73.55 1466.53,-79.49 1468.32,-72.72"/>
</g>
<!-- Node27&#45;&gt;Node16 -->
<g id="edge53" class="edge">
<title>Node27&#45;&gt;Node16</title>
<path fill="none" stroke="midnightblue" d="M1689.09,-113.59C1721.3,-105.31 1768.01,-91.09 1778.5,-76 1783.57,-68.7 1783.88,-63.07 1778.5,-56 1762.19,-34.57 1685.55,-20.75 1643.42,-14.63"/>
<polygon fill="midnightblue" stroke="midnightblue" points="1643.9,-11.16 1633.51,-13.24 1642.93,-18.1 1643.9,-11.16"/>
</g>
<!-- Node28 -->
<g id="node28" class="node">
<title>Node28</title>
<g id="a_node28"><a xlink:title=" ">
<polygon fill="white" stroke="#bfbfbf" points="1918,-56.5 1918,-75.5 1953,-75.5 1953,-56.5 1918,-56.5"/>
<text text-anchor="middle" x="1935.5" y="-63.5" font-family="Helvetica,sans-Serif" font-size="10.00">map</text>
</a>
</g>
</g>
<!-- Node27&#45;&gt;Node28 -->
<g id="edge52" class="edge">
<title>Node27&#45;&gt;Node28</title>
<path fill="none" stroke="midnightblue" d="M1689.12,-116.83C1735.24,-110.42 1823.75,-96.9 1908.15,-75.75"/>
<polygon fill="midnightblue" stroke="midnightblue" points="1909.06,-79.13 1917.89,-73.28 1907.34,-72.35 1909.06,-79.13"/>
</g>
<!-- Node29 -->
<g id="node29" class="node">
<title>Node29</title>
<g id="a_node29"><a xlink:title=" ">
<polygon fill="white" stroke="#bfbfbf" points="1740,-56.5 1740,-75.5 1769,-75.5 1769,-56.5 1740,-56.5"/>
<text text-anchor="middle" x="1754.5" y="-63.5" font-family="Helvetica,sans-Serif" font-size="10.00">list</text>
</a>
</g>
</g>
<!-- Node27&#45;&gt;Node29 -->
<g id="edge54" class="edge">
<title>Node27&#45;&gt;Node29</title>
<path fill="none" stroke="midnightblue" d="M1673.08,-112.32C1688.77,-103.59 1713.16,-90.01 1731.16,-79.99"/>
<polygon fill="midnightblue" stroke="midnightblue" points="1732.87,-83.05 1739.91,-75.12 1729.47,-76.93 1732.87,-83.05"/>
</g>
<!-- Node30&#45;&gt;Node13 -->
<g id="edge58" class="edge">
<title>Node30&#45;&gt;Node13</title>
<path fill="none" stroke="midnightblue" d="M1475.17,-112.44C1455.18,-103.6 1423.76,-89.69 1400.94,-79.59"/>
<polygon fill="midnightblue" stroke="midnightblue" points="1402.3,-76.36 1391.74,-75.52 1399.47,-82.76 1402.3,-76.36"/>
</g>
<!-- Node30&#45;&gt;Node16 -->
<g id="edge57" class="edge">
<title>Node30&#45;&gt;Node16</title>
<path fill="none" stroke="midnightblue" d="M1520.5,-112.37C1547.12,-103.05 1586.04,-87.93 1596.5,-76 1607.75,-63.17 1612.35,-43.98 1614.23,-29.78"/>
<polygon fill="midnightblue" stroke="midnightblue" points="1617.73,-29.97 1615.22,-19.67 1610.76,-29.28 1617.73,-29.97"/>
</g>
<!-- Node31 -->
<g id="node31" class="node">
<title>Node31</title>
<g id="a_node31"><a xlink:title=" ">
<polygon fill="white" stroke="#bfbfbf" points="1476,-56.5 1476,-75.5 1519,-75.5 1519,-56.5 1476,-56.5"/>
<text text-anchor="middle" x="1497.5" y="-63.5" font-family="Helvetica,sans-Serif" font-size="10.00">deque</text>
</a>
</g>
</g>
<!-- Node30&#45;&gt;Node31 -->
<g id="edge56" class="edge">
<title>Node30&#45;&gt;Node31</title>
<path fill="none" stroke="midnightblue" d="M1495,-112.08C1495.39,-105.01 1495.95,-94.86 1496.45,-85.99"/>
<polygon fill="midnightblue" stroke="midnightblue" points="1499.95,-85.93 1497.01,-75.75 1492.96,-85.54 1499.95,-85.93"/>
</g>
<!-- Node32 -->
<g id="node32" class="node">
<title>Node32</title>
<g id="a_node32"><a xlink:title=" ">
<polygon fill="white" stroke="#bfbfbf" points="1537.5,-56.5 1537.5,-75.5 1587.5,-75.5 1587.5,-56.5 1537.5,-56.5"/>
<text text-anchor="middle" x="1562.5" y="-63.5" font-family="Helvetica,sans-Serif" font-size="10.00">locale.h</text>
</a>
</g>
</g>
<!-- Node30&#45;&gt;Node32 -->
<g id="edge59" class="edge">
<title>Node30&#45;&gt;Node32</title>
<path fill="none" stroke="midnightblue" d="M1505.43,-112.32C1515.67,-104.18 1531.22,-91.84 1543.5,-82.09"/>
<polygon fill="midnightblue" stroke="midnightblue" points="1545.72,-84.79 1551.38,-75.83 1541.37,-79.31 1545.72,-84.79"/>
</g>
<!-- Node33&#45;&gt;Node13 -->
<g id="edge64" class="edge">
<title>Node33&#45;&gt;Node13</title>
<path fill="none" stroke="midnightblue" d="M1542.49,-112.44C1505.58,-102.58 1445.12,-86.41 1407.13,-76.26"/>
<polygon fill="midnightblue" stroke="midnightblue" points="1407.62,-72.76 1397.05,-73.56 1405.81,-79.53 1407.62,-72.76"/>
</g>
<!-- Node33&#45;&gt;Node15 -->
<g id="edge62" class="edge">
<title>Node33&#45;&gt;Node15</title>
<path fill="none" stroke="midnightblue" d="M1552.63,-112.44C1529.59,-103.42 1493.1,-89.15 1467.18,-79"/>
<polygon fill="midnightblue" stroke="midnightblue" points="1468.4,-75.72 1457.81,-75.34 1465.85,-82.24 1468.4,-75.72"/>
</g>
<!-- Node33&#45;&gt;Node16 -->
<g id="edge61" class="edge">
<title>Node33&#45;&gt;Node16</title>
<path fill="none" stroke="midnightblue" d="M1607.64,-112.86C1638.94,-104.41 1682.55,-90.44 1692.5,-76 1709.01,-52.03 1671.54,-31.76 1643.27,-20.51"/>
<polygon fill="midnightblue" stroke="midnightblue" points="1644.36,-17.17 1633.76,-16.91 1641.88,-23.72 1644.36,-17.17"/>
</g>
<!-- Node33&#45;&gt;Node24 -->
<g id="edge67" class="edge">
<title>Node33&#45;&gt;Node24</title>
<path fill="none" stroke="midnightblue" d="M1607.82,-113.94C1611.09,-113.27 1614.36,-112.62 1617.5,-112 1686.04,-98.54 1765.61,-84.15 1815.02,-75.36"/>
<polygon fill="midnightblue" stroke="midnightblue" points="1815.85,-78.77 1825.09,-73.58 1814.63,-71.88 1815.85,-78.77"/>
</g>
<!-- Node33&#45;&gt;Node28 -->
<g id="edge63" class="edge">
<title>Node33&#45;&gt;Node28</title>
<path fill="none" stroke="midnightblue" d="M1607.78,-113.75C1611.06,-113.12 1614.34,-112.53 1617.5,-112 1742.92,-91.15 1779.61,-104.08 1908.1,-75.63"/>
<polygon fill="midnightblue" stroke="midnightblue" points="1908.94,-79.03 1917.92,-73.42 1907.4,-72.2 1908.94,-79.03"/>
</g>
<!-- Node33&#45;&gt;Node29 -->
<g id="edge65" class="edge">
<title>Node33&#45;&gt;Node29</title>
<path fill="none" stroke="midnightblue" d="M1603.48,-112.47C1633.9,-103.49 1683.1,-88.9 1725.5,-76 1726.95,-75.56 1728.44,-75.1 1729.94,-74.64"/>
<polygon fill="midnightblue" stroke="midnightblue" points="1731.24,-77.91 1739.76,-71.61 1729.17,-71.22 1731.24,-77.91"/>
</g>
<!-- Node34 -->
<g id="node34" class="node">
<title>Node34</title>
<g id="a_node34"><a xlink:title=" ">
<polygon fill="white" stroke="#bfbfbf" points="1643.5,-56.5 1643.5,-75.5 1683.5,-75.5 1683.5,-56.5 1643.5,-56.5"/>
<text text-anchor="middle" x="1663.5" y="-63.5" font-family="Helvetica,sans-Serif" font-size="10.00">utility</text>
</a>
</g>
</g>
<!-- Node33&#45;&gt;Node34 -->
<g id="edge66" class="edge">
<title>Node33&#45;&gt;Node34</title>
<path fill="none" stroke="midnightblue" d="M1588.8,-112.32C1602.68,-103.9 1623.99,-90.97 1640.3,-81.07"/>
<polygon fill="midnightblue" stroke="midnightblue" points="1642.5,-83.83 1649.24,-75.65 1638.87,-77.85 1642.5,-83.83"/>
</g>
<!-- Node35&#45;&gt;Node2 -->
<g id="edge69" class="edge">
<title>Node35&#45;&gt;Node2</title>
<path fill="none" stroke="midnightblue" d="M280.65,-112.32C268.28,-103.98 249.37,-91.21 234.76,-81.35"/>
<polygon fill="midnightblue" stroke="midnightblue" points="236.57,-78.35 226.32,-75.65 232.65,-84.15 236.57,-78.35"/>
</g>
<!-- Node35&#45;&gt;Node3 -->
<g id="edge70" class="edge">
<title>Node35&#45;&gt;Node3</title>
<path fill="none" stroke="midnightblue" d="M259.24,-113.83C213.46,-104.25 132.2,-87.24 81.23,-76.57"/>
<polygon fill="midnightblue" stroke="midnightblue" points="81.65,-73.08 71.15,-74.46 80.22,-79.94 81.65,-73.08"/>
</g>
<!-- Node35&#45;&gt;Node4 -->
<g id="edge71" class="edge">
<title>Node35&#45;&gt;Node4</title>
<path fill="none" stroke="midnightblue" d="M266.72,-112.44C238.17,-103.32 192.77,-88.81 160.96,-78.65"/>
<polygon fill="midnightblue" stroke="midnightblue" points="161.74,-75.23 151.15,-75.52 159.61,-81.89 161.74,-75.23"/>
</g>
<!-- Node35&#45;&gt;Node5 -->
<g id="edge72" class="edge">
<title>Node35&#45;&gt;Node5</title>
<path fill="none" stroke="midnightblue" d="M294.33,-112.08C294.98,-105.01 295.92,-94.86 296.74,-85.99"/>
<polygon fill="midnightblue" stroke="midnightblue" points="300.25,-86.03 297.69,-75.75 293.28,-85.39 300.25,-86.03"/>
</g>
<!-- Node35&#45;&gt;Node7 -->
<g id="edge73" class="edge">
<title>Node35&#45;&gt;Node7</title>
<path fill="none" stroke="midnightblue" d="M307.96,-112.32C322,-103.9 343.55,-90.97 360.04,-81.07"/>
<polygon fill="midnightblue" stroke="midnightblue" points="362.3,-83.8 369.08,-75.65 358.7,-77.8 362.3,-83.8"/>
</g>
<!-- Node35&#45;&gt;Node10 -->
<g id="edge74" class="edge">
<title>Node35&#45;&gt;Node10</title>
<path fill="none" stroke="midnightblue" d="M322.18,-112.44C353.03,-103.24 402.23,-88.56 436.33,-78.39"/>
<polygon fill="midnightblue" stroke="midnightblue" points="437.37,-81.73 445.95,-75.52 435.37,-75.02 437.37,-81.73"/>
</g>
<!-- Node36&#45;&gt;Node28 -->
<g id="edge78" class="edge">
<title>Node36&#45;&gt;Node28</title>
<path fill="none" stroke="midnightblue" d="M1787.23,-114.54C1813.18,-106.42 1859.23,-91.95 1908.01,-76.13"/>
<polygon fill="midnightblue" stroke="midnightblue" points="1909.37,-79.36 1917.79,-72.94 1907.2,-72.71 1909.37,-79.36"/>
</g>
<!-- Node37 -->
<g id="node37" class="node">
<title>Node37</title>
<g id="a_node37"><a xlink:title=" ">
<polygon fill="white" stroke="#bfbfbf" points="1971,-56.5 1971,-75.5 2040,-75.5 2040,-56.5 1971,-56.5"/>
<text text-anchor="middle" x="2005.5" y="-63.5" font-family="Helvetica,sans-Serif" font-size="10.00">System.hpp</text>
</a>
</g>
</g>
<!-- Node36&#45;&gt;Node37 -->
<g id="edge76" class="edge">
<title>Node36&#45;&gt;Node37</title>
<path fill="none" stroke="midnightblue" d="M1787.1,-114.59C1790.24,-113.68 1793.45,-112.79 1796.5,-112 1812.24,-107.95 1904.22,-88.39 1960.79,-76.43"/>
<polygon fill="midnightblue" stroke="midnightblue" points="1961.86,-79.78 1970.92,-74.29 1960.41,-72.93 1961.86,-79.78"/>
</g>
<!-- Node38 -->
<g id="node38" class="node">
<title>Node38</title>
<g id="a_node38"><a xlink:title=" ">
<polygon fill="white" stroke="#bfbfbf" points="2058,-56.5 2058,-75.5 2161,-75.5 2161,-56.5 2058,-56.5"/>
<text text-anchor="middle" x="2109.5" y="-63.5" font-family="Helvetica,sans-Serif" font-size="10.00">System.IniFiles.hpp</text>
</a>
</g>
</g>
<!-- Node36&#45;&gt;Node38 -->
<g id="edge77" class="edge">
<title>Node36&#45;&gt;Node38</title>
<path fill="none" stroke="midnightblue" d="M1787.05,-114.39C1790.2,-113.51 1793.42,-112.68 1796.5,-112 1904.29,-88.3 1935.37,-92.18 2047.76,-76.23"/>
<polygon fill="midnightblue" stroke="midnightblue" points="2048.39,-79.67 2057.79,-74.78 2047.4,-72.74 2048.39,-79.67"/>
</g>
</g>
</svg>
        <g id="navigator" transform="translate(0 0)" fill="#404254">
                <rect fill="#f2f5e9" fill-opacity="0.5" stroke="#606060" stroke-width=".5" x="0" y="0" width="60" height="60"/>
                <use id="zoomplus" xlink:href="#zoomPlus" x="17" y="9" onmousedown="handleZoom(evt,'in')"/>
                <use id="zoomminus" xlink:href="#zoomMin" x="42" y="9" onmousedown="handleZoom(evt,'out')"/>
                <use id="reset" xlink:href="#resetDef" x="30" y="36" onmousedown="handleReset()"/>
                <g id="arrowUp" xlink:href="#dirArrow" transform="translate(30 24)" onmousedown="handlePan(0,-1)">
                  <use xlink:href="#rim" fill="#404040">
                        <set attributeName="fill" to="#808080" begin="arrowUp.mouseover" end="arrowUp.mouseout"/>
                  </use>
                  <path fill="none" stroke="white" stroke-width="1.5" d="M0,-3.0v7 M-2.5,-0.5L0,-3.0L2.5,-0.5"/>
                </g>
                <g id="arrowRight" xlink:href="#dirArrow" transform="rotate(90) translate(36 -43)" onmousedown="handlePan(1,0)">
                  <use xlink:href="#rim" fill="#404040">
                        <set attributeName="fill" to="#808080" begin="arrowRight.mouseover" end="arrowRight.mouseout"/>
                  </use>
                  <path fill="none" stroke="white" stroke-width="1.5" d="M0,-3.0v7 M-2.5,-0.5L0,-3.0L2.5,-0.5"/>
                </g>
                <g id="arrowDown" xlink:href="#dirArrow" transform="rotate(180) translate(-30 -48)" onmousedown="handlePan(0,1)">
                  <use xlink:href="#rim" fill="#404040">
                        <set attributeName="fill" to="#808080" begin="arrowDown.mouseover" end="arrowDown.mouseout"/>
                  </use>
                  <path fill="none" stroke="white" stroke-width="1.5" d="M0,-3.0v7 M-2.5,-0.5L0,-3.0L2.5,-0.5"/>
                </g>
                <g id="arrowLeft" xlink:href="#dirArrow" transform="rotate(270) translate(-36 17)" onmousedown="handlePan(-1,0)">
                  <use xlink:href="#rim" fill="#404040">
                        <set attributeName="fill" to="#808080" begin="arrowLeft.mouseover" end="arrowLeft.mouseout"/>
                  </use>
                  <path fill="none" stroke="white" stroke-width="1.5" d="M0,-3.0v7 M-2.5,-0.5L0,-3.0L2.5,-0.5"/>
                </g>
        </g>
        <svg viewBox="0 0 15 15" width="100%" height="30px" preserveAspectRatio="xMaxYMin meet">
         <g id="arrow_out" transform="scale(0.3 0.3)">
          <a xlink:href="_interface_unit2_810_80_8cpp__incl_org.svg" target="_base">
           <rect id="button" ry="5" rx="5" y="6" x="6" height="38" width="38"
                fill="#f2f5e9" fill-opacity="0.5" stroke="#606060" stroke-width="1.0"/>
           <path id="arrow"
             d="M 11.500037,31.436501 C 11.940474,20.09759 22.043105,11.32322 32.158766,21.979434 L 37.068811,17.246167 C 37.068811,17.246167 37.088388,32 37.088388,32 L 22.160133,31.978069 C 22.160133,31.978069 26.997745,27.140456 26.997745,27.140456 C 18.528582,18.264221 13.291696,25.230495 11.500037,31.436501 z"
             style="fill:#404040;"/>
          </a>
         </g>
        </svg>
</svg>
