<?xml version="1.0" encoding="UTF-8" standalone="no"?>
<!DOCTYPE svg PUBLIC "-//W3C//DTD SVG 1.1//EN"
 "http://www.w3.org/Graphics/SVG/1.1/DTD/svg11.dtd">
<!-- Generated by graphviz version 2.44.1 (20200629.0800)
 -->
<!-- Title: InterfaceUnit.cpp Pages: 1 -->
<svg width="2292pt" height="196pt"
 viewBox="0.00 0.00 2292.00 196.00" xmlns="http://www.w3.org/2000/svg" xmlns:xlink="http://www.w3.org/1999/xlink">
<g id="graph0" class="graph" transform="scale(1 1) rotate(0) translate(4 192)">
<title>InterfaceUnit.cpp</title>
<polygon fill="white" stroke="transparent" points="-4,4 -4,-192 2288,-192 2288,4 -4,4"/>
<!-- Node1 -->
<g id="node1" class="node">
<title>Node1</title>
<g id="a_node1"><a xlink:title=" ">
<polygon fill="#bfbfbf" stroke="black" points="1238,-168.5 1238,-187.5 1327,-187.5 1327,-168.5 1238,-168.5"/>
<text text-anchor="middle" x="1282.5" y="-175.5" font-family="Helvetica,sans-Serif" font-size="10.00">InterfaceUnit.cpp</text>
</a>
</g>
</g>
<!-- Node2 -->
<g id="node2" class="node">
<title>Node2</title>
<g id="a_node2"><a xlink:title=" ">
<polygon fill="white" stroke="#bfbfbf" points="89,-56.5 89,-75.5 160,-75.5 160,-56.5 89,-56.5"/>
<text text-anchor="middle" x="124.5" y="-63.5" font-family="Helvetica,sans-Serif" font-size="10.00">Classes.hpp</text>
</a>
</g>
</g>
<!-- Node1&#45;&gt;Node2 -->
<g id="edge1" class="edge">
<title>Node1&#45;&gt;Node2</title>
<path fill="none" stroke="midnightblue" d="M1237.8,-176.62C1047.87,-174.78 313.08,-165.56 215.5,-132 185.84,-121.8 157.37,-98.59 140.4,-82.85"/>
<polygon fill="midnightblue" stroke="midnightblue" points="142.69,-80.19 133.04,-75.81 137.85,-85.25 142.69,-80.19"/>
</g>
<!-- Node3 -->
<g id="node3" class="node">
<title>Node3</title>
<g id="a_node3"><a xlink:title=" ">
<polygon fill="white" stroke="#bfbfbf" points="178,-56.5 178,-75.5 249,-75.5 249,-56.5 178,-56.5"/>
<text text-anchor="middle" x="213.5" y="-63.5" font-family="Helvetica,sans-Serif" font-size="10.00">Controls.hpp</text>
</a>
</g>
</g>
<!-- Node1&#45;&gt;Node3 -->
<g id="edge2" class="edge">
<title>Node1&#45;&gt;Node3</title>
<path fill="none" stroke="midnightblue" d="M1237.97,-176.53C1043.01,-174.28 272.62,-163.44 232.5,-132 218.78,-121.25 214.58,-101.16 213.47,-86.15"/>
<polygon fill="midnightblue" stroke="midnightblue" points="216.96,-85.77 213.12,-75.9 209.97,-86.01 216.96,-85.77"/>
</g>
<!-- Node4 -->
<g id="node4" class="node">
<title>Node4</title>
<g id="a_node4"><a xlink:title=" ">
<polygon fill="white" stroke="#bfbfbf" points="0,-56.5 0,-75.5 71,-75.5 71,-56.5 0,-56.5"/>
<text text-anchor="middle" x="35.5" y="-63.5" font-family="Helvetica,sans-Serif" font-size="10.00">StdCtrls.hpp</text>
</a>
</g>
</g>
<!-- Node1&#45;&gt;Node4 -->
<g id="edge3" class="edge">
<title>Node1&#45;&gt;Node4</title>
<path fill="none" stroke="midnightblue" d="M1237.86,-176.23C1043.85,-172.73 278.9,-157.44 174.5,-132 130.93,-121.38 84.56,-96.63 57.91,-80.91"/>
<polygon fill="midnightblue" stroke="midnightblue" points="59.4,-77.73 49.03,-75.58 55.8,-83.73 59.4,-77.73"/>
</g>
<!-- Node5 -->
<g id="node5" class="node">
<title>Node5</title>
<g id="a_node5"><a xlink:title=" ">
<polygon fill="white" stroke="#bfbfbf" points="267,-56.5 267,-75.5 330,-75.5 330,-56.5 267,-56.5"/>
<text text-anchor="middle" x="298.5" y="-63.5" font-family="Helvetica,sans-Serif" font-size="10.00">Forms.hpp</text>
</a>
</g>
</g>
<!-- Node1&#45;&gt;Node5 -->
<g id="edge4" class="edge">
<title>Node1&#45;&gt;Node5</title>
<path fill="none" stroke="midnightblue" d="M1237.75,-176.84C1063.56,-175.97 436.43,-170.16 356.5,-132 335.25,-121.86 318.4,-100.01 308.45,-84.45"/>
<polygon fill="midnightblue" stroke="midnightblue" points="311.34,-82.47 303.17,-75.73 305.36,-86.1 311.34,-82.47"/>
</g>
<!-- Node6 -->
<g id="node6" class="node">
<title>Node6</title>
<g id="a_node6"><a xlink:title=" ">
<polygon fill="white" stroke="#bfbfbf" points="530,-56.5 530,-75.5 599,-75.5 599,-56.5 530,-56.5"/>
<text text-anchor="middle" x="564.5" y="-63.5" font-family="Helvetica,sans-Serif" font-size="10.00">Buttons.hpp</text>
</a>
</g>
</g>
<!-- Node1&#45;&gt;Node6 -->
<g id="edge5" class="edge">
<title>Node1&#45;&gt;Node6</title>
<path fill="none" stroke="midnightblue" d="M1237.83,-177.06C1112.41,-176.71 759.18,-172.09 651.5,-132 623.21,-121.47 596.28,-98.69 580.07,-83.1"/>
<polygon fill="midnightblue" stroke="midnightblue" points="582.19,-80.26 572.62,-75.7 577.25,-85.23 582.19,-80.26"/>
</g>
<!-- Node7 -->
<g id="node7" class="node">
<title>Node7</title>
<g id="a_node7"><a xlink:title=" ">
<polygon fill="white" stroke="#bfbfbf" points="348,-56.5 348,-75.5 419,-75.5 419,-56.5 348,-56.5"/>
<text text-anchor="middle" x="383.5" y="-63.5" font-family="Helvetica,sans-Serif" font-size="10.00">ExtCtrls.hpp</text>
</a>
</g>
</g>
<!-- Node1&#45;&gt;Node7 -->
<g id="edge6" class="edge">
<title>Node1&#45;&gt;Node7</title>
<path fill="none" stroke="midnightblue" d="M1237.91,-176.02C1100.55,-172.7 685.17,-160.54 553.5,-132 500.89,-120.6 443.01,-95.58 410.17,-80.12"/>
<polygon fill="midnightblue" stroke="midnightblue" points="411.36,-76.81 400.82,-75.66 408.34,-83.13 411.36,-76.81"/>
</g>
<!-- Node8 -->
<g id="node8" class="node">
<title>Node8</title>
<g id="a_node8"><a xlink:title=" ">
<polygon fill="white" stroke="#bfbfbf" points="617,-56.5 617,-75.5 682,-75.5 682,-56.5 617,-56.5"/>
<text text-anchor="middle" x="649.5" y="-63.5" font-family="Helvetica,sans-Serif" font-size="10.00">Menus.hpp</text>
</a>
</g>
</g>
<!-- Node1&#45;&gt;Node8 -->
<g id="edge7" class="edge">
<title>Node1&#45;&gt;Node8</title>
<path fill="none" stroke="midnightblue" d="M1237.75,-176.62C1103.8,-175.08 712.5,-167.57 668.5,-132 654.95,-121.05 650.72,-100.99 649.56,-86.04"/>
<polygon fill="midnightblue" stroke="midnightblue" points="653.05,-85.7 649.17,-75.84 646.06,-85.97 653.05,-85.7"/>
</g>
<!-- Node9 -->
<g id="node9" class="node">
<title>Node9</title>
<g id="a_node9"><a xlink:title=" ">
<polygon fill="white" stroke="#bfbfbf" points="1092.5,-56.5 1092.5,-75.5 1160.5,-75.5 1160.5,-56.5 1092.5,-56.5"/>
<text text-anchor="middle" x="1126.5" y="-63.5" font-family="Helvetica,sans-Serif" font-size="10.00">Dialogs.hpp</text>
</a>
</g>
</g>
<!-- Node1&#45;&gt;Node9 -->
<g id="edge8" class="edge">
<title>Node1&#45;&gt;Node9</title>
<path fill="none" stroke="midnightblue" d="M1270.26,-168.37C1243.6,-149.57 1180.06,-104.77 1147.11,-81.53"/>
<polygon fill="midnightblue" stroke="midnightblue" points="1148.87,-78.49 1138.68,-75.59 1144.84,-84.21 1148.87,-78.49"/>
</g>
<!-- Node10 -->
<g id="node10" class="node">
<title>Node10</title>
<g id="a_node10"><a xlink:title=" ">
<polygon fill="white" stroke="#bfbfbf" points="437.5,-56.5 437.5,-75.5 511.5,-75.5 511.5,-56.5 437.5,-56.5"/>
<text text-anchor="middle" x="474.5" y="-63.5" font-family="Helvetica,sans-Serif" font-size="10.00">Graphics.hpp</text>
</a>
</g>
</g>
<!-- Node1&#45;&gt;Node10 -->
<g id="edge9" class="edge">
<title>Node1&#45;&gt;Node10</title>
<path fill="none" stroke="midnightblue" d="M1237.71,-176.18C1107.45,-173.44 730.41,-162.99 611.5,-132 568.85,-120.88 523.38,-96.5 497.03,-80.96"/>
<polygon fill="midnightblue" stroke="midnightblue" points="498.6,-77.82 488.23,-75.68 495,-83.83 498.6,-77.82"/>
</g>
<!-- Node11 -->
<g id="node11" class="node">
<title>Node11</title>
<g id="a_node11"><a xlink:title=" ">
<polygon fill="white" stroke="#bfbfbf" points="1178.5,-56.5 1178.5,-75.5 1254.5,-75.5 1254.5,-56.5 1178.5,-56.5"/>
<text text-anchor="middle" x="1216.5" y="-63.5" font-family="Helvetica,sans-Serif" font-size="10.00">ComCtrls.hpp</text>
</a>
</g>
</g>
<!-- Node1&#45;&gt;Node11 -->
<g id="edge10" class="edge">
<title>Node1&#45;&gt;Node11</title>
<path fill="none" stroke="midnightblue" d="M1277.32,-168.37C1266.48,-150.3 1241.21,-108.18 1226.88,-84.31"/>
<polygon fill="midnightblue" stroke="midnightblue" points="1229.8,-82.37 1221.65,-75.59 1223.8,-85.97 1229.8,-82.37"/>
</g>
<!-- Node12 -->
<g id="node12" class="node">
<title>Node12</title>
<g id="a_node12"><a xlink:title=" ">
<polygon fill="white" stroke="#bfbfbf" points="1715,-112.5 1715,-131.5 1780,-131.5 1780,-112.5 1715,-112.5"/>
<text text-anchor="middle" x="1747.5" y="-119.5" font-family="Helvetica,sans-Serif" font-size="10.00">Clipbrd.hpp</text>
</a>
</g>
</g>
<!-- Node1&#45;&gt;Node12 -->
<g id="edge11" class="edge">
<title>Node1&#45;&gt;Node12</title>
<path fill="none" stroke="midnightblue" d="M1327.28,-173.88C1403.04,-168.25 1561.48,-154.94 1704.61,-132.16"/>
<polygon fill="midnightblue" stroke="midnightblue" points="1705.57,-135.55 1714.89,-130.5 1704.46,-128.63 1705.57,-135.55"/>
</g>
<!-- Node13 -->
<g id="node13" class="node">
<title>Node13</title>
<g id="a_node13"><a xlink:title=" ">
<polygon fill="white" stroke="#bfbfbf" points="1548,-56.5 1548,-75.5 1597,-75.5 1597,-56.5 1548,-56.5"/>
<text text-anchor="middle" x="1572.5" y="-63.5" font-family="Helvetica,sans-Serif" font-size="10.00">fstream</text>
</a>
</g>
</g>
<!-- Node1&#45;&gt;Node13 -->
<g id="edge12" class="edge">
<title>Node1&#45;&gt;Node13</title>
<path fill="none" stroke="midnightblue" d="M1327.34,-176.97C1376.81,-175.06 1457.25,-166.31 1516.5,-132 1536.17,-120.61 1552.28,-99.71 1562.1,-84.68"/>
<polygon fill="midnightblue" stroke="midnightblue" points="1565.3,-86.15 1567.61,-75.81 1559.36,-82.46 1565.3,-86.15"/>
</g>
<!-- Node14 -->
<g id="node14" class="node">
<title>Node14</title>
<g id="a_node14"><a xlink:title=" ">
<polygon fill="white" stroke="#bfbfbf" points="1798.5,-112.5 1798.5,-131.5 1850.5,-131.5 1850.5,-112.5 1798.5,-112.5"/>
<text text-anchor="middle" x="1824.5" y="-119.5" font-family="Helvetica,sans-Serif" font-size="10.00">sstream</text>
</a>
</g>
</g>
<!-- Node1&#45;&gt;Node14 -->
<g id="edge13" class="edge">
<title>Node1&#45;&gt;Node14</title>
<path fill="none" stroke="midnightblue" d="M1327.24,-175.48C1414.33,-171.99 1612.78,-161.46 1788.3,-131.94"/>
<polygon fill="midnightblue" stroke="midnightblue" points="1788.96,-135.38 1798.23,-130.25 1787.78,-128.48 1788.96,-135.38"/>
</g>
<!-- Node15 -->
<g id="node15" class="node">
<title>Node15</title>
<g id="a_node15"><a xlink:title=" ">
<polygon fill="white" stroke="#bfbfbf" points="1310.5,-56.5 1310.5,-75.5 1352.5,-75.5 1352.5,-56.5 1310.5,-56.5"/>
<text text-anchor="middle" x="1331.5" y="-63.5" font-family="Helvetica,sans-Serif" font-size="10.00">vector</text>
</a>
</g>
</g>
<!-- Node1&#45;&gt;Node15 -->
<g id="edge14" class="edge">
<title>Node1&#45;&gt;Node15</title>
<path fill="none" stroke="midnightblue" d="M1277.73,-168.09C1271.47,-155.08 1262.29,-130.43 1271.5,-112 1278.23,-98.54 1291.11,-88.07 1303.21,-80.62"/>
<polygon fill="midnightblue" stroke="midnightblue" points="1305.23,-83.5 1312.2,-75.52 1301.78,-77.41 1305.23,-83.5"/>
</g>
<!-- Node16 -->
<g id="node16" class="node">
<title>Node16</title>
<g id="a_node16"><a xlink:title=" ">
<polygon fill="white" stroke="#bfbfbf" points="1501.5,-0.5 1501.5,-19.5 1537.5,-19.5 1537.5,-0.5 1501.5,-0.5"/>
<text text-anchor="middle" x="1519.5" y="-7.5" font-family="Helvetica,sans-Serif" font-size="10.00">vcl.h</text>
</a>
</g>
</g>
<!-- Node1&#45;&gt;Node16 -->
<g id="edge15" class="edge">
<title>Node1&#45;&gt;Node16</title>
<path fill="none" stroke="midnightblue" d="M1327.02,-172.84C1379.46,-167.13 1468.78,-154.87 1542.5,-132 1544.28,-131.45 1663.49,-77.57 1664.5,-76 1693.01,-31.54 1597.78,-17.23 1547.94,-12.83"/>
<polygon fill="midnightblue" stroke="midnightblue" points="1548.02,-9.33 1537.77,-12.02 1547.46,-16.31 1548.02,-9.33"/>
</g>
<!-- Node17 -->
<g id="node17" class="node">
<title>Node17</title>
<g id="a_node17"><a xlink:title=" ">
<polygon fill="white" stroke="#bfbfbf" points="1868.5,-112.5 1868.5,-131.5 1914.5,-131.5 1914.5,-112.5 1868.5,-112.5"/>
<text text-anchor="middle" x="1891.5" y="-119.5" font-family="Helvetica,sans-Serif" font-size="10.00">stdio.h</text>
</a>
</g>
</g>
<!-- Node1&#45;&gt;Node17 -->
<g id="edge16" class="edge">
<title>Node1&#45;&gt;Node17</title>
<path fill="none" stroke="midnightblue" d="M1327.03,-176.49C1422.81,-174.77 1655.48,-167.17 1858.27,-131.88"/>
<polygon fill="midnightblue" stroke="midnightblue" points="1858.97,-135.31 1868.2,-130.12 1857.75,-128.42 1858.97,-135.31"/>
</g>
<!-- Node18 -->
<g id="node18" class="node">
<title>Node18</title>
<g id="a_node18"><a xlink:title=" ">
<polygon fill="white" stroke="#bfbfbf" points="1932.5,-112.5 1932.5,-131.5 1988.5,-131.5 1988.5,-112.5 1932.5,-112.5"/>
<text text-anchor="middle" x="1960.5" y="-119.5" font-family="Helvetica,sans-Serif" font-size="10.00">algorithm</text>
</a>
</g>
</g>
<!-- Node1&#45;&gt;Node18 -->
<g id="edge17" class="edge">
<title>Node1&#45;&gt;Node18</title>
<path fill="none" stroke="midnightblue" d="M1327.08,-176.45C1430.27,-174.62 1693.52,-166.79 1922.14,-131.95"/>
<polygon fill="midnightblue" stroke="midnightblue" points="1922.97,-135.36 1932.32,-130.37 1921.9,-128.44 1922.97,-135.36"/>
</g>
<!-- Node19 -->
<g id="node19" class="node">
<title>Node19</title>
<g id="a_node19"><a xlink:href="_interface_unit_8h.html" target="_top" xlink:title=" ">
<polygon fill="white" stroke="black" points="678,-112.5 678,-131.5 757,-131.5 757,-112.5 678,-112.5"/>
<text text-anchor="middle" x="717.5" y="-119.5" font-family="Helvetica,sans-Serif" font-size="10.00">InterfaceUnit.h</text>
</a>
</g>
</g>
<!-- Node1&#45;&gt;Node19 -->
<g id="edge18" class="edge">
<title>Node1&#45;&gt;Node19</title>
<path fill="none" stroke="midnightblue" d="M1237.69,-172.72C1133.65,-162.77 876.27,-138.17 767.41,-127.77"/>
<polygon fill="midnightblue" stroke="midnightblue" points="767.63,-124.28 757.35,-126.81 766.97,-131.24 767.63,-124.28"/>
</g>
<!-- Node23 -->
<g id="node23" class="node">
<title>Node23</title>
<g id="a_node23"><a xlink:href="_graphic_unit_8h.html" target="_top" xlink:title=" ">
<polygon fill="white" stroke="black" points="365.5,-112.5 365.5,-131.5 441.5,-131.5 441.5,-112.5 365.5,-112.5"/>
<text text-anchor="middle" x="403.5" y="-119.5" font-family="Helvetica,sans-Serif" font-size="10.00">GraphicUnit.h</text>
</a>
</g>
</g>
<!-- Node1&#45;&gt;Node23 -->
<g id="edge35" class="edge">
<title>Node1&#45;&gt;Node23</title>
<path fill="none" stroke="midnightblue" d="M1237.61,-175.97C1114.03,-172.84 758.48,-161.71 464.5,-132 460.31,-131.58 455.96,-131.07 451.61,-130.52"/>
<polygon fill="midnightblue" stroke="midnightblue" points="451.88,-127.02 441.5,-129.16 450.95,-133.96 451.88,-127.02"/>
</g>
<!-- Node24 -->
<g id="node24" class="node">
<title>Node24</title>
<g id="a_node24"><a xlink:href="_display_unit_8h.html" target="_top" xlink:title=" ">
<polygon fill="white" stroke="black" points="1711.5,-56.5 1711.5,-75.5 1785.5,-75.5 1785.5,-56.5 1711.5,-56.5"/>
<text text-anchor="middle" x="1748.5" y="-63.5" font-family="Helvetica,sans-Serif" font-size="10.00">DisplayUnit.h</text>
</a>
</g>
</g>
<!-- Node1&#45;&gt;Node24 -->
<g id="edge43" class="edge">
<title>Node1&#45;&gt;Node24</title>
<path fill="none" stroke="midnightblue" d="M1327.06,-174.46C1387.25,-170.13 1497.38,-158.98 1587.5,-132 1607.69,-125.95 1611.09,-120.2 1630.5,-112 1658.6,-100.13 1691.01,-87.87 1714.74,-79.15"/>
<polygon fill="midnightblue" stroke="midnightblue" points="1716.15,-82.36 1724.35,-75.64 1713.75,-75.78 1716.15,-82.36"/>
</g>
<!-- Node26 -->
<g id="node26" class="node">
<title>Node26</title>
<g id="a_node26"><a xlink:href="_text_unit_8h.html" target="_top" xlink:title=" ">
<polygon fill="white" stroke="black" points="1362,-112.5 1362,-131.5 1423,-131.5 1423,-112.5 1362,-112.5"/>
<text text-anchor="middle" x="1392.5" y="-119.5" font-family="Helvetica,sans-Serif" font-size="10.00">TextUnit.h</text>
</a>
</g>
</g>
<!-- Node1&#45;&gt;Node26 -->
<g id="edge46" class="edge">
<title>Node1&#45;&gt;Node26</title>
<path fill="none" stroke="midnightblue" d="M1300.17,-168.32C1317.89,-159.62 1345.4,-146.12 1365.79,-136.11"/>
<polygon fill="midnightblue" stroke="midnightblue" points="1367.44,-139.2 1374.87,-131.65 1364.35,-132.92 1367.44,-139.2"/>
</g>
<!-- Node27 -->
<g id="node27" class="node">
<title>Node27</title>
<g id="a_node27"><a xlink:href="_train_unit_8h.html" target="_top" xlink:title=" ">
<polygon fill="white" stroke="black" points="1281,-112.5 1281,-131.5 1344,-131.5 1344,-112.5 1281,-112.5"/>
<text text-anchor="middle" x="1312.5" y="-119.5" font-family="Helvetica,sans-Serif" font-size="10.00">TrainUnit.h</text>
</a>
</g>
</g>
<!-- Node1&#45;&gt;Node27 -->
<g id="edge50" class="edge">
<title>Node1&#45;&gt;Node27</title>
<path fill="none" stroke="midnightblue" d="M1287.45,-168.08C1291.6,-160.61 1297.65,-149.72 1302.77,-140.52"/>
<polygon fill="midnightblue" stroke="midnightblue" points="1305.84,-142.19 1307.64,-131.75 1299.72,-138.79 1305.84,-142.19"/>
</g>
<!-- Node30 -->
<g id="node30" class="node">
<title>Node30</title>
<g id="a_node30"><a xlink:href="_utilities_8h.html" target="_top" xlink:title=" ">
<polygon fill="white" stroke="black" points="1640,-112.5 1640,-131.5 1697,-131.5 1697,-112.5 1640,-112.5"/>
<text text-anchor="middle" x="1668.5" y="-119.5" font-family="Helvetica,sans-Serif" font-size="10.00">Utilities.h</text>
</a>
</g>
</g>
<!-- Node1&#45;&gt;Node30 -->
<g id="edge55" class="edge">
<title>Node1&#45;&gt;Node30</title>
<path fill="none" stroke="midnightblue" d="M1327.06,-172.25C1392.65,-165 1518.92,-150.12 1625.5,-132 1626.96,-131.75 1628.44,-131.49 1629.94,-131.22"/>
<polygon fill="midnightblue" stroke="midnightblue" points="1630.72,-134.63 1639.88,-129.31 1629.4,-127.76 1630.72,-134.63"/>
</g>
<!-- Node33 -->
<g id="node33" class="node">
<title>Node33</title>
<g id="a_node33"><a xlink:href="_track_unit_8h.html" target="_top" xlink:title=" ">
<polygon fill="white" stroke="black" points="1441.5,-112.5 1441.5,-131.5 1507.5,-131.5 1507.5,-112.5 1441.5,-112.5"/>
<text text-anchor="middle" x="1474.5" y="-119.5" font-family="Helvetica,sans-Serif" font-size="10.00">TrackUnit.h</text>
</a>
</g>
</g>
<!-- Node1&#45;&gt;Node33 -->
<g id="edge60" class="edge">
<title>Node1&#45;&gt;Node33</title>
<path fill="none" stroke="midnightblue" d="M1312.92,-168.44C1345.78,-159.2 1398.28,-144.44 1434.47,-134.26"/>
<polygon fill="midnightblue" stroke="midnightblue" points="1435.54,-137.59 1444.22,-131.52 1433.65,-130.85 1435.54,-137.59"/>
</g>
<!-- Node35 -->
<g id="node35" class="node">
<title>Node35</title>
<g id="a_node35"><a xlink:href="_about_unit_8h.html" target="_top" xlink:title=" ">
<polygon fill="white" stroke="black" points="241.5,-112.5 241.5,-131.5 309.5,-131.5 309.5,-112.5 241.5,-112.5"/>
<text text-anchor="middle" x="275.5" y="-119.5" font-family="Helvetica,sans-Serif" font-size="10.00">AboutUnit.h</text>
</a>
</g>
</g>
<!-- Node1&#45;&gt;Node35 -->
<g id="edge68" class="edge">
<title>Node1&#45;&gt;Node35</title>
<path fill="none" stroke="midnightblue" d="M1237.87,-177.1C1100.81,-176.92 674.06,-172.89 323.5,-132 322.24,-131.85 320.97,-131.69 319.69,-131.52"/>
<polygon fill="midnightblue" stroke="midnightblue" points="320.17,-128.06 309.76,-130.02 319.12,-134.98 320.17,-128.06"/>
</g>
<!-- Node36 -->
<g id="node36" class="node">
<title>Node36</title>
<g id="a_node36"><a xlink:title=" ">
<polygon fill="white" stroke="#bfbfbf" points="2007,-112.5 2007,-131.5 2056,-131.5 2056,-112.5 2007,-112.5"/>
<text text-anchor="middle" x="2031.5" y="-119.5" font-family="Helvetica,sans-Serif" font-size="10.00">dirent.h</text>
</a>
</g>
</g>
<!-- Node1&#45;&gt;Node36 -->
<g id="edge75" class="edge">
<title>Node1&#45;&gt;Node36</title>
<path fill="none" stroke="midnightblue" d="M1327.18,-177.21C1438.79,-177.1 1738.69,-172.84 1996.8,-131.76"/>
<polygon fill="midnightblue" stroke="midnightblue" points="1997.42,-135.2 2006.74,-130.15 1996.31,-128.29 1997.42,-135.2"/>
</g>
<!-- Node37 -->
<g id="node37" class="node">
<title>Node37</title>
<g id="a_node37"><a xlink:title=" ">
<polygon fill="white" stroke="#bfbfbf" points="2074,-112.5 2074,-131.5 2139,-131.5 2139,-112.5 2074,-112.5"/>
<text text-anchor="middle" x="2106.5" y="-119.5" font-family="Helvetica,sans-Serif" font-size="10.00">Filectrl.hpp</text>
</a>
</g>
</g>
<!-- Node1&#45;&gt;Node37 -->
<g id="edge76" class="edge">
<title>Node1&#45;&gt;Node37</title>
<path fill="none" stroke="midnightblue" d="M1327.32,-176.91C1446.08,-176.13 1778.7,-170.51 2063.79,-132.03"/>
<polygon fill="midnightblue" stroke="midnightblue" points="2064.48,-135.46 2073.91,-130.64 2063.53,-128.53 2064.48,-135.46"/>
</g>
<!-- Node38 -->
<g id="node38" class="node">
<title>Node38</title>
<g id="a_node38"><a xlink:title=" ">
<polygon fill="white" stroke="#bfbfbf" points="2157,-112.5 2157,-131.5 2284,-131.5 2284,-112.5 2157,-112.5"/>
<text text-anchor="middle" x="2220.5" y="-119.5" font-family="Helvetica,sans-Serif" font-size="10.00">Vcl.HTMLHelpViewer.hpp</text>
</a>
</g>
</g>
<!-- Node1&#45;&gt;Node38 -->
<g id="edge77" class="edge">
<title>Node1&#45;&gt;Node38</title>
<path fill="none" stroke="midnightblue" d="M1327.2,-175.82C1453.92,-172.23 1826.57,-160 2146.52,-132.11"/>
<polygon fill="midnightblue" stroke="midnightblue" points="2147.27,-135.56 2156.92,-131.2 2146.66,-128.59 2147.27,-135.56"/>
</g>
<!-- Node19&#45;&gt;Node2 -->
<g id="edge19" class="edge">
<title>Node19&#45;&gt;Node2</title>
<path fill="none" stroke="midnightblue" d="M677.7,-119.38C588.54,-115.39 365.87,-103.48 170.62,-76.16"/>
<polygon fill="midnightblue" stroke="midnightblue" points="170.85,-72.66 160.46,-74.72 169.87,-79.59 170.85,-72.66"/>
</g>
<!-- Node19&#45;&gt;Node3 -->
<g id="edge20" class="edge">
<title>Node19&#45;&gt;Node3</title>
<path fill="none" stroke="midnightblue" d="M677.95,-118.53C599.77,-113.34 419.8,-99.89 259.51,-76.18"/>
<polygon fill="midnightblue" stroke="midnightblue" points="259.87,-72.69 249.46,-74.67 258.84,-79.62 259.87,-72.69"/>
</g>
<!-- Node19&#45;&gt;Node4 -->
<g id="edge21" class="edge">
<title>Node19&#45;&gt;Node4</title>
<path fill="none" stroke="midnightblue" d="M677.74,-120.01C578.57,-117.15 312.16,-107.1 81.37,-76.1"/>
<polygon fill="midnightblue" stroke="midnightblue" points="81.83,-72.63 71.45,-74.75 80.89,-79.57 81.83,-72.63"/>
</g>
<!-- Node19&#45;&gt;Node5 -->
<g id="edge22" class="edge">
<title>Node19&#45;&gt;Node5</title>
<path fill="none" stroke="midnightblue" d="M677.75,-117.64C610.27,-111.64 468.86,-97.8 340.34,-76.18"/>
<polygon fill="midnightblue" stroke="midnightblue" points="340.76,-72.7 330.32,-74.47 339.59,-79.6 340.76,-72.7"/>
</g>
<!-- Node19&#45;&gt;Node6 -->
<g id="edge23" class="edge">
<title>Node19&#45;&gt;Node6</title>
<path fill="none" stroke="midnightblue" d="M693.26,-112.44C667.63,-103.4 627.01,-89.06 598.26,-78.92"/>
<polygon fill="midnightblue" stroke="midnightblue" points="599.22,-75.54 588.63,-75.52 596.89,-82.15 599.22,-75.54"/>
</g>
<!-- Node19&#45;&gt;Node7 -->
<g id="edge24" class="edge">
<title>Node19&#45;&gt;Node7</title>
<path fill="none" stroke="midnightblue" d="M677.68,-115.35C623.77,-107.58 524.33,-92.83 429.4,-76.09"/>
<polygon fill="midnightblue" stroke="midnightblue" points="429.79,-72.61 419.34,-74.31 428.57,-79.5 429.79,-72.61"/>
</g>
<!-- Node19&#45;&gt;Node8 -->
<g id="edge25" class="edge">
<title>Node19&#45;&gt;Node8</title>
<path fill="none" stroke="midnightblue" d="M706.57,-112.32C696.33,-104.18 680.78,-91.84 668.5,-82.09"/>
<polygon fill="midnightblue" stroke="midnightblue" points="670.63,-79.31 660.62,-75.83 666.28,-84.79 670.63,-79.31"/>
</g>
<!-- Node19&#45;&gt;Node9 -->
<g id="edge26" class="edge">
<title>Node19&#45;&gt;Node9</title>
<path fill="none" stroke="midnightblue" d="M757.08,-117.16C824.22,-110.41 964.67,-95.28 1082.5,-76 1082.6,-75.98 1082.7,-75.97 1082.8,-75.95"/>
<polygon fill="midnightblue" stroke="midnightblue" points="1083.2,-79.43 1092.44,-74.24 1081.98,-72.54 1083.2,-79.43"/>
</g>
<!-- Node19&#45;&gt;Node10 -->
<g id="edge27" class="edge">
<title>Node19&#45;&gt;Node10</title>
<path fill="none" stroke="midnightblue" d="M679,-112.44C636.32,-102.96 567.48,-87.66 521.62,-77.47"/>
<polygon fill="midnightblue" stroke="midnightblue" points="522.15,-74 511.63,-75.25 520.63,-80.84 522.15,-74"/>
</g>
<!-- Node19&#45;&gt;Node11 -->
<g id="edge28" class="edge">
<title>Node19&#45;&gt;Node11</title>
<path fill="none" stroke="midnightblue" d="M757.25,-118.25C834.43,-112.65 1010.14,-98.63 1167.96,-76.1"/>
<polygon fill="midnightblue" stroke="midnightblue" points="1168.93,-79.5 1178.33,-74.61 1167.93,-72.57 1168.93,-79.5"/>
</g>
<!-- Node19&#45;&gt;Node13 -->
<g id="edge32" class="edge">
<title>Node19&#45;&gt;Node13</title>
<path fill="none" stroke="midnightblue" d="M757.03,-119.64C871.89,-115.48 1215.42,-101.66 1499.5,-76 1511.99,-74.87 1525.65,-73.28 1537.73,-71.76"/>
<polygon fill="midnightblue" stroke="midnightblue" points="1538.41,-75.2 1547.88,-70.44 1537.51,-68.26 1538.41,-75.2"/>
</g>
<!-- Node19&#45;&gt;Node15 -->
<g id="edge33" class="edge">
<title>Node19&#45;&gt;Node15</title>
<path fill="none" stroke="midnightblue" d="M757.3,-118.4C847.5,-112.35 1074.36,-96.3 1263.5,-76 1275.56,-74.71 1288.78,-73.02 1300.34,-71.45"/>
<polygon fill="midnightblue" stroke="midnightblue" points="1300.97,-74.9 1310.4,-70.07 1300.01,-67.96 1300.97,-74.9"/>
</g>
<!-- Node19&#45;&gt;Node16 -->
<g id="edge34" class="edge">
<title>Node19&#45;&gt;Node16</title>
<path fill="none" stroke="midnightblue" d="M716.11,-112.24C714.41,-98.03 713.49,-70.12 729.5,-56 758.63,-30.32 1352.68,-14.9 1490.93,-11.65"/>
<polygon fill="midnightblue" stroke="midnightblue" points="1491.22,-15.14 1501.14,-11.41 1491.06,-8.14 1491.22,-15.14"/>
</g>
<!-- Node20 -->
<g id="node20" class="node">
<title>Node20</title>
<g id="a_node20"><a xlink:title=" ">
<polygon fill="white" stroke="#bfbfbf" points="840.5,-56.5 840.5,-75.5 954.5,-75.5 954.5,-56.5 840.5,-56.5"/>
<text text-anchor="middle" x="897.5" y="-63.5" font-family="Helvetica,sans-Serif" font-size="10.00">System.ImageList.hpp</text>
</a>
</g>
</g>
<!-- Node19&#45;&gt;Node20 -->
<g id="edge29" class="edge">
<title>Node19&#45;&gt;Node20</title>
<path fill="none" stroke="midnightblue" d="M746.02,-112.44C776.57,-103.28 825.21,-88.69 859.1,-78.52"/>
<polygon fill="midnightblue" stroke="midnightblue" points="860.54,-81.74 869.11,-75.52 858.53,-75.04 860.54,-81.74"/>
</g>
<!-- Node21 -->
<g id="node21" class="node">
<title>Node21</title>
<g id="a_node21"><a xlink:title=" ">
<polygon fill="white" stroke="#bfbfbf" points="973,-56.5 973,-75.5 1074,-75.5 1074,-56.5 973,-56.5"/>
<text text-anchor="middle" x="1023.5" y="-63.5" font-family="Helvetica,sans-Serif" font-size="10.00">System.IOUtils.hpp</text>
</a>
</g>
</g>
<!-- Node19&#45;&gt;Node21 -->
<g id="edge30" class="edge">
<title>Node19&#45;&gt;Node21</title>
<path fill="none" stroke="midnightblue" d="M757.19,-114C810.19,-104.64 904.47,-88.01 965.45,-77.24"/>
<polygon fill="midnightblue" stroke="midnightblue" points="966.08,-80.69 975.32,-75.5 964.86,-73.79 966.08,-80.69"/>
</g>
<!-- Node22 -->
<g id="node22" class="node">
<title>Node22</title>
<g id="a_node22"><a xlink:title=" ">
<polygon fill="white" stroke="#bfbfbf" points="738.5,-56.5 738.5,-75.5 822.5,-75.5 822.5,-56.5 738.5,-56.5"/>
<text text-anchor="middle" x="780.5" y="-63.5" font-family="Helvetica,sans-Serif" font-size="10.00">Vcl.ImgList.hpp</text>
</a>
</g>
</g>
<!-- Node19&#45;&gt;Node22 -->
<g id="edge31" class="edge">
<title>Node19&#45;&gt;Node22</title>
<path fill="none" stroke="midnightblue" d="M727.62,-112.32C737.03,-104.26 751.24,-92.08 762.57,-82.37"/>
<polygon fill="midnightblue" stroke="midnightblue" points="764.88,-85 770.19,-75.83 760.32,-79.68 764.88,-85"/>
</g>
<!-- Node23&#45;&gt;Node2 -->
<g id="edge36" class="edge">
<title>Node23&#45;&gt;Node2</title>
<path fill="none" stroke="midnightblue" d="M365.21,-113.82C320.67,-105.44 244.66,-91.02 170.07,-76.29"/>
<polygon fill="midnightblue" stroke="midnightblue" points="170.52,-72.82 160.03,-74.31 169.16,-79.68 170.52,-72.82"/>
</g>
<!-- Node23&#45;&gt;Node3 -->
<g id="edge37" class="edge">
<title>Node23&#45;&gt;Node3</title>
<path fill="none" stroke="midnightblue" d="M373.39,-112.44C340.87,-103.2 288.92,-88.44 253.11,-78.26"/>
<polygon fill="midnightblue" stroke="midnightblue" points="254.04,-74.88 243.47,-75.52 252.13,-81.62 254.04,-74.88"/>
</g>
<!-- Node23&#45;&gt;Node4 -->
<g id="edge38" class="edge">
<title>Node23&#45;&gt;Node4</title>
<path fill="none" stroke="midnightblue" d="M365.47,-116.52C306.65,-109.41 189.84,-94.6 81.16,-76.2"/>
<polygon fill="midnightblue" stroke="midnightblue" points="81.45,-72.7 71,-74.46 80.27,-79.6 81.45,-72.7"/>
</g>
<!-- Node23&#45;&gt;Node5 -->
<g id="edge39" class="edge">
<title>Node23&#45;&gt;Node5</title>
<path fill="none" stroke="midnightblue" d="M386.63,-112.32C369.79,-103.66 343.69,-90.24 324.26,-80.25"/>
<polygon fill="midnightblue" stroke="midnightblue" points="325.82,-77.12 315.33,-75.65 322.62,-83.34 325.82,-77.12"/>
</g>
<!-- Node23&#45;&gt;Node6 -->
<g id="edge40" class="edge">
<title>Node23&#45;&gt;Node6</title>
<path fill="none" stroke="midnightblue" d="M429.01,-112.44C456.1,-103.36 499.09,-88.94 529.37,-78.78"/>
<polygon fill="midnightblue" stroke="midnightblue" points="530.74,-82.01 539.11,-75.52 528.51,-75.38 530.74,-82.01"/>
</g>
<!-- Node23&#45;&gt;Node7 -->
<g id="edge41" class="edge">
<title>Node23&#45;&gt;Node7</title>
<path fill="none" stroke="midnightblue" d="M400.2,-112.08C397.52,-104.85 393.65,-94.41 390.31,-85.4"/>
<polygon fill="midnightblue" stroke="midnightblue" points="393.5,-83.91 386.74,-75.75 386.93,-86.34 393.5,-83.91"/>
</g>
<!-- Node23&#45;&gt;Node10 -->
<g id="edge42" class="edge">
<title>Node23&#45;&gt;Node10</title>
<path fill="none" stroke="midnightblue" d="M414.91,-112.32C425.61,-104.18 441.84,-91.84 454.66,-82.09"/>
<polygon fill="midnightblue" stroke="midnightblue" points="457.04,-84.67 462.89,-75.83 452.81,-79.1 457.04,-84.67"/>
</g>
<!-- Node24&#45;&gt;Node16 -->
<g id="edge44" class="edge">
<title>Node24&#45;&gt;Node16</title>
<path fill="none" stroke="midnightblue" d="M1712.21,-56.44C1666.5,-45.66 1588.93,-27.37 1547.52,-17.61"/>
<polygon fill="midnightblue" stroke="midnightblue" points="1548.11,-14.15 1537.57,-15.26 1546.5,-20.96 1548.11,-14.15"/>
</g>
<!-- Node25 -->
<g id="node25" class="node">
<title>Node25</title>
<g id="a_node25"><a xlink:title=" ">
<polygon fill="white" stroke="#bfbfbf" points="1722.5,-0.5 1722.5,-19.5 1774.5,-19.5 1774.5,-0.5 1722.5,-0.5"/>
<text text-anchor="middle" x="1748.5" y="-7.5" font-family="Helvetica,sans-Serif" font-size="10.00">memory</text>
</a>
</g>
</g>
<!-- Node24&#45;&gt;Node25 -->
<g id="edge45" class="edge">
<title>Node24&#45;&gt;Node25</title>
<path fill="none" stroke="midnightblue" d="M1748.5,-56.08C1748.5,-49.01 1748.5,-38.86 1748.5,-29.99"/>
<polygon fill="midnightblue" stroke="midnightblue" points="1752,-29.75 1748.5,-19.75 1745,-29.75 1752,-29.75"/>
</g>
<!-- Node26&#45;&gt;Node13 -->
<g id="edge48" class="edge">
<title>Node26&#45;&gt;Node13</title>
<path fill="none" stroke="midnightblue" d="M1421.02,-112.44C1452.73,-102.93 1503.95,-87.56 1537.92,-77.37"/>
<polygon fill="midnightblue" stroke="midnightblue" points="1539.3,-80.61 1547.87,-74.39 1537.29,-73.91 1539.3,-80.61"/>
</g>
<!-- Node26&#45;&gt;Node15 -->
<g id="edge47" class="edge">
<title>Node26&#45;&gt;Node15</title>
<path fill="none" stroke="midnightblue" d="M1382.7,-112.32C1373.68,-104.34 1360.09,-92.31 1349.18,-82.65"/>
<polygon fill="midnightblue" stroke="midnightblue" points="1351.29,-79.84 1341.48,-75.83 1346.65,-85.08 1351.29,-79.84"/>
</g>
<!-- Node26&#45;&gt;Node16 -->
<g id="edge49" class="edge">
<title>Node26&#45;&gt;Node16</title>
<path fill="none" stroke="midnightblue" d="M1390.81,-112.38C1388.68,-98.86 1386.7,-72.5 1399.5,-56 1421.51,-27.63 1463.46,-17.14 1491.46,-13.27"/>
<polygon fill="midnightblue" stroke="midnightblue" points="1491.92,-16.74 1501.44,-12.09 1491.09,-9.79 1491.92,-16.74"/>
</g>
<!-- Node27&#45;&gt;Node15 -->
<g id="edge51" class="edge">
<title>Node27&#45;&gt;Node15</title>
<path fill="none" stroke="midnightblue" d="M1315.64,-112.08C1318.18,-104.85 1321.86,-94.41 1325.03,-85.4"/>
<polygon fill="midnightblue" stroke="midnightblue" points="1328.4,-86.35 1328.42,-75.75 1321.8,-84.02 1328.4,-86.35"/>
</g>
<!-- Node27&#45;&gt;Node16 -->
<g id="edge53" class="edge">
<title>Node27&#45;&gt;Node16</title>
<path fill="none" stroke="midnightblue" d="M1307.22,-112.34C1299.7,-98.76 1288.2,-72.33 1301.5,-56 1325.13,-26.99 1437.76,-16.12 1491.22,-12.54"/>
<polygon fill="midnightblue" stroke="midnightblue" points="1491.61,-16.03 1501.37,-11.91 1491.17,-9.04 1491.61,-16.03"/>
</g>
<!-- Node28 -->
<g id="node28" class="node">
<title>Node28</title>
<g id="a_node28"><a xlink:title=" ">
<polygon fill="white" stroke="#bfbfbf" points="1456,-56.5 1456,-75.5 1491,-75.5 1491,-56.5 1456,-56.5"/>
<text text-anchor="middle" x="1473.5" y="-63.5" font-family="Helvetica,sans-Serif" font-size="10.00">map</text>
</a>
</g>
</g>
<!-- Node27&#45;&gt;Node28 -->
<g id="edge52" class="edge">
<title>Node27&#45;&gt;Node28</title>
<path fill="none" stroke="midnightblue" d="M1338.01,-112.44C1367.49,-102.56 1415.8,-86.35 1446.07,-76.2"/>
<polygon fill="midnightblue" stroke="midnightblue" points="1447.22,-79.51 1455.59,-73.01 1444.99,-72.87 1447.22,-79.51"/>
</g>
<!-- Node29 -->
<g id="node29" class="node">
<title>Node29</title>
<g id="a_node29"><a xlink:title=" ">
<polygon fill="white" stroke="#bfbfbf" points="1409,-56.5 1409,-75.5 1438,-75.5 1438,-56.5 1409,-56.5"/>
<text text-anchor="middle" x="1423.5" y="-63.5" font-family="Helvetica,sans-Serif" font-size="10.00">list</text>
</a>
</g>
</g>
<!-- Node27&#45;&gt;Node29 -->
<g id="edge54" class="edge">
<title>Node27&#45;&gt;Node29</title>
<path fill="none" stroke="midnightblue" d="M1330.33,-112.32C1349.17,-103.16 1378.96,-88.67 1399.77,-78.55"/>
<polygon fill="midnightblue" stroke="midnightblue" points="1401.44,-81.62 1408.9,-74.1 1398.38,-75.33 1401.44,-81.62"/>
</g>
<!-- Node30&#45;&gt;Node13 -->
<g id="edge58" class="edge">
<title>Node30&#45;&gt;Node13</title>
<path fill="none" stroke="midnightblue" d="M1653.08,-112.32C1637.96,-103.82 1614.68,-90.73 1597.03,-80.8"/>
<polygon fill="midnightblue" stroke="midnightblue" points="1598.32,-77.51 1587.89,-75.65 1594.89,-83.61 1598.32,-77.51"/>
</g>
<!-- Node30&#45;&gt;Node16 -->
<g id="edge57" class="edge">
<title>Node30&#45;&gt;Node16</title>
<path fill="none" stroke="midnightblue" d="M1697.21,-112.65C1732.56,-102.08 1788.68,-84.26 1794.5,-76 1799.62,-68.73 1800.26,-62.77 1794.5,-56 1763.04,-18.97 1611.63,-12.35 1547.88,-11.21"/>
<polygon fill="midnightblue" stroke="midnightblue" points="1547.79,-7.71 1537.74,-11.06 1547.69,-14.71 1547.79,-7.71"/>
</g>
<!-- Node31 -->
<g id="node31" class="node">
<title>Node31</title>
<g id="a_node31"><a xlink:title=" ">
<polygon fill="white" stroke="#bfbfbf" points="1842,-56.5 1842,-75.5 1885,-75.5 1885,-56.5 1842,-56.5"/>
<text text-anchor="middle" x="1863.5" y="-63.5" font-family="Helvetica,sans-Serif" font-size="10.00">deque</text>
</a>
</g>
</g>
<!-- Node30&#45;&gt;Node31 -->
<g id="edge56" class="edge">
<title>Node30&#45;&gt;Node31</title>
<path fill="none" stroke="midnightblue" d="M1697.27,-113.03C1733.3,-103.06 1794.79,-86.03 1832.03,-75.71"/>
<polygon fill="midnightblue" stroke="midnightblue" points="1833.15,-79.04 1841.85,-73 1831.28,-72.29 1833.15,-79.04"/>
</g>
<!-- Node32 -->
<g id="node32" class="node">
<title>Node32</title>
<g id="a_node32"><a xlink:title=" ">
<polygon fill="white" stroke="#bfbfbf" points="1903.5,-56.5 1903.5,-75.5 1953.5,-75.5 1953.5,-56.5 1903.5,-56.5"/>
<text text-anchor="middle" x="1928.5" y="-63.5" font-family="Helvetica,sans-Serif" font-size="10.00">locale.h</text>
</a>
</g>
</g>
<!-- Node30&#45;&gt;Node32 -->
<g id="edge59" class="edge">
<title>Node30&#45;&gt;Node32</title>
<path fill="none" stroke="midnightblue" d="M1697.1,-114.09C1700.27,-113.36 1703.45,-112.65 1706.5,-112 1786.6,-94.85 1809.84,-94.87 1893.37,-76.13"/>
<polygon fill="midnightblue" stroke="midnightblue" points="1894.32,-79.5 1903.3,-73.88 1892.77,-72.68 1894.32,-79.5"/>
</g>
<!-- Node33&#45;&gt;Node13 -->
<g id="edge64" class="edge">
<title>Node33&#45;&gt;Node13</title>
<path fill="none" stroke="midnightblue" d="M1490.25,-112.32C1505.82,-103.74 1529.88,-90.49 1547.96,-80.52"/>
<polygon fill="midnightblue" stroke="midnightblue" points="1549.72,-83.55 1556.79,-75.65 1546.35,-77.42 1549.72,-83.55"/>
</g>
<!-- Node33&#45;&gt;Node15 -->
<g id="edge62" class="edge">
<title>Node33&#45;&gt;Node15</title>
<path fill="none" stroke="midnightblue" d="M1451.84,-112.44C1427.68,-103.32 1389.26,-88.81 1362.35,-78.65"/>
<polygon fill="midnightblue" stroke="midnightblue" points="1363.25,-75.25 1352.65,-74.99 1360.77,-81.8 1363.25,-75.25"/>
</g>
<!-- Node33&#45;&gt;Node16 -->
<g id="edge61" class="edge">
<title>Node33&#45;&gt;Node16</title>
<path fill="none" stroke="midnightblue" d="M1480.05,-112.31C1485.53,-103.44 1493.89,-89.16 1499.5,-76 1506.01,-60.73 1511.4,-42.62 1514.94,-29.4"/>
<polygon fill="midnightblue" stroke="midnightblue" points="1518.36,-30.17 1517.46,-19.62 1511.58,-28.43 1518.36,-30.17"/>
</g>
<!-- Node33&#45;&gt;Node24 -->
<g id="edge67" class="edge">
<title>Node33&#45;&gt;Node24</title>
<path fill="none" stroke="midnightblue" d="M1507.55,-114.49C1555.92,-104.95 1646.24,-87.15 1701.5,-76.26"/>
<polygon fill="midnightblue" stroke="midnightblue" points="1702.26,-79.68 1711.4,-74.31 1700.91,-72.81 1702.26,-79.68"/>
</g>
<!-- Node33&#45;&gt;Node28 -->
<g id="edge63" class="edge">
<title>Node33&#45;&gt;Node28</title>
<path fill="none" stroke="midnightblue" d="M1474.33,-112.08C1474.2,-105.01 1474.02,-94.86 1473.85,-85.99"/>
<polygon fill="midnightblue" stroke="midnightblue" points="1477.35,-85.68 1473.66,-75.75 1470.35,-85.81 1477.35,-85.68"/>
</g>
<!-- Node33&#45;&gt;Node29 -->
<g id="edge65" class="edge">
<title>Node33&#45;&gt;Node29</title>
<path fill="none" stroke="midnightblue" d="M1466.08,-112.08C1458.65,-104.22 1447.65,-92.57 1438.69,-83.08"/>
<polygon fill="midnightblue" stroke="midnightblue" points="1441.18,-80.62 1431.76,-75.75 1436.09,-85.42 1441.18,-80.62"/>
</g>
<!-- Node34 -->
<g id="node34" class="node">
<title>Node34</title>
<g id="a_node34"><a xlink:title=" ">
<polygon fill="white" stroke="#bfbfbf" points="1615.5,-56.5 1615.5,-75.5 1655.5,-75.5 1655.5,-56.5 1615.5,-56.5"/>
<text text-anchor="middle" x="1635.5" y="-63.5" font-family="Helvetica,sans-Serif" font-size="10.00">utility</text>
</a>
</g>
</g>
<!-- Node33&#45;&gt;Node34 -->
<g id="edge66" class="edge">
<title>Node33&#45;&gt;Node34</title>
<path fill="none" stroke="midnightblue" d="M1500.01,-112.44C1528.69,-102.82 1575.2,-87.22 1605.57,-77.04"/>
<polygon fill="midnightblue" stroke="midnightblue" points="1606.84,-80.3 1615.21,-73.81 1604.61,-73.67 1606.84,-80.3"/>
</g>
<!-- Node35&#45;&gt;Node2 -->
<g id="edge69" class="edge">
<title>Node35&#45;&gt;Node2</title>
<path fill="none" stroke="midnightblue" d="M251.57,-112.44C226.28,-103.4 186.2,-89.06 157.82,-78.92"/>
<polygon fill="midnightblue" stroke="midnightblue" points="158.91,-75.59 148.31,-75.52 156.55,-82.18 158.91,-75.59"/>
</g>
<!-- Node35&#45;&gt;Node3 -->
<g id="edge70" class="edge">
<title>Node35&#45;&gt;Node3</title>
<path fill="none" stroke="midnightblue" d="M265.54,-112.32C256.37,-104.34 242.56,-92.31 231.47,-82.65"/>
<polygon fill="midnightblue" stroke="midnightblue" points="233.48,-79.76 223.64,-75.83 228.88,-85.04 233.48,-79.76"/>
</g>
<!-- Node35&#45;&gt;Node4 -->
<g id="edge71" class="edge">
<title>Node35&#45;&gt;Node4</title>
<path fill="none" stroke="midnightblue" d="M241.37,-113.32C199.29,-103.85 127.63,-87.73 80.93,-77.22"/>
<polygon fill="midnightblue" stroke="midnightblue" points="81.6,-73.79 71.08,-75.01 80.07,-80.61 81.6,-73.79"/>
</g>
<!-- Node35&#45;&gt;Node5 -->
<g id="edge72" class="edge">
<title>Node35&#45;&gt;Node5</title>
<path fill="none" stroke="midnightblue" d="M279.3,-112.08C282.41,-104.77 286.92,-94.18 290.79,-85.1"/>
<polygon fill="midnightblue" stroke="midnightblue" points="294.07,-86.32 294.77,-75.75 287.63,-83.58 294.07,-86.32"/>
</g>
<!-- Node35&#45;&gt;Node7 -->
<g id="edge73" class="edge">
<title>Node35&#45;&gt;Node7</title>
<path fill="none" stroke="midnightblue" d="M292.85,-112.32C310.17,-103.66 337.02,-90.24 357,-80.25"/>
<polygon fill="midnightblue" stroke="midnightblue" points="358.81,-83.26 366.19,-75.65 355.68,-77 358.81,-83.26"/>
</g>
<!-- Node35&#45;&gt;Node10 -->
<g id="edge74" class="edge">
<title>Node35&#45;&gt;Node10</title>
<path fill="none" stroke="midnightblue" d="M307.03,-112.44C341.09,-103.2 395.51,-88.44 433.02,-78.26"/>
<polygon fill="midnightblue" stroke="midnightblue" points="434.38,-81.51 443.12,-75.52 432.55,-74.76 434.38,-81.51"/>
</g>
</g>
</svg>
