<?xml version="1.0" encoding="UTF-8" standalone="no"?>
<!DOCTYPE svg PUBLIC "-//W3C//DTD SVG 1.1//EN"
 "http://www.w3.org/Graphics/SVG/1.1/DTD/svg11.dtd">
<!-- Generated by graphviz version 2.44.1 (20200629.0800)
 -->
<!-- Title: TrackUnit.cpp Pages: 1 -->
<!--zoomable 196 -->
<svg id="main" version="1.1" xmlns="http://www.w3.org/2000/svg" xmlns:xlink="http://www.w3.org/1999/xlink" xml:space="preserve" onload="init(evt)">
<style type="text/css"><![CDATA[
.edge:hover path { stroke: red; }
.edge:hover polygon { stroke: red; fill: red; }
]]></style>
<script type="text/javascript"><![CDATA[
var edges = document.getElementsByTagName('g');
if (edges && edges.length) {
  for (var i=0;i<edges.length;i++) {
    if (edges[i].id.substr(0,4)=='edge') {
      edges[i].setAttribute('class','edge');
    }
  }
}
]]></script>
        <defs>
                <circle id="rim" cx="0" cy="0" r="7"/>
                <circle id="rim2" cx="0" cy="0" r="3.5"/>
                <g id="zoomPlus">
                        <use xlink:href="#rim" target="_top" target="_top" target="_top" target="_top" target="_top" target="_top" target="_top" target="_top" target="_top" fill="#404040">
                                <set attributeName="fill" to="#808080" begin="zoomplus.mouseover" end="zoomplus.mouseout"/>
                        </use>
                        <path d="M-4,0h8M0,-4v8" fill="none" stroke="white" stroke-width="1.5" pointer-events="none"/>
                </g>
                <g id="zoomMin">
                        <use xlink:href="#rim" target="_top" target="_top" target="_top" target="_top" target="_top" target="_top" target="_top" target="_top" target="_top" fill="#404040">
                                <set attributeName="fill" to="#808080" begin="zoomminus.mouseover" end="zoomminus.mouseout"/>
                        </use>
                        <path d="M-4,0h8" fill="none" stroke="white" stroke-width="1.5" pointer-events="none"/>
                </g>
                <g id="dirArrow">
                        <path fill="none" stroke="white" stroke-width="1.5" d="M0,-3.0v7 M-2.5,-0.5L0,-3.0L2.5,-0.5"/>
                </g>
               <g id="resetDef">
                       <use xlink:href="#rim2" target="_top" target="_top" target="_top" target="_top" target="_top" target="_top" target="_top" target="_top" target="_top" fill="#404040">
                               <set attributeName="fill" to="#808080" begin="reset.mouseover" end="reset.mouseout"/>
                       </use>
               </g>
        </defs>

<script type="text/javascript">
var viewWidth = 1945;
var viewHeight = 196;
var sectionId = 'dynsection-0';
</script>
<script xlink:href="svgpan.js" target="_top" target="_top" target="_top" target="_top" target="_top" target="_top" target="_top" target="_top" target="_top"/>
<svg id="graph" class="graph">
<g id="viewport">
<title>TrackUnit.cpp</title>
<polygon fill="white" stroke="transparent" points="-4,4 -4,-192 1940.5,-192 1940.5,4 -4,4"/>
<!-- Node1 -->
<g id="node1" class="node">
<title>Node1</title>
<g id="a_node1"><a xlink:title=" ">
<polygon fill="#bfbfbf" stroke="black" points="611,-168.5 611,-187.5 688,-187.5 688,-168.5 611,-168.5"/>
<text text-anchor="middle" x="649.5" y="-175.5" font-family="Helvetica,sans-Serif" font-size="10.00">TrackUnit.cpp</text>
</a>
</g>
</g>
<!-- Node2 -->
<g id="node2" class="node">
<title>Node2</title>
<g id="a_node2"><a xlink:title=" ">
<polygon fill="white" stroke="#bfbfbf" points="0,-56.5 0,-75.5 71,-75.5 71,-56.5 0,-56.5"/>
<text text-anchor="middle" x="35.5" y="-63.5" font-family="Helvetica,sans-Serif" font-size="10.00">Classes.hpp</text>
</a>
</g>
</g>
<!-- Node1&#45;&gt;Node2 -->
<g id="edge1" class="edge">
<title>Node1&#45;&gt;Node2</title>
<path fill="none" stroke="midnightblue" d="M610.71,-177.67C528.92,-178.15 333.4,-174.31 176.5,-132 132.73,-120.2 85.62,-95.85 58.45,-80.53"/>
<polygon fill="midnightblue" stroke="midnightblue" points="60.12,-77.46 49.7,-75.53 56.64,-83.54 60.12,-77.46"/>
</g>
<!-- Node3 -->
<g id="node3" class="node">
<title>Node3</title>
<g id="a_node3"><a xlink:title=" ">
<polygon fill="white" stroke="#bfbfbf" points="89,-56.5 89,-75.5 160,-75.5 160,-56.5 89,-56.5"/>
<text text-anchor="middle" x="124.5" y="-63.5" font-family="Helvetica,sans-Serif" font-size="10.00">Controls.hpp</text>
</a>
</g>
</g>
<!-- Node1&#45;&gt;Node3 -->
<g id="edge2" class="edge">
<title>Node1&#45;&gt;Node3</title>
<path fill="none" stroke="midnightblue" d="M610.98,-175.53C518.74,-171.59 287.5,-159.25 215.5,-132 186.16,-120.9 157.61,-97.92 140.54,-82.48"/>
<polygon fill="midnightblue" stroke="midnightblue" points="142.83,-79.83 133.13,-75.59 138.07,-84.96 142.83,-79.83"/>
</g>
<!-- Node4 -->
<g id="node4" class="node">
<title>Node4</title>
<g id="a_node4"><a xlink:title=" ">
<polygon fill="white" stroke="#bfbfbf" points="178,-56.5 178,-75.5 249,-75.5 249,-56.5 178,-56.5"/>
<text text-anchor="middle" x="213.5" y="-63.5" font-family="Helvetica,sans-Serif" font-size="10.00">StdCtrls.hpp</text>
</a>
</g>
</g>
<!-- Node1&#45;&gt;Node4 -->
<g id="edge3" class="edge">
<title>Node1&#45;&gt;Node4</title>
<path fill="none" stroke="midnightblue" d="M610.81,-175.29C512.74,-170.61 260.12,-156.3 231.5,-132 218.27,-120.77 214.33,-100.75 213.35,-85.89"/>
<polygon fill="midnightblue" stroke="midnightblue" points="216.85,-85.66 213.08,-75.76 209.85,-85.85 216.85,-85.66"/>
</g>
<!-- Node5 -->
<g id="node5" class="node">
<title>Node5</title>
<g id="a_node5"><a xlink:title=" ">
<polygon fill="white" stroke="#bfbfbf" points="267,-56.5 267,-75.5 330,-75.5 330,-56.5 267,-56.5"/>
<text text-anchor="middle" x="298.5" y="-63.5" font-family="Helvetica,sans-Serif" font-size="10.00">Forms.hpp</text>
</a>
</g>
</g>
<!-- Node1&#45;&gt;Node5 -->
<g id="edge4" class="edge">
<title>Node1&#45;&gt;Node5</title>
<path fill="none" stroke="midnightblue" d="M611,-172.54C565.68,-166.54 488.61,-154.02 425.5,-132 386.93,-118.54 345.34,-95.45 320.64,-80.72"/>
<polygon fill="midnightblue" stroke="midnightblue" points="322.41,-77.7 312.04,-75.52 318.78,-83.69 322.41,-77.7"/>
</g>
<!-- Node6 -->
<g id="node6" class="node">
<title>Node6</title>
<g id="a_node6"><a xlink:title=" ">
<polygon fill="white" stroke="#bfbfbf" points="348,-56.5 348,-75.5 417,-75.5 417,-56.5 348,-56.5"/>
<text text-anchor="middle" x="382.5" y="-63.5" font-family="Helvetica,sans-Serif" font-size="10.00">Buttons.hpp</text>
</a>
</g>
</g>
<!-- Node1&#45;&gt;Node6 -->
<g id="edge5" class="edge">
<title>Node1&#45;&gt;Node6</title>
<path fill="none" stroke="midnightblue" d="M610.69,-173.31C570.74,-168.29 507.57,-156.89 458.5,-132 434.2,-119.67 411.13,-98.03 396.92,-83.13"/>
<polygon fill="midnightblue" stroke="midnightblue" points="399.34,-80.6 389.98,-75.64 394.21,-85.36 399.34,-80.6"/>
</g>
<!-- Node7 -->
<g id="node7" class="node">
<title>Node7</title>
<g id="a_node7"><a xlink:title=" ">
<polygon fill="white" stroke="#bfbfbf" points="435,-56.5 435,-75.5 506,-75.5 506,-56.5 435,-56.5"/>
<text text-anchor="middle" x="470.5" y="-63.5" font-family="Helvetica,sans-Serif" font-size="10.00">ExtCtrls.hpp</text>
</a>
</g>
</g>
<!-- Node1&#45;&gt;Node7 -->
<g id="edge6" class="edge">
<title>Node1&#45;&gt;Node7</title>
<path fill="none" stroke="midnightblue" d="M610.83,-172.85C563.26,-166.87 486.7,-154.03 469.5,-132 459.32,-118.96 461.13,-99.53 464.53,-85.31"/>
<polygon fill="midnightblue" stroke="midnightblue" points="467.91,-86.22 467.27,-75.65 461.18,-84.31 467.91,-86.22"/>
</g>
<!-- Node8 -->
<g id="node8" class="node">
<title>Node8</title>
<g id="a_node8"><a xlink:title=" ">
<polygon fill="white" stroke="#bfbfbf" points="487,-112.5 487,-131.5 552,-131.5 552,-112.5 487,-112.5"/>
<text text-anchor="middle" x="519.5" y="-119.5" font-family="Helvetica,sans-Serif" font-size="10.00">Menus.hpp</text>
</a>
</g>
</g>
<!-- Node1&#45;&gt;Node8 -->
<g id="edge7" class="edge">
<title>Node1&#45;&gt;Node8</title>
<path fill="none" stroke="midnightblue" d="M628.9,-168.44C607.51,-159.56 573.82,-145.56 549.48,-135.45"/>
<polygon fill="midnightblue" stroke="midnightblue" points="550.58,-132.12 540,-131.52 547.89,-138.58 550.58,-132.12"/>
</g>
<!-- Node9 -->
<g id="node9" class="node">
<title>Node9</title>
<g id="a_node9"><a xlink:title=" ">
<polygon fill="white" stroke="#bfbfbf" points="570.5,-112.5 570.5,-131.5 638.5,-131.5 638.5,-112.5 570.5,-112.5"/>
<text text-anchor="middle" x="604.5" y="-119.5" font-family="Helvetica,sans-Serif" font-size="10.00">Dialogs.hpp</text>
</a>
</g>
</g>
<!-- Node1&#45;&gt;Node9 -->
<g id="edge8" class="edge">
<title>Node1&#45;&gt;Node9</title>
<path fill="none" stroke="midnightblue" d="M642.07,-168.08C635.65,-160.38 626.19,-149.03 618.38,-139.65"/>
<polygon fill="midnightblue" stroke="midnightblue" points="620.88,-137.19 611.79,-131.75 615.51,-141.67 620.88,-137.19"/>
</g>
<!-- Node10 -->
<g id="node10" class="node">
<title>Node10</title>
<g id="a_node10"><a xlink:title=" ">
<polygon fill="white" stroke="#bfbfbf" points="524.5,-56.5 524.5,-75.5 598.5,-75.5 598.5,-56.5 524.5,-56.5"/>
<text text-anchor="middle" x="561.5" y="-63.5" font-family="Helvetica,sans-Serif" font-size="10.00">Graphics.hpp</text>
</a>
</g>
</g>
<!-- Node1&#45;&gt;Node10 -->
<g id="edge9" class="edge">
<title>Node1&#45;&gt;Node10</title>
<path fill="none" stroke="midnightblue" d="M610.94,-172.38C565.37,-166.03 493.67,-152.95 477.5,-132 460.16,-109.54 494,-90.6 523.77,-79.06"/>
<polygon fill="midnightblue" stroke="midnightblue" points="525.05,-82.32 533.22,-75.58 522.63,-75.75 525.05,-82.32"/>
</g>
<!-- Node11 -->
<g id="node11" class="node">
<title>Node11</title>
<g id="a_node11"><a xlink:title=" ">
<polygon fill="white" stroke="#bfbfbf" points="656.5,-112.5 656.5,-131.5 732.5,-131.5 732.5,-112.5 656.5,-112.5"/>
<text text-anchor="middle" x="694.5" y="-119.5" font-family="Helvetica,sans-Serif" font-size="10.00">ComCtrls.hpp</text>
</a>
</g>
</g>
<!-- Node1&#45;&gt;Node11 -->
<g id="edge10" class="edge">
<title>Node1&#45;&gt;Node11</title>
<path fill="none" stroke="midnightblue" d="M656.93,-168.08C663.35,-160.38 672.81,-149.03 680.62,-139.65"/>
<polygon fill="midnightblue" stroke="midnightblue" points="683.49,-141.67 687.21,-131.75 678.12,-137.19 683.49,-141.67"/>
</g>
<!-- Node12 -->
<g id="node12" class="node">
<title>Node12</title>
<g id="a_node12"><a xlink:title=" ">
<polygon fill="white" stroke="#bfbfbf" points="789,-56.5 789,-75.5 838,-75.5 838,-56.5 789,-56.5"/>
<text text-anchor="middle" x="813.5" y="-63.5" font-family="Helvetica,sans-Serif" font-size="10.00">fstream</text>
</a>
</g>
</g>
<!-- Node1&#45;&gt;Node12 -->
<g id="edge11" class="edge">
<title>Node1&#45;&gt;Node12</title>
<path fill="none" stroke="midnightblue" d="M688.16,-170.22C714.76,-163.96 749.64,-152.43 774.5,-132 789.55,-119.63 800.24,-99.82 806.58,-85.32"/>
<polygon fill="midnightblue" stroke="midnightblue" points="809.89,-86.47 810.42,-75.88 803.41,-83.83 809.89,-86.47"/>
</g>
<!-- Node13 -->
<g id="node13" class="node">
<title>Node13</title>
<g id="a_node13"><a xlink:title=" ">
<polygon fill="white" stroke="#bfbfbf" points="1024.5,-56.5 1024.5,-75.5 1066.5,-75.5 1066.5,-56.5 1024.5,-56.5"/>
<text text-anchor="middle" x="1045.5" y="-63.5" font-family="Helvetica,sans-Serif" font-size="10.00">vector</text>
</a>
</g>
</g>
<!-- Node1&#45;&gt;Node13 -->
<g id="edge12" class="edge">
<title>Node1&#45;&gt;Node13</title>
<path fill="none" stroke="midnightblue" d="M688.25,-174.37C762.47,-168.89 921.73,-154.81 971.5,-132 995.89,-120.82 1018.19,-98.92 1031.79,-83.64"/>
<polygon fill="midnightblue" stroke="midnightblue" points="1034.54,-85.81 1038.41,-75.95 1029.24,-81.25 1034.54,-85.81"/>
</g>
<!-- Node14 -->
<g id="node14" class="node">
<title>Node14</title>
<g id="a_node14"><a xlink:title=" ">
<polygon fill="white" stroke="#bfbfbf" points="1217.5,-112.5 1217.5,-131.5 1273.5,-131.5 1273.5,-112.5 1217.5,-112.5"/>
<text text-anchor="middle" x="1245.5" y="-119.5" font-family="Helvetica,sans-Serif" font-size="10.00">algorithm</text>
</a>
</g>
</g>
<!-- Node1&#45;&gt;Node14 -->
<g id="edge13" class="edge">
<title>Node1&#45;&gt;Node14</title>
<path fill="none" stroke="midnightblue" d="M688.04,-176C777.61,-173.22 1006.79,-163.52 1207.19,-131.96"/>
<polygon fill="midnightblue" stroke="midnightblue" points="1207.99,-135.38 1217.31,-130.34 1206.88,-128.46 1207.99,-135.38"/>
</g>
<!-- Node15 -->
<g id="node15" class="node">
<title>Node15</title>
<g id="a_node15"><a xlink:title=" ">
<polygon fill="white" stroke="#bfbfbf" points="996.5,-0.5 996.5,-19.5 1032.5,-19.5 1032.5,-0.5 996.5,-0.5"/>
<text text-anchor="middle" x="1014.5" y="-7.5" font-family="Helvetica,sans-Serif" font-size="10.00">vcl.h</text>
</a>
</g>
</g>
<!-- Node1&#45;&gt;Node15 -->
<g id="edge14" class="edge">
<title>Node1&#45;&gt;Node15</title>
<path fill="none" stroke="midnightblue" d="M679.94,-168.47C699.78,-161.52 724.97,-149.89 741.5,-132 766.14,-105.33 743.47,-79.09 771.5,-56 804.01,-29.22 929.6,-17.05 986.36,-12.83"/>
<polygon fill="midnightblue" stroke="midnightblue" points="986.71,-16.31 996.43,-12.11 986.21,-9.33 986.71,-16.31"/>
</g>
<!-- Node16 -->
<g id="node16" class="node">
<title>Node16</title>
<g id="a_node16"><a xlink:href="_track_unit_8h.html" target="_top" target="_top" target="_top" target="_top" target="_top" target="_top" target="_top" target="_top" target="_top" target="_top" xlink:title=" ">
<polygon fill="white" stroke="black" points="1133.5,-112.5 1133.5,-131.5 1199.5,-131.5 1199.5,-112.5 1133.5,-112.5"/>
<text text-anchor="middle" x="1166.5" y="-119.5" font-family="Helvetica,sans-Serif" font-size="10.00">TrackUnit.h</text>
</a>
</g>
</g>
<!-- Node1&#45;&gt;Node16 -->
<g id="edge15" class="edge">
<title>Node1&#45;&gt;Node16</title>
<path fill="none" stroke="midnightblue" d="M688.08,-174.8C767.51,-169.96 955.18,-156.91 1123.21,-131.86"/>
<polygon fill="midnightblue" stroke="midnightblue" points="1123.87,-135.3 1133.23,-130.35 1122.82,-128.38 1123.87,-135.3"/>
</g>
<!-- Node22 -->
<g id="node22" class="node">
<title>Node22</title>
<g id="a_node22"><a xlink:href="_train_unit_8h.html" target="_top" target="_top" target="_top" target="_top" target="_top" target="_top" target="_top" target="_top" target="_top" target="_top" xlink:title=" ">
<polygon fill="white" stroke="black" points="1052,-112.5 1052,-131.5 1115,-131.5 1115,-112.5 1052,-112.5"/>
<text text-anchor="middle" x="1083.5" y="-119.5" font-family="Helvetica,sans-Serif" font-size="10.00">TrainUnit.h</text>
</a>
</g>
</g>
<!-- Node1&#45;&gt;Node22 -->
<g id="edge25" class="edge">
<title>Node1&#45;&gt;Node22</title>
<path fill="none" stroke="midnightblue" d="M688.09,-172.42C754.98,-164.44 896.8,-147.38 1016.5,-132 1024.69,-130.95 1033.45,-129.79 1041.83,-128.67"/>
<polygon fill="midnightblue" stroke="midnightblue" points="1042.37,-132.13 1051.81,-127.33 1041.44,-125.19 1042.37,-132.13"/>
</g>
<!-- Node23 -->
<g id="node23" class="node">
<title>Node23</title>
<g id="a_node23"><a xlink:href="_graphic_unit_8h.html" target="_top" target="_top" target="_top" target="_top" target="_top" target="_top" target="_top" target="_top" target="_top" target="_top" xlink:title=" ">
<polygon fill="white" stroke="black" points="240.5,-112.5 240.5,-131.5 316.5,-131.5 316.5,-112.5 240.5,-112.5"/>
<text text-anchor="middle" x="278.5" y="-119.5" font-family="Helvetica,sans-Serif" font-size="10.00">GraphicUnit.h</text>
</a>
</g>
</g>
<!-- Node1&#45;&gt;Node23 -->
<g id="edge30" class="edge">
<title>Node1&#45;&gt;Node23</title>
<path fill="none" stroke="midnightblue" d="M610.65,-171.92C550.52,-163.96 431.34,-147.83 330.5,-132 329.23,-131.8 327.94,-131.6 326.64,-131.39"/>
<polygon fill="midnightblue" stroke="midnightblue" points="326.97,-127.89 316.53,-129.72 325.83,-134.8 326.97,-127.89"/>
</g>
<!-- Node24 -->
<g id="node24" class="node">
<title>Node24</title>
<g id="a_node24"><a xlink:href="_text_unit_8h.html" target="_top" target="_top" target="_top" target="_top" target="_top" target="_top" target="_top" target="_top" target="_top" target="_top" xlink:title=" ">
<polygon fill="white" stroke="black" points="827,-112.5 827,-131.5 888,-131.5 888,-112.5 827,-112.5"/>
<text text-anchor="middle" x="857.5" y="-119.5" font-family="Helvetica,sans-Serif" font-size="10.00">TextUnit.h</text>
</a>
</g>
</g>
<!-- Node1&#45;&gt;Node24 -->
<g id="edge38" class="edge">
<title>Node1&#45;&gt;Node24</title>
<path fill="none" stroke="midnightblue" d="M682.46,-168.44C718.92,-158.98 777.7,-143.72 816.95,-133.53"/>
<polygon fill="midnightblue" stroke="midnightblue" points="817.93,-136.89 826.73,-130.99 816.17,-130.11 817.93,-136.89"/>
</g>
<!-- Node25 -->
<g id="node25" class="node">
<title>Node25</title>
<g id="a_node25"><a xlink:href="_perf_log_unit_8h.html" target="_top" target="_top" target="_top" target="_top" target="_top" target="_top" target="_top" target="_top" target="_top" target="_top" xlink:title=" ">
<polygon fill="white" stroke="black" points="1597,-112.5 1597,-131.5 1672,-131.5 1672,-112.5 1597,-112.5"/>
<text text-anchor="middle" x="1634.5" y="-119.5" font-family="Helvetica,sans-Serif" font-size="10.00">PerfLogUnit.h</text>
</a>
</g>
</g>
<!-- Node1&#45;&gt;Node25 -->
<g id="edge42" class="edge">
<title>Node1&#45;&gt;Node25</title>
<path fill="none" stroke="midnightblue" d="M688.11,-174.88C842.71,-166.41 1416.86,-134.93 1586.81,-125.61"/>
<polygon fill="midnightblue" stroke="midnightblue" points="1587.15,-129.1 1596.95,-125.06 1586.77,-122.11 1587.15,-129.1"/>
</g>
<!-- Node31 -->
<g id="node31" class="node">
<title>Node31</title>
<g id="a_node31"><a xlink:href="_utilities_8h.html" target="_top" target="_top" target="_top" target="_top" target="_top" target="_top" target="_top" target="_top" target="_top" target="_top" xlink:title=" ">
<polygon fill="white" stroke="black" points="906,-112.5 906,-131.5 963,-131.5 963,-112.5 906,-112.5"/>
<text text-anchor="middle" x="934.5" y="-119.5" font-family="Helvetica,sans-Serif" font-size="10.00">Utilities.h</text>
</a>
</g>
</g>
<!-- Node1&#45;&gt;Node31 -->
<g id="edge48" class="edge">
<title>Node1&#45;&gt;Node31</title>
<path fill="none" stroke="midnightblue" d="M688.13,-170.61C734.85,-162.73 816.11,-148.58 895.7,-132.07"/>
<polygon fill="midnightblue" stroke="midnightblue" points="896.83,-135.41 905.9,-129.94 895.4,-128.56 896.83,-135.41"/>
</g>
<!-- Node16&#45;&gt;Node12 -->
<g id="edge19" class="edge">
<title>Node16&#45;&gt;Node12</title>
<path fill="none" stroke="midnightblue" d="M1133.21,-113.77C1129.94,-113.14 1126.66,-112.54 1123.5,-112 1004.75,-91.86 970.66,-99.45 848.42,-75.94"/>
<polygon fill="midnightblue" stroke="midnightblue" points="848.78,-72.44 838.3,-73.96 847.44,-79.31 848.78,-72.44"/>
</g>
<!-- Node16&#45;&gt;Node13 -->
<g id="edge17" class="edge">
<title>Node16&#45;&gt;Node13</title>
<path fill="none" stroke="midnightblue" d="M1147.33,-112.44C1127.59,-103.64 1096.61,-89.81 1074.01,-79.72"/>
<polygon fill="midnightblue" stroke="midnightblue" points="1075.14,-76.4 1064.58,-75.52 1072.29,-82.79 1075.14,-76.4"/>
</g>
<!-- Node16&#45;&gt;Node15 -->
<g id="edge16" class="edge">
<title>Node16&#45;&gt;Node15</title>
<path fill="none" stroke="midnightblue" d="M1180.6,-112.39C1199.56,-99.76 1229.15,-75.58 1213.5,-56 1192.44,-29.64 1092.51,-17.59 1042.76,-13.15"/>
<polygon fill="midnightblue" stroke="midnightblue" points="1042.94,-9.65 1032.68,-12.3 1042.34,-16.63 1042.94,-9.65"/>
</g>
<!-- Node17 -->
<g id="node17" class="node">
<title>Node17</title>
<g id="a_node17"><a xlink:title=" ">
<polygon fill="white" stroke="#bfbfbf" points="1170,-56.5 1170,-75.5 1205,-75.5 1205,-56.5 1170,-56.5"/>
<text text-anchor="middle" x="1187.5" y="-63.5" font-family="Helvetica,sans-Serif" font-size="10.00">map</text>
</a>
</g>
</g>
<!-- Node16&#45;&gt;Node17 -->
<g id="edge18" class="edge">
<title>Node16&#45;&gt;Node17</title>
<path fill="none" stroke="midnightblue" d="M1169.97,-112.08C1172.81,-104.77 1176.93,-94.18 1180.46,-85.1"/>
<polygon fill="midnightblue" stroke="midnightblue" points="1183.73,-86.34 1184.1,-75.75 1177.21,-83.8 1183.73,-86.34"/>
</g>
<!-- Node18 -->
<g id="node18" class="node">
<title>Node18</title>
<g id="a_node18"><a xlink:title=" ">
<polygon fill="white" stroke="#bfbfbf" points="1123,-56.5 1123,-75.5 1152,-75.5 1152,-56.5 1123,-56.5"/>
<text text-anchor="middle" x="1137.5" y="-63.5" font-family="Helvetica,sans-Serif" font-size="10.00">list</text>
</a>
</g>
</g>
<!-- Node16&#45;&gt;Node18 -->
<g id="edge20" class="edge">
<title>Node16&#45;&gt;Node18</title>
<path fill="none" stroke="midnightblue" d="M1161.71,-112.08C1157.74,-104.69 1151.97,-93.95 1147.07,-84.81"/>
<polygon fill="midnightblue" stroke="midnightblue" points="1150.01,-82.91 1142.2,-75.75 1143.85,-86.22 1150.01,-82.91"/>
</g>
<!-- Node19 -->
<g id="node19" class="node">
<title>Node19</title>
<g id="a_node19"><a xlink:title=" ">
<polygon fill="white" stroke="#bfbfbf" points="1353.5,-56.5 1353.5,-75.5 1393.5,-75.5 1393.5,-56.5 1353.5,-56.5"/>
<text text-anchor="middle" x="1373.5" y="-63.5" font-family="Helvetica,sans-Serif" font-size="10.00">utility</text>
</a>
</g>
</g>
<!-- Node16&#45;&gt;Node19 -->
<g id="edge21" class="edge">
<title>Node16&#45;&gt;Node19</title>
<path fill="none" stroke="midnightblue" d="M1199.77,-113.15C1233.68,-105.03 1287.98,-91.68 1343.6,-76.15"/>
<polygon fill="midnightblue" stroke="midnightblue" points="1344.58,-79.51 1353.26,-73.43 1342.69,-72.77 1344.58,-79.51"/>
</g>
<!-- Node20 -->
<g id="node20" class="node">
<title>Node20</title>
<g id="a_node20"><a xlink:href="_display_unit_8h.html" target="_top" target="_top" target="_top" target="_top" target="_top" target="_top" target="_top" target="_top" target="_top" target="_top" xlink:title=" ">
<polygon fill="white" stroke="black" points="1261.5,-56.5 1261.5,-75.5 1335.5,-75.5 1335.5,-56.5 1261.5,-56.5"/>
<text text-anchor="middle" x="1298.5" y="-63.5" font-family="Helvetica,sans-Serif" font-size="10.00">DisplayUnit.h</text>
</a>
</g>
</g>
<!-- Node16&#45;&gt;Node20 -->
<g id="edge22" class="edge">
<title>Node16&#45;&gt;Node20</title>
<path fill="none" stroke="midnightblue" d="M1187.42,-112.44C1209.24,-103.52 1243.65,-89.44 1268.39,-79.32"/>
<polygon fill="midnightblue" stroke="midnightblue" points="1269.75,-82.54 1277.68,-75.52 1267.1,-76.06 1269.75,-82.54"/>
</g>
<!-- Node20&#45;&gt;Node15 -->
<g id="edge23" class="edge">
<title>Node20&#45;&gt;Node15</title>
<path fill="none" stroke="midnightblue" d="M1261.37,-57.94C1203.82,-47 1094.34,-26.18 1042.74,-16.37"/>
<polygon fill="midnightblue" stroke="midnightblue" points="1043.13,-12.88 1032.65,-14.45 1041.82,-19.76 1043.13,-12.88"/>
</g>
<!-- Node21 -->
<g id="node21" class="node">
<title>Node21</title>
<g id="a_node21"><a xlink:title=" ">
<polygon fill="white" stroke="#bfbfbf" points="1272.5,-0.5 1272.5,-19.5 1324.5,-19.5 1324.5,-0.5 1272.5,-0.5"/>
<text text-anchor="middle" x="1298.5" y="-7.5" font-family="Helvetica,sans-Serif" font-size="10.00">memory</text>
</a>
</g>
</g>
<!-- Node20&#45;&gt;Node21 -->
<g id="edge24" class="edge">
<title>Node20&#45;&gt;Node21</title>
<path fill="none" stroke="midnightblue" d="M1298.5,-56.08C1298.5,-49.01 1298.5,-38.86 1298.5,-29.99"/>
<polygon fill="midnightblue" stroke="midnightblue" points="1302,-29.75 1298.5,-19.75 1295,-29.75 1302,-29.75"/>
</g>
<!-- Node22&#45;&gt;Node13 -->
<g id="edge26" class="edge">
<title>Node22&#45;&gt;Node13</title>
<path fill="none" stroke="midnightblue" d="M1077.23,-112.08C1071.86,-104.46 1063.98,-93.26 1057.42,-83.94"/>
<polygon fill="midnightblue" stroke="midnightblue" points="1060.28,-81.91 1051.66,-75.75 1054.55,-85.94 1060.28,-81.91"/>
</g>
<!-- Node22&#45;&gt;Node15 -->
<g id="edge28" class="edge">
<title>Node22&#45;&gt;Node15</title>
<path fill="none" stroke="midnightblue" d="M1084.5,-112.32C1085.58,-99.18 1085.94,-73.87 1075.5,-56 1067.59,-42.47 1053.84,-31.79 1041.39,-24.23"/>
<polygon fill="midnightblue" stroke="midnightblue" points="1043.09,-21.17 1032.66,-19.29 1039.64,-27.26 1043.09,-21.17"/>
</g>
<!-- Node22&#45;&gt;Node17 -->
<g id="edge27" class="edge">
<title>Node22&#45;&gt;Node17</title>
<path fill="none" stroke="midnightblue" d="M1100.21,-112.32C1116.81,-103.7 1142.5,-90.36 1161.72,-80.39"/>
<polygon fill="midnightblue" stroke="midnightblue" points="1163.57,-83.37 1170.83,-75.65 1160.34,-77.16 1163.57,-83.37"/>
</g>
<!-- Node22&#45;&gt;Node18 -->
<g id="edge29" class="edge">
<title>Node22&#45;&gt;Node18</title>
<path fill="none" stroke="midnightblue" d="M1092.42,-112.08C1100.28,-104.22 1111.93,-92.57 1121.42,-83.08"/>
<polygon fill="midnightblue" stroke="midnightblue" points="1124.15,-85.3 1128.75,-75.75 1119.2,-80.35 1124.15,-85.3"/>
</g>
<!-- Node23&#45;&gt;Node2 -->
<g id="edge31" class="edge">
<title>Node23&#45;&gt;Node2</title>
<path fill="none" stroke="midnightblue" d="M240.26,-112.5C197.15,-102.92 127.07,-87.35 81.13,-77.14"/>
<polygon fill="midnightblue" stroke="midnightblue" points="81.66,-73.67 71.14,-74.92 80.14,-80.51 81.66,-73.67"/>
</g>
<!-- Node23&#45;&gt;Node3 -->
<g id="edge32" class="edge">
<title>Node23&#45;&gt;Node3</title>
<path fill="none" stroke="midnightblue" d="M254.1,-112.44C228.3,-103.4 187.42,-89.06 158.48,-78.92"/>
<polygon fill="midnightblue" stroke="midnightblue" points="159.38,-75.52 148.79,-75.52 157.07,-82.13 159.38,-75.52"/>
</g>
<!-- Node23&#45;&gt;Node4 -->
<g id="edge33" class="edge">
<title>Node23&#45;&gt;Node4</title>
<path fill="none" stroke="midnightblue" d="M268.06,-112.32C258.35,-104.26 243.68,-92.08 232,-82.37"/>
<polygon fill="midnightblue" stroke="midnightblue" points="234.06,-79.53 224.13,-75.83 229.59,-84.92 234.06,-79.53"/>
</g>
<!-- Node23&#45;&gt;Node5 -->
<g id="edge34" class="edge">
<title>Node23&#45;&gt;Node5</title>
<path fill="none" stroke="midnightblue" d="M281.8,-112.08C284.48,-104.85 288.35,-94.41 291.69,-85.4"/>
<polygon fill="midnightblue" stroke="midnightblue" points="295.07,-86.34 295.26,-75.75 288.5,-83.91 295.07,-86.34"/>
</g>
<!-- Node23&#45;&gt;Node6 -->
<g id="edge35" class="edge">
<title>Node23&#45;&gt;Node6</title>
<path fill="none" stroke="midnightblue" d="M295.21,-112.32C311.81,-103.7 337.5,-90.36 356.72,-80.39"/>
<polygon fill="midnightblue" stroke="midnightblue" points="358.57,-83.37 365.83,-75.65 355.34,-77.16 358.57,-83.37"/>
</g>
<!-- Node23&#45;&gt;Node7 -->
<g id="edge36" class="edge">
<title>Node23&#45;&gt;Node7</title>
<path fill="none" stroke="midnightblue" d="M308.92,-112.44C341.78,-103.2 394.28,-88.44 430.47,-78.26"/>
<polygon fill="midnightblue" stroke="midnightblue" points="431.54,-81.59 440.22,-75.52 429.65,-74.85 431.54,-81.59"/>
</g>
<!-- Node23&#45;&gt;Node10 -->
<g id="edge37" class="edge">
<title>Node23&#45;&gt;Node10</title>
<path fill="none" stroke="midnightblue" d="M316.51,-113.76C361.15,-105.26 437.71,-90.67 514.03,-76.09"/>
<polygon fill="midnightblue" stroke="midnightblue" points="515.13,-79.44 524.3,-74.13 513.82,-72.57 515.13,-79.44"/>
</g>
<!-- Node24&#45;&gt;Node12 -->
<g id="edge40" class="edge">
<title>Node24&#45;&gt;Node12</title>
<path fill="none" stroke="midnightblue" d="M850.23,-112.08C843.96,-104.38 834.71,-93.03 827.07,-83.65"/>
<polygon fill="midnightblue" stroke="midnightblue" points="829.66,-81.29 820.63,-75.75 824.23,-85.71 829.66,-81.29"/>
</g>
<!-- Node24&#45;&gt;Node13 -->
<g id="edge39" class="edge">
<title>Node24&#45;&gt;Node13</title>
<path fill="none" stroke="midnightblue" d="M887.31,-112.49C918.9,-103.46 970.23,-88.77 1014.5,-76 1014.6,-75.97 1014.7,-75.94 1014.8,-75.91"/>
<polygon fill="midnightblue" stroke="midnightblue" points="1015.86,-79.25 1024.49,-73.11 1013.91,-72.53 1015.86,-79.25"/>
</g>
<!-- Node24&#45;&gt;Node15 -->
<g id="edge41" class="edge">
<title>Node24&#45;&gt;Node15</title>
<path fill="none" stroke="midnightblue" d="M832.35,-112.44C802.77,-101.05 760.01,-79.57 779.5,-56 805.48,-24.57 929.85,-14.88 986.4,-12.07"/>
<polygon fill="midnightblue" stroke="midnightblue" points="986.61,-15.57 996.44,-11.61 986.29,-8.57 986.61,-15.57"/>
</g>
<!-- Node26 -->
<g id="node26" class="node">
<title>Node26</title>
<g id="a_node26"><a xlink:title=" ">
<polygon fill="white" stroke="#bfbfbf" points="1412,-56.5 1412,-75.5 1519,-75.5 1519,-56.5 1412,-56.5"/>
<text text-anchor="middle" x="1465.5" y="-63.5" font-family="Helvetica,sans-Serif" font-size="10.00">System.Classes.hpp</text>
</a>
</g>
</g>
<!-- Node25&#45;&gt;Node26 -->
<g id="edge43" class="edge">
<title>Node25&#45;&gt;Node26</title>
<path fill="none" stroke="midnightblue" d="M1607.72,-112.44C1579.17,-103.32 1533.77,-88.81 1501.96,-78.65"/>
<polygon fill="midnightblue" stroke="midnightblue" points="1502.74,-75.23 1492.15,-75.52 1500.61,-81.89 1502.74,-75.23"/>
</g>
<!-- Node27 -->
<g id="node27" class="node">
<title>Node27</title>
<g id="a_node27"><a xlink:title=" ">
<polygon fill="white" stroke="#bfbfbf" points="1537,-56.5 1537,-75.5 1626,-75.5 1626,-56.5 1537,-56.5"/>
<text text-anchor="middle" x="1581.5" y="-63.5" font-family="Helvetica,sans-Serif" font-size="10.00">Vcl.Controls.hpp</text>
</a>
</g>
</g>
<!-- Node25&#45;&gt;Node27 -->
<g id="edge44" class="edge">
<title>Node25&#45;&gt;Node27</title>
<path fill="none" stroke="midnightblue" d="M1625.75,-112.08C1618.03,-104.22 1606.6,-92.57 1597.28,-83.08"/>
<polygon fill="midnightblue" stroke="midnightblue" points="1599.59,-80.44 1590.09,-75.75 1594.6,-85.34 1599.59,-80.44"/>
</g>
<!-- Node28 -->
<g id="node28" class="node">
<title>Node28</title>
<g id="a_node28"><a xlink:title=" ">
<polygon fill="white" stroke="#bfbfbf" points="1644.5,-56.5 1644.5,-75.5 1732.5,-75.5 1732.5,-56.5 1644.5,-56.5"/>
<text text-anchor="middle" x="1688.5" y="-63.5" font-family="Helvetica,sans-Serif" font-size="10.00">Vcl.StdCtrls.hpp</text>
</a>
</g>
</g>
<!-- Node25&#45;&gt;Node28 -->
<g id="edge45" class="edge">
<title>Node25&#45;&gt;Node28</title>
<path fill="none" stroke="midnightblue" d="M1643.42,-112.08C1651.28,-104.22 1662.93,-92.57 1672.42,-83.08"/>
<polygon fill="midnightblue" stroke="midnightblue" points="1675.15,-85.3 1679.75,-75.75 1670.2,-80.35 1675.15,-85.3"/>
</g>
<!-- Node29 -->
<g id="node29" class="node">
<title>Node29</title>
<g id="a_node29"><a xlink:title=" ">
<polygon fill="white" stroke="#bfbfbf" points="1750.5,-56.5 1750.5,-75.5 1830.5,-75.5 1830.5,-56.5 1750.5,-56.5"/>
<text text-anchor="middle" x="1790.5" y="-63.5" font-family="Helvetica,sans-Serif" font-size="10.00">Vcl.Forms.hpp</text>
</a>
</g>
</g>
<!-- Node25&#45;&gt;Node29 -->
<g id="edge46" class="edge">
<title>Node25&#45;&gt;Node29</title>
<path fill="none" stroke="midnightblue" d="M1659.22,-112.44C1685.35,-103.4 1726.76,-89.06 1756.08,-78.92"/>
<polygon fill="midnightblue" stroke="midnightblue" points="1757.59,-82.1 1765.9,-75.52 1755.3,-75.48 1757.59,-82.1"/>
</g>
<!-- Node30 -->
<g id="node30" class="node">
<title>Node30</title>
<g id="a_node30"><a xlink:title=" ">
<polygon fill="white" stroke="#bfbfbf" points="1848.5,-56.5 1848.5,-75.5 1936.5,-75.5 1936.5,-56.5 1848.5,-56.5"/>
<text text-anchor="middle" x="1892.5" y="-63.5" font-family="Helvetica,sans-Serif" font-size="10.00">Vcl.ExtCtrls.hpp</text>
</a>
</g>
</g>
<!-- Node25&#45;&gt;Node30 -->
<g id="edge47" class="edge">
<title>Node25&#45;&gt;Node30</title>
<path fill="none" stroke="midnightblue" d="M1672.02,-113.15C1716.73,-103.79 1791.66,-88.11 1841.58,-77.66"/>
<polygon fill="midnightblue" stroke="midnightblue" points="1842.46,-81.05 1851.53,-75.58 1841.02,-74.2 1842.46,-81.05"/>
</g>
<!-- Node31&#45;&gt;Node12 -->
<g id="edge51" class="edge">
<title>Node31&#45;&gt;Node12</title>
<path fill="none" stroke="midnightblue" d="M915.33,-112.44C895.59,-103.64 864.61,-89.81 842.01,-79.72"/>
<polygon fill="midnightblue" stroke="midnightblue" points="843.14,-76.4 832.58,-75.52 840.29,-82.79 843.14,-76.4"/>
</g>
<!-- Node31&#45;&gt;Node15 -->
<g id="edge50" class="edge">
<title>Node31&#45;&gt;Node15</title>
<path fill="none" stroke="midnightblue" d="M935.27,-112.24C936.81,-98.99 941.25,-73.54 953.5,-56 962.45,-43.19 976.22,-32.58 988.41,-24.89"/>
<polygon fill="midnightblue" stroke="midnightblue" points="990.52,-27.71 997.32,-19.59 986.94,-21.69 990.52,-27.71"/>
</g>
<!-- Node32 -->
<g id="node32" class="node">
<title>Node32</title>
<g id="a_node32"><a xlink:title=" ">
<polygon fill="white" stroke="#bfbfbf" points="963,-56.5 963,-75.5 1006,-75.5 1006,-56.5 963,-56.5"/>
<text text-anchor="middle" x="984.5" y="-63.5" font-family="Helvetica,sans-Serif" font-size="10.00">deque</text>
</a>
</g>
</g>
<!-- Node31&#45;&gt;Node32 -->
<g id="edge49" class="edge">
<title>Node31&#45;&gt;Node32</title>
<path fill="none" stroke="midnightblue" d="M942.76,-112.08C949.96,-104.3 960.61,-92.8 969.35,-83.37"/>
<polygon fill="midnightblue" stroke="midnightblue" points="972.17,-85.47 976.4,-75.75 967.03,-80.71 972.17,-85.47"/>
</g>
<!-- Node33 -->
<g id="node33" class="node">
<title>Node33</title>
<g id="a_node33"><a xlink:title=" ">
<polygon fill="white" stroke="#bfbfbf" points="856.5,-56.5 856.5,-75.5 906.5,-75.5 906.5,-56.5 856.5,-56.5"/>
<text text-anchor="middle" x="881.5" y="-63.5" font-family="Helvetica,sans-Serif" font-size="10.00">locale.h</text>
</a>
</g>
</g>
<!-- Node31&#45;&gt;Node33 -->
<g id="edge52" class="edge">
<title>Node31&#45;&gt;Node33</title>
<path fill="none" stroke="midnightblue" d="M925.75,-112.08C918.03,-104.22 906.6,-92.57 897.28,-83.08"/>
<polygon fill="midnightblue" stroke="midnightblue" points="899.59,-80.44 890.09,-75.75 894.6,-85.34 899.59,-80.44"/>
</g>
</g>
</svg>
        <g id="navigator" transform="translate(0 0)" fill="#404254">
                <rect fill="#f2f5e9" fill-opacity="0.5" stroke="#606060" stroke-width=".5" x="0" y="0" width="60" height="60"/>
                <use id="zoomplus" xlink:href="#zoomPlus" target="_top" target="_top" target="_top" target="_top" target="_top" target="_top" target="_top" target="_top" target="_top" x="17" y="9" onmousedown="handleZoom(evt,'in')"/>
                <use id="zoomminus" xlink:href="#zoomMin" target="_top" target="_top" target="_top" target="_top" target="_top" target="_top" target="_top" target="_top" target="_top" x="42" y="9" onmousedown="handleZoom(evt,'out')"/>
                <use id="reset" xlink:href="#resetDef" target="_top" target="_top" target="_top" target="_top" target="_top" target="_top" target="_top" target="_top" target="_top" x="30" y="36" onmousedown="handleReset()"/>
                <g id="arrowUp" xlink:href="#dirArrow" target="_top" target="_top" target="_top" target="_top" target="_top" target="_top" target="_top" target="_top" target="_top" transform="translate(30 24)" onmousedown="handlePan(0,-1)">
                  <use xlink:href="#rim" target="_top" target="_top" target="_top" target="_top" target="_top" target="_top" target="_top" target="_top" target="_top" fill="#404040">
                        <set attributeName="fill" to="#808080" begin="arrowUp.mouseover" end="arrowUp.mouseout"/>
                  </use>
                  <path fill="none" stroke="white" stroke-width="1.5" d="M0,-3.0v7 M-2.5,-0.5L0,-3.0L2.5,-0.5"/>
                </g>
                <g id="arrowRight" xlink:href="#dirArrow" target="_top" target="_top" target="_top" target="_top" target="_top" target="_top" target="_top" target="_top" target="_top" transform="rotate(90) translate(36 -43)" onmousedown="handlePan(1,0)">
                  <use xlink:href="#rim" target="_top" target="_top" target="_top" target="_top" target="_top" target="_top" target="_top" target="_top" target="_top" fill="#404040">
                        <set attributeName="fill" to="#808080" begin="arrowRight.mouseover" end="arrowRight.mouseout"/>
                  </use>
                  <path fill="none" stroke="white" stroke-width="1.5" d="M0,-3.0v7 M-2.5,-0.5L0,-3.0L2.5,-0.5"/>
                </g>
                <g id="arrowDown" xlink:href="#dirArrow" target="_top" target="_top" target="_top" target="_top" target="_top" target="_top" target="_top" target="_top" target="_top" transform="rotate(180) translate(-30 -48)" onmousedown="handlePan(0,1)">
                  <use xlink:href="#rim" target="_top" target="_top" target="_top" target="_top" target="_top" target="_top" target="_top" target="_top" target="_top" fill="#404040">
                        <set attributeName="fill" to="#808080" begin="arrowDown.mouseover" end="arrowDown.mouseout"/>
                  </use>
                  <path fill="none" stroke="white" stroke-width="1.5" d="M0,-3.0v7 M-2.5,-0.5L0,-3.0L2.5,-0.5"/>
                </g>
                <g id="arrowLeft" xlink:href="#dirArrow" target="_top" target="_top" target="_top" target="_top" target="_top" target="_top" target="_top" target="_top" target="_top" transform="rotate(270) translate(-36 17)" onmousedown="handlePan(-1,0)">
                  <use xlink:href="#rim" target="_top" target="_top" target="_top" target="_top" target="_top" target="_top" target="_top" target="_top" target="_top" fill="#404040">
                        <set attributeName="fill" to="#808080" begin="arrowLeft.mouseover" end="arrowLeft.mouseout"/>
                  </use>
                  <path fill="none" stroke="white" stroke-width="1.5" d="M0,-3.0v7 M-2.5,-0.5L0,-3.0L2.5,-0.5"/>
                </g>
        </g>
        <svg viewBox="0 0 15 15" width="100%" height="30px" preserveAspectRatio="xMaxYMin meet">
         <g id="arrow_out" transform="scale(0.3 0.3)">
          <a xlink:href="_track_unit_8cpp__incl_org.svg" target="_top" target="_top" target="_top" target="_top" target="_top" target="_top" target="_top" target="_top" target="_top" target="_base">
           <rect id="button" ry="5" rx="5" y="6" x="6" height="38" width="38"
                fill="#f2f5e9" fill-opacity="0.5" stroke="#606060" stroke-width="1.0"/>
           <path id="arrow"
             d="M 11.500037,31.436501 C 11.940474,20.09759 22.043105,11.32322 32.158766,21.979434 L 37.068811,17.246167 C 37.068811,17.246167 37.088388,32 37.088388,32 L 22.160133,31.978069 C 22.160133,31.978069 26.997745,27.140456 26.997745,27.140456 C 18.528582,18.264221 13.291696,25.230495 11.500037,31.436501 z"
             style="fill:#404040;"/>
          </a>
         </g>
        </svg>
</svg>
