<?xml version="1.0" encoding="UTF-8" standalone="no"?>
<!DOCTYPE svg PUBLIC "-//W3C//DTD SVG 1.1//EN"
 "http://www.w3.org/Graphics/SVG/1.1/DTD/svg11.dtd">
<!-- Generated by graphviz version 2.44.1 (20200629.0800)
 -->
<!-- Title: TrainUnit.h Pages: 1 -->
<svg width="420pt" height="84pt"
 viewBox="0.00 0.00 419.50 84.00" xmlns="http://www.w3.org/2000/svg" xmlns:xlink="http://www.w3.org/1999/xlink">
<g id="graph0" class="graph" transform="scale(1 1) rotate(0) translate(4 80)">
<title>TrainUnit.h</title>
<polygon fill="white" stroke="transparent" points="-4,4 -4,-80 415.5,-80 415.5,4 -4,4"/>
<!-- Node1 -->
<g id="node1" class="node">
<title>Node1</title>
<g id="a_node1"><a xlink:title=" ">
<polygon fill="#bfbfbf" stroke="black" points="191,-56.5 191,-75.5 254,-75.5 254,-56.5 191,-56.5"/>
<text text-anchor="middle" x="222.5" y="-63.5" font-family="Helvetica,sans-Serif" font-size="10.00">TrainUnit.h</text>
</a>
</g>
</g>
<!-- Node2 -->
<g id="node2" class="node">
<title>Node2</title>
<g id="a_node2"><a xlink:href="_interface_unit_8cpp.html" target="_top" xlink:title=" ">
<polygon fill="white" stroke="black" points="0,-0.5 0,-19.5 89,-19.5 89,-0.5 0,-0.5"/>
<text text-anchor="middle" x="44.5" y="-7.5" font-family="Helvetica,sans-Serif" font-size="10.00">InterfaceUnit.cpp</text>
</a>
</g>
</g>
<!-- Node1&#45;&gt;Node2 -->
<g id="edge1" class="edge">
<title>Node1&#45;&gt;Node2</title>
<path fill="none" stroke="midnightblue" d="M184.38,-53.44C150.82,-43.26 102.73,-28.66 72.57,-19.52"/>
<polygon fill="midnightblue" stroke="midnightblue" points="183.71,-56.89 194.3,-56.44 185.74,-50.19 183.71,-56.89"/>
</g>
<!-- Node3 -->
<g id="node3" class="node">
<title>Node3</title>
<g id="a_node3"><a xlink:href="_interface_unit2_810_80_8cpp.html" target="_top" xlink:title=" ">
<polygon fill="white" stroke="black" points="107.5,-0.5 107.5,-19.5 223.5,-19.5 223.5,-0.5 107.5,-0.5"/>
<text text-anchor="middle" x="165.5" y="-7.5" font-family="Helvetica,sans-Serif" font-size="10.00">InterfaceUnit2.10.0.cpp</text>
</a>
</g>
</g>
<!-- Node1&#45;&gt;Node3 -->
<g id="edge2" class="edge">
<title>Node1&#45;&gt;Node3</title>
<path fill="none" stroke="midnightblue" d="M205.88,-49.25C195.77,-39.67 183.22,-27.79 174.82,-19.83"/>
<polygon fill="midnightblue" stroke="midnightblue" points="203.68,-51.99 213.34,-56.32 208.49,-46.91 203.68,-51.99"/>
</g>
<!-- Node4 -->
<g id="node4" class="node">
<title>Node4</title>
<g id="a_node4"><a xlink:href="_track_unit_8cpp.html" target="_top" xlink:title=" ">
<polygon fill="white" stroke="black" points="242,-0.5 242,-19.5 319,-19.5 319,-0.5 242,-0.5"/>
<text text-anchor="middle" x="280.5" y="-7.5" font-family="Helvetica,sans-Serif" font-size="10.00">TrackUnit.cpp</text>
</a>
</g>
</g>
<!-- Node1&#45;&gt;Node4 -->
<g id="edge3" class="edge">
<title>Node1&#45;&gt;Node4</title>
<path fill="none" stroke="midnightblue" d="M239.41,-49.25C249.7,-39.67 262.47,-27.79 271.01,-19.83"/>
<polygon fill="midnightblue" stroke="midnightblue" points="236.75,-46.95 231.82,-56.32 241.52,-52.07 236.75,-46.95"/>
</g>
<!-- Node5 -->
<g id="node5" class="node">
<title>Node5</title>
<g id="a_node5"><a xlink:href="_train_unit_8cpp.html" target="_top" xlink:title=" ">
<polygon fill="white" stroke="black" points="337.5,-0.5 337.5,-19.5 411.5,-19.5 411.5,-0.5 337.5,-0.5"/>
<text text-anchor="middle" x="374.5" y="-7.5" font-family="Helvetica,sans-Serif" font-size="10.00">TrainUnit.cpp</text>
</a>
</g>
</g>
<!-- Node1&#45;&gt;Node5 -->
<g id="edge4" class="edge">
<title>Node1&#45;&gt;Node5</title>
<path fill="none" stroke="midnightblue" d="M256.17,-53.04C284.77,-42.88 325.11,-28.55 350.53,-19.52"/>
<polygon fill="midnightblue" stroke="midnightblue" points="254.84,-49.8 246.58,-56.44 257.18,-56.39 254.84,-49.8"/>
</g>
</g>
</svg>
