<?xml version="1.0" encoding="UTF-8" standalone="no"?>
<!DOCTYPE svg PUBLIC "-//W3C//DTD SVG 1.1//EN"
 "http://www.w3.org/Graphics/SVG/1.1/DTD/svg11.dtd">
<!-- Generated by graphviz version 2.44.1 (20200629.0800)
 -->
<!-- Title: Utilities.cpp Pages: 1 -->
<!--zoomable 140 -->
<svg id="main" version="1.1" xmlns="http://www.w3.org/2000/svg" xmlns:xlink="http://www.w3.org/1999/xlink" xml:space="preserve" onload="init(evt)">
<style type="text/css"><![CDATA[
.edge:hover path { stroke: red; }
.edge:hover polygon { stroke: red; fill: red; }
]]></style>
<script type="text/javascript"><![CDATA[
var edges = document.getElementsByTagName('g');
if (edges && edges.length) {
  for (var i=0;i<edges.length;i++) {
    if (edges[i].id.substr(0,4)=='edge') {
      edges[i].setAttribute('class','edge');
    }
  }
}
]]></script>
        <defs>
                <circle id="rim" cx="0" cy="0" r="7"/>
                <circle id="rim2" cx="0" cy="0" r="3.5"/>
                <g id="zoomPlus">
                        <use xlink:href="#rim" target="_top" target="_top" target="_top" target="_top" target="_top" target="_top" target="_top" target="_top" target="_top" target="_top" target="_top" target="_top" target="_top" target="_top" target="_top" target="_top" target="_top" target="_top" target="_top" target="_top" target="_top" fill="#404040">
                                <set attributeName="fill" to="#808080" begin="zoomplus.mouseover" end="zoomplus.mouseout"/>
                        </use>
                        <path d="M-4,0h8M0,-4v8" fill="none" stroke="white" stroke-width="1.5" pointer-events="none"/>
                </g>
                <g id="zoomMin">
                        <use xlink:href="#rim" target="_top" target="_top" target="_top" target="_top" target="_top" target="_top" target="_top" target="_top" target="_top" target="_top" target="_top" target="_top" target="_top" target="_top" target="_top" target="_top" target="_top" target="_top" target="_top" target="_top" target="_top" fill="#404040">
                                <set attributeName="fill" to="#808080" begin="zoomminus.mouseover" end="zoomminus.mouseout"/>
                        </use>
                        <path d="M-4,0h8" fill="none" stroke="white" stroke-width="1.5" pointer-events="none"/>
                </g>
                <g id="dirArrow">
                        <path fill="none" stroke="white" stroke-width="1.5" d="M0,-3.0v7 M-2.5,-0.5L0,-3.0L2.5,-0.5"/>
                </g>
               <g id="resetDef">
                       <use xlink:href="#rim2" target="_top" target="_top" target="_top" target="_top" target="_top" target="_top" target="_top" target="_top" target="_top" target="_top" target="_top" target="_top" target="_top" target="_top" target="_top" target="_top" target="_top" target="_top" target="_top" target="_top" target="_top" fill="#404040">
                               <set attributeName="fill" to="#808080" begin="reset.mouseover" end="reset.mouseout"/>
                       </use>
               </g>
        </defs>

<script type="text/javascript">
var viewWidth = 1095;
var viewHeight = 140;
var sectionId = 'dynsection-0';
</script>
<script xlink:href="svgpan.js" target="_top" target="_top" target="_top" target="_top" target="_top" target="_top" target="_top" target="_top" target="_top" target="_top" target="_top" target="_top" target="_top" target="_top" target="_top" target="_top" target="_top" target="_top" target="_top" target="_top" target="_top"/>
<svg id="graph" class="graph">
<g id="viewport">
<title>Utilities.cpp</title>
<polygon fill="white" stroke="transparent" points="-4,4 -4,-136 1090.5,-136 1090.5,4 -4,4"/>
<!-- Node1 -->
<g id="node1" class="node">
<title>Node1</title>
<g id="a_node1"><a xlink:title=" ">
<polygon fill="#bfbfbf" stroke="black" points="564.5,-112.5 564.5,-131.5 632.5,-131.5 632.5,-112.5 564.5,-112.5"/>
<text text-anchor="middle" x="598.5" y="-119.5" font-family="Helvetica,sans-Serif" font-size="10.00">Utilities.cpp</text>
</a>
</g>
</g>
<!-- Node2 -->
<g id="node2" class="node">
<title>Node2</title>
<g id="a_node2"><a xlink:title=" ">
<polygon fill="white" stroke="#bfbfbf" points="0,-56.5 0,-75.5 71,-75.5 71,-56.5 0,-56.5"/>
<text text-anchor="middle" x="35.5" y="-63.5" font-family="Helvetica,sans-Serif" font-size="10.00">Classes.hpp</text>
</a>
</g>
</g>
<!-- Node1&#45;&gt;Node2 -->
<g id="edge1" class="edge">
<title>Node1&#45;&gt;Node2</title>
<path fill="none" stroke="midnightblue" d="M564.34,-119.4C482.54,-115.29 268.88,-102.82 81.49,-76.15"/>
<polygon fill="midnightblue" stroke="midnightblue" points="81.86,-72.67 71.46,-74.71 80.86,-79.6 81.86,-72.67"/>
</g>
<!-- Node3 -->
<g id="node3" class="node">
<title>Node3</title>
<g id="a_node3"><a xlink:title=" ">
<polygon fill="white" stroke="#bfbfbf" points="89,-56.5 89,-75.5 160,-75.5 160,-56.5 89,-56.5"/>
<text text-anchor="middle" x="124.5" y="-63.5" font-family="Helvetica,sans-Serif" font-size="10.00">Controls.hpp</text>
</a>
</g>
</g>
<!-- Node1&#45;&gt;Node3 -->
<g id="edge2" class="edge">
<title>Node1&#45;&gt;Node3</title>
<path fill="none" stroke="midnightblue" d="M564.35,-118.56C492.96,-113.23 322.54,-99.21 170.46,-76.18"/>
<polygon fill="midnightblue" stroke="midnightblue" points="170.88,-72.71 160.47,-74.65 169.82,-79.63 170.88,-72.71"/>
</g>
<!-- Node4 -->
<g id="node4" class="node">
<title>Node4</title>
<g id="a_node4"><a xlink:title=" ">
<polygon fill="white" stroke="#bfbfbf" points="178,-56.5 178,-75.5 249,-75.5 249,-56.5 178,-56.5"/>
<text text-anchor="middle" x="213.5" y="-63.5" font-family="Helvetica,sans-Serif" font-size="10.00">StdCtrls.hpp</text>
</a>
</g>
</g>
<!-- Node1&#45;&gt;Node4 -->
<g id="edge3" class="edge">
<title>Node1&#45;&gt;Node4</title>
<path fill="none" stroke="midnightblue" d="M564.01,-117.26C504.01,-110.59 376.33,-95.6 258.88,-76.14"/>
<polygon fill="midnightblue" stroke="midnightblue" points="259.44,-72.68 249,-74.49 258.29,-79.59 259.44,-72.68"/>
</g>
<!-- Node5 -->
<g id="node5" class="node">
<title>Node5</title>
<g id="a_node5"><a xlink:title=" ">
<polygon fill="white" stroke="#bfbfbf" points="267,-56.5 267,-75.5 330,-75.5 330,-56.5 267,-56.5"/>
<text text-anchor="middle" x="298.5" y="-63.5" font-family="Helvetica,sans-Serif" font-size="10.00">Forms.hpp</text>
</a>
</g>
</g>
<!-- Node1&#45;&gt;Node5 -->
<g id="edge4" class="edge">
<title>Node1&#45;&gt;Node5</title>
<path fill="none" stroke="midnightblue" d="M564.33,-115.64C516.38,-108.01 426.17,-93.19 340.26,-76.28"/>
<polygon fill="midnightblue" stroke="midnightblue" points="340.84,-72.83 330.35,-74.32 339.47,-79.69 340.84,-72.83"/>
</g>
<!-- Node6 -->
<g id="node6" class="node">
<title>Node6</title>
<g id="a_node6"><a xlink:title=" ">
<polygon fill="white" stroke="#bfbfbf" points="348,-56.5 348,-75.5 417,-75.5 417,-56.5 348,-56.5"/>
<text text-anchor="middle" x="382.5" y="-63.5" font-family="Helvetica,sans-Serif" font-size="10.00">Buttons.hpp</text>
</a>
</g>
</g>
<!-- Node1&#45;&gt;Node6 -->
<g id="edge5" class="edge">
<title>Node1&#45;&gt;Node6</title>
<path fill="none" stroke="midnightblue" d="M564.27,-112.44C526.99,-103.12 467.23,-88.18 426.49,-78"/>
<polygon fill="midnightblue" stroke="midnightblue" points="427.12,-74.55 416.57,-75.52 425.42,-81.34 427.12,-74.55"/>
</g>
<!-- Node7 -->
<g id="node7" class="node">
<title>Node7</title>
<g id="a_node7"><a xlink:title=" ">
<polygon fill="white" stroke="#bfbfbf" points="435,-56.5 435,-75.5 506,-75.5 506,-56.5 435,-56.5"/>
<text text-anchor="middle" x="470.5" y="-63.5" font-family="Helvetica,sans-Serif" font-size="10.00">ExtCtrls.hpp</text>
</a>
</g>
</g>
<!-- Node1&#45;&gt;Node7 -->
<g id="edge6" class="edge">
<title>Node1&#45;&gt;Node7</title>
<path fill="none" stroke="midnightblue" d="M578.22,-112.44C557.15,-103.56 523.98,-89.56 500.01,-79.45"/>
<polygon fill="midnightblue" stroke="midnightblue" points="501.26,-76.18 490.69,-75.52 498.54,-82.63 501.26,-76.18"/>
</g>
<!-- Node8 -->
<g id="node8" class="node">
<title>Node8</title>
<g id="a_node8"><a xlink:title=" ">
<polygon fill="white" stroke="#bfbfbf" points="524,-56.5 524,-75.5 589,-75.5 589,-56.5 524,-56.5"/>
<text text-anchor="middle" x="556.5" y="-63.5" font-family="Helvetica,sans-Serif" font-size="10.00">Menus.hpp</text>
</a>
</g>
</g>
<!-- Node1&#45;&gt;Node8 -->
<g id="edge7" class="edge">
<title>Node1&#45;&gt;Node8</title>
<path fill="none" stroke="midnightblue" d="M591.56,-112.08C585.57,-104.38 576.75,-93.03 569.45,-83.65"/>
<polygon fill="midnightblue" stroke="midnightblue" points="572.21,-81.5 563.31,-75.75 566.68,-85.79 572.21,-81.5"/>
</g>
<!-- Node9 -->
<g id="node9" class="node">
<title>Node9</title>
<g id="a_node9"><a xlink:title=" ">
<polygon fill="white" stroke="#bfbfbf" points="607.5,-56.5 607.5,-75.5 675.5,-75.5 675.5,-56.5 607.5,-56.5"/>
<text text-anchor="middle" x="641.5" y="-63.5" font-family="Helvetica,sans-Serif" font-size="10.00">Dialogs.hpp</text>
</a>
</g>
</g>
<!-- Node1&#45;&gt;Node9 -->
<g id="edge8" class="edge">
<title>Node1&#45;&gt;Node9</title>
<path fill="none" stroke="midnightblue" d="M605.6,-112.08C611.74,-104.38 620.77,-93.03 628.24,-83.65"/>
<polygon fill="midnightblue" stroke="midnightblue" points="631.04,-85.75 634.53,-75.75 625.56,-81.39 631.04,-85.75"/>
</g>
<!-- Node10 -->
<g id="node10" class="node">
<title>Node10</title>
<g id="a_node10"><a xlink:title=" ">
<polygon fill="white" stroke="#bfbfbf" points="693.5,-56.5 693.5,-75.5 767.5,-75.5 767.5,-56.5 693.5,-56.5"/>
<text text-anchor="middle" x="730.5" y="-63.5" font-family="Helvetica,sans-Serif" font-size="10.00">Graphics.hpp</text>
</a>
</g>
</g>
<!-- Node1&#45;&gt;Node10 -->
<g id="edge9" class="edge">
<title>Node1&#45;&gt;Node10</title>
<path fill="none" stroke="midnightblue" d="M619.42,-112.44C641.24,-103.52 675.65,-89.44 700.39,-79.32"/>
<polygon fill="midnightblue" stroke="midnightblue" points="701.75,-82.54 709.68,-75.52 699.1,-76.06 701.75,-82.54"/>
</g>
<!-- Node11 -->
<g id="node11" class="node">
<title>Node11</title>
<g id="a_node11"><a xlink:title=" ">
<polygon fill="white" stroke="#bfbfbf" points="785.5,-56.5 785.5,-75.5 861.5,-75.5 861.5,-56.5 785.5,-56.5"/>
<text text-anchor="middle" x="823.5" y="-63.5" font-family="Helvetica,sans-Serif" font-size="10.00">ComCtrls.hpp</text>
</a>
</g>
</g>
<!-- Node1&#45;&gt;Node11 -->
<g id="edge10" class="edge">
<title>Node1&#45;&gt;Node11</title>
<path fill="none" stroke="midnightblue" d="M632.67,-112.8C671.48,-103.48 734.98,-88.24 777.97,-77.93"/>
<polygon fill="midnightblue" stroke="midnightblue" points="778.98,-81.28 787.89,-75.55 777.35,-74.48 778.98,-81.28"/>
</g>
<!-- Node12 -->
<g id="node12" class="node">
<title>Node12</title>
<g id="a_node12"><a xlink:title=" ">
<polygon fill="white" stroke="#bfbfbf" points="853,-0.5 853,-19.5 902,-19.5 902,-0.5 853,-0.5"/>
<text text-anchor="middle" x="877.5" y="-7.5" font-family="Helvetica,sans-Serif" font-size="10.00">fstream</text>
</a>
</g>
</g>
<!-- Node1&#45;&gt;Node12 -->
<g id="edge11" class="edge">
<title>Node1&#45;&gt;Node12</title>
<path fill="none" stroke="midnightblue" d="M632.52,-120.31C698.13,-118.23 838.53,-109.83 870.5,-76 881.93,-63.9 882.56,-44.34 881.02,-29.83"/>
<polygon fill="midnightblue" stroke="midnightblue" points="884.48,-29.31 879.55,-19.93 877.55,-30.33 884.48,-29.31"/>
</g>
<!-- Node13 -->
<g id="node13" class="node">
<title>Node13</title>
<g id="a_node13"><a xlink:title=" ">
<polygon fill="white" stroke="#bfbfbf" points="1031.5,-56.5 1031.5,-75.5 1073.5,-75.5 1073.5,-56.5 1031.5,-56.5"/>
<text text-anchor="middle" x="1052.5" y="-63.5" font-family="Helvetica,sans-Serif" font-size="10.00">vector</text>
</a>
</g>
</g>
<!-- Node1&#45;&gt;Node13 -->
<g id="edge12" class="edge">
<title>Node1&#45;&gt;Node13</title>
<path fill="none" stroke="midnightblue" d="M632.63,-119.53C703.52,-116.02 871.92,-105.28 1021.49,-75.85"/>
<polygon fill="midnightblue" stroke="midnightblue" points="1022.2,-79.28 1031.32,-73.89 1020.83,-72.42 1022.2,-79.28"/>
</g>
<!-- Node14 -->
<g id="node14" class="node">
<title>Node14</title>
<g id="a_node14"><a xlink:title=" ">
<polygon fill="white" stroke="#bfbfbf" points="920.5,-0.5 920.5,-19.5 956.5,-19.5 956.5,-0.5 920.5,-0.5"/>
<text text-anchor="middle" x="938.5" y="-7.5" font-family="Helvetica,sans-Serif" font-size="10.00">vcl.h</text>
</a>
</g>
</g>
<!-- Node1&#45;&gt;Node14 -->
<g id="edge13" class="edge">
<title>Node1&#45;&gt;Node14</title>
<path fill="none" stroke="midnightblue" d="M632.65,-118.93C699.9,-114.34 846.67,-101.62 889.5,-76 908,-64.93 921.86,-43.97 930.03,-28.83"/>
<polygon fill="midnightblue" stroke="midnightblue" points="933.16,-30.4 934.57,-19.9 926.92,-27.22 933.16,-30.4"/>
</g>
<!-- Node15 -->
<g id="node15" class="node">
<title>Node15</title>
<g id="a_node15"><a xlink:href="_utilities_8h.html" target="_top" target="_top" target="_top" target="_top" target="_top" target="_top" target="_top" target="_top" target="_top" target="_top" target="_top" target="_top" target="_top" target="_top" target="_top" target="_top" target="_top" target="_top" target="_top" target="_top" target="_top" target="_top" xlink:title=" ">
<polygon fill="white" stroke="black" points="956,-56.5 956,-75.5 1013,-75.5 1013,-56.5 956,-56.5"/>
<text text-anchor="middle" x="984.5" y="-63.5" font-family="Helvetica,sans-Serif" font-size="10.00">Utilities.h</text>
</a>
</g>
</g>
<!-- Node1&#45;&gt;Node15 -->
<g id="edge14" class="edge">
<title>Node1&#45;&gt;Node15</title>
<path fill="none" stroke="midnightblue" d="M632.71,-117.38C694.55,-110.65 829,-95.12 941.5,-76 942.96,-75.75 944.44,-75.49 945.94,-75.22"/>
<polygon fill="midnightblue" stroke="midnightblue" points="946.72,-78.63 955.88,-73.31 945.4,-71.76 946.72,-78.63"/>
</g>
<!-- Node15&#45;&gt;Node12 -->
<g id="edge17" class="edge">
<title>Node15&#45;&gt;Node12</title>
<path fill="none" stroke="midnightblue" d="M967.31,-56.32C950.15,-47.66 923.55,-34.24 903.75,-24.25"/>
<polygon fill="midnightblue" stroke="midnightblue" points="905.15,-21.04 894.65,-19.65 902,-27.28 905.15,-21.04"/>
</g>
<!-- Node15&#45;&gt;Node14 -->
<g id="edge16" class="edge">
<title>Node15&#45;&gt;Node14</title>
<path fill="none" stroke="midnightblue" d="M976.9,-56.08C970.27,-48.3 960.48,-36.8 952.44,-27.37"/>
<polygon fill="midnightblue" stroke="midnightblue" points="955.1,-25.09 945.95,-19.75 949.77,-29.63 955.1,-25.09"/>
</g>
<!-- Node16 -->
<g id="node16" class="node">
<title>Node16</title>
<g id="a_node16"><a xlink:title=" ">
<polygon fill="white" stroke="#bfbfbf" points="975,-0.5 975,-19.5 1018,-19.5 1018,-0.5 975,-0.5"/>
<text text-anchor="middle" x="996.5" y="-7.5" font-family="Helvetica,sans-Serif" font-size="10.00">deque</text>
</a>
</g>
</g>
<!-- Node15&#45;&gt;Node16 -->
<g id="edge15" class="edge">
<title>Node15&#45;&gt;Node16</title>
<path fill="none" stroke="midnightblue" d="M986.48,-56.08C988.07,-48.93 990.36,-38.64 992.35,-29.69"/>
<polygon fill="midnightblue" stroke="midnightblue" points="995.8,-30.27 994.56,-19.75 988.97,-28.75 995.8,-30.27"/>
</g>
<!-- Node17 -->
<g id="node17" class="node">
<title>Node17</title>
<g id="a_node17"><a xlink:title=" ">
<polygon fill="white" stroke="#bfbfbf" points="1036.5,-0.5 1036.5,-19.5 1086.5,-19.5 1086.5,-0.5 1036.5,-0.5"/>
<text text-anchor="middle" x="1061.5" y="-7.5" font-family="Helvetica,sans-Serif" font-size="10.00">locale.h</text>
</a>
</g>
</g>
<!-- Node15&#45;&gt;Node17 -->
<g id="edge18" class="edge">
<title>Node15&#45;&gt;Node17</title>
<path fill="none" stroke="midnightblue" d="M996.87,-56.32C1008.66,-48.06 1026.63,-35.45 1040.64,-25.63"/>
<polygon fill="midnightblue" stroke="midnightblue" points="1042.98,-28.26 1049.16,-19.65 1038.96,-22.53 1042.98,-28.26"/>
</g>
</g>
</svg>
        <g id="navigator" transform="translate(0 0)" fill="#404254">
                <rect fill="#f2f5e9" fill-opacity="0.5" stroke="#606060" stroke-width=".5" x="0" y="0" width="60" height="60"/>
                <use id="zoomplus" xlink:href="#zoomPlus" target="_top" target="_top" target="_top" target="_top" target="_top" target="_top" target="_top" target="_top" target="_top" target="_top" target="_top" target="_top" target="_top" target="_top" target="_top" target="_top" target="_top" target="_top" target="_top" target="_top" target="_top" x="17" y="9" onmousedown="handleZoom(evt,'in')"/>
                <use id="zoomminus" xlink:href="#zoomMin" target="_top" target="_top" target="_top" target="_top" target="_top" target="_top" target="_top" target="_top" target="_top" target="_top" target="_top" target="_top" target="_top" target="_top" target="_top" target="_top" target="_top" target="_top" target="_top" target="_top" target="_top" x="42" y="9" onmousedown="handleZoom(evt,'out')"/>
                <use id="reset" xlink:href="#resetDef" target="_top" target="_top" target="_top" target="_top" target="_top" target="_top" target="_top" target="_top" target="_top" target="_top" target="_top" target="_top" target="_top" target="_top" target="_top" target="_top" target="_top" target="_top" target="_top" target="_top" target="_top" x="30" y="36" onmousedown="handleReset()"/>
                <g id="arrowUp" xlink:href="#dirArrow" target="_top" target="_top" target="_top" target="_top" target="_top" target="_top" target="_top" target="_top" target="_top" target="_top" target="_top" target="_top" target="_top" target="_top" target="_top" target="_top" target="_top" target="_top" target="_top" target="_top" target="_top" transform="translate(30 24)" onmousedown="handlePan(0,-1)">
                  <use xlink:href="#rim" target="_top" target="_top" target="_top" target="_top" target="_top" target="_top" target="_top" target="_top" target="_top" target="_top" target="_top" target="_top" target="_top" target="_top" target="_top" target="_top" target="_top" target="_top" target="_top" target="_top" target="_top" fill="#404040">
                        <set attributeName="fill" to="#808080" begin="arrowUp.mouseover" end="arrowUp.mouseout"/>
                  </use>
                  <path fill="none" stroke="white" stroke-width="1.5" d="M0,-3.0v7 M-2.5,-0.5L0,-3.0L2.5,-0.5"/>
                </g>
                <g id="arrowRight" xlink:href="#dirArrow" target="_top" target="_top" target="_top" target="_top" target="_top" target="_top" target="_top" target="_top" target="_top" target="_top" target="_top" target="_top" target="_top" target="_top" target="_top" target="_top" target="_top" target="_top" target="_top" target="_top" target="_top" transform="rotate(90) translate(36 -43)" onmousedown="handlePan(1,0)">
                  <use xlink:href="#rim" target="_top" target="_top" target="_top" target="_top" target="_top" target="_top" target="_top" target="_top" target="_top" target="_top" target="_top" target="_top" target="_top" target="_top" target="_top" target="_top" target="_top" target="_top" target="_top" target="_top" target="_top" fill="#404040">
                        <set attributeName="fill" to="#808080" begin="arrowRight.mouseover" end="arrowRight.mouseout"/>
                  </use>
                  <path fill="none" stroke="white" stroke-width="1.5" d="M0,-3.0v7 M-2.5,-0.5L0,-3.0L2.5,-0.5"/>
                </g>
                <g id="arrowDown" xlink:href="#dirArrow" target="_top" target="_top" target="_top" target="_top" target="_top" target="_top" target="_top" target="_top" target="_top" target="_top" target="_top" target="_top" target="_top" target="_top" target="_top" target="_top" target="_top" target="_top" target="_top" target="_top" target="_top" transform="rotate(180) translate(-30 -48)" onmousedown="handlePan(0,1)">
                  <use xlink:href="#rim" target="_top" target="_top" target="_top" target="_top" target="_top" target="_top" target="_top" target="_top" target="_top" target="_top" target="_top" target="_top" target="_top" target="_top" target="_top" target="_top" target="_top" target="_top" target="_top" target="_top" target="_top" fill="#404040">
                        <set attributeName="fill" to="#808080" begin="arrowDown.mouseover" end="arrowDown.mouseout"/>
                  </use>
                  <path fill="none" stroke="white" stroke-width="1.5" d="M0,-3.0v7 M-2.5,-0.5L0,-3.0L2.5,-0.5"/>
                </g>
                <g id="arrowLeft" xlink:href="#dirArrow" target="_top" target="_top" target="_top" target="_top" target="_top" target="_top" target="_top" target="_top" target="_top" target="_top" target="_top" target="_top" target="_top" target="_top" target="_top" target="_top" target="_top" target="_top" target="_top" target="_top" target="_top" transform="rotate(270) translate(-36 17)" onmousedown="handlePan(-1,0)">
                  <use xlink:href="#rim" target="_top" target="_top" target="_top" target="_top" target="_top" target="_top" target="_top" target="_top" target="_top" target="_top" target="_top" target="_top" target="_top" target="_top" target="_top" target="_top" target="_top" target="_top" target="_top" target="_top" target="_top" fill="#404040">
                        <set attributeName="fill" to="#808080" begin="arrowLeft.mouseover" end="arrowLeft.mouseout"/>
                  </use>
                  <path fill="none" stroke="white" stroke-width="1.5" d="M0,-3.0v7 M-2.5,-0.5L0,-3.0L2.5,-0.5"/>
                </g>
        </g>
        <svg viewBox="0 0 15 15" width="100%" height="30px" preserveAspectRatio="xMaxYMin meet">
         <g id="arrow_out" transform="scale(0.3 0.3)">
          <a xlink:href="_utilities_8cpp__incl_org.svg" target="_top" target="_top" target="_top" target="_top" target="_top" target="_top" target="_top" target="_top" target="_top" target="_top" target="_top" target="_top" target="_top" target="_top" target="_top" target="_top" target="_top" target="_top" target="_top" target="_top" target="_top" target="_base">
           <rect id="button" ry="5" rx="5" y="6" x="6" height="38" width="38"
                fill="#f2f5e9" fill-opacity="0.5" stroke="#606060" stroke-width="1.0"/>
           <path id="arrow"
             d="M 11.500037,31.436501 C 11.940474,20.09759 22.043105,11.32322 32.158766,21.979434 L 37.068811,17.246167 C 37.068811,17.246167 37.088388,32 37.088388,32 L 22.160133,31.978069 C 22.160133,31.978069 26.997745,27.140456 26.997745,27.140456 C 18.528582,18.264221 13.291696,25.230495 11.500037,31.436501 z"
             style="fill:#404040;"/>
          </a>
         </g>
        </svg>
</svg>
