<?xml version="1.0" encoding="UTF-8" standalone="no"?>
<!DOCTYPE svg PUBLIC "-//W3C//DTD SVG 1.1//EN"
 "http://www.w3.org/Graphics/SVG/1.1/DTD/svg11.dtd">
<!-- Generated by graphviz version 2.44.1 (20200629.0800)
 -->
<!-- Title: TTrack::PlotSmallRailway Pages: 1 -->
<svg width="479pt" height="217pt"
 viewBox="0.00 0.00 479.00 216.82" xmlns="http://www.w3.org/2000/svg" xmlns:xlink="http://www.w3.org/1999/xlink">
<g id="graph0" class="graph" transform="scale(1 1) rotate(0) translate(4 212.82)">
<title>TTrack::PlotSmallRailway</title>
<polygon fill="white" stroke="transparent" points="-4,4 -4,-212.82 475,-212.82 475,4 -4,4"/>
<!-- Node1 -->
<g id="node1" class="node">
<title>Node1</title>
<g id="a_node1"><a xlink:title="Plot on screen the zoomed&#45;out railway.">
<polygon fill="#bfbfbf" stroke="black" points="0,-98.5 0,-117.5 128,-117.5 128,-98.5 0,-98.5"/>
<text text-anchor="middle" x="64" y="-105.5" font-family="Helvetica,sans-Serif" font-size="10.00">TTrack::PlotSmallRailway</text>
</a>
</g>
</g>
<!-- Node2 -->
<g id="node2" class="node">
<title>Node2</title>
<g id="a_node2"><a xlink:href="class_t_utilities.html#ae1eddca13cc3c492839e131f40ec21c0" target="_top" xlink:title="pops the last entry off the call stack, throws an error if called when empty">
<polygon fill="white" stroke="black" points="361,-140.5 361,-159.5 471,-159.5 471,-140.5 361,-140.5"/>
<text text-anchor="middle" x="416" y="-147.5" font-family="Helvetica,sans-Serif" font-size="10.00">TUtilities::CallLogPop</text>
</a>
</g>
</g>
<!-- Node1&#45;&gt;Node2 -->
<g id="edge1" class="edge">
<title>Node1&#45;&gt;Node2</title>
<path fill="none" stroke="midnightblue" d="M72.13,-117.56C86.82,-136.37 122.58,-177.66 164,-193 231.1,-217.85 255.21,-208.81 325,-193 348.8,-187.61 373.66,-175.12 391.21,-164.99"/>
<polygon fill="midnightblue" stroke="midnightblue" points="393.36,-167.79 400.16,-159.66 389.77,-161.77 393.36,-167.79"/>
</g>
<!-- Node3 -->
<g id="node3" class="node">
<title>Node3</title>
<g id="a_node3"><a xlink:href="class_t_display.html#a95aaa80515f0abb7715920b326b318dd" target="_top" xlink:title="Plot small (4x4) graphic PlotItem on the zoomed&#45;out display at HPos &amp; Vpos.">
<polygon fill="white" stroke="black" points="179,-164.5 179,-183.5 310,-183.5 310,-164.5 179,-164.5"/>
<text text-anchor="middle" x="244.5" y="-171.5" font-family="Helvetica,sans-Serif" font-size="10.00">TDisplay::PlotSmallOutput</text>
</a>
</g>
</g>
<!-- Node1&#45;&gt;Node3 -->
<g id="edge2" class="edge">
<title>Node1&#45;&gt;Node3</title>
<path fill="none" stroke="midnightblue" d="M82.41,-117.64C101.82,-128.06 134.39,-144.56 164,-155 171.25,-157.55 178.98,-159.88 186.68,-161.95"/>
<polygon fill="midnightblue" stroke="midnightblue" points="185.81,-165.34 196.37,-164.45 187.56,-158.57 185.81,-165.34"/>
</g>
<!-- Node4 -->
<g id="node4" class="node">
<title>Node4</title>
<g id="a_node4"><a xlink:href="class_t_utilities.html#a34bd6bb5305bc29afdf424f6d35a921c" target="_top" xlink:title="creates a string of the form &#39;hh:mm:ss&#39; for use in call &amp; event logging">
<polygon fill="white" stroke="black" points="361,-99.5 361,-118.5 471,-118.5 471,-99.5 361,-99.5"/>
<text text-anchor="middle" x="416" y="-106.5" font-family="Helvetica,sans-Serif" font-size="10.00">TUtilities::TimeStamp</text>
</a>
</g>
</g>
<!-- Node1&#45;&gt;Node4 -->
<g id="edge11" class="edge">
<title>Node1&#45;&gt;Node4</title>
<path fill="none" stroke="midnightblue" d="M82.22,-98.41C101.47,-88.29 133.89,-72.99 164,-67 234.18,-53.04 255.14,-51.5 325,-67 348.58,-72.23 373.3,-84.31 390.85,-94.18"/>
<polygon fill="midnightblue" stroke="midnightblue" points="389.4,-97.39 399.81,-99.38 392.92,-91.33 389.4,-97.39"/>
</g>
<!-- Node5 -->
<g id="node5" class="node">
<title>Node5</title>
<g id="a_node5"><a xlink:href="class_t_track.html#a58a2afacadd0f564b474ac0faabc88d4" target="_top" xlink:title="Return a reference to the inactive track element pointed to by NextTrackElementPtr (during zoomed&#45;in ...">
<polygon fill="white" stroke="black" points="178,-115 178,-145 311,-145 311,-115 178,-115"/>
<text text-anchor="start" x="186" y="-133" font-family="Helvetica,sans-Serif" font-size="10.00">TTrack::ReturnNextInactive</text>
<text text-anchor="middle" x="244.5" y="-122" font-family="Helvetica,sans-Serif" font-size="10.00">TrackElement</text>
</a>
</g>
</g>
<!-- Node1&#45;&gt;Node5 -->
<g id="edge5" class="edge">
<title>Node1&#45;&gt;Node5</title>
<path fill="none" stroke="midnightblue" d="M128.18,-115.79C141.05,-117.37 154.71,-119.06 167.96,-120.69"/>
<polygon fill="midnightblue" stroke="midnightblue" points="167.63,-124.18 177.99,-121.93 168.49,-117.23 167.63,-124.18"/>
</g>
<!-- Node6 -->
<g id="node6" class="node">
<title>Node6</title>
<g id="a_node6"><a xlink:href="class_t_track.html#a90e1db27659603b72a703c017ee576c8" target="_top" xlink:title="Return a reference to the active track element pointed to by NextTrackElementPtr (during zoomed&#45;in or...">
<polygon fill="white" stroke="black" points="164,-76.5 164,-95.5 325,-95.5 325,-76.5 164,-76.5"/>
<text text-anchor="middle" x="244.5" y="-83.5" font-family="Helvetica,sans-Serif" font-size="10.00">TTrack::ReturnNextTrackElement</text>
</a>
</g>
</g>
<!-- Node1&#45;&gt;Node6 -->
<g id="edge8" class="edge">
<title>Node1&#45;&gt;Node6</title>
<path fill="none" stroke="midnightblue" d="M128.18,-100.21C137.24,-99.1 146.69,-97.93 156.12,-96.77"/>
<polygon fill="midnightblue" stroke="midnightblue" points="156.82,-100.21 166.31,-95.51 155.96,-93.26 156.82,-100.21"/>
</g>
<!-- Node7 -->
<g id="node7" class="node">
<title>Node7</title>
<g id="a_node7"><a xlink:href="class_t_display.html#aa4f37ab2a4df6437a2219f303e1de40b" target="_top" xlink:title="Repaint the screen display.">
<polygon fill="white" stroke="black" points="199,-0.5 199,-19.5 290,-19.5 290,-0.5 199,-0.5"/>
<text text-anchor="middle" x="244.5" y="-7.5" font-family="Helvetica,sans-Serif" font-size="10.00">TDisplay::Update</text>
</a>
</g>
</g>
<!-- Node1&#45;&gt;Node7 -->
<g id="edge12" class="edge">
<title>Node1&#45;&gt;Node7</title>
<path fill="none" stroke="midnightblue" d="M75.17,-98.46C92.25,-82.9 128.37,-51.99 164,-34 172.88,-29.52 182.75,-25.71 192.43,-22.53"/>
<polygon fill="midnightblue" stroke="midnightblue" points="193.48,-25.87 202,-19.57 191.41,-19.18 193.48,-25.87"/>
</g>
<!-- Node3&#45;&gt;Node2 -->
<g id="edge3" class="edge">
<title>Node3&#45;&gt;Node2</title>
<path fill="none" stroke="midnightblue" d="M310.06,-164.86C323.41,-162.97 337.46,-160.98 350.79,-159.09"/>
<polygon fill="midnightblue" stroke="midnightblue" points="351.42,-162.54 360.83,-157.67 350.43,-155.61 351.42,-162.54"/>
</g>
<!-- Node3&#45;&gt;Node4 -->
<g id="edge4" class="edge">
<title>Node3&#45;&gt;Node4</title>
<path fill="none" stroke="midnightblue" d="M297.26,-164.44C306.69,-161.91 316.29,-158.8 325,-155 342.63,-147.31 344.01,-140.01 361,-131 366.69,-127.98 372.89,-125.1 379,-122.48"/>
<polygon fill="midnightblue" stroke="midnightblue" points="380.51,-125.65 388.42,-118.6 377.84,-119.17 380.51,-125.65"/>
</g>
<!-- Node5&#45;&gt;Node2 -->
<g id="edge6" class="edge">
<title>Node5&#45;&gt;Node2</title>
<path fill="none" stroke="midnightblue" d="M311.03,-137.73C324.04,-139.27 337.69,-140.88 350.66,-142.41"/>
<polygon fill="midnightblue" stroke="midnightblue" points="350.55,-145.92 360.89,-143.62 351.37,-138.97 350.55,-145.92"/>
</g>
<!-- Node5&#45;&gt;Node4 -->
<g id="edge7" class="edge">
<title>Node5&#45;&gt;Node4</title>
<path fill="none" stroke="midnightblue" d="M311.03,-121.88C324.04,-120.27 337.69,-118.58 350.66,-116.97"/>
<polygon fill="midnightblue" stroke="midnightblue" points="351.4,-120.41 360.89,-115.7 350.54,-113.46 351.4,-120.41"/>
</g>
<!-- Node6&#45;&gt;Node2 -->
<g id="edge9" class="edge">
<title>Node6&#45;&gt;Node2</title>
<path fill="none" stroke="midnightblue" d="M296.78,-95.59C306.35,-98.12 316.12,-101.23 325,-105 342.48,-112.42 344.14,-119.27 361,-128 366.78,-130.99 373.07,-133.87 379.24,-136.5"/>
<polygon fill="midnightblue" stroke="midnightblue" points="378.17,-139.85 388.75,-140.42 380.83,-133.37 378.17,-139.85"/>
</g>
<!-- Node6&#45;&gt;Node4 -->
<g id="edge10" class="edge">
<title>Node6&#45;&gt;Node4</title>
<path fill="none" stroke="midnightblue" d="M315.91,-95.55C327.4,-97.11 339.25,-98.72 350.59,-100.26"/>
<polygon fill="midnightblue" stroke="midnightblue" points="350.45,-103.77 360.83,-101.65 351.39,-96.84 350.45,-103.77"/>
</g>
</g>
</svg>
