<?xml version="1.0" encoding="UTF-8" standalone="no"?>
<!DOCTYPE svg PUBLIC "-//W3C//DTD SVG 1.1//EN"
 "http://www.w3.org/Graphics/SVG/1.1/DTD/svg11.dtd">
<!-- Generated by graphviz version 2.44.1 (20200629.0800)
 -->
<!-- Title: TTrack::CheckUserGraphics Pages: 1 -->
<svg width="461pt" height="180pt"
 viewBox="0.00 0.00 461.00 180.00" xmlns="http://www.w3.org/2000/svg" xmlns:xlink="http://www.w3.org/1999/xlink">
<g id="graph0" class="graph" transform="scale(1 1) rotate(0) translate(4 176)">
<title>TTrack::CheckUserGraphics</title>
<polygon fill="white" stroke="transparent" points="-4,4 -4,-176 457,-176 457,4 -4,4"/>
<!-- Node1 -->
<g id="node1" class="node">
<title>Node1</title>
<g id="a_node1"><a xlink:title="checks all user graphics &amp; returns true for success">
<polygon fill="#bfbfbf" stroke="black" points="0,-76.5 0,-95.5 139,-95.5 139,-76.5 0,-76.5"/>
<text text-anchor="middle" x="69.5" y="-83.5" font-family="Helvetica,sans-Serif" font-size="10.00">TTrack::CheckUserGraphics</text>
</a>
</g>
</g>
<!-- Node2 -->
<g id="node2" class="node">
<title>Node2</title>
<g id="a_node2"><a xlink:href="class_t_utilities.html#ae1eddca13cc3c492839e131f40ec21c0" target="_top" xlink:title="pops the last entry off the call stack, throws an error if called when empty">
<polygon fill="white" stroke="black" points="177,-152.5 177,-171.5 287,-171.5 287,-152.5 177,-152.5"/>
<text text-anchor="middle" x="232" y="-159.5" font-family="Helvetica,sans-Serif" font-size="10.00">TUtilities::CallLogPop</text>
</a>
</g>
</g>
<!-- Node1&#45;&gt;Node2 -->
<g id="edge1" class="edge">
<title>Node1&#45;&gt;Node2</title>
<path fill="none" stroke="midnightblue" d="M88.85,-95.52C109.59,-106.2 144.47,-123.88 175,-138 182.64,-141.54 190.95,-145.19 198.77,-148.56"/>
<polygon fill="midnightblue" stroke="midnightblue" points="197.41,-151.78 207.98,-152.48 200.16,-145.34 197.41,-151.78"/>
</g>
<!-- Node3 -->
<g id="node3" class="node">
<title>Node3</title>
<g id="a_node3"><a xlink:href="class_t_utilities.html#a0a0ef5bf2fc74c0026f2a8bec4151d37" target="_top" xlink:title="checks that the value is a string (&#39;0&#39; or &#39; &#39; (CRLF) accepted as delimiters), returns true for succes...">
<polygon fill="white" stroke="black" points="325,-90 325,-120 453,-120 453,-90 325,-90"/>
<text text-anchor="start" x="333" y="-108" font-family="Helvetica,sans-Serif" font-size="10.00">TUtilities::CheckAndRead</text>
<text text-anchor="middle" x="389" y="-97" font-family="Helvetica,sans-Serif" font-size="10.00">FileString</text>
</a>
</g>
</g>
<!-- Node1&#45;&gt;Node3 -->
<g id="edge2" class="edge">
<title>Node1&#45;&gt;Node3</title>
<path fill="none" stroke="midnightblue" d="M112.97,-95.51C131.86,-99.28 154.43,-103.15 175,-105 221.35,-109.18 273.59,-109.25 314.74,-108.24"/>
<polygon fill="midnightblue" stroke="midnightblue" points="315.05,-111.73 324.96,-107.96 314.86,-104.74 315.05,-111.73"/>
</g>
<!-- Node4 -->
<g id="node4" class="node">
<title>Node4</title>
<g id="a_node4"><a xlink:href="class_t_utilities.html#a4d229af6e8943da1936bcbcc1c83846b" target="_top" xlink:title="checks that the value is an int lying between Lowest &amp; Highest (inclusive), returns true for success">
<polygon fill="white" stroke="black" points="175,-76.5 175,-95.5 289,-95.5 289,-76.5 175,-76.5"/>
<text text-anchor="middle" x="232" y="-83.5" font-family="Helvetica,sans-Serif" font-size="10.00">TUtilities::CheckFileInt</text>
</a>
</g>
</g>
<!-- Node1&#45;&gt;Node4 -->
<g id="edge3" class="edge">
<title>Node1&#45;&gt;Node4</title>
<path fill="none" stroke="midnightblue" d="M139.03,-86C147.51,-86 156.17,-86 164.62,-86"/>
<polygon fill="midnightblue" stroke="midnightblue" points="164.79,-89.5 174.79,-86 164.79,-82.5 164.79,-89.5"/>
</g>
<!-- Node5 -->
<g id="node5" class="node">
<title>Node5</title>
<g id="a_node5"><a xlink:href="class_t_utilities.html#a84bf39701305cf4814377d178d0fec8c" target="_top" xlink:title="loads an int value from the file">
<polygon fill="white" stroke="black" points="178.5,-38.5 178.5,-57.5 285.5,-57.5 285.5,-38.5 178.5,-38.5"/>
<text text-anchor="middle" x="232" y="-45.5" font-family="Helvetica,sans-Serif" font-size="10.00">TUtilities::LoadFileInt</text>
</a>
</g>
</g>
<!-- Node1&#45;&gt;Node5 -->
<g id="edge5" class="edge">
<title>Node1&#45;&gt;Node5</title>
<path fill="none" stroke="midnightblue" d="M111,-76.41C132.18,-71.4 158.3,-65.21 180.76,-59.89"/>
<polygon fill="midnightblue" stroke="midnightblue" points="181.87,-63.23 190.79,-57.52 180.25,-56.42 181.87,-63.23"/>
</g>
<!-- Node6 -->
<g id="node6" class="node">
<title>Node6</title>
<g id="a_node6"><a xlink:href="class_t_utilities.html#a34bd6bb5305bc29afdf424f6d35a921c" target="_top" xlink:title="creates a string of the form &#39;hh:mm:ss&#39; for use in call &amp; event logging">
<polygon fill="white" stroke="black" points="177,-0.5 177,-19.5 287,-19.5 287,-0.5 177,-0.5"/>
<text text-anchor="middle" x="232" y="-7.5" font-family="Helvetica,sans-Serif" font-size="10.00">TUtilities::TimeStamp</text>
</a>
</g>
</g>
<!-- Node1&#45;&gt;Node6 -->
<g id="edge6" class="edge">
<title>Node1&#45;&gt;Node6</title>
<path fill="none" stroke="midnightblue" d="M86.01,-76.44C106.05,-64.34 142.26,-43.36 175,-29 179.81,-26.89 184.94,-24.86 190.06,-22.97"/>
<polygon fill="midnightblue" stroke="midnightblue" points="191.57,-26.15 199.83,-19.52 189.23,-19.55 191.57,-26.15"/>
</g>
<!-- Node4&#45;&gt;Node3 -->
<g id="edge4" class="edge">
<title>Node4&#45;&gt;Node3</title>
<path fill="none" stroke="midnightblue" d="M289.4,-92.91C297.67,-93.93 306.29,-94.98 314.84,-96.03"/>
<polygon fill="midnightblue" stroke="midnightblue" points="314.47,-99.51 324.83,-97.26 315.33,-92.57 314.47,-99.51"/>
</g>
</g>
</svg>
