<?xml version="1.0" encoding="UTF-8" standalone="no"?>
<!DOCTYPE svg PUBLIC "-//W3C//DTD SVG 1.1//EN"
 "http://www.w3.org/Graphics/SVG/1.1/DTD/svg11.dtd">
<!-- Generated by graphviz version 2.44.1 (20200629.0800)
 -->
<!-- Title: TTrack::TimetabledLocationNameAllocated Pages: 1 -->
<!--zoomable 197 -->
<svg id="main" version="1.1" xmlns="http://www.w3.org/2000/svg" xmlns:xlink="http://www.w3.org/1999/xlink" xml:space="preserve" onload="init(evt)">
<style type="text/css"><![CDATA[
.edge:hover path { stroke: red; }
.edge:hover polygon { stroke: red; fill: red; }
]]></style>
<script type="text/javascript"><![CDATA[
var edges = document.getElementsByTagName('g');
if (edges && edges.length) {
  for (var i=0;i<edges.length;i++) {
    if (edges[i].id.substr(0,4)=='edge') {
      edges[i].setAttribute('class','edge');
    }
  }
}
]]></script>
        <defs>
                <circle id="rim" cx="0" cy="0" r="7"/>
                <circle id="rim2" cx="0" cy="0" r="3.5"/>
                <g id="zoomPlus">
                        <use xlink:href="#rim" fill="#404040">
                                <set attributeName="fill" to="#808080" begin="zoomplus.mouseover" end="zoomplus.mouseout"/>
                        </use>
                        <path d="M-4,0h8M0,-4v8" fill="none" stroke="white" stroke-width="1.5" pointer-events="none"/>
                </g>
                <g id="zoomMin">
                        <use xlink:href="#rim" fill="#404040">
                                <set attributeName="fill" to="#808080" begin="zoomminus.mouseover" end="zoomminus.mouseout"/>
                        </use>
                        <path d="M-4,0h8" fill="none" stroke="white" stroke-width="1.5" pointer-events="none"/>
                </g>
                <g id="dirArrow">
                        <path fill="none" stroke="white" stroke-width="1.5" d="M0,-3.0v7 M-2.5,-0.5L0,-3.0L2.5,-0.5"/>
                </g>
               <g id="resetDef">
                       <use xlink:href="#rim2" fill="#404040">
                               <set attributeName="fill" to="#808080" begin="reset.mouseover" end="reset.mouseout"/>
                       </use>
               </g>
        </defs>

<script type="text/javascript">
var viewWidth = 1705;
var viewHeight = 197;
var sectionId = 'dynsection-275';
</script>
<script xlink:href="svgpan.js"/>
<svg id="graph" class="graph">
<g id="viewport">
<title>TTrack::TimetabledLocationNameAllocated</title>
<polygon fill="white" stroke="transparent" points="-4,4 -4,-193.33 1701,-193.33 1701,4 -4,4"/>
<!-- Node1 -->
<g id="node1" class="node">
<title>Node1</title>
<g id="a_node1"><a xlink:title="True if a non&#45;empty LocationName found as a timetabled location name i.e. not as a continuation name.">
<polygon fill="#bfbfbf" stroke="black" points="1561,-73.5 1561,-103.5 1697,-103.5 1697,-73.5 1561,-73.5"/>
<text text-anchor="start" x="1569" y="-91.5" font-family="Helvetica,sans-Serif" font-size="10.00">TTrack::TimetabledLocation</text>
<text text-anchor="middle" x="1629" y="-80.5" font-family="Helvetica,sans-Serif" font-size="10.00">NameAllocated</text>
</a>
</g>
</g>
<!-- Node2 -->
<g id="node2" class="node">
<title>Node2</title>
<g id="a_node2"><a xlink:href="class_t_train_controller.html#a72662be9ecd0e95131779bd10b6fe14f" target="_top" xlink:title="A timetable validation function where all service cross references are checked for validity and set p...">
<polygon fill="white" stroke="black" points="1376,-49.5 1376,-79.5 1519,-79.5 1519,-49.5 1376,-49.5"/>
<text text-anchor="start" x="1384" y="-67.5" font-family="Helvetica,sans-Serif" font-size="10.00">TTrainController::CheckCross</text>
<text text-anchor="middle" x="1447.5" y="-56.5" font-family="Helvetica,sans-Serif" font-size="10.00">ReferencesAndSetData</text>
</a>
</g>
</g>
<!-- Node1&#45;&gt;Node2 -->
<g id="edge1" class="edge">
<title>Node1&#45;&gt;Node2</title>
<path fill="none" stroke="midnightblue" d="M1550.88,-78.19C1540.33,-76.78 1529.54,-75.34 1519.11,-73.94"/>
<polygon fill="midnightblue" stroke="midnightblue" points="1550.53,-81.67 1560.91,-79.53 1551.46,-74.73 1550.53,-81.67"/>
</g>
<!-- Node13 -->
<g id="node13" class="node">
<title>Node13</title>
<g id="a_node13"><a xlink:href="class_t_train_controller.html#a1925032d5e41decf4befc07b35521d3c" target="_top" xlink:title="Returns true if the location name complies with requirements.">
<polygon fill="white" stroke="black" points="1370,-98.5 1370,-128.5 1525,-128.5 1525,-98.5 1370,-98.5"/>
<text text-anchor="start" x="1378" y="-116.5" font-family="Helvetica,sans-Serif" font-size="10.00">TTrainController::CheckLocation</text>
<text text-anchor="middle" x="1447.5" y="-105.5" font-family="Helvetica,sans-Serif" font-size="10.00">Validity</text>
</a>
</g>
</g>
<!-- Node1&#45;&gt;Node13 -->
<g id="edge13" class="edge">
<title>Node1&#45;&gt;Node13</title>
<path fill="none" stroke="midnightblue" d="M1550.97,-99.23C1542.42,-100.42 1533.72,-101.63 1525.18,-102.82"/>
<polygon fill="midnightblue" stroke="midnightblue" points="1551.48,-102.69 1560.91,-97.84 1550.52,-95.76 1551.48,-102.69"/>
</g>
<!-- Node3 -->
<g id="node3" class="node">
<title>Node3</title>
<g id="a_node3"><a xlink:href="class_t_train_controller.html#af52f0033d498268c871980c17a8ddf36" target="_top" xlink:title="Carry out further detailed timetable consistency checks, return true for success.">
<polygon fill="white" stroke="black" points="1029.5,-49.5 1029.5,-79.5 1152.5,-79.5 1152.5,-49.5 1029.5,-49.5"/>
<text text-anchor="start" x="1037.5" y="-67.5" font-family="Helvetica,sans-Serif" font-size="10.00">TTrainController::Second</text>
<text text-anchor="middle" x="1091" y="-56.5" font-family="Helvetica,sans-Serif" font-size="10.00">PassActions</text>
</a>
</g>
</g>
<!-- Node2&#45;&gt;Node3 -->
<g id="edge2" class="edge">
<title>Node2&#45;&gt;Node3</title>
<path fill="none" stroke="midnightblue" d="M1365.44,-64.5C1300.71,-64.5 1211.42,-64.5 1152.73,-64.5"/>
<polygon fill="midnightblue" stroke="midnightblue" points="1365.61,-68 1375.61,-64.5 1365.61,-61 1365.61,-68"/>
</g>
<!-- Node4 -->
<g id="node4" class="node">
<title>Node4</title>
<g id="a_node4"><a xlink:href="class_t_interface.html#a148e3f99d39f596dbd7d490403936154" target="_top" xlink:title="Convert a stored timetable file (either as a stand alone file or within a session file) to a loaded t...">
<polygon fill="white" stroke="black" points="859.5,-0.5 859.5,-30.5 987.5,-30.5 987.5,-0.5 859.5,-0.5"/>
<text text-anchor="start" x="867.5" y="-18.5" font-family="Helvetica,sans-Serif" font-size="10.00">TInterface::BuildTrainData</text>
<text text-anchor="middle" x="923.5" y="-7.5" font-family="Helvetica,sans-Serif" font-size="10.00">VectorForLoadFile</text>
</a>
</g>
</g>
<!-- Node3&#45;&gt;Node4 -->
<g id="edge3" class="edge">
<title>Node3&#45;&gt;Node4</title>
<path fill="none" stroke="midnightblue" d="M1029.32,-46.53C1011.58,-41.28 992.39,-35.6 975.34,-30.55"/>
<polygon fill="midnightblue" stroke="midnightblue" points="1028.41,-49.92 1038.99,-49.4 1030.4,-43.2 1028.41,-49.92"/>
</g>
<!-- Node11 -->
<g id="node11" class="node">
<title>Node11</title>
<g id="a_node11"><a xlink:href="class_t_interface.html#a4ffe7e6eb2421577f670a52f556aef97" target="_top" xlink:title="Check the integrity of a stored timetable file (either as a stand alone file or within a session file...">
<polygon fill="white" stroke="black" points="859.5,-98.5 859.5,-128.5 987.5,-128.5 987.5,-98.5 859.5,-98.5"/>
<text text-anchor="start" x="867.5" y="-116.5" font-family="Helvetica,sans-Serif" font-size="10.00">TInterface::BuildTrainData</text>
<text text-anchor="middle" x="923.5" y="-105.5" font-family="Helvetica,sans-Serif" font-size="10.00">VectorForValidateFile</text>
</a>
</g>
</g>
<!-- Node3&#45;&gt;Node11 -->
<g id="edge11" class="edge">
<title>Node3&#45;&gt;Node11</title>
<path fill="none" stroke="midnightblue" d="M1029.32,-82.47C1011.58,-87.72 992.39,-93.4 975.34,-98.45"/>
<polygon fill="midnightblue" stroke="midnightblue" points="1030.4,-85.8 1038.99,-79.6 1028.41,-79.08 1030.4,-85.8"/>
</g>
<!-- Node5 -->
<g id="node5" class="node">
<title>Node5</title>
<g id="a_node5"><a xlink:href="class_t_interface.html#a92d5a9e07b9362dee2296b7759a1c83d" target="_top" xlink:title="Loads timetable into memory from a session file, true if successful.">
<polygon fill="white" stroke="black" points="684,-0.5 684,-30.5 812,-30.5 812,-0.5 684,-0.5"/>
<text text-anchor="start" x="692" y="-18.5" font-family="Helvetica,sans-Serif" font-size="10.00">TInterface::LoadTimetable</text>
<text text-anchor="middle" x="748" y="-7.5" font-family="Helvetica,sans-Serif" font-size="10.00">FromSessionFile</text>
</a>
</g>
</g>
<!-- Node4&#45;&gt;Node5 -->
<g id="edge4" class="edge">
<title>Node4&#45;&gt;Node5</title>
<path fill="none" stroke="midnightblue" d="M849.13,-15.5C836.81,-15.5 824.12,-15.5 812.08,-15.5"/>
<polygon fill="midnightblue" stroke="midnightblue" points="849.37,-19 859.37,-15.5 849.37,-12 849.37,-19"/>
</g>
<!-- Node10 -->
<g id="node10" class="node">
<title>Node10</title>
<g id="a_node10"><a xlink:href="class_t_interface.html#a15a2f5ad77e4f6c2b0cc6314224dfb78" target="_top" xlink:title=" ">
<polygon fill="white" stroke="black" points="684,-49.5 684,-79.5 812,-79.5 812,-49.5 684,-49.5"/>
<text text-anchor="start" x="692" y="-67.5" font-family="Helvetica,sans-Serif" font-size="10.00">TInterface::LoadTimetable</text>
<text text-anchor="middle" x="748" y="-56.5" font-family="Helvetica,sans-Serif" font-size="10.00">MenuItemClick</text>
</a>
</g>
</g>
<!-- Node4&#45;&gt;Node10 -->
<g id="edge10" class="edge">
<title>Node4&#45;&gt;Node10</title>
<path fill="none" stroke="midnightblue" d="M859.4,-33.32C840.67,-38.61 820.34,-44.35 802.29,-49.45"/>
<polygon fill="midnightblue" stroke="midnightblue" points="860.36,-36.69 869.03,-30.6 858.45,-29.95 860.36,-36.69"/>
</g>
<!-- Node6 -->
<g id="node6" class="node">
<title>Node6</title>
<g id="a_node6"><a xlink:href="class_t_interface.html#a636b1b4bd29f2678a3290ed2d282f1c2" target="_top" xlink:title="Load a session file.">
<polygon fill="white" stroke="black" points="334,-50 334,-69 455,-69 455,-50 334,-50"/>
<text text-anchor="middle" x="394.5" y="-57" font-family="Helvetica,sans-Serif" font-size="10.00">TInterface::LoadSession</text>
</a>
</g>
</g>
<!-- Node5&#45;&gt;Node6 -->
<g id="edge5" class="edge">
<title>Node5&#45;&gt;Node6</title>
<path fill="none" stroke="midnightblue" d="M673.73,-17.4C622.31,-19.6 552.1,-24.32 491,-34.5 469.02,-38.16 444.74,-44.55 426.16,-49.95"/>
<polygon fill="midnightblue" stroke="midnightblue" points="673.91,-20.9 683.76,-16.99 673.62,-13.9 673.91,-20.9"/>
</g>
<!-- Node9 -->
<g id="node9" class="node">
<title>Node9</title>
<g id="a_node9"><a xlink:href="class_t_interface.html#a3904f26b67b9512507960187b37b6f7b" target="_top" xlink:title="Checks session file integrity prior to loading, true for success.">
<polygon fill="white" stroke="black" points="491,-44.5 491,-74.5 641,-74.5 641,-44.5 491,-44.5"/>
<text text-anchor="start" x="499" y="-62.5" font-family="Helvetica,sans-Serif" font-size="10.00">TInterface::SessionFileIntegrity</text>
<text text-anchor="middle" x="566" y="-51.5" font-family="Helvetica,sans-Serif" font-size="10.00">Check</text>
</a>
</g>
</g>
<!-- Node5&#45;&gt;Node9 -->
<g id="edge8" class="edge">
<title>Node5&#45;&gt;Node9</title>
<path fill="none" stroke="midnightblue" d="M675.47,-32.99C659.92,-36.79 643.59,-40.78 628.47,-44.47"/>
<polygon fill="midnightblue" stroke="midnightblue" points="676.67,-36.29 685.56,-30.52 675.01,-29.49 676.67,-36.29"/>
</g>
<!-- Node7 -->
<g id="node7" class="node">
<title>Node7</title>
<g id="a_node7"><a xlink:href="class_t_interface.html#a6139ffb52492eb89e5487a8a3cd647b5" target="_top" xlink:title="The main loop, called every clock tick via MasterClockTimer.">
<polygon fill="white" stroke="black" points="179,-50 179,-69 298,-69 298,-50 179,-50"/>
<text text-anchor="middle" x="238.5" y="-57" font-family="Helvetica,sans-Serif" font-size="10.00">TInterface::ClockTimer2</text>
</a>
</g>
</g>
<!-- Node6&#45;&gt;Node7 -->
<g id="edge6" class="edge">
<title>Node6&#45;&gt;Node7</title>
<path fill="none" stroke="midnightblue" d="M323.92,-59.5C315.3,-59.5 306.56,-59.5 298.12,-59.5"/>
<polygon fill="midnightblue" stroke="midnightblue" points="323.96,-63 333.96,-59.5 323.96,-56 323.96,-63"/>
</g>
<!-- Node8 -->
<g id="node8" class="node">
<title>Node8</title>
<g id="a_node8"><a xlink:href="class_t_interface.html#ace30a12d923fc7fb489afabb0a09aa4f" target="_top" xlink:title=" ">
<polygon fill="white" stroke="black" points="0,-50 0,-69 143,-69 143,-50 0,-50"/>
<text text-anchor="middle" x="71.5" y="-57" font-family="Helvetica,sans-Serif" font-size="10.00">TInterface::MasterClockTimer</text>
</a>
</g>
</g>
<!-- Node7&#45;&gt;Node8 -->
<g id="edge7" class="edge">
<title>Node7&#45;&gt;Node8</title>
<path fill="none" stroke="midnightblue" d="M168.67,-59.5C160.22,-59.5 151.57,-59.5 143.09,-59.5"/>
<polygon fill="midnightblue" stroke="midnightblue" points="168.86,-63 178.86,-59.5 168.86,-56 168.86,-63"/>
</g>
<!-- Node9&#45;&gt;Node6 -->
<g id="edge9" class="edge">
<title>Node9&#45;&gt;Node6</title>
<path fill="none" stroke="midnightblue" d="M480.55,-59.5C471.93,-59.5 463.3,-59.5 455.02,-59.5"/>
<polygon fill="midnightblue" stroke="midnightblue" points="480.65,-63 490.65,-59.5 480.65,-56 480.65,-63"/>
</g>
<!-- Node12 -->
<g id="node12" class="node">
<title>Node12</title>
<g id="a_node12"><a xlink:href="class_t_interface.html#a2f501868bbee2310af99bf2e8e265c59" target="_top" xlink:title=" ">
<polygon fill="white" stroke="black" points="677,-98.5 677,-128.5 819,-128.5 819,-98.5 677,-98.5"/>
<text text-anchor="start" x="685" y="-116.5" font-family="Helvetica,sans-Serif" font-size="10.00">TInterface::ValidateTimetable</text>
<text text-anchor="middle" x="748" y="-105.5" font-family="Helvetica,sans-Serif" font-size="10.00">ButtonClick</text>
</a>
</g>
</g>
<!-- Node11&#45;&gt;Node12 -->
<g id="edge12" class="edge">
<title>Node11&#45;&gt;Node12</title>
<path fill="none" stroke="midnightblue" d="M849.12,-113.5C839.18,-113.5 829,-113.5 819.12,-113.5"/>
<polygon fill="midnightblue" stroke="midnightblue" points="849.37,-117 859.37,-113.5 849.37,-110 849.37,-117"/>
</g>
<!-- Node14 -->
<g id="node14" class="node">
<title>Node14</title>
<g id="a_node14"><a xlink:href="class_t_train.html#a23c65e7f2b2130ae87811f70afb6d5bf" target="_top" xlink:title="Create one train with relevant member values from the sesion file.">
<polygon fill="white" stroke="black" points="1190,-169 1190,-188 1334,-188 1334,-169 1190,-169"/>
<text text-anchor="middle" x="1262" y="-176" font-family="Helvetica,sans-Serif" font-size="10.00">TTrain::LoadOneSessionTrain</text>
</a>
</g>
</g>
<!-- Node13&#45;&gt;Node14 -->
<g id="edge14" class="edge">
<title>Node13&#45;&gt;Node14</title>
<path fill="none" stroke="midnightblue" d="M1394.16,-132.04C1360.17,-144.08 1317.27,-159.28 1289.98,-168.94"/>
<polygon fill="midnightblue" stroke="midnightblue" points="1395.68,-135.21 1403.94,-128.58 1393.35,-128.62 1395.68,-135.21"/>
</g>
<!-- Node16 -->
<g id="node16" class="node">
<title>Node16</title>
<g id="a_node16"><a xlink:href="class_t_train_controller.html#a9067975adc343b753d7eb882648c66bb" target="_top" xlink:title="Parse a single timetable service action, return true for success.">
<polygon fill="white" stroke="black" points="1195.5,-104 1195.5,-123 1328.5,-123 1328.5,-104 1195.5,-104"/>
<text text-anchor="middle" x="1262" y="-111" font-family="Helvetica,sans-Serif" font-size="10.00">TTrainController::SplitEntry</text>
</a>
</g>
</g>
<!-- Node13&#45;&gt;Node16 -->
<g id="edge17" class="edge">
<title>Node13&#45;&gt;Node16</title>
<path fill="none" stroke="midnightblue" d="M1359.44,-113.5C1349.09,-113.5 1338.66,-113.5 1328.68,-113.5"/>
<polygon fill="midnightblue" stroke="midnightblue" points="1359.74,-117 1369.74,-113.5 1359.74,-110 1359.74,-117"/>
</g>
<!-- Node15 -->
<g id="node15" class="node">
<title>Node15</title>
<g id="a_node15"><a xlink:href="class_t_train_controller.html#a853ddf9799c9fd7063c81ffa1dc754d7" target="_top" xlink:title="load trains from a session file">
<polygon fill="white" stroke="black" points="493,-142.5 493,-172.5 639,-172.5 639,-142.5 493,-142.5"/>
<text text-anchor="start" x="501" y="-160.5" font-family="Helvetica,sans-Serif" font-size="10.00">TTrainController::LoadSession</text>
<text text-anchor="middle" x="566" y="-149.5" font-family="Helvetica,sans-Serif" font-size="10.00">Trains</text>
</a>
</g>
</g>
<!-- Node14&#45;&gt;Node15 -->
<g id="edge15" class="edge">
<title>Node14&#45;&gt;Node15</title>
<path fill="none" stroke="midnightblue" d="M1179.85,-181.92C1126.48,-184 1055.1,-186.44 992,-187.5 931.12,-188.52 915.81,-190.66 855,-187.5 781.2,-183.67 697.19,-174.34 639.04,-167.1"/>
<polygon fill="midnightblue" stroke="midnightblue" points="1180.08,-185.42 1189.94,-181.53 1179.81,-178.42 1180.08,-185.42"/>
</g>
<!-- Node15&#45;&gt;Node6 -->
<g id="edge16" class="edge">
<title>Node15&#45;&gt;Node6</title>
<path fill="none" stroke="midnightblue" d="M530.16,-137.36C494.13,-116.52 439.4,-84.88 412.14,-69.12"/>
<polygon fill="midnightblue" stroke="midnightblue" points="528.48,-140.43 538.89,-142.4 531.98,-134.37 528.48,-140.43"/>
</g>
<!-- Node17 -->
<g id="node17" class="node">
<title>Node17</title>
<g id="a_node17"><a xlink:href="class_t_train_controller.html#a5c51eb1e0018e189966ffdbc5d251990" target="_top" xlink:title="Carry out preliminary (mainly syntax) validity checks on a single timetable service entry and (if Fin...">
<polygon fill="white" stroke="black" points="1028,-98.5 1028,-128.5 1154,-128.5 1154,-98.5 1028,-98.5"/>
<text text-anchor="start" x="1036" y="-116.5" font-family="Helvetica,sans-Serif" font-size="10.00">TTrainController::Process</text>
<text text-anchor="middle" x="1091" y="-105.5" font-family="Helvetica,sans-Serif" font-size="10.00">OneTimetableLine</text>
</a>
</g>
</g>
<!-- Node16&#45;&gt;Node17 -->
<g id="edge18" class="edge">
<title>Node16&#45;&gt;Node17</title>
<path fill="none" stroke="midnightblue" d="M1184.92,-113.5C1174.59,-113.5 1164.09,-113.5 1154.05,-113.5"/>
<polygon fill="midnightblue" stroke="midnightblue" points="1185.18,-117 1195.18,-113.5 1185.18,-110 1185.18,-117"/>
</g>
<!-- Node17&#45;&gt;Node4 -->
<g id="edge19" class="edge">
<title>Node17&#45;&gt;Node4</title>
<path fill="none" stroke="midnightblue" d="M1033.58,-93.42C1031.65,-92.18 1029.78,-90.88 1028,-89.5 1006.34,-72.75 1013.89,-55.94 992,-39.5 987.43,-36.06 982.32,-33.09 977.01,-30.52"/>
<polygon fill="midnightblue" stroke="midnightblue" points="1031.98,-96.53 1042.4,-98.43 1035.43,-90.45 1031.98,-96.53"/>
</g>
<!-- Node17&#45;&gt;Node11 -->
<g id="edge20" class="edge">
<title>Node17&#45;&gt;Node11</title>
<path fill="none" stroke="midnightblue" d="M1017.64,-113.5C1007.69,-113.5 997.54,-113.5 987.77,-113.5"/>
<polygon fill="midnightblue" stroke="midnightblue" points="1017.9,-117 1027.9,-113.5 1017.9,-110 1017.9,-117"/>
</g>
<!-- Node18 -->
<g id="node18" class="node">
<title>Node18</title>
<g id="a_node18"><a xlink:href="class_t_train_controller.html#ac51af4807fe6bba453f8ab9bba42e2b5" target="_top" xlink:title="Checks overall timetable integrity, calls many other specific checking functions, returns true for su...">
<polygon fill="white" stroke="black" points="857.5,-49.5 857.5,-79.5 989.5,-79.5 989.5,-49.5 857.5,-49.5"/>
<text text-anchor="start" x="865.5" y="-67.5" font-family="Helvetica,sans-Serif" font-size="10.00">TTrainController::Timetable</text>
<text text-anchor="middle" x="923.5" y="-56.5" font-family="Helvetica,sans-Serif" font-size="10.00">IntegrityCheck</text>
</a>
</g>
</g>
<!-- Node17&#45;&gt;Node18 -->
<g id="edge21" class="edge">
<title>Node17&#45;&gt;Node18</title>
<path fill="none" stroke="midnightblue" d="M1029.32,-95.53C1011.58,-90.28 992.39,-84.6 975.34,-79.55"/>
<polygon fill="midnightblue" stroke="midnightblue" points="1028.41,-98.92 1038.99,-98.4 1030.4,-92.2 1028.41,-98.92"/>
</g>
<!-- Node19 -->
<g id="node19" class="node">
<title>Node19</title>
<g id="a_node19"><a xlink:href="class_t_interface.html#a003b10236c2b4316dc57be370c715c44" target="_top" xlink:title=" ">
<polygon fill="white" stroke="black" points="855,-147.5 855,-177.5 992,-177.5 992,-147.5 855,-147.5"/>
<text text-anchor="start" x="863" y="-165.5" font-family="Helvetica,sans-Serif" font-size="10.00">TInterface::TTServiceSyntax</text>
<text text-anchor="middle" x="923.5" y="-154.5" font-family="Helvetica,sans-Serif" font-size="10.00">CheckButtonClick</text>
</a>
</g>
</g>
<!-- Node17&#45;&gt;Node19 -->
<g id="edge25" class="edge">
<title>Node17&#45;&gt;Node19</title>
<path fill="none" stroke="midnightblue" d="M1029.32,-131.47C1011.58,-136.72 992.39,-142.4 975.34,-147.45"/>
<polygon fill="midnightblue" stroke="midnightblue" points="1030.4,-134.8 1038.99,-128.6 1028.41,-128.08 1030.4,-134.8"/>
</g>
<!-- Node18&#45;&gt;Node5 -->
<g id="edge22" class="edge">
<title>Node18&#45;&gt;Node5</title>
<path fill="none" stroke="midnightblue" d="M859.4,-46.68C840.67,-41.39 820.34,-35.65 802.29,-30.55"/>
<polygon fill="midnightblue" stroke="midnightblue" points="858.45,-50.05 869.03,-49.4 860.36,-43.31 858.45,-50.05"/>
</g>
<!-- Node18&#45;&gt;Node10 -->
<g id="edge23" class="edge">
<title>Node18&#45;&gt;Node10</title>
<path fill="none" stroke="midnightblue" d="M847.22,-64.5C835.53,-64.5 823.55,-64.5 812.16,-64.5"/>
<polygon fill="midnightblue" stroke="midnightblue" points="847.4,-68 857.4,-64.5 847.4,-61 847.4,-68"/>
</g>
<!-- Node18&#45;&gt;Node12 -->
<g id="edge24" class="edge">
<title>Node18&#45;&gt;Node12</title>
<path fill="none" stroke="midnightblue" d="M859.4,-82.32C840.67,-87.61 820.34,-93.35 802.29,-98.45"/>
<polygon fill="midnightblue" stroke="midnightblue" points="860.36,-85.69 869.03,-79.6 858.45,-78.95 860.36,-85.69"/>
</g>
</g>
</svg>
        <g id="navigator" transform="translate(0 0)" fill="#404254">
                <rect fill="#f2f5e9" fill-opacity="0.5" stroke="#606060" stroke-width=".5" x="0" y="0" width="60" height="60"/>
                <use id="zoomplus" xlink:href="#zoomPlus" x="17" y="9" onmousedown="handleZoom(evt,'in')"/>
                <use id="zoomminus" xlink:href="#zoomMin" x="42" y="9" onmousedown="handleZoom(evt,'out')"/>
                <use id="reset" xlink:href="#resetDef" x="30" y="36" onmousedown="handleReset()"/>
                <g id="arrowUp" xlink:href="#dirArrow" transform="translate(30 24)" onmousedown="handlePan(0,-1)">
                  <use xlink:href="#rim" fill="#404040">
                        <set attributeName="fill" to="#808080" begin="arrowUp.mouseover" end="arrowUp.mouseout"/>
                  </use>
                  <path fill="none" stroke="white" stroke-width="1.5" d="M0,-3.0v7 M-2.5,-0.5L0,-3.0L2.5,-0.5"/>
                </g>
                <g id="arrowRight" xlink:href="#dirArrow" transform="rotate(90) translate(36 -43)" onmousedown="handlePan(1,0)">
                  <use xlink:href="#rim" fill="#404040">
                        <set attributeName="fill" to="#808080" begin="arrowRight.mouseover" end="arrowRight.mouseout"/>
                  </use>
                  <path fill="none" stroke="white" stroke-width="1.5" d="M0,-3.0v7 M-2.5,-0.5L0,-3.0L2.5,-0.5"/>
                </g>
                <g id="arrowDown" xlink:href="#dirArrow" transform="rotate(180) translate(-30 -48)" onmousedown="handlePan(0,1)">
                  <use xlink:href="#rim" fill="#404040">
                        <set attributeName="fill" to="#808080" begin="arrowDown.mouseover" end="arrowDown.mouseout"/>
                  </use>
                  <path fill="none" stroke="white" stroke-width="1.5" d="M0,-3.0v7 M-2.5,-0.5L0,-3.0L2.5,-0.5"/>
                </g>
                <g id="arrowLeft" xlink:href="#dirArrow" transform="rotate(270) translate(-36 17)" onmousedown="handlePan(-1,0)">
                  <use xlink:href="#rim" fill="#404040">
                        <set attributeName="fill" to="#808080" begin="arrowLeft.mouseover" end="arrowLeft.mouseout"/>
                  </use>
                  <path fill="none" stroke="white" stroke-width="1.5" d="M0,-3.0v7 M-2.5,-0.5L0,-3.0L2.5,-0.5"/>
                </g>
        </g>
        <svg viewBox="0 0 15 15" width="100%" height="30px" preserveAspectRatio="xMaxYMin meet">
         <g id="arrow_out" transform="scale(0.3 0.3)">
          <a xlink:href="class_t_track_addd8e149e66c99a295541c9eda13eae4_icgraph_org.svg" target="_base">
           <rect id="button" ry="5" rx="5" y="6" x="6" height="38" width="38"
                fill="#f2f5e9" fill-opacity="0.5" stroke="#606060" stroke-width="1.0"/>
           <path id="arrow"
             d="M 11.500037,31.436501 C 11.940474,20.09759 22.043105,11.32322 32.158766,21.979434 L 37.068811,17.246167 C 37.068811,17.246167 37.088388,32 37.088388,32 L 22.160133,31.978069 C 22.160133,31.978069 26.997745,27.140456 26.997745,27.140456 C 18.528582,18.264221 13.291696,25.230495 11.500037,31.436501 z"
             style="fill:#404040;"/>
          </a>
         </g>
        </svg>
</svg>
