<?xml version="1.0" encoding="UTF-8" standalone="no"?>
<!DOCTYPE svg PUBLIC "-//W3C//DTD SVG 1.1//EN"
 "http://www.w3.org/Graphics/SVG/1.1/DTD/svg11.dtd">
<!-- Generated by graphviz version 2.44.1 (20200629.0800)
 -->
<!-- Title: TTrainController::ContinuationEntryFloatingTTString Pages: 1 -->
<!--zoomable 492 -->
<svg id="main" version="1.1" xmlns="http://www.w3.org/2000/svg" xmlns:xlink="http://www.w3.org/1999/xlink" xml:space="preserve" onload="init(evt)">
<style type="text/css"><![CDATA[
.edge:hover path { stroke: red; }
.edge:hover polygon { stroke: red; fill: red; }
]]></style>
<script type="text/javascript"><![CDATA[
var edges = document.getElementsByTagName('g');
if (edges && edges.length) {
  for (var i=0;i<edges.length;i++) {
    if (edges[i].id.substr(0,4)=='edge') {
      edges[i].setAttribute('class','edge');
    }
  }
}
]]></script>
        <defs>
                <circle id="rim" cx="0" cy="0" r="7"/>
                <circle id="rim2" cx="0" cy="0" r="3.5"/>
                <g id="zoomPlus">
                        <use xlink:href="#rim" fill="#404040">
                                <set attributeName="fill" to="#808080" begin="zoomplus.mouseover" end="zoomplus.mouseout"/>
                        </use>
                        <path d="M-4,0h8M0,-4v8" fill="none" stroke="white" stroke-width="1.5" pointer-events="none"/>
                </g>
                <g id="zoomMin">
                        <use xlink:href="#rim" fill="#404040">
                                <set attributeName="fill" to="#808080" begin="zoomminus.mouseover" end="zoomminus.mouseout"/>
                        </use>
                        <path d="M-4,0h8" fill="none" stroke="white" stroke-width="1.5" pointer-events="none"/>
                </g>
                <g id="dirArrow">
                        <path fill="none" stroke="white" stroke-width="1.5" d="M0,-3.0v7 M-2.5,-0.5L0,-3.0L2.5,-0.5"/>
                </g>
               <g id="resetDef">
                       <use xlink:href="#rim2" fill="#404040">
                               <set attributeName="fill" to="#808080" begin="reset.mouseover" end="reset.mouseout"/>
                       </use>
               </g>
        </defs>

<script type="text/javascript">
var viewWidth = 872;
var viewHeight = 492;
var sectionId = 'dynsection-45';
</script>
<script xlink:href="svgpan.js"/>
<svg id="graph" class="graph">
<g id="viewport">
<title>TTrainController::ContinuationEntryFloatingTTString</title>
<polygon fill="white" stroke="transparent" points="-4,4 -4,-487.82 868,-487.82 868,4 -4,4"/>
<!-- Node1 -->
<g id="node1" class="node">
<title>Node1</title>
<g id="a_node1"><a xlink:title="Build string for use in floating window for expected trains at continuations.">
<polygon fill="#bfbfbf" stroke="black" points="0,-298.88 0,-328.88 144,-328.88 144,-298.88 0,-298.88"/>
<text text-anchor="start" x="8" y="-316.88" font-family="Helvetica,sans-Serif" font-size="10.00">TTrainController::Continuation</text>
<text text-anchor="middle" x="72" y="-305.88" font-family="Helvetica,sans-Serif" font-size="10.00">EntryFloatingTTString</text>
</a>
</g>
</g>
<!-- Node2 -->
<g id="node2" class="node">
<title>Node2</title>
<g id="a_node2"><a xlink:href="class_t_utilities.html#ae1eddca13cc3c492839e131f40ec21c0" target="_top" xlink:title="pops the last entry off the call stack, throws an error if called when empty">
<polygon fill="white" stroke="black" points="754,-303.38 754,-322.38 864,-322.38 864,-303.38 754,-303.38"/>
<text text-anchor="middle" x="809" y="-310.38" font-family="Helvetica,sans-Serif" font-size="10.00">TUtilities::CallLogPop</text>
</a>
</g>
</g>
<!-- Node1&#45;&gt;Node2 -->
<g id="edge1" class="edge">
<title>Node1&#45;&gt;Node2</title>
<path fill="none" stroke="midnightblue" d="M83.97,-329.01C101.54,-352.1 138.3,-395.86 180,-418.88 257.58,-461.7 285.99,-454.59 374,-464.88 526.68,-482.73 586.61,-508.69 718,-428.88 757.02,-405.18 785.5,-357.86 799.08,-331.57"/>
<polygon fill="midnightblue" stroke="midnightblue" points="802.22,-333.13 803.55,-322.62 795.95,-330 802.22,-333.13"/>
</g>
<!-- Node3 -->
<g id="node3" class="node">
<title>Node3</title>
<g id="a_node3"><a xlink:href="class_t_train_controller.html#a247f01d67fe9697522c47ceebd53d9ae" target="_top" xlink:title="Similar to TTrain::CheckNewServiceDepartureTime for use in ContinuationEntryFloatingTTString.">
<polygon fill="white" stroke="black" points="180,-342.88 180,-372.88 338,-372.88 338,-342.88 180,-342.88"/>
<text text-anchor="start" x="188" y="-360.88" font-family="Helvetica,sans-Serif" font-size="10.00">TTrainController::Controller</text>
<text text-anchor="middle" x="259" y="-349.88" font-family="Helvetica,sans-Serif" font-size="10.00">CheckNewServiceDepartureTime</text>
</a>
</g>
</g>
<!-- Node1&#45;&gt;Node3 -->
<g id="edge2" class="edge">
<title>Node1&#45;&gt;Node3</title>
<path fill="none" stroke="midnightblue" d="M136.15,-328.9C151.84,-332.63 168.79,-336.66 184.91,-340.5"/>
<polygon fill="midnightblue" stroke="midnightblue" points="184.28,-343.95 194.82,-342.85 185.9,-337.14 184.28,-343.95"/>
</g>
<!-- Node4 -->
<g id="node4" class="node">
<title>Node4</title>
<g id="a_node4"><a xlink:href="class_t_utilities.html#a6dc0e83b149563fdf43f068fd26cead8" target="_top" xlink:title="formats a TDateTime into an AnsiString of the form hh:mm where hh runs from 00 to 95 &amp; resets when it...">
<polygon fill="white" stroke="black" points="382,-436.38 382,-455.38 513,-455.38 513,-436.38 382,-436.38"/>
<text text-anchor="middle" x="447.5" y="-443.38" font-family="Helvetica,sans-Serif" font-size="10.00">TUtilities::Format96HHMM</text>
</a>
</g>
</g>
<!-- Node1&#45;&gt;Node4 -->
<g id="edge13" class="edge">
<title>Node1&#45;&gt;Node4</title>
<path fill="none" stroke="midnightblue" d="M91.98,-329C112.53,-344.65 146.85,-368.77 180,-382.88 242.08,-409.31 317.23,-425.79 371.88,-435.24"/>
<polygon fill="midnightblue" stroke="midnightblue" points="371.4,-438.71 381.84,-436.92 372.56,-431.81 371.4,-438.71"/>
</g>
<!-- Node5 -->
<g id="node5" class="node">
<title>Node5</title>
<g id="a_node5"><a xlink:href="class_t_train_controller.html#a2713e7d4bb329d65df8b3fa0ad59b6cf" target="_top" xlink:title="Get the interval between repeats.">
<polygon fill="white" stroke="black" points="374,-325.88 374,-355.88 521,-355.88 521,-325.88 374,-325.88"/>
<text text-anchor="start" x="382" y="-343.88" font-family="Helvetica,sans-Serif" font-size="10.00">TTrainController::GetController</text>
<text text-anchor="middle" x="447.5" y="-332.88" font-family="Helvetica,sans-Serif" font-size="10.00">TrainTime</text>
</a>
</g>
</g>
<!-- Node1&#45;&gt;Node5 -->
<g id="edge14" class="edge">
<title>Node1&#45;&gt;Node5</title>
<path fill="none" stroke="midnightblue" d="M144.13,-319.02C206.61,-323.54 297.56,-330.11 363.38,-334.87"/>
<polygon fill="midnightblue" stroke="midnightblue" points="363.5,-338.39 373.72,-335.62 364,-331.41 363.5,-338.39"/>
</g>
<!-- Node8 -->
<g id="node8" class="node">
<title>Node8</title>
<g id="a_node8"><a xlink:href="class_t_utilities.html#a34bd6bb5305bc29afdf424f6d35a921c" target="_top" xlink:title="creates a string of the form &#39;hh:mm:ss&#39; for use in call &amp; event logging">
<polygon fill="white" stroke="black" points="754,-101.38 754,-120.38 864,-120.38 864,-101.38 754,-101.38"/>
<text text-anchor="middle" x="809" y="-108.38" font-family="Helvetica,sans-Serif" font-size="10.00">TUtilities::TimeStamp</text>
</a>
</g>
</g>
<!-- Node1&#45;&gt;Node8 -->
<g id="edge27" class="edge">
<title>Node1&#45;&gt;Node8</title>
<path fill="none" stroke="midnightblue" d="M83.27,-298.67C117.43,-249.65 233.09,-95.98 374,-43.88 517.44,9.15 574.2,16.18 718,-35.88 749.51,-47.29 777.74,-75.08 793.86,-93.44"/>
<polygon fill="midnightblue" stroke="midnightblue" points="791.24,-95.76 800.38,-101.12 796.58,-91.23 791.24,-95.76"/>
</g>
<!-- Node9 -->
<g id="node9" class="node">
<title>Node9</title>
<g id="a_node9"><a xlink:href="class_t_train_controller.html#a0114e517611ab24d3b947c1781130a23" target="_top" xlink:title="Check all timetable names in ExitList, if all same return &quot; at [name]&quot; + AllowableExits = elements,...">
<polygon fill="white" stroke="black" points="386,-145.88 386,-175.88 509,-175.88 509,-145.88 386,-145.88"/>
<text text-anchor="start" x="394" y="-163.88" font-family="Helvetica,sans-Serif" font-size="10.00">TTrainController::GetExit</text>
<text text-anchor="middle" x="447.5" y="-152.88" font-family="Helvetica,sans-Serif" font-size="10.00">LocationAndAt</text>
</a>
</g>
</g>
<!-- Node1&#45;&gt;Node9 -->
<g id="edge15" class="edge">
<title>Node1&#45;&gt;Node9</title>
<path fill="none" stroke="midnightblue" d="M102.19,-298.81C123.52,-288.02 153.26,-273.42 180,-261.88 252.92,-230.42 339.17,-198.71 393.36,-179.42"/>
<polygon fill="midnightblue" stroke="midnightblue" points="394.84,-182.61 403.1,-175.97 392.5,-176.01 394.84,-182.61"/>
</g>
<!-- Node11 -->
<g id="node11" class="node">
<title>Node11</title>
<g id="a_node11"><a xlink:href="class_t_train_controller.html#afb0e8fd36435809350cb323ab9fe2213" target="_top" xlink:title="Return the service headcode for the repeat service.">
<polygon fill="white" stroke="black" points="379,-229.88 379,-259.88 516,-259.88 516,-229.88 379,-229.88"/>
<text text-anchor="start" x="387" y="-247.88" font-family="Helvetica,sans-Serif" font-size="10.00">TTrainController::GetRepeat</text>
<text text-anchor="middle" x="447.5" y="-236.88" font-family="Helvetica,sans-Serif" font-size="10.00">HeadCode</text>
</a>
</g>
</g>
<!-- Node1&#45;&gt;Node11 -->
<g id="edge21" class="edge">
<title>Node1&#45;&gt;Node11</title>
<path fill="none" stroke="midnightblue" d="M144.13,-300.74C208.35,-288.88 302.65,-271.46 368.82,-259.23"/>
<polygon fill="midnightblue" stroke="midnightblue" points="369.58,-262.65 378.78,-257.39 368.31,-255.77 369.58,-262.65"/>
</g>
<!-- Node3&#45;&gt;Node2 -->
<g id="edge3" class="edge">
<title>Node3&#45;&gt;Node2</title>
<path fill="none" stroke="midnightblue" d="M323.45,-372.92C432.08,-397.37 648.69,-440.12 718,-409.88 754.83,-393.81 783.34,-354.42 797.71,-331.08"/>
<polygon fill="midnightblue" stroke="midnightblue" points="800.74,-332.83 802.83,-322.45 794.72,-329.26 800.74,-332.83"/>
</g>
<!-- Node3&#45;&gt;Node4 -->
<g id="edge4" class="edge">
<title>Node3&#45;&gt;Node4</title>
<path fill="none" stroke="midnightblue" d="M292.81,-372.99C306.96,-379.84 323.55,-388.31 338,-396.88 354.75,-406.82 356.57,-413.17 374,-421.88 382.63,-426.19 392.2,-429.99 401.5,-433.22"/>
<polygon fill="midnightblue" stroke="midnightblue" points="400.43,-436.55 411.02,-436.38 402.63,-429.91 400.43,-436.55"/>
</g>
<!-- Node3&#45;&gt;Node5 -->
<g id="edge5" class="edge">
<title>Node3&#45;&gt;Node5</title>
<path fill="none" stroke="midnightblue" d="M338.01,-350.77C346.55,-349.99 355.26,-349.2 363.85,-348.41"/>
<polygon fill="midnightblue" stroke="midnightblue" points="364.22,-351.89 373.86,-347.5 363.59,-344.92 364.22,-351.89"/>
</g>
<!-- Node3&#45;&gt;Node8 -->
<g id="edge12" class="edge">
<title>Node3&#45;&gt;Node8</title>
<path fill="none" stroke="midnightblue" d="M263.82,-342.69C274.5,-303.21 308.25,-196.24 374,-135.88 489.27,-30.06 566.52,-21.63 718,-60.88 743.64,-67.52 769.75,-83.23 787.19,-95.28"/>
<polygon fill="midnightblue" stroke="midnightblue" points="785.3,-98.23 795.48,-101.18 789.37,-92.53 785.3,-98.23"/>
</g>
<!-- Node5&#45;&gt;Node2 -->
<g id="edge6" class="edge">
<title>Node5&#45;&gt;Node2</title>
<path fill="none" stroke="midnightblue" d="M474.21,-355.94C495.57,-367.52 527.17,-382.58 557,-388.88 627.01,-403.67 650.8,-413.46 718,-388.88 749.81,-377.25 778.13,-348.85 794.17,-330.26"/>
<polygon fill="midnightblue" stroke="midnightblue" points="796.92,-332.42 800.63,-322.5 791.54,-327.94 796.92,-332.42"/>
</g>
<!-- Node6 -->
<g id="node6" class="node">
<title>Node6</title>
<g id="a_node6"><a xlink:href="class_t_utilities.html#a2dfbe3d4ed11770bc1a902b51afdc10c" target="_top" xlink:title="formats a TDateTime into an AnsiString of the form hh:mm:ss where hh runs from 00 to 95 &amp; resets when...">
<polygon fill="white" stroke="black" points="565,-360.38 565,-379.38 710,-379.38 710,-360.38 565,-360.38"/>
<text text-anchor="middle" x="637.5" y="-367.38" font-family="Helvetica,sans-Serif" font-size="10.00">TUtilities::Format96HHMMSS</text>
</a>
</g>
</g>
<!-- Node5&#45;&gt;Node6 -->
<g id="edge7" class="edge">
<title>Node5&#45;&gt;Node6</title>
<path fill="none" stroke="midnightblue" d="M521.19,-352.09C535.4,-354.29 550.31,-356.58 564.5,-358.77"/>
<polygon fill="midnightblue" stroke="midnightblue" points="564.28,-362.28 574.69,-360.35 565.35,-355.36 564.28,-362.28"/>
</g>
<!-- Node7 -->
<g id="node7" class="node">
<title>Node7</title>
<g id="a_node7"><a xlink:href="class_t_train_controller.html#a435ef46f062904e85ae9792faaecdcf7" target="_top" xlink:title="Return the repeating service time.">
<polygon fill="white" stroke="black" points="558.5,-322.38 558.5,-341.38 716.5,-341.38 716.5,-322.38 558.5,-322.38"/>
<text text-anchor="middle" x="637.5" y="-329.38" font-family="Helvetica,sans-Serif" font-size="10.00">TTrainController::GetRepeatTime</text>
</a>
</g>
</g>
<!-- Node5&#45;&gt;Node7 -->
<g id="edge8" class="edge">
<title>Node5&#45;&gt;Node7</title>
<path fill="none" stroke="midnightblue" d="M521.19,-337.4C530.04,-336.98 539.17,-336.54 548.22,-336.11"/>
<polygon fill="midnightblue" stroke="midnightblue" points="548.58,-339.59 558.4,-335.62 548.24,-332.6 548.58,-339.59"/>
</g>
<!-- Node5&#45;&gt;Node8 -->
<g id="edge11" class="edge">
<title>Node5&#45;&gt;Node8</title>
<path fill="none" stroke="midnightblue" d="M484.37,-325.76C537.83,-302.38 640.43,-254.22 718,-197.88 747.1,-176.74 776.19,-146.57 793.12,-127.88"/>
<polygon fill="midnightblue" stroke="midnightblue" points="795.75,-130.2 799.8,-120.41 790.53,-125.54 795.75,-130.2"/>
</g>
<!-- Node7&#45;&gt;Node2 -->
<g id="edge9" class="edge">
<title>Node7&#45;&gt;Node2</title>
<path fill="none" stroke="midnightblue" d="M716.8,-323.1C725.78,-322.1 734.85,-321.08 743.62,-320.1"/>
<polygon fill="midnightblue" stroke="midnightblue" points="744.19,-323.55 753.74,-318.96 743.42,-316.6 744.19,-323.55"/>
</g>
<!-- Node7&#45;&gt;Node8 -->
<g id="edge10" class="edge">
<title>Node7&#45;&gt;Node8</title>
<path fill="none" stroke="midnightblue" d="M654.34,-322.24C671.56,-311.18 699.14,-291.75 718,-269.88 756.53,-225.21 786.58,-161.53 800.13,-130.03"/>
<polygon fill="midnightblue" stroke="midnightblue" points="803.42,-131.24 804.08,-120.66 796.97,-128.52 803.42,-131.24"/>
</g>
<!-- Node9&#45;&gt;Node2 -->
<g id="edge16" class="edge">
<title>Node9&#45;&gt;Node2</title>
<path fill="none" stroke="midnightblue" d="M490.56,-175.95C555.29,-199.29 676.25,-243.51 718,-262.88 740.92,-273.52 765.97,-287.65 783.81,-298.18"/>
<polygon fill="midnightblue" stroke="midnightblue" points="782.05,-301.2 792.43,-303.32 785.63,-295.19 782.05,-301.2"/>
</g>
<!-- Node9&#45;&gt;Node8 -->
<g id="edge17" class="edge">
<title>Node9&#45;&gt;Node8</title>
<path fill="none" stroke="midnightblue" d="M462.08,-145.55C481.01,-125.48 517.46,-91.27 557,-77.88 624.78,-54.93 647.55,-65.37 718,-77.88 738.96,-81.6 761.44,-89.84 778.69,-97.16"/>
<polygon fill="midnightblue" stroke="midnightblue" points="777.63,-100.51 788.19,-101.31 780.43,-94.1 777.63,-100.51"/>
</g>
<!-- Node10 -->
<g id="node10" class="node">
<title>Node10</title>
<g id="a_node10"><a xlink:href="class_t_track.html#ad377e5a1f152f2e89832c0f9bcfd261f" target="_top" xlink:title="A range&#45;checked version of TrackVector.at(At)">
<polygon fill="white" stroke="black" points="576.5,-120.38 576.5,-139.38 698.5,-139.38 698.5,-120.38 576.5,-120.38"/>
<text text-anchor="middle" x="637.5" y="-127.38" font-family="Helvetica,sans-Serif" font-size="10.00">TTrack::TrackElementAt</text>
</a>
</g>
</g>
<!-- Node9&#45;&gt;Node10 -->
<g id="edge18" class="edge">
<title>Node9&#45;&gt;Node10</title>
<path fill="none" stroke="midnightblue" d="M509.02,-150.9C528.03,-147.77 549.15,-144.28 568.63,-141.07"/>
<polygon fill="midnightblue" stroke="midnightblue" points="569.36,-144.5 578.66,-139.42 568.22,-137.59 569.36,-144.5"/>
</g>
<!-- Node10&#45;&gt;Node2 -->
<g id="edge19" class="edge">
<title>Node10&#45;&gt;Node2</title>
<path fill="none" stroke="midnightblue" d="M698.72,-138.47C705.63,-141.1 712.25,-144.49 718,-148.88 767.16,-186.39 792.98,-258.82 802.98,-293.48"/>
<polygon fill="midnightblue" stroke="midnightblue" points="799.66,-294.6 805.69,-303.31 806.41,-292.74 799.66,-294.6"/>
</g>
<!-- Node10&#45;&gt;Node8 -->
<g id="edge20" class="edge">
<title>Node10&#45;&gt;Node8</title>
<path fill="none" stroke="midnightblue" d="M698.74,-123.13C713.35,-121.49 729.02,-119.73 743.81,-118.08"/>
<polygon fill="midnightblue" stroke="midnightblue" points="744.34,-121.54 753.88,-116.95 743.56,-114.58 744.34,-121.54"/>
</g>
<!-- Node11&#45;&gt;Node2 -->
<g id="edge22" class="edge">
<title>Node11&#45;&gt;Node2</title>
<path fill="none" stroke="midnightblue" d="M516.12,-257.67C582.82,-270.29 683.83,-289.39 747.83,-301.5"/>
<polygon fill="midnightblue" stroke="midnightblue" points="747.29,-304.96 757.77,-303.38 748.59,-298.08 747.29,-304.96"/>
</g>
<!-- Node11&#45;&gt;Node8 -->
<g id="edge26" class="edge">
<title>Node11&#45;&gt;Node8</title>
<path fill="none" stroke="midnightblue" d="M471.63,-229.69C487.09,-218.66 507.07,-202.61 521,-184.88 543.6,-156.12 525.99,-130.28 557,-110.88 621.59,-70.47 715.04,-85.26 767.79,-98.7"/>
<polygon fill="midnightblue" stroke="midnightblue" points="767.22,-102.17 777.78,-101.35 769.01,-95.4 767.22,-102.17"/>
</g>
<!-- Node12 -->
<g id="node12" class="node">
<title>Node12</title>
<g id="a_node12"><a xlink:href="class_t_train_controller.html#a6fc210d266e7672ccc648c0a9ab4e542" target="_top" xlink:title="Checks the last two characters in HeadCode and returns true if both are digits.">
<polygon fill="white" stroke="black" points="557,-158.88 557,-188.88 718,-188.88 718,-158.88 557,-158.88"/>
<text text-anchor="start" x="565" y="-176.88" font-family="Helvetica,sans-Serif" font-size="10.00">TTrainController::Last2Characters</text>
<text text-anchor="middle" x="637.5" y="-165.88" font-family="Helvetica,sans-Serif" font-size="10.00">BothDigits</text>
</a>
</g>
</g>
<!-- Node11&#45;&gt;Node12 -->
<g id="edge23" class="edge">
<title>Node11&#45;&gt;Node12</title>
<path fill="none" stroke="midnightblue" d="M488.37,-229.82C517.16,-218.95 556.22,-204.2 587.01,-192.57"/>
<polygon fill="midnightblue" stroke="midnightblue" points="588.57,-195.72 596.69,-188.92 586.1,-189.17 588.57,-195.72"/>
</g>
<!-- Node12&#45;&gt;Node2 -->
<g id="edge24" class="edge">
<title>Node12&#45;&gt;Node2</title>
<path fill="none" stroke="midnightblue" d="M690.53,-189.04C700.13,-193.05 709.72,-197.96 718,-203.88 752.92,-228.84 782.13,-270.58 797.14,-294.51"/>
<polygon fill="midnightblue" stroke="midnightblue" points="794.31,-296.59 802.51,-303.3 800.28,-292.94 794.31,-296.59"/>
</g>
<!-- Node12&#45;&gt;Node8 -->
<g id="edge25" class="edge">
<title>Node12&#45;&gt;Node8</title>
<path fill="none" stroke="midnightblue" d="M688.79,-158.86C698.53,-155.73 708.63,-152.32 718,-148.88 737.96,-141.55 759.96,-132.28 777.21,-124.73"/>
<polygon fill="midnightblue" stroke="midnightblue" points="779.03,-127.76 786.77,-120.52 776.21,-121.35 779.03,-127.76"/>
</g>
</g>
</svg>
        <g id="navigator" transform="translate(0 0)" fill="#404254">
                <rect fill="#f2f5e9" fill-opacity="0.5" stroke="#606060" stroke-width=".5" x="0" y="0" width="60" height="60"/>
                <use id="zoomplus" xlink:href="#zoomPlus" x="17" y="9" onmousedown="handleZoom(evt,'in')"/>
                <use id="zoomminus" xlink:href="#zoomMin" x="42" y="9" onmousedown="handleZoom(evt,'out')"/>
                <use id="reset" xlink:href="#resetDef" x="30" y="36" onmousedown="handleReset()"/>
                <g id="arrowUp" xlink:href="#dirArrow" transform="translate(30 24)" onmousedown="handlePan(0,-1)">
                  <use xlink:href="#rim" fill="#404040">
                        <set attributeName="fill" to="#808080" begin="arrowUp.mouseover" end="arrowUp.mouseout"/>
                  </use>
                  <path fill="none" stroke="white" stroke-width="1.5" d="M0,-3.0v7 M-2.5,-0.5L0,-3.0L2.5,-0.5"/>
                </g>
                <g id="arrowRight" xlink:href="#dirArrow" transform="rotate(90) translate(36 -43)" onmousedown="handlePan(1,0)">
                  <use xlink:href="#rim" fill="#404040">
                        <set attributeName="fill" to="#808080" begin="arrowRight.mouseover" end="arrowRight.mouseout"/>
                  </use>
                  <path fill="none" stroke="white" stroke-width="1.5" d="M0,-3.0v7 M-2.5,-0.5L0,-3.0L2.5,-0.5"/>
                </g>
                <g id="arrowDown" xlink:href="#dirArrow" transform="rotate(180) translate(-30 -48)" onmousedown="handlePan(0,1)">
                  <use xlink:href="#rim" fill="#404040">
                        <set attributeName="fill" to="#808080" begin="arrowDown.mouseover" end="arrowDown.mouseout"/>
                  </use>
                  <path fill="none" stroke="white" stroke-width="1.5" d="M0,-3.0v7 M-2.5,-0.5L0,-3.0L2.5,-0.5"/>
                </g>
                <g id="arrowLeft" xlink:href="#dirArrow" transform="rotate(270) translate(-36 17)" onmousedown="handlePan(-1,0)">
                  <use xlink:href="#rim" fill="#404040">
                        <set attributeName="fill" to="#808080" begin="arrowLeft.mouseover" end="arrowLeft.mouseout"/>
                  </use>
                  <path fill="none" stroke="white" stroke-width="1.5" d="M0,-3.0v7 M-2.5,-0.5L0,-3.0L2.5,-0.5"/>
                </g>
        </g>
        <svg viewBox="0 0 15 15" width="100%" height="30px" preserveAspectRatio="xMaxYMin meet">
         <g id="arrow_out" transform="scale(0.3 0.3)">
          <a xlink:href="class_t_train_controller_a9c531d3df66921ada4e698bcf47f72f3_cgraph_org.svg" target="_base">
           <rect id="button" ry="5" rx="5" y="6" x="6" height="38" width="38"
                fill="#f2f5e9" fill-opacity="0.5" stroke="#606060" stroke-width="1.0"/>
           <path id="arrow"
             d="M 11.500037,31.436501 C 11.940474,20.09759 22.043105,11.32322 32.158766,21.979434 L 37.068811,17.246167 C 37.068811,17.246167 37.088388,32 37.088388,32 L 22.160133,31.978069 C 22.160133,31.978069 26.997745,27.140456 26.997745,27.140456 C 18.528582,18.264221 13.291696,25.230495 11.500037,31.436501 z"
             style="fill:#404040;"/>
          </a>
         </g>
        </svg>
</svg>
