<?xml version="1.0" encoding="UTF-8" standalone="no"?>
<!DOCTYPE svg PUBLIC "-//W3C//DTD SVG 1.1//EN"
 "http://www.w3.org/Graphics/SVG/1.1/DTD/svg11.dtd">
<!-- Generated by graphviz version 2.44.1 (20200629.0800)
 -->
<!-- Title: TOneRoute::GetPreferredRouteStartElement Pages: 1 -->
<!--zoomable 944 -->
<svg id="main" version="1.1" xmlns="http://www.w3.org/2000/svg" xmlns:xlink="http://www.w3.org/1999/xlink" xml:space="preserve" onload="init(evt)">
<style type="text/css"><![CDATA[
.edge:hover path { stroke: red; }
.edge:hover polygon { stroke: red; fill: red; }
]]></style>
<script type="text/javascript"><![CDATA[
var edges = document.getElementsByTagName('g');
if (edges && edges.length) {
  for (var i=0;i<edges.length;i++) {
    if (edges[i].id.substr(0,4)=='edge') {
      edges[i].setAttribute('class','edge');
    }
  }
}
]]></script>
        <defs>
                <circle id="rim" cx="0" cy="0" r="7"/>
                <circle id="rim2" cx="0" cy="0" r="3.5"/>
                <g id="zoomPlus">
                        <use xlink:href="#rim" fill="#404040">
                                <set attributeName="fill" to="#808080" begin="zoomplus.mouseover" end="zoomplus.mouseout"/>
                        </use>
                        <path d="M-4,0h8M0,-4v8" fill="none" stroke="white" stroke-width="1.5" pointer-events="none"/>
                </g>
                <g id="zoomMin">
                        <use xlink:href="#rim" fill="#404040">
                                <set attributeName="fill" to="#808080" begin="zoomminus.mouseover" end="zoomminus.mouseout"/>
                        </use>
                        <path d="M-4,0h8" fill="none" stroke="white" stroke-width="1.5" pointer-events="none"/>
                </g>
                <g id="dirArrow">
                        <path fill="none" stroke="white" stroke-width="1.5" d="M0,-3.0v7 M-2.5,-0.5L0,-3.0L2.5,-0.5"/>
                </g>
               <g id="resetDef">
                       <use xlink:href="#rim2" fill="#404040">
                               <set attributeName="fill" to="#808080" begin="reset.mouseover" end="reset.mouseout"/>
                       </use>
               </g>
        </defs>

<script type="text/javascript">
var viewWidth = 737;
var viewHeight = 944;
var sectionId = 'dynsection-17';
</script>
<script xlink:href="svgpan.js"/>
<svg id="graph" class="graph">
<g id="viewport">
<title>TOneRoute::GetPreferredRouteStartElement</title>
<polygon fill="white" stroke="transparent" points="-4,4 -4,-940.08 733,-940.08 733,4 -4,4"/>
<!-- Node1 -->
<g id="node1" class="node">
<title>Node1</title>
<g id="a_node1"><a xlink:title="Set the starting conditions for a preferred direction or automatic signal route selection beginning o...">
<polygon fill="#bfbfbf" stroke="black" points="0,-414.08 0,-444.08 152,-444.08 152,-414.08 0,-414.08"/>
<text text-anchor="start" x="8" y="-432.08" font-family="Helvetica,sans-Serif" font-size="10.00">TOneRoute::GetPreferredRoute</text>
<text text-anchor="middle" x="76" y="-421.08" font-family="Helvetica,sans-Serif" font-size="10.00">StartElement</text>
</a>
</g>
</g>
<!-- Node2 -->
<g id="node2" class="node">
<title>Node2</title>
<g id="a_node2"><a xlink:href="class_t_all_routes.html#a438b71f3afbc2c8adb45b47f69cb3bb9" target="_top" xlink:title="Returns the number of routes in the railway.">
<polygon fill="white" stroke="black" points="222,-916.58 222,-935.58 353,-935.58 353,-916.58 222,-916.58"/>
<text text-anchor="middle" x="287.5" y="-923.58" font-family="Helvetica,sans-Serif" font-size="10.00">TAllRoutes::AllRoutesSize</text>
</a>
</g>
</g>
<!-- Node1&#45;&gt;Node2 -->
<g id="edge1" class="edge">
<title>Node1&#45;&gt;Node2</title>
<path fill="none" stroke="midnightblue" d="M78.45,-444.26C85.76,-517.59 120.89,-834.4 188,-902.08 194.81,-908.95 203.23,-913.97 212.25,-917.63"/>
<polygon fill="midnightblue" stroke="midnightblue" points="211.24,-920.98 221.84,-920.97 213.54,-914.37 211.24,-920.98"/>
</g>
<!-- Node3 -->
<g id="node3" class="node">
<title>Node3</title>
<g id="a_node3"><a xlink:href="class_t_utilities.html#ae1eddca13cc3c492839e131f40ec21c0" target="_top" xlink:title="pops the last entry off the call stack, throws an error if called when empty">
<polygon fill="white" stroke="black" points="619,-446.58 619,-465.58 729,-465.58 729,-446.58 619,-446.58"/>
<text text-anchor="middle" x="674" y="-453.58" font-family="Helvetica,sans-Serif" font-size="10.00">TUtilities::CallLogPop</text>
</a>
</g>
</g>
<!-- Node1&#45;&gt;Node3 -->
<g id="edge2" class="edge">
<title>Node1&#45;&gt;Node3</title>
<path fill="none" stroke="midnightblue" d="M76.39,-414.04C75.09,-359 78.79,-167.48 188,-85.08 328.17,20.67 445.24,31.79 583,-77.08 640.67,-122.67 665.3,-364.15 671.41,-435.94"/>
<polygon fill="midnightblue" stroke="midnightblue" points="667.96,-436.61 672.26,-446.29 674.93,-436.04 667.96,-436.61"/>
</g>
<!-- Node4 -->
<g id="node4" class="node">
<title>Node4</title>
<g id="a_node4"><a xlink:href="class_t_one_route.html#a05ce65e80c2272a775f6497890d42b6b" target="_top" xlink:title="Empty the route of any stored elements.">
<polygon fill="white" stroke="black" points="228,-752.58 228,-771.58 347,-771.58 347,-752.58 228,-752.58"/>
<text text-anchor="middle" x="287.5" y="-759.58" font-family="Helvetica,sans-Serif" font-size="10.00">TOneRoute::ClearRoute</text>
</a>
</g>
</g>
<!-- Node1&#45;&gt;Node4 -->
<g id="edge3" class="edge">
<title>Node1&#45;&gt;Node4</title>
<path fill="none" stroke="midnightblue" d="M77.38,-444.43C79.53,-495.63 93.79,-661.98 188,-743.08 196.58,-750.47 207.14,-755.33 218.14,-758.47"/>
<polygon fill="midnightblue" stroke="midnightblue" points="217.33,-761.87 227.87,-760.81 218.96,-755.07 217.33,-761.87"/>
</g>
<!-- Node5 -->
<g id="node5" class="node">
<title>Node5</title>
<g id="a_node5"><a xlink:href="class_t_track.html#ad55e3329a208e84e9e7519cc024b7aec" target="_top" xlink:title="True if find a non&#45;platform element at HLoc &amp; VLoc, and if so return its TrackVector position and a r...">
<polygon fill="white" stroke="black" points="212,-594.58 212,-613.58 363,-613.58 363,-594.58 212,-594.58"/>
<text text-anchor="middle" x="287.5" y="-601.58" font-family="Helvetica,sans-Serif" font-size="10.00">TTrack::FindNonPlatformMatch</text>
</a>
</g>
</g>
<!-- Node1&#45;&gt;Node5 -->
<g id="edge4" class="edge">
<title>Node1&#45;&gt;Node5</title>
<path fill="none" stroke="midnightblue" d="M88.3,-444.33C107.01,-468.84 146.5,-517.54 188,-550.08 208.8,-566.39 235.19,-580.57 255.41,-590.3"/>
<polygon fill="midnightblue" stroke="midnightblue" points="253.97,-593.49 264.51,-594.58 256.95,-587.16 253.97,-593.49"/>
</g>
<!-- Node7 -->
<g id="node7" class="node">
<title>Node7</title>
<g id="a_node7"><a xlink:href="class_t_utilities.html#a34bd6bb5305bc29afdf424f6d35a921c" target="_top" xlink:title="creates a string of the form &#39;hh:mm:ss&#39; for use in call &amp; event logging">
<polygon fill="white" stroke="black" points="619,-489.58 619,-508.58 729,-508.58 729,-489.58 619,-489.58"/>
<text text-anchor="middle" x="674" y="-496.58" font-family="Helvetica,sans-Serif" font-size="10.00">TUtilities::TimeStamp</text>
</a>
</g>
</g>
<!-- Node1&#45;&gt;Node7 -->
<g id="edge41" class="edge">
<title>Node1&#45;&gt;Node7</title>
<path fill="none" stroke="midnightblue" d="M77.16,-444.19C78.57,-497.93 90.61,-681.84 188,-781.08 265.18,-859.73 314.26,-842.3 423,-860.08 493.18,-871.57 526.96,-903.87 583,-860.08 638.21,-816.95 664.47,-587.71 671.21,-518.74"/>
<polygon fill="midnightblue" stroke="midnightblue" points="674.69,-519.05 672.15,-508.77 667.73,-518.39 674.69,-519.05"/>
</g>
<!-- Node9 -->
<g id="node9" class="node">
<title>Node9</title>
<g id="a_node9"><a xlink:href="class_t_one_pref_dir.html#a5b67e5aaa86d324229aedc68f32f32b8" target="_top" xlink:title="Return a non&#45;modifiable element at PrefDirVector position &#39;At&#39;.">
<polygon fill="white" stroke="black" points="437,-163.08 437,-193.08 569,-193.08 569,-163.08 437,-163.08"/>
<text text-anchor="start" x="445" y="-181.08" font-family="Helvetica,sans-Serif" font-size="10.00">TOnePrefDir::GetFixedPref</text>
<text text-anchor="middle" x="503" y="-170.08" font-family="Helvetica,sans-Serif" font-size="10.00">DirElementAt</text>
</a>
</g>
</g>
<!-- Node1&#45;&gt;Node9 -->
<g id="edge11" class="edge">
<title>Node1&#45;&gt;Node9</title>
<path fill="none" stroke="midnightblue" d="M84.51,-413.75C99.83,-384.01 137.58,-318.23 188,-282.08 227.67,-253.65 353.09,-217.12 432.9,-195.79"/>
<polygon fill="midnightblue" stroke="midnightblue" points="434.12,-199.09 442.88,-193.14 432.32,-192.32 434.12,-199.09"/>
</g>
<!-- Node10 -->
<g id="node10" class="node">
<title>Node10</title>
<g id="a_node10"><a xlink:href="class_t_all_routes.html#a7d9f820738af6314f2b9a4a1f52bb64a" target="_top" xlink:title="Returns a constant reference to the route at AllRoutesVector position &#39;At&#39;, after performing range ch...">
<polygon fill="white" stroke="black" points="430.5,-550.58 430.5,-569.58 575.5,-569.58 575.5,-550.58 430.5,-550.58"/>
<text text-anchor="middle" x="503" y="-557.58" font-family="Helvetica,sans-Serif" font-size="10.00">TAllRoutes::GetFixedRouteAt</text>
</a>
</g>
</g>
<!-- Node1&#45;&gt;Node10 -->
<g id="edge14" class="edge">
<title>Node1&#45;&gt;Node10</title>
<path fill="none" stroke="midnightblue" d="M118.2,-444.14C139.04,-451.61 164.77,-460.61 188,-468.08 283.27,-498.76 396.14,-530.79 457.25,-547.78"/>
<polygon fill="midnightblue" stroke="midnightblue" points="456.4,-551.17 466.97,-550.47 458.27,-544.43 456.4,-551.17"/>
</g>
<!-- Node11 -->
<g id="node11" class="node">
<title>Node11</title>
<g id="a_node11"><a xlink:href="class_t_all_routes.html#a7eda7a4b535c7538e217bbbc4d878071" target="_top" xlink:title="Retrieve up to two TRouteElementPair entries from Route2MultiMap at H &amp; V, the first as a function re...">
<polygon fill="white" stroke="black" points="429.5,-414.08 429.5,-444.08 576.5,-444.08 576.5,-414.08 429.5,-414.08"/>
<text text-anchor="start" x="437.5" y="-432.08" font-family="Helvetica,sans-Serif" font-size="10.00">TAllRoutes::GetRouteElement</text>
<text text-anchor="middle" x="503" y="-421.08" font-family="Helvetica,sans-Serif" font-size="10.00">DataFromRoute2MultiMap</text>
</a>
</g>
</g>
<!-- Node1&#45;&gt;Node11 -->
<g id="edge17" class="edge">
<title>Node1&#45;&gt;Node11</title>
<path fill="none" stroke="midnightblue" d="M152,-429.08C226.81,-429.08 341.45,-429.08 418.96,-429.08"/>
<polygon fill="midnightblue" stroke="midnightblue" points="419.17,-432.58 429.17,-429.08 419.17,-425.58 419.17,-432.58"/>
</g>
<!-- Node12 -->
<g id="node12" class="node">
<title>Node12</title>
<g id="a_node12"><a xlink:href="class_t_one_pref_dir.html#a820f6cc109de519289e6a63dac835ebc" target="_top" xlink:title="Return up to 4 vector positions for a given HLoc &amp; VLoc; unused values return &#45;1.">
<polygon fill="white" stroke="black" points="423,-365.08 423,-395.08 583,-395.08 583,-365.08 423,-365.08"/>
<text text-anchor="start" x="431" y="-383.08" font-family="Helvetica,sans-Serif" font-size="10.00">TOnePrefDir::GetVectorPositions</text>
<text text-anchor="middle" x="503" y="-372.08" font-family="Helvetica,sans-Serif" font-size="10.00">FromPrefDir4MultiMap</text>
</a>
</g>
</g>
<!-- Node1&#45;&gt;Node12 -->
<g id="edge20" class="edge">
<title>Node1&#45;&gt;Node12</title>
<path fill="none" stroke="midnightblue" d="M152,-420.44C224.75,-412.05 335.19,-399.32 412.49,-390.4"/>
<polygon fill="midnightblue" stroke="midnightblue" points="413.17,-393.85 422.7,-389.23 412.37,-386.9 413.17,-393.85"/>
</g>
<!-- Node13 -->
<g id="node13" class="node">
<title>Node13</title>
<g id="a_node13"><a xlink:href="class_t_all_routes.html#aa92b37f73176fcf3454688bb15b9f64c" target="_top" xlink:title="Checks whether the preferred direction element at TrackVectorPosition with XLinkPos value is in a loc...">
<polygon fill="white" stroke="black" points="188,-157.58 188,-198.58 387,-198.58 387,-157.58 188,-157.58"/>
<text text-anchor="start" x="196" y="-186.58" font-family="Helvetica,sans-Serif" font-size="10.00">TAllRoutes::IsElementInLocked</text>
<text text-anchor="start" x="196" y="-175.58" font-family="Helvetica,sans-Serif" font-size="10.00">RouteGetPrefDirElementGetLockedVector</text>
<text text-anchor="middle" x="287.5" y="-164.58" font-family="Helvetica,sans-Serif" font-size="10.00">Number</text>
</a>
</g>
</g>
<!-- Node1&#45;&gt;Node13 -->
<g id="edge23" class="edge">
<title>Node1&#45;&gt;Node13</title>
<path fill="none" stroke="midnightblue" d="M81.53,-413.88C93.27,-376.79 128.06,-280.57 188,-224.08 196.64,-215.94 206.98,-209.03 217.66,-203.22"/>
<polygon fill="midnightblue" stroke="midnightblue" points="219.37,-206.28 226.68,-198.61 216.19,-200.05 219.37,-206.28"/>
</g>
<!-- Node14 -->
<g id="node14" class="node">
<title>Node14</title>
<g id="a_node14"><a xlink:href="class_t_one_pref_dir.html#a29d013bf730e23d27fdb2c390e3a14da" target="_top" xlink:title="Return the vector size.">
<polygon fill="white" stroke="black" points="441,-86.58 441,-105.58 565,-105.58 565,-86.58 441,-86.58"/>
<text text-anchor="middle" x="503" y="-93.58" font-family="Helvetica,sans-Serif" font-size="10.00">TOnePrefDir::PrefDirSize</text>
</a>
</g>
</g>
<!-- Node1&#45;&gt;Node14 -->
<g id="edge37" class="edge">
<title>Node1&#45;&gt;Node14</title>
<path fill="none" stroke="midnightblue" d="M77.99,-413.91C81.96,-366.2 101.08,-218.28 188,-148.08 256.39,-92.86 361.04,-86.19 430.47,-89.05"/>
<polygon fill="midnightblue" stroke="midnightblue" points="430.71,-92.57 440.87,-89.56 431.06,-85.58 430.71,-92.57"/>
</g>
<!-- Node15 -->
<g id="node15" class="node">
<title>Node15</title>
<g id="a_node15"><a xlink:href="class_t_track.html#a73e781d0ada0b77618b886557f79b115" target="_top" xlink:title="True if a level crossing is found at H &amp; V.">
<polygon fill="white" stroke="black" points="240,-714.58 240,-733.58 335,-733.58 335,-714.58 240,-714.58"/>
<text text-anchor="middle" x="287.5" y="-721.58" font-family="Helvetica,sans-Serif" font-size="10.00">TTrack::IsLCAtHV</text>
</a>
</g>
</g>
<!-- Node1&#45;&gt;Node15 -->
<g id="edge28" class="edge">
<title>Node1&#45;&gt;Node15</title>
<path fill="none" stroke="midnightblue" d="M84.02,-444.23C100.01,-477.99 141.38,-561.28 188,-623.08 212.61,-655.71 246.98,-688.71 267.94,-707.74"/>
<polygon fill="midnightblue" stroke="midnightblue" points="265.74,-710.47 275.52,-714.55 270.42,-705.26 265.74,-710.47"/>
</g>
<!-- Node18 -->
<g id="node18" class="node">
<title>Node18</title>
<g id="a_node18"><a xlink:href="class_t_train_controller.html#aba5615209a7dca921e968fca5c52c060" target="_top" xlink:title="sends a message to the user and stops the timetable clock while it is displayed">
<polygon fill="white" stroke="black" points="430,-463.08 430,-493.08 576,-493.08 576,-463.08 430,-463.08"/>
<text text-anchor="start" x="438" y="-481.08" font-family="Helvetica,sans-Serif" font-size="10.00">TTrainController::StopTTClock</text>
<text text-anchor="middle" x="503" y="-470.08" font-family="Helvetica,sans-Serif" font-size="10.00">Message</text>
</a>
</g>
</g>
<!-- Node1&#45;&gt;Node18 -->
<g id="edge38" class="edge">
<title>Node1&#45;&gt;Node18</title>
<path fill="none" stroke="midnightblue" d="M152.21,-438.72C164.18,-440.21 176.43,-441.71 188,-443.08 266.56,-452.42 356.26,-462.34 419.61,-469.23"/>
<polygon fill="midnightblue" stroke="midnightblue" points="419.63,-472.75 429.94,-470.35 420.38,-465.79 419.63,-472.75"/>
</g>
<!-- Node19 -->
<g id="node19" class="node">
<title>Node19</title>
<g id="a_node19"><a xlink:href="class_t_track.html#ad377e5a1f152f2e89832c0f9bcfd261f" target="_top" xlink:title="A range&#45;checked version of TrackElement.at(At)">
<polygon fill="white" stroke="black" points="442,-288.58 442,-307.58 564,-307.58 564,-288.58 442,-288.58"/>
<text text-anchor="middle" x="503" y="-295.58" font-family="Helvetica,sans-Serif" font-size="10.00">TTrack::TrackElementAt</text>
</a>
</g>
</g>
<!-- Node1&#45;&gt;Node19 -->
<g id="edge42" class="edge">
<title>Node1&#45;&gt;Node19</title>
<path fill="none" stroke="midnightblue" d="M118.2,-414.02C139.04,-406.56 164.77,-397.56 188,-390.08 283.27,-359.41 396.14,-327.38 457.25,-310.39"/>
<polygon fill="midnightblue" stroke="midnightblue" points="458.27,-313.74 466.97,-307.7 456.4,-307 458.27,-313.74"/>
</g>
<!-- Node20 -->
<g id="node20" class="node">
<title>Node20</title>
<g id="a_node20"><a xlink:href="class_t_all_routes.html#aace498b67ccef13364a1afa1f5f15311" target="_top" xlink:title="Examines Route2MultiMap and if the element at TrackVectorPosition with LinkPos (can be entry or exit)...">
<polygon fill="white" stroke="black" points="217,-291.58 217,-310.58 358,-310.58 358,-291.58 217,-291.58"/>
<text text-anchor="middle" x="287.5" y="-298.58" font-family="Helvetica,sans-Serif" font-size="10.00">TAllRoutes::TrackIsInARoute</text>
</a>
</g>
</g>
<!-- Node1&#45;&gt;Node20 -->
<g id="edge45" class="edge">
<title>Node1&#45;&gt;Node20</title>
<path fill="none" stroke="midnightblue" d="M90.63,-413.98C110.27,-393.07 148.5,-355.37 188,-333.08 202.39,-324.97 219.14,-318.56 234.7,-313.67"/>
<polygon fill="midnightblue" stroke="midnightblue" points="236.13,-316.89 244.71,-310.68 234.13,-310.19 236.13,-316.89"/>
</g>
<!-- Node5&#45;&gt;Node3 -->
<g id="edge5" class="edge">
<title>Node5&#45;&gt;Node3</title>
<path fill="none" stroke="midnightblue" d="M305.86,-594.54C331.03,-581.03 379.42,-556.29 423,-541.08 492.01,-517.01 515.7,-531.6 583,-503.08 600.48,-495.68 602.28,-489.08 619,-480.08 625.71,-476.48 633.07,-472.94 640.14,-469.74"/>
<polygon fill="midnightblue" stroke="midnightblue" points="641.77,-472.85 649.51,-465.61 638.95,-466.44 641.77,-472.85"/>
</g>
<!-- Node6 -->
<g id="node6" class="node">
<title>Node6</title>
<g id="a_node6"><a xlink:href="class_t_track.html#aa0812972d1ae27198c5fbca8aa7b6134" target="_top" xlink:title="Returns the track vector position corresponding to the Hloc &amp; VLoc positions, FoundFlag indicates whe...">
<polygon fill="white" stroke="black" points="437.5,-589.08 437.5,-619.08 568.5,-619.08 568.5,-589.08 437.5,-589.08"/>
<text text-anchor="start" x="445.5" y="-607.08" font-family="Helvetica,sans-Serif" font-size="10.00">TTrack::GetVectorPosition</text>
<text text-anchor="middle" x="503" y="-596.08" font-family="Helvetica,sans-Serif" font-size="10.00">FromTrackMap</text>
</a>
</g>
</g>
<!-- Node5&#45;&gt;Node6 -->
<g id="edge6" class="edge">
<title>Node5&#45;&gt;Node6</title>
<path fill="none" stroke="midnightblue" d="M363.17,-604.08C383.94,-604.08 406.5,-604.08 427.27,-604.08"/>
<polygon fill="midnightblue" stroke="midnightblue" points="427.31,-607.58 437.31,-604.08 427.31,-600.58 427.31,-607.58"/>
</g>
<!-- Node5&#45;&gt;Node7 -->
<g id="edge10" class="edge">
<title>Node5&#45;&gt;Node7</title>
<path fill="none" stroke="midnightblue" d="M302.55,-613.66C347.03,-642.69 487.45,-724.29 583,-667.08 637.8,-634.27 661.13,-555.43 669.29,-518.62"/>
<polygon fill="midnightblue" stroke="midnightblue" points="672.75,-519.15 671.35,-508.65 665.9,-517.73 672.75,-519.15"/>
</g>
<!-- Node8 -->
<g id="node8" class="node">
<title>Node8</title>
<g id="a_node8"><a xlink:href="class_t_track_element.html#a100bff829c4dca820927affde4cb9e57" target="_top" xlink:title="Used to log track parameters for call stack logging.">
<polygon fill="white" stroke="black" points="439,-638.58 439,-657.58 567,-657.58 567,-638.58 439,-638.58"/>
<text text-anchor="middle" x="503" y="-645.58" font-family="Helvetica,sans-Serif" font-size="10.00">TTrackElement::LogTrack</text>
</a>
</g>
</g>
<!-- Node5&#45;&gt;Node8 -->
<g id="edge9" class="edge">
<title>Node5&#45;&gt;Node8</title>
<path fill="none" stroke="midnightblue" d="M334.83,-613.63C367.42,-620.35 411.22,-629.38 445.81,-636.5"/>
<polygon fill="midnightblue" stroke="midnightblue" points="445.26,-639.97 455.76,-638.56 446.68,-633.11 445.26,-639.97"/>
</g>
<!-- Node6&#45;&gt;Node3 -->
<g id="edge7" class="edge">
<title>Node6&#45;&gt;Node3</title>
<path fill="none" stroke="midnightblue" d="M568.56,-589.44C573.82,-586.58 578.74,-583.17 583,-579.08 616.8,-546.69 587.06,-514.32 619,-480.08 622.54,-476.29 626.79,-473.06 631.33,-470.32"/>
<polygon fill="midnightblue" stroke="midnightblue" points="633.07,-473.36 640.31,-465.62 629.82,-467.15 633.07,-473.36"/>
</g>
<!-- Node6&#45;&gt;Node7 -->
<g id="edge8" class="edge">
<title>Node6&#45;&gt;Node7</title>
<path fill="none" stroke="midnightblue" d="M561.74,-588.96C569.1,-586.13 576.37,-582.85 583,-579.08 612.79,-562.16 641.33,-534.12 658,-516.13"/>
<polygon fill="midnightblue" stroke="midnightblue" points="660.66,-518.4 664.79,-508.65 655.48,-513.7 660.66,-518.4"/>
</g>
<!-- Node9&#45;&gt;Node3 -->
<g id="edge12" class="edge">
<title>Node9&#45;&gt;Node3</title>
<path fill="none" stroke="midnightblue" d="M561.55,-193.09C569.45,-197 576.92,-201.92 583,-208.08 647.9,-273.95 666.41,-390.17 671.34,-436.36"/>
<polygon fill="midnightblue" stroke="midnightblue" points="667.87,-436.9 672.32,-446.52 674.84,-436.23 667.87,-436.9"/>
</g>
<!-- Node9&#45;&gt;Node7 -->
<g id="edge13" class="edge">
<title>Node9&#45;&gt;Node7</title>
<path fill="none" stroke="midnightblue" d="M529.61,-193.17C547.56,-205.17 570.5,-223.63 583,-246.08 633.12,-336.1 556.3,-393.33 619,-475.08 621.78,-478.71 625.22,-481.8 629.02,-484.43"/>
<polygon fill="midnightblue" stroke="midnightblue" points="627.36,-487.51 637.77,-489.49 630.86,-481.45 627.36,-487.51"/>
</g>
<!-- Node10&#45;&gt;Node3 -->
<g id="edge15" class="edge">
<title>Node10&#45;&gt;Node3</title>
<path fill="none" stroke="midnightblue" d="M554.59,-550.5C564.64,-547.06 574.65,-542.39 583,-536.08 606.6,-518.24 596.54,-499.35 619,-480.08 623.49,-476.23 628.7,-472.9 634.07,-470.05"/>
<polygon fill="midnightblue" stroke="midnightblue" points="635.66,-473.16 643.17,-465.69 632.64,-466.85 635.66,-473.16"/>
</g>
<!-- Node10&#45;&gt;Node7 -->
<g id="edge16" class="edge">
<title>Node10&#45;&gt;Node7</title>
<path fill="none" stroke="midnightblue" d="M538.06,-550.51C552.08,-546.37 568.42,-541.28 583,-536.08 602.82,-529.02 624.66,-520.07 641.86,-512.74"/>
<polygon fill="midnightblue" stroke="midnightblue" points="643.6,-515.81 651.4,-508.64 640.83,-509.37 643.6,-515.81"/>
</g>
<!-- Node11&#45;&gt;Node3 -->
<g id="edge18" class="edge">
<title>Node11&#45;&gt;Node3</title>
<path fill="none" stroke="midnightblue" d="M576.65,-440.69C587.36,-442.4 598.33,-444.16 608.86,-445.84"/>
<polygon fill="midnightblue" stroke="midnightblue" points="608.36,-449.3 618.79,-447.42 609.46,-442.39 608.36,-449.3"/>
</g>
<!-- Node11&#45;&gt;Node7 -->
<g id="edge19" class="edge">
<title>Node11&#45;&gt;Node7</title>
<path fill="none" stroke="midnightblue" d="M557.3,-444.17C566.01,-447.14 574.85,-450.47 583,-454.08 599.93,-461.59 602.51,-466.64 619,-475.08 625.84,-478.59 633.31,-482.1 640.44,-485.31"/>
<polygon fill="midnightblue" stroke="midnightblue" points="639.32,-488.64 649.88,-489.47 642.14,-482.23 639.32,-488.64"/>
</g>
<!-- Node12&#45;&gt;Node3 -->
<g id="edge21" class="edge">
<title>Node12&#45;&gt;Node3</title>
<path fill="none" stroke="midnightblue" d="M556.84,-395.11C565.69,-398.11 574.69,-401.46 583,-405.08 606.55,-415.35 631.89,-430.07 649.66,-441.06"/>
<polygon fill="midnightblue" stroke="midnightblue" points="647.88,-444.07 658.21,-446.42 651.6,-438.14 647.88,-444.07"/>
</g>
<!-- Node12&#45;&gt;Node7 -->
<g id="edge22" class="edge">
<title>Node12&#45;&gt;Node7</title>
<path fill="none" stroke="midnightblue" d="M567.64,-395.12C573.15,-397.9 578.38,-401.19 583,-405.08 609.73,-427.65 593.57,-451.06 619,-475.08 623.05,-478.92 627.82,-482.2 632.82,-485"/>
<polygon fill="midnightblue" stroke="midnightblue" points="631.44,-488.22 641.95,-489.53 634.55,-481.95 631.44,-488.22"/>
</g>
<!-- Node13&#45;&gt;Node3 -->
<g id="edge24" class="edge">
<title>Node13&#45;&gt;Node3</title>
<path fill="none" stroke="midnightblue" d="M332.95,-157.54C395.37,-132.08 509.59,-98.31 583,-153.08 629.89,-188.07 661.11,-374.99 670.23,-436.47"/>
<polygon fill="midnightblue" stroke="midnightblue" points="666.77,-437.03 671.67,-446.42 673.7,-436.02 666.77,-437.03"/>
</g>
<!-- Node13&#45;&gt;Node7 -->
<g id="edge27" class="edge">
<title>Node13&#45;&gt;Node7</title>
<path fill="none" stroke="midnightblue" d="M379.68,-198.67C455.77,-217.7 555.97,-247.7 583,-279.08 640.8,-346.19 564.2,-405.5 619,-475.08 621.86,-478.72 625.39,-481.82 629.26,-484.46"/>
<polygon fill="midnightblue" stroke="midnightblue" points="627.74,-487.62 638.17,-489.53 631.21,-481.54 627.74,-487.62"/>
</g>
<!-- Node13&#45;&gt;Node9 -->
<g id="edge25" class="edge">
<title>Node13&#45;&gt;Node9</title>
<path fill="none" stroke="midnightblue" d="M387.13,-178.08C400.4,-178.08 413.85,-178.08 426.63,-178.08"/>
<polygon fill="midnightblue" stroke="midnightblue" points="426.73,-181.58 436.73,-178.08 426.73,-174.58 426.73,-181.58"/>
</g>
<!-- Node13&#45;&gt;Node14 -->
<g id="edge26" class="edge">
<title>Node13&#45;&gt;Node14</title>
<path fill="none" stroke="midnightblue" d="M332.83,-157.48C358.81,-145.78 392.44,-131.28 423,-120.08 434.14,-116.01 446.33,-112.06 457.73,-108.58"/>
<polygon fill="midnightblue" stroke="midnightblue" points="458.93,-111.87 467.5,-105.65 456.92,-105.17 458.93,-111.87"/>
</g>
<!-- Node15&#45;&gt;Node3 -->
<g id="edge29" class="edge">
<title>Node15&#45;&gt;Node3</title>
<path fill="none" stroke="midnightblue" d="M335.07,-729.66C400.04,-734.62 517.3,-732.85 583,-667.08 642.82,-607.21 566.35,-546.35 619,-480.08 621.88,-476.46 625.42,-473.37 629.3,-470.74"/>
<polygon fill="midnightblue" stroke="midnightblue" points="631.24,-473.66 638.2,-465.67 627.78,-467.57 631.24,-473.66"/>
</g>
<!-- Node15&#45;&gt;Node7 -->
<g id="edge36" class="edge">
<title>Node15&#45;&gt;Node7</title>
<path fill="none" stroke="midnightblue" d="M335.11,-723.9C353.01,-726.02 372.59,-731.27 387,-743.08 419.68,-769.87 387.92,-807.53 423,-831.08 482.04,-870.72 526.52,-874.29 583,-831.08 634.01,-792.06 662.84,-584.25 670.75,-518.82"/>
<polygon fill="midnightblue" stroke="midnightblue" points="674.25,-518.99 671.95,-508.65 667.3,-518.17 674.25,-518.99"/>
</g>
<!-- Node16 -->
<g id="node16" class="node">
<title>Node16</title>
<g id="a_node16"><a xlink:href="class_t_track.html#a418966e6fefb71b9d0c9b941197832da" target="_top" xlink:title="Similar to GetVectorPositionFromTrackMap but for inactive elements, a pair is returned because there ...">
<polygon fill="white" stroke="black" points="434.5,-791.08 434.5,-821.08 571.5,-821.08 571.5,-791.08 434.5,-791.08"/>
<text text-anchor="start" x="442.5" y="-809.08" font-family="Helvetica,sans-Serif" font-size="10.00">TTrack::GetVectorPositions</text>
<text text-anchor="middle" x="503" y="-798.08" font-family="Helvetica,sans-Serif" font-size="10.00">FromInactiveTrackMap</text>
</a>
</g>
</g>
<!-- Node15&#45;&gt;Node16 -->
<g id="edge30" class="edge">
<title>Node15&#45;&gt;Node16</title>
<path fill="none" stroke="midnightblue" d="M335.14,-727.09C352.25,-729.7 371.27,-734.46 387,-743.08 407.4,-754.27 403.28,-768.74 423,-781.08 426.33,-783.17 429.86,-785.1 433.49,-786.88"/>
<polygon fill="midnightblue" stroke="midnightblue" points="432.15,-790.11 442.71,-790.99 435,-783.72 432.15,-790.11"/>
</g>
<!-- Node17 -->
<g id="node17" class="node">
<title>Node17</title>
<g id="a_node17"><a xlink:href="class_t_track.html#a51f89cf70e94b037f6378cd78003d82b" target="_top" xlink:title="A range&#45;checked version of InactiveTrackElement.at(At)">
<polygon fill="white" stroke="black" points="426,-752.58 426,-771.58 580,-771.58 580,-752.58 426,-752.58"/>
<text text-anchor="middle" x="503" y="-759.58" font-family="Helvetica,sans-Serif" font-size="10.00">TTrack::InactiveTrackElementAt</text>
</a>
</g>
</g>
<!-- Node15&#45;&gt;Node17 -->
<g id="edge33" class="edge">
<title>Node15&#45;&gt;Node17</title>
<path fill="none" stroke="midnightblue" d="M335.09,-732.38C365.33,-737.76 405.14,-744.85 438.3,-750.75"/>
<polygon fill="midnightblue" stroke="midnightblue" points="437.9,-754.23 448.36,-752.54 439.13,-747.34 437.9,-754.23"/>
</g>
<!-- Node16&#45;&gt;Node3 -->
<g id="edge31" class="edge">
<title>Node16&#45;&gt;Node3</title>
<path fill="none" stroke="midnightblue" d="M571.79,-791.03C575.98,-788.25 579.79,-784.96 583,-781.08 668.94,-677.32 538.99,-588.49 619,-480.08 621.6,-476.56 624.84,-473.54 628.44,-470.95"/>
<polygon fill="midnightblue" stroke="midnightblue" points="630.5,-473.8 637.32,-465.69 626.93,-467.78 630.5,-473.8"/>
</g>
<!-- Node16&#45;&gt;Node7 -->
<g id="edge32" class="edge">
<title>Node16&#45;&gt;Node7</title>
<path fill="none" stroke="midnightblue" d="M569.88,-790.97C574.67,-788.21 579.13,-784.95 583,-781.08 657.77,-706.5 670.49,-569.95 672.6,-518.97"/>
<polygon fill="midnightblue" stroke="midnightblue" points="676.11,-518.79 672.93,-508.69 669.11,-518.57 676.11,-518.79"/>
</g>
<!-- Node17&#45;&gt;Node3 -->
<g id="edge34" class="edge">
<title>Node17&#45;&gt;Node3</title>
<path fill="none" stroke="midnightblue" d="M523.36,-752.41C541.84,-742.09 568.9,-723.95 583,-700.08 633.41,-614.79 558.46,-558.51 619,-480.08 621.79,-476.47 625.24,-473.39 629.04,-470.76"/>
<polygon fill="midnightblue" stroke="midnightblue" points="630.89,-473.74 637.8,-465.71 627.39,-467.67 630.89,-473.74"/>
</g>
<!-- Node17&#45;&gt;Node7 -->
<g id="edge35" class="edge">
<title>Node17&#45;&gt;Node7</title>
<path fill="none" stroke="midnightblue" d="M558.95,-752.58C567.76,-749.14 576.2,-744.45 583,-738.08 648.03,-677.17 666.42,-564.6 671.33,-519.02"/>
<polygon fill="midnightblue" stroke="midnightblue" points="674.82,-519.24 672.3,-508.95 667.85,-518.57 674.82,-519.24"/>
</g>
<!-- Node18&#45;&gt;Node3 -->
<g id="edge39" class="edge">
<title>Node18&#45;&gt;Node3</title>
<path fill="none" stroke="midnightblue" d="M576.16,-468.69C587.04,-467.27 598.2,-465.82 608.89,-464.43"/>
<polygon fill="midnightblue" stroke="midnightblue" points="609.51,-467.88 618.98,-463.12 608.61,-460.94 609.51,-467.88"/>
</g>
<!-- Node18&#45;&gt;Node7 -->
<g id="edge40" class="edge">
<title>Node18&#45;&gt;Node7</title>
<path fill="none" stroke="midnightblue" d="M576.16,-487.05C587.04,-488.4 598.2,-489.79 608.89,-491.12"/>
<polygon fill="midnightblue" stroke="midnightblue" points="608.62,-494.61 618.98,-492.37 609.48,-487.67 608.62,-494.61"/>
</g>
<!-- Node19&#45;&gt;Node3 -->
<g id="edge43" class="edge">
<title>Node19&#45;&gt;Node3</title>
<path fill="none" stroke="midnightblue" d="M554.09,-307.66C564.28,-311.11 574.47,-315.77 583,-322.08 624.13,-352.52 652.37,-407.7 665.19,-436.85"/>
<polygon fill="midnightblue" stroke="midnightblue" points="662.08,-438.48 669.21,-446.32 668.52,-435.75 662.08,-438.48"/>
</g>
<!-- Node19&#45;&gt;Node7 -->
<g id="edge44" class="edge">
<title>Node19&#45;&gt;Node7</title>
<path fill="none" stroke="midnightblue" d="M561.67,-307.72C569.65,-311.16 577.12,-315.81 583,-322.08 630.79,-373.03 574.43,-421.29 619,-475.08 622.07,-478.79 625.83,-481.94 629.92,-484.62"/>
<polygon fill="midnightblue" stroke="midnightblue" points="628.23,-487.69 638.67,-489.48 631.62,-481.57 628.23,-487.69"/>
</g>
<!-- Node20&#45;&gt;Node3 -->
<g id="edge46" class="edge">
<title>Node20&#45;&gt;Node3</title>
<path fill="none" stroke="midnightblue" d="M310.11,-291.49C361.74,-270.16 494.5,-224.8 583,-279.08 640.24,-314.19 662.48,-398.34 669.84,-436.58"/>
<polygon fill="midnightblue" stroke="midnightblue" points="666.4,-437.24 671.61,-446.47 673.29,-436.01 666.4,-437.24"/>
</g>
<!-- Node20&#45;&gt;Node7 -->
<g id="edge47" class="edge">
<title>Node20&#45;&gt;Node7</title>
<path fill="none" stroke="midnightblue" d="M358.15,-310.24C439.87,-321.57 566.39,-341.2 583,-356.08 624.14,-392.97 582.43,-433.66 619,-475.08 622.27,-478.78 626.21,-481.94 630.46,-484.63"/>
<polygon fill="midnightblue" stroke="midnightblue" points="629.04,-487.84 639.51,-489.51 632.37,-481.68 629.04,-487.84"/>
</g>
<!-- Node20&#45;&gt;Node19 -->
<g id="edge48" class="edge">
<title>Node20&#45;&gt;Node19</title>
<path fill="none" stroke="midnightblue" d="M358.11,-300.11C381.64,-299.78 407.93,-299.41 431.53,-299.08"/>
<polygon fill="midnightblue" stroke="midnightblue" points="431.86,-302.57 441.81,-298.93 431.76,-295.57 431.86,-302.57"/>
</g>
</g>
</svg>
        <g id="navigator" transform="translate(0 0)" fill="#404254">
                <rect fill="#f2f5e9" fill-opacity="0.5" stroke="#606060" stroke-width=".5" x="0" y="0" width="60" height="60"/>
                <use id="zoomplus" xlink:href="#zoomPlus" x="17" y="9" onmousedown="handleZoom(evt,'in')"/>
                <use id="zoomminus" xlink:href="#zoomMin" x="42" y="9" onmousedown="handleZoom(evt,'out')"/>
                <use id="reset" xlink:href="#resetDef" x="30" y="36" onmousedown="handleReset()"/>
                <g id="arrowUp" xlink:href="#dirArrow" transform="translate(30 24)" onmousedown="handlePan(0,-1)">
                  <use xlink:href="#rim" fill="#404040">
                        <set attributeName="fill" to="#808080" begin="arrowUp.mouseover" end="arrowUp.mouseout"/>
                  </use>
                  <path fill="none" stroke="white" stroke-width="1.5" d="M0,-3.0v7 M-2.5,-0.5L0,-3.0L2.5,-0.5"/>
                </g>
                <g id="arrowRight" xlink:href="#dirArrow" transform="rotate(90) translate(36 -43)" onmousedown="handlePan(1,0)">
                  <use xlink:href="#rim" fill="#404040">
                        <set attributeName="fill" to="#808080" begin="arrowRight.mouseover" end="arrowRight.mouseout"/>
                  </use>
                  <path fill="none" stroke="white" stroke-width="1.5" d="M0,-3.0v7 M-2.5,-0.5L0,-3.0L2.5,-0.5"/>
                </g>
                <g id="arrowDown" xlink:href="#dirArrow" transform="rotate(180) translate(-30 -48)" onmousedown="handlePan(0,1)">
                  <use xlink:href="#rim" fill="#404040">
                        <set attributeName="fill" to="#808080" begin="arrowDown.mouseover" end="arrowDown.mouseout"/>
                  </use>
                  <path fill="none" stroke="white" stroke-width="1.5" d="M0,-3.0v7 M-2.5,-0.5L0,-3.0L2.5,-0.5"/>
                </g>
                <g id="arrowLeft" xlink:href="#dirArrow" transform="rotate(270) translate(-36 17)" onmousedown="handlePan(-1,0)">
                  <use xlink:href="#rim" fill="#404040">
                        <set attributeName="fill" to="#808080" begin="arrowLeft.mouseover" end="arrowLeft.mouseout"/>
                  </use>
                  <path fill="none" stroke="white" stroke-width="1.5" d="M0,-3.0v7 M-2.5,-0.5L0,-3.0L2.5,-0.5"/>
                </g>
        </g>
        <svg viewBox="0 0 15 15" width="100%" height="30px" preserveAspectRatio="xMaxYMin meet">
         <g id="arrow_out" transform="scale(0.3 0.3)">
          <a xlink:href="class_t_one_route_ab7ac58fe51393873e9054ffa724bc118_cgraph_org.svg" target="_base">
           <rect id="button" ry="5" rx="5" y="6" x="6" height="38" width="38"
                fill="#f2f5e9" fill-opacity="0.5" stroke="#606060" stroke-width="1.0"/>
           <path id="arrow"
             d="M 11.500037,31.436501 C 11.940474,20.09759 22.043105,11.32322 32.158766,21.979434 L 37.068811,17.246167 C 37.068811,17.246167 37.088388,32 37.088388,32 L 22.160133,31.978069 C 22.160133,31.978069 26.997745,27.140456 26.997745,27.140456 C 18.528582,18.264221 13.291696,25.230495 11.500037,31.436501 z"
             style="fill:#404040;"/>
          </a>
         </g>
        </svg>
</svg>
