<?xml version="1.0" encoding="UTF-8" standalone="no"?>
<!DOCTYPE svg PUBLIC "-//W3C//DTD SVG 1.1//EN"
 "http://www.w3.org/Graphics/SVG/1.1/DTD/svg11.dtd">
<!-- Generated by graphviz version 2.44.1 (20200629.0800)
 -->
<!-- Title: TOneRoute::ConvertAndAddNonPreferredRouteSearchVector Pages: 1 -->
<svg width="733pt" height="78pt"
 viewBox="0.00 0.00 733.00 77.50" xmlns="http://www.w3.org/2000/svg" xmlns:xlink="http://www.w3.org/1999/xlink">
<g id="graph0" class="graph" transform="scale(1 1) rotate(0) translate(4 73.5)">
<title>TOneRoute::ConvertAndAddNonPreferredRouteSearchVector</title>
<polygon fill="white" stroke="transparent" points="-4,4 -4,-73.5 729,-73.5 729,4 -4,4"/>
<!-- Node1 -->
<g id="node1" class="node">
<title>Node1</title>
<g id="a_node1"><a xlink:title="Called after a non&#45;preferred (i.e. unrestricted) route has been selected and has finished flashing,...">
<polygon fill="#bfbfbf" stroke="black" points="567,-22.5 567,-52.5 725,-52.5 725,-22.5 567,-22.5"/>
<text text-anchor="start" x="575" y="-40.5" font-family="Helvetica,sans-Serif" font-size="10.00">TOneRoute::ConvertAndAdd</text>
<text text-anchor="middle" x="646" y="-29.5" font-family="Helvetica,sans-Serif" font-size="10.00">NonPreferredRouteSearchVector</text>
</a>
</g>
</g>
<!-- Node2 -->
<g id="node2" class="node">
<title>Node2</title>
<g id="a_node2"><a xlink:href="class_t_interface.html#a7e6535742855a19cb3e35b1711a7ab59" target="_top" xlink:title="Deal with any warning graphics that need to flash (call on, signal stop, crash etc),...">
<polygon fill="white" stroke="black" points="388,-50 388,-69 528,-69 528,-50 388,-50"/>
<text text-anchor="middle" x="458" y="-57" font-family="Helvetica,sans-Serif" font-size="10.00">TInterface::FlashingGraphics</text>
</a>
</g>
</g>
<!-- Node1&#45;&gt;Node2 -->
<g id="edge1" class="edge">
<title>Node1&#45;&gt;Node2</title>
<path fill="none" stroke="midnightblue" d="M556.87,-47.92C547.18,-49.07 537.42,-50.23 528,-51.34"/>
<polygon fill="midnightblue" stroke="midnightblue" points="557.41,-51.38 566.93,-46.73 556.59,-44.43 557.41,-51.38"/>
</g>
<!-- Node5 -->
<g id="node5" class="node">
<title>Node5</title>
<g id="a_node5"><a xlink:href="class_t_interface.html#abf07d5edc1507de381825f17620748b2" target="_top" xlink:title="Called when mouse button clicked in zoom&#45;in mode.">
<polygon fill="white" stroke="black" points="385,-0.5 385,-30.5 531,-30.5 531,-0.5 385,-0.5"/>
<text text-anchor="start" x="393" y="-18.5" font-family="Helvetica,sans-Serif" font-size="10.00">TInterface::MainScreenMouse</text>
<text text-anchor="middle" x="458" y="-7.5" font-family="Helvetica,sans-Serif" font-size="10.00">Down2</text>
</a>
</g>
</g>
<!-- Node1&#45;&gt;Node5 -->
<g id="edge4" class="edge">
<title>Node1&#45;&gt;Node5</title>
<path fill="none" stroke="midnightblue" d="M556.88,-27.08C548.29,-26.06 539.65,-25.04 531.24,-24.04"/>
<polygon fill="midnightblue" stroke="midnightblue" points="556.59,-30.57 566.93,-28.27 557.41,-23.62 556.59,-30.57"/>
</g>
<!-- Node3 -->
<g id="node3" class="node">
<title>Node3</title>
<g id="a_node3"><a xlink:href="class_t_interface.html#a6139ffb52492eb89e5487a8a3cd647b5" target="_top" xlink:title="The main loop, called every clock tick via MasterClockTimer.">
<polygon fill="white" stroke="black" points="204.5,-50 204.5,-69 323.5,-69 323.5,-50 204.5,-50"/>
<text text-anchor="middle" x="264" y="-57" font-family="Helvetica,sans-Serif" font-size="10.00">TInterface::ClockTimer2</text>
</a>
</g>
</g>
<!-- Node2&#45;&gt;Node3 -->
<g id="edge2" class="edge">
<title>Node2&#45;&gt;Node3</title>
<path fill="none" stroke="midnightblue" d="M377.7,-59.5C359.6,-59.5 340.67,-59.5 323.61,-59.5"/>
<polygon fill="midnightblue" stroke="midnightblue" points="377.95,-63 387.95,-59.5 377.95,-56 377.95,-63"/>
</g>
<!-- Node4 -->
<g id="node4" class="node">
<title>Node4</title>
<g id="a_node4"><a xlink:href="class_t_interface.html#ace30a12d923fc7fb489afabb0a09aa4f" target="_top" xlink:title=" ">
<polygon fill="white" stroke="black" points="0,-50 0,-69 143,-69 143,-50 0,-50"/>
<text text-anchor="middle" x="71.5" y="-57" font-family="Helvetica,sans-Serif" font-size="10.00">TInterface::MasterClockTimer</text>
</a>
</g>
</g>
<!-- Node3&#45;&gt;Node4 -->
<g id="edge3" class="edge">
<title>Node3&#45;&gt;Node4</title>
<path fill="none" stroke="midnightblue" d="M194.12,-59.5C177.52,-59.5 159.76,-59.5 143.08,-59.5"/>
<polygon fill="midnightblue" stroke="midnightblue" points="194.29,-63 204.29,-59.5 194.29,-56 194.29,-63"/>
</g>
<!-- Node6 -->
<g id="node6" class="node">
<title>Node6</title>
<g id="a_node6"><a xlink:href="class_t_interface.html#a7f37862fb9e01e1328d9fd3fd8c50094" target="_top" xlink:title=" ">
<polygon fill="white" stroke="black" points="179,-6 179,-25 349,-25 349,-6 179,-6"/>
<text text-anchor="middle" x="264" y="-13" font-family="Helvetica,sans-Serif" font-size="10.00">TInterface::MainScreenMouseDown</text>
</a>
</g>
</g>
<!-- Node5&#45;&gt;Node6 -->
<g id="edge5" class="edge">
<title>Node5&#45;&gt;Node6</title>
<path fill="none" stroke="midnightblue" d="M374.7,-15.5C366.22,-15.5 357.58,-15.5 349.08,-15.5"/>
<polygon fill="midnightblue" stroke="midnightblue" points="374.96,-19 384.96,-15.5 374.96,-12 374.96,-19"/>
</g>
</g>
</svg>
