<?xml version="1.0" encoding="UTF-8" standalone="no"?>
<!DOCTYPE svg PUBLIC "-//W3C//DTD SVG 1.1//EN"
 "http://www.w3.org/Graphics/SVG/1.1/DTD/svg11.dtd">
<!-- Generated by graphviz version 2.44.1 (20200629.0800)
 -->
<!-- Title: TTrain::GetTrainTime Pages: 1 -->
<svg width="1350pt" height="1100pt"
 viewBox="0.00 0.00 1350.00 1100.07" xmlns="http://www.w3.org/2000/svg" xmlns:xlink="http://www.w3.org/1999/xlink">
<g id="graph0" class="graph" transform="scale(1 1) rotate(0) translate(4 1096.07)">
<title>TTrain::GetTrainTime</title>
<polygon fill="white" stroke="transparent" points="-4,4 -4,-1096.07 1346,-1096.07 1346,4 -4,4"/>
<!-- Node1 -->
<g id="node1" class="node">
<title>Node1</title>
<g id="a_node1"><a xlink:title="Returns the timetable action time corresponding to &#39;Time&#39; for this train, i.e. it adjusts the time va...">
<polygon fill="#bfbfbf" stroke="black" points="1235,-957.07 1235,-976.07 1342,-976.07 1342,-957.07 1235,-957.07"/>
<text text-anchor="middle" x="1288.5" y="-964.07" font-family="Helvetica,sans-Serif" font-size="10.00">TTrain::GetTrainTime</text>
</a>
</g>
</g>
<!-- Node2 -->
<g id="node2" class="node">
<title>Node2</title>
<g id="a_node2"><a xlink:href="class_t_train.html#a221da69cd80d206a06f840f4cd463cf9" target="_top" xlink:title="Used in the floating window to display the &#39;Next&#39; action.">
<polygon fill="white" stroke="black" points="1072,-1041.57 1072,-1071.57 1199,-1071.57 1199,-1041.57 1072,-1041.57"/>
<text text-anchor="start" x="1080" y="-1059.57" font-family="Helvetica,sans-Serif" font-size="10.00">TTrain::FloatingLabelNext</text>
<text text-anchor="middle" x="1135.5" y="-1048.57" font-family="Helvetica,sans-Serif" font-size="10.00">String</text>
</a>
</g>
</g>
<!-- Node1&#45;&gt;Node2 -->
<g id="edge1" class="edge">
<title>Node1&#45;&gt;Node2</title>
<path fill="none" stroke="midnightblue" d="M1262.59,-981.42C1234.73,-998.02 1189.83,-1024.79 1161.8,-1041.49"/>
<polygon fill="midnightblue" stroke="midnightblue" points="1264.54,-984.33 1271.34,-976.2 1260.96,-978.31 1264.54,-984.33"/>
</g>
<!-- Node7 -->
<g id="node7" class="node">
<title>Node7</title>
<g id="a_node7"><a xlink:href="class_t_train.html#a81bf61b47a2867f0c6901b1ea6f47177" target="_top" xlink:title="Used in the floating window to display the timetable.">
<polygon fill="white" stroke="black" points="1073,-973.57 1073,-1003.57 1198,-1003.57 1198,-973.57 1073,-973.57"/>
<text text-anchor="start" x="1081" y="-991.57" font-family="Helvetica,sans-Serif" font-size="10.00">TTrain::FloatingTimetable</text>
<text text-anchor="middle" x="1135.5" y="-980.57" font-family="Helvetica,sans-Serif" font-size="10.00">String</text>
</a>
</g>
</g>
<!-- Node1&#45;&gt;Node7 -->
<g id="edge6" class="edge">
<title>Node1&#45;&gt;Node7</title>
<path fill="none" stroke="midnightblue" d="M1224.55,-975.74C1215.8,-977.02 1206.81,-978.33 1198.08,-979.6"/>
<polygon fill="midnightblue" stroke="midnightblue" points="1225.3,-979.17 1234.69,-974.26 1224.29,-972.24 1225.3,-979.17"/>
</g>
<!-- Node9 -->
<g id="node9" class="node">
<title>Node9</title>
<g id="a_node9"><a xlink:href="class_t_train.html#a493ab1c185d29bf28ec8fded2356e9fc" target="_top" xlink:title="Send a message to the performance log and performance file, and if the message is flagged as a warnin...">
<polygon fill="white" stroke="black" points="1089.5,-423.07 1089.5,-442.07 1181.5,-442.07 1181.5,-423.07 1089.5,-423.07"/>
<text text-anchor="middle" x="1135.5" y="-430.07" font-family="Helvetica,sans-Serif" font-size="10.00">TTrain::LogAction</text>
</a>
</g>
</g>
<!-- Node1&#45;&gt;Node9 -->
<g id="edge9" class="edge">
<title>Node1&#45;&gt;Node9</title>
<path fill="none" stroke="midnightblue" d="M1282.02,-947.17C1257.38,-860.05 1157.36,-506.34 1139.3,-442.48"/>
<polygon fill="midnightblue" stroke="midnightblue" points="1278.66,-948.17 1284.75,-956.84 1285.4,-946.27 1278.66,-948.17"/>
</g>
<!-- Node12 -->
<g id="node12" class="node">
<title>Node12</title>
<g id="a_node12"><a xlink:href="class_t_train.html#a89ad640ecf8f5163c40727b4e28575fc" target="_top" xlink:title="Major function called at each clock tick for each train &amp; handles all train movement &amp; associated act...">
<polygon fill="white" stroke="black" points="520,-301.07 520,-320.07 621,-320.07 621,-301.07 520,-301.07"/>
<text text-anchor="middle" x="570.5" y="-308.07" font-family="Helvetica,sans-Serif" font-size="10.00">TTrain::UpdateTrain</text>
</a>
</g>
</g>
<!-- Node1&#45;&gt;Node12 -->
<g id="edge52" class="edge">
<title>Node1&#45;&gt;Node12</title>
<path fill="none" stroke="midnightblue" d="M1224.32,-964.04C1144.62,-959.16 1004.4,-944.94 892,-903.57 789.42,-865.81 746.25,-864 682,-775.57 570.55,-622.18 570.02,-372.15 571.19,-320.2"/>
<polygon fill="midnightblue" stroke="midnightblue" points="1224.49,-967.55 1234.68,-964.64 1224.9,-960.56 1224.49,-967.55"/>
</g>
<!-- Node3 -->
<g id="node3" class="node">
<title>Node3</title>
<g id="a_node3"><a xlink:href="class_t_interface.html#a51b94ffa3dc90fe4e3bec2f1ae28074e" target="_top" xlink:title="used for floating window to display train status">
<polygon fill="white" stroke="black" points="899,-1061.57 899,-1091.57 1029,-1091.57 1029,-1061.57 899,-1061.57"/>
<text text-anchor="start" x="907" y="-1079.57" font-family="Helvetica,sans-Serif" font-size="10.00">TInterface::GetTrainStatus</text>
<text text-anchor="middle" x="964" y="-1068.57" font-family="Helvetica,sans-Serif" font-size="10.00">Float</text>
</a>
</g>
</g>
<!-- Node2&#45;&gt;Node3 -->
<g id="edge2" class="edge">
<title>Node2&#45;&gt;Node3</title>
<path fill="none" stroke="midnightblue" d="M1061.93,-1065.13C1051.01,-1066.42 1039.81,-1067.74 1029.08,-1069.01"/>
<polygon fill="midnightblue" stroke="midnightblue" points="1062.35,-1068.61 1071.87,-1063.96 1061.52,-1061.66 1062.35,-1068.61"/>
</g>
<!-- Node4 -->
<g id="node4" class="node">
<title>Node4</title>
<g id="a_node4"><a xlink:href="class_t_interface.html#a9aaa19d39382a32701d7ded3b8c1802b" target="_top" xlink:title="Controls the floating window function, called during the ClockTimer2 function.">
<polygon fill="white" stroke="black" points="703.5,-1023.07 703.5,-1042.07 834.5,-1042.07 834.5,-1023.07 703.5,-1023.07"/>
<text text-anchor="middle" x="769" y="-1030.07" font-family="Helvetica,sans-Serif" font-size="10.00">TInterface::TrackTrainFloat</text>
</a>
</g>
</g>
<!-- Node3&#45;&gt;Node4 -->
<g id="edge3" class="edge">
<title>Node3&#45;&gt;Node4</title>
<path fill="none" stroke="midnightblue" d="M888.86,-1059.67C862.76,-1053.72 834.35,-1047.24 811.85,-1042.11"/>
<polygon fill="midnightblue" stroke="midnightblue" points="888.21,-1063.11 898.73,-1061.92 889.76,-1056.28 888.21,-1063.11"/>
</g>
<!-- Node5 -->
<g id="node5" class="node">
<title>Node5</title>
<g id="a_node5"><a xlink:href="class_t_interface.html#a6139ffb52492eb89e5487a8a3cd647b5" target="_top" xlink:title="The main loop, called every clock tick via MasterClockTimer.">
<polygon fill="white" stroke="black" points="179,-609.07 179,-628.07 298,-628.07 298,-609.07 179,-609.07"/>
<text text-anchor="middle" x="238.5" y="-616.07" font-family="Helvetica,sans-Serif" font-size="10.00">TInterface::ClockTimer2</text>
</a>
</g>
</g>
<!-- Node4&#45;&gt;Node5 -->
<g id="edge4" class="edge">
<title>Node4&#45;&gt;Node5</title>
<path fill="none" stroke="midnightblue" d="M747.66,-1016.64C660.59,-948.43 320.62,-682.11 251.72,-628.14"/>
<polygon fill="midnightblue" stroke="midnightblue" points="745.68,-1019.53 755.71,-1022.95 750,-1014.02 745.68,-1019.53"/>
</g>
<!-- Node6 -->
<g id="node6" class="node">
<title>Node6</title>
<g id="a_node6"><a xlink:href="class_t_interface.html#ace30a12d923fc7fb489afabb0a09aa4f" target="_top" xlink:title=" ">
<polygon fill="white" stroke="black" points="0,-609.07 0,-628.07 143,-628.07 143,-609.07 0,-609.07"/>
<text text-anchor="middle" x="71.5" y="-616.07" font-family="Helvetica,sans-Serif" font-size="10.00">TInterface::MasterClockTimer</text>
</a>
</g>
</g>
<!-- Node5&#45;&gt;Node6 -->
<g id="edge5" class="edge">
<title>Node5&#45;&gt;Node6</title>
<path fill="none" stroke="midnightblue" d="M168.67,-618.57C160.22,-618.57 151.57,-618.57 143.09,-618.57"/>
<polygon fill="midnightblue" stroke="midnightblue" points="168.86,-622.07 178.86,-618.57 168.86,-615.07 168.86,-622.07"/>
</g>
<!-- Node7&#45;&gt;Node4 -->
<g id="edge8" class="edge">
<title>Node7&#45;&gt;Node4</title>
<path fill="none" stroke="midnightblue" d="M1072.51,-1006.08C1060.48,-1008.97 1047.91,-1011.65 1036,-1013.57 967.78,-1024.57 888.69,-1029.2 834.6,-1031.15"/>
<polygon fill="midnightblue" stroke="midnightblue" points="1073.6,-1009.41 1082.46,-1003.61 1071.91,-1002.62 1073.6,-1009.41"/>
</g>
<!-- Node8 -->
<g id="node8" class="node">
<title>Node8</title>
<g id="a_node8"><a xlink:href="class_t_interface.html#a40232083747ef274344eed7021c6f43c" target="_top" xlink:title=" ">
<polygon fill="white" stroke="black" points="898.5,-973.57 898.5,-1003.57 1029.5,-1003.57 1029.5,-973.57 898.5,-973.57"/>
<text text-anchor="start" x="906.5" y="-991.57" font-family="Helvetica,sans-Serif" font-size="10.00">TInterface::SkipTimetabled</text>
<text text-anchor="middle" x="964" y="-980.57" font-family="Helvetica,sans-Serif" font-size="10.00">ActionsMenuItemClick</text>
</a>
</g>
</g>
<!-- Node7&#45;&gt;Node8 -->
<g id="edge7" class="edge">
<title>Node7&#45;&gt;Node8</title>
<path fill="none" stroke="midnightblue" d="M1062.51,-988.57C1051.64,-988.57 1040.48,-988.57 1029.76,-988.57"/>
<polygon fill="midnightblue" stroke="midnightblue" points="1062.83,-992.07 1072.83,-988.57 1062.83,-985.07 1062.83,-992.07"/>
</g>
<!-- Node10 -->
<g id="node10" class="node">
<title>Node10</title>
<g id="a_node10"><a xlink:href="class_t_train_controller.html#aa895b60238810a9d134cd5b9c886da56" target="_top" xlink:title="Introduce a new train to the railway, with the characteristics specified, returns true for success,...">
<polygon fill="white" stroke="black" points="900,-291.07 900,-310.07 1028,-310.07 1028,-291.07 900,-291.07"/>
<text text-anchor="middle" x="964" y="-298.07" font-family="Helvetica,sans-Serif" font-size="10.00">TTrainController::AddTrain</text>
</a>
</g>
</g>
<!-- Node9&#45;&gt;Node10 -->
<g id="edge10" class="edge">
<title>Node9&#45;&gt;Node10</title>
<path fill="none" stroke="midnightblue" d="M1123.65,-414.42C1107.66,-389.26 1075.36,-344.12 1036,-319.57 1029.83,-315.72 1022.89,-312.64 1015.82,-310.19"/>
<polygon fill="midnightblue" stroke="midnightblue" points="1120.72,-416.34 1128.96,-423 1126.67,-412.65 1120.72,-416.34"/>
</g>
<!-- Node11 -->
<g id="node11" class="node">
<title>Node11</title>
<g id="a_node11"><a xlink:href="class_t_train.html#ad666fb061d1da7c44a72ec963c2098aa" target="_top" xlink:title="Carry out the actions needed when a train is to split from the front.">
<polygon fill="white" stroke="black" points="713,-358.07 713,-377.07 825,-377.07 825,-358.07 713,-358.07"/>
<text text-anchor="middle" x="769" y="-365.07" font-family="Helvetica,sans-Serif" font-size="10.00">TTrain::FrontTrainSplit</text>
</a>
</g>
</g>
<!-- Node9&#45;&gt;Node11 -->
<g id="edge23" class="edge">
<title>Node9&#45;&gt;Node11</title>
<path fill="none" stroke="midnightblue" d="M1090.82,-420.49C1073.8,-416.05 1054.07,-411.21 1036,-407.57 963.55,-392.97 879.03,-381.13 825.04,-374.22"/>
<polygon fill="midnightblue" stroke="midnightblue" points="1089.94,-423.88 1100.5,-423.05 1091.73,-417.11 1089.94,-423.88"/>
</g>
<!-- Node9&#45;&gt;Node12 -->
<g id="edge51" class="edge">
<title>Node9&#45;&gt;Node12</title>
<path fill="none" stroke="midnightblue" d="M1133.27,-452.51C1127.94,-531.67 1103.94,-822.05 1036,-876.57 986.08,-916.62 950.31,-902.95 892,-876.57 651.77,-767.86 583.13,-386.58 572.93,-320.4"/>
<polygon fill="midnightblue" stroke="midnightblue" points="1136.77,-452.62 1133.92,-442.42 1129.79,-452.17 1136.77,-452.62"/>
</g>
<!-- Node13 -->
<g id="node13" class="node">
<title>Node13</title>
<g id="a_node13"><a xlink:href="class_t_train_controller.html#a20a1576dea1d86ed78fc5e9f46343481" target="_top" xlink:title="called every clock tick to introduce new trains and update existing trains">
<polygon fill="white" stroke="black" points="334,-590.07 334,-609.07 459,-609.07 459,-590.07 334,-590.07"/>
<text text-anchor="middle" x="396.5" y="-597.07" font-family="Helvetica,sans-Serif" font-size="10.00">TTrainController::Operate</text>
</a>
</g>
</g>
<!-- Node9&#45;&gt;Node13 -->
<g id="edge33" class="edge">
<title>Node9&#45;&gt;Node13</title>
<path fill="none" stroke="midnightblue" d="M1133.05,-412.5C1127.02,-335.32 1101.14,-59.34 1036,-7.57 1022.84,2.89 734.95,2.41 682,-9.57 592.59,-29.8 551.45,-24.35 495,-96.57 431.32,-178.04 402.89,-526.42 398.2,-589.69"/>
<polygon fill="midnightblue" stroke="midnightblue" points="1129.58,-413.05 1133.82,-422.76 1136.56,-412.52 1129.58,-413.05"/>
</g>
<!-- Node14 -->
<g id="node14" class="node">
<title>Node14</title>
<g id="a_node14"><a xlink:href="class_t_train.html#ad64c5823265b0c611c2e5f0613317aa5" target="_top" xlink:title="Carry out the actions needed when a train is to split from the rear.">
<polygon fill="white" stroke="black" points="714,-320.07 714,-339.07 824,-339.07 824,-320.07 714,-320.07"/>
<text text-anchor="middle" x="769" y="-327.07" font-family="Helvetica,sans-Serif" font-size="10.00">TTrain::RearTrainSplit</text>
</a>
</g>
</g>
<!-- Node9&#45;&gt;Node14 -->
<g id="edge35" class="edge">
<title>Node9&#45;&gt;Node14</title>
<path fill="none" stroke="midnightblue" d="M1128.57,-413.01C1117.07,-378.98 1088.15,-309.82 1036,-281.57 979.72,-251.09 952.36,-260.28 892,-281.57 872.62,-288.4 874.52,-301.67 856,-310.57 846.08,-315.34 834.93,-318.92 824.04,-321.62"/>
<polygon fill="midnightblue" stroke="midnightblue" points="1125.3,-414.28 1131.7,-422.73 1131.97,-412.14 1125.3,-414.28"/>
</g>
<!-- Node15 -->
<g id="node15" class="node">
<title>Node15</title>
<g id="a_node15"><a xlink:href="class_t_interface.html#aaaf32c3c815553f7ba70698e0f0071bb" target="_top" xlink:title=" ">
<polygon fill="white" stroke="black" points="896,-809.57 896,-839.57 1032,-839.57 1032,-809.57 896,-809.57"/>
<text text-anchor="start" x="904" y="-827.57" font-family="Helvetica,sans-Serif" font-size="10.00">TInterface::ChangeDirection</text>
<text text-anchor="middle" x="964" y="-816.57" font-family="Helvetica,sans-Serif" font-size="10.00">MenuItemClick</text>
</a>
</g>
</g>
<!-- Node9&#45;&gt;Node15 -->
<g id="edge18" class="edge">
<title>Node9&#45;&gt;Node15</title>
<path fill="none" stroke="midnightblue" d="M1135.2,-452.41C1136.22,-512.88 1130.98,-697.05 1036,-799.57 1032.45,-803.4 1028.27,-806.65 1023.75,-809.4"/>
<polygon fill="midnightblue" stroke="midnightblue" points="1138.69,-452.22 1134.94,-442.31 1131.7,-452.39 1138.69,-452.22"/>
</g>
<!-- Node16 -->
<g id="node16" class="node">
<title>Node16</title>
<g id="a_node16"><a xlink:href="class_t_train.html#aaac04c1b5e358a69e1930bae9ca6f429" target="_top" xlink:title="Reverses the direction of motion of the train.">
<polygon fill="white" stroke="black" points="893.5,-63.07 893.5,-82.07 1034.5,-82.07 1034.5,-63.07 893.5,-63.07"/>
<text text-anchor="middle" x="964" y="-70.07" font-family="Helvetica,sans-Serif" font-size="10.00">TTrain::ChangeTrainDirection</text>
</a>
</g>
</g>
<!-- Node9&#45;&gt;Node16 -->
<g id="edge19" class="edge">
<title>Node9&#45;&gt;Node16</title>
<path fill="none" stroke="midnightblue" d="M1134.67,-412.87C1134.06,-355.81 1124.42,-188.67 1036,-96.57 1029.96,-90.28 1022.22,-85.64 1014.08,-82.21"/>
<polygon fill="midnightblue" stroke="midnightblue" points="1131.17,-413.04 1134.69,-423.03 1138.17,-413.02 1131.17,-413.04"/>
</g>
<!-- Node19 -->
<g id="node19" class="node">
<title>Node19</title>
<g id="a_node19"><a xlink:href="class_t_train.html#a6c3479378d35f9041c38d80f03686b41" target="_top" xlink:title="Carry out the actions needed when a train is waiting to be joined by another train.">
<polygon fill="white" stroke="black" points="724.5,-282.07 724.5,-301.07 813.5,-301.07 813.5,-282.07 724.5,-282.07"/>
<text text-anchor="middle" x="769" y="-289.07" font-family="Helvetica,sans-Serif" font-size="10.00">TTrain::JoinedBy</text>
</a>
</g>
</g>
<!-- Node9&#45;&gt;Node19 -->
<g id="edge24" class="edge">
<title>Node9&#45;&gt;Node19</title>
<path fill="none" stroke="midnightblue" d="M1130.18,-412.78C1120.71,-374.81 1094.14,-292.46 1036,-258.57 980.71,-226.33 955.04,-247.54 892,-258.57 875.24,-261.5 872.31,-266.75 856,-271.57 842.33,-275.61 827.24,-279.36 813.57,-282.49"/>
<polygon fill="midnightblue" stroke="midnightblue" points="1126.81,-413.71 1132.5,-422.64 1133.62,-412.11 1126.81,-413.71"/>
</g>
<!-- Node20 -->
<g id="node20" class="node">
<title>Node20</title>
<g id="a_node20"><a xlink:href="class_t_interface.html#a50478cade5cae721121f5902528987a7" target="_top" xlink:title=" ">
<polygon fill="white" stroke="black" points="900.5,-760.57 900.5,-790.57 1027.5,-790.57 1027.5,-760.57 900.5,-760.57"/>
<text text-anchor="start" x="908.5" y="-778.57" font-family="Helvetica,sans-Serif" font-size="10.00">TInterface::MoveForwards</text>
<text text-anchor="middle" x="964" y="-767.57" font-family="Helvetica,sans-Serif" font-size="10.00">MenuItemClick</text>
</a>
</g>
</g>
<!-- Node9&#45;&gt;Node20 -->
<g id="edge26" class="edge">
<title>Node9&#45;&gt;Node20</title>
<path fill="none" stroke="midnightblue" d="M1134.22,-452.26C1132.37,-507.17 1119.63,-663.68 1036,-750.57 1032.28,-754.43 1027.94,-757.69 1023.26,-760.46"/>
<polygon fill="midnightblue" stroke="midnightblue" points="1137.72,-452.23 1134.47,-442.14 1130.72,-452.05 1137.72,-452.23"/>
</g>
<!-- Node21 -->
<g id="node21" class="node">
<title>Node21</title>
<g id="a_node21"><a xlink:href="class_t_train.html#a2bde9b347632a790874abfee29758d32" target="_top" xlink:title="Carry out the actions needed when a new shuttle service is created from a non&#45;repeating (F&#45;nshs) serv...">
<polygon fill="white" stroke="black" points="700,-232.57 700,-262.57 838,-262.57 838,-232.57 700,-232.57"/>
<text text-anchor="start" x="708" y="-250.57" font-family="Helvetica,sans-Serif" font-size="10.00">TTrain::NewShuttleFromNon</text>
<text text-anchor="middle" x="769" y="-239.57" font-family="Helvetica,sans-Serif" font-size="10.00">RepeatService</text>
</a>
</g>
</g>
<!-- Node9&#45;&gt;Node21 -->
<g id="edge27" class="edge">
<title>Node9&#45;&gt;Node21</title>
<path fill="none" stroke="midnightblue" d="M1131.46,-413.05C1123.87,-371.91 1099.92,-276.89 1036,-237.57 967.12,-195.19 868.11,-215.43 812.35,-232.47"/>
<polygon fill="midnightblue" stroke="midnightblue" points="1128.01,-413.65 1133.15,-422.92 1134.91,-412.47 1128.01,-413.65"/>
</g>
<!-- Node22 -->
<g id="node22" class="node">
<title>Node22</title>
<g id="a_node22"><a xlink:href="class_t_train.html#a68bda28987bb7b9d7e52b35abb2399de" target="_top" xlink:title="Carry out the actions needed when a train forms a new service (code Fns)">
<polygon fill="white" stroke="black" points="709,-156.07 709,-175.07 829,-175.07 829,-156.07 709,-156.07"/>
<text text-anchor="middle" x="769" y="-163.07" font-family="Helvetica,sans-Serif" font-size="10.00">TTrain::NewTrainService</text>
</a>
</g>
</g>
<!-- Node9&#45;&gt;Node22 -->
<g id="edge30" class="edge">
<title>Node9&#45;&gt;Node22</title>
<path fill="none" stroke="midnightblue" d="M1132.12,-412.93C1125.64,-368.62 1103.39,-260.7 1036,-208.57 976.8,-162.77 887.69,-157.43 829.19,-159.85"/>
<polygon fill="midnightblue" stroke="midnightblue" points="1128.67,-413.53 1133.48,-422.97 1135.61,-412.6 1128.67,-413.53"/>
</g>
<!-- Node23 -->
<g id="node23" class="node">
<title>Node23</title>
<g id="a_node23"><a xlink:href="class_t_interface.html#ad7aaed58c91a9ad9598e17fa615024da" target="_top" xlink:title=" ">
<polygon fill="white" stroke="black" points="898.5,-711.57 898.5,-741.57 1029.5,-741.57 1029.5,-711.57 898.5,-711.57"/>
<text text-anchor="start" x="906.5" y="-729.57" font-family="Helvetica,sans-Serif" font-size="10.00">TInterface::PassRedSignal</text>
<text text-anchor="middle" x="964" y="-718.57" font-family="Helvetica,sans-Serif" font-size="10.00">MenuItemClick</text>
</a>
</g>
</g>
<!-- Node9&#45;&gt;Node23 -->
<g id="edge34" class="edge">
<title>Node9&#45;&gt;Node23</title>
<path fill="none" stroke="midnightblue" d="M1132.9,-452.43C1127.9,-501.62 1108.23,-630.23 1036,-701.57 1032.09,-705.43 1027.56,-708.69 1022.71,-711.45"/>
<polygon fill="midnightblue" stroke="midnightblue" points="1136.41,-452.49 1133.84,-442.21 1129.44,-451.85 1136.41,-452.49"/>
</g>
<!-- Node24 -->
<g id="node24" class="node">
<title>Node24</title>
<g id="a_node24"><a xlink:href="class_t_interface.html#a921ff57bd9af8acdd79a7c99d4839218" target="_top" xlink:title=" ">
<polygon fill="white" stroke="black" points="892,-662.57 892,-692.57 1036,-692.57 1036,-662.57 892,-662.57"/>
<text text-anchor="start" x="900" y="-680.57" font-family="Helvetica,sans-Serif" font-size="10.00">TInterface::RemoveTrainMenu</text>
<text text-anchor="middle" x="964" y="-669.57" font-family="Helvetica,sans-Serif" font-size="10.00">ItemClick</text>
</a>
</g>
</g>
<!-- Node9&#45;&gt;Node24 -->
<g id="edge36" class="edge">
<title>Node9&#45;&gt;Node24</title>
<path fill="none" stroke="midnightblue" d="M1131.05,-452.51C1122.62,-495.24 1097.04,-596.36 1036,-652.57 1031.77,-656.46 1026.9,-659.76 1021.73,-662.54"/>
<polygon fill="midnightblue" stroke="midnightblue" points="1134.51,-452.99 1132.91,-442.52 1127.63,-451.71 1134.51,-452.99"/>
</g>
<!-- Node25 -->
<g id="node25" class="node">
<title>Node25</title>
<g id="a_node25"><a xlink:href="class_t_interface.html#ad3ddf42d51934815002002a770df766a" target="_top" xlink:title=" ">
<polygon fill="white" stroke="black" points="904.5,-613.57 904.5,-643.57 1023.5,-643.57 1023.5,-613.57 904.5,-613.57"/>
<text text-anchor="start" x="912.5" y="-631.57" font-family="Helvetica,sans-Serif" font-size="10.00">TInterface::RepairFailed</text>
<text text-anchor="middle" x="964" y="-620.57" font-family="Helvetica,sans-Serif" font-size="10.00">TrainMenuItemClick</text>
</a>
</g>
</g>
<!-- Node9&#45;&gt;Node25 -->
<g id="edge37" class="edge">
<title>Node9&#45;&gt;Node25</title>
<path fill="none" stroke="midnightblue" d="M1128.45,-451.83C1116.46,-486.97 1086.39,-561.7 1036,-603.57 1031.38,-607.41 1026.12,-610.68 1020.61,-613.46"/>
<polygon fill="midnightblue" stroke="midnightblue" points="1131.79,-452.87 1131.59,-442.28 1125.14,-450.68 1131.79,-452.87"/>
</g>
<!-- Node26 -->
<g id="node26" class="node">
<title>Node26</title>
<g id="a_node26"><a xlink:href="class_t_train.html#a648f31ead801d51160c024f1ead459c8" target="_top" xlink:title="Carry out the actions needed to create either a new shuttle service or (if all repeats have finished)...">
<polygon fill="white" stroke="black" points="699,-106.57 699,-136.57 839,-136.57 839,-106.57 699,-106.57"/>
<text text-anchor="start" x="707" y="-124.57" font-family="Helvetica,sans-Serif" font-size="10.00">TTrain::RepeatShuttleOrNew</text>
<text text-anchor="middle" x="769" y="-113.57" font-family="Helvetica,sans-Serif" font-size="10.00">NonRepeatService</text>
</a>
</g>
</g>
<!-- Node9&#45;&gt;Node26 -->
<g id="edge38" class="edge">
<title>Node9&#45;&gt;Node26</title>
<path fill="none" stroke="midnightblue" d="M1134,-413.01C1131.55,-361.84 1117.34,-223.44 1036,-157.57 981.04,-113.06 897.77,-108.67 839.07,-112.48"/>
<polygon fill="midnightblue" stroke="midnightblue" points="1130.5,-413.19 1134.38,-423.05 1137.5,-412.93 1130.5,-413.19"/>
</g>
<!-- Node27 -->
<g id="node27" class="node">
<title>Node27</title>
<g id="a_node27"><a xlink:href="class_t_train.html#a1f4b4616c1167ff2ef83b2df48545c6b" target="_top" xlink:title="Carry out the actions needed to create either a new shuttle service or (if all repeats have finished)...">
<polygon fill="white" stroke="black" points="682,-19.07 682,-38.07 856,-38.07 856,-19.07 682,-19.07"/>
<text text-anchor="middle" x="769" y="-26.07" font-family="Helvetica,sans-Serif" font-size="10.00">TTrain::RepeatShuttleOrRemainHere</text>
</a>
</g>
</g>
<!-- Node9&#45;&gt;Node27 -->
<g id="edge41" class="edge">
<title>Node9&#45;&gt;Node27</title>
<path fill="none" stroke="midnightblue" d="M1132.3,-412.58C1124.01,-341.33 1092.28,-101.46 1036,-53.57 973.48,-0.36 870.25,-8.78 812.5,-19.04"/>
<polygon fill="midnightblue" stroke="midnightblue" points="1128.86,-413.31 1133.46,-422.85 1135.81,-412.52 1128.86,-413.31"/>
</g>
<!-- Node28 -->
<g id="node28" class="node">
<title>Node28</title>
<g id="a_node28"><a xlink:href="class_t_interface.html#a2313bac2c5c5ac3f8b91c46166e35b97" target="_top" xlink:title=" ">
<polygon fill="white" stroke="black" points="897.5,-564.57 897.5,-594.57 1030.5,-594.57 1030.5,-564.57 897.5,-564.57"/>
<text text-anchor="start" x="905.5" y="-582.57" font-family="Helvetica,sans-Serif" font-size="10.00">TInterface::SignallerControl</text>
<text text-anchor="middle" x="964" y="-571.57" font-family="Helvetica,sans-Serif" font-size="10.00">StopMenuItemClick</text>
</a>
</g>
</g>
<!-- Node9&#45;&gt;Node28 -->
<g id="edge44" class="edge">
<title>Node9&#45;&gt;Node28</title>
<path fill="none" stroke="midnightblue" d="M1124.17,-451.01C1108.43,-477.52 1076,-526.31 1036,-554.57 1030.56,-558.41 1024.46,-561.72 1018.2,-564.55"/>
<polygon fill="midnightblue" stroke="midnightblue" points="1127.21,-452.74 1129.2,-442.33 1121.15,-449.23 1127.21,-452.74"/>
</g>
<!-- Node29 -->
<g id="node29" class="node">
<title>Node29</title>
<g id="a_node29"><a xlink:href="class_t_interface.html#ad493289c9c9aa2e4d4e39329e80cc47c" target="_top" xlink:title=" ">
<polygon fill="white" stroke="black" points="899,-515.57 899,-545.57 1029,-545.57 1029,-515.57 899,-515.57"/>
<text text-anchor="start" x="907" y="-533.57" font-family="Helvetica,sans-Serif" font-size="10.00">TInterface::SignallerJoined</text>
<text text-anchor="middle" x="964" y="-522.57" font-family="Helvetica,sans-Serif" font-size="10.00">ByMenuItemClick</text>
</a>
</g>
</g>
<!-- Node9&#45;&gt;Node29 -->
<g id="edge45" class="edge">
<title>Node9&#45;&gt;Node29</title>
<path fill="none" stroke="midnightblue" d="M1116.12,-448.84C1097.14,-464.99 1066.13,-489.57 1036,-505.57 1029.07,-509.25 1021.5,-512.57 1013.95,-515.51"/>
<polygon fill="midnightblue" stroke="midnightblue" points="1118.44,-451.47 1123.72,-442.29 1113.86,-446.17 1118.44,-451.47"/>
</g>
<!-- Node30 -->
<g id="node30" class="node">
<title>Node30</title>
<g id="a_node30"><a xlink:href="class_t_interface.html#a0cc484aa9bc0445312ef9191d8212f14" target="_top" xlink:title=" ">
<polygon fill="white" stroke="black" points="892.5,-466.57 892.5,-496.57 1035.5,-496.57 1035.5,-466.57 892.5,-466.57"/>
<text text-anchor="start" x="900.5" y="-484.57" font-family="Helvetica,sans-Serif" font-size="10.00">TInterface::StepForwardMenu</text>
<text text-anchor="middle" x="964" y="-473.57" font-family="Helvetica,sans-Serif" font-size="10.00">ItemClick</text>
</a>
</g>
</g>
<!-- Node9&#45;&gt;Node30 -->
<g id="edge46" class="edge">
<title>Node9&#45;&gt;Node30</title>
<path fill="none" stroke="midnightblue" d="M1091.72,-444.93C1069.03,-451.5 1040.96,-459.61 1017.02,-466.53"/>
<polygon fill="midnightblue" stroke="midnightblue" points="1092.78,-448.27 1101.42,-442.13 1090.84,-441.55 1092.78,-448.27"/>
</g>
<!-- Node31 -->
<g id="node31" class="node">
<title>Node31</title>
<g id="a_node31"><a xlink:href="class_t_interface.html#ab5b80c76a8cc8d2c87f21d323f61c1ce" target="_top" xlink:title=" ">
<polygon fill="white" stroke="black" points="902.5,-417.57 902.5,-447.57 1025.5,-447.57 1025.5,-417.57 902.5,-417.57"/>
<text text-anchor="start" x="910.5" y="-435.57" font-family="Helvetica,sans-Serif" font-size="10.00">TInterface::TakeSignaller</text>
<text text-anchor="middle" x="964" y="-424.57" font-family="Helvetica,sans-Serif" font-size="10.00">ControlMenuItemClick</text>
</a>
</g>
</g>
<!-- Node9&#45;&gt;Node31 -->
<g id="edge47" class="edge">
<title>Node9&#45;&gt;Node31</title>
<path fill="none" stroke="midnightblue" d="M1078.73,-432.57C1061.69,-432.57 1042.88,-432.57 1025.54,-432.57"/>
<polygon fill="midnightblue" stroke="midnightblue" points="1079.08,-436.07 1089.08,-432.57 1079.08,-429.07 1079.08,-436.07"/>
</g>
<!-- Node32 -->
<g id="node32" class="node">
<title>Node32</title>
<g id="a_node32"><a xlink:href="class_t_interface.html#aec12f0e481024f1268fad36e7188b7a4" target="_top" xlink:title=" ">
<polygon fill="white" stroke="black" points="895.5,-329.57 895.5,-359.57 1032.5,-359.57 1032.5,-329.57 895.5,-329.57"/>
<text text-anchor="start" x="903.5" y="-347.57" font-family="Helvetica,sans-Serif" font-size="10.00">TInterface::TimetableControl</text>
<text text-anchor="middle" x="964" y="-336.57" font-family="Helvetica,sans-Serif" font-size="10.00">MenuItemClick</text>
</a>
</g>
</g>
<!-- Node9&#45;&gt;Node32 -->
<g id="edge48" class="edge">
<title>Node9&#45;&gt;Node32</title>
<path fill="none" stroke="midnightblue" d="M1110.9,-417.48C1091.25,-405.2 1062.33,-387.81 1036,-374.57 1025.6,-369.34 1014.07,-364.2 1003.38,-359.69"/>
<polygon fill="midnightblue" stroke="midnightblue" points="1109.17,-420.52 1119.49,-422.89 1112.9,-414.6 1109.17,-420.52"/>
</g>
<!-- Node33 -->
<g id="node33" class="node">
<title>Node33</title>
<g id="a_node33"><a xlink:href="class_t_train.html#a84204e3d8492e73d1eebf0707c49f620" target="_top" xlink:title="Called when there is a random train failure.">
<polygon fill="white" stroke="black" points="712.5,-609.07 712.5,-628.07 825.5,-628.07 825.5,-609.07 712.5,-609.07"/>
<text text-anchor="middle" x="769" y="-616.07" font-family="Helvetica,sans-Serif" font-size="10.00">TTrain::TrainHasFailed</text>
</a>
</g>
</g>
<!-- Node9&#45;&gt;Node33 -->
<g id="edge49" class="edge">
<title>Node9&#45;&gt;Node33</title>
<path fill="none" stroke="midnightblue" d="M1132.98,-452.22C1126.69,-527.79 1099.95,-797.99 1036,-848.57 985.8,-888.27 946.84,-881.56 892,-848.57 806.98,-797.43 778.07,-664.9 771.55,-628.14"/>
<polygon fill="midnightblue" stroke="midnightblue" points="1136.47,-452.42 1133.79,-442.17 1129.5,-451.86 1136.47,-452.42"/>
</g>
<!-- Node10&#45;&gt;Node11 -->
<g id="edge11" class="edge">
<title>Node10&#45;&gt;Node11</title>
<path fill="none" stroke="midnightblue" d="M906.46,-313.36C901.47,-315.18 896.58,-317.25 892,-319.57 873.68,-328.87 874.52,-339.67 856,-348.57 846.49,-353.14 835.86,-356.62 825.4,-359.28"/>
<polygon fill="midnightblue" stroke="midnightblue" points="907.75,-316.62 916.13,-310.13 905.54,-309.98 907.75,-316.62"/>
</g>
<!-- Node10&#45;&gt;Node13 -->
<g id="edge15" class="edge">
<title>Node10&#45;&gt;Node13</title>
<path fill="none" stroke="midnightblue" d="M895.23,-316.24C894.09,-317.28 893.01,-318.39 892,-319.57 845.59,-373.45 909.04,-590.19 856,-637.57 725.84,-753.83 483.85,-643.95 415.75,-609.26"/>
<polygon fill="midnightblue" stroke="midnightblue" points="897.42,-318.97 903.44,-310.25 893.3,-313.31 897.42,-318.97"/>
</g>
<!-- Node10&#45;&gt;Node14 -->
<g id="edge16" class="edge">
<title>Node10&#45;&gt;Node14</title>
<path fill="none" stroke="midnightblue" d="M889.63,-311.59C867.92,-314.86 844.54,-318.37 824.27,-321.42"/>
<polygon fill="midnightblue" stroke="midnightblue" points="890.44,-315.01 899.8,-310.06 889.4,-308.09 890.44,-315.01"/>
</g>
<!-- Node11&#45;&gt;Node12 -->
<g id="edge12" class="edge">
<title>Node11&#45;&gt;Node12</title>
<path fill="none" stroke="midnightblue" d="M710.23,-355.75C700.75,-353.54 691.07,-351.12 682,-348.57 652.32,-340.22 618.93,-328.39 596.7,-320.15"/>
<polygon fill="midnightblue" stroke="midnightblue" points="709.47,-359.17 720,-357.98 711.02,-352.35 709.47,-359.17"/>
</g>
<!-- Node12&#45;&gt;Node13 -->
<g id="edge13" class="edge">
<title>Node12&#45;&gt;Node13</title>
<path fill="none" stroke="midnightblue" d="M558.57,-328.93C525.62,-384.3 427.98,-548.36 403.24,-589.92"/>
<polygon fill="midnightblue" stroke="midnightblue" points="561.67,-330.57 563.78,-320.18 555.66,-326.99 561.67,-330.57"/>
</g>
<!-- Node13&#45;&gt;Node5 -->
<g id="edge14" class="edge">
<title>Node13&#45;&gt;Node5</title>
<path fill="none" stroke="midnightblue" d="M323.83,-608.3C315.24,-609.34 306.54,-610.4 298.16,-611.42"/>
<polygon fill="midnightblue" stroke="midnightblue" points="324.34,-611.76 333.84,-607.08 323.49,-604.81 324.34,-611.76"/>
</g>
<!-- Node14&#45;&gt;Node12 -->
<g id="edge17" class="edge">
<title>Node14&#45;&gt;Node12</title>
<path fill="none" stroke="midnightblue" d="M703.71,-323.35C676.89,-320.76 646.21,-317.79 621.16,-315.37"/>
<polygon fill="midnightblue" stroke="midnightblue" points="703.49,-326.85 713.79,-324.33 704.17,-319.88 703.49,-326.85"/>
</g>
<!-- Node16&#45;&gt;Node12 -->
<g id="edge22" class="edge">
<title>Node16&#45;&gt;Node12</title>
<path fill="none" stroke="midnightblue" d="M951.18,-90.47C933.57,-115.63 897.98,-161 856,-184.57 786.98,-223.32 753.49,-188.58 682,-222.57 639.25,-242.89 598.16,-282.59 580.52,-300.9"/>
<polygon fill="midnightblue" stroke="midnightblue" points="954.08,-92.42 956.83,-82.19 948.3,-88.48 954.08,-92.42"/>
</g>
<!-- Node17 -->
<g id="node17" class="node">
<title>Node17</title>
<g id="a_node17"><a xlink:href="class_t_interface.html#a528675bee2f8940b6fb3de82ebdd9cc1" target="_top" xlink:title="&lt; used when change early to the next service (Fns, Fns&#45;sh, Frh&#45;sh or F&#45;nshs) to advance the action po...">
<polygon fill="white" stroke="black" points="698.5,-57.57 698.5,-87.57 839.5,-87.57 839.5,-57.57 698.5,-57.57"/>
<text text-anchor="start" x="706.5" y="-75.57" font-family="Helvetica,sans-Serif" font-size="10.00">TInterface::SkipEventsBefore</text>
<text text-anchor="middle" x="769" y="-64.57" font-family="Helvetica,sans-Serif" font-size="10.00">SameLoc</text>
</a>
</g>
</g>
<!-- Node16&#45;&gt;Node17 -->
<g id="edge20" class="edge">
<title>Node16&#45;&gt;Node17</title>
<path fill="none" stroke="midnightblue" d="M882.95,-72.57C868.55,-72.57 853.65,-72.57 839.58,-72.57"/>
<polygon fill="midnightblue" stroke="midnightblue" points="883.32,-76.07 893.32,-72.57 883.32,-69.07 883.32,-76.07"/>
</g>
<!-- Node18 -->
<g id="node18" class="node">
<title>Node18</title>
<g id="a_node18"><a xlink:href="class_t_interface.html#a0e9af41ff305fe2813385fce38b73206" target="_top" xlink:title=" ">
<polygon fill="white" stroke="black" points="495,-106.57 495,-136.57 646,-136.57 646,-106.57 495,-106.57"/>
<text text-anchor="start" x="503" y="-124.57" font-family="Helvetica,sans-Serif" font-size="10.00">TInterface::BecomeNewService</text>
<text text-anchor="middle" x="570.5" y="-113.57" font-family="Helvetica,sans-Serif" font-size="10.00">MenuItemClick</text>
</a>
</g>
</g>
<!-- Node17&#45;&gt;Node18 -->
<g id="edge21" class="edge">
<title>Node17&#45;&gt;Node18</title>
<path fill="none" stroke="midnightblue" d="M697.91,-90.05C676.26,-95.45 652.6,-101.34 631.68,-106.56"/>
<polygon fill="midnightblue" stroke="midnightblue" points="698.85,-93.42 707.71,-87.6 697.16,-86.63 698.85,-93.42"/>
</g>
<!-- Node19&#45;&gt;Node12 -->
<g id="edge25" class="edge">
<title>Node19&#45;&gt;Node12</title>
<path fill="none" stroke="midnightblue" d="M714.41,-296.75C685.35,-299.56 649.66,-303.01 621.22,-305.76"/>
<polygon fill="midnightblue" stroke="midnightblue" points="714.77,-300.23 724.39,-295.79 714.1,-293.26 714.77,-300.23"/>
</g>
<!-- Node21&#45;&gt;Node12 -->
<g id="edge29" class="edge">
<title>Node21&#45;&gt;Node12</title>
<path fill="none" stroke="midnightblue" d="M704.92,-265.53C697.18,-267.84 689.4,-270.22 682,-272.57 653.19,-281.71 620.48,-293.08 598.17,-300.99"/>
<polygon fill="midnightblue" stroke="midnightblue" points="706.07,-268.84 714.66,-262.64 704.08,-262.13 706.07,-268.84"/>
</g>
<!-- Node21&#45;&gt;Node18 -->
<g id="edge28" class="edge">
<title>Node21&#45;&gt;Node18</title>
<path fill="none" stroke="midnightblue" d="M735.8,-226.92C696.24,-201.55 630.06,-159.12 594.98,-136.63"/>
<polygon fill="midnightblue" stroke="midnightblue" points="733.99,-229.92 744.3,-232.37 737.77,-224.03 733.99,-229.92"/>
</g>
<!-- Node22&#45;&gt;Node12 -->
<g id="edge32" class="edge">
<title>Node22&#45;&gt;Node12</title>
<path fill="none" stroke="midnightblue" d="M706.06,-178.31C697.65,-181.32 689.39,-185.03 682,-189.57 632.81,-219.83 592.15,-278.18 577.42,-301.05"/>
<polygon fill="midnightblue" stroke="midnightblue" points="707.16,-181.63 715.57,-175.19 704.98,-174.98 707.16,-181.63"/>
</g>
<!-- Node22&#45;&gt;Node18 -->
<g id="edge31" class="edge">
<title>Node22&#45;&gt;Node18</title>
<path fill="none" stroke="midnightblue" d="M715.56,-153.83C691.99,-148.55 663.88,-142.26 638.78,-136.63"/>
<polygon fill="midnightblue" stroke="midnightblue" points="714.84,-157.25 725.36,-156.02 716.37,-150.42 714.84,-157.25"/>
</g>
<!-- Node26&#45;&gt;Node12 -->
<g id="edge40" class="edge">
<title>Node26&#45;&gt;Node12</title>
<path fill="none" stroke="midnightblue" d="M690.31,-141.23C687.42,-142.87 684.64,-144.64 682,-146.57 623.76,-189.07 586.71,-272.2 575.28,-300.7"/>
<polygon fill="midnightblue" stroke="midnightblue" points="691.9,-144.34 699.24,-136.7 688.74,-138.1 691.9,-144.34"/>
</g>
<!-- Node26&#45;&gt;Node18 -->
<g id="edge39" class="edge">
<title>Node26&#45;&gt;Node18</title>
<path fill="none" stroke="midnightblue" d="M688.82,-121.57C674.69,-121.57 660.01,-121.57 646.02,-121.57"/>
<polygon fill="midnightblue" stroke="midnightblue" points="689,-125.07 699,-121.57 689,-118.07 689,-125.07"/>
</g>
<!-- Node27&#45;&gt;Node12 -->
<g id="edge43" class="edge">
<title>Node27&#45;&gt;Node12</title>
<path fill="none" stroke="midnightblue" d="M687.61,-43.26C685.65,-44.58 683.78,-46.02 682,-47.57 647.06,-78.1 663.56,-102.62 646,-145.57 621.5,-205.5 588.19,-275.82 576.11,-301"/>
<polygon fill="midnightblue" stroke="midnightblue" points="689.68,-46.11 696.64,-38.12 686.22,-40.02 689.68,-46.11"/>
</g>
<!-- Node27&#45;&gt;Node18 -->
<g id="edge42" class="edge">
<title>Node27&#45;&gt;Node18</title>
<path fill="none" stroke="midnightblue" d="M700.57,-40.91C694.19,-42.84 687.91,-45.05 682,-47.57 646.54,-62.72 610.32,-89.59 589.42,-106.45"/>
<polygon fill="midnightblue" stroke="midnightblue" points="701.93,-44.17 710.62,-38.11 700.05,-37.42 701.93,-44.17"/>
</g>
<!-- Node33&#45;&gt;Node12 -->
<g id="edge50" class="edge">
<title>Node33&#45;&gt;Node12</title>
<path fill="none" stroke="midnightblue" d="M756.51,-600.55C719.72,-542.89 605.65,-364.1 577.72,-320.32"/>
<polygon fill="midnightblue" stroke="midnightblue" points="753.57,-602.47 761.9,-609.01 759.48,-598.7 753.57,-602.47"/>
</g>
</g>
</svg>
