<?xml version="1.0" encoding="UTF-8" standalone="no"?>
<!DOCTYPE svg PUBLIC "-//W3C//DTD SVG 1.1//EN"
 "http://www.w3.org/Graphics/SVG/1.1/DTD/svg11.dtd">
<!-- Generated by graphviz version 2.44.1 (20200629.0800)
 -->
<!-- Title: TTrain::LogAction Pages: 1 -->
<!--zoomable 269 -->
<svg id="main" version="1.1" xmlns="http://www.w3.org/2000/svg" xmlns:xlink="http://www.w3.org/1999/xlink" xml:space="preserve" onload="init(evt)">
<style type="text/css"><![CDATA[
.edge:hover path { stroke: red; }
.edge:hover polygon { stroke: red; fill: red; }
]]></style>
<script type="text/javascript"><![CDATA[
var edges = document.getElementsByTagName('g');
if (edges && edges.length) {
  for (var i=0;i<edges.length;i++) {
    if (edges[i].id.substr(0,4)=='edge') {
      edges[i].setAttribute('class','edge');
    }
  }
}
]]></script>
        <defs>
                <circle id="rim" cx="0" cy="0" r="7"/>
                <circle id="rim2" cx="0" cy="0" r="3.5"/>
                <g id="zoomPlus">
                        <use xlink:href="#rim" fill="#404040">
                                <set attributeName="fill" to="#808080" begin="zoomplus.mouseover" end="zoomplus.mouseout"/>
                        </use>
                        <path d="M-4,0h8M0,-4v8" fill="none" stroke="white" stroke-width="1.5" pointer-events="none"/>
                </g>
                <g id="zoomMin">
                        <use xlink:href="#rim" fill="#404040">
                                <set attributeName="fill" to="#808080" begin="zoomminus.mouseover" end="zoomminus.mouseout"/>
                        </use>
                        <path d="M-4,0h8" fill="none" stroke="white" stroke-width="1.5" pointer-events="none"/>
                </g>
                <g id="dirArrow">
                        <path fill="none" stroke="white" stroke-width="1.5" d="M0,-3.0v7 M-2.5,-0.5L0,-3.0L2.5,-0.5"/>
                </g>
               <g id="resetDef">
                       <use xlink:href="#rim2" fill="#404040">
                               <set attributeName="fill" to="#808080" begin="reset.mouseover" end="reset.mouseout"/>
                       </use>
               </g>
        </defs>

<script type="text/javascript">
var viewWidth = 583;
var viewHeight = 269;
var sectionId = 'dynsection-54';
</script>
<script xlink:href="svgpan.js"/>
<svg id="graph" class="graph">
<g id="viewport">
<title>TTrain::LogAction</title>
<polygon fill="white" stroke="transparent" points="-4,4 -4,-264.72 579,-264.72 579,4 -4,4"/>
<!-- Node1 -->
<g id="node1" class="node">
<title>Node1</title>
<g id="a_node1"><a xlink:title="Send a message to the performance log and performance file, and if the message is flagged as a warnin...">
<polygon fill="#bfbfbf" stroke="black" points="0,-85.29 0,-104.29 92,-104.29 92,-85.29 0,-85.29"/>
<text text-anchor="middle" x="46" y="-92.29" font-family="Helvetica,sans-Serif" font-size="10.00">TTrain::LogAction</text>
</a>
</g>
</g>
<!-- Node2 -->
<g id="node2" class="node">
<title>Node2</title>
<g id="a_node2"><a xlink:href="class_t_utilities.html#ae1eddca13cc3c492839e131f40ec21c0" target="_top" xlink:title="pops the last entry off the call stack, throws an error if called when empty">
<polygon fill="white" stroke="black" points="465,-180.29 465,-199.29 575,-199.29 575,-180.29 465,-180.29"/>
<text text-anchor="middle" x="520" y="-187.29" font-family="Helvetica,sans-Serif" font-size="10.00">TUtilities::CallLogPop</text>
</a>
</g>
</g>
<!-- Node1&#45;&gt;Node2 -->
<g id="edge1" class="edge">
<title>Node1&#45;&gt;Node2</title>
<path fill="none" stroke="midnightblue" d="M56.01,-104.56C84.17,-134.18 174.39,-222.44 271,-246.79 339.09,-263.96 361.56,-266.35 429,-246.79 456.23,-238.9 483.12,-220.02 500.31,-206.15"/>
<polygon fill="midnightblue" stroke="midnightblue" points="502.93,-208.52 508.37,-199.43 498.44,-203.14 502.93,-208.52"/>
</g>
<!-- Node3 -->
<g id="node3" class="node">
<title>Node3</title>
<g id="a_node3"><a xlink:href="class_t_utilities.html#a2dfbe3d4ed11770bc1a902b51afdc10c" target="_top" xlink:title="formats a TDateTime into an AnsiString of the form hh:mm:ss where hh runs from 00 to 95 &amp; resets when...">
<polygon fill="white" stroke="black" points="277.5,-66.29 277.5,-85.29 422.5,-85.29 422.5,-66.29 277.5,-66.29"/>
<text text-anchor="middle" x="350" y="-73.29" font-family="Helvetica,sans-Serif" font-size="10.00">TUtilities::Format96HHMMSS</text>
</a>
</g>
</g>
<!-- Node1&#45;&gt;Node3 -->
<g id="edge2" class="edge">
<title>Node1&#45;&gt;Node3</title>
<path fill="none" stroke="midnightblue" d="M92.21,-91.95C138.3,-89.05 210.8,-84.49 267.03,-80.95"/>
<polygon fill="midnightblue" stroke="midnightblue" points="267.57,-84.42 277.33,-80.3 267.13,-77.44 267.57,-84.42"/>
</g>
<!-- Node4 -->
<g id="node4" class="node">
<title>Node4</title>
<g id="a_node4"><a xlink:href="class_t_train.html#ad249f34f6862e604b8e141d1b25fe57d" target="_top" xlink:title="Returns the timetable action time corresponding to &#39;Time&#39; for this train, i.e. it adjusts the time va...">
<polygon fill="white" stroke="black" points="128,-104.29 128,-123.29 235,-123.29 235,-104.29 128,-104.29"/>
<text text-anchor="middle" x="181.5" y="-111.29" font-family="Helvetica,sans-Serif" font-size="10.00">TTrain::GetTrainTime</text>
</a>
</g>
</g>
<!-- Node1&#45;&gt;Node4 -->
<g id="edge3" class="edge">
<title>Node1&#45;&gt;Node4</title>
<path fill="none" stroke="midnightblue" d="M92.2,-101.23C100.46,-102.4 109.22,-103.65 117.88,-104.88"/>
<polygon fill="midnightblue" stroke="midnightblue" points="117.58,-108.37 127.98,-106.32 118.57,-101.44 117.58,-108.37"/>
</g>
<!-- Node6 -->
<g id="node6" class="node">
<title>Node6</title>
<g id="a_node6"><a xlink:href="class_t_utilities.html#a34bd6bb5305bc29afdf424f6d35a921c" target="_top" xlink:title="creates a string of the form &#39;hh:mm:ss&#39; for use in call &amp; event logging">
<polygon fill="white" stroke="black" points="465,-104.29 465,-123.29 575,-123.29 575,-104.29 465,-104.29"/>
<text text-anchor="middle" x="520" y="-111.29" font-family="Helvetica,sans-Serif" font-size="10.00">TUtilities::TimeStamp</text>
</a>
</g>
</g>
<!-- Node1&#45;&gt;Node6 -->
<g id="edge13" class="edge">
<title>Node1&#45;&gt;Node6</title>
<path fill="none" stroke="midnightblue" d="M62.98,-85.15C116.78,-54 295.45,38.65 429,-18.79 465.16,-34.35 493.6,-72.36 508.2,-95.31"/>
<polygon fill="midnightblue" stroke="midnightblue" points="505.39,-97.41 513.6,-104.11 511.36,-93.76 505.39,-97.41"/>
</g>
<!-- Node7 -->
<g id="node7" class="node">
<title>Node7</title>
<g id="a_node7"><a xlink:href="class_t_display.html#a92bea1eb27a17c6c7f902858d4115d71" target="_top" xlink:title="Send Statement to the performance log on screen and to the file.">
<polygon fill="white" stroke="black" points="284.5,-218.29 284.5,-237.29 415.5,-237.29 415.5,-218.29 284.5,-218.29"/>
<text text-anchor="middle" x="350" y="-225.29" font-family="Helvetica,sans-Serif" font-size="10.00">TDisplay::PerformanceLog</text>
</a>
</g>
</g>
<!-- Node1&#45;&gt;Node7 -->
<g id="edge10" class="edge">
<title>Node1&#45;&gt;Node7</title>
<path fill="none" stroke="midnightblue" d="M66.91,-104.3C83.27,-112.06 107.07,-123.28 128,-132.79 191.22,-161.54 207.09,-168.61 271,-195.79 285.63,-202.02 301.89,-208.72 315.76,-214.38"/>
<polygon fill="midnightblue" stroke="midnightblue" points="314.8,-217.76 325.38,-218.29 317.44,-211.28 314.8,-217.76"/>
</g>
<!-- Node8 -->
<g id="node8" class="node">
<title>Node8</title>
<g id="a_node8"><a xlink:href="class_t_display.html#a604d491a723df459bdcd54a4b9d1d9f2" target="_top" xlink:title="Display warning message Statement in the bottom left hand warning position and scroll other messages ...">
<polygon fill="white" stroke="black" points="294,-28.29 294,-47.29 406,-47.29 406,-28.29 294,-28.29"/>
<text text-anchor="middle" x="350" y="-35.29" font-family="Helvetica,sans-Serif" font-size="10.00">TDisplay::WarningLog</text>
</a>
</g>
</g>
<!-- Node1&#45;&gt;Node8 -->
<g id="edge14" class="edge">
<title>Node1&#45;&gt;Node8</title>
<path fill="none" stroke="midnightblue" d="M92.39,-85.73C104,-83.44 116.46,-81.01 128,-78.79 181.51,-68.55 242.39,-57.28 286.69,-49.16"/>
<polygon fill="midnightblue" stroke="midnightblue" points="287.52,-52.56 296.72,-47.32 286.26,-45.68 287.52,-52.56"/>
</g>
<!-- Node4&#45;&gt;Node2 -->
<g id="edge4" class="edge">
<title>Node4&#45;&gt;Node2</title>
<path fill="none" stroke="midnightblue" d="M193.29,-123.33C209.08,-136.66 239.99,-160.37 271,-170.79 330.93,-190.94 403.43,-194.26 454.52,-193.41"/>
<polygon fill="midnightblue" stroke="midnightblue" points="454.84,-196.9 464.76,-193.17 454.68,-189.9 454.84,-196.9"/>
</g>
<!-- Node4&#45;&gt;Node3 -->
<g id="edge5" class="edge">
<title>Node4&#45;&gt;Node3</title>
<path fill="none" stroke="midnightblue" d="M224.51,-104.21C246.68,-99.15 274.07,-92.89 297.51,-87.55"/>
<polygon fill="midnightblue" stroke="midnightblue" points="298.32,-90.95 307.29,-85.31 296.76,-84.13 298.32,-90.95"/>
</g>
<!-- Node5 -->
<g id="node5" class="node">
<title>Node5</title>
<g id="a_node5"><a xlink:href="class_t_train_controller.html#a435ef46f062904e85ae9792faaecdcf7" target="_top" xlink:title="Return the repeating service time.">
<polygon fill="white" stroke="black" points="271,-142.29 271,-161.29 429,-161.29 429,-142.29 271,-142.29"/>
<text text-anchor="middle" x="350" y="-149.29" font-family="Helvetica,sans-Serif" font-size="10.00">TTrainController::GetRepeatTime</text>
</a>
</g>
</g>
<!-- Node4&#45;&gt;Node5 -->
<g id="edge6" class="edge">
<title>Node4&#45;&gt;Node5</title>
<path fill="none" stroke="midnightblue" d="M224.51,-123.38C246.68,-128.44 274.07,-134.69 297.51,-140.04"/>
<polygon fill="midnightblue" stroke="midnightblue" points="296.76,-143.46 307.29,-142.27 298.32,-136.64 296.76,-143.46"/>
</g>
<!-- Node4&#45;&gt;Node6 -->
<g id="edge9" class="edge">
<title>Node4&#45;&gt;Node6</title>
<path fill="none" stroke="midnightblue" d="M235.08,-113.79C294.35,-113.79 390.74,-113.79 454.51,-113.79"/>
<polygon fill="midnightblue" stroke="midnightblue" points="454.84,-117.29 464.84,-113.79 454.84,-110.29 454.84,-117.29"/>
</g>
<!-- Node5&#45;&gt;Node2 -->
<g id="edge7" class="edge">
<title>Node5&#45;&gt;Node2</title>
<path fill="none" stroke="midnightblue" d="M393.39,-161.38C415.76,-166.44 443.4,-172.69 467.05,-178.04"/>
<polygon fill="midnightblue" stroke="midnightblue" points="466.39,-181.48 476.91,-180.27 467.93,-174.65 466.39,-181.48"/>
</g>
<!-- Node5&#45;&gt;Node6 -->
<g id="edge8" class="edge">
<title>Node5&#45;&gt;Node6</title>
<path fill="none" stroke="midnightblue" d="M393.39,-142.21C415.76,-137.15 443.4,-130.89 467.05,-125.55"/>
<polygon fill="midnightblue" stroke="midnightblue" points="467.93,-128.93 476.91,-123.31 466.39,-122.11 467.93,-128.93"/>
</g>
<!-- Node7&#45;&gt;Node2 -->
<g id="edge11" class="edge">
<title>Node7&#45;&gt;Node2</title>
<path fill="none" stroke="midnightblue" d="M393.39,-218.21C415.76,-213.15 443.4,-206.89 467.05,-201.55"/>
<polygon fill="midnightblue" stroke="midnightblue" points="467.93,-204.93 476.91,-199.31 466.39,-198.11 467.93,-204.93"/>
</g>
<!-- Node7&#45;&gt;Node6 -->
<g id="edge12" class="edge">
<title>Node7&#45;&gt;Node6</title>
<path fill="none" stroke="midnightblue" d="M365.03,-218.27C393.99,-198.62 460.6,-153.42 495.97,-129.42"/>
<polygon fill="midnightblue" stroke="midnightblue" points="498.34,-132.04 504.65,-123.53 494.41,-126.25 498.34,-132.04"/>
</g>
<!-- Node8&#45;&gt;Node2 -->
<g id="edge15" class="edge">
<title>Node8&#45;&gt;Node2</title>
<path fill="none" stroke="midnightblue" d="M406.35,-44.72C414.53,-47.53 422.41,-51.42 429,-56.79 457.98,-80.4 443.88,-101.95 465,-132.79 475.16,-147.64 489.2,-162.32 500.41,-173.07"/>
<polygon fill="midnightblue" stroke="midnightblue" points="498.29,-175.88 507.98,-180.15 503.07,-170.76 498.29,-175.88"/>
</g>
<!-- Node8&#45;&gt;Node6 -->
<g id="edge16" class="edge">
<title>Node8&#45;&gt;Node6</title>
<path fill="none" stroke="midnightblue" d="M400.89,-47.38C410.4,-49.92 420.15,-53.03 429,-56.79 454.37,-67.57 480.7,-85.12 498.28,-97.9"/>
<polygon fill="midnightblue" stroke="midnightblue" points="496.5,-100.94 506.62,-104.09 500.67,-95.32 496.5,-100.94"/>
</g>
</g>
</svg>
        <g id="navigator" transform="translate(0 0)" fill="#404254">
                <rect fill="#f2f5e9" fill-opacity="0.5" stroke="#606060" stroke-width=".5" x="0" y="0" width="60" height="60"/>
                <use id="zoomplus" xlink:href="#zoomPlus" x="17" y="9" onmousedown="handleZoom(evt,'in')"/>
                <use id="zoomminus" xlink:href="#zoomMin" x="42" y="9" onmousedown="handleZoom(evt,'out')"/>
                <use id="reset" xlink:href="#resetDef" x="30" y="36" onmousedown="handleReset()"/>
                <g id="arrowUp" xlink:href="#dirArrow" transform="translate(30 24)" onmousedown="handlePan(0,-1)">
                  <use xlink:href="#rim" fill="#404040">
                        <set attributeName="fill" to="#808080" begin="arrowUp.mouseover" end="arrowUp.mouseout"/>
                  </use>
                  <path fill="none" stroke="white" stroke-width="1.5" d="M0,-3.0v7 M-2.5,-0.5L0,-3.0L2.5,-0.5"/>
                </g>
                <g id="arrowRight" xlink:href="#dirArrow" transform="rotate(90) translate(36 -43)" onmousedown="handlePan(1,0)">
                  <use xlink:href="#rim" fill="#404040">
                        <set attributeName="fill" to="#808080" begin="arrowRight.mouseover" end="arrowRight.mouseout"/>
                  </use>
                  <path fill="none" stroke="white" stroke-width="1.5" d="M0,-3.0v7 M-2.5,-0.5L0,-3.0L2.5,-0.5"/>
                </g>
                <g id="arrowDown" xlink:href="#dirArrow" transform="rotate(180) translate(-30 -48)" onmousedown="handlePan(0,1)">
                  <use xlink:href="#rim" fill="#404040">
                        <set attributeName="fill" to="#808080" begin="arrowDown.mouseover" end="arrowDown.mouseout"/>
                  </use>
                  <path fill="none" stroke="white" stroke-width="1.5" d="M0,-3.0v7 M-2.5,-0.5L0,-3.0L2.5,-0.5"/>
                </g>
                <g id="arrowLeft" xlink:href="#dirArrow" transform="rotate(270) translate(-36 17)" onmousedown="handlePan(-1,0)">
                  <use xlink:href="#rim" fill="#404040">
                        <set attributeName="fill" to="#808080" begin="arrowLeft.mouseover" end="arrowLeft.mouseout"/>
                  </use>
                  <path fill="none" stroke="white" stroke-width="1.5" d="M0,-3.0v7 M-2.5,-0.5L0,-3.0L2.5,-0.5"/>
                </g>
        </g>
        <svg viewBox="0 0 15 15" width="100%" height="30px" preserveAspectRatio="xMaxYMin meet">
         <g id="arrow_out" transform="scale(0.3 0.3)">
          <a xlink:href="class_t_train_a493ab1c185d29bf28ec8fded2356e9fc_cgraph_org.svg" target="_base">
           <rect id="button" ry="5" rx="5" y="6" x="6" height="38" width="38"
                fill="#f2f5e9" fill-opacity="0.5" stroke="#606060" stroke-width="1.0"/>
           <path id="arrow"
             d="M 11.500037,31.436501 C 11.940474,20.09759 22.043105,11.32322 32.158766,21.979434 L 37.068811,17.246167 C 37.068811,17.246167 37.088388,32 37.088388,32 L 22.160133,31.978069 C 22.160133,31.978069 26.997745,27.140456 26.997745,27.140456 C 18.528582,18.264221 13.291696,25.230495 11.500037,31.436501 z"
             style="fill:#404040;"/>
          </a>
         </g>
        </svg>
</svg>
