<?xml version="1.0" encoding="UTF-8" standalone="no"?>
<!DOCTYPE svg PUBLIC "-//W3C//DTD SVG 1.1//EN"
 "http://www.w3.org/Graphics/SVG/1.1/DTD/svg11.dtd">
<!-- Generated by graphviz version 2.44.1 (20200629.0800)
 -->
<!-- Title: TTrain::JoinedBy Pages: 1 -->
<svg width="784pt" height="919pt"
 viewBox="0.00 0.00 784.00 919.24" xmlns="http://www.w3.org/2000/svg" xmlns:xlink="http://www.w3.org/1999/xlink">
<g id="graph0" class="graph" transform="scale(1 1) rotate(0) translate(4 915.24)">
<title>TTrain::JoinedBy</title>
<polygon fill="white" stroke="transparent" points="-4,4 -4,-915.24 780,-915.24 780,4 -4,4"/>
<!-- Node1 -->
<g id="node1" class="node">
<title>Node1</title>
<g id="a_node1"><a xlink:title="Carry out the actions needed when a train is waiting to be joined by another train.">
<polygon fill="#bfbfbf" stroke="black" points="0,-275.1 0,-294.1 89,-294.1 89,-275.1 0,-275.1"/>
<text text-anchor="middle" x="44.5" y="-282.1" font-family="Helvetica,sans-Serif" font-size="10.00">TTrain::JoinedBy</text>
</a>
</g>
</g>
<!-- Node2 -->
<g id="node2" class="node">
<title>Node2</title>
<g id="a_node2"><a xlink:href="class_t_utilities.html#ae1eddca13cc3c492839e131f40ec21c0" target="_top" xlink:title="&lt; specifies whether no delays or minor, moderate or major random delays are to be applied">
<polygon fill="white" stroke="black" points="666,-563.1 666,-582.1 776,-582.1 776,-563.1 666,-563.1"/>
<text text-anchor="middle" x="721" y="-570.1" font-family="Helvetica,sans-Serif" font-size="10.00">TUtilities::CallLogPop</text>
</a>
</g>
</g>
<!-- Node1&#45;&gt;Node2 -->
<g id="edge1" class="edge">
<title>Node1&#45;&gt;Node2</title>
<path fill="none" stroke="midnightblue" d="M46.23,-294.32C50.72,-352.37 76.11,-653.27 125,-729.6 174.07,-806.23 207.6,-815.21 293,-846.6 433.76,-898.35 509.3,-952.61 630,-863.6 675.18,-830.28 707.32,-652.07 716.98,-592.22"/>
<polygon fill="midnightblue" stroke="midnightblue" points="720.46,-592.62 718.56,-582.2 713.55,-591.53 720.46,-592.62"/>
</g>
<!-- Node3 -->
<g id="node3" class="node">
<title>Node3</title>
<g id="a_node3"><a xlink:href="class_t_train_controller.html#afb0e8fd36435809350cb323ab9fe2213" target="_top" xlink:title="Return the service headcode for the repeat service.">
<polygon fill="white" stroke="black" points="294.5,-146.6 294.5,-176.6 431.5,-176.6 431.5,-146.6 294.5,-146.6"/>
<text text-anchor="start" x="302.5" y="-164.6" font-family="Helvetica,sans-Serif" font-size="10.00">TTrainController::GetRepeat</text>
<text text-anchor="middle" x="363" y="-153.6" font-family="Helvetica,sans-Serif" font-size="10.00">HeadCode</text>
</a>
</g>
</g>
<!-- Node1&#45;&gt;Node3 -->
<g id="edge2" class="edge">
<title>Node1&#45;&gt;Node3</title>
<path fill="none" stroke="midnightblue" d="M70.07,-275.05C122.26,-254.77 244.98,-207.08 313.53,-180.44"/>
<polygon fill="midnightblue" stroke="midnightblue" points="315.18,-183.55 323.24,-176.67 312.65,-177.03 315.18,-183.55"/>
</g>
<!-- Node5 -->
<g id="node5" class="node">
<title>Node5</title>
<g id="a_node5"><a xlink:href="class_t_utilities.html#a34bd6bb5305bc29afdf424f6d35a921c" target="_top" xlink:title="creates a string of the form &#39;hh:mm:ss&#39; for use in call &amp; event logging">
<polygon fill="white" stroke="black" points="666,-316.1 666,-335.1 776,-335.1 776,-316.1 666,-316.1"/>
<text text-anchor="middle" x="721" y="-323.1" font-family="Helvetica,sans-Serif" font-size="10.00">TUtilities::TimeStamp</text>
</a>
</g>
</g>
<!-- Node1&#45;&gt;Node5 -->
<g id="edge36" class="edge">
<title>Node1&#45;&gt;Node5</title>
<path fill="none" stroke="midnightblue" d="M47.69,-274.85C54.22,-248.23 76.2,-174.02 125,-139.6 217.08,-74.65 537.02,-29.94 630,-93.6 702.13,-142.99 716.46,-259.25 719.3,-305.82"/>
<polygon fill="midnightblue" stroke="midnightblue" points="715.82,-306.25 719.8,-316.07 722.81,-305.91 715.82,-306.25"/>
</g>
<!-- Node6 -->
<g id="node6" class="node">
<title>Node6</title>
<g id="a_node6"><a xlink:href="class_t_train.html#a493ab1c185d29bf28ec8fded2356e9fc" target="_top" xlink:title="Send a message to the performance log and performance file, and if the message is flagged as a warnin...">
<polygon fill="white" stroke="black" points="145,-658.1 145,-677.1 237,-677.1 237,-658.1 145,-658.1"/>
<text text-anchor="middle" x="191" y="-665.1" font-family="Helvetica,sans-Serif" font-size="10.00">TTrain::LogAction</text>
</a>
</g>
</g>
<!-- Node1&#45;&gt;Node6 -->
<g id="edge8" class="edge">
<title>Node1&#45;&gt;Node6</title>
<path fill="none" stroke="midnightblue" d="M49.22,-294.46C68.42,-345.36 156.51,-578.85 182.66,-648.16"/>
<polygon fill="midnightblue" stroke="midnightblue" points="179.5,-649.7 186.31,-657.82 186.05,-647.23 179.5,-649.7"/>
</g>
<!-- Node12 -->
<g id="node12" class="node">
<title>Node12</title>
<g id="a_node12"><a xlink:href="class_t_train_controller.html#a9acd46962be476bc76c8d5ce59fff399" target="_top" xlink:title="Send an error message to the performance log and file, and as a warning if appropriate.">
<polygon fill="white" stroke="black" points="296,-734.6 296,-764.6 430,-764.6 430,-734.6 296,-734.6"/>
<text text-anchor="start" x="304" y="-752.6" font-family="Helvetica,sans-Serif" font-size="10.00">TTrainController::LogAction</text>
<text text-anchor="middle" x="363" y="-741.6" font-family="Helvetica,sans-Serif" font-size="10.00">Error</text>
</a>
</g>
</g>
<!-- Node1&#45;&gt;Node12 -->
<g id="edge25" class="edge">
<title>Node1&#45;&gt;Node12</title>
<path fill="none" stroke="midnightblue" d="M46.06,-294.35C49.46,-349.99 69.05,-626.91 125,-686.6 165.88,-730.21 233.2,-744.94 285.66,-749.34"/>
<polygon fill="midnightblue" stroke="midnightblue" points="285.72,-752.86 295.95,-750.09 286.23,-745.88 285.72,-752.86"/>
</g>
<!-- Node13 -->
<g id="node13" class="node">
<title>Node13</title>
<g id="a_node13"><a xlink:href="class_t_train_controller.html#ac88477499edd24550fae9b90b5561ed1" target="_top" xlink:title="store Str to the event log &#45; moved from TUtilities for v0.6 so can record the tt clock value">
<polygon fill="white" stroke="black" points="126,-26.1 126,-45.1 256,-45.1 256,-26.1 126,-26.1"/>
<text text-anchor="middle" x="191" y="-33.1" font-family="Helvetica,sans-Serif" font-size="10.00">TTrainController::LogEvent</text>
</a>
</g>
</g>
<!-- Node1&#45;&gt;Node13 -->
<g id="edge31" class="edge">
<title>Node1&#45;&gt;Node13</title>
<path fill="none" stroke="midnightblue" d="M46.08,-274.99C48.65,-240.78 61.88,-123.62 125,-59.6 128.91,-55.64 133.52,-52.33 138.47,-49.56"/>
<polygon fill="midnightblue" stroke="midnightblue" points="140.15,-52.63 147.63,-45.14 137.1,-46.33 140.15,-52.63"/>
</g>
<!-- Node14 -->
<g id="node14" class="node">
<title>Node14</title>
<g id="a_node14"><a xlink:href="class_t_train_controller.html#aba5615209a7dca921e968fca5c52c060" target="_top" xlink:title="sends a message to the user and stops the timetable clock while it is displayed">
<polygon fill="white" stroke="black" points="476.5,-102.6 476.5,-132.6 622.5,-132.6 622.5,-102.6 476.5,-102.6"/>
<text text-anchor="start" x="484.5" y="-120.6" font-family="Helvetica,sans-Serif" font-size="10.00">TTrainController::StopTTClock</text>
<text text-anchor="middle" x="549.5" y="-109.6" font-family="Helvetica,sans-Serif" font-size="10.00">Message</text>
</a>
</g>
</g>
<!-- Node1&#45;&gt;Node14 -->
<g id="edge33" class="edge">
<title>Node1&#45;&gt;Node14</title>
<path fill="none" stroke="midnightblue" d="M52.29,-274.94C64.82,-257.75 93.21,-221.7 125,-200.6 228.39,-132 375.26,-117.42 466.07,-115.68"/>
<polygon fill="midnightblue" stroke="midnightblue" points="466.37,-119.18 476.32,-115.53 466.27,-112.18 466.37,-119.18"/>
</g>
<!-- Node15 -->
<g id="node15" class="node">
<title>Node15</title>
<g id="a_node15"><a xlink:href="class_t_train.html#ab4fefd748946d8530bca23a7699d0abc" target="_top" xlink:title="True for a train waiting to be joined when the joining train is adjacent.">
<polygon fill="white" stroke="black" points="125,-310.6 125,-340.6 257,-340.6 257,-310.6 125,-310.6"/>
<text text-anchor="start" x="133" y="-328.6" font-family="Helvetica,sans-Serif" font-size="10.00">TTrain::TrainToBeJoinedBy</text>
<text text-anchor="middle" x="191" y="-317.6" font-family="Helvetica,sans-Serif" font-size="10.00">IsAdjacent</text>
</a>
</g>
</g>
<!-- Node1&#45;&gt;Node15 -->
<g id="edge37" class="edge">
<title>Node1&#45;&gt;Node15</title>
<path fill="none" stroke="midnightblue" d="M79.01,-294.11C93.37,-298.19 110.63,-303.08 127.2,-307.79"/>
<polygon fill="midnightblue" stroke="midnightblue" points="126.28,-311.16 136.86,-310.53 128.2,-304.43 126.28,-311.16"/>
</g>
<!-- Node3&#45;&gt;Node2 -->
<g id="edge3" class="edge">
<title>Node3&#45;&gt;Node2</title>
<path fill="none" stroke="midnightblue" d="M368.13,-176.69C378.6,-212 409.69,-300.37 469,-344.6 527.93,-388.56 572.84,-336.37 630,-382.6 685.27,-427.31 708.54,-513.97 716.5,-552.87"/>
<polygon fill="midnightblue" stroke="midnightblue" points="713.11,-553.75 718.43,-562.91 719.98,-552.43 713.11,-553.75"/>
</g>
<!-- Node4 -->
<g id="node4" class="node">
<title>Node4</title>
<g id="a_node4"><a xlink:href="class_t_train_controller.html#a6fc210d266e7672ccc648c0a9ab4e542" target="_top" xlink:title="Checks the last two characters in HeadCode and returns true if both are digits.">
<polygon fill="white" stroke="black" points="469,-228.6 469,-258.6 630,-258.6 630,-228.6 469,-228.6"/>
<text text-anchor="start" x="477" y="-246.6" font-family="Helvetica,sans-Serif" font-size="10.00">TTrainController::Last2Characters</text>
<text text-anchor="middle" x="549.5" y="-235.6" font-family="Helvetica,sans-Serif" font-size="10.00">BothDigits</text>
</a>
</g>
</g>
<!-- Node3&#45;&gt;Node4 -->
<g id="edge4" class="edge">
<title>Node3&#45;&gt;Node4</title>
<path fill="none" stroke="midnightblue" d="M397.84,-176.64C428.04,-190.07 472.44,-209.8 505.22,-224.37"/>
<polygon fill="midnightblue" stroke="midnightblue" points="504,-227.66 514.56,-228.52 506.85,-221.26 504,-227.66"/>
</g>
<!-- Node3&#45;&gt;Node5 -->
<g id="edge7" class="edge">
<title>Node3&#45;&gt;Node5</title>
<path fill="none" stroke="midnightblue" d="M431.6,-152.07C488.6,-147.5 570.22,-149.38 630,-185.6 675.98,-213.46 702.67,-274.78 713.81,-306.2"/>
<polygon fill="midnightblue" stroke="midnightblue" points="710.6,-307.62 717.12,-315.97 717.23,-305.37 710.6,-307.62"/>
</g>
<!-- Node4&#45;&gt;Node2 -->
<g id="edge5" class="edge">
<title>Node4&#45;&gt;Node2</title>
<path fill="none" stroke="midnightblue" d="M576.68,-258.75C594,-269.98 616.01,-286.73 630,-306.6 686.78,-387.25 710.03,-506.57 717.28,-553.06"/>
<polygon fill="midnightblue" stroke="midnightblue" points="713.82,-553.63 718.76,-563.01 720.75,-552.61 713.82,-553.63"/>
</g>
<!-- Node4&#45;&gt;Node5 -->
<g id="edge6" class="edge">
<title>Node4&#45;&gt;Node5</title>
<path fill="none" stroke="midnightblue" d="M594.36,-258.69C606.1,-263.13 618.67,-268.24 630,-273.6 653.33,-284.66 678.69,-299.59 696.53,-310.63"/>
<polygon fill="midnightblue" stroke="midnightblue" points="694.78,-313.66 705.12,-316 698.5,-307.73 694.78,-313.66"/>
</g>
<!-- Node6&#45;&gt;Node2 -->
<g id="edge9" class="edge">
<title>Node6&#45;&gt;Node2</title>
<path fill="none" stroke="midnightblue" d="M196.18,-677.31C207.56,-702.41 241.69,-769.59 293,-799.6 422.63,-875.45 507.23,-911.12 630,-824.6 707.69,-769.85 718.69,-641.65 719.97,-592.38"/>
<polygon fill="midnightblue" stroke="midnightblue" points="723.47,-592.18 720.12,-582.13 716.47,-592.08 723.47,-592.18"/>
</g>
<!-- Node6&#45;&gt;Node5 -->
<g id="edge21" class="edge">
<title>Node6&#45;&gt;Node5</title>
<path fill="none" stroke="midnightblue" d="M200.98,-658.04C233.45,-624.12 349.13,-508.57 469,-453.6 535.39,-423.16 566.16,-456.09 630,-420.6 664.06,-401.68 692.87,-365.47 708.19,-343.64"/>
<polygon fill="midnightblue" stroke="midnightblue" points="711.16,-345.48 713.9,-335.25 705.38,-341.54 711.16,-345.48"/>
</g>
<!-- Node7 -->
<g id="node7" class="node">
<title>Node7</title>
<g id="a_node7"><a xlink:href="class_t_utilities.html#a2dfbe3d4ed11770bc1a902b51afdc10c" target="_top" xlink:title="formats a TDateTime into an AnsiString of the form hh:mm:ss where hh runs from 00 to 95 &amp; resets when...">
<polygon fill="white" stroke="black" points="477,-658.1 477,-677.1 622,-677.1 622,-658.1 477,-658.1"/>
<text text-anchor="middle" x="549.5" y="-665.1" font-family="Helvetica,sans-Serif" font-size="10.00">TUtilities::Format96HHMMSS</text>
</a>
</g>
</g>
<!-- Node6&#45;&gt;Node7 -->
<g id="edge10" class="edge">
<title>Node6&#45;&gt;Node7</title>
<path fill="none" stroke="midnightblue" d="M237.15,-667.6C294.74,-667.6 395.4,-667.6 466.66,-667.6"/>
<polygon fill="midnightblue" stroke="midnightblue" points="466.95,-671.1 476.95,-667.6 466.95,-664.1 466.95,-671.1"/>
</g>
<!-- Node8 -->
<g id="node8" class="node">
<title>Node8</title>
<g id="a_node8"><a xlink:href="class_t_train.html#ad249f34f6862e604b8e141d1b25fe57d" target="_top" xlink:title="Returns the timetable action time corresponding to &#39;Time&#39; for this train, i.e. it adjusts the time va...">
<polygon fill="white" stroke="black" points="309.5,-620.1 309.5,-639.1 416.5,-639.1 416.5,-620.1 309.5,-620.1"/>
<text text-anchor="middle" x="363" y="-627.1" font-family="Helvetica,sans-Serif" font-size="10.00">TTrain::GetTrainTime</text>
</a>
</g>
</g>
<!-- Node6&#45;&gt;Node8 -->
<g id="edge11" class="edge">
<title>Node6&#45;&gt;Node8</title>
<path fill="none" stroke="midnightblue" d="M234.9,-658.02C257.53,-652.96 285.5,-646.7 309.43,-641.36"/>
<polygon fill="midnightblue" stroke="midnightblue" points="310.41,-644.72 319.41,-639.12 308.89,-637.89 310.41,-644.72"/>
</g>
<!-- Node10 -->
<g id="node10" class="node">
<title>Node10</title>
<g id="a_node10"><a xlink:href="class_t_display.html#a92bea1eb27a17c6c7f902858d4115d71" target="_top" xlink:title="Send Statement to the performance log on screen and to the file.">
<polygon fill="white" stroke="black" points="484,-696.1 484,-715.1 615,-715.1 615,-696.1 484,-696.1"/>
<text text-anchor="middle" x="549.5" y="-703.1" font-family="Helvetica,sans-Serif" font-size="10.00">TDisplay::PerformanceLog</text>
</a>
</g>
</g>
<!-- Node6&#45;&gt;Node10 -->
<g id="edge18" class="edge">
<title>Node6&#45;&gt;Node10</title>
<path fill="none" stroke="midnightblue" d="M237.2,-674.3C254.61,-676.77 274.71,-679.48 293,-681.6 353.65,-688.65 422.6,-695.03 473.57,-699.44"/>
<polygon fill="midnightblue" stroke="midnightblue" points="473.58,-702.95 483.84,-700.32 474.17,-695.98 473.58,-702.95"/>
</g>
<!-- Node11 -->
<g id="node11" class="node">
<title>Node11</title>
<g id="a_node11"><a xlink:href="class_t_display.html#a604d491a723df459bdcd54a4b9d1d9f2" target="_top" xlink:title="Display warning message Statement in the bottom left hand warning position and scroll other messages ...">
<polygon fill="white" stroke="black" points="493.5,-772.1 493.5,-791.1 605.5,-791.1 605.5,-772.1 493.5,-772.1"/>
<text text-anchor="middle" x="549.5" y="-779.1" font-family="Helvetica,sans-Serif" font-size="10.00">TDisplay::WarningLog</text>
</a>
</g>
</g>
<!-- Node6&#45;&gt;Node11 -->
<g id="edge22" class="edge">
<title>Node6&#45;&gt;Node11</title>
<path fill="none" stroke="midnightblue" d="M197.49,-677.39C210.6,-699.63 246.13,-753.63 293,-774.6 355.21,-802.45 434.75,-799.4 488.43,-792.5"/>
<polygon fill="midnightblue" stroke="midnightblue" points="489.04,-795.95 498.47,-791.13 488.09,-789.02 489.04,-795.95"/>
</g>
<!-- Node8&#45;&gt;Node2 -->
<g id="edge12" class="edge">
<title>Node8&#45;&gt;Node2</title>
<path fill="none" stroke="midnightblue" d="M416.61,-628.89C470.73,-627.23 557.16,-621.95 630,-605.6 650.23,-601.07 672.08,-593.13 689.18,-586.18"/>
<polygon fill="midnightblue" stroke="midnightblue" points="690.77,-589.31 698.66,-582.23 688.08,-582.85 690.77,-589.31"/>
</g>
<!-- Node8&#45;&gt;Node5 -->
<g id="edge17" class="edge">
<title>Node8&#45;&gt;Node5</title>
<path fill="none" stroke="midnightblue" d="M368.84,-619.82C381.59,-595.09 418.61,-529.74 469,-496.6 530.88,-455.91 569.27,-496 630,-453.6 670.47,-425.35 698.83,-372.73 711.88,-344.56"/>
<polygon fill="midnightblue" stroke="midnightblue" points="715.1,-345.93 715.99,-335.38 708.71,-343.07 715.1,-345.93"/>
</g>
<!-- Node8&#45;&gt;Node7 -->
<g id="edge13" class="edge">
<title>Node8&#45;&gt;Node7</title>
<path fill="none" stroke="midnightblue" d="M410.56,-639.19C435.34,-644.3 466.02,-650.62 492.14,-656"/>
<polygon fill="midnightblue" stroke="midnightblue" points="491.78,-659.49 502.28,-658.08 493.19,-652.64 491.78,-659.49"/>
</g>
<!-- Node9 -->
<g id="node9" class="node">
<title>Node9</title>
<g id="a_node9"><a xlink:href="class_t_train_controller.html#a435ef46f062904e85ae9792faaecdcf7" target="_top" xlink:title="Return the repeating service time.">
<polygon fill="white" stroke="black" points="470.5,-506.1 470.5,-525.1 628.5,-525.1 628.5,-506.1 470.5,-506.1"/>
<text text-anchor="middle" x="549.5" y="-513.1" font-family="Helvetica,sans-Serif" font-size="10.00">TTrainController::GetRepeatTime</text>
</a>
</g>
</g>
<!-- Node8&#45;&gt;Node9 -->
<g id="edge14" class="edge">
<title>Node8&#45;&gt;Node9</title>
<path fill="none" stroke="midnightblue" d="M379.41,-620.08C411.56,-600.21 485.99,-554.23 524.48,-530.45"/>
<polygon fill="midnightblue" stroke="midnightblue" points="526.33,-533.41 533,-525.18 522.65,-527.46 526.33,-533.41"/>
</g>
<!-- Node9&#45;&gt;Node2 -->
<g id="edge15" class="edge">
<title>Node9&#45;&gt;Node2</title>
<path fill="none" stroke="midnightblue" d="M583.9,-525.22C598.16,-529.44 614.96,-534.58 630,-539.6 648.47,-545.77 668.87,-553.2 685.56,-559.44"/>
<polygon fill="midnightblue" stroke="midnightblue" points="684.33,-562.72 694.92,-562.96 686.79,-556.17 684.33,-562.72"/>
</g>
<!-- Node9&#45;&gt;Node5 -->
<g id="edge16" class="edge">
<title>Node9&#45;&gt;Node5</title>
<path fill="none" stroke="midnightblue" d="M603.03,-506.1C612.69,-502.66 622.18,-497.98 630,-491.6 678.39,-452.18 704.58,-379.58 714.83,-344.96"/>
<polygon fill="midnightblue" stroke="midnightblue" points="718.25,-345.71 717.61,-335.14 711.52,-343.81 718.25,-345.71"/>
</g>
<!-- Node10&#45;&gt;Node2 -->
<g id="edge19" class="edge">
<title>Node10&#45;&gt;Node2</title>
<path fill="none" stroke="midnightblue" d="M610.06,-696.06C617.08,-693.6 623.9,-690.5 630,-686.6 667.71,-662.51 696.38,-617.05 710.43,-591.41"/>
<polygon fill="midnightblue" stroke="midnightblue" points="713.64,-592.82 715.24,-582.35 707.46,-589.54 713.64,-592.82"/>
</g>
<!-- Node10&#45;&gt;Node5 -->
<g id="edge20" class="edge">
<title>Node10&#45;&gt;Node5</title>
<path fill="none" stroke="midnightblue" d="M615.02,-696.95C620.54,-694.29 625.66,-690.9 630,-686.6 636.29,-680.38 697.82,-420.03 715.36,-345.41"/>
<polygon fill="midnightblue" stroke="midnightblue" points="718.82,-345.98 717.7,-335.44 712,-344.38 718.82,-345.98"/>
</g>
<!-- Node11&#45;&gt;Node2 -->
<g id="edge23" class="edge">
<title>Node11&#45;&gt;Node2</title>
<path fill="none" stroke="midnightblue" d="M604.08,-772.07C613.43,-768.64 622.54,-763.96 630,-757.6 682.48,-712.89 706.99,-630.43 715.87,-592.56"/>
<polygon fill="midnightblue" stroke="midnightblue" points="719.39,-592.85 718.14,-582.33 712.56,-591.34 719.39,-592.85"/>
</g>
<!-- Node11&#45;&gt;Node5 -->
<g id="edge24" class="edge">
<title>Node11&#45;&gt;Node5</title>
<path fill="none" stroke="midnightblue" d="M605.62,-773.65C614.83,-770.06 623.49,-764.93 630,-757.6 691.13,-688.76 647.38,-643.77 666,-553.6 682.06,-475.84 705.02,-384.11 715.02,-344.92"/>
<polygon fill="midnightblue" stroke="midnightblue" points="718.45,-345.67 717.54,-335.12 711.66,-343.94 718.45,-345.67"/>
</g>
<!-- Node12&#45;&gt;Node2 -->
<g id="edge26" class="edge">
<title>Node12&#45;&gt;Node2</title>
<path fill="none" stroke="midnightblue" d="M387.67,-764.79C437.18,-794.42 553.41,-852.71 630,-800.6 701.03,-752.28 716,-638.37 719.16,-592.38"/>
<polygon fill="midnightblue" stroke="midnightblue" points="722.66,-592.41 719.73,-582.23 715.67,-592.02 722.66,-592.41"/>
</g>
<!-- Node12&#45;&gt;Node5 -->
<g id="edge29" class="edge">
<title>Node12&#45;&gt;Node5</title>
<path fill="none" stroke="midnightblue" d="M430.11,-752.03C499.2,-753.1 601.45,-750.08 630,-724.6 687.95,-672.9 649.05,-629.4 666,-553.6 683.33,-476.12 705.63,-384.24 715.24,-344.97"/>
<polygon fill="midnightblue" stroke="midnightblue" points="718.67,-345.69 717.65,-335.14 711.87,-344.02 718.67,-345.69"/>
</g>
<!-- Node12&#45;&gt;Node7 -->
<g id="edge27" class="edge">
<title>Node12&#45;&gt;Node7</title>
<path fill="none" stroke="midnightblue" d="M384.71,-734.56C405.19,-720.32 437.9,-699.3 469,-686.6 475.18,-684.08 481.77,-681.85 488.42,-679.87"/>
<polygon fill="midnightblue" stroke="midnightblue" points="489.45,-683.22 498.15,-677.17 487.57,-676.48 489.45,-683.22"/>
</g>
<!-- Node12&#45;&gt;Node10 -->
<g id="edge28" class="edge">
<title>Node12&#45;&gt;Node10</title>
<path fill="none" stroke="midnightblue" d="M426.98,-734.58C450.42,-728.99 476.69,-722.73 498.78,-717.46"/>
<polygon fill="midnightblue" stroke="midnightblue" points="499.7,-720.84 508.61,-715.12 498.07,-714.03 499.7,-720.84"/>
</g>
<!-- Node12&#45;&gt;Node11 -->
<g id="edge30" class="edge">
<title>Node12&#45;&gt;Node11</title>
<path fill="none" stroke="midnightblue" d="M430.09,-761.07C447.46,-764.08 466.18,-767.33 483.5,-770.33"/>
<polygon fill="midnightblue" stroke="midnightblue" points="483.06,-773.81 493.51,-772.07 484.26,-766.91 483.06,-773.81"/>
</g>
<!-- Node13&#45;&gt;Node5 -->
<g id="edge32" class="edge">
<title>Node13&#45;&gt;Node5</title>
<path fill="none" stroke="midnightblue" d="M225.3,-26.09C304.61,-5.6 507.2,33.68 630,-59.6 709.78,-120.2 719.47,-254.91 720.19,-305.7"/>
<polygon fill="midnightblue" stroke="midnightblue" points="716.69,-305.98 720.22,-315.97 723.69,-305.96 716.69,-305.98"/>
</g>
<!-- Node14&#45;&gt;Node2 -->
<g id="edge34" class="edge">
<title>Node14&#45;&gt;Node2</title>
<path fill="none" stroke="midnightblue" d="M565.7,-132.8C583.65,-151.6 613.2,-185.33 630,-219.6 645.13,-250.47 699.47,-483.48 715.51,-553.05"/>
<polygon fill="midnightblue" stroke="midnightblue" points="712.17,-554.13 717.82,-563.09 718.99,-552.56 712.17,-554.13"/>
</g>
<!-- Node14&#45;&gt;Node5 -->
<g id="edge35" class="edge">
<title>Node14&#45;&gt;Node5</title>
<path fill="none" stroke="midnightblue" d="M606.55,-132.65C615.02,-136.58 623.2,-141.49 630,-147.6 679.5,-192.06 705.39,-270.04 715.23,-306.19"/>
<polygon fill="midnightblue" stroke="midnightblue" points="711.87,-307.19 717.78,-315.98 718.65,-305.42 711.87,-307.19"/>
</g>
<!-- Node15&#45;&gt;Node2 -->
<g id="edge38" class="edge">
<title>Node15&#45;&gt;Node2</title>
<path fill="none" stroke="midnightblue" d="M202.76,-340.67C236.04,-385.82 342.76,-519.93 469,-568.6 529.42,-591.9 604.27,-589.5 656.43,-583.39"/>
<polygon fill="midnightblue" stroke="midnightblue" points="657.07,-586.83 666.55,-582.12 656.2,-579.89 657.07,-586.83"/>
</g>
<!-- Node15&#45;&gt;Node5 -->
<g id="edge39" class="edge">
<title>Node15&#45;&gt;Node5</title>
<path fill="none" stroke="midnightblue" d="M213.96,-310.5C279.78,-267.24 480.18,-150.27 630,-219.6 668.88,-237.6 697.1,-281.57 710.76,-306.87"/>
<polygon fill="midnightblue" stroke="midnightblue" points="707.71,-308.59 715.42,-315.85 713.92,-305.36 707.71,-308.59"/>
</g>
<!-- Node16 -->
<g id="node16" class="node">
<title>Node16</title>
<g id="a_node16"><a xlink:href="class_t_track.html#ad377e5a1f152f2e89832c0f9bcfd261f" target="_top" xlink:title="A range&#45;checked version of TrackVector.at(At)">
<polygon fill="white" stroke="black" points="488.5,-316.1 488.5,-335.1 610.5,-335.1 610.5,-316.1 488.5,-316.1"/>
<text text-anchor="middle" x="549.5" y="-323.1" font-family="Helvetica,sans-Serif" font-size="10.00">TTrack::TrackElementAt</text>
</a>
</g>
</g>
<!-- Node15&#45;&gt;Node16 -->
<g id="edge40" class="edge">
<title>Node15&#45;&gt;Node16</title>
<path fill="none" stroke="midnightblue" d="M257.39,-325.6C319.97,-325.6 414.09,-325.6 478.25,-325.6"/>
<polygon fill="midnightblue" stroke="midnightblue" points="478.28,-329.1 488.28,-325.6 478.28,-322.1 478.28,-329.1"/>
</g>
<!-- Node17 -->
<g id="node17" class="node">
<title>Node17</title>
<g id="a_node17"><a xlink:href="class_t_train_controller.html#a4d5de42d6e9e92191241963599581210" target="_top" xlink:title="Return a reference to the train with ID TrainID, carries out validity checking on TrainID.">
<polygon fill="white" stroke="black" points="293,-367.6 293,-397.6 433,-397.6 433,-367.6 293,-367.6"/>
<text text-anchor="start" x="301" y="-385.6" font-family="Helvetica,sans-Serif" font-size="10.00">TTrainController::TrainVector</text>
<text text-anchor="middle" x="363" y="-374.6" font-family="Helvetica,sans-Serif" font-size="10.00">AtIdent</text>
</a>
</g>
</g>
<!-- Node15&#45;&gt;Node17 -->
<g id="edge43" class="edge">
<title>Node15&#45;&gt;Node17</title>
<path fill="none" stroke="midnightblue" d="M237.11,-340.73C258.71,-347.97 284.76,-356.71 307.47,-364.32"/>
<polygon fill="midnightblue" stroke="midnightblue" points="306.38,-367.65 316.97,-367.51 308.61,-361.01 306.38,-367.65"/>
</g>
<!-- Node16&#45;&gt;Node2 -->
<g id="edge41" class="edge">
<title>Node16&#45;&gt;Node2</title>
<path fill="none" stroke="midnightblue" d="M605.67,-335.19C614.55,-338.63 623.08,-343.28 630,-349.6 691.4,-405.69 711.74,-509.51 717.74,-552.82"/>
<polygon fill="midnightblue" stroke="midnightblue" points="714.29,-553.43 719.03,-562.91 721.24,-552.55 714.29,-553.43"/>
</g>
<!-- Node16&#45;&gt;Node5 -->
<g id="edge42" class="edge">
<title>Node16&#45;&gt;Node5</title>
<path fill="none" stroke="midnightblue" d="M610.74,-325.6C625.35,-325.6 641.02,-325.6 655.81,-325.6"/>
<polygon fill="midnightblue" stroke="midnightblue" points="655.88,-329.1 665.88,-325.6 655.88,-322.1 655.88,-329.1"/>
</g>
<!-- Node17&#45;&gt;Node2 -->
<g id="edge44" class="edge">
<title>Node17&#45;&gt;Node2</title>
<path fill="none" stroke="midnightblue" d="M369.62,-397.77C382.12,-429.17 415.41,-501.13 469,-534.6 525.19,-569.7 601.93,-576.68 655.71,-576.46"/>
<polygon fill="midnightblue" stroke="midnightblue" points="655.86,-579.96 665.81,-576.34 655.77,-572.96 655.86,-579.96"/>
</g>
<!-- Node17&#45;&gt;Node5 -->
<g id="edge45" class="edge">
<title>Node17&#45;&gt;Node5</title>
<path fill="none" stroke="midnightblue" d="M378.28,-367.6C397.03,-349.09 431.96,-318.6 469,-306.6 540.57,-283.42 629.38,-300.01 679.88,-313.36"/>
<polygon fill="midnightblue" stroke="midnightblue" points="679.19,-316.8 689.76,-316.06 681.03,-310.05 679.19,-316.8"/>
</g>
<!-- Node18 -->
<g id="node18" class="node">
<title>Node18</title>
<g id="a_node18"><a xlink:href="class_t_train_controller.html#aa09adf9c442406cccc270d6703867a1d" target="_top" xlink:title="Return a reference to the train at position VecPos in the TrainVector, carries out range checking on ...">
<polygon fill="white" stroke="black" points="475,-392.1 475,-411.1 624,-411.1 624,-392.1 475,-392.1"/>
<text text-anchor="middle" x="549.5" y="-399.1" font-family="Helvetica,sans-Serif" font-size="10.00">TTrainController::TrainVectorAt</text>
</a>
</g>
</g>
<!-- Node17&#45;&gt;Node18 -->
<g id="edge46" class="edge">
<title>Node17&#45;&gt;Node18</title>
<path fill="none" stroke="midnightblue" d="M433.23,-389.73C443.53,-390.79 454.25,-391.9 464.81,-392.99"/>
<polygon fill="midnightblue" stroke="midnightblue" points="464.57,-396.48 474.88,-394.02 465.29,-389.52 464.57,-396.48"/>
</g>
<!-- Node18&#45;&gt;Node2 -->
<g id="edge47" class="edge">
<title>Node18&#45;&gt;Node2</title>
<path fill="none" stroke="midnightblue" d="M560.1,-411.29C587.83,-439.27 668.34,-520.48 703.38,-555.84"/>
<polygon fill="midnightblue" stroke="midnightblue" points="700.98,-558.39 710.51,-563.03 705.95,-553.46 700.98,-558.39"/>
</g>
<!-- Node18&#45;&gt;Node5 -->
<g id="edge48" class="edge">
<title>Node18&#45;&gt;Node5</title>
<path fill="none" stroke="midnightblue" d="M571.97,-391.98C601.64,-378.67 655.37,-354.58 689.28,-339.38"/>
<polygon fill="midnightblue" stroke="midnightblue" points="691.01,-342.44 698.71,-335.15 688.15,-336.05 691.01,-342.44"/>
</g>
</g>
</svg>
