<?xml version="1.0" encoding="UTF-8" standalone="no"?>
<!DOCTYPE svg PUBLIC "-//W3C//DTD SVG 1.1//EN"
 "http://www.w3.org/Graphics/SVG/1.1/DTD/svg11.dtd">
<!-- Generated by graphviz version 2.44.1 (20200629.0800)
 -->
<!-- Title: TTrain::CallingOnAllowed Pages: 1 -->
<svg width="990pt" height="922pt"
 viewBox="0.00 0.00 990.00 921.89" xmlns="http://www.w3.org/2000/svg" xmlns:xlink="http://www.w3.org/1999/xlink">
<g id="graph0" class="graph" transform="scale(1 1) rotate(0) translate(4 917.89)">
<title>TTrain::CallingOnAllowed</title>
<polygon fill="white" stroke="transparent" points="-4,4 -4,-917.89 986,-917.89 986,4 -4,4"/>
<!-- Node1 -->
<g id="node1" class="node">
<title>Node1</title>
<g id="a_node1"><a xlink:title="True if the train can be called on at its current position &#45; see detail in .cpp file.">
<polygon fill="#bfbfbf" stroke="black" points="0,-233.5 0,-252.5 125,-252.5 125,-233.5 0,-233.5"/>
<text text-anchor="middle" x="62.5" y="-240.5" font-family="Helvetica,sans-Serif" font-size="10.00">TTrain::CallingOnAllowed</text>
</a>
</g>
</g>
<!-- Node2 -->
<g id="node2" class="node">
<title>Node2</title>
<g id="a_node2"><a xlink:href="class_t_utilities.html#ae1eddca13cc3c492839e131f40ec21c0" target="_top" xlink:title="&lt; specifies whether no delays or minor, moderate or major random delays are to be applied">
<polygon fill="white" stroke="black" points="872,-616.5 872,-635.5 982,-635.5 982,-616.5 872,-616.5"/>
<text text-anchor="middle" x="927" y="-623.5" font-family="Helvetica,sans-Serif" font-size="10.00">TUtilities::CallLogPop</text>
</a>
</g>
</g>
<!-- Node1&#45;&gt;Node2 -->
<g id="edge1" class="edge">
<title>Node1&#45;&gt;Node2</title>
<path fill="none" stroke="midnightblue" d="M64.36,-252.68C70,-314.69 103.4,-656.32 161,-741 231.94,-845.28 273.88,-894 400,-894 400,-894 400,-894 560.5,-894 683.24,-894 738.03,-948.93 836,-875 910.9,-818.48 923.58,-693.77 925.64,-645.56"/>
<polygon fill="midnightblue" stroke="midnightblue" points="929.14,-645.62 925.96,-635.51 922.14,-645.4 929.14,-645.62"/>
</g>
<!-- Node3 -->
<g id="node3" class="node">
<title>Node3</title>
<g id="a_node3"><a xlink:href="class_t_all_routes.html#a2341a7e860e716e60b733f45814e4499" target="_top" xlink:title="The track geometry allows diagonals to cross without occupying the same track element,...">
<polygon fill="white" stroke="black" points="168.5,-633 168.5,-663 305.5,-663 305.5,-633 168.5,-633"/>
<text text-anchor="start" x="176.5" y="-651" font-family="Helvetica,sans-Serif" font-size="10.00">TAllRoutes::DiagonalFouled</text>
<text text-anchor="middle" x="237" y="-640" font-family="Helvetica,sans-Serif" font-size="10.00">ByRouteOrTrain</text>
</a>
</g>
</g>
<!-- Node1&#45;&gt;Node3 -->
<g id="edge2" class="edge">
<title>Node1&#45;&gt;Node3</title>
<path fill="none" stroke="midnightblue" d="M66.67,-252.52C78.13,-286.67 118.96,-405.98 161,-501 180.58,-545.25 206.97,-595.1 222.66,-623.9"/>
<polygon fill="midnightblue" stroke="midnightblue" points="219.68,-625.73 227.55,-632.82 225.81,-622.37 219.68,-625.73"/>
</g>
<!-- Node5 -->
<g id="node5" class="node">
<title>Node5</title>
<g id="a_node5"><a xlink:href="class_t_utilities.html#a34bd6bb5305bc29afdf424f6d35a921c" target="_top" xlink:title="creates a string of the form &#39;hh:mm:ss&#39; for use in call &amp; event logging">
<polygon fill="white" stroke="black" points="872,-414.5 872,-433.5 982,-433.5 982,-414.5 872,-414.5"/>
<text text-anchor="middle" x="927" y="-421.5" font-family="Helvetica,sans-Serif" font-size="10.00">TUtilities::TimeStamp</text>
</a>
</g>
</g>
<!-- Node1&#45;&gt;Node5 -->
<g id="edge42" class="edge">
<title>Node1&#45;&gt;Node5</title>
<path fill="none" stroke="midnightblue" d="M75.51,-233.49C117.5,-201.23 262.6,-98 400,-98 400,-98 400,-98 560.5,-98 685.02,-98 742.28,-67 836,-149 913.69,-216.97 924.65,-353.01 925.94,-404.05"/>
<polygon fill="midnightblue" stroke="midnightblue" points="922.45,-404.41 926.1,-414.35 929.45,-404.3 922.45,-404.41"/>
</g>
<!-- Node11 -->
<g id="node11" class="node">
<title>Node11</title>
<g id="a_node11"><a xlink:href="class_t_track.html#ad377e5a1f152f2e89832c0f9bcfd261f" target="_top" xlink:title="A range&#45;checked version of TrackVector.at(At)">
<polygon fill="white" stroke="black" points="690,-278.5 690,-297.5 812,-297.5 812,-278.5 690,-278.5"/>
<text text-anchor="middle" x="751" y="-285.5" font-family="Helvetica,sans-Serif" font-size="10.00">TTrack::TrackElementAt</text>
</a>
</g>
</g>
<!-- Node1&#45;&gt;Node11 -->
<g id="edge43" class="edge">
<title>Node1&#45;&gt;Node11</title>
<path fill="none" stroke="midnightblue" d="M125.25,-234.28C230.4,-221.36 450.3,-202.7 630,-243 647.27,-246.87 649.58,-253.41 666,-260 679.66,-265.48 694.86,-270.78 708.53,-275.26"/>
<polygon fill="midnightblue" stroke="midnightblue" points="707.57,-278.63 718.16,-278.38 709.72,-271.97 707.57,-278.63"/>
</g>
<!-- Node12 -->
<g id="node12" class="node">
<title>Node12</title>
<g id="a_node12"><a xlink:href="class_t_train_controller.html#a4d5de42d6e9e92191241963599581210" target="_top" xlink:title="Return a reference to the train with ID TrainID, carries out validity checking on TrainID.">
<polygon fill="white" stroke="black" points="489.5,-475 489.5,-505 629.5,-505 629.5,-475 489.5,-475"/>
<text text-anchor="start" x="497.5" y="-493" font-family="Helvetica,sans-Serif" font-size="10.00">TTrainController::TrainVector</text>
<text text-anchor="middle" x="559.5" y="-482" font-family="Helvetica,sans-Serif" font-size="10.00">AtIdent</text>
</a>
</g>
</g>
<!-- Node1&#45;&gt;Node12 -->
<g id="edge48" class="edge">
<title>Node1&#45;&gt;Node12</title>
<path fill="none" stroke="midnightblue" d="M72.14,-252.78C104.38,-288.57 222.39,-412.98 349,-465 389.92,-481.81 438.85,-488.33 479.13,-490.52"/>
<polygon fill="midnightblue" stroke="midnightblue" points="479.03,-494.01 489.18,-490.98 479.35,-487.02 479.03,-494.01"/>
</g>
<!-- Node14 -->
<g id="node14" class="node">
<title>Node14</title>
<g id="a_node14"><a xlink:href="class_t_track.html#aeb515d40cb9b08ed55ce877ffdbc51a5" target="_top" xlink:title="Return the corresponding link position (track always occupies either links 0 &amp; 1 or 2 &amp; 3)">
<polygon fill="white" stroke="black" points="161,-39 161,-69 313,-69 313,-39 161,-39"/>
<text text-anchor="start" x="169" y="-57" font-family="Helvetica,sans-Serif" font-size="10.00">TTrack::GetNonPointsOpposite</text>
<text text-anchor="middle" x="237" y="-46" font-family="Helvetica,sans-Serif" font-size="10.00">LinkPos</text>
</a>
</g>
</g>
<!-- Node1&#45;&gt;Node14 -->
<g id="edge33" class="edge">
<title>Node1&#45;&gt;Node14</title>
<path fill="none" stroke="midnightblue" d="M66.92,-233.3C77.02,-206 109.27,-127.63 161,-84 165.6,-80.12 170.77,-76.7 176.18,-73.69"/>
<polygon fill="midnightblue" stroke="midnightblue" points="178.11,-76.63 185.47,-69.01 174.96,-70.38 178.11,-76.63"/>
</g>
<!-- Node15 -->
<g id="node15" class="node">
<title>Node15</title>
<g id="a_node15"><a xlink:href="class_t_all_routes.html#a0a9ccbc84687f85806115877aa86dcfd" target="_top" xlink:title="Examines Route2MultiMap and if the element at TrackVectorPosition with LinkPos (can be entry or exit)...">
<polygon fill="white" stroke="black" points="493.5,-165 493.5,-195 625.5,-195 625.5,-165 493.5,-165"/>
<text text-anchor="start" x="501.5" y="-183" font-family="Helvetica,sans-Serif" font-size="10.00">TAllRoutes::GetRouteType</text>
<text text-anchor="middle" x="559.5" y="-172" font-family="Helvetica,sans-Serif" font-size="10.00">AndNumber</text>
</a>
</g>
</g>
<!-- Node1&#45;&gt;Node15 -->
<g id="edge34" class="edge">
<title>Node1&#45;&gt;Node15</title>
<path fill="none" stroke="midnightblue" d="M86.3,-233.46C105.77,-225.76 134.73,-215.35 161,-210 271.72,-187.46 402.89,-181.47 483.4,-180.08"/>
<polygon fill="midnightblue" stroke="midnightblue" points="483.5,-183.58 493.44,-179.93 483.39,-176.58 483.5,-183.58"/>
</g>
<!-- Node16 -->
<g id="node16" class="node">
<title>Node16</title>
<g id="a_node16"><a xlink:href="class_t_train.html#a7a54125a3a5052cb25e17014075a686b" target="_top" xlink:title="Returns the number by which the train ActionVectorEntryPtr needs to be incremented to point to the lo...">
<polygon fill="white" stroke="black" points="666,-846.5 666,-865.5 836,-865.5 836,-846.5 666,-846.5"/>
<text text-anchor="middle" x="751" y="-853.5" font-family="Helvetica,sans-Serif" font-size="10.00">TTrain::NameInTimetableBeforeCDT</text>
</a>
</g>
</g>
<!-- Node1&#45;&gt;Node16 -->
<g id="edge38" class="edge">
<title>Node1&#45;&gt;Node16</title>
<path fill="none" stroke="midnightblue" d="M64.52,-252.51C70.8,-309.28 105.65,-603.31 161,-672 281.54,-821.6 522.22,-851.9 655.58,-856.63"/>
<polygon fill="midnightblue" stroke="midnightblue" points="655.68,-860.13 665.78,-856.95 655.9,-853.14 655.68,-860.13"/>
</g>
<!-- Node17 -->
<g id="node17" class="node">
<title>Node17</title>
<g id="a_node17"><a xlink:href="class_t_train.html#a77e1368fb80820dd2c3350858c28ceab" target="_top" xlink:title=" ">
<polygon fill="white" stroke="black" points="165,-0.5 165,-19.5 309,-19.5 309,-0.5 165,-0.5"/>
<text text-anchor="middle" x="237" y="-7.5" font-family="Helvetica,sans-Serif" font-size="10.00">TTrain::RevisedStoppedAtLoc</text>
</a>
</g>
</g>
<!-- Node1&#45;&gt;Node17 -->
<g id="edge41" class="edge">
<title>Node1&#45;&gt;Node17</title>
<path fill="none" stroke="midnightblue" d="M64.94,-233.1C70.43,-199.01 93.31,-85.52 161,-29 163.03,-27.31 165.19,-25.76 167.45,-24.35"/>
<polygon fill="midnightblue" stroke="midnightblue" points="169.37,-27.3 176.59,-19.55 166.11,-21.1 169.37,-27.3"/>
</g>
<!-- Node18 -->
<g id="node18" class="node">
<title>Node18</title>
<g id="a_node18"><a xlink:href="class_t_all_routes.html#aace498b67ccef13364a1afa1f5f15311" target="_top" xlink:title="Examines Route2MultiMap and if the element at TrackVectorPosition with LinkPos (can be entry or exit)...">
<polygon fill="white" stroke="black" points="489,-252.5 489,-271.5 630,-271.5 630,-252.5 489,-252.5"/>
<text text-anchor="middle" x="559.5" y="-259.5" font-family="Helvetica,sans-Serif" font-size="10.00">TAllRoutes::TrackIsInARoute</text>
</a>
</g>
</g>
<!-- Node1&#45;&gt;Node18 -->
<g id="edge44" class="edge">
<title>Node1&#45;&gt;Node18</title>
<path fill="none" stroke="midnightblue" d="M125.19,-245.37C214.55,-248.8 380.07,-255.15 478.64,-258.93"/>
<polygon fill="midnightblue" stroke="midnightblue" points="478.72,-262.44 488.85,-259.33 478.99,-255.45 478.72,-262.44"/>
</g>
<!-- Node3&#45;&gt;Node2 -->
<g id="edge3" class="edge">
<title>Node3&#45;&gt;Node2</title>
<path fill="none" stroke="midnightblue" d="M258.97,-663.08C339.5,-718.99 634.43,-905.25 836,-787 888.84,-756 912.96,-681.43 921.78,-645.72"/>
<polygon fill="midnightblue" stroke="midnightblue" points="925.28,-646.12 924.13,-635.59 918.46,-644.54 925.28,-646.12"/>
</g>
<!-- Node4 -->
<g id="node4" class="node">
<title>Node4</title>
<g id="a_node4"><a xlink:href="class_t_one_pref_dir.html#a5b67e5aaa86d324229aedc68f32f32b8" target="_top" xlink:title="Return a non&#45;modifiable element at PrefDirVector position &#39;At&#39;.">
<polygon fill="white" stroke="black" points="685,-721 685,-751 817,-751 817,-721 685,-721"/>
<text text-anchor="start" x="693" y="-739" font-family="Helvetica,sans-Serif" font-size="10.00">TOnePrefDir::GetFixedPref</text>
<text text-anchor="middle" x="751" y="-728" font-family="Helvetica,sans-Serif" font-size="10.00">DirElementAt</text>
</a>
</g>
</g>
<!-- Node3&#45;&gt;Node4 -->
<g id="edge4" class="edge">
<title>Node3&#45;&gt;Node4</title>
<path fill="none" stroke="midnightblue" d="M282.96,-663.07C302.99,-669.34 326.99,-676.25 349,-681 461.31,-705.25 593.74,-720.96 674.77,-729.15"/>
<polygon fill="midnightblue" stroke="midnightblue" points="674.58,-732.64 684.88,-730.15 675.28,-725.68 674.58,-732.64"/>
</g>
<!-- Node3&#45;&gt;Node5 -->
<g id="edge13" class="edge">
<title>Node3&#45;&gt;Node5</title>
<path fill="none" stroke="midnightblue" d="M240.1,-632.54C250.67,-561.77 304.92,-267.28 489,-155 534.19,-127.43 828.14,-169.87 836,-176 909.57,-233.35 923.05,-356.42 925.48,-404.34"/>
<polygon fill="midnightblue" stroke="midnightblue" points="921.98,-404.49 925.88,-414.34 928.98,-404.21 921.98,-404.49"/>
</g>
<!-- Node6 -->
<g id="node6" class="node">
<title>Node6</title>
<g id="a_node6"><a xlink:href="class_t_all_routes.html#a7d9f820738af6314f2b9a4a1f52bb64a" target="_top" xlink:title="Returns a constant reference to the route at AllRoutesVector position &#39;At&#39;, after performing range ch...">
<polygon fill="white" stroke="black" points="678.5,-682.5 678.5,-701.5 823.5,-701.5 823.5,-682.5 678.5,-682.5"/>
<text text-anchor="middle" x="751" y="-689.5" font-family="Helvetica,sans-Serif" font-size="10.00">TAllRoutes::GetFixedRouteAt</text>
</a>
</g>
</g>
<!-- Node3&#45;&gt;Node6 -->
<g id="edge7" class="edge">
<title>Node3&#45;&gt;Node6</title>
<path fill="none" stroke="midnightblue" d="M305.74,-657.1C320.01,-658.86 334.99,-660.59 349,-662 459.25,-673.07 586.92,-681.94 668.04,-687.09"/>
<polygon fill="midnightblue" stroke="midnightblue" points="667.99,-690.59 678.19,-687.73 668.43,-683.61 667.99,-690.59"/>
</g>
<!-- Node7 -->
<g id="node7" class="node">
<title>Node7</title>
<g id="a_node7"><a xlink:href="class_t_all_routes.html#a7eda7a4b535c7538e217bbbc4d878071" target="_top" xlink:title="Retrieve up to two TRouteElementPair entries from Route2MultiMap at H &amp; V, the first as a function re...">
<polygon fill="white" stroke="black" points="677.5,-633 677.5,-663 824.5,-663 824.5,-633 677.5,-633"/>
<text text-anchor="start" x="685.5" y="-651" font-family="Helvetica,sans-Serif" font-size="10.00">TAllRoutes::GetRouteElement</text>
<text text-anchor="middle" x="751" y="-640" font-family="Helvetica,sans-Serif" font-size="10.00">DataFromRoute2MultiMap</text>
</a>
</g>
</g>
<!-- Node3&#45;&gt;Node7 -->
<g id="edge10" class="edge">
<title>Node3&#45;&gt;Node7</title>
<path fill="none" stroke="midnightblue" d="M305.73,-648C398.87,-648 566.39,-648 666.97,-648"/>
<polygon fill="midnightblue" stroke="midnightblue" points="667.09,-651.5 677.09,-648 667.09,-644.5 667.09,-651.5"/>
</g>
<!-- Node8 -->
<g id="node8" class="node">
<title>Node8</title>
<g id="a_node8"><a xlink:href="class_t_track.html#a12d4069a6a201e13a83347c555a465b2" target="_top" xlink:title="New at v1.2.0; checks whether a train present at input location and link and returns its ID if so.">
<polygon fill="white" stroke="black" points="349,-436.5 349,-455.5 453,-455.5 453,-436.5 349,-436.5"/>
<text text-anchor="middle" x="401" y="-443.5" font-family="Helvetica,sans-Serif" font-size="10.00">TTrack::TrainOnLink</text>
</a>
</g>
</g>
<!-- Node3&#45;&gt;Node8 -->
<g id="edge14" class="edge">
<title>Node3&#45;&gt;Node8</title>
<path fill="none" stroke="midnightblue" d="M250.18,-632.82C279.59,-596.14 354.41,-502.85 385.8,-463.71"/>
<polygon fill="midnightblue" stroke="midnightblue" points="388.61,-465.8 392.14,-455.8 383.15,-461.42 388.61,-465.8"/>
</g>
<!-- Node4&#45;&gt;Node2 -->
<g id="edge5" class="edge">
<title>Node4&#45;&gt;Node2</title>
<path fill="none" stroke="midnightblue" d="M814.84,-720.87C822.19,-718.07 829.41,-714.8 836,-711 866.98,-693.14 895.7,-662.59 912.02,-643.39"/>
<polygon fill="midnightblue" stroke="midnightblue" points="914.72,-645.62 918.42,-635.69 909.34,-641.15 914.72,-645.62"/>
</g>
<!-- Node4&#45;&gt;Node5 -->
<g id="edge6" class="edge">
<title>Node4&#45;&gt;Node5</title>
<path fill="none" stroke="midnightblue" d="M817.11,-723.86C824.08,-720.55 830.58,-716.34 836,-711 841,-706.07 901.11,-506.88 920.21,-443.3"/>
<polygon fill="midnightblue" stroke="midnightblue" points="923.58,-444.27 923.1,-433.69 916.87,-442.26 923.58,-444.27"/>
</g>
<!-- Node6&#45;&gt;Node2 -->
<g id="edge8" class="edge">
<title>Node6&#45;&gt;Node2</title>
<path fill="none" stroke="midnightblue" d="M801,-682.41C812.63,-679.57 824.89,-676.1 836,-672 858.92,-663.55 883.53,-650.69 901.21,-640.71"/>
<polygon fill="midnightblue" stroke="midnightblue" points="903.34,-643.52 910.27,-635.51 899.85,-637.45 903.34,-643.52"/>
</g>
<!-- Node6&#45;&gt;Node5 -->
<g id="edge9" class="edge">
<title>Node6&#45;&gt;Node5</title>
<path fill="none" stroke="midnightblue" d="M819.69,-682.41C825.62,-679.7 831.19,-676.29 836,-672 853.99,-655.96 903.23,-498.67 920.18,-443.22"/>
<polygon fill="midnightblue" stroke="midnightblue" points="923.56,-444.15 923.12,-433.56 916.86,-442.11 923.56,-444.15"/>
</g>
<!-- Node7&#45;&gt;Node2 -->
<g id="edge11" class="edge">
<title>Node7&#45;&gt;Node2</title>
<path fill="none" stroke="midnightblue" d="M824.53,-638.83C836.92,-637.26 849.7,-635.65 861.85,-634.11"/>
<polygon fill="midnightblue" stroke="midnightblue" points="862.4,-637.57 871.88,-632.84 861.52,-630.62 862.4,-637.57"/>
</g>
<!-- Node7&#45;&gt;Node5 -->
<g id="edge12" class="edge">
<title>Node7&#45;&gt;Node5</title>
<path fill="none" stroke="midnightblue" d="M777.38,-633C795.32,-621.5 819.08,-604.35 836,-585 875.39,-539.95 905.23,-474.88 918.47,-443.02"/>
<polygon fill="midnightblue" stroke="midnightblue" points="921.79,-444.15 922.32,-433.57 915.31,-441.51 921.79,-444.15"/>
</g>
<!-- Node8&#45;&gt;Node2 -->
<g id="edge15" class="edge">
<title>Node8&#45;&gt;Node2</title>
<path fill="none" stroke="midnightblue" d="M406.29,-455.72C426.88,-501.06 520.73,-692.35 666,-760 734.49,-791.9 769.32,-795.54 836,-760 881.79,-735.59 908.43,-676.39 919.66,-645.49"/>
<polygon fill="midnightblue" stroke="midnightblue" points="923.03,-646.44 923,-635.85 916.42,-644.16 923.03,-646.44"/>
</g>
<!-- Node8&#45;&gt;Node5 -->
<g id="edge25" class="edge">
<title>Node8&#45;&gt;Node5</title>
<path fill="none" stroke="midnightblue" d="M411.61,-436.35C426.6,-422.07 457.12,-395.93 489,-386 631.48,-341.63 811.88,-387.45 888.67,-411.39"/>
<polygon fill="midnightblue" stroke="midnightblue" points="887.78,-414.78 898.37,-414.47 889.9,-408.1 887.78,-414.78"/>
</g>
<!-- Node9 -->
<g id="node9" class="node">
<title>Node9</title>
<g id="a_node9"><a xlink:href="class_t_track.html#aa0812972d1ae27198c5fbca8aa7b6134" target="_top" xlink:title="Returns the track vector position corresponding to the Hloc &amp; VLoc positions, FoundFlag indicates whe...">
<polygon fill="white" stroke="black" points="685.5,-431 685.5,-461 816.5,-461 816.5,-431 685.5,-431"/>
<text text-anchor="start" x="693.5" y="-449" font-family="Helvetica,sans-Serif" font-size="10.00">TTrack::GetVectorPosition</text>
<text text-anchor="middle" x="751" y="-438" font-family="Helvetica,sans-Serif" font-size="10.00">FromTrackMap</text>
</a>
</g>
</g>
<!-- Node8&#45;&gt;Node9 -->
<g id="edge16" class="edge">
<title>Node8&#45;&gt;Node9</title>
<path fill="none" stroke="midnightblue" d="M453.35,-446C511.97,-446 608.4,-446 675.33,-446"/>
<polygon fill="midnightblue" stroke="midnightblue" points="675.4,-449.5 685.4,-446 675.4,-442.5 675.4,-449.5"/>
</g>
<!-- Node10 -->
<g id="node10" class="node">
<title>Node10</title>
<g id="a_node10"><a xlink:href="class_t_train.html#aef32cd9a007874ab09ceeac907e7c88b" target="_top" xlink:title="Added at v1.2.0: true if any part of train on specific link, false otherwise, including no link prese...">
<polygon fill="white" stroke="black" points="505.5,-395.5 505.5,-414.5 613.5,-414.5 613.5,-395.5 505.5,-395.5"/>
<text text-anchor="middle" x="559.5" y="-402.5" font-family="Helvetica,sans-Serif" font-size="10.00">TTrain::LinkOccupied</text>
</a>
</g>
</g>
<!-- Node8&#45;&gt;Node10 -->
<g id="edge19" class="edge">
<title>Node8&#45;&gt;Node10</title>
<path fill="none" stroke="midnightblue" d="M438.3,-436.49C460.34,-430.72 488.69,-423.29 512.32,-417.1"/>
<polygon fill="midnightblue" stroke="midnightblue" points="513.34,-420.45 522.13,-414.53 511.57,-413.68 513.34,-420.45"/>
</g>
<!-- Node8&#45;&gt;Node11 -->
<g id="edge26" class="edge">
<title>Node8&#45;&gt;Node11</title>
<path fill="none" stroke="midnightblue" d="M405.69,-436.34C415.31,-412.63 443.6,-351.48 489,-324 546.56,-289.17 624.15,-282.48 679.74,-283.09"/>
<polygon fill="midnightblue" stroke="midnightblue" points="679.79,-286.59 689.85,-283.28 679.92,-279.59 679.79,-286.59"/>
</g>
<!-- Node8&#45;&gt;Node12 -->
<g id="edge27" class="edge">
<title>Node8&#45;&gt;Node12</title>
<path fill="none" stroke="midnightblue" d="M435.96,-455.55C453.26,-460.41 474.88,-466.49 495.12,-472.18"/>
<polygon fill="midnightblue" stroke="midnightblue" points="494.34,-475.6 504.92,-474.93 496.24,-468.86 494.34,-475.6"/>
</g>
<!-- Node9&#45;&gt;Node2 -->
<g id="edge17" class="edge">
<title>Node9&#45;&gt;Node2</title>
<path fill="none" stroke="midnightblue" d="M773.06,-461.07C790.71,-474.14 816.13,-494.06 836,-514 866.48,-544.59 896.9,-585.04 913.4,-608.01"/>
<polygon fill="midnightblue" stroke="midnightblue" points="910.74,-610.32 919.39,-616.44 916.45,-606.26 910.74,-610.32"/>
</g>
<!-- Node9&#45;&gt;Node5 -->
<g id="edge18" class="edge">
<title>Node9&#45;&gt;Node5</title>
<path fill="none" stroke="midnightblue" d="M816.79,-437.81C831.55,-435.94 847.22,-433.96 861.95,-432.1"/>
<polygon fill="midnightblue" stroke="midnightblue" points="862.49,-435.56 871.97,-430.83 861.61,-428.61 862.49,-435.56"/>
</g>
<!-- Node10&#45;&gt;Node2 -->
<g id="edge20" class="edge">
<title>Node10&#45;&gt;Node2</title>
<path fill="none" stroke="midnightblue" d="M574.83,-414.64C594.82,-427.89 632.38,-452.12 666,-470 739.23,-508.94 766.3,-502.04 836,-547 864.33,-565.27 892.88,-592.1 910.01,-609.3"/>
<polygon fill="midnightblue" stroke="midnightblue" points="907.53,-611.78 917.03,-616.47 912.53,-606.88 907.53,-611.78"/>
</g>
<!-- Node10&#45;&gt;Node5 -->
<g id="edge21" class="edge">
<title>Node10&#45;&gt;Node5</title>
<path fill="none" stroke="midnightblue" d="M613.65,-407.76C679.41,-411.18 791.31,-417 861.8,-420.66"/>
<polygon fill="midnightblue" stroke="midnightblue" points="861.73,-424.16 871.89,-421.19 862.09,-417.17 861.73,-424.16"/>
</g>
<!-- Node10&#45;&gt;Node11 -->
<g id="edge22" class="edge">
<title>Node10&#45;&gt;Node11</title>
<path fill="none" stroke="midnightblue" d="M576.01,-395.43C608.99,-375.06 686.29,-327.33 725.81,-302.94"/>
<polygon fill="midnightblue" stroke="midnightblue" points="727.87,-305.77 734.54,-297.54 724.2,-299.82 727.87,-305.77"/>
</g>
<!-- Node11&#45;&gt;Node2 -->
<g id="edge23" class="edge">
<title>Node11&#45;&gt;Node2</title>
<path fill="none" stroke="midnightblue" d="M771.06,-297.5C790.1,-307.91 818.92,-326.34 836,-350 851.65,-371.69 903.25,-547.25 920.4,-606.53"/>
<polygon fill="midnightblue" stroke="midnightblue" points="917.13,-607.83 923.27,-616.47 923.86,-605.89 917.13,-607.83"/>
</g>
<!-- Node11&#45;&gt;Node5 -->
<g id="edge24" class="edge">
<title>Node11&#45;&gt;Node5</title>
<path fill="none" stroke="midnightblue" d="M804.38,-297.59C815.39,-301.04 826.52,-305.71 836,-312 872.69,-336.36 901.58,-380.39 915.98,-405.38"/>
<polygon fill="midnightblue" stroke="midnightblue" points="912.99,-407.21 920.93,-414.23 919.1,-403.79 912.99,-407.21"/>
</g>
<!-- Node12&#45;&gt;Node2 -->
<g id="edge28" class="edge">
<title>Node12&#45;&gt;Node2</title>
<path fill="none" stroke="midnightblue" d="M572.28,-505.1C590.06,-526.7 625.95,-565.91 666,-585 699.67,-601.05 796.15,-613.3 861.62,-620.08"/>
<polygon fill="midnightblue" stroke="midnightblue" points="861.55,-623.59 871.85,-621.12 862.25,-616.62 861.55,-623.59"/>
</g>
<!-- Node12&#45;&gt;Node5 -->
<g id="edge29" class="edge">
<title>Node12&#45;&gt;Node5</title>
<path fill="none" stroke="midnightblue" d="M629.73,-492.52C686.24,-492.8 767.64,-489.1 836,-470 860.1,-463.27 885.27,-449.76 902.85,-439.12"/>
<polygon fill="midnightblue" stroke="midnightblue" points="905.14,-441.82 911.78,-433.56 901.44,-435.88 905.14,-441.82"/>
</g>
<!-- Node13 -->
<g id="node13" class="node">
<title>Node13</title>
<g id="a_node13"><a xlink:href="class_t_train_controller.html#aa09adf9c442406cccc270d6703867a1d" target="_top" xlink:title="Return a reference to the train at position VecPos in the TrainVector, carries out range checking on ...">
<polygon fill="white" stroke="black" points="676.5,-556.5 676.5,-575.5 825.5,-575.5 825.5,-556.5 676.5,-556.5"/>
<text text-anchor="middle" x="751" y="-563.5" font-family="Helvetica,sans-Serif" font-size="10.00">TTrainController::TrainVectorAt</text>
</a>
</g>
</g>
<!-- Node12&#45;&gt;Node13 -->
<g id="edge30" class="edge">
<title>Node12&#45;&gt;Node13</title>
<path fill="none" stroke="midnightblue" d="M587.66,-505.07C608.61,-516.29 638.57,-531.42 666,-542 677.28,-546.35 689.67,-550.32 701.4,-553.72"/>
<polygon fill="midnightblue" stroke="midnightblue" points="700.47,-557.09 711.05,-556.44 702.37,-550.36 700.47,-557.09"/>
</g>
<!-- Node13&#45;&gt;Node2 -->
<g id="edge31" class="edge">
<title>Node13&#45;&gt;Node2</title>
<path fill="none" stroke="midnightblue" d="M788.64,-575.59C803.45,-579.7 820.64,-584.75 836,-590 855.7,-596.73 877.38,-605.37 894.52,-612.49"/>
<polygon fill="midnightblue" stroke="midnightblue" points="893.47,-615.84 904.04,-616.49 896.18,-609.39 893.47,-615.84"/>
</g>
<!-- Node13&#45;&gt;Node5 -->
<g id="edge32" class="edge">
<title>Node13&#45;&gt;Node5</title>
<path fill="none" stroke="midnightblue" d="M765.67,-556.49C782.53,-544.63 811.92,-523.52 836,-504 861.91,-482.99 890.49,-457.09 908.34,-440.56"/>
<polygon fill="midnightblue" stroke="midnightblue" points="910.8,-443.05 915.74,-433.68 906.03,-437.93 910.8,-443.05"/>
</g>
<!-- Node15&#45;&gt;Node2 -->
<g id="edge35" class="edge">
<title>Node15&#45;&gt;Node2</title>
<path fill="none" stroke="midnightblue" d="M595.79,-195.17C616.12,-203.62 642.27,-214.02 666,-222 740.3,-246.98 782.42,-211.78 836,-269 889.98,-326.65 852.81,-366.4 872,-443 887.04,-503.05 908.9,-572.94 919.61,-606.31"/>
<polygon fill="midnightblue" stroke="midnightblue" points="916.38,-607.72 922.78,-616.16 923.04,-605.57 916.38,-607.72"/>
</g>
<!-- Node15&#45;&gt;Node5 -->
<g id="edge36" class="edge">
<title>Node15&#45;&gt;Node5</title>
<path fill="none" stroke="midnightblue" d="M625.71,-177.51C686.22,-178.55 775.77,-189.02 836,-236 891.57,-279.35 914.68,-365.56 922.56,-404.32"/>
<polygon fill="midnightblue" stroke="midnightblue" points="919.15,-405.16 924.46,-414.33 926.03,-403.85 919.15,-405.16"/>
</g>
<!-- Node15&#45;&gt;Node11 -->
<g id="edge37" class="edge">
<title>Node15&#45;&gt;Node11</title>
<path fill="none" stroke="midnightblue" d="M606.06,-195.17C614.54,-199.19 622.94,-204.11 630,-210 652.15,-228.47 642.7,-246.99 666,-264 671.98,-268.36 678.73,-271.94 685.75,-274.86"/>
<polygon fill="midnightblue" stroke="midnightblue" points="684.83,-278.26 695.43,-278.46 687.27,-271.7 684.83,-278.26"/>
</g>
<!-- Node16&#45;&gt;Node2 -->
<g id="edge39" class="edge">
<title>Node16&#45;&gt;Node2</title>
<path fill="none" stroke="midnightblue" d="M810.98,-846.37C820.07,-842.94 828.81,-838.29 836,-832 893.73,-781.51 915.87,-687.14 923.03,-646.01"/>
<polygon fill="midnightblue" stroke="midnightblue" points="926.53,-646.34 924.67,-635.91 919.62,-645.22 926.53,-646.34"/>
</g>
<!-- Node16&#45;&gt;Node5 -->
<g id="edge40" class="edge">
<title>Node16&#45;&gt;Node5</title>
<path fill="none" stroke="midnightblue" d="M763.48,-846.35C781.74,-830.34 817.26,-796.44 836,-760 867.95,-697.88 854.11,-674.53 872,-607 887.86,-547.16 909.34,-477.17 919.78,-443.73"/>
<polygon fill="midnightblue" stroke="midnightblue" points="923.23,-444.45 922.88,-433.86 916.55,-442.36 923.23,-444.45"/>
</g>
<!-- Node18&#45;&gt;Node2 -->
<g id="edge45" class="edge">
<title>Node18&#45;&gt;Node2</title>
<path fill="none" stroke="midnightblue" d="M580.65,-271.57C637.47,-298.86 797.4,-377.91 836,-421 886.62,-477.51 912.37,-567.02 921.75,-606.36"/>
<polygon fill="midnightblue" stroke="midnightblue" points="918.37,-607.29 924.01,-616.26 925.19,-605.73 918.37,-607.29"/>
</g>
<!-- Node18&#45;&gt;Node5 -->
<g id="edge46" class="edge">
<title>Node18&#45;&gt;Node5</title>
<path fill="none" stroke="midnightblue" d="M596.56,-252.49C652.26,-239.96 760.68,-224.35 836,-269 886.96,-299.21 911.9,-370.22 921.34,-404.63"/>
<polygon fill="midnightblue" stroke="midnightblue" points="917.98,-405.61 923.87,-414.42 924.75,-403.86 917.98,-405.61"/>
</g>
<!-- Node18&#45;&gt;Node11 -->
<g id="edge47" class="edge">
<title>Node18&#45;&gt;Node11</title>
<path fill="none" stroke="midnightblue" d="M629.99,-271.53C646.26,-273.77 663.6,-276.15 679.9,-278.38"/>
<polygon fill="midnightblue" stroke="midnightblue" points="679.51,-281.86 689.89,-279.75 680.46,-274.93 679.51,-281.86"/>
</g>
</g>
</svg>
