<?xml version="1.0" encoding="UTF-8" standalone="no"?>
<!DOCTYPE svg PUBLIC "-//W3C//DTD SVG 1.1//EN"
 "http://www.w3.org/Graphics/SVG/1.1/DTD/svg11.dtd">
<!-- Generated by graphviz version 2.44.1 (20200629.0800)
 -->
<!-- Title: TTrack::PlatformOnSignalSide Pages: 1 -->
<!--zoomable 207 -->
<svg id="main" version="1.1" xmlns="http://www.w3.org/2000/svg" xmlns:xlink="http://www.w3.org/1999/xlink" xml:space="preserve" onload="init(evt)">
<style type="text/css"><![CDATA[
.edge:hover path { stroke: red; }
.edge:hover polygon { stroke: red; fill: red; }
]]></style>
<script type="text/javascript"><![CDATA[
var edges = document.getElementsByTagName('g');
if (edges && edges.length) {
  for (var i=0;i<edges.length;i++) {
    if (edges[i].id.substr(0,4)=='edge') {
      edges[i].setAttribute('class','edge');
    }
  }
}
]]></script>
        <defs>
                <circle id="rim" cx="0" cy="0" r="7"/>
                <circle id="rim2" cx="0" cy="0" r="3.5"/>
                <g id="zoomPlus">
                        <use xlink:href="#rim" fill="#404040">
                                <set attributeName="fill" to="#808080" begin="zoomplus.mouseover" end="zoomplus.mouseout"/>
                        </use>
                        <path d="M-4,0h8M0,-4v8" fill="none" stroke="white" stroke-width="1.5" pointer-events="none"/>
                </g>
                <g id="zoomMin">
                        <use xlink:href="#rim" fill="#404040">
                                <set attributeName="fill" to="#808080" begin="zoomminus.mouseover" end="zoomminus.mouseout"/>
                        </use>
                        <path d="M-4,0h8" fill="none" stroke="white" stroke-width="1.5" pointer-events="none"/>
                </g>
                <g id="dirArrow">
                        <path fill="none" stroke="white" stroke-width="1.5" d="M0,-3.0v7 M-2.5,-0.5L0,-3.0L2.5,-0.5"/>
                </g>
               <g id="resetDef">
                       <use xlink:href="#rim2" fill="#404040">
                               <set attributeName="fill" to="#808080" begin="reset.mouseover" end="reset.mouseout"/>
                       </use>
               </g>
        </defs>

<script type="text/javascript">
var viewWidth = 664;
var viewHeight = 207;
var sectionId = 'dynsection-165';
</script>
<script xlink:href="svgpan.js"/>
<svg id="graph" class="graph">
<g id="viewport">
<title>TTrack::PlatformOnSignalSide</title>
<polygon fill="white" stroke="transparent" points="-4,4 -4,-203.11 660,-203.11 660,4 -4,4"/>
<!-- Node1 -->
<g id="node1" class="node">
<title>Node1</title>
<g id="a_node1"><a xlink:title="Check whether there is a platform present at HLoc &amp; VLoc at the same side as the signal represented b...">
<polygon fill="#bfbfbf" stroke="black" points="0,-86.21 0,-105.21 147,-105.21 147,-86.21 0,-86.21"/>
<text text-anchor="middle" x="73.5" y="-93.21" font-family="Helvetica,sans-Serif" font-size="10.00">TTrack::PlatformOnSignalSide</text>
</a>
</g>
</g>
<!-- Node2 -->
<g id="node2" class="node">
<title>Node2</title>
<g id="a_node2"><a xlink:href="class_t_utilities.html#ae1eddca13cc3c492839e131f40ec21c0" target="_top" xlink:title="pops the last entry off the call stack, throws an error if called when empty">
<polygon fill="white" stroke="black" points="546,-127.21 546,-146.21 656,-146.21 656,-127.21 546,-127.21"/>
<text text-anchor="middle" x="601" y="-134.21" font-family="Helvetica,sans-Serif" font-size="10.00">TUtilities::CallLogPop</text>
</a>
</g>
</g>
<!-- Node1&#45;&gt;Node2 -->
<g id="edge1" class="edge">
<title>Node1&#45;&gt;Node2</title>
<path fill="none" stroke="midnightblue" d="M91.64,-105.31C112.6,-116.69 149.44,-135.5 183,-146.71 321.68,-193.02 367.85,-216.93 510,-182.71 534.61,-176.78 560.07,-162.92 577.6,-151.96"/>
<polygon fill="midnightblue" stroke="midnightblue" points="579.97,-154.59 586.47,-146.23 576.17,-148.71 579.97,-154.59"/>
</g>
<!-- Node3 -->
<g id="node3" class="node">
<title>Node3</title>
<g id="a_node3"><a xlink:href="class_t_track.html#a418966e6fefb71b9d0c9b941197832da" target="_top" xlink:title="Similar to GetVectorPositionFromTrackMap but for inactive elements, a pair is returned because there ...">
<polygon fill="white" stroke="black" points="364.5,-28.71 364.5,-58.71 501.5,-58.71 501.5,-28.71 364.5,-28.71"/>
<text text-anchor="start" x="372.5" y="-46.71" font-family="Helvetica,sans-Serif" font-size="10.00">TTrack::GetVectorPositions</text>
<text text-anchor="middle" x="433" y="-35.71" font-family="Helvetica,sans-Serif" font-size="10.00">FromInactiveTrackMap</text>
</a>
</g>
</g>
<!-- Node1&#45;&gt;Node3 -->
<g id="edge2" class="edge">
<title>Node1&#45;&gt;Node3</title>
<path fill="none" stroke="midnightblue" d="M112.97,-86.16C133.63,-81.29 159.59,-75.6 183,-71.71 239.99,-62.23 304.86,-55.05 354.1,-50.33"/>
<polygon fill="midnightblue" stroke="midnightblue" points="354.73,-53.79 364.36,-49.36 354.08,-46.82 354.73,-53.79"/>
</g>
<!-- Node4 -->
<g id="node4" class="node">
<title>Node4</title>
<g id="a_node4"><a xlink:href="class_t_utilities.html#a34bd6bb5305bc29afdf424f6d35a921c" target="_top" xlink:title="creates a string of the form &#39;hh:mm:ss&#39; for use in call &amp; event logging">
<polygon fill="white" stroke="black" points="546,-67.21 546,-86.21 656,-86.21 656,-67.21 546,-67.21"/>
<text text-anchor="middle" x="601" y="-74.21" font-family="Helvetica,sans-Serif" font-size="10.00">TUtilities::TimeStamp</text>
</a>
</g>
</g>
<!-- Node1&#45;&gt;Node4 -->
<g id="edge13" class="edge">
<title>Node1&#45;&gt;Node4</title>
<path fill="none" stroke="midnightblue" d="M93.22,-86.2C114.47,-75.79 150.42,-59.3 183,-49.71 323,-8.48 369.83,20.95 510,-19.71 537.23,-27.6 564.12,-46.48 581.31,-60.35"/>
<polygon fill="midnightblue" stroke="midnightblue" points="579.44,-63.36 589.37,-67.07 583.93,-57.98 579.44,-63.36"/>
</g>
<!-- Node5 -->
<g id="node5" class="node">
<title>Node5</title>
<g id="a_node5"><a xlink:href="class_t_track.html#a51f89cf70e94b037f6378cd78003d82b" target="_top" xlink:title="A range&#45;checked version of InactiveTrackElement.at(At)">
<polygon fill="white" stroke="black" points="356,-154.21 356,-173.21 510,-173.21 510,-154.21 356,-154.21"/>
<text text-anchor="middle" x="433" y="-161.21" font-family="Helvetica,sans-Serif" font-size="10.00">TTrack::InactiveTrackElementAt</text>
</a>
</g>
</g>
<!-- Node1&#45;&gt;Node5 -->
<g id="edge5" class="edge">
<title>Node1&#45;&gt;Node5</title>
<path fill="none" stroke="midnightblue" d="M113.56,-105.26C134.16,-110.15 159.88,-116.05 183,-120.71 242.85,-132.76 311.21,-144.41 361.14,-152.54"/>
<polygon fill="midnightblue" stroke="midnightblue" points="360.76,-156.03 371.19,-154.17 361.88,-149.12 360.76,-156.03"/>
</g>
<!-- Node6 -->
<g id="node6" class="node">
<title>Node6</title>
<g id="a_node6"><a xlink:href="class_t_track.html#adbec6561f4ecd2fa1dabf3e41502b085" target="_top" xlink:title="True if a non&#45;station named location or platform at HLoc &amp; VLoc.">
<polygon fill="white" stroke="black" points="183,-80.71 183,-110.71 320,-110.71 320,-80.71 183,-80.71"/>
<text text-anchor="start" x="191" y="-98.71" font-family="Helvetica,sans-Serif" font-size="10.00">TTrack::IsPlatformOrNamed</text>
<text text-anchor="middle" x="251.5" y="-87.71" font-family="Helvetica,sans-Serif" font-size="10.00">NonStationLocationPresent</text>
</a>
</g>
</g>
<!-- Node1&#45;&gt;Node6 -->
<g id="edge8" class="edge">
<title>Node1&#45;&gt;Node6</title>
<path fill="none" stroke="midnightblue" d="M147.1,-95.71C155.52,-95.71 164.13,-95.71 172.61,-95.71"/>
<polygon fill="midnightblue" stroke="midnightblue" points="172.87,-99.21 182.87,-95.71 172.87,-92.21 172.87,-99.21"/>
</g>
<!-- Node3&#45;&gt;Node2 -->
<g id="edge3" class="edge">
<title>Node3&#45;&gt;Node2</title>
<path fill="none" stroke="midnightblue" d="M461.04,-58.85C492.18,-76.3 542.99,-104.76 573.78,-122.01"/>
<polygon fill="midnightblue" stroke="midnightblue" points="572.21,-125.15 582.65,-126.98 575.63,-119.04 572.21,-125.15"/>
</g>
<!-- Node3&#45;&gt;Node4 -->
<g id="edge4" class="edge">
<title>Node3&#45;&gt;Node4</title>
<path fill="none" stroke="midnightblue" d="M501.52,-57.13C515.04,-59.82 529.12,-62.62 542.28,-65.23"/>
<polygon fill="midnightblue" stroke="midnightblue" points="541.63,-68.67 552.13,-67.19 543,-61.81 541.63,-68.67"/>
</g>
<!-- Node5&#45;&gt;Node2 -->
<g id="edge6" class="edge">
<title>Node5&#45;&gt;Node2</title>
<path fill="none" stroke="midnightblue" d="M492.53,-154.19C506.5,-151.91 521.48,-149.48 535.7,-147.16"/>
<polygon fill="midnightblue" stroke="midnightblue" points="536.58,-150.57 545.89,-145.51 535.46,-143.66 536.58,-150.57"/>
</g>
<!-- Node5&#45;&gt;Node4 -->
<g id="edge7" class="edge">
<title>Node5&#45;&gt;Node4</title>
<path fill="none" stroke="midnightblue" d="M452.4,-154.06C481.64,-138.74 538.89,-108.74 572.85,-90.93"/>
<polygon fill="midnightblue" stroke="midnightblue" points="574.54,-94 581.77,-86.26 571.29,-87.8 574.54,-94"/>
</g>
<!-- Node6&#45;&gt;Node2 -->
<g id="edge9" class="edge">
<title>Node6&#45;&gt;Node2</title>
<path fill="none" stroke="midnightblue" d="M320.33,-103.71C382.6,-111.06 474.22,-121.87 535.43,-129.09"/>
<polygon fill="midnightblue" stroke="midnightblue" points="535.4,-132.61 545.74,-130.3 536.22,-125.66 535.4,-132.61"/>
</g>
<!-- Node6&#45;&gt;Node3 -->
<g id="edge10" class="edge">
<title>Node6&#45;&gt;Node3</title>
<path fill="none" stroke="midnightblue" d="M304.42,-80.67C325.07,-74.68 348.99,-67.75 370.5,-61.52"/>
<polygon fill="midnightblue" stroke="midnightblue" points="371.57,-64.86 380.2,-58.71 369.62,-58.13 371.57,-64.86"/>
</g>
<!-- Node6&#45;&gt;Node4 -->
<g id="edge12" class="edge">
<title>Node6&#45;&gt;Node4</title>
<path fill="none" stroke="midnightblue" d="M320.33,-92C382.6,-88.59 474.22,-83.58 535.43,-80.24"/>
<polygon fill="midnightblue" stroke="midnightblue" points="535.95,-83.71 545.74,-79.67 535.57,-76.72 535.95,-83.71"/>
</g>
<!-- Node6&#45;&gt;Node5 -->
<g id="edge11" class="edge">
<title>Node6&#45;&gt;Node5</title>
<path fill="none" stroke="midnightblue" d="M285.73,-110.8C305.87,-119.7 332.19,-130.91 356,-139.71 366.73,-143.67 378.46,-147.58 389.42,-151.05"/>
<polygon fill="midnightblue" stroke="midnightblue" points="388.63,-154.47 399.22,-154.11 390.72,-147.79 388.63,-154.47"/>
</g>
</g>
</svg>
        <g id="navigator" transform="translate(0 0)" fill="#404254">
                <rect fill="#f2f5e9" fill-opacity="0.5" stroke="#606060" stroke-width=".5" x="0" y="0" width="60" height="60"/>
                <use id="zoomplus" xlink:href="#zoomPlus" x="17" y="9" onmousedown="handleZoom(evt,'in')"/>
                <use id="zoomminus" xlink:href="#zoomMin" x="42" y="9" onmousedown="handleZoom(evt,'out')"/>
                <use id="reset" xlink:href="#resetDef" x="30" y="36" onmousedown="handleReset()"/>
                <g id="arrowUp" xlink:href="#dirArrow" transform="translate(30 24)" onmousedown="handlePan(0,-1)">
                  <use xlink:href="#rim" fill="#404040">
                        <set attributeName="fill" to="#808080" begin="arrowUp.mouseover" end="arrowUp.mouseout"/>
                  </use>
                  <path fill="none" stroke="white" stroke-width="1.5" d="M0,-3.0v7 M-2.5,-0.5L0,-3.0L2.5,-0.5"/>
                </g>
                <g id="arrowRight" xlink:href="#dirArrow" transform="rotate(90) translate(36 -43)" onmousedown="handlePan(1,0)">
                  <use xlink:href="#rim" fill="#404040">
                        <set attributeName="fill" to="#808080" begin="arrowRight.mouseover" end="arrowRight.mouseout"/>
                  </use>
                  <path fill="none" stroke="white" stroke-width="1.5" d="M0,-3.0v7 M-2.5,-0.5L0,-3.0L2.5,-0.5"/>
                </g>
                <g id="arrowDown" xlink:href="#dirArrow" transform="rotate(180) translate(-30 -48)" onmousedown="handlePan(0,1)">
                  <use xlink:href="#rim" fill="#404040">
                        <set attributeName="fill" to="#808080" begin="arrowDown.mouseover" end="arrowDown.mouseout"/>
                  </use>
                  <path fill="none" stroke="white" stroke-width="1.5" d="M0,-3.0v7 M-2.5,-0.5L0,-3.0L2.5,-0.5"/>
                </g>
                <g id="arrowLeft" xlink:href="#dirArrow" transform="rotate(270) translate(-36 17)" onmousedown="handlePan(-1,0)">
                  <use xlink:href="#rim" fill="#404040">
                        <set attributeName="fill" to="#808080" begin="arrowLeft.mouseover" end="arrowLeft.mouseout"/>
                  </use>
                  <path fill="none" stroke="white" stroke-width="1.5" d="M0,-3.0v7 M-2.5,-0.5L0,-3.0L2.5,-0.5"/>
                </g>
        </g>
        <svg viewBox="0 0 15 15" width="100%" height="30px" preserveAspectRatio="xMaxYMin meet">
         <g id="arrow_out" transform="scale(0.3 0.3)">
          <a xlink:href="class_t_track_a7c2888cb7acea2b9c65c5f9cc538df66_cgraph_org.svg" target="_base">
           <rect id="button" ry="5" rx="5" y="6" x="6" height="38" width="38"
                fill="#f2f5e9" fill-opacity="0.5" stroke="#606060" stroke-width="1.0"/>
           <path id="arrow"
             d="M 11.500037,31.436501 C 11.940474,20.09759 22.043105,11.32322 32.158766,21.979434 L 37.068811,17.246167 C 37.068811,17.246167 37.088388,32 37.088388,32 L 22.160133,31.978069 C 22.160133,31.978069 26.997745,27.140456 26.997745,27.140456 C 18.528582,18.264221 13.291696,25.230495 11.500037,31.436501 z"
             style="fill:#404040;"/>
          </a>
         </g>
        </svg>
</svg>
