<?xml version="1.0" encoding="UTF-8" standalone="no"?>
<!DOCTYPE svg PUBLIC "-//W3C//DTD SVG 1.1//EN"
 "http://www.w3.org/Graphics/SVG/1.1/DTD/svg11.dtd">
<!-- Generated by graphviz version 2.44.1 (20200629.0800)
 -->
<!-- Title: TTrain::LinkOccupied Pages: 1 -->
<svg width="420pt" height="75pt"
 viewBox="0.00 0.00 420.00 75.00" xmlns="http://www.w3.org/2000/svg" xmlns:xlink="http://www.w3.org/1999/xlink">
<g id="graph0" class="graph" transform="scale(1 1) rotate(0) translate(4 71)">
<title>TTrain::LinkOccupied</title>
<polygon fill="white" stroke="transparent" points="-4,4 -4,-71 416,-71 416,4 -4,4"/>
<!-- Node1 -->
<g id="node1" class="node">
<title>Node1</title>
<g id="a_node1"><a xlink:title="Added at v1.2.0: true if any part of train on specific link, false otherwise, including no link prese...">
<polygon fill="#bfbfbf" stroke="black" points="0,-28.5 0,-47.5 108,-47.5 108,-28.5 0,-28.5"/>
<text text-anchor="middle" x="54" y="-35.5" font-family="Helvetica,sans-Serif" font-size="10.00">TTrain::LinkOccupied</text>
</a>
</g>
</g>
<!-- Node2 -->
<g id="node2" class="node">
<title>Node2</title>
<g id="a_node2"><a xlink:href="class_t_utilities.html#ae1eddca13cc3c492839e131f40ec21c0" target="_top" xlink:title="pops the last entry off the call stack, throws an error if called when empty">
<polygon fill="white" stroke="black" points="302,-47.5 302,-66.5 412,-66.5 412,-47.5 302,-47.5"/>
<text text-anchor="middle" x="357" y="-54.5" font-family="Helvetica,sans-Serif" font-size="10.00">TUtilities::CallLogPop</text>
</a>
</g>
</g>
<!-- Node1&#45;&gt;Node2 -->
<g id="edge1" class="edge">
<title>Node1&#45;&gt;Node2</title>
<path fill="none" stroke="midnightblue" d="M91.1,-47.51C107.17,-51.27 126.4,-55.14 144,-57 193.37,-62.21 249.57,-61.93 291.69,-60.5"/>
<polygon fill="midnightblue" stroke="midnightblue" points="291.95,-63.99 301.81,-60.12 291.69,-57 291.95,-63.99"/>
</g>
<!-- Node3 -->
<g id="node3" class="node">
<title>Node3</title>
<g id="a_node3"><a xlink:href="class_t_utilities.html#a34bd6bb5305bc29afdf424f6d35a921c" target="_top" xlink:title="creates a string of the form &#39;hh:mm:ss&#39; for use in call &amp; event logging">
<polygon fill="white" stroke="black" points="302,-0.5 302,-19.5 412,-19.5 412,-0.5 302,-0.5"/>
<text text-anchor="middle" x="357" y="-7.5" font-family="Helvetica,sans-Serif" font-size="10.00">TUtilities::TimeStamp</text>
</a>
</g>
</g>
<!-- Node1&#45;&gt;Node3 -->
<g id="edge2" class="edge">
<title>Node1&#45;&gt;Node3</title>
<path fill="none" stroke="midnightblue" d="M92.87,-28.45C108.59,-24.87 127.07,-21.15 144,-19 193.29,-12.74 249.49,-10.58 291.64,-9.93"/>
<polygon fill="midnightblue" stroke="midnightblue" points="291.81,-13.43 301.77,-9.8 291.72,-6.43 291.81,-13.43"/>
</g>
<!-- Node4 -->
<g id="node4" class="node">
<title>Node4</title>
<g id="a_node4"><a xlink:href="class_t_track.html#ad377e5a1f152f2e89832c0f9bcfd261f" target="_top" xlink:title="A range&#45;checked version of TrackElement.at(At)">
<polygon fill="white" stroke="black" points="144,-28.5 144,-47.5 266,-47.5 266,-28.5 144,-28.5"/>
<text text-anchor="middle" x="205" y="-35.5" font-family="Helvetica,sans-Serif" font-size="10.00">TTrack::TrackElementAt</text>
</a>
</g>
</g>
<!-- Node1&#45;&gt;Node4 -->
<g id="edge3" class="edge">
<title>Node1&#45;&gt;Node4</title>
<path fill="none" stroke="midnightblue" d="M108.37,-38C116.65,-38 125.32,-38 133.9,-38"/>
<polygon fill="midnightblue" stroke="midnightblue" points="133.91,-41.5 143.91,-38 133.91,-34.5 133.91,-41.5"/>
</g>
<!-- Node4&#45;&gt;Node2 -->
<g id="edge4" class="edge">
<title>Node4&#45;&gt;Node2</title>
<path fill="none" stroke="midnightblue" d="M266.15,-45.62C274.49,-46.68 283.09,-47.76 291.51,-48.83"/>
<polygon fill="midnightblue" stroke="midnightblue" points="291.3,-52.33 301.66,-50.12 292.18,-45.39 291.3,-52.33"/>
</g>
<!-- Node4&#45;&gt;Node3 -->
<g id="edge5" class="edge">
<title>Node4&#45;&gt;Node3</title>
<path fill="none" stroke="midnightblue" d="M257.2,-28.44C269.39,-26.17 282.51,-23.72 295.09,-21.37"/>
<polygon fill="midnightblue" stroke="midnightblue" points="295.84,-24.79 305.03,-19.51 294.56,-17.91 295.84,-24.79"/>
</g>
</g>
</svg>
