<?xml version="1.0" encoding="UTF-8" standalone="no"?>
<!DOCTYPE svg PUBLIC "-//W3C//DTD SVG 1.1//EN"
 "http://www.w3.org/Graphics/SVG/1.1/DTD/svg11.dtd">
<!-- Generated by graphviz version 2.44.1 (20200629.0800)
 -->
<!-- Title: TTrain::GetTrainTime Pages: 1 -->
<!--zoomable 1076 -->
<svg id="main" version="1.1" xmlns="http://www.w3.org/2000/svg" xmlns:xlink="http://www.w3.org/1999/xlink" xml:space="preserve" onload="init(evt)">
<style type="text/css"><![CDATA[
.edge:hover path { stroke: red; }
.edge:hover polygon { stroke: red; fill: red; }
]]></style>
<script type="text/javascript"><![CDATA[
var edges = document.getElementsByTagName('g');
if (edges && edges.length) {
  for (var i=0;i<edges.length;i++) {
    if (edges[i].id.substr(0,4)=='edge') {
      edges[i].setAttribute('class','edge');
    }
  }
}
]]></script>
        <defs>
                <circle id="rim" cx="0" cy="0" r="7"/>
                <circle id="rim2" cx="0" cy="0" r="3.5"/>
                <g id="zoomPlus">
                        <use xlink:href="#rim" fill="#404040">
                                <set attributeName="fill" to="#808080" begin="zoomplus.mouseover" end="zoomplus.mouseout"/>
                        </use>
                        <path d="M-4,0h8M0,-4v8" fill="none" stroke="white" stroke-width="1.5" pointer-events="none"/>
                </g>
                <g id="zoomMin">
                        <use xlink:href="#rim" fill="#404040">
                                <set attributeName="fill" to="#808080" begin="zoomminus.mouseover" end="zoomminus.mouseout"/>
                        </use>
                        <path d="M-4,0h8" fill="none" stroke="white" stroke-width="1.5" pointer-events="none"/>
                </g>
                <g id="dirArrow">
                        <path fill="none" stroke="white" stroke-width="1.5" d="M0,-3.0v7 M-2.5,-0.5L0,-3.0L2.5,-0.5"/>
                </g>
               <g id="resetDef">
                       <use xlink:href="#rim2" fill="#404040">
                               <set attributeName="fill" to="#808080" begin="reset.mouseover" end="reset.mouseout"/>
                       </use>
               </g>
        </defs>

<script type="text/javascript">
var viewWidth = 1300;
var viewHeight = 1076;
var sectionId = 'dynsection-40';
</script>
<script xlink:href="svgpan.js"/>
<svg id="graph" class="graph">
<g id="viewport">
<title>TTrain::GetTrainTime</title>
<polygon fill="white" stroke="transparent" points="-4,4 -4,-1072 1296,-1072 1296,4 -4,4"/>
<!-- Node1 -->
<g id="node1" class="node">
<title>Node1</title>
<g id="a_node1"><a xlink:title="Returns the timetable action time corresponding to &#39;Time&#39; for this train, i.e. it adjusts the time va...">
<polygon fill="#bfbfbf" stroke="black" points="1185,-972 1185,-991 1292,-991 1292,-972 1185,-972"/>
<text text-anchor="middle" x="1238.5" y="-979" font-family="Helvetica,sans-Serif" font-size="10.00">TTrain::GetTrainTime</text>
</a>
</g>
</g>
<!-- Node2 -->
<g id="node2" class="node">
<title>Node2</title>
<g id="a_node2"><a xlink:href="class_t_train.html#a221da69cd80d206a06f840f4cd463cf9" target="_top" xlink:title="Used in the floating window to display the &#39;Next&#39; action.">
<polygon fill="white" stroke="black" points="1022,-1037.5 1022,-1067.5 1149,-1067.5 1149,-1037.5 1022,-1037.5"/>
<text text-anchor="start" x="1030" y="-1055.5" font-family="Helvetica,sans-Serif" font-size="10.00">TTrain::FloatingLabelNext</text>
<text text-anchor="middle" x="1085.5" y="-1044.5" font-family="Helvetica,sans-Serif" font-size="10.00">String</text>
</a>
</g>
</g>
<!-- Node1&#45;&gt;Node2 -->
<g id="edge1" class="edge">
<title>Node1&#45;&gt;Node2</title>
<path fill="none" stroke="midnightblue" d="M1211.44,-995.91C1193.99,-1005.34 1170.38,-1017.7 1149,-1027.5 1141.56,-1030.91 1133.52,-1034.32 1125.76,-1037.49"/>
<polygon fill="midnightblue" stroke="midnightblue" points="1213.34,-998.86 1220.45,-991 1210,-992.71 1213.34,-998.86"/>
</g>
<!-- Node6 -->
<g id="node6" class="node">
<title>Node6</title>
<g id="a_node6"><a xlink:href="class_t_train.html#a81bf61b47a2867f0c6901b1ea6f47177" target="_top" xlink:title="Used in the floating window to display the timetable.">
<polygon fill="white" stroke="black" points="1023,-988.5 1023,-1018.5 1148,-1018.5 1148,-988.5 1023,-988.5"/>
<text text-anchor="start" x="1031" y="-1006.5" font-family="Helvetica,sans-Serif" font-size="10.00">TTrain::FloatingTimetable</text>
<text text-anchor="middle" x="1085.5" y="-995.5" font-family="Helvetica,sans-Serif" font-size="10.00">String</text>
</a>
</g>
</g>
<!-- Node1&#45;&gt;Node6 -->
<g id="edge5" class="edge">
<title>Node1&#45;&gt;Node6</title>
<path fill="none" stroke="midnightblue" d="M1174.55,-990.67C1165.8,-991.95 1156.81,-993.26 1148.08,-994.53"/>
<polygon fill="midnightblue" stroke="midnightblue" points="1175.3,-994.1 1184.69,-989.19 1174.29,-987.17 1175.3,-994.1"/>
</g>
<!-- Node7 -->
<g id="node7" class="node">
<title>Node7</title>
<g id="a_node7"><a xlink:href="class_t_train.html#a493ab1c185d29bf28ec8fded2356e9fc" target="_top" xlink:title="Send a message to the performance log and performance file, and if the message is flagged as a warnin...">
<polygon fill="white" stroke="black" points="1039.5,-463 1039.5,-482 1131.5,-482 1131.5,-463 1039.5,-463"/>
<text text-anchor="middle" x="1085.5" y="-470" font-family="Helvetica,sans-Serif" font-size="10.00">TTrain::LogAction</text>
</a>
</g>
</g>
<!-- Node1&#45;&gt;Node7 -->
<g id="edge7" class="edge">
<title>Node1&#45;&gt;Node7</title>
<path fill="none" stroke="midnightblue" d="M1231.77,-962.19C1206.78,-877.94 1107.7,-543.97 1089.41,-482.32"/>
<polygon fill="midnightblue" stroke="midnightblue" points="1228.42,-963.19 1234.62,-971.79 1235.13,-961.2 1228.42,-963.19"/>
</g>
<!-- Node10 -->
<g id="node10" class="node">
<title>Node10</title>
<g id="a_node10"><a xlink:href="class_t_train.html#a89ad640ecf8f5163c40727b4e28575fc" target="_top" xlink:title="Major function called at each clock tick for each train &amp; handles all train movement &amp; associated act...">
<polygon fill="white" stroke="black" points="495,-444 495,-463 596,-463 596,-444 495,-444"/>
<text text-anchor="middle" x="545.5" y="-451" font-family="Helvetica,sans-Serif" font-size="10.00">TTrain::UpdateTrain</text>
</a>
</g>
</g>
<!-- Node1&#45;&gt;Node10 -->
<g id="edge44" class="edge">
<title>Node1&#45;&gt;Node10</title>
<path fill="none" stroke="midnightblue" d="M1174.71,-978.19C1094.13,-971.89 951.64,-953.7 842,-901.5 732.82,-849.52 699.44,-828.88 632,-728.5 570.8,-637.41 551.69,-500.35 547.49,-463.12"/>
<polygon fill="midnightblue" stroke="midnightblue" points="1174.47,-981.68 1184.71,-978.94 1174.99,-974.7 1174.47,-981.68"/>
</g>
<!-- Node3 -->
<g id="node3" class="node">
<title>Node3</title>
<g id="a_node3"><a xlink:href="class_t_interface.html#a9aaa19d39382a32701d7ded3b8c1802b" target="_top" xlink:title="Controls the floating window function, called during the ClockTimer2 function.">
<polygon fill="white" stroke="black" points="848.5,-994 848.5,-1013 979.5,-1013 979.5,-994 848.5,-994"/>
<text text-anchor="middle" x="914" y="-1001" font-family="Helvetica,sans-Serif" font-size="10.00">TInterface::TrackTrainFloat</text>
</a>
</g>
</g>
<!-- Node2&#45;&gt;Node3 -->
<g id="edge2" class="edge">
<title>Node2&#45;&gt;Node3</title>
<path fill="none" stroke="midnightblue" d="M1022.38,-1034.54C997.14,-1027.25 969.01,-1019.11 947.87,-1013"/>
<polygon fill="midnightblue" stroke="midnightblue" points="1021.68,-1037.98 1032.26,-1037.4 1023.63,-1031.26 1021.68,-1037.98"/>
</g>
<!-- Node4 -->
<g id="node4" class="node">
<title>Node4</title>
<g id="a_node4"><a xlink:href="class_t_interface.html#a6139ffb52492eb89e5487a8a3cd647b5" target="_top" xlink:title="The main loop, called every clock tick via MasterClockTimer.">
<polygon fill="white" stroke="black" points="179,-838 179,-857 298,-857 298,-838 179,-838"/>
<text text-anchor="middle" x="238.5" y="-845" font-family="Helvetica,sans-Serif" font-size="10.00">TInterface::ClockTimer2</text>
</a>
</g>
</g>
<!-- Node3&#45;&gt;Node4 -->
<g id="edge3" class="edge">
<title>Node3&#45;&gt;Node4</title>
<path fill="none" stroke="midnightblue" d="M838.39,-998.89C781.48,-994.56 701.33,-986.72 632,-973.5 569.93,-961.66 555.34,-954.24 495,-935.5 410.32,-909.2 311.41,-873.77 265.44,-857.02"/>
<polygon fill="midnightblue" stroke="midnightblue" points="838.15,-1002.38 848.39,-999.63 838.67,-995.4 838.15,-1002.38"/>
</g>
<!-- Node5 -->
<g id="node5" class="node">
<title>Node5</title>
<g id="a_node5"><a xlink:href="class_t_interface.html#ace30a12d923fc7fb489afabb0a09aa4f" target="_top" xlink:title=" ">
<polygon fill="white" stroke="black" points="0,-838 0,-857 143,-857 143,-838 0,-838"/>
<text text-anchor="middle" x="71.5" y="-845" font-family="Helvetica,sans-Serif" font-size="10.00">TInterface::MasterClockTimer</text>
</a>
</g>
</g>
<!-- Node4&#45;&gt;Node5 -->
<g id="edge4" class="edge">
<title>Node4&#45;&gt;Node5</title>
<path fill="none" stroke="midnightblue" d="M168.67,-847.5C160.22,-847.5 151.57,-847.5 143.09,-847.5"/>
<polygon fill="midnightblue" stroke="midnightblue" points="168.86,-851 178.86,-847.5 168.86,-844 168.86,-851"/>
</g>
<!-- Node6&#45;&gt;Node3 -->
<g id="edge6" class="edge">
<title>Node6&#45;&gt;Node3</title>
<path fill="none" stroke="midnightblue" d="M1012.51,-1003.5C1001.64,-1003.5 990.48,-1003.5 979.76,-1003.5"/>
<polygon fill="midnightblue" stroke="midnightblue" points="1012.83,-1007 1022.83,-1003.5 1012.83,-1000 1012.83,-1007"/>
</g>
<!-- Node8 -->
<g id="node8" class="node">
<title>Node8</title>
<g id="a_node8"><a xlink:href="class_t_train_controller.html#aa895b60238810a9d134cd5b9c886da56" target="_top" xlink:title="Introduce a new train to the railway, with the characteristics specified, returns true for success,...">
<polygon fill="white" stroke="black" points="850,-273 850,-292 978,-292 978,-273 850,-273"/>
<text text-anchor="middle" x="914" y="-280" font-family="Helvetica,sans-Serif" font-size="10.00">TTrainController::AddTrain</text>
</a>
</g>
</g>
<!-- Node7&#45;&gt;Node8 -->
<g id="edge8" class="edge">
<title>Node7&#45;&gt;Node8</title>
<path fill="none" stroke="midnightblue" d="M1078,-452.8C1065.61,-418.21 1035.35,-346.46 986,-306.5 978.21,-300.2 968.69,-295.51 959.17,-292.05"/>
<polygon fill="midnightblue" stroke="midnightblue" points="1074.83,-454.33 1081.4,-462.64 1081.44,-452.04 1074.83,-454.33"/>
</g>
<!-- Node9 -->
<g id="node9" class="node">
<title>Node9</title>
<g id="a_node9"><a xlink:href="class_t_train.html#ad666fb061d1da7c44a72ec963c2098aa" target="_top" xlink:title="Carry out the actions needed when a train is to split from the front.">
<polygon fill="white" stroke="black" points="663,-349 663,-368 775,-368 775,-349 663,-349"/>
<text text-anchor="middle" x="719" y="-356" font-family="Helvetica,sans-Serif" font-size="10.00">TTrain::FrontTrainSplit</text>
</a>
</g>
</g>
<!-- Node7&#45;&gt;Node9 -->
<g id="edge19" class="edge">
<title>Node7&#45;&gt;Node9</title>
<path fill="none" stroke="midnightblue" d="M1071.24,-454.75C1054.16,-433.42 1022.33,-398.51 986,-382.5 917.9,-352.48 830.64,-350.67 775,-353.5"/>
<polygon fill="midnightblue" stroke="midnightblue" points="1068.52,-456.96 1077.43,-462.71 1074.05,-452.67 1068.52,-456.96"/>
</g>
<!-- Node7&#45;&gt;Node10 -->
<g id="edge43" class="edge">
<title>Node7&#45;&gt;Node10</title>
<path fill="none" stroke="midnightblue" d="M1047.96,-459.71C970.57,-434.41 784.7,-383.09 632,-415.5 606.42,-420.93 579.2,-434.56 562.52,-443.93"/>
<polygon fill="midnightblue" stroke="midnightblue" points="1047.12,-463.12 1057.72,-462.95 1049.33,-456.48 1047.12,-463.12"/>
</g>
<!-- Node11 -->
<g id="node11" class="node">
<title>Node11</title>
<g id="a_node11"><a xlink:href="class_t_train_controller.html#a20a1576dea1d86ed78fc5e9f46343481" target="_top" xlink:title="called every clock tick to introduce new trains and update existing trains">
<polygon fill="white" stroke="black" points="334,-688 334,-707 459,-707 459,-688 334,-688"/>
<text text-anchor="middle" x="396.5" y="-695" font-family="Helvetica,sans-Serif" font-size="10.00">TTrainController::Operate</text>
</a>
</g>
</g>
<!-- Node7&#45;&gt;Node11 -->
<g id="edge27" class="edge">
<title>Node7&#45;&gt;Node11</title>
<path fill="none" stroke="midnightblue" d="M1083.12,-492.25C1077.28,-569.45 1051.81,-849.09 986,-901.5 790.18,-1057.45 467.27,-764.53 407.26,-707.03"/>
<polygon fill="midnightblue" stroke="midnightblue" points="1086.63,-492.25 1083.87,-482.02 1079.65,-491.74 1086.63,-492.25"/>
</g>
<!-- Node12 -->
<g id="node12" class="node">
<title>Node12</title>
<g id="a_node12"><a xlink:href="class_t_train.html#ad64c5823265b0c611c2e5f0613317aa5" target="_top" xlink:title="Carry out the actions needed when a train is to split from the rear.">
<polygon fill="white" stroke="black" points="664,-311 664,-330 774,-330 774,-311 664,-311"/>
<text text-anchor="middle" x="719" y="-318" font-family="Helvetica,sans-Serif" font-size="10.00">TTrain::RearTrainSplit</text>
</a>
</g>
</g>
<!-- Node7&#45;&gt;Node12 -->
<g id="edge29" class="edge">
<title>Node7&#45;&gt;Node12</title>
<path fill="none" stroke="midnightblue" d="M1075.43,-453.47C1060.91,-425.34 1029.57,-373.42 986,-349.5 919.83,-313.17 830.48,-311.28 774.05,-314.74"/>
<polygon fill="midnightblue" stroke="midnightblue" points="1072.42,-455.27 1080.01,-462.66 1078.69,-452.15 1072.42,-455.27"/>
</g>
<!-- Node13 -->
<g id="node13" class="node">
<title>Node13</title>
<g id="a_node13"><a xlink:href="class_t_interface.html#aaaf32c3c815553f7ba70698e0f0071bb" target="_top" xlink:title=" ">
<polygon fill="white" stroke="black" points="846,-147.5 846,-177.5 982,-177.5 982,-147.5 846,-147.5"/>
<text text-anchor="start" x="854" y="-165.5" font-family="Helvetica,sans-Serif" font-size="10.00">TInterface::ChangeDirection</text>
<text text-anchor="middle" x="914" y="-154.5" font-family="Helvetica,sans-Serif" font-size="10.00">MenuItemClick</text>
</a>
</g>
</g>
<!-- Node7&#45;&gt;Node13 -->
<g id="edge16" class="edge">
<title>Node7&#45;&gt;Node13</title>
<path fill="none" stroke="midnightblue" d="M1082.95,-452.77C1078,-402.75 1058.38,-269.47 986,-192.5 980.32,-186.46 973.22,-181.58 965.73,-177.66"/>
<polygon fill="midnightblue" stroke="midnightblue" points="1079.48,-453.23 1083.85,-462.88 1086.45,-452.61 1079.48,-453.23"/>
</g>
<!-- Node14 -->
<g id="node14" class="node">
<title>Node14</title>
<g id="a_node14"><a xlink:href="class_t_train.html#a406c172a0ba96802ada1aa04d78948d0" target="_top" xlink:title="Reverses the direction of motion of the train.">
<polygon fill="white" stroke="black" points="648.5,-235 648.5,-254 789.5,-254 789.5,-235 648.5,-235"/>
<text text-anchor="middle" x="719" y="-242" font-family="Helvetica,sans-Serif" font-size="10.00">TTrain::ChangeTrainDirection</text>
</a>
</g>
</g>
<!-- Node7&#45;&gt;Node14 -->
<g id="edge17" class="edge">
<title>Node7&#45;&gt;Node14</title>
<path fill="none" stroke="midnightblue" d="M1081.84,-452.87C1074.89,-410.09 1051.91,-308.67 986,-263.5 919.74,-218.09 821.11,-225.5 764.43,-235"/>
<polygon fill="midnightblue" stroke="midnightblue" points="1078.39,-453.48 1083.34,-462.85 1085.31,-452.44 1078.39,-453.48"/>
</g>
<!-- Node15 -->
<g id="node15" class="node">
<title>Node15</title>
<g id="a_node15"><a xlink:href="class_t_train.html#a6c3479378d35f9041c38d80f03686b41" target="_top" xlink:title="Carry out the actions needed when a train is waiting to be joined by another train.">
<polygon fill="white" stroke="black" points="674.5,-197 674.5,-216 763.5,-216 763.5,-197 674.5,-197"/>
<text text-anchor="middle" x="719" y="-204" font-family="Helvetica,sans-Serif" font-size="10.00">TTrain::JoinedBy</text>
</a>
</g>
</g>
<!-- Node7&#45;&gt;Node15 -->
<g id="edge20" class="edge">
<title>Node7&#45;&gt;Node15</title>
<path fill="none" stroke="midnightblue" d="M1083.42,-452.95C1079.59,-404.77 1062.41,-280.23 986,-224.5 919.43,-175.95 816.84,-186.21 760.5,-196.97"/>
<polygon fill="midnightblue" stroke="midnightblue" points="1079.93,-453.25 1084.1,-462.99 1086.91,-452.77 1079.93,-453.25"/>
</g>
<!-- Node16 -->
<g id="node16" class="node">
<title>Node16</title>
<g id="a_node16"><a xlink:href="class_t_interface.html#a50478cade5cae721121f5902528987a7" target="_top" xlink:title=" ">
<polygon fill="white" stroke="black" points="850.5,-98.5 850.5,-128.5 977.5,-128.5 977.5,-98.5 850.5,-98.5"/>
<text text-anchor="start" x="858.5" y="-116.5" font-family="Helvetica,sans-Serif" font-size="10.00">TInterface::MoveForwards</text>
<text text-anchor="middle" x="914" y="-105.5" font-family="Helvetica,sans-Serif" font-size="10.00">MenuItemClick</text>
</a>
</g>
</g>
<!-- Node7&#45;&gt;Node16 -->
<g id="edge22" class="edge">
<title>Node7&#45;&gt;Node16</title>
<path fill="none" stroke="midnightblue" d="M1084.65,-452.85C1083.98,-395.96 1074.21,-229.31 986,-137.5 982.66,-134.03 978.81,-131.06 974.66,-128.52"/>
<polygon fill="midnightblue" stroke="midnightblue" points="1081.15,-453 1084.68,-462.99 1088.15,-452.98 1081.15,-453"/>
</g>
<!-- Node17 -->
<g id="node17" class="node">
<title>Node17</title>
<g id="a_node17"><a xlink:href="class_t_train.html#a56fcfe4b9a3cef988bbeb4f4766372aa" target="_top" xlink:title="Carry out the actions needed when a new shuttle service is created from a non&#45;repeating (F&#45;nshs) serv...">
<polygon fill="white" stroke="black" points="650,-689.5 650,-719.5 788,-719.5 788,-689.5 650,-689.5"/>
<text text-anchor="start" x="658" y="-707.5" font-family="Helvetica,sans-Serif" font-size="10.00">TTrain::NewShuttleFromNon</text>
<text text-anchor="middle" x="719" y="-696.5" font-family="Helvetica,sans-Serif" font-size="10.00">RepeatService</text>
</a>
</g>
</g>
<!-- Node7&#45;&gt;Node17 -->
<g id="edge23" class="edge">
<title>Node7&#45;&gt;Node17</title>
<path fill="none" stroke="midnightblue" d="M1084.94,-492.08C1084.98,-546.43 1076.68,-699.39 986,-764.5 908.9,-819.86 789.4,-751.7 741.21,-719.54"/>
<polygon fill="midnightblue" stroke="midnightblue" points="1088.44,-492.01 1084.84,-482.05 1081.44,-492.09 1088.44,-492.01"/>
</g>
<!-- Node18 -->
<g id="node18" class="node">
<title>Node18</title>
<g id="a_node18"><a xlink:href="class_t_train.html#a75a2e9017b96e2a8f2a1edbd01c2cd68" target="_top" xlink:title="Carry out the actions needed when a train forms a new service (code Fns)">
<polygon fill="white" stroke="black" points="659,-570 659,-589 779,-589 779,-570 659,-570"/>
<text text-anchor="middle" x="719" y="-577" font-family="Helvetica,sans-Serif" font-size="10.00">TTrain::NewTrainService</text>
</a>
</g>
</g>
<!-- Node7&#45;&gt;Node18 -->
<g id="edge25" class="edge">
<title>Node7&#45;&gt;Node18</title>
<path fill="none" stroke="midnightblue" d="M1074.11,-490.93C1058.66,-516.2 1027.01,-560.53 986,-578.5 911.98,-610.93 814.85,-599.49 760.81,-589"/>
<polygon fill="midnightblue" stroke="midnightblue" points="1077.15,-492.66 1079.22,-482.27 1071.12,-489.1 1077.15,-492.66"/>
</g>
<!-- Node19 -->
<g id="node19" class="node">
<title>Node19</title>
<g id="a_node19"><a xlink:href="class_t_interface.html#ad7aaed58c91a9ad9598e17fa615024da" target="_top" xlink:title=" ">
<polygon fill="white" stroke="black" points="848.5,-49.5 848.5,-79.5 979.5,-79.5 979.5,-49.5 848.5,-49.5"/>
<text text-anchor="start" x="856.5" y="-67.5" font-family="Helvetica,sans-Serif" font-size="10.00">TInterface::PassRedSignal</text>
<text text-anchor="middle" x="914" y="-56.5" font-family="Helvetica,sans-Serif" font-size="10.00">MenuItemClick</text>
</a>
</g>
</g>
<!-- Node7&#45;&gt;Node19 -->
<g id="edge28" class="edge">
<title>Node7&#45;&gt;Node19</title>
<path fill="none" stroke="midnightblue" d="M1081.93,-452.68C1072.38,-381.96 1036.88,-143.34 986,-88.5 982.81,-85.07 979.12,-82.12 975.12,-79.6"/>
<polygon fill="midnightblue" stroke="midnightblue" points="1078.49,-453.42 1083.28,-462.87 1085.43,-452.5 1078.49,-453.42"/>
</g>
<!-- Node20 -->
<g id="node20" class="node">
<title>Node20</title>
<g id="a_node20"><a xlink:href="class_t_interface.html#a921ff57bd9af8acdd79a7c99d4839218" target="_top" xlink:title=" ">
<polygon fill="white" stroke="black" points="842,-0.5 842,-30.5 986,-30.5 986,-0.5 842,-0.5"/>
<text text-anchor="start" x="850" y="-18.5" font-family="Helvetica,sans-Serif" font-size="10.00">TInterface::RemoveTrainMenu</text>
<text text-anchor="middle" x="914" y="-7.5" font-family="Helvetica,sans-Serif" font-size="10.00">ItemClick</text>
</a>
</g>
</g>
<!-- Node7&#45;&gt;Node20 -->
<g id="edge30" class="edge">
<title>Node7&#45;&gt;Node20</title>
<path fill="none" stroke="midnightblue" d="M1082.55,-452.66C1074.64,-376.29 1042.75,-102.37 986,-39.5 982.86,-36.02 979.2,-33.05 975.23,-30.51"/>
<polygon fill="midnightblue" stroke="midnightblue" points="1079.08,-453.21 1083.57,-462.81 1086.05,-452.51 1079.08,-453.21"/>
</g>
<!-- Node21 -->
<g id="node21" class="node">
<title>Node21</title>
<g id="a_node21"><a xlink:href="class_t_interface.html#ad3ddf42d51934815002002a770df766a" target="_top" xlink:title=" ">
<polygon fill="white" stroke="black" points="854.5,-862.5 854.5,-892.5 973.5,-892.5 973.5,-862.5 854.5,-862.5"/>
<text text-anchor="start" x="862.5" y="-880.5" font-family="Helvetica,sans-Serif" font-size="10.00">TInterface::RepairFailed</text>
<text text-anchor="middle" x="914" y="-869.5" font-family="Helvetica,sans-Serif" font-size="10.00">TrainMenuItemClick</text>
</a>
</g>
</g>
<!-- Node7&#45;&gt;Node21 -->
<g id="edge31" class="edge">
<title>Node7&#45;&gt;Node21</title>
<path fill="none" stroke="midnightblue" d="M1081.87,-492.09C1072.15,-562.01 1036.11,-797.94 986,-852.5 982.46,-856.35 978.3,-859.61 973.79,-862.36"/>
<polygon fill="midnightblue" stroke="midnightblue" points="1085.36,-492.4 1083.25,-482.02 1078.43,-491.45 1085.36,-492.4"/>
</g>
<!-- Node22 -->
<g id="node22" class="node">
<title>Node22</title>
<g id="a_node22"><a xlink:href="class_t_train.html#a8262f447ec811db7e524c7bb885226c5" target="_top" xlink:title="Carry out the actions needed to create either a new shuttle service or (if all repeats have finished)...">
<polygon fill="white" stroke="black" points="649,-501.5 649,-531.5 789,-531.5 789,-501.5 649,-501.5"/>
<text text-anchor="start" x="657" y="-519.5" font-family="Helvetica,sans-Serif" font-size="10.00">TTrain::RepeatShuttleOrNew</text>
<text text-anchor="middle" x="719" y="-508.5" font-family="Helvetica,sans-Serif" font-size="10.00">NonRepeatService</text>
</a>
</g>
</g>
<!-- Node7&#45;&gt;Node22 -->
<g id="edge32" class="edge">
<title>Node7&#45;&gt;Node22</title>
<path fill="none" stroke="midnightblue" d="M1029.36,-480.62C1015.23,-482.63 1000.06,-484.71 986,-486.5 919.27,-495 842.96,-503.48 789.24,-509.25"/>
<polygon fill="midnightblue" stroke="midnightblue" points="1030.02,-484.06 1039.42,-479.19 1029.03,-477.14 1030.02,-484.06"/>
</g>
<!-- Node23 -->
<g id="node23" class="node">
<title>Node23</title>
<g id="a_node23"><a xlink:href="class_t_train.html#ac6f5cda912103fda4da31bdca611e4b5" target="_top" xlink:title="Carry out the actions needed to create either a new shuttle service or (if all repeats have finished)...">
<polygon fill="white" stroke="black" points="632,-463 632,-482 806,-482 806,-463 632,-463"/>
<text text-anchor="middle" x="719" y="-470" font-family="Helvetica,sans-Serif" font-size="10.00">TTrain::RepeatShuttleOrRemainHere</text>
</a>
</g>
</g>
<!-- Node7&#45;&gt;Node23 -->
<g id="edge34" class="edge">
<title>Node7&#45;&gt;Node23</title>
<path fill="none" stroke="midnightblue" d="M1029.17,-472.5C969.98,-472.5 875.3,-472.5 806.3,-472.5"/>
<polygon fill="midnightblue" stroke="midnightblue" points="1029.44,-476 1039.44,-472.5 1029.44,-469 1029.44,-476"/>
</g>
<!-- Node24 -->
<g id="node24" class="node">
<title>Node24</title>
<g id="a_node24"><a xlink:href="class_t_interface.html#a2313bac2c5c5ac3f8b91c46166e35b97" target="_top" xlink:title=" ">
<polygon fill="white" stroke="black" points="847.5,-813.5 847.5,-843.5 980.5,-843.5 980.5,-813.5 847.5,-813.5"/>
<text text-anchor="start" x="855.5" y="-831.5" font-family="Helvetica,sans-Serif" font-size="10.00">TInterface::SignallerControl</text>
<text text-anchor="middle" x="914" y="-820.5" font-family="Helvetica,sans-Serif" font-size="10.00">StopMenuItemClick</text>
</a>
</g>
</g>
<!-- Node7&#45;&gt;Node24 -->
<g id="edge36" class="edge">
<title>Node7&#45;&gt;Node24</title>
<path fill="none" stroke="midnightblue" d="M1084.1,-492.41C1081.94,-547.99 1068.47,-706.75 986,-798.5 980.54,-804.57 973.66,-809.45 966.33,-813.37"/>
<polygon fill="midnightblue" stroke="midnightblue" points="1087.61,-492.28 1084.41,-482.18 1080.61,-492.07 1087.61,-492.28"/>
</g>
<!-- Node25 -->
<g id="node25" class="node">
<title>Node25</title>
<g id="a_node25"><a xlink:href="class_t_interface.html#ad493289c9c9aa2e4d4e39329e80cc47c" target="_top" xlink:title=" ">
<polygon fill="white" stroke="black" points="849,-725.5 849,-755.5 979,-755.5 979,-725.5 849,-725.5"/>
<text text-anchor="start" x="857" y="-743.5" font-family="Helvetica,sans-Serif" font-size="10.00">TInterface::SignallerJoined</text>
<text text-anchor="middle" x="914" y="-732.5" font-family="Helvetica,sans-Serif" font-size="10.00">ByMenuItemClick</text>
</a>
</g>
</g>
<!-- Node7&#45;&gt;Node25 -->
<g id="edge37" class="edge">
<title>Node7&#45;&gt;Node25</title>
<path fill="none" stroke="midnightblue" d="M1081.98,-492.6C1075.16,-538.59 1052.18,-652.33 986,-715.5 981.94,-719.38 977.23,-722.66 972.22,-725.44"/>
<polygon fill="midnightblue" stroke="midnightblue" points="1085.48,-492.83 1083.38,-482.44 1078.54,-491.87 1085.48,-492.83"/>
</g>
<!-- Node26 -->
<g id="node26" class="node">
<title>Node26</title>
<g id="a_node26"><a xlink:href="class_t_interface.html#a0cc484aa9bc0445312ef9191d8212f14" target="_top" xlink:title=" ">
<polygon fill="white" stroke="black" points="842.5,-676.5 842.5,-706.5 985.5,-706.5 985.5,-676.5 842.5,-676.5"/>
<text text-anchor="start" x="850.5" y="-694.5" font-family="Helvetica,sans-Serif" font-size="10.00">TInterface::StepForwardMenu</text>
<text text-anchor="middle" x="914" y="-683.5" font-family="Helvetica,sans-Serif" font-size="10.00">ItemClick</text>
</a>
</g>
</g>
<!-- Node7&#45;&gt;Node26 -->
<g id="edge38" class="edge">
<title>Node7&#45;&gt;Node26</title>
<path fill="none" stroke="midnightblue" d="M1079.79,-492.16C1069.48,-531 1041.32,-618 986,-666.5 981.58,-670.38 976.52,-673.66 971.18,-676.45"/>
<polygon fill="midnightblue" stroke="midnightblue" points="1083.26,-492.7 1082.32,-482.15 1076.47,-490.98 1083.26,-492.7"/>
</g>
<!-- Node27 -->
<g id="node27" class="node">
<title>Node27</title>
<g id="a_node27"><a xlink:href="class_t_interface.html#ab5b80c76a8cc8d2c87f21d323f61c1ce" target="_top" xlink:title=" ">
<polygon fill="white" stroke="black" points="852.5,-627.5 852.5,-657.5 975.5,-657.5 975.5,-627.5 852.5,-627.5"/>
<text text-anchor="start" x="860.5" y="-645.5" font-family="Helvetica,sans-Serif" font-size="10.00">TInterface::TakeSignaller</text>
<text text-anchor="middle" x="914" y="-634.5" font-family="Helvetica,sans-Serif" font-size="10.00">ControlMenuItemClick</text>
</a>
</g>
</g>
<!-- Node7&#45;&gt;Node27 -->
<g id="edge39" class="edge">
<title>Node7&#45;&gt;Node27</title>
<path fill="none" stroke="midnightblue" d="M1075.67,-491.22C1060.92,-520.69 1028.63,-578.12 986,-612.5 978.6,-618.46 969.85,-623.43 961.06,-627.49"/>
<polygon fill="midnightblue" stroke="midnightblue" points="1078.91,-492.56 1080.15,-482.04 1072.62,-489.49 1078.91,-492.56"/>
</g>
<!-- Node28 -->
<g id="node28" class="node">
<title>Node28</title>
<g id="a_node28"><a xlink:href="class_t_interface.html#aec12f0e481024f1268fad36e7188b7a4" target="_top" xlink:title=" ">
<polygon fill="white" stroke="black" points="845.5,-539.5 845.5,-569.5 982.5,-569.5 982.5,-539.5 845.5,-539.5"/>
<text text-anchor="start" x="853.5" y="-557.5" font-family="Helvetica,sans-Serif" font-size="10.00">TInterface::TimetableControl</text>
<text text-anchor="middle" x="914" y="-546.5" font-family="Helvetica,sans-Serif" font-size="10.00">MenuItemClick</text>
</a>
</g>
</g>
<!-- Node7&#45;&gt;Node28 -->
<g id="edge40" class="edge">
<title>Node7&#45;&gt;Node28</title>
<path fill="none" stroke="midnightblue" d="M1058.33,-487.1C1038.66,-497.89 1010.93,-512.68 986,-524.5 975.24,-529.6 963.38,-534.78 952.48,-539.37"/>
<polygon fill="midnightblue" stroke="midnightblue" points="1060.22,-490.06 1067.29,-482.16 1056.84,-483.93 1060.22,-490.06"/>
</g>
<!-- Node29 -->
<g id="node29" class="node">
<title>Node29</title>
<g id="a_node29"><a xlink:href="class_t_train.html#a84204e3d8492e73d1eebf0707c49f620" target="_top" xlink:title="Called when there is a random train failure.">
<polygon fill="white" stroke="black" points="662.5,-425 662.5,-444 775.5,-444 775.5,-425 662.5,-425"/>
<text text-anchor="middle" x="719" y="-432" font-family="Helvetica,sans-Serif" font-size="10.00">TTrain::TrainHasFailed</text>
</a>
</g>
</g>
<!-- Node7&#45;&gt;Node29 -->
<g id="edge41" class="edge">
<title>Node7&#45;&gt;Node29</title>
<path fill="none" stroke="midnightblue" d="M1029.27,-466.74C960.71,-459.59 844.45,-447.47 775.68,-440.3"/>
<polygon fill="midnightblue" stroke="midnightblue" points="1029.13,-470.25 1039.44,-467.8 1029.86,-463.28 1029.13,-470.25"/>
</g>
<!-- Node8&#45;&gt;Node9 -->
<g id="edge9" class="edge">
<title>Node8&#45;&gt;Node9</title>
<path fill="none" stroke="midnightblue" d="M889.42,-297.48C868.3,-310.3 836.1,-328.39 806,-339.5 795.81,-343.26 784.66,-346.39 773.87,-348.96"/>
<polygon fill="midnightblue" stroke="midnightblue" points="891.35,-300.41 898.02,-292.18 887.67,-294.45 891.35,-300.41"/>
</g>
<!-- Node8&#45;&gt;Node11 -->
<g id="edge13" class="edge">
<title>Node8&#45;&gt;Node11</title>
<path fill="none" stroke="midnightblue" d="M839.46,-274.01C780.75,-270.33 697.73,-272.22 632,-301.5 464.86,-375.95 409.1,-634.08 399.2,-687.7"/>
<polygon fill="midnightblue" stroke="midnightblue" points="839.54,-277.52 849.76,-274.72 840.03,-270.54 839.54,-277.52"/>
</g>
<!-- Node8&#45;&gt;Node12 -->
<g id="edge14" class="edge">
<title>Node8&#45;&gt;Node12</title>
<path fill="none" stroke="midnightblue" d="M854.4,-294.04C826.87,-299.46 794.45,-305.84 768.35,-310.98"/>
<polygon fill="midnightblue" stroke="midnightblue" points="855.16,-297.45 864.3,-292.09 853.81,-290.59 855.16,-297.45"/>
</g>
<!-- Node9&#45;&gt;Node10 -->
<g id="edge10" class="edge">
<title>Node9&#45;&gt;Node10</title>
<path fill="none" stroke="midnightblue" d="M660.49,-370.91C650.71,-374.03 640.86,-377.86 632,-382.5 600.55,-398.98 570.14,-428.45 555.52,-443.72"/>
<polygon fill="midnightblue" stroke="midnightblue" points="661.63,-374.22 670.22,-368.01 659.63,-367.51 661.63,-374.22"/>
</g>
<!-- Node10&#45;&gt;Node11 -->
<g id="edge11" class="edge">
<title>Node10&#45;&gt;Node11</title>
<path fill="none" stroke="midnightblue" d="M533.43,-471.88C504.17,-520.44 425.54,-650.96 403.38,-687.74"/>
<polygon fill="midnightblue" stroke="midnightblue" points="536.57,-473.44 538.74,-463.07 530.58,-469.82 536.57,-473.44"/>
</g>
<!-- Node11&#45;&gt;Node4 -->
<g id="edge12" class="edge">
<title>Node11&#45;&gt;Node4</title>
<path fill="none" stroke="midnightblue" d="M377.74,-714.58C344.86,-746.19 275.51,-812.88 249.57,-837.82"/>
<polygon fill="midnightblue" stroke="midnightblue" points="380.48,-716.8 385.26,-707.34 375.63,-711.75 380.48,-716.8"/>
</g>
<!-- Node12&#45;&gt;Node10 -->
<g id="edge15" class="edge">
<title>Node12&#45;&gt;Node10</title>
<path fill="none" stroke="midnightblue" d="M654.21,-329.17C646.38,-331.77 638.76,-335.14 632,-339.5 590.2,-366.43 561.33,-421.35 550.86,-443.7"/>
<polygon fill="midnightblue" stroke="midnightblue" points="655.21,-332.53 663.83,-326.36 653.25,-325.81 655.21,-332.53"/>
</g>
<!-- Node14&#45;&gt;Node10 -->
<g id="edge18" class="edge">
<title>Node14&#45;&gt;Node10</title>
<path fill="none" stroke="midnightblue" d="M689.38,-258.9C671.33,-269.01 648.41,-283.85 632,-301.5 589.33,-347.4 559.76,-418.45 550.01,-443.97"/>
<polygon fill="midnightblue" stroke="midnightblue" points="691.19,-261.89 698.31,-254.05 687.85,-255.74 691.19,-261.89"/>
</g>
<!-- Node15&#45;&gt;Node10 -->
<g id="edge21" class="edge">
<title>Node15&#45;&gt;Node10</title>
<path fill="none" stroke="midnightblue" d="M664.56,-209.84C652.78,-212.75 641.11,-217.59 632,-225.5 562.39,-285.9 549.33,-408.77 546.99,-443.91"/>
<polygon fill="midnightblue" stroke="midnightblue" points="665.33,-213.26 674.42,-207.83 663.93,-206.4 665.33,-213.26"/>
</g>
<!-- Node17&#45;&gt;Node10 -->
<g id="edge24" class="edge">
<title>Node17&#45;&gt;Node10</title>
<path fill="none" stroke="midnightblue" d="M697.7,-681.54C679.58,-660.58 652.77,-628.4 632,-598.5 598.15,-549.78 564.22,-487.15 551.62,-463.31"/>
<polygon fill="midnightblue" stroke="midnightblue" points="695.22,-684.02 704.42,-689.26 700.5,-679.42 695.22,-684.02"/>
</g>
<!-- Node18&#45;&gt;Node10 -->
<g id="edge26" class="edge">
<title>Node18&#45;&gt;Node10</title>
<path fill="none" stroke="midnightblue" d="M680.83,-566.16C665.06,-559.64 646.91,-550.92 632,-540.5 599.02,-517.45 567.9,-480.69 554.04,-463.27"/>
<polygon fill="midnightblue" stroke="midnightblue" points="679.71,-569.49 690.29,-569.94 682.3,-562.98 679.71,-569.49"/>
</g>
<!-- Node22&#45;&gt;Node10 -->
<g id="edge33" class="edge">
<title>Node22&#45;&gt;Node10</title>
<path fill="none" stroke="midnightblue" d="M652.13,-498.35C645.29,-496.17 638.48,-493.87 632,-491.5 608.81,-483.02 583.02,-471.21 565.89,-463.02"/>
<polygon fill="midnightblue" stroke="midnightblue" points="651.54,-501.83 662.13,-501.45 653.62,-495.14 651.54,-501.83"/>
</g>
<!-- Node23&#45;&gt;Node10 -->
<g id="edge35" class="edge">
<title>Node23&#45;&gt;Node10</title>
<path fill="none" stroke="midnightblue" d="M622.01,-461.87C613.2,-460.89 604.54,-459.93 596.4,-459.03"/>
<polygon fill="midnightblue" stroke="midnightblue" points="621.67,-465.35 632,-462.97 622.45,-458.39 621.67,-465.35"/>
</g>
<!-- Node29&#45;&gt;Node10 -->
<g id="edge42" class="edge">
<title>Node29&#45;&gt;Node10</title>
<path fill="none" stroke="midnightblue" d="M652.14,-441.8C633.53,-443.86 613.6,-446.07 596.12,-448"/>
<polygon fill="midnightblue" stroke="midnightblue" points="652.77,-445.25 662.32,-440.67 651.99,-438.29 652.77,-445.25"/>
</g>
</g>
</svg>
        <g id="navigator" transform="translate(0 0)" fill="#404254">
                <rect fill="#f2f5e9" fill-opacity="0.5" stroke="#606060" stroke-width=".5" x="0" y="0" width="60" height="60"/>
                <use id="zoomplus" xlink:href="#zoomPlus" x="17" y="9" onmousedown="handleZoom(evt,'in')"/>
                <use id="zoomminus" xlink:href="#zoomMin" x="42" y="9" onmousedown="handleZoom(evt,'out')"/>
                <use id="reset" xlink:href="#resetDef" x="30" y="36" onmousedown="handleReset()"/>
                <g id="arrowUp" xlink:href="#dirArrow" transform="translate(30 24)" onmousedown="handlePan(0,-1)">
                  <use xlink:href="#rim" fill="#404040">
                        <set attributeName="fill" to="#808080" begin="arrowUp.mouseover" end="arrowUp.mouseout"/>
                  </use>
                  <path fill="none" stroke="white" stroke-width="1.5" d="M0,-3.0v7 M-2.5,-0.5L0,-3.0L2.5,-0.5"/>
                </g>
                <g id="arrowRight" xlink:href="#dirArrow" transform="rotate(90) translate(36 -43)" onmousedown="handlePan(1,0)">
                  <use xlink:href="#rim" fill="#404040">
                        <set attributeName="fill" to="#808080" begin="arrowRight.mouseover" end="arrowRight.mouseout"/>
                  </use>
                  <path fill="none" stroke="white" stroke-width="1.5" d="M0,-3.0v7 M-2.5,-0.5L0,-3.0L2.5,-0.5"/>
                </g>
                <g id="arrowDown" xlink:href="#dirArrow" transform="rotate(180) translate(-30 -48)" onmousedown="handlePan(0,1)">
                  <use xlink:href="#rim" fill="#404040">
                        <set attributeName="fill" to="#808080" begin="arrowDown.mouseover" end="arrowDown.mouseout"/>
                  </use>
                  <path fill="none" stroke="white" stroke-width="1.5" d="M0,-3.0v7 M-2.5,-0.5L0,-3.0L2.5,-0.5"/>
                </g>
                <g id="arrowLeft" xlink:href="#dirArrow" transform="rotate(270) translate(-36 17)" onmousedown="handlePan(-1,0)">
                  <use xlink:href="#rim" fill="#404040">
                        <set attributeName="fill" to="#808080" begin="arrowLeft.mouseover" end="arrowLeft.mouseout"/>
                  </use>
                  <path fill="none" stroke="white" stroke-width="1.5" d="M0,-3.0v7 M-2.5,-0.5L0,-3.0L2.5,-0.5"/>
                </g>
        </g>
        <svg viewBox="0 0 15 15" width="100%" height="30px" preserveAspectRatio="xMaxYMin meet">
         <g id="arrow_out" transform="scale(0.3 0.3)">
          <a xlink:href="class_t_train_ad249f34f6862e604b8e141d1b25fe57d_icgraph_org.svg" target="_base">
           <rect id="button" ry="5" rx="5" y="6" x="6" height="38" width="38"
                fill="#f2f5e9" fill-opacity="0.5" stroke="#606060" stroke-width="1.0"/>
           <path id="arrow"
             d="M 11.500037,31.436501 C 11.940474,20.09759 22.043105,11.32322 32.158766,21.979434 L 37.068811,17.246167 C 37.068811,17.246167 37.088388,32 37.088388,32 L 22.160133,31.978069 C 22.160133,31.978069 26.997745,27.140456 26.997745,27.140456 C 18.528582,18.264221 13.291696,25.230495 11.500037,31.436501 z"
             style="fill:#404040;"/>
          </a>
         </g>
        </svg>
</svg>
