<?xml version="1.0" encoding="UTF-8" standalone="no"?>
<!DOCTYPE svg PUBLIC "-//W3C//DTD SVG 1.1//EN"
 "http://www.w3.org/Graphics/SVG/1.1/DTD/svg11.dtd">
<!-- Generated by graphviz version 2.44.1 (20200629.0800)
 -->
<!-- Title: TAllRoutes::SetTrailingSignalsOnContinuationRoute Pages: 1 -->
<svg width="470pt" height="133pt"
 viewBox="0.00 0.00 470.00 132.93" xmlns="http://www.w3.org/2000/svg" xmlns:xlink="http://www.w3.org/1999/xlink">
<g id="graph0" class="graph" transform="scale(1 1) rotate(0) translate(4 128.93)">
<title>TAllRoutes::SetTrailingSignalsOnContinuationRoute</title>
<polygon fill="white" stroke="transparent" points="-4,4 -4,-128.93 466,-128.93 466,4 -4,4"/>
<!-- Node1 -->
<g id="node1" class="node">
<title>Node1</title>
<g id="a_node1"><a xlink:title="This is called by the InterfaceUnit at intervals based on entries in the ContinuationAutoSigVector in...">
<polygon fill="#bfbfbf" stroke="black" points="0,-55 0,-85 148,-85 148,-55 0,-55"/>
<text text-anchor="start" x="8" y="-73" font-family="Helvetica,sans-Serif" font-size="10.00">TAllRoutes::SetTrailingSignals</text>
<text text-anchor="middle" x="74" y="-62" font-family="Helvetica,sans-Serif" font-size="10.00">OnContinuationRoute</text>
</a>
</g>
</g>
<!-- Node2 -->
<g id="node2" class="node">
<title>Node2</title>
<g id="a_node2"><a xlink:href="class_t_utilities.html#ae1eddca13cc3c492839e131f40ec21c0" target="_top" xlink:title="pops the last entry off the call stack, throws an error if called when empty">
<polygon fill="white" stroke="black" points="352,-102.5 352,-121.5 462,-121.5 462,-102.5 352,-102.5"/>
<text text-anchor="middle" x="407" y="-109.5" font-family="Helvetica,sans-Serif" font-size="10.00">TUtilities::CallLogPop</text>
</a>
</g>
</g>
<!-- Node1&#45;&gt;Node2 -->
<g id="edge1" class="edge">
<title>Node1&#45;&gt;Node2</title>
<path fill="none" stroke="midnightblue" d="M101.76,-85.21C123.22,-96.49 154.53,-110.92 184,-117 236.19,-127.77 296.75,-125.45 341.42,-121.04"/>
<polygon fill="midnightblue" stroke="midnightblue" points="341.97,-124.5 351.55,-119.98 341.24,-117.54 341.97,-124.5"/>
</g>
<!-- Node3 -->
<g id="node3" class="node">
<title>Node3</title>
<g id="a_node3"><a xlink:href="class_t_one_pref_dir.html#a5b67e5aaa86d324229aedc68f32f32b8" target="_top" xlink:title="Return a non&#45;modifiable element at PrefDirVector position &#39;At&#39;.">
<polygon fill="white" stroke="black" points="184,-77 184,-107 316,-107 316,-77 184,-77"/>
<text text-anchor="start" x="192" y="-95" font-family="Helvetica,sans-Serif" font-size="10.00">TOnePrefDir::GetFixedPref</text>
<text text-anchor="middle" x="250" y="-84" font-family="Helvetica,sans-Serif" font-size="10.00">DirElementAt</text>
</a>
</g>
</g>
<!-- Node1&#45;&gt;Node3 -->
<g id="edge2" class="edge">
<title>Node1&#45;&gt;Node3</title>
<path fill="none" stroke="midnightblue" d="M148.04,-79.23C156.59,-80.32 165.33,-81.42 173.92,-82.51"/>
<polygon fill="midnightblue" stroke="midnightblue" points="173.54,-85.99 183.9,-83.77 174.42,-79.04 173.54,-85.99"/>
</g>
<!-- Node4 -->
<g id="node4" class="node">
<title>Node4</title>
<g id="a_node4"><a xlink:href="class_t_utilities.html#a34bd6bb5305bc29afdf424f6d35a921c" target="_top" xlink:title="creates a string of the form &#39;hh:mm:ss&#39; for use in call &amp; event logging">
<polygon fill="white" stroke="black" points="352,-61.5 352,-80.5 462,-80.5 462,-61.5 352,-61.5"/>
<text text-anchor="middle" x="407" y="-68.5" font-family="Helvetica,sans-Serif" font-size="10.00">TUtilities::TimeStamp</text>
</a>
</g>
</g>
<!-- Node1&#45;&gt;Node4 -->
<g id="edge6" class="edge">
<title>Node1&#45;&gt;Node4</title>
<path fill="none" stroke="midnightblue" d="M148.28,-67.71C160.22,-67.41 172.45,-67.16 184,-67 242.66,-66.19 257.35,-65.7 316,-67 324.32,-67.18 333.06,-67.47 341.7,-67.79"/>
<polygon fill="midnightblue" stroke="midnightblue" points="341.63,-71.29 351.76,-68.2 341.91,-64.3 341.63,-71.29"/>
</g>
<!-- Node5 -->
<g id="node5" class="node">
<title>Node5</title>
<g id="a_node5"><a xlink:href="class_t_one_pref_dir.html#a29d013bf730e23d27fdb2c390e3a14da" target="_top" xlink:title="Return the vector size.">
<polygon fill="white" stroke="black" points="188,-0.5 188,-19.5 312,-19.5 312,-0.5 188,-0.5"/>
<text text-anchor="middle" x="250" y="-7.5" font-family="Helvetica,sans-Serif" font-size="10.00">TOnePrefDir::PrefDirSize</text>
</a>
</g>
</g>
<!-- Node1&#45;&gt;Node5 -->
<g id="edge5" class="edge">
<title>Node1&#45;&gt;Node5</title>
<path fill="none" stroke="midnightblue" d="M118.91,-54.86C147.6,-44.97 184.66,-32.19 211.88,-22.8"/>
<polygon fill="midnightblue" stroke="midnightblue" points="213.12,-26.08 221.43,-19.51 210.83,-19.46 213.12,-26.08"/>
</g>
<!-- Node3&#45;&gt;Node2 -->
<g id="edge3" class="edge">
<title>Node3&#45;&gt;Node2</title>
<path fill="none" stroke="midnightblue" d="M316.28,-100.42C324.64,-101.5 333.18,-102.6 341.52,-103.68"/>
<polygon fill="midnightblue" stroke="midnightblue" points="341.2,-107.17 351.57,-104.98 342.1,-100.23 341.2,-107.17"/>
</g>
<!-- Node3&#45;&gt;Node4 -->
<g id="edge4" class="edge">
<title>Node3&#45;&gt;Node4</title>
<path fill="none" stroke="midnightblue" d="M316.28,-83.15C324.64,-82.02 333.18,-80.87 341.52,-79.74"/>
<polygon fill="midnightblue" stroke="midnightblue" points="342.13,-83.19 351.57,-78.37 341.19,-76.25 342.13,-83.19"/>
</g>
</g>
</svg>
