<?xml version="1.0" encoding="UTF-8" standalone="no"?>
<!DOCTYPE svg PUBLIC "-//W3C//DTD SVG 1.1//EN"
 "http://www.w3.org/Graphics/SVG/1.1/DTD/svg11.dtd">
<!-- Generated by graphviz version 2.44.1 (20200629.0800)
 -->
<!-- Title: TPrefDirElement::GetCheckCount Pages: 1 -->
<svg width="319pt" height="88pt"
 viewBox="0.00 0.00 319.00 88.00" xmlns="http://www.w3.org/2000/svg" xmlns:xlink="http://www.w3.org/1999/xlink">
<g id="graph0" class="graph" transform="scale(1 1) rotate(0) translate(4 84)">
<title>TPrefDirElement::GetCheckCount</title>
<polygon fill="white" stroke="transparent" points="-4,4 -4,-84 315,-84 315,4 -4,4"/>
<!-- Node1 -->
<g id="node1" class="node">
<title>Node1</title>
<g id="a_node1"><a xlink:title="Returns CheckCount.">
<polygon fill="#bfbfbf" stroke="black" points="174,-24.5 174,-54.5 311,-54.5 311,-24.5 174,-24.5"/>
<text text-anchor="start" x="182" y="-42.5" font-family="Helvetica,sans-Serif" font-size="10.00">TPrefDirElement::GetCheck</text>
<text text-anchor="middle" x="242.5" y="-31.5" font-family="Helvetica,sans-Serif" font-size="10.00">Count</text>
</a>
</g>
</g>
<!-- Node2 -->
<g id="node2" class="node">
<title>Node2</title>
<g id="a_node2"><a xlink:href="class_t_interface.html#a3cf2db0424e05908b20a97130895d056" target="_top" xlink:title=" ">
<polygon fill="white" stroke="black" points="0,-49.5 0,-79.5 138,-79.5 138,-49.5 0,-49.5"/>
<text text-anchor="start" x="8" y="-67.5" font-family="Helvetica,sans-Serif" font-size="10.00">TInterface::RotLeftMenuItem</text>
<text text-anchor="middle" x="69" y="-56.5" font-family="Helvetica,sans-Serif" font-size="10.00">Click</text>
</a>
</g>
</g>
<!-- Node1&#45;&gt;Node2 -->
<g id="edge1" class="edge">
<title>Node1&#45;&gt;Node2</title>
<path fill="none" stroke="midnightblue" d="M163.75,-50.83C155.21,-52.08 146.55,-53.34 138.13,-54.57"/>
<polygon fill="midnightblue" stroke="midnightblue" points="164.33,-54.29 173.72,-49.38 163.32,-47.36 164.33,-54.29"/>
</g>
<!-- Node3 -->
<g id="node3" class="node">
<title>Node3</title>
<g id="a_node3"><a xlink:href="class_t_interface.html#aa6e7359ece526e43589456e9a31851a0" target="_top" xlink:title=" ">
<polygon fill="white" stroke="black" points="6,-0.5 6,-30.5 132,-30.5 132,-0.5 6,-0.5"/>
<text text-anchor="start" x="14" y="-18.5" font-family="Helvetica,sans-Serif" font-size="10.00">TInterface::RotRightMenu</text>
<text text-anchor="middle" x="69" y="-7.5" font-family="Helvetica,sans-Serif" font-size="10.00">ItemClick</text>
</a>
</g>
</g>
<!-- Node1&#45;&gt;Node3 -->
<g id="edge2" class="edge">
<title>Node1&#45;&gt;Node3</title>
<path fill="none" stroke="midnightblue" d="M163.7,-28.61C153.17,-27.14 142.48,-25.64 132.27,-24.21"/>
<polygon fill="midnightblue" stroke="midnightblue" points="163.33,-32.09 173.72,-30.01 164.3,-25.16 163.33,-32.09"/>
</g>
</g>
</svg>
