<?xml version="1.0" encoding="UTF-8" standalone="no"?>
<!DOCTYPE svg PUBLIC "-//W3C//DTD SVG 1.1//EN"
 "http://www.w3.org/Graphics/SVG/1.1/DTD/svg11.dtd">
<!-- Generated by graphviz version 2.44.1 (20200629.0800)
 -->
<!-- Title: TPrefDirElement::GetDirectionPrefDirGraphicPtr Pages: 1 -->
<svg width="1062pt" height="410pt"
 viewBox="0.00 0.00 1062.00 410.00" xmlns="http://www.w3.org/2000/svg" xmlns:xlink="http://www.w3.org/1999/xlink">
<g id="graph0" class="graph" transform="scale(1 1) rotate(0) translate(4 406)">
<title>TPrefDirElement::GetDirectionPrefDirGraphicPtr</title>
<polygon fill="white" stroke="transparent" points="-4,4 -4,-406 1058,-406 1058,4 -4,4"/>
<!-- Node1 -->
<g id="node1" class="node">
<title>Node1</title>
<g id="a_node1"><a xlink:title="picks up the EntryDirectionGraphicPtr for preferred directions">
<polygon fill="#bfbfbf" stroke="black" points="907,-196.5 907,-226.5 1054,-226.5 1054,-196.5 907,-196.5"/>
<text text-anchor="start" x="915" y="-214.5" font-family="Helvetica,sans-Serif" font-size="10.00">TPrefDirElement::GetDirection</text>
<text text-anchor="middle" x="980.5" y="-203.5" font-family="Helvetica,sans-Serif" font-size="10.00">PrefDirGraphicPtr</text>
</a>
</g>
</g>
<!-- Node2 -->
<g id="node2" class="node">
<title>Node2</title>
<g id="a_node2"><a xlink:href="class_t_one_pref_dir.html#a482d1c69a674eec4db0190b78659c495" target="_top" xlink:title="Called after a successful search to add the elements from the search vector to the pref dir vector.">
<polygon fill="white" stroke="black" points="738.5,-371.5 738.5,-401.5 863.5,-401.5 863.5,-371.5 738.5,-371.5"/>
<text text-anchor="start" x="746.5" y="-389.5" font-family="Helvetica,sans-Serif" font-size="10.00">TOnePrefDir::ConvertPref</text>
<text text-anchor="middle" x="801" y="-378.5" font-family="Helvetica,sans-Serif" font-size="10.00">DirSearchVector</text>
</a>
</g>
</g>
<!-- Node1&#45;&gt;Node2 -->
<g id="edge1" class="edge">
<title>Node1&#45;&gt;Node2</title>
<path fill="none" stroke="midnightblue" d="M968.1,-235.73C951.31,-268.9 916.91,-328.23 871,-362.5 866.43,-365.91 861.33,-368.87 856.03,-371.42"/>
<polygon fill="midnightblue" stroke="midnightblue" points="971.26,-237.24 972.55,-226.72 964.98,-234.14 971.26,-237.24"/>
</g>
<!-- Node6 -->
<g id="node6" class="node">
<title>Node6</title>
<g id="a_node6"><a xlink:href="class_t_interface.html#add5fbdbceae6285c2cc440905b270491" target="_top" xlink:title=" ">
<polygon fill="white" stroke="black" points="739.5,-322.5 739.5,-352.5 862.5,-352.5 862.5,-322.5 739.5,-322.5"/>
<text text-anchor="start" x="747.5" y="-340.5" font-family="Helvetica,sans-Serif" font-size="10.00">TInterface::FlipMenuItem</text>
<text text-anchor="middle" x="801" y="-329.5" font-family="Helvetica,sans-Serif" font-size="10.00">Click</text>
</a>
</g>
</g>
<!-- Node1&#45;&gt;Node6 -->
<g id="edge5" class="edge">
<title>Node1&#45;&gt;Node6</title>
<path fill="none" stroke="midnightblue" d="M960.11,-234.27C939.86,-256.81 906.2,-290.98 871,-312.5 864.91,-316.22 858.19,-319.51 851.39,-322.38"/>
<polygon fill="midnightblue" stroke="midnightblue" points="962.94,-236.34 966.94,-226.53 957.7,-231.71 962.94,-236.34"/>
</g>
<!-- Node7 -->
<g id="node7" class="node">
<title>Node7</title>
<g id="a_node7"><a xlink:href="class_t_one_pref_dir.html#a614933ff3958e4b8c9be9bc78159d9e8" target="_top" xlink:title="Old version of LoadPrefDir, used during development when the save format changed so the old files cou...">
<polygon fill="white" stroke="black" points="731,-284 731,-303 871,-303 871,-284 731,-284"/>
<text text-anchor="middle" x="801" y="-291" font-family="Helvetica,sans-Serif" font-size="10.00">TOnePrefDir::LoadOldPrefDir</text>
</a>
</g>
</g>
<!-- Node1&#45;&gt;Node7 -->
<g id="edge6" class="edge">
<title>Node1&#45;&gt;Node7</title>
<path fill="none" stroke="midnightblue" d="M948.97,-232.09C927.81,-245.63 898.59,-262.92 871,-274.5 862.29,-278.15 852.67,-281.31 843.45,-283.95"/>
<polygon fill="midnightblue" stroke="midnightblue" points="951.04,-234.92 957.52,-226.54 947.22,-229.05 951.04,-234.92"/>
</g>
<!-- Node8 -->
<g id="node8" class="node">
<title>Node8</title>
<g id="a_node8"><a xlink:href="class_t_one_pref_dir.html#a0779c9edd1ba268356590aac4719166d" target="_top" xlink:title="Load a vector and map of preferred directions from the file.">
<polygon fill="white" stroke="black" points="738.5,-246 738.5,-265 863.5,-265 863.5,-246 738.5,-246"/>
<text text-anchor="middle" x="801" y="-253" font-family="Helvetica,sans-Serif" font-size="10.00">TOnePrefDir::LoadPrefDir</text>
</a>
</g>
</g>
<!-- Node1&#45;&gt;Node8 -->
<g id="edge7" class="edge">
<title>Node1&#45;&gt;Node8</title>
<path fill="none" stroke="midnightblue" d="M909.01,-228.97C885.6,-234.78 860.42,-241.02 840.37,-245.99"/>
<polygon fill="midnightblue" stroke="midnightblue" points="910.05,-232.32 918.91,-226.52 908.36,-225.53 910.05,-232.32"/>
</g>
<!-- Node15 -->
<g id="node15" class="node">
<title>Node15</title>
<g id="a_node15"><a xlink:href="class_t_interface.html#a4ee6afffbc33eab918cba315ab65ee6e" target="_top" xlink:title=" ">
<polygon fill="white" stroke="black" points="735,-196.5 735,-226.5 867,-226.5 867,-196.5 735,-196.5"/>
<text text-anchor="start" x="743" y="-214.5" font-family="Helvetica,sans-Serif" font-size="10.00">TInterface::MirrorMenuItem</text>
<text text-anchor="middle" x="801" y="-203.5" font-family="Helvetica,sans-Serif" font-size="10.00">Click</text>
</a>
</g>
</g>
<!-- Node1&#45;&gt;Node15 -->
<g id="edge15" class="edge">
<title>Node1&#45;&gt;Node15</title>
<path fill="none" stroke="midnightblue" d="M896.57,-211.5C886.71,-211.5 876.75,-211.5 867.19,-211.5"/>
<polygon fill="midnightblue" stroke="midnightblue" points="896.79,-215 906.79,-211.5 896.79,-208 896.79,-215"/>
</g>
<!-- Node16 -->
<g id="node16" class="node">
<title>Node16</title>
<g id="a_node16"><a xlink:href="class_t_interface.html#a02e91aba36e2b91354abd2884f658510" target="_top" xlink:title=" ">
<polygon fill="white" stroke="black" points="733,-147.5 733,-177.5 869,-177.5 869,-147.5 733,-147.5"/>
<text text-anchor="start" x="741" y="-165.5" font-family="Helvetica,sans-Serif" font-size="10.00">TInterface::RotateMenuItem</text>
<text text-anchor="middle" x="801" y="-154.5" font-family="Helvetica,sans-Serif" font-size="10.00">Click</text>
</a>
</g>
</g>
<!-- Node1&#45;&gt;Node16 -->
<g id="edge16" class="edge">
<title>Node1&#45;&gt;Node16</title>
<path fill="none" stroke="midnightblue" d="M914.94,-193.68C895.78,-188.39 874.98,-182.65 856.52,-177.55"/>
<polygon fill="midnightblue" stroke="midnightblue" points="914.22,-197.11 924.8,-196.4 916.09,-190.36 914.22,-197.11"/>
</g>
<!-- Node17 -->
<g id="node17" class="node">
<title>Node17</title>
<g id="a_node17"><a xlink:href="class_t_interface.html#a3cf2db0424e05908b20a97130895d056" target="_top" xlink:title=" ">
<polygon fill="white" stroke="black" points="732,-98.5 732,-128.5 870,-128.5 870,-98.5 732,-98.5"/>
<text text-anchor="start" x="740" y="-116.5" font-family="Helvetica,sans-Serif" font-size="10.00">TInterface::RotLeftMenuItem</text>
<text text-anchor="middle" x="801" y="-105.5" font-family="Helvetica,sans-Serif" font-size="10.00">Click</text>
</a>
</g>
</g>
<!-- Node1&#45;&gt;Node17 -->
<g id="edge17" class="edge">
<title>Node1&#45;&gt;Node17</title>
<path fill="none" stroke="midnightblue" d="M952.27,-189.93C931.05,-173.88 900.35,-152.29 871,-137.5 864.54,-134.25 857.54,-131.25 850.56,-128.56"/>
<polygon fill="midnightblue" stroke="midnightblue" points="950.41,-192.91 960.47,-196.22 954.66,-187.36 950.41,-192.91"/>
</g>
<!-- Node18 -->
<g id="node18" class="node">
<title>Node18</title>
<g id="a_node18"><a xlink:href="class_t_interface.html#aa6e7359ece526e43589456e9a31851a0" target="_top" xlink:title=" ">
<polygon fill="white" stroke="black" points="738,-49.5 738,-79.5 864,-79.5 864,-49.5 738,-49.5"/>
<text text-anchor="start" x="746" y="-67.5" font-family="Helvetica,sans-Serif" font-size="10.00">TInterface::RotRightMenu</text>
<text text-anchor="middle" x="801" y="-56.5" font-family="Helvetica,sans-Serif" font-size="10.00">ItemClick</text>
</a>
</g>
</g>
<!-- Node1&#45;&gt;Node18 -->
<g id="edge18" class="edge">
<title>Node1&#45;&gt;Node18</title>
<path fill="none" stroke="midnightblue" d="M964.23,-187.79C945.4,-160.29 910.93,-115.31 871,-88.5 865.95,-85.11 860.36,-82.14 854.62,-79.56"/>
<polygon fill="midnightblue" stroke="midnightblue" points="961.53,-190.04 970.01,-196.39 967.34,-186.14 961.53,-190.04"/>
</g>
<!-- Node19 -->
<g id="node19" class="node">
<title>Node19</title>
<g id="a_node19"><a xlink:href="class_t_pref_dir_element.html#a05688db45c02484229e4d226454ed8f3" target="_top" xlink:title="Constructs a PrefDirElement from supplied values.">
<polygon fill="white" stroke="black" points="737,-0.5 737,-30.5 865,-30.5 865,-0.5 737,-0.5"/>
<text text-anchor="start" x="745" y="-18.5" font-family="Helvetica,sans-Serif" font-size="10.00">TPrefDirElement::TPrefDir</text>
<text text-anchor="middle" x="801" y="-7.5" font-family="Helvetica,sans-Serif" font-size="10.00">Element</text>
</a>
</g>
</g>
<!-- Node1&#45;&gt;Node19 -->
<g id="edge19" class="edge">
<title>Node1&#45;&gt;Node19</title>
<path fill="none" stroke="midnightblue" d="M970.24,-186.93C955.06,-149.82 921.41,-79.55 871,-39.5 866.73,-36.11 861.95,-33.18 856.95,-30.65"/>
<polygon fill="midnightblue" stroke="midnightblue" points="967.09,-188.47 974.04,-196.47 973.59,-185.88 967.09,-188.47"/>
</g>
<!-- Node3 -->
<g id="node3" class="node">
<title>Node3</title>
<g id="a_node3"><a xlink:href="class_t_one_pref_dir.html#a06cd3491535362fccbba4e76b9a120e9" target="_top" xlink:title="Used when continuing a chain of preferred directions or element lengths. Tries to find a set of linke...">
<polygon fill="white" stroke="black" points="567,-371.5 567,-401.5 695,-401.5 695,-371.5 567,-371.5"/>
<text text-anchor="start" x="575" y="-389.5" font-family="Helvetica,sans-Serif" font-size="10.00">TOnePrefDir::GetNextPref</text>
<text text-anchor="middle" x="631" y="-378.5" font-family="Helvetica,sans-Serif" font-size="10.00">DirElement</text>
</a>
</g>
</g>
<!-- Node2&#45;&gt;Node3 -->
<g id="edge2" class="edge">
<title>Node2&#45;&gt;Node3</title>
<path fill="none" stroke="midnightblue" d="M728.33,-386.5C717.25,-386.5 705.87,-386.5 695,-386.5"/>
<polygon fill="midnightblue" stroke="midnightblue" points="728.4,-390 738.4,-386.5 728.4,-383 728.4,-390"/>
</g>
<!-- Node4 -->
<g id="node4" class="node">
<title>Node4</title>
<g id="a_node4"><a xlink:href="class_t_interface.html#abf07d5edc1507de381825f17620748b2" target="_top" xlink:title="Called when mouse button clicked in zoom&#45;in mode.">
<polygon fill="white" stroke="black" points="385,-371.5 385,-401.5 531,-401.5 531,-371.5 385,-371.5"/>
<text text-anchor="start" x="393" y="-389.5" font-family="Helvetica,sans-Serif" font-size="10.00">TInterface::MainScreenMouse</text>
<text text-anchor="middle" x="458" y="-378.5" font-family="Helvetica,sans-Serif" font-size="10.00">Down2</text>
</a>
</g>
</g>
<!-- Node3&#45;&gt;Node4 -->
<g id="edge3" class="edge">
<title>Node3&#45;&gt;Node4</title>
<path fill="none" stroke="midnightblue" d="M556.62,-386.5C548.18,-386.5 539.58,-386.5 531.16,-386.5"/>
<polygon fill="midnightblue" stroke="midnightblue" points="556.81,-390 566.81,-386.5 556.81,-383 556.81,-390"/>
</g>
<!-- Node5 -->
<g id="node5" class="node">
<title>Node5</title>
<g id="a_node5"><a xlink:href="class_t_interface.html#a7f37862fb9e01e1328d9fd3fd8c50094" target="_top" xlink:title=" ">
<polygon fill="white" stroke="black" points="179,-377 179,-396 349,-396 349,-377 179,-377"/>
<text text-anchor="middle" x="264" y="-384" font-family="Helvetica,sans-Serif" font-size="10.00">TInterface::MainScreenMouseDown</text>
</a>
</g>
</g>
<!-- Node4&#45;&gt;Node5 -->
<g id="edge4" class="edge">
<title>Node4&#45;&gt;Node5</title>
<path fill="none" stroke="midnightblue" d="M374.7,-386.5C366.22,-386.5 357.58,-386.5 349.08,-386.5"/>
<polygon fill="midnightblue" stroke="midnightblue" points="374.96,-390 384.96,-386.5 374.96,-383 374.96,-390"/>
</g>
<!-- Node9 -->
<g id="node9" class="node">
<title>Node9</title>
<g id="a_node9"><a xlink:href="class_t_interface.html#a95c3545a30171ca5a08e34c58160079c" target="_top" xlink:title="Load a railway file. The Active elements marker now has a &#39;1&#39; at the end if there are user graphics t...">
<polygon fill="white" stroke="black" points="571.5,-284 571.5,-303 690.5,-303 690.5,-284 571.5,-284"/>
<text text-anchor="middle" x="631" y="-291" font-family="Helvetica,sans-Serif" font-size="10.00">TInterface::LoadRailway</text>
</a>
</g>
</g>
<!-- Node8&#45;&gt;Node9 -->
<g id="edge8" class="edge">
<title>Node8&#45;&gt;Node9</title>
<path fill="none" stroke="midnightblue" d="M747.72,-267.32C724.04,-272.68 696.41,-278.93 674.09,-283.98"/>
<polygon fill="midnightblue" stroke="midnightblue" points="748.63,-270.71 757.61,-265.09 747.08,-263.88 748.63,-270.71"/>
</g>
<!-- Node11 -->
<g id="node11" class="node">
<title>Node11</title>
<g id="a_node11"><a xlink:href="class_t_all_routes.html#adadd08bb4cbbcaeba918f20c6c103a39" target="_top" xlink:title="Loads the routes from a session file.">
<polygon fill="white" stroke="black" points="570,-246 570,-265 692,-265 692,-246 570,-246"/>
<text text-anchor="middle" x="631" y="-253" font-family="Helvetica,sans-Serif" font-size="10.00">TAllRoutes::LoadRoutes</text>
</a>
</g>
</g>
<!-- Node8&#45;&gt;Node11 -->
<g id="edge10" class="edge">
<title>Node8&#45;&gt;Node11</title>
<path fill="none" stroke="midnightblue" d="M728.38,-255.5C716.32,-255.5 703.92,-255.5 692.19,-255.5"/>
<polygon fill="midnightblue" stroke="midnightblue" points="728.4,-259 738.4,-255.5 728.4,-252 728.4,-259"/>
</g>
<!-- Node12 -->
<g id="node12" class="node">
<title>Node12</title>
<g id="a_node12"><a xlink:href="class_t_interface.html#a636b1b4bd29f2678a3290ed2d282f1c2" target="_top" xlink:title="Load a session file.">
<polygon fill="white" stroke="black" points="397.5,-224 397.5,-243 518.5,-243 518.5,-224 397.5,-224"/>
<text text-anchor="middle" x="458" y="-231" font-family="Helvetica,sans-Serif" font-size="10.00">TInterface::LoadSession</text>
</a>
</g>
</g>
<!-- Node8&#45;&gt;Node12 -->
<g id="edge14" class="edge">
<title>Node8&#45;&gt;Node12</title>
<path fill="none" stroke="midnightblue" d="M746.56,-244.06C730.1,-241.01 711.87,-238.12 695,-236.5 635.25,-230.75 566.6,-230.6 518.8,-231.52"/>
<polygon fill="midnightblue" stroke="midnightblue" points="746.07,-247.53 756.55,-245.96 747.38,-240.65 746.07,-247.53"/>
</g>
<!-- Node10 -->
<g id="node10" class="node">
<title>Node10</title>
<g id="a_node10"><a xlink:href="class_t_interface.html#a96249c7622a9d55541de186483e04d2e" target="_top" xlink:title=" ">
<polygon fill="white" stroke="black" points="386.5,-278.5 386.5,-308.5 529.5,-308.5 529.5,-278.5 386.5,-278.5"/>
<text text-anchor="start" x="394.5" y="-296.5" font-family="Helvetica,sans-Serif" font-size="10.00">TInterface::LoadRailwayMenu</text>
<text text-anchor="middle" x="458" y="-285.5" font-family="Helvetica,sans-Serif" font-size="10.00">ItemClick</text>
</a>
</g>
</g>
<!-- Node9&#45;&gt;Node10 -->
<g id="edge9" class="edge">
<title>Node9&#45;&gt;Node10</title>
<path fill="none" stroke="midnightblue" d="M561,-293.5C550.71,-293.5 540.08,-293.5 529.76,-293.5"/>
<polygon fill="midnightblue" stroke="midnightblue" points="561.15,-297 571.15,-293.5 561.15,-290 561.15,-297"/>
</g>
<!-- Node11&#45;&gt;Node12 -->
<g id="edge11" class="edge">
<title>Node11&#45;&gt;Node12</title>
<path fill="none" stroke="midnightblue" d="M559.49,-246.43C545.95,-244.69 531.9,-242.88 518.74,-241.19"/>
<polygon fill="midnightblue" stroke="midnightblue" points="559.35,-249.94 569.71,-247.74 560.24,-243 559.35,-249.94"/>
</g>
<!-- Node13 -->
<g id="node13" class="node">
<title>Node13</title>
<g id="a_node13"><a xlink:href="class_t_interface.html#a6139ffb52492eb89e5487a8a3cd647b5" target="_top" xlink:title="The main loop, called every clock tick via MasterClockTimer.">
<polygon fill="white" stroke="black" points="204.5,-224 204.5,-243 323.5,-243 323.5,-224 204.5,-224"/>
<text text-anchor="middle" x="264" y="-231" font-family="Helvetica,sans-Serif" font-size="10.00">TInterface::ClockTimer2</text>
</a>
</g>
</g>
<!-- Node12&#45;&gt;Node13 -->
<g id="edge12" class="edge">
<title>Node12&#45;&gt;Node13</title>
<path fill="none" stroke="midnightblue" d="M387.23,-233.5C366.38,-233.5 343.74,-233.5 323.67,-233.5"/>
<polygon fill="midnightblue" stroke="midnightblue" points="387.3,-237 397.3,-233.5 387.3,-230 387.3,-237"/>
</g>
<!-- Node14 -->
<g id="node14" class="node">
<title>Node14</title>
<g id="a_node14"><a xlink:href="class_t_interface.html#ace30a12d923fc7fb489afabb0a09aa4f" target="_top" xlink:title=" ">
<polygon fill="white" stroke="black" points="0,-224 0,-243 143,-243 143,-224 0,-224"/>
<text text-anchor="middle" x="71.5" y="-231" font-family="Helvetica,sans-Serif" font-size="10.00">TInterface::MasterClockTimer</text>
</a>
</g>
</g>
<!-- Node13&#45;&gt;Node14 -->
<g id="edge13" class="edge">
<title>Node13&#45;&gt;Node14</title>
<path fill="none" stroke="midnightblue" d="M194.12,-233.5C177.52,-233.5 159.76,-233.5 143.08,-233.5"/>
<polygon fill="midnightblue" stroke="midnightblue" points="194.29,-237 204.29,-233.5 194.29,-230 194.29,-237"/>
</g>
</g>
</svg>
