<?xml version="1.0" encoding="UTF-8" standalone="no"?>
<!DOCTYPE svg PUBLIC "-//W3C//DTD SVG 1.1//EN"
 "http://www.w3.org/Graphics/SVG/1.1/DTD/svg11.dtd">
<!-- Generated by graphviz version 2.44.1 (20200629.0800)
 -->
<!-- Title: TInterface::FileIntegrityCheck Pages: 1 -->
<svg width="655pt" height="268pt"
 viewBox="0.00 0.00 655.00 267.50" xmlns="http://www.w3.org/2000/svg" xmlns:xlink="http://www.w3.org/1999/xlink">
<g id="graph0" class="graph" transform="scale(1 1) rotate(0) translate(4 263.5)">
<title>TInterface::FileIntegrityCheck</title>
<polygon fill="white" stroke="transparent" points="-4,4 -4,-263.5 651,-263.5 651,4 -4,4"/>
<!-- Node1 -->
<g id="node1" class="node">
<title>Node1</title>
<g id="a_node1"><a xlink:title="Check integrity of a railway file prior to loading, return true for success.">
<polygon fill="#bfbfbf" stroke="black" points="0,-115 0,-145 115,-145 115,-115 0,-115"/>
<text text-anchor="start" x="8" y="-133" font-family="Helvetica,sans-Serif" font-size="10.00">TInterface::FileIntegrity</text>
<text text-anchor="middle" x="57.5" y="-122" font-family="Helvetica,sans-Serif" font-size="10.00">Check</text>
</a>
</g>
</g>
<!-- Node2 -->
<g id="node2" class="node">
<title>Node2</title>
<g id="a_node2"><a xlink:href="class_t_utilities.html#ae1eddca13cc3c492839e131f40ec21c0" target="_top" xlink:title="&lt; specifies whether no delays or minor, moderate or major random delays are to be applied">
<polygon fill="white" stroke="black" points="363.5,-190.5 363.5,-209.5 473.5,-209.5 473.5,-190.5 363.5,-190.5"/>
<text text-anchor="middle" x="418.5" y="-197.5" font-family="Helvetica,sans-Serif" font-size="10.00">TUtilities::CallLogPop</text>
</a>
</g>
</g>
<!-- Node1&#45;&gt;Node2 -->
<g id="edge1" class="edge">
<title>Node1&#45;&gt;Node2</title>
<path fill="none" stroke="midnightblue" d="M71.35,-145.21C87.69,-163.25 117.82,-192.36 151,-204 221.7,-228.8 309.58,-220.63 364.62,-211.27"/>
<polygon fill="midnightblue" stroke="midnightblue" points="365.27,-214.71 374.51,-209.52 364.05,-207.82 365.27,-214.71"/>
</g>
<!-- Node3 -->
<g id="node3" class="node">
<title>Node3</title>
<g id="a_node3"><a xlink:href="class_t_utilities.html#a4d229af6e8943da1936bcbcc1c83846b" target="_top" xlink:title="checks that the value is an int lying between Lowest &amp; Highest (inclusive), returns true for success">
<polygon fill="white" stroke="black" points="361.5,-0.5 361.5,-19.5 475.5,-19.5 475.5,-0.5 361.5,-0.5"/>
<text text-anchor="middle" x="418.5" y="-7.5" font-family="Helvetica,sans-Serif" font-size="10.00">TUtilities::CheckFileInt</text>
</a>
</g>
</g>
<!-- Node1&#45;&gt;Node3 -->
<g id="edge2" class="edge">
<title>Node1&#45;&gt;Node3</title>
<path fill="none" stroke="midnightblue" d="M71.18,-114.95C87.57,-96.59 117.98,-66.13 151,-51 214.9,-21.71 295.52,-12.68 351.27,-10.21"/>
<polygon fill="midnightblue" stroke="midnightblue" points="351.52,-13.7 361.38,-9.82 351.25,-6.71 351.52,-13.7"/>
</g>
<!-- Node5 -->
<g id="node5" class="node">
<title>Node5</title>
<g id="a_node5"><a xlink:href="class_t_utilities.html#a8bc6745e0433d55022e016b6551f04a0" target="_top" xlink:title="checks that the value is a string (&#39;0&#39; only accepted as the delimiter), returns true for success">
<polygon fill="white" stroke="black" points="354,-229 354,-259 483,-259 483,-229 354,-229"/>
<text text-anchor="start" x="362" y="-247" font-family="Helvetica,sans-Serif" font-size="10.00">TUtilities::CheckFileString</text>
<text text-anchor="middle" x="418.5" y="-236" font-family="Helvetica,sans-Serif" font-size="10.00">ZeroDelimiter</text>
</a>
</g>
</g>
<!-- Node1&#45;&gt;Node5 -->
<g id="edge4" class="edge">
<title>Node1&#45;&gt;Node5</title>
<path fill="none" stroke="midnightblue" d="M67.89,-145.34C82.51,-167.65 113.02,-208.32 151,-226 211.45,-254.14 288.08,-256.35 343.63,-252.88"/>
<polygon fill="midnightblue" stroke="midnightblue" points="344.02,-256.36 353.75,-252.17 343.53,-249.37 344.02,-256.36"/>
</g>
<!-- Node6 -->
<g id="node6" class="node">
<title>Node6</title>
<g id="a_node6"><a xlink:href="class_t_text_handler.html#a9b78e10ef2f0907a845c0d8ed7ccdede" target="_top" xlink:title="check the validity of text items in VecFile prior to loading, return true for success">
<polygon fill="white" stroke="black" points="151,-164 151,-194 318,-194 318,-164 151,-164"/>
<text text-anchor="start" x="159" y="-182" font-family="Helvetica,sans-Serif" font-size="10.00">TTextHandler::CheckTextElements</text>
<text text-anchor="middle" x="234.5" y="-171" font-family="Helvetica,sans-Serif" font-size="10.00">InFile</text>
</a>
</g>
</g>
<!-- Node1&#45;&gt;Node6 -->
<g id="edge5" class="edge">
<title>Node1&#45;&gt;Node6</title>
<path fill="none" stroke="midnightblue" d="M112.43,-145.1C130.65,-150.2 151.15,-155.94 170.04,-161.23"/>
<polygon fill="midnightblue" stroke="midnightblue" points="169.17,-164.62 179.74,-163.95 171.06,-157.88 169.17,-164.62"/>
</g>
<!-- Node8 -->
<g id="node8" class="node">
<title>Node8</title>
<g id="a_node8"><a xlink:href="class_t_utilities.html#a34bd6bb5305bc29afdf424f6d35a921c" target="_top" xlink:title="creates a string of the form &#39;hh:mm:ss&#39; for use in call &amp; event logging">
<polygon fill="white" stroke="black" points="363.5,-76.5 363.5,-95.5 473.5,-95.5 473.5,-76.5 363.5,-76.5"/>
<text text-anchor="middle" x="418.5" y="-83.5" font-family="Helvetica,sans-Serif" font-size="10.00">TUtilities::TimeStamp</text>
</a>
</g>
</g>
<!-- Node1&#45;&gt;Node8 -->
<g id="edge23" class="edge">
<title>Node1&#45;&gt;Node8</title>
<path fill="none" stroke="midnightblue" d="M74.27,-114.79C91.51,-99.32 120.73,-76.33 151,-67 227.83,-43.32 322.79,-60.42 376.11,-73.93"/>
<polygon fill="midnightblue" stroke="midnightblue" points="375.33,-77.34 385.89,-76.48 377.1,-70.57 375.33,-77.34"/>
</g>
<!-- Node9 -->
<g id="node9" class="node">
<title>Node9</title>
<g id="a_node9"><a xlink:href="class_t_track.html#aaaeca0e8840e05572e9c27e76a04483a" target="_top" xlink:title="True if TrackElements in the file are all valid.">
<polygon fill="white" stroke="black" points="162,-115 162,-145 307,-145 307,-115 162,-115"/>
<text text-anchor="start" x="170" y="-133" font-family="Helvetica,sans-Serif" font-size="10.00">TTrack::CheckTrackElements</text>
<text text-anchor="middle" x="234.5" y="-122" font-family="Helvetica,sans-Serif" font-size="10.00">InFile</text>
</a>
</g>
</g>
<!-- Node1&#45;&gt;Node9 -->
<g id="edge10" class="edge">
<title>Node1&#45;&gt;Node9</title>
<path fill="none" stroke="midnightblue" d="M115.32,-130C126.94,-130 139.38,-130 151.67,-130"/>
<polygon fill="midnightblue" stroke="midnightblue" points="151.94,-133.5 161.94,-130 151.94,-126.5 151.94,-133.5"/>
</g>
<!-- Node10 -->
<g id="node10" class="node">
<title>Node10</title>
<g id="a_node10"><a xlink:href="class_t_track.html#af4ef9874b8b8208112da24ac282298b7" target="_top" xlink:title="checks all user graphics &amp; returns true for success">
<polygon fill="white" stroke="black" points="165,-76.5 165,-95.5 304,-95.5 304,-76.5 165,-76.5"/>
<text text-anchor="middle" x="234.5" y="-83.5" font-family="Helvetica,sans-Serif" font-size="10.00">TTrack::CheckUserGraphics</text>
</a>
</g>
</g>
<!-- Node1&#45;&gt;Node10 -->
<g id="edge17" class="edge">
<title>Node1&#45;&gt;Node10</title>
<path fill="none" stroke="midnightblue" d="M115.21,-115.13C127.03,-112.08 139.41,-108.91 151,-106 161.62,-103.34 173.02,-100.53 183.85,-97.9"/>
<polygon fill="midnightblue" stroke="midnightblue" points="184.71,-101.29 193.6,-95.54 183.06,-94.49 184.71,-101.29"/>
</g>
<!-- Node4 -->
<g id="node4" class="node">
<title>Node4</title>
<g id="a_node4"><a xlink:href="class_t_utilities.html#a0a0ef5bf2fc74c0026f2a8bec4151d37" target="_top" xlink:title="checks that the value is a string (&#39;0&#39; or &#39; &#39; (CRLF) accepted as delimiters), returns true for succes...">
<polygon fill="white" stroke="black" points="519,-33 519,-63 647,-63 647,-33 519,-33"/>
<text text-anchor="start" x="527" y="-51" font-family="Helvetica,sans-Serif" font-size="10.00">TUtilities::CheckAndRead</text>
<text text-anchor="middle" x="583" y="-40" font-family="Helvetica,sans-Serif" font-size="10.00">FileString</text>
</a>
</g>
</g>
<!-- Node3&#45;&gt;Node4 -->
<g id="edge3" class="edge">
<title>Node3&#45;&gt;Node4</title>
<path fill="none" stroke="midnightblue" d="M460.51,-19.59C475.28,-23.04 492.43,-27.06 509.11,-30.96"/>
<polygon fill="midnightblue" stroke="midnightblue" points="508.32,-34.36 518.85,-33.23 509.91,-27.55 508.32,-34.36"/>
</g>
<!-- Node6&#45;&gt;Node2 -->
<g id="edge6" class="edge">
<title>Node6&#45;&gt;Node2</title>
<path fill="none" stroke="midnightblue" d="M318.25,-188.55C329.96,-189.9 341.87,-191.27 353.17,-192.58"/>
<polygon fill="midnightblue" stroke="midnightblue" points="353.02,-196.08 363.35,-193.75 353.82,-189.13 353.02,-196.08"/>
</g>
<!-- Node6&#45;&gt;Node5 -->
<g id="edge7" class="edge">
<title>Node6&#45;&gt;Node5</title>
<path fill="none" stroke="midnightblue" d="M277.71,-194.08C303.92,-203.44 337.79,-215.53 365.63,-225.47"/>
<polygon fill="midnightblue" stroke="midnightblue" points="364.61,-228.83 375.2,-228.89 366.96,-222.23 364.61,-228.83"/>
</g>
<!-- Node7 -->
<g id="node7" class="node">
<title>Node7</title>
<g id="a_node7"><a xlink:href="class_t_utilities.html#a84bf39701305cf4814377d178d0fec8c" target="_top" xlink:title="loads an int value from the file">
<polygon fill="white" stroke="black" points="365,-152.5 365,-171.5 472,-171.5 472,-152.5 365,-152.5"/>
<text text-anchor="middle" x="418.5" y="-159.5" font-family="Helvetica,sans-Serif" font-size="10.00">TUtilities::LoadFileInt</text>
</a>
</g>
</g>
<!-- Node6&#45;&gt;Node7 -->
<g id="edge8" class="edge">
<title>Node6&#45;&gt;Node7</title>
<path fill="none" stroke="midnightblue" d="M318.25,-171.27C330.52,-170.12 343,-168.96 354.77,-167.86"/>
<polygon fill="midnightblue" stroke="midnightblue" points="355.28,-171.33 364.91,-166.91 354.63,-164.36 355.28,-171.33"/>
</g>
<!-- Node6&#45;&gt;Node8 -->
<g id="edge9" class="edge">
<title>Node6&#45;&gt;Node8</title>
<path fill="none" stroke="midnightblue" d="M295.83,-163.93C303.44,-161.31 311,-158.34 318,-155 348.12,-140.65 379.13,-117.57 398.36,-102.11"/>
<polygon fill="midnightblue" stroke="midnightblue" points="400.79,-104.64 406.31,-95.6 396.36,-99.22 400.79,-104.64"/>
</g>
<!-- Node9&#45;&gt;Node2 -->
<g id="edge11" class="edge">
<title>Node9&#45;&gt;Node2</title>
<path fill="none" stroke="midnightblue" d="M294.13,-145.12C302.32,-147.99 310.49,-151.28 318,-155 335.69,-163.76 336.3,-172.27 354,-181 358.59,-183.26 363.5,-185.31 368.49,-187.16"/>
<polygon fill="midnightblue" stroke="midnightblue" points="367.5,-190.52 378.1,-190.45 369.77,-183.9 367.5,-190.52"/>
</g>
<!-- Node9&#45;&gt;Node3 -->
<g id="edge13" class="edge">
<title>Node9&#45;&gt;Node3</title>
<path fill="none" stroke="midnightblue" d="M297.85,-114.96C304.89,-112.15 311.76,-108.85 318,-105 337.79,-92.77 337.33,-83.23 354,-67 368.45,-52.93 385.5,-37.7 398.29,-26.53"/>
<polygon fill="midnightblue" stroke="midnightblue" points="400.75,-29.02 406.01,-19.82 396.16,-23.74 400.75,-29.02"/>
</g>
<!-- Node9&#45;&gt;Node4 -->
<g id="edge12" class="edge">
<title>Node9&#45;&gt;Node4</title>
<path fill="none" stroke="midnightblue" d="M307.26,-130.65C357.56,-129.21 425.76,-123.43 483,-105 508.26,-96.87 534.16,-81.66 553.13,-69"/>
<polygon fill="midnightblue" stroke="midnightblue" points="555.31,-71.75 561.59,-63.22 551.36,-65.97 555.31,-71.75"/>
</g>
<!-- Node9&#45;&gt;Node5 -->
<g id="edge14" class="edge">
<title>Node9&#45;&gt;Node5</title>
<path fill="none" stroke="midnightblue" d="M302.2,-145.15C307.85,-147.91 313.21,-151.16 318,-155 343.45,-175.43 329.39,-197.56 354,-219 355.91,-220.67 357.95,-222.23 360.08,-223.7"/>
<polygon fill="midnightblue" stroke="midnightblue" points="358.3,-226.71 368.67,-228.88 361.92,-220.72 358.3,-226.71"/>
</g>
<!-- Node9&#45;&gt;Node7 -->
<g id="edge15" class="edge">
<title>Node9&#45;&gt;Node7</title>
<path fill="none" stroke="midnightblue" d="M307.17,-142.6C322.92,-145.37 339.48,-148.28 354.84,-150.98"/>
<polygon fill="midnightblue" stroke="midnightblue" points="354.29,-154.44 364.74,-152.72 355.5,-147.54 354.29,-154.44"/>
</g>
<!-- Node9&#45;&gt;Node8 -->
<g id="edge16" class="edge">
<title>Node9&#45;&gt;Node8</title>
<path fill="none" stroke="midnightblue" d="M297.63,-114.98C320.65,-109.41 346.43,-103.18 368.16,-97.93"/>
<polygon fill="midnightblue" stroke="midnightblue" points="369.26,-101.26 378.15,-95.51 367.61,-94.46 369.26,-101.26"/>
</g>
<!-- Node10&#45;&gt;Node2 -->
<g id="edge18" class="edge">
<title>Node10&#45;&gt;Node2</title>
<path fill="none" stroke="midnightblue" d="M299.91,-95.51C306.43,-98.21 312.62,-101.64 318,-106 346.74,-129.27 325.89,-156.98 354,-181 355.99,-182.7 358.13,-184.25 360.37,-185.66"/>
<polygon fill="midnightblue" stroke="midnightblue" points="358.98,-188.88 369.46,-190.44 362.24,-182.69 358.98,-188.88"/>
</g>
<!-- Node10&#45;&gt;Node3 -->
<g id="edge20" class="edge">
<title>Node10&#45;&gt;Node3</title>
<path fill="none" stroke="midnightblue" d="M256.34,-76.46C279.9,-65.77 319.47,-48.09 354,-34 362.98,-30.34 372.74,-26.55 381.86,-23.1"/>
<polygon fill="midnightblue" stroke="midnightblue" points="383.3,-26.3 391.43,-19.5 380.84,-19.74 383.3,-26.3"/>
</g>
<!-- Node10&#45;&gt;Node4 -->
<g id="edge19" class="edge">
<title>Node10&#45;&gt;Node4</title>
<path fill="none" stroke="midnightblue" d="M289.35,-76.48C309.58,-73.14 332.8,-69.58 354,-67 405.58,-60.73 463.98,-55.9 508.76,-52.69"/>
<polygon fill="midnightblue" stroke="midnightblue" points="509.24,-56.16 518.96,-51.96 508.74,-49.18 509.24,-56.16"/>
</g>
<!-- Node10&#45;&gt;Node7 -->
<g id="edge21" class="edge">
<title>Node10&#45;&gt;Node7</title>
<path fill="none" stroke="midnightblue" d="M284.61,-95.56C295.77,-98.37 307.44,-101.84 318,-106 345.7,-116.91 375.15,-134.3 394.76,-146.81"/>
<polygon fill="midnightblue" stroke="midnightblue" points="393,-149.83 403.29,-152.33 396.8,-143.96 393,-149.83"/>
</g>
<!-- Node10&#45;&gt;Node8 -->
<g id="edge22" class="edge">
<title>Node10&#45;&gt;Node8</title>
<path fill="none" stroke="midnightblue" d="M304.05,-86C320.17,-86 337.29,-86 353.21,-86"/>
<polygon fill="midnightblue" stroke="midnightblue" points="353.48,-89.5 363.48,-86 353.48,-82.5 353.48,-89.5"/>
</g>
</g>
</svg>
