<?xml version="1.0" encoding="UTF-8" standalone="no"?>
<!DOCTYPE svg PUBLIC "-//W3C//DTD SVG 1.1//EN"
 "http://www.w3.org/Graphics/SVG/1.1/DTD/svg11.dtd">
<!-- Generated by graphviz version 2.44.1 (20200629.0800)
 -->
<!-- Title: TTrack::PlotPoints Pages: 1 -->
<svg width="441pt" height="348pt"
 viewBox="0.00 0.00 441.00 348.45" xmlns="http://www.w3.org/2000/svg" xmlns:xlink="http://www.w3.org/1999/xlink">
<g id="graph0" class="graph" transform="scale(1 1) rotate(0) translate(4 344.45)">
<title>TTrack::PlotPoints</title>
<polygon fill="white" stroke="transparent" points="-4,4 -4,-344.45 437,-344.45 437,4 -4,4"/>
<!-- Node1 -->
<g id="node1" class="node">
<title>Node1</title>
<g id="a_node1"><a xlink:title="Plot points on screen according to how they are set (Attribute value), or, with both fillets if BothF...">
<polygon fill="#bfbfbf" stroke="black" points="0,-158.5 0,-177.5 97,-177.5 97,-158.5 0,-158.5"/>
<text text-anchor="middle" x="48.5" y="-165.5" font-family="Helvetica,sans-Serif" font-size="10.00">TTrack::PlotPoints</text>
</a>
</g>
</g>
<!-- Node2 -->
<g id="node2" class="node">
<title>Node2</title>
<g id="a_node2"><a xlink:href="class_t_utilities.html#ae1eddca13cc3c492839e131f40ec21c0" target="_top" xlink:title="pops the last entry off the call stack, throws an error if called when empty">
<polygon fill="white" stroke="black" points="323,-228.5 323,-247.5 433,-247.5 433,-228.5 323,-228.5"/>
<text text-anchor="middle" x="378" y="-235.5" font-family="Helvetica,sans-Serif" font-size="10.00">TUtilities::CallLogPop</text>
</a>
</g>
</g>
<!-- Node1&#45;&gt;Node2 -->
<g id="edge1" class="edge">
<title>Node1&#45;&gt;Node2</title>
<path fill="none" stroke="midnightblue" d="M51.39,-177.72C57.42,-205.66 79.04,-286.28 133,-318 192,-352.69 223.02,-342.32 287,-318 319.71,-305.57 348.11,-275.2 363.87,-255.66"/>
<polygon fill="midnightblue" stroke="midnightblue" points="366.8,-257.59 370.18,-247.55 361.28,-253.28 366.8,-257.59"/>
</g>
<!-- Node3 -->
<g id="node3" class="node">
<title>Node3</title>
<g id="a_node3"><a xlink:href="class_t_display.html#a33f7067eea9e638bdc363bd0af70d7d5" target="_top" xlink:title="Return a pointer to the screen image.">
<polygon fill="white" stroke="black" points="159,-38.5 159,-57.5 261,-57.5 261,-38.5 159,-38.5"/>
<text text-anchor="middle" x="210" y="-45.5" font-family="Helvetica,sans-Serif" font-size="10.00">TDisplay::GetImage</text>
</a>
</g>
</g>
<!-- Node1&#45;&gt;Node3 -->
<g id="edge2" class="edge">
<title>Node1&#45;&gt;Node3</title>
<path fill="none" stroke="midnightblue" d="M55.33,-158.27C67.39,-138.96 96.98,-95.62 133,-72 139.75,-67.58 147.36,-63.92 155.1,-60.92"/>
<polygon fill="midnightblue" stroke="midnightblue" points="156.29,-64.21 164.55,-57.57 153.95,-57.61 156.29,-64.21"/>
</g>
<!-- Node4 -->
<g id="node4" class="node">
<title>Node4</title>
<g id="a_node4"><a xlink:href="class_t_track.html#a418966e6fefb71b9d0c9b941197832da" target="_top" xlink:title="Similar to GetVectorPositionFromTrackMap but for inactive elements, a pair is returned because there ...">
<polygon fill="white" stroke="black" points="141.5,-153 141.5,-183 278.5,-183 278.5,-153 141.5,-153"/>
<text text-anchor="start" x="149.5" y="-171" font-family="Helvetica,sans-Serif" font-size="10.00">TTrack::GetVectorPositions</text>
<text text-anchor="middle" x="210" y="-160" font-family="Helvetica,sans-Serif" font-size="10.00">FromInactiveTrackMap</text>
</a>
</g>
</g>
<!-- Node1&#45;&gt;Node4 -->
<g id="edge3" class="edge">
<title>Node1&#45;&gt;Node4</title>
<path fill="none" stroke="midnightblue" d="M97.36,-168C108.07,-168 119.71,-168 131.29,-168"/>
<polygon fill="midnightblue" stroke="midnightblue" points="131.42,-171.5 141.42,-168 131.42,-164.5 131.42,-171.5"/>
</g>
<!-- Node5 -->
<g id="node5" class="node">
<title>Node5</title>
<g id="a_node5"><a xlink:href="class_t_utilities.html#a34bd6bb5305bc29afdf424f6d35a921c" target="_top" xlink:title="creates a string of the form &#39;hh:mm:ss&#39; for use in call &amp; event logging">
<polygon fill="white" stroke="black" points="323,-185.5 323,-204.5 433,-204.5 433,-185.5 323,-185.5"/>
<text text-anchor="middle" x="378" y="-192.5" font-family="Helvetica,sans-Serif" font-size="10.00">TUtilities::TimeStamp</text>
</a>
</g>
</g>
<!-- Node1&#45;&gt;Node5 -->
<g id="edge19" class="edge">
<title>Node1&#45;&gt;Node5</title>
<path fill="none" stroke="midnightblue" d="M58.08,-158.37C72.04,-143.52 101.32,-115.61 133,-105 197.9,-83.26 223.77,-78.81 287,-105 322.01,-119.5 350.5,-154.97 365.5,-176.8"/>
<polygon fill="midnightblue" stroke="midnightblue" points="362.64,-178.81 371.08,-185.22 368.47,-174.95 362.64,-178.81"/>
</g>
<!-- Node6 -->
<g id="node6" class="node">
<title>Node6</title>
<g id="a_node6"><a xlink:href="class_t_track.html#a51f89cf70e94b037f6378cd78003d82b" target="_top" xlink:title="A range&#45;checked version of InactiveTrackVector.at(At)">
<polygon fill="white" stroke="black" points="133,-114.5 133,-133.5 287,-133.5 287,-114.5 133,-114.5"/>
<text text-anchor="middle" x="210" y="-121.5" font-family="Helvetica,sans-Serif" font-size="10.00">TTrack::InactiveTrackElementAt</text>
</a>
</g>
</g>
<!-- Node1&#45;&gt;Node6 -->
<g id="edge6" class="edge">
<title>Node1&#45;&gt;Node6</title>
<path fill="none" stroke="midnightblue" d="M80.33,-158.4C96.05,-153.6 115.49,-147.81 133,-143 141.58,-140.65 150.73,-138.25 159.61,-136"/>
<polygon fill="midnightblue" stroke="midnightblue" points="160.62,-139.35 169.46,-133.52 158.91,-132.56 160.62,-139.35"/>
</g>
<!-- Node7 -->
<g id="node7" class="node">
<title>Node7</title>
<g id="a_node7"><a xlink:href="class_t_track_element.html#a100bff829c4dca820927affde4cb9e57" target="_top" xlink:title="Used to log track parameters for call stack logging.">
<polygon fill="white" stroke="black" points="146,-0.5 146,-19.5 274,-19.5 274,-0.5 146,-0.5"/>
<text text-anchor="middle" x="210" y="-7.5" font-family="Helvetica,sans-Serif" font-size="10.00">TTrackElement::LogTrack</text>
</a>
</g>
</g>
<!-- Node1&#45;&gt;Node7 -->
<g id="edge9" class="edge">
<title>Node1&#45;&gt;Node7</title>
<path fill="none" stroke="midnightblue" d="M52.36,-158.48C60.48,-133.16 86.17,-63.68 133,-29 135.54,-27.12 138.25,-25.42 141.07,-23.89"/>
<polygon fill="midnightblue" stroke="midnightblue" points="142.81,-26.94 150.4,-19.55 139.86,-20.59 142.81,-26.94"/>
</g>
<!-- Node8 -->
<g id="node8" class="node">
<title>Node8</title>
<g id="a_node8"><a xlink:href="class_t_display.html#a9ab49e52c7eb92b32ae2c34547183439" target="_top" xlink:title="Plot the graphic at screen position HPos &amp; VPos.">
<polygon fill="white" stroke="black" points="156.5,-289.5 156.5,-308.5 263.5,-308.5 263.5,-289.5 156.5,-289.5"/>
<text text-anchor="middle" x="210" y="-296.5" font-family="Helvetica,sans-Serif" font-size="10.00">TDisplay::PlotOutput</text>
</a>
</g>
</g>
<!-- Node1&#45;&gt;Node8 -->
<g id="edge10" class="edge">
<title>Node1&#45;&gt;Node8</title>
<path fill="none" stroke="midnightblue" d="M53.79,-177.55C64.09,-199.34 92.43,-252.98 133,-280 137.28,-282.85 141.95,-285.27 146.8,-287.33"/>
<polygon fill="midnightblue" stroke="midnightblue" points="145.71,-290.66 156.31,-290.86 148.15,-284.1 145.71,-290.66"/>
</g>
<!-- Node9 -->
<g id="node9" class="node">
<title>Node9</title>
<g id="a_node9"><a xlink:href="class_t_display.html#aab35e517eba56f1c95f500958ce431ae" target="_top" xlink:title=" ">
<polygon fill="white" stroke="black" points="147.5,-251.5 147.5,-270.5 272.5,-270.5 272.5,-251.5 147.5,-251.5"/>
<text text-anchor="middle" x="210" y="-258.5" font-family="Helvetica,sans-Serif" font-size="10.00">TDisplay::PlotPointBlank</text>
</a>
</g>
</g>
<!-- Node1&#45;&gt;Node9 -->
<g id="edge13" class="edge">
<title>Node1&#45;&gt;Node9</title>
<path fill="none" stroke="midnightblue" d="M57.44,-177.55C71.17,-193.41 100.96,-225.11 133,-242 137.47,-244.36 142.25,-246.43 147.15,-248.25"/>
<polygon fill="midnightblue" stroke="midnightblue" points="146.07,-251.58 156.66,-251.46 148.3,-244.95 146.07,-251.58"/>
</g>
<!-- Node10 -->
<g id="node10" class="node">
<title>Node10</title>
<g id="a_node10"><a xlink:href="class_t_track_element.html#a453377f8db5e108cb274464333e1100f" target="_top" xlink:title="Plot the element on the display &#39;variable&#39; indicates that the element may be named and if so may be p...">
<polygon fill="white" stroke="black" points="140,-202 140,-232 280,-232 280,-202 140,-202"/>
<text text-anchor="start" x="148" y="-220" font-family="Helvetica,sans-Serif" font-size="10.00">TTrackElement::PlotVariable</text>
<text text-anchor="middle" x="210" y="-209" font-family="Helvetica,sans-Serif" font-size="10.00">TrackElement</text>
</a>
</g>
</g>
<!-- Node1&#45;&gt;Node10 -->
<g id="edge16" class="edge">
<title>Node1&#45;&gt;Node10</title>
<path fill="none" stroke="midnightblue" d="M80.63,-177.56C100.47,-183.66 126.8,-191.75 150.45,-199.01"/>
<polygon fill="midnightblue" stroke="midnightblue" points="149.47,-202.37 160.05,-201.96 151.52,-195.68 149.47,-202.37"/>
</g>
<!-- Node4&#45;&gt;Node2 -->
<g id="edge4" class="edge">
<title>Node4&#45;&gt;Node2</title>
<path fill="none" stroke="midnightblue" d="M264.36,-183.04C272.07,-185.73 279.82,-188.73 287,-192 304.07,-199.77 306.4,-205.28 323,-214 329.81,-217.57 337.26,-221.11 344.39,-224.33"/>
<polygon fill="midnightblue" stroke="midnightblue" points="343.26,-227.66 353.83,-228.49 346.09,-221.25 343.26,-227.66"/>
</g>
<!-- Node4&#45;&gt;Node5 -->
<g id="edge5" class="edge">
<title>Node4&#45;&gt;Node5</title>
<path fill="none" stroke="midnightblue" d="M278.52,-178.98C289.79,-180.82 301.45,-182.71 312.64,-184.53"/>
<polygon fill="midnightblue" stroke="midnightblue" points="312.33,-188.03 322.76,-186.18 313.45,-181.12 312.33,-188.03"/>
</g>
<!-- Node6&#45;&gt;Node2 -->
<g id="edge7" class="edge">
<title>Node6&#45;&gt;Node2</title>
<path fill="none" stroke="midnightblue" d="M270.65,-133.51C276.52,-135.99 282.11,-139.1 287,-143 314.66,-165.06 297.35,-189.63 323,-214 327.04,-217.84 331.81,-221.14 336.8,-223.94"/>
<polygon fill="midnightblue" stroke="midnightblue" points="335.42,-227.16 345.93,-228.47 338.53,-220.89 335.42,-227.16"/>
</g>
<!-- Node6&#45;&gt;Node5 -->
<g id="edge8" class="edge">
<title>Node6&#45;&gt;Node5</title>
<path fill="none" stroke="midnightblue" d="M257.88,-133.54C267.66,-136.13 277.8,-139.28 287,-143 311.36,-152.86 337.13,-168.32 354.82,-179.83"/>
<polygon fill="midnightblue" stroke="midnightblue" points="353.01,-182.83 363.28,-185.44 356.88,-177 353.01,-182.83"/>
</g>
<!-- Node8&#45;&gt;Node2 -->
<g id="edge11" class="edge">
<title>Node8&#45;&gt;Node2</title>
<path fill="none" stroke="midnightblue" d="M255.23,-289.46C265.76,-286.78 276.87,-283.59 287,-280 308.8,-272.27 332.47,-261.11 350.06,-252.23"/>
<polygon fill="midnightblue" stroke="midnightblue" points="351.85,-255.25 359.16,-247.57 348.66,-249.02 351.85,-255.25"/>
</g>
<!-- Node8&#45;&gt;Node5 -->
<g id="edge12" class="edge">
<title>Node8&#45;&gt;Node5</title>
<path fill="none" stroke="midnightblue" d="M263.75,-291.63C272.04,-288.88 280.13,-285.13 287,-280 312.23,-261.17 299.5,-239.94 323,-219 327.26,-215.2 332.22,-211.92 337.37,-209.11"/>
<polygon fill="midnightblue" stroke="midnightblue" points="339.28,-212.08 346.74,-204.56 336.22,-205.78 339.28,-212.08"/>
</g>
<!-- Node9&#45;&gt;Node2 -->
<g id="edge14" class="edge">
<title>Node9&#45;&gt;Node2</title>
<path fill="none" stroke="midnightblue" d="M272.81,-252.44C285.89,-250.62 299.71,-248.71 312.87,-246.89"/>
<polygon fill="midnightblue" stroke="midnightblue" points="313.36,-250.35 322.78,-245.51 312.4,-243.42 313.36,-250.35"/>
</g>
<!-- Node9&#45;&gt;Node5 -->
<g id="edge15" class="edge">
<title>Node9&#45;&gt;Node5</title>
<path fill="none" stroke="midnightblue" d="M259.21,-251.45C268.61,-248.89 278.26,-245.77 287,-242 304.44,-234.49 306.28,-227.99 323,-219 329.71,-215.39 337.07,-211.86 344.14,-208.66"/>
<polygon fill="midnightblue" stroke="midnightblue" points="345.77,-211.76 353.51,-204.53 342.95,-205.36 345.77,-211.76"/>
</g>
<!-- Node10&#45;&gt;Node2 -->
<g id="edge17" class="edge">
<title>Node10&#45;&gt;Node2</title>
<path fill="none" stroke="midnightblue" d="M280.44,-225.78C291.21,-227.15 302.3,-228.55 312.94,-229.9"/>
<polygon fill="midnightblue" stroke="midnightblue" points="312.63,-233.38 322.99,-231.17 313.51,-226.44 312.63,-233.38"/>
</g>
<!-- Node10&#45;&gt;Node5 -->
<g id="edge18" class="edge">
<title>Node10&#45;&gt;Node5</title>
<path fill="none" stroke="midnightblue" d="M280.44,-207.8C291.21,-206.37 302.3,-204.9 312.94,-203.49"/>
<polygon fill="midnightblue" stroke="midnightblue" points="313.54,-206.94 322.99,-202.16 312.62,-200 313.54,-206.94"/>
</g>
</g>
</svg>
