<?xml version="1.0" encoding="UTF-8" standalone="no"?>
<!DOCTYPE svg PUBLIC "-//W3C//DTD SVG 1.1//EN"
 "http://www.w3.org/Graphics/SVG/1.1/DTD/svg11.dtd">
<!-- Generated by graphviz version 2.44.1 (20200629.0800)
 -->
<!-- Title: TTrainController::GetExitLocationAndAt Pages: 1 -->
<!--zoomable 210 -->
<svg id="main" version="1.1" xmlns="http://www.w3.org/2000/svg" xmlns:xlink="http://www.w3.org/1999/xlink" xml:space="preserve" onload="init(evt)">
<style type="text/css"><![CDATA[
.edge:hover path { stroke: red; }
.edge:hover polygon { stroke: red; fill: red; }
]]></style>
<script type="text/javascript"><![CDATA[
var edges = document.getElementsByTagName('g');
if (edges && edges.length) {
  for (var i=0;i<edges.length;i++) {
    if (edges[i].id.substr(0,4)=='edge') {
      edges[i].setAttribute('class','edge');
    }
  }
}
]]></script>
        <defs>
                <circle id="rim" cx="0" cy="0" r="7"/>
                <circle id="rim2" cx="0" cy="0" r="3.5"/>
                <g id="zoomPlus">
                        <use xlink:href="#rim" fill="#404040">
                                <set attributeName="fill" to="#808080" begin="zoomplus.mouseover" end="zoomplus.mouseout"/>
                        </use>
                        <path d="M-4,0h8M0,-4v8" fill="none" stroke="white" stroke-width="1.5" pointer-events="none"/>
                </g>
                <g id="zoomMin">
                        <use xlink:href="#rim" fill="#404040">
                                <set attributeName="fill" to="#808080" begin="zoomminus.mouseover" end="zoomminus.mouseout"/>
                        </use>
                        <path d="M-4,0h8" fill="none" stroke="white" stroke-width="1.5" pointer-events="none"/>
                </g>
                <g id="dirArrow">
                        <path fill="none" stroke="white" stroke-width="1.5" d="M0,-3.0v7 M-2.5,-0.5L0,-3.0L2.5,-0.5"/>
                </g>
               <g id="resetDef">
                       <use xlink:href="#rim2" fill="#404040">
                               <set attributeName="fill" to="#808080" begin="reset.mouseover" end="reset.mouseout"/>
                       </use>
               </g>
        </defs>

<script type="text/javascript">
var viewWidth = 813;
var viewHeight = 210;
var sectionId = 'dynsection-60';
</script>
<script xlink:href="svgpan.js"/>
<svg id="graph" class="graph">
<g id="viewport">
<title>TTrainController::GetExitLocationAndAt</title>
<polygon fill="white" stroke="transparent" points="-4,4 -4,-206 809,-206 809,4 -4,4"/>
<!-- Node1 -->
<g id="node1" class="node">
<title>Node1</title>
<g id="a_node1"><a xlink:title="Check all timetable names in ExitList, if all same return &quot; at [name]&quot; else return &quot;&quot;....">
<polygon fill="#bfbfbf" stroke="black" points="682,-97.5 682,-127.5 805,-127.5 805,-97.5 682,-97.5"/>
<text text-anchor="start" x="690" y="-115.5" font-family="Helvetica,sans-Serif" font-size="10.00">TTrainController::GetExit</text>
<text text-anchor="middle" x="743.5" y="-104.5" font-family="Helvetica,sans-Serif" font-size="10.00">LocationAndAt</text>
</a>
</g>
</g>
<!-- Node2 -->
<g id="node2" class="node">
<title>Node2</title>
<g id="a_node2"><a xlink:href="class_t_train_controller.html#a9c531d3df66921ada4e698bcf47f72f3" target="_top" xlink:title="Build string for use in floating window for expected trains at continuations.">
<polygon fill="white" stroke="black" points="502,-171.5 502,-201.5 646,-201.5 646,-171.5 502,-171.5"/>
<text text-anchor="start" x="510" y="-189.5" font-family="Helvetica,sans-Serif" font-size="10.00">TTrainController::Continuation</text>
<text text-anchor="middle" x="574" y="-178.5" font-family="Helvetica,sans-Serif" font-size="10.00">EntryFloatingTTString</text>
</a>
</g>
</g>
<!-- Node1&#45;&gt;Node2 -->
<g id="edge1" class="edge">
<title>Node1&#45;&gt;Node2</title>
<path fill="none" stroke="midnightblue" d="M707.02,-132.53C689.05,-142.25 666.7,-153.7 646,-162.5 638.58,-165.66 630.58,-168.69 622.73,-171.48"/>
<polygon fill="midnightblue" stroke="midnightblue" points="708.89,-135.5 715.99,-127.63 705.54,-129.35 708.89,-135.5"/>
</g>
<!-- Node6 -->
<g id="node6" class="node">
<title>Node6</title>
<g id="a_node6"><a xlink:href="class_t_train_controller.html#a4ab4b6a568064d27c65f0770e5a5ccd0" target="_top" xlink:title="Examines the internal timetable (TrainDataVector) and creates from it a chronological (....">
<polygon fill="white" stroke="black" points="514.5,-24.5 514.5,-54.5 633.5,-54.5 633.5,-24.5 514.5,-24.5"/>
<text text-anchor="start" x="522.5" y="-42.5" font-family="Helvetica,sans-Serif" font-size="10.00">TTrainController::Create</text>
<text text-anchor="middle" x="574" y="-31.5" font-family="Helvetica,sans-Serif" font-size="10.00">FormattedTimetable</text>
</a>
</g>
</g>
<!-- Node1&#45;&gt;Node6 -->
<g id="edge5" class="edge">
<title>Node1&#45;&gt;Node6</title>
<path fill="none" stroke="midnightblue" d="M705.73,-92.88C687.93,-83.72 666.11,-73 646,-64.5 637.82,-61.04 628.97,-57.65 620.39,-54.55"/>
<polygon fill="midnightblue" stroke="midnightblue" points="704.15,-96 714.64,-97.5 707.37,-89.79 704.15,-96"/>
</g>
<!-- Node9 -->
<g id="node9" class="node">
<title>Node9</title>
<g id="a_node9"><a xlink:href="class_t_train.html#a221da69cd80d206a06f840f4cd463cf9" target="_top" xlink:title="Used in the floating window to display the &#39;Next&#39; action.">
<polygon fill="white" stroke="black" points="510.5,-122.5 510.5,-152.5 637.5,-152.5 637.5,-122.5 510.5,-122.5"/>
<text text-anchor="start" x="518.5" y="-140.5" font-family="Helvetica,sans-Serif" font-size="10.00">TTrain::FloatingLabelNext</text>
<text text-anchor="middle" x="574" y="-129.5" font-family="Helvetica,sans-Serif" font-size="10.00">String</text>
</a>
</g>
</g>
<!-- Node1&#45;&gt;Node9 -->
<g id="edge8" class="edge">
<title>Node1&#45;&gt;Node9</title>
<path fill="none" stroke="midnightblue" d="M671.36,-123.12C660.13,-124.79 648.6,-126.52 637.59,-128.16"/>
<polygon fill="midnightblue" stroke="midnightblue" points="672.18,-126.53 681.55,-121.6 671.15,-119.61 672.18,-126.53"/>
</g>
<!-- Node10 -->
<g id="node10" class="node">
<title>Node10</title>
<g id="a_node10"><a xlink:href="class_t_train.html#a81bf61b47a2867f0c6901b1ea6f47177" target="_top" xlink:title="Used in the floating window to display the timetable.">
<polygon fill="white" stroke="black" points="511.5,-73.5 511.5,-103.5 636.5,-103.5 636.5,-73.5 511.5,-73.5"/>
<text text-anchor="start" x="519.5" y="-91.5" font-family="Helvetica,sans-Serif" font-size="10.00">TTrain::FloatingTimetable</text>
<text text-anchor="middle" x="574" y="-80.5" font-family="Helvetica,sans-Serif" font-size="10.00">String</text>
</a>
</g>
</g>
<!-- Node1&#45;&gt;Node10 -->
<g id="edge10" class="edge">
<title>Node1&#45;&gt;Node10</title>
<path fill="none" stroke="midnightblue" d="M671.51,-102.33C659.95,-100.67 648.06,-98.97 636.74,-97.35"/>
<polygon fill="midnightblue" stroke="midnightblue" points="671.16,-105.81 681.55,-103.77 672.15,-98.88 671.16,-105.81"/>
</g>
<!-- Node3 -->
<g id="node3" class="node">
<title>Node3</title>
<g id="a_node3"><a xlink:href="class_t_interface.html#a9aaa19d39382a32701d7ded3b8c1802b" target="_top" xlink:title="Controls the floating window function, called during the ClockTimer2 function.">
<polygon fill="white" stroke="black" points="334.5,-128 334.5,-147 465.5,-147 465.5,-128 334.5,-128"/>
<text text-anchor="middle" x="400" y="-135" font-family="Helvetica,sans-Serif" font-size="10.00">TInterface::TrackTrainFloat</text>
</a>
</g>
</g>
<!-- Node2&#45;&gt;Node3 -->
<g id="edge2" class="edge">
<title>Node2&#45;&gt;Node3</title>
<path fill="none" stroke="midnightblue" d="M510.31,-168.64C484.61,-161.32 455.9,-153.14 434.35,-147"/>
<polygon fill="midnightblue" stroke="midnightblue" points="509.41,-172.02 519.99,-171.4 511.33,-165.29 509.41,-172.02"/>
</g>
<!-- Node4 -->
<g id="node4" class="node">
<title>Node4</title>
<g id="a_node4"><a xlink:href="class_t_interface.html#a6139ffb52492eb89e5487a8a3cd647b5" target="_top" xlink:title="The main loop, called every clock tick via MasterClockTimer.">
<polygon fill="white" stroke="black" points="179,-128 179,-147 298,-147 298,-128 179,-128"/>
<text text-anchor="middle" x="238.5" y="-135" font-family="Helvetica,sans-Serif" font-size="10.00">TInterface::ClockTimer2</text>
</a>
</g>
</g>
<!-- Node3&#45;&gt;Node4 -->
<g id="edge3" class="edge">
<title>Node3&#45;&gt;Node4</title>
<path fill="none" stroke="midnightblue" d="M324,-137.5C315.32,-137.5 306.57,-137.5 298.16,-137.5"/>
<polygon fill="midnightblue" stroke="midnightblue" points="324.13,-141 334.13,-137.5 324.13,-134 324.13,-141"/>
</g>
<!-- Node5 -->
<g id="node5" class="node">
<title>Node5</title>
<g id="a_node5"><a xlink:href="class_t_interface.html#ace30a12d923fc7fb489afabb0a09aa4f" target="_top" xlink:title=" ">
<polygon fill="white" stroke="black" points="0,-128 0,-147 143,-147 143,-128 0,-128"/>
<text text-anchor="middle" x="71.5" y="-135" font-family="Helvetica,sans-Serif" font-size="10.00">TInterface::MasterClockTimer</text>
</a>
</g>
</g>
<!-- Node4&#45;&gt;Node5 -->
<g id="edge4" class="edge">
<title>Node4&#45;&gt;Node5</title>
<path fill="none" stroke="midnightblue" d="M168.67,-137.5C160.22,-137.5 151.57,-137.5 143.09,-137.5"/>
<polygon fill="midnightblue" stroke="midnightblue" points="168.86,-141 178.86,-137.5 168.86,-134 168.86,-141"/>
</g>
<!-- Node7 -->
<g id="node7" class="node">
<title>Node7</title>
<g id="a_node7"><a xlink:href="class_t_interface.html#ab7c52bd31930036c95b9b71c2f1f0426" target="_top" xlink:title=" ">
<polygon fill="white" stroke="black" points="334,-49.5 334,-79.5 466,-79.5 466,-49.5 334,-49.5"/>
<text text-anchor="start" x="342" y="-67.5" font-family="Helvetica,sans-Serif" font-size="10.00">TInterface::ExportTTButton</text>
<text text-anchor="middle" x="400" y="-56.5" font-family="Helvetica,sans-Serif" font-size="10.00">Click</text>
</a>
</g>
</g>
<!-- Node6&#45;&gt;Node7 -->
<g id="edge6" class="edge">
<title>Node6&#45;&gt;Node7</title>
<path fill="none" stroke="midnightblue" d="M504.34,-49.48C491.78,-51.31 478.69,-53.21 466.23,-55.02"/>
<polygon fill="midnightblue" stroke="midnightblue" points="504.9,-52.94 514.29,-48.03 503.89,-46.01 504.9,-52.94"/>
</g>
<!-- Node8 -->
<g id="node8" class="node">
<title>Node8</title>
<g id="a_node8"><a xlink:href="class_t_interface.html#a1bf4807428bf9fa4504be97d28642597" target="_top" xlink:title=" ">
<polygon fill="white" stroke="black" points="336,-0.5 336,-30.5 464,-30.5 464,-0.5 336,-0.5"/>
<text text-anchor="start" x="344" y="-18.5" font-family="Helvetica,sans-Serif" font-size="10.00">TInterface::ExportTTMenu</text>
<text text-anchor="middle" x="400" y="-7.5" font-family="Helvetica,sans-Serif" font-size="10.00">ItemClick</text>
</a>
</g>
</g>
<!-- Node6&#45;&gt;Node8 -->
<g id="edge7" class="edge">
<title>Node6&#45;&gt;Node8</title>
<path fill="none" stroke="midnightblue" d="M504.29,-29.91C491.04,-28.06 477.22,-26.13 464.15,-24.31"/>
<polygon fill="midnightblue" stroke="midnightblue" points="503.9,-33.39 514.29,-31.31 504.87,-26.46 503.9,-33.39"/>
</g>
<!-- Node9&#45;&gt;Node3 -->
<g id="edge9" class="edge">
<title>Node9&#45;&gt;Node3</title>
<path fill="none" stroke="midnightblue" d="M500.37,-137.5C488.81,-137.5 476.92,-137.5 465.56,-137.5"/>
<polygon fill="midnightblue" stroke="midnightblue" points="500.42,-141 510.42,-137.5 500.42,-134 500.42,-141"/>
</g>
<!-- Node10&#45;&gt;Node3 -->
<g id="edge11" class="edge">
<title>Node10&#45;&gt;Node3</title>
<path fill="none" stroke="midnightblue" d="M510.31,-106.36C484.61,-113.68 455.9,-121.86 434.35,-128"/>
<polygon fill="midnightblue" stroke="midnightblue" points="511.33,-109.71 519.99,-103.6 509.41,-102.98 511.33,-109.71"/>
</g>
</g>
</svg>
        <g id="navigator" transform="translate(0 0)" fill="#404254">
                <rect fill="#f2f5e9" fill-opacity="0.5" stroke="#606060" stroke-width=".5" x="0" y="0" width="60" height="60"/>
                <use id="zoomplus" xlink:href="#zoomPlus" x="17" y="9" onmousedown="handleZoom(evt,'in')"/>
                <use id="zoomminus" xlink:href="#zoomMin" x="42" y="9" onmousedown="handleZoom(evt,'out')"/>
                <use id="reset" xlink:href="#resetDef" x="30" y="36" onmousedown="handleReset()"/>
                <g id="arrowUp" xlink:href="#dirArrow" transform="translate(30 24)" onmousedown="handlePan(0,-1)">
                  <use xlink:href="#rim" fill="#404040">
                        <set attributeName="fill" to="#808080" begin="arrowUp.mouseover" end="arrowUp.mouseout"/>
                  </use>
                  <path fill="none" stroke="white" stroke-width="1.5" d="M0,-3.0v7 M-2.5,-0.5L0,-3.0L2.5,-0.5"/>
                </g>
                <g id="arrowRight" xlink:href="#dirArrow" transform="rotate(90) translate(36 -43)" onmousedown="handlePan(1,0)">
                  <use xlink:href="#rim" fill="#404040">
                        <set attributeName="fill" to="#808080" begin="arrowRight.mouseover" end="arrowRight.mouseout"/>
                  </use>
                  <path fill="none" stroke="white" stroke-width="1.5" d="M0,-3.0v7 M-2.5,-0.5L0,-3.0L2.5,-0.5"/>
                </g>
                <g id="arrowDown" xlink:href="#dirArrow" transform="rotate(180) translate(-30 -48)" onmousedown="handlePan(0,1)">
                  <use xlink:href="#rim" fill="#404040">
                        <set attributeName="fill" to="#808080" begin="arrowDown.mouseover" end="arrowDown.mouseout"/>
                  </use>
                  <path fill="none" stroke="white" stroke-width="1.5" d="M0,-3.0v7 M-2.5,-0.5L0,-3.0L2.5,-0.5"/>
                </g>
                <g id="arrowLeft" xlink:href="#dirArrow" transform="rotate(270) translate(-36 17)" onmousedown="handlePan(-1,0)">
                  <use xlink:href="#rim" fill="#404040">
                        <set attributeName="fill" to="#808080" begin="arrowLeft.mouseover" end="arrowLeft.mouseout"/>
                  </use>
                  <path fill="none" stroke="white" stroke-width="1.5" d="M0,-3.0v7 M-2.5,-0.5L0,-3.0L2.5,-0.5"/>
                </g>
        </g>
        <svg viewBox="0 0 15 15" width="100%" height="30px" preserveAspectRatio="xMaxYMin meet">
         <g id="arrow_out" transform="scale(0.3 0.3)">
          <a xlink:href="class_t_train_controller_ae6c904f201d8bb23b3c0714226244890_icgraph_org.svg" target="_base">
           <rect id="button" ry="5" rx="5" y="6" x="6" height="38" width="38"
                fill="#f2f5e9" fill-opacity="0.5" stroke="#606060" stroke-width="1.0"/>
           <path id="arrow"
             d="M 11.500037,31.436501 C 11.940474,20.09759 22.043105,11.32322 32.158766,21.979434 L 37.068811,17.246167 C 37.068811,17.246167 37.088388,32 37.088388,32 L 22.160133,31.978069 C 22.160133,31.978069 26.997745,27.140456 26.997745,27.140456 C 18.528582,18.264221 13.291696,25.230495 11.500037,31.436501 z"
             style="fill:#404040;"/>
          </a>
         </g>
        </svg>
</svg>
