<?xml version="1.0" encoding="UTF-8" standalone="no"?>
<!DOCTYPE svg PUBLIC "-//W3C//DTD SVG 1.1//EN"
 "http://www.w3.org/Graphics/SVG/1.1/DTD/svg11.dtd">
<!-- Generated by graphviz version 2.44.1 (20200629.0800)
 -->
<!-- Title: TInterface::EraseLocationNameText Pages: 1 -->
<!--zoomable 369 -->
<svg id="main" version="1.1" xmlns="http://www.w3.org/2000/svg" xmlns:xlink="http://www.w3.org/1999/xlink" xml:space="preserve" onload="init(evt)">
<style type="text/css"><![CDATA[
.edge:hover path { stroke: red; }
.edge:hover polygon { stroke: red; fill: red; }
]]></style>
<script type="text/javascript"><![CDATA[
var edges = document.getElementsByTagName('g');
if (edges && edges.length) {
  for (var i=0;i<edges.length;i++) {
    if (edges[i].id.substr(0,4)=='edge') {
      edges[i].setAttribute('class','edge');
    }
  }
}
]]></script>
        <defs>
                <circle id="rim" cx="0" cy="0" r="7"/>
                <circle id="rim2" cx="0" cy="0" r="3.5"/>
                <g id="zoomPlus">
                        <use xlink:href="#rim" fill="#404040">
                                <set attributeName="fill" to="#808080" begin="zoomplus.mouseover" end="zoomplus.mouseout"/>
                        </use>
                        <path d="M-4,0h8M0,-4v8" fill="none" stroke="white" stroke-width="1.5" pointer-events="none"/>
                </g>
                <g id="zoomMin">
                        <use xlink:href="#rim" fill="#404040">
                                <set attributeName="fill" to="#808080" begin="zoomminus.mouseover" end="zoomminus.mouseout"/>
                        </use>
                        <path d="M-4,0h8" fill="none" stroke="white" stroke-width="1.5" pointer-events="none"/>
                </g>
                <g id="dirArrow">
                        <path fill="none" stroke="white" stroke-width="1.5" d="M0,-3.0v7 M-2.5,-0.5L0,-3.0L2.5,-0.5"/>
                </g>
               <g id="resetDef">
                       <use xlink:href="#rim2" fill="#404040">
                               <set attributeName="fill" to="#808080" begin="reset.mouseover" end="reset.mouseout"/>
                       </use>
               </g>
        </defs>

<script type="text/javascript">
var viewWidth = 792;
var viewHeight = 369;
var sectionId = 'dynsection-93';
</script>
<script xlink:href="svgpan.js"/>
<svg id="graph" class="graph">
<g id="viewport">
<title>TInterface::EraseLocationNameText</title>
<polygon fill="white" stroke="transparent" points="-4,4 -4,-365.13 788,-365.13 788,4 -4,4"/>
<!-- Node1 -->
<g id="node1" class="node">
<title>Node1</title>
<g id="a_node1"><a xlink:title="Erase a location name (providing it exists in LocationNameMultiMap) from TextVector,...">
<polygon fill="#bfbfbf" stroke="black" points="0,-138.78 0,-168.78 127,-168.78 127,-138.78 0,-138.78"/>
<text text-anchor="start" x="8" y="-156.78" font-family="Helvetica,sans-Serif" font-size="10.00">TInterface::EraseLocation</text>
<text text-anchor="middle" x="63.5" y="-145.78" font-family="Helvetica,sans-Serif" font-size="10.00">NameText</text>
</a>
</g>
</g>
<!-- Node2 -->
<g id="node2" class="node">
<title>Node2</title>
<g id="a_node2"><a xlink:href="class_t_utilities.html#ae1eddca13cc3c492839e131f40ec21c0" target="_top" xlink:title="&lt; specifies whether no delays or minor, moderate or major random delays are to be applied">
<polygon fill="white" stroke="black" points="674,-240.28 674,-259.28 784,-259.28 784,-240.28 674,-240.28"/>
<text text-anchor="middle" x="729" y="-247.28" font-family="Helvetica,sans-Serif" font-size="10.00">TUtilities::CallLogPop</text>
</a>
</g>
</g>
<!-- Node1&#45;&gt;Node2 -->
<g id="edge1" class="edge">
<title>Node1&#45;&gt;Node2</title>
<path fill="none" stroke="midnightblue" d="M86.3,-168.96C146.24,-209.49 319.97,-319 484,-345.78 551.55,-356.8 575.2,-372.99 638,-345.78 674.48,-329.97 702.95,-291.29 717.45,-268.14"/>
<polygon fill="midnightblue" stroke="midnightblue" points="720.46,-269.93 722.63,-259.56 714.46,-266.31 720.46,-269.93"/>
</g>
<!-- Node3 -->
<g id="node3" class="node">
<title>Node3</title>
<g id="a_node3"><a xlink:href="class_t_text_handler.html#a0fb5dca23fd07e642c611381b6344746" target="_top" xlink:title="look in TextVector for text item &#39;Name&#39;, and if found return true and return its position in &amp;HPos an...">
<polygon fill="white" stroke="black" points="327,-97.28 327,-116.28 444,-116.28 444,-97.28 327,-97.28"/>
<text text-anchor="middle" x="385.5" y="-104.28" font-family="Helvetica,sans-Serif" font-size="10.00">TTextHandler::FindText</text>
</a>
</g>
</g>
<!-- Node1&#45;&gt;Node3 -->
<g id="edge2" class="edge">
<title>Node1&#45;&gt;Node3</title>
<path fill="none" stroke="midnightblue" d="M127.34,-144.55C181.92,-136.53 260.76,-124.95 316.74,-116.73"/>
<polygon fill="midnightblue" stroke="midnightblue" points="317.53,-120.15 326.91,-115.24 316.51,-113.23 317.53,-120.15"/>
</g>
<!-- Node5 -->
<g id="node5" class="node">
<title>Node5</title>
<g id="a_node5"><a xlink:href="class_t_utilities.html#a34bd6bb5305bc29afdf424f6d35a921c" target="_top" xlink:title="creates a string of the form &#39;hh:mm:ss&#39; for use in call &amp; event logging">
<polygon fill="white" stroke="black" points="674,-88.28 674,-107.28 784,-107.28 784,-88.28 674,-88.28"/>
<text text-anchor="middle" x="729" y="-95.28" font-family="Helvetica,sans-Serif" font-size="10.00">TUtilities::TimeStamp</text>
</a>
</g>
</g>
<!-- Node1&#45;&gt;Node5 -->
<g id="edge27" class="edge">
<title>Node1&#45;&gt;Node5</title>
<path fill="none" stroke="midnightblue" d="M89.86,-138.58C135,-112.31 233.01,-58.72 323,-32.78 392.28,-12.8 412.03,-17.23 484,-12.78 552.31,-8.55 574.4,12.51 638,-12.78 671.92,-26.27 700.45,-59.28 715.81,-79.97"/>
<polygon fill="midnightblue" stroke="midnightblue" points="713.07,-82.15 721.74,-88.24 718.76,-78.07 713.07,-82.15"/>
</g>
<!-- Node6 -->
<g id="node6" class="node">
<title>Node6</title>
<g id="a_node6"><a xlink:href="class_t_text_handler.html#a5741d1b36f1245b55926cb1243046307" target="_top" xlink:title="look for a text item in the vicinity of HPosInput &amp; VPosInput &amp; if TextToErase is null then erase any...">
<polygon fill="white" stroke="black" points="163,-157.28 163,-176.28 287,-176.28 287,-157.28 163,-157.28"/>
<text text-anchor="middle" x="225" y="-164.28" font-family="Helvetica,sans-Serif" font-size="10.00">TTextHandler::TextErase</text>
</a>
</g>
</g>
<!-- Node1&#45;&gt;Node6 -->
<g id="edge8" class="edge">
<title>Node1&#45;&gt;Node6</title>
<path fill="none" stroke="midnightblue" d="M127.08,-158.88C135.55,-159.57 144.29,-160.28 152.89,-160.98"/>
<polygon fill="midnightblue" stroke="midnightblue" points="152.65,-164.47 162.91,-161.8 153.22,-157.5 152.65,-164.47"/>
</g>
<!-- Node3&#45;&gt;Node2 -->
<g id="edge3" class="edge">
<title>Node3&#45;&gt;Node2</title>
<path fill="none" stroke="midnightblue" d="M406.64,-116.33C420.15,-123.7 437.37,-135.12 448,-149.78 480.43,-194.52 439.63,-235.85 484,-268.78 547.97,-316.26 649.13,-284 698.68,-263.33"/>
<polygon fill="midnightblue" stroke="midnightblue" points="700.07,-266.54 707.88,-259.38 697.31,-260.11 700.07,-266.54"/>
</g>
<!-- Node4 -->
<g id="node4" class="node">
<title>Node4</title>
<g id="a_node4"><a xlink:href="class_t_text_handler.html#a7dfd4e30235878fb01e7387715e0cb0f" target="_top" xlink:title="return the number of items in TextVector">
<polygon fill="white" stroke="black" points="488,-88.28 488,-107.28 634,-107.28 634,-88.28 488,-88.28"/>
<text text-anchor="middle" x="561" y="-95.28" font-family="Helvetica,sans-Serif" font-size="10.00">TTextHandler::TextVectorSize</text>
</a>
</g>
</g>
<!-- Node3&#45;&gt;Node4 -->
<g id="edge4" class="edge">
<title>Node3&#45;&gt;Node4</title>
<path fill="none" stroke="midnightblue" d="M444.27,-103.78C454.99,-103.23 466.37,-102.63 477.66,-102.05"/>
<polygon fill="midnightblue" stroke="midnightblue" points="478.17,-105.53 487.97,-101.51 477.8,-98.54 478.17,-105.53"/>
</g>
<!-- Node3&#45;&gt;Node5 -->
<g id="edge7" class="edge">
<title>Node3&#45;&gt;Node5</title>
<path fill="none" stroke="midnightblue" d="M397.2,-97.19C414.15,-82.7 448.88,-55.86 484,-45.78 549.79,-26.89 571.89,-28.05 638,-45.78 664.12,-52.78 690.51,-69.41 707.89,-81.99"/>
<polygon fill="midnightblue" stroke="midnightblue" points="706.01,-84.95 716.11,-88.13 710.19,-79.34 706.01,-84.95"/>
</g>
<!-- Node4&#45;&gt;Node2 -->
<g id="edge5" class="edge">
<title>Node4&#45;&gt;Node2</title>
<path fill="none" stroke="midnightblue" d="M619.61,-107.31C626.13,-109.78 632.43,-112.88 638,-116.78 679.71,-145.96 707.7,-201.17 720.33,-230.43"/>
<polygon fill="midnightblue" stroke="midnightblue" points="717.21,-232.06 724.28,-239.95 723.68,-229.37 717.21,-232.06"/>
</g>
<!-- Node4&#45;&gt;Node5 -->
<g id="edge6" class="edge">
<title>Node4&#45;&gt;Node5</title>
<path fill="none" stroke="midnightblue" d="M634.33,-97.78C644.08,-97.78 654.03,-97.78 663.63,-97.78"/>
<polygon fill="midnightblue" stroke="midnightblue" points="663.89,-101.28 673.89,-97.78 663.89,-94.28 663.89,-101.28"/>
</g>
<!-- Node6&#45;&gt;Node2 -->
<g id="edge25" class="edge">
<title>Node6&#45;&gt;Node2</title>
<path fill="none" stroke="midnightblue" d="M236.75,-176.5C270.22,-206.04 376.83,-294.57 484,-324.78 549.88,-343.35 573.64,-348.08 638,-324.78 669.51,-313.37 697.74,-285.58 713.86,-267.22"/>
<polygon fill="midnightblue" stroke="midnightblue" points="716.58,-269.43 720.38,-259.54 711.24,-264.9 716.58,-269.43"/>
</g>
<!-- Node6&#45;&gt;Node5 -->
<g id="edge26" class="edge">
<title>Node6&#45;&gt;Node5</title>
<path fill="none" stroke="midnightblue" d="M235.65,-157.03C252.21,-140.76 287.7,-107.87 323,-87.78 389.23,-50.09 408.96,-42.09 484,-28.78 551.39,-16.82 573.18,-6.79 638,-28.78 668.12,-39 696.07,-63.8 712.59,-80.71"/>
<polygon fill="midnightblue" stroke="midnightblue" points="710.33,-83.41 719.74,-88.28 715.42,-78.6 710.33,-83.41"/>
</g>
<!-- Node7 -->
<g id="node7" class="node">
<title>Node7</title>
<g id="a_node7"><a xlink:href="class_t_track.html#a20a28eaf0308f7aedcfc78ba9eeadea9" target="_top" xlink:title="Examine TrackVector, InactiveTrackVector and TextVector, and set the values that indicate the extent ...">
<polygon fill="white" stroke="black" points="323,-159.28 323,-178.28 448,-178.28 448,-159.28 323,-159.28"/>
<text text-anchor="middle" x="385.5" y="-166.28" font-family="Helvetica,sans-Serif" font-size="10.00">TTrack::CalcHLocMinEtc</text>
</a>
</g>
</g>
<!-- Node6&#45;&gt;Node7 -->
<g id="edge9" class="edge">
<title>Node6&#45;&gt;Node7</title>
<path fill="none" stroke="midnightblue" d="M287.28,-167.55C295.58,-167.66 304.16,-167.76 312.62,-167.87"/>
<polygon fill="midnightblue" stroke="midnightblue" points="312.82,-171.37 322.86,-168 312.9,-164.37 312.82,-171.37"/>
</g>
<!-- Node7&#45;&gt;Node2 -->
<g id="edge10" class="edge">
<title>Node7&#45;&gt;Node2</title>
<path fill="none" stroke="midnightblue" d="M390.04,-178.59C400.02,-204.56 431.14,-274.99 484,-301.78 545.05,-332.72 571.89,-319.5 638,-301.78 664.12,-294.77 690.51,-278.15 707.89,-265.57"/>
<polygon fill="midnightblue" stroke="midnightblue" points="710.19,-268.22 716.11,-259.43 706.01,-262.61 710.19,-268.22"/>
</g>
<!-- Node7&#45;&gt;Node4 -->
<g id="edge17" class="edge">
<title>Node7&#45;&gt;Node4</title>
<path fill="none" stroke="midnightblue" d="M401.81,-159.08C420.56,-147.58 453.56,-128.49 484,-116.78 490.4,-114.32 497.22,-112.09 504.05,-110.09"/>
<polygon fill="midnightblue" stroke="midnightblue" points="505.31,-113.38 514.02,-107.35 503.45,-106.63 505.31,-113.38"/>
</g>
<!-- Node7&#45;&gt;Node5 -->
<g id="edge18" class="edge">
<title>Node7&#45;&gt;Node5</title>
<path fill="none" stroke="midnightblue" d="M402.93,-159.23C415.94,-151.23 434.17,-139.02 448,-125.78 467.01,-107.58 460.41,-90.43 484,-78.78 552.61,-44.9 645.44,-68.09 694.46,-84.82"/>
<polygon fill="midnightblue" stroke="midnightblue" points="693.35,-88.14 703.95,-88.17 695.68,-81.54 693.35,-88.14"/>
</g>
<!-- Node8 -->
<g id="node8" class="node">
<title>Node8</title>
<g id="a_node8"><a xlink:href="class_t_track.html#a51f89cf70e94b037f6378cd78003d82b" target="_top" xlink:title="A range&#45;checked version of InactiveTrackVector.at(At)">
<polygon fill="white" stroke="black" points="484,-240.28 484,-259.28 638,-259.28 638,-240.28 484,-240.28"/>
<text text-anchor="middle" x="561" y="-247.28" font-family="Helvetica,sans-Serif" font-size="10.00">TTrack::InactiveTrackElementAt</text>
</a>
</g>
</g>
<!-- Node7&#45;&gt;Node8 -->
<g id="edge11" class="edge">
<title>Node7&#45;&gt;Node8</title>
<path fill="none" stroke="midnightblue" d="M398.7,-178.38C416.48,-191.94 451.01,-216.61 484,-230.78 489.74,-233.24 495.87,-235.44 502.06,-237.37"/>
<polygon fill="midnightblue" stroke="midnightblue" points="501.21,-240.77 511.79,-240.21 503.17,-234.05 501.21,-240.77"/>
</g>
<!-- Node9 -->
<g id="node9" class="node">
<title>Node9</title>
<g id="a_node9"><a xlink:href="class_t_text_handler.html#ac478536f458d9cda8a841953672f6525" target="_top" xlink:title="return the text item at position &#39;At&#39; in TextVector (carries out range checking)">
<polygon fill="white" stroke="black" points="500.5,-202.28 500.5,-221.28 621.5,-221.28 621.5,-202.28 500.5,-202.28"/>
<text text-anchor="middle" x="561" y="-209.28" font-family="Helvetica,sans-Serif" font-size="10.00">TTextHandler::TextPtrAt</text>
</a>
</g>
</g>
<!-- Node7&#45;&gt;Node9 -->
<g id="edge14" class="edge">
<title>Node7&#45;&gt;Node9</title>
<path fill="none" stroke="midnightblue" d="M425.01,-178.32C450.61,-184.67 484.44,-193.05 511.83,-199.84"/>
<polygon fill="midnightblue" stroke="midnightblue" points="511.05,-203.25 521.6,-202.26 512.74,-196.46 511.05,-203.25"/>
</g>
<!-- Node10 -->
<g id="node10" class="node">
<title>Node10</title>
<g id="a_node10"><a xlink:href="class_t_track.html#ad377e5a1f152f2e89832c0f9bcfd261f" target="_top" xlink:title="A range&#45;checked version of TrackVector.at(At)">
<polygon fill="white" stroke="black" points="500,-164.28 500,-183.28 622,-183.28 622,-164.28 500,-164.28"/>
<text text-anchor="middle" x="561" y="-171.28" font-family="Helvetica,sans-Serif" font-size="10.00">TTrack::TrackElementAt</text>
</a>
</g>
</g>
<!-- Node7&#45;&gt;Node10 -->
<g id="edge19" class="edge">
<title>Node7&#45;&gt;Node10</title>
<path fill="none" stroke="midnightblue" d="M448.16,-170.55C461.59,-170.94 475.89,-171.35 489.63,-171.75"/>
<polygon fill="midnightblue" stroke="midnightblue" points="489.9,-175.26 500,-172.05 490.1,-168.26 489.9,-175.26"/>
</g>
<!-- Node11 -->
<g id="node11" class="node">
<title>Node11</title>
<g id="a_node11"><a xlink:href="class_t_track.html#a1092232428ee654facf8f53340c13f74" target="_top" xlink:title="A range&#45;checked version of UserGraphicVector.at(At)">
<polygon fill="white" stroke="black" points="489,-126.28 489,-145.28 633,-145.28 633,-126.28 489,-126.28"/>
<text text-anchor="middle" x="561" y="-133.28" font-family="Helvetica,sans-Serif" font-size="10.00">TTrack::UserGraphicVectorAt</text>
</a>
</g>
</g>
<!-- Node7&#45;&gt;Node11 -->
<g id="edge22" class="edge">
<title>Node7&#45;&gt;Node11</title>
<path fill="none" stroke="midnightblue" d="M436.68,-159.23C456.46,-155.47 479.35,-151.12 500,-147.19"/>
<polygon fill="midnightblue" stroke="midnightblue" points="500.76,-150.61 509.93,-145.3 499.45,-143.73 500.76,-150.61"/>
</g>
<!-- Node8&#45;&gt;Node2 -->
<g id="edge12" class="edge">
<title>Node8&#45;&gt;Node2</title>
<path fill="none" stroke="midnightblue" d="M638.2,-249.78C646.59,-249.78 655.07,-249.78 663.3,-249.78"/>
<polygon fill="midnightblue" stroke="midnightblue" points="663.57,-253.28 673.57,-249.78 663.57,-246.28 663.57,-253.28"/>
</g>
<!-- Node8&#45;&gt;Node5 -->
<g id="edge13" class="edge">
<title>Node8&#45;&gt;Node5</title>
<path fill="none" stroke="midnightblue" d="M619.61,-240.24C626.13,-237.78 632.43,-234.68 638,-230.78 679.71,-201.6 707.7,-146.39 720.33,-117.12"/>
<polygon fill="midnightblue" stroke="midnightblue" points="723.68,-118.19 724.28,-107.61 717.21,-115.5 723.68,-118.19"/>
</g>
<!-- Node9&#45;&gt;Node2 -->
<g id="edge15" class="edge">
<title>Node9&#45;&gt;Node2</title>
<path fill="none" stroke="midnightblue" d="M603.89,-221.37C625.89,-226.4 653.05,-232.62 676.35,-237.95"/>
<polygon fill="midnightblue" stroke="midnightblue" points="675.88,-241.44 686.41,-240.26 677.45,-234.61 675.88,-241.44"/>
</g>
<!-- Node9&#45;&gt;Node5 -->
<g id="edge16" class="edge">
<title>Node9&#45;&gt;Node5</title>
<path fill="none" stroke="midnightblue" d="M616.24,-202.27C623.83,-199.8 631.31,-196.69 638,-192.78 671.64,-173.12 700.6,-137.17 716.05,-115.57"/>
<polygon fill="midnightblue" stroke="midnightblue" points="718.98,-117.49 721.82,-107.29 713.24,-113.49 718.98,-117.49"/>
</g>
<!-- Node10&#45;&gt;Node2 -->
<g id="edge20" class="edge">
<title>Node10&#45;&gt;Node2</title>
<path fill="none" stroke="midnightblue" d="M610.2,-183.36C619.6,-185.91 629.25,-189.03 638,-192.78 663.33,-203.63 689.67,-221.16 707.26,-233.92"/>
<polygon fill="midnightblue" stroke="midnightblue" points="705.49,-236.96 715.61,-240.1 709.65,-231.34 705.49,-236.96"/>
</g>
<!-- Node10&#45;&gt;Node5 -->
<g id="edge21" class="edge">
<title>Node10&#45;&gt;Node5</title>
<path fill="none" stroke="midnightblue" d="M610.2,-164.2C619.6,-161.65 629.25,-158.53 638,-154.78 663.33,-143.92 689.67,-126.39 707.26,-113.63"/>
<polygon fill="midnightblue" stroke="midnightblue" points="709.65,-116.22 715.61,-107.46 705.49,-110.59 709.65,-116.22"/>
</g>
<!-- Node11&#45;&gt;Node2 -->
<g id="edge23" class="edge">
<title>Node11&#45;&gt;Node2</title>
<path fill="none" stroke="midnightblue" d="M616.24,-145.28C623.83,-147.76 631.31,-150.87 638,-154.78 671.64,-174.43 700.6,-210.39 716.05,-231.98"/>
<polygon fill="midnightblue" stroke="midnightblue" points="713.24,-234.06 721.82,-240.27 718.98,-230.06 713.24,-234.06"/>
</g>
<!-- Node11&#45;&gt;Node5 -->
<g id="edge24" class="edge">
<title>Node11&#45;&gt;Node5</title>
<path fill="none" stroke="midnightblue" d="M603.89,-126.19C625.89,-121.15 653.05,-114.93 676.35,-109.6"/>
<polygon fill="midnightblue" stroke="midnightblue" points="677.45,-112.94 686.41,-107.3 675.88,-106.12 677.45,-112.94"/>
</g>
</g>
</svg>
        <g id="navigator" transform="translate(0 0)" fill="#404254">
                <rect fill="#f2f5e9" fill-opacity="0.5" stroke="#606060" stroke-width=".5" x="0" y="0" width="60" height="60"/>
                <use id="zoomplus" xlink:href="#zoomPlus" x="17" y="9" onmousedown="handleZoom(evt,'in')"/>
                <use id="zoomminus" xlink:href="#zoomMin" x="42" y="9" onmousedown="handleZoom(evt,'out')"/>
                <use id="reset" xlink:href="#resetDef" x="30" y="36" onmousedown="handleReset()"/>
                <g id="arrowUp" xlink:href="#dirArrow" transform="translate(30 24)" onmousedown="handlePan(0,-1)">
                  <use xlink:href="#rim" fill="#404040">
                        <set attributeName="fill" to="#808080" begin="arrowUp.mouseover" end="arrowUp.mouseout"/>
                  </use>
                  <path fill="none" stroke="white" stroke-width="1.5" d="M0,-3.0v7 M-2.5,-0.5L0,-3.0L2.5,-0.5"/>
                </g>
                <g id="arrowRight" xlink:href="#dirArrow" transform="rotate(90) translate(36 -43)" onmousedown="handlePan(1,0)">
                  <use xlink:href="#rim" fill="#404040">
                        <set attributeName="fill" to="#808080" begin="arrowRight.mouseover" end="arrowRight.mouseout"/>
                  </use>
                  <path fill="none" stroke="white" stroke-width="1.5" d="M0,-3.0v7 M-2.5,-0.5L0,-3.0L2.5,-0.5"/>
                </g>
                <g id="arrowDown" xlink:href="#dirArrow" transform="rotate(180) translate(-30 -48)" onmousedown="handlePan(0,1)">
                  <use xlink:href="#rim" fill="#404040">
                        <set attributeName="fill" to="#808080" begin="arrowDown.mouseover" end="arrowDown.mouseout"/>
                  </use>
                  <path fill="none" stroke="white" stroke-width="1.5" d="M0,-3.0v7 M-2.5,-0.5L0,-3.0L2.5,-0.5"/>
                </g>
                <g id="arrowLeft" xlink:href="#dirArrow" transform="rotate(270) translate(-36 17)" onmousedown="handlePan(-1,0)">
                  <use xlink:href="#rim" fill="#404040">
                        <set attributeName="fill" to="#808080" begin="arrowLeft.mouseover" end="arrowLeft.mouseout"/>
                  </use>
                  <path fill="none" stroke="white" stroke-width="1.5" d="M0,-3.0v7 M-2.5,-0.5L0,-3.0L2.5,-0.5"/>
                </g>
        </g>
        <svg viewBox="0 0 15 15" width="100%" height="30px" preserveAspectRatio="xMaxYMin meet">
         <g id="arrow_out" transform="scale(0.3 0.3)">
          <a xlink:href="class_t_interface_a2bb21fd8e1e90095cf68d63a57e938ec_cgraph_org.svg" target="_base">
           <rect id="button" ry="5" rx="5" y="6" x="6" height="38" width="38"
                fill="#f2f5e9" fill-opacity="0.5" stroke="#606060" stroke-width="1.0"/>
           <path id="arrow"
             d="M 11.500037,31.436501 C 11.940474,20.09759 22.043105,11.32322 32.158766,21.979434 L 37.068811,17.246167 C 37.068811,17.246167 37.088388,32 37.088388,32 L 22.160133,31.978069 C 22.160133,31.978069 26.997745,27.140456 26.997745,27.140456 C 18.528582,18.264221 13.291696,25.230495 11.500037,31.436501 z"
             style="fill:#404040;"/>
          </a>
         </g>
        </svg>
</svg>
