<?xml version="1.0" encoding="UTF-8" standalone="no"?>
<!DOCTYPE svg PUBLIC "-//W3C//DTD SVG 1.1//EN"
 "http://www.w3.org/Graphics/SVG/1.1/DTD/svg11.dtd">
<!-- Generated by graphviz version 2.44.1 (20200629.0800)
 -->
<!-- Title: TTrainController::CheckStartPositionValidity Pages: 1 -->
<!--zoomable 347 -->
<svg id="main" version="1.1" xmlns="http://www.w3.org/2000/svg" xmlns:xlink="http://www.w3.org/1999/xlink" xml:space="preserve" onload="init(evt)">
<style type="text/css"><![CDATA[
.edge:hover path { stroke: red; }
.edge:hover polygon { stroke: red; fill: red; }
]]></style>
<script type="text/javascript"><![CDATA[
var edges = document.getElementsByTagName('g');
if (edges && edges.length) {
  for (var i=0;i<edges.length;i++) {
    if (edges[i].id.substr(0,4)=='edge') {
      edges[i].setAttribute('class','edge');
    }
  }
}
]]></script>
        <defs>
                <circle id="rim" cx="0" cy="0" r="7"/>
                <circle id="rim2" cx="0" cy="0" r="3.5"/>
                <g id="zoomPlus">
                        <use xlink:href="#rim" fill="#404040">
                                <set attributeName="fill" to="#808080" begin="zoomplus.mouseover" end="zoomplus.mouseout"/>
                        </use>
                        <path d="M-4,0h8M0,-4v8" fill="none" stroke="white" stroke-width="1.5" pointer-events="none"/>
                </g>
                <g id="zoomMin">
                        <use xlink:href="#rim" fill="#404040">
                                <set attributeName="fill" to="#808080" begin="zoomminus.mouseover" end="zoomminus.mouseout"/>
                        </use>
                        <path d="M-4,0h8" fill="none" stroke="white" stroke-width="1.5" pointer-events="none"/>
                </g>
                <g id="dirArrow">
                        <path fill="none" stroke="white" stroke-width="1.5" d="M0,-3.0v7 M-2.5,-0.5L0,-3.0L2.5,-0.5"/>
                </g>
               <g id="resetDef">
                       <use xlink:href="#rim2" fill="#404040">
                               <set attributeName="fill" to="#808080" begin="reset.mouseover" end="reset.mouseout"/>
                       </use>
               </g>
        </defs>

<script type="text/javascript">
var viewWidth = 652;
var viewHeight = 347;
var sectionId = 'dynsection-37';
</script>
<script xlink:href="svgpan.js"/>
<svg id="graph" class="graph">
<g id="viewport">
<title>TTrainController::CheckStartPositionValidity</title>
<polygon fill="white" stroke="transparent" points="-4,4 -4,-343.26 648,-343.26 648,4 -4,4"/>
<!-- Node1 -->
<g id="node1" class="node">
<title>Node1</title>
<g id="a_node1"><a xlink:title="A timetable validation function where train starting positions are checked for validity,...">
<polygon fill="#bfbfbf" stroke="black" points="0,-137.4 0,-167.4 139,-167.4 139,-137.4 0,-137.4"/>
<text text-anchor="start" x="8" y="-155.4" font-family="Helvetica,sans-Serif" font-size="10.00">TTrainController::CheckStart</text>
<text text-anchor="middle" x="69.5" y="-144.4" font-family="Helvetica,sans-Serif" font-size="10.00">PositionValidity</text>
</a>
</g>
</g>
<!-- Node2 -->
<g id="node2" class="node">
<title>Node2</title>
<g id="a_node2"><a xlink:href="class_t_utilities.html#ae1eddca13cc3c492839e131f40ec21c0" target="_top" xlink:title="pops the last entry off the call stack, throws an error if called when empty">
<polygon fill="white" stroke="black" points="534,-227.9 534,-246.9 644,-246.9 644,-227.9 534,-227.9"/>
<text text-anchor="middle" x="589" y="-234.9" font-family="Helvetica,sans-Serif" font-size="10.00">TUtilities::CallLogPop</text>
</a>
</g>
</g>
<!-- Node1&#45;&gt;Node2 -->
<g id="edge1" class="edge">
<title>Node1&#45;&gt;Node2</title>
<path fill="none" stroke="midnightblue" d="M84.59,-167.44C103.68,-187.18 139.47,-222.08 175,-245.4 243.82,-290.58 262.61,-305.65 343,-323.4 410.27,-338.26 434.06,-349.04 498,-323.4 532.07,-309.74 560.55,-276.34 575.86,-255.42"/>
<polygon fill="midnightblue" stroke="midnightblue" points="578.86,-257.24 581.77,-247.05 573.14,-253.2 578.86,-257.24"/>
</g>
<!-- Node3 -->
<g id="node3" class="node">
<title>Node3</title>
<g id="a_node3"><a xlink:href="class_t_track.html#a54d3b9daeb9ec0b45b0672e7273bf575" target="_top" xlink:title="Takes the ElementID value (an AnsiString) (e.g. &quot;8&#45;13&quot;, &quot;N43&#45;N127&quot;, etc) and returns the correspondin...">
<polygon fill="white" stroke="black" points="343,-47.4 343,-77.4 498,-77.4 498,-47.4 343,-47.4"/>
<text text-anchor="start" x="351" y="-65.4" font-family="Helvetica,sans-Serif" font-size="10.00">TTrack::GetTrackVectorPosition</text>
<text text-anchor="middle" x="420.5" y="-54.4" font-family="Helvetica,sans-Serif" font-size="10.00">FromString</text>
</a>
</g>
</g>
<!-- Node1&#45;&gt;Node3 -->
<g id="edge2" class="edge">
<title>Node1&#45;&gt;Node3</title>
<path fill="none" stroke="midnightblue" d="M88.39,-137.38C108.19,-121.7 141.71,-97.82 175,-86.4 225.56,-69.05 285.22,-62.94 332.95,-61.21"/>
<polygon fill="midnightblue" stroke="midnightblue" points="333.06,-64.71 342.95,-60.91 332.85,-57.72 333.06,-64.71"/>
</g>
<!-- Node4 -->
<g id="node4" class="node">
<title>Node4</title>
<g id="a_node4"><a xlink:href="class_t_utilities.html#a34bd6bb5305bc29afdf424f6d35a921c" target="_top" xlink:title="creates a string of the form &#39;hh:mm:ss&#39; for use in call &amp; event logging">
<polygon fill="white" stroke="black" points="534,-145.9 534,-164.9 644,-164.9 644,-145.9 534,-145.9"/>
<text text-anchor="middle" x="589" y="-152.9" font-family="Helvetica,sans-Serif" font-size="10.00">TUtilities::TimeStamp</text>
</a>
</g>
</g>
<!-- Node1&#45;&gt;Node4 -->
<g id="edge14" class="edge">
<title>Node1&#45;&gt;Node4</title>
<path fill="none" stroke="midnightblue" d="M82.44,-137.13C100.12,-115.74 135.46,-77.47 175,-59.4 305.87,0.41 369.04,26.43 498,-37.4 539.77,-58.08 567.45,-108.45 580.09,-136.23"/>
<polygon fill="midnightblue" stroke="midnightblue" points="577,-137.89 584.2,-145.66 583.41,-135.09 577,-137.89"/>
</g>
<!-- Node5 -->
<g id="node5" class="node">
<title>Node5</title>
<g id="a_node5"><a xlink:href="class_t_track.html#a73e781d0ada0b77618b886557f79b115" target="_top" xlink:title="True if a level crossing is found at H &amp; V.">
<polygon fill="white" stroke="black" points="193.5,-183.9 193.5,-202.9 288.5,-202.9 288.5,-183.9 193.5,-183.9"/>
<text text-anchor="middle" x="241" y="-190.9" font-family="Helvetica,sans-Serif" font-size="10.00">TTrack::IsLCAtHV</text>
</a>
</g>
</g>
<!-- Node1&#45;&gt;Node5 -->
<g id="edge5" class="edge">
<title>Node1&#45;&gt;Node5</title>
<path fill="none" stroke="midnightblue" d="M132.65,-167.44C151.79,-172.06 172.58,-177.09 190.72,-181.48"/>
<polygon fill="midnightblue" stroke="midnightblue" points="189.96,-184.9 200.5,-183.85 191.6,-178.09 189.96,-184.9"/>
</g>
<!-- Node8 -->
<g id="node8" class="node">
<title>Node8</title>
<g id="a_node8"><a xlink:href="class_t_train_controller.html#a68d2124bc8f7df43e973299e0afb3dcd" target="_top" xlink:title="Sends a message to the user if GiveMessages is true, including ServiceReference (see above) if not nu...">
<polygon fill="white" stroke="black" points="175,-96.4 175,-126.4 307,-126.4 307,-96.4 175,-96.4"/>
<text text-anchor="start" x="183" y="-114.4" font-family="Helvetica,sans-Serif" font-size="10.00">TTrainController::Timetable</text>
<text text-anchor="middle" x="241" y="-103.4" font-family="Helvetica,sans-Serif" font-size="10.00">Message</text>
</a>
</g>
</g>
<!-- Node1&#45;&gt;Node8 -->
<g id="edge15" class="edge">
<title>Node1&#45;&gt;Node8</title>
<path fill="none" stroke="midnightblue" d="M132.65,-137.37C144.17,-134.58 156.28,-131.65 168.06,-128.8"/>
<polygon fill="midnightblue" stroke="midnightblue" points="168.96,-132.19 177.85,-126.43 167.31,-125.38 168.96,-132.19"/>
</g>
<!-- Node10 -->
<g id="node10" class="node">
<title>Node10</title>
<g id="a_node10"><a xlink:href="class_t_track.html#ad377e5a1f152f2e89832c0f9bcfd261f" target="_top" xlink:title="A range&#45;checked version of TrackElement.at(At)">
<polygon fill="white" stroke="black" points="359.5,-271.9 359.5,-290.9 481.5,-290.9 481.5,-271.9 359.5,-271.9"/>
<text text-anchor="middle" x="420.5" y="-278.9" font-family="Helvetica,sans-Serif" font-size="10.00">TTrack::TrackElementAt</text>
</a>
</g>
</g>
<!-- Node1&#45;&gt;Node10 -->
<g id="edge20" class="edge">
<title>Node1&#45;&gt;Node10</title>
<path fill="none" stroke="midnightblue" d="M93.35,-167.6C114,-180.82 145.58,-199.78 175,-212.4 246.59,-243.11 267.84,-241.9 343,-262.4 351.63,-264.76 360.85,-267.15 369.78,-269.4"/>
<polygon fill="midnightblue" stroke="midnightblue" points="369.16,-272.86 379.71,-271.88 370.85,-266.06 369.16,-272.86"/>
</g>
<!-- Node3&#45;&gt;Node2 -->
<g id="edge3" class="edge">
<title>Node3&#45;&gt;Node2</title>
<path fill="none" stroke="midnightblue" d="M485.71,-77.6C490.15,-80.1 494.31,-83.01 498,-86.4 529.11,-115 511.97,-138.34 534,-174.4 544.35,-191.34 559.21,-208.3 570.72,-220.35"/>
<polygon fill="midnightblue" stroke="midnightblue" points="568.22,-222.8 577.72,-227.51 573.23,-217.91 568.22,-222.8"/>
</g>
<!-- Node3&#45;&gt;Node4 -->
<g id="edge4" class="edge">
<title>Node3&#45;&gt;Node4</title>
<path fill="none" stroke="midnightblue" d="M477.58,-77.48C484.61,-80.09 491.58,-83.06 498,-86.4 525.48,-100.67 553.16,-123.45 570.43,-138.9"/>
<polygon fill="midnightblue" stroke="midnightblue" points="568.27,-141.67 578.02,-145.82 572.99,-136.5 568.27,-141.67"/>
</g>
<!-- Node5&#45;&gt;Node2 -->
<g id="edge6" class="edge">
<title>Node5&#45;&gt;Node2</title>
<path fill="none" stroke="midnightblue" d="M247.26,-202.95C260.13,-225.16 295.62,-279.97 343,-300.4 406.26,-327.68 432.3,-321.11 498,-300.4 526.76,-291.33 554.33,-269.43 571.21,-254.01"/>
<polygon fill="midnightblue" stroke="midnightblue" points="573.72,-256.45 578.59,-247.04 568.91,-251.36 573.72,-256.45"/>
</g>
<!-- Node5&#45;&gt;Node4 -->
<g id="edge13" class="edge">
<title>Node5&#45;&gt;Node4</title>
<path fill="none" stroke="midnightblue" d="M287.08,-183.84C304.49,-180.43 324.6,-176.84 343,-174.4 404,-166.32 474.04,-161.32 523.57,-158.48"/>
<polygon fill="midnightblue" stroke="midnightblue" points="524.02,-161.96 533.81,-157.91 523.63,-154.97 524.02,-161.96"/>
</g>
<!-- Node6 -->
<g id="node6" class="node">
<title>Node6</title>
<g id="a_node6"><a xlink:href="class_t_track.html#a418966e6fefb71b9d0c9b941197832da" target="_top" xlink:title="Similar to GetVectorPositionFromTrackMap but for inactive elements, a pair is returned because there ...">
<polygon fill="white" stroke="black" points="352,-222.4 352,-252.4 489,-252.4 489,-222.4 352,-222.4"/>
<text text-anchor="start" x="360" y="-240.4" font-family="Helvetica,sans-Serif" font-size="10.00">TTrack::GetVectorPositions</text>
<text text-anchor="middle" x="420.5" y="-229.4" font-family="Helvetica,sans-Serif" font-size="10.00">FromInactiveTrackMap</text>
</a>
</g>
</g>
<!-- Node5&#45;&gt;Node6 -->
<g id="edge7" class="edge">
<title>Node5&#45;&gt;Node6</title>
<path fill="none" stroke="midnightblue" d="M280.51,-202.95C300.5,-207.9 325.55,-214.11 348.86,-219.89"/>
<polygon fill="midnightblue" stroke="midnightblue" points="348.18,-223.33 358.72,-222.34 349.86,-216.53 348.18,-223.33"/>
</g>
<!-- Node7 -->
<g id="node7" class="node">
<title>Node7</title>
<g id="a_node7"><a xlink:href="class_t_track.html#a51f89cf70e94b037f6378cd78003d82b" target="_top" xlink:title="A range&#45;checked version of InactiveTrackElement.at(At)">
<polygon fill="white" stroke="black" points="343.5,-183.9 343.5,-202.9 497.5,-202.9 497.5,-183.9 343.5,-183.9"/>
<text text-anchor="middle" x="420.5" y="-190.9" font-family="Helvetica,sans-Serif" font-size="10.00">TTrack::InactiveTrackElementAt</text>
</a>
</g>
</g>
<!-- Node5&#45;&gt;Node7 -->
<g id="edge10" class="edge">
<title>Node5&#45;&gt;Node7</title>
<path fill="none" stroke="midnightblue" d="M288.64,-193.4C302.37,-193.4 317.86,-193.4 333.24,-193.4"/>
<polygon fill="midnightblue" stroke="midnightblue" points="333.32,-196.9 343.32,-193.4 333.32,-189.9 333.32,-196.9"/>
</g>
<!-- Node6&#45;&gt;Node2 -->
<g id="edge8" class="edge">
<title>Node6&#45;&gt;Node2</title>
<path fill="none" stroke="midnightblue" d="M489.22,-237.4C500.6,-237.4 512.37,-237.4 523.66,-237.4"/>
<polygon fill="midnightblue" stroke="midnightblue" points="523.86,-240.9 533.86,-237.4 523.86,-233.9 523.86,-240.9"/>
</g>
<!-- Node6&#45;&gt;Node4 -->
<g id="edge9" class="edge">
<title>Node6&#45;&gt;Node4</title>
<path fill="none" stroke="midnightblue" d="M473.62,-222.31C481.91,-219.35 490.29,-216.03 498,-212.4 522.79,-200.72 549.04,-183.47 566.74,-171"/>
<polygon fill="midnightblue" stroke="midnightblue" points="569.07,-173.64 575.17,-164.98 565,-167.95 569.07,-173.64"/>
</g>
<!-- Node7&#45;&gt;Node2 -->
<g id="edge11" class="edge">
<title>Node7&#45;&gt;Node2</title>
<path fill="none" stroke="midnightblue" d="M458.09,-202.93C470.73,-206.23 484.99,-209.97 498,-213.4 512.47,-217.22 528.24,-221.42 542.48,-225.21"/>
<polygon fill="midnightblue" stroke="midnightblue" points="541.97,-228.7 552.53,-227.9 543.77,-221.94 541.97,-228.7"/>
</g>
<!-- Node7&#45;&gt;Node4 -->
<g id="edge12" class="edge">
<title>Node7&#45;&gt;Node4</title>
<path fill="none" stroke="midnightblue" d="M463.51,-183.81C485.68,-178.75 513.07,-172.5 536.51,-167.15"/>
<polygon fill="midnightblue" stroke="midnightblue" points="537.32,-170.56 546.29,-164.92 535.76,-163.73 537.32,-170.56"/>
</g>
<!-- Node9 -->
<g id="node9" class="node">
<title>Node9</title>
<g id="a_node9"><a xlink:href="class_t_train_controller.html#a1ccd6c8f2c24e7417889e1a91cb9ca2f" target="_top" xlink:title="Returns true if the headcode complies with requirements.">
<polygon fill="white" stroke="black" points="350.5,-96.4 350.5,-126.4 490.5,-126.4 490.5,-96.4 350.5,-96.4"/>
<text text-anchor="start" x="358.5" y="-114.4" font-family="Helvetica,sans-Serif" font-size="10.00">TTrainController::CheckHead</text>
<text text-anchor="middle" x="420.5" y="-103.4" font-family="Helvetica,sans-Serif" font-size="10.00">CodeValidity</text>
</a>
</g>
</g>
<!-- Node8&#45;&gt;Node9 -->
<g id="edge16" class="edge">
<title>Node8&#45;&gt;Node9</title>
<path fill="none" stroke="midnightblue" d="M307.09,-104.87C317.84,-104.67 329.1,-104.61 340.16,-104.69"/>
<polygon fill="midnightblue" stroke="midnightblue" points="340.2,-108.19 350.24,-104.8 340.28,-101.19 340.2,-108.19"/>
</g>
<!-- Node9&#45;&gt;Node2 -->
<g id="edge17" class="edge">
<title>Node9&#45;&gt;Node2</title>
<path fill="none" stroke="midnightblue" d="M441.58,-126.6C473.37,-150.65 534.94,-197.25 567.18,-221.64"/>
<polygon fill="midnightblue" stroke="midnightblue" points="565.36,-224.66 575.44,-227.9 569.58,-219.07 565.36,-224.66"/>
</g>
<!-- Node9&#45;&gt;Node4 -->
<g id="edge18" class="edge">
<title>Node9&#45;&gt;Node4</title>
<path fill="none" stroke="midnightblue" d="M478.33,-126.42C499.03,-131.89 522.16,-138 541.82,-143.2"/>
<polygon fill="midnightblue" stroke="midnightblue" points="541.19,-146.65 551.75,-145.82 542.98,-139.88 541.19,-146.65"/>
</g>
<!-- Node9&#45;&gt;Node8 -->
<g id="edge19" class="edge">
<title>Node9&#45;&gt;Node8</title>
<path fill="none" stroke="midnightblue" d="M350.24,-118C339.37,-118.17 328.08,-118.2 317.09,-118.08"/>
<polygon fill="midnightblue" stroke="midnightblue" points="317.14,-114.58 307.09,-117.93 317.03,-121.58 317.14,-114.58"/>
</g>
<!-- Node10&#45;&gt;Node2 -->
<g id="edge21" class="edge">
<title>Node10&#45;&gt;Node2</title>
<path fill="none" stroke="midnightblue" d="M460.86,-271.84C472.81,-268.89 485.96,-265.57 498,-262.4 513.16,-258.41 529.71,-253.87 544.43,-249.76"/>
<polygon fill="midnightblue" stroke="midnightblue" points="545.61,-253.07 554.3,-247 543.72,-246.33 545.61,-253.07"/>
</g>
<!-- Node10&#45;&gt;Node4 -->
<g id="edge22" class="edge">
<title>Node10&#45;&gt;Node4</title>
<path fill="none" stroke="midnightblue" d="M477.96,-271.82C485,-269.37 491.87,-266.28 498,-262.4 519.35,-248.89 517.78,-237.77 534,-218.4 546.93,-202.97 561.83,-185.61 572.7,-173.03"/>
<polygon fill="midnightblue" stroke="midnightblue" points="575.61,-175.01 579.51,-165.16 570.32,-170.43 575.61,-175.01"/>
</g>
</g>
</svg>
        <g id="navigator" transform="translate(0 0)" fill="#404254">
                <rect fill="#f2f5e9" fill-opacity="0.5" stroke="#606060" stroke-width=".5" x="0" y="0" width="60" height="60"/>
                <use id="zoomplus" xlink:href="#zoomPlus" x="17" y="9" onmousedown="handleZoom(evt,'in')"/>
                <use id="zoomminus" xlink:href="#zoomMin" x="42" y="9" onmousedown="handleZoom(evt,'out')"/>
                <use id="reset" xlink:href="#resetDef" x="30" y="36" onmousedown="handleReset()"/>
                <g id="arrowUp" xlink:href="#dirArrow" transform="translate(30 24)" onmousedown="handlePan(0,-1)">
                  <use xlink:href="#rim" fill="#404040">
                        <set attributeName="fill" to="#808080" begin="arrowUp.mouseover" end="arrowUp.mouseout"/>
                  </use>
                  <path fill="none" stroke="white" stroke-width="1.5" d="M0,-3.0v7 M-2.5,-0.5L0,-3.0L2.5,-0.5"/>
                </g>
                <g id="arrowRight" xlink:href="#dirArrow" transform="rotate(90) translate(36 -43)" onmousedown="handlePan(1,0)">
                  <use xlink:href="#rim" fill="#404040">
                        <set attributeName="fill" to="#808080" begin="arrowRight.mouseover" end="arrowRight.mouseout"/>
                  </use>
                  <path fill="none" stroke="white" stroke-width="1.5" d="M0,-3.0v7 M-2.5,-0.5L0,-3.0L2.5,-0.5"/>
                </g>
                <g id="arrowDown" xlink:href="#dirArrow" transform="rotate(180) translate(-30 -48)" onmousedown="handlePan(0,1)">
                  <use xlink:href="#rim" fill="#404040">
                        <set attributeName="fill" to="#808080" begin="arrowDown.mouseover" end="arrowDown.mouseout"/>
                  </use>
                  <path fill="none" stroke="white" stroke-width="1.5" d="M0,-3.0v7 M-2.5,-0.5L0,-3.0L2.5,-0.5"/>
                </g>
                <g id="arrowLeft" xlink:href="#dirArrow" transform="rotate(270) translate(-36 17)" onmousedown="handlePan(-1,0)">
                  <use xlink:href="#rim" fill="#404040">
                        <set attributeName="fill" to="#808080" begin="arrowLeft.mouseover" end="arrowLeft.mouseout"/>
                  </use>
                  <path fill="none" stroke="white" stroke-width="1.5" d="M0,-3.0v7 M-2.5,-0.5L0,-3.0L2.5,-0.5"/>
                </g>
        </g>
        <svg viewBox="0 0 15 15" width="100%" height="30px" preserveAspectRatio="xMaxYMin meet">
         <g id="arrow_out" transform="scale(0.3 0.3)">
          <a xlink:href="class_t_train_controller_a5c9711cc69c8332cf7db5e0b2696ca45_cgraph_org.svg" target="_base">
           <rect id="button" ry="5" rx="5" y="6" x="6" height="38" width="38"
                fill="#f2f5e9" fill-opacity="0.5" stroke="#606060" stroke-width="1.0"/>
           <path id="arrow"
             d="M 11.500037,31.436501 C 11.940474,20.09759 22.043105,11.32322 32.158766,21.979434 L 37.068811,17.246167 C 37.068811,17.246167 37.088388,32 37.088388,32 L 22.160133,31.978069 C 22.160133,31.978069 26.997745,27.140456 26.997745,27.140456 C 18.528582,18.264221 13.291696,25.230495 11.500037,31.436501 z"
             style="fill:#404040;"/>
          </a>
         </g>
        </svg>
</svg>
