<?xml version="1.0" encoding="UTF-8" standalone="no"?>
<!DOCTYPE svg PUBLIC "-//W3C//DTD SVG 1.1//EN"
 "http://www.w3.org/Graphics/SVG/1.1/DTD/svg11.dtd">
<!-- Generated by graphviz version 2.44.1 (20200629.0800)
 -->
<!-- Title: TTrack::TTrack Pages: 1 -->
<svg width="422pt" height="66pt"
 viewBox="0.00 0.00 422.00 66.00" xmlns="http://www.w3.org/2000/svg" xmlns:xlink="http://www.w3.org/1999/xlink">
<g id="graph0" class="graph" transform="scale(1 1) rotate(0) translate(4 62)">
<title>TTrack::TTrack</title>
<polygon fill="white" stroke="transparent" points="-4,4 -4,-62 418,-62 418,4 -4,4"/>
<!-- Node1 -->
<g id="node1" class="node">
<title>Node1</title>
<g id="a_node1"><a xlink:title="Constructor, only one object of this class.">
<polygon fill="#bfbfbf" stroke="black" points="0,-19.5 0,-38.5 81,-38.5 81,-19.5 0,-19.5"/>
<text text-anchor="middle" x="40.5" y="-26.5" font-family="Helvetica,sans-Serif" font-size="10.00">TTrack::TTrack</text>
</a>
</g>
</g>
<!-- Node2 -->
<g id="node2" class="node">
<title>Node2</title>
<g id="a_node2"><a xlink:href="class_t_graphic_element.html#a82c786873b196ec443f052dedac8b1c1" target="_top" xlink:title="Load the temporary overlay graphic.">
<polygon fill="white" stroke="black" points="117,-14 117,-44 268,-44 268,-14 117,-14"/>
<text text-anchor="start" x="125" y="-32" font-family="Helvetica,sans-Serif" font-size="10.00">TGraphicElement::LoadOverlay</text>
<text text-anchor="middle" x="192.5" y="-21" font-family="Helvetica,sans-Serif" font-size="10.00">Graphic</text>
</a>
</g>
</g>
<!-- Node1&#45;&gt;Node2 -->
<g id="edge1" class="edge">
<title>Node1&#45;&gt;Node2</title>
<path fill="none" stroke="midnightblue" d="M81.3,-29C89.31,-29 98.01,-29 106.9,-29"/>
<polygon fill="midnightblue" stroke="midnightblue" points="106.98,-32.5 116.98,-29 106.98,-25.5 106.98,-32.5"/>
</g>
<!-- Node3 -->
<g id="node3" class="node">
<title>Node3</title>
<g id="a_node3"><a xlink:href="class_t_utilities.html#ae1eddca13cc3c492839e131f40ec21c0" target="_top" xlink:title="pops the last entry off the call stack, throws an error if called when empty">
<polygon fill="white" stroke="black" points="304,-38.5 304,-57.5 414,-57.5 414,-38.5 304,-38.5"/>
<text text-anchor="middle" x="359" y="-45.5" font-family="Helvetica,sans-Serif" font-size="10.00">TUtilities::CallLogPop</text>
</a>
</g>
</g>
<!-- Node2&#45;&gt;Node3 -->
<g id="edge2" class="edge">
<title>Node2&#45;&gt;Node3</title>
<path fill="none" stroke="midnightblue" d="M268.05,-37.61C276.63,-38.6 285.33,-39.61 293.76,-40.58"/>
<polygon fill="midnightblue" stroke="midnightblue" points="293.54,-44.08 303.88,-41.75 294.35,-37.12 293.54,-44.08"/>
</g>
<!-- Node4 -->
<g id="node4" class="node">
<title>Node4</title>
<g id="a_node4"><a xlink:href="class_t_utilities.html#a34bd6bb5305bc29afdf424f6d35a921c" target="_top" xlink:title="creates a string of the form &#39;hh:mm:ss&#39; for use in call &amp; event logging">
<polygon fill="white" stroke="black" points="304,-0.5 304,-19.5 414,-19.5 414,-0.5 304,-0.5"/>
<text text-anchor="middle" x="359" y="-7.5" font-family="Helvetica,sans-Serif" font-size="10.00">TUtilities::TimeStamp</text>
</a>
</g>
</g>
<!-- Node2&#45;&gt;Node4 -->
<g id="edge3" class="edge">
<title>Node2&#45;&gt;Node4</title>
<path fill="none" stroke="midnightblue" d="M268.05,-20.39C276.63,-19.4 285.33,-18.39 293.76,-17.42"/>
<polygon fill="midnightblue" stroke="midnightblue" points="294.35,-20.88 303.88,-16.25 293.54,-13.92 294.35,-20.88"/>
</g>
</g>
</svg>
