<?xml version="1.0" encoding="UTF-8" standalone="no"?>
<!DOCTYPE svg PUBLIC "-//W3C//DTD SVG 1.1//EN"
 "http://www.w3.org/Graphics/SVG/1.1/DTD/svg11.dtd">
<!-- Generated by graphviz version 2.44.1 (20200629.0800)
 -->
<!-- Title: TTrack::IsPlatformOrNamedNonStationLocationPresent Pages: 1 -->
<svg width="481pt" height="113pt"
 viewBox="0.00 0.00 481.00 113.06" xmlns="http://www.w3.org/2000/svg" xmlns:xlink="http://www.w3.org/1999/xlink">
<g id="graph0" class="graph" transform="scale(1 1) rotate(0) translate(4 109.06)">
<title>TTrack::IsPlatformOrNamedNonStationLocationPresent</title>
<polygon fill="white" stroke="transparent" points="-4,4 -4,-109.06 477,-109.06 477,4 -4,4"/>
<!-- Node1 -->
<g id="node1" class="node">
<title>Node1</title>
<g id="a_node1"><a xlink:title="True if a non&#45;station named location or platform at HLoc &amp; VLoc.">
<polygon fill="#bfbfbf" stroke="black" points="0,-33.83 0,-63.83 137,-63.83 137,-33.83 0,-33.83"/>
<text text-anchor="start" x="8" y="-51.83" font-family="Helvetica,sans-Serif" font-size="10.00">TTrack::IsPlatformOrNamed</text>
<text text-anchor="middle" x="68.5" y="-40.83" font-family="Helvetica,sans-Serif" font-size="10.00">NonStationLocationPresent</text>
</a>
</g>
</g>
<!-- Node2 -->
<g id="node2" class="node">
<title>Node2</title>
<g id="a_node2"><a xlink:href="class_t_utilities.html#ae1eddca13cc3c492839e131f40ec21c0" target="_top" xlink:title="pops the last entry off the call stack, throws an error if called when empty">
<polygon fill="white" stroke="black" points="363,-61.33 363,-80.33 473,-80.33 473,-61.33 363,-61.33"/>
<text text-anchor="middle" x="418" y="-68.33" font-family="Helvetica,sans-Serif" font-size="10.00">TUtilities::CallLogPop</text>
</a>
</g>
</g>
<!-- Node1&#45;&gt;Node2 -->
<g id="edge1" class="edge">
<title>Node1&#45;&gt;Node2</title>
<path fill="none" stroke="midnightblue" d="M94.81,-64.03C115.14,-75.31 144.84,-89.74 173,-95.83 239.9,-110.31 259.18,-105.08 327,-95.83 344.83,-93.4 364.11,-88.38 380.24,-83.47"/>
<polygon fill="midnightblue" stroke="midnightblue" points="381.34,-86.8 389.83,-80.46 379.24,-80.12 381.34,-86.8"/>
</g>
<!-- Node3 -->
<g id="node3" class="node">
<title>Node3</title>
<g id="a_node3"><a xlink:href="class_t_track.html#a418966e6fefb71b9d0c9b941197832da" target="_top" xlink:title="Similar to GetVectorPositionFromTrackMap but for inactive elements, a pair is returned because there ...">
<polygon fill="white" stroke="black" points="181.5,-55.83 181.5,-85.83 318.5,-85.83 318.5,-55.83 181.5,-55.83"/>
<text text-anchor="start" x="189.5" y="-73.83" font-family="Helvetica,sans-Serif" font-size="10.00">TTrack::GetVectorPositions</text>
<text text-anchor="middle" x="250" y="-62.83" font-family="Helvetica,sans-Serif" font-size="10.00">FromInactiveTrackMap</text>
</a>
</g>
</g>
<!-- Node1&#45;&gt;Node3 -->
<g id="edge2" class="edge">
<title>Node1&#45;&gt;Node3</title>
<path fill="none" stroke="midnightblue" d="M137.11,-57.12C148.33,-58.5 160.04,-59.93 171.49,-61.33"/>
<polygon fill="midnightblue" stroke="midnightblue" points="171.1,-64.81 181.46,-62.56 171.96,-57.87 171.1,-64.81"/>
</g>
<!-- Node4 -->
<g id="node4" class="node">
<title>Node4</title>
<g id="a_node4"><a xlink:href="class_t_utilities.html#a34bd6bb5305bc29afdf424f6d35a921c" target="_top" xlink:title="creates a string of the form &#39;hh:mm:ss&#39; for use in call &amp; event logging">
<polygon fill="white" stroke="black" points="363,-17.33 363,-36.33 473,-36.33 473,-17.33 363,-17.33"/>
<text text-anchor="middle" x="418" y="-24.33" font-family="Helvetica,sans-Serif" font-size="10.00">TUtilities::TimeStamp</text>
</a>
</g>
</g>
<!-- Node1&#45;&gt;Node4 -->
<g id="edge8" class="edge">
<title>Node1&#45;&gt;Node4</title>
<path fill="none" stroke="midnightblue" d="M98.94,-33.71C119.18,-24.19 146.99,-12.8 173,-7.83 240.23,5 258.93,-0.73 327,-7.83 341.31,-9.33 356.7,-12.13 370.64,-15.12"/>
<polygon fill="midnightblue" stroke="midnightblue" points="369.97,-18.56 380.49,-17.33 371.5,-11.73 369.97,-18.56"/>
</g>
<!-- Node5 -->
<g id="node5" class="node">
<title>Node5</title>
<g id="a_node5"><a xlink:href="class_t_track.html#a51f89cf70e94b037f6378cd78003d82b" target="_top" xlink:title="A range&#45;checked version of InactiveTrackVector.at(At)">
<polygon fill="white" stroke="black" points="173,-17.33 173,-36.33 327,-36.33 327,-17.33 173,-17.33"/>
<text text-anchor="middle" x="250" y="-24.33" font-family="Helvetica,sans-Serif" font-size="10.00">TTrack::InactiveTrackElementAt</text>
</a>
</g>
</g>
<!-- Node1&#45;&gt;Node5 -->
<g id="edge5" class="edge">
<title>Node1&#45;&gt;Node5</title>
<path fill="none" stroke="midnightblue" d="M137.11,-40.55C145.46,-39.52 154.09,-38.47 162.68,-37.41"/>
<polygon fill="midnightblue" stroke="midnightblue" points="163.23,-40.87 172.73,-36.18 162.37,-33.93 163.23,-40.87"/>
</g>
<!-- Node3&#45;&gt;Node2 -->
<g id="edge3" class="edge">
<title>Node3&#45;&gt;Node2</title>
<path fill="none" stroke="midnightblue" d="M318.52,-70.83C329.79,-70.83 341.45,-70.83 352.64,-70.83"/>
<polygon fill="midnightblue" stroke="midnightblue" points="352.76,-74.33 362.76,-70.83 352.76,-67.33 352.76,-74.33"/>
</g>
<!-- Node3&#45;&gt;Node4 -->
<g id="edge4" class="edge">
<title>Node3&#45;&gt;Node4</title>
<path fill="none" stroke="midnightblue" d="M307.66,-55.82C328.3,-50.35 351.36,-44.23 370.96,-39.04"/>
<polygon fill="midnightblue" stroke="midnightblue" points="372.09,-42.36 380.86,-36.41 370.3,-35.59 372.09,-42.36"/>
</g>
<!-- Node5&#45;&gt;Node2 -->
<g id="edge6" class="edge">
<title>Node5&#45;&gt;Node2</title>
<path fill="none" stroke="midnightblue" d="M290.1,-36.4C301.97,-39.36 315.03,-42.68 327,-45.83 342.16,-49.83 358.71,-54.38 373.43,-58.49"/>
<polygon fill="midnightblue" stroke="midnightblue" points="372.72,-61.92 383.29,-61.25 374.61,-55.18 372.72,-61.92"/>
</g>
<!-- Node5&#45;&gt;Node4 -->
<g id="edge7" class="edge">
<title>Node5&#45;&gt;Node4</title>
<path fill="none" stroke="midnightblue" d="M327.2,-26.83C335.59,-26.83 344.07,-26.83 352.3,-26.83"/>
<polygon fill="midnightblue" stroke="midnightblue" points="352.57,-30.33 362.57,-26.83 352.57,-23.33 352.57,-30.33"/>
</g>
</g>
</svg>
