<?xml version="1.0" encoding="UTF-8" standalone="no"?>
<!DOCTYPE svg PUBLIC "-//W3C//DTD SVG 1.1//EN"
 "http://www.w3.org/Graphics/SVG/1.1/DTD/svg11.dtd">
<!-- Generated by graphviz version 2.44.1 (20200629.0800)
 -->
<!-- Title: TInterface::NoDelaysMenuItemClick Pages: 1 -->
<svg width="475pt" height="66pt"
 viewBox="0.00 0.00 475.00 66.00" xmlns="http://www.w3.org/2000/svg" xmlns:xlink="http://www.w3.org/1999/xlink">
<g id="graph0" class="graph" transform="scale(1 1) rotate(0) translate(4 62)">
<title>TInterface::NoDelaysMenuItemClick</title>
<polygon fill="white" stroke="transparent" points="-4,4 -4,-62 471,-62 471,4 -4,4"/>
<!-- Node1 -->
<g id="node1" class="node">
<title>Node1</title>
<g id="a_node1"><a xlink:title=" ">
<polygon fill="#bfbfbf" stroke="black" points="0,-14 0,-44 131,-44 131,-14 0,-14"/>
<text text-anchor="start" x="8" y="-32" font-family="Helvetica,sans-Serif" font-size="10.00">TInterface::NoDelaysMenu</text>
<text text-anchor="middle" x="65.5" y="-21" font-family="Helvetica,sans-Serif" font-size="10.00">ItemClick</text>
</a>
</g>
</g>
<!-- Node2 -->
<g id="node2" class="node">
<title>Node2</title>
<g id="a_node2"><a xlink:href="class_t_perf_log_form.html#a72f06bf03353c15c94ceefbf420ff7b4" target="_top" xlink:title="Send Statement to the performance log on screen and to the file.">
<polygon fill="white" stroke="black" points="167,-19.5 167,-38.5 321,-38.5 321,-19.5 167,-19.5"/>
<text text-anchor="middle" x="244" y="-26.5" font-family="Helvetica,sans-Serif" font-size="10.00">TPerfLogForm::PerformanceLog</text>
</a>
</g>
</g>
<!-- Node1&#45;&gt;Node2 -->
<g id="edge1" class="edge">
<title>Node1&#45;&gt;Node2</title>
<path fill="none" stroke="midnightblue" d="M131.22,-29C139.56,-29 148.21,-29 156.83,-29"/>
<polygon fill="midnightblue" stroke="midnightblue" points="156.92,-32.5 166.92,-29 156.92,-25.5 156.92,-32.5"/>
</g>
<!-- Node3 -->
<g id="node3" class="node">
<title>Node3</title>
<g id="a_node3"><a xlink:href="class_t_utilities.html#ae1eddca13cc3c492839e131f40ec21c0" target="_top" xlink:title="pops the last entry off the call stack, throws an error if called when empty">
<polygon fill="white" stroke="black" points="357,-38.5 357,-57.5 467,-57.5 467,-38.5 357,-38.5"/>
<text text-anchor="middle" x="412" y="-45.5" font-family="Helvetica,sans-Serif" font-size="10.00">TUtilities::CallLogPop</text>
</a>
</g>
</g>
<!-- Node2&#45;&gt;Node3 -->
<g id="edge2" class="edge">
<title>Node2&#45;&gt;Node3</title>
<path fill="none" stroke="midnightblue" d="M321.2,-37.72C329.68,-38.69 338.26,-39.67 346.58,-40.63"/>
<polygon fill="midnightblue" stroke="midnightblue" points="346.23,-44.11 356.57,-41.77 347.03,-37.16 346.23,-44.11"/>
</g>
<!-- Node4 -->
<g id="node4" class="node">
<title>Node4</title>
<g id="a_node4"><a xlink:href="class_t_utilities.html#a34bd6bb5305bc29afdf424f6d35a921c" target="_top" xlink:title="creates a string of the form &#39;hh:mm:ss&#39; for use in call &amp; event logging">
<polygon fill="white" stroke="black" points="357,-0.5 357,-19.5 467,-19.5 467,-0.5 357,-0.5"/>
<text text-anchor="middle" x="412" y="-7.5" font-family="Helvetica,sans-Serif" font-size="10.00">TUtilities::TimeStamp</text>
</a>
</g>
</g>
<!-- Node2&#45;&gt;Node4 -->
<g id="edge3" class="edge">
<title>Node2&#45;&gt;Node4</title>
<path fill="none" stroke="midnightblue" d="M321.2,-20.28C329.68,-19.31 338.26,-18.33 346.58,-17.37"/>
<polygon fill="midnightblue" stroke="midnightblue" points="347.03,-20.84 356.57,-16.23 346.23,-13.89 347.03,-20.84"/>
</g>
</g>
</svg>
