<?xml version="1.0" encoding="UTF-8" standalone="no"?>
<!DOCTYPE svg PUBLIC "-//W3C//DTD SVG 1.1//EN"
 "http://www.w3.org/Graphics/SVG/1.1/DTD/svg11.dtd">
<!-- Generated by graphviz version 2.44.1 (20200629.0800)
 -->
<!-- Title: TOnePrefDir::BiDirectionalPrefDir Pages: 1 -->
<svg width="480pt" height="69pt"
 viewBox="0.00 0.00 480.00 69.04" xmlns="http://www.w3.org/2000/svg" xmlns:xlink="http://www.w3.org/1999/xlink">
<g id="graph0" class="graph" transform="scale(1 1) rotate(0) translate(4 65.04)">
<title>TOnePrefDir::BiDirectionalPrefDir</title>
<polygon fill="white" stroke="transparent" points="-4,4 -4,-65.04 476,-65.04 476,4 -4,4"/>
<!-- Node1 -->
<g id="node1" class="node">
<title>Node1</title>
<g id="a_node1"><a xlink:title="Determines whether the preferred direction pointed to has another pref dir in the opposite direction ...">
<polygon fill="#bfbfbf" stroke="black" points="0,-16 0,-46 130,-46 130,-16 0,-16"/>
<text text-anchor="start" x="8" y="-34" font-family="Helvetica,sans-Serif" font-size="10.00">TOnePrefDir::BiDirectional</text>
<text text-anchor="middle" x="65" y="-23" font-family="Helvetica,sans-Serif" font-size="10.00">PrefDir</text>
</a>
</g>
</g>
<!-- Node2 -->
<g id="node2" class="node">
<title>Node2</title>
<g id="a_node2"><a xlink:href="class_t_utilities.html#ae1eddca13cc3c492839e131f40ec21c0" target="_top" xlink:title="&lt; specifies whether no delays or minor, moderate or major random delays are to be applied">
<polygon fill="white" stroke="black" points="362,-41.5 362,-60.5 472,-60.5 472,-41.5 362,-41.5"/>
<text text-anchor="middle" x="417" y="-48.5" font-family="Helvetica,sans-Serif" font-size="10.00">TUtilities::CallLogPop</text>
</a>
</g>
</g>
<!-- Node1&#45;&gt;Node2 -->
<g id="edge1" class="edge">
<title>Node1&#45;&gt;Node2</title>
<path fill="none" stroke="midnightblue" d="M115.91,-46.03C131.77,-50.11 149.48,-53.97 166,-56 228.68,-63.72 300.86,-61.05 351.49,-57.31"/>
<polygon fill="midnightblue" stroke="midnightblue" points="351.94,-60.78 361.64,-56.52 351.4,-53.8 351.94,-60.78"/>
</g>
<!-- Node3 -->
<g id="node3" class="node">
<title>Node3</title>
<g id="a_node3"><a xlink:href="class_t_one_pref_dir.html#a820f6cc109de519289e6a63dac835ebc" target="_top" xlink:title="Return up to 4 vector positions for a given HLoc &amp; VLoc; unused values return &#45;1.">
<polygon fill="white" stroke="black" points="166,-16 166,-46 326,-46 326,-16 166,-16"/>
<text text-anchor="start" x="174" y="-34" font-family="Helvetica,sans-Serif" font-size="10.00">TOnePrefDir::GetVectorPositions</text>
<text text-anchor="middle" x="246" y="-23" font-family="Helvetica,sans-Serif" font-size="10.00">FromPrefDir4MultiMap</text>
</a>
</g>
</g>
<!-- Node1&#45;&gt;Node3 -->
<g id="edge2" class="edge">
<title>Node1&#45;&gt;Node3</title>
<path fill="none" stroke="midnightblue" d="M130.12,-31C138.41,-31 147.02,-31 155.63,-31"/>
<polygon fill="midnightblue" stroke="midnightblue" points="155.71,-34.5 165.71,-31 155.71,-27.5 155.71,-34.5"/>
</g>
<!-- Node4 -->
<g id="node4" class="node">
<title>Node4</title>
<g id="a_node4"><a xlink:href="class_t_utilities.html#a34bd6bb5305bc29afdf424f6d35a921c" target="_top" xlink:title="creates a string of the form &#39;hh:mm:ss&#39; for use in call &amp; event logging">
<polygon fill="white" stroke="black" points="362,-0.5 362,-19.5 472,-19.5 472,-0.5 362,-0.5"/>
<text text-anchor="middle" x="417" y="-7.5" font-family="Helvetica,sans-Serif" font-size="10.00">TUtilities::TimeStamp</text>
</a>
</g>
</g>
<!-- Node1&#45;&gt;Node4 -->
<g id="edge5" class="edge">
<title>Node1&#45;&gt;Node4</title>
<path fill="none" stroke="midnightblue" d="M115.91,-15.97C131.77,-11.89 149.48,-8.03 166,-6 228.68,1.72 300.85,-0.63 351.49,-4.09"/>
<polygon fill="midnightblue" stroke="midnightblue" points="351.41,-7.6 361.64,-4.82 351.91,-0.61 351.41,-7.6"/>
</g>
<!-- Node3&#45;&gt;Node2 -->
<g id="edge3" class="edge">
<title>Node3&#45;&gt;Node2</title>
<path fill="none" stroke="midnightblue" d="M326.06,-40.36C334.61,-41.37 343.23,-42.39 351.58,-43.38"/>
<polygon fill="midnightblue" stroke="midnightblue" points="351.26,-46.86 361.6,-44.56 352.08,-39.91 351.26,-46.86"/>
</g>
<!-- Node3&#45;&gt;Node4 -->
<g id="edge4" class="edge">
<title>Node3&#45;&gt;Node4</title>
<path fill="none" stroke="midnightblue" d="M326.06,-21.18C334.61,-20.11 343.23,-19.04 351.58,-18"/>
<polygon fill="midnightblue" stroke="midnightblue" points="352.11,-21.47 361.6,-16.76 351.25,-14.52 352.11,-21.47"/>
</g>
</g>
</svg>
