<?xml version="1.0" encoding="UTF-8" standalone="no"?>
<!DOCTYPE svg PUBLIC "-//W3C//DTD SVG 1.1//EN"
 "http://www.w3.org/Graphics/SVG/1.1/DTD/svg11.dtd">
<!-- Generated by graphviz version 2.44.1 (20200629.0800)
 -->
<!-- Title: TInterface::NoRailway Pages: 1 -->
<svg width="866pt" height="2153pt"
 viewBox="0.00 0.00 866.00 2152.50" xmlns="http://www.w3.org/2000/svg" xmlns:xlink="http://www.w3.org/1999/xlink">
<g id="graph0" class="graph" transform="scale(1 1) rotate(0) translate(4 2148.5)">
<title>TInterface::NoRailway</title>
<polygon fill="white" stroke="transparent" points="-4,4 -4,-2148.5 862,-2148.5 862,4 -4,4"/>
<!-- Node1 -->
<g id="node1" class="node">
<title>Node1</title>
<g id="a_node1"><a xlink:title="Returns true if there are no track elements and no text.">
<polygon fill="#bfbfbf" stroke="black" points="748,-1103.5 748,-1122.5 858,-1122.5 858,-1103.5 748,-1103.5"/>
<text text-anchor="middle" x="803" y="-1110.5" font-family="Helvetica,sans-Serif" font-size="10.00">TInterface::NoRailway</text>
</a>
</g>
</g>
<!-- Node2 -->
<g id="node2" class="node">
<title>Node2</title>
<g id="a_node2"><a xlink:href="class_t_interface.html#abf07d5edc1507de381825f17620748b2" target="_top" xlink:title="Called when mouse button clicked in zoom&#45;in mode.">
<polygon fill="white" stroke="black" points="208,-2114 208,-2144 354,-2144 354,-2114 208,-2114"/>
<text text-anchor="start" x="216" y="-2132" font-family="Helvetica,sans-Serif" font-size="10.00">TInterface::MainScreenMouse</text>
<text text-anchor="middle" x="281" y="-2121" font-family="Helvetica,sans-Serif" font-size="10.00">Down2</text>
</a>
</g>
</g>
<!-- Node1&#45;&gt;Node2 -->
<g id="edge1" class="edge">
<title>Node1&#45;&gt;Node2</title>
<path fill="none" stroke="midnightblue" d="M799.16,-1132.5C781.78,-1244.89 679.49,-1814.95 356,-2105 352.18,-2108.43 347.86,-2111.36 343.28,-2113.88"/>
<polygon fill="midnightblue" stroke="midnightblue" points="802.63,-1132.98 800.66,-1122.57 795.71,-1131.94 802.63,-1132.98"/>
</g>
<!-- Node4 -->
<g id="node4" class="node">
<title>Node4</title>
<g id="a_node4"><a xlink:href="class_t_interface.html#a579c493d9b17fb9133a144b828d1105e" target="_top" xlink:title="Enables or disables the initial Edit mode submenu items in Track mode.">
<polygon fill="white" stroke="black" points="586,-1054 586,-1084 712,-1084 712,-1054 586,-1054"/>
<text text-anchor="start" x="594" y="-1072" font-family="Helvetica,sans-Serif" font-size="10.00">TInterface::SetInitialTrack</text>
<text text-anchor="middle" x="649" y="-1061" font-family="Helvetica,sans-Serif" font-size="10.00">ModeEditMenu</text>
</a>
</g>
</g>
<!-- Node1&#45;&gt;Node4 -->
<g id="edge3" class="edge">
<title>Node1&#45;&gt;Node4</title>
<path fill="none" stroke="midnightblue" d="M758.97,-1100.54C741.26,-1095.42 720.59,-1089.44 702.04,-1084.07"/>
<polygon fill="midnightblue" stroke="midnightblue" points="758.44,-1104.03 769.02,-1103.45 760.39,-1097.31 758.44,-1104.03"/>
</g>
<!-- Node7 -->
<g id="node7" class="node">
<title>Node7</title>
<g id="a_node7"><a xlink:href="class_t_interface.html#acf77f2eeeac0775fde4f25ba46099e0b" target="_top" xlink:title="Sets the Level1 user mode, using the Level1Mode variable to determine the mode.">
<polygon fill="white" stroke="red" points="405.5,-1065.5 405.5,-1084.5 536.5,-1084.5 536.5,-1065.5 405.5,-1065.5"/>
<text text-anchor="middle" x="471" y="-1072.5" font-family="Helvetica,sans-Serif" font-size="10.00">TInterface::SetLevel1Mode</text>
</a>
</g>
</g>
<!-- Node1&#45;&gt;Node7 -->
<g id="edge55" class="edge">
<title>Node1&#45;&gt;Node7</title>
<path fill="none" stroke="midnightblue" d="M737.68,-1108.65C694.65,-1105.42 636.82,-1100.46 586,-1094 565.6,-1091.41 543.26,-1087.84 523.8,-1084.5"/>
<polygon fill="midnightblue" stroke="midnightblue" points="737.5,-1112.15 747.73,-1109.4 738.01,-1105.17 737.5,-1112.15"/>
</g>
<!-- Node3 -->
<g id="node3" class="node">
<title>Node3</title>
<g id="a_node3"><a xlink:href="class_t_interface.html#a7f37862fb9e01e1328d9fd3fd8c50094" target="_top" xlink:title=" ">
<polygon fill="white" stroke="black" points="0,-2094.5 0,-2113.5 170,-2113.5 170,-2094.5 0,-2094.5"/>
<text text-anchor="middle" x="85" y="-2101.5" font-family="Helvetica,sans-Serif" font-size="10.00">TInterface::MainScreenMouseDown</text>
</a>
</g>
</g>
<!-- Node2&#45;&gt;Node3 -->
<g id="edge2" class="edge">
<title>Node2&#45;&gt;Node3</title>
<path fill="none" stroke="midnightblue" d="M197.77,-2118.4C185.2,-2116.78 172.29,-2115.12 159.92,-2113.53"/>
<polygon fill="midnightblue" stroke="midnightblue" points="197.4,-2121.88 207.76,-2119.69 198.29,-2114.94 197.4,-2121.88"/>
</g>
<!-- Node5 -->
<g id="node5" class="node">
<title>Node5</title>
<g id="a_node5"><a xlink:href="class_t_interface.html#a8c96de45b013362b03ad0e8725a7c64b" target="_top" xlink:title="Called when mouse button clicked in zoom&#45;out mode.">
<polygon fill="white" stroke="black" points="208,-2065 208,-2095 354,-2095 354,-2065 208,-2065"/>
<text text-anchor="start" x="216" y="-2083" font-family="Helvetica,sans-Serif" font-size="10.00">TInterface::MainScreenMouse</text>
<text text-anchor="middle" x="281" y="-2072" font-family="Helvetica,sans-Serif" font-size="10.00">Down3</text>
</a>
</g>
</g>
<!-- Node4&#45;&gt;Node5 -->
<g id="edge4" class="edge">
<title>Node4&#45;&gt;Node5</title>
<path fill="none" stroke="midnightblue" d="M581.14,-1086.7C509.3,-1106.37 403.78,-1137.4 392,-1153 331.49,-1233.13 416.65,-1975.97 356,-2056 353.39,-2059.44 350.28,-2062.4 346.82,-2064.94"/>
<polygon fill="midnightblue" stroke="midnightblue" points="582.31,-1090.01 591.04,-1084 580.47,-1083.25 582.31,-1090.01"/>
</g>
<!-- Node6 -->
<g id="node6" class="node">
<title>Node6</title>
<g id="a_node6"><a xlink:href="class_t_interface.html#a03280ee86df28a9a7cf4473cdf7b9f8b" target="_top" xlink:title=" ">
<polygon fill="white" stroke="black" points="392,-1027.5 392,-1046.5 550,-1046.5 550,-1027.5 392,-1027.5"/>
<text text-anchor="middle" x="471" y="-1034.5" font-family="Helvetica,sans-Serif" font-size="10.00">TInterface::MainScreenMouseUp</text>
</a>
</g>
</g>
<!-- Node4&#45;&gt;Node6 -->
<g id="edge6" class="edge">
<title>Node4&#45;&gt;Node6</title>
<path fill="none" stroke="midnightblue" d="M575.92,-1055.89C558.69,-1052.76 540.62,-1049.48 524.46,-1046.54"/>
<polygon fill="midnightblue" stroke="midnightblue" points="575.48,-1059.37 585.95,-1057.72 576.74,-1052.49 575.48,-1059.37"/>
</g>
<!-- Node4&#45;&gt;Node7 -->
<g id="edge7" class="edge">
<title>Node4&#45;&gt;Node7</title>
<path fill="none" stroke="midnightblue" d="M575.72,-1071.46C562.82,-1071.9 549.45,-1072.36 536.77,-1072.79"/>
<polygon fill="midnightblue" stroke="midnightblue" points="576.07,-1074.95 585.95,-1071.12 575.84,-1067.96 576.07,-1074.95"/>
</g>
<!-- Node82 -->
<g id="node50" class="node">
<title>Node82</title>
<g id="a_node50"><a xlink:href="class_t_interface.html#a08305797df7dfbdd16b3e8900c33e0bc" target="_top" xlink:title=" ">
<polygon fill="white" stroke="black" points="211.5,-0.5 211.5,-19.5 350.5,-19.5 350.5,-0.5 211.5,-0.5"/>
<text text-anchor="middle" x="281" y="-7.5" font-family="Helvetica,sans-Serif" font-size="10.00">TInterface::ZoomButtonClick</text>
</a>
</g>
</g>
<!-- Node4&#45;&gt;Node82 -->
<g id="edge54" class="edge">
<title>Node4&#45;&gt;Node82</title>
<path fill="none" stroke="midnightblue" d="M644.35,-1043.68C623.03,-899.15 510.2,-179.79 356,-29 352.11,-25.2 347.57,-22.13 342.69,-19.65"/>
<polygon fill="midnightblue" stroke="midnightblue" points="640.92,-1044.39 645.83,-1053.78 647.84,-1043.38 640.92,-1044.39"/>
</g>
<!-- Node5&#45;&gt;Node3 -->
<g id="edge5" class="edge">
<title>Node5&#45;&gt;Node3</title>
<path fill="none" stroke="midnightblue" d="M197.7,-2090.18C186.14,-2091.61 174.3,-2093.08 162.85,-2094.49"/>
<polygon fill="midnightblue" stroke="midnightblue" points="198.27,-2093.64 207.76,-2088.94 197.41,-2086.69 198.27,-2093.64"/>
</g>
<!-- Node7&#45;&gt;Node2 -->
<g id="edge43" class="edge">
<title>Node7&#45;&gt;Node2</title>
<path fill="none" stroke="midnightblue" d="M446.62,-1090.69C428.08,-1104.61 403.44,-1126.79 392,-1153 349.65,-1250.01 419.85,-2020.57 356,-2105 353.39,-2108.45 350.28,-2111.41 346.83,-2113.95"/>
<polygon fill="midnightblue" stroke="midnightblue" points="448.84,-1093.4 454.9,-1084.71 444.74,-1087.73 448.84,-1093.4"/>
</g>
<!-- Node7&#45;&gt;Node5 -->
<g id="edge44" class="edge">
<title>Node7&#45;&gt;Node5</title>
<path fill="none" stroke="midnightblue" d="M417.82,-1088.75C407.7,-1093.8 398.29,-1100.67 392,-1110 333.17,-1197.2 419.46,-1972.11 356,-2056 353.39,-2059.45 350.28,-2062.41 346.83,-2064.95"/>
<polygon fill="midnightblue" stroke="midnightblue" points="419.5,-1091.83 427.25,-1084.6 416.68,-1085.42 419.5,-1091.83"/>
</g>
<!-- Node8 -->
<g id="node8" class="node">
<title>Node8</title>
<g id="a_node8"><a xlink:href="class_t_interface.html#a30904d608111ce6452a9861d86b64267" target="_top" xlink:title=" ">
<polygon fill="white" stroke="black" points="215.5,-2016 215.5,-2046 346.5,-2046 346.5,-2016 215.5,-2016"/>
<text text-anchor="start" x="223.5" y="-2034" font-family="Helvetica,sans-Serif" font-size="10.00">TInterface::AddMinsButton</text>
<text text-anchor="middle" x="281" y="-2023" font-family="Helvetica,sans-Serif" font-size="10.00">Click</text>
</a>
</g>
</g>
<!-- Node7&#45;&gt;Node8 -->
<g id="edge8" class="edge">
<title>Node7&#45;&gt;Node8</title>
<path fill="none" stroke="midnightblue" d="M417.83,-1088.76C407.71,-1093.81 398.3,-1100.68 392,-1110 336.13,-1192.63 416.26,-1927.51 356,-2007 353.39,-2010.44 350.27,-2013.4 346.82,-2015.94"/>
<polygon fill="midnightblue" stroke="midnightblue" points="419.52,-1091.84 427.26,-1084.61 416.7,-1085.43 419.52,-1091.84"/>
</g>
<!-- Node9 -->
<g id="node9" class="node">
<title>Node9</title>
<g id="a_node9"><a xlink:href="class_t_interface.html#a1b1a4260e251c9bd5f48fd6c3432e7a5" target="_top" xlink:title=" ">
<polygon fill="white" stroke="black" points="211,-1967 211,-1997 351,-1997 351,-1967 211,-1967"/>
<text text-anchor="start" x="219" y="-1985" font-family="Helvetica,sans-Serif" font-size="10.00">TInterface::AddPrefDirButton</text>
<text text-anchor="middle" x="281" y="-1974" font-family="Helvetica,sans-Serif" font-size="10.00">Click</text>
</a>
</g>
</g>
<!-- Node7&#45;&gt;Node9 -->
<g id="edge9" class="edge">
<title>Node7&#45;&gt;Node9</title>
<path fill="none" stroke="midnightblue" d="M417.85,-1088.77C407.72,-1093.82 398.31,-1100.69 392,-1110 339.08,-1188.06 413.06,-1882.91 356,-1958 353.39,-1961.44 350.27,-1964.4 346.81,-1966.94"/>
<polygon fill="midnightblue" stroke="midnightblue" points="419.53,-1091.85 427.28,-1084.62 416.71,-1085.44 419.53,-1091.85"/>
</g>
<!-- Node10 -->
<g id="node10" class="node">
<title>Node10</title>
<g id="a_node10"><a xlink:href="class_t_interface.html#a0abab134f4994b02507e1e2d3f31cd77" target="_top" xlink:title=" ">
<polygon fill="white" stroke="black" points="212.5,-1918 212.5,-1948 349.5,-1948 349.5,-1918 212.5,-1918"/>
<text text-anchor="start" x="220.5" y="-1936" font-family="Helvetica,sans-Serif" font-size="10.00">TInterface::AddSubMinsBox</text>
<text text-anchor="middle" x="281" y="-1925" font-family="Helvetica,sans-Serif" font-size="10.00">KeyUp</text>
</a>
</g>
</g>
<!-- Node7&#45;&gt;Node10 -->
<g id="edge10" class="edge">
<title>Node7&#45;&gt;Node10</title>
<path fill="none" stroke="midnightblue" d="M417.87,-1088.78C407.74,-1093.83 398.32,-1100.7 392,-1110 342.04,-1183.5 409.86,-1838.31 356,-1909 353.38,-1912.44 350.26,-1915.39 346.8,-1917.93"/>
<polygon fill="midnightblue" stroke="midnightblue" points="419.55,-1091.86 427.29,-1084.63 416.73,-1085.46 419.55,-1091.86"/>
</g>
<!-- Node11 -->
<g id="node11" class="node">
<title>Node11</title>
<g id="a_node11"><a xlink:href="class_t_interface.html#aa20c05bf2d6c23035a10a89796334d0f" target="_top" xlink:title=" ">
<polygon fill="white" stroke="black" points="216.5,-1869 216.5,-1899 345.5,-1899 345.5,-1869 216.5,-1869"/>
<text text-anchor="start" x="224.5" y="-1887" font-family="Helvetica,sans-Serif" font-size="10.00">TInterface::AddTextButton</text>
<text text-anchor="middle" x="281" y="-1876" font-family="Helvetica,sans-Serif" font-size="10.00">Click</text>
</a>
</g>
</g>
<!-- Node7&#45;&gt;Node11 -->
<g id="edge11" class="edge">
<title>Node7&#45;&gt;Node11</title>
<path fill="none" stroke="midnightblue" d="M417.89,-1088.8C407.76,-1093.85 398.34,-1100.71 392,-1110 297.99,-1247.86 457.32,-1727.43 356,-1860 353.13,-1863.76 349.66,-1866.93 345.81,-1869.62"/>
<polygon fill="midnightblue" stroke="midnightblue" points="419.57,-1091.88 427.31,-1084.65 416.75,-1085.47 419.57,-1091.88"/>
</g>
<!-- Node12 -->
<g id="node12" class="node">
<title>Node12</title>
<g id="a_node12"><a xlink:href="class_t_interface.html#a10494e62a7bb4e7114ab4d98e18499f1" target="_top" xlink:title=" ">
<polygon fill="white" stroke="black" points="214,-1820 214,-1850 348,-1850 348,-1820 214,-1820"/>
<text text-anchor="start" x="222" y="-1838" font-family="Helvetica,sans-Serif" font-size="10.00">TInterface::AddTrackButton</text>
<text text-anchor="middle" x="281" y="-1827" font-family="Helvetica,sans-Serif" font-size="10.00">Click</text>
</a>
</g>
</g>
<!-- Node7&#45;&gt;Node12 -->
<g id="edge12" class="edge">
<title>Node7&#45;&gt;Node12</title>
<path fill="none" stroke="midnightblue" d="M418.53,-1088.5C408.17,-1093.58 398.48,-1100.53 392,-1110 303.9,-1238.72 450.92,-1687.23 356,-1811 353.37,-1814.43 350.24,-1817.38 346.78,-1819.91"/>
<polygon fill="midnightblue" stroke="midnightblue" points="419.97,-1091.7 427.75,-1084.51 417.18,-1085.28 419.97,-1091.7"/>
</g>
<!-- Node13 -->
<g id="node13" class="node">
<title>Node13</title>
<g id="a_node13"><a xlink:href="class_t_interface.html#a189a4b05f27d6b5ec8b9a90ec1a9cc50" target="_top" xlink:title=" ">
<polygon fill="white" stroke="black" points="214.5,-1771 214.5,-1801 347.5,-1801 347.5,-1771 214.5,-1771"/>
<text text-anchor="start" x="222.5" y="-1789" font-family="Helvetica,sans-Serif" font-size="10.00">TInterface::AllEntriesTTList</text>
<text text-anchor="middle" x="281" y="-1778" font-family="Helvetica,sans-Serif" font-size="10.00">BoxMouseUp</text>
</a>
</g>
</g>
<!-- Node7&#45;&gt;Node13 -->
<g id="edge13" class="edge">
<title>Node7&#45;&gt;Node13</title>
<path fill="none" stroke="midnightblue" d="M418.56,-1088.52C408.19,-1093.6 398.5,-1100.54 392,-1110 309.82,-1229.59 444.53,-1647.02 356,-1762 353.36,-1765.42 350.23,-1768.37 346.76,-1770.9"/>
<polygon fill="midnightblue" stroke="midnightblue" points="419.99,-1091.72 427.77,-1084.52 417.21,-1085.29 419.99,-1091.72"/>
</g>
<!-- Node14 -->
<g id="node14" class="node">
<title>Node14</title>
<g id="a_node14"><a xlink:href="class_t_interface.html#a28579472104533fb5fd01066a22fbb5b" target="_top" xlink:title=" ">
<polygon fill="white" stroke="black" points="216.5,-1722 216.5,-1752 345.5,-1752 345.5,-1722 216.5,-1722"/>
<text text-anchor="start" x="224.5" y="-1740" font-family="Helvetica,sans-Serif" font-size="10.00">TInterface::AZOrderButton</text>
<text text-anchor="middle" x="281" y="-1729" font-family="Helvetica,sans-Serif" font-size="10.00">Click</text>
</a>
</g>
</g>
<!-- Node7&#45;&gt;Node14 -->
<g id="edge14" class="edge">
<title>Node7&#45;&gt;Node14</title>
<path fill="none" stroke="midnightblue" d="M418.59,-1088.54C408.22,-1093.62 398.52,-1100.55 392,-1110 315.73,-1220.46 438.13,-1606.82 356,-1713 353.11,-1716.74 349.62,-1719.9 345.76,-1722.58"/>
<polygon fill="midnightblue" stroke="midnightblue" points="420.02,-1091.74 427.8,-1084.54 417.24,-1085.32 420.02,-1091.74"/>
</g>
<!-- Node15 -->
<g id="node15" class="node">
<title>Node15</title>
<g id="a_node15"><a xlink:href="class_t_interface.html#a237c151513ca8adca6cd1006cc2fc66f" target="_top" xlink:title=" ">
<polygon fill="white" stroke="black" points="213,-1673 213,-1703 349,-1703 349,-1673 213,-1673"/>
<text text-anchor="start" x="221" y="-1691" font-family="Helvetica,sans-Serif" font-size="10.00">TInterface::BlackBgndMenu</text>
<text text-anchor="middle" x="281" y="-1680" font-family="Helvetica,sans-Serif" font-size="10.00">ItemClick</text>
</a>
</g>
</g>
<!-- Node7&#45;&gt;Node15 -->
<g id="edge15" class="edge">
<title>Node7&#45;&gt;Node15</title>
<path fill="none" stroke="midnightblue" d="M418.62,-1088.57C408.26,-1093.64 398.55,-1100.57 392,-1110 321.63,-1211.34 431.74,-1566.62 356,-1664 353.35,-1667.41 350.2,-1670.35 346.73,-1672.87"/>
<polygon fill="midnightblue" stroke="midnightblue" points="420.06,-1091.76 427.84,-1084.57 417.27,-1085.34 420.06,-1091.76"/>
</g>
<!-- Node16 -->
<g id="node16" class="node">
<title>Node16</title>
<g id="a_node16"><a xlink:href="class_t_interface.html#a24d79aa4745e495daa07bb5ce412e75f" target="_top" xlink:title=" ">
<polygon fill="white" stroke="black" points="215.5,-1624 215.5,-1654 346.5,-1654 346.5,-1624 215.5,-1624"/>
<text text-anchor="start" x="223.5" y="-1642" font-family="Helvetica,sans-Serif" font-size="10.00">TInterface::BlueBgndMenu</text>
<text text-anchor="middle" x="281" y="-1631" font-family="Helvetica,sans-Serif" font-size="10.00">ItemClick</text>
</a>
</g>
</g>
<!-- Node7&#45;&gt;Node16 -->
<g id="edge16" class="edge">
<title>Node7&#45;&gt;Node16</title>
<path fill="none" stroke="midnightblue" d="M418.67,-1088.6C408.3,-1093.67 398.58,-1100.59 392,-1110 327.54,-1202.21 425.35,-1526.41 356,-1615 353.34,-1618.4 350.18,-1621.33 346.7,-1623.85"/>
<polygon fill="midnightblue" stroke="midnightblue" points="420.1,-1091.79 427.88,-1084.6 417.31,-1085.37 420.1,-1091.79"/>
</g>
<!-- Node17 -->
<g id="node17" class="node">
<title>Node17</title>
<g id="a_node17"><a xlink:href="class_t_interface.html#ab1799665ee1e4212186f80ab49acf1e1" target="_top" xlink:title=" ">
<polygon fill="white" stroke="black" points="214,-1575 214,-1605 348,-1605 348,-1575 214,-1575"/>
<text text-anchor="start" x="222" y="-1593" font-family="Helvetica,sans-Serif" font-size="10.00">TInterface::BuildTrackMenu</text>
<text text-anchor="middle" x="281" y="-1582" font-family="Helvetica,sans-Serif" font-size="10.00">ItemClick</text>
</a>
</g>
</g>
<!-- Node7&#45;&gt;Node17 -->
<g id="edge17" class="edge">
<title>Node7&#45;&gt;Node17</title>
<path fill="none" stroke="midnightblue" d="M418.72,-1088.64C408.35,-1093.71 398.61,-1100.62 392,-1110 333.44,-1193.09 418.96,-1486.2 356,-1566 353.32,-1569.39 350.16,-1572.31 346.67,-1574.82"/>
<polygon fill="midnightblue" stroke="midnightblue" points="420.15,-1091.83 427.93,-1084.63 417.37,-1085.41 420.15,-1091.83"/>
</g>
<!-- Node18 -->
<g id="node18" class="node">
<title>Node18</title>
<g id="a_node18"><a xlink:href="class_t_interface.html#a148e3f99d39f596dbd7d490403936154" target="_top" xlink:title="Convert a stored timetable file (either as a stand alone file or within a session file) to a loaded t...">
<polygon fill="white" stroke="red" points="217,-1526 217,-1556 345,-1556 345,-1526 217,-1526"/>
<text text-anchor="start" x="225" y="-1544" font-family="Helvetica,sans-Serif" font-size="10.00">TInterface::BuildTrainData</text>
<text text-anchor="middle" x="281" y="-1533" font-family="Helvetica,sans-Serif" font-size="10.00">VectorForLoadFile</text>
</a>
</g>
</g>
<!-- Node7&#45;&gt;Node18 -->
<g id="edge18" class="edge">
<title>Node7&#45;&gt;Node18</title>
<path fill="none" stroke="midnightblue" d="M419.1,-1088.53C408.61,-1093.61 398.72,-1100.55 392,-1110 339.35,-1183.97 412.58,-1445.98 356,-1517 352.97,-1520.8 349.33,-1524.01 345.31,-1526.72"/>
<polygon fill="midnightblue" stroke="midnightblue" points="420.6,-1091.69 428.4,-1084.52 417.83,-1085.26 420.6,-1091.69"/>
</g>
<!-- Node25 -->
<g id="node19" class="node">
<title>Node25</title>
<g id="a_node19"><a xlink:href="class_t_interface.html#a2fb2cd7dbddb7fa689ea994e9ffc10ff" target="_top" xlink:title=" ">
<polygon fill="white" stroke="black" points="213.5,-1477 213.5,-1507 348.5,-1507 348.5,-1477 213.5,-1477"/>
<text text-anchor="start" x="221.5" y="-1495" font-family="Helvetica,sans-Serif" font-size="10.00">TInterface::CancelSelection</text>
<text text-anchor="middle" x="281" y="-1484" font-family="Helvetica,sans-Serif" font-size="10.00">MenuItemClick</text>
</a>
</g>
</g>
<!-- Node7&#45;&gt;Node25 -->
<g id="edge19" class="edge">
<title>Node7&#45;&gt;Node25</title>
<path fill="none" stroke="midnightblue" d="M419.18,-1088.59C408.69,-1093.67 398.78,-1100.59 392,-1110 298.48,-1239.72 456.39,-1343.52 356,-1468 353.2,-1471.47 349.9,-1474.44 346.26,-1476.99"/>
<polygon fill="midnightblue" stroke="midnightblue" points="420.68,-1091.75 428.48,-1084.58 417.92,-1085.32 420.68,-1091.75"/>
</g>
<!-- Node26 -->
<g id="node20" class="node">
<title>Node26</title>
<g id="a_node20"><a xlink:href="class_t_interface.html#a6fb1db3295ef42cb1b6f20bc142fa502" target="_top" xlink:title=" ">
<polygon fill="white" stroke="black" points="217,-1428 217,-1458 345,-1458 345,-1428 217,-1428"/>
<text text-anchor="start" x="225" y="-1446" font-family="Helvetica,sans-Serif" font-size="10.00">TInterface::CancelTTEntry</text>
<text text-anchor="middle" x="281" y="-1435" font-family="Helvetica,sans-Serif" font-size="10.00">ButtonClick</text>
</a>
</g>
</g>
<!-- Node7&#45;&gt;Node26 -->
<g id="edge20" class="edge">
<title>Node7&#45;&gt;Node26</title>
<path fill="none" stroke="midnightblue" d="M419.6,-1088.52C408.99,-1093.61 398.92,-1100.56 392,-1110 310.26,-1221.52 443.64,-1312.07 356,-1419 352.92,-1422.76 349.24,-1425.94 345.19,-1428.62"/>
<polygon fill="midnightblue" stroke="midnightblue" points="421.17,-1091.65 429,-1084.5 418.43,-1085.21 421.17,-1091.65"/>
</g>
<!-- Node27 -->
<g id="node21" class="node">
<title>Node27</title>
<g id="a_node21"><a xlink:href="class_t_interface.html#a928eba983ac5132e1ae7799f8330451e" target="_top" xlink:title=" ">
<polygon fill="white" stroke="black" points="220,-1379 220,-1409 342,-1409 342,-1379 220,-1379"/>
<text text-anchor="start" x="228" y="-1397" font-family="Helvetica,sans-Serif" font-size="10.00">TInterface::ClearAllMenu</text>
<text text-anchor="middle" x="281" y="-1386" font-family="Helvetica,sans-Serif" font-size="10.00">ItemClick</text>
</a>
</g>
</g>
<!-- Node7&#45;&gt;Node27 -->
<g id="edge21" class="edge">
<title>Node7&#45;&gt;Node27</title>
<path fill="none" stroke="midnightblue" d="M419.74,-1088.62C409.13,-1093.71 399.02,-1100.63 392,-1110 322.02,-1203.34 430.92,-1280.58 356,-1370 352.18,-1374.56 347.49,-1378.25 342.34,-1381.25"/>
<polygon fill="midnightblue" stroke="midnightblue" points="421.32,-1091.76 429.14,-1084.61 418.57,-1085.32 421.32,-1091.76"/>
</g>
<!-- Node28 -->
<g id="node22" class="node">
<title>Node28</title>
<g id="a_node22"><a xlink:href="class_t_interface.html#adc0dd871fdd70ff11ada7a0ddd549e8e" target="_top" xlink:title=" ">
<polygon fill="white" stroke="black" points="206.5,-1330 206.5,-1360 355.5,-1360 355.5,-1330 206.5,-1330"/>
<text text-anchor="start" x="214.5" y="-1348" font-family="Helvetica,sans-Serif" font-size="10.00">TInterface::CopyTTEntryButton</text>
<text text-anchor="middle" x="281" y="-1337" font-family="Helvetica,sans-Serif" font-size="10.00">Click</text>
</a>
</g>
</g>
<!-- Node7&#45;&gt;Node28 -->
<g id="edge22" class="edge">
<title>Node7&#45;&gt;Node28</title>
<path fill="none" stroke="midnightblue" d="M420.26,-1088.64C409.53,-1093.73 399.24,-1100.65 392,-1110 333.75,-1185.21 418.23,-1249.05 356,-1321 353,-1324.47 349.48,-1327.45 345.65,-1329.99"/>
<polygon fill="midnightblue" stroke="midnightblue" points="421.91,-1091.74 429.75,-1084.61 419.18,-1085.29 421.91,-1091.74"/>
</g>
<!-- Node29 -->
<g id="node23" class="node">
<title>Node29</title>
<g id="a_node23"><a xlink:href="class_t_interface.html#a1c8fab7fa2f1be662f2d7418e95e3a63" target="_top" xlink:title=" ">
<polygon fill="white" stroke="black" points="213.5,-1281 213.5,-1311 348.5,-1311 348.5,-1281 213.5,-1281"/>
<text text-anchor="start" x="221.5" y="-1299" font-family="Helvetica,sans-Serif" font-size="10.00">TInterface::CreateTimetable</text>
<text text-anchor="middle" x="281" y="-1288" font-family="Helvetica,sans-Serif" font-size="10.00">MenuItemClick</text>
</a>
</g>
</g>
<!-- Node7&#45;&gt;Node29 -->
<g id="edge23" class="edge">
<title>Node7&#45;&gt;Node29</title>
<path fill="none" stroke="midnightblue" d="M421.55,-1088.45C410.46,-1093.58 399.69,-1100.56 392,-1110 345.4,-1167.17 405.62,-1217.43 356,-1272 352.91,-1275.4 349.34,-1278.32 345.46,-1280.82"/>
<polygon fill="midnightblue" stroke="midnightblue" points="423,-1091.64 430.88,-1084.56 420.3,-1085.18 423,-1091.64"/>
</g>
<!-- Node30 -->
<g id="node24" class="node">
<title>Node30</title>
<g id="a_node24"><a xlink:href="class_t_interface.html#acd41ae8fa5d16248a867472d9c8ae646" target="_top" xlink:title=" ">
<polygon fill="white" stroke="black" points="210,-1232 210,-1262 352,-1262 352,-1232 210,-1232"/>
<text text-anchor="start" x="218" y="-1250" font-family="Helvetica,sans-Serif" font-size="10.00">TInterface::CutTTEntryButton</text>
<text text-anchor="middle" x="281" y="-1239" font-family="Helvetica,sans-Serif" font-size="10.00">Click</text>
</a>
</g>
</g>
<!-- Node7&#45;&gt;Node30 -->
<g id="edge24" class="edge">
<title>Node7&#45;&gt;Node30</title>
<path fill="none" stroke="midnightblue" d="M423.08,-1088.5C411.65,-1093.67 400.34,-1100.66 392,-1110 356.9,-1149.32 393.17,-1185.63 356,-1223 352.57,-1226.45 348.64,-1229.4 344.42,-1231.93"/>
<polygon fill="midnightblue" stroke="midnightblue" points="424.72,-1091.61 432.64,-1084.58 422.06,-1085.14 424.72,-1091.61"/>
</g>
<!-- Node31 -->
<g id="node25" class="node">
<title>Node31</title>
<g id="a_node25"><a xlink:href="class_t_interface.html#af9cb95043f5276df55cb6809e104c93a" target="_top" xlink:title=" ">
<polygon fill="white" stroke="black" points="220.5,-1183 220.5,-1213 341.5,-1213 341.5,-1183 220.5,-1183"/>
<text text-anchor="start" x="228.5" y="-1201" font-family="Helvetica,sans-Serif" font-size="10.00">TInterface::DeleteAllPref</text>
<text text-anchor="middle" x="281" y="-1190" font-family="Helvetica,sans-Serif" font-size="10.00">DirButtonClick</text>
</a>
</g>
</g>
<!-- Node7&#45;&gt;Node31 -->
<g id="edge25" class="edge">
<title>Node7&#45;&gt;Node31</title>
<path fill="none" stroke="midnightblue" d="M427.57,-1088.27C415.12,-1093.61 402.13,-1100.75 392,-1110 367.9,-1132.01 381.25,-1153.33 356,-1174 351.72,-1177.51 346.9,-1180.51 341.85,-1183.07"/>
<polygon fill="midnightblue" stroke="midnightblue" points="428.95,-1091.49 436.94,-1084.54 426.35,-1084.99 428.95,-1091.49"/>
</g>
<!-- Node32 -->
<g id="node26" class="node">
<title>Node32</title>
<g id="a_node26"><a xlink:href="class_t_interface.html#a3136530959237eaa57486f4f48357855" target="_top" xlink:title=" ">
<polygon fill="white" stroke="black" points="217,-1134 217,-1164 345,-1164 345,-1134 217,-1134"/>
<text text-anchor="start" x="225" y="-1152" font-family="Helvetica,sans-Serif" font-size="10.00">TInterface::DeleteOnePref</text>
<text text-anchor="middle" x="281" y="-1141" font-family="Helvetica,sans-Serif" font-size="10.00">DirButtonClick</text>
</a>
</g>
</g>
<!-- Node7&#45;&gt;Node32 -->
<g id="edge26" class="edge">
<title>Node7&#45;&gt;Node32</title>
<path fill="none" stroke="midnightblue" d="M439.39,-1088.84C411.36,-1101.43 371.9,-1118.95 356,-1125 347.92,-1128.07 339.26,-1131.11 330.8,-1133.94"/>
<polygon fill="midnightblue" stroke="midnightblue" points="441.09,-1091.91 448.77,-1084.62 438.21,-1085.53 441.09,-1091.91"/>
</g>
<!-- Node33 -->
<g id="node27" class="node">
<title>Node33</title>
<g id="a_node27"><a xlink:href="class_t_interface.html#abdd4a70649a10a29c9a069d040072808" target="_top" xlink:title=" ">
<polygon fill="white" stroke="black" points="218,-1085 218,-1115 344,-1115 344,-1085 218,-1085"/>
<text text-anchor="start" x="226" y="-1103" font-family="Helvetica,sans-Serif" font-size="10.00">TInterface::DeleteTTEntry</text>
<text text-anchor="middle" x="281" y="-1092" font-family="Helvetica,sans-Serif" font-size="10.00">ButtonClick</text>
</a>
</g>
</g>
<!-- Node7&#45;&gt;Node33 -->
<g id="edge27" class="edge">
<title>Node7&#45;&gt;Node33</title>
<path fill="none" stroke="midnightblue" d="M394.96,-1084.98C378.16,-1087.21 360.5,-1089.56 344.28,-1091.72"/>
<polygon fill="midnightblue" stroke="midnightblue" points="395.85,-1088.39 405.3,-1083.6 394.93,-1081.45 395.85,-1088.39"/>
</g>
<!-- Node34 -->
<g id="node28" class="node">
<title>Node34</title>
<g id="a_node28"><a xlink:href="class_t_interface.html#a0cf35a6e4a6cfa72b63222acb51f9f74" target="_top" xlink:title=" ">
<polygon fill="white" stroke="black" points="219,-1036 219,-1066 343,-1066 343,-1036 219,-1036"/>
<text text-anchor="start" x="227" y="-1054" font-family="Helvetica,sans-Serif" font-size="10.00">TInterface::EditTimetable</text>
<text text-anchor="middle" x="281" y="-1043" font-family="Helvetica,sans-Serif" font-size="10.00">MenuItemClick</text>
</a>
</g>
</g>
<!-- Node7&#45;&gt;Node34 -->
<g id="edge28" class="edge">
<title>Node7&#45;&gt;Node34</title>
<path fill="none" stroke="midnightblue" d="M395.23,-1065.45C377.9,-1063.24 359.67,-1060.92 343.02,-1058.79"/>
<polygon fill="midnightblue" stroke="midnightblue" points="394.94,-1068.95 405.3,-1066.74 395.82,-1062 394.94,-1068.95"/>
</g>
<!-- Node35 -->
<g id="node29" class="node">
<title>Node35</title>
<g id="a_node29"><a xlink:href="class_t_interface.html#a3e59d6f1f39ffe34a9d6e7bf930acbff" target="_top" xlink:title=" ">
<polygon fill="white" stroke="black" points="219,-987 219,-1017 343,-1017 343,-987 219,-987"/>
<text text-anchor="start" x="227" y="-1005" font-family="Helvetica,sans-Serif" font-size="10.00">TInterface::ExitOperation</text>
<text text-anchor="middle" x="281" y="-994" font-family="Helvetica,sans-Serif" font-size="10.00">ButtonClick</text>
</a>
</g>
</g>
<!-- Node7&#45;&gt;Node35 -->
<g id="edge29" class="edge">
<title>Node7&#45;&gt;Node35</title>
<path fill="none" stroke="midnightblue" d="M406.6,-1062.2C401.55,-1060.39 396.63,-1058.33 392,-1056 373.4,-1046.63 374.24,-1036.06 356,-1026 349.97,-1022.67 343.4,-1019.72 336.76,-1017.12"/>
<polygon fill="midnightblue" stroke="midnightblue" points="405.8,-1065.62 416.39,-1065.38 407.96,-1058.96 405.8,-1065.62"/>
</g>
<!-- Node36 -->
<g id="node30" class="node">
<title>Node36</title>
<g id="a_node30"><a xlink:href="class_t_interface.html#ab2a25d27dcbae558b8f9a4ac62937523" target="_top" xlink:title=" ">
<polygon fill="white" stroke="black" points="211,-938 211,-968 351,-968 351,-938 211,-938"/>
<text text-anchor="start" x="219" y="-956" font-family="Helvetica,sans-Serif" font-size="10.00">TInterface::ExitPrefDirButton</text>
<text text-anchor="middle" x="281" y="-945" font-family="Helvetica,sans-Serif" font-size="10.00">Click</text>
</a>
</g>
</g>
<!-- Node7&#45;&gt;Node36 -->
<g id="edge30" class="edge">
<title>Node7&#45;&gt;Node36</title>
<path fill="none" stroke="midnightblue" d="M398.4,-1060.6C396.17,-1059.2 394.02,-1057.67 392,-1056 362.27,-1031.41 384.79,-1002.69 356,-977 352.17,-973.58 347.85,-970.65 343.26,-968.14"/>
<polygon fill="midnightblue" stroke="midnightblue" points="396.97,-1063.8 407.45,-1065.36 400.24,-1057.61 396.97,-1063.8"/>
</g>
<!-- Node37 -->
<g id="node31" class="node">
<title>Node37</title>
<g id="a_node31"><a xlink:href="class_t_interface.html#ad0fa9f32b059b346e066ab23d62a4bfc" target="_top" xlink:title=" ">
<polygon fill="white" stroke="black" points="214,-889 214,-919 348,-919 348,-889 214,-889"/>
<text text-anchor="start" x="222" y="-907" font-family="Helvetica,sans-Serif" font-size="10.00">TInterface::ExitTrackButton</text>
<text text-anchor="middle" x="281" y="-896" font-family="Helvetica,sans-Serif" font-size="10.00">Click</text>
</a>
</g>
</g>
<!-- Node7&#45;&gt;Node37 -->
<g id="edge31" class="edge">
<title>Node7&#45;&gt;Node37</title>
<path fill="none" stroke="midnightblue" d="M396.65,-1059.95C395.02,-1058.73 393.47,-1057.42 392,-1056 349.48,-1014.96 396.95,-970.6 356,-928 352.72,-924.59 348.96,-921.67 344.9,-919.16"/>
<polygon fill="midnightblue" stroke="midnightblue" points="394.97,-1063.03 405.31,-1065.33 398.65,-1057.08 394.97,-1063.03"/>
</g>
<!-- Node38 -->
<g id="node32" class="node">
<title>Node38</title>
<g id="a_node32"><a xlink:href="class_t_interface.html#aa78089df3d8323be6fde98c0ee48424c" target="_top" xlink:title=" ">
<polygon fill="white" stroke="black" points="208.5,-840 208.5,-870 353.5,-870 353.5,-840 208.5,-840"/>
<text text-anchor="start" x="216.5" y="-858" font-family="Helvetica,sans-Serif" font-size="10.00">TInterface::ExitTTModeButton</text>
<text text-anchor="middle" x="281" y="-847" font-family="Helvetica,sans-Serif" font-size="10.00">Click</text>
</a>
</g>
</g>
<!-- Node7&#45;&gt;Node38 -->
<g id="edge32" class="edge">
<title>Node7&#45;&gt;Node38</title>
<path fill="none" stroke="midnightblue" d="M396.63,-1060.19C395,-1058.9 393.45,-1057.51 392,-1056 336.33,-998.16 409.47,-938.88 356,-879 352.94,-875.57 349.39,-872.64 345.53,-870.12"/>
<polygon fill="midnightblue" stroke="midnightblue" points="395.07,-1063.35 405.37,-1065.83 398.86,-1057.47 395.07,-1063.35"/>
</g>
<!-- Node39 -->
<g id="node33" class="node">
<title>Node39</title>
<g id="a_node33"><a xlink:href="class_t_interface.html#ab7c52bd31930036c95b9b71c2f1f0426" target="_top" xlink:title=" ">
<polygon fill="white" stroke="black" points="215,-791 215,-821 347,-821 347,-791 215,-791"/>
<text text-anchor="start" x="223" y="-809" font-family="Helvetica,sans-Serif" font-size="10.00">TInterface::ExportTTButton</text>
<text text-anchor="middle" x="281" y="-798" font-family="Helvetica,sans-Serif" font-size="10.00">Click</text>
</a>
</g>
</g>
<!-- Node7&#45;&gt;Node39 -->
<g id="edge33" class="edge">
<title>Node7&#45;&gt;Node39</title>
<path fill="none" stroke="midnightblue" d="M396.54,-1060.27C394.94,-1058.96 393.42,-1057.54 392,-1056 323.05,-981.23 422.11,-907.29 356,-830 353.1,-826.61 349.72,-823.7 346.03,-821.2"/>
<polygon fill="midnightblue" stroke="midnightblue" points="394.92,-1063.4 405.19,-1066 398.78,-1057.56 394.92,-1063.4"/>
</g>
<!-- Node40 -->
<g id="node34" class="node">
<title>Node40</title>
<g id="a_node34"><a xlink:href="class_t_interface.html#a5e7eff5bd235780252147bb4878a4c95" target="_top" xlink:title=" ">
<polygon fill="white" stroke="black" points="219,-742 219,-772 343,-772 343,-742 219,-742"/>
<text text-anchor="start" x="227" y="-760" font-family="Helvetica,sans-Serif" font-size="10.00">TInterface::LengthCancel</text>
<text text-anchor="middle" x="281" y="-749" font-family="Helvetica,sans-Serif" font-size="10.00">ButtonClick</text>
</a>
</g>
</g>
<!-- Node7&#45;&gt;Node40 -->
<g id="edge34" class="edge">
<title>Node7&#45;&gt;Node40</title>
<path fill="none" stroke="midnightblue" d="M397.01,-1060.76C395.23,-1059.31 393.55,-1057.73 392,-1056 309.71,-964.23 434.81,-875.78 356,-781 352.37,-776.64 347.94,-773.06 343.07,-770.13"/>
<polygon fill="midnightblue" stroke="midnightblue" points="395.16,-1063.73 405.43,-1066.31 399.01,-1057.89 395.16,-1063.73"/>
</g>
<!-- Node41 -->
<g id="node35" class="node">
<title>Node41</title>
<g id="a_node35"><a xlink:href="class_t_interface.html#ab34f55bab5984b72264d7275660a3463" target="_top" xlink:title=" ">
<polygon fill="white" stroke="black" points="212.5,-693 212.5,-723 349.5,-723 349.5,-693 212.5,-693"/>
<text text-anchor="start" x="220.5" y="-711" font-family="Helvetica,sans-Serif" font-size="10.00">TInterface::LengthOKButton</text>
<text text-anchor="middle" x="281" y="-700" font-family="Helvetica,sans-Serif" font-size="10.00">Click</text>
</a>
</g>
</g>
<!-- Node7&#45;&gt;Node41 -->
<g id="edge35" class="edge">
<title>Node7&#45;&gt;Node41</title>
<path fill="none" stroke="midnightblue" d="M396.97,-1060.8C395.2,-1059.34 393.53,-1057.74 392,-1056 296.33,-947.19 447.54,-844.3 356,-732 353.18,-728.55 349.86,-725.58 346.22,-723.04"/>
<polygon fill="midnightblue" stroke="midnightblue" points="395.08,-1063.75 405.35,-1066.39 398.97,-1057.93 395.08,-1063.75"/>
</g>
<!-- Node42 -->
<g id="node36" class="node">
<title>Node42</title>
<g id="a_node36"><a xlink:href="class_t_interface.html#a95c3545a30171ca5a08e34c58160079c" target="_top" xlink:title="Load a railway file. The Active elements marker now has a &#39;1&#39; at the end if there are user graphics t...">
<polygon fill="white" stroke="black" points="221.5,-616.5 221.5,-635.5 340.5,-635.5 340.5,-616.5 221.5,-616.5"/>
<text text-anchor="middle" x="281" y="-623.5" font-family="Helvetica,sans-Serif" font-size="10.00">TInterface::LoadRailway</text>
</a>
</g>
</g>
<!-- Node7&#45;&gt;Node42 -->
<g id="edge36" class="edge">
<title>Node7&#45;&gt;Node42</title>
<path fill="none" stroke="midnightblue" d="M396.92,-1060.85C395.16,-1059.37 393.51,-1057.76 392,-1056 332.95,-987.32 412.45,-720.84 356,-650 350.95,-643.66 344.2,-638.98 336.83,-635.52"/>
<polygon fill="midnightblue" stroke="midnightblue" points="395,-1063.78 405.24,-1066.47 398.92,-1057.98 395,-1063.78"/>
</g>
<!-- Node43 -->
<g id="node37" class="node">
<title>Node43</title>
<g id="a_node37"><a xlink:href="class_t_interface.html#a96249c7622a9d55541de186483e04d2e" target="_top" xlink:title=" ">
<polygon fill="white" stroke="black" points="13.5,-630 13.5,-660 156.5,-660 156.5,-630 13.5,-630"/>
<text text-anchor="start" x="21.5" y="-648" font-family="Helvetica,sans-Serif" font-size="10.00">TInterface::LoadRailwayMenu</text>
<text text-anchor="middle" x="85" y="-637" font-family="Helvetica,sans-Serif" font-size="10.00">ItemClick</text>
</a>
</g>
</g>
<!-- Node7&#45;&gt;Node43 -->
<g id="edge38" class="edge">
<title>Node7&#45;&gt;Node43</title>
<path fill="none" stroke="midnightblue" d="M396.93,-1060.83C395.17,-1059.36 393.52,-1057.75 392,-1056 337.46,-993.07 413.59,-743.15 356,-683 329.36,-655.17 227.47,-647.37 156.77,-645.38"/>
<polygon fill="midnightblue" stroke="midnightblue" points="395.03,-1063.77 405.28,-1066.44 398.94,-1057.96 395.03,-1063.77"/>
</g>
<!-- Node20 -->
<g id="node38" class="node">
<title>Node20</title>
<g id="a_node38"><a xlink:href="class_t_interface.html#a636b1b4bd29f2678a3290ed2d282f1c2" target="_top" xlink:title="Load a session file.">
<polygon fill="white" stroke="red" points="220.5,-578.5 220.5,-597.5 341.5,-597.5 341.5,-578.5 220.5,-578.5"/>
<text text-anchor="middle" x="281" y="-585.5" font-family="Helvetica,sans-Serif" font-size="10.00">TInterface::LoadSession</text>
</a>
</g>
</g>
<!-- Node7&#45;&gt;Node20 -->
<g id="edge39" class="edge">
<title>Node7&#45;&gt;Node20</title>
<path fill="none" stroke="midnightblue" d="M396.9,-1060.86C395.15,-1059.38 393.51,-1057.77 392,-1056 327.06,-979.82 420.46,-683.58 356,-607 352.07,-602.33 347.16,-598.73 341.76,-595.96"/>
<polygon fill="midnightblue" stroke="midnightblue" points="394.97,-1063.78 405.21,-1066.51 398.9,-1057.99 394.97,-1063.78"/>
</g>
<!-- Node44 -->
<g id="node39" class="node">
<title>Node44</title>
<g id="a_node39"><a xlink:href="class_t_interface.html#aef9267dd01da25269797e2e8ca08a3f9" target="_top" xlink:title=" ">
<polygon fill="white" stroke="black" points="217.5,-529 217.5,-559 344.5,-559 344.5,-529 217.5,-529"/>
<text text-anchor="start" x="225.5" y="-547" font-family="Helvetica,sans-Serif" font-size="10.00">TInterface::LocationName</text>
<text text-anchor="middle" x="281" y="-536" font-family="Helvetica,sans-Serif" font-size="10.00">ButtonClick</text>
</a>
</g>
</g>
<!-- Node7&#45;&gt;Node44 -->
<g id="edge40" class="edge">
<title>Node7&#45;&gt;Node44</title>
<path fill="none" stroke="midnightblue" d="M396.88,-1060.88C395.14,-1059.39 393.5,-1057.77 392,-1056 321.86,-973.2 422.48,-654.77 356,-569 352.84,-564.93 348.99,-561.51 344.72,-558.65"/>
<polygon fill="midnightblue" stroke="midnightblue" points="394.94,-1063.79 405.18,-1066.53 398.89,-1058.01 394.94,-1063.79"/>
</g>
<!-- Node45 -->
<g id="node40" class="node">
<title>Node45</title>
<g id="a_node40"><a xlink:href="class_t_interface.html#a13fee6fa07e4a4e195e8b9c7dd303db0" target="_top" xlink:title=" ">
<polygon fill="white" stroke="black" points="217.5,-480 217.5,-510 344.5,-510 344.5,-480 217.5,-480"/>
<text text-anchor="start" x="225.5" y="-498" font-family="Helvetica,sans-Serif" font-size="10.00">TInterface::LocationName</text>
<text text-anchor="middle" x="281" y="-487" font-family="Helvetica,sans-Serif" font-size="10.00">ComboBoxClick</text>
</a>
</g>
</g>
<!-- Node7&#45;&gt;Node45 -->
<g id="edge41" class="edge">
<title>Node7&#45;&gt;Node45</title>
<path fill="none" stroke="midnightblue" d="M396.87,-1060.89C395.12,-1059.4 393.49,-1057.78 392,-1056 315.01,-964.48 429.52,-613.33 356,-519 352.84,-514.95 349,-511.58 344.73,-508.76"/>
<polygon fill="midnightblue" stroke="midnightblue" points="394.92,-1063.8 405.15,-1066.56 398.87,-1058.02 394.92,-1063.8"/>
</g>
<!-- Node46 -->
<g id="node41" class="node">
<title>Node46</title>
<g id="a_node41"><a xlink:href="class_t_interface.html#ac666c9f62cdb68b29c2a7db123a43a28" target="_top" xlink:title=" ">
<polygon fill="white" stroke="black" points="217.5,-431 217.5,-461 344.5,-461 344.5,-431 217.5,-431"/>
<text text-anchor="start" x="225.5" y="-449" font-family="Helvetica,sans-Serif" font-size="10.00">TInterface::LocationName</text>
<text text-anchor="middle" x="281" y="-438" font-family="Helvetica,sans-Serif" font-size="10.00">KeyUp</text>
</a>
</g>
</g>
<!-- Node7&#45;&gt;Node46 -->
<g id="edge42" class="edge">
<title>Node7&#45;&gt;Node46</title>
<path fill="none" stroke="midnightblue" d="M396.98,-1061.01C395.19,-1059.49 393.53,-1057.82 392,-1056 308.29,-955.93 435.92,-573.13 356,-470 352.86,-465.94 349.02,-462.56 344.75,-459.75"/>
<polygon fill="midnightblue" stroke="midnightblue" points="395.24,-1064.06 405.48,-1066.78 399.17,-1058.27 395.24,-1064.06"/>
</g>
<!-- Node47 -->
<g id="node42" class="node">
<title>Node47</title>
<g id="a_node42"><a xlink:href="class_t_interface.html#a13e8cd35a6f61caf6794791f1a4fe7f6" target="_top" xlink:title=" ">
<polygon fill="white" stroke="black" points="206,-382 206,-412 356,-412 356,-382 206,-382"/>
<text text-anchor="start" x="214" y="-400" font-family="Helvetica,sans-Serif" font-size="10.00">TInterface::MoveTextOrGraphic</text>
<text text-anchor="middle" x="281" y="-389" font-family="Helvetica,sans-Serif" font-size="10.00">ButtonClick</text>
</a>
</g>
</g>
<!-- Node7&#45;&gt;Node47 -->
<g id="edge45" class="edge">
<title>Node7&#45;&gt;Node47</title>
<path fill="none" stroke="midnightblue" d="M396.97,-1061.02C395.19,-1059.5 393.52,-1057.83 392,-1056 301.57,-947.38 442.31,-532.92 356,-421 353.36,-417.58 350.23,-414.64 346.76,-412.11"/>
<polygon fill="midnightblue" stroke="midnightblue" points="395.22,-1064.06 405.46,-1066.8 399.16,-1058.28 395.22,-1064.06"/>
</g>
<!-- Node48 -->
<g id="node43" class="node">
<title>Node48</title>
<g id="a_node43"><a xlink:href="class_t_interface.html#a64926df4f293df9f038ce8c78e0201bb" target="_top" xlink:title=" ">
<polygon fill="white" stroke="black" points="208.5,-333 208.5,-363 353.5,-363 353.5,-333 208.5,-333"/>
<text text-anchor="start" x="216.5" y="-351" font-family="Helvetica,sans-Serif" font-size="10.00">TInterface::MoveTTEntryDown</text>
<text text-anchor="middle" x="281" y="-340" font-family="Helvetica,sans-Serif" font-size="10.00">ButtonClick</text>
</a>
</g>
</g>
<!-- Node7&#45;&gt;Node48 -->
<g id="edge46" class="edge">
<title>Node7&#45;&gt;Node48</title>
<path fill="none" stroke="midnightblue" d="M396.96,-1061.03C395.18,-1059.5 393.52,-1057.83 392,-1056 294.85,-938.82 448.71,-492.72 356,-372 353.37,-368.57 350.24,-365.63 346.77,-363.1"/>
<polygon fill="midnightblue" stroke="midnightblue" points="395.21,-1064.07 405.44,-1066.81 399.15,-1058.29 395.21,-1064.07"/>
</g>
<!-- Node49 -->
<g id="node44" class="node">
<title>Node49</title>
<g id="a_node44"><a xlink:href="class_t_interface.html#a768f6e8fb12c5a77b591e223ef10a46d" target="_top" xlink:title=" ">
<polygon fill="white" stroke="black" points="214.5,-284 214.5,-314 347.5,-314 347.5,-284 214.5,-284"/>
<text text-anchor="start" x="222.5" y="-302" font-family="Helvetica,sans-Serif" font-size="10.00">TInterface::MoveTTEntryUp</text>
<text text-anchor="middle" x="281" y="-291" font-family="Helvetica,sans-Serif" font-size="10.00">ButtonClick</text>
</a>
</g>
</g>
<!-- Node7&#45;&gt;Node49 -->
<g id="edge47" class="edge">
<title>Node7&#45;&gt;Node49</title>
<path fill="none" stroke="midnightblue" d="M396.95,-1061.03C395.17,-1059.51 393.51,-1057.83 392,-1056 288.13,-930.27 455.1,-452.52 356,-323 353.37,-319.57 350.25,-316.62 346.79,-314.08"/>
<polygon fill="midnightblue" stroke="midnightblue" points="395.2,-1064.07 405.43,-1066.83 399.15,-1058.29 395.2,-1064.07"/>
</g>
<!-- Node50 -->
<g id="node45" class="node">
<title>Node50</title>
<g id="a_node45"><a xlink:href="class_t_interface.html#a889fff98fb93d17aefc0a341a8216e72" target="_top" xlink:title=" ">
<polygon fill="white" stroke="black" points="208,-235 208,-265 354,-265 354,-235 208,-235"/>
<text text-anchor="start" x="216" y="-253" font-family="Helvetica,sans-Serif" font-size="10.00">TInterface::NewTTEntryButton</text>
<text text-anchor="middle" x="281" y="-242" font-family="Helvetica,sans-Serif" font-size="10.00">Click</text>
</a>
</g>
</g>
<!-- Node7&#45;&gt;Node50 -->
<g id="edge48" class="edge">
<title>Node7&#45;&gt;Node50</title>
<path fill="none" stroke="midnightblue" d="M396.94,-1061.04C395.17,-1059.51 393.51,-1057.84 392,-1056 336.71,-988.86 408.75,-343.16 356,-274 353.38,-270.56 350.26,-267.61 346.8,-265.08"/>
<polygon fill="midnightblue" stroke="midnightblue" points="395.18,-1064.08 405.41,-1066.84 399.14,-1058.3 395.18,-1064.08"/>
</g>
<!-- Node51 -->
<g id="node46" class="node">
<title>Node51</title>
<g id="a_node46"><a xlink:href="class_t_interface.html#a8d9fefd50730926d40c89801a70b8c95" target="_top" xlink:title=" ">
<polygon fill="white" stroke="black" points="207.5,-186 207.5,-216 354.5,-216 354.5,-186 207.5,-186"/>
<text text-anchor="start" x="215.5" y="-204" font-family="Helvetica,sans-Serif" font-size="10.00">TInterface::NextTTEntryButton</text>
<text text-anchor="middle" x="281" y="-193" font-family="Helvetica,sans-Serif" font-size="10.00">Click</text>
</a>
</g>
</g>
<!-- Node7&#45;&gt;Node51 -->
<g id="edge49" class="edge">
<title>Node7&#45;&gt;Node51</title>
<path fill="none" stroke="midnightblue" d="M396.94,-1061.04C395.16,-1059.51 393.51,-1057.84 392,-1056 333.34,-984.58 411.95,-298.56 356,-225 353.38,-221.56 350.27,-218.61 346.81,-216.07"/>
<polygon fill="midnightblue" stroke="midnightblue" points="395.17,-1064.08 405.4,-1066.85 399.13,-1058.31 395.17,-1064.08"/>
</g>
<!-- Node52 -->
<g id="node47" class="node">
<title>Node52</title>
<g id="a_node47"><a xlink:href="class_t_interface.html#a8f417437f1683ddacce33c6e681571fc" target="_top" xlink:title=" ">
<polygon fill="white" stroke="black" points="207,-137 207,-167 355,-167 355,-137 207,-137"/>
<text text-anchor="start" x="215" y="-155" font-family="Helvetica,sans-Serif" font-size="10.00">TInterface::OneEntryTimetable</text>
<text text-anchor="middle" x="281" y="-144" font-family="Helvetica,sans-Serif" font-size="10.00">MemoKeyUp</text>
</a>
</g>
</g>
<!-- Node7&#45;&gt;Node52 -->
<g id="edge50" class="edge">
<title>Node7&#45;&gt;Node52</title>
<path fill="none" stroke="midnightblue" d="M396.93,-1061.05C395.16,-1059.52 393.51,-1057.84 392,-1056 329.98,-980.3 415.15,-253.96 356,-176 353.39,-172.56 350.27,-169.6 346.82,-167.06"/>
<polygon fill="midnightblue" stroke="midnightblue" points="395.16,-1064.08 405.39,-1066.86 399.13,-1058.31 395.16,-1064.08"/>
</g>
<!-- Node53 -->
<g id="node48" class="node">
<title>Node53</title>
<g id="a_node48"><a xlink:href="class_t_interface.html#a472d8ac93d85b4d5605d5bbe39179d5a" target="_top" xlink:title=" ">
<polygon fill="white" stroke="black" points="214.5,-88 214.5,-118 347.5,-118 347.5,-88 214.5,-88"/>
<text text-anchor="start" x="222.5" y="-106" font-family="Helvetica,sans-Serif" font-size="10.00">TInterface::OperateRailway</text>
<text text-anchor="middle" x="281" y="-95" font-family="Helvetica,sans-Serif" font-size="10.00">MenuItemClick</text>
</a>
</g>
</g>
<!-- Node7&#45;&gt;Node53 -->
<g id="edge51" class="edge">
<title>Node7&#45;&gt;Node53</title>
<path fill="none" stroke="midnightblue" d="M396.93,-1061.05C395.16,-1059.52 393.51,-1057.84 392,-1056 326.62,-976.02 418.35,-209.36 356,-127 353.39,-123.55 350.28,-120.59 346.83,-118.05"/>
<polygon fill="midnightblue" stroke="midnightblue" points="395.15,-1064.08 405.38,-1066.87 399.12,-1058.32 395.15,-1064.08"/>
</g>
<!-- Node54 -->
<g id="node49" class="node">
<title>Node54</title>
<g id="a_node49"><a xlink:href="class_t_interface.html#a02c5eb27baa019cb04e4704470371ae9" target="_top" xlink:title=" ">
<polygon fill="white" stroke="black" points="219,-39 219,-69 343,-69 343,-39 219,-39"/>
<text text-anchor="start" x="227" y="-57" font-family="Helvetica,sans-Serif" font-size="10.00">TInterface::PasteTTEntry</text>
<text text-anchor="middle" x="281" y="-46" font-family="Helvetica,sans-Serif" font-size="10.00">ButtonClick</text>
</a>
</g>
</g>
<!-- Node7&#45;&gt;Node54 -->
<g id="edge52" class="edge">
<title>Node7&#45;&gt;Node54</title>
<path fill="none" stroke="midnightblue" d="M396.92,-1061.06C395.15,-1059.52 393.5,-1057.84 392,-1056 323.26,-971.74 421.55,-164.76 356,-78 352.5,-73.37 348.09,-69.61 343.17,-66.57"/>
<polygon fill="midnightblue" stroke="midnightblue" points="395.15,-1064.08 405.37,-1066.88 399.12,-1058.32 395.15,-1064.08"/>
</g>
<!-- Node7&#45;&gt;Node82 -->
<g id="edge53" class="edge">
<title>Node7&#45;&gt;Node82</title>
<path fill="none" stroke="midnightblue" d="M396.92,-1061.06C395.15,-1059.53 393.5,-1057.84 392,-1056 319.9,-967.46 427.55,-117.98 356,-29 352.92,-25.18 349.19,-22.06 345.06,-19.53"/>
<polygon fill="midnightblue" stroke="midnightblue" points="395.14,-1064.09 405.36,-1066.88 399.11,-1058.32 395.14,-1064.09"/>
</g>
<!-- Node42&#45;&gt;Node43 -->
<g id="edge37" class="edge">
<title>Node42&#45;&gt;Node43</title>
<path fill="none" stroke="midnightblue" d="M211.08,-632.75C193.48,-634.47 174.54,-636.33 156.85,-638.06"/>
<polygon fill="midnightblue" stroke="midnightblue" points="211.66,-636.21 221.27,-631.75 210.97,-629.24 211.66,-636.21"/>
</g>
</g>
</svg>
