<?xml version="1.0" encoding="UTF-8" standalone="no"?>
<!DOCTYPE svg PUBLIC "-//W3C//DTD SVG 1.1//EN"
 "http://www.w3.org/Graphics/SVG/1.1/DTD/svg11.dtd">
<!-- Generated by graphviz version 2.44.1 (20200629.0800)
 -->
<!-- Title: TTrainController::SplitRepeat Pages: 1 -->
<svg width="659pt" height="133pt"
 viewBox="0.00 0.00 659.00 132.71" xmlns="http://www.w3.org/2000/svg" xmlns:xlink="http://www.w3.org/1999/xlink">
<g id="graph0" class="graph" transform="scale(1 1) rotate(0) translate(4 128.71)">
<title>TTrainController::SplitRepeat</title>
<polygon fill="white" stroke="transparent" points="-4,4 -4,-128.71 655,-128.71 655,4 -4,4"/>
<!-- Node1 -->
<g id="node1" class="node">
<title>Node1</title>
<g id="a_node1"><a xlink:title="Parse a timetable repeat entry, return true for success.">
<polygon fill="#bfbfbf" stroke="black" points="0,-59.53 0,-78.53 140,-78.53 140,-59.53 0,-59.53"/>
<text text-anchor="middle" x="70" y="-66.53" font-family="Helvetica,sans-Serif" font-size="10.00">TTrainController::SplitRepeat</text>
</a>
</g>
</g>
<!-- Node2 -->
<g id="node2" class="node">
<title>Node2</title>
<g id="a_node2"><a xlink:href="class_t_utilities.html#ae1eddca13cc3c492839e131f40ec21c0" target="_top" xlink:title="&lt; specifies whether no delays or minor, moderate or major random delays are to be applied">
<polygon fill="white" stroke="black" points="541,-84.53 541,-103.53 651,-103.53 651,-84.53 541,-84.53"/>
<text text-anchor="middle" x="596" y="-91.53" font-family="Helvetica,sans-Serif" font-size="10.00">TUtilities::CallLogPop</text>
</a>
</g>
</g>
<!-- Node1&#45;&gt;Node2 -->
<g id="edge1" class="edge">
<title>Node1&#45;&gt;Node2</title>
<path fill="none" stroke="midnightblue" d="M104.27,-78.54C177.05,-98.1 355.83,-139.36 505,-119.03 522.83,-116.6 542.11,-111.58 558.24,-106.67"/>
<polygon fill="midnightblue" stroke="midnightblue" points="559.34,-109.99 567.83,-103.65 557.24,-103.31 559.34,-109.99"/>
</g>
<!-- Node3 -->
<g id="node3" class="node">
<title>Node3</title>
<g id="a_node3"><a xlink:href="class_t_train_controller.html#a6fc210d266e7672ccc648c0a9ab4e542" target="_top" xlink:title="Checks the last two characters in HeadCode and returns true if both are digits.">
<polygon fill="white" stroke="black" points="344,-79.03 344,-109.03 505,-109.03 505,-79.03 344,-79.03"/>
<text text-anchor="start" x="352" y="-97.03" font-family="Helvetica,sans-Serif" font-size="10.00">TTrainController::Last2Characters</text>
<text text-anchor="middle" x="424.5" y="-86.03" font-family="Helvetica,sans-Serif" font-size="10.00">BothDigits</text>
</a>
</g>
</g>
<!-- Node1&#45;&gt;Node3 -->
<g id="edge2" class="edge">
<title>Node1&#45;&gt;Node3</title>
<path fill="none" stroke="midnightblue" d="M140.22,-73.94C195.57,-77.86 273.57,-83.39 333.72,-87.66"/>
<polygon fill="midnightblue" stroke="midnightblue" points="333.75,-91.17 343.97,-88.39 334.24,-84.19 333.75,-91.17"/>
</g>
<!-- Node4 -->
<g id="node4" class="node">
<title>Node4</title>
<g id="a_node4"><a xlink:href="class_t_utilities.html#a34bd6bb5305bc29afdf424f6d35a921c" target="_top" xlink:title="creates a string of the form &#39;hh:mm:ss&#39; for use in call &amp; event logging">
<polygon fill="white" stroke="black" points="541,-35.53 541,-54.53 651,-54.53 651,-35.53 541,-35.53"/>
<text text-anchor="middle" x="596" y="-42.53" font-family="Helvetica,sans-Serif" font-size="10.00">TUtilities::TimeStamp</text>
</a>
</g>
</g>
<!-- Node1&#45;&gt;Node4 -->
<g id="edge5" class="edge">
<title>Node1&#45;&gt;Node4</title>
<path fill="none" stroke="midnightblue" d="M85.9,-59.5C105.6,-47.52 141.83,-27.61 176,-20.03 318.75,11.64 360.12,-0.28 505,-20.03 522.83,-22.46 542.11,-27.48 558.24,-32.39"/>
<polygon fill="midnightblue" stroke="midnightblue" points="557.24,-35.74 567.83,-35.4 559.34,-29.06 557.24,-35.74"/>
</g>
<!-- Node5 -->
<g id="node5" class="node">
<title>Node5</title>
<g id="a_node5"><a xlink:href="class_t_train_controller.html#a68d2124bc8f7df43e973299e0afb3dcd" target="_top" xlink:title="Sends a message to the user if GiveMessages is true, including ServiceReference (see above) if not nu...">
<polygon fill="white" stroke="black" points="176,-30.03 176,-60.03 308,-60.03 308,-30.03 176,-30.03"/>
<text text-anchor="start" x="184" y="-48.03" font-family="Helvetica,sans-Serif" font-size="10.00">TTrainController::Timetable</text>
<text text-anchor="middle" x="242" y="-37.03" font-family="Helvetica,sans-Serif" font-size="10.00">Message</text>
</a>
</g>
</g>
<!-- Node1&#45;&gt;Node5 -->
<g id="edge6" class="edge">
<title>Node1&#45;&gt;Node5</title>
<path fill="none" stroke="midnightblue" d="M138.68,-59.47C147.56,-58.22 156.7,-56.93 165.7,-55.66"/>
<polygon fill="midnightblue" stroke="midnightblue" points="166.36,-59.1 175.77,-54.24 165.38,-52.17 166.36,-59.1"/>
</g>
<!-- Node3&#45;&gt;Node2 -->
<g id="edge3" class="edge">
<title>Node3&#45;&gt;Node2</title>
<path fill="none" stroke="midnightblue" d="M505.29,-94.03C513.83,-94.03 522.45,-94.03 530.78,-94.03"/>
<polygon fill="midnightblue" stroke="midnightblue" points="530.78,-97.53 540.78,-94.03 530.78,-90.53 530.78,-97.53"/>
</g>
<!-- Node3&#45;&gt;Node4 -->
<g id="edge4" class="edge">
<title>Node3&#45;&gt;Node4</title>
<path fill="none" stroke="midnightblue" d="M477.74,-78.93C501.72,-71.99 529.79,-63.88 552.46,-57.33"/>
<polygon fill="midnightblue" stroke="midnightblue" points="553.5,-60.67 562.13,-54.53 551.55,-53.94 553.5,-60.67"/>
</g>
<!-- Node6 -->
<g id="node6" class="node">
<title>Node6</title>
<g id="a_node6"><a xlink:href="class_t_train_controller.html#a1ccd6c8f2c24e7417889e1a91cb9ca2f" target="_top" xlink:title="Returns true if the headcode complies with requirements.">
<polygon fill="white" stroke="black" points="354.5,-30.03 354.5,-60.03 494.5,-60.03 494.5,-30.03 354.5,-30.03"/>
<text text-anchor="start" x="362.5" y="-48.03" font-family="Helvetica,sans-Serif" font-size="10.00">TTrainController::CheckHead</text>
<text text-anchor="middle" x="424.5" y="-37.03" font-family="Helvetica,sans-Serif" font-size="10.00">CodeValidity</text>
</a>
</g>
</g>
<!-- Node5&#45;&gt;Node6 -->
<g id="edge7" class="edge">
<title>Node5&#45;&gt;Node6</title>
<path fill="none" stroke="midnightblue" d="M308.16,-38.51C319.92,-38.29 332.29,-38.22 344.39,-38.32"/>
<polygon fill="midnightblue" stroke="midnightblue" points="344.43,-41.82 354.47,-38.45 344.52,-34.82 344.43,-41.82"/>
</g>
<!-- Node6&#45;&gt;Node2 -->
<g id="edge8" class="edge">
<title>Node6&#45;&gt;Node2</title>
<path fill="none" stroke="midnightblue" d="M477.74,-60.13C501.72,-67.06 529.79,-75.18 552.46,-81.73"/>
<polygon fill="midnightblue" stroke="midnightblue" points="551.55,-85.11 562.13,-84.52 553.5,-78.39 551.55,-85.11"/>
</g>
<!-- Node6&#45;&gt;Node4 -->
<g id="edge9" class="edge">
<title>Node6&#45;&gt;Node4</title>
<path fill="none" stroke="midnightblue" d="M494.93,-45.03C506.81,-45.03 519.11,-45.03 530.84,-45.03"/>
<polygon fill="midnightblue" stroke="midnightblue" points="530.98,-48.53 540.98,-45.03 530.98,-41.53 530.98,-48.53"/>
</g>
<!-- Node6&#45;&gt;Node5 -->
<g id="edge10" class="edge">
<title>Node6&#45;&gt;Node5</title>
<path fill="none" stroke="midnightblue" d="M354.47,-51.61C342.59,-51.8 330.19,-51.83 318.16,-51.69"/>
<polygon fill="midnightblue" stroke="midnightblue" points="318.22,-48.19 308.16,-51.54 318.11,-55.19 318.22,-48.19"/>
</g>
</g>
</svg>
