<?xml version="1.0" encoding="UTF-8" standalone="no"?>
<!DOCTYPE svg PUBLIC "-//W3C//DTD SVG 1.1//EN"
 "http://www.w3.org/Graphics/SVG/1.1/DTD/svg11.dtd">
<!-- Generated by graphviz version 2.44.1 (20200629.0800)
 -->
<!-- Title: TAllRoutes::StoreOneRouteAfterSessionLoad Pages: 1 -->
<svg width="461pt" height="174pt"
 viewBox="0.00 0.00 461.00 174.15" xmlns="http://www.w3.org/2000/svg" xmlns:xlink="http://www.w3.org/1999/xlink">
<g id="graph0" class="graph" transform="scale(1 1) rotate(0) translate(4 170.15)">
<title>TAllRoutes::StoreOneRouteAfterSessionLoad</title>
<polygon fill="white" stroke="transparent" points="-4,4 -4,-170.15 457,-170.15 457,4 -4,4"/>
<!-- Node1 -->
<g id="node1" class="node">
<title>Node1</title>
<g id="a_node1"><a xlink:title="A new (empty apart from RouteID) TOneRoute is added to the AllRoutesVector after a session load....">
<polygon fill="#bfbfbf" stroke="black" points="0,-77 0,-107 137,-107 137,-77 0,-77"/>
<text text-anchor="start" x="8" y="-95" font-family="Helvetica,sans-Serif" font-size="10.00">TAllRoutes::StoreOneRoute</text>
<text text-anchor="middle" x="68.5" y="-84" font-family="Helvetica,sans-Serif" font-size="10.00">AfterSessionLoad</text>
</a>
</g>
</g>
<!-- Node2 -->
<g id="node2" class="node">
<title>Node2</title>
<g id="a_node2"><a xlink:href="class_t_utilities.html#ae1eddca13cc3c492839e131f40ec21c0" target="_top" xlink:title="&lt; specifies whether no delays or minor, moderate or major random delays are to be applied">
<polygon fill="white" stroke="black" points="343,-102.5 343,-121.5 453,-121.5 453,-102.5 343,-102.5"/>
<text text-anchor="middle" x="398" y="-109.5" font-family="Helvetica,sans-Serif" font-size="10.00">TUtilities::CallLogPop</text>
</a>
</g>
</g>
<!-- Node1&#45;&gt;Node2 -->
<g id="edge1" class="edge">
<title>Node1&#45;&gt;Node2</title>
<path fill="none" stroke="midnightblue" d="M87.48,-107.24C107.05,-122.73 139.99,-145.74 173,-155 230.34,-171.08 248.92,-168.16 307,-155 330.8,-149.61 355.66,-137.12 373.21,-126.99"/>
<polygon fill="midnightblue" stroke="midnightblue" points="375.36,-129.79 382.16,-121.66 371.77,-123.77 375.36,-129.79"/>
</g>
<!-- Node3 -->
<g id="node3" class="node">
<title>Node3</title>
<g id="a_node3"><a xlink:href="class_t_pref_dir_element.html#af00e0755cd716b4d101abbae02c73ca2" target="_top" xlink:title="Returns ELink.">
<polygon fill="white" stroke="black" points="173,-126.5 173,-145.5 307,-145.5 307,-126.5 173,-126.5"/>
<text text-anchor="middle" x="240" y="-133.5" font-family="Helvetica,sans-Serif" font-size="10.00">TPrefDirElement::GetELink</text>
</a>
</g>
</g>
<!-- Node1&#45;&gt;Node3 -->
<g id="edge2" class="edge">
<title>Node1&#45;&gt;Node3</title>
<path fill="none" stroke="midnightblue" d="M127.36,-107.02C148.61,-112.54 172.37,-118.7 192.5,-123.93"/>
<polygon fill="midnightblue" stroke="midnightblue" points="191.8,-127.36 202.36,-126.49 193.56,-120.59 191.8,-127.36"/>
</g>
<!-- Node4 -->
<g id="node4" class="node">
<title>Node4</title>
<g id="a_node4"><a xlink:href="class_t_one_pref_dir.html#a5b67e5aaa86d324229aedc68f32f32b8" target="_top" xlink:title="Return a non&#45;modifiable element at PrefDirVector position &#39;At&#39;.">
<polygon fill="white" stroke="black" points="174,-77 174,-107 306,-107 306,-77 174,-77"/>
<text text-anchor="start" x="182" y="-95" font-family="Helvetica,sans-Serif" font-size="10.00">TOnePrefDir::GetFixedPref</text>
<text text-anchor="middle" x="240" y="-84" font-family="Helvetica,sans-Serif" font-size="10.00">DirElementAt</text>
</a>
</g>
</g>
<!-- Node1&#45;&gt;Node4 -->
<g id="edge3" class="edge">
<title>Node1&#45;&gt;Node4</title>
<path fill="none" stroke="midnightblue" d="M137.47,-92C146.07,-92 154.92,-92 163.63,-92"/>
<polygon fill="midnightblue" stroke="midnightblue" points="163.77,-95.5 173.77,-92 163.77,-88.5 163.77,-95.5"/>
</g>
<!-- Node5 -->
<g id="node5" class="node">
<title>Node5</title>
<g id="a_node5"><a xlink:href="class_t_utilities.html#a34bd6bb5305bc29afdf424f6d35a921c" target="_top" xlink:title="creates a string of the form &#39;hh:mm:ss&#39; for use in call &amp; event logging">
<polygon fill="white" stroke="black" points="343,-61.5 343,-80.5 453,-80.5 453,-61.5 343,-61.5"/>
<text text-anchor="middle" x="398" y="-68.5" font-family="Helvetica,sans-Serif" font-size="10.00">TUtilities::TimeStamp</text>
</a>
</g>
</g>
<!-- Node1&#45;&gt;Node5 -->
<g id="edge7" class="edge">
<title>Node1&#45;&gt;Node5</title>
<path fill="none" stroke="midnightblue" d="M121.18,-76.97C137.6,-72.89 155.93,-69.03 173,-67 232.14,-59.96 247.46,-65.68 307,-67 315.32,-67.18 324.06,-67.47 332.7,-67.79"/>
<polygon fill="midnightblue" stroke="midnightblue" points="332.63,-71.29 342.76,-68.2 332.91,-64.3 332.63,-71.29"/>
</g>
<!-- Node6 -->
<g id="node6" class="node">
<title>Node6</title>
<g id="a_node6"><a xlink:href="class_t_one_pref_dir.html#a29d013bf730e23d27fdb2c390e3a14da" target="_top" xlink:title="Return the vector size.">
<polygon fill="white" stroke="black" points="178,-0.5 178,-19.5 302,-19.5 302,-0.5 178,-0.5"/>
<text text-anchor="middle" x="240" y="-7.5" font-family="Helvetica,sans-Serif" font-size="10.00">TOnePrefDir::PrefDirSize</text>
</a>
</g>
</g>
<!-- Node1&#45;&gt;Node6 -->
<g id="edge6" class="edge">
<title>Node1&#45;&gt;Node6</title>
<path fill="none" stroke="midnightblue" d="M94.01,-76.77C114.62,-64.34 145.1,-46.79 173,-34 181.63,-30.05 191.11,-26.28 200.13,-22.95"/>
<polygon fill="midnightblue" stroke="midnightblue" points="201.45,-26.19 209.68,-19.52 199.08,-19.6 201.45,-26.19"/>
</g>
<!-- Node4&#45;&gt;Node2 -->
<g id="edge4" class="edge">
<title>Node4&#45;&gt;Node2</title>
<path fill="none" stroke="midnightblue" d="M306.25,-100.37C315.02,-101.49 324,-102.64 332.74,-103.76"/>
<polygon fill="midnightblue" stroke="midnightblue" points="332.51,-107.26 342.87,-105.06 333.4,-100.32 332.51,-107.26"/>
</g>
<!-- Node4&#45;&gt;Node5 -->
<g id="edge5" class="edge">
<title>Node4&#45;&gt;Node5</title>
<path fill="none" stroke="midnightblue" d="M306.25,-83.22C315.02,-82.04 324,-80.83 332.74,-79.65"/>
<polygon fill="midnightblue" stroke="midnightblue" points="333.43,-83.09 342.87,-78.29 332.49,-76.15 333.43,-83.09"/>
</g>
</g>
</svg>
