<?xml version="1.0" encoding="UTF-8" standalone="no"?>
<!DOCTYPE svg PUBLIC "-//W3C//DTD SVG 1.1//EN"
 "http://www.w3.org/Graphics/SVG/1.1/DTD/svg11.dtd">
<!-- Generated by graphviz version 2.44.1 (20200629.0800)
 -->
<!-- Title: TUtilities::Format96HHMM Pages: 1 -->
<!--zoomable 488 -->
<svg id="main" version="1.1" xmlns="http://www.w3.org/2000/svg" xmlns:xlink="http://www.w3.org/1999/xlink" xml:space="preserve" onload="init(evt)">
<style type="text/css"><![CDATA[
.edge:hover path { stroke: red; }
.edge:hover polygon { stroke: red; fill: red; }
]]></style>
<script type="text/javascript"><![CDATA[
var edges = document.getElementsByTagName('g');
if (edges && edges.length) {
  for (var i=0;i<edges.length;i++) {
    if (edges[i].id.substr(0,4)=='edge') {
      edges[i].setAttribute('class','edge');
    }
  }
}
]]></script>
        <defs>
                <circle id="rim" cx="0" cy="0" r="7"/>
                <circle id="rim2" cx="0" cy="0" r="3.5"/>
                <g id="zoomPlus">
                        <use xlink:href="#rim" fill="#404040">
                                <set attributeName="fill" to="#808080" begin="zoomplus.mouseover" end="zoomplus.mouseout"/>
                        </use>
                        <path d="M-4,0h8M0,-4v8" fill="none" stroke="white" stroke-width="1.5" pointer-events="none"/>
                </g>
                <g id="zoomMin">
                        <use xlink:href="#rim" fill="#404040">
                                <set attributeName="fill" to="#808080" begin="zoomminus.mouseover" end="zoomminus.mouseout"/>
                        </use>
                        <path d="M-4,0h8" fill="none" stroke="white" stroke-width="1.5" pointer-events="none"/>
                </g>
                <g id="dirArrow">
                        <path fill="none" stroke="white" stroke-width="1.5" d="M0,-3.0v7 M-2.5,-0.5L0,-3.0L2.5,-0.5"/>
                </g>
               <g id="resetDef">
                       <use xlink:href="#rim2" fill="#404040">
                               <set attributeName="fill" to="#808080" begin="reset.mouseover" end="reset.mouseout"/>
                       </use>
               </g>
        </defs>

<script type="text/javascript">
var viewWidth = 1209;
var viewHeight = 488;
var sectionId = 'dynsection-16';
</script>
<script xlink:href="svgpan.js"/>
<svg id="graph" class="graph">
<g id="viewport">
<title>TUtilities::Format96HHMM</title>
<polygon fill="white" stroke="transparent" points="-4,4 -4,-483.5 1205,-483.5 1205,4 -4,4"/>
<!-- Node1 -->
<g id="node1" class="node">
<title>Node1</title>
<g id="a_node1"><a xlink:title="formats a TDateTime into an AnsiString of the form hh:mm where hh runs from 00 to 95 &amp; resets when it...">
<polygon fill="#bfbfbf" stroke="black" points="1070,-225.5 1070,-244.5 1201,-244.5 1201,-225.5 1070,-225.5"/>
<text text-anchor="middle" x="1135.5" y="-232.5" font-family="Helvetica,sans-Serif" font-size="10.00">TUtilities::Format96HHMM</text>
</a>
</g>
</g>
<!-- Node2 -->
<g id="node2" class="node">
<title>Node2</title>
<g id="a_node2"><a xlink:href="class_t_train_controller.html#a9c531d3df66921ada4e698bcf47f72f3" target="_top" xlink:title="Build string for use in floating window for expected trains at continuations.">
<polygon fill="white" stroke="black" points="682,-214 682,-244 826,-244 826,-214 682,-214"/>
<text text-anchor="start" x="690" y="-232" font-family="Helvetica,sans-Serif" font-size="10.00">TTrainController::Continuation</text>
<text text-anchor="middle" x="754" y="-221" font-family="Helvetica,sans-Serif" font-size="10.00">EntryFloatingTTString</text>
</a>
</g>
</g>
<!-- Node1&#45;&gt;Node2 -->
<g id="edge1" class="edge">
<title>Node1&#45;&gt;Node2</title>
<path fill="none" stroke="midnightblue" d="M1059.52,-233.81C991.81,-232.74 892.87,-231.18 826.32,-230.13"/>
<polygon fill="midnightblue" stroke="midnightblue" points="1059.64,-237.32 1069.69,-233.98 1059.75,-230.32 1059.64,-237.32"/>
</g>
<!-- Node3 -->
<g id="node3" class="node">
<title>Node3</title>
<g id="a_node3"><a xlink:href="class_t_interface.html#adc9ce6e5ee756279efbe92fd749355bf" target="_top" xlink:title="Called when floating train info needed and train hasn&#39;t entered yet.">
<polygon fill="white" stroke="black" points="510,-258 510,-288 646,-288 646,-258 510,-258"/>
<text text-anchor="start" x="518" y="-276" font-family="Helvetica,sans-Serif" font-size="10.00">TInterface::GetTrainFloating</text>
<text text-anchor="middle" x="578" y="-265" font-family="Helvetica,sans-Serif" font-size="10.00">InfoFromContinuation</text>
</a>
</g>
</g>
<!-- Node1&#45;&gt;Node3 -->
<g id="edge22" class="edge">
<title>Node1&#45;&gt;Node3</title>
<path fill="none" stroke="midnightblue" d="M1059.79,-243.59C1051.1,-244.47 1042.36,-245.29 1034,-246 896.4,-257.61 734.98,-265.93 646.15,-270.06"/>
<polygon fill="midnightblue" stroke="midnightblue" points="1060.35,-247.05 1069.94,-242.55 1059.63,-240.09 1060.35,-247.05"/>
</g>
<!-- Node7 -->
<g id="node7" class="node">
<title>Node7</title>
<g id="a_node7"><a xlink:href="class_t_train_controller.html#aab94af5bb445fc36543e2c22d2986daa" target="_top" xlink:title="Similar to TTrain::GetNewServiceDepartureInfo for use in ContinuationEntryFloatingTTString.">
<polygon fill="white" stroke="black" points="878,-176 878,-206 1018,-206 1018,-176 878,-176"/>
<text text-anchor="start" x="886" y="-194" font-family="Helvetica,sans-Serif" font-size="10.00">TTrainController::Controller</text>
<text text-anchor="middle" x="948" y="-183" font-family="Helvetica,sans-Serif" font-size="10.00">GetNewServiceDepartureInfo</text>
</a>
</g>
</g>
<!-- Node1&#45;&gt;Node7 -->
<g id="edge6" class="edge">
<title>Node1&#45;&gt;Node7</title>
<path fill="none" stroke="midnightblue" d="M1084.4,-223.12C1062.27,-217.87 1036,-211.64 1012.51,-206.07"/>
<polygon fill="midnightblue" stroke="midnightblue" points="1083.71,-226.55 1094.25,-225.45 1085.33,-219.74 1083.71,-226.55"/>
</g>
<!-- Node8 -->
<g id="node8" class="node">
<title>Node8</title>
<g id="a_node8"><a xlink:href="class_t_train_controller.html#a4ab4b6a568064d27c65f0770e5a5ccd0" target="_top" xlink:title="Examines the internal timetable (TrainDataVector) and creates from it a chronological (....">
<polygon fill="white" stroke="black" points="888.5,-302 888.5,-332 1007.5,-332 1007.5,-302 888.5,-302"/>
<text text-anchor="start" x="896.5" y="-320" font-family="Helvetica,sans-Serif" font-size="10.00">TTrainController::Create</text>
<text text-anchor="middle" x="948" y="-309" font-family="Helvetica,sans-Serif" font-size="10.00">FormattedTimetable</text>
</a>
</g>
</g>
<!-- Node1&#45;&gt;Node8 -->
<g id="edge8" class="edge">
<title>Node1&#45;&gt;Node8</title>
<path fill="none" stroke="midnightblue" d="M1108.96,-249.46C1088.93,-260.5 1060.15,-275.69 1034,-287 1021.65,-292.34 1008,-297.48 995.33,-301.95"/>
<polygon fill="midnightblue" stroke="midnightblue" points="1110.74,-252.48 1117.78,-244.56 1107.33,-246.36 1110.74,-252.48"/>
</g>
<!-- Node11 -->
<g id="node11" class="node">
<title>Node11</title>
<g id="a_node11"><a xlink:href="class_t_train_controller.html#a6a7975052fcea4a8f0f72214a4a0f298" target="_top" xlink:title="Generate a timetable analysis file in the &#39;Formatted Timetables&#39; folder, return false if failed for a...">
<polygon fill="white" stroke="black" points="518.5,-83 518.5,-113 637.5,-113 637.5,-83 518.5,-83"/>
<text text-anchor="start" x="526.5" y="-101" font-family="Helvetica,sans-Serif" font-size="10.00">TTrainController::Create</text>
<text text-anchor="middle" x="578" y="-90" font-family="Helvetica,sans-Serif" font-size="10.00">TTAnalysisFile</text>
</a>
</g>
</g>
<!-- Node1&#45;&gt;Node11 -->
<g id="edge11" class="edge">
<title>Node1&#45;&gt;Node11</title>
<path fill="none" stroke="midnightblue" d="M1125.07,-216.52C1110.02,-189.28 1077.75,-139.27 1034,-118 965.82,-84.85 744.51,-90.14 637.71,-94.88"/>
<polygon fill="midnightblue" stroke="midnightblue" points="1122.03,-218.26 1129.83,-225.44 1128.21,-214.96 1122.03,-218.26"/>
</g>
<!-- Node13 -->
<g id="node13" class="node">
<title>Node13</title>
<g id="a_node13"><a xlink:href="class_t_train.html#a221da69cd80d206a06f840f4cd463cf9" target="_top" xlink:title="Used in the floating window to display the &#39;Next&#39; action.">
<polygon fill="white" stroke="black" points="690.5,-449 690.5,-479 817.5,-479 817.5,-449 690.5,-449"/>
<text text-anchor="start" x="698.5" y="-467" font-family="Helvetica,sans-Serif" font-size="10.00">TTrain::FloatingLabelNext</text>
<text text-anchor="middle" x="754" y="-456" font-family="Helvetica,sans-Serif" font-size="10.00">String</text>
</a>
</g>
</g>
<!-- Node1&#45;&gt;Node13 -->
<g id="edge13" class="edge">
<title>Node1&#45;&gt;Node13</title>
<path fill="none" stroke="midnightblue" d="M1131,-254.65C1122.53,-295.74 1096.85,-390.53 1034,-434 970.4,-477.99 878.39,-478.96 817.66,-473.35"/>
<polygon fill="midnightblue" stroke="midnightblue" points="1134.48,-255.06 1132.94,-244.57 1127.61,-253.73 1134.48,-255.06"/>
</g>
<!-- Node15 -->
<g id="node15" class="node">
<title>Node15</title>
<g id="a_node15"><a xlink:href="class_t_train.html#a81bf61b47a2867f0c6901b1ea6f47177" target="_top" xlink:title="Used in the floating window to display the timetable.">
<polygon fill="white" stroke="black" points="691.5,-400 691.5,-430 816.5,-430 816.5,-400 691.5,-400"/>
<text text-anchor="start" x="699.5" y="-418" font-family="Helvetica,sans-Serif" font-size="10.00">TTrain::FloatingTimetable</text>
<text text-anchor="middle" x="754" y="-407" font-family="Helvetica,sans-Serif" font-size="10.00">String</text>
</a>
</g>
</g>
<!-- Node1&#45;&gt;Node15 -->
<g id="edge16" class="edge">
<title>Node1&#45;&gt;Node15</title>
<path fill="none" stroke="midnightblue" d="M1122.39,-253.23C1105.48,-277.25 1072.49,-319.12 1034,-342 997.52,-363.68 887.04,-388.65 816.54,-403.06"/>
<polygon fill="midnightblue" stroke="midnightblue" points="1125.48,-254.92 1128.26,-244.7 1119.71,-250.96 1125.48,-254.92"/>
</g>
<!-- Node17 -->
<g id="node17" class="node">
<title>Node17</title>
<g id="a_node17"><a xlink:href="class_t_train.html#a62f0a2254b8a6fcc0a0d7a827c9853f6" target="_top" xlink:title="called during FloatingLabelNextString to find the next service departure time &amp; next location (last b...">
<polygon fill="white" stroke="black" points="862,-405.5 862,-424.5 1034,-424.5 1034,-405.5 862,-405.5"/>
<text text-anchor="middle" x="948" y="-412.5" font-family="Helvetica,sans-Serif" font-size="10.00">TTrain::GetNewServiceDepartureInfo</text>
</a>
</g>
</g>
<!-- Node1&#45;&gt;Node17 -->
<g id="edge19" class="edge">
<title>Node1&#45;&gt;Node17</title>
<path fill="none" stroke="midnightblue" d="M1126.24,-254.14C1111.86,-285.34 1079.38,-347.26 1034,-383 1020.99,-393.24 1004.36,-400.47 989.26,-405.43"/>
<polygon fill="midnightblue" stroke="midnightblue" points="1129.52,-255.38 1130.41,-244.82 1123.13,-252.51 1129.52,-255.38"/>
</g>
<!-- Node18 -->
<g id="node18" class="node">
<title>Node18</title>
<g id="a_node18"><a xlink:href="class_t_train_controller.html#a6bd2f1659b0f43b861ab1279af814f70" target="_top" xlink:title="Determines whether two services are running in the same direction when they arrive or depart from Loc...">
<polygon fill="white" stroke="black" points="871,-0.5 871,-19.5 1025,-19.5 1025,-0.5 871,-0.5"/>
<text text-anchor="middle" x="948" y="-7.5" font-family="Helvetica,sans-Serif" font-size="10.00">TTrainController::SameDirection</text>
</a>
</g>
</g>
<!-- Node1&#45;&gt;Node18 -->
<g id="edge23" class="edge">
<title>Node1&#45;&gt;Node18</title>
<path fill="none" stroke="midnightblue" d="M1130.86,-215.5C1122.1,-174.22 1095.79,-77.79 1034,-29 1029.13,-25.16 1023.65,-22.06 1017.86,-19.56"/>
<polygon fill="midnightblue" stroke="midnightblue" points="1127.45,-216.27 1132.85,-225.39 1134.31,-214.89 1127.45,-216.27"/>
</g>
<!-- Node20 -->
<g id="node20" class="node">
<title>Node20</title>
<g id="a_node20"><a xlink:href="class_t_train_controller.html#a6161618bda2a677f797eda9a9deeb9fa" target="_top" xlink:title="diagnostic function to store all train data to a file for examination, not used normally">
<polygon fill="white" stroke="black" points="882,-39 882,-69 1014,-69 1014,-39 882,-39"/>
<text text-anchor="start" x="890" y="-57" font-family="Helvetica,sans-Serif" font-size="10.00">TTrainController::SaveTrain</text>
<text text-anchor="middle" x="948" y="-46" font-family="Helvetica,sans-Serif" font-size="10.00">DataVectorToFile</text>
</a>
</g>
</g>
<!-- Node1&#45;&gt;Node20 -->
<g id="edge26" class="edge">
<title>Node1&#45;&gt;Node20</title>
<path fill="none" stroke="midnightblue" d="M1126.63,-215.82C1112.63,-183.98 1080.44,-120.15 1034,-84 1026.22,-77.94 1017.12,-73.05 1007.82,-69.12"/>
<polygon fill="midnightblue" stroke="midnightblue" points="1123.53,-217.48 1130.68,-225.31 1129.97,-214.74 1123.53,-217.48"/>
</g>
<!-- Node21 -->
<g id="node21" class="node">
<title>Node21</title>
<g id="a_node21"><a xlink:href="class_t_train_controller.html#aa92b0775f08a0f99bfe1e54796825df7" target="_top" xlink:title="Outputs the single service vector for train direction analysis purposes in timetable conflict analysi...">
<polygon fill="white" stroke="black" points="889.5,-127 889.5,-157 1006.5,-157 1006.5,-127 889.5,-127"/>
<text text-anchor="start" x="897.5" y="-145" font-family="Helvetica,sans-Serif" font-size="10.00">TTrainController::Single</text>
<text text-anchor="middle" x="948" y="-134" font-family="Helvetica,sans-Serif" font-size="10.00">ServiceOutput</text>
</a>
</g>
</g>
<!-- Node1&#45;&gt;Node21 -->
<g id="edge27" class="edge">
<title>Node1&#45;&gt;Node21</title>
<path fill="none" stroke="midnightblue" d="M1114.77,-218.92C1095.27,-203.72 1064.08,-181.18 1034,-167 1025.37,-162.93 1015.94,-159.37 1006.6,-156.31"/>
<polygon fill="midnightblue" stroke="midnightblue" points="1112.85,-221.87 1122.86,-225.34 1117.19,-216.38 1112.85,-221.87"/>
</g>
<!-- Node2&#45;&gt;Node3 -->
<g id="edge2" class="edge">
<title>Node2&#45;&gt;Node3</title>
<path fill="none" stroke="midnightblue" d="M683.85,-246.49C668.82,-250.29 653.04,-254.28 638.42,-257.97"/>
<polygon fill="midnightblue" stroke="midnightblue" points="684.77,-249.86 693.61,-244.02 683.05,-243.08 684.77,-249.86"/>
</g>
<!-- Node4 -->
<g id="node4" class="node">
<title>Node4</title>
<g id="a_node4"><a xlink:href="class_t_interface.html#a9aaa19d39382a32701d7ded3b8c1802b" target="_top" xlink:title="Controls the floating window function, called during the ClockTimer2 function.">
<polygon fill="white" stroke="black" points="338.5,-406.5 338.5,-425.5 469.5,-425.5 469.5,-406.5 338.5,-406.5"/>
<text text-anchor="middle" x="404" y="-413.5" font-family="Helvetica,sans-Serif" font-size="10.00">TInterface::TrackTrainFloat</text>
</a>
</g>
</g>
<!-- Node3&#45;&gt;Node4 -->
<g id="edge3" class="edge">
<title>Node3&#45;&gt;Node4</title>
<path fill="none" stroke="midnightblue" d="M550.87,-294.73C512.9,-326.29 444.06,-383.53 416.68,-406.29"/>
<polygon fill="midnightblue" stroke="midnightblue" points="553.47,-297.12 558.92,-288.03 548.99,-291.73 553.47,-297.12"/>
</g>
<!-- Node5 -->
<g id="node5" class="node">
<title>Node5</title>
<g id="a_node5"><a xlink:href="class_t_interface.html#a6139ffb52492eb89e5487a8a3cd647b5" target="_top" xlink:title="The main loop, called every clock tick via MasterClockTimer.">
<polygon fill="white" stroke="black" points="179,-406.5 179,-425.5 298,-425.5 298,-406.5 179,-406.5"/>
<text text-anchor="middle" x="238.5" y="-413.5" font-family="Helvetica,sans-Serif" font-size="10.00">TInterface::ClockTimer2</text>
</a>
</g>
</g>
<!-- Node4&#45;&gt;Node5 -->
<g id="edge4" class="edge">
<title>Node4&#45;&gt;Node5</title>
<path fill="none" stroke="midnightblue" d="M328.31,-416C318.17,-416 307.88,-416 298.08,-416"/>
<polygon fill="midnightblue" stroke="midnightblue" points="328.38,-419.5 338.38,-416 328.38,-412.5 328.38,-419.5"/>
</g>
<!-- Node6 -->
<g id="node6" class="node">
<title>Node6</title>
<g id="a_node6"><a xlink:href="class_t_interface.html#ace30a12d923fc7fb489afabb0a09aa4f" target="_top" xlink:title=" ">
<polygon fill="white" stroke="black" points="0,-406.5 0,-425.5 143,-425.5 143,-406.5 0,-406.5"/>
<text text-anchor="middle" x="71.5" y="-413.5" font-family="Helvetica,sans-Serif" font-size="10.00">TInterface::MasterClockTimer</text>
</a>
</g>
</g>
<!-- Node5&#45;&gt;Node6 -->
<g id="edge5" class="edge">
<title>Node5&#45;&gt;Node6</title>
<path fill="none" stroke="midnightblue" d="M168.67,-416C160.22,-416 151.57,-416 143.09,-416"/>
<polygon fill="midnightblue" stroke="midnightblue" points="168.86,-419.5 178.86,-416 168.86,-412.5 168.86,-419.5"/>
</g>
<!-- Node7&#45;&gt;Node2 -->
<g id="edge7" class="edge">
<title>Node7&#45;&gt;Node2</title>
<path fill="none" stroke="midnightblue" d="M867.94,-206.65C854.05,-209.4 839.67,-212.24 826.02,-214.94"/>
<polygon fill="midnightblue" stroke="midnightblue" points="868.82,-210.04 877.95,-204.67 867.47,-203.17 868.82,-210.04"/>
</g>
<!-- Node9 -->
<g id="node9" class="node">
<title>Node9</title>
<g id="a_node9"><a xlink:href="class_t_interface.html#ab7c52bd31930036c95b9b71c2f1f0426" target="_top" xlink:title=" ">
<polygon fill="white" stroke="black" points="688,-302 688,-332 820,-332 820,-302 688,-302"/>
<text text-anchor="start" x="696" y="-320" font-family="Helvetica,sans-Serif" font-size="10.00">TInterface::ExportTTButton</text>
<text text-anchor="middle" x="754" y="-309" font-family="Helvetica,sans-Serif" font-size="10.00">Click</text>
</a>
</g>
</g>
<!-- Node8&#45;&gt;Node9 -->
<g id="edge9" class="edge">
<title>Node8&#45;&gt;Node9</title>
<path fill="none" stroke="midnightblue" d="M878.33,-317C859.45,-317 839.02,-317 820.32,-317"/>
<polygon fill="midnightblue" stroke="midnightblue" points="878.35,-320.5 888.35,-317 878.35,-313.5 878.35,-320.5"/>
</g>
<!-- Node10 -->
<g id="node10" class="node">
<title>Node10</title>
<g id="a_node10"><a xlink:href="class_t_interface.html#a1bf4807428bf9fa4504be97d28642597" target="_top" xlink:title=" ">
<polygon fill="white" stroke="black" points="690,-351 690,-381 818,-381 818,-351 690,-351"/>
<text text-anchor="start" x="698" y="-369" font-family="Helvetica,sans-Serif" font-size="10.00">TInterface::ExportTTMenu</text>
<text text-anchor="middle" x="754" y="-358" font-family="Helvetica,sans-Serif" font-size="10.00">ItemClick</text>
</a>
</g>
</g>
<!-- Node8&#45;&gt;Node10 -->
<g id="edge10" class="edge">
<title>Node8&#45;&gt;Node10</title>
<path fill="none" stroke="midnightblue" d="M878.49,-334.48C857.39,-339.87 834.35,-345.75 813.95,-350.95"/>
<polygon fill="midnightblue" stroke="midnightblue" points="879.53,-337.83 888.35,-331.97 877.8,-331.05 879.53,-337.83"/>
</g>
<!-- Node12 -->
<g id="node12" class="node">
<title>Node12</title>
<g id="a_node12"><a xlink:href="class_t_interface.html#a6379037c7970acda71188947cb3ba6b2" target="_top" xlink:title=" ">
<polygon fill="white" stroke="black" points="334,-83 334,-113 474,-113 474,-83 334,-83"/>
<text text-anchor="start" x="342" y="-101" font-family="Helvetica,sans-Serif" font-size="10.00">TInterface::CPGenFileButton</text>
<text text-anchor="middle" x="404" y="-90" font-family="Helvetica,sans-Serif" font-size="10.00">Click</text>
</a>
</g>
</g>
<!-- Node11&#45;&gt;Node12 -->
<g id="edge12" class="edge">
<title>Node11&#45;&gt;Node12</title>
<path fill="none" stroke="midnightblue" d="M508.14,-98C496.94,-98 485.33,-98 474.12,-98"/>
<polygon fill="midnightblue" stroke="midnightblue" points="508.29,-101.5 518.29,-98 508.29,-94.5 508.29,-101.5"/>
</g>
<!-- Node14 -->
<g id="node14" class="node">
<title>Node14</title>
<g id="a_node14"><a xlink:href="class_t_interface.html#a51b94ffa3dc90fe4e3bec2f1ae28074e" target="_top" xlink:title="used for floating window to display train status">
<polygon fill="white" stroke="black" points="513,-447 513,-477 643,-477 643,-447 513,-447"/>
<text text-anchor="start" x="521" y="-465" font-family="Helvetica,sans-Serif" font-size="10.00">TInterface::GetTrainStatus</text>
<text text-anchor="middle" x="578" y="-454" font-family="Helvetica,sans-Serif" font-size="10.00">Float</text>
</a>
</g>
</g>
<!-- Node13&#45;&gt;Node14 -->
<g id="edge14" class="edge">
<title>Node13&#45;&gt;Node14</title>
<path fill="none" stroke="midnightblue" d="M680.02,-463.16C667.79,-463.02 655.18,-462.88 643.19,-462.74"/>
<polygon fill="midnightblue" stroke="midnightblue" points="680.14,-466.66 690.18,-463.28 680.22,-459.66 680.14,-466.66"/>
</g>
<!-- Node14&#45;&gt;Node4 -->
<g id="edge15" class="edge">
<title>Node14&#45;&gt;Node4</title>
<path fill="none" stroke="midnightblue" d="M510.94,-444.33C487.03,-437.94 460.93,-430.96 440.63,-425.53"/>
<polygon fill="midnightblue" stroke="midnightblue" points="510.12,-447.74 520.68,-446.94 511.92,-440.97 510.12,-447.74"/>
</g>
<!-- Node15&#45;&gt;Node4 -->
<g id="edge18" class="edge">
<title>Node15&#45;&gt;Node4</title>
<path fill="none" stroke="midnightblue" d="M681.06,-415.21C618.87,-415.39 529.78,-415.64 469.78,-415.81"/>
<polygon fill="midnightblue" stroke="midnightblue" points="681.2,-418.71 691.19,-415.18 681.18,-411.71 681.2,-418.71"/>
</g>
<!-- Node16 -->
<g id="node16" class="node">
<title>Node16</title>
<g id="a_node16"><a xlink:href="class_t_interface.html#a40232083747ef274344eed7021c6f43c" target="_top" xlink:title=" ">
<polygon fill="white" stroke="black" points="512.5,-357 512.5,-387 643.5,-387 643.5,-357 512.5,-357"/>
<text text-anchor="start" x="520.5" y="-375" font-family="Helvetica,sans-Serif" font-size="10.00">TInterface::SkipTimetabled</text>
<text text-anchor="middle" x="578" y="-364" font-family="Helvetica,sans-Serif" font-size="10.00">ActionsMenuItemClick</text>
</a>
</g>
</g>
<!-- Node15&#45;&gt;Node16 -->
<g id="edge17" class="edge">
<title>Node15&#45;&gt;Node16</title>
<path fill="none" stroke="midnightblue" d="M682.06,-397.47C668.05,-394.01 653.46,-390.4 639.82,-387.03"/>
<polygon fill="midnightblue" stroke="midnightblue" points="681.6,-400.96 692.14,-399.96 683.27,-394.16 681.6,-400.96"/>
</g>
<!-- Node17&#45;&gt;Node13 -->
<g id="edge20" class="edge">
<title>Node17&#45;&gt;Node13</title>
<path fill="none" stroke="midnightblue" d="M899.58,-427.1C873.7,-433.71 841.41,-441.95 813.92,-448.96"/>
<polygon fill="midnightblue" stroke="midnightblue" points="900.7,-430.43 909.52,-424.56 898.97,-423.65 900.7,-430.43"/>
</g>
<!-- Node17&#45;&gt;Node15 -->
<g id="edge21" class="edge">
<title>Node17&#45;&gt;Node15</title>
<path fill="none" stroke="midnightblue" d="M851.9,-415C839.92,-415 827.93,-415 816.65,-415"/>
<polygon fill="midnightblue" stroke="midnightblue" points="851.95,-418.5 861.95,-415 851.95,-411.5 851.95,-418.5"/>
</g>
<!-- Node19 -->
<g id="node19" class="node">
<title>Node19</title>
<g id="a_node19"><a xlink:href="class_t_train_controller.html#a9529f225878cf4920b52914022f44c4e" target="_top" xlink:title="Removes duplicates from and sorts ServiceAndRepeatNumTotal into alphabetical order for arrivals (bool...">
<polygon fill="white" stroke="black" points="683.5,-17 683.5,-47 824.5,-47 824.5,-17 683.5,-17"/>
<text text-anchor="start" x="691.5" y="-35" font-family="Helvetica,sans-Serif" font-size="10.00">TTrainController::Consolidate</text>
<text text-anchor="middle" x="754" y="-24" font-family="Helvetica,sans-Serif" font-size="10.00">SARNTArrDep</text>
</a>
</g>
</g>
<!-- Node18&#45;&gt;Node19 -->
<g id="edge24" class="edge">
<title>Node18&#45;&gt;Node19</title>
<path fill="none" stroke="midnightblue" d="M860.73,-19.89C848.61,-21.27 836.28,-22.69 824.52,-24.03"/>
<polygon fill="midnightblue" stroke="midnightblue" points="861.3,-23.34 870.84,-18.73 860.51,-16.39 861.3,-23.34"/>
</g>
<!-- Node19&#45;&gt;Node11 -->
<g id="edge25" class="edge">
<title>Node19&#45;&gt;Node11</title>
<path fill="none" stroke="midnightblue" d="M703.48,-50.78C676.63,-60.97 643.9,-73.38 618.73,-82.93"/>
<polygon fill="midnightblue" stroke="midnightblue" points="704.97,-53.96 713.08,-47.14 702.49,-47.42 704.97,-53.96"/>
</g>
<!-- Node21&#45;&gt;Node11 -->
<g id="edge28" class="edge">
<title>Node21&#45;&gt;Node11</title>
<path fill="none" stroke="midnightblue" d="M879.26,-134.75C825.68,-128.92 749.01,-120.35 682,-112 667.58,-110.2 652.05,-108.15 637.53,-106.19"/>
<polygon fill="midnightblue" stroke="midnightblue" points="879,-138.25 889.32,-135.85 879.75,-131.29 879,-138.25"/>
</g>
</g>
</svg>
        <g id="navigator" transform="translate(0 0)" fill="#404254">
                <rect fill="#f2f5e9" fill-opacity="0.5" stroke="#606060" stroke-width=".5" x="0" y="0" width="60" height="60"/>
                <use id="zoomplus" xlink:href="#zoomPlus" x="17" y="9" onmousedown="handleZoom(evt,'in')"/>
                <use id="zoomminus" xlink:href="#zoomMin" x="42" y="9" onmousedown="handleZoom(evt,'out')"/>
                <use id="reset" xlink:href="#resetDef" x="30" y="36" onmousedown="handleReset()"/>
                <g id="arrowUp" xlink:href="#dirArrow" transform="translate(30 24)" onmousedown="handlePan(0,-1)">
                  <use xlink:href="#rim" fill="#404040">
                        <set attributeName="fill" to="#808080" begin="arrowUp.mouseover" end="arrowUp.mouseout"/>
                  </use>
                  <path fill="none" stroke="white" stroke-width="1.5" d="M0,-3.0v7 M-2.5,-0.5L0,-3.0L2.5,-0.5"/>
                </g>
                <g id="arrowRight" xlink:href="#dirArrow" transform="rotate(90) translate(36 -43)" onmousedown="handlePan(1,0)">
                  <use xlink:href="#rim" fill="#404040">
                        <set attributeName="fill" to="#808080" begin="arrowRight.mouseover" end="arrowRight.mouseout"/>
                  </use>
                  <path fill="none" stroke="white" stroke-width="1.5" d="M0,-3.0v7 M-2.5,-0.5L0,-3.0L2.5,-0.5"/>
                </g>
                <g id="arrowDown" xlink:href="#dirArrow" transform="rotate(180) translate(-30 -48)" onmousedown="handlePan(0,1)">
                  <use xlink:href="#rim" fill="#404040">
                        <set attributeName="fill" to="#808080" begin="arrowDown.mouseover" end="arrowDown.mouseout"/>
                  </use>
                  <path fill="none" stroke="white" stroke-width="1.5" d="M0,-3.0v7 M-2.5,-0.5L0,-3.0L2.5,-0.5"/>
                </g>
                <g id="arrowLeft" xlink:href="#dirArrow" transform="rotate(270) translate(-36 17)" onmousedown="handlePan(-1,0)">
                  <use xlink:href="#rim" fill="#404040">
                        <set attributeName="fill" to="#808080" begin="arrowLeft.mouseover" end="arrowLeft.mouseout"/>
                  </use>
                  <path fill="none" stroke="white" stroke-width="1.5" d="M0,-3.0v7 M-2.5,-0.5L0,-3.0L2.5,-0.5"/>
                </g>
        </g>
        <svg viewBox="0 0 15 15" width="100%" height="30px" preserveAspectRatio="xMaxYMin meet">
         <g id="arrow_out" transform="scale(0.3 0.3)">
          <a xlink:href="class_t_utilities_a6dc0e83b149563fdf43f068fd26cead8_icgraph_org.svg" target="_base">
           <rect id="button" ry="5" rx="5" y="6" x="6" height="38" width="38"
                fill="#f2f5e9" fill-opacity="0.5" stroke="#606060" stroke-width="1.0"/>
           <path id="arrow"
             d="M 11.500037,31.436501 C 11.940474,20.09759 22.043105,11.32322 32.158766,21.979434 L 37.068811,17.246167 C 37.068811,17.246167 37.088388,32 37.088388,32 L 22.160133,31.978069 C 22.160133,31.978069 26.997745,27.140456 26.997745,27.140456 C 18.528582,18.264221 13.291696,25.230495 11.500037,31.436501 z"
             style="fill:#404040;"/>
          </a>
         </g>
        </svg>
</svg>
