<?xml version="1.0" encoding="UTF-8" standalone="no"?>
<!DOCTYPE svg PUBLIC "-//W3C//DTD SVG 1.1//EN"
 "http://www.w3.org/Graphics/SVG/1.1/DTD/svg11.dtd">
<!-- Generated by graphviz version 2.44.1 (20200629.0800)
 -->
<!-- Title: TOnePrefDir::CheckOnePrefDir Pages: 1 -->
<svg width="999pt" height="53pt"
 viewBox="0.00 0.00 999.00 52.50" xmlns="http://www.w3.org/2000/svg" xmlns:xlink="http://www.w3.org/1999/xlink">
<g id="graph0" class="graph" transform="scale(1 1) rotate(0) translate(4 48.5)">
<title>TOnePrefDir::CheckOnePrefDir</title>
<polygon fill="white" stroke="transparent" points="-4,4 -4,-48.5 995,-48.5 995,4 -4,4"/>
<!-- Node1 -->
<g id="node1" class="node">
<title>Node1</title>
<g id="a_node1"><a xlink:title="Called before PrefDir loading as part of the FileIntegrityCheck function in case there is an error in...">
<polygon fill="#bfbfbf" stroke="black" points="841,-6 841,-25 991,-25 991,-6 841,-6"/>
<text text-anchor="middle" x="916" y="-13" font-family="Helvetica,sans-Serif" font-size="10.00">TOnePrefDir::CheckOnePrefDir</text>
</a>
</g>
</g>
<!-- Node2 -->
<g id="node2" class="node">
<title>Node2</title>
<g id="a_node2"><a xlink:href="class_t_all_routes.html#ad151a9c7a0ad304f0f5c5c6b523ffb2e" target="_top" xlink:title="Performs an integrity check on the routes stored in a session file and returns false if there is an e...">
<polygon fill="white" stroke="black" points="677,-25 677,-44 805,-44 805,-25 677,-25"/>
<text text-anchor="middle" x="741" y="-32" font-family="Helvetica,sans-Serif" font-size="10.00">TAllRoutes::CheckRoutes</text>
</a>
</g>
</g>
<!-- Node1&#45;&gt;Node2 -->
<g id="edge1" class="edge">
<title>Node1&#45;&gt;Node2</title>
<path fill="none" stroke="midnightblue" d="M830.76,-24.75C822.12,-25.7 813.44,-26.65 805.08,-27.57"/>
<polygon fill="midnightblue" stroke="midnightblue" points="831.32,-28.21 840.88,-23.64 830.56,-21.25 831.32,-28.21"/>
</g>
<!-- Node3 -->
<g id="node3" class="node">
<title>Node3</title>
<g id="a_node3"><a xlink:href="class_t_interface.html#a3904f26b67b9512507960187b37b6f7b" target="_top" xlink:title="Checks session file integrity prior to loading, true for success.">
<polygon fill="white" stroke="black" points="491,-0.5 491,-30.5 641,-30.5 641,-0.5 491,-0.5"/>
<text text-anchor="start" x="499" y="-18.5" font-family="Helvetica,sans-Serif" font-size="10.00">TInterface::SessionFileIntegrity</text>
<text text-anchor="middle" x="566" y="-7.5" font-family="Helvetica,sans-Serif" font-size="10.00">Check</text>
</a>
</g>
</g>
<!-- Node1&#45;&gt;Node3 -->
<g id="edge6" class="edge">
<title>Node1&#45;&gt;Node3</title>
<path fill="none" stroke="midnightblue" d="M830.55,-15.5C772.68,-15.5 696.64,-15.5 641.11,-15.5"/>
<polygon fill="midnightblue" stroke="midnightblue" points="830.77,-19 840.77,-15.5 830.77,-12 830.77,-19"/>
</g>
<!-- Node2&#45;&gt;Node3 -->
<g id="edge2" class="edge">
<title>Node2&#45;&gt;Node3</title>
<path fill="none" stroke="midnightblue" d="M666.49,-26.43C658.14,-25.51 649.63,-24.58 641.28,-23.66"/>
<polygon fill="midnightblue" stroke="midnightblue" points="666.24,-29.92 676.56,-27.53 667.01,-22.96 666.24,-29.92"/>
</g>
<!-- Node4 -->
<g id="node4" class="node">
<title>Node4</title>
<g id="a_node4"><a xlink:href="class_t_interface.html#a636b1b4bd29f2678a3290ed2d282f1c2" target="_top" xlink:title="Load a session file.">
<polygon fill="white" stroke="black" points="334,-6 334,-25 455,-25 455,-6 334,-6"/>
<text text-anchor="middle" x="394.5" y="-13" font-family="Helvetica,sans-Serif" font-size="10.00">TInterface::LoadSession</text>
</a>
</g>
</g>
<!-- Node3&#45;&gt;Node4 -->
<g id="edge3" class="edge">
<title>Node3&#45;&gt;Node4</title>
<path fill="none" stroke="midnightblue" d="M480.55,-15.5C471.93,-15.5 463.3,-15.5 455.02,-15.5"/>
<polygon fill="midnightblue" stroke="midnightblue" points="480.65,-19 490.65,-15.5 480.65,-12 480.65,-19"/>
</g>
<!-- Node5 -->
<g id="node5" class="node">
<title>Node5</title>
<g id="a_node5"><a xlink:href="class_t_interface.html#a6139ffb52492eb89e5487a8a3cd647b5" target="_top" xlink:title="The main loop, called every clock tick via MasterClockTimer.">
<polygon fill="white" stroke="black" points="179,-6 179,-25 298,-25 298,-6 179,-6"/>
<text text-anchor="middle" x="238.5" y="-13" font-family="Helvetica,sans-Serif" font-size="10.00">TInterface::ClockTimer2</text>
</a>
</g>
</g>
<!-- Node4&#45;&gt;Node5 -->
<g id="edge4" class="edge">
<title>Node4&#45;&gt;Node5</title>
<path fill="none" stroke="midnightblue" d="M323.92,-15.5C315.3,-15.5 306.56,-15.5 298.12,-15.5"/>
<polygon fill="midnightblue" stroke="midnightblue" points="323.96,-19 333.96,-15.5 323.96,-12 323.96,-19"/>
</g>
<!-- Node6 -->
<g id="node6" class="node">
<title>Node6</title>
<g id="a_node6"><a xlink:href="class_t_interface.html#ace30a12d923fc7fb489afabb0a09aa4f" target="_top" xlink:title=" ">
<polygon fill="white" stroke="black" points="0,-6 0,-25 143,-25 143,-6 0,-6"/>
<text text-anchor="middle" x="71.5" y="-13" font-family="Helvetica,sans-Serif" font-size="10.00">TInterface::MasterClockTimer</text>
</a>
</g>
</g>
<!-- Node5&#45;&gt;Node6 -->
<g id="edge5" class="edge">
<title>Node5&#45;&gt;Node6</title>
<path fill="none" stroke="midnightblue" d="M168.67,-15.5C160.22,-15.5 151.57,-15.5 143.09,-15.5"/>
<polygon fill="midnightblue" stroke="midnightblue" points="168.86,-19 178.86,-15.5 168.86,-12 168.86,-19"/>
</g>
</g>
</svg>
