<?xml version="1.0" encoding="UTF-8" standalone="no"?>
<!DOCTYPE svg PUBLIC "-//W3C//DTD SVG 1.1//EN"
 "http://www.w3.org/Graphics/SVG/1.1/DTD/svg11.dtd">
<!-- Generated by graphviz version 2.44.1 (20200629.0800)
 -->
<!-- Title: TInterface::SetSaveMenuAndButtons Pages: 1 -->
<svg width="1052pt" height="653pt"
 viewBox="0.00 0.00 1052.00 652.95" xmlns="http://www.w3.org/2000/svg" xmlns:xlink="http://www.w3.org/1999/xlink">
<g id="graph0" class="graph" transform="scale(1 1) rotate(0) translate(4 648.95)">
<title>TInterface::SetSaveMenuAndButtons</title>
<polygon fill="white" stroke="transparent" points="-4,4 -4,-648.95 1048,-648.95 1048,4 -4,4"/>
<!-- Node1 -->
<g id="node1" class="node">
<title>Node1</title>
<g id="a_node1"><a xlink:title="Called during the ClockTimer2 function to set screen boundaries, buttons &amp; menu items.">
<polygon fill="#bfbfbf" stroke="black" points="0,-166 0,-196 142,-196 142,-166 0,-166"/>
<text text-anchor="start" x="8" y="-184" font-family="Helvetica,sans-Serif" font-size="10.00">TInterface::SetSaveMenuAnd</text>
<text text-anchor="middle" x="71" y="-173" font-family="Helvetica,sans-Serif" font-size="10.00">Buttons</text>
</a>
</g>
</g>
<!-- Node2 -->
<g id="node2" class="node">
<title>Node2</title>
<g id="a_node2"><a xlink:href="class_t_utilities.html#ae1eddca13cc3c492839e131f40ec21c0" target="_top" xlink:title="pops the last entry off the call stack, throws an error if called when empty">
<polygon fill="white" stroke="black" points="934,-449.5 934,-468.5 1044,-468.5 1044,-449.5 934,-449.5"/>
<text text-anchor="middle" x="989" y="-456.5" font-family="Helvetica,sans-Serif" font-size="10.00">TUtilities::CallLogPop</text>
</a>
</g>
</g>
<!-- Node1&#45;&gt;Node2 -->
<g id="edge1" class="edge">
<title>Node1&#45;&gt;Node2</title>
<path fill="none" stroke="midnightblue" d="M74.42,-196.18C82.18,-240.86 110.06,-374.11 178,-459 263.95,-566.41 298.43,-630 436,-630 436,-630 436,-630 631.5,-630 750.25,-630 797,-673.44 898,-611 947.22,-580.57 972.77,-512.43 982.81,-478.7"/>
<polygon fill="midnightblue" stroke="midnightblue" points="986.29,-479.25 985.63,-468.68 979.55,-477.36 986.29,-479.25"/>
</g>
<!-- Node3 -->
<g id="node3" class="node">
<title>Node3</title>
<g id="a_node3"><a xlink:href="class_t_track.html#a750354d5deccaf7ccdbe8afe8f0f8e35" target="_top" xlink:title=" ">
<polygon fill="white" stroke="black" points="195,-114.5 195,-133.5 304,-133.5 304,-114.5 195,-114.5"/>
<text text-anchor="middle" x="249.5" y="-121.5" font-family="Helvetica,sans-Serif" font-size="10.00">TTrack::GetHLocMax</text>
</a>
</g>
</g>
<!-- Node1&#45;&gt;Node3 -->
<g id="edge2" class="edge">
<title>Node1&#45;&gt;Node3</title>
<path fill="none" stroke="midnightblue" d="M118.84,-165.87C147,-156.78 182.44,-145.33 209.15,-136.71"/>
<polygon fill="midnightblue" stroke="midnightblue" points="210.48,-139.96 218.92,-133.55 208.33,-133.29 210.48,-139.96"/>
</g>
<!-- Node4 -->
<g id="node4" class="node">
<title>Node4</title>
<g id="a_node4"><a xlink:href="class_t_track.html#a5d25871e34f26d3c4c878fd4707ed375" target="_top" xlink:title=" ">
<polygon fill="white" stroke="black" points="196.5,-76.5 196.5,-95.5 302.5,-95.5 302.5,-76.5 196.5,-76.5"/>
<text text-anchor="middle" x="249.5" y="-83.5" font-family="Helvetica,sans-Serif" font-size="10.00">TTrack::GetHLocMin</text>
</a>
</g>
</g>
<!-- Node1&#45;&gt;Node4 -->
<g id="edge3" class="edge">
<title>Node1&#45;&gt;Node4</title>
<path fill="none" stroke="midnightblue" d="M89.14,-165.7C109.13,-148.6 143.83,-121.2 178,-105 182.94,-102.66 188.22,-100.57 193.57,-98.71"/>
<polygon fill="midnightblue" stroke="midnightblue" points="194.8,-101.99 203.26,-95.61 192.66,-95.32 194.8,-101.99"/>
</g>
<!-- Node5 -->
<g id="node5" class="node">
<title>Node5</title>
<g id="a_node5"><a xlink:href="class_t_track.html#a5c13595c171f5c7e4aaa6dfc18f4359f" target="_top" xlink:title=" ">
<polygon fill="white" stroke="black" points="195,-38.5 195,-57.5 304,-57.5 304,-38.5 195,-38.5"/>
<text text-anchor="middle" x="249.5" y="-45.5" font-family="Helvetica,sans-Serif" font-size="10.00">TTrack::GetVLocMax</text>
</a>
</g>
</g>
<!-- Node1&#45;&gt;Node5 -->
<g id="edge4" class="edge">
<title>Node1&#45;&gt;Node5</title>
<path fill="none" stroke="midnightblue" d="M81.79,-165.91C98.5,-141.37 134.95,-92.95 178,-67 181.6,-64.83 185.46,-62.9 189.44,-61.19"/>
<polygon fill="midnightblue" stroke="midnightblue" points="190.79,-64.42 198.89,-57.58 188.3,-57.88 190.79,-64.42"/>
</g>
<!-- Node6 -->
<g id="node6" class="node">
<title>Node6</title>
<g id="a_node6"><a xlink:href="class_t_track.html#ac42bd1e1e148a91396310b1077d2d8e0" target="_top" xlink:title=" ">
<polygon fill="white" stroke="black" points="196.5,-0.5 196.5,-19.5 302.5,-19.5 302.5,-0.5 196.5,-0.5"/>
<text text-anchor="middle" x="249.5" y="-7.5" font-family="Helvetica,sans-Serif" font-size="10.00">TTrack::GetVLocMin</text>
</a>
</g>
</g>
<!-- Node1&#45;&gt;Node6 -->
<g id="edge5" class="edge">
<title>Node1&#45;&gt;Node6</title>
<path fill="none" stroke="midnightblue" d="M78.24,-165.84C91.68,-135.09 126.41,-65.25 178,-29 180.83,-27.01 183.87,-25.23 187.02,-23.63"/>
<polygon fill="midnightblue" stroke="midnightblue" points="188.43,-26.83 196.18,-19.61 185.62,-20.42 188.43,-26.83"/>
</g>
<!-- Node7 -->
<g id="node7" class="node">
<title>Node7</title>
<g id="a_node7"><a xlink:href="class_t_track.html#a1a9f8ddecccd649195ede1ec027500d1" target="_top" xlink:title="Indicates whether or not the railway is ready for saving as a &#39;.rly&#39; file and for operation.">
<polygon fill="white" stroke="black" points="178,-430.5 178,-449.5 321,-449.5 321,-430.5 178,-430.5"/>
<text text-anchor="middle" x="249.5" y="-437.5" font-family="Helvetica,sans-Serif" font-size="10.00">TTrack::IsReadyForOperation</text>
</a>
</g>
</g>
<!-- Node1&#45;&gt;Node7 -->
<g id="edge6" class="edge">
<title>Node1&#45;&gt;Node7</title>
<path fill="none" stroke="midnightblue" d="M82.25,-196.04C112.8,-240.87 203.15,-373.45 236.2,-421.96"/>
<polygon fill="midnightblue" stroke="midnightblue" points="233.33,-423.95 241.85,-430.24 239.11,-420.01 233.33,-423.95"/>
</g>
<!-- Node11 -->
<g id="node11" class="node">
<title>Node11</title>
<g id="a_node11"><a xlink:href="class_t_utilities.html#a34bd6bb5305bc29afdf424f6d35a921c" target="_top" xlink:title="creates a string of the form &#39;hh:mm:ss&#39; for use in call &amp; event logging">
<polygon fill="white" stroke="black" points="934,-332.5 934,-351.5 1044,-351.5 1044,-332.5 934,-332.5"/>
<text text-anchor="middle" x="989" y="-339.5" font-family="Helvetica,sans-Serif" font-size="10.00">TUtilities::TimeStamp</text>
</a>
</g>
</g>
<!-- Node1&#45;&gt;Node11 -->
<g id="edge32" class="edge">
<title>Node1&#45;&gt;Node11</title>
<path fill="none" stroke="midnightblue" d="M142.06,-175.17C215.32,-169.59 333.64,-162 436,-162 436,-162 436,-162 631.5,-162 750.9,-162 797.64,-131.3 898,-196 944.99,-226.3 971.47,-290.7 982.24,-322.87"/>
<polygon fill="midnightblue" stroke="midnightblue" points="978.93,-323.99 985.3,-332.45 985.59,-321.86 978.93,-323.99"/>
</g>
<!-- Node16 -->
<g id="node16" class="node">
<title>Node16</title>
<g id="a_node16"><a xlink:href="class_t_track.html#ab20c55ecbc1801614695279daa8da0ba" target="_top" xlink:title="True if there is no active or inactive track in the railway.">
<polygon fill="white" stroke="black" points="754.5,-305 754.5,-335 887.5,-335 887.5,-305 754.5,-305"/>
<text text-anchor="start" x="762.5" y="-323" font-family="Helvetica,sans-Serif" font-size="10.00">TTrack::NoActiveOrInactive</text>
<text text-anchor="middle" x="821" y="-312" font-family="Helvetica,sans-Serif" font-size="10.00">Track</text>
</a>
</g>
</g>
<!-- Node1&#45;&gt;Node16 -->
<g id="edge26" class="edge">
<title>Node1&#45;&gt;Node16</title>
<path fill="none" stroke="midnightblue" d="M99.51,-196.09C120.44,-206.9 150.26,-220.93 178,-229 377.3,-286.96 622.54,-308.63 744.16,-316.23"/>
<polygon fill="midnightblue" stroke="midnightblue" points="744.28,-319.74 754.48,-316.86 744.71,-312.75 744.28,-319.74"/>
</g>
<!-- Node17 -->
<g id="node17" class="node">
<title>Node17</title>
<g id="a_node17"><a xlink:href="class_t_text_handler.html#a7dfd4e30235878fb01e7387715e0cb0f" target="_top" xlink:title="return the number of items in TextVector">
<polygon fill="white" stroke="black" points="748,-266.5 748,-285.5 894,-285.5 894,-266.5 748,-266.5"/>
<text text-anchor="middle" x="821" y="-273.5" font-family="Helvetica,sans-Serif" font-size="10.00">TTextHandler::TextVectorSize</text>
</a>
</g>
</g>
<!-- Node1&#45;&gt;Node17 -->
<g id="edge29" class="edge">
<title>Node1&#45;&gt;Node17</title>
<path fill="none" stroke="midnightblue" d="M132.86,-196.04C147.57,-199.33 163.3,-202.55 178,-205 411.7,-243.89 472.67,-234.64 708,-262 717.64,-263.12 727.73,-264.33 737.75,-265.55"/>
<polygon fill="midnightblue" stroke="midnightblue" points="737.37,-269.03 747.72,-266.78 738.23,-262.09 737.37,-269.03"/>
</g>
<!-- Node18 -->
<g id="node18" class="node">
<title>Node18</title>
<g id="a_node18"><a xlink:href="class_t_train_controller.html#aa09adf9c442406cccc270d6703867a1d" target="_top" xlink:title="Return a reference to the train at position VecPos in the TrainVector, carries out range checking on ...">
<polygon fill="white" stroke="black" points="746.5,-228.5 746.5,-247.5 895.5,-247.5 895.5,-228.5 746.5,-228.5"/>
<text text-anchor="middle" x="821" y="-235.5" font-family="Helvetica,sans-Serif" font-size="10.00">TTrainController::TrainVectorAt</text>
</a>
</g>
</g>
<!-- Node1&#45;&gt;Node18 -->
<g id="edge33" class="edge">
<title>Node1&#45;&gt;Node18</title>
<path fill="none" stroke="midnightblue" d="M142.22,-184.44C259.55,-190.48 502.83,-204.26 708,-224 717.87,-224.95 728.22,-226.07 738.47,-227.26"/>
<polygon fill="midnightblue" stroke="midnightblue" points="738.33,-230.77 748.67,-228.47 739.15,-223.82 738.33,-230.77"/>
</g>
<!-- Node8 -->
<g id="node8" class="node">
<title>Node8</title>
<g id="a_node8"><a xlink:href="class_t_track.html#a1fe2aafdc89ee9d809e6949b121e468e" target="_top" xlink:title="examines LocationNameMultiMap and returns true if there are two or more locations with the same name ...">
<polygon fill="white" stroke="black" points="357,-392.5 357,-411.5 517,-411.5 517,-392.5 357,-392.5"/>
<text text-anchor="middle" x="437" y="-399.5" font-family="Helvetica,sans-Serif" font-size="10.00">TTrack::DuplicatedLocationName</text>
</a>
</g>
</g>
<!-- Node7&#45;&gt;Node8 -->
<g id="edge7" class="edge">
<title>Node7&#45;&gt;Node8</title>
<path fill="none" stroke="midnightblue" d="M297.31,-430.41C322.34,-425.28 353.34,-418.93 379.68,-413.54"/>
<polygon fill="midnightblue" stroke="midnightblue" points="380.43,-416.96 389.53,-411.52 379.03,-410.1 380.43,-416.96"/>
</g>
<!-- Node13 -->
<g id="node13" class="node">
<title>Node13</title>
<g id="a_node13"><a xlink:href="class_t_track.html#a794daa0471b473e28ff24c87a92112dc" target="_top" xlink:title="True if there are gaps in the railway and any are unset.">
<polygon fill="white" stroke="black" points="770.5,-582.5 770.5,-601.5 871.5,-601.5 871.5,-582.5 770.5,-582.5"/>
<text text-anchor="middle" x="821" y="-589.5" font-family="Helvetica,sans-Serif" font-size="10.00">TTrack::GapsUnset</text>
</a>
</g>
</g>
<!-- Node7&#45;&gt;Node13 -->
<g id="edge19" class="edge">
<title>Node7&#45;&gt;Node13</title>
<path fill="none" stroke="midnightblue" d="M274.35,-449.6C295.77,-458.02 328.18,-470.24 357,-479 501.68,-523 675.76,-561.77 763.53,-580.35"/>
<polygon fill="midnightblue" stroke="midnightblue" points="763.03,-583.82 773.54,-582.46 764.47,-576.97 763.03,-583.82"/>
</g>
<!-- Node14 -->
<g id="node14" class="node">
<title>Node14</title>
<g id="a_node14"><a xlink:href="class_t_track.html#aa8386109483977bfaa97909747358149" target="_top" xlink:title="Indicates whether or not the track has been successfully linked together.">
<polygon fill="white" stroke="black" points="377,-430.5 377,-449.5 497,-449.5 497,-430.5 377,-430.5"/>
<text text-anchor="middle" x="437" y="-437.5" font-family="Helvetica,sans-Serif" font-size="10.00">TTrack::IsTrackFinished</text>
</a>
</g>
</g>
<!-- Node7&#45;&gt;Node14 -->
<g id="edge22" class="edge">
<title>Node7&#45;&gt;Node14</title>
<path fill="none" stroke="midnightblue" d="M321.16,-440C336.05,-440 351.75,-440 366.59,-440"/>
<polygon fill="midnightblue" stroke="midnightblue" points="366.71,-443.5 376.71,-440 366.71,-436.5 366.71,-443.5"/>
</g>
<!-- Node15 -->
<g id="node15" class="node">
<title>Node15</title>
<g id="a_node15"><a xlink:href="class_t_track.html#ad7d7ef450424ea6aab50db5445c6448c" target="_top" xlink:title="True if there are unnamed NamedLocationElements (includes footcrossings)">
<polygon fill="white" stroke="black" points="751,-468.5 751,-487.5 891,-487.5 891,-468.5 751,-468.5"/>
<text text-anchor="middle" x="821" y="-475.5" font-family="Helvetica,sans-Serif" font-size="10.00">TTrack::LocationsNotNamed</text>
</a>
</g>
</g>
<!-- Node7&#45;&gt;Node15 -->
<g id="edge23" class="edge">
<title>Node7&#45;&gt;Node15</title>
<path fill="none" stroke="midnightblue" d="M295.91,-449.5C314.73,-453.07 336.84,-456.8 357,-459 491.13,-473.65 648.23,-477.26 740.64,-478.01"/>
<polygon fill="midnightblue" stroke="midnightblue" points="740.73,-481.51 750.75,-478.08 740.78,-474.51 740.73,-481.51"/>
</g>
<!-- Node8&#45;&gt;Node2 -->
<g id="edge8" class="edge">
<title>Node8&#45;&gt;Node2</title>
<path fill="none" stroke="midnightblue" d="M483.49,-411.56C494.56,-414.26 506.29,-417.45 517,-421 621.15,-455.5 636.52,-496 744,-518 811.05,-531.73 832.42,-537.58 898,-518 925.75,-509.72 952.88,-489.84 969.98,-475.44"/>
<polygon fill="midnightblue" stroke="midnightblue" points="972.71,-477.71 977.95,-468.5 968.11,-472.42 972.71,-477.71"/>
</g>
<!-- Node9 -->
<g id="node9" class="node">
<title>Node9</title>
<g id="a_node9"><a xlink:href="class_t_track.html#abd5dcc3c2beef43856091745c72d8317" target="_top" xlink:title="Used in checking for duplicate location names after Bill78 (discord name) developed the ....">
<polygon fill="white" stroke="black" points="553,-387 553,-417 708,-417 708,-387 553,-387"/>
<text text-anchor="start" x="561" y="-405" font-family="Helvetica,sans-Serif" font-size="10.00">TTrack::PopulateHVPairsLinked</text>
<text text-anchor="middle" x="630.5" y="-394" font-family="Helvetica,sans-Serif" font-size="10.00">MapAndNoDuplicates</text>
</a>
</g>
</g>
<!-- Node8&#45;&gt;Node9 -->
<g id="edge9" class="edge">
<title>Node8&#45;&gt;Node9</title>
<path fill="none" stroke="midnightblue" d="M517.27,-402C525.61,-402 534.12,-402 542.54,-402"/>
<polygon fill="midnightblue" stroke="midnightblue" points="542.75,-405.5 552.75,-402 542.75,-398.5 542.75,-405.5"/>
</g>
<!-- Node8&#45;&gt;Node11 -->
<g id="edge18" class="edge">
<title>Node8&#45;&gt;Node11</title>
<path fill="none" stroke="midnightblue" d="M448.9,-392.38C486.48,-359.91 615.42,-254.51 744,-219 809.97,-200.78 836.96,-188.03 898,-219 941.08,-240.86 968.49,-294.1 980.67,-322.85"/>
<polygon fill="midnightblue" stroke="midnightblue" points="977.47,-324.27 984.47,-332.22 983.96,-321.64 977.47,-324.27"/>
</g>
<!-- Node9&#45;&gt;Node2 -->
<g id="edge10" class="edge">
<title>Node9&#45;&gt;Node2</title>
<path fill="none" stroke="midnightblue" d="M643.31,-417.22C661.88,-439.74 700.31,-481.02 744,-497 808.28,-520.51 830.92,-510.58 898,-497 920.58,-492.43 944.54,-482.01 962.06,-473.23"/>
<polygon fill="midnightblue" stroke="midnightblue" points="963.79,-476.28 971.07,-468.58 960.58,-470.06 963.79,-476.28"/>
</g>
<!-- Node10 -->
<g id="node10" class="node">
<title>Node10</title>
<g id="a_node10"><a xlink:href="class_t_track.html#a51f89cf70e94b037f6378cd78003d82b" target="_top" xlink:title="A range&#45;checked version of InactiveTrackElement.at(At)">
<polygon fill="white" stroke="black" points="744,-392.5 744,-411.5 898,-411.5 898,-392.5 744,-392.5"/>
<text text-anchor="middle" x="821" y="-399.5" font-family="Helvetica,sans-Serif" font-size="10.00">TTrack::InactiveTrackElementAt</text>
</a>
</g>
</g>
<!-- Node9&#45;&gt;Node10 -->
<g id="edge11" class="edge">
<title>Node9&#45;&gt;Node10</title>
<path fill="none" stroke="midnightblue" d="M708.17,-402C716.5,-402 725.03,-402 733.47,-402"/>
<polygon fill="midnightblue" stroke="midnightblue" points="733.7,-405.5 743.7,-402 733.7,-398.5 733.7,-405.5"/>
</g>
<!-- Node9&#45;&gt;Node11 -->
<g id="edge14" class="edge">
<title>Node9&#45;&gt;Node11</title>
<path fill="none" stroke="midnightblue" d="M708.05,-389.06C720.08,-387.03 732.38,-384.96 744,-383 805.03,-372.72 874.65,-361.02 923.86,-352.76"/>
<polygon fill="midnightblue" stroke="midnightblue" points="924.45,-356.21 933.73,-351.11 923.29,-349.31 924.45,-356.21"/>
</g>
<!-- Node12 -->
<g id="node12" class="node">
<title>Node12</title>
<g id="a_node12"><a xlink:href="class_t_track.html#ad377e5a1f152f2e89832c0f9bcfd261f" target="_top" xlink:title="A range&#45;checked version of TrackElement.at(At)">
<polygon fill="white" stroke="black" points="760,-430.5 760,-449.5 882,-449.5 882,-430.5 760,-430.5"/>
<text text-anchor="middle" x="821" y="-437.5" font-family="Helvetica,sans-Serif" font-size="10.00">TTrack::TrackElementAt</text>
</a>
</g>
</g>
<!-- Node9&#45;&gt;Node12 -->
<g id="edge15" class="edge">
<title>Node9&#45;&gt;Node12</title>
<path fill="none" stroke="midnightblue" d="M706,-417.02C724.93,-420.83 744.97,-424.87 762.88,-428.48"/>
<polygon fill="midnightblue" stroke="midnightblue" points="762.38,-431.95 772.87,-430.5 763.76,-425.09 762.38,-431.95"/>
</g>
<!-- Node10&#45;&gt;Node2 -->
<g id="edge12" class="edge">
<title>Node10&#45;&gt;Node2</title>
<path fill="none" stroke="midnightblue" d="M864.94,-411.51C875.82,-414.25 887.42,-417.47 898,-421 918.58,-427.87 941.06,-437.36 958.4,-445.14"/>
<polygon fill="midnightblue" stroke="midnightblue" points="957.42,-448.53 967.97,-449.49 960.31,-442.16 957.42,-448.53"/>
</g>
<!-- Node10&#45;&gt;Node11 -->
<g id="edge13" class="edge">
<title>Node10&#45;&gt;Node11</title>
<path fill="none" stroke="midnightblue" d="M853.98,-392.48C867.62,-388.27 883.67,-383.12 898,-378 917.34,-371.09 938.7,-362.59 955.75,-355.58"/>
<polygon fill="midnightblue" stroke="midnightblue" points="957.34,-358.71 965.25,-351.65 954.67,-352.24 957.34,-358.71"/>
</g>
<!-- Node12&#45;&gt;Node2 -->
<g id="edge16" class="edge">
<title>Node12&#45;&gt;Node2</title>
<path fill="none" stroke="midnightblue" d="M882.4,-446.91C895.84,-448.45 910.15,-450.09 923.74,-451.64"/>
<polygon fill="midnightblue" stroke="midnightblue" points="923.64,-455.16 933.97,-452.82 924.43,-448.2 923.64,-455.16"/>
</g>
<!-- Node12&#45;&gt;Node11 -->
<g id="edge17" class="edge">
<title>Node12&#45;&gt;Node11</title>
<path fill="none" stroke="midnightblue" d="M874.32,-430.43C882.49,-427.95 890.65,-424.85 898,-421 928.18,-405.18 956.61,-377.24 973.15,-359.18"/>
<polygon fill="midnightblue" stroke="midnightblue" points="975.83,-361.44 979.88,-351.65 970.61,-356.77 975.83,-361.44"/>
</g>
<!-- Node13&#45;&gt;Node2 -->
<g id="edge20" class="edge">
<title>Node13&#45;&gt;Node2</title>
<path fill="none" stroke="midnightblue" d="M866.96,-582.47C877.69,-578.97 888.71,-574.27 898,-568 933.59,-544 962.56,-501.92 977.34,-477.66"/>
<polygon fill="midnightblue" stroke="midnightblue" points="980.54,-479.13 982.62,-468.74 974.52,-475.56 980.54,-479.13"/>
</g>
<!-- Node13&#45;&gt;Node11 -->
<g id="edge21" class="edge">
<title>Node13&#45;&gt;Node11</title>
<path fill="none" stroke="midnightblue" d="M830.49,-582.39C845.09,-565.64 875.57,-529.76 898,-497 915.03,-472.12 957.85,-396.1 977.65,-360.61"/>
<polygon fill="midnightblue" stroke="midnightblue" points="980.78,-362.19 982.59,-351.75 974.66,-358.78 980.78,-362.19"/>
</g>
<!-- Node15&#45;&gt;Node2 -->
<g id="edge24" class="edge">
<title>Node15&#45;&gt;Node2</title>
<path fill="none" stroke="midnightblue" d="M891.44,-470.05C902.21,-468.82 913.3,-467.55 923.94,-466.33"/>
<polygon fill="midnightblue" stroke="midnightblue" points="924.45,-469.8 933.99,-465.18 923.66,-462.84 924.45,-469.8"/>
</g>
<!-- Node15&#45;&gt;Node11 -->
<g id="edge25" class="edge">
<title>Node15&#45;&gt;Node11</title>
<path fill="none" stroke="midnightblue" d="M878.6,-468.42C885.44,-465.96 892.08,-462.88 898,-459 936.23,-433.95 964.87,-387.03 978.73,-360.86"/>
<polygon fill="midnightblue" stroke="midnightblue" points="982.01,-362.13 983.46,-351.63 975.78,-358.94 982.01,-362.13"/>
</g>
<!-- Node16&#45;&gt;Node2 -->
<g id="edge27" class="edge">
<title>Node16&#45;&gt;Node2</title>
<path fill="none" stroke="midnightblue" d="M840.47,-335.23C855.88,-347.96 878.41,-366.61 898,-383 922.4,-403.41 950.37,-427.08 968.57,-442.51"/>
<polygon fill="midnightblue" stroke="midnightblue" points="966.77,-445.57 976.66,-449.37 971.3,-440.23 966.77,-445.57"/>
</g>
<!-- Node16&#45;&gt;Node11 -->
<g id="edge28" class="edge">
<title>Node16&#45;&gt;Node11</title>
<path fill="none" stroke="midnightblue" d="M887.61,-328.69C899.45,-330.26 911.79,-331.9 923.6,-333.47"/>
<polygon fill="midnightblue" stroke="midnightblue" points="923.45,-336.98 933.82,-334.82 924.37,-330.04 923.45,-336.98"/>
</g>
<!-- Node17&#45;&gt;Node2 -->
<g id="edge30" class="edge">
<title>Node17&#45;&gt;Node2</title>
<path fill="none" stroke="midnightblue" d="M879.2,-285.55C885.94,-288.23 892.4,-291.64 898,-296 898.4,-296.31 954.34,-397.87 977.82,-440.5"/>
<polygon fill="midnightblue" stroke="midnightblue" points="974.78,-442.24 982.67,-449.31 980.91,-438.87 974.78,-442.24"/>
</g>
<!-- Node17&#45;&gt;Node11 -->
<g id="edge31" class="edge">
<title>Node17&#45;&gt;Node11</title>
<path fill="none" stroke="midnightblue" d="M864.72,-285.52C875.71,-288.44 887.42,-291.96 898,-296 920.68,-304.67 945.14,-317.4 962.83,-327.28"/>
<polygon fill="midnightblue" stroke="midnightblue" points="961.47,-330.54 971.9,-332.43 964.93,-324.45 961.47,-330.54"/>
</g>
<!-- Node18&#45;&gt;Node2 -->
<g id="edge34" class="edge">
<title>Node18&#45;&gt;Node2</title>
<path fill="none" stroke="midnightblue" d="M883.7,-247.55C888.91,-250.04 893.79,-253.14 898,-257 934.08,-290.03 914.13,-316.31 934,-361 946.76,-389.7 964.94,-421.24 976.61,-440.58"/>
<polygon fill="midnightblue" stroke="midnightblue" points="973.71,-442.55 981.91,-449.27 979.69,-438.91 973.71,-442.55"/>
</g>
<!-- Node18&#45;&gt;Node11 -->
<g id="edge35" class="edge">
<title>Node18&#45;&gt;Node11</title>
<path fill="none" stroke="midnightblue" d="M875.25,-247.59C883.13,-250.06 890.96,-253.15 898,-257 929.53,-274.26 958.28,-305.25 974.42,-324.66"/>
<polygon fill="midnightblue" stroke="midnightblue" points="971.71,-326.87 980.72,-332.43 977.14,-322.46 971.71,-326.87"/>
</g>
</g>
</svg>
