<?xml version="1.0" encoding="UTF-8" standalone="no"?>
<!DOCTYPE svg PUBLIC "-//W3C//DTD SVG 1.1//EN"
 "http://www.w3.org/Graphics/SVG/1.1/DTD/svg11.dtd">
<!-- Generated by graphviz version 2.44.1 (20200629.0800)
 -->
<!-- Title: TTrainController::GetControllerTrainTime Pages: 1 -->
<svg width="495pt" height="113pt"
 viewBox="0.00 0.00 495.00 112.78" xmlns="http://www.w3.org/2000/svg" xmlns:xlink="http://www.w3.org/1999/xlink">
<g id="graph0" class="graph" transform="scale(1 1) rotate(0) translate(4 108.78)">
<title>TTrainController::GetControllerTrainTime</title>
<polygon fill="white" stroke="transparent" points="-4,4 -4,-108.78 491,-108.78 491,4 -4,4"/>
<!-- Node1 -->
<g id="node1" class="node">
<title>Node1</title>
<g id="a_node1"><a xlink:title="Get the interval between repeats.">
<polygon fill="#bfbfbf" stroke="black" points="0,-42 0,-72 147,-72 147,-42 0,-42"/>
<text text-anchor="start" x="8" y="-60" font-family="Helvetica,sans-Serif" font-size="10.00">TTrainController::GetController</text>
<text text-anchor="middle" x="73.5" y="-49" font-family="Helvetica,sans-Serif" font-size="10.00">TrainTime</text>
</a>
</g>
</g>
<!-- Node2 -->
<g id="node2" class="node">
<title>Node2</title>
<g id="a_node2"><a xlink:href="class_t_utilities.html#ae1eddca13cc3c492839e131f40ec21c0" target="_top" xlink:title="pops the last entry off the call stack, throws an error if called when empty">
<polygon fill="white" stroke="black" points="377,-47.5 377,-66.5 487,-66.5 487,-47.5 377,-47.5"/>
<text text-anchor="middle" x="432" y="-54.5" font-family="Helvetica,sans-Serif" font-size="10.00">TUtilities::CallLogPop</text>
</a>
</g>
</g>
<!-- Node1&#45;&gt;Node2 -->
<g id="edge1" class="edge">
<title>Node1&#45;&gt;Node2</title>
<path fill="none" stroke="midnightblue" d="M107.93,-72C128.99,-80.62 157.03,-90.58 183,-95 252.23,-106.77 272.17,-108.93 341,-95 363.58,-90.43 387.54,-80.01 405.06,-71.23"/>
<polygon fill="midnightblue" stroke="midnightblue" points="406.79,-74.28 414.07,-66.58 403.58,-68.06 406.79,-74.28"/>
</g>
<!-- Node3 -->
<g id="node3" class="node">
<title>Node3</title>
<g id="a_node3"><a xlink:href="class_t_utilities.html#a2dfbe3d4ed11770bc1a902b51afdc10c" target="_top" xlink:title="formats a TDateTime into an AnsiString of the form hh:mm:ss where hh runs from 00 to 95 &amp; resets when...">
<polygon fill="white" stroke="black" points="189.5,-66.5 189.5,-85.5 334.5,-85.5 334.5,-66.5 189.5,-66.5"/>
<text text-anchor="middle" x="262" y="-73.5" font-family="Helvetica,sans-Serif" font-size="10.00">TUtilities::Format96HHMMSS</text>
</a>
</g>
</g>
<!-- Node1&#45;&gt;Node3 -->
<g id="edge2" class="edge">
<title>Node1&#45;&gt;Node3</title>
<path fill="none" stroke="midnightblue" d="M147.14,-64.4C157.68,-65.47 168.59,-66.59 179.3,-67.68"/>
<polygon fill="midnightblue" stroke="midnightblue" points="179.17,-71.18 189.48,-68.71 179.88,-64.22 179.17,-71.18"/>
</g>
<!-- Node4 -->
<g id="node4" class="node">
<title>Node4</title>
<g id="a_node4"><a xlink:href="class_t_train_controller.html#a435ef46f062904e85ae9792faaecdcf7" target="_top" xlink:title="Return the repeating service time.">
<polygon fill="white" stroke="black" points="183,-28.5 183,-47.5 341,-47.5 341,-28.5 183,-28.5"/>
<text text-anchor="middle" x="262" y="-35.5" font-family="Helvetica,sans-Serif" font-size="10.00">TTrainController::GetRepeatTime</text>
</a>
</g>
</g>
<!-- Node1&#45;&gt;Node4 -->
<g id="edge3" class="edge">
<title>Node1&#45;&gt;Node4</title>
<path fill="none" stroke="midnightblue" d="M147.14,-49.6C155.52,-48.75 164.13,-47.87 172.69,-47"/>
<polygon fill="midnightblue" stroke="midnightblue" points="173.1,-50.47 182.7,-45.98 172.39,-43.51 173.1,-50.47"/>
</g>
<!-- Node5 -->
<g id="node5" class="node">
<title>Node5</title>
<g id="a_node5"><a xlink:href="class_t_utilities.html#a34bd6bb5305bc29afdf424f6d35a921c" target="_top" xlink:title="creates a string of the form &#39;hh:mm:ss&#39; for use in call &amp; event logging">
<polygon fill="white" stroke="black" points="377,-0.5 377,-19.5 487,-19.5 487,-0.5 377,-0.5"/>
<text text-anchor="middle" x="432" y="-7.5" font-family="Helvetica,sans-Serif" font-size="10.00">TUtilities::TimeStamp</text>
</a>
</g>
</g>
<!-- Node1&#45;&gt;Node5 -->
<g id="edge6" class="edge">
<title>Node1&#45;&gt;Node5</title>
<path fill="none" stroke="midnightblue" d="M108.95,-41.94C129.92,-33.54 157.5,-23.81 183,-19 244.59,-7.37 316.27,-6.05 366.68,-7.08"/>
<polygon fill="midnightblue" stroke="midnightblue" points="366.7,-10.58 376.78,-7.33 366.87,-3.59 366.7,-10.58"/>
</g>
<!-- Node4&#45;&gt;Node2 -->
<g id="edge4" class="edge">
<title>Node4&#45;&gt;Node2</title>
<path fill="none" stroke="midnightblue" d="M341.1,-46.83C349.63,-47.8 358.24,-48.77 366.57,-49.71"/>
<polygon fill="midnightblue" stroke="midnightblue" points="366.26,-53.2 376.59,-50.85 367.04,-46.24 366.26,-53.2"/>
</g>
<!-- Node4&#45;&gt;Node5 -->
<g id="edge5" class="edge">
<title>Node4&#45;&gt;Node5</title>
<path fill="none" stroke="midnightblue" d="M320.35,-28.44C335.32,-25.95 351.55,-23.24 366.85,-20.69"/>
<polygon fill="midnightblue" stroke="midnightblue" points="367.46,-24.14 376.75,-19.04 366.31,-17.23 367.46,-24.14"/>
</g>
</g>
</svg>
