<?xml version="1.0" encoding="UTF-8" standalone="no"?>
<!DOCTYPE svg PUBLIC "-//W3C//DTD SVG 1.1//EN"
 "http://www.w3.org/Graphics/SVG/1.1/DTD/svg11.dtd">
<!-- Generated by graphviz version 2.44.1 (20200629.0800)
 -->
<!-- Title: TOneRoute::SearchForPreferredRoute Pages: 1 -->
<svg width="1058pt" height="1538pt"
 viewBox="0.00 0.00 1058.00 1537.53" xmlns="http://www.w3.org/2000/svg" xmlns:xlink="http://www.w3.org/1999/xlink">
<g id="graph0" class="graph" transform="scale(1 1) rotate(0) translate(4 1533.53)">
<title>TOneRoute::SearchForPreferredRoute</title>
<polygon fill="white" stroke="transparent" points="-4,4 -4,-1533.53 1054,-1533.53 1054,4 -4,4"/>
<!-- Node1 -->
<g id="node1" class="node">
<title>Node1</title>
<g id="a_node1"><a xlink:title="Called by GetNextPreferredRouteElement to carry out the search for a valid route, and also called rec...">
<polygon fill="#bfbfbf" stroke="black" points="0,-611 0,-641 155,-641 155,-611 0,-611"/>
<text text-anchor="start" x="8" y="-629" font-family="Helvetica,sans-Serif" font-size="10.00">TOneRoute::SearchForPreferred</text>
<text text-anchor="middle" x="77.5" y="-618" font-family="Helvetica,sans-Serif" font-size="10.00">Route</text>
</a>
</g>
</g>
<!-- Node2 -->
<g id="node2" class="node">
<title>Node2</title>
<g id="a_node2"><a xlink:href="class_t_utilities.html#ae1eddca13cc3c492839e131f40ec21c0" target="_top" xlink:title="pops the last entry off the call stack, throws an error if called when empty">
<polygon fill="white" stroke="black" points="940,-1010.5 940,-1029.5 1050,-1029.5 1050,-1010.5 940,-1010.5"/>
<text text-anchor="middle" x="995" y="-1017.5" font-family="Helvetica,sans-Serif" font-size="10.00">TUtilities::CallLogPop</text>
</a>
</g>
</g>
<!-- Node1&#45;&gt;Node2 -->
<g id="edge1" class="edge">
<title>Node1&#45;&gt;Node2</title>
<path fill="none" stroke="midnightblue" d="M80.1,-641.2C86.99,-703.24 117.23,-942.53 191,-1124 269.93,-1318.15 227.92,-1526 437.5,-1526 437.5,-1526 437.5,-1526 629,-1526 754.49,-1526 816.51,-1551.96 904,-1462 964.11,-1400.19 987.4,-1117.7 992.74,-1039.89"/>
<polygon fill="midnightblue" stroke="midnightblue" points="996.25,-1039.79 993.42,-1029.58 989.27,-1039.33 996.25,-1039.79"/>
</g>
<!-- Node3 -->
<g id="node3" class="node">
<title>Node3</title>
<g id="a_node3"><a xlink:href="class_t_all_routes.html#a2341a7e860e716e60b733f45814e4499" target="_top" xlink:title="The track geometry allows diagonals to cross without occupying the same track element,...">
<polygon fill="white" stroke="black" points="191.5,-756 191.5,-786 328.5,-786 328.5,-756 191.5,-756"/>
<text text-anchor="start" x="199.5" y="-774" font-family="Helvetica,sans-Serif" font-size="10.00">TAllRoutes::DiagonalFouled</text>
<text text-anchor="middle" x="260" y="-763" font-family="Helvetica,sans-Serif" font-size="10.00">ByRouteOrTrain</text>
</a>
</g>
</g>
<!-- Node1&#45;&gt;Node3 -->
<g id="edge2" class="edge">
<title>Node1&#45;&gt;Node3</title>
<path fill="none" stroke="midnightblue" d="M90.7,-641C110.06,-664.11 149.88,-708.8 191,-738 197.92,-742.91 205.69,-747.45 213.43,-751.49"/>
<polygon fill="midnightblue" stroke="midnightblue" points="211.94,-754.66 222.45,-755.99 215.07,-748.4 211.94,-754.66"/>
</g>
<!-- Node4 -->
<g id="node4" class="node">
<title>Node4</title>
<g id="a_node4"><a xlink:href="class_t_one_pref_dir.html#a5b67e5aaa86d324229aedc68f32f32b8" target="_top" xlink:title="Return a non&#45;modifiable element at PrefDirVector position &#39;At&#39;.">
<polygon fill="white" stroke="black" points="372.5,-847 372.5,-877 504.5,-877 504.5,-847 372.5,-847"/>
<text text-anchor="start" x="380.5" y="-865" font-family="Helvetica,sans-Serif" font-size="10.00">TOnePrefDir::GetFixedPref</text>
<text text-anchor="middle" x="438.5" y="-854" font-family="Helvetica,sans-Serif" font-size="10.00">DirElementAt</text>
</a>
</g>
</g>
<!-- Node1&#45;&gt;Node4 -->
<g id="edge36" class="edge">
<title>Node1&#45;&gt;Node4</title>
<path fill="none" stroke="midnightblue" d="M84.15,-641.16C97.38,-674.55 133.7,-754.75 191,-796 241.23,-832.15 310.03,-848.5 362.19,-855.9"/>
<polygon fill="midnightblue" stroke="midnightblue" points="362.01,-859.4 372.39,-857.26 362.94,-852.47 362.01,-859.4"/>
</g>
<!-- Node5 -->
<g id="node5" class="node">
<title>Node5</title>
<g id="a_node5"><a xlink:href="class_t_utilities.html#a34bd6bb5305bc29afdf424f6d35a921c" target="_top" xlink:title="creates a string of the form &#39;hh:mm:ss&#39; for use in call &amp; event logging">
<polygon fill="white" stroke="black" points="940,-518.5 940,-537.5 1050,-537.5 1050,-518.5 940,-518.5"/>
<text text-anchor="middle" x="995" y="-525.5" font-family="Helvetica,sans-Serif" font-size="10.00">TUtilities::TimeStamp</text>
</a>
</g>
</g>
<!-- Node1&#45;&gt;Node5 -->
<g id="edge80" class="edge">
<title>Node1&#45;&gt;Node5</title>
<path fill="none" stroke="midnightblue" d="M80.75,-610.99C94.76,-523.78 178.01,-86 437.5,-86 437.5,-86 437.5,-86 629,-86 751.61,-86 811.8,-27.17 904,-108 965.6,-162.01 987.76,-432.7 992.8,-508.34"/>
<polygon fill="midnightblue" stroke="midnightblue" points="989.31,-508.63 993.45,-518.39 996.3,-508.19 989.31,-508.63"/>
</g>
<!-- Node6 -->
<g id="node6" class="node">
<title>Node6</title>
<g id="a_node6"><a xlink:href="class_t_all_routes.html#a7d9f820738af6314f2b9a4a1f52bb64a" target="_top" xlink:title="Returns a constant reference to the route at AllRoutesVector position &#39;At&#39;, after performing range ch...">
<polygon fill="white" stroke="black" points="366,-673.5 366,-692.5 511,-692.5 511,-673.5 366,-673.5"/>
<text text-anchor="middle" x="438.5" y="-680.5" font-family="Helvetica,sans-Serif" font-size="10.00">TAllRoutes::GetFixedRouteAt</text>
</a>
</g>
</g>
<!-- Node1&#45;&gt;Node6 -->
<g id="edge37" class="edge">
<title>Node1&#45;&gt;Node6</title>
<path fill="none" stroke="midnightblue" d="M122.64,-641.04C143.2,-647.5 168.12,-654.57 191,-659 245.39,-669.53 307.46,-675.54 355.72,-678.91"/>
<polygon fill="midnightblue" stroke="midnightblue" points="355.58,-682.41 365.8,-679.59 356.05,-675.42 355.58,-682.41"/>
</g>
<!-- Node7 -->
<g id="node7" class="node">
<title>Node7</title>
<g id="a_node7"><a xlink:href="class_t_all_routes.html#a7eda7a4b535c7538e217bbbc4d878071" target="_top" xlink:title="Retrieve up to two TRouteElementPair entries from Route2MultiMap at H &amp; V, the first as a function re...">
<polygon fill="white" stroke="black" points="365,-712 365,-742 512,-742 512,-712 365,-712"/>
<text text-anchor="start" x="373" y="-730" font-family="Helvetica,sans-Serif" font-size="10.00">TAllRoutes::GetRouteElement</text>
<text text-anchor="middle" x="438.5" y="-719" font-family="Helvetica,sans-Serif" font-size="10.00">DataFromRoute2MultiMap</text>
</a>
</g>
</g>
<!-- Node1&#45;&gt;Node7 -->
<g id="edge39" class="edge">
<title>Node1&#45;&gt;Node7</title>
<path fill="none" stroke="midnightblue" d="M104.47,-641.21C126.74,-653.63 160.04,-670.75 191,-681 244.15,-698.59 306.11,-710.12 354.61,-717.23"/>
<polygon fill="midnightblue" stroke="midnightblue" points="354.35,-720.73 364.75,-718.68 355.34,-713.8 354.35,-720.73"/>
</g>
<!-- Node11 -->
<g id="node11" class="node">
<title>Node11</title>
<g id="a_node11"><a xlink:href="class_t_track.html#ad377e5a1f152f2e89832c0f9bcfd261f" target="_top" xlink:title="A range&#45;checked version of TrackVector.at(At)">
<polygon fill="white" stroke="black" points="763,-1200.5 763,-1219.5 885,-1219.5 885,-1200.5 763,-1200.5"/>
<text text-anchor="middle" x="824" y="-1207.5" font-family="Helvetica,sans-Serif" font-size="10.00">TTrack::TrackElementAt</text>
</a>
</g>
</g>
<!-- Node1&#45;&gt;Node11 -->
<g id="edge81" class="edge">
<title>Node1&#45;&gt;Node11</title>
<path fill="none" stroke="midnightblue" d="M81.13,-641.23C98.73,-737.68 209.33,-1263.45 548,-1393 614.42,-1418.41 651.23,-1435.82 708,-1393 754.5,-1357.93 710.54,-1314.67 744,-1267 756.71,-1248.9 777.05,-1234.41 793.91,-1224.58"/>
<polygon fill="midnightblue" stroke="midnightblue" points="795.81,-1227.52 802.85,-1219.6 792.41,-1221.41 795.81,-1227.52"/>
</g>
<!-- Node14 -->
<g id="node14" class="node">
<title>Node14</title>
<g id="a_node14"><a xlink:href="class_t_pref_dir_element.html#ae8ee9f59578f80d23aebfdb9fff041d4" target="_top" xlink:title="determines and loads EXNumber (see above)">
<polygon fill="white" stroke="black" points="757,-759 757,-789 891,-789 891,-759 757,-759"/>
<text text-anchor="start" x="765" y="-777" font-family="Helvetica,sans-Serif" font-size="10.00">TPrefDirElement::EntryExit</text>
<text text-anchor="middle" x="824" y="-766" font-family="Helvetica,sans-Serif" font-size="10.00">Number</text>
</a>
</g>
</g>
<!-- Node1&#45;&gt;Node14 -->
<g id="edge33" class="edge">
<title>Node1&#45;&gt;Node14</title>
<path fill="none" stroke="midnightblue" d="M155.05,-623.68C167.08,-623.4 179.38,-623.15 191,-623 422.4,-619.92 520.82,-548.91 708,-685 732.24,-702.62 721.01,-722.79 744,-742 749.7,-746.76 756.2,-750.89 762.97,-754.44"/>
<polygon fill="midnightblue" stroke="midnightblue" points="761.79,-757.76 772.31,-758.94 764.82,-751.45 761.79,-757.76"/>
</g>
<!-- Node15 -->
<g id="node15" class="node">
<title>Node15</title>
<g id="a_node15"><a xlink:href="class_i_d_int.html#a3c40e609e12caab2063aa7f3ff8b8ea7" target="_top" xlink:title="get the internal integer">
<polygon fill="white" stroke="black" points="226,-38.5 226,-57.5 294,-57.5 294,-38.5 226,-38.5"/>
<text text-anchor="middle" x="260" y="-45.5" font-family="Helvetica,sans-Serif" font-size="10.00">IDInt::GetInt</text>
</a>
</g>
</g>
<!-- Node1&#45;&gt;Node15 -->
<g id="edge38" class="edge">
<title>Node1&#45;&gt;Node15</title>
<path fill="none" stroke="midnightblue" d="M79.59,-610.86C85.63,-530.73 117.49,-156.51 191,-72 197.66,-64.35 206.91,-59.14 216.45,-55.59"/>
<polygon fill="midnightblue" stroke="midnightblue" points="217.52,-58.92 225.99,-52.56 215.4,-52.25 217.52,-58.92"/>
</g>
<!-- Node16 -->
<g id="node16" class="node">
<title>Node16</title>
<g id="a_node16"><a xlink:href="class_t_all_routes.html#a1913c6b3db0107874816d94a4d77e7a8" target="_top" xlink:title="Returns a route&#39;s position in AllRoutesVector from its ID, throws an error if a matching route isn&#39;t ...">
<polygon fill="white" stroke="black" points="754,-469 754,-499 894,-499 894,-469 754,-469"/>
<text text-anchor="start" x="762" y="-487" font-family="Helvetica,sans-Serif" font-size="10.00">TAllRoutes::GetRouteVector</text>
<text text-anchor="middle" x="824" y="-476" font-family="Helvetica,sans-Serif" font-size="10.00">Number</text>
</a>
</g>
</g>
<!-- Node1&#45;&gt;Node16 -->
<g id="edge40" class="edge">
<title>Node1&#45;&gt;Node16</title>
<path fill="none" stroke="midnightblue" d="M92.82,-610.83C112.71,-590.88 150.81,-556.52 191,-541 378.93,-468.43 620.84,-470.45 743.73,-477.53"/>
<polygon fill="midnightblue" stroke="midnightblue" points="743.62,-481.03 753.81,-478.14 744.04,-474.04 743.62,-481.03"/>
</g>
<!-- Node17 -->
<g id="node17" class="node">
<title>Node17</title>
<g id="a_node17"><a xlink:href="class_t_one_pref_dir.html#a820f6cc109de519289e6a63dac835ebc" target="_top" xlink:title="Return up to 4 vector positions for a given HLoc &amp; VLoc; unused values return &#45;1.">
<polygon fill="white" stroke="black" points="744,-381 744,-411 904,-411 904,-381 744,-381"/>
<text text-anchor="start" x="752" y="-399" font-family="Helvetica,sans-Serif" font-size="10.00">TOnePrefDir::GetVectorPositions</text>
<text text-anchor="middle" x="824" y="-388" font-family="Helvetica,sans-Serif" font-size="10.00">FromPrefDir4MultiMap</text>
</a>
</g>
</g>
<!-- Node1&#45;&gt;Node17 -->
<g id="edge43" class="edge">
<title>Node1&#45;&gt;Node17</title>
<path fill="none" stroke="midnightblue" d="M87.08,-610.97C103.45,-583.84 141.91,-526.98 191,-500 365.7,-403.99 605.65,-391.45 733.79,-392.55"/>
<polygon fill="midnightblue" stroke="midnightblue" points="733.91,-396.05 743.95,-392.67 733.99,-389.05 733.91,-396.05"/>
</g>
<!-- Node18 -->
<g id="node18" class="node">
<title>Node18</title>
<g id="a_node18"><a xlink:href="class_t_track.html#a73e781d0ada0b77618b886557f79b115" target="_top" xlink:title="True if a level crossing is found at H &amp; V.">
<polygon fill="white" stroke="black" points="580.5,-521.5 580.5,-540.5 675.5,-540.5 675.5,-521.5 580.5,-521.5"/>
<text text-anchor="middle" x="628" y="-528.5" font-family="Helvetica,sans-Serif" font-size="10.00">TTrack::IsLCAtHV</text>
</a>
</g>
</g>
<!-- Node1&#45;&gt;Node18 -->
<g id="edge46" class="edge">
<title>Node1&#45;&gt;Node18</title>
<path fill="none" stroke="midnightblue" d="M103.4,-610.86C125.56,-598.19 159.27,-580.8 191,-572 323.22,-535.32 485.7,-529.98 570.07,-530.02"/>
<polygon fill="midnightblue" stroke="midnightblue" points="570.2,-533.52 580.21,-530.05 570.22,-526.52 570.2,-533.52"/>
</g>
<!-- Node21 -->
<g id="node21" class="node">
<title>Node21</title>
<g id="a_node21"><a xlink:href="class_t_track.html#a96468affb70f97173d882afefbec9fb2" target="_top" xlink:title="True if barrier is in process of opening or closing at H &amp; V.">
<polygon fill="white" stroke="black" points="548,-559.5 548,-578.5 708,-578.5 708,-559.5 548,-559.5"/>
<text text-anchor="middle" x="628" y="-566.5" font-family="Helvetica,sans-Serif" font-size="10.00">TTrack::IsLCBarrierFlashingAtHV</text>
</a>
</g>
</g>
<!-- Node1&#45;&gt;Node21 -->
<g id="edge55" class="edge">
<title>Node1&#45;&gt;Node21</title>
<path fill="none" stroke="midnightblue" d="M121.22,-610.95C142.01,-604.27 167.53,-597.03 191,-593 309.7,-572.6 449,-568.28 537.61,-567.94"/>
<polygon fill="midnightblue" stroke="midnightblue" points="537.63,-571.44 547.62,-567.91 537.61,-564.44 537.63,-571.44"/>
</g>
<!-- Node22 -->
<g id="node22" class="node">
<title>Node22</title>
<g id="a_node22"><a xlink:href="class_t_pref_dir_element.html#a473c0faabe4d0fb8c4296c9c70dbe7d3" target="_top" xlink:title="Sends a list of PrefDirElement values to Utilities&#45;&gt;CallLog file for debugging purposes.">
<polygon fill="white" stroke="black" points="191,-0.5 191,-19.5 329,-19.5 329,-0.5 191,-0.5"/>
<text text-anchor="middle" x="260" y="-7.5" font-family="Helvetica,sans-Serif" font-size="10.00">TPrefDirElement::LogPrefDir</text>
</a>
</g>
</g>
<!-- Node1&#45;&gt;Node22 -->
<g id="edge60" class="edge">
<title>Node1&#45;&gt;Node22</title>
<path fill="none" stroke="midnightblue" d="M79.25,-610.73C83.7,-526.37 109.28,-118.09 191,-29 192.22,-27.66 193.53,-26.42 194.92,-25.26"/>
<polygon fill="midnightblue" stroke="midnightblue" points="197.15,-27.98 203.51,-19.51 193.25,-22.16 197.15,-27.98"/>
</g>
<!-- Node23 -->
<g id="node23" class="node">
<title>Node23</title>
<g id="a_node23"><a xlink:href="class_t_one_route.html#a4177e4c0c4d6817515cb19f4f7e1427b" target="_top" xlink:title="Check incorporated in route search routines after have found a legitimate route, returns false for si...">
<polygon fill="white" stroke="black" points="367.5,-1200.5 367.5,-1219.5 509.5,-1219.5 509.5,-1200.5 367.5,-1200.5"/>
<text text-anchor="middle" x="438.5" y="-1207.5" font-family="Helvetica,sans-Serif" font-size="10.00">TOneRoute::SignalHasFailed</text>
</a>
</g>
</g>
<!-- Node1&#45;&gt;Node23 -->
<g id="edge61" class="edge">
<title>Node1&#45;&gt;Node23</title>
<path fill="none" stroke="midnightblue" d="M85.96,-641.02C103.36,-675.85 148.45,-764.58 191,-836 274.73,-976.54 387.3,-1138.66 424.78,-1191.98"/>
<polygon fill="midnightblue" stroke="midnightblue" points="422.07,-1194.22 430.69,-1200.39 427.8,-1190.19 422.07,-1194.22"/>
</g>
<!-- Node27 -->
<g id="node27" class="node">
<title>Node27</title>
<g id="a_node27"><a xlink:href="class_t_train_controller.html#aba5615209a7dca921e968fca5c52c060" target="_top" xlink:title="sends a message to the user and stops the timetable clock while it is displayed">
<polygon fill="white" stroke="black" points="555,-694 555,-724 701,-724 701,-694 555,-694"/>
<text text-anchor="start" x="563" y="-712" font-family="Helvetica,sans-Serif" font-size="10.00">TTrainController::StopTTClock</text>
<text text-anchor="middle" x="628" y="-701" font-family="Helvetica,sans-Serif" font-size="10.00">Message</text>
</a>
</g>
</g>
<!-- Node1&#45;&gt;Node27 -->
<g id="edge79" class="edge">
<title>Node1&#45;&gt;Node27</title>
<path fill="none" stroke="midnightblue" d="M155.11,-626.15C242.55,-627.83 389.35,-635.25 512,-664 537.46,-669.97 564.76,-680.46 586.37,-689.81"/>
<polygon fill="midnightblue" stroke="midnightblue" points="585,-693.04 595.56,-693.87 587.83,-686.63 585,-693.04"/>
</g>
<!-- Node3&#45;&gt;Node2 -->
<g id="edge3" class="edge">
<title>Node3&#45;&gt;Node2</title>
<path fill="none" stroke="midnightblue" d="M261.14,-786.16C262.89,-873.73 284.81,-1314.91 548,-1432 692.79,-1496.41 785.22,-1516.9 904,-1412 961.13,-1361.55 986.27,-1112.05 992.44,-1039.7"/>
<polygon fill="midnightblue" stroke="midnightblue" points="995.93,-1039.92 993.27,-1029.66 988.96,-1039.34 995.93,-1039.92"/>
</g>
<!-- Node3&#45;&gt;Node4 -->
<g id="edge4" class="edge">
<title>Node3&#45;&gt;Node4</title>
<path fill="none" stroke="midnightblue" d="M281.67,-786.17C302.08,-800.64 334.56,-822.34 365,-837 369.53,-839.18 374.31,-841.27 379.15,-843.23"/>
<polygon fill="midnightblue" stroke="midnightblue" points="377.92,-846.51 388.51,-846.86 380.45,-839.98 377.92,-846.51"/>
</g>
<!-- Node3&#45;&gt;Node5 -->
<g id="edge13" class="edge">
<title>Node3&#45;&gt;Node5</title>
<path fill="none" stroke="midnightblue" d="M320.18,-786.03C377.55,-796.68 462.91,-801.48 512,-752 595.3,-668.04 461.59,-301.75 548,-221 561.78,-208.12 885.28,-207.92 904,-222 951.18,-257.49 982.2,-446.15 991.25,-508.2"/>
<polygon fill="midnightblue" stroke="midnightblue" points="987.81,-508.84 992.69,-518.25 994.74,-507.85 987.81,-508.84"/>
</g>
<!-- Node3&#45;&gt;Node6 -->
<g id="edge7" class="edge">
<title>Node3&#45;&gt;Node6</title>
<path fill="none" stroke="midnightblue" d="M280.26,-755.76C300.37,-740.5 333.35,-717.29 365,-703 371.16,-700.22 377.79,-697.75 384.44,-695.57"/>
<polygon fill="midnightblue" stroke="midnightblue" points="385.63,-698.87 394.17,-692.59 383.58,-692.17 385.63,-698.87"/>
</g>
<!-- Node3&#45;&gt;Node7 -->
<g id="edge10" class="edge">
<title>Node3&#45;&gt;Node7</title>
<path fill="none" stroke="midnightblue" d="M321.25,-755.98C336.08,-752.28 352.08,-748.29 367.33,-744.49"/>
<polygon fill="midnightblue" stroke="midnightblue" points="368.37,-747.84 377.22,-742.03 366.67,-741.05 368.37,-747.84"/>
</g>
<!-- Node8 -->
<g id="node8" class="node">
<title>Node8</title>
<g id="a_node8"><a xlink:href="class_t_track.html#a12d4069a6a201e13a83347c555a465b2" target="_top" xlink:title="New at v1.2.0; checks whether a train present at input location and link and returns its ID if so.">
<polygon fill="white" stroke="black" points="386.5,-808.5 386.5,-827.5 490.5,-827.5 490.5,-808.5 386.5,-808.5"/>
<text text-anchor="middle" x="438.5" y="-815.5" font-family="Helvetica,sans-Serif" font-size="10.00">TTrack::TrainOnLink</text>
</a>
</g>
</g>
<!-- Node3&#45;&gt;Node8 -->
<g id="edge14" class="edge">
<title>Node3&#45;&gt;Node8</title>
<path fill="none" stroke="midnightblue" d="M317.33,-786C341.41,-792.41 369.15,-799.8 391.91,-805.86"/>
<polygon fill="midnightblue" stroke="midnightblue" points="391.1,-809.27 401.66,-808.46 392.9,-802.5 391.1,-809.27"/>
</g>
<!-- Node4&#45;&gt;Node2 -->
<g id="edge5" class="edge">
<title>Node4&#45;&gt;Node2</title>
<path fill="none" stroke="midnightblue" d="M442.48,-877.08C456.71,-948.34 518.18,-1249.18 548,-1279 611.65,-1342.65 654.72,-1318.57 744,-1330 814.54,-1339.03 847.14,-1372.7 904,-1330 951.88,-1294.04 982.54,-1102.1 991.36,-1039.65"/>
<polygon fill="midnightblue" stroke="midnightblue" points="994.85,-1039.95 992.75,-1029.56 987.92,-1038.99 994.85,-1039.95"/>
</g>
<!-- Node4&#45;&gt;Node5 -->
<g id="edge6" class="edge">
<title>Node4&#45;&gt;Node5</title>
<path fill="none" stroke="midnightblue" d="M501.21,-846.92C505.27,-844.15 508.95,-840.87 512,-837 564.32,-770.52 507.92,-532.51 548,-458 601.01,-359.46 638.49,-337.23 744,-300 811.06,-276.34 845.21,-260 904,-300 975.03,-348.33 990,-462.23 993.16,-508.23"/>
<polygon fill="midnightblue" stroke="midnightblue" points="989.67,-508.59 993.73,-518.37 996.66,-508.19 989.67,-508.59"/>
</g>
<!-- Node6&#45;&gt;Node2 -->
<g id="edge8" class="edge">
<title>Node6&#45;&gt;Node2</title>
<path fill="none" stroke="midnightblue" d="M497.32,-692.65C502.75,-695.33 507.79,-698.72 512,-703 557.03,-748.82 513.22,-788.98 548,-843 608.57,-937.08 639.97,-959.79 744,-1001 803.75,-1024.67 877.75,-1027.36 929.68,-1025.39"/>
<polygon fill="midnightblue" stroke="midnightblue" points="929.92,-1028.88 939.76,-1024.94 929.61,-1021.89 929.92,-1028.88"/>
</g>
<!-- Node6&#45;&gt;Node5 -->
<g id="edge9" class="edge">
<title>Node6&#45;&gt;Node5</title>
<path fill="none" stroke="midnightblue" d="M439.86,-673.38C442.59,-607.06 462.15,-218.18 548,-148 609.25,-97.93 841.95,-98.93 904,-148 961.8,-193.71 986.34,-435.83 992.42,-507.8"/>
<polygon fill="midnightblue" stroke="midnightblue" points="988.97,-508.5 993.27,-518.18 995.94,-507.93 988.97,-508.5"/>
</g>
<!-- Node7&#45;&gt;Node2 -->
<g id="edge11" class="edge">
<title>Node7&#45;&gt;Node2</title>
<path fill="none" stroke="midnightblue" d="M460.79,-742.23C477.44,-755.34 499.76,-775.77 512,-799 553.48,-877.75 485.4,-932.73 548,-996 603.95,-1052.56 824.68,-1040.13 904,-1034 913.03,-1033.3 922.53,-1032.22 931.83,-1030.95"/>
<polygon fill="midnightblue" stroke="midnightblue" points="932.41,-1034.4 941.81,-1029.51 931.41,-1027.47 932.41,-1034.4"/>
</g>
<!-- Node7&#45;&gt;Node5 -->
<g id="edge12" class="edge">
<title>Node7&#45;&gt;Node5</title>
<path fill="none" stroke="midnightblue" d="M501.31,-712C505.36,-709.21 509,-705.91 512,-702 581.95,-610.79 463.94,-264.4 548,-186 605.85,-132.04 841.34,-137.7 904,-186 956.52,-226.48 984.48,-442.13 991.94,-508.53"/>
<polygon fill="midnightblue" stroke="midnightblue" points="988.46,-508.93 993.03,-518.49 995.42,-508.17 988.46,-508.93"/>
</g>
<!-- Node8&#45;&gt;Node2 -->
<g id="edge15" class="edge">
<title>Node8&#45;&gt;Node2</title>
<path fill="none" stroke="midnightblue" d="M490.58,-824.04C498.69,-827.1 506.28,-831.55 512,-838 583.28,-918.36 469.13,-1004.07 548,-1077 577.06,-1103.88 866.6,-1103.98 904,-1091 934.54,-1080.4 962.55,-1054.67 978.96,-1037.28"/>
<polygon fill="midnightblue" stroke="midnightblue" points="981.89,-1039.26 986.04,-1029.51 976.71,-1034.54 981.89,-1039.26"/>
</g>
<!-- Node8&#45;&gt;Node5 -->
<g id="edge25" class="edge">
<title>Node8&#45;&gt;Node5</title>
<path fill="none" stroke="midnightblue" d="M479.82,-808.38C492.1,-803.43 504.36,-796.02 512,-785 578.37,-689.26 462.84,-341.5 548,-262 605.83,-208.01 839.72,-215.89 904,-262 985.58,-320.52 994.15,-457.01 994.38,-508.17"/>
<polygon fill="midnightblue" stroke="midnightblue" points="990.88,-508.22 994.32,-518.24 997.88,-508.26 990.88,-508.22"/>
</g>
<!-- Node9 -->
<g id="node9" class="node">
<title>Node9</title>
<g id="a_node9"><a xlink:href="class_t_track.html#aa0812972d1ae27198c5fbca8aa7b6134" target="_top" xlink:title="Returns the track vector position corresponding to the Hloc &amp; VLoc positions, FoundFlag indicates whe...">
<polygon fill="white" stroke="black" points="758.5,-961 758.5,-991 889.5,-991 889.5,-961 758.5,-961"/>
<text text-anchor="start" x="766.5" y="-979" font-family="Helvetica,sans-Serif" font-size="10.00">TTrack::GetVectorPosition</text>
<text text-anchor="middle" x="824" y="-968" font-family="Helvetica,sans-Serif" font-size="10.00">FromTrackMap</text>
</a>
</g>
</g>
<!-- Node8&#45;&gt;Node9 -->
<g id="edge16" class="edge">
<title>Node8&#45;&gt;Node9</title>
<path fill="none" stroke="midnightblue" d="M478.21,-827.54C489.23,-830.56 501.18,-834.13 512,-838 612.37,-873.89 725.77,-927.75 783.96,-956.42"/>
<polygon fill="midnightblue" stroke="midnightblue" points="782.63,-959.67 793.15,-960.96 785.74,-953.39 782.63,-959.67"/>
</g>
<!-- Node10 -->
<g id="node10" class="node">
<title>Node10</title>
<g id="a_node10"><a xlink:href="class_t_train.html#aef32cd9a007874ab09ceeac907e7c88b" target="_top" xlink:title="Added at v1.2.0: true if any part of train on specific link, false otherwise, including no link prese...">
<polygon fill="white" stroke="black" points="574,-1048.5 574,-1067.5 682,-1067.5 682,-1048.5 574,-1048.5"/>
<text text-anchor="middle" x="628" y="-1055.5" font-family="Helvetica,sans-Serif" font-size="10.00">TTrain::LinkOccupied</text>
</a>
</g>
</g>
<!-- Node8&#45;&gt;Node10 -->
<g id="edge19" class="edge">
<title>Node8&#45;&gt;Node10</title>
<path fill="none" stroke="midnightblue" d="M490.78,-824.34C498.77,-827.37 506.27,-831.74 512,-838 571.83,-903.31 489.02,-967.93 548,-1034 552.62,-1039.17 558.31,-1043.25 564.51,-1046.45"/>
<polygon fill="midnightblue" stroke="midnightblue" points="563.32,-1049.75 573.88,-1050.56 566.13,-1043.34 563.32,-1049.75"/>
</g>
<!-- Node8&#45;&gt;Node11 -->
<g id="edge26" class="edge">
<title>Node8&#45;&gt;Node11</title>
<path fill="none" stroke="midnightblue" d="M490.67,-823.96C498.78,-827.03 506.34,-831.5 512,-838 592.1,-929.95 473.69,-1013.31 548,-1110 596.48,-1173.09 688.58,-1196.41 752.77,-1205.01"/>
<polygon fill="midnightblue" stroke="midnightblue" points="752.46,-1208.5 762.82,-1206.27 753.33,-1201.56 752.46,-1208.5"/>
</g>
<!-- Node12 -->
<g id="node12" class="node">
<title>Node12</title>
<g id="a_node12"><a xlink:href="class_t_train_controller.html#a4d5de42d6e9e92191241963599581210" target="_top" xlink:title="Return a reference to the train with ID TrainID, carries out validity checking on TrainID.">
<polygon fill="white" stroke="black" points="558,-803 558,-833 698,-833 698,-803 558,-803"/>
<text text-anchor="start" x="566" y="-821" font-family="Helvetica,sans-Serif" font-size="10.00">TTrainController::TrainVector</text>
<text text-anchor="middle" x="628" y="-810" font-family="Helvetica,sans-Serif" font-size="10.00">AtIdent</text>
</a>
</g>
</g>
<!-- Node8&#45;&gt;Node12 -->
<g id="edge27" class="edge">
<title>Node8&#45;&gt;Node12</title>
<path fill="none" stroke="midnightblue" d="M490.74,-818C508.37,-818 528.55,-818 547.88,-818"/>
<polygon fill="midnightblue" stroke="midnightblue" points="547.9,-821.5 557.9,-818 547.9,-814.5 547.9,-821.5"/>
</g>
<!-- Node9&#45;&gt;Node2 -->
<g id="edge17" class="edge">
<title>Node9&#45;&gt;Node2</title>
<path fill="none" stroke="midnightblue" d="M882.69,-991.02C903.87,-996.54 927.57,-1002.7 947.63,-1007.93"/>
<polygon fill="midnightblue" stroke="midnightblue" points="946.9,-1011.36 957.46,-1010.49 948.67,-1004.58 946.9,-1011.36"/>
</g>
<!-- Node9&#45;&gt;Node5 -->
<g id="edge18" class="edge">
<title>Node9&#45;&gt;Node5</title>
<path fill="none" stroke="midnightblue" d="M884.9,-960.88C892.09,-956.99 898.74,-952.12 904,-946 956.93,-884.41 985.13,-622.77 992.2,-548.02"/>
<polygon fill="midnightblue" stroke="midnightblue" points="995.72,-547.96 993.16,-537.68 988.75,-547.32 995.72,-547.96"/>
</g>
<!-- Node10&#45;&gt;Node2 -->
<g id="edge20" class="edge">
<title>Node10&#45;&gt;Node2</title>
<path fill="none" stroke="midnightblue" d="M668.51,-1067.53C722.66,-1078.92 822.5,-1093.85 904,-1072 930.12,-1065 956.51,-1048.37 973.89,-1035.79"/>
<polygon fill="midnightblue" stroke="midnightblue" points="976.19,-1038.44 982.11,-1029.65 972.01,-1032.83 976.19,-1038.44"/>
</g>
<!-- Node10&#45;&gt;Node5 -->
<g id="edge21" class="edge">
<title>Node10&#45;&gt;Node5</title>
<path fill="none" stroke="midnightblue" d="M638.78,-1048.22C658.18,-1029 703.17,-985.28 744,-952 811.88,-896.67 853.44,-908.5 904,-837 970.58,-742.84 988.3,-599.66 992.67,-547.71"/>
<polygon fill="midnightblue" stroke="midnightblue" points="996.18,-547.78 993.45,-537.54 989.2,-547.25 996.18,-547.78"/>
</g>
<!-- Node10&#45;&gt;Node11 -->
<g id="edge22" class="edge">
<title>Node10&#45;&gt;Node11</title>
<path fill="none" stroke="midnightblue" d="M644.93,-1067.5C662.21,-1078.44 689.75,-1097.76 708,-1120 730.45,-1147.35 716.24,-1169.06 744,-1191 746.94,-1193.32 750.12,-1195.37 753.46,-1197.17"/>
<polygon fill="midnightblue" stroke="midnightblue" points="752.07,-1200.38 762.61,-1201.39 755,-1194.02 752.07,-1200.38"/>
</g>
<!-- Node11&#45;&gt;Node2 -->
<g id="edge23" class="edge">
<title>Node11&#45;&gt;Node2</title>
<path fill="none" stroke="midnightblue" d="M885.32,-1201.3C892.03,-1198.69 898.43,-1195.33 904,-1191 954.65,-1151.59 979.86,-1075.6 989.37,-1039.7"/>
<polygon fill="midnightblue" stroke="midnightblue" points="992.87,-1040.1 991.91,-1029.55 986.08,-1038.4 992.87,-1040.1"/>
</g>
<!-- Node11&#45;&gt;Node5 -->
<g id="edge24" class="edge">
<title>Node11&#45;&gt;Node5</title>
<path fill="none" stroke="midnightblue" d="M885.01,-1203.9C892.18,-1200.92 898.8,-1196.76 904,-1191 926.28,-1166.34 980.68,-655.68 991.94,-547.87"/>
<polygon fill="midnightblue" stroke="midnightblue" points="995.44,-548.05 992.99,-537.74 988.48,-547.32 995.44,-548.05"/>
</g>
<!-- Node12&#45;&gt;Node2 -->
<g id="edge28" class="edge">
<title>Node12&#45;&gt;Node2</title>
<path fill="none" stroke="midnightblue" d="M668.79,-833.02C681.47,-838.09 695.45,-844 708,-850 724.51,-857.9 727.85,-861.38 744,-870 814.49,-907.63 836.31,-909.53 904,-952 929.52,-968.01 956.87,-989.33 974.63,-1003.8"/>
<polygon fill="midnightblue" stroke="midnightblue" points="972.58,-1006.65 982.53,-1010.3 977.03,-1001.25 972.58,-1006.65"/>
</g>
<!-- Node12&#45;&gt;Node5 -->
<g id="edge29" class="edge">
<title>Node12&#45;&gt;Node5</title>
<path fill="none" stroke="midnightblue" d="M656.05,-802.94C707.34,-773.72 821.03,-705.67 904,-632 934.6,-604.83 964.57,-567.43 981.03,-545.67"/>
<polygon fill="midnightblue" stroke="midnightblue" points="983.85,-547.74 987.04,-537.64 978.25,-543.55 983.85,-547.74"/>
</g>
<!-- Node13 -->
<g id="node13" class="node">
<title>Node13</title>
<g id="a_node13"><a xlink:href="class_t_train_controller.html#aa09adf9c442406cccc270d6703867a1d" target="_top" xlink:title="Return a reference to the train at position VecPos in the TrainVector, carries out range checking on ...">
<polygon fill="white" stroke="black" points="749.5,-808.5 749.5,-827.5 898.5,-827.5 898.5,-808.5 749.5,-808.5"/>
<text text-anchor="middle" x="824" y="-815.5" font-family="Helvetica,sans-Serif" font-size="10.00">TTrainController::TrainVectorAt</text>
</a>
</g>
</g>
<!-- Node12&#45;&gt;Node13 -->
<g id="edge30" class="edge">
<title>Node12&#45;&gt;Node13</title>
<path fill="none" stroke="midnightblue" d="M698.22,-818C711.4,-818 725.33,-818 738.91,-818"/>
<polygon fill="midnightblue" stroke="midnightblue" points="739.21,-821.5 749.21,-818 739.21,-814.5 739.21,-821.5"/>
</g>
<!-- Node13&#45;&gt;Node2 -->
<g id="edge31" class="edge">
<title>Node13&#45;&gt;Node2</title>
<path fill="none" stroke="midnightblue" d="M877.75,-827.52C887.2,-830.96 896.43,-835.64 904,-842 954.94,-884.8 980.11,-963.61 989.5,-1000.28"/>
<polygon fill="midnightblue" stroke="midnightblue" points="986.15,-1001.33 991.92,-1010.22 992.96,-999.67 986.15,-1001.33"/>
</g>
<!-- Node13&#45;&gt;Node5 -->
<g id="edge32" class="edge">
<title>Node13&#45;&gt;Node5</title>
<path fill="none" stroke="midnightblue" d="M889.94,-808.4C895.06,-805.91 899.84,-802.82 904,-799 978.85,-730.23 991.53,-597.79 993.62,-547.77"/>
<polygon fill="midnightblue" stroke="midnightblue" points="997.12,-547.76 993.94,-537.65 990.12,-547.54 997.12,-547.76"/>
</g>
<!-- Node14&#45;&gt;Node2 -->
<g id="edge34" class="edge">
<title>Node14&#45;&gt;Node2</title>
<path fill="none" stroke="midnightblue" d="M889.78,-789.03C894.94,-791.8 899.77,-795.1 904,-799 964.65,-854.97 985.4,-957.64 991.63,-1000.45"/>
<polygon fill="midnightblue" stroke="midnightblue" points="988.17,-1000.98 992.97,-1010.42 995.11,-1000.04 988.17,-1000.98"/>
</g>
<!-- Node14&#45;&gt;Node5 -->
<g id="edge35" class="edge">
<title>Node14&#45;&gt;Node5</title>
<path fill="none" stroke="midnightblue" d="M836.85,-758.8C852.61,-738.43 881.13,-701.02 904,-668 933.6,-625.27 966.05,-573.46 982.72,-546.43"/>
<polygon fill="midnightblue" stroke="midnightblue" points="985.86,-548.01 988.11,-537.66 979.89,-544.34 985.86,-548.01"/>
</g>
<!-- Node16&#45;&gt;Node2 -->
<g id="edge41" class="edge">
<title>Node16&#45;&gt;Node2</title>
<path fill="none" stroke="midnightblue" d="M892.19,-499.02C896.57,-501.81 900.59,-505.1 904,-509 970.11,-584.48 989.31,-915.52 993.19,-1000.21"/>
<polygon fill="midnightblue" stroke="midnightblue" points="989.69,-1000.44 993.63,-1010.28 996.69,-1000.14 989.69,-1000.44"/>
</g>
<!-- Node16&#45;&gt;Node5 -->
<g id="edge42" class="edge">
<title>Node16&#45;&gt;Node5</title>
<path fill="none" stroke="midnightblue" d="M882.69,-499.02C903.87,-504.54 927.57,-510.7 947.63,-515.93"/>
<polygon fill="midnightblue" stroke="midnightblue" points="946.9,-519.36 957.46,-518.49 948.67,-512.58 946.9,-519.36"/>
</g>
<!-- Node17&#45;&gt;Node2 -->
<g id="edge44" class="edge">
<title>Node17&#45;&gt;Node2</title>
<path fill="none" stroke="midnightblue" d="M853.26,-411.21C870.75,-422.15 892.06,-438.55 904,-459 959.68,-554.39 986.82,-912.19 992.74,-1000.3"/>
<polygon fill="midnightblue" stroke="midnightblue" points="989.26,-1000.74 993.41,-1010.49 996.25,-1000.28 989.26,-1000.74"/>
</g>
<!-- Node17&#45;&gt;Node5 -->
<g id="edge45" class="edge">
<title>Node17&#45;&gt;Node5</title>
<path fill="none" stroke="midnightblue" d="M875.72,-411.07C885.54,-415.13 895.43,-420.07 904,-426 937.47,-449.17 966.67,-487.38 982.18,-509.87"/>
<polygon fill="midnightblue" stroke="midnightblue" points="979.47,-512.12 987.96,-518.46 985.28,-508.21 979.47,-512.12"/>
</g>
<!-- Node18&#45;&gt;Node2 -->
<g id="edge47" class="edge">
<title>Node18&#45;&gt;Node2</title>
<path fill="none" stroke="midnightblue" d="M675.85,-536.76C687,-539.58 698.42,-543.77 708,-550 730.06,-564.34 724.88,-578.92 744,-597 806.51,-656.13 853.59,-636.27 904,-706 972.72,-801.05 989.14,-947.47 992.92,-1000.21"/>
<polygon fill="midnightblue" stroke="midnightblue" points="989.43,-1000.5 993.56,-1010.25 996.42,-1000.05 989.43,-1000.5"/>
</g>
<!-- Node18&#45;&gt;Node5 -->
<g id="edge54" class="edge">
<title>Node18&#45;&gt;Node5</title>
<path fill="none" stroke="midnightblue" d="M656.3,-521.46C673.39,-514.2 694.63,-502.59 708,-486 741.6,-444.29 700.84,-402.71 744,-371 801.3,-328.89 842.47,-335.35 904,-371 955.76,-400.99 980.31,-473.21 989.49,-508.26"/>
<polygon fill="midnightblue" stroke="midnightblue" points="986.16,-509.36 991.95,-518.23 992.96,-507.69 986.16,-509.36"/>
</g>
<!-- Node19 -->
<g id="node19" class="node">
<title>Node19</title>
<g id="a_node19"><a xlink:href="class_t_track.html#a418966e6fefb71b9d0c9b941197832da" target="_top" xlink:title="Similar to GetVectorPositionFromTrackMap but for inactive elements, a pair is returned because there ...">
<polygon fill="white" stroke="black" points="755.5,-557 755.5,-587 892.5,-587 892.5,-557 755.5,-557"/>
<text text-anchor="start" x="763.5" y="-575" font-family="Helvetica,sans-Serif" font-size="10.00">TTrack::GetVectorPositions</text>
<text text-anchor="middle" x="824" y="-564" font-family="Helvetica,sans-Serif" font-size="10.00">FromInactiveTrackMap</text>
</a>
</g>
</g>
<!-- Node18&#45;&gt;Node19 -->
<g id="edge48" class="edge">
<title>Node18&#45;&gt;Node19</title>
<path fill="none" stroke="midnightblue" d="M674,-540.51C695.24,-545 721.22,-550.49 745.5,-555.62"/>
<polygon fill="midnightblue" stroke="midnightblue" points="744.91,-559.07 755.42,-557.72 746.36,-552.23 744.91,-559.07"/>
</g>
<!-- Node20 -->
<g id="node20" class="node">
<title>Node20</title>
<g id="a_node20"><a xlink:href="class_t_track.html#a51f89cf70e94b037f6378cd78003d82b" target="_top" xlink:title="A range&#45;checked version of InactiveTrackVector.at(At)">
<polygon fill="white" stroke="black" points="747,-518.5 747,-537.5 901,-537.5 901,-518.5 747,-518.5"/>
<text text-anchor="middle" x="824" y="-525.5" font-family="Helvetica,sans-Serif" font-size="10.00">TTrack::InactiveTrackElementAt</text>
</a>
</g>
</g>
<!-- Node18&#45;&gt;Node20 -->
<g id="edge51" class="edge">
<title>Node18&#45;&gt;Node20</title>
<path fill="none" stroke="midnightblue" d="M675.96,-530.27C694.27,-529.99 715.86,-529.66 736.77,-529.33"/>
<polygon fill="midnightblue" stroke="midnightblue" points="737.02,-532.83 746.96,-529.18 736.91,-525.83 737.02,-532.83"/>
</g>
<!-- Node19&#45;&gt;Node2 -->
<g id="edge49" class="edge">
<title>Node19&#45;&gt;Node2</title>
<path fill="none" stroke="midnightblue" d="M839.4,-587.26C857.1,-606.81 886.87,-642.43 904,-678 959.35,-792.9 984.13,-946.51 991.51,-1000.36"/>
<polygon fill="midnightblue" stroke="midnightblue" points="988.04,-1000.83 992.83,-1010.29 994.98,-999.91 988.04,-1000.83"/>
</g>
<!-- Node19&#45;&gt;Node5 -->
<g id="edge50" class="edge">
<title>Node19&#45;&gt;Node5</title>
<path fill="none" stroke="midnightblue" d="M882.69,-556.98C903.87,-551.46 927.57,-545.3 947.63,-540.07"/>
<polygon fill="midnightblue" stroke="midnightblue" points="948.67,-543.42 957.46,-537.51 946.9,-536.64 948.67,-543.42"/>
</g>
<!-- Node20&#45;&gt;Node2 -->
<g id="edge52" class="edge">
<title>Node20&#45;&gt;Node2</title>
<path fill="none" stroke="midnightblue" d="M890.15,-537.69C895.29,-540.4 900.02,-543.78 904,-548 967.25,-615.13 988.38,-918.45 992.97,-999.85"/>
<polygon fill="midnightblue" stroke="midnightblue" points="989.49,-1000.39 993.52,-1010.19 996.48,-1000.02 989.49,-1000.39"/>
</g>
<!-- Node20&#45;&gt;Node5 -->
<g id="edge53" class="edge">
<title>Node20&#45;&gt;Node5</title>
<path fill="none" stroke="midnightblue" d="M901.1,-528C910.52,-528 920.08,-528 929.31,-528"/>
<polygon fill="midnightblue" stroke="midnightblue" points="929.56,-531.5 939.56,-528 929.56,-524.5 929.56,-531.5"/>
</g>
<!-- Node21&#45;&gt;Node2 -->
<g id="edge56" class="edge">
<title>Node21&#45;&gt;Node2</title>
<path fill="none" stroke="midnightblue" d="M685.04,-578.54C693.52,-581.98 701.57,-586.66 708,-593 745.52,-630.02 705.99,-669.48 744,-706 797.18,-757.1 850.48,-699.26 904,-750 977.52,-819.7 991.01,-950.94 993.46,-1000.44"/>
<polygon fill="midnightblue" stroke="midnightblue" points="989.96,-1000.6 993.86,-1010.45 996.96,-1000.32 989.96,-1000.6"/>
</g>
<!-- Node21&#45;&gt;Node5 -->
<g id="edge59" class="edge">
<title>Node21&#45;&gt;Node5</title>
<path fill="none" stroke="midnightblue" d="M693.33,-559.33C698.64,-556.86 703.63,-553.79 708,-550 740.84,-521.48 708.03,-483.45 744,-459 802.81,-419.02 836.66,-436.16 904,-459 934.12,-469.22 962.07,-494.02 978.59,-510.93"/>
<polygon fill="midnightblue" stroke="midnightblue" points="976.33,-513.63 985.74,-518.5 981.42,-508.83 976.33,-513.63"/>
</g>
<!-- Node21&#45;&gt;Node19 -->
<g id="edge57" class="edge">
<title>Node21&#45;&gt;Node19</title>
<path fill="none" stroke="midnightblue" d="M708.19,-570.22C720.38,-570.41 732.97,-570.61 745.14,-570.8"/>
<polygon fill="midnightblue" stroke="midnightblue" points="745.19,-574.3 755.24,-570.95 745.29,-567.3 745.19,-574.3"/>
</g>
<!-- Node21&#45;&gt;Node20 -->
<g id="edge58" class="edge">
<title>Node21&#45;&gt;Node20</title>
<path fill="none" stroke="midnightblue" d="M674,-559.49C702.05,-553.56 738.35,-545.89 768.1,-539.6"/>
<polygon fill="midnightblue" stroke="midnightblue" points="768.85,-543.02 777.91,-537.53 767.41,-536.17 768.85,-543.02"/>
</g>
<!-- Node23&#45;&gt;Node2 -->
<g id="edge62" class="edge">
<title>Node23&#45;&gt;Node2</title>
<path fill="none" stroke="midnightblue" d="M441.65,-1219.55C449.37,-1251.33 479,-1353.69 548,-1393 686.3,-1471.78 787.76,-1462.73 904,-1354 951.06,-1309.98 982.47,-1105.03 991.39,-1039.91"/>
<polygon fill="midnightblue" stroke="midnightblue" points="994.9,-1040.14 992.76,-1029.76 987.96,-1039.21 994.9,-1040.14"/>
</g>
<!-- Node23&#45;&gt;Node5 -->
<g id="edge74" class="edge">
<title>Node23&#45;&gt;Node5</title>
<path fill="none" stroke="midnightblue" d="M442.14,-1200.31C452.67,-1161.34 492.03,-1012.14 512,-887 525.19,-804.33 505.83,-584.32 548,-512 591.72,-437.01 649.27,-463.92 708,-400 729.56,-376.54 716.39,-353.9 744,-338 805.63,-302.52 843.91,-299.97 904,-338 964.61,-376.36 985.2,-467.79 991.5,-508.21"/>
<polygon fill="midnightblue" stroke="midnightblue" points="988.04,-508.76 992.92,-518.17 994.97,-507.78 988.04,-508.76"/>
</g>
<!-- Node23&#45;&gt;Node11 -->
<g id="edge75" class="edge">
<title>Node23&#45;&gt;Node11</title>
<path fill="none" stroke="midnightblue" d="M509.84,-1210C578.84,-1210 683.49,-1210 752.53,-1210"/>
<polygon fill="midnightblue" stroke="midnightblue" points="752.88,-1213.5 762.88,-1210 752.88,-1206.5 752.88,-1213.5"/>
</g>
<!-- Node24 -->
<g id="node24" class="node">
<title>Node24</title>
<g id="a_node24"><a xlink:href="class_t_utilities.html#a2dfbe3d4ed11770bc1a902b51afdc10c" target="_top" xlink:title="formats a TDateTime into an AnsiString of the form hh:mm:ss where hh runs from 00 to 95 &amp; resets when...">
<polygon fill="white" stroke="black" points="555.5,-1364.5 555.5,-1383.5 700.5,-1383.5 700.5,-1364.5 555.5,-1364.5"/>
<text text-anchor="middle" x="628" y="-1371.5" font-family="Helvetica,sans-Serif" font-size="10.00">TUtilities::Format96HHMMSS</text>
</a>
</g>
</g>
<!-- Node23&#45;&gt;Node24 -->
<g id="edge63" class="edge">
<title>Node23&#45;&gt;Node24</title>
<path fill="none" stroke="midnightblue" d="M444.33,-1219.82C457.37,-1245.31 495.83,-1314.06 548,-1350 554.39,-1354.4 561.61,-1358.02 569.03,-1360.98"/>
<polygon fill="midnightblue" stroke="midnightblue" points="567.88,-1364.28 578.47,-1364.39 570.26,-1357.7 567.88,-1364.28"/>
</g>
<!-- Node25 -->
<g id="node25" class="node">
<title>Node25</title>
<g id="a_node25"><a xlink:href="class_t_all_routes.html#a0a9ccbc84687f85806115877aa86dcfd" target="_top" xlink:title="Examines Route2MultiMap and if the element at TrackVectorPosition with LinkPos (can be entry or exit)...">
<polygon fill="white" stroke="black" points="562,-1239 562,-1269 694,-1269 694,-1239 562,-1239"/>
<text text-anchor="start" x="570" y="-1257" font-family="Helvetica,sans-Serif" font-size="10.00">TAllRoutes::GetRouteType</text>
<text text-anchor="middle" x="628" y="-1246" font-family="Helvetica,sans-Serif" font-size="10.00">AndNumber</text>
</a>
</g>
</g>
<!-- Node23&#45;&gt;Node25 -->
<g id="edge64" class="edge">
<title>Node23&#45;&gt;Node25</title>
<path fill="none" stroke="midnightblue" d="M480.18,-1219.55C501.48,-1224.55 528.23,-1230.82 553.04,-1236.64"/>
<polygon fill="midnightblue" stroke="midnightblue" points="552.27,-1240.06 562.8,-1238.93 553.87,-1233.24 552.27,-1240.06"/>
</g>
<!-- Node26 -->
<g id="node26" class="node">
<title>Node26</title>
<g id="a_node26"><a xlink:href="class_t_perf_log_form.html#a72f06bf03353c15c94ceefbf420ff7b4" target="_top" xlink:title="Send Statement to the performance log on screen and to the file.">
<polygon fill="white" stroke="black" points="747,-1162.5 747,-1181.5 901,-1181.5 901,-1162.5 747,-1162.5"/>
<text text-anchor="middle" x="824" y="-1169.5" font-family="Helvetica,sans-Serif" font-size="10.00">TPerfLogForm::PerformanceLog</text>
</a>
</g>
</g>
<!-- Node23&#45;&gt;Node26 -->
<g id="edge68" class="edge">
<title>Node23&#45;&gt;Node26</title>
<path fill="none" stroke="midnightblue" d="M509.84,-1203.03C573.7,-1196.7 668.09,-1187.35 736.54,-1180.57"/>
<polygon fill="midnightblue" stroke="midnightblue" points="737.26,-1184.01 746.86,-1179.54 736.57,-1177.05 737.26,-1184.01"/>
</g>
<!-- Node23&#45;&gt;Node27 -->
<g id="edge71" class="edge">
<title>Node23&#45;&gt;Node27</title>
<path fill="none" stroke="midnightblue" d="M441.35,-1200.33C452.03,-1145.08 506.7,-869.24 548,-794 561.37,-769.65 583.25,-746.87 600.6,-731.04"/>
<polygon fill="midnightblue" stroke="midnightblue" points="603.06,-733.53 608.21,-724.27 598.41,-728.3 603.06,-733.53"/>
</g>
<!-- Node28 -->
<g id="node28" class="node">
<title>Node28</title>
<g id="a_node28"><a xlink:href="class_t_display.html#a604d491a723df459bdcd54a4b9d1d9f2" target="_top" xlink:title="Display warning message Statement in the bottom left hand warning position and scroll other messages ...">
<polygon fill="white" stroke="black" points="768,-1276.5 768,-1295.5 880,-1295.5 880,-1276.5 768,-1276.5"/>
<text text-anchor="middle" x="824" y="-1283.5" font-family="Helvetica,sans-Serif" font-size="10.00">TDisplay::WarningLog</text>
</a>
</g>
</g>
<!-- Node23&#45;&gt;Node28 -->
<g id="edge76" class="edge">
<title>Node23&#45;&gt;Node28</title>
<path fill="none" stroke="midnightblue" d="M450.2,-1219.68C468.58,-1235.62 508.07,-1266.83 548,-1279 617.24,-1300.11 700.89,-1298.68 757.61,-1294"/>
<polygon fill="midnightblue" stroke="midnightblue" points="758.23,-1297.45 767.88,-1293.09 757.61,-1290.48 758.23,-1297.45"/>
</g>
<!-- Node25&#45;&gt;Node2 -->
<g id="edge65" class="edge">
<title>Node25&#45;&gt;Node2</title>
<path fill="none" stroke="midnightblue" d="M672.59,-1269.08C684.26,-1273.51 696.75,-1278.63 708,-1284 724.72,-1291.98 726.12,-1300.17 744,-1305 812.65,-1323.56 846.64,-1347.04 904,-1305 948.33,-1272.51 980.92,-1098.63 990.85,-1039.61"/>
<polygon fill="midnightblue" stroke="midnightblue" points="994.31,-1040.14 992.48,-1029.7 987.4,-1039 994.31,-1040.14"/>
</g>
<!-- Node25&#45;&gt;Node5 -->
<g id="edge66" class="edge">
<title>Node25&#45;&gt;Node5</title>
<path fill="none" stroke="midnightblue" d="M694.19,-1257.08C765.96,-1258.97 875.05,-1256.9 904,-1229 916.71,-1216.76 979.28,-660.2 991.81,-547.7"/>
<polygon fill="midnightblue" stroke="midnightblue" points="995.3,-548.05 992.92,-537.72 988.34,-547.27 995.3,-548.05"/>
</g>
<!-- Node25&#45;&gt;Node11 -->
<g id="edge67" class="edge">
<title>Node25&#45;&gt;Node11</title>
<path fill="none" stroke="midnightblue" d="M694.14,-1239.23C719.18,-1233.55 747.41,-1227.14 771.05,-1221.78"/>
<polygon fill="midnightblue" stroke="midnightblue" points="771.9,-1225.18 780.88,-1219.55 770.35,-1218.35 771.9,-1225.18"/>
</g>
<!-- Node26&#45;&gt;Node2 -->
<g id="edge69" class="edge">
<title>Node26&#45;&gt;Node2</title>
<path fill="none" stroke="midnightblue" d="M874.57,-1162.43C884.9,-1158.97 895.29,-1154.3 904,-1148 943.98,-1119.06 972.55,-1066.73 985.76,-1038.78"/>
<polygon fill="midnightblue" stroke="midnightblue" points="988.95,-1040.23 989.93,-1029.68 982.58,-1037.31 988.95,-1040.23"/>
</g>
<!-- Node26&#45;&gt;Node5 -->
<g id="edge70" class="edge">
<title>Node26&#45;&gt;Node5</title>
<path fill="none" stroke="midnightblue" d="M830.51,-1162.32C844.81,-1136.78 883.42,-1065.15 904,-1001 958.8,-830.17 984.97,-613.34 992,-547.7"/>
<polygon fill="midnightblue" stroke="midnightblue" points="995.5,-547.86 993.06,-537.55 988.54,-547.13 995.5,-547.86"/>
</g>
<!-- Node27&#45;&gt;Node2 -->
<g id="edge72" class="edge">
<title>Node27&#45;&gt;Node2</title>
<path fill="none" stroke="midnightblue" d="M643.51,-724.14C659.55,-740.97 686.01,-769.07 708,-794 724.49,-812.69 722.6,-824.22 744,-837 806.33,-874.24 844.77,-828 904,-870 950.52,-902.99 977.21,-968.29 988.14,-1000.75"/>
<polygon fill="midnightblue" stroke="midnightblue" points="984.85,-1001.95 991.25,-1010.4 991.52,-999.81 984.85,-1001.95"/>
</g>
<!-- Node27&#45;&gt;Node5 -->
<g id="edge73" class="edge">
<title>Node27&#45;&gt;Node5</title>
<path fill="none" stroke="midnightblue" d="M650.09,-693.88C672.45,-678.46 709.28,-654.74 744,-640 811.78,-611.22 837.96,-629.58 904,-597 931.92,-583.23 959.69,-560.14 976.84,-544.51"/>
<polygon fill="midnightblue" stroke="midnightblue" points="979.42,-546.88 984.36,-537.5 974.65,-541.75 979.42,-546.88"/>
</g>
<!-- Node28&#45;&gt;Node2 -->
<g id="edge77" class="edge">
<title>Node28&#45;&gt;Node2</title>
<path fill="none" stroke="midnightblue" d="M880.38,-1276.36C889.04,-1272.93 897.32,-1268.29 904,-1262 969.62,-1200.28 987.68,-1086.32 992.41,-1040.18"/>
<polygon fill="midnightblue" stroke="midnightblue" points="995.91,-1040.27 993.34,-1029.99 988.94,-1039.63 995.91,-1040.27"/>
</g>
<!-- Node28&#45;&gt;Node5 -->
<g id="edge78" class="edge">
<title>Node28&#45;&gt;Node5</title>
<path fill="none" stroke="midnightblue" d="M880.09,-1278.25C889.21,-1274.65 897.73,-1269.46 904,-1262 909.96,-1254.91 978.33,-663.93 991.73,-547.71"/>
<polygon fill="midnightblue" stroke="midnightblue" points="995.21,-548.05 992.88,-537.72 988.26,-547.25 995.21,-548.05"/>
</g>
</g>
</svg>
