<?xml version="1.0" encoding="UTF-8" standalone="no"?>
<!DOCTYPE svg PUBLIC "-//W3C//DTD SVG 1.1//EN"
 "http://www.w3.org/Graphics/SVG/1.1/DTD/svg11.dtd">
<!-- Generated by graphviz version 2.44.1 (20200629.0800)
 -->
<!-- Title: TTrack::InactiveMapCheck Pages: 1 -->
<!--zoomable 121 -->
<svg id="main" version="1.1" xmlns="http://www.w3.org/2000/svg" xmlns:xlink="http://www.w3.org/1999/xlink" xml:space="preserve" onload="init(evt)">
<style type="text/css"><![CDATA[
.edge:hover path { stroke: red; }
.edge:hover polygon { stroke: red; fill: red; }
]]></style>
<script type="text/javascript"><![CDATA[
var edges = document.getElementsByTagName('g');
if (edges && edges.length) {
  for (var i=0;i<edges.length;i++) {
    if (edges[i].id.substr(0,4)=='edge') {
      edges[i].setAttribute('class','edge');
    }
  }
}
]]></script>
        <defs>
                <circle id="rim" cx="0" cy="0" r="7"/>
                <circle id="rim2" cx="0" cy="0" r="3.5"/>
                <g id="zoomPlus">
                        <use xlink:href="#rim" fill="#404040">
                                <set attributeName="fill" to="#808080" begin="zoomplus.mouseover" end="zoomplus.mouseout"/>
                        </use>
                        <path d="M-4,0h8M0,-4v8" fill="none" stroke="white" stroke-width="1.5" pointer-events="none"/>
                </g>
                <g id="zoomMin">
                        <use xlink:href="#rim" fill="#404040">
                                <set attributeName="fill" to="#808080" begin="zoomminus.mouseover" end="zoomminus.mouseout"/>
                        </use>
                        <path d="M-4,0h8" fill="none" stroke="white" stroke-width="1.5" pointer-events="none"/>
                </g>
                <g id="dirArrow">
                        <path fill="none" stroke="white" stroke-width="1.5" d="M0,-3.0v7 M-2.5,-0.5L0,-3.0L2.5,-0.5"/>
                </g>
               <g id="resetDef">
                       <use xlink:href="#rim2" fill="#404040">
                               <set attributeName="fill" to="#808080" begin="reset.mouseover" end="reset.mouseout"/>
                       </use>
               </g>
        </defs>

<script type="text/javascript">
var viewWidth = 1537;
var viewHeight = 121;
var sectionId = 'dynsection-99';
</script>
<script xlink:href="svgpan.js"/>
<svg id="graph" class="graph">
<g id="viewport">
<title>TTrack::InactiveMapCheck</title>
<polygon fill="white" stroke="transparent" points="-4,4 -4,-117 1533,-117 1533,4 -4,4"/>
<!-- Node1 -->
<g id="node1" class="node">
<title>Node1</title>
<g id="a_node1"><a xlink:title="Used to check the validity of footcrossing links.">
<polygon fill="#bfbfbf" stroke="black" points="1398,-47 1398,-66 1529,-66 1529,-47 1398,-47"/>
<text text-anchor="middle" x="1463.5" y="-54" font-family="Helvetica,sans-Serif" font-size="10.00">TTrack::InactiveMapCheck</text>
</a>
</g>
</g>
<!-- Node2 -->
<g id="node2" class="node">
<title>Node2</title>
<g id="a_node2"><a xlink:href="class_t_track.html#ab79158ff07bc54986fbaa34df0d7f2b2" target="_top" xlink:title="True if a footcrossing is linked properly at both ends.">
<polygon fill="white" stroke="black" points="1225,-41.5 1225,-71.5 1362,-71.5 1362,-41.5 1225,-41.5"/>
<text text-anchor="start" x="1233" y="-59.5" font-family="Helvetica,sans-Serif" font-size="10.00">TTrack::CheckFootCrossing</text>
<text text-anchor="middle" x="1293.5" y="-48.5" font-family="Helvetica,sans-Serif" font-size="10.00">Links</text>
</a>
</g>
</g>
<!-- Node1&#45;&gt;Node2 -->
<g id="edge1" class="edge">
<title>Node1&#45;&gt;Node2</title>
<path fill="none" stroke="midnightblue" d="M1387.35,-56.5C1378.93,-56.5 1370.38,-56.5 1362.06,-56.5"/>
<polygon fill="midnightblue" stroke="midnightblue" points="1387.55,-60 1397.55,-56.5 1387.55,-53 1387.55,-60"/>
</g>
<!-- Node3 -->
<g id="node3" class="node">
<title>Node3</title>
<g id="a_node3"><a xlink:href="class_t_track.html#ac0c7fcb151e24dd265a94136db9b6a58" target="_top" xlink:title="True if track has been successfully linked (not used any more)">
<polygon fill="white" stroke="black" points="1057.5,-85 1057.5,-104 1169.5,-104 1169.5,-85 1057.5,-85"/>
<text text-anchor="middle" x="1113.5" y="-92" font-family="Helvetica,sans-Serif" font-size="10.00">TTrack::IsTrackLinked</text>
</a>
</g>
</g>
<!-- Node2&#45;&gt;Node3 -->
<g id="edge2" class="edge">
<title>Node2&#45;&gt;Node3</title>
<path fill="none" stroke="midnightblue" d="M1215.04,-73.04C1195.92,-77.12 1176.07,-81.36 1159.12,-84.98"/>
<polygon fill="midnightblue" stroke="midnightblue" points="1215.9,-76.43 1224.95,-70.92 1214.44,-69.59 1215.9,-76.43"/>
</g>
<!-- Node4 -->
<g id="node4" class="node">
<title>Node4</title>
<g id="a_node4"><a xlink:href="class_t_track.html#a17b6095b0c8de0e1493eeebd6d534247" target="_top" xlink:title="Attempt to link the track and return true if successful, if unsuccessful return error flag and positi...">
<polygon fill="white" stroke="black" points="1066.5,-47 1066.5,-66 1160.5,-66 1160.5,-47 1066.5,-47"/>
<text text-anchor="middle" x="1113.5" y="-54" font-family="Helvetica,sans-Serif" font-size="10.00">TTrack::LinkTrack</text>
</a>
</g>
</g>
<!-- Node2&#45;&gt;Node4 -->
<g id="edge3" class="edge">
<title>Node2&#45;&gt;Node4</title>
<path fill="none" stroke="midnightblue" d="M1214.79,-56.5C1196.35,-56.5 1177.25,-56.5 1160.72,-56.5"/>
<polygon fill="midnightblue" stroke="midnightblue" points="1214.95,-60 1224.95,-56.5 1214.95,-53 1214.95,-60"/>
</g>
<!-- Node14 -->
<g id="node14" class="node">
<title>Node14</title>
<g id="a_node14"><a xlink:href="class_t_track.html#a42f410832651458a4a34769ef95be51b" target="_top" xlink:title="Attempt to link the track and return true if successful, don&#39;t issue any screen messages....">
<polygon fill="white" stroke="black" points="1038,-9 1038,-28 1189,-28 1189,-9 1038,-9"/>
<text text-anchor="middle" x="1113.5" y="-16" font-family="Helvetica,sans-Serif" font-size="10.00">TTrack::LinkTrackNoMessages</text>
</a>
</g>
</g>
<!-- Node2&#45;&gt;Node14 -->
<g id="edge14" class="edge">
<title>Node2&#45;&gt;Node14</title>
<path fill="none" stroke="midnightblue" d="M1215.04,-39.96C1195.92,-35.88 1176.07,-31.64 1159.12,-28.02"/>
<polygon fill="midnightblue" stroke="midnightblue" points="1214.44,-43.41 1224.95,-42.08 1215.9,-36.57 1214.44,-43.41"/>
</g>
<!-- Node5 -->
<g id="node5" class="node">
<title>Node5</title>
<g id="a_node5"><a xlink:href="class_t_track.html#ac1dc75f1df6278c62f13e23469b80982" target="_top" xlink:title="Handles all tasks associated with track linking, returns true if successful (see also LinkTrack &amp; Lin...">
<polygon fill="white" stroke="black" points="866,-28 866,-47 1002,-47 1002,-28 866,-28"/>
<text text-anchor="middle" x="934" y="-35" font-family="Helvetica,sans-Serif" font-size="10.00">TTrack::TryToConnectTrack</text>
</a>
</g>
</g>
<!-- Node4&#45;&gt;Node5 -->
<g id="edge4" class="edge">
<title>Node4&#45;&gt;Node5</title>
<path fill="none" stroke="midnightblue" d="M1055.97,-50.45C1038.92,-48.62 1020.02,-46.6 1002.34,-44.71"/>
<polygon fill="midnightblue" stroke="midnightblue" points="1056.01,-53.97 1066.33,-51.56 1056.76,-47.01 1056.01,-53.97"/>
</g>
<!-- Node6 -->
<g id="node6" class="node">
<title>Node6</title>
<g id="a_node6"><a xlink:href="class_t_track.html#a09140dd23c45ccd541f056c3dd257c13" target="_top" xlink:title="Load track elements (active &amp; inactive) from the file into the relevant vectors and maps,...">
<polygon fill="white" stroke="black" points="716,-50 716,-69 813,-69 813,-50 716,-50"/>
<text text-anchor="middle" x="764.5" y="-57" font-family="Helvetica,sans-Serif" font-size="10.00">TTrack::LoadTrack</text>
</a>
</g>
</g>
<!-- Node5&#45;&gt;Node6 -->
<g id="edge5" class="edge">
<title>Node5&#45;&gt;Node6</title>
<path fill="none" stroke="midnightblue" d="M855.82,-47.64C841.25,-49.55 826.42,-51.5 813.1,-53.25"/>
<polygon fill="midnightblue" stroke="midnightblue" points="856.38,-51.09 865.84,-46.32 855.47,-44.15 856.38,-51.09"/>
</g>
<!-- Node13 -->
<g id="node13" class="node">
<title>Node13</title>
<g id="a_node13"><a xlink:href="class_t_interface.html#aab42b12ff3ba43ad2f70994b5399dd90" target="_top" xlink:title=" ">
<polygon fill="white" stroke="black" points="699,-0.5 699,-30.5 830,-30.5 830,-0.5 699,-0.5"/>
<text text-anchor="start" x="707" y="-18.5" font-family="Helvetica,sans-Serif" font-size="10.00">TInterface::TrackOKButton</text>
<text text-anchor="middle" x="764.5" y="-7.5" font-family="Helvetica,sans-Serif" font-size="10.00">Click</text>
</a>
</g>
</g>
<!-- Node5&#45;&gt;Node13 -->
<g id="edge13" class="edge">
<title>Node5&#45;&gt;Node13</title>
<path fill="none" stroke="midnightblue" d="M855.84,-27.37C847.28,-26.24 838.62,-25.1 830.23,-24"/>
<polygon fill="midnightblue" stroke="midnightblue" points="855.47,-30.85 865.84,-28.68 856.38,-23.91 855.47,-30.85"/>
</g>
<!-- Node7 -->
<g id="node7" class="node">
<title>Node7</title>
<g id="a_node7"><a xlink:href="class_t_interface.html#a95c3545a30171ca5a08e34c58160079c" target="_top" xlink:title="Load a railway file. The Active elements marker now has a &#39;1&#39; at the end if there are user graphics t...">
<polygon fill="white" stroke="black" points="528.5,-88 528.5,-107 647.5,-107 647.5,-88 528.5,-88"/>
<text text-anchor="middle" x="588" y="-95" font-family="Helvetica,sans-Serif" font-size="10.00">TInterface::LoadRailway</text>
</a>
</g>
</g>
<!-- Node6&#45;&gt;Node7 -->
<g id="edge6" class="edge">
<title>Node6&#45;&gt;Node7</title>
<path fill="none" stroke="midnightblue" d="M709.53,-71.25C684.86,-76.63 656.01,-82.91 632.72,-87.98"/>
<polygon fill="midnightblue" stroke="midnightblue" points="710.44,-74.64 719.47,-69.09 708.95,-67.8 710.44,-74.64"/>
</g>
<!-- Node9 -->
<g id="node9" class="node">
<title>Node9</title>
<g id="a_node9"><a xlink:href="class_t_interface.html#a636b1b4bd29f2678a3290ed2d282f1c2" target="_top" xlink:title="Load a session file.">
<polygon fill="white" stroke="black" points="345,-25 345,-44 466,-44 466,-25 345,-25"/>
<text text-anchor="middle" x="405.5" y="-32" font-family="Helvetica,sans-Serif" font-size="10.00">TInterface::LoadSession</text>
</a>
</g>
</g>
<!-- Node6&#45;&gt;Node9 -->
<g id="edge8" class="edge">
<title>Node6&#45;&gt;Node9</title>
<path fill="none" stroke="midnightblue" d="M705.52,-55.44C639.66,-50.83 532.74,-43.34 466.18,-38.68"/>
<polygon fill="midnightblue" stroke="midnightblue" points="705.5,-58.95 715.72,-56.15 705.99,-51.96 705.5,-58.95"/>
</g>
<!-- Node12 -->
<g id="node12" class="node">
<title>Node12</title>
<g id="a_node12"><a xlink:href="class_t_interface.html#a3904f26b67b9512507960187b37b6f7b" target="_top" xlink:title="Checks session file integrity prior to loading, true for success.">
<polygon fill="white" stroke="black" points="513,-0.5 513,-30.5 663,-30.5 663,-0.5 513,-0.5"/>
<text text-anchor="start" x="521" y="-18.5" font-family="Helvetica,sans-Serif" font-size="10.00">TInterface::SessionFileIntegrity</text>
<text text-anchor="middle" x="588" y="-7.5" font-family="Helvetica,sans-Serif" font-size="10.00">Check</text>
</a>
</g>
</g>
<!-- Node6&#45;&gt;Node12 -->
<g id="edge11" class="edge">
<title>Node6&#45;&gt;Node12</title>
<path fill="none" stroke="midnightblue" d="M715.81,-47.47C695.11,-42.25 670.64,-36.09 648.75,-30.57"/>
<polygon fill="midnightblue" stroke="midnightblue" points="715.08,-50.9 725.64,-49.95 716.8,-44.11 715.08,-50.9"/>
</g>
<!-- Node8 -->
<g id="node8" class="node">
<title>Node8</title>
<g id="a_node8"><a xlink:href="class_t_interface.html#a96249c7622a9d55541de186483e04d2e" target="_top" xlink:title=" ">
<polygon fill="white" stroke="black" points="334,-82.5 334,-112.5 477,-112.5 477,-82.5 334,-82.5"/>
<text text-anchor="start" x="342" y="-100.5" font-family="Helvetica,sans-Serif" font-size="10.00">TInterface::LoadRailwayMenu</text>
<text text-anchor="middle" x="405.5" y="-89.5" font-family="Helvetica,sans-Serif" font-size="10.00">ItemClick</text>
</a>
</g>
</g>
<!-- Node7&#45;&gt;Node8 -->
<g id="edge7" class="edge">
<title>Node7&#45;&gt;Node8</title>
<path fill="none" stroke="midnightblue" d="M518.25,-97.5C504.77,-97.5 490.62,-97.5 477.09,-97.5"/>
<polygon fill="midnightblue" stroke="midnightblue" points="518.4,-101 528.4,-97.5 518.4,-94 518.4,-101"/>
</g>
<!-- Node10 -->
<g id="node10" class="node">
<title>Node10</title>
<g id="a_node10"><a xlink:href="class_t_interface.html#a6139ffb52492eb89e5487a8a3cd647b5" target="_top" xlink:title="The main loop, called every clock tick via MasterClockTimer.">
<polygon fill="white" stroke="black" points="179,-25 179,-44 298,-44 298,-25 179,-25"/>
<text text-anchor="middle" x="238.5" y="-32" font-family="Helvetica,sans-Serif" font-size="10.00">TInterface::ClockTimer2</text>
</a>
</g>
</g>
<!-- Node9&#45;&gt;Node10 -->
<g id="edge9" class="edge">
<title>Node9&#45;&gt;Node10</title>
<path fill="none" stroke="midnightblue" d="M334.8,-34.5C322.6,-34.5 310.01,-34.5 298.15,-34.5"/>
<polygon fill="midnightblue" stroke="midnightblue" points="334.93,-38 344.93,-34.5 334.93,-31 334.93,-38"/>
</g>
<!-- Node11 -->
<g id="node11" class="node">
<title>Node11</title>
<g id="a_node11"><a xlink:href="class_t_interface.html#ace30a12d923fc7fb489afabb0a09aa4f" target="_top" xlink:title=" ">
<polygon fill="white" stroke="black" points="0,-25 0,-44 143,-44 143,-25 0,-25"/>
<text text-anchor="middle" x="71.5" y="-32" font-family="Helvetica,sans-Serif" font-size="10.00">TInterface::MasterClockTimer</text>
</a>
</g>
</g>
<!-- Node10&#45;&gt;Node11 -->
<g id="edge10" class="edge">
<title>Node10&#45;&gt;Node11</title>
<path fill="none" stroke="midnightblue" d="M168.67,-34.5C160.22,-34.5 151.57,-34.5 143.09,-34.5"/>
<polygon fill="midnightblue" stroke="midnightblue" points="168.86,-38 178.86,-34.5 168.86,-31 168.86,-38"/>
</g>
<!-- Node12&#45;&gt;Node9 -->
<g id="edge12" class="edge">
<title>Node12&#45;&gt;Node9</title>
<path fill="none" stroke="midnightblue" d="M502.52,-24.39C490.21,-25.69 477.76,-27 466.09,-28.23"/>
<polygon fill="midnightblue" stroke="midnightblue" points="503.22,-27.84 512.8,-23.31 502.49,-20.88 503.22,-27.84"/>
</g>
<!-- Node14&#45;&gt;Node5 -->
<g id="edge15" class="edge">
<title>Node14&#45;&gt;Node5</title>
<path fill="none" stroke="midnightblue" d="M1027.93,-27.55C1019.31,-28.48 1010.64,-29.4 1002.25,-30.3"/>
<polygon fill="midnightblue" stroke="midnightblue" points="1028.42,-31.02 1038,-26.48 1027.68,-24.06 1028.42,-31.02"/>
</g>
</g>
</svg>
        <g id="navigator" transform="translate(0 0)" fill="#404254">
                <rect fill="#f2f5e9" fill-opacity="0.5" stroke="#606060" stroke-width=".5" x="0" y="0" width="60" height="60"/>
                <use id="zoomplus" xlink:href="#zoomPlus" x="17" y="9" onmousedown="handleZoom(evt,'in')"/>
                <use id="zoomminus" xlink:href="#zoomMin" x="42" y="9" onmousedown="handleZoom(evt,'out')"/>
                <use id="reset" xlink:href="#resetDef" x="30" y="36" onmousedown="handleReset()"/>
                <g id="arrowUp" xlink:href="#dirArrow" transform="translate(30 24)" onmousedown="handlePan(0,-1)">
                  <use xlink:href="#rim" fill="#404040">
                        <set attributeName="fill" to="#808080" begin="arrowUp.mouseover" end="arrowUp.mouseout"/>
                  </use>
                  <path fill="none" stroke="white" stroke-width="1.5" d="M0,-3.0v7 M-2.5,-0.5L0,-3.0L2.5,-0.5"/>
                </g>
                <g id="arrowRight" xlink:href="#dirArrow" transform="rotate(90) translate(36 -43)" onmousedown="handlePan(1,0)">
                  <use xlink:href="#rim" fill="#404040">
                        <set attributeName="fill" to="#808080" begin="arrowRight.mouseover" end="arrowRight.mouseout"/>
                  </use>
                  <path fill="none" stroke="white" stroke-width="1.5" d="M0,-3.0v7 M-2.5,-0.5L0,-3.0L2.5,-0.5"/>
                </g>
                <g id="arrowDown" xlink:href="#dirArrow" transform="rotate(180) translate(-30 -48)" onmousedown="handlePan(0,1)">
                  <use xlink:href="#rim" fill="#404040">
                        <set attributeName="fill" to="#808080" begin="arrowDown.mouseover" end="arrowDown.mouseout"/>
                  </use>
                  <path fill="none" stroke="white" stroke-width="1.5" d="M0,-3.0v7 M-2.5,-0.5L0,-3.0L2.5,-0.5"/>
                </g>
                <g id="arrowLeft" xlink:href="#dirArrow" transform="rotate(270) translate(-36 17)" onmousedown="handlePan(-1,0)">
                  <use xlink:href="#rim" fill="#404040">
                        <set attributeName="fill" to="#808080" begin="arrowLeft.mouseover" end="arrowLeft.mouseout"/>
                  </use>
                  <path fill="none" stroke="white" stroke-width="1.5" d="M0,-3.0v7 M-2.5,-0.5L0,-3.0L2.5,-0.5"/>
                </g>
        </g>
        <svg viewBox="0 0 15 15" width="100%" height="30px" preserveAspectRatio="xMaxYMin meet">
         <g id="arrow_out" transform="scale(0.3 0.3)">
          <a xlink:href="class_t_track_a23030c22d4c98706d1738205242646d9_icgraph_org.svg" target="_base">
           <rect id="button" ry="5" rx="5" y="6" x="6" height="38" width="38"
                fill="#f2f5e9" fill-opacity="0.5" stroke="#606060" stroke-width="1.0"/>
           <path id="arrow"
             d="M 11.500037,31.436501 C 11.940474,20.09759 22.043105,11.32322 32.158766,21.979434 L 37.068811,17.246167 C 37.068811,17.246167 37.088388,32 37.088388,32 L 22.160133,31.978069 C 22.160133,31.978069 26.997745,27.140456 26.997745,27.140456 C 18.528582,18.264221 13.291696,25.230495 11.500037,31.436501 z"
             style="fill:#404040;"/>
          </a>
         </g>
        </svg>
</svg>
