<?xml version="1.0" encoding="UTF-8" standalone="no"?>
<!DOCTYPE svg PUBLIC "-//W3C//DTD SVG 1.1//EN"
 "http://www.w3.org/Graphics/SVG/1.1/DTD/svg11.dtd">
<!-- Generated by graphviz version 2.44.1 (20200629.0800)
 -->
<!-- Title: TDisplay::PlotSmallOutput Pages: 1 -->
<svg width="1052pt" height="592pt"
 viewBox="0.00 0.00 1052.00 591.50" xmlns="http://www.w3.org/2000/svg" xmlns:xlink="http://www.w3.org/1999/xlink">
<g id="graph0" class="graph" transform="scale(1 1) rotate(0) translate(4 587.5)">
<title>TDisplay::PlotSmallOutput</title>
<polygon fill="white" stroke="transparent" points="-4,4 -4,-587.5 1048,-587.5 1048,4 -4,4"/>
<!-- Node1 -->
<g id="node1" class="node">
<title>Node1</title>
<g id="a_node1"><a xlink:title="Plot small (4x4) graphic PlotItem on the zoomed&#45;out display at HPos &amp; Vpos.">
<polygon fill="#bfbfbf" stroke="black" points="913,-294 913,-313 1044,-313 1044,-294 913,-294"/>
<text text-anchor="middle" x="978.5" y="-301" font-family="Helvetica,sans-Serif" font-size="10.00">TDisplay::PlotSmallOutput</text>
</a>
</g>
</g>
<!-- Node2 -->
<g id="node2" class="node">
<title>Node2</title>
<g id="a_node2"><a xlink:href="class_t_interface.html#a7e6535742855a19cb3e35b1711a7ab59" target="_top" xlink:title="Deal with any warning graphics that need to flash (call on, signal stop, crash etc),...">
<polygon fill="white" stroke="black" points="339,-564 339,-583 479,-583 479,-564 339,-564"/>
<text text-anchor="middle" x="409" y="-571" font-family="Helvetica,sans-Serif" font-size="10.00">TInterface::FlashingGraphics</text>
</a>
</g>
</g>
<!-- Node1&#45;&gt;Node2 -->
<g id="edge1" class="edge">
<title>Node1&#45;&gt;Node2</title>
<path fill="none" stroke="midnightblue" d="M971.79,-322.91C960.15,-358.95 930.19,-436.2 877,-476.5 758.86,-566.01 577.61,-577.77 479.27,-576.75"/>
<polygon fill="midnightblue" stroke="midnightblue" points="975.2,-323.72 974.82,-313.13 968.51,-321.65 975.2,-323.72"/>
</g>
<!-- Node5 -->
<g id="node5" class="node">
<title>Node5</title>
<g id="a_node5"><a xlink:href="class_t_track.html#aa15b97be2974589f11b8d56e741f7a59" target="_top" xlink:title="Plots either a LC or a blank element to flash manual LCs in zoomout mode.">
<polygon fill="white" stroke="black" points="732.5,-436.5 732.5,-466.5 863.5,-466.5 863.5,-436.5 732.5,-436.5"/>
<text text-anchor="start" x="740.5" y="-454.5" font-family="Helvetica,sans-Serif" font-size="10.00">TTrack::PlotSmallFlashing</text>
<text text-anchor="middle" x="798" y="-443.5" font-family="Helvetica,sans-Serif" font-size="10.00">LinkedLevelCrossings</text>
</a>
</g>
</g>
<!-- Node1&#45;&gt;Node5 -->
<g id="edge4" class="edge">
<title>Node1&#45;&gt;Node5</title>
<path fill="none" stroke="midnightblue" d="M957.77,-319.86C922.91,-348.77 850.91,-408.46 817.18,-436.43"/>
<polygon fill="midnightblue" stroke="midnightblue" points="960.32,-322.29 965.79,-313.21 955.86,-316.9 960.32,-322.29"/>
</g>
<!-- Node6 -->
<g id="node6" class="node">
<title>Node6</title>
<g id="a_node6"><a xlink:href="class_t_track.html#af654985aa4d1c17684f91474fa03ed98" target="_top" xlink:title="Plot on screen the zoomed&#45;out railway.">
<polygon fill="white" stroke="black" points="734,-319 734,-338 862,-338 862,-319 734,-319"/>
<text text-anchor="middle" x="798" y="-326" font-family="Helvetica,sans-Serif" font-size="10.00">TTrack::PlotSmallRailway</text>
</a>
</g>
</g>
<!-- Node1&#45;&gt;Node6 -->
<g id="edge6" class="edge">
<title>Node1&#45;&gt;Node6</title>
<path fill="none" stroke="midnightblue" d="M902.64,-313.98C889.22,-315.86 875.34,-317.81 862.28,-319.64"/>
<polygon fill="midnightblue" stroke="midnightblue" points="903.39,-317.41 912.81,-312.56 902.42,-310.48 903.39,-317.41"/>
</g>
<!-- Node15 -->
<g id="node15" class="node">
<title>Node15</title>
<g id="a_node15"><a xlink:href="class_t_track.html#ab831c2f47850f3a89678491475d52d29" target="_top" xlink:title="Plot on screen in zoomed&#45;out mode and in gap setting mode a small red square corresponding to the gap...">
<polygon fill="white" stroke="black" points="733.5,-270 733.5,-289 862.5,-289 862.5,-270 733.5,-270"/>
<text text-anchor="middle" x="798" y="-277" font-family="Helvetica,sans-Serif" font-size="10.00">TTrack::PlotSmallRedGap</text>
</a>
</g>
</g>
<!-- Node1&#45;&gt;Node15 -->
<g id="edge15" class="edge">
<title>Node1&#45;&gt;Node15</title>
<path fill="none" stroke="midnightblue" d="M902.71,-293.44C889.36,-291.65 875.57,-289.8 862.58,-288.05"/>
<polygon fill="midnightblue" stroke="midnightblue" points="902.43,-296.94 912.81,-294.8 903.36,-290 902.43,-296.94"/>
</g>
<!-- Node16 -->
<g id="node16" class="node">
<title>Node16</title>
<g id="a_node16"><a xlink:href="class_t_train.html#aa3f3a500264ddca35c7fee35f22ffa1e" target="_top" xlink:title="Plots the train on screen in zoomed&#45;out mode, state of &#39;Flash&#39; determines whether the flashing trains...">
<polygon fill="white" stroke="black" points="719,-185 719,-204 877,-204 877,-185 719,-185"/>
<text text-anchor="middle" x="798" y="-192" font-family="Helvetica,sans-Serif" font-size="10.00">TTrain::PlotTrainInZoomOutMode</text>
</a>
</g>
</g>
<!-- Node1&#45;&gt;Node16 -->
<g id="edge22" class="edge">
<title>Node1&#45;&gt;Node16</title>
<path fill="none" stroke="midnightblue" d="M952.93,-288.5C915.7,-265.76 846,-223.2 814.81,-204.15"/>
<polygon fill="midnightblue" stroke="midnightblue" points="951.3,-291.6 961.66,-293.83 954.95,-285.63 951.3,-291.6"/>
</g>
<!-- Node18 -->
<g id="node18" class="node">
<title>Node18</title>
<g id="a_node18"><a xlink:href="class_t_train.html#a439d2809c762a0981908a3b8a49520f2" target="_top" xlink:title="Unplot train from screen in zoomed&#45;out mode.">
<polygon fill="white" stroke="black" points="733.5,-88.5 733.5,-118.5 862.5,-118.5 862.5,-88.5 733.5,-88.5"/>
<text text-anchor="start" x="741.5" y="-106.5" font-family="Helvetica,sans-Serif" font-size="10.00">TTrain::UnplotTrainInZoom</text>
<text text-anchor="middle" x="798" y="-95.5" font-family="Helvetica,sans-Serif" font-size="10.00">OutMode</text>
</a>
</g>
</g>
<!-- Node1&#45;&gt;Node18 -->
<g id="edge26" class="edge">
<title>Node1&#45;&gt;Node18</title>
<path fill="none" stroke="midnightblue" d="M964.74,-285.44C946.43,-259.97 911.14,-212.48 877,-175.5 857.75,-154.65 833.43,-132.83 817.11,-118.75"/>
<polygon fill="midnightblue" stroke="midnightblue" points="962.02,-287.66 970.68,-293.76 967.72,-283.59 962.02,-287.66"/>
</g>
<!-- Node3 -->
<g id="node3" class="node">
<title>Node3</title>
<g id="a_node3"><a xlink:href="class_t_interface.html#a6139ffb52492eb89e5487a8a3cd647b5" target="_top" xlink:title="The main loop, called every clock tick via MasterClockTimer.">
<polygon fill="white" stroke="black" points="181.5,-332 181.5,-351 300.5,-351 300.5,-332 181.5,-332"/>
<text text-anchor="middle" x="241" y="-339" font-family="Helvetica,sans-Serif" font-size="10.00">TInterface::ClockTimer2</text>
</a>
</g>
</g>
<!-- Node2&#45;&gt;Node3 -->
<g id="edge2" class="edge">
<title>Node2&#45;&gt;Node3</title>
<path fill="none" stroke="midnightblue" d="M354.11,-559.69C348.64,-556.89 343.46,-553.53 339,-549.5 275.43,-492.08 250.22,-384.4 243.78,-351.38"/>
<polygon fill="midnightblue" stroke="midnightblue" points="352.97,-563.01 363.52,-563.9 355.82,-556.62 352.97,-563.01"/>
</g>
<!-- Node4 -->
<g id="node4" class="node">
<title>Node4</title>
<g id="a_node4"><a xlink:href="class_t_interface.html#ace30a12d923fc7fb489afabb0a09aa4f" target="_top" xlink:title=" ">
<polygon fill="white" stroke="black" points="0,-332 0,-351 143,-351 143,-332 0,-332"/>
<text text-anchor="middle" x="71.5" y="-339" font-family="Helvetica,sans-Serif" font-size="10.00">TInterface::MasterClockTimer</text>
</a>
</g>
</g>
<!-- Node3&#45;&gt;Node4 -->
<g id="edge3" class="edge">
<title>Node3&#45;&gt;Node4</title>
<path fill="none" stroke="midnightblue" d="M171.12,-341.5C161.89,-341.5 152.41,-341.5 143.14,-341.5"/>
<polygon fill="midnightblue" stroke="midnightblue" points="171.42,-345 181.42,-341.5 171.42,-338 171.42,-345"/>
</g>
<!-- Node5&#45;&gt;Node3 -->
<g id="edge5" class="edge">
<title>Node5&#45;&gt;Node3</title>
<path fill="none" stroke="midnightblue" d="M765.08,-471.72C742.98,-484.49 712.37,-499.79 683,-506.5 610.21,-523.14 586.93,-526.55 515,-506.5 401.37,-474.83 287.84,-381.64 252.9,-351.22"/>
<polygon fill="midnightblue" stroke="midnightblue" points="766.88,-474.73 773.7,-466.62 763.31,-468.7 766.88,-474.73"/>
</g>
<!-- Node7 -->
<g id="node7" class="node">
<title>Node7</title>
<g id="a_node7"><a xlink:href="class_t_interface.html#a3fe9878a003d343a06f09c8f421e5a3b" target="_top" xlink:title=" ">
<polygon fill="white" stroke="black" points="540.5,-450 540.5,-469 657.5,-469 657.5,-450 540.5,-450"/>
<text text-anchor="middle" x="599" y="-457" font-family="Helvetica,sans-Serif" font-size="10.00">TInterface::FormResize</text>
</a>
</g>
</g>
<!-- Node6&#45;&gt;Node7 -->
<g id="edge7" class="edge">
<title>Node6&#45;&gt;Node7</title>
<path fill="none" stroke="midnightblue" d="M784.09,-346.32C764.95,-371.39 726.57,-416.65 683,-440.5 675.22,-444.76 666.53,-448.06 657.78,-450.63"/>
<polygon fill="midnightblue" stroke="midnightblue" points="787.07,-348.19 790.25,-338.08 781.46,-344 787.07,-348.19"/>
</g>
<!-- Node8 -->
<g id="node8" class="node">
<title>Node8</title>
<g id="a_node8"><a xlink:href="class_t_interface.html#a19e64ee6952b0fd3c260eb05c14a34c8" target="_top" xlink:title=" ">
<polygon fill="white" stroke="black" points="529,-226 529,-245 669,-245 669,-226 529,-226"/>
<text text-anchor="middle" x="599" y="-233" font-family="Helvetica,sans-Serif" font-size="10.00">TInterface::HomeButtonClick</text>
</a>
</g>
</g>
<!-- Node6&#45;&gt;Node8 -->
<g id="edge8" class="edge">
<title>Node6&#45;&gt;Node8</title>
<path fill="none" stroke="midnightblue" d="M751.29,-315.35C740.16,-310.98 728.68,-305.42 719,-298.5 698.72,-284.01 704.18,-268.64 683,-255.5 675.95,-251.13 668.01,-247.71 659.91,-245.04"/>
<polygon fill="midnightblue" stroke="midnightblue" points="750.34,-318.73 760.93,-318.88 752.75,-312.15 750.34,-318.73"/>
</g>
<!-- Node9 -->
<g id="node9" class="node">
<title>Node9</title>
<g id="a_node9"><a xlink:href="class_t_interface.html#abb268a3a209bc0d66111540c84345c1b" target="_top" xlink:title=" ">
<polygon fill="white" stroke="black" points="515,-412 515,-431 683,-431 683,-412 515,-412"/>
<text text-anchor="middle" x="599" y="-419" font-family="Helvetica,sans-Serif" font-size="10.00">TInterface::MainScreenMouseMove</text>
</a>
</g>
</g>
<!-- Node6&#45;&gt;Node9 -->
<g id="edge9" class="edge">
<title>Node6&#45;&gt;Node9</title>
<path fill="none" stroke="midnightblue" d="M777.01,-344.62C755.16,-361.46 718.52,-387.46 683,-402.5 674.02,-406.3 664.15,-409.41 654.45,-411.92"/>
<polygon fill="midnightblue" stroke="midnightblue" points="779.44,-347.16 785.16,-338.24 775.13,-341.65 779.44,-347.16"/>
</g>
<!-- Node10 -->
<g id="node10" class="node">
<title>Node10</title>
<g id="a_node10"><a xlink:href="class_t_interface.html#ad53c136eca39fddb0e7e49a4b7018f66" target="_top" xlink:title=" ">
<polygon fill="white" stroke="black" points="525,-176.5 525,-206.5 673,-206.5 673,-176.5 525,-176.5"/>
<text text-anchor="start" x="533" y="-194.5" font-family="Helvetica,sans-Serif" font-size="10.00">TInterface::ScreenDownButton</text>
<text text-anchor="middle" x="599" y="-183.5" font-family="Helvetica,sans-Serif" font-size="10.00">Click</text>
</a>
</g>
</g>
<!-- Node6&#45;&gt;Node10 -->
<g id="edge10" class="edge">
<title>Node6&#45;&gt;Node10</title>
<path fill="none" stroke="midnightblue" d="M745.14,-315.2C735.64,-311.01 726.4,-305.56 719,-298.5 690.21,-271.02 712.8,-242.89 683,-216.5 678.61,-212.61 673.62,-209.32 668.34,-206.55"/>
<polygon fill="midnightblue" stroke="midnightblue" points="744.09,-318.55 754.68,-318.98 746.67,-312.04 744.09,-318.55"/>
</g>
<!-- Node11 -->
<g id="node11" class="node">
<title>Node11</title>
<g id="a_node11"><a xlink:href="class_t_interface.html#a358ab18cab57f8a5b5b850387039f822" target="_top" xlink:title=" ">
<polygon fill="white" stroke="black" points="529,-362.5 529,-392.5 669,-392.5 669,-362.5 529,-362.5"/>
<text text-anchor="start" x="537" y="-380.5" font-family="Helvetica,sans-Serif" font-size="10.00">TInterface::ScreenLeftButton</text>
<text text-anchor="middle" x="599" y="-369.5" font-family="Helvetica,sans-Serif" font-size="10.00">Click</text>
</a>
</g>
</g>
<!-- Node6&#45;&gt;Node11 -->
<g id="edge11" class="edge">
<title>Node6&#45;&gt;Node11</title>
<path fill="none" stroke="midnightblue" d="M748.7,-340.51C722.08,-347.14 688.79,-355.42 660.45,-362.46"/>
<polygon fill="midnightblue" stroke="midnightblue" points="749.69,-343.87 758.55,-338.06 748,-337.08 749.69,-343.87"/>
</g>
<!-- Node12 -->
<g id="node12" class="node">
<title>Node12</title>
<g id="a_node12"><a xlink:href="class_t_interface.html#aba3f772739d000bcbd8059181417a9b3" target="_top" xlink:title=" ">
<polygon fill="white" stroke="black" points="526,-313.5 526,-343.5 672,-343.5 672,-313.5 526,-313.5"/>
<text text-anchor="start" x="534" y="-331.5" font-family="Helvetica,sans-Serif" font-size="10.00">TInterface::ScreenRightButton</text>
<text text-anchor="middle" x="599" y="-320.5" font-family="Helvetica,sans-Serif" font-size="10.00">Click</text>
</a>
</g>
</g>
<!-- Node6&#45;&gt;Node12 -->
<g id="edge12" class="edge">
<title>Node6&#45;&gt;Node12</title>
<path fill="none" stroke="midnightblue" d="M723.53,-328.5C706.69,-328.5 688.81,-328.5 672.03,-328.5"/>
<polygon fill="midnightblue" stroke="midnightblue" points="723.86,-332 733.86,-328.5 723.86,-325 723.86,-332"/>
</g>
<!-- Node13 -->
<g id="node13" class="node">
<title>Node13</title>
<g id="a_node13"><a xlink:href="class_t_interface.html#a714f1498bb6cbbd706f6ed0882c4b03d" target="_top" xlink:title=" ">
<polygon fill="white" stroke="black" points="531,-264.5 531,-294.5 667,-294.5 667,-264.5 531,-264.5"/>
<text text-anchor="start" x="539" y="-282.5" font-family="Helvetica,sans-Serif" font-size="10.00">TInterface::ScreenUpButton</text>
<text text-anchor="middle" x="599" y="-271.5" font-family="Helvetica,sans-Serif" font-size="10.00">Click</text>
</a>
</g>
</g>
<!-- Node6&#45;&gt;Node13 -->
<g id="edge13" class="edge">
<title>Node6&#45;&gt;Node13</title>
<path fill="none" stroke="midnightblue" d="M748.7,-316.49C722.08,-309.86 688.79,-301.58 660.45,-294.54"/>
<polygon fill="midnightblue" stroke="midnightblue" points="748,-319.92 758.55,-318.94 749.69,-313.13 748,-319.92"/>
</g>
<!-- Node14 -->
<g id="node14" class="node">
<title>Node14</title>
<g id="a_node14"><a xlink:href="class_t_interface.html#a08305797df7dfbdd16b3e8900c33e0bc" target="_top" xlink:title=" ">
<polygon fill="white" stroke="black" points="339.5,-176 339.5,-195 478.5,-195 478.5,-176 339.5,-176"/>
<text text-anchor="middle" x="409" y="-183" font-family="Helvetica,sans-Serif" font-size="10.00">TInterface::ZoomButtonClick</text>
</a>
</g>
</g>
<!-- Node6&#45;&gt;Node14 -->
<g id="edge14" class="edge">
<title>Node6&#45;&gt;Node14</title>
<path fill="none" stroke="midnightblue" d="M782.77,-345.98C766.91,-365.6 740.66,-398.47 719,-427.5 702.41,-449.74 707.63,-465.74 683,-478.5 616.7,-512.85 576.06,-521.48 515,-478.5 416.24,-408.98 409.89,-237.52 409.87,-195.11"/>
<polygon fill="midnightblue" stroke="midnightblue" points="785.5,-348.18 789.08,-338.2 780.06,-343.77 785.5,-348.18"/>
</g>
<!-- Node15&#45;&gt;Node8 -->
<g id="edge16" class="edge">
<title>Node15&#45;&gt;Node8</title>
<path fill="none" stroke="midnightblue" d="M744.24,-267.72C712.44,-260.61 672.46,-251.68 642.66,-245.03"/>
<polygon fill="midnightblue" stroke="midnightblue" points="743.73,-271.19 754.25,-269.95 745.26,-264.36 743.73,-271.19"/>
</g>
<!-- Node15&#45;&gt;Node10 -->
<g id="edge17" class="edge">
<title>Node15&#45;&gt;Node10</title>
<path fill="none" stroke="midnightblue" d="M773.48,-264.56C750.93,-250.71 715.6,-230.23 683,-216.5 674.4,-212.88 665.1,-209.54 655.94,-206.57"/>
<polygon fill="midnightblue" stroke="midnightblue" points="771.69,-267.57 782.03,-269.87 775.38,-261.62 771.69,-267.57"/>
</g>
<!-- Node15&#45;&gt;Node11 -->
<g id="edge18" class="edge">
<title>Node15&#45;&gt;Node11</title>
<path fill="none" stroke="midnightblue" d="M751.24,-292.58C740.1,-296.95 728.64,-302.53 719,-309.5 698.53,-324.31 704.09,-339.58 683,-353.5 677.74,-356.97 671.97,-359.95 666.01,-362.5"/>
<polygon fill="midnightblue" stroke="midnightblue" points="752.69,-295.77 760.88,-289.05 750.29,-289.2 752.69,-295.77"/>
</g>
<!-- Node15&#45;&gt;Node12 -->
<g id="edge19" class="edge">
<title>Node15&#45;&gt;Node12</title>
<path fill="none" stroke="midnightblue" d="M748.7,-291.51C722.08,-298.14 688.79,-306.42 660.45,-313.46"/>
<polygon fill="midnightblue" stroke="midnightblue" points="749.69,-294.87 758.55,-289.06 748,-288.08 749.69,-294.87"/>
</g>
<!-- Node15&#45;&gt;Node13 -->
<g id="edge20" class="edge">
<title>Node15&#45;&gt;Node13</title>
<path fill="none" stroke="midnightblue" d="M723.24,-279.5C704.86,-279.5 685.25,-279.5 667.2,-279.5"/>
<polygon fill="midnightblue" stroke="midnightblue" points="723.31,-283 733.31,-279.5 723.31,-276 723.31,-283"/>
</g>
<!-- Node15&#45;&gt;Node14 -->
<g id="edge21" class="edge">
<title>Node15&#45;&gt;Node14</title>
<path fill="none" stroke="midnightblue" d="M775.83,-263.52C759.53,-250.78 736.85,-232.05 719,-213.5 701,-194.8 706.34,-178.87 683,-167.5 599.95,-127.04 485.51,-158.45 435.32,-175.88"/>
<polygon fill="midnightblue" stroke="midnightblue" points="774.1,-266.61 784.15,-269.95 778.37,-261.07 774.1,-266.61"/>
</g>
<!-- Node17 -->
<g id="node17" class="node">
<title>Node17</title>
<g id="a_node17"><a xlink:href="class_t_train_controller.html#a2f9cd71b60b45de8380f5fad7bbd5dd8" target="_top" xlink:title="Plots all trains on screen in zoomed&#45;out mode, state of &#39;Flash&#39; determines whether the flashing train...">
<polygon fill="white" stroke="black" points="539.5,-88.5 539.5,-118.5 658.5,-118.5 658.5,-88.5 539.5,-88.5"/>
<text text-anchor="start" x="547.5" y="-106.5" font-family="Helvetica,sans-Serif" font-size="10.00">TTrainController::PlotAll</text>
<text text-anchor="middle" x="599" y="-95.5" font-family="Helvetica,sans-Serif" font-size="10.00">TrainsInZoomOutMode</text>
</a>
</g>
</g>
<!-- Node16&#45;&gt;Node17 -->
<g id="edge23" class="edge">
<title>Node16&#45;&gt;Node17</title>
<path fill="none" stroke="midnightblue" d="M772.08,-179.82C749.33,-166.74 714.54,-147.55 683,-133.5 670.96,-128.14 657.65,-122.99 645.27,-118.52"/>
<polygon fill="midnightblue" stroke="midnightblue" points="770.35,-182.86 780.76,-184.84 773.86,-176.8 770.35,-182.86"/>
</g>
<!-- Node17&#45;&gt;Node3 -->
<g id="edge24" class="edge">
<title>Node17&#45;&gt;Node3</title>
<path fill="none" stroke="midnightblue" d="M529.59,-118.71C455.49,-135.4 346.71,-160.62 339,-166.5 280.45,-211.16 252.35,-301.87 244.42,-331.73"/>
<polygon fill="midnightblue" stroke="midnightblue" points="530.37,-122.12 539.35,-116.52 528.83,-115.29 530.37,-122.12"/>
</g>
<!-- Node17&#45;&gt;Node14 -->
<g id="edge25" class="edge">
<title>Node17&#45;&gt;Node14</title>
<path fill="none" stroke="midnightblue" d="M538.65,-122.35C530.52,-125.68 522.43,-129.41 515,-133.5 497.25,-143.29 496.81,-151.82 479,-161.5 468.3,-167.31 455.92,-172.14 444.63,-175.91"/>
<polygon fill="midnightblue" stroke="midnightblue" points="540.12,-125.53 548.16,-118.63 537.57,-119.01 540.12,-125.53"/>
</g>
<!-- Node18&#45;&gt;Node17 -->
<g id="edge33" class="edge">
<title>Node18&#45;&gt;Node17</title>
<path fill="none" stroke="midnightblue" d="M723.04,-103.5C701.82,-103.5 678.97,-103.5 658.79,-103.5"/>
<polygon fill="midnightblue" stroke="midnightblue" points="723.31,-107 733.31,-103.5 723.31,-100 723.31,-107"/>
</g>
<!-- Node19 -->
<g id="node19" class="node">
<title>Node19</title>
<g id="a_node19"><a xlink:href="class_t_train.html#afd5d7ea375b8a878c31d81841acad159" target="_top" xlink:title="This is a housekeeping function to delete train heap objects (bitmaps) explicitly rather than by usin...">
<polygon fill="white" stroke="black" points="550,-50 550,-69 648,-69 648,-50 550,-50"/>
<text text-anchor="middle" x="599" y="-57" font-family="Helvetica,sans-Serif" font-size="10.00">TTrain::DeleteTrain</text>
</a>
</g>
</g>
<!-- Node18&#45;&gt;Node19 -->
<g id="edge27" class="edge">
<title>Node18&#45;&gt;Node19</title>
<path fill="none" stroke="midnightblue" d="M723.42,-87.07C696.18,-80.98 666.22,-74.29 642.64,-69.02"/>
<polygon fill="midnightblue" stroke="midnightblue" points="722.79,-90.51 733.31,-89.28 724.32,-83.68 722.79,-90.51"/>
</g>
<!-- Node20 -->
<g id="node20" class="node">
<title>Node20</title>
<g id="a_node20"><a xlink:href="class_t_train_controller.html#a07d3d10bf08d4e916b652d676c917335" target="_top" xlink:title="called when exiting operation mode to delete all trains and timetable data etc">
<polygon fill="white" stroke="black" points="345.5,-0.5 345.5,-30.5 472.5,-30.5 472.5,-0.5 345.5,-0.5"/>
<text text-anchor="start" x="353.5" y="-18.5" font-family="Helvetica,sans-Serif" font-size="10.00">TTrainController::Finished</text>
<text text-anchor="middle" x="409" y="-7.5" font-family="Helvetica,sans-Serif" font-size="10.00">Operation</text>
</a>
</g>
</g>
<!-- Node19&#45;&gt;Node20 -->
<g id="edge28" class="edge">
<title>Node19&#45;&gt;Node20</title>
<path fill="none" stroke="midnightblue" d="M547.3,-47.63C524.28,-42.25 496.83,-35.82 472.54,-30.14"/>
<polygon fill="midnightblue" stroke="midnightblue" points="546.67,-51.08 557.21,-49.95 548.27,-44.27 546.67,-51.08"/>
</g>
<!-- Node22 -->
<g id="node22" class="node">
<title>Node22</title>
<g id="a_node22"><a xlink:href="class_t_train_controller.html#a20a1576dea1d86ed78fc5e9f46343481" target="_top" xlink:title="called every clock tick to introduce new trains and update existing trains">
<polygon fill="white" stroke="black" points="346.5,-50 346.5,-69 471.5,-69 471.5,-50 346.5,-50"/>
<text text-anchor="middle" x="409" y="-57" font-family="Helvetica,sans-Serif" font-size="10.00">TTrainController::Operate</text>
</a>
</g>
</g>
<!-- Node19&#45;&gt;Node22 -->
<g id="edge30" class="edge">
<title>Node19&#45;&gt;Node22</title>
<path fill="none" stroke="midnightblue" d="M539.3,-59.5C517.83,-59.5 493.49,-59.5 471.76,-59.5"/>
<polygon fill="midnightblue" stroke="midnightblue" points="539.59,-63 549.59,-59.5 539.59,-56 539.59,-63"/>
</g>
<!-- Node23 -->
<g id="node23" class="node">
<title>Node23</title>
<g id="a_node23"><a xlink:href="class_t_train_controller.html#ad6cbfb50d0fddf2c6b43a1604da3b746" target="_top" xlink:title="Destructor.">
<polygon fill="white" stroke="black" points="364,-88.5 364,-118.5 454,-118.5 454,-88.5 364,-88.5"/>
<text text-anchor="start" x="372" y="-106.5" font-family="Helvetica,sans-Serif" font-size="10.00">TTrainController::</text>
<text text-anchor="middle" x="409" y="-95.5" font-family="Helvetica,sans-Serif" font-size="10.00">~TTrainController</text>
</a>
</g>
</g>
<!-- Node19&#45;&gt;Node23 -->
<g id="edge32" class="edge">
<title>Node19&#45;&gt;Node23</title>
<path fill="none" stroke="midnightblue" d="M547.26,-71.37C518.25,-78.17 482.2,-86.6 454.32,-93.13"/>
<polygon fill="midnightblue" stroke="midnightblue" points="548.27,-74.73 557.21,-69.05 546.67,-67.92 548.27,-74.73"/>
</g>
<!-- Node21 -->
<g id="node21" class="node">
<title>Node21</title>
<g id="a_node21"><a xlink:href="class_t_interface.html#a3e59d6f1f39ffe34a9d6e7bf930acbff" target="_top" xlink:title=" ">
<polygon fill="white" stroke="black" points="179,-0.5 179,-30.5 303,-30.5 303,-0.5 179,-0.5"/>
<text text-anchor="start" x="187" y="-18.5" font-family="Helvetica,sans-Serif" font-size="10.00">TInterface::ExitOperation</text>
<text text-anchor="middle" x="241" y="-7.5" font-family="Helvetica,sans-Serif" font-size="10.00">ButtonClick</text>
</a>
</g>
</g>
<!-- Node20&#45;&gt;Node21 -->
<g id="edge29" class="edge">
<title>Node20&#45;&gt;Node21</title>
<path fill="none" stroke="midnightblue" d="M335.12,-15.5C324.47,-15.5 313.59,-15.5 303.2,-15.5"/>
<polygon fill="midnightblue" stroke="midnightblue" points="335.24,-19 345.24,-15.5 335.24,-12 335.24,-19"/>
</g>
<!-- Node22&#45;&gt;Node3 -->
<g id="edge31" class="edge">
<title>Node22&#45;&gt;Node3</title>
<path fill="none" stroke="midnightblue" d="M346.08,-74C343.56,-75.64 341.18,-77.47 339,-79.5 260.69,-152.34 245.32,-294.07 242.56,-331.98"/>
<polygon fill="midnightblue" stroke="midnightblue" points="347.97,-76.95 355.08,-69.1 344.63,-70.81 347.97,-76.95"/>
</g>
</g>
</svg>
