<?xml version="1.0" encoding="UTF-8" standalone="no"?>
<!DOCTYPE svg PUBLIC "-//W3C//DTD SVG 1.1//EN"
 "http://www.w3.org/Graphics/SVG/1.1/DTD/svg11.dtd">
<!-- Generated by graphviz version 2.44.1 (20200629.0800)
 -->
<!-- Title: TOneRoute::SetRouteSignals Pages: 1 -->
<svg width="1229pt" height="295pt"
 viewBox="0.00 0.00 1229.00 294.72" xmlns="http://www.w3.org/2000/svg" xmlns:xlink="http://www.w3.org/1999/xlink">
<g id="graph0" class="graph" transform="scale(1 1) rotate(0) translate(4 290.72)">
<title>TOneRoute::SetRouteSignals</title>
<polygon fill="white" stroke="transparent" points="-4,4 -4,-290.72 1225,-290.72 1225,4 -4,4"/>
<!-- Node1 -->
<g id="node1" class="node">
<title>Node1</title>
<g id="a_node1"><a xlink:title="Called when setting a route to set all signals appropriately. Also called when a new train is added a...">
<polygon fill="#bfbfbf" stroke="black" points="1077,-118 1077,-137 1221,-137 1221,-118 1077,-118"/>
<text text-anchor="middle" x="1149" y="-125" font-family="Helvetica,sans-Serif" font-size="10.00">TOneRoute::SetRouteSignals</text>
</a>
</g>
</g>
<!-- Node2 -->
<g id="node2" class="node">
<title>Node2</title>
<g id="a_node2"><a xlink:href="class_t_train_controller.html#aa895b60238810a9d134cd5b9c886da56" target="_top" xlink:title="Introduce a new train to the railway, with the characteristics specified, returns true for success,...">
<polygon fill="white" stroke="black" points="898,-194 898,-213 1026,-213 1026,-194 898,-194"/>
<text text-anchor="middle" x="962" y="-201" font-family="Helvetica,sans-Serif" font-size="10.00">TTrainController::AddTrain</text>
</a>
</g>
</g>
<!-- Node1&#45;&gt;Node2 -->
<g id="edge1" class="edge">
<title>Node1&#45;&gt;Node2</title>
<path fill="none" stroke="midnightblue" d="M1115.21,-140.97C1078.16,-156.19 1018.8,-180.58 986.24,-193.95"/>
<polygon fill="midnightblue" stroke="midnightblue" points="1116.65,-144.16 1124.57,-137.13 1113.99,-137.69 1116.65,-144.16"/>
</g>
<!-- Node4 -->
<g id="node4" class="node">
<title>Node4</title>
<g id="a_node4"><a xlink:href="class_t_train.html#a89ad640ecf8f5163c40727b4e28575fc" target="_top" xlink:title="Major function called at each clock tick for each train &amp; handles all train movement &amp; associated act...">
<polygon fill="white" stroke="black" points="529.5,-232 529.5,-251 630.5,-251 630.5,-232 529.5,-232"/>
<text text-anchor="middle" x="580" y="-239" font-family="Helvetica,sans-Serif" font-size="10.00">TTrain::UpdateTrain</text>
</a>
</g>
</g>
<!-- Node1&#45;&gt;Node4 -->
<g id="edge20" class="edge">
<title>Node1&#45;&gt;Node4</title>
<path fill="none" stroke="midnightblue" d="M1133.12,-144.73C1113.89,-165.97 1078.41,-201.78 1041,-222.5 962.39,-266.05 935.95,-266.7 847,-279.5 782.77,-288.74 765.13,-289.41 701,-279.5 666.23,-274.13 627.73,-260.48 603.95,-251.1"/>
<polygon fill="midnightblue" stroke="midnightblue" points="1135.86,-146.91 1139.89,-137.11 1130.63,-142.26 1135.86,-146.91"/>
</g>
<!-- Node5 -->
<g id="node5" class="node">
<title>Node5</title>
<g id="a_node5"><a xlink:href="class_t_train_controller.html#a20a1576dea1d86ed78fc5e9f46343481" target="_top" xlink:title="called every clock tick to introduce new trains and update existing trains">
<polygon fill="white" stroke="black" points="334,-156 334,-175 459,-175 459,-156 334,-156"/>
<text text-anchor="middle" x="396.5" y="-163" font-family="Helvetica,sans-Serif" font-size="10.00">TTrainController::Operate</text>
</a>
</g>
</g>
<!-- Node1&#45;&gt;Node5 -->
<g id="edge19" class="edge">
<title>Node1&#45;&gt;Node5</title>
<path fill="none" stroke="midnightblue" d="M1066.57,-131.62C915.32,-139.28 594.19,-155.54 459.26,-162.37"/>
<polygon fill="midnightblue" stroke="midnightblue" points="1066.91,-135.11 1076.72,-131.11 1066.55,-128.12 1066.91,-135.11"/>
</g>
<!-- Node9 -->
<g id="node9" class="node">
<title>Node9</title>
<g id="a_node9"><a xlink:href="class_t_one_route.html#a53496c398dcdb3a644801c4e74d47d01" target="_top" xlink:title="Called after a non&#45;preferred (i.e. unrestricted) route has been selected and has finished flashing,...">
<polygon fill="white" stroke="black" points="883,-49.5 883,-79.5 1041,-79.5 1041,-49.5 883,-49.5"/>
<text text-anchor="start" x="891" y="-67.5" font-family="Helvetica,sans-Serif" font-size="10.00">TOneRoute::ConvertAndAdd</text>
<text text-anchor="middle" x="962" y="-56.5" font-family="Helvetica,sans-Serif" font-size="10.00">NonPreferredRouteSearchVector</text>
</a>
</g>
</g>
<!-- Node1&#45;&gt;Node9 -->
<g id="edge10" class="edge">
<title>Node1&#45;&gt;Node9</title>
<path fill="none" stroke="midnightblue" d="M1110.27,-114.65C1080.41,-104.48 1038.66,-90.27 1007.24,-79.57"/>
<polygon fill="midnightblue" stroke="midnightblue" points="1109.31,-118.02 1119.9,-117.93 1111.56,-111.39 1109.31,-118.02"/>
</g>
<!-- Node10 -->
<g id="node10" class="node">
<title>Node10</title>
<g id="a_node10"><a xlink:href="class_t_interface.html#a7e6535742855a19cb3e35b1711a7ab59" target="_top" xlink:title="Deal with any warning graphics that need to flash (call on, signal stop, crash etc),...">
<polygon fill="white" stroke="black" points="704,-99 704,-118 844,-118 844,-99 704,-99"/>
<text text-anchor="middle" x="774" y="-106" font-family="Helvetica,sans-Serif" font-size="10.00">TInterface::FlashingGraphics</text>
</a>
</g>
</g>
<!-- Node1&#45;&gt;Node10 -->
<g id="edge18" class="edge">
<title>Node1&#45;&gt;Node10</title>
<path fill="none" stroke="midnightblue" d="M1066.94,-123.37C1000.42,-119.98 907.25,-115.24 844.19,-112.02"/>
<polygon fill="midnightblue" stroke="midnightblue" points="1066.8,-126.87 1076.96,-123.88 1067.15,-119.88 1066.8,-126.87"/>
</g>
<!-- Node13 -->
<g id="node13" class="node">
<title>Node13</title>
<g id="a_node13"><a xlink:href="class_t_one_route.html#a36ba8adc8b4a47908ee4e1b8e75792ca" target="_top" xlink:title="Called after a preferred (i.e. preferred direction or automatic signals) route has been selected and ...">
<polygon fill="white" stroke="black" points="892,-0.5 892,-30.5 1032,-30.5 1032,-0.5 892,-0.5"/>
<text text-anchor="start" x="900" y="-18.5" font-family="Helvetica,sans-Serif" font-size="10.00">TOneRoute::ConvertAndAdd</text>
<text text-anchor="middle" x="962" y="-7.5" font-family="Helvetica,sans-Serif" font-size="10.00">PreferredRouteSearchVector</text>
</a>
</g>
</g>
<!-- Node1&#45;&gt;Node13 -->
<g id="edge15" class="edge">
<title>Node1&#45;&gt;Node13</title>
<path fill="none" stroke="midnightblue" d="M1131.64,-110.5C1111.86,-90.84 1076.75,-58.72 1041,-39.5 1034.76,-36.14 1027.98,-33.18 1021.12,-30.59"/>
<polygon fill="midnightblue" stroke="midnightblue" points="1129.39,-113.2 1138.91,-117.85 1134.37,-108.28 1129.39,-113.2"/>
</g>
<!-- Node3 -->
<g id="node3" class="node">
<title>Node3</title>
<g id="a_node3"><a xlink:href="class_t_train.html#ad666fb061d1da7c44a72ec963c2098aa" target="_top" xlink:title="Carry out the actions needed when a train is to split from the front.">
<polygon fill="white" stroke="black" points="718,-213 718,-232 830,-232 830,-213 718,-213"/>
<text text-anchor="middle" x="774" y="-220" font-family="Helvetica,sans-Serif" font-size="10.00">TTrain::FrontTrainSplit</text>
</a>
</g>
</g>
<!-- Node2&#45;&gt;Node3 -->
<g id="edge2" class="edge">
<title>Node2&#45;&gt;Node3</title>
<path fill="none" stroke="midnightblue" d="M887.61,-211C868.51,-212.95 848.26,-215.02 830.28,-216.85"/>
<polygon fill="midnightblue" stroke="midnightblue" points="888.18,-214.46 897.77,-209.96 887.47,-207.49 888.18,-214.46"/>
</g>
<!-- Node2&#45;&gt;Node5 -->
<g id="edge7" class="edge">
<title>Node2&#45;&gt;Node5</title>
<path fill="none" stroke="midnightblue" d="M887.81,-198.56C775.82,-191.01 563.93,-176.72 459.24,-169.66"/>
<polygon fill="midnightblue" stroke="midnightblue" points="887.79,-202.07 898,-199.25 888.26,-195.09 887.79,-202.07"/>
</g>
<!-- Node8 -->
<g id="node8" class="node">
<title>Node8</title>
<g id="a_node8"><a xlink:href="class_t_train.html#ad64c5823265b0c611c2e5f0613317aa5" target="_top" xlink:title="Carry out the actions needed when a train is to split from the rear.">
<polygon fill="white" stroke="black" points="719,-251 719,-270 829,-270 829,-251 719,-251"/>
<text text-anchor="middle" x="774" y="-258" font-family="Helvetica,sans-Serif" font-size="10.00">TTrain::RearTrainSplit</text>
</a>
</g>
</g>
<!-- Node2&#45;&gt;Node8 -->
<g id="edge8" class="edge">
<title>Node2&#45;&gt;Node8</title>
<path fill="none" stroke="midnightblue" d="M924.26,-216.41C902.02,-224.06 873.01,-233.74 847,-241.5 835.97,-244.79 823.91,-248.09 812.87,-250.99"/>
<polygon fill="midnightblue" stroke="midnightblue" points="925.67,-219.63 933.97,-213.05 923.38,-213.01 925.67,-219.63"/>
</g>
<!-- Node3&#45;&gt;Node4 -->
<g id="edge3" class="edge">
<title>Node3&#45;&gt;Node4</title>
<path fill="none" stroke="midnightblue" d="M707.78,-228.95C682.6,-231.45 654.27,-234.25 630.78,-236.57"/>
<polygon fill="midnightblue" stroke="midnightblue" points="708.37,-232.41 717.98,-227.94 707.68,-225.45 708.37,-232.41"/>
</g>
<!-- Node4&#45;&gt;Node5 -->
<g id="edge4" class="edge">
<title>Node4&#45;&gt;Node5</title>
<path fill="none" stroke="midnightblue" d="M546.36,-227.83C509.99,-212.6 452.11,-188.37 420.3,-175.05"/>
<polygon fill="midnightblue" stroke="midnightblue" points="545.44,-231.24 556.01,-231.87 548.14,-224.78 545.44,-231.24"/>
</g>
<!-- Node6 -->
<g id="node6" class="node">
<title>Node6</title>
<g id="a_node6"><a xlink:href="class_t_interface.html#a6139ffb52492eb89e5487a8a3cd647b5" target="_top" xlink:title="The main loop, called every clock tick via MasterClockTimer.">
<polygon fill="white" stroke="black" points="179,-127 179,-146 298,-146 298,-127 179,-127"/>
<text text-anchor="middle" x="238.5" y="-134" font-family="Helvetica,sans-Serif" font-size="10.00">TInterface::ClockTimer2</text>
</a>
</g>
</g>
<!-- Node5&#45;&gt;Node6 -->
<g id="edge5" class="edge">
<title>Node5&#45;&gt;Node6</title>
<path fill="none" stroke="midnightblue" d="M333.76,-154.02C319.49,-151.37 304.46,-148.58 290.69,-146.02"/>
<polygon fill="midnightblue" stroke="midnightblue" points="333.52,-157.54 343.99,-155.92 334.8,-150.66 333.52,-157.54"/>
</g>
<!-- Node7 -->
<g id="node7" class="node">
<title>Node7</title>
<g id="a_node7"><a xlink:href="class_t_interface.html#ace30a12d923fc7fb489afabb0a09aa4f" target="_top" xlink:title=" ">
<polygon fill="white" stroke="black" points="0,-127 0,-146 143,-146 143,-127 0,-127"/>
<text text-anchor="middle" x="71.5" y="-134" font-family="Helvetica,sans-Serif" font-size="10.00">TInterface::MasterClockTimer</text>
</a>
</g>
</g>
<!-- Node6&#45;&gt;Node7 -->
<g id="edge6" class="edge">
<title>Node6&#45;&gt;Node7</title>
<path fill="none" stroke="midnightblue" d="M168.67,-136.5C160.22,-136.5 151.57,-136.5 143.09,-136.5"/>
<polygon fill="midnightblue" stroke="midnightblue" points="168.86,-140 178.86,-136.5 168.86,-133 168.86,-140"/>
</g>
<!-- Node8&#45;&gt;Node4 -->
<g id="edge9" class="edge">
<title>Node8&#45;&gt;Node4</title>
<path fill="none" stroke="midnightblue" d="M708.79,-254.15C683.27,-251.62 654.37,-248.76 630.52,-246.4"/>
<polygon fill="midnightblue" stroke="midnightblue" points="708.45,-257.63 718.75,-255.13 709.14,-250.66 708.45,-257.63"/>
</g>
<!-- Node9&#45;&gt;Node10 -->
<g id="edge11" class="edge">
<title>Node9&#45;&gt;Node10</title>
<path fill="none" stroke="midnightblue" d="M887.46,-81.9C862.84,-87.72 836.31,-94 815.21,-98.99"/>
<polygon fill="midnightblue" stroke="midnightblue" points="888.58,-85.23 897.51,-79.52 886.97,-78.42 888.58,-85.23"/>
</g>
<!-- Node11 -->
<g id="node11" class="node">
<title>Node11</title>
<g id="a_node11"><a xlink:href="class_t_interface.html#abf07d5edc1507de381825f17620748b2" target="_top" xlink:title="Called when mouse button clicked in zoom&#45;in mode.">
<polygon fill="white" stroke="black" points="701,-49.5 701,-79.5 847,-79.5 847,-49.5 701,-49.5"/>
<text text-anchor="start" x="709" y="-67.5" font-family="Helvetica,sans-Serif" font-size="10.00">TInterface::MainScreenMouse</text>
<text text-anchor="middle" x="774" y="-56.5" font-family="Helvetica,sans-Serif" font-size="10.00">Down2</text>
</a>
</g>
</g>
<!-- Node9&#45;&gt;Node11 -->
<g id="edge13" class="edge">
<title>Node9&#45;&gt;Node11</title>
<path fill="none" stroke="midnightblue" d="M872.88,-64.5C864.29,-64.5 855.65,-64.5 847.24,-64.5"/>
<polygon fill="midnightblue" stroke="midnightblue" points="872.93,-68 882.93,-64.5 872.93,-61 872.93,-68"/>
</g>
<!-- Node10&#45;&gt;Node6 -->
<g id="edge12" class="edge">
<title>Node10&#45;&gt;Node6</title>
<path fill="none" stroke="midnightblue" d="M693.61,-112.67C585.51,-118.34 394.51,-128.36 298.33,-133.41"/>
<polygon fill="midnightblue" stroke="midnightblue" points="694,-116.15 703.8,-112.13 693.63,-109.16 694,-116.15"/>
</g>
<!-- Node12 -->
<g id="node12" class="node">
<title>Node12</title>
<g id="a_node12"><a xlink:href="class_t_interface.html#a7f37862fb9e01e1328d9fd3fd8c50094" target="_top" xlink:title=" ">
<polygon fill="white" stroke="black" points="495,-55 495,-74 665,-74 665,-55 495,-55"/>
<text text-anchor="middle" x="580" y="-62" font-family="Helvetica,sans-Serif" font-size="10.00">TInterface::MainScreenMouseDown</text>
</a>
</g>
</g>
<!-- Node11&#45;&gt;Node12 -->
<g id="edge14" class="edge">
<title>Node11&#45;&gt;Node12</title>
<path fill="none" stroke="midnightblue" d="M690.7,-64.5C682.22,-64.5 673.58,-64.5 665.08,-64.5"/>
<polygon fill="midnightblue" stroke="midnightblue" points="690.96,-68 700.96,-64.5 690.96,-61 690.96,-68"/>
</g>
<!-- Node13&#45;&gt;Node10 -->
<g id="edge16" class="edge">
<title>Node13&#45;&gt;Node10</title>
<path fill="none" stroke="midnightblue" d="M889.63,-35.25C887.34,-36.58 885.12,-37.99 883,-39.5 860.97,-55.15 869.24,-73.15 847,-88.5 840.7,-92.85 833.48,-96.25 826.1,-98.92"/>
<polygon fill="midnightblue" stroke="midnightblue" points="891.48,-38.23 898.78,-30.55 888.28,-32.01 891.48,-38.23"/>
</g>
<!-- Node14 -->
<g id="node14" class="node">
<title>Node14</title>
<g id="a_node14"><a xlink:href="class_t_interface.html#aa639148521a793641e694b15486b5055" target="_top" xlink:title=" ">
<polygon fill="white" stroke="black" points="710,-0.5 710,-30.5 838,-30.5 838,-0.5 710,-0.5"/>
<text text-anchor="start" x="718" y="-18.5" font-family="Helvetica,sans-Serif" font-size="10.00">TInterface::PresetAutoSig</text>
<text text-anchor="middle" x="774" y="-7.5" font-family="Helvetica,sans-Serif" font-size="10.00">RoutesButtonClick</text>
</a>
</g>
</g>
<!-- Node13&#45;&gt;Node14 -->
<g id="edge17" class="edge">
<title>Node13&#45;&gt;Node14</title>
<path fill="none" stroke="midnightblue" d="M881.33,-15.5C866.91,-15.5 852.05,-15.5 838.17,-15.5"/>
<polygon fill="midnightblue" stroke="midnightblue" points="881.74,-19 891.74,-15.5 881.74,-12 881.74,-19"/>
</g>
</g>
</svg>
