<?xml version="1.0" encoding="UTF-8" standalone="no"?>
<!DOCTYPE svg PUBLIC "-//W3C//DTD SVG 1.1//EN"
 "http://www.w3.org/Graphics/SVG/1.1/DTD/svg11.dtd">
<!-- Generated by graphviz version 2.44.1 (20200629.0800)
 -->
<!-- Title: TTrain::LoadOneSessionTrain Pages: 1 -->
<!--zoomable 1073 -->
<svg id="main" version="1.1" xmlns="http://www.w3.org/2000/svg" xmlns:xlink="http://www.w3.org/1999/xlink" xml:space="preserve" onload="init(evt)">
<style type="text/css"><![CDATA[
.edge:hover path { stroke: red; }
.edge:hover polygon { stroke: red; fill: red; }
]]></style>
<script type="text/javascript"><![CDATA[
var edges = document.getElementsByTagName('g');
if (edges && edges.length) {
  for (var i=0;i<edges.length;i++) {
    if (edges[i].id.substr(0,4)=='edge') {
      edges[i].setAttribute('class','edge');
    }
  }
}
]]></script>
        <defs>
                <circle id="rim" cx="0" cy="0" r="7"/>
                <circle id="rim2" cx="0" cy="0" r="3.5"/>
                <g id="zoomPlus">
                        <use xlink:href="#rim" fill="#404040">
                                <set attributeName="fill" to="#808080" begin="zoomplus.mouseover" end="zoomplus.mouseout"/>
                        </use>
                        <path d="M-4,0h8M0,-4v8" fill="none" stroke="white" stroke-width="1.5" pointer-events="none"/>
                </g>
                <g id="zoomMin">
                        <use xlink:href="#rim" fill="#404040">
                                <set attributeName="fill" to="#808080" begin="zoomminus.mouseover" end="zoomminus.mouseout"/>
                        </use>
                        <path d="M-4,0h8" fill="none" stroke="white" stroke-width="1.5" pointer-events="none"/>
                </g>
                <g id="dirArrow">
                        <path fill="none" stroke="white" stroke-width="1.5" d="M0,-3.0v7 M-2.5,-0.5L0,-3.0L2.5,-0.5"/>
                </g>
               <g id="resetDef">
                       <use xlink:href="#rim2" fill="#404040">
                               <set attributeName="fill" to="#808080" begin="reset.mouseover" end="reset.mouseout"/>
                       </use>
               </g>
        </defs>

<script type="text/javascript">
var viewWidth = 1080;
var viewHeight = 1073;
var sectionId = 'dynsection-52';
</script>
<script xlink:href="svgpan.js"/>
<svg id="graph" class="graph">
<g id="viewport">
<title>TTrain::LoadOneSessionTrain</title>
<polygon fill="white" stroke="transparent" points="-4,4 -4,-1068.9 1076,-1068.9 1076,4 -4,4"/>
<!-- Node1 -->
<g id="node1" class="node">
<title>Node1</title>
<g id="a_node1"><a xlink:title="Create one train with relevant member values from the sesion file.">
<polygon fill="#bfbfbf" stroke="black" points="0,-753.97 0,-772.97 144,-772.97 144,-753.97 0,-753.97"/>
<text text-anchor="middle" x="72" y="-760.97" font-family="Helvetica,sans-Serif" font-size="10.00">TTrain::LoadOneSessionTrain</text>
</a>
</g>
</g>
<!-- Node2 -->
<g id="node2" class="node">
<title>Node2</title>
<g id="a_node2"><a xlink:href="class_t_utilities.html#ae1eddca13cc3c492839e131f40ec21c0" target="_top" xlink:title="pops the last entry off the call stack, throws an error if called when empty">
<polygon fill="white" stroke="black" points="953,-426.97 953,-445.97 1063,-445.97 1063,-426.97 953,-426.97"/>
<text text-anchor="middle" x="1008" y="-433.97" font-family="Helvetica,sans-Serif" font-size="10.00">TUtilities::CallLogPop</text>
</a>
</g>
</g>
<!-- Node1&#45;&gt;Node2 -->
<g id="edge1" class="edge">
<title>Node1&#45;&gt;Node2</title>
<path fill="none" stroke="midnightblue" d="M72.9,-753.71C72.51,-665.8 81.18,-13.47 424.5,-13.47 424.5,-13.47 424.5,-13.47 624,-13.47 751.29,-13.47 812.69,33.91 908,-50.47 964.43,-100.42 996.51,-344.93 1004.82,-416.65"/>
<polygon fill="midnightblue" stroke="midnightblue" points="1001.39,-417.42 1005.99,-426.96 1008.34,-416.63 1001.39,-417.42"/>
</g>
<!-- Node3 -->
<g id="node3" class="node">
<title>Node3</title>
<g id="a_node3"><a xlink:href="class_t_rail_graphics.html#ad6db946801b17d5d4b462bc2c95ebfbd" target="_top" xlink:title="New function to do the same as the above but with fewer pixel changes &#45; for use in LoadSession to avo...">
<polygon fill="white" stroke="black" points="743,-948.47 743,-978.47 908,-978.47 908,-948.47 743,-948.47"/>
<text text-anchor="start" x="751" y="-966.47" font-family="Helvetica,sans-Serif" font-size="10.00">TRailGraphics::ChangeForeground</text>
<text text-anchor="middle" x="825.5" y="-955.47" font-family="Helvetica,sans-Serif" font-size="10.00">Colour2</text>
</a>
</g>
</g>
<!-- Node1&#45;&gt;Node3 -->
<g id="edge2" class="edge">
<title>Node1&#45;&gt;Node3</title>
<path fill="none" stroke="midnightblue" d="M89.78,-773.08C110.63,-784.86 147.43,-805.15 180,-820.47 253.04,-854.82 270.25,-867.79 348,-889.47 479.04,-926 635.72,-945.97 732.68,-955.68"/>
<polygon fill="midnightblue" stroke="midnightblue" points="732.45,-959.18 742.75,-956.68 733.14,-952.21 732.45,-959.18"/>
</g>
<!-- Node4 -->
<g id="node4" class="node">
<title>Node4</title>
<g id="a_node4"><a xlink:href="class_t_utilities.html#a34bd6bb5305bc29afdf424f6d35a921c" target="_top" xlink:title="creates a string of the form &#39;hh:mm:ss&#39; for use in call &amp; event logging">
<polygon fill="white" stroke="black" points="953,-637.97 953,-656.97 1063,-656.97 1063,-637.97 953,-637.97"/>
<text text-anchor="middle" x="1008" y="-644.97" font-family="Helvetica,sans-Serif" font-size="10.00">TUtilities::TimeStamp</text>
</a>
</g>
</g>
<!-- Node1&#45;&gt;Node4 -->
<g id="edge65" class="edge">
<title>Node1&#45;&gt;Node4</title>
<path fill="none" stroke="midnightblue" d="M73.5,-773C76.13,-812.21 91.84,-962.05 180,-1026.47 268.01,-1090.76 315.51,-1045.47 424.5,-1045.47 424.5,-1045.47 424.5,-1045.47 624,-1045.47 750.71,-1045.47 811.05,-1102.05 908,-1020.47 963.72,-973.57 996.2,-737.33 1004.73,-667.15"/>
<polygon fill="midnightblue" stroke="midnightblue" points="1008.22,-667.38 1005.93,-657.04 1001.27,-666.55 1008.22,-667.38"/>
</g>
<!-- Node5 -->
<g id="node5" class="node">
<title>Node5</title>
<g id="a_node5"><a xlink:href="class_t_train_controller.html#a1925032d5e41decf4befc07b35521d3c" target="_top" xlink:title="Returns true if the location name complies with requirements.">
<polygon fill="white" stroke="black" points="348,-850.47 348,-880.47 503,-880.47 503,-850.47 348,-850.47"/>
<text text-anchor="start" x="356" y="-868.47" font-family="Helvetica,sans-Serif" font-size="10.00">TTrainController::CheckLocation</text>
<text text-anchor="middle" x="425.5" y="-857.47" font-family="Helvetica,sans-Serif" font-size="10.00">Validity</text>
</a>
</g>
</g>
<!-- Node1&#45;&gt;Node5 -->
<g id="edge5" class="edge">
<title>Node1&#45;&gt;Node5</title>
<path fill="none" stroke="midnightblue" d="M139.67,-753.95C190.32,-750.07 259.92,-752.18 312,-782.47 336.62,-796.78 325.75,-817.69 348,-835.47 352.9,-839.38 358.38,-842.83 364.08,-845.87"/>
<polygon fill="midnightblue" stroke="midnightblue" points="362.67,-849.08 373.19,-850.31 365.73,-842.78 362.67,-849.08"/>
</g>
<!-- Node9 -->
<g id="node9" class="node">
<title>Node9</title>
<g id="a_node9"><a xlink:href="class_t_utilities.html#a9a0ec4d0c686c71157c371d647824777" target="_top" xlink:title="loads a bool value from the file">
<polygon fill="white" stroke="black" points="188,-791.97 188,-810.97 304,-810.97 304,-791.97 188,-791.97"/>
<text text-anchor="middle" x="246" y="-798.97" font-family="Helvetica,sans-Serif" font-size="10.00">TUtilities::LoadFileBool</text>
</a>
</g>
</g>
<!-- Node1&#45;&gt;Node9 -->
<g id="edge16" class="edge">
<title>Node1&#45;&gt;Node9</title>
<path fill="none" stroke="midnightblue" d="M116.4,-773.05C139.41,-778.14 167.85,-784.42 192.13,-789.79"/>
<polygon fill="midnightblue" stroke="midnightblue" points="191.39,-793.21 201.91,-791.95 192.9,-786.37 191.39,-793.21"/>
</g>
<!-- Node10 -->
<g id="node10" class="node">
<title>Node10</title>
<g id="a_node10"><a xlink:href="class_t_utilities.html#ac970a0df84f5cb26ed962020b7dc2d6d" target="_top" xlink:title="loads a double value from the file (converts from a string to a double) and uses the local decimal po...">
<polygon fill="white" stroke="black" points="182.5,-997.97 182.5,-1016.97 309.5,-1016.97 309.5,-997.97 182.5,-997.97"/>
<text text-anchor="middle" x="246" y="-1004.97" font-family="Helvetica,sans-Serif" font-size="10.00">TUtilities::LoadFileDouble</text>
</a>
</g>
</g>
<!-- Node1&#45;&gt;Node10 -->
<g id="edge17" class="edge">
<title>Node1&#45;&gt;Node10</title>
<path fill="none" stroke="midnightblue" d="M75.04,-773.39C82.58,-807.6 112,-921.88 180,-983.47 184.46,-987.5 189.65,-990.87 195.12,-993.69"/>
<polygon fill="midnightblue" stroke="midnightblue" points="193.96,-997.01 204.51,-997.93 196.84,-990.63 193.96,-997.01"/>
</g>
<!-- Node11 -->
<g id="node11" class="node">
<title>Node11</title>
<g id="a_node11"><a xlink:href="class_t_utilities.html#a0aac90f10a08736514da3b3e02129e1e" target="_top" xlink:title="loads a string value from the file">
<polygon fill="white" stroke="black" points="364.5,-988.97 364.5,-1007.97 486.5,-1007.97 486.5,-988.97 364.5,-988.97"/>
<text text-anchor="middle" x="425.5" y="-995.97" font-family="Helvetica,sans-Serif" font-size="10.00">TUtilities::LoadFileString</text>
</a>
</g>
</g>
<!-- Node1&#45;&gt;Node11 -->
<g id="edge20" class="edge">
<title>Node1&#45;&gt;Node11</title>
<path fill="none" stroke="midnightblue" d="M75.69,-773.27C84.68,-804.1 116.75,-899.7 180,-945.47 207.42,-965.3 292.04,-980.63 354.08,-989.58"/>
<polygon fill="midnightblue" stroke="midnightblue" points="353.82,-993.08 364.22,-991.02 354.81,-986.15 353.82,-993.08"/>
</g>
<!-- Node12 -->
<g id="node12" class="node">
<title>Node12</title>
<g id="a_node12"><a xlink:href="class_t_utilities.html#a84bf39701305cf4814377d178d0fec8c" target="_top" xlink:title="loads an int value from the file">
<polygon fill="white" stroke="black" points="192.5,-550.97 192.5,-569.97 299.5,-569.97 299.5,-550.97 192.5,-550.97"/>
<text text-anchor="middle" x="246" y="-557.97" font-family="Helvetica,sans-Serif" font-size="10.00">TUtilities::LoadFileInt</text>
</a>
</g>
</g>
<!-- Node1&#45;&gt;Node12 -->
<g id="edge19" class="edge">
<title>Node1&#45;&gt;Node12</title>
<path fill="none" stroke="midnightblue" d="M75.8,-753.74C85.11,-723.14 118.02,-627.99 180,-579.47 182.42,-577.57 185.03,-575.86 187.75,-574.33"/>
<polygon fill="midnightblue" stroke="midnightblue" points="189.3,-577.47 196.79,-569.98 186.27,-571.16 189.3,-577.47"/>
</g>
<!-- Node13 -->
<g id="node13" class="node">
<title>Node13</title>
<g id="a_node13"><a xlink:href="class_t_train.html#af92ae73f1be23475e7ae424306cd4866" target="_top" xlink:title="Store the background bitmap pointer (BackgroundPtr &#45; see above) prior to being overwritten by the tra...">
<polygon fill="white" stroke="black" points="180,-589.47 180,-619.47 312,-619.47 312,-589.47 180,-589.47"/>
<text text-anchor="start" x="188" y="-607.47" font-family="Helvetica,sans-Serif" font-size="10.00">TTrain::PickUpBackground</text>
<text text-anchor="middle" x="246" y="-596.47" font-family="Helvetica,sans-Serif" font-size="10.00">Bitmap</text>
</a>
</g>
</g>
<!-- Node1&#45;&gt;Node13 -->
<g id="edge21" class="edge">
<title>Node1&#45;&gt;Node13</title>
<path fill="none" stroke="midnightblue" d="M83.5,-753.76C110.53,-728.77 183.06,-661.72 221.05,-626.61"/>
<polygon fill="midnightblue" stroke="midnightblue" points="223.63,-628.98 228.6,-619.63 218.88,-623.84 223.63,-628.98"/>
</g>
<!-- Node22 -->
<g id="node22" class="node">
<title>Node22</title>
<g id="a_node22"><a xlink:href="class_t_track.html#ad377e5a1f152f2e89832c0f9bcfd261f" target="_top" xlink:title="A range&#45;checked version of TrackElement.at(At)">
<polygon fill="white" stroke="black" points="764.5,-369.97 764.5,-388.97 886.5,-388.97 886.5,-369.97 764.5,-369.97"/>
<text text-anchor="middle" x="825.5" y="-376.97" font-family="Helvetica,sans-Serif" font-size="10.00">TTrack::TrackElementAt</text>
</a>
</g>
</g>
<!-- Node1&#45;&gt;Node22 -->
<g id="edge66" class="edge">
<title>Node1&#45;&gt;Node22</title>
<path fill="none" stroke="midnightblue" d="M75.69,-753.53C85.1,-720.2 119.34,-610.62 180,-541.47 238.86,-474.37 265.39,-465.24 348,-431.47 483.82,-375.94 658.6,-372.24 754.23,-375.31"/>
<polygon fill="midnightblue" stroke="midnightblue" points="754.25,-378.81 764.36,-375.67 754.5,-371.81 754.25,-378.81"/>
</g>
<!-- Node23 -->
<g id="node23" class="node">
<title>Node23</title>
<g id="a_node23"><a xlink:href="class_t_train.html#a594228489e522dfde0ffbe124cd27103" target="_top" xlink:title="Set the four HeadCodeGrPtr[4] pointers to the appropriate character graphics with the current backgro...">
<polygon fill="white" stroke="black" points="351.5,-227.97 351.5,-246.97 499.5,-246.97 499.5,-227.97 351.5,-227.97"/>
<text text-anchor="middle" x="425.5" y="-234.97" font-family="Helvetica,sans-Serif" font-size="10.00">TTrain::SetHeadCodeGraphics</text>
</a>
</g>
</g>
<!-- Node1&#45;&gt;Node23 -->
<g id="edge52" class="edge">
<title>Node1&#45;&gt;Node23</title>
<path fill="none" stroke="midnightblue" d="M72.9,-753.87C72.88,-706.17 78.66,-491.93 180,-365.47 230.59,-302.33 320.82,-266.79 376.39,-249.92"/>
<polygon fill="midnightblue" stroke="midnightblue" points="377.4,-253.26 386,-247.07 375.42,-246.55 377.4,-253.26"/>
</g>
<!-- Node3&#45;&gt;Node2 -->
<g id="edge3" class="edge">
<title>Node3&#45;&gt;Node2</title>
<path fill="none" stroke="midnightblue" d="M896.8,-948.39C900.98,-945.61 904.78,-942.33 908,-938.47 952.38,-885.17 929.11,-696.2 944,-628.47 958.2,-563.85 985.67,-490.24 999.15,-455.95"/>
<polygon fill="midnightblue" stroke="midnightblue" points="1002.56,-456.85 1003,-446.26 996.05,-454.26 1002.56,-456.85"/>
</g>
<!-- Node3&#45;&gt;Node4 -->
<g id="edge4" class="edge">
<title>Node3&#45;&gt;Node4</title>
<path fill="none" stroke="midnightblue" d="M894.76,-948.25C899.57,-945.51 904.07,-942.28 908,-938.47 987.05,-861.77 1002.99,-719.6 1006.19,-667.37"/>
<polygon fill="midnightblue" stroke="midnightblue" points="1009.7,-667.3 1006.72,-657.14 1002.71,-666.94 1009.7,-667.3"/>
</g>
<!-- Node5&#45;&gt;Node2 -->
<g id="edge6" class="edge">
<title>Node5&#45;&gt;Node2</title>
<path fill="none" stroke="midnightblue" d="M484.91,-850.45C599.04,-820.1 845.92,-749.19 908,-688.47 942.98,-654.25 986.54,-509.02 1001.59,-455.97"/>
<polygon fill="midnightblue" stroke="midnightblue" points="1005.02,-456.69 1004.36,-446.12 998.28,-454.8 1005.02,-456.69"/>
</g>
<!-- Node5&#45;&gt;Node4 -->
<g id="edge7" class="edge">
<title>Node5&#45;&gt;Node4</title>
<path fill="none" stroke="midnightblue" d="M445.72,-880.55C515.31,-933.26 757.98,-1100.04 908,-987.47 960.99,-947.7 994.93,-733.89 1004.33,-667.29"/>
<polygon fill="midnightblue" stroke="midnightblue" points="1007.82,-667.65 1005.72,-657.27 1000.88,-666.69 1007.82,-667.65"/>
</g>
<!-- Node6 -->
<g id="node6" class="node">
<title>Node6</title>
<g id="a_node6"><a xlink:href="class_t_track.html#addd8e149e66c99a295541c9eda13eae4" target="_top" xlink:title="True if a non&#45;empty LocationName found as a timetabled location name i.e. not as a continuation name.">
<polygon fill="white" stroke="black" points="757.5,-899.47 757.5,-929.47 893.5,-929.47 893.5,-899.47 757.5,-899.47"/>
<text text-anchor="start" x="765.5" y="-917.47" font-family="Helvetica,sans-Serif" font-size="10.00">TTrack::TimetabledLocation</text>
<text text-anchor="middle" x="825.5" y="-906.47" font-family="Helvetica,sans-Serif" font-size="10.00">NameAllocated</text>
</a>
</g>
</g>
<!-- Node5&#45;&gt;Node6 -->
<g id="edge8" class="edge">
<title>Node5&#45;&gt;Node6</title>
<path fill="none" stroke="midnightblue" d="M490.21,-880.48C506.08,-883.82 523.1,-887.08 539,-889.47 609.09,-899.97 689.58,-906.52 747.19,-910.27"/>
<polygon fill="midnightblue" stroke="midnightblue" points="747.11,-913.77 757.31,-910.92 747.55,-906.79 747.11,-913.77"/>
</g>
<!-- Node7 -->
<g id="node7" class="node">
<title>Node7</title>
<g id="a_node7"><a xlink:href="class_t_train_controller.html#a68d2124bc8f7df43e973299e0afb3dcd" target="_top" xlink:title="Sends a message to the user if GiveMessages is true, including ServiceReference (see above) if not nu...">
<polygon fill="white" stroke="black" points="557,-850.47 557,-880.47 689,-880.47 689,-850.47 557,-850.47"/>
<text text-anchor="start" x="565" y="-868.47" font-family="Helvetica,sans-Serif" font-size="10.00">TTrainController::Timetable</text>
<text text-anchor="middle" x="623" y="-857.47" font-family="Helvetica,sans-Serif" font-size="10.00">Message</text>
</a>
</g>
</g>
<!-- Node5&#45;&gt;Node7 -->
<g id="edge11" class="edge">
<title>Node5&#45;&gt;Node7</title>
<path fill="none" stroke="midnightblue" d="M503.21,-865.47C517.49,-865.47 532.41,-865.47 546.66,-865.47"/>
<polygon fill="midnightblue" stroke="midnightblue" points="546.9,-868.97 556.9,-865.47 546.9,-861.97 546.9,-868.97"/>
</g>
<!-- Node6&#45;&gt;Node2 -->
<g id="edge9" class="edge">
<title>Node6&#45;&gt;Node2</title>
<path fill="none" stroke="midnightblue" d="M893.69,-901.19C899.07,-898.05 903.97,-894.2 908,-889.47 945.95,-844.88 930.82,-685.51 944,-628.47 958.89,-564 986.03,-490.32 999.29,-455.98"/>
<polygon fill="midnightblue" stroke="midnightblue" points="1002.71,-456.87 1003.08,-446.28 996.18,-454.32 1002.71,-456.87"/>
</g>
<!-- Node6&#45;&gt;Node4 -->
<g id="edge10" class="edge">
<title>Node6&#45;&gt;Node4</title>
<path fill="none" stroke="midnightblue" d="M893.71,-899.42C898.88,-896.64 903.74,-893.36 908,-889.47 975.67,-827.67 998.18,-712.83 1004.67,-667.05"/>
<polygon fill="midnightblue" stroke="midnightblue" points="1008.16,-667.34 1005.99,-656.97 1001.22,-666.43 1008.16,-667.34"/>
</g>
<!-- Node8 -->
<g id="node8" class="node">
<title>Node8</title>
<g id="a_node8"><a xlink:href="class_t_train_controller.html#a1ccd6c8f2c24e7417889e1a91cb9ca2f" target="_top" xlink:title="Returns true if the headcode complies with requirements.">
<polygon fill="white" stroke="black" points="755.5,-850.47 755.5,-880.47 895.5,-880.47 895.5,-850.47 755.5,-850.47"/>
<text text-anchor="start" x="763.5" y="-868.47" font-family="Helvetica,sans-Serif" font-size="10.00">TTrainController::CheckHead</text>
<text text-anchor="middle" x="825.5" y="-857.47" font-family="Helvetica,sans-Serif" font-size="10.00">CodeValidity</text>
</a>
</g>
</g>
<!-- Node7&#45;&gt;Node8 -->
<g id="edge12" class="edge">
<title>Node7&#45;&gt;Node8</title>
<path fill="none" stroke="midnightblue" d="M689.1,-859.1C706.95,-858.69 726.5,-858.61 745.05,-858.85"/>
<polygon fill="midnightblue" stroke="midnightblue" points="745.19,-862.35 755.24,-859.01 745.3,-855.35 745.19,-862.35"/>
</g>
<!-- Node8&#45;&gt;Node2 -->
<g id="edge13" class="edge">
<title>Node8&#45;&gt;Node2</title>
<path fill="none" stroke="midnightblue" d="M836.25,-850.39C852.58,-824.69 885.87,-770.41 908,-721.47 930.66,-671.35 982.76,-511.68 1000.75,-455.91"/>
<polygon fill="midnightblue" stroke="midnightblue" points="1004.15,-456.8 1003.88,-446.21 997.48,-454.65 1004.15,-456.8"/>
</g>
<!-- Node8&#45;&gt;Node4 -->
<g id="edge14" class="edge">
<title>Node8&#45;&gt;Node4</title>
<path fill="none" stroke="midnightblue" d="M884.28,-850.31C892.83,-846.4 901.08,-841.53 908,-835.47 961.79,-788.34 990.89,-704.78 1001.84,-666.99"/>
<polygon fill="midnightblue" stroke="midnightblue" points="1005.25,-667.79 1004.56,-657.21 998.51,-665.91 1005.25,-667.79"/>
</g>
<!-- Node8&#45;&gt;Node7 -->
<g id="edge15" class="edge">
<title>Node8&#45;&gt;Node7</title>
<path fill="none" stroke="midnightblue" d="M755.24,-871.92C737.15,-872.28 717.56,-872.31 699.17,-872.02"/>
<polygon fill="midnightblue" stroke="midnightblue" points="699.16,-868.52 689.1,-871.83 699.03,-875.52 699.16,-868.52"/>
</g>
<!-- Node10&#45;&gt;Node11 -->
<g id="edge18" class="edge">
<title>Node10&#45;&gt;Node11</title>
<path fill="none" stroke="midnightblue" d="M309.58,-1004.29C324.02,-1003.56 339.46,-1002.78 354.2,-1002.03"/>
<polygon fill="midnightblue" stroke="midnightblue" points="354.46,-1005.52 364.27,-1001.52 354.11,-998.53 354.46,-1005.52"/>
</g>
<!-- Node13&#45;&gt;Node2 -->
<g id="edge37" class="edge">
<title>Node13&#45;&gt;Node2</title>
<path fill="none" stroke="midnightblue" d="M301.57,-589.39C305.54,-586.62 309.11,-583.34 312,-579.47 374.43,-495.63 277.27,-187.43 348,-110.47 390.21,-64.54 858.47,-32.55 908,-70.47 964.69,-113.86 996.39,-346.51 1004.75,-416.52"/>
<polygon fill="midnightblue" stroke="midnightblue" points="1001.29,-417.11 1005.93,-426.64 1008.25,-416.3 1001.29,-417.11"/>
</g>
<!-- Node13&#45;&gt;Node4 -->
<g id="edge50" class="edge">
<title>Node13&#45;&gt;Node4</title>
<path fill="none" stroke="midnightblue" d="M276.39,-619.58C296.2,-629.25 323.15,-641.45 348,-649.47 518.65,-704.49 564.64,-713.15 743,-731.47 815.95,-738.96 839.16,-756.74 908,-731.47 943.92,-718.28 975.73,-685.65 993.09,-665.16"/>
<polygon fill="midnightblue" stroke="midnightblue" points="995.98,-667.16 999.62,-657.21 990.57,-662.72 995.98,-667.16"/>
</g>
<!-- Node14 -->
<g id="node14" class="node">
<title>Node14</title>
<g id="a_node14"><a xlink:href="class_t_track.html#af0a13922e664c99defc573f080956bb9" target="_top" xlink:title="Checks BarrierDownVector and returns true if there is one that is linked to the LC at H &amp; V positions...">
<polygon fill="white" stroke="black" points="362.5,-567.47 362.5,-597.47 488.5,-597.47 488.5,-567.47 362.5,-567.47"/>
<text text-anchor="start" x="370.5" y="-585.47" font-family="Helvetica,sans-Serif" font-size="10.00">TTrack::AnyLinkedBarrier</text>
<text text-anchor="middle" x="425.5" y="-574.47" font-family="Helvetica,sans-Serif" font-size="10.00">DownVectorManual</text>
</a>
</g>
</g>
<!-- Node13&#45;&gt;Node14 -->
<g id="edge22" class="edge">
<title>Node13&#45;&gt;Node14</title>
<path fill="none" stroke="midnightblue" d="M312.09,-596.4C325.17,-594.78 339,-593.06 352.32,-591.41"/>
<polygon fill="midnightblue" stroke="midnightblue" points="352.88,-594.87 362.38,-590.16 352.02,-587.92 352.88,-594.87"/>
</g>
<!-- Node17 -->
<g id="node17" class="node">
<title>Node17</title>
<g id="a_node17"><a xlink:href="class_t_track.html#a418966e6fefb71b9d0c9b941197832da" target="_top" xlink:title="Similar to GetVectorPositionFromTrackMap but for inactive elements, a pair is returned because there ...">
<polygon fill="white" stroke="black" points="757,-610.47 757,-640.47 894,-640.47 894,-610.47 757,-610.47"/>
<text text-anchor="start" x="765" y="-628.47" font-family="Helvetica,sans-Serif" font-size="10.00">TTrack::GetVectorPositions</text>
<text text-anchor="middle" x="825.5" y="-617.47" font-family="Helvetica,sans-Serif" font-size="10.00">FromInactiveTrackMap</text>
</a>
</g>
</g>
<!-- Node13&#45;&gt;Node17 -->
<g id="edge48" class="edge">
<title>Node13&#45;&gt;Node17</title>
<path fill="none" stroke="midnightblue" d="M312.12,-606.83C419.22,-610.73 632.05,-618.47 746.82,-622.64"/>
<polygon fill="midnightblue" stroke="midnightblue" points="746.82,-626.14 756.94,-623.01 747.08,-619.15 746.82,-626.14"/>
</g>
<!-- Node18 -->
<g id="node18" class="node">
<title>Node18</title>
<g id="a_node18"><a xlink:href="class_t_track.html#a51f89cf70e94b037f6378cd78003d82b" target="_top" xlink:title="A range&#45;checked version of InactiveTrackElement.at(At)">
<polygon fill="white" stroke="black" points="748.5,-659.97 748.5,-678.97 902.5,-678.97 902.5,-659.97 748.5,-659.97"/>
<text text-anchor="middle" x="825.5" y="-666.97" font-family="Helvetica,sans-Serif" font-size="10.00">TTrack::InactiveTrackElementAt</text>
</a>
</g>
</g>
<!-- Node13&#45;&gt;Node18 -->
<g id="edge49" class="edge">
<title>Node13&#45;&gt;Node18</title>
<path fill="none" stroke="midnightblue" d="M312,-619.11C323.93,-621.47 336.31,-623.72 348,-625.47 483.56,-645.75 642.31,-658.16 738.05,-664.43"/>
<polygon fill="midnightblue" stroke="midnightblue" points="738.05,-667.93 748.26,-665.09 738.5,-660.95 738.05,-667.93"/>
</g>
<!-- Node19 -->
<g id="node19" class="node">
<title>Node19</title>
<g id="a_node19"><a xlink:href="class_t_track.html#a28019284fc6a90e06fc4b27e011484fa" target="_top" xlink:title="Return a pointer to the point fillet (the bit that appears to move when points are changed) for the p...">
<polygon fill="white" stroke="black" points="764.5,-79.97 764.5,-98.97 886.5,-98.97 886.5,-79.97 764.5,-79.97"/>
<text text-anchor="middle" x="825.5" y="-86.97" font-family="Helvetica,sans-Serif" font-size="10.00">TTrack::GetFilletGraphic</text>
</a>
</g>
</g>
<!-- Node13&#45;&gt;Node19 -->
<g id="edge38" class="edge">
<title>Node13&#45;&gt;Node19</title>
<path fill="none" stroke="midnightblue" d="M301.47,-589.32C305.46,-586.56 309.07,-583.31 312,-579.47 409.77,-451.25 256.38,-351.15 348,-218.47 437.63,-88.66 644.7,-78.82 754,-83.55"/>
<polygon fill="midnightblue" stroke="midnightblue" points="754.11,-87.06 764.27,-84.05 754.45,-80.07 754.11,-87.06"/>
</g>
<!-- Node21 -->
<g id="node21" class="node">
<title>Node21</title>
<g id="a_node21"><a xlink:href="class_t_all_routes.html#afbb161c646677f13755041b895a23982" target="_top" xlink:title="Examines Route2MultiMap for the element at TrackVectorPosition with LinkPos (can be entry or exit).">
<polygon fill="white" stroke="black" points="557,-446.47 557,-476.47 689,-476.47 689,-446.47 557,-446.47"/>
<text text-anchor="start" x="565" y="-464.47" font-family="Helvetica,sans-Serif" font-size="10.00">TAllRoutes::GetRouteType</text>
<text text-anchor="middle" x="623" y="-453.47" font-family="Helvetica,sans-Serif" font-size="10.00">AndGraphics</text>
</a>
</g>
</g>
<!-- Node13&#45;&gt;Node21 -->
<g id="edge42" class="edge">
<title>Node13&#45;&gt;Node21</title>
<path fill="none" stroke="midnightblue" d="M289.44,-589.42C297.05,-586.36 304.84,-582.99 312,-579.47 328.82,-571.18 331.06,-565.5 348,-557.47 417.82,-524.36 502.27,-496.48 558.79,-479.44"/>
<polygon fill="midnightblue" stroke="midnightblue" points="560.09,-482.7 568.66,-476.48 558.08,-476 560.09,-482.7"/>
</g>
<!-- Node13&#45;&gt;Node22 -->
<g id="edge51" class="edge">
<title>Node13&#45;&gt;Node22</title>
<path fill="none" stroke="midnightblue" d="M298.4,-589.42C303.36,-586.63 308.01,-583.34 312,-579.47 341.73,-550.6 317.18,-521.16 348,-493.47 407.47,-440.01 636.62,-403.58 754.12,-388"/>
<polygon fill="midnightblue" stroke="midnightblue" points="754.65,-391.47 764.11,-386.69 753.74,-384.52 754.65,-391.47"/>
</g>
<!-- Node14&#45;&gt;Node2 -->
<g id="edge23" class="edge">
<title>Node14&#45;&gt;Node2</title>
<path fill="none" stroke="midnightblue" d="M474.1,-567.38C530.26,-549.26 626.23,-517.31 707,-485.47 723.29,-479.04 726.13,-474.16 743,-469.47 809.68,-450.92 888.75,-442.78 942.86,-439.21"/>
<polygon fill="midnightblue" stroke="midnightblue" points="943.24,-442.7 953,-438.58 942.8,-435.71 943.24,-442.7"/>
</g>
<!-- Node14&#45;&gt;Node4 -->
<g id="edge36" class="edge">
<title>Node14&#45;&gt;Node4</title>
<path fill="none" stroke="midnightblue" d="M453.34,-597.49C506.57,-626.32 630.13,-688.51 743,-710.47 814.98,-724.47 837.59,-730.97 908,-710.47 939.21,-701.38 969.98,-679.14 988.72,-663.68"/>
<polygon fill="midnightblue" stroke="midnightblue" points="991.09,-666.26 996.45,-657.13 986.56,-660.93 991.09,-666.26"/>
</g>
<!-- Node15 -->
<g id="node15" class="node">
<title>Node15</title>
<g id="a_node15"><a xlink:href="class_t_track.html#a6635891513167223f4b9aadd0121c312" target="_top" xlink:title="True if there is a vector entry at H &amp; V that is set to manual (TypeOfRoute == 2) and returns the vec...">
<polygon fill="white" stroke="black" points="755.5,-522.47 755.5,-552.47 895.5,-552.47 895.5,-522.47 755.5,-522.47"/>
<text text-anchor="start" x="763.5" y="-540.47" font-family="Helvetica,sans-Serif" font-size="10.00">TTrack::IsBarrierDownVector</text>
<text text-anchor="middle" x="825.5" y="-529.47" font-family="Helvetica,sans-Serif" font-size="10.00">AtHVManual</text>
</a>
</g>
</g>
<!-- Node14&#45;&gt;Node15 -->
<g id="edge24" class="edge">
<title>Node14&#45;&gt;Node15</title>
<path fill="none" stroke="midnightblue" d="M488.68,-575.24C505.05,-573.35 522.69,-571.32 539,-569.47 608.66,-561.54 687.89,-552.67 745.19,-546.28"/>
<polygon fill="midnightblue" stroke="midnightblue" points="745.71,-549.74 755.26,-545.16 744.94,-542.79 745.71,-549.74"/>
</g>
<!-- Node16 -->
<g id="node16" class="node">
<title>Node16</title>
<g id="a_node16"><a xlink:href="class_t_track.html#a73e781d0ada0b77618b886557f79b115" target="_top" xlink:title="True if a level crossing is found at H &amp; V.">
<polygon fill="white" stroke="black" points="575.5,-578.97 575.5,-597.97 670.5,-597.97 670.5,-578.97 575.5,-578.97"/>
<text text-anchor="middle" x="623" y="-585.97" font-family="Helvetica,sans-Serif" font-size="10.00">TTrack::IsLCAtHV</text>
</a>
</g>
</g>
<!-- Node14&#45;&gt;Node16 -->
<g id="edge27" class="edge">
<title>Node14&#45;&gt;Node16</title>
<path fill="none" stroke="midnightblue" d="M488.63,-584.37C513.18,-585.13 541.21,-585.99 565.22,-586.72"/>
<polygon fill="midnightblue" stroke="midnightblue" points="565.13,-590.22 575.24,-587.03 565.35,-583.22 565.13,-590.22"/>
</g>
<!-- Node15&#45;&gt;Node2 -->
<g id="edge25" class="edge">
<title>Node15&#45;&gt;Node2</title>
<path fill="none" stroke="midnightblue" d="M873.99,-522.43C885.39,-518.16 897.34,-513.11 908,-507.47 937.66,-491.74 968.59,-468.23 987.82,-452.63"/>
<polygon fill="midnightblue" stroke="midnightblue" points="990.29,-455.13 995.78,-446.07 985.84,-449.72 990.29,-455.13"/>
</g>
<!-- Node15&#45;&gt;Node4 -->
<g id="edge26" class="edge">
<title>Node15&#45;&gt;Node4</title>
<path fill="none" stroke="midnightblue" d="M875.51,-552.55C886.51,-556.74 897.9,-561.74 908,-567.47 939.47,-585.33 971.19,-613.07 989.96,-630.75"/>
<polygon fill="midnightblue" stroke="midnightblue" points="987.76,-633.48 997.4,-637.87 992.6,-628.43 987.76,-633.48"/>
</g>
<!-- Node16&#45;&gt;Node2 -->
<g id="edge28" class="edge">
<title>Node16&#45;&gt;Node2</title>
<path fill="none" stroke="midnightblue" d="M636.12,-578.88C656.86,-562.9 700.99,-530.81 743,-512.47 812.45,-482.14 835.35,-491.01 908,-469.47 928.76,-463.31 951.71,-455.71 970.29,-449.35"/>
<polygon fill="midnightblue" stroke="midnightblue" points="971.53,-452.63 979.84,-446.06 969.25,-446.01 971.53,-452.63"/>
</g>
<!-- Node16&#45;&gt;Node4 -->
<g id="edge35" class="edge">
<title>Node16&#45;&gt;Node4</title>
<path fill="none" stroke="midnightblue" d="M631.31,-598.07C648.18,-619.35 692.29,-669.99 743,-688.47 811.9,-713.57 836.08,-702.77 908,-688.47 933.75,-683.34 961.21,-671.4 980.65,-661.72"/>
<polygon fill="midnightblue" stroke="midnightblue" points="982.47,-664.73 989.78,-657.05 979.28,-658.49 982.47,-664.73"/>
</g>
<!-- Node16&#45;&gt;Node17 -->
<g id="edge29" class="edge">
<title>Node16&#45;&gt;Node17</title>
<path fill="none" stroke="midnightblue" d="M670.5,-597.05C693.17,-601.23 721.05,-606.38 746.83,-611.13"/>
<polygon fill="midnightblue" stroke="midnightblue" points="746.5,-614.63 756.97,-613 747.77,-607.75 746.5,-614.63"/>
</g>
<!-- Node16&#45;&gt;Node18 -->
<g id="edge32" class="edge">
<title>Node16&#45;&gt;Node18</title>
<path fill="none" stroke="midnightblue" d="M639.63,-597.98C661.88,-611.17 704.28,-635.02 743,-649.47 750.85,-652.39 759.28,-655.02 767.64,-657.32"/>
<polygon fill="midnightblue" stroke="midnightblue" points="766.83,-660.73 777.39,-659.88 768.6,-653.95 766.83,-660.73"/>
</g>
<!-- Node17&#45;&gt;Node2 -->
<g id="edge30" class="edge">
<title>Node17&#45;&gt;Node2</title>
<path fill="none" stroke="midnightblue" d="M848.4,-610.44C865.5,-598.21 889.39,-580 908,-561.47 942.94,-526.67 977.19,-479.78 994.79,-454.47"/>
<polygon fill="midnightblue" stroke="midnightblue" points="997.71,-456.41 1000.49,-446.18 991.94,-452.44 997.71,-456.41"/>
</g>
<!-- Node17&#45;&gt;Node4 -->
<g id="edge31" class="edge">
<title>Node17&#45;&gt;Node4</title>
<path fill="none" stroke="midnightblue" d="M894.23,-633.72C910.14,-635.66 927.06,-637.72 942.82,-639.64"/>
<polygon fill="midnightblue" stroke="midnightblue" points="942.64,-643.15 952.99,-640.88 943.48,-636.2 942.64,-643.15"/>
</g>
<!-- Node18&#45;&gt;Node2 -->
<g id="edge33" class="edge">
<title>Node18&#45;&gt;Node2</title>
<path fill="none" stroke="midnightblue" d="M890.19,-659.94C896.62,-657.24 902.71,-653.81 908,-649.47 970.45,-598.11 995.55,-498.53 1003.7,-456.23"/>
<polygon fill="midnightblue" stroke="midnightblue" points="1007.15,-456.81 1005.49,-446.34 1000.26,-455.56 1007.15,-456.81"/>
</g>
<!-- Node18&#45;&gt;Node4 -->
<g id="edge34" class="edge">
<title>Node18&#45;&gt;Node4</title>
<path fill="none" stroke="midnightblue" d="M902.53,-660.2C915.91,-658.57 929.71,-656.89 942.73,-655.3"/>
<polygon fill="midnightblue" stroke="midnightblue" points="943.48,-658.73 952.98,-654.05 942.63,-651.78 943.48,-658.73"/>
</g>
<!-- Node19&#45;&gt;Node2 -->
<g id="edge39" class="edge">
<title>Node19&#45;&gt;Node2</title>
<path fill="none" stroke="midnightblue" d="M885.19,-99.01C893.63,-102.46 901.6,-107.14 908,-113.47 995.21,-199.72 1006,-360.59 1007.03,-416.62"/>
<polygon fill="midnightblue" stroke="midnightblue" points="1003.53,-416.95 1007.12,-426.92 1010.53,-416.88 1003.53,-416.95"/>
</g>
<!-- Node19&#45;&gt;Node4 -->
<g id="edge41" class="edge">
<title>Node19&#45;&gt;Node4</title>
<path fill="none" stroke="midnightblue" d="M849.64,-99.07C868.68,-108.27 894.63,-124.08 908,-146.47 978.88,-265.18 914.3,-320.43 944,-455.47 958.21,-520.08 985.68,-593.69 999.15,-627.98"/>
<polygon fill="midnightblue" stroke="midnightblue" points="996.06,-629.67 1003,-637.67 1002.56,-627.08 996.06,-629.67"/>
</g>
<!-- Node20 -->
<g id="node20" class="node">
<title>Node20</title>
<g id="a_node20"><a xlink:href="class_t_track_element.html#a100bff829c4dca820927affde4cb9e57" target="_top" xlink:title="Used to log track parameters for call stack logging.">
<polygon fill="white" stroke="black" points="944,-79.97 944,-98.97 1072,-98.97 1072,-79.97 944,-79.97"/>
<text text-anchor="middle" x="1008" y="-86.97" font-family="Helvetica,sans-Serif" font-size="10.00">TTrackElement::LogTrack</text>
</a>
</g>
</g>
<!-- Node19&#45;&gt;Node20 -->
<g id="edge40" class="edge">
<title>Node19&#45;&gt;Node20</title>
<path fill="none" stroke="midnightblue" d="M886.6,-89.47C901.66,-89.47 917.99,-89.47 933.61,-89.47"/>
<polygon fill="midnightblue" stroke="midnightblue" points="933.76,-92.97 943.76,-89.47 933.76,-85.97 933.76,-92.97"/>
</g>
<!-- Node21&#45;&gt;Node2 -->
<g id="edge43" class="edge">
<title>Node21&#45;&gt;Node2</title>
<path fill="none" stroke="midnightblue" d="M689.24,-448.72C706.64,-445.81 725.48,-443.09 743,-441.47 810.97,-435.14 889.18,-434.49 942.73,-435.04"/>
<polygon fill="midnightblue" stroke="midnightblue" points="942.73,-438.54 952.77,-435.16 942.81,-431.54 942.73,-438.54"/>
</g>
<!-- Node21&#45;&gt;Node4 -->
<g id="edge44" class="edge">
<title>Node21&#45;&gt;Node4</title>
<path fill="none" stroke="midnightblue" d="M637.42,-476.54C657.94,-498.63 699.35,-539.54 743,-561.47 810.34,-595.29 836.9,-575.5 908,-600.47 933.45,-609.4 961.08,-622.86 980.67,-633.09"/>
<polygon fill="midnightblue" stroke="midnightblue" points="979.12,-636.22 989.59,-637.81 982.4,-630.04 979.12,-636.22"/>
</g>
<!-- Node21&#45;&gt;Node22 -->
<g id="edge45" class="edge">
<title>Node21&#45;&gt;Node22</title>
<path fill="none" stroke="midnightblue" d="M673.84,-446.33C685.04,-442.15 696.67,-437.16 707,-431.47 724.75,-421.68 724.96,-412.71 743,-403.47 751.86,-398.92 761.71,-395.11 771.42,-391.95"/>
<polygon fill="midnightblue" stroke="midnightblue" points="772.5,-395.28 781.04,-389.01 770.45,-388.59 772.5,-395.28"/>
</g>
<!-- Node22&#45;&gt;Node2 -->
<g id="edge46" class="edge">
<title>Node22&#45;&gt;Node2</title>
<path fill="none" stroke="midnightblue" d="M859.89,-389.01C874.67,-393.31 892.24,-398.52 908,-403.47 928.51,-409.9 951.28,-417.46 969.81,-423.72"/>
<polygon fill="midnightblue" stroke="midnightblue" points="968.75,-427.06 979.35,-426.96 971,-420.43 968.75,-427.06"/>
</g>
<!-- Node22&#45;&gt;Node4 -->
<g id="edge47" class="edge">
<title>Node22&#45;&gt;Node4</title>
<path fill="none" stroke="midnightblue" d="M832.92,-389C859.29,-428.15 959.48,-576.91 994.68,-629.17"/>
<polygon fill="midnightblue" stroke="midnightblue" points="991.98,-631.42 1000.46,-637.76 997.78,-627.51 991.98,-631.42"/>
</g>
<!-- Node23&#45;&gt;Node2 -->
<g id="edge53" class="edge">
<title>Node23&#45;&gt;Node2</title>
<path fill="none" stroke="midnightblue" d="M435.97,-227.95C454.08,-210.45 495.73,-173.55 539,-158.47 616.47,-131.45 841.27,-98.73 908,-146.47 998.08,-210.9 1007.12,-362.33 1007.36,-416.64"/>
<polygon fill="midnightblue" stroke="midnightblue" points="1003.86,-416.67 1007.3,-426.69 1010.86,-416.71 1003.86,-416.67"/>
</g>
<!-- Node23&#45;&gt;Node4 -->
<g id="edge64" class="edge">
<title>Node23&#45;&gt;Node4</title>
<path fill="none" stroke="midnightblue" d="M446.82,-247.09C469.05,-257.31 505.91,-273.34 539,-283.47 559.03,-289.59 892.29,-346.62 908,-360.47 913.32,-365.15 979.57,-564.51 1000.62,-628.15"/>
<polygon fill="midnightblue" stroke="midnightblue" points="997.34,-629.37 1003.8,-637.77 1003.99,-627.18 997.34,-629.37"/>
</g>
<!-- Node24 -->
<g id="node24" class="node">
<title>Node24</title>
<g id="a_node24"><a xlink:href="class_t_rail_graphics.html#af83b21217bb1c2a229bdf14b0d2ffd0d" target="_top" xlink:title="as above but uses Scanline">
<polygon fill="white" stroke="black" points="539,-244.47 539,-274.47 707,-274.47 707,-244.47 539,-244.47"/>
<text text-anchor="start" x="547" y="-262.47" font-family="Helvetica,sans-Serif" font-size="10.00">TRailGraphics::ChangeBackground</text>
<text text-anchor="middle" x="623" y="-251.47" font-family="Helvetica,sans-Serif" font-size="10.00">Colour3</text>
</a>
</g>
</g>
<!-- Node23&#45;&gt;Node24 -->
<g id="edge54" class="edge">
<title>Node23&#45;&gt;Node24</title>
<path fill="none" stroke="midnightblue" d="M499.57,-245.69C509.07,-246.76 518.9,-247.86 528.68,-248.96"/>
<polygon fill="midnightblue" stroke="midnightblue" points="528.49,-252.46 538.82,-250.1 529.28,-245.51 528.49,-252.46"/>
</g>
<!-- Node26 -->
<g id="node26" class="node">
<title>Node26</title>
<g id="a_node26"><a xlink:href="class_t_train.html#ad7831e71f0c68933df4aea6661a77be5" target="_top" xlink:title="Return a pointer to the graphic corresponding to the character &#39;CodeVhar&#39;.">
<polygon fill="white" stroke="black" points="554,-167.97 554,-186.97 692,-186.97 692,-167.97 554,-167.97"/>
<text text-anchor="middle" x="623" y="-174.97" font-family="Helvetica,sans-Serif" font-size="10.00">TTrain::SetOneGraphicCode</text>
</a>
</g>
</g>
<!-- Node23&#45;&gt;Node26 -->
<g id="edge60" class="edge">
<title>Node23&#45;&gt;Node26</title>
<path fill="none" stroke="midnightblue" d="M455.57,-227.92C478.24,-220.53 510.55,-210.13 539,-201.47 551.68,-197.6 565.5,-193.55 578.16,-189.89"/>
<polygon fill="midnightblue" stroke="midnightblue" points="579.37,-193.18 588.01,-187.06 577.44,-186.46 579.37,-193.18"/>
</g>
<!-- Node27 -->
<g id="node27" class="node">
<title>Node27</title>
<g id="a_node27"><a xlink:href="class_t_train_controller.html#aba5615209a7dca921e968fca5c52c060" target="_top" xlink:title="sends a message to the user and stops the timetable clock while it is displayed">
<polygon fill="white" stroke="black" points="752.5,-156.47 752.5,-186.47 898.5,-186.47 898.5,-156.47 752.5,-156.47"/>
<text text-anchor="start" x="760.5" y="-174.47" font-family="Helvetica,sans-Serif" font-size="10.00">TTrainController::StopTTClock</text>
<text text-anchor="middle" x="825.5" y="-163.47" font-family="Helvetica,sans-Serif" font-size="10.00">Message</text>
</a>
</g>
</g>
<!-- Node23&#45;&gt;Node27 -->
<g id="edge61" class="edge">
<title>Node23&#45;&gt;Node27</title>
<path fill="none" stroke="midnightblue" d="M499.65,-228.09C556.38,-220.5 636.88,-209.04 707,-196.47 720.09,-194.12 733.94,-191.39 747.37,-188.62"/>
<polygon fill="midnightblue" stroke="midnightblue" points="748.47,-191.96 757.54,-186.49 747.03,-185.11 748.47,-191.96"/>
</g>
<!-- Node24&#45;&gt;Node2 -->
<g id="edge55" class="edge">
<title>Node24&#45;&gt;Node2</title>
<path fill="none" stroke="midnightblue" d="M657.66,-244.32C714.12,-221.41 829.46,-185.49 908,-234.47 973.87,-275.54 997.14,-374.61 1004.25,-416.85"/>
<polygon fill="midnightblue" stroke="midnightblue" points="1000.82,-417.61 1005.81,-426.95 1007.74,-416.53 1000.82,-417.61"/>
</g>
<!-- Node24&#45;&gt;Node4 -->
<g id="edge59" class="edge">
<title>Node24&#45;&gt;Node4</title>
<path fill="none" stroke="midnightblue" d="M694.55,-274.49C776.1,-292.14 900.19,-319.95 908,-327.47 950.6,-368.43 926.78,-398.93 944,-455.47 963.37,-519.06 988.58,-593.71 1000.37,-628.2"/>
<polygon fill="midnightblue" stroke="midnightblue" points="997.15,-629.6 1003.71,-637.92 1003.78,-627.33 997.15,-629.6"/>
</g>
<!-- Node25 -->
<g id="node25" class="node">
<title>Node25</title>
<g id="a_node25"><a xlink:href="class_t_rail_graphics.html#a654ae6c6b77e20d1625f1e52d04d9d69" target="_top" xlink:title="used in ChangeBackgroundColour3 to convert a named colour to a number for Scanline">
<polygon fill="white" stroke="black" points="760,-244.47 760,-274.47 891,-274.47 891,-244.47 760,-244.47"/>
<text text-anchor="start" x="768" y="-262.47" font-family="Helvetica,sans-Serif" font-size="10.00">TRailGraphics::ColNameto</text>
<text text-anchor="middle" x="825.5" y="-251.47" font-family="Helvetica,sans-Serif" font-size="10.00">Number</text>
</a>
</g>
</g>
<!-- Node24&#45;&gt;Node25 -->
<g id="edge56" class="edge">
<title>Node24&#45;&gt;Node25</title>
<path fill="none" stroke="midnightblue" d="M707.29,-259.47C721.26,-259.47 735.69,-259.47 749.44,-259.47"/>
<polygon fill="midnightblue" stroke="midnightblue" points="749.81,-262.97 759.81,-259.47 749.81,-255.97 749.81,-262.97"/>
</g>
<!-- Node25&#45;&gt;Node2 -->
<g id="edge57" class="edge">
<title>Node25&#45;&gt;Node2</title>
<path fill="none" stroke="midnightblue" d="M882.03,-274.54C891.24,-278.5 900.29,-283.41 908,-289.47 953.02,-324.79 984.87,-386.37 998.93,-417.42"/>
<polygon fill="midnightblue" stroke="midnightblue" points="995.78,-418.95 1003.01,-426.69 1002.19,-416.13 995.78,-418.95"/>
</g>
<!-- Node25&#45;&gt;Node4 -->
<g id="edge58" class="edge">
<title>Node25&#45;&gt;Node4</title>
<path fill="none" stroke="midnightblue" d="M888.67,-274.55C895.94,-278.44 902.66,-283.32 908,-289.47 957.54,-346.43 924.21,-382.61 944,-455.47 961.35,-519.31 987.33,-593.29 999.8,-627.82"/>
<polygon fill="midnightblue" stroke="midnightblue" points="996.65,-629.38 1003.35,-637.58 1003.23,-626.99 996.65,-629.38"/>
</g>
<!-- Node27&#45;&gt;Node2 -->
<g id="edge62" class="edge">
<title>Node27&#45;&gt;Node2</title>
<path fill="none" stroke="midnightblue" d="M885.58,-186.5C893.77,-190.42 901.57,-195.32 908,-201.47 972.21,-262.78 996.57,-372.24 1004.11,-416.79"/>
<polygon fill="midnightblue" stroke="midnightblue" points="1000.69,-417.55 1005.72,-426.87 1007.6,-416.45 1000.69,-417.55"/>
</g>
<!-- Node27&#45;&gt;Node4 -->
<g id="edge63" class="edge">
<title>Node27&#45;&gt;Node4</title>
<path fill="none" stroke="midnightblue" d="M855.63,-186.48C873.66,-197.34 895.65,-213.72 908,-234.47 958.92,-319.97 920.42,-358.78 944,-455.47 959.68,-519.74 986.45,-593.51 999.46,-627.91"/>
<polygon fill="midnightblue" stroke="midnightblue" points="996.33,-629.53 1003.17,-637.63 1002.87,-627.04 996.33,-629.53"/>
</g>
</g>
</svg>
        <g id="navigator" transform="translate(0 0)" fill="#404254">
                <rect fill="#f2f5e9" fill-opacity="0.5" stroke="#606060" stroke-width=".5" x="0" y="0" width="60" height="60"/>
                <use id="zoomplus" xlink:href="#zoomPlus" x="17" y="9" onmousedown="handleZoom(evt,'in')"/>
                <use id="zoomminus" xlink:href="#zoomMin" x="42" y="9" onmousedown="handleZoom(evt,'out')"/>
                <use id="reset" xlink:href="#resetDef" x="30" y="36" onmousedown="handleReset()"/>
                <g id="arrowUp" xlink:href="#dirArrow" transform="translate(30 24)" onmousedown="handlePan(0,-1)">
                  <use xlink:href="#rim" fill="#404040">
                        <set attributeName="fill" to="#808080" begin="arrowUp.mouseover" end="arrowUp.mouseout"/>
                  </use>
                  <path fill="none" stroke="white" stroke-width="1.5" d="M0,-3.0v7 M-2.5,-0.5L0,-3.0L2.5,-0.5"/>
                </g>
                <g id="arrowRight" xlink:href="#dirArrow" transform="rotate(90) translate(36 -43)" onmousedown="handlePan(1,0)">
                  <use xlink:href="#rim" fill="#404040">
                        <set attributeName="fill" to="#808080" begin="arrowRight.mouseover" end="arrowRight.mouseout"/>
                  </use>
                  <path fill="none" stroke="white" stroke-width="1.5" d="M0,-3.0v7 M-2.5,-0.5L0,-3.0L2.5,-0.5"/>
                </g>
                <g id="arrowDown" xlink:href="#dirArrow" transform="rotate(180) translate(-30 -48)" onmousedown="handlePan(0,1)">
                  <use xlink:href="#rim" fill="#404040">
                        <set attributeName="fill" to="#808080" begin="arrowDown.mouseover" end="arrowDown.mouseout"/>
                  </use>
                  <path fill="none" stroke="white" stroke-width="1.5" d="M0,-3.0v7 M-2.5,-0.5L0,-3.0L2.5,-0.5"/>
                </g>
                <g id="arrowLeft" xlink:href="#dirArrow" transform="rotate(270) translate(-36 17)" onmousedown="handlePan(-1,0)">
                  <use xlink:href="#rim" fill="#404040">
                        <set attributeName="fill" to="#808080" begin="arrowLeft.mouseover" end="arrowLeft.mouseout"/>
                  </use>
                  <path fill="none" stroke="white" stroke-width="1.5" d="M0,-3.0v7 M-2.5,-0.5L0,-3.0L2.5,-0.5"/>
                </g>
        </g>
        <svg viewBox="0 0 15 15" width="100%" height="30px" preserveAspectRatio="xMaxYMin meet">
         <g id="arrow_out" transform="scale(0.3 0.3)">
          <a xlink:href="class_t_train_a23c65e7f2b2130ae87811f70afb6d5bf_cgraph_org.svg" target="_base">
           <rect id="button" ry="5" rx="5" y="6" x="6" height="38" width="38"
                fill="#f2f5e9" fill-opacity="0.5" stroke="#606060" stroke-width="1.0"/>
           <path id="arrow"
             d="M 11.500037,31.436501 C 11.940474,20.09759 22.043105,11.32322 32.158766,21.979434 L 37.068811,17.246167 C 37.068811,17.246167 37.088388,32 37.088388,32 L 22.160133,31.978069 C 22.160133,31.978069 26.997745,27.140456 26.997745,27.140456 C 18.528582,18.264221 13.291696,25.230495 11.500037,31.436501 z"
             style="fill:#404040;"/>
          </a>
         </g>
        </svg>
</svg>
