<?xml version="1.0" encoding="UTF-8" standalone="no"?>
<!DOCTYPE svg PUBLIC "-//W3C//DTD SVG 1.1//EN"
 "http://www.w3.org/Graphics/SVG/1.1/DTD/svg11.dtd">
<!-- Generated by graphviz version 2.44.1 (20200629.0800)
 -->
<!-- Title: TTrainController::Last2CharactersBothDigits Pages: 1 -->
<!--zoomable 708 -->
<svg id="main" version="1.1" xmlns="http://www.w3.org/2000/svg" xmlns:xlink="http://www.w3.org/1999/xlink" xml:space="preserve" onload="init(evt)">
<style type="text/css"><![CDATA[
.edge:hover path { stroke: red; }
.edge:hover polygon { stroke: red; fill: red; }
]]></style>
<script type="text/javascript"><![CDATA[
var edges = document.getElementsByTagName('g');
if (edges && edges.length) {
  for (var i=0;i<edges.length;i++) {
    if (edges[i].id.substr(0,4)=='edge') {
      edges[i].setAttribute('class','edge');
    }
  }
}
]]></script>
        <defs>
                <circle id="rim" cx="0" cy="0" r="7"/>
                <circle id="rim2" cx="0" cy="0" r="3.5"/>
                <g id="zoomPlus">
                        <use xlink:href="#rim" fill="#404040">
                                <set attributeName="fill" to="#808080" begin="zoomplus.mouseover" end="zoomplus.mouseout"/>
                        </use>
                        <path d="M-4,0h8M0,-4v8" fill="none" stroke="white" stroke-width="1.5" pointer-events="none"/>
                </g>
                <g id="zoomMin">
                        <use xlink:href="#rim" fill="#404040">
                                <set attributeName="fill" to="#808080" begin="zoomminus.mouseover" end="zoomminus.mouseout"/>
                        </use>
                        <path d="M-4,0h8" fill="none" stroke="white" stroke-width="1.5" pointer-events="none"/>
                </g>
                <g id="dirArrow">
                        <path fill="none" stroke="white" stroke-width="1.5" d="M0,-3.0v7 M-2.5,-0.5L0,-3.0L2.5,-0.5"/>
                </g>
               <g id="resetDef">
                       <use xlink:href="#rim2" fill="#404040">
                               <set attributeName="fill" to="#808080" begin="reset.mouseover" end="reset.mouseout"/>
                       </use>
               </g>
        </defs>

<script type="text/javascript">
var viewWidth = 1770;
var viewHeight = 708;
var sectionId = 'dynsection-70';
</script>
<script xlink:href="svgpan.js"/>
<svg id="graph" class="graph">
<g id="viewport">
<title>TTrainController::Last2CharactersBothDigits</title>
<polygon fill="white" stroke="transparent" points="-4,4 -4,-703.6 1766,-703.6 1766,4 -4,4"/>
<!-- Node1 -->
<g id="node1" class="node">
<title>Node1</title>
<g id="a_node1"><a xlink:title="Checks the last two characters in HeadCode and returns true if both are digits.">
<polygon fill="#bfbfbf" stroke="black" points="1601,-314.1 1601,-344.1 1762,-344.1 1762,-314.1 1601,-314.1"/>
<text text-anchor="start" x="1609" y="-332.1" font-family="Helvetica,sans-Serif" font-size="10.00">TTrainController::Last2Characters</text>
<text text-anchor="middle" x="1681.5" y="-321.1" font-family="Helvetica,sans-Serif" font-size="10.00">BothDigits</text>
</a>
</g>
</g>
<!-- Node2 -->
<g id="node2" class="node">
<title>Node2</title>
<g id="a_node2"><a xlink:href="class_t_train_controller.html#afb0e8fd36435809350cb323ab9fe2213" target="_top" xlink:title="Return the service headcode for the repeat service.">
<polygon fill="white" stroke="black" points="1426.5,-292.1 1426.5,-322.1 1563.5,-322.1 1563.5,-292.1 1426.5,-292.1"/>
<text text-anchor="start" x="1434.5" y="-310.1" font-family="Helvetica,sans-Serif" font-size="10.00">TTrainController::GetRepeat</text>
<text text-anchor="middle" x="1495" y="-299.1" font-family="Helvetica,sans-Serif" font-size="10.00">HeadCode</text>
</a>
</g>
</g>
<!-- Node1&#45;&gt;Node2 -->
<g id="edge1" class="edge">
<title>Node1&#45;&gt;Node2</title>
<path fill="none" stroke="midnightblue" d="M1590.71,-318.39C1581.63,-317.31 1572.53,-316.23 1563.74,-315.18"/>
<polygon fill="midnightblue" stroke="midnightblue" points="1590.57,-321.9 1600.92,-319.61 1591.4,-314.95 1590.57,-321.9"/>
</g>
<!-- Node35 -->
<g id="node35" class="node">
<title>Node35</title>
<g id="a_node35"><a xlink:href="class_t_train_controller.html#a03d63b7579e50c092cca3b5200d9dafb" target="_top" xlink:title="Parse a timetable repeat entry, return true for success.">
<polygon fill="white" stroke="black" points="1425,-507.6 1425,-526.6 1565,-526.6 1565,-507.6 1425,-507.6"/>
<text text-anchor="middle" x="1495" y="-514.6" font-family="Helvetica,sans-Serif" font-size="10.00">TTrainController::SplitRepeat</text>
</a>
</g>
</g>
<!-- Node1&#45;&gt;Node35 -->
<g id="edge48" class="edge">
<title>Node1&#45;&gt;Node35</title>
<path fill="none" stroke="midnightblue" d="M1658.5,-351.52C1618.22,-392.56 1534.15,-478.22 1505.67,-507.24"/>
<polygon fill="midnightblue" stroke="midnightblue" points="1661.21,-353.76 1665.71,-344.17 1656.21,-348.85 1661.21,-353.76"/>
</g>
<!-- Node3 -->
<g id="node3" class="node">
<title>Node3</title>
<g id="a_node3"><a xlink:href="class_t_train_controller.html#a0445987b1a355de3aef2c21b66d1ed8b" target="_top" xlink:title="populate the ContinuationTrainExpectationMultiMap during timetable loading">
<polygon fill="white" stroke="black" points="1219,-522.1 1219,-552.1 1385,-552.1 1385,-522.1 1219,-522.1"/>
<text text-anchor="start" x="1227" y="-540.1" font-family="Helvetica,sans-Serif" font-size="10.00">TTrainController::BuildContinuation</text>
<text text-anchor="middle" x="1302" y="-529.1" font-family="Helvetica,sans-Serif" font-size="10.00">TrainExpectationMultiMap</text>
</a>
</g>
</g>
<!-- Node2&#45;&gt;Node3 -->
<g id="edge2" class="edge">
<title>Node2&#45;&gt;Node3</title>
<path fill="none" stroke="midnightblue" d="M1488.15,-332.04C1476.71,-375.25 1447.26,-464 1389,-512.1 1384.32,-515.96 1379.08,-519.23 1373.54,-521.99"/>
<polygon fill="midnightblue" stroke="midnightblue" points="1491.55,-332.88 1490.62,-322.33 1484.76,-331.16 1491.55,-332.88"/>
</g>
<!-- Node14 -->
<g id="node14" class="node">
<title>Node14</title>
<g id="a_node14"><a xlink:href="class_t_train_controller.html#a9c531d3df66921ada4e698bcf47f72f3" target="_top" xlink:title="Build string for use in floating window for expected trains at continuations.">
<polygon fill="white" stroke="black" points="1230,-473.1 1230,-503.1 1374,-503.1 1374,-473.1 1230,-473.1"/>
<text text-anchor="start" x="1238" y="-491.1" font-family="Helvetica,sans-Serif" font-size="10.00">TTrainController::Continuation</text>
<text text-anchor="middle" x="1302" y="-480.1" font-family="Helvetica,sans-Serif" font-size="10.00">EntryFloatingTTString</text>
</a>
</g>
</g>
<!-- Node2&#45;&gt;Node14 -->
<g id="edge14" class="edge">
<title>Node2&#45;&gt;Node14</title>
<path fill="none" stroke="midnightblue" d="M1483.87,-331.95C1468.51,-366.53 1436.04,-428.76 1389,-463.1 1383.73,-466.95 1377.87,-470.21 1371.76,-472.97"/>
<polygon fill="midnightblue" stroke="midnightblue" points="1487.17,-333.14 1487.92,-322.57 1480.74,-330.37 1487.17,-333.14"/>
</g>
<!-- Node17 -->
<g id="node17" class="node">
<title>Node17</title>
<g id="a_node17"><a xlink:href="class_t_train_controller.html#a4ab4b6a568064d27c65f0770e5a5ccd0" target="_top" xlink:title="Examines the internal timetable (TrainDataVector) and creates from it a chronological (....">
<polygon fill="white" stroke="black" points="1242.5,-571.1 1242.5,-601.1 1361.5,-601.1 1361.5,-571.1 1242.5,-571.1"/>
<text text-anchor="start" x="1250.5" y="-589.1" font-family="Helvetica,sans-Serif" font-size="10.00">TTrainController::Create</text>
<text text-anchor="middle" x="1302" y="-578.1" font-family="Helvetica,sans-Serif" font-size="10.00">FormattedTimetable</text>
</a>
</g>
</g>
<!-- Node2&#45;&gt;Node17 -->
<g id="edge18" class="edge">
<title>Node2&#45;&gt;Node17</title>
<path fill="none" stroke="midnightblue" d="M1485.23,-331.79C1463.45,-392.6 1407.32,-545.83 1389,-562.1 1381.23,-569 1371.64,-573.93 1361.71,-577.45"/>
<polygon fill="midnightblue" stroke="midnightblue" points="1488.59,-332.81 1488.66,-322.21 1482,-330.45 1488.59,-332.81"/>
</g>
<!-- Node20 -->
<g id="node20" class="node">
<title>Node20</title>
<g id="a_node20"><a xlink:href="class_t_train.html#ab9edf458753619f8cd25f0165484d26f" target="_top" xlink:title="Carry out the actions needed when a train is waiting to join another train.">
<polygon fill="white" stroke="black" points="1256,-183.6 1256,-202.6 1348,-202.6 1348,-183.6 1256,-183.6"/>
<text text-anchor="middle" x="1302" y="-190.6" font-family="Helvetica,sans-Serif" font-size="10.00">TTrain::FinishJoin</text>
</a>
</g>
</g>
<!-- Node2&#45;&gt;Node20 -->
<g id="edge21" class="edge">
<title>Node2&#45;&gt;Node20</title>
<path fill="none" stroke="midnightblue" d="M1475.06,-284.13C1455.71,-262.22 1423.67,-230 1389,-212.1 1376.5,-205.65 1361.88,-201.38 1348.27,-198.56"/>
<polygon fill="midnightblue" stroke="midnightblue" points="1472.64,-286.68 1481.83,-291.96 1477.94,-282.11 1472.64,-286.68"/>
</g>
<!-- Node22 -->
<g id="node22" class="node">
<title>Node22</title>
<g id="a_node22"><a xlink:href="class_t_train_controller.html#a20a1576dea1d86ed78fc5e9f46343481" target="_top" xlink:title="called every clock tick to introduce new trains and update existing trains">
<polygon fill="white" stroke="black" points="861,-183.6 861,-202.6 986,-202.6 986,-183.6 861,-183.6"/>
<text text-anchor="middle" x="923.5" y="-190.6" font-family="Helvetica,sans-Serif" font-size="10.00">TTrainController::Operate</text>
</a>
</g>
</g>
<!-- Node2&#45;&gt;Node22 -->
<g id="edge39" class="edge">
<title>Node2&#45;&gt;Node22</title>
<path fill="none" stroke="midnightblue" d="M1492.57,-281.78C1487.98,-227.78 1468.81,-101.87 1389,-48.1 1255.2,42.04 1169.48,-8.58 1028,-86.1 982.67,-110.94 945,-162.27 930.68,-183.55"/>
<polygon fill="midnightblue" stroke="midnightblue" points="1489.08,-282.16 1493.32,-291.87 1496.07,-281.64 1489.08,-282.16"/>
</g>
<!-- Node23 -->
<g id="node23" class="node">
<title>Node23</title>
<g id="a_node23"><a xlink:href="class_t_train.html#a221da69cd80d206a06f840f4cd463cf9" target="_top" xlink:title="Used in the floating window to display the &#39;Next&#39; action.">
<polygon fill="white" stroke="black" points="1238.5,-336.1 1238.5,-366.1 1365.5,-366.1 1365.5,-336.1 1238.5,-336.1"/>
<text text-anchor="start" x="1246.5" y="-354.1" font-family="Helvetica,sans-Serif" font-size="10.00">TTrain::FloatingLabelNext</text>
<text text-anchor="middle" x="1302" y="-343.1" font-family="Helvetica,sans-Serif" font-size="10.00">String</text>
</a>
</g>
</g>
<!-- Node2&#45;&gt;Node23 -->
<g id="edge25" class="edge">
<title>Node2&#45;&gt;Node23</title>
<path fill="none" stroke="midnightblue" d="M1418.6,-324.47C1401.06,-328.51 1382.57,-332.77 1365.64,-336.67"/>
<polygon fill="midnightblue" stroke="midnightblue" points="1419.84,-327.78 1428.8,-322.12 1418.27,-320.95 1419.84,-327.78"/>
</g>
<!-- Node25 -->
<g id="node25" class="node">
<title>Node25</title>
<g id="a_node25"><a xlink:href="class_t_train.html#a81bf61b47a2867f0c6901b1ea6f47177" target="_top" xlink:title="Used in the floating window to display the timetable.">
<polygon fill="white" stroke="black" points="1239.5,-385.1 1239.5,-415.1 1364.5,-415.1 1364.5,-385.1 1239.5,-385.1"/>
<text text-anchor="start" x="1247.5" y="-403.1" font-family="Helvetica,sans-Serif" font-size="10.00">TTrain::FloatingTimetable</text>
<text text-anchor="middle" x="1302" y="-392.1" font-family="Helvetica,sans-Serif" font-size="10.00">String</text>
</a>
</g>
</g>
<!-- Node2&#45;&gt;Node25 -->
<g id="edge28" class="edge">
<title>Node2&#45;&gt;Node25</title>
<path fill="none" stroke="midnightblue" d="M1466.28,-328.27C1445.82,-343.07 1416.83,-362.38 1389,-375.1 1380.8,-378.85 1371.9,-382.18 1363.04,-385.1"/>
<polygon fill="midnightblue" stroke="midnightblue" points="1468.5,-330.98 1474.49,-322.24 1464.36,-325.34 1468.5,-330.98"/>
</g>
<!-- Node27 -->
<g id="node27" class="node">
<title>Node27</title>
<g id="a_node27"><a xlink:href="class_t_train.html#ad666fb061d1da7c44a72ec963c2098aa" target="_top" xlink:title="Carry out the actions needed when a train is to split from the front.">
<polygon fill="white" stroke="black" points="1246,-297.6 1246,-316.6 1358,-316.6 1358,-297.6 1246,-297.6"/>
<text text-anchor="middle" x="1302" y="-304.6" font-family="Helvetica,sans-Serif" font-size="10.00">TTrain::FrontTrainSplit</text>
</a>
</g>
</g>
<!-- Node2&#45;&gt;Node27 -->
<g id="edge31" class="edge">
<title>Node2&#45;&gt;Node27</title>
<path fill="none" stroke="midnightblue" d="M1416.32,-307.1C1396.85,-307.1 1376.36,-307.1 1358.24,-307.1"/>
<polygon fill="midnightblue" stroke="midnightblue" points="1416.39,-310.6 1426.39,-307.1 1416.39,-303.6 1416.39,-310.6"/>
</g>
<!-- Node28 -->
<g id="node28" class="node">
<title>Node28</title>
<g id="a_node28"><a xlink:href="class_t_train.html#a63b0884e315178879369c82ee7fd2cb8" target="_top" xlink:title="Returns the train headcode, taking account of the RepeatNumber.">
<polygon fill="white" stroke="black" points="1236.5,-434.6 1236.5,-453.6 1367.5,-453.6 1367.5,-434.6 1236.5,-434.6"/>
<text text-anchor="middle" x="1302" y="-441.6" font-family="Helvetica,sans-Serif" font-size="10.00">TTrain::GetTrainHeadCode</text>
</a>
</g>
</g>
<!-- Node2&#45;&gt;Node28 -->
<g id="edge33" class="edge">
<title>Node2&#45;&gt;Node28</title>
<path fill="none" stroke="midnightblue" d="M1479.3,-330.8C1461.36,-357.67 1428.47,-400.76 1389,-424.1 1381.61,-428.47 1373.34,-431.88 1364.92,-434.55"/>
<polygon fill="midnightblue" stroke="midnightblue" points="1482.27,-332.65 1484.8,-322.36 1476.41,-328.82 1482.27,-332.65"/>
</g>
<!-- Node29 -->
<g id="node29" class="node">
<title>Node29</title>
<g id="a_node29"><a xlink:href="class_t_train.html#a6c3479378d35f9041c38d80f03686b41" target="_top" xlink:title="Carry out the actions needed when a train is waiting to be joined by another train.">
<polygon fill="white" stroke="black" points="1257.5,-259.6 1257.5,-278.6 1346.5,-278.6 1346.5,-259.6 1257.5,-259.6"/>
<text text-anchor="middle" x="1302" y="-266.6" font-family="Helvetica,sans-Serif" font-size="10.00">TTrain::JoinedBy</text>
</a>
</g>
</g>
<!-- Node2&#45;&gt;Node29 -->
<g id="edge34" class="edge">
<title>Node2&#45;&gt;Node29</title>
<path fill="none" stroke="midnightblue" d="M1416.32,-291.65C1392.57,-286.92 1367.29,-281.89 1346.65,-277.78"/>
<polygon fill="midnightblue" stroke="midnightblue" points="1415.9,-295.13 1426.39,-293.65 1417.27,-288.27 1415.9,-295.13"/>
</g>
<!-- Node30 -->
<g id="node30" class="node">
<title>Node30</title>
<g id="a_node30"><a xlink:href="class_t_train.html#a68bda28987bb7b9d7e52b35abb2399de" target="_top" xlink:title="Carry out the actions needed when a train forms a new service (code Fns)">
<polygon fill="white" stroke="black" points="1242,-145.6 1242,-164.6 1362,-164.6 1362,-145.6 1242,-145.6"/>
<text text-anchor="middle" x="1302" y="-152.6" font-family="Helvetica,sans-Serif" font-size="10.00">TTrain::NewTrainService</text>
</a>
</g>
</g>
<!-- Node2&#45;&gt;Node30 -->
<g id="edge36" class="edge">
<title>Node2&#45;&gt;Node30</title>
<path fill="none" stroke="midnightblue" d="M1481.72,-282.88C1465.01,-252.52 1432.18,-201.17 1389,-174.1 1380.84,-168.98 1371.49,-165.23 1362.02,-162.49"/>
<polygon fill="midnightblue" stroke="midnightblue" points="1478.76,-284.78 1486.57,-291.94 1484.93,-281.48 1478.76,-284.78"/>
</g>
<!-- Node32 -->
<g id="node32" class="node">
<title>Node32</title>
<g id="a_node32"><a xlink:href="class_t_train.html#ad64c5823265b0c611c2e5f0613317aa5" target="_top" xlink:title="Carry out the actions needed when a train is to split from the rear.">
<polygon fill="white" stroke="black" points="1247,-221.6 1247,-240.6 1357,-240.6 1357,-221.6 1247,-221.6"/>
<text text-anchor="middle" x="1302" y="-228.6" font-family="Helvetica,sans-Serif" font-size="10.00">TTrain::RearTrainSplit</text>
</a>
</g>
</g>
<!-- Node2&#45;&gt;Node32 -->
<g id="edge40" class="edge">
<title>Node2&#45;&gt;Node32</title>
<path fill="none" stroke="midnightblue" d="M1461.93,-286.63C1441.69,-274.49 1414.61,-259.67 1389,-250.1 1378.97,-246.36 1368,-243.24 1357.35,-240.69"/>
<polygon fill="midnightblue" stroke="midnightblue" points="1460.36,-289.77 1470.72,-291.98 1464,-283.79 1460.36,-289.77"/>
</g>
<!-- Node33 -->
<g id="node33" class="node">
<title>Node33</title>
<g id="a_node33"><a xlink:href="class_t_train.html#a648f31ead801d51160c024f1ead459c8" target="_top" xlink:title="Carry out the actions needed to create either a new shuttle service or (if all repeats have finished)...">
<polygon fill="white" stroke="black" points="1232,-96.1 1232,-126.1 1372,-126.1 1372,-96.1 1232,-96.1"/>
<text text-anchor="start" x="1240" y="-114.1" font-family="Helvetica,sans-Serif" font-size="10.00">TTrain::RepeatShuttleOrNew</text>
<text text-anchor="middle" x="1302" y="-103.1" font-family="Helvetica,sans-Serif" font-size="10.00">NonRepeatService</text>
</a>
</g>
</g>
<!-- Node2&#45;&gt;Node33 -->
<g id="edge42" class="edge">
<title>Node2&#45;&gt;Node33</title>
<path fill="none" stroke="midnightblue" d="M1485.47,-282.35C1471.34,-245.03 1439.52,-174.62 1389,-136.1 1383.93,-132.23 1378.28,-128.97 1372.36,-126.2"/>
<polygon fill="midnightblue" stroke="midnightblue" points="1482.26,-283.76 1488.99,-291.95 1488.83,-281.35 1482.26,-283.76"/>
</g>
<!-- Node34 -->
<g id="node34" class="node">
<title>Node34</title>
<g id="a_node34"><a xlink:href="class_t_train.html#a1f4b4616c1167ff2ef83b2df48545c6b" target="_top" xlink:title="Carry out the actions needed to create either a new shuttle service or (if all repeats have finished)...">
<polygon fill="white" stroke="black" points="1215,-57.6 1215,-76.6 1389,-76.6 1389,-57.6 1215,-57.6"/>
<text text-anchor="middle" x="1302" y="-64.6" font-family="Helvetica,sans-Serif" font-size="10.00">TTrain::RepeatShuttleOrRemainHere</text>
</a>
</g>
</g>
<!-- Node2&#45;&gt;Node34 -->
<g id="edge45" class="edge">
<title>Node2&#45;&gt;Node34</title>
<path fill="none" stroke="midnightblue" d="M1489.5,-281.83C1479.86,-235.44 1452.69,-136.8 1389,-86.1 1384.21,-82.29 1378.83,-79.21 1373.14,-76.72"/>
<polygon fill="midnightblue" stroke="midnightblue" points="1486.13,-282.79 1491.49,-291.93 1492.99,-281.44 1486.13,-282.79"/>
</g>
<!-- Node4 -->
<g id="node4" class="node">
<title>Node4</title>
<g id="a_node4"><a xlink:href="class_t_train_controller.html#af52f0033d498268c871980c17a8ddf36" target="_top" xlink:title="Carry out further detailed timetable consistency checks, return true for success.">
<polygon fill="white" stroke="black" points="1042,-522.1 1042,-552.1 1165,-552.1 1165,-522.1 1042,-522.1"/>
<text text-anchor="start" x="1050" y="-540.1" font-family="Helvetica,sans-Serif" font-size="10.00">TTrainController::Second</text>
<text text-anchor="middle" x="1103.5" y="-529.1" font-family="Helvetica,sans-Serif" font-size="10.00">PassActions</text>
</a>
</g>
</g>
<!-- Node3&#45;&gt;Node4 -->
<g id="edge3" class="edge">
<title>Node3&#45;&gt;Node4</title>
<path fill="none" stroke="midnightblue" d="M1208.63,-537.1C1193.86,-537.1 1178.92,-537.1 1165.14,-537.1"/>
<polygon fill="midnightblue" stroke="midnightblue" points="1208.8,-540.6 1218.8,-537.1 1208.8,-533.6 1208.8,-540.6"/>
</g>
<!-- Node5 -->
<g id="node5" class="node">
<title>Node5</title>
<g id="a_node5"><a xlink:href="class_t_interface.html#a148e3f99d39f596dbd7d490403936154" target="_top" xlink:title="Convert a stored timetable file (either as a stand alone file or within a session file) to a loaded t...">
<polygon fill="white" stroke="black" points="859.5,-620.1 859.5,-650.1 987.5,-650.1 987.5,-620.1 859.5,-620.1"/>
<text text-anchor="start" x="867.5" y="-638.1" font-family="Helvetica,sans-Serif" font-size="10.00">TInterface::BuildTrainData</text>
<text text-anchor="middle" x="923.5" y="-627.1" font-family="Helvetica,sans-Serif" font-size="10.00">VectorForLoadFile</text>
</a>
</g>
</g>
<!-- Node4&#45;&gt;Node5 -->
<g id="edge4" class="edge">
<title>Node4&#45;&gt;Node5</title>
<path fill="none" stroke="midnightblue" d="M1036.36,-556.73C1033.45,-558.38 1030.64,-560.17 1028,-562.1 1006.17,-578.03 1013.69,-594.98 992,-611.1 987.41,-614.51 982.29,-617.48 976.98,-620.04"/>
<polygon fill="midnightblue" stroke="midnightblue" points="1038.03,-559.8 1045.35,-552.15 1034.85,-553.57 1038.03,-559.8"/>
</g>
<!-- Node12 -->
<g id="node12" class="node">
<title>Node12</title>
<g id="a_node12"><a xlink:href="class_t_interface.html#a4ffe7e6eb2421577f670a52f556aef97" target="_top" xlink:title="Check the integrity of a stored timetable file (either as a stand alone file or within a session file...">
<polygon fill="white" stroke="black" points="859.5,-522.1 859.5,-552.1 987.5,-552.1 987.5,-522.1 859.5,-522.1"/>
<text text-anchor="start" x="867.5" y="-540.1" font-family="Helvetica,sans-Serif" font-size="10.00">TInterface::BuildTrainData</text>
<text text-anchor="middle" x="923.5" y="-529.1" font-family="Helvetica,sans-Serif" font-size="10.00">VectorForValidateFile</text>
</a>
</g>
</g>
<!-- Node4&#45;&gt;Node12 -->
<g id="edge12" class="edge">
<title>Node4&#45;&gt;Node12</title>
<path fill="none" stroke="midnightblue" d="M1031.37,-537.1C1016.94,-537.1 1001.85,-537.1 987.72,-537.1"/>
<polygon fill="midnightblue" stroke="midnightblue" points="1031.74,-540.6 1041.74,-537.1 1031.74,-533.6 1031.74,-540.6"/>
</g>
<!-- Node6 -->
<g id="node6" class="node">
<title>Node6</title>
<g id="a_node6"><a xlink:href="class_t_interface.html#a92d5a9e07b9362dee2296b7759a1c83d" target="_top" xlink:title="Loads timetable into memory from a session file, true if successful.">
<polygon fill="white" stroke="black" points="684,-571.1 684,-601.1 812,-601.1 812,-571.1 684,-571.1"/>
<text text-anchor="start" x="692" y="-589.1" font-family="Helvetica,sans-Serif" font-size="10.00">TInterface::LoadTimetable</text>
<text text-anchor="middle" x="748" y="-578.1" font-family="Helvetica,sans-Serif" font-size="10.00">FromSessionFile</text>
</a>
</g>
</g>
<!-- Node5&#45;&gt;Node6 -->
<g id="edge5" class="edge">
<title>Node5&#45;&gt;Node6</title>
<path fill="none" stroke="midnightblue" d="M859.4,-617.28C840.67,-611.99 820.34,-606.25 802.29,-601.15"/>
<polygon fill="midnightblue" stroke="midnightblue" points="858.45,-620.65 869.03,-620 860.36,-613.91 858.45,-620.65"/>
</g>
<!-- Node11 -->
<g id="node11" class="node">
<title>Node11</title>
<g id="a_node11"><a xlink:href="class_t_interface.html#a15a2f5ad77e4f6c2b0cc6314224dfb78" target="_top" xlink:title=" ">
<polygon fill="white" stroke="black" points="684,-620.1 684,-650.1 812,-650.1 812,-620.1 684,-620.1"/>
<text text-anchor="start" x="692" y="-638.1" font-family="Helvetica,sans-Serif" font-size="10.00">TInterface::LoadTimetable</text>
<text text-anchor="middle" x="748" y="-627.1" font-family="Helvetica,sans-Serif" font-size="10.00">MenuItemClick</text>
</a>
</g>
</g>
<!-- Node5&#45;&gt;Node11 -->
<g id="edge11" class="edge">
<title>Node5&#45;&gt;Node11</title>
<path fill="none" stroke="midnightblue" d="M849.13,-635.1C836.81,-635.1 824.12,-635.1 812.08,-635.1"/>
<polygon fill="midnightblue" stroke="midnightblue" points="849.37,-638.6 859.37,-635.1 849.37,-631.6 849.37,-638.6"/>
</g>
<!-- Node7 -->
<g id="node7" class="node">
<title>Node7</title>
<g id="a_node7"><a xlink:href="class_t_interface.html#a636b1b4bd29f2678a3290ed2d282f1c2" target="_top" xlink:title="Load a session file.">
<polygon fill="white" stroke="black" points="334,-532.6 334,-551.6 455,-551.6 455,-532.6 334,-532.6"/>
<text text-anchor="middle" x="394.5" y="-539.6" font-family="Helvetica,sans-Serif" font-size="10.00">TInterface::LoadSession</text>
</a>
</g>
</g>
<!-- Node6&#45;&gt;Node7 -->
<g id="edge6" class="edge">
<title>Node6&#45;&gt;Node7</title>
<path fill="none" stroke="midnightblue" d="M673.73,-584.2C622.31,-582 552.1,-577.28 491,-567.1 469.02,-563.44 444.74,-557.05 426.16,-551.65"/>
<polygon fill="midnightblue" stroke="midnightblue" points="673.62,-587.7 683.76,-584.61 673.91,-580.7 673.62,-587.7"/>
</g>
<!-- Node10 -->
<g id="node10" class="node">
<title>Node10</title>
<g id="a_node10"><a xlink:href="class_t_interface.html#a3904f26b67b9512507960187b37b6f7b" target="_top" xlink:title="Checks session file integrity prior to loading, true for success.">
<polygon fill="white" stroke="black" points="491,-527.1 491,-557.1 641,-557.1 641,-527.1 491,-527.1"/>
<text text-anchor="start" x="499" y="-545.1" font-family="Helvetica,sans-Serif" font-size="10.00">TInterface::SessionFileIntegrity</text>
<text text-anchor="middle" x="566" y="-534.1" font-family="Helvetica,sans-Serif" font-size="10.00">Check</text>
</a>
</g>
</g>
<!-- Node6&#45;&gt;Node10 -->
<g id="edge9" class="edge">
<title>Node6&#45;&gt;Node10</title>
<path fill="none" stroke="midnightblue" d="M675.47,-568.62C659.92,-564.81 643.59,-560.82 628.47,-557.13"/>
<polygon fill="midnightblue" stroke="midnightblue" points="675.01,-572.11 685.56,-571.08 676.67,-565.31 675.01,-572.11"/>
</g>
<!-- Node8 -->
<g id="node8" class="node">
<title>Node8</title>
<g id="a_node8"><a xlink:href="class_t_interface.html#a6139ffb52492eb89e5487a8a3cd647b5" target="_top" xlink:title="The main loop, called every clock tick via MasterClockTimer.">
<polygon fill="white" stroke="black" points="179,-385.6 179,-404.6 298,-404.6 298,-385.6 179,-385.6"/>
<text text-anchor="middle" x="238.5" y="-392.6" font-family="Helvetica,sans-Serif" font-size="10.00">TInterface::ClockTimer2</text>
</a>
</g>
</g>
<!-- Node7&#45;&gt;Node8 -->
<g id="edge7" class="edge">
<title>Node7&#45;&gt;Node8</title>
<path fill="none" stroke="midnightblue" d="M376.01,-525.4C343.74,-494.6 275.77,-429.72 249.84,-404.97"/>
<polygon fill="midnightblue" stroke="midnightblue" points="373.75,-528.08 383.4,-532.46 378.58,-523.02 373.75,-528.08"/>
</g>
<!-- Node9 -->
<g id="node9" class="node">
<title>Node9</title>
<g id="a_node9"><a xlink:href="class_t_interface.html#ace30a12d923fc7fb489afabb0a09aa4f" target="_top" xlink:title=" ">
<polygon fill="white" stroke="black" points="0,-385.6 0,-404.6 143,-404.6 143,-385.6 0,-385.6"/>
<text text-anchor="middle" x="71.5" y="-392.6" font-family="Helvetica,sans-Serif" font-size="10.00">TInterface::MasterClockTimer</text>
</a>
</g>
</g>
<!-- Node8&#45;&gt;Node9 -->
<g id="edge8" class="edge">
<title>Node8&#45;&gt;Node9</title>
<path fill="none" stroke="midnightblue" d="M168.67,-395.1C160.22,-395.1 151.57,-395.1 143.09,-395.1"/>
<polygon fill="midnightblue" stroke="midnightblue" points="168.86,-398.6 178.86,-395.1 168.86,-391.6 168.86,-398.6"/>
</g>
<!-- Node10&#45;&gt;Node7 -->
<g id="edge10" class="edge">
<title>Node10&#45;&gt;Node7</title>
<path fill="none" stroke="midnightblue" d="M480.55,-542.1C471.93,-542.1 463.3,-542.1 455.02,-542.1"/>
<polygon fill="midnightblue" stroke="midnightblue" points="480.65,-545.6 490.65,-542.1 480.65,-538.6 480.65,-545.6"/>
</g>
<!-- Node13 -->
<g id="node13" class="node">
<title>Node13</title>
<g id="a_node13"><a xlink:href="class_t_interface.html#a2f501868bbee2310af99bf2e8e265c59" target="_top" xlink:title=" ">
<polygon fill="white" stroke="black" points="677,-522.1 677,-552.1 819,-552.1 819,-522.1 677,-522.1"/>
<text text-anchor="start" x="685" y="-540.1" font-family="Helvetica,sans-Serif" font-size="10.00">TInterface::ValidateTimetable</text>
<text text-anchor="middle" x="748" y="-529.1" font-family="Helvetica,sans-Serif" font-size="10.00">ButtonClick</text>
</a>
</g>
</g>
<!-- Node12&#45;&gt;Node13 -->
<g id="edge13" class="edge">
<title>Node12&#45;&gt;Node13</title>
<path fill="none" stroke="midnightblue" d="M849.12,-537.1C839.18,-537.1 829,-537.1 819.12,-537.1"/>
<polygon fill="midnightblue" stroke="midnightblue" points="849.37,-540.6 859.37,-537.1 849.37,-533.6 849.37,-540.6"/>
</g>
<!-- Node15 -->
<g id="node15" class="node">
<title>Node15</title>
<g id="a_node15"><a xlink:href="class_t_interface.html#adc9ce6e5ee756279efbe92fd749355bf" target="_top" xlink:title="Called when floating train info needed and train hasn&#39;t entered yet.">
<polygon fill="white" stroke="black" points="1035.5,-473.1 1035.5,-503.1 1171.5,-503.1 1171.5,-473.1 1035.5,-473.1"/>
<text text-anchor="start" x="1043.5" y="-491.1" font-family="Helvetica,sans-Serif" font-size="10.00">TInterface::GetTrainFloating</text>
<text text-anchor="middle" x="1103.5" y="-480.1" font-family="Helvetica,sans-Serif" font-size="10.00">InfoFromContinuation</text>
</a>
</g>
</g>
<!-- Node14&#45;&gt;Node15 -->
<g id="edge15" class="edge">
<title>Node14&#45;&gt;Node15</title>
<path fill="none" stroke="midnightblue" d="M1219.41,-488.1C1203.48,-488.1 1186.94,-488.1 1171.55,-488.1"/>
<polygon fill="midnightblue" stroke="midnightblue" points="1219.78,-491.6 1229.78,-488.1 1219.78,-484.6 1219.78,-491.6"/>
</g>
<!-- Node16 -->
<g id="node16" class="node">
<title>Node16</title>
<g id="a_node16"><a xlink:href="class_t_interface.html#a9aaa19d39382a32701d7ded3b8c1802b" target="_top" xlink:title="Controls the floating window function, called during the ClockTimer2 function.">
<polygon fill="white" stroke="black" points="858,-385.6 858,-404.6 989,-404.6 989,-385.6 858,-385.6"/>
<text text-anchor="middle" x="923.5" y="-392.6" font-family="Helvetica,sans-Serif" font-size="10.00">TInterface::TrackTrainFloat</text>
</a>
</g>
</g>
<!-- Node15&#45;&gt;Node16 -->
<g id="edge16" class="edge">
<title>Node15&#45;&gt;Node16</title>
<path fill="none" stroke="midnightblue" d="M1042.25,-469.39C1037.37,-467.42 1032.56,-465.32 1028,-463.1 993,-446.09 955.75,-419.14 936.93,-404.81"/>
<polygon fill="midnightblue" stroke="midnightblue" points="1041.11,-472.7 1051.7,-473.02 1043.62,-466.16 1041.11,-472.7"/>
</g>
<!-- Node16&#45;&gt;Node8 -->
<g id="edge17" class="edge">
<title>Node16&#45;&gt;Node8</title>
<path fill="none" stroke="midnightblue" d="M847.54,-395.1C710.45,-395.1 422.07,-395.1 298.14,-395.1"/>
<polygon fill="midnightblue" stroke="midnightblue" points="847.94,-398.6 857.94,-395.1 847.94,-391.6 847.94,-398.6"/>
</g>
<!-- Node18 -->
<g id="node18" class="node">
<title>Node18</title>
<g id="a_node18"><a xlink:href="class_t_interface.html#ab7c52bd31930036c95b9b71c2f1f0426" target="_top" xlink:title=" ">
<polygon fill="white" stroke="black" points="1037.5,-571.1 1037.5,-601.1 1169.5,-601.1 1169.5,-571.1 1037.5,-571.1"/>
<text text-anchor="start" x="1045.5" y="-589.1" font-family="Helvetica,sans-Serif" font-size="10.00">TInterface::ExportTTButton</text>
<text text-anchor="middle" x="1103.5" y="-578.1" font-family="Helvetica,sans-Serif" font-size="10.00">Click</text>
</a>
</g>
</g>
<!-- Node17&#45;&gt;Node18 -->
<g id="edge19" class="edge">
<title>Node17&#45;&gt;Node18</title>
<path fill="none" stroke="midnightblue" d="M1232.21,-586.1C1211.93,-586.1 1189.81,-586.1 1169.76,-586.1"/>
<polygon fill="midnightblue" stroke="midnightblue" points="1232.31,-589.6 1242.31,-586.1 1232.31,-582.6 1232.31,-589.6"/>
</g>
<!-- Node19 -->
<g id="node19" class="node">
<title>Node19</title>
<g id="a_node19"><a xlink:href="class_t_interface.html#a1bf4807428bf9fa4504be97d28642597" target="_top" xlink:title=" ">
<polygon fill="white" stroke="black" points="1039.5,-620.1 1039.5,-650.1 1167.5,-650.1 1167.5,-620.1 1039.5,-620.1"/>
<text text-anchor="start" x="1047.5" y="-638.1" font-family="Helvetica,sans-Serif" font-size="10.00">TInterface::ExportTTMenu</text>
<text text-anchor="middle" x="1103.5" y="-627.1" font-family="Helvetica,sans-Serif" font-size="10.00">ItemClick</text>
</a>
</g>
</g>
<!-- Node17&#45;&gt;Node19 -->
<g id="edge20" class="edge">
<title>Node17&#45;&gt;Node19</title>
<path fill="none" stroke="midnightblue" d="M1232.39,-603.21C1210.42,-608.69 1186.27,-614.71 1164.93,-620.03"/>
<polygon fill="midnightblue" stroke="midnightblue" points="1233.45,-606.55 1242.31,-600.74 1231.76,-599.76 1233.45,-606.55"/>
</g>
<!-- Node21 -->
<g id="node21" class="node">
<title>Node21</title>
<g id="a_node21"><a xlink:href="class_t_train.html#a89ad640ecf8f5163c40727b4e28575fc" target="_top" xlink:title="Major function called at each clock tick for each train &amp; handles all train movement &amp; associated act...">
<polygon fill="white" stroke="black" points="1053,-183.6 1053,-202.6 1154,-202.6 1154,-183.6 1053,-183.6"/>
<text text-anchor="middle" x="1103.5" y="-190.6" font-family="Helvetica,sans-Serif" font-size="10.00">TTrain::UpdateTrain</text>
</a>
</g>
</g>
<!-- Node20&#45;&gt;Node21 -->
<g id="edge22" class="edge">
<title>Node20&#45;&gt;Node21</title>
<path fill="none" stroke="midnightblue" d="M1245.63,-193.1C1216.89,-193.1 1182.07,-193.1 1154.2,-193.1"/>
<polygon fill="midnightblue" stroke="midnightblue" points="1245.92,-196.6 1255.92,-193.1 1245.92,-189.6 1245.92,-196.6"/>
</g>
<!-- Node21&#45;&gt;Node22 -->
<g id="edge23" class="edge">
<title>Node21&#45;&gt;Node22</title>
<path fill="none" stroke="midnightblue" d="M1042.73,-193.1C1024.54,-193.1 1004.51,-193.1 986.2,-193.1"/>
<polygon fill="midnightblue" stroke="midnightblue" points="1042.92,-196.6 1052.92,-193.1 1042.92,-189.6 1042.92,-196.6"/>
</g>
<!-- Node22&#45;&gt;Node8 -->
<g id="edge24" class="edge">
<title>Node22&#45;&gt;Node8</title>
<path fill="none" stroke="midnightblue" d="M880.35,-205.57C754.55,-242.77 383.63,-352.47 271.78,-385.55"/>
<polygon fill="midnightblue" stroke="midnightblue" points="881.42,-208.9 890.02,-202.71 879.43,-202.19 881.42,-208.9"/>
</g>
<!-- Node24 -->
<g id="node24" class="node">
<title>Node24</title>
<g id="a_node24"><a xlink:href="class_t_interface.html#a51b94ffa3dc90fe4e3bec2f1ae28074e" target="_top" xlink:title="used for floating window to display train status">
<polygon fill="white" stroke="black" points="1038.5,-336.1 1038.5,-366.1 1168.5,-366.1 1168.5,-336.1 1038.5,-336.1"/>
<text text-anchor="start" x="1046.5" y="-354.1" font-family="Helvetica,sans-Serif" font-size="10.00">TInterface::GetTrainStatus</text>
<text text-anchor="middle" x="1103.5" y="-343.1" font-family="Helvetica,sans-Serif" font-size="10.00">Float</text>
</a>
</g>
</g>
<!-- Node23&#45;&gt;Node24 -->
<g id="edge26" class="edge">
<title>Node23&#45;&gt;Node24</title>
<path fill="none" stroke="midnightblue" d="M1228.21,-351.1C1208.67,-351.1 1187.68,-351.1 1168.64,-351.1"/>
<polygon fill="midnightblue" stroke="midnightblue" points="1228.29,-354.6 1238.29,-351.1 1228.29,-347.6 1228.29,-354.6"/>
</g>
<!-- Node24&#45;&gt;Node16 -->
<g id="edge27" class="edge">
<title>Node24&#45;&gt;Node16</title>
<path fill="none" stroke="midnightblue" d="M1031.81,-368.57C1008.34,-374.38 983.09,-380.62 962.98,-385.59"/>
<polygon fill="midnightblue" stroke="midnightblue" points="1032.87,-371.92 1041.74,-366.12 1031.19,-365.12 1032.87,-371.92"/>
</g>
<!-- Node25&#45;&gt;Node16 -->
<g id="edge30" class="edge">
<title>Node25&#45;&gt;Node16</title>
<path fill="none" stroke="midnightblue" d="M1228.86,-399.14C1159.55,-398.22 1055.79,-396.84 989.12,-395.96"/>
<polygon fill="midnightblue" stroke="midnightblue" points="1229.2,-402.65 1239.25,-399.28 1229.3,-395.65 1229.2,-402.65"/>
</g>
<!-- Node26 -->
<g id="node26" class="node">
<title>Node26</title>
<g id="a_node26"><a xlink:href="class_t_interface.html#a40232083747ef274344eed7021c6f43c" target="_top" xlink:title=" ">
<polygon fill="white" stroke="black" points="1038,-424.1 1038,-454.1 1169,-454.1 1169,-424.1 1038,-424.1"/>
<text text-anchor="start" x="1046" y="-442.1" font-family="Helvetica,sans-Serif" font-size="10.00">TInterface::SkipTimetabled</text>
<text text-anchor="middle" x="1103.5" y="-431.1" font-family="Helvetica,sans-Serif" font-size="10.00">ActionsMenuItemClick</text>
</a>
</g>
</g>
<!-- Node25&#45;&gt;Node26 -->
<g id="edge29" class="edge">
<title>Node25&#45;&gt;Node26</title>
<path fill="none" stroke="midnightblue" d="M1229.54,-414.28C1209.85,-418.19 1188.6,-422.41 1169.31,-426.24"/>
<polygon fill="midnightblue" stroke="midnightblue" points="1230.24,-417.71 1239.37,-412.33 1228.88,-410.85 1230.24,-417.71"/>
</g>
<!-- Node27&#45;&gt;Node21 -->
<g id="edge32" class="edge">
<title>Node27&#45;&gt;Node21</title>
<path fill="none" stroke="midnightblue" d="M1235.99,-296.37C1228.73,-294.12 1221.58,-291.39 1215,-288.1 1170.65,-265.92 1129.44,-222.02 1112.56,-202.65"/>
<polygon fill="midnightblue" stroke="midnightblue" points="1235.36,-299.83 1245.93,-299.17 1237.25,-293.09 1235.36,-299.83"/>
</g>
<!-- Node29&#45;&gt;Node21 -->
<g id="edge35" class="edge">
<title>Node29&#45;&gt;Node21</title>
<path fill="none" stroke="midnightblue" d="M1247.26,-259.48C1236.44,-256.91 1225.24,-253.8 1215,-250.1 1179.47,-237.26 1140.88,-215.34 1120.02,-202.75"/>
<polygon fill="midnightblue" stroke="midnightblue" points="1246.54,-262.9 1257.07,-261.68 1248.08,-256.07 1246.54,-262.9"/>
</g>
<!-- Node30&#45;&gt;Node21 -->
<g id="edge38" class="edge">
<title>Node30&#45;&gt;Node21</title>
<path fill="none" stroke="midnightblue" d="M1241.59,-166.59C1213.55,-172.01 1180.48,-178.41 1153.85,-183.56"/>
<polygon fill="midnightblue" stroke="midnightblue" points="1242.51,-169.98 1251.67,-164.64 1241.19,-163.1 1242.51,-169.98"/>
</g>
<!-- Node31 -->
<g id="node31" class="node">
<title>Node31</title>
<g id="a_node31"><a xlink:href="class_t_interface.html#a0e9af41ff305fe2813385fce38b73206" target="_top" xlink:title=" ">
<polygon fill="white" stroke="black" points="1028,-96.1 1028,-126.1 1179,-126.1 1179,-96.1 1028,-96.1"/>
<text text-anchor="start" x="1036" y="-114.1" font-family="Helvetica,sans-Serif" font-size="10.00">TInterface::BecomeNewService</text>
<text text-anchor="middle" x="1103.5" y="-103.1" font-family="Helvetica,sans-Serif" font-size="10.00">MenuItemClick</text>
</a>
</g>
</g>
<!-- Node30&#45;&gt;Node31 -->
<g id="edge37" class="edge">
<title>Node30&#45;&gt;Node31</title>
<path fill="none" stroke="midnightblue" d="M1248.56,-143.36C1224.99,-138.08 1196.88,-131.79 1171.78,-126.17"/>
<polygon fill="midnightblue" stroke="midnightblue" points="1247.84,-146.78 1258.36,-145.55 1249.37,-139.95 1247.84,-146.78"/>
</g>
<!-- Node32&#45;&gt;Node21 -->
<g id="edge41" class="edge">
<title>Node32&#45;&gt;Node21</title>
<path fill="none" stroke="midnightblue" d="M1241.59,-219.61C1213.55,-214.19 1180.48,-207.79 1153.85,-202.64"/>
<polygon fill="midnightblue" stroke="midnightblue" points="1241.19,-223.1 1251.67,-221.56 1242.51,-216.23 1241.19,-223.1"/>
</g>
<!-- Node33&#45;&gt;Node21 -->
<g id="edge44" class="edge">
<title>Node33&#45;&gt;Node21</title>
<path fill="none" stroke="midnightblue" d="M1234.05,-129.18C1227.56,-131.35 1221.11,-133.66 1215,-136.1 1180.11,-150.02 1141.6,-171.35 1120.51,-183.59"/>
<polygon fill="midnightblue" stroke="midnightblue" points="1235.13,-132.51 1243.58,-126.11 1232.98,-125.85 1235.13,-132.51"/>
</g>
<!-- Node33&#45;&gt;Node31 -->
<g id="edge43" class="edge">
<title>Node33&#45;&gt;Node31</title>
<path fill="none" stroke="midnightblue" d="M1221.82,-111.1C1207.69,-111.1 1193.01,-111.1 1179.02,-111.1"/>
<polygon fill="midnightblue" stroke="midnightblue" points="1222,-114.6 1232,-111.1 1222,-107.6 1222,-114.6"/>
</g>
<!-- Node34&#45;&gt;Node21 -->
<g id="edge47" class="edge">
<title>Node34&#45;&gt;Node21</title>
<path fill="none" stroke="midnightblue" d="M1224.89,-80.61C1221.45,-82.24 1218.13,-84.06 1215,-86.1 1192.36,-100.85 1197.84,-115.73 1179,-135.1 1160.26,-154.37 1134.95,-172.76 1119.19,-183.48"/>
<polygon fill="midnightblue" stroke="midnightblue" points="1226.34,-83.8 1234.23,-76.73 1223.65,-77.33 1226.34,-83.8"/>
</g>
<!-- Node34&#45;&gt;Node31 -->
<g id="edge46" class="edge">
<title>Node34&#45;&gt;Node31</title>
<path fill="none" stroke="midnightblue" d="M1247.87,-78.8C1236.99,-81.2 1225.63,-83.72 1215,-86.1 1200.7,-89.3 1185.36,-92.75 1170.81,-96.04"/>
<polygon fill="midnightblue" stroke="midnightblue" points="1248.67,-82.2 1257.68,-76.63 1247.16,-75.37 1248.67,-82.2"/>
</g>
<!-- Node36 -->
<g id="node36" class="node">
<title>Node36</title>
<g id="a_node36"><a xlink:href="class_t_train_controller.html#a5c51eb1e0018e189966ffdbc5d251990" target="_top" xlink:title="Carry out preliminary (mainly syntax) validity checks on a single timetable service entry and (if Fin...">
<polygon fill="white" stroke="black" points="1040.5,-669.1 1040.5,-699.1 1166.5,-699.1 1166.5,-669.1 1040.5,-669.1"/>
<text text-anchor="start" x="1048.5" y="-687.1" font-family="Helvetica,sans-Serif" font-size="10.00">TTrainController::Process</text>
<text text-anchor="middle" x="1103.5" y="-676.1" font-family="Helvetica,sans-Serif" font-size="10.00">OneTimetableLine</text>
</a>
</g>
</g>
<!-- Node35&#45;&gt;Node36 -->
<g id="edge49" class="edge">
<title>Node35&#45;&gt;Node36</title>
<path fill="none" stroke="midnightblue" d="M1479.54,-534.36C1460.82,-555.59 1426.15,-591.25 1389,-611.1 1318.05,-649.01 1226.51,-667.92 1166.7,-676.85"/>
<polygon fill="midnightblue" stroke="midnightblue" points="1482.24,-536.59 1486.12,-526.74 1476.94,-532.02 1482.24,-536.59"/>
</g>
<!-- Node36&#45;&gt;Node5 -->
<g id="edge50" class="edge">
<title>Node36&#45;&gt;Node5</title>
<path fill="none" stroke="midnightblue" d="M1037.76,-666.28C1018.54,-660.99 997.69,-655.25 979.18,-650.15"/>
<polygon fill="midnightblue" stroke="midnightblue" points="1037.07,-669.72 1047.64,-669 1038.93,-662.97 1037.07,-669.72"/>
</g>
<!-- Node36&#45;&gt;Node12 -->
<g id="edge51" class="edge">
<title>Node36&#45;&gt;Node12</title>
<path fill="none" stroke="midnightblue" d="M1031.54,-663.22C1030.32,-662.23 1029.13,-661.19 1028,-660.1 994.53,-627.96 1024.77,-594.95 992,-562.1 988.12,-558.21 983.57,-554.91 978.71,-552.13"/>
<polygon fill="midnightblue" stroke="midnightblue" points="1029.95,-666.37 1040.18,-669.11 1033.89,-660.58 1029.95,-666.37"/>
</g>
<!-- Node37 -->
<g id="node37" class="node">
<title>Node37</title>
<g id="a_node37"><a xlink:href="class_t_train_controller.html#ac51af4807fe6bba453f8ab9bba42e2b5" target="_top" xlink:title="Checks overall timetable integrity, calls many other specific checking functions, returns true for su...">
<polygon fill="white" stroke="black" points="857.5,-571.1 857.5,-601.1 989.5,-601.1 989.5,-571.1 857.5,-571.1"/>
<text text-anchor="start" x="865.5" y="-589.1" font-family="Helvetica,sans-Serif" font-size="10.00">TTrainController::Timetable</text>
<text text-anchor="middle" x="923.5" y="-578.1" font-family="Helvetica,sans-Serif" font-size="10.00">IntegrityCheck</text>
</a>
</g>
</g>
<!-- Node36&#45;&gt;Node37 -->
<g id="edge52" class="edge">
<title>Node36&#45;&gt;Node37</title>
<path fill="none" stroke="midnightblue" d="M1034.49,-664.32C1032.25,-663 1030.07,-661.6 1028,-660.1 1006.08,-644.3 1013.58,-627.37 992,-611.1 986.91,-607.26 981.17,-603.96 975.24,-601.14"/>
<polygon fill="midnightblue" stroke="midnightblue" points="1032.96,-667.47 1043.44,-669 1036.2,-661.27 1032.96,-667.47"/>
</g>
<!-- Node38 -->
<g id="node38" class="node">
<title>Node38</title>
<g id="a_node38"><a xlink:href="class_t_interface.html#a003b10236c2b4316dc57be370c715c44" target="_top" xlink:title=" ">
<polygon fill="white" stroke="black" points="855,-669.1 855,-699.1 992,-699.1 992,-669.1 855,-669.1"/>
<text text-anchor="start" x="863" y="-687.1" font-family="Helvetica,sans-Serif" font-size="10.00">TInterface::TTServiceSyntax</text>
<text text-anchor="middle" x="923.5" y="-676.1" font-family="Helvetica,sans-Serif" font-size="10.00">CheckButtonClick</text>
</a>
</g>
</g>
<!-- Node36&#45;&gt;Node38 -->
<g id="edge56" class="edge">
<title>Node36&#45;&gt;Node38</title>
<path fill="none" stroke="midnightblue" d="M1029.9,-684.1C1017.43,-684.1 1004.51,-684.1 992.18,-684.1"/>
<polygon fill="midnightblue" stroke="midnightblue" points="1030.24,-687.6 1040.24,-684.1 1030.24,-680.6 1030.24,-687.6"/>
</g>
<!-- Node37&#45;&gt;Node6 -->
<g id="edge53" class="edge">
<title>Node37&#45;&gt;Node6</title>
<path fill="none" stroke="midnightblue" d="M847.22,-586.1C835.53,-586.1 823.55,-586.1 812.16,-586.1"/>
<polygon fill="midnightblue" stroke="midnightblue" points="847.4,-589.6 857.4,-586.1 847.4,-582.6 847.4,-589.6"/>
</g>
<!-- Node37&#45;&gt;Node11 -->
<g id="edge54" class="edge">
<title>Node37&#45;&gt;Node11</title>
<path fill="none" stroke="midnightblue" d="M859.4,-603.92C840.67,-609.21 820.34,-614.95 802.29,-620.05"/>
<polygon fill="midnightblue" stroke="midnightblue" points="860.36,-607.29 869.03,-601.2 858.45,-600.55 860.36,-607.29"/>
</g>
<!-- Node37&#45;&gt;Node13 -->
<g id="edge55" class="edge">
<title>Node37&#45;&gt;Node13</title>
<path fill="none" stroke="midnightblue" d="M859.4,-568.28C840.67,-562.99 820.34,-557.25 802.29,-552.15"/>
<polygon fill="midnightblue" stroke="midnightblue" points="858.45,-571.65 869.03,-571 860.36,-564.91 858.45,-571.65"/>
</g>
</g>
</svg>
        <g id="navigator" transform="translate(0 0)" fill="#404254">
                <rect fill="#f2f5e9" fill-opacity="0.5" stroke="#606060" stroke-width=".5" x="0" y="0" width="60" height="60"/>
                <use id="zoomplus" xlink:href="#zoomPlus" x="17" y="9" onmousedown="handleZoom(evt,'in')"/>
                <use id="zoomminus" xlink:href="#zoomMin" x="42" y="9" onmousedown="handleZoom(evt,'out')"/>
                <use id="reset" xlink:href="#resetDef" x="30" y="36" onmousedown="handleReset()"/>
                <g id="arrowUp" xlink:href="#dirArrow" transform="translate(30 24)" onmousedown="handlePan(0,-1)">
                  <use xlink:href="#rim" fill="#404040">
                        <set attributeName="fill" to="#808080" begin="arrowUp.mouseover" end="arrowUp.mouseout"/>
                  </use>
                  <path fill="none" stroke="white" stroke-width="1.5" d="M0,-3.0v7 M-2.5,-0.5L0,-3.0L2.5,-0.5"/>
                </g>
                <g id="arrowRight" xlink:href="#dirArrow" transform="rotate(90) translate(36 -43)" onmousedown="handlePan(1,0)">
                  <use xlink:href="#rim" fill="#404040">
                        <set attributeName="fill" to="#808080" begin="arrowRight.mouseover" end="arrowRight.mouseout"/>
                  </use>
                  <path fill="none" stroke="white" stroke-width="1.5" d="M0,-3.0v7 M-2.5,-0.5L0,-3.0L2.5,-0.5"/>
                </g>
                <g id="arrowDown" xlink:href="#dirArrow" transform="rotate(180) translate(-30 -48)" onmousedown="handlePan(0,1)">
                  <use xlink:href="#rim" fill="#404040">
                        <set attributeName="fill" to="#808080" begin="arrowDown.mouseover" end="arrowDown.mouseout"/>
                  </use>
                  <path fill="none" stroke="white" stroke-width="1.5" d="M0,-3.0v7 M-2.5,-0.5L0,-3.0L2.5,-0.5"/>
                </g>
                <g id="arrowLeft" xlink:href="#dirArrow" transform="rotate(270) translate(-36 17)" onmousedown="handlePan(-1,0)">
                  <use xlink:href="#rim" fill="#404040">
                        <set attributeName="fill" to="#808080" begin="arrowLeft.mouseover" end="arrowLeft.mouseout"/>
                  </use>
                  <path fill="none" stroke="white" stroke-width="1.5" d="M0,-3.0v7 M-2.5,-0.5L0,-3.0L2.5,-0.5"/>
                </g>
        </g>
        <svg viewBox="0 0 15 15" width="100%" height="30px" preserveAspectRatio="xMaxYMin meet">
         <g id="arrow_out" transform="scale(0.3 0.3)">
          <a xlink:href="class_t_train_controller_a6fc210d266e7672ccc648c0a9ab4e542_icgraph_org.svg" target="_base">
           <rect id="button" ry="5" rx="5" y="6" x="6" height="38" width="38"
                fill="#f2f5e9" fill-opacity="0.5" stroke="#606060" stroke-width="1.0"/>
           <path id="arrow"
             d="M 11.500037,31.436501 C 11.940474,20.09759 22.043105,11.32322 32.158766,21.979434 L 37.068811,17.246167 C 37.068811,17.246167 37.088388,32 37.088388,32 L 22.160133,31.978069 C 22.160133,31.978069 26.997745,27.140456 26.997745,27.140456 C 18.528582,18.264221 13.291696,25.230495 11.500037,31.436501 z"
             style="fill:#404040;"/>
          </a>
         </g>
        </svg>
</svg>
