<?xml version="1.0" encoding="UTF-8" standalone="no"?>
<!DOCTYPE svg PUBLIC "-//W3C//DTD SVG 1.1//EN"
 "http://www.w3.org/Graphics/SVG/1.1/DTD/svg11.dtd">
<!-- Generated by graphviz version 2.44.1 (20200629.0800)
 -->
<!-- Title: TInterface::BuildDynamicMapFromHostDatagram Pages: 1 -->
<svg width="671pt" height="154pt"
 viewBox="0.00 0.00 671.00 154.00" xmlns="http://www.w3.org/2000/svg" xmlns:xlink="http://www.w3.org/1999/xlink">
<g id="graph0" class="graph" transform="scale(1 1) rotate(0) translate(4 150)">
<title>TInterface::BuildDynamicMapFromHostDatagram</title>
<polygon fill="white" stroke="transparent" points="-4,4 -4,-150 667,-150 667,4 -4,4"/>
<!-- Node1 -->
<g id="node1" class="node">
<title>Node1</title>
<g id="a_node1"><a xlink:title="converse of BuildDatagramFromHostMap">
<polygon fill="#bfbfbf" stroke="black" points="0,-55 0,-85 125,-85 125,-55 0,-55"/>
<text text-anchor="start" x="8" y="-73" font-family="Helvetica,sans-Serif" font-size="10.00">TInterface::BuildDynamic</text>
<text text-anchor="middle" x="62.5" y="-62" font-family="Helvetica,sans-Serif" font-size="10.00">MapFromHostDatagram</text>
</a>
</g>
</g>
<!-- Node2 -->
<g id="node2" class="node">
<title>Node2</title>
<g id="a_node2"><a xlink:href="class_t_utilities.html#ae1eddca13cc3c492839e131f40ec21c0" target="_top" xlink:title="pops the last entry off the call stack, throws an error if called when empty">
<polygon fill="white" stroke="black" points="542,-126.5 542,-145.5 652,-145.5 652,-126.5 542,-126.5"/>
<text text-anchor="middle" x="597" y="-133.5" font-family="Helvetica,sans-Serif" font-size="10.00">TUtilities::CallLogPop</text>
</a>
</g>
</g>
<!-- Node1&#45;&gt;Node2 -->
<g id="edge1" class="edge">
<title>Node1&#45;&gt;Node2</title>
<path fill="none" stroke="midnightblue" d="M87.69,-85.1C106.81,-96.16 134.58,-110.35 161,-117 289.39,-149.29 445.69,-146.29 531.63,-141.18"/>
<polygon fill="midnightblue" stroke="midnightblue" points="532,-144.66 541.76,-140.55 531.56,-137.68 532,-144.66"/>
</g>
<!-- Node3 -->
<g id="node3" class="node">
<title>Node3</title>
<g id="a_node3"><a xlink:href="class_t_interface_1_1_t_service_info.html#a8d793f56e3f1752f520ef780ab868915" target="_top" xlink:title=" ">
<polygon fill="white" stroke="black" points="182,-77 182,-107 298,-107 298,-77 182,-77"/>
<text text-anchor="start" x="190" y="-95" font-family="Helvetica,sans-Serif" font-size="10.00">TInterface::TServiceInfo</text>
<text text-anchor="middle" x="240" y="-84" font-family="Helvetica,sans-Serif" font-size="10.00">::CheckOK</text>
</a>
</g>
</g>
<!-- Node1&#45;&gt;Node3 -->
<g id="edge2" class="edge">
<title>Node1&#45;&gt;Node3</title>
<path fill="none" stroke="midnightblue" d="M125.37,-77.76C140.29,-79.63 156.3,-81.63 171.46,-83.53"/>
<polygon fill="midnightblue" stroke="midnightblue" points="171.43,-87.06 181.79,-84.83 172.3,-80.11 171.43,-87.06"/>
</g>
<!-- Node5 -->
<g id="node5" class="node">
<title>Node5</title>
<g id="a_node5"><a xlink:href="class_t_utilities.html#a34bd6bb5305bc29afdf424f6d35a921c" target="_top" xlink:title="creates a string of the form &#39;hh:mm:ss&#39; for use in call &amp; event logging">
<polygon fill="white" stroke="black" points="542,-38.5 542,-57.5 652,-57.5 652,-38.5 542,-38.5"/>
<text text-anchor="middle" x="597" y="-45.5" font-family="Helvetica,sans-Serif" font-size="10.00">TUtilities::TimeStamp</text>
</a>
</g>
</g>
<!-- Node1&#45;&gt;Node5 -->
<g id="edge9" class="edge">
<title>Node1&#45;&gt;Node5</title>
<path fill="none" stroke="midnightblue" d="M125.1,-67.45C226.61,-63.26 428.04,-54.94 531.45,-50.67"/>
<polygon fill="midnightblue" stroke="midnightblue" points="531.9,-54.15 541.74,-50.24 531.61,-47.16 531.9,-54.15"/>
</g>
<!-- Node7 -->
<g id="node7" class="node">
<title>Node7</title>
<g id="a_node7"><a xlink:href="class_t_interface.html#a8b7c22bd76daf3b8641fe1226d6dfb19" target="_top" xlink:title="check for datagram validity">
<polygon fill="white" stroke="black" points="161,-0.5 161,-19.5 319,-19.5 319,-0.5 161,-0.5"/>
<text text-anchor="middle" x="240" y="-7.5" font-family="Helvetica,sans-Serif" font-size="10.00">TInterface::NumHVPairCheckOK</text>
</a>
</g>
</g>
<!-- Node1&#45;&gt;Node7 -->
<g id="edge8" class="edge">
<title>Node1&#45;&gt;Node7</title>
<path fill="none" stroke="midnightblue" d="M102.7,-54.96C120.42,-48.31 141.68,-40.53 161,-34 172.52,-30.1 185.09,-26.12 196.7,-22.55"/>
<polygon fill="midnightblue" stroke="midnightblue" points="198.07,-25.79 206.61,-19.53 196.03,-19.1 198.07,-25.79"/>
</g>
<!-- Node4 -->
<g id="node4" class="node">
<title>Node4</title>
<g id="a_node4"><a xlink:href="class_t_train_controller.html#a1ccd6c8f2c24e7417889e1a91cb9ca2f" target="_top" xlink:title="Returns true if the headcode complies with requirements.">
<polygon fill="white" stroke="black" points="355,-77 355,-107 495,-107 495,-77 355,-77"/>
<text text-anchor="start" x="363" y="-95" font-family="Helvetica,sans-Serif" font-size="10.00">TTrainController::CheckHead</text>
<text text-anchor="middle" x="425" y="-84" font-family="Helvetica,sans-Serif" font-size="10.00">CodeValidity</text>
</a>
</g>
</g>
<!-- Node3&#45;&gt;Node4 -->
<g id="edge3" class="edge">
<title>Node3&#45;&gt;Node4</title>
<path fill="none" stroke="midnightblue" d="M298.15,-92C312.86,-92 328.96,-92 344.58,-92"/>
<polygon fill="midnightblue" stroke="midnightblue" points="344.75,-95.5 354.75,-92 344.75,-88.5 344.75,-95.5"/>
</g>
<!-- Node4&#45;&gt;Node2 -->
<g id="edge4" class="edge">
<title>Node4&#45;&gt;Node2</title>
<path fill="none" stroke="midnightblue" d="M484.03,-107.02C505.34,-112.54 529.18,-118.7 549.36,-123.93"/>
<polygon fill="midnightblue" stroke="midnightblue" points="548.69,-127.37 559.25,-126.49 550.44,-120.59 548.69,-127.37"/>
</g>
<!-- Node4&#45;&gt;Node5 -->
<g id="edge5" class="edge">
<title>Node4&#45;&gt;Node5</title>
<path fill="none" stroke="midnightblue" d="M484.03,-76.98C505.34,-71.46 529.18,-65.3 549.36,-60.07"/>
<polygon fill="midnightblue" stroke="midnightblue" points="550.44,-63.41 559.25,-57.51 548.69,-56.63 550.44,-63.41"/>
</g>
<!-- Node6 -->
<g id="node6" class="node">
<title>Node6</title>
<g id="a_node6"><a xlink:href="class_t_train_controller.html#a68d2124bc8f7df43e973299e0afb3dcd" target="_top" xlink:title="Sends a message to the user if GiveMessages is true, including ServiceReference (see above) if not nu...">
<polygon fill="white" stroke="black" points="531,-77 531,-107 663,-107 663,-77 531,-77"/>
<text text-anchor="start" x="539" y="-95" font-family="Helvetica,sans-Serif" font-size="10.00">TTrainController::Timetable</text>
<text text-anchor="middle" x="597" y="-84" font-family="Helvetica,sans-Serif" font-size="10.00">Message</text>
</a>
</g>
</g>
<!-- Node4&#45;&gt;Node6 -->
<g id="edge6" class="edge">
<title>Node4&#45;&gt;Node6</title>
<path fill="none" stroke="midnightblue" d="M495.15,-85.36C503.51,-85.24 512.09,-85.22 520.54,-85.29"/>
<polygon fill="midnightblue" stroke="midnightblue" points="520.72,-88.79 530.76,-85.41 520.8,-81.79 520.72,-88.79"/>
</g>
<!-- Node6&#45;&gt;Node4 -->
<g id="edge7" class="edge">
<title>Node6&#45;&gt;Node4</title>
<path fill="none" stroke="midnightblue" d="M530.76,-98.59C522.38,-98.73 513.73,-98.78 505.15,-98.74"/>
<polygon fill="midnightblue" stroke="midnightblue" points="505.18,-95.24 495.15,-98.64 505.11,-102.24 505.18,-95.24"/>
</g>
</g>
</svg>
