<?xml version="1.0" encoding="UTF-8" standalone="no"?>
<!DOCTYPE svg PUBLIC "-//W3C//DTD SVG 1.1//EN"
 "http://www.w3.org/Graphics/SVG/1.1/DTD/svg11.dtd">
<!-- Generated by graphviz version 2.44.1 (20200629.0800)
 -->
<!-- Title: TAllRoutes::SetAllRearwardsSignals Pages: 1 -->
<!--zoomable 970 -->
<svg id="main" version="1.1" xmlns="http://www.w3.org/2000/svg" xmlns:xlink="http://www.w3.org/1999/xlink" xml:space="preserve" onload="init(evt)">
<style type="text/css"><![CDATA[
.edge:hover path { stroke: red; }
.edge:hover polygon { stroke: red; fill: red; }
]]></style>
<script type="text/javascript"><![CDATA[
var edges = document.getElementsByTagName('g');
if (edges && edges.length) {
  for (var i=0;i<edges.length;i++) {
    if (edges[i].id.substr(0,4)=='edge') {
      edges[i].setAttribute('class','edge');
    }
  }
}
]]></script>
        <defs>
                <circle id="rim" cx="0" cy="0" r="7"/>
                <circle id="rim2" cx="0" cy="0" r="3.5"/>
                <g id="zoomPlus">
                        <use xlink:href="#rim" fill="#404040">
                                <set attributeName="fill" to="#808080" begin="zoomplus.mouseover" end="zoomplus.mouseout"/>
                        </use>
                        <path d="M-4,0h8M0,-4v8" fill="none" stroke="white" stroke-width="1.5" pointer-events="none"/>
                </g>
                <g id="zoomMin">
                        <use xlink:href="#rim" fill="#404040">
                                <set attributeName="fill" to="#808080" begin="zoomminus.mouseover" end="zoomminus.mouseout"/>
                        </use>
                        <path d="M-4,0h8" fill="none" stroke="white" stroke-width="1.5" pointer-events="none"/>
                </g>
                <g id="dirArrow">
                        <path fill="none" stroke="white" stroke-width="1.5" d="M0,-3.0v7 M-2.5,-0.5L0,-3.0L2.5,-0.5"/>
                </g>
               <g id="resetDef">
                       <use xlink:href="#rim2" fill="#404040">
                               <set attributeName="fill" to="#808080" begin="reset.mouseover" end="reset.mouseout"/>
                       </use>
               </g>
        </defs>

<script type="text/javascript">
var viewWidth = 1053;
var viewHeight = 970;
var sectionId = 'dynsection-55';
</script>
<script xlink:href="svgpan.js"/>
<svg id="graph" class="graph">
<g id="viewport">
<title>TAllRoutes::SetAllRearwardsSignals</title>
<polygon fill="white" stroke="transparent" points="-4,4 -4,-966.24 1049,-966.24 1049,4 -4,4"/>
<!-- Node1 -->
<g id="node1" class="node">
<title>Node1</title>
<g id="a_node1"><a xlink:title="Set rearwards signals from the specified route starting position.">
<polygon fill="#bfbfbf" stroke="black" points="0,-535.56 0,-565.56 142,-565.56 142,-535.56 0,-535.56"/>
<text text-anchor="start" x="8" y="-553.56" font-family="Helvetica,sans-Serif" font-size="10.00">TAllRoutes::SetAllRearwards</text>
<text text-anchor="middle" x="71" y="-542.56" font-family="Helvetica,sans-Serif" font-size="10.00">Signals</text>
</a>
</g>
</g>
<!-- Node2 -->
<g id="node2" class="node">
<title>Node2</title>
<g id="a_node2"><a xlink:href="class_t_utilities.html#ae1eddca13cc3c492839e131f40ec21c0" target="_top" xlink:title="pops the last entry off the call stack, throws an error if called when empty">
<polygon fill="white" stroke="black" points="935,-601.06 935,-620.06 1045,-620.06 1045,-601.06 935,-601.06"/>
<text text-anchor="middle" x="990" y="-608.06" font-family="Helvetica,sans-Serif" font-size="10.00">TUtilities::CallLogPop</text>
</a>
</g>
</g>
<!-- Node1&#45;&gt;Node2 -->
<g id="edge1" class="edge">
<title>Node1&#45;&gt;Node2</title>
<path fill="none" stroke="midnightblue" d="M76.5,-565.68C99.57,-639.83 211.95,-961.56 425,-961.56 425,-961.56 425,-961.56 610.5,-961.56 743.68,-961.56 802.59,-972.44 899,-880.56 972.33,-810.67 985.93,-679.54 988.44,-630.1"/>
<polygon fill="midnightblue" stroke="midnightblue" points="991.94,-630.23 988.85,-620.1 984.94,-629.95 991.94,-630.23"/>
</g>
<!-- Node3 -->
<g id="node3" class="node">
<title>Node3</title>
<g id="a_node3"><a xlink:href="class_t_one_pref_dir.html#a5b67e5aaa86d324229aedc68f32f32b8" target="_top" xlink:title="Return a non&#45;modifiable element at PrefDirVector position &#39;At&#39;.">
<polygon fill="white" stroke="black" points="756,-121.56 756,-151.56 888,-151.56 888,-121.56 756,-121.56"/>
<text text-anchor="start" x="764" y="-139.56" font-family="Helvetica,sans-Serif" font-size="10.00">TOnePrefDir::GetFixedPref</text>
<text text-anchor="middle" x="822" y="-128.56" font-family="Helvetica,sans-Serif" font-size="10.00">DirElementAt</text>
</a>
</g>
</g>
<!-- Node1&#45;&gt;Node3 -->
<g id="edge2" class="edge">
<title>Node1&#45;&gt;Node3</title>
<path fill="none" stroke="midnightblue" d="M81.7,-535.23C123.26,-471.26 294.06,-225.4 510,-149.56 586.95,-122.53 681.27,-122.86 745.72,-127.67"/>
<polygon fill="midnightblue" stroke="midnightblue" points="745.56,-131.17 755.8,-128.48 746.11,-124.19 745.56,-131.17"/>
</g>
<!-- Node4 -->
<g id="node4" class="node">
<title>Node4</title>
<g id="a_node4"><a xlink:href="class_t_utilities.html#a34bd6bb5305bc29afdf424f6d35a921c" target="_top" xlink:title="creates a string of the form &#39;hh:mm:ss&#39; for use in call &amp; event logging">
<polygon fill="white" stroke="black" points="935,-405.06 935,-424.06 1045,-424.06 1045,-405.06 935,-405.06"/>
<text text-anchor="middle" x="990" y="-412.06" font-family="Helvetica,sans-Serif" font-size="10.00">TUtilities::TimeStamp</text>
</a>
</g>
</g>
<!-- Node1&#45;&gt;Node4 -->
<g id="edge57" class="edge">
<title>Node1&#45;&gt;Node4</title>
<path fill="none" stroke="midnightblue" d="M71.47,-535.22C70.24,-476 73.39,-259.3 178,-132.56 255.2,-39.03 303.72,-16.56 425,-16.56 425,-16.56 425,-16.56 610.5,-16.56 739.51,-16.56 802.02,36.51 899,-48.56 952.35,-95.36 979.91,-325.64 987.08,-394.85"/>
<polygon fill="midnightblue" stroke="midnightblue" points="983.6,-395.26 988.09,-404.85 990.57,-394.55 983.6,-395.26"/>
</g>
<!-- Node5 -->
<g id="node5" class="node">
<title>Node5</title>
<g id="a_node5"><a xlink:href="class_t_all_routes.html#a7d9f820738af6314f2b9a4a1f52bb64a" target="_top" xlink:title="Returns a constant reference to the route at AllRoutesVector position &#39;At&#39;, after performing range ch...">
<polygon fill="white" stroke="black" points="749.5,-829.06 749.5,-848.06 894.5,-848.06 894.5,-829.06 749.5,-829.06"/>
<text text-anchor="middle" x="822" y="-836.06" font-family="Helvetica,sans-Serif" font-size="10.00">TAllRoutes::GetFixedRouteAt</text>
</a>
</g>
</g>
<!-- Node1&#45;&gt;Node5 -->
<g id="edge5" class="edge">
<title>Node1&#45;&gt;Node5</title>
<path fill="none" stroke="midnightblue" d="M78.55,-565.82C92.58,-596.9 128.32,-668.17 178,-710.56 252.29,-773.95 285.8,-769.36 378,-801.56 435.09,-821.5 450.03,-826.79 510,-834.56 587.23,-844.57 676.15,-844.57 739.07,-842.67"/>
<polygon fill="midnightblue" stroke="midnightblue" points="739.45,-846.16 749.33,-842.33 739.22,-839.16 739.45,-846.16"/>
</g>
<!-- Node6 -->
<g id="node6" class="node">
<title>Node6</title>
<g id="a_node6"><a xlink:href="class_t_one_pref_dir.html#a29d013bf730e23d27fdb2c390e3a14da" target="_top" xlink:title="Return the vector size.">
<polygon fill="white" stroke="black" points="760,-83.06 760,-102.06 884,-102.06 884,-83.06 760,-83.06"/>
<text text-anchor="middle" x="822" y="-90.06" font-family="Helvetica,sans-Serif" font-size="10.00">TOnePrefDir::PrefDirSize</text>
</a>
</g>
</g>
<!-- Node1&#45;&gt;Node6 -->
<g id="edge8" class="edge">
<title>Node1&#45;&gt;Node6</title>
<path fill="none" stroke="midnightblue" d="M72.87,-535.44C76.48,-486.34 94.35,-329.5 178,-241.56 329.82,-81.94 616.22,-78.03 749.47,-85.98"/>
<polygon fill="midnightblue" stroke="midnightblue" points="749.36,-89.48 759.56,-86.62 749.8,-82.5 749.36,-89.48"/>
</g>
<!-- Node7 -->
<g id="node7" class="node">
<title>Node7</title>
<g id="a_node7"><a xlink:href="class_t_one_route.html#a55e04e36f652344b5215f8a28143c4a3" target="_top" xlink:title="Called by TAllRoutes::SetAllRearwardsSignals to set rearwards signals from a specified starting posit...">
<polygon fill="white" stroke="black" points="178,-535.56 178,-565.56 342,-565.56 342,-535.56 178,-535.56"/>
<text text-anchor="start" x="186" y="-553.56" font-family="Helvetica,sans-Serif" font-size="10.00">TOneRoute::SetRearwardsSignals</text>
<text text-anchor="middle" x="260" y="-542.56" font-family="Helvetica,sans-Serif" font-size="10.00">ReturnFalseForTrain</text>
</a>
</g>
</g>
<!-- Node1&#45;&gt;Node7 -->
<g id="edge9" class="edge">
<title>Node1&#45;&gt;Node7</title>
<path fill="none" stroke="midnightblue" d="M142.16,-550.56C150.51,-550.56 159.11,-550.56 167.7,-550.56"/>
<polygon fill="midnightblue" stroke="midnightblue" points="167.74,-554.06 177.74,-550.56 167.74,-547.06 167.74,-554.06"/>
</g>
<!-- Node9 -->
<g id="node9" class="node">
<title>Node9</title>
<g id="a_node9"><a xlink:href="class_t_track.html#ad377e5a1f152f2e89832c0f9bcfd261f" target="_top" xlink:title="A range&#45;checked version of TrackVector.at(At)">
<polygon fill="white" stroke="black" points="761,-791.06 761,-810.06 883,-810.06 883,-791.06 761,-791.06"/>
<text text-anchor="middle" x="822" y="-798.06" font-family="Helvetica,sans-Serif" font-size="10.00">TTrack::TrackElementAt</text>
</a>
</g>
</g>
<!-- Node1&#45;&gt;Node9 -->
<g id="edge58" class="edge">
<title>Node1&#45;&gt;Node9</title>
<path fill="none" stroke="midnightblue" d="M87.73,-565.66C141.24,-615.69 323.25,-775.11 510,-815.56 597.7,-834.56 702.44,-822.61 765.24,-811.86"/>
<polygon fill="midnightblue" stroke="midnightblue" points="766.09,-815.27 775.33,-810.08 764.87,-808.37 766.09,-815.27"/>
</g>
<!-- Node3&#45;&gt;Node2 -->
<g id="edge3" class="edge">
<title>Node3&#45;&gt;Node2</title>
<path fill="none" stroke="midnightblue" d="M837.23,-151.74C854.64,-171.21 883.68,-206.75 899,-242.56 932.97,-321.98 914.37,-349.68 935,-433.56 949.27,-491.58 971.31,-558.71 982.29,-591.1"/>
<polygon fill="midnightblue" stroke="midnightblue" points="979.02,-592.36 985.57,-600.69 985.65,-590.09 979.02,-592.36"/>
</g>
<!-- Node3&#45;&gt;Node4 -->
<g id="edge4" class="edge">
<title>Node3&#45;&gt;Node4</title>
<path fill="none" stroke="midnightblue" d="M878,-151.66C885.74,-155.57 893.07,-160.46 899,-166.56 963.47,-232.85 982.23,-348.83 987.28,-394.89"/>
<polygon fill="midnightblue" stroke="midnightblue" points="983.81,-395.42 988.29,-405.02 990.78,-394.73 983.81,-395.42"/>
</g>
<!-- Node5&#45;&gt;Node2 -->
<g id="edge6" class="edge">
<title>Node5&#45;&gt;Node2</title>
<path fill="none" stroke="midnightblue" d="M883.66,-829.03C889.2,-826.54 894.44,-823.44 899,-819.56 958.55,-768.93 979.81,-671.72 986.4,-630.17"/>
<polygon fill="midnightblue" stroke="midnightblue" points="989.87,-630.63 987.86,-620.23 982.94,-629.61 989.87,-630.63"/>
</g>
<!-- Node5&#45;&gt;Node4 -->
<g id="edge7" class="edge">
<title>Node5&#45;&gt;Node4</title>
<path fill="none" stroke="midnightblue" d="M886.88,-828.99C891.38,-826.47 895.51,-823.37 899,-819.56 933.63,-781.72 923.49,-641.55 935,-591.56 948.41,-533.34 970.83,-466.29 982.1,-433.98"/>
<polygon fill="midnightblue" stroke="midnightblue" points="985.45,-435 985.46,-424.41 978.84,-432.68 985.45,-435"/>
</g>
<!-- Node7&#45;&gt;Node2 -->
<g id="edge10" class="edge">
<title>Node7&#45;&gt;Node2</title>
<path fill="none" stroke="midnightblue" d="M265.97,-565.8C278.8,-602.97 316.38,-699.37 378,-755.56 503.09,-869.64 576.37,-842.61 745,-857.56 813.18,-863.61 842.93,-896.81 899,-857.56 975.33,-804.14 987.15,-678.86 988.81,-630.29"/>
<polygon fill="midnightblue" stroke="midnightblue" points="992.32,-630.24 989.04,-620.16 985.32,-630.08 992.32,-630.24"/>
</g>
<!-- Node7&#45;&gt;Node4 -->
<g id="edge54" class="edge">
<title>Node7&#45;&gt;Node4</title>
<path fill="none" stroke="midnightblue" d="M263.67,-535.48C272.6,-488.48 305.06,-342.07 378,-246.56 487.45,-103.25 566.88,-101.65 745,-73.56 812.61,-62.9 844.78,-31.79 899,-73.56 951.27,-113.83 979.32,-328 986.88,-394.71"/>
<polygon fill="midnightblue" stroke="midnightblue" points="983.41,-395.19 987.99,-404.74 990.37,-394.42 983.41,-395.19"/>
</g>
<!-- Node8 -->
<g id="node8" class="node">
<title>Node8</title>
<g id="a_node8"><a xlink:href="class_t_all_routes.html#afbb161c646677f13755041b895a23982" target="_top" xlink:title="Examines Route2MultiMap for the element at TrackVectorPosition with LinkPos (can be entry or exit).">
<polygon fill="white" stroke="black" points="543.5,-750.56 543.5,-780.56 675.5,-780.56 675.5,-750.56 543.5,-750.56"/>
<text text-anchor="start" x="551.5" y="-768.56" font-family="Helvetica,sans-Serif" font-size="10.00">TAllRoutes::GetRouteType</text>
<text text-anchor="middle" x="609.5" y="-757.56" font-family="Helvetica,sans-Serif" font-size="10.00">AndGraphics</text>
</a>
</g>
</g>
<!-- Node7&#45;&gt;Node8 -->
<g id="edge11" class="edge">
<title>Node7&#45;&gt;Node8</title>
<path fill="none" stroke="midnightblue" d="M277.16,-565.76C314.97,-600.56 413.36,-686.8 510,-735.56 518.74,-739.97 528.24,-743.87 537.79,-747.27"/>
<polygon fill="midnightblue" stroke="midnightblue" points="536.73,-750.6 547.32,-750.5 538.98,-743.97 536.73,-750.6"/>
</g>
<!-- Node7&#45;&gt;Node9 -->
<g id="edge55" class="edge">
<title>Node7&#45;&gt;Node9</title>
<path fill="none" stroke="midnightblue" d="M269.84,-565.81C297.75,-612.08 389.29,-750.16 510,-790.56 589.26,-817.09 686.32,-815.2 750.7,-809.56"/>
<polygon fill="midnightblue" stroke="midnightblue" points="751.12,-813.04 760.75,-808.63 750.47,-806.07 751.12,-813.04"/>
</g>
<!-- Node10 -->
<g id="node10" class="node">
<title>Node10</title>
<g id="a_node10"><a xlink:href="class_t_all_routes.html#aa92b37f73176fcf3454688bb15b9f64c" target="_top" xlink:title="Checks whether the preferred direction element at TrackVectorPosition with XLinkPos value is in a loc...">
<polygon fill="white" stroke="black" points="510,-159.06 510,-200.06 709,-200.06 709,-159.06 510,-159.06"/>
<text text-anchor="start" x="518" y="-188.06" font-family="Helvetica,sans-Serif" font-size="10.00">TAllRoutes::IsElementInLocked</text>
<text text-anchor="start" x="518" y="-177.06" font-family="Helvetica,sans-Serif" font-size="10.00">RouteGetPrefDirElementGetLockedVector</text>
<text text-anchor="middle" x="609.5" y="-166.06" font-family="Helvetica,sans-Serif" font-size="10.00">Number</text>
</a>
</g>
</g>
<!-- Node7&#45;&gt;Node10 -->
<g id="edge17" class="edge">
<title>Node7&#45;&gt;Node10</title>
<path fill="none" stroke="midnightblue" d="M268.11,-535.35C293.34,-482.92 383.95,-307.87 510,-214.56 514.98,-210.88 520.38,-207.55 526,-204.56"/>
<polygon fill="midnightblue" stroke="midnightblue" points="527.57,-207.68 534.99,-200.12 524.47,-201.41 527.57,-207.68"/>
</g>
<!-- Node11 -->
<g id="node11" class="node">
<title>Node11</title>
<g id="a_node11"><a xlink:href="class_t_track.html#a73e781d0ada0b77618b886557f79b115" target="_top" xlink:title="True if a level crossing is found at H &amp; V.">
<polygon fill="white" stroke="black" points="562,-446.06 562,-465.06 657,-465.06 657,-446.06 562,-446.06"/>
<text text-anchor="middle" x="609.5" y="-453.06" font-family="Helvetica,sans-Serif" font-size="10.00">TTrack::IsLCAtHV</text>
</a>
</g>
</g>
<!-- Node7&#45;&gt;Node11 -->
<g id="edge22" class="edge">
<title>Node7&#45;&gt;Node11</title>
<path fill="none" stroke="midnightblue" d="M305.14,-535.54C354.6,-519.07 437.4,-492.59 510,-474.56 523.47,-471.22 538.09,-468.11 551.85,-465.43"/>
<polygon fill="midnightblue" stroke="midnightblue" points="552.52,-468.86 561.68,-463.55 551.2,-461.99 552.52,-468.86"/>
</g>
<!-- Node14 -->
<g id="node14" class="node">
<title>Node14</title>
<g id="a_node14"><a xlink:href="class_t_track.html#aad258b17c96ace0dbbad3754eb743274" target="_top" xlink:title="True if an open (to trains) level crossing is found at H &amp; V.">
<polygon fill="white" stroke="black" points="536,-405.06 536,-424.06 683,-424.06 683,-405.06 536,-405.06"/>
<text text-anchor="middle" x="609.5" y="-412.06" font-family="Helvetica,sans-Serif" font-size="10.00">TTrack::IsLCBarrierDownAtHV</text>
</a>
</g>
</g>
<!-- Node7&#45;&gt;Node14 -->
<g id="edge31" class="edge">
<title>Node7&#45;&gt;Node14</title>
<path fill="none" stroke="midnightblue" d="M283.07,-535.37C306.02,-520.05 343.37,-496.46 378,-480.56 434.2,-454.76 450.41,-453.1 510,-436.56 523.19,-432.9 537.49,-429.43 551.01,-426.37"/>
<polygon fill="midnightblue" stroke="midnightblue" points="552.16,-429.7 561.16,-424.11 550.64,-422.86 552.16,-429.7"/>
</g>
<!-- Node15 -->
<g id="node15" class="node">
<title>Node15</title>
<g id="a_node15"><a xlink:href="class_t_display.html#a9ab49e52c7eb92b32ae2c34547183439" target="_top" xlink:title="Plot the graphic at screen position HPos &amp; VPos.">
<polygon fill="white" stroke="black" points="768.5,-601.06 768.5,-620.06 875.5,-620.06 875.5,-601.06 768.5,-601.06"/>
<text text-anchor="middle" x="822" y="-608.06" font-family="Helvetica,sans-Serif" font-size="10.00">TDisplay::PlotOutput</text>
</a>
</g>
</g>
<!-- Node7&#45;&gt;Node15 -->
<g id="edge36" class="edge">
<title>Node7&#45;&gt;Node15</title>
<path fill="none" stroke="midnightblue" d="M342.23,-548.38C381.98,-547.87 430.53,-548.07 474,-550.56 578.96,-556.57 605.97,-556.63 709,-577.56 734.21,-582.68 761.95,-590.84 783.51,-597.76"/>
<polygon fill="midnightblue" stroke="midnightblue" points="782.67,-601.16 793.26,-600.93 784.84,-594.51 782.67,-601.16"/>
</g>
<!-- Node16 -->
<g id="node16" class="node">
<title>Node16</title>
<g id="a_node16"><a xlink:href="class_t_track.html#aa5742fbc2eb3f8743dde84005499f89e" target="_top" xlink:title="Plot signals on screen according to their aspect (Attribute value)">
<polygon fill="white" stroke="black" points="378,-598.06 378,-617.06 474,-617.06 474,-598.06 378,-598.06"/>
<text text-anchor="middle" x="426" y="-605.06" font-family="Helvetica,sans-Serif" font-size="10.00">TTrack::PlotSignal</text>
</a>
</g>
</g>
<!-- Node7&#45;&gt;Node16 -->
<g id="edge39" class="edge">
<title>Node7&#45;&gt;Node16</title>
<path fill="none" stroke="midnightblue" d="M304.52,-565.69C330.37,-574.67 362.83,-585.95 387.54,-594.54"/>
<polygon fill="midnightblue" stroke="midnightblue" points="386.68,-597.95 397.27,-597.92 388.98,-591.34 386.68,-597.95"/>
</g>
<!-- Node21 -->
<g id="node21" class="node">
<title>Node21</title>
<g id="a_node21"><a xlink:href="class_t_display.html#aa4f37ab2a4df6437a2219f303e1de40b" target="_top" xlink:title="Repaint the screen display.">
<polygon fill="white" stroke="black" points="380.5,-560.06 380.5,-579.06 471.5,-579.06 471.5,-560.06 380.5,-560.06"/>
<text text-anchor="middle" x="426" y="-567.06" font-family="Helvetica,sans-Serif" font-size="10.00">TDisplay::Update</text>
</a>
</g>
</g>
<!-- Node7&#45;&gt;Node21 -->
<g id="edge56" class="edge">
<title>Node7&#45;&gt;Node21</title>
<path fill="none" stroke="midnightblue" d="M342.04,-559.95C351.65,-561.06 361.29,-562.18 370.41,-563.24"/>
<polygon fill="midnightblue" stroke="midnightblue" points="370.13,-566.73 380.46,-564.4 370.93,-559.77 370.13,-566.73"/>
</g>
<!-- Node8&#45;&gt;Node2 -->
<g id="edge12" class="edge">
<title>Node8&#45;&gt;Node2</title>
<path fill="none" stroke="midnightblue" d="M675.62,-774.33C737.36,-779.37 830.57,-778.25 899,-738.56 942.11,-713.55 969.66,-658.65 981.8,-629.54"/>
<polygon fill="midnightblue" stroke="midnightblue" points="985.12,-630.67 985.58,-620.09 978.62,-628.07 985.12,-630.67"/>
</g>
<!-- Node8&#45;&gt;Node4 -->
<g id="edge13" class="edge">
<title>Node8&#45;&gt;Node4</title>
<path fill="none" stroke="midnightblue" d="M626.96,-750.22C651.04,-728.61 698.12,-689.39 745,-667.56 808.91,-637.8 845.45,-675.41 899,-629.56 959.94,-577.38 980.47,-477.05 986.63,-434.46"/>
<polygon fill="midnightblue" stroke="midnightblue" points="990.11,-434.88 987.96,-424.5 983.17,-433.95 990.11,-434.88"/>
</g>
<!-- Node8&#45;&gt;Node9 -->
<g id="edge14" class="edge">
<title>Node8&#45;&gt;Node9</title>
<path fill="none" stroke="midnightblue" d="M675.66,-776.4C700.39,-780.51 728.59,-785.2 753.52,-789.34"/>
<polygon fill="midnightblue" stroke="midnightblue" points="753.19,-792.83 763.63,-791.02 754.34,-785.93 753.19,-792.83"/>
</g>
<!-- Node9&#45;&gt;Node2 -->
<g id="edge15" class="edge">
<title>Node9&#45;&gt;Node2</title>
<path fill="none" stroke="midnightblue" d="M872.44,-791.02C881.94,-787.57 891.32,-782.9 899,-776.56 947.14,-736.83 973.46,-664.38 983.78,-629.85"/>
<polygon fill="midnightblue" stroke="midnightblue" points="987.2,-630.64 986.58,-620.06 980.47,-628.72 987.2,-630.64"/>
</g>
<!-- Node9&#45;&gt;Node4 -->
<g id="edge16" class="edge">
<title>Node9&#45;&gt;Node4</title>
<path fill="none" stroke="midnightblue" d="M832.81,-790.92C848.82,-774.69 880.6,-740.27 899,-705.56 902.33,-699.28 963.58,-498.19 983.09,-434.03"/>
<polygon fill="midnightblue" stroke="midnightblue" points="986.47,-434.92 986.03,-424.33 979.78,-432.88 986.47,-434.92"/>
</g>
<!-- Node10&#45;&gt;Node2 -->
<g id="edge18" class="edge">
<title>Node10&#45;&gt;Node2</title>
<path fill="none" stroke="midnightblue" d="M664.4,-200.16C728.82,-227.38 835.82,-281.21 899,-359.56 929.18,-396.99 969.64,-538.94 983.83,-591.14"/>
<polygon fill="midnightblue" stroke="midnightblue" points="980.46,-592.11 986.44,-600.85 987.22,-590.28 980.46,-592.11"/>
</g>
<!-- Node10&#45;&gt;Node3 -->
<g id="edge19" class="edge">
<title>Node10&#45;&gt;Node3</title>
<path fill="none" stroke="midnightblue" d="M709.28,-159.38C721.63,-156.86 734.1,-154.31 746.01,-151.88"/>
<polygon fill="midnightblue" stroke="midnightblue" points="746.76,-155.3 755.86,-149.87 745.36,-148.44 746.76,-155.3"/>
</g>
<!-- Node10&#45;&gt;Node4 -->
<g id="edge21" class="edge">
<title>Node10&#45;&gt;Node4</title>
<path fill="none" stroke="midnightblue" d="M709.12,-164.17C769.35,-160.18 844.92,-165.45 899,-204.56 963.02,-250.87 981.9,-352.26 987.13,-394.97"/>
<polygon fill="midnightblue" stroke="midnightblue" points="983.65,-395.38 988.23,-404.94 990.61,-394.61 983.65,-395.38"/>
</g>
<!-- Node10&#45;&gt;Node6 -->
<g id="edge20" class="edge">
<title>Node10&#45;&gt;Node6</title>
<path fill="none" stroke="midnightblue" d="M645.77,-158.99C672.34,-144.17 710.06,-124.57 745,-111.56 751.75,-109.05 758.95,-106.76 766.14,-104.72"/>
<polygon fill="midnightblue" stroke="midnightblue" points="767.15,-108.07 775.88,-102.08 765.32,-101.31 767.15,-108.07"/>
</g>
<!-- Node11&#45;&gt;Node2 -->
<g id="edge23" class="edge">
<title>Node11&#45;&gt;Node2</title>
<path fill="none" stroke="midnightblue" d="M657.18,-463.53C727.77,-476.11 857.82,-501.53 899,-524.56 930.55,-542.21 959.29,-573.5 975.42,-593.08"/>
<polygon fill="midnightblue" stroke="midnightblue" points="972.73,-595.32 981.73,-600.92 978.19,-590.94 972.73,-595.32"/>
</g>
<!-- Node11&#45;&gt;Node4 -->
<g id="edge30" class="edge">
<title>Node11&#45;&gt;Node4</title>
<path fill="none" stroke="midnightblue" d="M657.23,-451.48C674.44,-448.39 693.51,-442.99 709,-433.56 730.29,-420.6 722.42,-401.11 745,-390.56 815.03,-357.86 908.48,-383.62 956.89,-401.37"/>
<polygon fill="midnightblue" stroke="midnightblue" points="955.92,-404.74 966.51,-405.01 958.39,-398.19 955.92,-404.74"/>
</g>
<!-- Node12 -->
<g id="node12" class="node">
<title>Node12</title>
<g id="a_node12"><a xlink:href="class_t_track.html#a418966e6fefb71b9d0c9b941197832da" target="_top" xlink:title="Similar to GetVectorPositionFromTrackMap but for inactive elements, a pair is returned because there ...">
<polygon fill="white" stroke="black" points="753.5,-399.56 753.5,-429.56 890.5,-429.56 890.5,-399.56 753.5,-399.56"/>
<text text-anchor="start" x="761.5" y="-417.56" font-family="Helvetica,sans-Serif" font-size="10.00">TTrack::GetVectorPositions</text>
<text text-anchor="middle" x="822" y="-406.56" font-family="Helvetica,sans-Serif" font-size="10.00">FromInactiveTrackMap</text>
</a>
</g>
</g>
<!-- Node11&#45;&gt;Node12 -->
<g id="edge24" class="edge">
<title>Node11&#45;&gt;Node12</title>
<path fill="none" stroke="midnightblue" d="M657.22,-446.46C682.46,-441.54 714.29,-435.34 743.17,-429.72"/>
<polygon fill="midnightblue" stroke="midnightblue" points="744.1,-433.11 753.24,-427.76 742.76,-426.23 744.1,-433.11"/>
</g>
<!-- Node13 -->
<g id="node13" class="node">
<title>Node13</title>
<g id="a_node13"><a xlink:href="class_t_track.html#a51f89cf70e94b037f6378cd78003d82b" target="_top" xlink:title="A range&#45;checked version of InactiveTrackVector.at(At)">
<polygon fill="white" stroke="black" points="745,-449.06 745,-468.06 899,-468.06 899,-449.06 745,-449.06"/>
<text text-anchor="middle" x="822" y="-456.06" font-family="Helvetica,sans-Serif" font-size="10.00">TTrack::InactiveTrackElementAt</text>
</a>
</g>
</g>
<!-- Node11&#45;&gt;Node13 -->
<g id="edge27" class="edge">
<title>Node11&#45;&gt;Node13</title>
<path fill="none" stroke="midnightblue" d="M657.22,-456.23C679.99,-456.55 708.11,-456.95 734.6,-457.33"/>
<polygon fill="midnightblue" stroke="midnightblue" points="734.6,-460.83 744.65,-457.47 734.7,-453.83 734.6,-460.83"/>
</g>
<!-- Node12&#45;&gt;Node2 -->
<g id="edge25" class="edge">
<title>Node12&#45;&gt;Node2</title>
<path fill="none" stroke="midnightblue" d="M883.82,-429.67C889.27,-432.44 894.44,-435.7 899,-439.56 947.77,-480.81 973.78,-555.29 983.91,-590.75"/>
<polygon fill="midnightblue" stroke="midnightblue" points="980.64,-592.08 986.64,-600.8 987.39,-590.24 980.64,-592.08"/>
</g>
<!-- Node12&#45;&gt;Node4 -->
<g id="edge26" class="edge">
<title>Node12&#45;&gt;Node4</title>
<path fill="none" stroke="midnightblue" d="M890.52,-414.56C901.79,-414.56 913.45,-414.56 924.64,-414.56"/>
<polygon fill="midnightblue" stroke="midnightblue" points="924.76,-418.06 934.76,-414.56 924.76,-411.06 924.76,-418.06"/>
</g>
<!-- Node13&#45;&gt;Node2 -->
<g id="edge28" class="edge">
<title>Node13&#45;&gt;Node2</title>
<path fill="none" stroke="midnightblue" d="M869.9,-468.12C880.1,-471.59 890.4,-476.27 899,-482.56 938.65,-511.59 967.2,-563.5 980.54,-591.47"/>
<polygon fill="midnightblue" stroke="midnightblue" points="977.54,-593.3 984.9,-600.91 983.89,-590.37 977.54,-593.3"/>
</g>
<!-- Node13&#45;&gt;Node4 -->
<g id="edge29" class="edge">
<title>Node13&#45;&gt;Node4</title>
<path fill="none" stroke="midnightblue" d="M862.1,-448.99C873.97,-446.03 887.03,-442.72 899,-439.56 914.16,-435.56 930.71,-431.02 945.43,-426.91"/>
<polygon fill="midnightblue" stroke="midnightblue" points="946.61,-430.21 955.29,-424.15 944.72,-423.47 946.61,-430.21"/>
</g>
<!-- Node14&#45;&gt;Node2 -->
<g id="edge32" class="edge">
<title>Node14&#45;&gt;Node2</title>
<path fill="none" stroke="midnightblue" d="M630.84,-404.92C681.22,-382.58 813.87,-333.41 899,-390.56 934.28,-414.24 971.04,-542.18 984.07,-591.32"/>
<polygon fill="midnightblue" stroke="midnightblue" points="980.69,-592.25 986.6,-601.04 987.46,-590.48 980.69,-592.25"/>
</g>
<!-- Node14&#45;&gt;Node4 -->
<g id="edge35" class="edge">
<title>Node14&#45;&gt;Node4</title>
<path fill="none" stroke="midnightblue" d="M619.45,-404.99C639.52,-384.32 690.63,-335.97 745,-318.56 810.18,-297.68 836.2,-291.35 899,-318.56 935.48,-334.37 963.95,-373.04 978.45,-396.2"/>
<polygon fill="midnightblue" stroke="midnightblue" points="975.46,-398.03 983.63,-404.78 981.46,-394.41 975.46,-398.03"/>
</g>
<!-- Node14&#45;&gt;Node12 -->
<g id="edge33" class="edge">
<title>Node14&#45;&gt;Node12</title>
<path fill="none" stroke="midnightblue" d="M683.24,-414.56C702.57,-414.56 723.52,-414.56 743.11,-414.56"/>
<polygon fill="midnightblue" stroke="midnightblue" points="743.21,-418.06 753.21,-414.56 743.21,-411.06 743.21,-418.06"/>
</g>
<!-- Node14&#45;&gt;Node13 -->
<g id="edge34" class="edge">
<title>Node14&#45;&gt;Node13</title>
<path fill="none" stroke="midnightblue" d="M656.18,-424.11C688.31,-430.83 731.5,-439.85 765.6,-446.98"/>
<polygon fill="midnightblue" stroke="midnightblue" points="764.91,-450.41 775.41,-449.03 766.34,-443.56 764.91,-450.41"/>
</g>
<!-- Node15&#45;&gt;Node2 -->
<g id="edge37" class="edge">
<title>Node15&#45;&gt;Node2</title>
<path fill="none" stroke="midnightblue" d="M875.52,-610.56C891.03,-610.56 908.18,-610.56 924.36,-610.56"/>
<polygon fill="midnightblue" stroke="midnightblue" points="924.82,-614.06 934.82,-610.56 924.82,-607.06 924.82,-614.06"/>
</g>
<!-- Node15&#45;&gt;Node4 -->
<g id="edge38" class="edge">
<title>Node15&#45;&gt;Node4</title>
<path fill="none" stroke="midnightblue" d="M837.23,-600.91C853.34,-589.56 879.85,-569.58 899,-548.56 932.96,-511.29 963.64,-460.23 978.87,-433.16"/>
<polygon fill="midnightblue" stroke="midnightblue" points="981.97,-434.79 983.77,-424.35 975.85,-431.39 981.97,-434.79"/>
</g>
<!-- Node16&#45;&gt;Node2 -->
<g id="edge40" class="edge">
<title>Node16&#45;&gt;Node2</title>
<path fill="none" stroke="midnightblue" d="M439.08,-617.15C448.88,-625.15 462.85,-637.05 474,-648.56 491.58,-666.71 487.47,-681.11 510,-692.56 587.11,-731.75 819.55,-739.74 899,-705.56 935.16,-690.01 963.6,-652 978.2,-629.05"/>
<polygon fill="midnightblue" stroke="midnightblue" points="981.36,-630.6 983.6,-620.24 975.39,-626.94 981.36,-630.6"/>
</g>
<!-- Node16&#45;&gt;Node4 -->
<g id="edge53" class="edge">
<title>Node16&#45;&gt;Node4</title>
<path fill="none" stroke="midnightblue" d="M462.52,-597.88C466.88,-595.43 470.88,-592.38 474,-588.56 529.24,-521.02 455.37,-463.6 510,-395.56 581.06,-307.05 633.78,-318.24 745,-295.56 812.06,-281.89 837.72,-265.07 899,-295.56 940.95,-316.43 968.55,-367.22 981.14,-395.23"/>
<polygon fill="midnightblue" stroke="midnightblue" points="978.06,-396.93 985.22,-404.74 984.49,-394.17 978.06,-396.93"/>
</g>
<!-- Node16&#45;&gt;Node15 -->
<g id="edge43" class="edge">
<title>Node16&#45;&gt;Node15</title>
<path fill="none" stroke="midnightblue" d="M460.62,-598.05C475.61,-594.29 493.55,-590.42 510,-588.56 597.89,-578.63 620.97,-580 709,-588.56 729.99,-590.6 752.89,-594.75 772.48,-598.9"/>
<polygon fill="midnightblue" stroke="midnightblue" points="771.88,-602.35 782.4,-601.06 773.37,-595.51 771.88,-602.35"/>
</g>
<!-- Node17 -->
<g id="node17" class="node">
<title>Node17</title>
<g id="a_node17"><a xlink:href="class_t_display.html#a33f7067eea9e638bdc363bd0af70d7d5" target="_top" xlink:title="Return a pointer to the screen image.">
<polygon fill="white" stroke="black" points="558.5,-598.06 558.5,-617.06 660.5,-617.06 660.5,-598.06 558.5,-598.06"/>
<text text-anchor="middle" x="609.5" y="-605.06" font-family="Helvetica,sans-Serif" font-size="10.00">TDisplay::GetImage</text>
</a>
</g>
</g>
<!-- Node16&#45;&gt;Node17 -->
<g id="edge41" class="edge">
<title>Node16&#45;&gt;Node17</title>
<path fill="none" stroke="midnightblue" d="M474.21,-607.56C496.82,-607.56 524.16,-607.56 548.24,-607.56"/>
<polygon fill="midnightblue" stroke="midnightblue" points="548.35,-611.06 558.35,-607.56 548.35,-604.06 548.35,-611.06"/>
</g>
<!-- Node18 -->
<g id="node18" class="node">
<title>Node18</title>
<g id="a_node18"><a xlink:href="class_t_track_element.html#a100bff829c4dca820927affde4cb9e57" target="_top" xlink:title="Used to log track parameters for call stack logging.">
<polygon fill="white" stroke="black" points="545.5,-636.06 545.5,-655.06 673.5,-655.06 673.5,-636.06 545.5,-636.06"/>
<text text-anchor="middle" x="609.5" y="-643.06" font-family="Helvetica,sans-Serif" font-size="10.00">TTrackElement::LogTrack</text>
</a>
</g>
</g>
<!-- Node16&#45;&gt;Node18 -->
<g id="edge42" class="edge">
<title>Node16&#45;&gt;Node18</title>
<path fill="none" stroke="midnightblue" d="M467.47,-617.12C480.97,-620.23 496.11,-623.63 510,-626.56 522.1,-629.11 535.07,-631.71 547.49,-634.13"/>
<polygon fill="midnightblue" stroke="midnightblue" points="546.83,-637.57 557.31,-636.03 548.16,-630.7 546.83,-637.57"/>
</g>
<!-- Node19 -->
<g id="node19" class="node">
<title>Node19</title>
<g id="a_node19"><a xlink:href="class_t_display.html#a6e970089a9419e6bdd12576b6e860c95" target="_top" xlink:title=" ">
<polygon fill="white" stroke="black" points="757.5,-677.06 757.5,-696.06 886.5,-696.06 886.5,-677.06 757.5,-677.06"/>
<text text-anchor="middle" x="822" y="-684.06" font-family="Helvetica,sans-Serif" font-size="10.00">TDisplay::PlotSignalBlank</text>
</a>
</g>
</g>
<!-- Node16&#45;&gt;Node19 -->
<g id="edge44" class="edge">
<title>Node16&#45;&gt;Node19</title>
<path fill="none" stroke="midnightblue" d="M437.24,-617.35C451.97,-630.75 480.63,-654.3 510,-664.56 587.73,-691.72 682.89,-694.37 747.32,-692.05"/>
<polygon fill="midnightblue" stroke="midnightblue" points="747.54,-695.55 757.39,-691.64 747.25,-688.55 747.54,-695.55"/>
</g>
<!-- Node20 -->
<g id="node20" class="node">
<title>Node20</title>
<g id="a_node20"><a xlink:href="class_t_track.html#a2830b22db25712a80fa55b1546b5df9b" target="_top" xlink:title="Plot platforms if any for a signal graphic &#45; plotted before signal so shows through transparent signa...">
<polygon fill="white" stroke="black" points="541,-484.06 541,-503.06 678,-503.06 678,-484.06 541,-484.06"/>
<text text-anchor="middle" x="609.5" y="-491.06" font-family="Helvetica,sans-Serif" font-size="10.00">TTrack::PlotSignalPlatforms</text>
</a>
</g>
</g>
<!-- Node16&#45;&gt;Node20 -->
<g id="edge47" class="edge">
<title>Node16&#45;&gt;Node20</title>
<path fill="none" stroke="midnightblue" d="M455.64,-597.89C461.9,-595.26 468.34,-592.13 474,-588.56 492.35,-576.98 492.75,-568.73 510,-555.56 533.4,-537.7 562.07,-520.09 582.43,-508.23"/>
<polygon fill="midnightblue" stroke="midnightblue" points="584.23,-511.23 591.15,-503.2 580.74,-505.16 584.23,-511.23"/>
</g>
<!-- Node19&#45;&gt;Node2 -->
<g id="edge45" class="edge">
<title>Node19&#45;&gt;Node2</title>
<path fill="none" stroke="midnightblue" d="M858.78,-677.02C871.68,-673.12 886.21,-668.19 899,-662.56 922.77,-652.09 948.25,-636.96 966.02,-625.72"/>
<polygon fill="midnightblue" stroke="midnightblue" points="968.03,-628.58 974.55,-620.24 964.25,-622.69 968.03,-628.58"/>
</g>
<!-- Node19&#45;&gt;Node4 -->
<g id="edge46" class="edge">
<title>Node19&#45;&gt;Node4</title>
<path fill="none" stroke="midnightblue" d="M875.56,-676.97C884.16,-673.54 892.41,-668.88 899,-662.56 916.4,-645.88 966.02,-489 983.12,-433.72"/>
<polygon fill="midnightblue" stroke="midnightblue" points="986.49,-434.68 986.09,-424.09 979.8,-432.62 986.49,-434.68"/>
</g>
<!-- Node20&#45;&gt;Node2 -->
<g id="edge48" class="edge">
<title>Node20&#45;&gt;Node2</title>
<path fill="none" stroke="midnightblue" d="M652.88,-503.09C670.34,-507.22 690.73,-512.31 709,-517.56 797.57,-543.01 899.93,-578.62 952.97,-597.54"/>
<polygon fill="midnightblue" stroke="midnightblue" points="951.99,-600.91 962.59,-600.98 954.35,-594.32 951.99,-600.91"/>
</g>
<!-- Node20&#45;&gt;Node4 -->
<g id="edge52" class="edge">
<title>Node20&#45;&gt;Node4</title>
<path fill="none" stroke="midnightblue" d="M678.1,-500.08C737.87,-503.47 826.59,-502.61 899,-477.56 927.35,-467.75 954.83,-446.22 971.81,-431.07"/>
<polygon fill="midnightblue" stroke="midnightblue" points="974.27,-433.57 979.27,-424.22 969.53,-428.41 974.27,-433.57"/>
</g>
<!-- Node20&#45;&gt;Node12 -->
<g id="edge49" class="edge">
<title>Node20&#45;&gt;Node12</title>
<path fill="none" stroke="midnightblue" d="M678.23,-485.9C688.89,-483.19 699.5,-479.52 709,-474.56 728.78,-464.24 725.91,-451.12 745,-439.56 748.44,-437.48 752.08,-435.54 755.83,-433.75"/>
<polygon fill="midnightblue" stroke="midnightblue" points="757.55,-436.82 765.3,-429.6 754.74,-430.41 757.55,-436.82"/>
</g>
<!-- Node20&#45;&gt;Node13 -->
<g id="edge50" class="edge">
<title>Node20&#45;&gt;Node13</title>
<path fill="none" stroke="midnightblue" d="M667.74,-484.04C694.31,-479.63 726.07,-474.35 753.76,-469.74"/>
<polygon fill="midnightblue" stroke="midnightblue" points="754.48,-473.17 763.77,-468.08 753.33,-466.26 754.48,-473.17"/>
</g>
<!-- Node20&#45;&gt;Node15 -->
<g id="edge51" class="edge">
<title>Node20&#45;&gt;Node15</title>
<path fill="none" stroke="midnightblue" d="M678.13,-501.92C689.21,-505.49 699.99,-510.51 709,-517.56 736.23,-538.89 718.5,-564.33 745,-586.56 749.94,-590.7 755.6,-594.13 761.55,-596.97"/>
<polygon fill="midnightblue" stroke="midnightblue" points="760.51,-600.33 771.09,-600.97 763.22,-593.88 760.51,-600.33"/>
</g>
</g>
</svg>
        <g id="navigator" transform="translate(0 0)" fill="#404254">
                <rect fill="#f2f5e9" fill-opacity="0.5" stroke="#606060" stroke-width=".5" x="0" y="0" width="60" height="60"/>
                <use id="zoomplus" xlink:href="#zoomPlus" x="17" y="9" onmousedown="handleZoom(evt,'in')"/>
                <use id="zoomminus" xlink:href="#zoomMin" x="42" y="9" onmousedown="handleZoom(evt,'out')"/>
                <use id="reset" xlink:href="#resetDef" x="30" y="36" onmousedown="handleReset()"/>
                <g id="arrowUp" xlink:href="#dirArrow" transform="translate(30 24)" onmousedown="handlePan(0,-1)">
                  <use xlink:href="#rim" fill="#404040">
                        <set attributeName="fill" to="#808080" begin="arrowUp.mouseover" end="arrowUp.mouseout"/>
                  </use>
                  <path fill="none" stroke="white" stroke-width="1.5" d="M0,-3.0v7 M-2.5,-0.5L0,-3.0L2.5,-0.5"/>
                </g>
                <g id="arrowRight" xlink:href="#dirArrow" transform="rotate(90) translate(36 -43)" onmousedown="handlePan(1,0)">
                  <use xlink:href="#rim" fill="#404040">
                        <set attributeName="fill" to="#808080" begin="arrowRight.mouseover" end="arrowRight.mouseout"/>
                  </use>
                  <path fill="none" stroke="white" stroke-width="1.5" d="M0,-3.0v7 M-2.5,-0.5L0,-3.0L2.5,-0.5"/>
                </g>
                <g id="arrowDown" xlink:href="#dirArrow" transform="rotate(180) translate(-30 -48)" onmousedown="handlePan(0,1)">
                  <use xlink:href="#rim" fill="#404040">
                        <set attributeName="fill" to="#808080" begin="arrowDown.mouseover" end="arrowDown.mouseout"/>
                  </use>
                  <path fill="none" stroke="white" stroke-width="1.5" d="M0,-3.0v7 M-2.5,-0.5L0,-3.0L2.5,-0.5"/>
                </g>
                <g id="arrowLeft" xlink:href="#dirArrow" transform="rotate(270) translate(-36 17)" onmousedown="handlePan(-1,0)">
                  <use xlink:href="#rim" fill="#404040">
                        <set attributeName="fill" to="#808080" begin="arrowLeft.mouseover" end="arrowLeft.mouseout"/>
                  </use>
                  <path fill="none" stroke="white" stroke-width="1.5" d="M0,-3.0v7 M-2.5,-0.5L0,-3.0L2.5,-0.5"/>
                </g>
        </g>
        <svg viewBox="0 0 15 15" width="100%" height="30px" preserveAspectRatio="xMaxYMin meet">
         <g id="arrow_out" transform="scale(0.3 0.3)">
          <a xlink:href="class_t_all_routes_ac6bd39457747eaa96476a8a87df15ac2_cgraph_org.svg" target="_base">
           <rect id="button" ry="5" rx="5" y="6" x="6" height="38" width="38"
                fill="#f2f5e9" fill-opacity="0.5" stroke="#606060" stroke-width="1.0"/>
           <path id="arrow"
             d="M 11.500037,31.436501 C 11.940474,20.09759 22.043105,11.32322 32.158766,21.979434 L 37.068811,17.246167 C 37.068811,17.246167 37.088388,32 37.088388,32 L 22.160133,31.978069 C 22.160133,31.978069 26.997745,27.140456 26.997745,27.140456 C 18.528582,18.264221 13.291696,25.230495 11.500037,31.436501 z"
             style="fill:#404040;"/>
          </a>
         </g>
        </svg>
</svg>
