<?xml version="1.0" encoding="UTF-8" standalone="no"?>
<!DOCTYPE svg PUBLIC "-//W3C//DTD SVG 1.1//EN"
 "http://www.w3.org/Graphics/SVG/1.1/DTD/svg11.dtd">
<!-- Generated by graphviz version 2.44.1 (20200629.0800)
 -->
<!-- Title: TInterface::BuildDynamicMapFromPlayerDatagram Pages: 1 -->
<svg width="674pt" height="154pt"
 viewBox="0.00 0.00 674.00 154.00" xmlns="http://www.w3.org/2000/svg" xmlns:xlink="http://www.w3.org/1999/xlink">
<g id="graph0" class="graph" transform="scale(1 1) rotate(0) translate(4 150)">
<title>TInterface::BuildDynamicMapFromPlayerDatagram</title>
<polygon fill="white" stroke="transparent" points="-4,4 -4,-150 670,-150 670,4 -4,4"/>
<!-- Node1 -->
<g id="node1" class="node">
<title>Node1</title>
<g id="a_node1"><a xlink:title="Converse of BuildDatagramFromPlayerMap.">
<polygon fill="#bfbfbf" stroke="black" points="0,-55 0,-85 128,-85 128,-55 0,-55"/>
<text text-anchor="start" x="8" y="-73" font-family="Helvetica,sans-Serif" font-size="10.00">TInterface::BuildDynamic</text>
<text text-anchor="middle" x="64" y="-62" font-family="Helvetica,sans-Serif" font-size="10.00">MapFromPlayerDatagram</text>
</a>
</g>
</g>
<!-- Node2 -->
<g id="node2" class="node">
<title>Node2</title>
<g id="a_node2"><a xlink:href="class_t_utilities.html#ae1eddca13cc3c492839e131f40ec21c0" target="_top" xlink:title="pops the last entry off the call stack, throws an error if called when empty">
<polygon fill="white" stroke="black" points="545,-126.5 545,-145.5 655,-145.5 655,-126.5 545,-126.5"/>
<text text-anchor="middle" x="600" y="-133.5" font-family="Helvetica,sans-Serif" font-size="10.00">TUtilities::CallLogPop</text>
</a>
</g>
</g>
<!-- Node1&#45;&gt;Node2 -->
<g id="edge1" class="edge">
<title>Node1&#45;&gt;Node2</title>
<path fill="none" stroke="midnightblue" d="M89.6,-85.1C109.02,-96.15 137.23,-110.35 164,-117 292.48,-148.91 448.75,-146.05 534.66,-141.06"/>
<polygon fill="midnightblue" stroke="midnightblue" points="535.02,-144.55 544.78,-140.45 534.59,-137.56 535.02,-144.55"/>
</g>
<!-- Node3 -->
<g id="node3" class="node">
<title>Node3</title>
<g id="a_node3"><a xlink:href="class_t_interface_1_1_t_service_info.html#a8d793f56e3f1752f520ef780ab868915" target="_top" xlink:title=" ">
<polygon fill="white" stroke="black" points="185,-77 185,-107 301,-107 301,-77 185,-77"/>
<text text-anchor="start" x="193" y="-95" font-family="Helvetica,sans-Serif" font-size="10.00">TInterface::TServiceInfo</text>
<text text-anchor="middle" x="243" y="-84" font-family="Helvetica,sans-Serif" font-size="10.00">::CheckOK</text>
</a>
</g>
</g>
<!-- Node1&#45;&gt;Node3 -->
<g id="edge2" class="edge">
<title>Node1&#45;&gt;Node3</title>
<path fill="none" stroke="midnightblue" d="M128.4,-77.88C143.39,-79.74 159.43,-81.74 174.59,-83.62"/>
<polygon fill="midnightblue" stroke="midnightblue" points="174.57,-87.15 184.92,-84.91 175.43,-80.2 174.57,-87.15"/>
</g>
<!-- Node5 -->
<g id="node5" class="node">
<title>Node5</title>
<g id="a_node5"><a xlink:href="class_t_utilities.html#a34bd6bb5305bc29afdf424f6d35a921c" target="_top" xlink:title="creates a string of the form &#39;hh:mm:ss&#39; for use in call &amp; event logging">
<polygon fill="white" stroke="black" points="545,-38.5 545,-57.5 655,-57.5 655,-38.5 545,-38.5"/>
<text text-anchor="middle" x="600" y="-45.5" font-family="Helvetica,sans-Serif" font-size="10.00">TUtilities::TimeStamp</text>
</a>
</g>
</g>
<!-- Node1&#45;&gt;Node5 -->
<g id="edge9" class="edge">
<title>Node1&#45;&gt;Node5</title>
<path fill="none" stroke="midnightblue" d="M128.09,-67.4C230.42,-63.19 431.49,-54.9 534.63,-50.65"/>
<polygon fill="midnightblue" stroke="midnightblue" points="535.06,-54.14 544.9,-50.23 534.77,-47.14 535.06,-54.14"/>
</g>
<!-- Node7 -->
<g id="node7" class="node">
<title>Node7</title>
<g id="a_node7"><a xlink:href="class_t_interface.html#a8b7c22bd76daf3b8641fe1226d6dfb19" target="_top" xlink:title="check for datagram validity">
<polygon fill="white" stroke="black" points="164,-0.5 164,-19.5 322,-19.5 322,-0.5 164,-0.5"/>
<text text-anchor="middle" x="243" y="-7.5" font-family="Helvetica,sans-Serif" font-size="10.00">TInterface::NumHVPairCheckOK</text>
</a>
</g>
</g>
<!-- Node1&#45;&gt;Node7 -->
<g id="edge8" class="edge">
<title>Node1&#45;&gt;Node7</title>
<path fill="none" stroke="midnightblue" d="M105.3,-54.83C123.2,-48.22 144.58,-40.51 164,-34 175.53,-30.13 188.1,-26.16 199.72,-22.59"/>
<polygon fill="midnightblue" stroke="midnightblue" points="201.08,-25.83 209.63,-19.56 199.04,-19.13 201.08,-25.83"/>
</g>
<!-- Node4 -->
<g id="node4" class="node">
<title>Node4</title>
<g id="a_node4"><a xlink:href="class_t_train_controller.html#a1ccd6c8f2c24e7417889e1a91cb9ca2f" target="_top" xlink:title="Returns true if the headcode complies with requirements.">
<polygon fill="white" stroke="black" points="358,-77 358,-107 498,-107 498,-77 358,-77"/>
<text text-anchor="start" x="366" y="-95" font-family="Helvetica,sans-Serif" font-size="10.00">TTrainController::CheckHead</text>
<text text-anchor="middle" x="428" y="-84" font-family="Helvetica,sans-Serif" font-size="10.00">CodeValidity</text>
</a>
</g>
</g>
<!-- Node3&#45;&gt;Node4 -->
<g id="edge3" class="edge">
<title>Node3&#45;&gt;Node4</title>
<path fill="none" stroke="midnightblue" d="M301.15,-92C315.86,-92 331.96,-92 347.58,-92"/>
<polygon fill="midnightblue" stroke="midnightblue" points="347.75,-95.5 357.75,-92 347.75,-88.5 347.75,-95.5"/>
</g>
<!-- Node4&#45;&gt;Node2 -->
<g id="edge4" class="edge">
<title>Node4&#45;&gt;Node2</title>
<path fill="none" stroke="midnightblue" d="M487.03,-107.02C508.34,-112.54 532.18,-118.7 552.36,-123.93"/>
<polygon fill="midnightblue" stroke="midnightblue" points="551.69,-127.37 562.25,-126.49 553.44,-120.59 551.69,-127.37"/>
</g>
<!-- Node4&#45;&gt;Node5 -->
<g id="edge5" class="edge">
<title>Node4&#45;&gt;Node5</title>
<path fill="none" stroke="midnightblue" d="M487.03,-76.98C508.34,-71.46 532.18,-65.3 552.36,-60.07"/>
<polygon fill="midnightblue" stroke="midnightblue" points="553.44,-63.41 562.25,-57.51 551.69,-56.63 553.44,-63.41"/>
</g>
<!-- Node6 -->
<g id="node6" class="node">
<title>Node6</title>
<g id="a_node6"><a xlink:href="class_t_train_controller.html#a68d2124bc8f7df43e973299e0afb3dcd" target="_top" xlink:title="Sends a message to the user if GiveMessages is true, including ServiceReference (see above) if not nu...">
<polygon fill="white" stroke="black" points="534,-77 534,-107 666,-107 666,-77 534,-77"/>
<text text-anchor="start" x="542" y="-95" font-family="Helvetica,sans-Serif" font-size="10.00">TTrainController::Timetable</text>
<text text-anchor="middle" x="600" y="-84" font-family="Helvetica,sans-Serif" font-size="10.00">Message</text>
</a>
</g>
</g>
<!-- Node4&#45;&gt;Node6 -->
<g id="edge6" class="edge">
<title>Node4&#45;&gt;Node6</title>
<path fill="none" stroke="midnightblue" d="M498.15,-85.36C506.51,-85.24 515.09,-85.22 523.54,-85.29"/>
<polygon fill="midnightblue" stroke="midnightblue" points="523.72,-88.79 533.76,-85.41 523.8,-81.79 523.72,-88.79"/>
</g>
<!-- Node6&#45;&gt;Node4 -->
<g id="edge7" class="edge">
<title>Node6&#45;&gt;Node4</title>
<path fill="none" stroke="midnightblue" d="M533.76,-98.59C525.38,-98.73 516.73,-98.78 508.15,-98.74"/>
<polygon fill="midnightblue" stroke="midnightblue" points="508.18,-95.24 498.15,-98.64 508.11,-102.24 508.18,-95.24"/>
</g>
</g>
</svg>
