<?xml version="1.0" encoding="UTF-8" standalone="no"?>
<!DOCTYPE svg PUBLIC "-//W3C//DTD SVG 1.1//EN"
 "http://www.w3.org/Graphics/SVG/1.1/DTD/svg11.dtd">
<!-- Generated by graphviz version 2.44.1 (20200629.0800)
 -->
<!-- Title: TTextHandler::TextVectorSize Pages: 1 -->
<svg width="300pt" height="66pt"
 viewBox="0.00 0.00 300.00 66.00" xmlns="http://www.w3.org/2000/svg" xmlns:xlink="http://www.w3.org/1999/xlink">
<g id="graph0" class="graph" transform="scale(1 1) rotate(0) translate(4 62)">
<title>TTextHandler::TextVectorSize</title>
<polygon fill="white" stroke="transparent" points="-4,4 -4,-62 296,-62 296,4 -4,4"/>
<!-- Node1 -->
<g id="node1" class="node">
<title>Node1</title>
<g id="a_node1"><a xlink:title="return the number of items in TextVector">
<polygon fill="#bfbfbf" stroke="black" points="0,-19.5 0,-38.5 146,-38.5 146,-19.5 0,-19.5"/>
<text text-anchor="middle" x="73" y="-26.5" font-family="Helvetica,sans-Serif" font-size="10.00">TTextHandler::TextVectorSize</text>
</a>
</g>
</g>
<!-- Node2 -->
<g id="node2" class="node">
<title>Node2</title>
<g id="a_node2"><a xlink:href="class_t_utilities.html#ae1eddca13cc3c492839e131f40ec21c0" target="_top" xlink:title="pops the last entry off the call stack, throws an error if called when empty">
<polygon fill="white" stroke="black" points="182,-38.5 182,-57.5 292,-57.5 292,-38.5 182,-38.5"/>
<text text-anchor="middle" x="237" y="-45.5" font-family="Helvetica,sans-Serif" font-size="10.00">TUtilities::CallLogPop</text>
</a>
</g>
</g>
<!-- Node1&#45;&gt;Node2 -->
<g id="edge1" class="edge">
<title>Node1&#45;&gt;Node2</title>
<path fill="none" stroke="midnightblue" d="M146.47,-37.5C154.86,-38.48 163.36,-39.48 171.63,-40.45"/>
<polygon fill="midnightblue" stroke="midnightblue" points="171.23,-43.93 181.57,-41.62 172.05,-36.98 171.23,-43.93"/>
</g>
<!-- Node3 -->
<g id="node3" class="node">
<title>Node3</title>
<g id="a_node3"><a xlink:href="class_t_utilities.html#a34bd6bb5305bc29afdf424f6d35a921c" target="_top" xlink:title="creates a string of the form &#39;hh:mm:ss&#39; for use in call &amp; event logging">
<polygon fill="white" stroke="black" points="182,-0.5 182,-19.5 292,-19.5 292,-0.5 182,-0.5"/>
<text text-anchor="middle" x="237" y="-7.5" font-family="Helvetica,sans-Serif" font-size="10.00">TUtilities::TimeStamp</text>
</a>
</g>
</g>
<!-- Node1&#45;&gt;Node3 -->
<g id="edge2" class="edge">
<title>Node1&#45;&gt;Node3</title>
<path fill="none" stroke="midnightblue" d="M146.47,-20.5C154.86,-19.52 163.36,-18.52 171.63,-17.55"/>
<polygon fill="midnightblue" stroke="midnightblue" points="172.05,-21.02 181.57,-16.38 171.23,-14.07 172.05,-21.02"/>
</g>
</g>
</svg>
