<?xml version="1.0" encoding="UTF-8" standalone="no"?>
<!DOCTYPE svg PUBLIC "-//W3C//DTD SVG 1.1//EN"
 "http://www.w3.org/Graphics/SVG/1.1/DTD/svg11.dtd">
<!-- Generated by graphviz version 2.44.1 (20200629.0800)
 -->
<!-- Title: TTrain::SaveOneSessionTrain Pages: 1 -->
<svg width="969pt" height="2162pt"
 viewBox="0.00 0.00 969.00 2161.50" xmlns="http://www.w3.org/2000/svg" xmlns:xlink="http://www.w3.org/1999/xlink">
<g id="graph0" class="graph" transform="scale(1 1) rotate(0) translate(4 2157.5)">
<title>TTrain::SaveOneSessionTrain</title>
<polygon fill="white" stroke="transparent" points="-4,4 -4,-2157.5 965,-2157.5 965,4 -4,4"/>
<!-- Node1 -->
<g id="node1" class="node">
<title>Node1</title>
<g id="a_node1"><a xlink:title="Data for a single train is saved to a session file.">
<polygon fill="#bfbfbf" stroke="black" points="817,-521.5 817,-540.5 961,-540.5 961,-521.5 817,-521.5"/>
<text text-anchor="middle" x="889" y="-528.5" font-family="Helvetica,sans-Serif" font-size="10.00">TTrain::SaveOneSessionTrain</text>
</a>
</g>
</g>
<!-- Node2 -->
<g id="node2" class="node">
<title>Node2</title>
<g id="a_node2"><a xlink:href="class_t_train_controller.html#afa594bfc6b628d21d02a31c3a13c3a0a" target="_top" xlink:title="save trains to a session file">
<polygon fill="white" stroke="black" points="635,-516 635,-546 781,-546 781,-516 635,-516"/>
<text text-anchor="start" x="643" y="-534" font-family="Helvetica,sans-Serif" font-size="10.00">TTrainController::SaveSession</text>
<text text-anchor="middle" x="708" y="-523" font-family="Helvetica,sans-Serif" font-size="10.00">Trains</text>
</a>
</g>
</g>
<!-- Node1&#45;&gt;Node2 -->
<g id="edge1" class="edge">
<title>Node1&#45;&gt;Node2</title>
<path fill="none" stroke="midnightblue" d="M806.94,-531C798.32,-531 789.6,-531 781.09,-531"/>
<polygon fill="midnightblue" stroke="midnightblue" points="807,-534.5 817,-531 807,-527.5 807,-534.5"/>
</g>
<!-- Node3 -->
<g id="node3" class="node">
<title>Node3</title>
<g id="a_node3"><a xlink:href="class_t_interface.html#a0109f801142d4fa3becae22e23b84163" target="_top" xlink:title="Save the error log after an error has been thrown &#45; no need for a caller.">
<polygon fill="white" stroke="black" points="477,-540.5 477,-559.5 599,-559.5 599,-540.5 477,-540.5"/>
<text text-anchor="middle" x="538" y="-547.5" font-family="Helvetica,sans-Serif" font-size="10.00">TInterface::SaveErrorFile</text>
</a>
</g>
</g>
<!-- Node2&#45;&gt;Node3 -->
<g id="edge2" class="edge">
<title>Node2&#45;&gt;Node3</title>
<path fill="none" stroke="midnightblue" d="M624.67,-540.31C616.03,-541.29 607.37,-542.27 599.04,-543.21"/>
<polygon fill="midnightblue" stroke="midnightblue" points="625.23,-543.77 634.78,-539.17 624.45,-536.81 625.23,-543.77"/>
</g>
<!-- Node122 -->
<g id="node50" class="node">
<title>Node122</title>
<g id="a_node50"><a xlink:href="class_t_interface.html#a3362cfff4fa746fdb4871fe9d6c5ba25" target="_top" xlink:title="Save a session file &#45; see LoadSession for details of additions to the session file.">
<polygon fill="white" stroke="black" points="169,-0.5 169,-19.5 290,-19.5 290,-0.5 169,-0.5"/>
<text text-anchor="middle" x="229.5" y="-7.5" font-family="Helvetica,sans-Serif" font-size="10.00">TInterface::SaveSession</text>
</a>
</g>
</g>
<!-- Node2&#45;&gt;Node122 -->
<g id="edge51" class="edge">
<title>Node2&#45;&gt;Node122</title>
<path fill="none" stroke="midnightblue" d="M694.98,-506.81C653.24,-425.47 506.06,-159.56 304,-29 298.02,-25.14 291.3,-22.06 284.4,-19.61"/>
<polygon fill="midnightblue" stroke="midnightblue" points="691.89,-508.47 699.54,-515.8 698.13,-505.3 691.89,-508.47"/>
</g>
<!-- Node4 -->
<g id="node4" class="node">
<title>Node4</title>
<g id="a_node4"><a xlink:href="class_t_interface.html#a4f3a25665e2266441217849f947a1adf" target="_top" xlink:title="The error logging routine, called when an error is detected.">
<polygon fill="white" stroke="red" points="340,-1042.5 340,-1061.5 441,-1061.5 441,-1042.5 340,-1042.5"/>
<text text-anchor="middle" x="390.5" y="-1049.5" font-family="Helvetica,sans-Serif" font-size="10.00">TInterface::ErrorLog</text>
</a>
</g>
</g>
<!-- Node3&#45;&gt;Node4 -->
<g id="edge3" class="edge">
<title>Node3&#45;&gt;Node4</title>
<path fill="none" stroke="midnightblue" d="M531.41,-569.3C507.2,-652.81 411.91,-981.57 394.31,-1042.32"/>
<polygon fill="midnightblue" stroke="midnightblue" points="534.8,-570.16 534.22,-559.58 528.08,-568.21 534.8,-570.16"/>
</g>
<!-- Node5 -->
<g id="node5" class="node">
<title>Node5</title>
<g id="a_node5"><a xlink:href="class_t_interface.html#a7ccec66d1d0a81f124397af39f43da32" target="_top" xlink:title=" ">
<polygon fill="white" stroke="black" points="163,-2123 163,-2153 296,-2153 296,-2123 163,-2123"/>
<text text-anchor="start" x="171" y="-2141" font-family="Helvetica,sans-Serif" font-size="10.00">TInterface::AboutMenuItem</text>
<text text-anchor="middle" x="229.5" y="-2130" font-family="Helvetica,sans-Serif" font-size="10.00">Click</text>
</a>
</g>
</g>
<!-- Node4&#45;&gt;Node5 -->
<g id="edge4" class="edge">
<title>Node4&#45;&gt;Node5</title>
<path fill="none" stroke="midnightblue" d="M389.19,-1071.96C386.88,-1210.64 370.47,-2027.64 304,-2113 301.02,-2116.83 297.42,-2120.07 293.44,-2122.83"/>
<polygon fill="midnightblue" stroke="midnightblue" points="392.7,-1071.65 389.36,-1061.6 385.7,-1071.54 392.7,-1071.65"/>
</g>
<!-- Node6 -->
<g id="node6" class="node">
<title>Node6</title>
<g id="a_node6"><a xlink:href="class_t_interface.html#adfe259347a82aae9fc9538bba9c51cb8" target="_top" xlink:title=" ">
<polygon fill="white" stroke="black" points="162.5,-2084.5 162.5,-2103.5 296.5,-2103.5 296.5,-2084.5 162.5,-2084.5"/>
<text text-anchor="middle" x="229.5" y="-2091.5" font-family="Helvetica,sans-Serif" font-size="10.00">TInterface::AcceptDragging</text>
</a>
</g>
</g>
<!-- Node4&#45;&gt;Node6 -->
<g id="edge5" class="edge">
<title>Node4&#45;&gt;Node6</title>
<path fill="none" stroke="midnightblue" d="M389.2,-1071.72C386.98,-1207.03 371.2,-1995.32 304,-2075 300.77,-2078.83 296.88,-2081.94 292.6,-2084.46"/>
<polygon fill="midnightblue" stroke="midnightblue" points="392.7,-1071.64 389.36,-1061.59 385.7,-1071.53 392.7,-1071.64"/>
</g>
<!-- Node7 -->
<g id="node7" class="node">
<title>Node7</title>
<g id="a_node7"><a xlink:href="class_t_interface.html#a30904d608111ce6452a9861d86b64267" target="_top" xlink:title=" ">
<polygon fill="white" stroke="black" points="164,-2035 164,-2065 295,-2065 295,-2035 164,-2035"/>
<text text-anchor="start" x="172" y="-2053" font-family="Helvetica,sans-Serif" font-size="10.00">TInterface::AddMinsButton</text>
<text text-anchor="middle" x="229.5" y="-2042" font-family="Helvetica,sans-Serif" font-size="10.00">Click</text>
</a>
</g>
</g>
<!-- Node4&#45;&gt;Node7 -->
<g id="edge6" class="edge">
<title>Node4&#45;&gt;Node7</title>
<path fill="none" stroke="midnightblue" d="M389.05,-1071.94C385.92,-1203.89 365.56,-1948.51 304,-2026 301.24,-2029.47 297.98,-2032.44 294.38,-2034.99"/>
<polygon fill="midnightblue" stroke="midnightblue" points="392.56,-1071.78 389.29,-1061.7 385.56,-1071.62 392.56,-1071.78"/>
</g>
<!-- Node8 -->
<g id="node8" class="node">
<title>Node8</title>
<g id="a_node8"><a xlink:href="class_t_interface.html#a1b1a4260e251c9bd5f48fd6c3432e7a5" target="_top" xlink:title=" ">
<polygon fill="white" stroke="black" points="159.5,-1986 159.5,-2016 299.5,-2016 299.5,-1986 159.5,-1986"/>
<text text-anchor="start" x="167.5" y="-2004" font-family="Helvetica,sans-Serif" font-size="10.00">TInterface::AddPrefDirButton</text>
<text text-anchor="middle" x="229.5" y="-1993" font-family="Helvetica,sans-Serif" font-size="10.00">Click</text>
</a>
</g>
</g>
<!-- Node4&#45;&gt;Node8 -->
<g id="edge7" class="edge">
<title>Node4&#45;&gt;Node8</title>
<path fill="none" stroke="midnightblue" d="M388.96,-1071.71C385.31,-1199.16 362.54,-1903.66 304,-1977 301.24,-1980.46 297.96,-1983.43 294.36,-1985.97"/>
<polygon fill="midnightblue" stroke="midnightblue" points="392.46,-1071.6 389.25,-1061.5 385.47,-1071.4 392.46,-1071.6"/>
</g>
<!-- Node9 -->
<g id="node9" class="node">
<title>Node9</title>
<g id="a_node9"><a xlink:href="class_t_interface.html#a0abab134f4994b02507e1e2d3f31cd77" target="_top" xlink:title=" ">
<polygon fill="white" stroke="black" points="161,-1937 161,-1967 298,-1967 298,-1937 161,-1937"/>
<text text-anchor="start" x="169" y="-1955" font-family="Helvetica,sans-Serif" font-size="10.00">TInterface::AddSubMinsBox</text>
<text text-anchor="middle" x="229.5" y="-1944" font-family="Helvetica,sans-Serif" font-size="10.00">KeyUp</text>
</a>
</g>
</g>
<!-- Node4&#45;&gt;Node9 -->
<g id="edge8" class="edge">
<title>Node4&#45;&gt;Node9</title>
<path fill="none" stroke="midnightblue" d="M388.85,-1071.81C384.62,-1195.5 359.47,-1858.87 304,-1928 301.23,-1931.45 297.95,-1934.42 294.34,-1936.96"/>
<polygon fill="midnightblue" stroke="midnightblue" points="392.36,-1071.67 389.19,-1061.56 385.36,-1071.44 392.36,-1071.67"/>
</g>
<!-- Node10 -->
<g id="node10" class="node">
<title>Node10</title>
<g id="a_node10"><a xlink:href="class_t_interface.html#aa20c05bf2d6c23035a10a89796334d0f" target="_top" xlink:title=" ">
<polygon fill="white" stroke="black" points="165,-1888 165,-1918 294,-1918 294,-1888 165,-1888"/>
<text text-anchor="start" x="173" y="-1906" font-family="Helvetica,sans-Serif" font-size="10.00">TInterface::AddTextButton</text>
<text text-anchor="middle" x="229.5" y="-1895" font-family="Helvetica,sans-Serif" font-size="10.00">Click</text>
</a>
</g>
</g>
<!-- Node4&#45;&gt;Node10 -->
<g id="edge9" class="edge">
<title>Node4&#45;&gt;Node10</title>
<path fill="none" stroke="midnightblue" d="M388.73,-1071.8C383.91,-1191.37 356.42,-1814.05 304,-1879 301.22,-1882.45 297.93,-1885.4 294.32,-1887.94"/>
<polygon fill="midnightblue" stroke="midnightblue" points="392.24,-1071.7 389.14,-1061.57 385.24,-1071.42 392.24,-1071.7"/>
</g>
<!-- Node11 -->
<g id="node11" class="node">
<title>Node11</title>
<g id="a_node11"><a xlink:href="class_t_interface.html#a10494e62a7bb4e7114ab4d98e18499f1" target="_top" xlink:title=" ">
<polygon fill="white" stroke="black" points="162.5,-1839 162.5,-1869 296.5,-1869 296.5,-1839 162.5,-1839"/>
<text text-anchor="start" x="170.5" y="-1857" font-family="Helvetica,sans-Serif" font-size="10.00">TInterface::AddTrackButton</text>
<text text-anchor="middle" x="229.5" y="-1846" font-family="Helvetica,sans-Serif" font-size="10.00">Click</text>
</a>
</g>
</g>
<!-- Node4&#45;&gt;Node11 -->
<g id="edge10" class="edge">
<title>Node4&#45;&gt;Node11</title>
<path fill="none" stroke="midnightblue" d="M388.6,-1071.69C383.17,-1186.76 353.39,-1769.21 304,-1830 301.21,-1833.44 297.91,-1836.39 294.29,-1838.92"/>
<polygon fill="midnightblue" stroke="midnightblue" points="392.1,-1071.68 389.07,-1061.53 385.11,-1071.35 392.1,-1071.68"/>
</g>
<!-- Node12 -->
<g id="node12" class="node">
<title>Node12</title>
<g id="a_node12"><a xlink:href="class_t_interface.html#a189a4b05f27d6b5ec8b9a90ec1a9cc50" target="_top" xlink:title=" ">
<polygon fill="white" stroke="black" points="163,-1790 163,-1820 296,-1820 296,-1790 163,-1790"/>
<text text-anchor="start" x="171" y="-1808" font-family="Helvetica,sans-Serif" font-size="10.00">TInterface::AllEntriesTTList</text>
<text text-anchor="middle" x="229.5" y="-1797" font-family="Helvetica,sans-Serif" font-size="10.00">BoxMouseUp</text>
</a>
</g>
</g>
<!-- Node4&#45;&gt;Node12 -->
<g id="edge11" class="edge">
<title>Node4&#45;&gt;Node12</title>
<path fill="none" stroke="midnightblue" d="M388.43,-1071.78C382.25,-1182.58 349.93,-1723.19 304,-1780 300.86,-1783.88 297.1,-1787.16 292.95,-1789.93"/>
<polygon fill="midnightblue" stroke="midnightblue" points="391.93,-1071.85 388.98,-1061.68 384.94,-1071.47 391.93,-1071.85"/>
</g>
<!-- Node13 -->
<g id="node13" class="node">
<title>Node13</title>
<g id="a_node13"><a xlink:href="class_t_interface.html#af99ae89b6c7a2d37bf49cf0b5fcc3f1f" target="_top" xlink:title=" ">
<polygon fill="white" stroke="red" points="171.5,-1751.5 171.5,-1770.5 287.5,-1770.5 287.5,-1751.5 171.5,-1751.5"/>
<text text-anchor="middle" x="229.5" y="-1758.5" font-family="Helvetica,sans-Serif" font-size="10.00">TInterface::AppActivate</text>
</a>
</g>
</g>
<!-- Node4&#45;&gt;Node13 -->
<g id="edge12" class="edge">
<title>Node4&#45;&gt;Node13</title>
<path fill="none" stroke="midnightblue" d="M389.92,-1071.61C391.69,-1173.19 394.68,-1638.72 304,-1742 299.48,-1747.15 293.76,-1750.99 287.52,-1753.84"/>
<polygon fill="midnightblue" stroke="midnightblue" points="393.42,-1071.46 389.73,-1061.53 386.42,-1071.6 393.42,-1071.46"/>
</g>
<!-- Node15 -->
<g id="node14" class="node">
<title>Node15</title>
<g id="a_node14"><a xlink:href="class_t_interface.html#a75f68c918750c0e007ea7a85d718e2ab" target="_top" xlink:title=" ">
<polygon fill="white" stroke="red" points="166,-1713.5 166,-1732.5 293,-1732.5 293,-1713.5 166,-1713.5"/>
<text text-anchor="middle" x="229.5" y="-1720.5" font-family="Helvetica,sans-Serif" font-size="10.00">TInterface::AppDeactivate</text>
</a>
</g>
</g>
<!-- Node4&#45;&gt;Node15 -->
<g id="edge13" class="edge">
<title>Node4&#45;&gt;Node15</title>
<path fill="none" stroke="midnightblue" d="M389.77,-1072.08C390.67,-1171.17 389.66,-1607.14 304,-1704 300.59,-1707.85 296.52,-1710.97 292.06,-1713.49"/>
<polygon fill="midnightblue" stroke="midnightblue" points="393.27,-1071.9 389.66,-1061.94 386.27,-1071.97 393.27,-1071.9"/>
</g>
<!-- Node16 -->
<g id="node15" class="node">
<title>Node16</title>
<g id="a_node15"><a xlink:href="class_t_interface.html#a36ad38f4b485bba874129aeb3a20d926" target="_top" xlink:title=" ">
<polygon fill="white" stroke="black" points="163,-1664 163,-1694 296,-1694 296,-1664 163,-1664"/>
<text text-anchor="start" x="171" y="-1682" font-family="Helvetica,sans-Serif" font-size="10.00">TInterface::AutoSigsButton</text>
<text text-anchor="middle" x="229.5" y="-1671" font-family="Helvetica,sans-Serif" font-size="10.00">Click</text>
</a>
</g>
</g>
<!-- Node4&#45;&gt;Node16 -->
<g id="edge14" class="edge">
<title>Node4&#45;&gt;Node16</title>
<path fill="none" stroke="midnightblue" d="M389.41,-1071.64C388.6,-1165.04 380.65,-1563.63 304,-1655 301.15,-1658.39 297.82,-1661.31 294.17,-1663.82"/>
<polygon fill="midnightblue" stroke="midnightblue" points="392.91,-1071.61 389.48,-1061.59 385.91,-1071.56 392.91,-1071.61"/>
</g>
<!-- Node17 -->
<g id="node16" class="node">
<title>Node17</title>
<g id="a_node16"><a xlink:href="class_t_interface.html#a28579472104533fb5fd01066a22fbb5b" target="_top" xlink:title=" ">
<polygon fill="white" stroke="black" points="165,-1615 165,-1645 294,-1645 294,-1615 165,-1615"/>
<text text-anchor="start" x="173" y="-1633" font-family="Helvetica,sans-Serif" font-size="10.00">TInterface::AZOrderButton</text>
<text text-anchor="middle" x="229.5" y="-1622" font-family="Helvetica,sans-Serif" font-size="10.00">Click</text>
</a>
</g>
</g>
<!-- Node4&#45;&gt;Node17 -->
<g id="edge15" class="edge">
<title>Node4&#45;&gt;Node17</title>
<path fill="none" stroke="midnightblue" d="M389.14,-1071.7C387.12,-1160.51 374.62,-1522.86 304,-1606 301.13,-1609.38 297.78,-1612.28 294.12,-1614.78"/>
<polygon fill="midnightblue" stroke="midnightblue" points="392.64,-1071.72 389.35,-1061.65 385.64,-1071.57 392.64,-1071.72"/>
</g>
<!-- Node18 -->
<g id="node17" class="node">
<title>Node18</title>
<g id="a_node17"><a xlink:href="class_t_interface.html#a237c151513ca8adca6cd1006cc2fc66f" target="_top" xlink:title=" ">
<polygon fill="white" stroke="black" points="161.5,-1566 161.5,-1596 297.5,-1596 297.5,-1566 161.5,-1566"/>
<text text-anchor="start" x="169.5" y="-1584" font-family="Helvetica,sans-Serif" font-size="10.00">TInterface::BlackBgndMenu</text>
<text text-anchor="middle" x="229.5" y="-1573" font-family="Helvetica,sans-Serif" font-size="10.00">ItemClick</text>
</a>
</g>
</g>
<!-- Node4&#45;&gt;Node18 -->
<g id="edge16" class="edge">
<title>Node4&#45;&gt;Node18</title>
<path fill="none" stroke="midnightblue" d="M388.81,-1071.79C385.5,-1155.81 368.6,-1482.06 304,-1557 301.02,-1560.46 297.54,-1563.42 293.73,-1565.96"/>
<polygon fill="midnightblue" stroke="midnightblue" points="392.32,-1071.72 389.19,-1061.6 385.32,-1071.46 392.32,-1071.72"/>
</g>
<!-- Node19 -->
<g id="node18" class="node">
<title>Node19</title>
<g id="a_node18"><a xlink:href="class_t_interface.html#a24d79aa4745e495daa07bb5ce412e75f" target="_top" xlink:title=" ">
<polygon fill="white" stroke="black" points="164,-1517 164,-1547 295,-1547 295,-1517 164,-1517"/>
<text text-anchor="start" x="172" y="-1535" font-family="Helvetica,sans-Serif" font-size="10.00">TInterface::BlueBgndMenu</text>
<text text-anchor="middle" x="229.5" y="-1524" font-family="Helvetica,sans-Serif" font-size="10.00">ItemClick</text>
</a>
</g>
</g>
<!-- Node4&#45;&gt;Node19 -->
<g id="edge17" class="edge">
<title>Node4&#45;&gt;Node19</title>
<path fill="none" stroke="midnightblue" d="M388.41,-1071.86C383.7,-1150.8 362.61,-1441.21 304,-1508 300.99,-1511.43 297.48,-1514.37 293.66,-1516.9"/>
<polygon fill="midnightblue" stroke="midnightblue" points="391.91,-1071.99 388.99,-1061.8 384.92,-1071.59 391.91,-1071.99"/>
</g>
<!-- Node20 -->
<g id="node19" class="node">
<title>Node20</title>
<g id="a_node19"><a xlink:href="class_t_interface.html#ab1799665ee1e4212186f80ab49acf1e1" target="_top" xlink:title=" ">
<polygon fill="white" stroke="black" points="162.5,-1468 162.5,-1498 296.5,-1498 296.5,-1468 162.5,-1468"/>
<text text-anchor="start" x="170.5" y="-1486" font-family="Helvetica,sans-Serif" font-size="10.00">TInterface::BuildTrackMenu</text>
<text text-anchor="middle" x="229.5" y="-1475" font-family="Helvetica,sans-Serif" font-size="10.00">ItemClick</text>
</a>
</g>
</g>
<!-- Node4&#45;&gt;Node20 -->
<g id="edge18" class="edge">
<title>Node4&#45;&gt;Node20</title>
<path fill="none" stroke="midnightblue" d="M387.91,-1072.04C381.67,-1145.72 356.63,-1400.33 304,-1459 300.95,-1462.4 297.42,-1465.32 293.58,-1467.82"/>
<polygon fill="midnightblue" stroke="midnightblue" points="391.42,-1072.08 388.75,-1061.83 384.44,-1071.51 391.42,-1072.08"/>
</g>
<!-- Node21 -->
<g id="node20" class="node">
<title>Node21</title>
<g id="a_node20"><a xlink:href="class_t_interface.html#ae758bf4183bb5aa2a7cd83e06acd89b6" target="_top" xlink:title=" ">
<polygon fill="white" stroke="black" points="162,-1419 162,-1449 297,-1449 297,-1419 162,-1419"/>
<text text-anchor="start" x="170" y="-1437" font-family="Helvetica,sans-Serif" font-size="10.00">TInterface::CallingOnButton</text>
<text text-anchor="middle" x="229.5" y="-1426" font-family="Helvetica,sans-Serif" font-size="10.00">Click</text>
</a>
</g>
</g>
<!-- Node4&#45;&gt;Node21 -->
<g id="edge19" class="edge">
<title>Node4&#45;&gt;Node21</title>
<path fill="none" stroke="midnightblue" d="M387.32,-1071.77C379.49,-1139.27 350.78,-1359.26 304,-1410 300.82,-1413.45 297.13,-1416.41 293.13,-1418.95"/>
<polygon fill="midnightblue" stroke="midnightblue" points="390.82,-1071.98 388.47,-1061.65 383.86,-1071.19 390.82,-1071.98"/>
</g>
<!-- Node22 -->
<g id="node21" class="node">
<title>Node22</title>
<g id="a_node21"><a xlink:href="class_t_interface.html#a2fb2cd7dbddb7fa689ea994e9ffc10ff" target="_top" xlink:title=" ">
<polygon fill="white" stroke="black" points="162,-1370 162,-1400 297,-1400 297,-1370 162,-1370"/>
<text text-anchor="start" x="170" y="-1388" font-family="Helvetica,sans-Serif" font-size="10.00">TInterface::CancelSelection</text>
<text text-anchor="middle" x="229.5" y="-1377" font-family="Helvetica,sans-Serif" font-size="10.00">MenuItemClick</text>
</a>
</g>
</g>
<!-- Node4&#45;&gt;Node22 -->
<g id="edge20" class="edge">
<title>Node4&#45;&gt;Node22</title>
<path fill="none" stroke="midnightblue" d="M390.05,-1071.88C390.42,-1125.97 383.88,-1277.38 304,-1361 300.75,-1364.4 297.02,-1367.31 293,-1369.82"/>
<polygon fill="midnightblue" stroke="midnightblue" points="393.54,-1071.55 389.88,-1061.61 386.54,-1071.66 393.54,-1071.55"/>
</g>
<!-- Node23 -->
<g id="node22" class="node">
<title>Node23</title>
<g id="a_node22"><a xlink:href="class_t_interface.html#a6fb1db3295ef42cb1b6f20bc142fa502" target="_top" xlink:title=" ">
<polygon fill="white" stroke="black" points="165.5,-1321 165.5,-1351 293.5,-1351 293.5,-1321 165.5,-1321"/>
<text text-anchor="start" x="173.5" y="-1339" font-family="Helvetica,sans-Serif" font-size="10.00">TInterface::CancelTTEntry</text>
<text text-anchor="middle" x="229.5" y="-1328" font-family="Helvetica,sans-Serif" font-size="10.00">ButtonClick</text>
</a>
</g>
</g>
<!-- Node4&#45;&gt;Node23 -->
<g id="edge21" class="edge">
<title>Node4&#45;&gt;Node23</title>
<path fill="none" stroke="midnightblue" d="M388.81,-1071.88C386.07,-1120 372.36,-1243.78 304,-1312 300.58,-1315.41 296.67,-1318.34 292.47,-1320.85"/>
<polygon fill="midnightblue" stroke="midnightblue" points="392.32,-1071.75 389.29,-1061.6 385.33,-1071.42 392.32,-1071.75"/>
</g>
<!-- Node24 -->
<g id="node23" class="node">
<title>Node24</title>
<g id="a_node23"><a xlink:href="class_t_interface.html#aaaf32c3c815553f7ba70698e0f0071bb" target="_top" xlink:title=" ">
<polygon fill="white" stroke="black" points="161.5,-1272 161.5,-1302 297.5,-1302 297.5,-1272 161.5,-1272"/>
<text text-anchor="start" x="169.5" y="-1290" font-family="Helvetica,sans-Serif" font-size="10.00">TInterface::ChangeDirection</text>
<text text-anchor="middle" x="229.5" y="-1279" font-family="Helvetica,sans-Serif" font-size="10.00">MenuItemClick</text>
</a>
</g>
</g>
<!-- Node4&#45;&gt;Node24 -->
<g id="edge22" class="edge">
<title>Node4&#45;&gt;Node24</title>
<path fill="none" stroke="midnightblue" d="M387.08,-1071.72C380.96,-1113.14 361.06,-1209.77 304,-1263 300.27,-1266.48 296.03,-1269.46 291.51,-1272"/>
<polygon fill="midnightblue" stroke="midnightblue" points="390.58,-1071.96 388.46,-1061.58 383.65,-1071.02 390.58,-1071.96"/>
</g>
<!-- Node25 -->
<g id="node24" class="node">
<title>Node25</title>
<g id="a_node24"><a xlink:href="class_t_interface.html#a928eba983ac5132e1ae7799f8330451e" target="_top" xlink:title=" ">
<polygon fill="white" stroke="black" points="168.5,-1223 168.5,-1253 290.5,-1253 290.5,-1223 168.5,-1223"/>
<text text-anchor="start" x="176.5" y="-1241" font-family="Helvetica,sans-Serif" font-size="10.00">TInterface::ClearAllMenu</text>
<text text-anchor="middle" x="229.5" y="-1230" font-family="Helvetica,sans-Serif" font-size="10.00">ItemClick</text>
</a>
</g>
</g>
<!-- Node4&#45;&gt;Node25 -->
<g id="edge23" class="edge">
<title>Node4&#45;&gt;Node25</title>
<path fill="none" stroke="midnightblue" d="M383.58,-1071.58C372.82,-1104.12 347.07,-1169.58 304,-1208 297.21,-1214.06 289.04,-1218.98 280.65,-1222.96"/>
<polygon fill="midnightblue" stroke="midnightblue" points="386.97,-1072.48 386.67,-1061.89 380.3,-1070.36 386.97,-1072.48"/>
</g>
<!-- Node26 -->
<g id="node25" class="node">
<title>Node26</title>
<g id="a_node25"><a xlink:href="class_t_interface.html#a6139ffb52492eb89e5487a8a3cd647b5" target="_top" xlink:title="The main loop, called every clock tick via MasterClockTimer.">
<polygon fill="white" stroke="red" points="0,-592.5 0,-611.5 119,-611.5 119,-592.5 0,-592.5"/>
<text text-anchor="middle" x="59.5" y="-599.5" font-family="Helvetica,sans-Serif" font-size="10.00">TInterface::ClockTimer2</text>
</a>
</g>
</g>
<!-- Node4&#45;&gt;Node26 -->
<g id="edge24" class="edge">
<title>Node4&#45;&gt;Node26</title>
<path fill="none" stroke="midnightblue" d="M382.67,-1071.5C371.4,-1100.28 345.9,-1153.1 304,-1175 245.31,-1205.68 205.49,-1217.85 155,-1175 64.86,-1098.51 60.57,-681.36 60.48,-611.83"/>
<polygon fill="midnightblue" stroke="midnightblue" points="386.09,-1072.35 386.3,-1061.76 379.53,-1069.91 386.09,-1072.35"/>
</g>
<!-- Node28 -->
<g id="node26" class="node">
<title>Node28</title>
<g id="a_node26"><a xlink:href="class_t_interface.html#a77b4d0c5298ea6b8968af152fd8b7b8b" target="_top" xlink:title=" ">
<polygon fill="white" stroke="black" points="162.5,-1135 162.5,-1165 296.5,-1165 296.5,-1135 162.5,-1135"/>
<text text-anchor="start" x="170.5" y="-1153" font-family="Helvetica,sans-Serif" font-size="10.00">TInterface::ConflictAnalysis</text>
<text text-anchor="middle" x="229.5" y="-1142" font-family="Helvetica,sans-Serif" font-size="10.00">ButtonClick</text>
</a>
</g>
</g>
<!-- Node4&#45;&gt;Node28 -->
<g id="edge25" class="edge">
<title>Node4&#45;&gt;Node28</title>
<path fill="none" stroke="midnightblue" d="M373.94,-1068.94C357.85,-1085.55 331.32,-1110.56 304,-1126 298.04,-1129.37 291.54,-1132.35 284.95,-1134.96"/>
<polygon fill="midnightblue" stroke="midnightblue" points="376.61,-1071.21 380.95,-1061.54 371.53,-1066.39 376.61,-1071.21"/>
</g>
<!-- Node29 -->
<g id="node27" class="node">
<title>Node29</title>
<g id="a_node27"><a xlink:href="class_t_interface.html#ad9449a5d1fa3eada816b8b66500d7d44" target="_top" xlink:title=" ">
<polygon fill="white" stroke="black" points="161.5,-1086 161.5,-1116 297.5,-1116 297.5,-1086 161.5,-1086"/>
<text text-anchor="start" x="169.5" y="-1104" font-family="Helvetica,sans-Serif" font-size="10.00">TInterface::ConverttoRight</text>
<text text-anchor="middle" x="229.5" y="-1093" font-family="Helvetica,sans-Serif" font-size="10.00">HandSignalsMenuItemClick</text>
</a>
</g>
</g>
<!-- Node4&#45;&gt;Node29 -->
<g id="edge26" class="edge">
<title>Node4&#45;&gt;Node29</title>
<path fill="none" stroke="midnightblue" d="M348.8,-1064.54C327.61,-1071.07 301.56,-1079.1 279.29,-1085.96"/>
<polygon fill="midnightblue" stroke="midnightblue" points="349.94,-1067.85 358.47,-1061.56 347.88,-1061.16 349.94,-1067.85"/>
</g>
<!-- Node30 -->
<g id="node28" class="node">
<title>Node30</title>
<g id="a_node28"><a xlink:href="class_t_interface.html#a424a7eb780461c1acb396feb21f52062" target="_top" xlink:title=" ">
<polygon fill="white" stroke="black" points="164.5,-1037 164.5,-1067 294.5,-1067 294.5,-1037 164.5,-1037"/>
<text text-anchor="start" x="172.5" y="-1055" font-family="Helvetica,sans-Serif" font-size="10.00">TInterface::CopyMenuItem</text>
<text text-anchor="middle" x="229.5" y="-1044" font-family="Helvetica,sans-Serif" font-size="10.00">Click</text>
</a>
</g>
</g>
<!-- Node4&#45;&gt;Node30 -->
<g id="edge27" class="edge">
<title>Node4&#45;&gt;Node30</title>
<path fill="none" stroke="midnightblue" d="M329.36,-1052C317.97,-1052 306.02,-1052 294.52,-1052"/>
<polygon fill="midnightblue" stroke="midnightblue" points="329.63,-1055.5 339.63,-1052 329.63,-1048.5 329.63,-1055.5"/>
</g>
<!-- Node31 -->
<g id="node29" class="node">
<title>Node31</title>
<g id="a_node29"><a xlink:href="class_t_interface.html#adc0dd871fdd70ff11ada7a0ddd549e8e" target="_top" xlink:title=" ">
<polygon fill="white" stroke="black" points="155,-988 155,-1018 304,-1018 304,-988 155,-988"/>
<text text-anchor="start" x="163" y="-1006" font-family="Helvetica,sans-Serif" font-size="10.00">TInterface::CopyTTEntryButton</text>
<text text-anchor="middle" x="229.5" y="-995" font-family="Helvetica,sans-Serif" font-size="10.00">Click</text>
</a>
</g>
</g>
<!-- Node4&#45;&gt;Node31 -->
<g id="edge28" class="edge">
<title>Node4&#45;&gt;Node31</title>
<path fill="none" stroke="midnightblue" d="M348.8,-1039.46C327.61,-1032.93 301.56,-1024.9 279.29,-1018.04"/>
<polygon fill="midnightblue" stroke="midnightblue" points="347.88,-1042.84 358.47,-1042.44 349.94,-1036.15 347.88,-1042.84"/>
</g>
<!-- Node32 -->
<g id="node30" class="node">
<title>Node32</title>
<g id="a_node30"><a xlink:href="class_t_interface.html#a117ba58c37a617edeeb033fcdff841e9" target="_top" xlink:title=" ">
<polygon fill="white" stroke="black" points="161,-939 161,-969 298,-969 298,-939 161,-939"/>
<text text-anchor="start" x="169" y="-957" font-family="Helvetica,sans-Serif" font-size="10.00">TInterface::CPCancelButton</text>
<text text-anchor="middle" x="229.5" y="-946" font-family="Helvetica,sans-Serif" font-size="10.00">Click</text>
</a>
</g>
</g>
<!-- Node4&#45;&gt;Node32 -->
<g id="edge29" class="edge">
<title>Node4&#45;&gt;Node32</title>
<path fill="none" stroke="midnightblue" d="M373.33,-1034.84C357.13,-1018.52 330.83,-994.26 304,-979 297.44,-975.27 290.23,-971.97 282.98,-969.1"/>
<polygon fill="midnightblue" stroke="midnightblue" points="370.94,-1037.41 380.42,-1042.14 375.96,-1032.53 370.94,-1037.41"/>
</g>
<!-- Node33 -->
<g id="node31" class="node">
<title>Node33</title>
<g id="a_node31"><a xlink:href="class_t_interface.html#a6379037c7970acda71188947cb3ba6b2" target="_top" xlink:title=" ">
<polygon fill="white" stroke="black" points="159.5,-890 159.5,-920 299.5,-920 299.5,-890 159.5,-890"/>
<text text-anchor="start" x="167.5" y="-908" font-family="Helvetica,sans-Serif" font-size="10.00">TInterface::CPGenFileButton</text>
<text text-anchor="middle" x="229.5" y="-897" font-family="Helvetica,sans-Serif" font-size="10.00">Click</text>
</a>
</g>
</g>
<!-- Node4&#45;&gt;Node33 -->
<g id="edge30" class="edge">
<title>Node4&#45;&gt;Node33</title>
<path fill="none" stroke="midnightblue" d="M381.02,-1033.12C368.11,-1006.42 341.06,-957.8 304,-930 298.83,-926.12 293.01,-922.81 286.97,-920"/>
<polygon fill="midnightblue" stroke="midnightblue" points="377.86,-1034.62 385.27,-1042.19 384.2,-1031.65 377.86,-1034.62"/>
</g>
<!-- Node34 -->
<g id="node32" class="node">
<title>Node34</title>
<g id="a_node32"><a xlink:href="class_t_interface.html#a1c8fab7fa2f1be662f2d7418e95e3a63" target="_top" xlink:title=" ">
<polygon fill="white" stroke="black" points="162,-841 162,-871 297,-871 297,-841 162,-841"/>
<text text-anchor="start" x="170" y="-859" font-family="Helvetica,sans-Serif" font-size="10.00">TInterface::CreateTimetable</text>
<text text-anchor="middle" x="229.5" y="-848" font-family="Helvetica,sans-Serif" font-size="10.00">MenuItemClick</text>
</a>
</g>
</g>
<!-- Node4&#45;&gt;Node34 -->
<g id="edge31" class="edge">
<title>Node4&#45;&gt;Node34</title>
<path fill="none" stroke="midnightblue" d="M384.91,-1032.25C375.7,-996.88 351.61,-922.55 304,-881 299.53,-877.1 294.43,-873.8 289.04,-871.02"/>
<polygon fill="midnightblue" stroke="midnightblue" points="381.59,-1033.41 387.39,-1042.27 388.39,-1031.73 381.59,-1033.41"/>
</g>
<!-- Node35 -->
<g id="node33" class="node">
<title>Node35</title>
<g id="a_node33"><a xlink:href="class_t_interface.html#ae6e977c9dfdfbde9924ceefd19d7d0d3" target="_top" xlink:title=" ">
<polygon fill="white" stroke="black" points="157.5,-802.5 157.5,-821.5 301.5,-821.5 301.5,-802.5 157.5,-802.5"/>
<text text-anchor="middle" x="229.5" y="-809.5" font-family="Helvetica,sans-Serif" font-size="10.00">TInterface::CutMenuItemClick</text>
</a>
</g>
</g>
<!-- Node4&#45;&gt;Node35 -->
<g id="edge32" class="edge">
<title>Node4&#45;&gt;Node35</title>
<path fill="none" stroke="midnightblue" d="M387.7,-1032.38C382.69,-989.44 364.67,-886.61 304,-832 299.18,-827.66 293.52,-824.26 287.51,-821.58"/>
<polygon fill="midnightblue" stroke="midnightblue" points="384.23,-1032.8 388.75,-1042.38 391.19,-1032.07 384.23,-1032.8"/>
</g>
<!-- Node36 -->
<g id="node34" class="node">
<title>Node36</title>
<g id="a_node34"><a xlink:href="class_t_interface.html#acd41ae8fa5d16248a867472d9c8ae646" target="_top" xlink:title=" ">
<polygon fill="white" stroke="black" points="158.5,-753 158.5,-783 300.5,-783 300.5,-753 158.5,-753"/>
<text text-anchor="start" x="166.5" y="-771" font-family="Helvetica,sans-Serif" font-size="10.00">TInterface::CutTTEntryButton</text>
<text text-anchor="middle" x="229.5" y="-760" font-family="Helvetica,sans-Serif" font-size="10.00">Click</text>
</a>
</g>
</g>
<!-- Node4&#45;&gt;Node36 -->
<g id="edge33" class="edge">
<title>Node4&#45;&gt;Node36</title>
<path fill="none" stroke="midnightblue" d="M388.73,-1032.24C385.81,-984.42 371.74,-861.36 304,-793 300.2,-789.17 295.8,-785.93 291.07,-783.18"/>
<polygon fill="midnightblue" stroke="midnightblue" points="385.25,-1032.66 389.25,-1042.46 392.24,-1032.3 385.25,-1032.66"/>
</g>
<!-- Node37 -->
<g id="node35" class="node">
<title>Node37</title>
<g id="a_node35"><a xlink:href="class_t_interface.html#af9cb95043f5276df55cb6809e104c93a" target="_top" xlink:title=" ">
<polygon fill="white" stroke="black" points="169,-704 169,-734 290,-734 290,-704 169,-704"/>
<text text-anchor="start" x="177" y="-722" font-family="Helvetica,sans-Serif" font-size="10.00">TInterface::DeleteAllPref</text>
<text text-anchor="middle" x="229.5" y="-711" font-family="Helvetica,sans-Serif" font-size="10.00">DirButtonClick</text>
</a>
</g>
</g>
<!-- Node4&#45;&gt;Node37 -->
<g id="edge34" class="edge">
<title>Node4&#45;&gt;Node37</title>
<path fill="none" stroke="midnightblue" d="M389.97,-1032.24C390.15,-978.44 383.16,-827.82 304,-744 300.02,-739.79 295.3,-736.28 290.21,-733.37"/>
<polygon fill="midnightblue" stroke="midnightblue" points="386.47,-1032.41 389.84,-1042.45 393.47,-1032.5 386.47,-1032.41"/>
</g>
<!-- Node38 -->
<g id="node36" class="node">
<title>Node38</title>
<g id="a_node36"><a xlink:href="class_t_interface.html#aff2c1cd6ed2d45fdcf6392a85a6d9415" target="_top" xlink:title=" ">
<polygon fill="white" stroke="black" points="162,-655 162,-685 297,-685 297,-655 162,-655"/>
<text text-anchor="start" x="170" y="-673" font-family="Helvetica,sans-Serif" font-size="10.00">TInterface::DeleteMenuItem</text>
<text text-anchor="middle" x="229.5" y="-662" font-family="Helvetica,sans-Serif" font-size="10.00">Click</text>
</a>
</g>
</g>
<!-- Node4&#45;&gt;Node38 -->
<g id="edge35" class="edge">
<title>Node4&#45;&gt;Node38</title>
<path fill="none" stroke="midnightblue" d="M387.29,-1032.31C379.36,-965.06 350.36,-745.88 304,-695 300.46,-691.11 296.29,-687.83 291.77,-685.06"/>
<polygon fill="midnightblue" stroke="midnightblue" points="383.83,-1032.86 388.45,-1042.39 390.78,-1032.05 383.83,-1032.86"/>
</g>
<!-- Node39 -->
<g id="node37" class="node">
<title>Node39</title>
<g id="a_node37"><a xlink:href="class_t_interface.html#a3136530959237eaa57486f4f48357855" target="_top" xlink:title=" ">
<polygon fill="white" stroke="black" points="165.5,-606 165.5,-636 293.5,-636 293.5,-606 165.5,-606"/>
<text text-anchor="start" x="173.5" y="-624" font-family="Helvetica,sans-Serif" font-size="10.00">TInterface::DeleteOnePref</text>
<text text-anchor="middle" x="229.5" y="-613" font-family="Helvetica,sans-Serif" font-size="10.00">DirButtonClick</text>
</a>
</g>
</g>
<!-- Node4&#45;&gt;Node39 -->
<g id="edge36" class="edge">
<title>Node4&#45;&gt;Node39</title>
<path fill="none" stroke="midnightblue" d="M387.88,-1032.03C381.54,-958.6 356.16,-704.84 304,-646 300.6,-642.17 296.59,-638.92 292.23,-636.17"/>
<polygon fill="midnightblue" stroke="midnightblue" points="384.41,-1032.53 388.73,-1042.21 391.38,-1031.95 384.41,-1032.53"/>
</g>
<!-- Node40 -->
<g id="node38" class="node">
<title>Node40</title>
<g id="a_node38"><a xlink:href="class_t_interface.html#abdd4a70649a10a29c9a069d040072808" target="_top" xlink:title=" ">
<polygon fill="white" stroke="black" points="166.5,-557 166.5,-587 292.5,-587 292.5,-557 166.5,-557"/>
<text text-anchor="start" x="174.5" y="-575" font-family="Helvetica,sans-Serif" font-size="10.00">TInterface::DeleteTTEntry</text>
<text text-anchor="middle" x="229.5" y="-564" font-family="Helvetica,sans-Serif" font-size="10.00">ButtonClick</text>
</a>
</g>
</g>
<!-- Node4&#45;&gt;Node40 -->
<g id="edge37" class="edge">
<title>Node4&#45;&gt;Node40</title>
<path fill="none" stroke="midnightblue" d="M388.38,-1032.2C383.56,-953.52 362.09,-664 304,-597 300.64,-593.13 296.67,-589.86 292.32,-587.09"/>
<polygon fill="midnightblue" stroke="midnightblue" points="384.89,-1032.45 388.98,-1042.23 391.88,-1032.04 384.89,-1032.45"/>
</g>
<!-- Node41 -->
<g id="node39" class="node">
<title>Node41</title>
<g id="a_node39"><a xlink:href="class_t_interface.html#ac53c02024590fc44371ed3b7efc3ddde" target="_top" xlink:title=" ">
<polygon fill="white" stroke="black" points="165.5,-518.5 165.5,-537.5 293.5,-537.5 293.5,-518.5 165.5,-518.5"/>
<text text-anchor="middle" x="229.5" y="-525.5" font-family="Helvetica,sans-Serif" font-size="10.00">TInterface::EditMenuClick</text>
</a>
</g>
</g>
<!-- Node4&#45;&gt;Node41 -->
<g id="edge38" class="edge">
<title>Node4&#45;&gt;Node41</title>
<path fill="none" stroke="midnightblue" d="M388.93,-1032.1C386.1,-947.65 370.92,-619.88 304,-547 300.52,-543.21 296.4,-540.14 291.91,-537.65"/>
<polygon fill="midnightblue" stroke="midnightblue" points="385.44,-1032.47 389.25,-1042.35 392.44,-1032.25 385.44,-1032.47"/>
</g>
<!-- Node42 -->
<g id="node40" class="node">
<title>Node42</title>
<g id="a_node40"><a xlink:href="class_t_interface.html#a0cf35a6e4a6cfa72b63222acb51f9f74" target="_top" xlink:title=" ">
<polygon fill="white" stroke="black" points="167.5,-469 167.5,-499 291.5,-499 291.5,-469 167.5,-469"/>
<text text-anchor="start" x="175.5" y="-487" font-family="Helvetica,sans-Serif" font-size="10.00">TInterface::EditTimetable</text>
<text text-anchor="middle" x="229.5" y="-476" font-family="Helvetica,sans-Serif" font-size="10.00">MenuItemClick</text>
</a>
</g>
</g>
<!-- Node4&#45;&gt;Node42 -->
<g id="edge39" class="edge">
<title>Node4&#45;&gt;Node42</title>
<path fill="none" stroke="midnightblue" d="M389.03,-1031.87C386.6,-943.49 372.66,-590.59 304,-509 300.53,-504.87 296.35,-501.43 291.76,-498.55"/>
<polygon fill="midnightblue" stroke="midnightblue" points="385.54,-1032.22 389.3,-1042.13 392.54,-1032.04 385.54,-1032.22"/>
</g>
<!-- Node43 -->
<g id="node41" class="node">
<title>Node43</title>
<g id="a_node41"><a xlink:href="class_t_interface.html#a9cfdb7521877f2c7ab124d0e4f47a0f6" target="_top" xlink:title=" ">
<polygon fill="white" stroke="black" points="167,-420 167,-450 292,-450 292,-420 167,-420"/>
<text text-anchor="start" x="175" y="-438" font-family="Helvetica,sans-Serif" font-size="10.00">TInterface::ExitMenuItem</text>
<text text-anchor="middle" x="229.5" y="-427" font-family="Helvetica,sans-Serif" font-size="10.00">Click</text>
</a>
</g>
</g>
<!-- Node4&#45;&gt;Node43 -->
<g id="edge40" class="edge">
<title>Node4&#45;&gt;Node43</title>
<path fill="none" stroke="midnightblue" d="M389.36,-1032.1C388.3,-939.15 379.35,-548.61 304,-459 300.63,-454.99 296.58,-451.65 292.14,-448.86"/>
<polygon fill="midnightblue" stroke="midnightblue" points="385.86,-1032.16 389.45,-1042.13 392.86,-1032.1 385.86,-1032.16"/>
</g>
<!-- Node44 -->
<g id="node42" class="node">
<title>Node44</title>
<g id="a_node42"><a xlink:href="class_t_interface.html#a3e59d6f1f39ffe34a9d6e7bf930acbff" target="_top" xlink:title=" ">
<polygon fill="white" stroke="black" points="167.5,-371 167.5,-401 291.5,-401 291.5,-371 167.5,-371"/>
<text text-anchor="start" x="175.5" y="-389" font-family="Helvetica,sans-Serif" font-size="10.00">TInterface::ExitOperation</text>
<text text-anchor="middle" x="229.5" y="-378" font-family="Helvetica,sans-Serif" font-size="10.00">ButtonClick</text>
</a>
</g>
</g>
<!-- Node4&#45;&gt;Node44 -->
<g id="edge41" class="edge">
<title>Node4&#45;&gt;Node44</title>
<path fill="none" stroke="midnightblue" d="M388.1,-1032.03C380.7,-928.88 344.93,-459.22 304,-410 300.48,-405.77 296.2,-402.28 291.5,-399.4"/>
<polygon fill="midnightblue" stroke="midnightblue" points="384.63,-1032.56 388.83,-1042.28 391.61,-1032.06 384.63,-1032.56"/>
</g>
<!-- Node45 -->
<g id="node43" class="node">
<title>Node45</title>
<g id="a_node43"><a xlink:href="class_t_interface.html#ab2a25d27dcbae558b8f9a4ac62937523" target="_top" xlink:title=" ">
<polygon fill="white" stroke="black" points="159.5,-322 159.5,-352 299.5,-352 299.5,-322 159.5,-322"/>
<text text-anchor="start" x="167.5" y="-340" font-family="Helvetica,sans-Serif" font-size="10.00">TInterface::ExitPrefDirButton</text>
<text text-anchor="middle" x="229.5" y="-329" font-family="Helvetica,sans-Serif" font-size="10.00">Click</text>
</a>
</g>
</g>
<!-- Node4&#45;&gt;Node45 -->
<g id="edge42" class="edge">
<title>Node4&#45;&gt;Node45</title>
<path fill="none" stroke="midnightblue" d="M387.67,-1032.36C377.34,-922.46 326.06,-387.78 304,-361 301.18,-357.58 297.87,-354.64 294.24,-352.12"/>
<polygon fill="midnightblue" stroke="midnightblue" points="384.19,-1032.76 388.61,-1042.39 391.16,-1032.11 384.19,-1032.76"/>
</g>
<!-- Node46 -->
<g id="node44" class="node">
<title>Node46</title>
<g id="a_node44"><a xlink:href="class_t_interface.html#ad0fa9f32b059b346e066ab23d62a4bfc" target="_top" xlink:title=" ">
<polygon fill="white" stroke="black" points="162.5,-273 162.5,-303 296.5,-303 296.5,-273 162.5,-273"/>
<text text-anchor="start" x="170.5" y="-291" font-family="Helvetica,sans-Serif" font-size="10.00">TInterface::ExitTrackButton</text>
<text text-anchor="middle" x="229.5" y="-280" font-family="Helvetica,sans-Serif" font-size="10.00">Click</text>
</a>
</g>
</g>
<!-- Node4&#45;&gt;Node46 -->
<g id="edge43" class="edge">
<title>Node4&#45;&gt;Node46</title>
<path fill="none" stroke="midnightblue" d="M387.81,-1032.05C377.94,-916.86 327.56,-340.83 304,-312 301.2,-308.57 297.9,-305.63 294.27,-303.1"/>
<polygon fill="midnightblue" stroke="midnightblue" points="384.34,-1032.58 388.68,-1042.25 391.31,-1031.99 384.34,-1032.58"/>
</g>
<!-- Node47 -->
<g id="node45" class="node">
<title>Node47</title>
<g id="a_node45"><a xlink:href="class_t_interface.html#aa78089df3d8323be6fde98c0ee48424c" target="_top" xlink:title=" ">
<polygon fill="white" stroke="black" points="157,-224 157,-254 302,-254 302,-224 157,-224"/>
<text text-anchor="start" x="165" y="-242" font-family="Helvetica,sans-Serif" font-size="10.00">TInterface::ExitTTModeButton</text>
<text text-anchor="middle" x="229.5" y="-231" font-family="Helvetica,sans-Serif" font-size="10.00">Click</text>
</a>
</g>
</g>
<!-- Node4&#45;&gt;Node47 -->
<g id="edge44" class="edge">
<title>Node4&#45;&gt;Node47</title>
<path fill="none" stroke="midnightblue" d="M387.65,-1032.18C376.34,-911.34 316.56,-278.48 304,-263 301.21,-259.56 297.92,-256.61 294.3,-254.08"/>
<polygon fill="midnightblue" stroke="midnightblue" points="384.17,-1032.6 388.59,-1042.24 391.14,-1031.95 384.17,-1032.6"/>
</g>
<!-- Node48 -->
<g id="node46" class="node">
<title>Node48</title>
<g id="a_node46"><a xlink:href="class_t_interface.html#ab7c52bd31930036c95b9b71c2f1f0426" target="_top" xlink:title=" ">
<polygon fill="white" stroke="black" points="163.5,-175 163.5,-205 295.5,-205 295.5,-175 163.5,-175"/>
<text text-anchor="start" x="171.5" y="-193" font-family="Helvetica,sans-Serif" font-size="10.00">TInterface::ExportTTButton</text>
<text text-anchor="middle" x="229.5" y="-182" font-family="Helvetica,sans-Serif" font-size="10.00">Click</text>
</a>
</g>
</g>
<!-- Node4&#45;&gt;Node48 -->
<g id="edge45" class="edge">
<title>Node4&#45;&gt;Node48</title>
<path fill="none" stroke="midnightblue" d="M387.64,-1032.31C375.74,-906.68 310.67,-222.27 304,-214 301.22,-210.55 297.94,-207.59 294.32,-205.06"/>
<polygon fill="midnightblue" stroke="midnightblue" points="384.17,-1032.78 388.59,-1042.4 391.14,-1032.12 384.17,-1032.78"/>
</g>
<!-- Node49 -->
<g id="node47" class="node">
<title>Node49</title>
<g id="a_node47"><a xlink:href="class_t_interface.html#a1bf4807428bf9fa4504be97d28642597" target="_top" xlink:title=" ">
<polygon fill="white" stroke="black" points="165.5,-126 165.5,-156 293.5,-156 293.5,-126 165.5,-126"/>
<text text-anchor="start" x="173.5" y="-144" font-family="Helvetica,sans-Serif" font-size="10.00">TInterface::ExportTTMenu</text>
<text text-anchor="middle" x="229.5" y="-133" font-family="Helvetica,sans-Serif" font-size="10.00">ItemClick</text>
</a>
</g>
</g>
<!-- Node4&#45;&gt;Node49 -->
<g id="edge46" class="edge">
<title>Node4&#45;&gt;Node49</title>
<path fill="none" stroke="midnightblue" d="M387.63,-1032.22C375.27,-901.5 305.76,-167.2 304,-165 301.06,-161.33 297.55,-158.22 293.68,-155.58"/>
<polygon fill="midnightblue" stroke="midnightblue" points="384.16,-1032.74 388.59,-1042.37 391.13,-1032.08 384.16,-1032.74"/>
</g>
<!-- Node50 -->
<g id="node48" class="node">
<title>Node50</title>
<g id="a_node48"><a xlink:href="class_t_interface.html#add5fbdbceae6285c2cc440905b270491" target="_top" xlink:title=" ">
<polygon fill="white" stroke="black" points="168,-77 168,-107 291,-107 291,-77 168,-77"/>
<text text-anchor="start" x="176" y="-95" font-family="Helvetica,sans-Serif" font-size="10.00">TInterface::FlipMenuItem</text>
<text text-anchor="middle" x="229.5" y="-84" font-family="Helvetica,sans-Serif" font-size="10.00">Click</text>
</a>
</g>
</g>
<!-- Node4&#45;&gt;Node50 -->
<g id="edge47" class="edge">
<title>Node4&#45;&gt;Node50</title>
<path fill="none" stroke="midnightblue" d="M387.57,-1031.94C380.85,-962.13 357.95,-723.31 340,-526 335.86,-480.46 332.45,-151.81 304,-116 300.41,-111.48 295.95,-107.8 291.02,-104.81"/>
<polygon fill="midnightblue" stroke="midnightblue" points="384.12,-1032.7 388.57,-1042.32 391.09,-1032.03 384.12,-1032.7"/>
</g>
<!-- Node51 -->
<g id="node49" class="node">
<title>Node51</title>
<g id="a_node49"><a xlink:href="class_t_interface.html#a167410ef8c1ebe53abd0afee71943ecf" target="_top" xlink:title=" ">
<polygon fill="white" stroke="black" points="162.5,-38.5 162.5,-57.5 296.5,-57.5 296.5,-38.5 162.5,-38.5"/>
<text text-anchor="middle" x="229.5" y="-45.5" font-family="Helvetica,sans-Serif" font-size="10.00">TInterface::FontButtonClick</text>
</a>
</g>
</g>
<!-- Node4&#45;&gt;Node51 -->
<g id="edge48" class="edge">
<title>Node4&#45;&gt;Node51</title>
<path fill="none" stroke="midnightblue" d="M387.5,-1031.95C380.56,-962.16 357.03,-723.39 340,-526 335.6,-475.03 336.88,-106.19 304,-67 300.78,-63.16 296.9,-60.05 292.62,-57.52"/>
<polygon fill="midnightblue" stroke="midnightblue" points="384.06,-1032.72 388.53,-1042.32 391.02,-1032.03 384.06,-1032.72"/>
</g>
<!-- Node4&#45;&gt;Node122 -->
<g id="edge49" class="edge">
<title>Node4&#45;&gt;Node122</title>
<path fill="none" stroke="midnightblue" d="M387.46,-1031.95C380.38,-962.17 356.44,-723.44 340,-526 335.41,-470.82 339.46,-71.52 304,-29 300.2,-24.44 295.47,-20.9 290.24,-18.16"/>
<polygon fill="midnightblue" stroke="midnightblue" points="384.02,-1032.73 388.51,-1042.33 390.98,-1032.02 384.02,-1032.73"/>
</g>
<!-- Node122&#45;&gt;Node26 -->
<g id="edge50" class="edge">
<title>Node122&#45;&gt;Node26</title>
<path fill="none" stroke="midnightblue" d="M160.15,-24.22C158.32,-25.67 156.59,-27.26 155,-29 75.23,-116.25 62.31,-524.45 60.7,-592.4"/>
<polygon fill="midnightblue" stroke="midnightblue" points="162.26,-27.03 168.82,-18.7 158.5,-21.12 162.26,-27.03"/>
</g>
</g>
</svg>
