<?xml version="1.0" encoding="UTF-8" standalone="no"?>
<!DOCTYPE svg PUBLIC "-//W3C//DTD SVG 1.1//EN"
 "http://www.w3.org/Graphics/SVG/1.1/DTD/svg11.dtd">
<!-- Generated by graphviz version 2.44.1 (20200629.0800)
 -->
<!-- Title: TOnePrefDir::LoadOldPrefDir Pages: 1 -->
<!--zoomable 672 -->
<svg id="main" version="1.1" xmlns="http://www.w3.org/2000/svg" xmlns:xlink="http://www.w3.org/1999/xlink" xml:space="preserve" onload="init(evt)">
<style type="text/css"><![CDATA[
.edge:hover path { stroke: red; }
.edge:hover polygon { stroke: red; fill: red; }
]]></style>
<script type="text/javascript"><![CDATA[
var edges = document.getElementsByTagName('g');
if (edges && edges.length) {
  for (var i=0;i<edges.length;i++) {
    if (edges[i].id.substr(0,4)=='edge') {
      edges[i].setAttribute('class','edge');
    }
  }
}
]]></script>
        <defs>
                <circle id="rim" cx="0" cy="0" r="7"/>
                <circle id="rim2" cx="0" cy="0" r="3.5"/>
                <g id="zoomPlus">
                        <use xlink:href="#rim" fill="#404040">
                                <set attributeName="fill" to="#808080" begin="zoomplus.mouseover" end="zoomplus.mouseout"/>
                        </use>
                        <path d="M-4,0h8M0,-4v8" fill="none" stroke="white" stroke-width="1.5" pointer-events="none"/>
                </g>
                <g id="zoomMin">
                        <use xlink:href="#rim" fill="#404040">
                                <set attributeName="fill" to="#808080" begin="zoomminus.mouseover" end="zoomminus.mouseout"/>
                        </use>
                        <path d="M-4,0h8" fill="none" stroke="white" stroke-width="1.5" pointer-events="none"/>
                </g>
                <g id="dirArrow">
                        <path fill="none" stroke="white" stroke-width="1.5" d="M0,-3.0v7 M-2.5,-0.5L0,-3.0L2.5,-0.5"/>
                </g>
               <g id="resetDef">
                       <use xlink:href="#rim2" fill="#404040">
                               <set attributeName="fill" to="#808080" begin="reset.mouseover" end="reset.mouseout"/>
                       </use>
               </g>
        </defs>

<script type="text/javascript">
var viewWidth = 673;
var viewHeight = 672;
var sectionId = 'dynsection-61';
</script>
<script xlink:href="svgpan.js"/>
<svg id="graph" class="graph">
<g id="viewport">
<title>TOnePrefDir::LoadOldPrefDir</title>
<polygon fill="white" stroke="transparent" points="-4,4 -4,-667.68 669,-667.68 669,4 -4,4"/>
<!-- Node1 -->
<g id="node1" class="node">
<title>Node1</title>
<g id="a_node1"><a xlink:title="Old version of LoadPrefDir, used during development when the save format changed so the old files cou...">
<polygon fill="#bfbfbf" stroke="black" points="0,-251.5 0,-270.5 140,-270.5 140,-251.5 0,-251.5"/>
<text text-anchor="middle" x="70" y="-258.5" font-family="Helvetica,sans-Serif" font-size="10.00">TOnePrefDir::LoadOldPrefDir</text>
</a>
</g>
</g>
<!-- Node2 -->
<g id="node2" class="node">
<title>Node2</title>
<g id="a_node2"><a xlink:href="class_t_utilities.html#ae1eddca13cc3c492839e131f40ec21c0" target="_top" xlink:title="pops the last entry off the call stack, throws an error if called when empty">
<polygon fill="white" stroke="black" points="555,-509.5 555,-528.5 665,-528.5 665,-509.5 555,-509.5"/>
<text text-anchor="middle" x="610" y="-516.5" font-family="Helvetica,sans-Serif" font-size="10.00">TUtilities::CallLogPop</text>
</a>
</g>
</g>
<!-- Node1&#45;&gt;Node2 -->
<g id="edge1" class="edge">
<title>Node1&#45;&gt;Node2</title>
<path fill="none" stroke="midnightblue" d="M72.1,-270.51C77.03,-309.14 100.25,-456.4 176,-544 236.62,-614.11 269.2,-621.06 359,-644 427.9,-661.6 455.71,-676.42 519,-644 562.67,-621.63 589.97,-567.12 601.94,-538.03"/>
<polygon fill="midnightblue" stroke="midnightblue" points="605.25,-539.16 605.65,-528.57 598.74,-536.6 605.25,-539.16"/>
</g>
<!-- Node3 -->
<g id="node3" class="node">
<title>Node3</title>
<g id="a_node3"><a xlink:href="class_t_one_pref_dir.html#a8a7ddf3981800ec0df1225c9e5aa52c2" target="_top" xlink:title="Diagnostic validity check.">
<polygon fill="white" stroke="black" points="181,-395 181,-425 318,-425 318,-395 181,-395"/>
<text text-anchor="start" x="189" y="-413" font-family="Helvetica,sans-Serif" font-size="10.00">TOnePrefDir::CheckPrefDir4</text>
<text text-anchor="middle" x="249.5" y="-402" font-family="Helvetica,sans-Serif" font-size="10.00">MultiMap</text>
</a>
</g>
</g>
<!-- Node1&#45;&gt;Node3 -->
<g id="edge2" class="edge">
<title>Node1&#45;&gt;Node3</title>
<path fill="none" stroke="midnightblue" d="M77.26,-270.54C92.05,-292.42 131.26,-346.8 176,-379 181.96,-383.29 188.6,-387.14 195.38,-390.55"/>
<polygon fill="midnightblue" stroke="midnightblue" points="194.12,-393.83 204.66,-394.93 197.11,-387.5 194.12,-393.83"/>
</g>
<!-- Node5 -->
<g id="node5" class="node">
<title>Node5</title>
<g id="a_node5"><a xlink:href="class_t_utilities.html#a34bd6bb5305bc29afdf424f6d35a921c" target="_top" xlink:title="creates a string of the form &#39;hh:mm:ss&#39; for use in call &amp; event logging">
<polygon fill="white" stroke="black" points="555,-377.5 555,-396.5 665,-396.5 665,-377.5 555,-377.5"/>
<text text-anchor="middle" x="610" y="-384.5" font-family="Helvetica,sans-Serif" font-size="10.00">TUtilities::TimeStamp</text>
</a>
</g>
</g>
<!-- Node1&#45;&gt;Node5 -->
<g id="edge27" class="edge">
<title>Node1&#45;&gt;Node5</title>
<path fill="none" stroke="midnightblue" d="M140.34,-257.45C249.17,-252.97 454.33,-249.3 519,-281 557.47,-299.85 585.85,-343.5 599.64,-368.51"/>
<polygon fill="midnightblue" stroke="midnightblue" points="596.57,-370.19 604.36,-377.38 602.76,-366.91 596.57,-370.19"/>
</g>
<!-- Node6 -->
<g id="node6" class="node">
<title>Node6</title>
<g id="a_node6"><a xlink:href="class_t_one_pref_dir.html#ad2e6adb7b634b17cab9cd03610a0f8e3" target="_top" xlink:title="Empty the existing vectors &amp; map.">
<polygon fill="white" stroke="black" points="186,-213.5 186,-232.5 313,-232.5 313,-213.5 186,-213.5"/>
<text text-anchor="middle" x="249.5" y="-220.5" font-family="Helvetica,sans-Serif" font-size="10.00">TOnePrefDir::ClearPrefDir</text>
</a>
</g>
</g>
<!-- Node1&#45;&gt;Node6 -->
<g id="edge8" class="edge">
<title>Node1&#45;&gt;Node6</title>
<path fill="none" stroke="midnightblue" d="M115.79,-251.41C139.53,-246.33 168.88,-240.04 193.94,-234.68"/>
<polygon fill="midnightblue" stroke="midnightblue" points="194.99,-238.04 204.03,-232.52 193.52,-231.19 194.99,-238.04"/>
</g>
<!-- Node7 -->
<g id="node7" class="node">
<title>Node7</title>
<g id="a_node7"><a xlink:href="class_t_pref_dir_element.html#a13526cb4ee94a708a7bfef517abaa605" target="_top" xlink:title="picks up the EntryDirectionGraphicPtr for preferred directions">
<polygon fill="white" stroke="black" points="176,-164 176,-194 323,-194 323,-164 176,-164"/>
<text text-anchor="start" x="184" y="-182" font-family="Helvetica,sans-Serif" font-size="10.00">TPrefDirElement::GetDirection</text>
<text text-anchor="middle" x="249.5" y="-171" font-family="Helvetica,sans-Serif" font-size="10.00">PrefDirGraphicPtr</text>
</a>
</g>
</g>
<!-- Node1&#45;&gt;Node7 -->
<g id="edge9" class="edge">
<title>Node1&#45;&gt;Node7</title>
<path fill="none" stroke="midnightblue" d="M86.6,-251.47C106.75,-239.41 143.16,-218.46 176,-204 181.03,-201.79 186.32,-199.64 191.65,-197.59"/>
<polygon fill="midnightblue" stroke="midnightblue" points="193.11,-200.78 201.26,-194.02 190.67,-194.22 193.11,-200.78"/>
</g>
<!-- Node8 -->
<g id="node8" class="node">
<title>Node8</title>
<g id="a_node8"><a xlink:href="class_t_pref_dir_element.html#a3a31ae39854d89213a06010dcb8d2b34" target="_top" xlink:title="picks up the green or red route direction graphic">
<polygon fill="white" stroke="black" points="176,-115 176,-145 323,-145 323,-115 176,-115"/>
<text text-anchor="start" x="184" y="-133" font-family="Helvetica,sans-Serif" font-size="10.00">TPrefDirElement::GetDirection</text>
<text text-anchor="middle" x="249.5" y="-122" font-family="Helvetica,sans-Serif" font-size="10.00">RouteGraphicPtr</text>
</a>
</g>
</g>
<!-- Node1&#45;&gt;Node8 -->
<g id="edge10" class="edge">
<title>Node1&#45;&gt;Node8</title>
<path fill="none" stroke="midnightblue" d="M77.99,-251.21C93.37,-230.36 132.26,-181.25 176,-154 178.62,-152.37 181.36,-150.84 184.17,-149.4"/>
<polygon fill="midnightblue" stroke="midnightblue" points="185.79,-152.51 193.39,-145.12 182.84,-146.16 185.79,-152.51"/>
</g>
<!-- Node9 -->
<g id="node9" class="node">
<title>Node9</title>
<g id="a_node9"><a xlink:href="class_t_pref_dir_element.html#a10b4ff375e779de7cc2a16344959bb31" target="_top" xlink:title="picks up the EXGraphicPtr for preferred directions">
<polygon fill="white" stroke="black" points="186.5,-290 186.5,-320 312.5,-320 312.5,-290 186.5,-290"/>
<text text-anchor="start" x="194.5" y="-308" font-family="Helvetica,sans-Serif" font-size="10.00">TPrefDirElement::GetPref</text>
<text text-anchor="middle" x="249.5" y="-297" font-family="Helvetica,sans-Serif" font-size="10.00">DirGraphicPtr</text>
</a>
</g>
</g>
<!-- Node1&#45;&gt;Node9 -->
<g id="edge11" class="edge">
<title>Node1&#45;&gt;Node9</title>
<path fill="none" stroke="midnightblue" d="M109.51,-270.55C129.5,-275.5 154.55,-281.71 177.86,-287.49"/>
<polygon fill="midnightblue" stroke="midnightblue" points="177.18,-290.93 187.72,-289.93 178.86,-284.13 177.18,-290.93"/>
</g>
<!-- Node11 -->
<g id="node11" class="node">
<title>Node11</title>
<g id="a_node11"><a xlink:href="class_t_pref_dir_element.html#acc8674681c7b4eda8ce8551abdae9680" target="_top" xlink:title="picks up the appropriate route graphic">
<polygon fill="white" stroke="black" points="182.5,-339 182.5,-369 316.5,-369 316.5,-339 182.5,-339"/>
<text text-anchor="start" x="190.5" y="-357" font-family="Helvetica,sans-Serif" font-size="10.00">TPrefDirElement::GetRoute</text>
<text text-anchor="middle" x="249.5" y="-346" font-family="Helvetica,sans-Serif" font-size="10.00">GraphicPtr</text>
</a>
</g>
</g>
<!-- Node1&#45;&gt;Node11 -->
<g id="edge15" class="edge">
<title>Node1&#45;&gt;Node11</title>
<path fill="none" stroke="midnightblue" d="M83.29,-270.63C102.27,-285.13 140.26,-312.71 176,-330 179.76,-331.82 183.69,-333.55 187.7,-335.2"/>
<polygon fill="midnightblue" stroke="midnightblue" points="186.54,-338.5 197.13,-338.86 189.08,-331.98 186.54,-338.5"/>
</g>
<!-- Node12 -->
<g id="node12" class="node">
<title>Node12</title>
<g id="a_node12"><a xlink:href="class_t_utilities.html#a9a0ec4d0c686c71157c371d647824777" target="_top" xlink:title="loads a bool value from the file">
<polygon fill="white" stroke="black" points="191.5,-76.5 191.5,-95.5 307.5,-95.5 307.5,-76.5 191.5,-76.5"/>
<text text-anchor="middle" x="249.5" y="-83.5" font-family="Helvetica,sans-Serif" font-size="10.00">TUtilities::LoadFileBool</text>
</a>
</g>
</g>
<!-- Node1&#45;&gt;Node12 -->
<g id="edge17" class="edge">
<title>Node1&#45;&gt;Node12</title>
<path fill="none" stroke="midnightblue" d="M74.69,-251.15C85.59,-223.48 120.36,-144.5 176,-105 178.84,-102.98 181.89,-101.18 185.06,-99.56"/>
<polygon fill="midnightblue" stroke="midnightblue" points="186.53,-102.74 194.27,-95.51 183.71,-96.33 186.53,-102.74"/>
</g>
<!-- Node13 -->
<g id="node13" class="node">
<title>Node13</title>
<g id="a_node13"><a xlink:href="class_t_utilities.html#a84bf39701305cf4814377d178d0fec8c" target="_top" xlink:title="loads an int value from the file">
<polygon fill="white" stroke="black" points="196,-38.5 196,-57.5 303,-57.5 303,-38.5 196,-38.5"/>
<text text-anchor="middle" x="249.5" y="-45.5" font-family="Helvetica,sans-Serif" font-size="10.00">TUtilities::LoadFileInt</text>
</a>
</g>
</g>
<!-- Node1&#45;&gt;Node13 -->
<g id="edge18" class="edge">
<title>Node1&#45;&gt;Node13</title>
<path fill="none" stroke="midnightblue" d="M73.35,-251.13C81.47,-219.17 111.53,-117.6 176,-67 179.19,-64.5 182.68,-62.32 186.35,-60.43"/>
<polygon fill="midnightblue" stroke="midnightblue" points="188.01,-63.52 195.76,-56.29 185.19,-57.11 188.01,-63.52"/>
</g>
<!-- Node14 -->
<g id="node14" class="node">
<title>Node14</title>
<g id="a_node14"><a xlink:href="class_t_utilities.html#a0aac90f10a08736514da3b3e02129e1e" target="_top" xlink:title="loads a string value from the file">
<polygon fill="white" stroke="black" points="188.5,-0.5 188.5,-19.5 310.5,-19.5 310.5,-0.5 188.5,-0.5"/>
<text text-anchor="middle" x="249.5" y="-7.5" font-family="Helvetica,sans-Serif" font-size="10.00">TUtilities::LoadFileString</text>
</a>
</g>
</g>
<!-- Node1&#45;&gt;Node14 -->
<g id="edge19" class="edge">
<title>Node1&#45;&gt;Node14</title>
<path fill="none" stroke="midnightblue" d="M72.39,-251.29C77.99,-215.69 102.35,-91.17 176,-29 178,-27.31 180.14,-25.77 182.37,-24.36"/>
<polygon fill="midnightblue" stroke="midnightblue" points="184.21,-27.35 191.41,-19.59 180.94,-21.16 184.21,-27.35"/>
</g>
<!-- Node15 -->
<g id="node15" class="node">
<title>Node15</title>
<g id="a_node15"><a xlink:href="class_t_one_pref_dir.html#ac5f8d2864f0510cf73cb9883b520ec9f" target="_top" xlink:title="Store a single pref dir element in the vector &amp; map.">
<polygon fill="white" stroke="black" points="185.5,-504 185.5,-534 313.5,-534 313.5,-504 185.5,-504"/>
<text text-anchor="start" x="193.5" y="-522" font-family="Helvetica,sans-Serif" font-size="10.00">TOnePrefDir::StorePrefDir</text>
<text text-anchor="middle" x="249.5" y="-511" font-family="Helvetica,sans-Serif" font-size="10.00">Element</text>
</a>
</g>
</g>
<!-- Node1&#45;&gt;Node15 -->
<g id="edge20" class="edge">
<title>Node1&#45;&gt;Node15</title>
<path fill="none" stroke="midnightblue" d="M73.21,-270.68C81.26,-304.11 112.05,-416.21 176,-482 182.44,-488.62 190.31,-494.28 198.47,-499.02"/>
<polygon fill="midnightblue" stroke="midnightblue" points="196.92,-502.16 207.39,-503.82 200.24,-496 196.92,-502.16"/>
</g>
<!-- Node18 -->
<g id="node18" class="node">
<title>Node18</title>
<g id="a_node18"><a xlink:href="class_t_track.html#ad377e5a1f152f2e89832c0f9bcfd261f" target="_top" xlink:title="A range&#45;checked version of TrackVector.at(At)">
<polygon fill="white" stroke="black" points="378,-465.5 378,-484.5 500,-484.5 500,-465.5 378,-465.5"/>
<text text-anchor="middle" x="439" y="-472.5" font-family="Helvetica,sans-Serif" font-size="10.00">TTrack::TrackElementAt</text>
</a>
</g>
</g>
<!-- Node1&#45;&gt;Node18 -->
<g id="edge28" class="edge">
<title>Node1&#45;&gt;Node18</title>
<path fill="none" stroke="midnightblue" d="M73.61,-270.54C82.33,-300.5 113.54,-393.21 176,-435 232.61,-472.88 311.36,-480.33 367.71,-479.87"/>
<polygon fill="midnightblue" stroke="midnightblue" points="368.03,-483.36 377.97,-479.7 367.91,-476.37 368.03,-483.36"/>
</g>
<!-- Node3&#45;&gt;Node2 -->
<g id="edge3" class="edge">
<title>Node3&#45;&gt;Node2</title>
<path fill="none" stroke="midnightblue" d="M263.94,-425.08C278.75,-441.85 303.13,-469.91 323,-495 339.78,-516.18 334.89,-531.8 359,-544 430.73,-580.31 528.75,-551.38 578.03,-532.33"/>
<polygon fill="midnightblue" stroke="midnightblue" points="579.51,-535.51 587.5,-528.56 576.92,-529.01 579.51,-535.51"/>
</g>
<!-- Node4 -->
<g id="node4" class="node">
<title>Node4</title>
<g id="a_node4"><a xlink:href="class_t_one_pref_dir.html#a820f6cc109de519289e6a63dac835ebc" target="_top" xlink:title="Return up to 4 vector positions for a given HLoc &amp; VLoc; unused values return &#45;1.">
<polygon fill="white" stroke="black" points="359,-416 359,-446 519,-446 519,-416 359,-416"/>
<text text-anchor="start" x="367" y="-434" font-family="Helvetica,sans-Serif" font-size="10.00">TOnePrefDir::GetVectorPositions</text>
<text text-anchor="middle" x="439" y="-423" font-family="Helvetica,sans-Serif" font-size="10.00">FromPrefDir4MultiMap</text>
</a>
</g>
</g>
<!-- Node3&#45;&gt;Node4 -->
<g id="edge4" class="edge">
<title>Node3&#45;&gt;Node4</title>
<path fill="none" stroke="midnightblue" d="M318.19,-417.58C328.1,-418.69 338.44,-419.85 348.7,-421"/>
<polygon fill="midnightblue" stroke="midnightblue" points="348.6,-424.51 358.92,-422.14 349.38,-417.55 348.6,-424.51"/>
</g>
<!-- Node3&#45;&gt;Node5 -->
<g id="edge7" class="edge">
<title>Node3&#45;&gt;Node5</title>
<path fill="none" stroke="midnightblue" d="M285.41,-394.82C306.32,-386.56 333.67,-377.2 359,-373 422.39,-362.49 495.93,-368.78 546.76,-375.98"/>
<polygon fill="midnightblue" stroke="midnightblue" points="546.53,-379.48 556.93,-377.48 547.55,-372.56 546.53,-379.48"/>
</g>
<!-- Node4&#45;&gt;Node2 -->
<g id="edge5" class="edge">
<title>Node4&#45;&gt;Node2</title>
<path fill="none" stroke="midnightblue" d="M495.25,-446.1C503.37,-449 511.52,-452.31 519,-456 545.31,-468.99 572.5,-489.12 590.01,-503.11"/>
<polygon fill="midnightblue" stroke="midnightblue" points="587.81,-505.84 597.78,-509.43 592.23,-500.41 587.81,-505.84"/>
</g>
<!-- Node4&#45;&gt;Node5 -->
<g id="edge6" class="edge">
<title>Node4&#45;&gt;Node5</title>
<path fill="none" stroke="midnightblue" d="M497.69,-415.98C518.87,-410.46 542.57,-404.3 562.63,-399.07"/>
<polygon fill="midnightblue" stroke="midnightblue" points="563.67,-402.42 572.46,-396.51 561.9,-395.64 563.67,-402.42"/>
</g>
<!-- Node10 -->
<g id="node10" class="node">
<title>Node10</title>
<g id="a_node10"><a xlink:href="class_t_pref_dir_element.html#ae8ee9f59578f80d23aebfdb9fff041d4" target="_top" xlink:title="determines and loads EXNumber (see above)">
<polygon fill="white" stroke="black" points="372,-290 372,-320 506,-320 506,-290 372,-290"/>
<text text-anchor="start" x="380" y="-308" font-family="Helvetica,sans-Serif" font-size="10.00">TPrefDirElement::EntryExit</text>
<text text-anchor="middle" x="439" y="-297" font-family="Helvetica,sans-Serif" font-size="10.00">Number</text>
</a>
</g>
</g>
<!-- Node9&#45;&gt;Node10 -->
<g id="edge12" class="edge">
<title>Node9&#45;&gt;Node10</title>
<path fill="none" stroke="midnightblue" d="M312.67,-305C328.39,-305 345.44,-305 361.76,-305"/>
<polygon fill="midnightblue" stroke="midnightblue" points="361.81,-308.5 371.81,-305 361.81,-301.5 361.81,-308.5"/>
</g>
<!-- Node10&#45;&gt;Node2 -->
<g id="edge13" class="edge">
<title>Node10&#45;&gt;Node2</title>
<path fill="none" stroke="midnightblue" d="M451.88,-320.05C482.26,-358.52 562.64,-460.3 595.11,-501.41"/>
<polygon fill="midnightblue" stroke="midnightblue" points="592.5,-503.75 601.44,-509.43 597.99,-499.41 592.5,-503.75"/>
</g>
<!-- Node10&#45;&gt;Node5 -->
<g id="edge14" class="edge">
<title>Node10&#45;&gt;Node5</title>
<path fill="none" stroke="midnightblue" d="M483.58,-320.11C495.24,-324.55 507.74,-329.65 519,-335 542.32,-346.08 567.68,-361.01 585.52,-372.04"/>
<polygon fill="midnightblue" stroke="midnightblue" points="583.78,-375.07 594.11,-377.4 587.49,-369.14 583.78,-375.07"/>
</g>
<!-- Node11&#45;&gt;Node10 -->
<g id="edge16" class="edge">
<title>Node11&#45;&gt;Node10</title>
<path fill="none" stroke="midnightblue" d="M308.03,-338.97C327.83,-333.79 350.17,-327.95 370.68,-322.59"/>
<polygon fill="midnightblue" stroke="midnightblue" points="371.79,-325.92 380.58,-320.01 370.02,-319.15 371.79,-325.92"/>
</g>
<!-- Node15&#45;&gt;Node2 -->
<g id="edge21" class="edge">
<title>Node15&#45;&gt;Node2</title>
<path fill="none" stroke="midnightblue" d="M260.96,-534.36C278.16,-558.07 314.93,-602.66 359,-620 425.17,-646.03 454.11,-649.09 519,-620 556.67,-603.11 585.04,-561.8 599.12,-537.56"/>
<polygon fill="midnightblue" stroke="midnightblue" points="602.29,-539.06 604.12,-528.63 596.18,-535.65 602.29,-539.06"/>
</g>
<!-- Node15&#45;&gt;Node5 -->
<g id="edge26" class="edge">
<title>Node15&#45;&gt;Node5</title>
<path fill="none" stroke="midnightblue" d="M263.05,-503.58C286.21,-475.54 335.49,-418.08 359,-407 417.52,-379.41 492.34,-377.11 544.81,-380.04"/>
<polygon fill="midnightblue" stroke="midnightblue" points="544.79,-383.54 555,-380.69 545.24,-376.56 544.79,-383.54"/>
</g>
<!-- Node16 -->
<g id="node16" class="node">
<title>Node16</title>
<g id="a_node16"><a xlink:href="class_t_one_pref_dir.html#a26a1ee9d1ced0d53e35936097d4896f0" target="_top" xlink:title="Return the vector position of the last element in the vector (i.e. one less than the vector size)">
<polygon fill="white" stroke="black" points="374,-504 374,-534 504,-534 504,-504 374,-504"/>
<text text-anchor="start" x="382" y="-522" font-family="Helvetica,sans-Serif" font-size="10.00">TOnePrefDir::LastElement</text>
<text text-anchor="middle" x="439" y="-511" font-family="Helvetica,sans-Serif" font-size="10.00">Number</text>
</a>
</g>
</g>
<!-- Node15&#45;&gt;Node16 -->
<g id="edge22" class="edge">
<title>Node15&#45;&gt;Node16</title>
<path fill="none" stroke="midnightblue" d="M313.72,-519C329.74,-519 347.1,-519 363.62,-519"/>
<polygon fill="midnightblue" stroke="midnightblue" points="363.78,-522.5 373.78,-519 363.78,-515.5 363.78,-522.5"/>
</g>
<!-- Node17 -->
<g id="node17" class="node">
<title>Node17</title>
<g id="a_node17"><a xlink:href="class_t_pref_dir_element.html#a473c0faabe4d0fb8c4296c9c70dbe7d3" target="_top" xlink:title="Sends a list of PrefDirElement values to Utilities&#45;&gt;CallLog file for debugging purposes.">
<polygon fill="white" stroke="black" points="370,-591.5 370,-610.5 508,-610.5 508,-591.5 370,-591.5"/>
<text text-anchor="middle" x="439" y="-598.5" font-family="Helvetica,sans-Serif" font-size="10.00">TPrefDirElement::LogPrefDir</text>
</a>
</g>
</g>
<!-- Node15&#45;&gt;Node17 -->
<g id="edge25" class="edge">
<title>Node15&#45;&gt;Node17</title>
<path fill="none" stroke="midnightblue" d="M275.25,-534.04C296.81,-546.69 329.21,-564.65 359,-577 369.34,-581.29 380.72,-585.19 391.55,-588.55"/>
<polygon fill="midnightblue" stroke="midnightblue" points="390.71,-591.95 401.29,-591.47 392.72,-585.24 390.71,-591.95"/>
</g>
<!-- Node16&#45;&gt;Node2 -->
<g id="edge23" class="edge">
<title>Node16&#45;&gt;Node2</title>
<path fill="none" stroke="midnightblue" d="M504.37,-519C517.68,-519 531.69,-519 544.98,-519"/>
<polygon fill="midnightblue" stroke="midnightblue" points="544.99,-522.5 554.99,-519 544.99,-515.5 544.99,-522.5"/>
</g>
<!-- Node16&#45;&gt;Node5 -->
<g id="edge24" class="edge">
<title>Node16&#45;&gt;Node5</title>
<path fill="none" stroke="midnightblue" d="M500.34,-503.9C506.89,-501.11 513.26,-497.84 519,-494 554.3,-470.42 583.38,-429.11 598.25,-405.31"/>
<polygon fill="midnightblue" stroke="midnightblue" points="601.37,-406.92 603.58,-396.56 595.39,-403.29 601.37,-406.92"/>
</g>
<!-- Node18&#45;&gt;Node2 -->
<g id="edge29" class="edge">
<title>Node18&#45;&gt;Node2</title>
<path fill="none" stroke="midnightblue" d="M478.2,-484.57C491.16,-487.84 505.72,-491.55 519,-495 533.48,-498.76 549.26,-502.94 563.49,-506.75"/>
<polygon fill="midnightblue" stroke="midnightblue" points="562.98,-510.23 573.55,-509.44 564.79,-503.47 562.98,-510.23"/>
</g>
<!-- Node18&#45;&gt;Node5 -->
<g id="edge30" class="edge">
<title>Node18&#45;&gt;Node5</title>
<path fill="none" stroke="midnightblue" d="M493.32,-465.41C502.12,-462.92 510.98,-459.83 519,-456 547.1,-442.6 574.82,-419.43 591.92,-403.67"/>
<polygon fill="midnightblue" stroke="midnightblue" points="594.53,-406.01 599.41,-396.6 589.73,-400.92 594.53,-406.01"/>
</g>
</g>
</svg>
        <g id="navigator" transform="translate(0 0)" fill="#404254">
                <rect fill="#f2f5e9" fill-opacity="0.5" stroke="#606060" stroke-width=".5" x="0" y="0" width="60" height="60"/>
                <use id="zoomplus" xlink:href="#zoomPlus" x="17" y="9" onmousedown="handleZoom(evt,'in')"/>
                <use id="zoomminus" xlink:href="#zoomMin" x="42" y="9" onmousedown="handleZoom(evt,'out')"/>
                <use id="reset" xlink:href="#resetDef" x="30" y="36" onmousedown="handleReset()"/>
                <g id="arrowUp" xlink:href="#dirArrow" transform="translate(30 24)" onmousedown="handlePan(0,-1)">
                  <use xlink:href="#rim" fill="#404040">
                        <set attributeName="fill" to="#808080" begin="arrowUp.mouseover" end="arrowUp.mouseout"/>
                  </use>
                  <path fill="none" stroke="white" stroke-width="1.5" d="M0,-3.0v7 M-2.5,-0.5L0,-3.0L2.5,-0.5"/>
                </g>
                <g id="arrowRight" xlink:href="#dirArrow" transform="rotate(90) translate(36 -43)" onmousedown="handlePan(1,0)">
                  <use xlink:href="#rim" fill="#404040">
                        <set attributeName="fill" to="#808080" begin="arrowRight.mouseover" end="arrowRight.mouseout"/>
                  </use>
                  <path fill="none" stroke="white" stroke-width="1.5" d="M0,-3.0v7 M-2.5,-0.5L0,-3.0L2.5,-0.5"/>
                </g>
                <g id="arrowDown" xlink:href="#dirArrow" transform="rotate(180) translate(-30 -48)" onmousedown="handlePan(0,1)">
                  <use xlink:href="#rim" fill="#404040">
                        <set attributeName="fill" to="#808080" begin="arrowDown.mouseover" end="arrowDown.mouseout"/>
                  </use>
                  <path fill="none" stroke="white" stroke-width="1.5" d="M0,-3.0v7 M-2.5,-0.5L0,-3.0L2.5,-0.5"/>
                </g>
                <g id="arrowLeft" xlink:href="#dirArrow" transform="rotate(270) translate(-36 17)" onmousedown="handlePan(-1,0)">
                  <use xlink:href="#rim" fill="#404040">
                        <set attributeName="fill" to="#808080" begin="arrowLeft.mouseover" end="arrowLeft.mouseout"/>
                  </use>
                  <path fill="none" stroke="white" stroke-width="1.5" d="M0,-3.0v7 M-2.5,-0.5L0,-3.0L2.5,-0.5"/>
                </g>
        </g>
        <svg viewBox="0 0 15 15" width="100%" height="30px" preserveAspectRatio="xMaxYMin meet">
         <g id="arrow_out" transform="scale(0.3 0.3)">
          <a xlink:href="class_t_one_pref_dir_a614933ff3958e4b8c9be9bc78159d9e8_cgraph_org.svg" target="_base">
           <rect id="button" ry="5" rx="5" y="6" x="6" height="38" width="38"
                fill="#f2f5e9" fill-opacity="0.5" stroke="#606060" stroke-width="1.0"/>
           <path id="arrow"
             d="M 11.500037,31.436501 C 11.940474,20.09759 22.043105,11.32322 32.158766,21.979434 L 37.068811,17.246167 C 37.068811,17.246167 37.088388,32 37.088388,32 L 22.160133,31.978069 C 22.160133,31.978069 26.997745,27.140456 26.997745,27.140456 C 18.528582,18.264221 13.291696,25.230495 11.500037,31.436501 z"
             style="fill:#404040;"/>
          </a>
         </g>
        </svg>
</svg>
