<?xml version="1.0" encoding="UTF-8" standalone="no"?>
<!DOCTYPE svg PUBLIC "-//W3C//DTD SVG 1.1//EN"
 "http://www.w3.org/Graphics/SVG/1.1/DTD/svg11.dtd">
<!-- Generated by graphviz version 2.44.1 (20200629.0800)
 -->
<!-- Title: TTrain::TTrain Pages: 1 -->
<svg width="229pt" height="66pt"
 viewBox="0.00 0.00 229.00 66.00" xmlns="http://www.w3.org/2000/svg" xmlns:xlink="http://www.w3.org/1999/xlink">
<g id="graph0" class="graph" transform="scale(1 1) rotate(0) translate(4 62)">
<title>TTrain::TTrain</title>
<polygon fill="white" stroke="transparent" points="-4,4 -4,-62 225,-62 225,4 -4,4"/>
<!-- Node1 -->
<g id="node1" class="node">
<title>Node1</title>
<g id="a_node1"><a xlink:title="Constructor, sets listed member values.">
<polygon fill="#bfbfbf" stroke="black" points="0,-19.5 0,-38.5 75,-38.5 75,-19.5 0,-19.5"/>
<text text-anchor="middle" x="37.5" y="-26.5" font-family="Helvetica,sans-Serif" font-size="10.00">TTrain::TTrain</text>
</a>
</g>
</g>
<!-- Node2 -->
<g id="node2" class="node">
<title>Node2</title>
<g id="a_node2"><a xlink:href="class_t_utilities.html#ae1eddca13cc3c492839e131f40ec21c0" target="_top" xlink:title="&lt; specifies whether no delays or minor, moderate or major random delays are to be applied">
<polygon fill="white" stroke="black" points="111,-38.5 111,-57.5 221,-57.5 221,-38.5 111,-38.5"/>
<text text-anchor="middle" x="166" y="-45.5" font-family="Helvetica,sans-Serif" font-size="10.00">TUtilities::CallLogPop</text>
</a>
</g>
</g>
<!-- Node1&#45;&gt;Node2 -->
<g id="edge1" class="edge">
<title>Node1&#45;&gt;Node2</title>
<path fill="none" stroke="midnightblue" d="M75.09,-34.5C83.15,-35.71 91.91,-37.02 100.71,-38.34"/>
<polygon fill="midnightblue" stroke="midnightblue" points="100.2,-41.81 110.61,-39.83 101.24,-34.88 100.2,-41.81"/>
</g>
<!-- Node3 -->
<g id="node3" class="node">
<title>Node3</title>
<g id="a_node3"><a xlink:href="class_t_utilities.html#a34bd6bb5305bc29afdf424f6d35a921c" target="_top" xlink:title="creates a string of the form &#39;hh:mm:ss&#39; for use in call &amp; event logging">
<polygon fill="white" stroke="black" points="111,-0.5 111,-19.5 221,-19.5 221,-0.5 111,-0.5"/>
<text text-anchor="middle" x="166" y="-7.5" font-family="Helvetica,sans-Serif" font-size="10.00">TUtilities::TimeStamp</text>
</a>
</g>
</g>
<!-- Node1&#45;&gt;Node3 -->
<g id="edge2" class="edge">
<title>Node1&#45;&gt;Node3</title>
<path fill="none" stroke="midnightblue" d="M75.09,-23.5C83.15,-22.29 91.91,-20.98 100.71,-19.66"/>
<polygon fill="midnightblue" stroke="midnightblue" points="101.24,-23.12 110.61,-18.17 100.2,-16.19 101.24,-23.12"/>
</g>
</g>
</svg>
