<?xml version="1.0" encoding="UTF-8" standalone="no"?>
<!DOCTYPE svg PUBLIC "-//W3C//DTD SVG 1.1//EN"
 "http://www.w3.org/Graphics/SVG/1.1/DTD/svg11.dtd">
<!-- Generated by graphviz version 2.44.1 (20200629.0800)
 -->
<!-- Title: TTrain::TrainAtLocation Pages: 1 -->
<svg width="955pt" height="127pt"
 viewBox="0.00 0.00 955.00 127.00" xmlns="http://www.w3.org/2000/svg" xmlns:xlink="http://www.w3.org/1999/xlink">
<g id="graph0" class="graph" transform="scale(1 1) rotate(0) translate(4 123)">
<title>TTrain::TrainAtLocation</title>
<polygon fill="white" stroke="transparent" points="-4,4 -4,-123 951,-123 951,4 -4,4"/>
<!-- Node1 -->
<g id="node1" class="node">
<title>Node1</title>
<g id="a_node1"><a xlink:title="True when the train is stopped at a timetabled location.">
<polygon fill="#bfbfbf" stroke="black" points="831,-69 831,-88 947,-88 947,-69 831,-69"/>
<text text-anchor="middle" x="889" y="-76" font-family="Helvetica,sans-Serif" font-size="10.00">TTrain::TrainAtLocation</text>
</a>
</g>
</g>
<!-- Node2 -->
<g id="node2" class="node">
<title>Node2</title>
<g id="a_node2"><a xlink:href="class_t_train.html#a221da69cd80d206a06f840f4cd463cf9" target="_top" xlink:title="Used in the floating window to display the &#39;Next&#39; action.">
<polygon fill="white" stroke="black" points="668,-88.5 668,-118.5 795,-118.5 795,-88.5 668,-88.5"/>
<text text-anchor="start" x="676" y="-106.5" font-family="Helvetica,sans-Serif" font-size="10.00">TTrain::FloatingLabelNext</text>
<text text-anchor="middle" x="731.5" y="-95.5" font-family="Helvetica,sans-Serif" font-size="10.00">String</text>
</a>
</g>
</g>
<!-- Node1&#45;&gt;Node2 -->
<g id="edge1" class="edge">
<title>Node1&#45;&gt;Node2</title>
<path fill="none" stroke="midnightblue" d="M820.97,-89.28C812.36,-90.66 803.56,-92.08 795.02,-93.45"/>
<polygon fill="midnightblue" stroke="midnightblue" points="821.66,-92.71 830.98,-87.67 820.55,-85.8 821.66,-92.71"/>
</g>
<!-- Node7 -->
<g id="node7" class="node">
<title>Node7</title>
<g id="a_node7"><a xlink:href="class_t_train.html#a81bf61b47a2867f0c6901b1ea6f47177" target="_top" xlink:title="Used in the floating window to display the timetable.">
<polygon fill="white" stroke="black" points="669,-39.5 669,-69.5 794,-69.5 794,-39.5 669,-39.5"/>
<text text-anchor="start" x="677" y="-57.5" font-family="Helvetica,sans-Serif" font-size="10.00">TTrain::FloatingTimetable</text>
<text text-anchor="middle" x="731.5" y="-46.5" font-family="Helvetica,sans-Serif" font-size="10.00">String</text>
</a>
</g>
</g>
<!-- Node1&#45;&gt;Node7 -->
<g id="edge6" class="edge">
<title>Node1&#45;&gt;Node7</title>
<path fill="none" stroke="midnightblue" d="M821.04,-68.16C812.13,-66.79 803.04,-65.39 794.23,-64.03"/>
<polygon fill="midnightblue" stroke="midnightblue" points="820.56,-71.63 830.98,-69.7 821.63,-64.72 820.56,-71.63"/>
</g>
<!-- Node3 -->
<g id="node3" class="node">
<title>Node3</title>
<g id="a_node3"><a xlink:href="class_t_interface.html#a51b94ffa3dc90fe4e3bec2f1ae28074e" target="_top" xlink:title="used for floating window to display train status">
<polygon fill="white" stroke="black" points="501.5,-88.5 501.5,-118.5 631.5,-118.5 631.5,-88.5 501.5,-88.5"/>
<text text-anchor="start" x="509.5" y="-106.5" font-family="Helvetica,sans-Serif" font-size="10.00">TInterface::GetTrainStatus</text>
<text text-anchor="middle" x="566.5" y="-95.5" font-family="Helvetica,sans-Serif" font-size="10.00">Float</text>
</a>
</g>
</g>
<!-- Node2&#45;&gt;Node3 -->
<g id="edge2" class="edge">
<title>Node2&#45;&gt;Node3</title>
<path fill="none" stroke="midnightblue" d="M657.76,-103.5C649.01,-103.5 640.12,-103.5 631.51,-103.5"/>
<polygon fill="midnightblue" stroke="midnightblue" points="657.95,-107 667.95,-103.5 657.95,-100 657.95,-107"/>
</g>
<!-- Node4 -->
<g id="node4" class="node">
<title>Node4</title>
<g id="a_node4"><a xlink:href="class_t_interface.html#a9aaa19d39382a32701d7ded3b8c1802b" target="_top" xlink:title="Controls the floating window function, called during the ClockTimer2 function.">
<polygon fill="white" stroke="black" points="334,-72 334,-91 465,-91 465,-72 334,-72"/>
<text text-anchor="middle" x="399.5" y="-79" font-family="Helvetica,sans-Serif" font-size="10.00">TInterface::TrackTrainFloat</text>
</a>
</g>
</g>
<!-- Node3&#45;&gt;Node4 -->
<g id="edge3" class="edge">
<title>Node3&#45;&gt;Node4</title>
<path fill="none" stroke="midnightblue" d="M491.13,-93.58C482.46,-92.43 473.66,-91.25 465.13,-90.12"/>
<polygon fill="midnightblue" stroke="midnightblue" points="490.86,-97.08 501.23,-94.93 491.78,-90.14 490.86,-97.08"/>
</g>
<!-- Node5 -->
<g id="node5" class="node">
<title>Node5</title>
<g id="a_node5"><a xlink:href="class_t_interface.html#a6139ffb52492eb89e5487a8a3cd647b5" target="_top" xlink:title="The main loop, called every clock tick via MasterClockTimer.">
<polygon fill="white" stroke="black" points="179,-72 179,-91 298,-91 298,-72 179,-72"/>
<text text-anchor="middle" x="238.5" y="-79" font-family="Helvetica,sans-Serif" font-size="10.00">TInterface::ClockTimer2</text>
</a>
</g>
</g>
<!-- Node4&#45;&gt;Node5 -->
<g id="edge4" class="edge">
<title>Node4&#45;&gt;Node5</title>
<path fill="none" stroke="midnightblue" d="M323.81,-81.5C315.22,-81.5 306.56,-81.5 298.23,-81.5"/>
<polygon fill="midnightblue" stroke="midnightblue" points="323.83,-85 333.83,-81.5 323.83,-78 323.83,-85"/>
</g>
<!-- Node6 -->
<g id="node6" class="node">
<title>Node6</title>
<g id="a_node6"><a xlink:href="class_t_interface.html#ace30a12d923fc7fb489afabb0a09aa4f" target="_top" xlink:title=" ">
<polygon fill="white" stroke="black" points="0,-72 0,-91 143,-91 143,-72 0,-72"/>
<text text-anchor="middle" x="71.5" y="-79" font-family="Helvetica,sans-Serif" font-size="10.00">TInterface::MasterClockTimer</text>
</a>
</g>
</g>
<!-- Node5&#45;&gt;Node6 -->
<g id="edge5" class="edge">
<title>Node5&#45;&gt;Node6</title>
<path fill="none" stroke="midnightblue" d="M168.67,-81.5C160.22,-81.5 151.57,-81.5 143.09,-81.5"/>
<polygon fill="midnightblue" stroke="midnightblue" points="168.86,-85 178.86,-81.5 168.86,-78 168.86,-85"/>
</g>
<!-- Node7&#45;&gt;Node4 -->
<g id="edge8" class="edge">
<title>Node7&#45;&gt;Node4</title>
<path fill="none" stroke="midnightblue" d="M658.69,-60.38C601.09,-65.09 520.92,-71.65 465.26,-76.2"/>
<polygon fill="midnightblue" stroke="midnightblue" points="659.14,-63.85 668.82,-59.55 658.56,-56.87 659.14,-63.85"/>
</g>
<!-- Node8 -->
<g id="node8" class="node">
<title>Node8</title>
<g id="a_node8"><a xlink:href="class_t_interface.html#a40232083747ef274344eed7021c6f43c" target="_top" xlink:title=" ">
<polygon fill="white" stroke="black" points="501,-0.5 501,-30.5 632,-30.5 632,-0.5 501,-0.5"/>
<text text-anchor="start" x="509" y="-18.5" font-family="Helvetica,sans-Serif" font-size="10.00">TInterface::SkipTimetabled</text>
<text text-anchor="middle" x="566.5" y="-7.5" font-family="Helvetica,sans-Serif" font-size="10.00">ActionsMenuItemClick</text>
</a>
</g>
</g>
<!-- Node7&#45;&gt;Node8 -->
<g id="edge7" class="edge">
<title>Node7&#45;&gt;Node8</title>
<path fill="none" stroke="midnightblue" d="M659,-37.39C649.44,-35.11 639.69,-32.77 630.29,-30.52"/>
<polygon fill="midnightblue" stroke="midnightblue" points="658.34,-40.83 668.88,-39.76 659.97,-34.02 658.34,-40.83"/>
</g>
</g>
</svg>
