<?xml version="1.0" encoding="UTF-8" standalone="no"?>
<!DOCTYPE svg PUBLIC "-//W3C//DTD SVG 1.1//EN"
 "http://www.w3.org/Graphics/SVG/1.1/DTD/svg11.dtd">
<!-- Generated by graphviz version 2.44.1 (20200629.0800)
 -->
<!-- Title: TInterface::BuildDynamicMapFromHostDatagram Pages: 1 -->
<svg width="652pt" height="39pt"
 viewBox="0.00 0.00 652.00 39.00" xmlns="http://www.w3.org/2000/svg" xmlns:xlink="http://www.w3.org/1999/xlink">
<g id="graph0" class="graph" transform="scale(1 1) rotate(0) translate(4 35)">
<title>TInterface::BuildDynamicMapFromHostDatagram</title>
<polygon fill="white" stroke="transparent" points="-4,4 -4,-35 648,-35 648,4 -4,4"/>
<!-- Node1 -->
<g id="node1" class="node">
<title>Node1</title>
<g id="a_node1"><a xlink:title="converse of BuildDatagramFromHostMap">
<polygon fill="#bfbfbf" stroke="black" points="519,-0.5 519,-30.5 644,-30.5 644,-0.5 519,-0.5"/>
<text text-anchor="start" x="527" y="-18.5" font-family="Helvetica,sans-Serif" font-size="10.00">TInterface::BuildDynamic</text>
<text text-anchor="middle" x="581.5" y="-7.5" font-family="Helvetica,sans-Serif" font-size="10.00">MapFromHostDatagram</text>
</a>
</g>
</g>
<!-- Node2 -->
<g id="node2" class="node">
<title>Node2</title>
<g id="a_node2"><a xlink:href="class_t_interface.html#a7026d6ca5ea0bad9f6e0f8a0494ff2c9" target="_top" xlink:title="called in ClockTimer2 if player multiplay in progress">
<polygon fill="white" stroke="black" points="334,-0.5 334,-30.5 483,-30.5 483,-0.5 334,-0.5"/>
<text text-anchor="start" x="342" y="-18.5" font-family="Helvetica,sans-Serif" font-size="10.00">TInterface::PlayerHandshaking</text>
<text text-anchor="middle" x="408.5" y="-7.5" font-family="Helvetica,sans-Serif" font-size="10.00">Actions</text>
</a>
</g>
</g>
<!-- Node1&#45;&gt;Node2 -->
<g id="edge1" class="edge">
<title>Node1&#45;&gt;Node2</title>
<path fill="none" stroke="midnightblue" d="M508.59,-15.5C500.16,-15.5 491.54,-15.5 483.09,-15.5"/>
<polygon fill="midnightblue" stroke="midnightblue" points="508.77,-19 518.77,-15.5 508.77,-12 508.77,-19"/>
</g>
<!-- Node3 -->
<g id="node3" class="node">
<title>Node3</title>
<g id="a_node3"><a xlink:href="class_t_interface.html#a6139ffb52492eb89e5487a8a3cd647b5" target="_top" xlink:title="The main loop, called every clock tick via MasterClockTimer.">
<polygon fill="white" stroke="black" points="179,-6 179,-25 298,-25 298,-6 179,-6"/>
<text text-anchor="middle" x="238.5" y="-13" font-family="Helvetica,sans-Serif" font-size="10.00">TInterface::ClockTimer2</text>
</a>
</g>
</g>
<!-- Node2&#45;&gt;Node3 -->
<g id="edge2" class="edge">
<title>Node2&#45;&gt;Node3</title>
<path fill="none" stroke="midnightblue" d="M323.73,-15.5C315.11,-15.5 306.5,-15.5 298.24,-15.5"/>
<polygon fill="midnightblue" stroke="midnightblue" points="323.81,-19 333.81,-15.5 323.81,-12 323.81,-19"/>
</g>
<!-- Node4 -->
<g id="node4" class="node">
<title>Node4</title>
<g id="a_node4"><a xlink:href="class_t_interface.html#ace30a12d923fc7fb489afabb0a09aa4f" target="_top" xlink:title=" ">
<polygon fill="white" stroke="black" points="0,-6 0,-25 143,-25 143,-6 0,-6"/>
<text text-anchor="middle" x="71.5" y="-13" font-family="Helvetica,sans-Serif" font-size="10.00">TInterface::MasterClockTimer</text>
</a>
</g>
</g>
<!-- Node3&#45;&gt;Node4 -->
<g id="edge3" class="edge">
<title>Node3&#45;&gt;Node4</title>
<path fill="none" stroke="midnightblue" d="M168.67,-15.5C160.22,-15.5 151.57,-15.5 143.09,-15.5"/>
<polygon fill="midnightblue" stroke="midnightblue" points="168.86,-19 178.86,-15.5 168.86,-12 168.86,-19"/>
</g>
</g>
</svg>
