<?xml version="1.0" encoding="UTF-8" standalone="no"?>
<!DOCTYPE svg PUBLIC "-//W3C//DTD SVG 1.1//EN"
 "http://www.w3.org/Graphics/SVG/1.1/DTD/svg11.dtd">
<!-- Generated by graphviz version 2.44.1 (20200629.0800)
 -->
<!-- Title: TRailGraphics::ChangeForegroundColour Pages: 1 -->
<svg width="1388pt" height="679pt"
 viewBox="0.00 0.00 1388.00 678.50" xmlns="http://www.w3.org/2000/svg" xmlns:xlink="http://www.w3.org/1999/xlink">
<g id="graph0" class="graph" transform="scale(1 1) rotate(0) translate(4 674.5)">
<title>TRailGraphics::ChangeForegroundColour</title>
<polygon fill="white" stroke="transparent" points="-4,4 -4,-674.5 1384,-674.5 1384,4 -4,4"/>
<!-- Node1 -->
<g id="node1" class="node">
<title>Node1</title>
<g id="a_node1"><a xlink:title=" ">
<polygon fill="#bfbfbf" stroke="black" points="1215,-232.5 1215,-262.5 1380,-262.5 1380,-232.5 1215,-232.5"/>
<text text-anchor="start" x="1223" y="-250.5" font-family="Helvetica,sans-Serif" font-size="10.00">TRailGraphics::ChangeForeground</text>
<text text-anchor="middle" x="1297.5" y="-239.5" font-family="Helvetica,sans-Serif" font-size="10.00">Colour</text>
</a>
</g>
</g>
<!-- Node2 -->
<g id="node2" class="node">
<title>Node2</title>
<g id="a_node2"><a xlink:href="class_t_train_controller.html#aa895b60238810a9d134cd5b9c886da56" target="_top" xlink:title="Introduce a new train to the railway, with the characteristics specified, returns true for success,...">
<polygon fill="white" stroke="black" points="833,-651 833,-670 961,-670 961,-651 833,-651"/>
<text text-anchor="middle" x="897" y="-658" font-family="Helvetica,sans-Serif" font-size="10.00">TTrainController::AddTrain</text>
</a>
</g>
</g>
<!-- Node1&#45;&gt;Node2 -->
<g id="edge1" class="edge">
<title>Node1&#45;&gt;Node2</title>
<path fill="none" stroke="midnightblue" d="M1290.94,-272.67C1278.68,-323.03 1245.04,-437.47 1179,-508.5 1107.06,-585.88 986.58,-632.27 929.64,-650.94"/>
<polygon fill="midnightblue" stroke="midnightblue" points="1294.41,-273.19 1293.29,-262.66 1287.6,-271.59 1294.41,-273.19"/>
</g>
<!-- Node4 -->
<g id="node4" class="node">
<title>Node4</title>
<g id="a_node4"><a xlink:href="class_t_train.html#a89ad640ecf8f5163c40727b4e28575fc" target="_top" xlink:title="Major function called at each clock tick for each train &amp; handles all train movement &amp; associated act...">
<polygon fill="white" stroke="black" points="495,-493 495,-512 596,-512 596,-493 495,-493"/>
<text text-anchor="middle" x="545.5" y="-500" font-family="Helvetica,sans-Serif" font-size="10.00">TTrain::UpdateTrain</text>
</a>
</g>
</g>
<!-- Node1&#45;&gt;Node4 -->
<g id="edge39" class="edge">
<title>Node1&#45;&gt;Node4</title>
<path fill="none" stroke="midnightblue" d="M1204.78,-255.56C1025.18,-271.5 643.52,-306.24 632,-314.5 569.65,-359.22 551.79,-460.55 547.61,-492.59"/>
<polygon fill="midnightblue" stroke="midnightblue" points="1205.09,-259.05 1214.74,-254.68 1204.47,-252.07 1205.09,-259.05"/>
</g>
<!-- Node9 -->
<g id="node9" class="node">
<title>Node9</title>
<g id="a_node9"><a xlink:href="class_t_train.html#a43cd691f12297c4c13a19791329dd627" target="_top" xlink:title="Plots the train and sets up all relevant members for a new train when it is introduced into the railw...">
<polygon fill="white" stroke="black" points="1038.5,-480 1038.5,-499 1160.5,-499 1160.5,-480 1038.5,-480"/>
<text text-anchor="middle" x="1099.5" y="-487" font-family="Helvetica,sans-Serif" font-size="10.00">TTrain::PlotStartPosition</text>
</a>
</g>
</g>
<!-- Node1&#45;&gt;Node9 -->
<g id="edge10" class="edge">
<title>Node1&#45;&gt;Node9</title>
<path fill="none" stroke="midnightblue" d="M1277.84,-270.54C1236.19,-321.96 1137.07,-444.35 1108.4,-479.75"/>
<polygon fill="midnightblue" stroke="midnightblue" points="1280.67,-272.61 1284.24,-262.64 1275.23,-268.21 1280.67,-272.61"/>
</g>
<!-- Node17 -->
<g id="node17" class="node">
<title>Node17</title>
<g id="a_node17"><a xlink:href="class_t_rail_graphics.html#ae19696d461eea07c5444ed4c9714acf3" target="_top" xlink:title=" ">
<polygon fill="white" stroke="black" points="1020,-186.5 1020,-216.5 1179,-216.5 1179,-186.5 1020,-186.5"/>
<text text-anchor="start" x="1028" y="-204.5" font-family="Helvetica,sans-Serif" font-size="10.00">TRailGraphics::SetUpAllDerivitive</text>
<text text-anchor="middle" x="1099.5" y="-193.5" font-family="Helvetica,sans-Serif" font-size="10.00">Graphics</text>
</a>
</g>
</g>
<!-- Node1&#45;&gt;Node17 -->
<g id="edge26" class="edge">
<title>Node1&#45;&gt;Node17</title>
<path fill="none" stroke="midnightblue" d="M1222.48,-230.13C1203.39,-225.65 1183.01,-220.87 1164.49,-216.52"/>
<polygon fill="midnightblue" stroke="midnightblue" points="1221.79,-233.56 1232.32,-232.44 1223.39,-226.75 1221.79,-233.56"/>
</g>
<!-- Node28 -->
<g id="node28" class="node">
<title>Node28</title>
<g id="a_node28"><a xlink:href="class_t_interface.html#ab5b80c76a8cc8d2c87f21d323f61c1ce" target="_top" xlink:title=" ">
<polygon fill="white" stroke="black" points="1038,-137.5 1038,-167.5 1161,-167.5 1161,-137.5 1038,-137.5"/>
<text text-anchor="start" x="1046" y="-155.5" font-family="Helvetica,sans-Serif" font-size="10.00">TInterface::TakeSignaller</text>
<text text-anchor="middle" x="1099.5" y="-144.5" font-family="Helvetica,sans-Serif" font-size="10.00">ControlMenuItemClick</text>
</a>
</g>
</g>
<!-- Node1&#45;&gt;Node28 -->
<g id="edge37" class="edge">
<title>Node1&#45;&gt;Node28</title>
<path fill="none" stroke="midnightblue" d="M1266.01,-226.69C1242.89,-211.57 1209.91,-191.41 1179,-177.5 1170.91,-173.86 1162.14,-170.52 1153.48,-167.54"/>
<polygon fill="midnightblue" stroke="midnightblue" points="1264.1,-229.62 1274.37,-232.22 1267.96,-223.78 1264.1,-229.62"/>
</g>
<!-- Node29 -->
<g id="node29" class="node">
<title>Node29</title>
<g id="a_node29"><a xlink:href="class_t_interface.html#aec12f0e481024f1268fad36e7188b7a4" target="_top" xlink:title=" ">
<polygon fill="white" stroke="black" points="1031,-88.5 1031,-118.5 1168,-118.5 1168,-88.5 1031,-88.5"/>
<text text-anchor="start" x="1039" y="-106.5" font-family="Helvetica,sans-Serif" font-size="10.00">TInterface::TimetableControl</text>
<text text-anchor="middle" x="1099.5" y="-95.5" font-family="Helvetica,sans-Serif" font-size="10.00">MenuItemClick</text>
</a>
</g>
</g>
<!-- Node1&#45;&gt;Node29 -->
<g id="edge38" class="edge">
<title>Node1&#45;&gt;Node29</title>
<path fill="none" stroke="midnightblue" d="M1279.41,-224.37C1258.52,-197.66 1220.77,-154.11 1179,-128.5 1172.78,-124.69 1165.92,-121.4 1158.93,-118.58"/>
<polygon fill="midnightblue" stroke="midnightblue" points="1276.71,-226.61 1285.58,-232.41 1282.27,-222.35 1276.71,-226.61"/>
</g>
<!-- Node3 -->
<g id="node3" class="node">
<title>Node3</title>
<g id="a_node3"><a xlink:href="class_t_train.html#ad666fb061d1da7c44a72ec963c2098aa" target="_top" xlink:title="Carry out the actions needed when a train is to split from the front.">
<polygon fill="white" stroke="black" points="647,-575 647,-594 759,-594 759,-575 647,-575"/>
<text text-anchor="middle" x="703" y="-582" font-family="Helvetica,sans-Serif" font-size="10.00">TTrain::FrontTrainSplit</text>
</a>
</g>
</g>
<!-- Node2&#45;&gt;Node3 -->
<g id="edge2" class="edge">
<title>Node2&#45;&gt;Node3</title>
<path fill="none" stroke="midnightblue" d="M868.82,-646.15C844.47,-633.69 807.53,-615.78 774,-603.5 764.42,-599.99 753.9,-596.8 743.98,-594.08"/>
<polygon fill="midnightblue" stroke="midnightblue" points="867.33,-649.32 877.82,-650.8 870.54,-643.1 867.33,-649.32"/>
</g>
<!-- Node5 -->
<g id="node5" class="node">
<title>Node5</title>
<g id="a_node5"><a xlink:href="class_t_train_controller.html#a20a1576dea1d86ed78fc5e9f46343481" target="_top" xlink:title="called every clock tick to introduce new trains and update existing trains">
<polygon fill="white" stroke="black" points="334,-572 334,-591 459,-591 459,-572 334,-572"/>
<text text-anchor="middle" x="396.5" y="-579" font-family="Helvetica,sans-Serif" font-size="10.00">TTrainController::Operate</text>
</a>
</g>
</g>
<!-- Node2&#45;&gt;Node5 -->
<g id="edge7" class="edge">
<title>Node2&#45;&gt;Node5</title>
<path fill="none" stroke="midnightblue" d="M822.93,-658.74C769.7,-656.62 696.02,-651.91 632,-641.5 557.34,-629.36 471.74,-604.63 427.49,-591.02"/>
<polygon fill="midnightblue" stroke="midnightblue" points="822.83,-662.24 832.96,-659.12 823.1,-655.25 822.83,-662.24"/>
</g>
<!-- Node8 -->
<g id="node8" class="node">
<title>Node8</title>
<g id="a_node8"><a xlink:href="class_t_train.html#ad64c5823265b0c611c2e5f0613317aa5" target="_top" xlink:title="Carry out the actions needed when a train is to split from the rear.">
<polygon fill="white" stroke="black" points="648,-613 648,-632 758,-632 758,-613 648,-613"/>
<text text-anchor="middle" x="703" y="-620" font-family="Helvetica,sans-Serif" font-size="10.00">TTrain::RearTrainSplit</text>
</a>
</g>
</g>
<!-- Node2&#45;&gt;Node8 -->
<g id="edge8" class="edge">
<title>Node2&#45;&gt;Node8</title>
<path fill="none" stroke="midnightblue" d="M837.7,-648.96C810.32,-643.54 778.07,-637.16 752.1,-632.02"/>
<polygon fill="midnightblue" stroke="midnightblue" points="837.06,-652.4 847.55,-650.91 838.42,-645.54 837.06,-652.4"/>
</g>
<!-- Node3&#45;&gt;Node4 -->
<g id="edge3" class="edge">
<title>Node3&#45;&gt;Node4</title>
<path fill="none" stroke="midnightblue" d="M647.43,-571.84C642.12,-569.97 636.89,-567.86 632,-565.5 602.12,-551.06 571.99,-525.78 556.73,-512.04"/>
<polygon fill="midnightblue" stroke="midnightblue" points="646.45,-575.2 657.04,-574.95 648.6,-568.54 646.45,-575.2"/>
</g>
<!-- Node4&#45;&gt;Node5 -->
<g id="edge4" class="edge">
<title>Node4&#45;&gt;Node5</title>
<path fill="none" stroke="midnightblue" d="M517.78,-516.86C488.04,-532.84 440.83,-558.22 415.29,-571.94"/>
<polygon fill="midnightblue" stroke="midnightblue" points="519.62,-519.85 526.77,-512.03 516.3,-513.68 519.62,-519.85"/>
</g>
<!-- Node6 -->
<g id="node6" class="node">
<title>Node6</title>
<g id="a_node6"><a xlink:href="class_t_interface.html#a6139ffb52492eb89e5487a8a3cd647b5" target="_top" xlink:title="The main loop, called every clock tick via MasterClockTimer.">
<polygon fill="white" stroke="black" points="179,-572 179,-591 298,-591 298,-572 179,-572"/>
<text text-anchor="middle" x="238.5" y="-579" font-family="Helvetica,sans-Serif" font-size="10.00">TInterface::ClockTimer2</text>
</a>
</g>
</g>
<!-- Node5&#45;&gt;Node6 -->
<g id="edge5" class="edge">
<title>Node5&#45;&gt;Node6</title>
<path fill="none" stroke="midnightblue" d="M323.83,-581.5C315.24,-581.5 306.54,-581.5 298.16,-581.5"/>
<polygon fill="midnightblue" stroke="midnightblue" points="323.84,-585 333.84,-581.5 323.84,-578 323.84,-585"/>
</g>
<!-- Node7 -->
<g id="node7" class="node">
<title>Node7</title>
<g id="a_node7"><a xlink:href="class_t_interface.html#ace30a12d923fc7fb489afabb0a09aa4f" target="_top" xlink:title=" ">
<polygon fill="white" stroke="black" points="0,-572 0,-591 143,-591 143,-572 0,-572"/>
<text text-anchor="middle" x="71.5" y="-579" font-family="Helvetica,sans-Serif" font-size="10.00">TInterface::MasterClockTimer</text>
</a>
</g>
</g>
<!-- Node6&#45;&gt;Node7 -->
<g id="edge6" class="edge">
<title>Node6&#45;&gt;Node7</title>
<path fill="none" stroke="midnightblue" d="M168.67,-581.5C160.22,-581.5 151.57,-581.5 143.09,-581.5"/>
<polygon fill="midnightblue" stroke="midnightblue" points="168.86,-585 178.86,-581.5 168.86,-578 168.86,-585"/>
</g>
<!-- Node8&#45;&gt;Node4 -->
<g id="edge9" class="edge">
<title>Node8&#45;&gt;Node4</title>
<path fill="none" stroke="midnightblue" d="M642.52,-609.15C638.85,-607.48 635.31,-605.61 632,-603.5 593.82,-579.2 563.77,-532.49 551.95,-512.25"/>
<polygon fill="midnightblue" stroke="midnightblue" points="641.26,-612.42 651.84,-612.89 643.87,-605.92 641.26,-612.42"/>
</g>
<!-- Node9&#45;&gt;Node2 -->
<g id="edge11" class="edge">
<title>Node9&#45;&gt;Node2</title>
<path fill="none" stroke="midnightblue" d="M1084.65,-507.02C1068.91,-526.94 1042.5,-560.48 1020,-589.5 1003.88,-610.29 1005.8,-621.76 984,-636.5 974.63,-642.84 963.61,-647.51 952.64,-650.96"/>
<polygon fill="midnightblue" stroke="midnightblue" points="1087.43,-509.14 1090.88,-499.12 1081.94,-504.8 1087.43,-509.14"/>
</g>
<!-- Node9&#45;&gt;Node3 -->
<g id="edge14" class="edge">
<title>Node9&#45;&gt;Node3</title>
<path fill="none" stroke="midnightblue" d="M1068.38,-503.23C1045.61,-513.15 1013.36,-526.2 984,-534.5 907.38,-556.17 816.19,-570.38 759.19,-577.93"/>
<polygon fill="midnightblue" stroke="midnightblue" points="1070.09,-506.31 1077.83,-499.07 1067.26,-499.9 1070.09,-506.31"/>
</g>
<!-- Node9&#45;&gt;Node8 -->
<g id="edge19" class="edge">
<title>Node9&#45;&gt;Node8</title>
<path fill="none" stroke="midnightblue" d="M1079.55,-505.46C1057.85,-522.88 1020.57,-550.32 984,-565.5 909.2,-596.54 815.94,-611.17 758.17,-617.7"/>
<polygon fill="midnightblue" stroke="midnightblue" points="1081.8,-508.14 1087.32,-499.1 1077.37,-502.72 1081.8,-508.14"/>
</g>
<!-- Node10 -->
<g id="node10" class="node">
<title>Node10</title>
<g id="a_node10"><a xlink:href="class_t_train.html#a406c172a0ba96802ada1aa04d78948d0" target="_top" xlink:title="Reverses the direction of motion of the train.">
<polygon fill="white" stroke="black" points="632.5,-537 632.5,-556 773.5,-556 773.5,-537 632.5,-537"/>
<text text-anchor="middle" x="703" y="-544" font-family="Helvetica,sans-Serif" font-size="10.00">TTrain::ChangeTrainDirection</text>
</a>
</g>
</g>
<!-- Node9&#45;&gt;Node10 -->
<g id="edge12" class="edge">
<title>Node9&#45;&gt;Node10</title>
<path fill="none" stroke="midnightblue" d="M1036.84,-500.75C1019.75,-503.74 1001.17,-506.87 984,-509.5 912.51,-520.46 830.45,-531.08 773.73,-538.1"/>
<polygon fill="midnightblue" stroke="midnightblue" points="1037.46,-504.2 1046.71,-499.02 1036.25,-497.3 1037.46,-504.2"/>
</g>
<!-- Node11 -->
<g id="node11" class="node">
<title>Node11</title>
<g id="a_node11"><a xlink:href="class_t_train.html#a56fcfe4b9a3cef988bbeb4f4766372aa" target="_top" xlink:title="Carry out the actions needed when a new shuttle service is created from a non&#45;repeating (F&#45;nshs) serv...">
<polygon fill="white" stroke="black" points="634,-487.5 634,-517.5 772,-517.5 772,-487.5 634,-487.5"/>
<text text-anchor="start" x="642" y="-505.5" font-family="Helvetica,sans-Serif" font-size="10.00">TTrain::NewShuttleFromNon</text>
<text text-anchor="middle" x="703" y="-494.5" font-family="Helvetica,sans-Serif" font-size="10.00">RepeatService</text>
</a>
</g>
</g>
<!-- Node9&#45;&gt;Node11 -->
<g id="edge15" class="edge">
<title>Node9&#45;&gt;Node11</title>
<path fill="none" stroke="midnightblue" d="M1027.77,-491.83C955.41,-494.22 843.75,-497.89 772.29,-500.25"/>
<polygon fill="midnightblue" stroke="midnightblue" points="1028.28,-495.32 1038.15,-491.49 1028.04,-488.32 1028.28,-495.32"/>
</g>
<!-- Node12 -->
<g id="node12" class="node">
<title>Node12</title>
<g id="a_node12"><a xlink:href="class_t_train.html#a75a2e9017b96e2a8f2a1edbd01c2cd68" target="_top" xlink:title="Carry out the actions needed when a train forms a new service (code Fns)">
<polygon fill="white" stroke="black" points="643,-449 643,-468 763,-468 763,-449 643,-449"/>
<text text-anchor="middle" x="703" y="-456" font-family="Helvetica,sans-Serif" font-size="10.00">TTrain::NewTrainService</text>
</a>
</g>
</g>
<!-- Node9&#45;&gt;Node12 -->
<g id="edge17" class="edge">
<title>Node9&#45;&gt;Node12</title>
<path fill="none" stroke="midnightblue" d="M1027.79,-483.94C952.23,-478.01 833.8,-468.7 763.05,-463.14"/>
<polygon fill="midnightblue" stroke="midnightblue" points="1027.91,-487.46 1038.15,-484.76 1028.46,-480.49 1027.91,-487.46"/>
</g>
<!-- Node13 -->
<g id="node13" class="node">
<title>Node13</title>
<g id="a_node13"><a xlink:href="class_t_train.html#a8262f447ec811db7e524c7bb885226c5" target="_top" xlink:title="Carry out the actions needed to create either a new shuttle service or (if all repeats have finished)...">
<polygon fill="white" stroke="black" points="827,-411.5 827,-441.5 967,-441.5 967,-411.5 827,-411.5"/>
<text text-anchor="start" x="835" y="-429.5" font-family="Helvetica,sans-Serif" font-size="10.00">TTrain::RepeatShuttleOrNew</text>
<text text-anchor="middle" x="897" y="-418.5" font-family="Helvetica,sans-Serif" font-size="10.00">NonRepeatService</text>
</a>
</g>
</g>
<!-- Node9&#45;&gt;Node13 -->
<g id="edge20" class="edge">
<title>Node9&#45;&gt;Node13</title>
<path fill="none" stroke="midnightblue" d="M1058.45,-476.91C1026.04,-466.73 980.3,-452.36 945.95,-441.57"/>
<polygon fill="midnightblue" stroke="midnightblue" points="1057.46,-480.27 1068.05,-479.93 1059.56,-473.59 1057.46,-480.27"/>
</g>
<!-- Node14 -->
<g id="node14" class="node">
<title>Node14</title>
<g id="a_node14"><a xlink:href="class_t_train.html#ac6f5cda912103fda4da31bdca611e4b5" target="_top" xlink:title="Carry out the actions needed to create either a new shuttle service or (if all repeats have finished)...">
<polygon fill="white" stroke="black" points="810,-373 810,-392 984,-392 984,-373 810,-373"/>
<text text-anchor="middle" x="897" y="-380" font-family="Helvetica,sans-Serif" font-size="10.00">TTrain::RepeatShuttleOrRemainHere</text>
</a>
</g>
</g>
<!-- Node9&#45;&gt;Node14 -->
<g id="edge22" class="edge">
<title>Node9&#45;&gt;Node14</title>
<path fill="none" stroke="midnightblue" d="M1081.24,-472.58C1060.08,-452.8 1022.3,-420.49 984,-402.5 974.84,-398.2 964.69,-394.79 954.67,-392.09"/>
<polygon fill="midnightblue" stroke="midnightblue" points="1079.09,-475.37 1088.74,-479.73 1083.92,-470.3 1079.09,-475.37"/>
</g>
<!-- Node15 -->
<g id="node15" class="node">
<title>Node15</title>
<g id="a_node15"><a xlink:href="class_t_train.html#affbb94aa088370056f8ca8c45a1fdd48" target="_top" xlink:title="Unplots &amp; replots train, which checks for facing signal and sets StoppedAtSignal if req&#39;d.">
<polygon fill="white" stroke="black" points="827,-323.5 827,-353.5 967,-353.5 967,-323.5 827,-323.5"/>
<text text-anchor="start" x="835" y="-341.5" font-family="Helvetica,sans-Serif" font-size="10.00">TTrain::SignallerChangeTrain</text>
<text text-anchor="middle" x="897" y="-330.5" font-family="Helvetica,sans-Serif" font-size="10.00">Direction</text>
</a>
</g>
</g>
<!-- Node9&#45;&gt;Node15 -->
<g id="edge24" class="edge">
<title>Node9&#45;&gt;Node15</title>
<path fill="none" stroke="midnightblue" d="M1086.92,-471.36C1068.46,-443.93 1029.76,-392.06 984,-363.5 977.8,-359.63 970.98,-356.34 963.97,-353.54"/>
<polygon fill="midnightblue" stroke="midnightblue" points="1084.16,-473.54 1092.58,-479.97 1090.01,-469.69 1084.16,-473.54"/>
</g>
<!-- Node10&#45;&gt;Node4 -->
<g id="edge13" class="edge">
<title>Node10&#45;&gt;Node4</title>
<path fill="none" stroke="midnightblue" d="M656.56,-534.3C648.37,-532.07 639.93,-529.73 632,-527.5 614.29,-522.51 594.57,-516.75 578.53,-512.03"/>
<polygon fill="midnightblue" stroke="midnightblue" points="655.78,-537.72 666.35,-536.97 657.62,-530.97 655.78,-537.72"/>
</g>
<!-- Node11&#45;&gt;Node4 -->
<g id="edge16" class="edge">
<title>Node11&#45;&gt;Node4</title>
<path fill="none" stroke="midnightblue" d="M623.73,-502.5C614.44,-502.5 605.16,-502.5 596.42,-502.5"/>
<polygon fill="midnightblue" stroke="midnightblue" points="623.8,-506 633.8,-502.5 623.8,-499 623.8,-506"/>
</g>
<!-- Node12&#45;&gt;Node4 -->
<g id="edge18" class="edge">
<title>Node12&#45;&gt;Node4</title>
<path fill="none" stroke="midnightblue" d="M658.39,-470.84C633.62,-477.85 603.08,-486.49 580.18,-492.97"/>
<polygon fill="midnightblue" stroke="midnightblue" points="659.59,-474.14 668.26,-468.05 657.68,-467.4 659.59,-474.14"/>
</g>
<!-- Node13&#45;&gt;Node4 -->
<g id="edge21" class="edge">
<title>Node13&#45;&gt;Node4</title>
<path fill="none" stroke="midnightblue" d="M816.75,-418.67C763.08,-416.16 691.4,-418.35 632,-439.5 600.39,-450.76 570.51,-477.85 555.88,-492.57"/>
<polygon fill="midnightblue" stroke="midnightblue" points="816.73,-422.17 826.9,-419.21 817.1,-415.18 816.73,-422.17"/>
</g>
<!-- Node14&#45;&gt;Node4 -->
<g id="edge23" class="edge">
<title>Node14&#45;&gt;Node4</title>
<path fill="none" stroke="midnightblue" d="M799.55,-378.39C747.49,-379.88 683.53,-387.89 632,-413.5 594.58,-432.09 564.56,-474 552.38,-492.92"/>
<polygon fill="midnightblue" stroke="midnightblue" points="799.87,-381.88 809.8,-378.18 799.73,-374.89 799.87,-381.88"/>
</g>
<!-- Node16 -->
<g id="node16" class="node">
<title>Node16</title>
<g id="a_node16"><a xlink:href="class_t_interface.html#aaaf32c3c815553f7ba70698e0f0071bb" target="_top" xlink:title=" ">
<polygon fill="white" stroke="black" points="635,-323.5 635,-353.5 771,-353.5 771,-323.5 635,-323.5"/>
<text text-anchor="start" x="643" y="-341.5" font-family="Helvetica,sans-Serif" font-size="10.00">TInterface::ChangeDirection</text>
<text text-anchor="middle" x="703" y="-330.5" font-family="Helvetica,sans-Serif" font-size="10.00">MenuItemClick</text>
</a>
</g>
</g>
<!-- Node15&#45;&gt;Node16 -->
<g id="edge25" class="edge">
<title>Node15&#45;&gt;Node16</title>
<path fill="none" stroke="midnightblue" d="M816.61,-338.5C801.5,-338.5 785.83,-338.5 771.15,-338.5"/>
<polygon fill="midnightblue" stroke="midnightblue" points="816.95,-342 826.95,-338.5 816.95,-335 816.95,-342"/>
</g>
<!-- Node18 -->
<g id="node18" class="node">
<title>Node18</title>
<g id="a_node18"><a xlink:href="class_t_interface.html#a237c151513ca8adca6cd1006cc2fc66f" target="_top" xlink:title=" ">
<polygon fill="white" stroke="black" points="829,-137.5 829,-167.5 965,-167.5 965,-137.5 829,-137.5"/>
<text text-anchor="start" x="837" y="-155.5" font-family="Helvetica,sans-Serif" font-size="10.00">TInterface::BlackBgndMenu</text>
<text text-anchor="middle" x="897" y="-144.5" font-family="Helvetica,sans-Serif" font-size="10.00">ItemClick</text>
</a>
</g>
</g>
<!-- Node17&#45;&gt;Node18 -->
<g id="edge27" class="edge">
<title>Node17&#45;&gt;Node18</title>
<path fill="none" stroke="midnightblue" d="M1026.99,-184.02C1004.89,-178.62 980.76,-172.72 959.4,-167.51"/>
<polygon fill="midnightblue" stroke="midnightblue" points="1026.44,-187.49 1036.98,-186.47 1028.1,-180.69 1026.44,-187.49"/>
</g>
<!-- Node19 -->
<g id="node19" class="node">
<title>Node19</title>
<g id="a_node19"><a xlink:href="class_t_interface.html#a24d79aa4745e495daa07bb5ce412e75f" target="_top" xlink:title=" ">
<polygon fill="white" stroke="black" points="831.5,-88.5 831.5,-118.5 962.5,-118.5 962.5,-88.5 831.5,-88.5"/>
<text text-anchor="start" x="839.5" y="-106.5" font-family="Helvetica,sans-Serif" font-size="10.00">TInterface::BlueBgndMenu</text>
<text text-anchor="middle" x="897" y="-95.5" font-family="Helvetica,sans-Serif" font-size="10.00">ItemClick</text>
</a>
</g>
</g>
<!-- Node17&#45;&gt;Node19 -->
<g id="edge28" class="edge">
<title>Node17&#45;&gt;Node19</title>
<path fill="none" stroke="midnightblue" d="M1026.68,-181.77C1024.37,-180.44 1022.14,-179.01 1020,-177.5 997.96,-161.87 1006.15,-143.98 984,-128.5 977.5,-123.96 970.18,-120.23 962.62,-117.18"/>
<polygon fill="midnightblue" stroke="midnightblue" points="1025.38,-185.04 1035.88,-186.49 1028.58,-178.81 1025.38,-185.04"/>
</g>
<!-- Node20 -->
<g id="node20" class="node">
<title>Node20</title>
<g id="a_node20"><a xlink:href="class_t_interface.html#a0659e748042e378f3e325652c9c2e6d2" target="_top" xlink:title="constructor">
<polygon fill="white" stroke="black" points="843.5,-50 843.5,-69 950.5,-69 950.5,-50 843.5,-50"/>
<text text-anchor="middle" x="897" y="-57" font-family="Helvetica,sans-Serif" font-size="10.00">TInterface::TInterface</text>
</a>
</g>
</g>
<!-- Node17&#45;&gt;Node20 -->
<g id="edge29" class="edge">
<title>Node17&#45;&gt;Node20</title>
<path fill="none" stroke="midnightblue" d="M1023.53,-180.58C1022.31,-179.6 1021.13,-178.57 1020,-177.5 986.04,-145.27 1019.21,-109.36 984,-78.5 974.69,-70.34 962.66,-65.44 950.56,-62.55"/>
<polygon fill="midnightblue" stroke="midnightblue" points="1021.85,-183.67 1032.09,-186.4 1025.79,-177.88 1021.85,-183.67"/>
</g>
<!-- Node21 -->
<g id="node21" class="node">
<title>Node21</title>
<g id="a_node21"><a xlink:href="class_t_interface.html#a3a9f9cf4b530f7958ee3d14047fd951a" target="_top" xlink:title=" ">
<polygon fill="white" stroke="black" points="828.5,-0.5 828.5,-30.5 965.5,-30.5 965.5,-0.5 828.5,-0.5"/>
<text text-anchor="start" x="836.5" y="-18.5" font-family="Helvetica,sans-Serif" font-size="10.00">TInterface::WhiteBgndMenu</text>
<text text-anchor="middle" x="897" y="-7.5" font-family="Helvetica,sans-Serif" font-size="10.00">ItemClick</text>
</a>
</g>
</g>
<!-- Node17&#45;&gt;Node21 -->
<g id="edge30" class="edge">
<title>Node17&#45;&gt;Node21</title>
<path fill="none" stroke="midnightblue" d="M1022.86,-180.25C1021.87,-179.37 1020.92,-178.45 1020,-177.5 976.38,-132.11 1027.94,-85.59 984,-40.5 978.79,-35.15 972.51,-30.93 965.75,-27.61"/>
<polygon fill="midnightblue" stroke="midnightblue" points="1020.88,-183.15 1031,-186.31 1025.07,-177.53 1020.88,-183.15"/>
</g>
<!-- Node22 -->
<g id="node22" class="node">
<title>Node22</title>
<g id="a_node22"><a xlink:href="class_t_track.html#a98b1632a5246785adc1003ebcb3e91a4" target="_top" xlink:title="Called by TInterface::SaveOperatingImage1Click to add all track &amp; text to the image file in their ope...">
<polygon fill="white" stroke="black" points="826.5,-235.5 826.5,-265.5 967.5,-265.5 967.5,-235.5 826.5,-235.5"/>
<text text-anchor="start" x="834.5" y="-253.5" font-family="Helvetica,sans-Serif" font-size="10.00">TTrack::WriteOperatingTrack</text>
<text text-anchor="middle" x="897" y="-242.5" font-family="Helvetica,sans-Serif" font-size="10.00">AndTextToImage</text>
</a>
</g>
</g>
<!-- Node17&#45;&gt;Node22 -->
<g id="edge31" class="edge">
<title>Node17&#45;&gt;Node22</title>
<path fill="none" stroke="midnightblue" d="M1026.99,-218.98C1004.89,-224.38 980.76,-230.28 959.4,-235.49"/>
<polygon fill="midnightblue" stroke="midnightblue" points="1028.1,-222.31 1036.98,-216.53 1026.44,-215.51 1028.1,-222.31"/>
</g>
<!-- Node24 -->
<g id="node24" class="node">
<title>Node24</title>
<g id="a_node24"><a xlink:href="class_t_track.html#a909e96ff6b77c266ab82313e30018cd4" target="_top" xlink:title="Called by TInterface::SaveImageNoGrid1Click, TInterface::SaveImageAndGrid1Click and TInterface::SaveI...">
<polygon fill="white" stroke="black" points="829.5,-186.5 829.5,-216.5 964.5,-216.5 964.5,-186.5 829.5,-186.5"/>
<text text-anchor="start" x="837.5" y="-204.5" font-family="Helvetica,sans-Serif" font-size="10.00">TTrack::WriteTrackAndText</text>
<text text-anchor="middle" x="897" y="-193.5" font-family="Helvetica,sans-Serif" font-size="10.00">ToImage</text>
</a>
</g>
</g>
<!-- Node17&#45;&gt;Node24 -->
<g id="edge33" class="edge">
<title>Node17&#45;&gt;Node24</title>
<path fill="none" stroke="midnightblue" d="M1009.5,-201.5C994.47,-201.5 979.1,-201.5 964.77,-201.5"/>
<polygon fill="midnightblue" stroke="midnightblue" points="1009.83,-205 1019.83,-201.5 1009.83,-198 1009.83,-205"/>
</g>
<!-- Node23 -->
<g id="node23" class="node">
<title>Node23</title>
<g id="a_node23"><a xlink:href="class_t_interface.html#a4d75015545313004ffd5022c020f4edf" target="_top" xlink:title=" ">
<polygon fill="white" stroke="black" points="639,-235.5 639,-265.5 767,-265.5 767,-235.5 639,-235.5"/>
<text text-anchor="start" x="647" y="-253.5" font-family="Helvetica,sans-Serif" font-size="10.00">TInterface::SaveOperating</text>
<text text-anchor="middle" x="703" y="-242.5" font-family="Helvetica,sans-Serif" font-size="10.00">ImageMenuItemClick</text>
</a>
</g>
</g>
<!-- Node22&#45;&gt;Node23 -->
<g id="edge32" class="edge">
<title>Node22&#45;&gt;Node23</title>
<path fill="none" stroke="midnightblue" d="M816.33,-250.5C799.98,-250.5 782.98,-250.5 767.29,-250.5"/>
<polygon fill="midnightblue" stroke="midnightblue" points="816.41,-254 826.41,-250.5 816.41,-247 816.41,-254"/>
</g>
<!-- Node25 -->
<g id="node25" class="node">
<title>Node25</title>
<g id="a_node25"><a xlink:href="class_t_interface.html#a14d8976ee13c85f12eab634de845baf1" target="_top" xlink:title=" ">
<polygon fill="white" stroke="black" points="638.5,-137.5 638.5,-167.5 767.5,-167.5 767.5,-137.5 638.5,-137.5"/>
<text text-anchor="start" x="646.5" y="-155.5" font-family="Helvetica,sans-Serif" font-size="10.00">TInterface::SaveImageAnd</text>
<text text-anchor="middle" x="703" y="-144.5" font-family="Helvetica,sans-Serif" font-size="10.00">GridMenuItemClick</text>
</a>
</g>
</g>
<!-- Node24&#45;&gt;Node25 -->
<g id="edge34" class="edge">
<title>Node24&#45;&gt;Node25</title>
<path fill="none" stroke="midnightblue" d="M827.23,-183.95C806.15,-178.57 783.15,-172.7 762.8,-167.51"/>
<polygon fill="midnightblue" stroke="midnightblue" points="826.53,-187.38 837.09,-186.47 828.26,-180.6 826.53,-187.38"/>
</g>
<!-- Node26 -->
<g id="node26" class="node">
<title>Node26</title>
<g id="a_node26"><a xlink:href="class_t_interface.html#ab73377784e302350bcc4f1fed4f8d90a" target="_top" xlink:title=" ">
<polygon fill="white" stroke="black" points="638.5,-88.5 638.5,-118.5 767.5,-118.5 767.5,-88.5 638.5,-88.5"/>
<text text-anchor="start" x="646.5" y="-106.5" font-family="Helvetica,sans-Serif" font-size="10.00">TInterface::SaveImageAnd</text>
<text text-anchor="middle" x="703" y="-95.5" font-family="Helvetica,sans-Serif" font-size="10.00">PrefDirsMenuItemClick</text>
</a>
</g>
</g>
<!-- Node24&#45;&gt;Node26 -->
<g id="edge35" class="edge">
<title>Node24&#45;&gt;Node26</title>
<path fill="none" stroke="midnightblue" d="M819.85,-183.4C816.42,-181.61 813.12,-179.65 810,-177.5 787.77,-162.14 795.67,-144.64 774,-128.5 768.83,-124.65 763,-121.34 756.98,-118.53"/>
<polygon fill="midnightblue" stroke="midnightblue" points="818.63,-186.69 829.17,-187.73 821.58,-180.34 818.63,-186.69"/>
</g>
<!-- Node27 -->
<g id="node27" class="node">
<title>Node27</title>
<g id="a_node27"><a xlink:href="class_t_interface.html#a69b645fe4cc36d0bea7de3fca553bd6a" target="_top" xlink:title=" ">
<polygon fill="white" stroke="black" points="632,-186.5 632,-216.5 774,-216.5 774,-186.5 632,-186.5"/>
<text text-anchor="start" x="640" y="-204.5" font-family="Helvetica,sans-Serif" font-size="10.00">TInterface::SaveImageNoGrid</text>
<text text-anchor="middle" x="703" y="-193.5" font-family="Helvetica,sans-Serif" font-size="10.00">MenuItemClick</text>
</a>
</g>
</g>
<!-- Node24&#45;&gt;Node27 -->
<g id="edge36" class="edge">
<title>Node24&#45;&gt;Node27</title>
<path fill="none" stroke="midnightblue" d="M819.19,-201.5C804.3,-201.5 788.76,-201.5 774.09,-201.5"/>
<polygon fill="midnightblue" stroke="midnightblue" points="819.39,-205 829.39,-201.5 819.39,-198 819.39,-205"/>
</g>
</g>
</svg>
