<?xml version="1.0" encoding="UTF-8" standalone="no"?>
<!DOCTYPE svg PUBLIC "-//W3C//DTD SVG 1.1//EN"
 "http://www.w3.org/Graphics/SVG/1.1/DTD/svg11.dtd">
<!-- Generated by graphviz version 2.44.1 (20200629.0800)
 -->
<!-- Title: TTrack::PlotLoweredLinkedLevelCrossingBarriers Pages: 1 -->
<svg width="609pt" height="290pt"
 viewBox="0.00 0.00 609.00 289.83" xmlns="http://www.w3.org/2000/svg" xmlns:xlink="http://www.w3.org/1999/xlink">
<g id="graph0" class="graph" transform="scale(1 1) rotate(0) translate(4 285.83)">
<title>TTrack::PlotLoweredLinkedLevelCrossingBarriers</title>
<polygon fill="white" stroke="transparent" points="-4,4 -4,-285.83 605,-285.83 605,4 -4,4"/>
<!-- Node1 -->
<g id="node1" class="node">
<title>Node1</title>
<g id="a_node1"><a xlink:title="Plot &amp; open (to trains) all level crossings linked to TrackElement.">
<polygon fill="#bfbfbf" stroke="black" points="0,-131 0,-161 134,-161 134,-131 0,-131"/>
<text text-anchor="start" x="8" y="-149" font-family="Helvetica,sans-Serif" font-size="10.00">TTrack::PlotLoweredLinked</text>
<text text-anchor="middle" x="67" y="-138" font-family="Helvetica,sans-Serif" font-size="10.00">LevelCrossingBarriers</text>
</a>
</g>
</g>
<!-- Node2 -->
<g id="node2" class="node">
<title>Node2</title>
<g id="a_node2"><a xlink:href="class_t_utilities.html#ae1eddca13cc3c492839e131f40ec21c0" target="_top" xlink:title="pops the last entry off the call stack, throws an error if called when empty">
<polygon fill="white" stroke="black" points="491,-202.5 491,-221.5 601,-221.5 601,-202.5 491,-202.5"/>
<text text-anchor="middle" x="546" y="-209.5" font-family="Helvetica,sans-Serif" font-size="10.00">TUtilities::CallLogPop</text>
</a>
</g>
</g>
<!-- Node1&#45;&gt;Node2 -->
<g id="edge1" class="edge">
<title>Node1&#45;&gt;Node2</title>
<path fill="none" stroke="midnightblue" d="M87.41,-161.09C125.63,-189.65 214.46,-250.41 301,-269 367.92,-283.37 389.26,-288.07 455,-269 482.23,-261.1 509.12,-242.23 526.31,-228.35"/>
<polygon fill="midnightblue" stroke="midnightblue" points="528.93,-230.73 534.37,-221.64 524.44,-225.35 528.93,-230.73"/>
</g>
<!-- Node3 -->
<g id="node3" class="node">
<title>Node3</title>
<g id="a_node3"><a xlink:href="class_t_track.html#a73e781d0ada0b77618b886557f79b115" target="_top" xlink:title="True if a level crossing is found at H &amp; V.">
<polygon fill="white" stroke="black" points="170,-136.5 170,-155.5 265,-155.5 265,-136.5 170,-136.5"/>
<text text-anchor="middle" x="217.5" y="-143.5" font-family="Helvetica,sans-Serif" font-size="10.00">TTrack::IsLCAtHV</text>
</a>
</g>
</g>
<!-- Node1&#45;&gt;Node3 -->
<g id="edge2" class="edge">
<title>Node1&#45;&gt;Node3</title>
<path fill="none" stroke="midnightblue" d="M134.43,-146C142.79,-146 151.29,-146 159.49,-146"/>
<polygon fill="midnightblue" stroke="midnightblue" points="159.68,-149.5 169.68,-146 159.68,-142.5 159.68,-149.5"/>
</g>
<!-- Node5 -->
<g id="node5" class="node">
<title>Node5</title>
<g id="a_node5"><a xlink:href="class_t_utilities.html#a34bd6bb5305bc29afdf424f6d35a921c" target="_top" xlink:title="creates a string of the form &#39;hh:mm:ss&#39; for use in call &amp; event logging">
<polygon fill="white" stroke="black" points="491,-114.5 491,-133.5 601,-133.5 601,-114.5 491,-114.5"/>
<text text-anchor="middle" x="546" y="-121.5" font-family="Helvetica,sans-Serif" font-size="10.00">TUtilities::TimeStamp</text>
</a>
</g>
</g>
<!-- Node1&#45;&gt;Node5 -->
<g id="edge14" class="edge">
<title>Node1&#45;&gt;Node5</title>
<path fill="none" stroke="midnightblue" d="M113.12,-130.98C185.45,-108.89 331.77,-72.37 455,-93 475.3,-96.4 497.15,-103.83 514.24,-110.56"/>
<polygon fill="midnightblue" stroke="midnightblue" points="513.12,-113.89 523.7,-114.41 515.76,-107.4 513.12,-113.89"/>
</g>
<!-- Node7 -->
<g id="node7" class="node">
<title>Node7</title>
<g id="a_node7"><a xlink:href="class_t_display.html#a9ab49e52c7eb92b32ae2c34547183439" target="_top" xlink:title="Plot the graphic at screen position HPos &amp; VPos.">
<polygon fill="white" stroke="black" points="324.5,-240.5 324.5,-259.5 431.5,-259.5 431.5,-240.5 324.5,-240.5"/>
<text text-anchor="middle" x="378" y="-247.5" font-family="Helvetica,sans-Serif" font-size="10.00">TDisplay::PlotOutput</text>
</a>
</g>
</g>
<!-- Node1&#45;&gt;Node7 -->
<g id="edge11" class="edge">
<title>Node1&#45;&gt;Node7</title>
<path fill="none" stroke="midnightblue" d="M112.6,-161.01C173.46,-181.49 281.49,-217.85 338.81,-237.15"/>
<polygon fill="midnightblue" stroke="midnightblue" points="337.97,-240.56 348.56,-240.43 340.2,-233.92 337.97,-240.56"/>
</g>
<!-- Node8 -->
<g id="node8" class="node">
<title>Node8</title>
<g id="a_node8"><a xlink:href="class_t_display.html#aa4f37ab2a4df6437a2219f303e1de40b" target="_top" xlink:title="Repaint the screen display.">
<polygon fill="white" stroke="black" points="172,-0.5 172,-19.5 263,-19.5 263,-0.5 172,-0.5"/>
<text text-anchor="middle" x="217.5" y="-7.5" font-family="Helvetica,sans-Serif" font-size="10.00">TDisplay::Update</text>
</a>
</g>
</g>
<!-- Node1&#45;&gt;Node8 -->
<g id="edge15" class="edge">
<title>Node1&#45;&gt;Node8</title>
<path fill="none" stroke="midnightblue" d="M79.12,-130.64C96.49,-107.45 132.02,-63.13 170,-34 174.51,-30.54 179.58,-27.35 184.68,-24.48"/>
<polygon fill="midnightblue" stroke="midnightblue" points="186.54,-27.46 193.77,-19.72 183.29,-21.26 186.54,-27.46"/>
</g>
<!-- Node3&#45;&gt;Node2 -->
<g id="edge3" class="edge">
<title>Node3&#45;&gt;Node2</title>
<path fill="none" stroke="midnightblue" d="M231.11,-155.57C246.62,-166.75 274.21,-184.78 301,-193 360.09,-211.14 430.82,-214.79 480.87,-214.57"/>
<polygon fill="midnightblue" stroke="midnightblue" points="480.95,-218.07 490.92,-214.48 480.88,-211.07 480.95,-218.07"/>
</g>
<!-- Node4 -->
<g id="node4" class="node">
<title>Node4</title>
<g id="a_node4"><a xlink:href="class_t_track.html#a418966e6fefb71b9d0c9b941197832da" target="_top" xlink:title="Similar to GetVectorPositionFromTrackMap but for inactive elements, a pair is returned because there ...">
<polygon fill="white" stroke="black" points="309.5,-153 309.5,-183 446.5,-183 446.5,-153 309.5,-153"/>
<text text-anchor="start" x="317.5" y="-171" font-family="Helvetica,sans-Serif" font-size="10.00">TTrack::GetVectorPositions</text>
<text text-anchor="middle" x="378" y="-160" font-family="Helvetica,sans-Serif" font-size="10.00">FromInactiveTrackMap</text>
</a>
</g>
</g>
<!-- Node3&#45;&gt;Node4 -->
<g id="edge4" class="edge">
<title>Node3&#45;&gt;Node4</title>
<path fill="none" stroke="midnightblue" d="M265.2,-152.48C275.93,-153.97 287.63,-155.6 299.29,-157.21"/>
<polygon fill="midnightblue" stroke="midnightblue" points="299.11,-160.72 309.49,-158.63 300.07,-153.79 299.11,-160.72"/>
</g>
<!-- Node3&#45;&gt;Node5 -->
<g id="edge10" class="edge">
<title>Node3&#45;&gt;Node5</title>
<path fill="none" stroke="midnightblue" d="M232.62,-136.43C248.46,-126.32 275.31,-111.03 301,-105 368.92,-89.05 450.08,-101.38 499.57,-112.27"/>
<polygon fill="midnightblue" stroke="midnightblue" points="498.8,-115.68 509.33,-114.49 500.35,-108.86 498.8,-115.68"/>
</g>
<!-- Node6 -->
<g id="node6" class="node">
<title>Node6</title>
<g id="a_node6"><a xlink:href="class_t_track.html#a51f89cf70e94b037f6378cd78003d82b" target="_top" xlink:title="A range&#45;checked version of InactiveTrackElement.at(At)">
<polygon fill="white" stroke="black" points="301,-114.5 301,-133.5 455,-133.5 455,-114.5 301,-114.5"/>
<text text-anchor="middle" x="378" y="-121.5" font-family="Helvetica,sans-Serif" font-size="10.00">TTrack::InactiveTrackElementAt</text>
</a>
</g>
</g>
<!-- Node3&#45;&gt;Node6 -->
<g id="edge7" class="edge">
<title>Node3&#45;&gt;Node6</title>
<path fill="none" stroke="midnightblue" d="M265.2,-139.52C275.65,-138.07 287.02,-136.49 298.37,-134.91"/>
<polygon fill="midnightblue" stroke="midnightblue" points="298.89,-138.38 308.32,-133.53 297.93,-131.44 298.89,-138.38"/>
</g>
<!-- Node4&#45;&gt;Node2 -->
<g id="edge5" class="edge">
<title>Node4&#45;&gt;Node2</title>
<path fill="none" stroke="midnightblue" d="M435.66,-183.02C456.3,-188.49 479.36,-194.6 498.96,-199.8"/>
<polygon fill="midnightblue" stroke="midnightblue" points="498.3,-203.24 508.86,-202.42 500.09,-196.48 498.3,-203.24"/>
</g>
<!-- Node4&#45;&gt;Node5 -->
<g id="edge6" class="edge">
<title>Node4&#45;&gt;Node5</title>
<path fill="none" stroke="midnightblue" d="M435.66,-152.98C456.3,-147.51 479.36,-141.4 498.96,-136.2"/>
<polygon fill="midnightblue" stroke="midnightblue" points="500.09,-139.52 508.86,-133.58 498.3,-132.76 500.09,-139.52"/>
</g>
<!-- Node6&#45;&gt;Node2 -->
<g id="edge8" class="edge">
<title>Node6&#45;&gt;Node2</title>
<path fill="none" stroke="midnightblue" d="M427.05,-133.61C436.56,-136.34 446.29,-139.77 455,-144 482.7,-157.46 510.33,-180.04 527.53,-195.46"/>
<polygon fill="midnightblue" stroke="midnightblue" points="525.34,-198.21 535.08,-202.39 530.07,-193.05 525.34,-198.21"/>
</g>
<!-- Node6&#45;&gt;Node5 -->
<g id="edge9" class="edge">
<title>Node6&#45;&gt;Node5</title>
<path fill="none" stroke="midnightblue" d="M455.2,-124C463.59,-124 472.07,-124 480.3,-124"/>
<polygon fill="midnightblue" stroke="midnightblue" points="480.57,-127.5 490.57,-124 480.57,-120.5 480.57,-127.5"/>
</g>
<!-- Node7&#45;&gt;Node2 -->
<g id="edge12" class="edge">
<title>Node7&#45;&gt;Node2</title>
<path fill="none" stroke="midnightblue" d="M420.89,-240.41C442.89,-235.37 470.05,-229.16 493.35,-223.82"/>
<polygon fill="midnightblue" stroke="midnightblue" points="494.45,-227.16 503.41,-221.52 492.88,-220.34 494.45,-227.16"/>
</g>
<!-- Node7&#45;&gt;Node5 -->
<g id="edge13" class="edge">
<title>Node7&#45;&gt;Node5</title>
<path fill="none" stroke="midnightblue" d="M391.94,-240.36C407.09,-229.06 432.92,-209.74 455,-193 478.86,-174.9 506.14,-153.95 524.35,-139.93"/>
<polygon fill="midnightblue" stroke="midnightblue" points="526.73,-142.52 532.51,-133.64 522.45,-136.97 526.73,-142.52"/>
</g>
</g>
</svg>
