<?xml version="1.0" encoding="UTF-8" standalone="no"?>
<!DOCTYPE svg PUBLIC "-//W3C//DTD SVG 1.1//EN"
 "http://www.w3.org/Graphics/SVG/1.1/DTD/svg11.dtd">
<!-- Generated by graphviz version 2.44.1 (20200629.0800)
 -->
<!-- Title: TInterface::Delay Pages: 1 -->
<svg width="1013pt" height="2025pt"
 viewBox="0.00 0.00 1013.00 2025.00" xmlns="http://www.w3.org/2000/svg" xmlns:xlink="http://www.w3.org/1999/xlink">
<g id="graph0" class="graph" transform="scale(1 1) rotate(0) translate(4 2021)">
<title>TInterface::Delay</title>
<polygon fill="white" stroke="transparent" points="-4,4 -4,-2021 1009,-2021 1009,4 -4,4"/>
<!-- Node1 -->
<g id="node1" class="node">
<title>Node1</title>
<g id="a_node1"><a xlink:title="Delays operation for the set time in milliseconds.">
<polygon fill="#bfbfbf" stroke="black" points="916,-1028 916,-1047 1005,-1047 1005,-1028 916,-1028"/>
<text text-anchor="middle" x="960.5" y="-1035" font-family="Helvetica,sans-Serif" font-size="10.00">TInterface::Delay</text>
</a>
</g>
</g>
<!-- Node2 -->
<g id="node2" class="node">
<title>Node2</title>
<g id="a_node2"><a xlink:href="class_t_interface.html#a0cf35a6e4a6cfa72b63222acb51f9f74" target="_top" xlink:title=" ">
<polygon fill="white" stroke="black" points="218.5,-1986.5 218.5,-2016.5 342.5,-2016.5 342.5,-1986.5 218.5,-1986.5"/>
<text text-anchor="start" x="226.5" y="-2004.5" font-family="Helvetica,sans-Serif" font-size="10.00">TInterface::EditTimetable</text>
<text text-anchor="middle" x="280.5" y="-1993.5" font-family="Helvetica,sans-Serif" font-size="10.00">MenuItemClick</text>
</a>
</g>
</g>
<!-- Node1&#45;&gt;Node2 -->
<g id="edge1" class="edge">
<title>Node1&#45;&gt;Node2</title>
<path fill="none" stroke="midnightblue" d="M951.02,-1056.38C937.24,-1086.58 908.64,-1147.37 880,-1196.5 669.38,-1557.84 688.64,-1725.29 355,-1977.5 350.5,-1980.9 345.5,-1983.83 340.29,-1986.35"/>
<polygon fill="midnightblue" stroke="midnightblue" points="954.31,-1057.59 955.25,-1047.04 947.94,-1054.71 954.31,-1057.59"/>
</g>
<!-- Node3 -->
<g id="node3" class="node">
<title>Node3</title>
<g id="a_node3"><a xlink:href="class_t_interface.html#abf07d5edc1507de381825f17620748b2" target="_top" xlink:title="Called when mouse button clicked in zoom&#45;in mode.">
<polygon fill="white" stroke="black" points="207.5,-1937.5 207.5,-1967.5 353.5,-1967.5 353.5,-1937.5 207.5,-1937.5"/>
<text text-anchor="start" x="215.5" y="-1955.5" font-family="Helvetica,sans-Serif" font-size="10.00">TInterface::MainScreenMouse</text>
<text text-anchor="middle" x="280.5" y="-1944.5" font-family="Helvetica,sans-Serif" font-size="10.00">Down2</text>
</a>
</g>
</g>
<!-- Node1&#45;&gt;Node3 -->
<g id="edge2" class="edge">
<title>Node1&#45;&gt;Node3</title>
<path fill="none" stroke="midnightblue" d="M941.7,-1054.35C863.35,-1129.59 546.18,-1445.32 391,-1769.5 361.03,-1832.12 399.84,-1868.5 355,-1921.5 349.45,-1928.06 342.28,-1933.25 334.6,-1937.37"/>
<polygon fill="midnightblue" stroke="midnightblue" points="944.48,-1056.54 949.3,-1047.1 939.65,-1051.48 944.48,-1056.54"/>
</g>
<!-- Node5 -->
<g id="node5" class="node">
<title>Node5</title>
<g id="a_node5"><a xlink:href="class_t_interface.html#af4c5cddc6749a720766bf875c423fe79" target="_top" xlink:title="Save a timetable as a temporary file either on loading directly or on loading a session file....">
<polygon fill="white" stroke="black" points="391,-257 391,-276 558,-276 558,-257 391,-257"/>
<text text-anchor="middle" x="474.5" y="-264" font-family="Helvetica,sans-Serif" font-size="10.00">TInterface::SaveTempTimetableFile</text>
</a>
</g>
</g>
<!-- Node1&#45;&gt;Node5 -->
<g id="edge4" class="edge">
<title>Node1&#45;&gt;Node5</title>
<path fill="none" stroke="midnightblue" d="M955.57,-1017.65C934.96,-919.2 829.78,-480.17 558,-281.5 555.18,-279.44 552.16,-277.63 549.01,-276.05"/>
<polygon fill="midnightblue" stroke="midnightblue" points="952.19,-1018.61 957.62,-1027.71 959.05,-1017.21 952.19,-1018.61"/>
</g>
<!-- Node7 -->
<g id="node7" class="node">
<title>Node7</title>
<g id="a_node7"><a xlink:href="class_t_interface.html#af2ff1eef8152e33d0025ec7cd250fc08" target="_top" xlink:title="Called when compiling the error log file, to save the loaded timetable if any and the timetable being...">
<polygon fill="white" stroke="black" points="752,-1022.5 752,-1052.5 880,-1052.5 880,-1022.5 752,-1022.5"/>
<text text-anchor="start" x="760" y="-1040.5" font-family="Helvetica,sans-Serif" font-size="10.00">TInterface::SaveTimetable</text>
<text text-anchor="middle" x="816" y="-1029.5" font-family="Helvetica,sans-Serif" font-size="10.00">ToErrorFile</text>
</a>
</g>
</g>
<!-- Node1&#45;&gt;Node7 -->
<g id="edge6" class="edge">
<title>Node1&#45;&gt;Node7</title>
<path fill="none" stroke="midnightblue" d="M905.93,-1037.5C897.54,-1037.5 888.79,-1037.5 880.2,-1037.5"/>
<polygon fill="midnightblue" stroke="midnightblue" points="905.97,-1041 915.97,-1037.5 905.97,-1034 905.97,-1041"/>
</g>
<!-- Node199 -->
<g id="node49" class="node">
<title>Node199</title>
<g id="a_node49"><a xlink:href="class_t_interface.html#af6cda9d0f26c60eb3810c2523b830c25" target="_top" xlink:title="Called during a session save to save the current timetable in the session file, true if successful.">
<polygon fill="white" stroke="black" points="752,-973.5 752,-1003.5 880,-1003.5 880,-973.5 752,-973.5"/>
<text text-anchor="start" x="760" y="-991.5" font-family="Helvetica,sans-Serif" font-size="10.00">TInterface::SaveTimetable</text>
<text text-anchor="middle" x="816" y="-980.5" font-family="Helvetica,sans-Serif" font-size="10.00">ToSessionFile</text>
</a>
</g>
</g>
<!-- Node1&#45;&gt;Node199 -->
<g id="edge52" class="edge">
<title>Node1&#45;&gt;Node199</title>
<path fill="none" stroke="midnightblue" d="M921.99,-1024.6C903.19,-1018.14 880.32,-1010.27 860.73,-1003.54"/>
<polygon fill="midnightblue" stroke="midnightblue" points="921.09,-1027.99 931.69,-1027.94 923.37,-1021.37 921.09,-1027.99"/>
</g>
<!-- Node4 -->
<g id="node4" class="node">
<title>Node4</title>
<g id="a_node4"><a xlink:href="class_t_interface.html#a7f37862fb9e01e1328d9fd3fd8c50094" target="_top" xlink:title=" ">
<polygon fill="white" stroke="black" points="0,-1921 0,-1940 170,-1940 170,-1921 0,-1921"/>
<text text-anchor="middle" x="85" y="-1928" font-family="Helvetica,sans-Serif" font-size="10.00">TInterface::MainScreenMouseDown</text>
</a>
</g>
</g>
<!-- Node3&#45;&gt;Node4 -->
<g id="edge3" class="edge">
<title>Node3&#45;&gt;Node4</title>
<path fill="none" stroke="midnightblue" d="M197.29,-1943.15C188.21,-1942.12 178.96,-1941.07 169.86,-1940.03"/>
<polygon fill="midnightblue" stroke="midnightblue" points="197.12,-1946.66 207.45,-1944.31 197.91,-1939.7 197.12,-1946.66"/>
</g>
<!-- Node6 -->
<g id="node6" class="node">
<title>Node6</title>
<g id="a_node6"><a xlink:href="class_t_interface.html#a15a2f5ad77e4f6c2b0cc6314224dfb78" target="_top" xlink:title=" ">
<polygon fill="white" stroke="black" points="216.5,-0.5 216.5,-30.5 344.5,-30.5 344.5,-0.5 216.5,-0.5"/>
<text text-anchor="start" x="224.5" y="-18.5" font-family="Helvetica,sans-Serif" font-size="10.00">TInterface::LoadTimetable</text>
<text text-anchor="middle" x="280.5" y="-7.5" font-family="Helvetica,sans-Serif" font-size="10.00">MenuItemClick</text>
</a>
</g>
</g>
<!-- Node5&#45;&gt;Node6 -->
<g id="edge5" class="edge">
<title>Node5&#45;&gt;Node6</title>
<path fill="none" stroke="midnightblue" d="M468.57,-246.81C456.65,-203.25 422.19,-98 355,-40.5 350.49,-36.64 345.37,-33.37 339.96,-30.6"/>
<polygon fill="midnightblue" stroke="midnightblue" points="465.24,-247.94 471.17,-256.71 472.01,-246.15 465.24,-247.94"/>
</g>
<!-- Node8 -->
<g id="node8" class="node">
<title>Node8</title>
<g id="a_node8"><a xlink:href="class_t_interface.html#a0109f801142d4fa3becae22e23b84163" target="_top" xlink:title="Save the error log after an error has been thrown &#45; no need for a caller.">
<polygon fill="white" stroke="black" points="594,-1004 594,-1023 716,-1023 716,-1004 594,-1004"/>
<text text-anchor="middle" x="655" y="-1011" font-family="Helvetica,sans-Serif" font-size="10.00">TInterface::SaveErrorFile</text>
</a>
</g>
</g>
<!-- Node7&#45;&gt;Node8 -->
<g id="edge7" class="edge">
<title>Node7&#45;&gt;Node8</title>
<path fill="none" stroke="midnightblue" d="M741.75,-1026.44C733.21,-1025.15 724.57,-1023.85 716.23,-1022.59"/>
<polygon fill="midnightblue" stroke="midnightblue" points="741.29,-1029.91 751.7,-1027.95 742.34,-1022.99 741.29,-1029.91"/>
</g>
<!-- Node9 -->
<g id="node9" class="node">
<title>Node9</title>
<g id="a_node9"><a xlink:href="class_t_interface.html#a4f3a25665e2266441217849f947a1adf" target="_top" xlink:title="The error logging routine, called when an error is detected.">
<polygon fill="white" stroke="red" points="424,-1004 424,-1023 525,-1023 525,-1004 424,-1004"/>
<text text-anchor="middle" x="474.5" y="-1011" font-family="Helvetica,sans-Serif" font-size="10.00">TInterface::ErrorLog</text>
</a>
</g>
</g>
<!-- Node8&#45;&gt;Node9 -->
<g id="edge8" class="edge">
<title>Node8&#45;&gt;Node9</title>
<path fill="none" stroke="midnightblue" d="M583.5,-1013.5C564,-1013.5 543.24,-1013.5 525.19,-1013.5"/>
<polygon fill="midnightblue" stroke="midnightblue" points="583.57,-1017 593.57,-1013.5 583.57,-1010 583.57,-1017"/>
</g>
<!-- Node9&#45;&gt;Node2 -->
<g id="edge44" class="edge">
<title>Node9&#45;&gt;Node2</title>
<path fill="none" stroke="midnightblue" d="M471.36,-1033.33C456.65,-1169.26 370.67,-1958.47 355,-1977.5 351.5,-1981.75 347.24,-1985.25 342.55,-1988.14"/>
<polygon fill="midnightblue" stroke="midnightblue" points="474.87,-1033.46 472.46,-1023.15 467.91,-1032.71 474.87,-1033.46"/>
</g>
<!-- Node9&#45;&gt;Node3 -->
<g id="edge51" class="edge">
<title>Node9&#45;&gt;Node3</title>
<path fill="none" stroke="midnightblue" d="M469.75,-1032.97C457,-1099.78 414.8,-1326 391,-1514.5 379.6,-1604.8 409.04,-1849.26 355,-1922.5 350.5,-1928.6 344.54,-1933.46 337.96,-1937.34"/>
<polygon fill="midnightblue" stroke="midnightblue" points="473.21,-1033.49 471.66,-1023.01 466.34,-1032.18 473.21,-1033.49"/>
</g>
<!-- Node9&#45;&gt;Node4 -->
<g id="edge50" class="edge">
<title>Node9&#45;&gt;Node4</title>
<path fill="none" stroke="midnightblue" d="M469.81,-1032.98C457.23,-1099.81 415.53,-1326.1 391,-1514.5 380.19,-1597.52 412.53,-1828.68 355,-1889.5 330.25,-1915.67 239.53,-1925.21 170.22,-1928.65"/>
<polygon fill="midnightblue" stroke="midnightblue" points="473.27,-1033.49 471.69,-1023.02 466.39,-1032.19 473.27,-1033.49"/>
</g>
<!-- Node9&#45;&gt;Node6 -->
<g id="edge49" class="edge">
<title>Node9&#45;&gt;Node6</title>
<path fill="none" stroke="midnightblue" d="M471.23,-993.7C455.49,-856.31 362.85,-50.17 355,-40.5 351.86,-36.63 348.09,-33.35 343.94,-30.58"/>
<polygon fill="midnightblue" stroke="midnightblue" points="467.8,-994.44 472.41,-1003.97 474.75,-993.64 467.8,-994.44"/>
</g>
<!-- Node10 -->
<g id="node10" class="node">
<title>Node10</title>
<g id="a_node10"><a xlink:href="class_t_interface.html#a7ccec66d1d0a81f124397af39f43da32" target="_top" xlink:title=" ">
<polygon fill="white" stroke="black" points="214,-1331.5 214,-1361.5 347,-1361.5 347,-1331.5 214,-1331.5"/>
<text text-anchor="start" x="222" y="-1349.5" font-family="Helvetica,sans-Serif" font-size="10.00">TInterface::AboutMenuItem</text>
<text text-anchor="middle" x="280.5" y="-1338.5" font-family="Helvetica,sans-Serif" font-size="10.00">Click</text>
</a>
</g>
</g>
<!-- Node9&#45;&gt;Node10 -->
<g id="edge9" class="edge">
<title>Node9&#45;&gt;Node10</title>
<path fill="none" stroke="midnightblue" d="M471.6,-1033.4C465.39,-1087.56 440.81,-1239.01 355,-1321.5 351.02,-1325.33 346.42,-1328.57 341.52,-1331.32"/>
<polygon fill="midnightblue" stroke="midnightblue" points="475.12,-1033.43 472.69,-1023.12 468.16,-1032.7 475.12,-1033.43"/>
</g>
<!-- Node11 -->
<g id="node11" class="node">
<title>Node11</title>
<g id="a_node11"><a xlink:href="class_t_interface.html#adfe259347a82aae9fc9538bba9c51cb8" target="_top" xlink:title=" ">
<polygon fill="white" stroke="black" points="213.5,-1293 213.5,-1312 347.5,-1312 347.5,-1293 213.5,-1293"/>
<text text-anchor="middle" x="280.5" y="-1300" font-family="Helvetica,sans-Serif" font-size="10.00">TInterface::AcceptDragging</text>
</a>
</g>
</g>
<!-- Node9&#45;&gt;Node11 -->
<g id="edge10" class="edge">
<title>Node9&#45;&gt;Node11</title>
<path fill="none" stroke="midnightblue" d="M470.78,-1033.26C462.84,-1083.23 434.93,-1215.48 355,-1283.5 350.48,-1287.34 345.28,-1290.42 339.78,-1292.89"/>
<polygon fill="midnightblue" stroke="midnightblue" points="474.28,-1033.56 472.29,-1023.15 467.35,-1032.52 474.28,-1033.56"/>
</g>
<!-- Node12 -->
<g id="node12" class="node">
<title>Node12</title>
<g id="a_node12"><a xlink:href="class_t_interface.html#a30904d608111ce6452a9861d86b64267" target="_top" xlink:title=" ">
<polygon fill="white" stroke="black" points="215,-1243.5 215,-1273.5 346,-1273.5 346,-1243.5 215,-1243.5"/>
<text text-anchor="start" x="223" y="-1261.5" font-family="Helvetica,sans-Serif" font-size="10.00">TInterface::AddMinsButton</text>
<text text-anchor="middle" x="280.5" y="-1250.5" font-family="Helvetica,sans-Serif" font-size="10.00">Click</text>
</a>
</g>
</g>
<!-- Node9&#45;&gt;Node12 -->
<g id="edge11" class="edge">
<title>Node9&#45;&gt;Node12</title>
<path fill="none" stroke="midnightblue" d="M468.48,-1032.82C456.4,-1075.55 421.63,-1178.7 355,-1234.5 350.88,-1237.95 346.26,-1240.9 341.39,-1243.44"/>
<polygon fill="midnightblue" stroke="midnightblue" points="471.88,-1033.67 471.13,-1023.1 465.13,-1031.83 471.88,-1033.67"/>
</g>
<!-- Node13 -->
<g id="node13" class="node">
<title>Node13</title>
<g id="a_node13"><a xlink:href="class_t_interface.html#a1b1a4260e251c9bd5f48fd6c3432e7a5" target="_top" xlink:title=" ">
<polygon fill="white" stroke="black" points="210.5,-1194.5 210.5,-1224.5 350.5,-1224.5 350.5,-1194.5 210.5,-1194.5"/>
<text text-anchor="start" x="218.5" y="-1212.5" font-family="Helvetica,sans-Serif" font-size="10.00">TInterface::AddPrefDirButton</text>
<text text-anchor="middle" x="280.5" y="-1201.5" font-family="Helvetica,sans-Serif" font-size="10.00">Click</text>
</a>
</g>
</g>
<!-- Node9&#45;&gt;Node13 -->
<g id="edge12" class="edge">
<title>Node9&#45;&gt;Node13</title>
<path fill="none" stroke="midnightblue" d="M465.45,-1032.54C449.56,-1067.88 410.79,-1143.82 355,-1185.5 350.38,-1188.95 345.23,-1191.93 339.87,-1194.48"/>
<polygon fill="midnightblue" stroke="midnightblue" points="468.68,-1033.9 469.48,-1023.33 462.27,-1031.09 468.68,-1033.9"/>
</g>
<!-- Node14 -->
<g id="node14" class="node">
<title>Node14</title>
<g id="a_node14"><a xlink:href="class_t_interface.html#a0abab134f4994b02507e1e2d3f31cd77" target="_top" xlink:title=" ">
<polygon fill="white" stroke="black" points="212,-1145.5 212,-1175.5 349,-1175.5 349,-1145.5 212,-1145.5"/>
<text text-anchor="start" x="220" y="-1163.5" font-family="Helvetica,sans-Serif" font-size="10.00">TInterface::AddSubMinsBox</text>
<text text-anchor="middle" x="280.5" y="-1152.5" font-family="Helvetica,sans-Serif" font-size="10.00">KeyUp</text>
</a>
</g>
</g>
<!-- Node9&#45;&gt;Node14 -->
<g id="edge13" class="edge">
<title>Node9&#45;&gt;Node14</title>
<path fill="none" stroke="midnightblue" d="M460.85,-1031.39C441.15,-1057.99 400.63,-1107.91 355,-1136.5 349.54,-1139.92 343.54,-1142.9 337.4,-1145.49"/>
<polygon fill="midnightblue" stroke="midnightblue" points="463.88,-1033.17 466.92,-1023.02 458.22,-1029.06 463.88,-1033.17"/>
</g>
<!-- Node15 -->
<g id="node15" class="node">
<title>Node15</title>
<g id="a_node15"><a xlink:href="class_t_interface.html#aa20c05bf2d6c23035a10a89796334d0f" target="_top" xlink:title=" ">
<polygon fill="white" stroke="black" points="216,-1096.5 216,-1126.5 345,-1126.5 345,-1096.5 216,-1096.5"/>
<text text-anchor="start" x="224" y="-1114.5" font-family="Helvetica,sans-Serif" font-size="10.00">TInterface::AddTextButton</text>
<text text-anchor="middle" x="280.5" y="-1103.5" font-family="Helvetica,sans-Serif" font-size="10.00">Click</text>
</a>
</g>
</g>
<!-- Node9&#45;&gt;Node15 -->
<g id="edge14" class="edge">
<title>Node9&#45;&gt;Node15</title>
<path fill="none" stroke="midnightblue" d="M452.26,-1028.98C429.22,-1045.24 390.89,-1070.74 355,-1087.5 348.07,-1090.74 340.58,-1093.72 333.12,-1096.41"/>
<polygon fill="midnightblue" stroke="midnightblue" points="454.49,-1031.7 460.59,-1023.04 450.42,-1026 454.49,-1031.7"/>
</g>
<!-- Node16 -->
<g id="node16" class="node">
<title>Node16</title>
<g id="a_node16"><a xlink:href="class_t_interface.html#a10494e62a7bb4e7114ab4d98e18499f1" target="_top" xlink:title=" ">
<polygon fill="white" stroke="black" points="213.5,-1047.5 213.5,-1077.5 347.5,-1077.5 347.5,-1047.5 213.5,-1047.5"/>
<text text-anchor="start" x="221.5" y="-1065.5" font-family="Helvetica,sans-Serif" font-size="10.00">TInterface::AddTrackButton</text>
<text text-anchor="middle" x="280.5" y="-1054.5" font-family="Helvetica,sans-Serif" font-size="10.00">Click</text>
</a>
</g>
</g>
<!-- Node9&#45;&gt;Node16 -->
<g id="edge15" class="edge">
<title>Node9&#45;&gt;Node16</title>
<path fill="none" stroke="midnightblue" d="M426.08,-1025.6C400.2,-1032.21 367.91,-1040.45 340.42,-1047.46"/>
<polygon fill="midnightblue" stroke="midnightblue" points="427.2,-1028.93 436.02,-1023.06 425.47,-1022.15 427.2,-1028.93"/>
</g>
<!-- Node17 -->
<g id="node17" class="node">
<title>Node17</title>
<g id="a_node17"><a xlink:href="class_t_interface.html#a189a4b05f27d6b5ec8b9a90ec1a9cc50" target="_top" xlink:title=" ">
<polygon fill="white" stroke="black" points="214,-998.5 214,-1028.5 347,-1028.5 347,-998.5 214,-998.5"/>
<text text-anchor="start" x="222" y="-1016.5" font-family="Helvetica,sans-Serif" font-size="10.00">TInterface::AllEntriesTTList</text>
<text text-anchor="middle" x="280.5" y="-1005.5" font-family="Helvetica,sans-Serif" font-size="10.00">BoxMouseUp</text>
</a>
</g>
</g>
<!-- Node9&#45;&gt;Node17 -->
<g id="edge16" class="edge">
<title>Node9&#45;&gt;Node17</title>
<path fill="none" stroke="midnightblue" d="M413.45,-1013.5C392.38,-1013.5 368.61,-1013.5 347.11,-1013.5"/>
<polygon fill="midnightblue" stroke="midnightblue" points="413.56,-1017 423.56,-1013.5 413.56,-1010 413.56,-1017"/>
</g>
<!-- Node18 -->
<g id="node18" class="node">
<title>Node18</title>
<g id="a_node18"><a xlink:href="class_t_interface.html#af99ae89b6c7a2d37bf49cf0b5fcc3f1f" target="_top" xlink:title=" ">
<polygon fill="white" stroke="red" points="222.5,-960 222.5,-979 338.5,-979 338.5,-960 222.5,-960"/>
<text text-anchor="middle" x="280.5" y="-967" font-family="Helvetica,sans-Serif" font-size="10.00">TInterface::AppActivate</text>
</a>
</g>
</g>
<!-- Node9&#45;&gt;Node18 -->
<g id="edge17" class="edge">
<title>Node9&#45;&gt;Node18</title>
<path fill="none" stroke="midnightblue" d="M422.08,-1001.72C391.08,-994.61 352.12,-985.68 323.08,-979.03"/>
<polygon fill="midnightblue" stroke="midnightblue" points="421.31,-1005.13 431.84,-1003.95 422.87,-998.31 421.31,-1005.13"/>
</g>
<!-- Node20 -->
<g id="node19" class="node">
<title>Node20</title>
<g id="a_node19"><a xlink:href="class_t_interface.html#a75f68c918750c0e007ea7a85d718e2ab" target="_top" xlink:title=" ">
<polygon fill="white" stroke="red" points="217,-922 217,-941 344,-941 344,-922 217,-922"/>
<text text-anchor="middle" x="280.5" y="-929" font-family="Helvetica,sans-Serif" font-size="10.00">TInterface::AppDeactivate</text>
</a>
</g>
</g>
<!-- Node9&#45;&gt;Node20 -->
<g id="edge18" class="edge">
<title>Node9&#45;&gt;Node20</title>
<path fill="none" stroke="midnightblue" d="M449.48,-998.56C426.09,-984.53 389.16,-963.78 355,-950.5 345.66,-946.87 335.39,-943.72 325.57,-941.09"/>
<polygon fill="midnightblue" stroke="midnightblue" points="447.97,-1001.73 458.34,-1003.93 451.61,-995.75 447.97,-1001.73"/>
</g>
<!-- Node21 -->
<g id="node20" class="node">
<title>Node21</title>
<g id="a_node20"><a xlink:href="class_t_interface.html#a36ad38f4b485bba874129aeb3a20d926" target="_top" xlink:title=" ">
<polygon fill="white" stroke="black" points="214,-872.5 214,-902.5 347,-902.5 347,-872.5 214,-872.5"/>
<text text-anchor="start" x="222" y="-890.5" font-family="Helvetica,sans-Serif" font-size="10.00">TInterface::AutoSigsButton</text>
<text text-anchor="middle" x="280.5" y="-879.5" font-family="Helvetica,sans-Serif" font-size="10.00">Click</text>
</a>
</g>
</g>
<!-- Node9&#45;&gt;Node21 -->
<g id="edge19" class="edge">
<title>Node9&#45;&gt;Node21</title>
<path fill="none" stroke="midnightblue" d="M457.61,-996.42C436.2,-974.3 396.02,-935.82 355,-912.5 348.44,-908.77 341.23,-905.48 333.97,-902.61"/>
<polygon fill="midnightblue" stroke="midnightblue" points="455.18,-998.95 464.61,-1003.77 460.25,-994.12 455.18,-998.95"/>
</g>
<!-- Node22 -->
<g id="node21" class="node">
<title>Node22</title>
<g id="a_node21"><a xlink:href="class_t_interface.html#a28579472104533fb5fd01066a22fbb5b" target="_top" xlink:title=" ">
<polygon fill="white" stroke="black" points="216,-823.5 216,-853.5 345,-853.5 345,-823.5 216,-823.5"/>
<text text-anchor="start" x="224" y="-841.5" font-family="Helvetica,sans-Serif" font-size="10.00">TInterface::AZOrderButton</text>
<text text-anchor="middle" x="280.5" y="-830.5" font-family="Helvetica,sans-Serif" font-size="10.00">Click</text>
</a>
</g>
</g>
<!-- Node9&#45;&gt;Node22 -->
<g id="edge20" class="edge">
<title>Node9&#45;&gt;Node22</title>
<path fill="none" stroke="midnightblue" d="M463.64,-994.64C446.05,-962.8 406.25,-898.36 355,-862.5 350.16,-859.11 344.81,-856.18 339.28,-853.65"/>
<polygon fill="midnightblue" stroke="midnightblue" points="460.73,-996.62 468.55,-1003.76 466.89,-993.29 460.73,-996.62"/>
</g>
<!-- Node23 -->
<g id="node22" class="node">
<title>Node23</title>
<g id="a_node22"><a xlink:href="class_t_interface.html#a237c151513ca8adca6cd1006cc2fc66f" target="_top" xlink:title=" ">
<polygon fill="white" stroke="black" points="212.5,-774.5 212.5,-804.5 348.5,-804.5 348.5,-774.5 212.5,-774.5"/>
<text text-anchor="start" x="220.5" y="-792.5" font-family="Helvetica,sans-Serif" font-size="10.00">TInterface::BlackBgndMenu</text>
<text text-anchor="middle" x="280.5" y="-781.5" font-family="Helvetica,sans-Serif" font-size="10.00">ItemClick</text>
</a>
</g>
</g>
<!-- Node9&#45;&gt;Node23 -->
<g id="edge21" class="edge">
<title>Node9&#45;&gt;Node23</title>
<path fill="none" stroke="midnightblue" d="M467.39,-994.42C453.75,-954.81 417.02,-863.22 355,-813.5 350.71,-810.06 345.9,-807.1 340.86,-804.57"/>
<polygon fill="midnightblue" stroke="midnightblue" points="464.08,-995.55 470.56,-1003.93 470.72,-993.34 464.08,-995.55"/>
</g>
<!-- Node24 -->
<g id="node23" class="node">
<title>Node24</title>
<g id="a_node23"><a xlink:href="class_t_interface.html#a24d79aa4745e495daa07bb5ce412e75f" target="_top" xlink:title=" ">
<polygon fill="white" stroke="black" points="215,-725.5 215,-755.5 346,-755.5 346,-725.5 215,-725.5"/>
<text text-anchor="start" x="223" y="-743.5" font-family="Helvetica,sans-Serif" font-size="10.00">TInterface::BlueBgndMenu</text>
<text text-anchor="middle" x="280.5" y="-732.5" font-family="Helvetica,sans-Serif" font-size="10.00">ItemClick</text>
</a>
</g>
</g>
<!-- Node9&#45;&gt;Node24 -->
<g id="edge22" class="edge">
<title>Node9&#45;&gt;Node24</title>
<path fill="none" stroke="midnightblue" d="M469.72,-994C459.67,-947.38 427.91,-828.59 355,-764.5 351.07,-761.04 346.63,-758.08 341.93,-755.55"/>
<polygon fill="midnightblue" stroke="midnightblue" points="466.33,-994.9 471.77,-1003.99 473.19,-993.49 466.33,-994.9"/>
</g>
<!-- Node25 -->
<g id="node24" class="node">
<title>Node25</title>
<g id="a_node24"><a xlink:href="class_t_interface.html#ab1799665ee1e4212186f80ab49acf1e1" target="_top" xlink:title=" ">
<polygon fill="white" stroke="black" points="213.5,-676.5 213.5,-706.5 347.5,-706.5 347.5,-676.5 213.5,-676.5"/>
<text text-anchor="start" x="221.5" y="-694.5" font-family="Helvetica,sans-Serif" font-size="10.00">TInterface::BuildTrackMenu</text>
<text text-anchor="middle" x="280.5" y="-683.5" font-family="Helvetica,sans-Serif" font-size="10.00">ItemClick</text>
</a>
</g>
</g>
<!-- Node9&#45;&gt;Node25 -->
<g id="edge23" class="edge">
<title>Node9&#45;&gt;Node25</title>
<path fill="none" stroke="midnightblue" d="M471.4,-993.82C464.71,-940.95 439.13,-794.5 355,-715.5 351.38,-712.1 347.27,-709.18 342.89,-706.68"/>
<polygon fill="midnightblue" stroke="midnightblue" points="467.94,-994.36 472.58,-1003.88 474.89,-993.54 467.94,-994.36"/>
</g>
<!-- Node26 -->
<g id="node25" class="node">
<title>Node26</title>
<g id="a_node25"><a xlink:href="class_t_interface.html#ae758bf4183bb5aa2a7cd83e06acd89b6" target="_top" xlink:title=" ">
<polygon fill="white" stroke="black" points="213,-627.5 213,-657.5 348,-657.5 348,-627.5 213,-627.5"/>
<text text-anchor="start" x="221" y="-645.5" font-family="Helvetica,sans-Serif" font-size="10.00">TInterface::CallingOnButton</text>
<text text-anchor="middle" x="280.5" y="-634.5" font-family="Helvetica,sans-Serif" font-size="10.00">Click</text>
</a>
</g>
</g>
<!-- Node9&#45;&gt;Node26 -->
<g id="edge24" class="edge">
<title>Node9&#45;&gt;Node26</title>
<path fill="none" stroke="midnightblue" d="M472.66,-993.8C469.11,-935.29 450.59,-760.81 355,-666.5 351.56,-663.11 347.63,-660.19 343.43,-657.69"/>
<polygon fill="midnightblue" stroke="midnightblue" points="469.17,-994.09 473.19,-1003.89 476.16,-993.72 469.17,-994.09"/>
</g>
<!-- Node27 -->
<g id="node26" class="node">
<title>Node27</title>
<g id="a_node26"><a xlink:href="class_t_interface.html#a2fb2cd7dbddb7fa689ea994e9ffc10ff" target="_top" xlink:title=" ">
<polygon fill="white" stroke="black" points="213,-578.5 213,-608.5 348,-608.5 348,-578.5 213,-578.5"/>
<text text-anchor="start" x="221" y="-596.5" font-family="Helvetica,sans-Serif" font-size="10.00">TInterface::CancelSelection</text>
<text text-anchor="middle" x="280.5" y="-585.5" font-family="Helvetica,sans-Serif" font-size="10.00">MenuItemClick</text>
</a>
</g>
</g>
<!-- Node9&#45;&gt;Node27 -->
<g id="edge25" class="edge">
<title>Node9&#45;&gt;Node27</title>
<path fill="none" stroke="midnightblue" d="M473.63,-993.63C472.96,-929.72 462.08,-727.28 355,-617.5 351.63,-614.04 347.75,-611.08 343.57,-608.55"/>
<polygon fill="midnightblue" stroke="midnightblue" points="470.13,-993.9 473.66,-1003.9 477.13,-993.89 470.13,-993.9"/>
</g>
<!-- Node28 -->
<g id="node27" class="node">
<title>Node28</title>
<g id="a_node27"><a xlink:href="class_t_interface.html#a6fb1db3295ef42cb1b6f20bc142fa502" target="_top" xlink:title=" ">
<polygon fill="white" stroke="black" points="216.5,-529.5 216.5,-559.5 344.5,-559.5 344.5,-529.5 216.5,-529.5"/>
<text text-anchor="start" x="224.5" y="-547.5" font-family="Helvetica,sans-Serif" font-size="10.00">TInterface::CancelTTEntry</text>
<text text-anchor="middle" x="280.5" y="-536.5" font-family="Helvetica,sans-Serif" font-size="10.00">ButtonClick</text>
</a>
</g>
</g>
<!-- Node9&#45;&gt;Node28 -->
<g id="edge26" class="edge">
<title>Node9&#45;&gt;Node28</title>
<path fill="none" stroke="midnightblue" d="M470.74,-993.57C459.59,-915.62 415.49,-632.44 355,-568.5 351.77,-565.09 348.05,-562.16 344.03,-559.65"/>
<polygon fill="midnightblue" stroke="midnightblue" points="467.34,-994.49 472.2,-1003.9 474.27,-993.51 467.34,-994.49"/>
</g>
<!-- Node29 -->
<g id="node28" class="node">
<title>Node29</title>
<g id="a_node28"><a xlink:href="class_t_interface.html#aaaf32c3c815553f7ba70698e0f0071bb" target="_top" xlink:title=" ">
<polygon fill="white" stroke="black" points="212.5,-480.5 212.5,-510.5 348.5,-510.5 348.5,-480.5 212.5,-480.5"/>
<text text-anchor="start" x="220.5" y="-498.5" font-family="Helvetica,sans-Serif" font-size="10.00">TInterface::ChangeDirection</text>
<text text-anchor="middle" x="280.5" y="-487.5" font-family="Helvetica,sans-Serif" font-size="10.00">MenuItemClick</text>
</a>
</g>
</g>
<!-- Node9&#45;&gt;Node29 -->
<g id="edge27" class="edge">
<title>Node9&#45;&gt;Node29</title>
<path fill="none" stroke="midnightblue" d="M471.31,-993.54C461.77,-910.26 421.41,-591.46 355,-519.5 351.81,-516.05 348.12,-513.09 344.13,-510.56"/>
<polygon fill="midnightblue" stroke="midnightblue" points="467.85,-994.13 472.45,-1003.68 474.81,-993.35 467.85,-994.13"/>
</g>
<!-- Node30 -->
<g id="node29" class="node">
<title>Node30</title>
<g id="a_node29"><a xlink:href="class_t_interface.html#a928eba983ac5132e1ae7799f8330451e" target="_top" xlink:title=" ">
<polygon fill="white" stroke="black" points="219.5,-431.5 219.5,-461.5 341.5,-461.5 341.5,-431.5 219.5,-431.5"/>
<text text-anchor="start" x="227.5" y="-449.5" font-family="Helvetica,sans-Serif" font-size="10.00">TInterface::ClearAllMenu</text>
<text text-anchor="middle" x="280.5" y="-438.5" font-family="Helvetica,sans-Serif" font-size="10.00">ItemClick</text>
</a>
</g>
</g>
<!-- Node9&#45;&gt;Node30 -->
<g id="edge28" class="edge">
<title>Node9&#45;&gt;Node30</title>
<path fill="none" stroke="midnightblue" d="M470.43,-994.04C455.69,-901.75 391.49,-510.87 355,-470.5 351.22,-466.32 346.7,-462.86 341.79,-460.01"/>
<polygon fill="midnightblue" stroke="midnightblue" points="466.98,-994.66 472.01,-1003.99 473.89,-993.56 466.98,-994.66"/>
</g>
<!-- Node31 -->
<g id="node30" class="node">
<title>Node31</title>
<g id="a_node30"><a xlink:href="class_t_interface.html#a6139ffb52492eb89e5487a8a3cd647b5" target="_top" xlink:title="The main loop, called every clock tick via MasterClockTimer.">
<polygon fill="white" stroke="red" points="221,-50 221,-69 340,-69 340,-50 221,-50"/>
<text text-anchor="middle" x="280.5" y="-57" font-family="Helvetica,sans-Serif" font-size="10.00">TInterface::ClockTimer2</text>
</a>
</g>
</g>
<!-- Node9&#45;&gt;Node31 -->
<g id="edge29" class="edge">
<title>Node9&#45;&gt;Node31</title>
<path fill="none" stroke="midnightblue" d="M469.29,-993.73C455.77,-929.55 413.07,-721.03 391,-546.5 384.46,-494.76 388.49,-118.48 355,-78.5 350.94,-73.65 345.81,-69.95 340.17,-67.14"/>
<polygon fill="midnightblue" stroke="midnightblue" points="465.9,-994.64 471.4,-1003.7 472.75,-993.19 465.9,-994.64"/>
</g>
<!-- Node33 -->
<g id="node31" class="node">
<title>Node33</title>
<g id="a_node31"><a xlink:href="class_t_interface.html#a77b4d0c5298ea6b8968af152fd8b7b8b" target="_top" xlink:title=" ">
<polygon fill="white" stroke="black" points="213.5,-382.5 213.5,-412.5 347.5,-412.5 347.5,-382.5 213.5,-382.5"/>
<text text-anchor="start" x="221.5" y="-400.5" font-family="Helvetica,sans-Serif" font-size="10.00">TInterface::ConflictAnalysis</text>
<text text-anchor="middle" x="280.5" y="-389.5" font-family="Helvetica,sans-Serif" font-size="10.00">ButtonClick</text>
</a>
</g>
</g>
<!-- Node9&#45;&gt;Node33 -->
<g id="edge30" class="edge">
<title>Node9&#45;&gt;Node33</title>
<path fill="none" stroke="midnightblue" d="M470.1,-993.61C452.81,-892.97 374.77,-443.76 355,-421.5 351.97,-418.09 348.45,-415.16 344.62,-412.64"/>
<polygon fill="midnightblue" stroke="midnightblue" points="466.68,-994.38 471.82,-1003.65 473.58,-993.2 466.68,-994.38"/>
</g>
<!-- Node34 -->
<g id="node32" class="node">
<title>Node34</title>
<g id="a_node32"><a xlink:href="class_t_interface.html#a7aca81081a7983f1389c923e95c7afee" target="_top" xlink:title=" ">
<polygon fill="white" stroke="black" points="212.5,-333.5 212.5,-363.5 348.5,-363.5 348.5,-333.5 212.5,-333.5"/>
<text text-anchor="start" x="220.5" y="-351.5" font-family="Helvetica,sans-Serif" font-size="10.00">TInterface::ConvertToOther</text>
<text text-anchor="middle" x="280.5" y="-340.5" font-family="Helvetica,sans-Serif" font-size="10.00">HandSignalsMenuItemClick</text>
</a>
</g>
</g>
<!-- Node9&#45;&gt;Node34 -->
<g id="edge31" class="edge">
<title>Node9&#45;&gt;Node34</title>
<path fill="none" stroke="midnightblue" d="M469.98,-993.69C450.88,-886.3 360.33,-378.59 355,-372.5 351.99,-369.07 348.49,-366.12 344.67,-363.59"/>
<polygon fill="midnightblue" stroke="midnightblue" points="466.58,-994.56 471.78,-1003.79 473.47,-993.33 466.58,-994.56"/>
</g>
<!-- Node35 -->
<g id="node33" class="node">
<title>Node35</title>
<g id="a_node33"><a xlink:href="class_t_interface.html#a424a7eb780461c1acb396feb21f52062" target="_top" xlink:title=" ">
<polygon fill="white" stroke="black" points="215.5,-284.5 215.5,-314.5 345.5,-314.5 345.5,-284.5 215.5,-284.5"/>
<text text-anchor="start" x="223.5" y="-302.5" font-family="Helvetica,sans-Serif" font-size="10.00">TInterface::CopyMenuItem</text>
<text text-anchor="middle" x="280.5" y="-291.5" font-family="Helvetica,sans-Serif" font-size="10.00">Click</text>
</a>
</g>
</g>
<!-- Node9&#45;&gt;Node35 -->
<g id="edge32" class="edge">
<title>Node9&#45;&gt;Node35</title>
<path fill="none" stroke="midnightblue" d="M469.96,-994.07C458.34,-930.12 420.39,-720.34 391,-546.5 382.63,-497.01 387.63,-361.65 355,-323.5 352.03,-320.03 348.56,-317.06 344.76,-314.52"/>
<polygon fill="midnightblue" stroke="midnightblue" points="466.53,-994.76 471.76,-1003.97 473.42,-993.51 466.53,-994.76"/>
</g>
<!-- Node36 -->
<g id="node34" class="node">
<title>Node36</title>
<g id="a_node34"><a xlink:href="class_t_interface.html#adc0dd871fdd70ff11ada7a0ddd549e8e" target="_top" xlink:title=" ">
<polygon fill="white" stroke="black" points="206,-235.5 206,-265.5 355,-265.5 355,-235.5 206,-235.5"/>
<text text-anchor="start" x="214" y="-253.5" font-family="Helvetica,sans-Serif" font-size="10.00">TInterface::CopyTTEntryButton</text>
<text text-anchor="middle" x="280.5" y="-242.5" font-family="Helvetica,sans-Serif" font-size="10.00">Click</text>
</a>
</g>
</g>
<!-- Node9&#45;&gt;Node36 -->
<g id="edge33" class="edge">
<title>Node9&#45;&gt;Node36</title>
<path fill="none" stroke="midnightblue" d="M469.76,-994.1C457.53,-930.25 417.91,-720.74 391,-546.5 381.69,-486.24 393.97,-321.39 355,-274.5 352.17,-271.09 348.85,-268.17 345.21,-265.65"/>
<polygon fill="midnightblue" stroke="midnightblue" points="466.34,-994.83 471.66,-1003.99 473.21,-993.51 466.34,-994.83"/>
</g>
<!-- Node37 -->
<g id="node35" class="node">
<title>Node37</title>
<g id="a_node35"><a xlink:href="class_t_interface.html#a117ba58c37a617edeeb033fcdff841e9" target="_top" xlink:title=" ">
<polygon fill="white" stroke="black" points="212,-186.5 212,-216.5 349,-216.5 349,-186.5 212,-186.5"/>
<text text-anchor="start" x="220" y="-204.5" font-family="Helvetica,sans-Serif" font-size="10.00">TInterface::CPCancelButton</text>
<text text-anchor="middle" x="280.5" y="-193.5" font-family="Helvetica,sans-Serif" font-size="10.00">Click</text>
</a>
</g>
</g>
<!-- Node9&#45;&gt;Node37 -->
<g id="edge34" class="edge">
<title>Node9&#45;&gt;Node37</title>
<path fill="none" stroke="midnightblue" d="M469.54,-993.7C456.78,-929.41 416.12,-720.62 391,-546.5 380.75,-475.45 400.33,-281.16 355,-225.5 352.2,-222.07 348.91,-219.12 345.28,-216.59"/>
<polygon fill="midnightblue" stroke="midnightblue" points="466.14,-994.55 471.53,-1003.68 473.01,-993.19 466.14,-994.55"/>
</g>
<!-- Node38 -->
<g id="node36" class="node">
<title>Node38</title>
<g id="a_node36"><a xlink:href="class_t_interface.html#a6379037c7970acda71188947cb3ba6b2" target="_top" xlink:title=" ">
<polygon fill="white" stroke="black" points="210.5,-137.5 210.5,-167.5 350.5,-167.5 350.5,-137.5 210.5,-137.5"/>
<text text-anchor="start" x="218.5" y="-155.5" font-family="Helvetica,sans-Serif" font-size="10.00">TInterface::CPGenFileButton</text>
<text text-anchor="middle" x="280.5" y="-144.5" font-family="Helvetica,sans-Serif" font-size="10.00">Click</text>
</a>
</g>
</g>
<!-- Node9&#45;&gt;Node38 -->
<g id="edge35" class="edge">
<title>Node9&#45;&gt;Node38</title>
<path fill="none" stroke="midnightblue" d="M469.43,-993.71C456.36,-929.47 414.84,-720.8 391,-546.5 379.81,-464.65 406.69,-240.94 355,-176.5 352.23,-173.04 348.95,-170.08 345.34,-167.54"/>
<polygon fill="midnightblue" stroke="midnightblue" points="466.04,-994.59 471.47,-1003.69 472.9,-993.19 466.04,-994.59"/>
</g>
<!-- Node39 -->
<g id="node37" class="node">
<title>Node39</title>
<g id="a_node37"><a xlink:href="class_t_interface.html#a1c8fab7fa2f1be662f2d7418e95e3a63" target="_top" xlink:title=" ">
<polygon fill="white" stroke="black" points="213,-88.5 213,-118.5 348,-118.5 348,-88.5 213,-88.5"/>
<text text-anchor="start" x="221" y="-106.5" font-family="Helvetica,sans-Serif" font-size="10.00">TInterface::CreateTimetable</text>
<text text-anchor="middle" x="280.5" y="-95.5" font-family="Helvetica,sans-Serif" font-size="10.00">MenuItemClick</text>
</a>
</g>
</g>
<!-- Node9&#45;&gt;Node39 -->
<g id="edge36" class="edge">
<title>Node9&#45;&gt;Node39</title>
<path fill="none" stroke="midnightblue" d="M469.35,-993.73C456.03,-929.52 413.85,-720.93 391,-546.5 378.86,-453.84 413.07,-200.73 355,-127.5 352.25,-124.03 348.98,-121.05 345.39,-118.51"/>
<polygon fill="midnightblue" stroke="midnightblue" points="465.96,-994.62 471.43,-1003.69 472.82,-993.19 465.96,-994.62"/>
</g>
<!-- Node40 -->
<g id="node38" class="node">
<title>Node40</title>
<g id="a_node38"><a xlink:href="class_t_interface.html#ae6e977c9dfdfbde9924ceefd19d7d0d3" target="_top" xlink:title=" ">
<polygon fill="white" stroke="black" points="208.5,-1861 208.5,-1880 352.5,-1880 352.5,-1861 208.5,-1861"/>
<text text-anchor="middle" x="280.5" y="-1868" font-family="Helvetica,sans-Serif" font-size="10.00">TInterface::CutMenuItemClick</text>
</a>
</g>
</g>
<!-- Node9&#45;&gt;Node40 -->
<g id="edge37" class="edge">
<title>Node9&#45;&gt;Node40</title>
<path fill="none" stroke="midnightblue" d="M469.88,-1032.99C457.55,-1099.85 416.54,-1326.23 391,-1514.5 380.88,-1589.13 404.21,-1794.49 355,-1851.5 351.73,-1855.29 347.81,-1858.38 343.5,-1860.88"/>
<polygon fill="midnightblue" stroke="midnightblue" points="473.35,-1033.49 471.72,-1023.02 466.46,-1032.22 473.35,-1033.49"/>
</g>
<!-- Node41 -->
<g id="node39" class="node">
<title>Node41</title>
<g id="a_node39"><a xlink:href="class_t_interface.html#acd41ae8fa5d16248a867472d9c8ae646" target="_top" xlink:title=" ">
<polygon fill="white" stroke="black" points="209.5,-1811.5 209.5,-1841.5 351.5,-1841.5 351.5,-1811.5 209.5,-1811.5"/>
<text text-anchor="start" x="217.5" y="-1829.5" font-family="Helvetica,sans-Serif" font-size="10.00">TInterface::CutTTEntryButton</text>
<text text-anchor="middle" x="280.5" y="-1818.5" font-family="Helvetica,sans-Serif" font-size="10.00">Click</text>
</a>
</g>
</g>
<!-- Node9&#45;&gt;Node41 -->
<g id="edge38" class="edge">
<title>Node9&#45;&gt;Node41</title>
<path fill="none" stroke="midnightblue" d="M470.01,-1033C458.09,-1099.93 418.22,-1326.47 391,-1514.5 381.76,-1578.33 396.04,-1752.75 355,-1802.5 352.18,-1805.92 348.87,-1808.85 345.23,-1811.37"/>
<polygon fill="midnightblue" stroke="midnightblue" points="473.48,-1033.49 471.79,-1023.03 466.59,-1032.26 473.48,-1033.49"/>
</g>
<!-- Node42 -->
<g id="node40" class="node">
<title>Node42</title>
<g id="a_node40"><a xlink:href="class_t_interface.html#af9cb95043f5276df55cb6809e104c93a" target="_top" xlink:title=" ">
<polygon fill="white" stroke="black" points="220,-1762.5 220,-1792.5 341,-1792.5 341,-1762.5 220,-1762.5"/>
<text text-anchor="start" x="228" y="-1780.5" font-family="Helvetica,sans-Serif" font-size="10.00">TInterface::DeleteAllPref</text>
<text text-anchor="middle" x="280.5" y="-1769.5" font-family="Helvetica,sans-Serif" font-size="10.00">DirButtonClick</text>
</a>
</g>
</g>
<!-- Node9&#45;&gt;Node42 -->
<g id="edge39" class="edge">
<title>Node9&#45;&gt;Node42</title>
<path fill="none" stroke="midnightblue" d="M470.18,-1033.03C458.83,-1100.04 420.59,-1326.83 391,-1514.5 382.64,-1567.56 389.7,-1712.5 355,-1753.5 351.1,-1758.11 346.3,-1761.84 341.03,-1764.86"/>
<polygon fill="midnightblue" stroke="midnightblue" points="473.66,-1033.49 471.88,-1023.04 466.76,-1032.32 473.66,-1033.49"/>
</g>
<!-- Node43 -->
<g id="node41" class="node">
<title>Node43</title>
<g id="a_node41"><a xlink:href="class_t_interface.html#aff2c1cd6ed2d45fdcf6392a85a6d9415" target="_top" xlink:title=" ">
<polygon fill="white" stroke="black" points="213,-1713.5 213,-1743.5 348,-1743.5 348,-1713.5 213,-1713.5"/>
<text text-anchor="start" x="221" y="-1731.5" font-family="Helvetica,sans-Serif" font-size="10.00">TInterface::DeleteMenuItem</text>
<text text-anchor="middle" x="280.5" y="-1720.5" font-family="Helvetica,sans-Serif" font-size="10.00">Click</text>
</a>
</g>
</g>
<!-- Node9&#45;&gt;Node43 -->
<g id="edge40" class="edge">
<title>Node9&#45;&gt;Node43</title>
<path fill="none" stroke="midnightblue" d="M470.28,-1033.09C451.89,-1144.92 360.72,-1697.88 355,-1704.5 352.02,-1707.95 348.53,-1710.91 344.72,-1713.45"/>
<polygon fill="midnightblue" stroke="midnightblue" points="473.74,-1033.6 471.91,-1023.17 466.84,-1032.47 473.74,-1033.6"/>
</g>
<!-- Node44 -->
<g id="node42" class="node">
<title>Node44</title>
<g id="a_node42"><a xlink:href="class_t_interface.html#a3136530959237eaa57486f4f48357855" target="_top" xlink:title=" ">
<polygon fill="white" stroke="black" points="216.5,-1664.5 216.5,-1694.5 344.5,-1694.5 344.5,-1664.5 216.5,-1664.5"/>
<text text-anchor="start" x="224.5" y="-1682.5" font-family="Helvetica,sans-Serif" font-size="10.00">TInterface::DeleteOnePref</text>
<text text-anchor="middle" x="280.5" y="-1671.5" font-family="Helvetica,sans-Serif" font-size="10.00">DirButtonClick</text>
</a>
</g>
</g>
<!-- Node9&#45;&gt;Node44 -->
<g id="edge41" class="edge">
<title>Node9&#45;&gt;Node44</title>
<path fill="none" stroke="midnightblue" d="M470.47,-1033.06C454.1,-1138.06 376.33,-1631.12 355,-1655.5 351.99,-1658.93 348.49,-1661.88 344.67,-1664.41"/>
<polygon fill="midnightblue" stroke="midnightblue" points="473.93,-1033.59 472,-1023.17 467.01,-1032.51 473.93,-1033.59"/>
</g>
<!-- Node45 -->
<g id="node43" class="node">
<title>Node45</title>
<g id="a_node43"><a xlink:href="class_t_interface.html#abdd4a70649a10a29c9a069d040072808" target="_top" xlink:title=" ">
<polygon fill="white" stroke="black" points="217.5,-1615.5 217.5,-1645.5 343.5,-1645.5 343.5,-1615.5 217.5,-1615.5"/>
<text text-anchor="start" x="225.5" y="-1633.5" font-family="Helvetica,sans-Serif" font-size="10.00">TInterface::DeleteTTEntry</text>
<text text-anchor="middle" x="280.5" y="-1622.5" font-family="Helvetica,sans-Serif" font-size="10.00">ButtonClick</text>
</a>
</g>
</g>
<!-- Node9&#45;&gt;Node45 -->
<g id="edge42" class="edge">
<title>Node9&#45;&gt;Node45</title>
<path fill="none" stroke="midnightblue" d="M470.71,-1033.45C456.8,-1131.68 394.15,-1560.88 355,-1605.5 351.62,-1609.35 347.63,-1612.61 343.27,-1615.36"/>
<polygon fill="midnightblue" stroke="midnightblue" points="474.2,-1033.78 472.13,-1023.39 467.26,-1032.8 474.2,-1033.78"/>
</g>
<!-- Node46 -->
<g id="node44" class="node">
<title>Node46</title>
<g id="a_node44"><a xlink:href="class_t_interface.html#ac53c02024590fc44371ed3b7efc3ddde" target="_top" xlink:title=" ">
<polygon fill="white" stroke="black" points="216.5,-1577 216.5,-1596 344.5,-1596 344.5,-1577 216.5,-1577"/>
<text text-anchor="middle" x="280.5" y="-1584" font-family="Helvetica,sans-Serif" font-size="10.00">TInterface::EditMenuClick</text>
</a>
</g>
</g>
<!-- Node9&#45;&gt;Node46 -->
<g id="edge43" class="edge">
<title>Node9&#45;&gt;Node46</title>
<path fill="none" stroke="midnightblue" d="M472,-1033.37C464.84,-1122.9 431.29,-1487.92 355,-1567.5 351.35,-1571.31 347.05,-1574.39 342.39,-1576.87"/>
<polygon fill="midnightblue" stroke="midnightblue" points="475.5,-1033.47 472.79,-1023.23 468.52,-1032.93 475.5,-1033.47"/>
</g>
<!-- Node47 -->
<g id="node45" class="node">
<title>Node47</title>
<g id="a_node45"><a xlink:href="class_t_interface.html#a9cfdb7521877f2c7ab124d0e4f47a0f6" target="_top" xlink:title=" ">
<polygon fill="white" stroke="black" points="218,-1527.5 218,-1557.5 343,-1557.5 343,-1527.5 218,-1527.5"/>
<text text-anchor="start" x="226" y="-1545.5" font-family="Helvetica,sans-Serif" font-size="10.00">TInterface::ExitMenuItem</text>
<text text-anchor="middle" x="280.5" y="-1534.5" font-family="Helvetica,sans-Serif" font-size="10.00">Click</text>
</a>
</g>
</g>
<!-- Node9&#45;&gt;Node47 -->
<g id="edge45" class="edge">
<title>Node9&#45;&gt;Node47</title>
<path fill="none" stroke="midnightblue" d="M471.46,-1033.09C462.34,-1116.94 422.84,-1444.62 355,-1518.5 351.55,-1522.26 347.5,-1525.43 343.12,-1528.1"/>
<polygon fill="midnightblue" stroke="midnightblue" points="474.94,-1033.44 472.52,-1023.13 467.98,-1032.7 474.94,-1033.44"/>
</g>
<!-- Node48 -->
<g id="node46" class="node">
<title>Node48</title>
<g id="a_node46"><a xlink:href="class_t_interface.html#a3e59d6f1f39ffe34a9d6e7bf930acbff" target="_top" xlink:title=" ">
<polygon fill="white" stroke="black" points="218.5,-1478.5 218.5,-1508.5 342.5,-1508.5 342.5,-1478.5 218.5,-1478.5"/>
<text text-anchor="start" x="226.5" y="-1496.5" font-family="Helvetica,sans-Serif" font-size="10.00">TInterface::ExitOperation</text>
<text text-anchor="middle" x="280.5" y="-1485.5" font-family="Helvetica,sans-Serif" font-size="10.00">ButtonClick</text>
</a>
</g>
</g>
<!-- Node9&#45;&gt;Node48 -->
<g id="edge46" class="edge">
<title>Node9&#45;&gt;Node48</title>
<path fill="none" stroke="midnightblue" d="M470.88,-1033.42C460.11,-1112.59 416.82,-1403.76 355,-1469.5 351.41,-1473.31 347.21,-1476.52 342.67,-1479.22"/>
<polygon fill="midnightblue" stroke="midnightblue" points="474.37,-1033.71 472.23,-1023.34 467.44,-1032.78 474.37,-1033.71"/>
</g>
<!-- Node49 -->
<g id="node47" class="node">
<title>Node49</title>
<g id="a_node47"><a xlink:href="class_t_interface.html#ab2a25d27dcbae558b8f9a4ac62937523" target="_top" xlink:title=" ">
<polygon fill="white" stroke="black" points="210.5,-1429.5 210.5,-1459.5 350.5,-1459.5 350.5,-1429.5 210.5,-1429.5"/>
<text text-anchor="start" x="218.5" y="-1447.5" font-family="Helvetica,sans-Serif" font-size="10.00">TInterface::ExitPrefDirButton</text>
<text text-anchor="middle" x="280.5" y="-1436.5" font-family="Helvetica,sans-Serif" font-size="10.00">Click</text>
</a>
</g>
</g>
<!-- Node9&#45;&gt;Node49 -->
<g id="edge47" class="edge">
<title>Node9&#45;&gt;Node49</title>
<path fill="none" stroke="midnightblue" d="M473.82,-1033.07C473.8,-1097.77 464.86,-1307.03 355,-1420.5 351.64,-1423.97 347.77,-1426.94 343.6,-1429.48"/>
<polygon fill="midnightblue" stroke="midnightblue" points="477.32,-1033.01 473.75,-1023.04 470.32,-1033.06 477.32,-1033.01"/>
</g>
<!-- Node50 -->
<g id="node48" class="node">
<title>Node50</title>
<g id="a_node48"><a xlink:href="class_t_interface.html#ad0fa9f32b059b346e066ab23d62a4bfc" target="_top" xlink:title=" ">
<polygon fill="white" stroke="black" points="213.5,-1380.5 213.5,-1410.5 347.5,-1410.5 347.5,-1380.5 213.5,-1380.5"/>
<text text-anchor="start" x="221.5" y="-1398.5" font-family="Helvetica,sans-Serif" font-size="10.00">TInterface::ExitTrackButton</text>
<text text-anchor="middle" x="280.5" y="-1387.5" font-family="Helvetica,sans-Serif" font-size="10.00">Click</text>
</a>
</g>
</g>
<!-- Node9&#45;&gt;Node50 -->
<g id="edge48" class="edge">
<title>Node9&#45;&gt;Node50</title>
<path fill="none" stroke="midnightblue" d="M472.89,-1033.41C469.98,-1093.33 453.07,-1273.83 355,-1371.5 351.58,-1374.91 347.66,-1377.84 343.46,-1380.35"/>
<polygon fill="midnightblue" stroke="midnightblue" points="476.4,-1033.23 473.31,-1023.1 469.41,-1032.95 476.4,-1033.23"/>
</g>
<!-- Node199&#45;&gt;Node8 -->
<g id="edge53" class="edge">
<title>Node199&#45;&gt;Node8</title>
<path fill="none" stroke="midnightblue" d="M741.75,-1000.02C733.21,-1001.36 724.57,-1002.72 716.23,-1004.03"/>
<polygon fill="midnightblue" stroke="midnightblue" points="742.37,-1003.46 751.7,-998.45 741.28,-996.55 742.37,-1003.46"/>
</g>
<!-- Node200 -->
<g id="node50" class="node">
<title>Node200</title>
<g id="a_node50"><a xlink:href="class_t_interface.html#a3362cfff4fa746fdb4871fe9d6c5ba25" target="_top" xlink:title="Save a session file &#45; see LoadSession for details of additions to the session file.">
<polygon fill="white" stroke="black" points="594.5,-750 594.5,-769 715.5,-769 715.5,-750 594.5,-750"/>
<text text-anchor="middle" x="655" y="-757" font-family="Helvetica,sans-Serif" font-size="10.00">TInterface::SaveSession</text>
</a>
</g>
</g>
<!-- Node199&#45;&gt;Node200 -->
<g id="edge54" class="edge">
<title>Node199&#45;&gt;Node200</title>
<path fill="none" stroke="midnightblue" d="M798.72,-965.05C764.51,-915.79 686.42,-803.32 662.86,-769.38"/>
<polygon fill="midnightblue" stroke="midnightblue" points="795.99,-967.26 804.57,-973.47 801.74,-963.26 795.99,-967.26"/>
</g>
<!-- Node200&#45;&gt;Node31 -->
<g id="edge55" class="edge">
<title>Node200&#45;&gt;Node31</title>
<path fill="none" stroke="midnightblue" d="M641.09,-741.57C598.03,-680.88 458.35,-476.26 391,-285.5 359.91,-197.45 418.31,-147.14 355,-78.5 350.8,-73.95 345.67,-70.42 340.08,-67.71"/>
<polygon fill="midnightblue" stroke="midnightblue" points="638.27,-743.65 646.93,-749.76 643.97,-739.59 638.27,-743.65"/>
</g>
</g>
</svg>
