<?xml version="1.0" encoding="UTF-8" standalone="no"?>
<!DOCTYPE svg PUBLIC "-//W3C//DTD SVG 1.1//EN"
 "http://www.w3.org/Graphics/SVG/1.1/DTD/svg11.dtd">
<!-- Generated by graphviz version 2.44.1 (20200629.0800)
 -->
<!-- Title: TOnePrefDir::RebuildPrefDirVector Pages: 1 -->
<svg width="446pt" height="110pt"
 viewBox="0.00 0.00 446.00 109.96" xmlns="http://www.w3.org/2000/svg" xmlns:xlink="http://www.w3.org/1999/xlink">
<g id="graph0" class="graph" transform="scale(1 1) rotate(0) translate(4 105.96)">
<title>TOnePrefDir::RebuildPrefDirVector</title>
<polygon fill="white" stroke="transparent" points="-4,4 -4,-105.96 442,-105.96 442,4 -4,4"/>
<!-- Node1 -->
<g id="node1" class="node">
<title>Node1</title>
<g id="a_node1"><a xlink:title="Called after the track vector has been rebuilt following linking, to rebuild the preferred direction ...">
<polygon fill="#bfbfbf" stroke="black" points="0,-31.83 0,-61.83 125,-61.83 125,-31.83 0,-31.83"/>
<text text-anchor="start" x="8" y="-49.83" font-family="Helvetica,sans-Serif" font-size="10.00">TOnePrefDir::RebuildPref</text>
<text text-anchor="middle" x="62.5" y="-38.83" font-family="Helvetica,sans-Serif" font-size="10.00">DirVector</text>
</a>
</g>
</g>
<!-- Node2 -->
<g id="node2" class="node">
<title>Node2</title>
<g id="a_node2"><a xlink:href="class_t_utilities.html#ae1eddca13cc3c492839e131f40ec21c0" target="_top" xlink:title="pops the last entry off the call stack, throws an error if called when empty">
<polygon fill="white" stroke="black" points="328,-59.33 328,-78.33 438,-78.33 438,-59.33 328,-59.33"/>
<text text-anchor="middle" x="383" y="-66.33" font-family="Helvetica,sans-Serif" font-size="10.00">TUtilities::CallLogPop</text>
</a>
</g>
</g>
<!-- Node1&#45;&gt;Node2 -->
<g id="edge1" class="edge">
<title>Node1&#45;&gt;Node2</title>
<path fill="none" stroke="midnightblue" d="M87.22,-62.03C106.3,-73.3 134.25,-87.72 161,-93.83 217.76,-106.8 234.31,-101.7 292,-93.83 309.83,-91.4 329.11,-86.38 345.24,-81.47"/>
<polygon fill="midnightblue" stroke="midnightblue" points="346.34,-84.8 354.83,-78.46 344.24,-78.12 346.34,-84.8"/>
</g>
<!-- Node3 -->
<g id="node3" class="node">
<title>Node3</title>
<g id="a_node3"><a xlink:href="class_t_track.html#aa0812972d1ae27198c5fbca8aa7b6134" target="_top" xlink:title="Returns the track vector position corresponding to the Hloc &amp; VLoc positions, FoundFlag indicates whe...">
<polygon fill="white" stroke="black" points="161,-53.83 161,-83.83 292,-83.83 292,-53.83 161,-53.83"/>
<text text-anchor="start" x="169" y="-71.83" font-family="Helvetica,sans-Serif" font-size="10.00">TTrack::GetVectorPosition</text>
<text text-anchor="middle" x="226.5" y="-60.83" font-family="Helvetica,sans-Serif" font-size="10.00">FromTrackMap</text>
</a>
</g>
</g>
<!-- Node1&#45;&gt;Node3 -->
<g id="edge2" class="edge">
<title>Node1&#45;&gt;Node3</title>
<path fill="none" stroke="midnightblue" d="M125.21,-55.21C133.56,-56.35 142.21,-57.52 150.76,-58.68"/>
<polygon fill="midnightblue" stroke="midnightblue" points="150.35,-62.16 160.73,-60.04 151.29,-55.23 150.35,-62.16"/>
</g>
<!-- Node4 -->
<g id="node4" class="node">
<title>Node4</title>
<g id="a_node4"><a xlink:href="class_t_utilities.html#a34bd6bb5305bc29afdf424f6d35a921c" target="_top" xlink:title="creates a string of the form &#39;hh:mm:ss&#39; for use in call &amp; event logging">
<polygon fill="white" stroke="black" points="328,-15.33 328,-34.33 438,-34.33 438,-15.33 328,-15.33"/>
<text text-anchor="middle" x="383" y="-22.33" font-family="Helvetica,sans-Serif" font-size="10.00">TUtilities::TimeStamp</text>
</a>
</g>
</g>
<!-- Node1&#45;&gt;Node4 -->
<g id="edge5" class="edge">
<title>Node1&#45;&gt;Node4</title>
<path fill="none" stroke="midnightblue" d="M91.13,-31.72C110.15,-22.2 136.34,-10.81 161,-5.83 220.31,6.13 290.06,-3.75 335.1,-13.17"/>
<polygon fill="midnightblue" stroke="midnightblue" points="334.37,-16.59 344.88,-15.28 335.85,-9.75 334.37,-16.59"/>
</g>
<!-- Node5 -->
<g id="node5" class="node">
<title>Node5</title>
<g id="a_node5"><a xlink:href="class_t_track.html#ad377e5a1f152f2e89832c0f9bcfd261f" target="_top" xlink:title="A range&#45;checked version of TrackElement.at(At)">
<polygon fill="white" stroke="black" points="165.5,-15.33 165.5,-34.33 287.5,-34.33 287.5,-15.33 165.5,-15.33"/>
<text text-anchor="middle" x="226.5" y="-22.33" font-family="Helvetica,sans-Serif" font-size="10.00">TTrack::TrackElementAt</text>
</a>
</g>
</g>
<!-- Node1&#45;&gt;Node5 -->
<g id="edge6" class="edge">
<title>Node1&#45;&gt;Node5</title>
<path fill="none" stroke="midnightblue" d="M125.21,-38.45C135.07,-37.12 145.33,-35.72 155.36,-34.36"/>
<polygon fill="midnightblue" stroke="midnightblue" points="155.86,-37.82 165.3,-33.01 154.92,-30.89 155.86,-37.82"/>
</g>
<!-- Node3&#45;&gt;Node2 -->
<g id="edge3" class="edge">
<title>Node3&#45;&gt;Node2</title>
<path fill="none" stroke="midnightblue" d="M292.13,-68.83C300.59,-68.83 309.27,-68.83 317.72,-68.83"/>
<polygon fill="midnightblue" stroke="midnightblue" points="317.91,-72.33 327.91,-68.83 317.91,-65.33 317.91,-72.33"/>
</g>
<!-- Node3&#45;&gt;Node4 -->
<g id="edge4" class="edge">
<title>Node3&#45;&gt;Node4</title>
<path fill="none" stroke="midnightblue" d="M280.24,-53.82C299.27,-48.4 320.51,-42.35 338.65,-37.18"/>
<polygon fill="midnightblue" stroke="midnightblue" points="339.71,-40.52 348.37,-34.41 337.79,-33.79 339.71,-40.52"/>
</g>
<!-- Node5&#45;&gt;Node2 -->
<g id="edge7" class="edge">
<title>Node5&#45;&gt;Node2</title>
<path fill="none" stroke="midnightblue" d="M261.02,-34.38C283.8,-40.87 314.14,-49.51 338.74,-56.51"/>
<polygon fill="midnightblue" stroke="midnightblue" points="337.96,-59.93 348.54,-59.31 339.88,-53.2 337.96,-59.93"/>
</g>
<!-- Node5&#45;&gt;Node4 -->
<g id="edge8" class="edge">
<title>Node5&#45;&gt;Node4</title>
<path fill="none" stroke="midnightblue" d="M287.68,-24.83C297.49,-24.83 307.68,-24.83 317.59,-24.83"/>
<polygon fill="midnightblue" stroke="midnightblue" points="317.78,-28.33 327.78,-24.83 317.78,-21.33 317.78,-28.33"/>
</g>
</g>
</svg>
