<?xml version="1.0" encoding="UTF-8" standalone="no"?>
<!DOCTYPE svg PUBLIC "-//W3C//DTD SVG 1.1//EN"
 "http://www.w3.org/Graphics/SVG/1.1/DTD/svg11.dtd">
<!-- Generated by graphviz version 2.44.1 (20200629.0800)
 -->
<!-- Title: TTrack::MatchingPoint Pages: 1 -->
<svg width="426pt" height="75pt"
 viewBox="0.00 0.00 426.00 75.00" xmlns="http://www.w3.org/2000/svg" xmlns:xlink="http://www.w3.org/1999/xlink">
<g id="graph0" class="graph" transform="scale(1 1) rotate(0) translate(4 71)">
<title>TTrack::MatchingPoint</title>
<polygon fill="white" stroke="transparent" points="-4,4 -4,-71 422,-71 422,4 -4,4"/>
<!-- Node1 -->
<g id="node1" class="node">
<title>Node1</title>
<g id="a_node1"><a xlink:title=" ">
<polygon fill="#bfbfbf" stroke="black" points="0,-28.5 0,-47.5 114,-47.5 114,-28.5 0,-28.5"/>
<text text-anchor="middle" x="57" y="-35.5" font-family="Helvetica,sans-Serif" font-size="10.00">TTrack::MatchingPoint</text>
</a>
</g>
</g>
<!-- Node2 -->
<g id="node2" class="node">
<title>Node2</title>
<g id="a_node2"><a xlink:href="class_t_utilities.html#ae1eddca13cc3c492839e131f40ec21c0" target="_top" xlink:title="pops the last entry off the call stack, throws an error if called when empty">
<polygon fill="white" stroke="black" points="308,-47.5 308,-66.5 418,-66.5 418,-47.5 308,-47.5"/>
<text text-anchor="middle" x="363" y="-54.5" font-family="Helvetica,sans-Serif" font-size="10.00">TUtilities::CallLogPop</text>
</a>
</g>
</g>
<!-- Node1&#45;&gt;Node2 -->
<g id="edge1" class="edge">
<title>Node1&#45;&gt;Node2</title>
<path fill="none" stroke="midnightblue" d="M95.33,-47.51C111.95,-51.27 131.83,-55.14 150,-57 199.39,-62.05 255.58,-61.78 297.7,-60.39"/>
<polygon fill="midnightblue" stroke="midnightblue" points="297.95,-63.88 307.82,-60.03 297.7,-56.89 297.95,-63.88"/>
</g>
<!-- Node3 -->
<g id="node3" class="node">
<title>Node3</title>
<g id="a_node3"><a xlink:href="class_t_utilities.html#a34bd6bb5305bc29afdf424f6d35a921c" target="_top" xlink:title="creates a string of the form &#39;hh:mm:ss&#39; for use in call &amp; event logging">
<polygon fill="white" stroke="black" points="308,-0.5 308,-19.5 418,-19.5 418,-0.5 308,-0.5"/>
<text text-anchor="middle" x="363" y="-7.5" font-family="Helvetica,sans-Serif" font-size="10.00">TUtilities::TimeStamp</text>
</a>
</g>
</g>
<!-- Node1&#45;&gt;Node3 -->
<g id="edge2" class="edge">
<title>Node1&#45;&gt;Node3</title>
<path fill="none" stroke="midnightblue" d="M97.17,-28.46C113.41,-24.88 132.52,-21.16 150,-19 199.31,-12.9 255.51,-10.73 297.65,-10.04"/>
<polygon fill="midnightblue" stroke="midnightblue" points="297.83,-13.54 307.78,-9.9 297.73,-6.54 297.83,-13.54"/>
</g>
<!-- Node4 -->
<g id="node4" class="node">
<title>Node4</title>
<g id="a_node4"><a xlink:href="class_t_track.html#ad377e5a1f152f2e89832c0f9bcfd261f" target="_top" xlink:title="A range&#45;checked version of TrackVector.at(At)">
<polygon fill="white" stroke="black" points="150,-28.5 150,-47.5 272,-47.5 272,-28.5 150,-28.5"/>
<text text-anchor="middle" x="211" y="-35.5" font-family="Helvetica,sans-Serif" font-size="10.00">TTrack::TrackElementAt</text>
</a>
</g>
</g>
<!-- Node1&#45;&gt;Node4 -->
<g id="edge3" class="edge">
<title>Node1&#45;&gt;Node4</title>
<path fill="none" stroke="midnightblue" d="M114.17,-38C122.56,-38 131.29,-38 139.92,-38"/>
<polygon fill="midnightblue" stroke="midnightblue" points="139.98,-41.5 149.98,-38 139.98,-34.5 139.98,-41.5"/>
</g>
<!-- Node4&#45;&gt;Node2 -->
<g id="edge4" class="edge">
<title>Node4&#45;&gt;Node2</title>
<path fill="none" stroke="midnightblue" d="M272.15,-45.62C280.49,-46.68 289.09,-47.76 297.51,-48.83"/>
<polygon fill="midnightblue" stroke="midnightblue" points="297.3,-52.33 307.66,-50.12 298.18,-45.39 297.3,-52.33"/>
</g>
<!-- Node4&#45;&gt;Node3 -->
<g id="edge5" class="edge">
<title>Node4&#45;&gt;Node3</title>
<path fill="none" stroke="midnightblue" d="M263.2,-28.44C275.39,-26.17 288.51,-23.72 301.09,-21.37"/>
<polygon fill="midnightblue" stroke="midnightblue" points="301.84,-24.79 311.03,-19.51 300.56,-17.91 301.84,-24.79"/>
</g>
</g>
</svg>
