<?xml version="1.0" encoding="UTF-8" standalone="no"?>
<!DOCTYPE svg PUBLIC "-//W3C//DTD SVG 1.1//EN"
 "http://www.w3.org/Graphics/SVG/1.1/DTD/svg11.dtd">
<!-- Generated by graphviz version 2.44.1 (20200629.0800)
 -->
<!-- Title: TTextHandler::WriteTextToImage Pages: 1 -->
<svg width="468pt" height="201pt"
 viewBox="0.00 0.00 468.00 200.61" xmlns="http://www.w3.org/2000/svg" xmlns:xlink="http://www.w3.org/1999/xlink">
<g id="graph0" class="graph" transform="scale(1 1) rotate(0) translate(4 196.61)">
<title>TTextHandler::WriteTextToImage</title>
<polygon fill="white" stroke="transparent" points="-4,4 -4,-196.61 464,-196.61 464,4 -4,4"/>
<!-- Node1 -->
<g id="node1" class="node">
<title>Node1</title>
<g id="a_node1"><a xlink:title="write all items in TextVector to the railway image in &#39;Bitmap&#39;">
<polygon fill="#bfbfbf" stroke="black" points="0,-90 0,-120 132,-120 132,-90 0,-90"/>
<text text-anchor="start" x="8" y="-108" font-family="Helvetica,sans-Serif" font-size="10.00">TTextHandler::WriteTextTo</text>
<text text-anchor="middle" x="66" y="-97" font-family="Helvetica,sans-Serif" font-size="10.00">Image</text>
</a>
</g>
</g>
<!-- Node2 -->
<g id="node2" class="node">
<title>Node2</title>
<g id="a_node2"><a xlink:href="class_t_utilities.html#ae1eddca13cc3c492839e131f40ec21c0" target="_top" xlink:title="pops the last entry off the call stack, throws an error if called when empty">
<polygon fill="white" stroke="black" points="350,-152.5 350,-171.5 460,-171.5 460,-152.5 350,-152.5"/>
<text text-anchor="middle" x="405" y="-159.5" font-family="Helvetica,sans-Serif" font-size="10.00">TUtilities::CallLogPop</text>
</a>
</g>
</g>
<!-- Node1&#45;&gt;Node2 -->
<g id="edge1" class="edge">
<title>Node1&#45;&gt;Node2</title>
<path fill="none" stroke="midnightblue" d="M80.92,-120.31C98.91,-138.84 132.2,-169.04 168,-181 234.61,-203.26 317.42,-187.35 365.14,-174.3"/>
<polygon fill="midnightblue" stroke="midnightblue" points="366.11,-177.66 374.78,-171.57 364.2,-170.93 366.11,-177.66"/>
</g>
<!-- Node3 -->
<g id="node3" class="node">
<title>Node3</title>
<g id="a_node3"><a xlink:href="class_t_track.html#a5d25871e34f26d3c4c878fd4707ed375" target="_top" xlink:title=" ">
<polygon fill="white" stroke="black" points="188,-38.5 188,-57.5 294,-57.5 294,-38.5 188,-38.5"/>
<text text-anchor="middle" x="241" y="-45.5" font-family="Helvetica,sans-Serif" font-size="10.00">TTrack::GetHLocMin</text>
</a>
</g>
</g>
<!-- Node1&#45;&gt;Node3 -->
<g id="edge2" class="edge">
<title>Node1&#45;&gt;Node3</title>
<path fill="none" stroke="midnightblue" d="M112.91,-89.87C140.51,-80.78 175.25,-69.33 201.43,-60.71"/>
<polygon fill="midnightblue" stroke="midnightblue" points="202.61,-64 211.01,-57.55 200.42,-57.36 202.61,-64"/>
</g>
<!-- Node4 -->
<g id="node4" class="node">
<title>Node4</title>
<g id="a_node4"><a xlink:href="class_t_track.html#ac42bd1e1e148a91396310b1077d2d8e0" target="_top" xlink:title=" ">
<polygon fill="white" stroke="black" points="188,-0.5 188,-19.5 294,-19.5 294,-0.5 188,-0.5"/>
<text text-anchor="middle" x="241" y="-7.5" font-family="Helvetica,sans-Serif" font-size="10.00">TTrack::GetVLocMin</text>
</a>
</g>
</g>
<!-- Node1&#45;&gt;Node4 -->
<g id="edge3" class="edge">
<title>Node1&#45;&gt;Node4</title>
<path fill="none" stroke="midnightblue" d="M82.84,-89.94C101.7,-72.79 134.83,-45.09 168,-29 172.87,-26.64 178.07,-24.54 183.37,-22.68"/>
<polygon fill="midnightblue" stroke="midnightblue" points="184.51,-25.99 192.96,-19.6 182.37,-19.33 184.51,-25.99"/>
</g>
<!-- Node5 -->
<g id="node5" class="node">
<title>Node5</title>
<g id="a_node5"><a xlink:href="class_t_text_handler.html#ac478536f458d9cda8a841953672f6525" target="_top" xlink:title="return the text item at position &#39;At&#39; in TextVector (carries out range checking)">
<polygon fill="white" stroke="black" points="180.5,-152.5 180.5,-171.5 301.5,-171.5 301.5,-152.5 180.5,-152.5"/>
<text text-anchor="middle" x="241" y="-159.5" font-family="Helvetica,sans-Serif" font-size="10.00">TTextHandler::TextPtrAt</text>
</a>
</g>
</g>
<!-- Node1&#45;&gt;Node5 -->
<g id="edge4" class="edge">
<title>Node1&#45;&gt;Node5</title>
<path fill="none" stroke="midnightblue" d="M104.57,-120.18C123.44,-127.53 146.76,-136.22 168,-143 175.45,-145.38 183.39,-147.69 191.19,-149.84"/>
<polygon fill="midnightblue" stroke="midnightblue" points="190.36,-153.24 200.93,-152.46 192.18,-146.48 190.36,-153.24"/>
</g>
<!-- Node6 -->
<g id="node6" class="node">
<title>Node6</title>
<g id="a_node6"><a xlink:href="class_t_utilities.html#a34bd6bb5305bc29afdf424f6d35a921c" target="_top" xlink:title="creates a string of the form &#39;hh:mm:ss&#39; for use in call &amp; event logging">
<polygon fill="white" stroke="black" points="350,-114.5 350,-133.5 460,-133.5 460,-114.5 350,-114.5"/>
<text text-anchor="middle" x="405" y="-121.5" font-family="Helvetica,sans-Serif" font-size="10.00">TUtilities::TimeStamp</text>
</a>
</g>
</g>
<!-- Node1&#45;&gt;Node6 -->
<g id="edge10" class="edge">
<title>Node1&#45;&gt;Node6</title>
<path fill="none" stroke="midnightblue" d="M132.2,-101.32C182.11,-99.39 252.58,-98.59 314,-105 328.31,-106.49 343.7,-109.29 357.64,-112.29"/>
<polygon fill="midnightblue" stroke="midnightblue" points="356.97,-115.73 367.49,-114.49 358.5,-108.89 356.97,-115.73"/>
</g>
<!-- Node7 -->
<g id="node7" class="node">
<title>Node7</title>
<g id="a_node7"><a xlink:href="class_t_text_handler.html#a7dfd4e30235878fb01e7387715e0cb0f" target="_top" xlink:title="return the number of items in TextVector">
<polygon fill="white" stroke="black" points="168,-114.5 168,-133.5 314,-133.5 314,-114.5 168,-114.5"/>
<text text-anchor="middle" x="241" y="-121.5" font-family="Helvetica,sans-Serif" font-size="10.00">TTextHandler::TextVectorSize</text>
</a>
</g>
</g>
<!-- Node1&#45;&gt;Node7 -->
<g id="edge7" class="edge">
<title>Node1&#45;&gt;Node7</title>
<path fill="none" stroke="midnightblue" d="M132.4,-112.18C140.73,-113.1 149.32,-114.04 157.87,-114.98"/>
<polygon fill="midnightblue" stroke="midnightblue" points="157.53,-118.46 167.85,-116.08 158.29,-111.5 157.53,-118.46"/>
</g>
<!-- Node5&#45;&gt;Node2 -->
<g id="edge5" class="edge">
<title>Node5&#45;&gt;Node2</title>
<path fill="none" stroke="midnightblue" d="M301.86,-162C314.11,-162 327.06,-162 339.47,-162"/>
<polygon fill="midnightblue" stroke="midnightblue" points="339.74,-165.5 349.74,-162 339.74,-158.5 339.74,-165.5"/>
</g>
<!-- Node5&#45;&gt;Node6 -->
<g id="edge6" class="edge">
<title>Node5&#45;&gt;Node6</title>
<path fill="none" stroke="midnightblue" d="M282.88,-152.41C304.35,-147.37 330.86,-141.16 353.6,-135.82"/>
<polygon fill="midnightblue" stroke="midnightblue" points="354.48,-139.21 363.41,-133.52 352.88,-132.4 354.48,-139.21"/>
</g>
<!-- Node7&#45;&gt;Node2 -->
<g id="edge8" class="edge">
<title>Node7&#45;&gt;Node2</title>
<path fill="none" stroke="midnightblue" d="M282.88,-133.59C304.35,-138.63 330.86,-144.84 353.6,-150.18"/>
<polygon fill="midnightblue" stroke="midnightblue" points="352.88,-153.6 363.41,-152.48 354.48,-146.79 352.88,-153.6"/>
</g>
<!-- Node7&#45;&gt;Node6 -->
<g id="edge9" class="edge">
<title>Node7&#45;&gt;Node6</title>
<path fill="none" stroke="midnightblue" d="M314.47,-124C322.76,-124 331.18,-124 339.36,-124"/>
<polygon fill="midnightblue" stroke="midnightblue" points="339.57,-127.5 349.57,-124 339.57,-120.5 339.57,-127.5"/>
</g>
</g>
</svg>
