<?xml version="1.0" encoding="UTF-8" standalone="no"?>
<!DOCTYPE svg PUBLIC "-//W3C//DTD SVG 1.1//EN"
 "http://www.w3.org/Graphics/SVG/1.1/DTD/svg11.dtd">
<!-- Generated by graphviz version 2.44.1 (20200629.0800)
 -->
<!-- Title: TTrainController::CheckLocationValidity Pages: 1 -->
<!--zoomable 230 -->
<svg id="main" version="1.1" xmlns="http://www.w3.org/2000/svg" xmlns:xlink="http://www.w3.org/1999/xlink" xml:space="preserve" onload="init(evt)">
<style type="text/css"><![CDATA[
.edge:hover path { stroke: red; }
.edge:hover polygon { stroke: red; fill: red; }
]]></style>
<script type="text/javascript"><![CDATA[
var edges = document.getElementsByTagName('g');
if (edges && edges.length) {
  for (var i=0;i<edges.length;i++) {
    if (edges[i].id.substr(0,4)=='edge') {
      edges[i].setAttribute('class','edge');
    }
  }
}
]]></script>
        <defs>
                <circle id="rim" cx="0" cy="0" r="7"/>
                <circle id="rim2" cx="0" cy="0" r="3.5"/>
                <g id="zoomPlus">
                        <use xlink:href="#rim" fill="#404040">
                                <set attributeName="fill" to="#808080" begin="zoomplus.mouseover" end="zoomplus.mouseout"/>
                        </use>
                        <path d="M-4,0h8M0,-4v8" fill="none" stroke="white" stroke-width="1.5" pointer-events="none"/>
                </g>
                <g id="zoomMin">
                        <use xlink:href="#rim" fill="#404040">
                                <set attributeName="fill" to="#808080" begin="zoomminus.mouseover" end="zoomminus.mouseout"/>
                        </use>
                        <path d="M-4,0h8" fill="none" stroke="white" stroke-width="1.5" pointer-events="none"/>
                </g>
                <g id="dirArrow">
                        <path fill="none" stroke="white" stroke-width="1.5" d="M0,-3.0v7 M-2.5,-0.5L0,-3.0L2.5,-0.5"/>
                </g>
               <g id="resetDef">
                       <use xlink:href="#rim2" fill="#404040">
                               <set attributeName="fill" to="#808080" begin="reset.mouseover" end="reset.mouseout"/>
                       </use>
               </g>
        </defs>

<script type="text/javascript">
var viewWidth = 1533;
var viewHeight = 230;
var sectionId = 'dynsection-20';
</script>
<script xlink:href="svgpan.js"/>
<svg id="graph" class="graph">
<g id="viewport">
<title>TTrainController::CheckLocationValidity</title>
<polygon fill="white" stroke="transparent" points="-4,4 -4,-226 1529,-226 1529,4 -4,4"/>
<!-- Node1 -->
<g id="node1" class="node">
<title>Node1</title>
<g id="a_node1"><a xlink:title="Returns true if the location name complies with requirements.">
<polygon fill="#bfbfbf" stroke="black" points="1370,-144.5 1370,-174.5 1525,-174.5 1525,-144.5 1370,-144.5"/>
<text text-anchor="start" x="1378" y="-162.5" font-family="Helvetica,sans-Serif" font-size="10.00">TTrainController::CheckLocation</text>
<text text-anchor="middle" x="1447.5" y="-151.5" font-family="Helvetica,sans-Serif" font-size="10.00">Validity</text>
</a>
</g>
</g>
<!-- Node2 -->
<g id="node2" class="node">
<title>Node2</title>
<g id="a_node2"><a xlink:href="class_t_train.html#a23c65e7f2b2130ae87811f70afb6d5bf" target="_top" xlink:title="Create one train with relevant member values from the sesion file.">
<polygon fill="white" stroke="black" points="1190,-183 1190,-202 1334,-202 1334,-183 1190,-183"/>
<text text-anchor="middle" x="1262" y="-190" font-family="Helvetica,sans-Serif" font-size="10.00">TTrain::LoadOneSessionTrain</text>
</a>
</g>
</g>
<!-- Node1&#45;&gt;Node2 -->
<g id="edge1" class="edge">
<title>Node1&#45;&gt;Node2</title>
<path fill="none" stroke="midnightblue" d="M1359.51,-175.14C1344.67,-177.81 1329.66,-180.51 1316.05,-182.96"/>
<polygon fill="midnightblue" stroke="midnightblue" points="1360.52,-178.52 1369.74,-173.3 1359.28,-171.63 1360.52,-178.52"/>
</g>
<!-- Node7 -->
<g id="node7" class="node">
<title>Node7</title>
<g id="a_node7"><a xlink:href="class_t_train_controller.html#a23ca27d36d711136e0529ba8ae4f22f0" target="_top" xlink:title="Parse a single timetable service action, return true for success.">
<polygon fill="white" stroke="black" points="1195.5,-131 1195.5,-150 1328.5,-150 1328.5,-131 1195.5,-131"/>
<text text-anchor="middle" x="1262" y="-138" font-family="Helvetica,sans-Serif" font-size="10.00">TTrainController::SplitEntry</text>
</a>
</g>
</g>
<!-- Node1&#45;&gt;Node7 -->
<g id="edge6" class="edge">
<title>Node1&#45;&gt;Node7</title>
<path fill="none" stroke="midnightblue" d="M1359.76,-150.52C1349.31,-149.44 1338.76,-148.34 1328.68,-147.3"/>
<polygon fill="midnightblue" stroke="midnightblue" points="1359.44,-154 1369.74,-151.55 1360.16,-147.04 1359.44,-154"/>
</g>
<!-- Node3 -->
<g id="node3" class="node">
<title>Node3</title>
<g id="a_node3"><a xlink:href="class_t_train_controller.html#a853ddf9799c9fd7063c81ffa1dc754d7" target="_top" xlink:title="load trains from a session file">
<polygon fill="white" stroke="black" points="493,-191.5 493,-221.5 639,-221.5 639,-191.5 493,-191.5"/>
<text text-anchor="start" x="501" y="-209.5" font-family="Helvetica,sans-Serif" font-size="10.00">TTrainController::LoadSession</text>
<text text-anchor="middle" x="566" y="-198.5" font-family="Helvetica,sans-Serif" font-size="10.00">Trains</text>
</a>
</g>
</g>
<!-- Node2&#45;&gt;Node3 -->
<g id="edge2" class="edge">
<title>Node2&#45;&gt;Node3</title>
<path fill="none" stroke="midnightblue" d="M1179.59,-194.14C1042.9,-196.9 769.47,-202.42 639.21,-205.04"/>
<polygon fill="midnightblue" stroke="midnightblue" points="1180.06,-197.63 1189.99,-193.93 1179.92,-190.63 1180.06,-197.63"/>
</g>
<!-- Node4 -->
<g id="node4" class="node">
<title>Node4</title>
<g id="a_node4"><a xlink:href="class_t_interface.html#a636b1b4bd29f2678a3290ed2d282f1c2" target="_top" xlink:title="Load a session file.">
<polygon fill="white" stroke="black" points="334,-148 334,-167 455,-167 455,-148 334,-148"/>
<text text-anchor="middle" x="394.5" y="-155" font-family="Helvetica,sans-Serif" font-size="10.00">TInterface::LoadSession</text>
</a>
</g>
</g>
<!-- Node3&#45;&gt;Node4 -->
<g id="edge3" class="edge">
<title>Node3&#45;&gt;Node4</title>
<path fill="none" stroke="midnightblue" d="M502.88,-188.54C477.64,-181.25 449.51,-173.11 428.37,-167"/>
<polygon fill="midnightblue" stroke="midnightblue" points="502.18,-191.98 512.76,-191.4 504.13,-185.26 502.18,-191.98"/>
</g>
<!-- Node5 -->
<g id="node5" class="node">
<title>Node5</title>
<g id="a_node5"><a xlink:href="class_t_interface.html#a6139ffb52492eb89e5487a8a3cd647b5" target="_top" xlink:title="The main loop, called every clock tick via MasterClockTimer.">
<polygon fill="white" stroke="black" points="179,-148 179,-167 298,-167 298,-148 179,-148"/>
<text text-anchor="middle" x="238.5" y="-155" font-family="Helvetica,sans-Serif" font-size="10.00">TInterface::ClockTimer2</text>
</a>
</g>
</g>
<!-- Node4&#45;&gt;Node5 -->
<g id="edge4" class="edge">
<title>Node4&#45;&gt;Node5</title>
<path fill="none" stroke="midnightblue" d="M323.92,-157.5C315.3,-157.5 306.56,-157.5 298.12,-157.5"/>
<polygon fill="midnightblue" stroke="midnightblue" points="323.96,-161 333.96,-157.5 323.96,-154 323.96,-161"/>
</g>
<!-- Node6 -->
<g id="node6" class="node">
<title>Node6</title>
<g id="a_node6"><a xlink:href="class_t_interface.html#ace30a12d923fc7fb489afabb0a09aa4f" target="_top" xlink:title=" ">
<polygon fill="white" stroke="black" points="0,-148 0,-167 143,-167 143,-148 0,-148"/>
<text text-anchor="middle" x="71.5" y="-155" font-family="Helvetica,sans-Serif" font-size="10.00">TInterface::MasterClockTimer</text>
</a>
</g>
</g>
<!-- Node5&#45;&gt;Node6 -->
<g id="edge5" class="edge">
<title>Node5&#45;&gt;Node6</title>
<path fill="none" stroke="midnightblue" d="M168.67,-157.5C160.22,-157.5 151.57,-157.5 143.09,-157.5"/>
<polygon fill="midnightblue" stroke="midnightblue" points="168.86,-161 178.86,-157.5 168.86,-154 168.86,-161"/>
</g>
<!-- Node8 -->
<g id="node8" class="node">
<title>Node8</title>
<g id="a_node8"><a xlink:href="class_t_train_controller.html#a5c51eb1e0018e189966ffdbc5d251990" target="_top" xlink:title="Carry out preliminary (mainly syntax) validity checks on a single timetable service entry and (if Fin...">
<polygon fill="white" stroke="black" points="1028,-98.5 1028,-128.5 1154,-128.5 1154,-98.5 1028,-98.5"/>
<text text-anchor="start" x="1036" y="-116.5" font-family="Helvetica,sans-Serif" font-size="10.00">TTrainController::Process</text>
<text text-anchor="middle" x="1091" y="-105.5" font-family="Helvetica,sans-Serif" font-size="10.00">OneTimetableLine</text>
</a>
</g>
</g>
<!-- Node7&#45;&gt;Node8 -->
<g id="edge7" class="edge">
<title>Node7&#45;&gt;Node8</title>
<path fill="none" stroke="midnightblue" d="M1191.23,-129.35C1178.95,-127.39 1166.24,-125.36 1154.19,-123.44"/>
<polygon fill="midnightblue" stroke="midnightblue" points="1190.99,-132.86 1201.42,-130.98 1192.09,-125.95 1190.99,-132.86"/>
</g>
<!-- Node9 -->
<g id="node9" class="node">
<title>Node9</title>
<g id="a_node9"><a xlink:href="class_t_interface.html#a148e3f99d39f596dbd7d490403936154" target="_top" xlink:title="Convert a stored timetable file (either as a stand alone file or within a session file) to a loaded t...">
<polygon fill="white" stroke="black" points="859.5,-147.5 859.5,-177.5 987.5,-177.5 987.5,-147.5 859.5,-147.5"/>
<text text-anchor="start" x="867.5" y="-165.5" font-family="Helvetica,sans-Serif" font-size="10.00">TInterface::BuildTrainData</text>
<text text-anchor="middle" x="923.5" y="-154.5" font-family="Helvetica,sans-Serif" font-size="10.00">VectorForLoadFile</text>
</a>
</g>
</g>
<!-- Node8&#45;&gt;Node9 -->
<g id="edge8" class="edge">
<title>Node8&#45;&gt;Node9</title>
<path fill="none" stroke="midnightblue" d="M1029.32,-131.47C1011.58,-136.72 992.39,-142.4 975.34,-147.45"/>
<polygon fill="midnightblue" stroke="midnightblue" points="1030.4,-134.8 1038.99,-128.6 1028.41,-128.08 1030.4,-134.8"/>
</g>
<!-- Node13 -->
<g id="node13" class="node">
<title>Node13</title>
<g id="a_node13"><a xlink:href="class_t_interface.html#a4ffe7e6eb2421577f670a52f556aef97" target="_top" xlink:title="Check the integrity of a stored timetable file (either as a stand alone file or within a session file...">
<polygon fill="white" stroke="black" points="859.5,-0.5 859.5,-30.5 987.5,-30.5 987.5,-0.5 859.5,-0.5"/>
<text text-anchor="start" x="867.5" y="-18.5" font-family="Helvetica,sans-Serif" font-size="10.00">TInterface::BuildTrainData</text>
<text text-anchor="middle" x="923.5" y="-7.5" font-family="Helvetica,sans-Serif" font-size="10.00">VectorForValidateFile</text>
</a>
</g>
</g>
<!-- Node8&#45;&gt;Node13 -->
<g id="edge14" class="edge">
<title>Node8&#45;&gt;Node13</title>
<path fill="none" stroke="midnightblue" d="M1065.81,-91.89C1046.8,-75.77 1019.1,-54.1 992,-39.5 985.87,-36.2 979.19,-33.19 972.5,-30.51"/>
<polygon fill="midnightblue" stroke="midnightblue" points="1063.53,-94.55 1073.39,-98.42 1068.1,-89.24 1063.53,-94.55"/>
</g>
<!-- Node15 -->
<g id="node15" class="node">
<title>Node15</title>
<g id="a_node15"><a xlink:href="class_t_train_controller.html#ac51af4807fe6bba453f8ab9bba42e2b5" target="_top" xlink:title="Checks overall timetable integrity, calls many other specific checking functions, returns true for su...">
<polygon fill="white" stroke="black" points="857.5,-98.5 857.5,-128.5 989.5,-128.5 989.5,-98.5 857.5,-98.5"/>
<text text-anchor="start" x="865.5" y="-116.5" font-family="Helvetica,sans-Serif" font-size="10.00">TTrainController::Timetable</text>
<text text-anchor="middle" x="923.5" y="-105.5" font-family="Helvetica,sans-Serif" font-size="10.00">IntegrityCheck</text>
</a>
</g>
</g>
<!-- Node8&#45;&gt;Node15 -->
<g id="edge16" class="edge">
<title>Node8&#45;&gt;Node15</title>
<path fill="none" stroke="midnightblue" d="M1017.84,-113.5C1008.49,-113.5 998.95,-113.5 989.71,-113.5"/>
<polygon fill="midnightblue" stroke="midnightblue" points="1017.9,-117 1027.9,-113.5 1017.9,-110 1017.9,-117"/>
</g>
<!-- Node16 -->
<g id="node16" class="node">
<title>Node16</title>
<g id="a_node16"><a xlink:href="class_t_interface.html#a003b10236c2b4316dc57be370c715c44" target="_top" xlink:title=" ">
<polygon fill="white" stroke="black" points="855,-49.5 855,-79.5 992,-79.5 992,-49.5 855,-49.5"/>
<text text-anchor="start" x="863" y="-67.5" font-family="Helvetica,sans-Serif" font-size="10.00">TInterface::TTServiceSyntax</text>
<text text-anchor="middle" x="923.5" y="-56.5" font-family="Helvetica,sans-Serif" font-size="10.00">CheckButtonClick</text>
</a>
</g>
</g>
<!-- Node8&#45;&gt;Node16 -->
<g id="edge20" class="edge">
<title>Node8&#45;&gt;Node16</title>
<path fill="none" stroke="midnightblue" d="M1029.32,-95.53C1011.58,-90.28 992.39,-84.6 975.34,-79.55"/>
<polygon fill="midnightblue" stroke="midnightblue" points="1028.41,-98.92 1038.99,-98.4 1030.4,-92.2 1028.41,-98.92"/>
</g>
<!-- Node10 -->
<g id="node10" class="node">
<title>Node10</title>
<g id="a_node10"><a xlink:href="class_t_interface.html#a92d5a9e07b9362dee2296b7759a1c83d" target="_top" xlink:title="Loads timetable into memory from a session file, true if successful.">
<polygon fill="white" stroke="black" points="684,-98.5 684,-128.5 812,-128.5 812,-98.5 684,-98.5"/>
<text text-anchor="start" x="692" y="-116.5" font-family="Helvetica,sans-Serif" font-size="10.00">TInterface::LoadTimetable</text>
<text text-anchor="middle" x="748" y="-105.5" font-family="Helvetica,sans-Serif" font-size="10.00">FromSessionFile</text>
</a>
</g>
</g>
<!-- Node9&#45;&gt;Node10 -->
<g id="edge9" class="edge">
<title>Node9&#45;&gt;Node10</title>
<path fill="none" stroke="midnightblue" d="M859.4,-144.68C840.67,-139.39 820.34,-133.65 802.29,-128.55"/>
<polygon fill="midnightblue" stroke="midnightblue" points="858.45,-148.05 869.03,-147.4 860.36,-141.31 858.45,-148.05"/>
</g>
<!-- Node12 -->
<g id="node12" class="node">
<title>Node12</title>
<g id="a_node12"><a xlink:href="class_t_interface.html#a15a2f5ad77e4f6c2b0cc6314224dfb78" target="_top" xlink:title=" ">
<polygon fill="white" stroke="black" points="684,-147.5 684,-177.5 812,-177.5 812,-147.5 684,-147.5"/>
<text text-anchor="start" x="692" y="-165.5" font-family="Helvetica,sans-Serif" font-size="10.00">TInterface::LoadTimetable</text>
<text text-anchor="middle" x="748" y="-154.5" font-family="Helvetica,sans-Serif" font-size="10.00">MenuItemClick</text>
</a>
</g>
</g>
<!-- Node9&#45;&gt;Node12 -->
<g id="edge13" class="edge">
<title>Node9&#45;&gt;Node12</title>
<path fill="none" stroke="midnightblue" d="M849.13,-162.5C836.81,-162.5 824.12,-162.5 812.08,-162.5"/>
<polygon fill="midnightblue" stroke="midnightblue" points="849.37,-166 859.37,-162.5 849.37,-159 849.37,-166"/>
</g>
<!-- Node10&#45;&gt;Node4 -->
<g id="edge10" class="edge">
<title>Node10&#45;&gt;Node4</title>
<path fill="none" stroke="midnightblue" d="M673.73,-115.4C622.31,-117.6 552.1,-122.32 491,-132.5 469.02,-136.16 444.74,-142.55 426.16,-147.95"/>
<polygon fill="midnightblue" stroke="midnightblue" points="673.91,-118.9 683.76,-114.99 673.62,-111.9 673.91,-118.9"/>
</g>
<!-- Node11 -->
<g id="node11" class="node">
<title>Node11</title>
<g id="a_node11"><a xlink:href="class_t_interface.html#a3904f26b67b9512507960187b37b6f7b" target="_top" xlink:title="Checks session file integrity prior to loading, true for success.">
<polygon fill="white" stroke="black" points="491,-142.5 491,-172.5 641,-172.5 641,-142.5 491,-142.5"/>
<text text-anchor="start" x="499" y="-160.5" font-family="Helvetica,sans-Serif" font-size="10.00">TInterface::SessionFileIntegrity</text>
<text text-anchor="middle" x="566" y="-149.5" font-family="Helvetica,sans-Serif" font-size="10.00">Check</text>
</a>
</g>
</g>
<!-- Node10&#45;&gt;Node11 -->
<g id="edge11" class="edge">
<title>Node10&#45;&gt;Node11</title>
<path fill="none" stroke="midnightblue" d="M675.47,-130.99C659.92,-134.79 643.59,-138.78 628.47,-142.47"/>
<polygon fill="midnightblue" stroke="midnightblue" points="676.67,-134.29 685.56,-128.52 675.01,-127.49 676.67,-134.29"/>
</g>
<!-- Node11&#45;&gt;Node4 -->
<g id="edge12" class="edge">
<title>Node11&#45;&gt;Node4</title>
<path fill="none" stroke="midnightblue" d="M480.55,-157.5C471.93,-157.5 463.3,-157.5 455.02,-157.5"/>
<polygon fill="midnightblue" stroke="midnightblue" points="480.65,-161 490.65,-157.5 480.65,-154 480.65,-161"/>
</g>
<!-- Node14 -->
<g id="node14" class="node">
<title>Node14</title>
<g id="a_node14"><a xlink:href="class_t_interface.html#a2f501868bbee2310af99bf2e8e265c59" target="_top" xlink:title=" ">
<polygon fill="white" stroke="black" points="677,-25.5 677,-55.5 819,-55.5 819,-25.5 677,-25.5"/>
<text text-anchor="start" x="685" y="-43.5" font-family="Helvetica,sans-Serif" font-size="10.00">TInterface::ValidateTimetable</text>
<text text-anchor="middle" x="748" y="-32.5" font-family="Helvetica,sans-Serif" font-size="10.00">ButtonClick</text>
</a>
</g>
</g>
<!-- Node13&#45;&gt;Node14 -->
<g id="edge15" class="edge">
<title>Node13&#45;&gt;Node14</title>
<path fill="none" stroke="midnightblue" d="M849.44,-26.03C839.4,-27.47 829.11,-28.96 819.12,-30.4"/>
<polygon fill="midnightblue" stroke="midnightblue" points="849.97,-29.49 859.37,-24.6 848.97,-22.56 849.97,-29.49"/>
</g>
<!-- Node15&#45;&gt;Node10 -->
<g id="edge17" class="edge">
<title>Node15&#45;&gt;Node10</title>
<path fill="none" stroke="midnightblue" d="M847.22,-113.5C835.53,-113.5 823.55,-113.5 812.16,-113.5"/>
<polygon fill="midnightblue" stroke="midnightblue" points="847.4,-117 857.4,-113.5 847.4,-110 847.4,-117"/>
</g>
<!-- Node15&#45;&gt;Node12 -->
<g id="edge18" class="edge">
<title>Node15&#45;&gt;Node12</title>
<path fill="none" stroke="midnightblue" d="M859.4,-131.32C840.67,-136.61 820.34,-142.35 802.29,-147.45"/>
<polygon fill="midnightblue" stroke="midnightblue" points="860.36,-134.69 869.03,-128.6 858.45,-127.95 860.36,-134.69"/>
</g>
<!-- Node15&#45;&gt;Node14 -->
<g id="edge19" class="edge">
<title>Node15&#45;&gt;Node14</title>
<path fill="none" stroke="midnightblue" d="M870.9,-94.81C865.51,-92.74 860.13,-90.61 855,-88.5 829.78,-78.13 801.68,-65.35 780.75,-55.58"/>
<polygon fill="midnightblue" stroke="midnightblue" points="869.96,-98.2 880.55,-98.49 872.45,-91.66 869.96,-98.2"/>
</g>
</g>
</svg>
        <g id="navigator" transform="translate(0 0)" fill="#404254">
                <rect fill="#f2f5e9" fill-opacity="0.5" stroke="#606060" stroke-width=".5" x="0" y="0" width="60" height="60"/>
                <use id="zoomplus" xlink:href="#zoomPlus" x="17" y="9" onmousedown="handleZoom(evt,'in')"/>
                <use id="zoomminus" xlink:href="#zoomMin" x="42" y="9" onmousedown="handleZoom(evt,'out')"/>
                <use id="reset" xlink:href="#resetDef" x="30" y="36" onmousedown="handleReset()"/>
                <g id="arrowUp" xlink:href="#dirArrow" transform="translate(30 24)" onmousedown="handlePan(0,-1)">
                  <use xlink:href="#rim" fill="#404040">
                        <set attributeName="fill" to="#808080" begin="arrowUp.mouseover" end="arrowUp.mouseout"/>
                  </use>
                  <path fill="none" stroke="white" stroke-width="1.5" d="M0,-3.0v7 M-2.5,-0.5L0,-3.0L2.5,-0.5"/>
                </g>
                <g id="arrowRight" xlink:href="#dirArrow" transform="rotate(90) translate(36 -43)" onmousedown="handlePan(1,0)">
                  <use xlink:href="#rim" fill="#404040">
                        <set attributeName="fill" to="#808080" begin="arrowRight.mouseover" end="arrowRight.mouseout"/>
                  </use>
                  <path fill="none" stroke="white" stroke-width="1.5" d="M0,-3.0v7 M-2.5,-0.5L0,-3.0L2.5,-0.5"/>
                </g>
                <g id="arrowDown" xlink:href="#dirArrow" transform="rotate(180) translate(-30 -48)" onmousedown="handlePan(0,1)">
                  <use xlink:href="#rim" fill="#404040">
                        <set attributeName="fill" to="#808080" begin="arrowDown.mouseover" end="arrowDown.mouseout"/>
                  </use>
                  <path fill="none" stroke="white" stroke-width="1.5" d="M0,-3.0v7 M-2.5,-0.5L0,-3.0L2.5,-0.5"/>
                </g>
                <g id="arrowLeft" xlink:href="#dirArrow" transform="rotate(270) translate(-36 17)" onmousedown="handlePan(-1,0)">
                  <use xlink:href="#rim" fill="#404040">
                        <set attributeName="fill" to="#808080" begin="arrowLeft.mouseover" end="arrowLeft.mouseout"/>
                  </use>
                  <path fill="none" stroke="white" stroke-width="1.5" d="M0,-3.0v7 M-2.5,-0.5L0,-3.0L2.5,-0.5"/>
                </g>
        </g>
        <svg viewBox="0 0 15 15" width="100%" height="30px" preserveAspectRatio="xMaxYMin meet">
         <g id="arrow_out" transform="scale(0.3 0.3)">
          <a xlink:href="class_t_train_controller_a1925032d5e41decf4befc07b35521d3c_icgraph_org.svg" target="_base">
           <rect id="button" ry="5" rx="5" y="6" x="6" height="38" width="38"
                fill="#f2f5e9" fill-opacity="0.5" stroke="#606060" stroke-width="1.0"/>
           <path id="arrow"
             d="M 11.500037,31.436501 C 11.940474,20.09759 22.043105,11.32322 32.158766,21.979434 L 37.068811,17.246167 C 37.068811,17.246167 37.088388,32 37.088388,32 L 22.160133,31.978069 C 22.160133,31.978069 26.997745,27.140456 26.997745,27.140456 C 18.528582,18.264221 13.291696,25.230495 11.500037,31.436501 z"
             style="fill:#404040;"/>
          </a>
         </g>
        </svg>
</svg>
