<?xml version="1.0" encoding="UTF-8" standalone="no"?>
<!DOCTYPE svg PUBLIC "-//W3C//DTD SVG 1.1//EN"
 "http://www.w3.org/Graphics/SVG/1.1/DTD/svg11.dtd">
<!-- Generated by graphviz version 2.44.1 (20200629.0800)
 -->
<!-- Title: TTrainController::LoadSessionTrains Pages: 1 -->
<svg width="1262pt" height="1193pt"
 viewBox="0.00 0.00 1262.00 1192.67" xmlns="http://www.w3.org/2000/svg" xmlns:xlink="http://www.w3.org/1999/xlink">
<g id="graph0" class="graph" transform="scale(1 1) rotate(0) translate(4 1188.67)">
<title>TTrainController::LoadSessionTrains</title>
<polygon fill="white" stroke="transparent" points="-4,4 -4,-1188.67 1258,-1188.67 1258,4 -4,4"/>
<!-- Node1 -->
<g id="node1" class="node">
<title>Node1</title>
<g id="a_node1"><a xlink:title="load trains from a session file">
<polygon fill="#bfbfbf" stroke="black" points="0,-614.5 0,-644.5 146,-644.5 146,-614.5 0,-614.5"/>
<text text-anchor="start" x="8" y="-632.5" font-family="Helvetica,sans-Serif" font-size="10.00">TTrainController::LoadSession</text>
<text text-anchor="middle" x="73" y="-621.5" font-family="Helvetica,sans-Serif" font-size="10.00">Trains</text>
</a>
</g>
</g>
<!-- Node2 -->
<g id="node2" class="node">
<title>Node2</title>
<g id="a_node2"><a xlink:href="class_t_utilities.html#ae1eddca13cc3c492839e131f40ec21c0" target="_top" xlink:title="&lt; specifies whether no delays or minor, moderate or major random delays are to be applied">
<polygon fill="white" stroke="black" points="1135,-747 1135,-766 1245,-766 1245,-747 1135,-747"/>
<text text-anchor="middle" x="1190" y="-754" font-family="Helvetica,sans-Serif" font-size="10.00">TUtilities::CallLogPop</text>
</a>
</g>
</g>
<!-- Node1&#45;&gt;Node2 -->
<g id="edge1" class="edge">
<title>Node1&#45;&gt;Node2</title>
<path fill="none" stroke="midnightblue" d="M75.97,-644.52C88.49,-732.83 164.85,-1180.5 427,-1180.5 427,-1180.5 427,-1180.5 806,-1180.5 935.1,-1180.5 996.25,-1208.26 1090,-1119.5 1141.34,-1070.89 1176.64,-844.92 1186.32,-776.31"/>
<polygon fill="midnightblue" stroke="midnightblue" points="1189.84,-776.43 1187.74,-766.04 1182.9,-775.47 1189.84,-776.43"/>
</g>
<!-- Node3 -->
<g id="node3" class="node">
<title>Node3</title>
<g id="a_node3"><a xlink:href="class_t_utilities.html#a84bf39701305cf4814377d178d0fec8c" target="_top" xlink:title="loads an int value from the file">
<polygon fill="white" stroke="black" points="374.5,-54 374.5,-73 481.5,-73 481.5,-54 374.5,-54"/>
<text text-anchor="middle" x="428" y="-61" font-family="Helvetica,sans-Serif" font-size="10.00">TUtilities::LoadFileInt</text>
</a>
</g>
</g>
<!-- Node1&#45;&gt;Node3 -->
<g id="edge2" class="edge">
<title>Node1&#45;&gt;Node3</title>
<path fill="none" stroke="midnightblue" d="M77.83,-614.05C96.18,-543.05 181.84,-244.88 362,-87.5 366.58,-83.49 371.9,-80.13 377.47,-77.32"/>
<polygon fill="midnightblue" stroke="midnightblue" points="379.29,-80.34 387.01,-73.08 376.45,-73.94 379.29,-80.34"/>
</g>
<!-- Node4 -->
<g id="node4" class="node">
<title>Node4</title>
<g id="a_node4"><a xlink:href="class_t_train.html#a23c65e7f2b2130ae87811f70afb6d5bf" target="_top" xlink:title="Create one train with relevant member values from the sesion file.">
<polygon fill="white" stroke="black" points="182,-760 182,-779 326,-779 326,-760 182,-760"/>
<text text-anchor="middle" x="254" y="-767" font-family="Helvetica,sans-Serif" font-size="10.00">TTrain::LoadOneSessionTrain</text>
</a>
</g>
</g>
<!-- Node1&#45;&gt;Node4 -->
<g id="edge3" class="edge">
<title>Node1&#45;&gt;Node4</title>
<path fill="none" stroke="midnightblue" d="M93.5,-644.75C127.58,-671.4 197.66,-726.22 232.46,-753.43"/>
<polygon fill="midnightblue" stroke="midnightblue" points="230.47,-756.32 240.51,-759.73 234.79,-750.81 230.47,-756.32"/>
</g>
<!-- Node6 -->
<g id="node6" class="node">
<title>Node6</title>
<g id="a_node6"><a xlink:href="class_t_utilities.html#a34bd6bb5305bc29afdf424f6d35a921c" target="_top" xlink:title="creates a string of the form &#39;hh:mm:ss&#39; for use in call &amp; event logging">
<polygon fill="white" stroke="black" points="1135,-401 1135,-420 1245,-420 1245,-401 1135,-401"/>
<text text-anchor="middle" x="1190" y="-408" font-family="Helvetica,sans-Serif" font-size="10.00">TUtilities::TimeStamp</text>
</a>
</g>
</g>
<!-- Node1&#45;&gt;Node6 -->
<g id="edge71" class="edge">
<title>Node1&#45;&gt;Node6</title>
<path fill="none" stroke="midnightblue" d="M75.49,-614.28C83.11,-539.27 119.73,-209.23 182,-130.5 255.48,-37.57 308.53,-25.5 427,-25.5 427,-25.5 427,-25.5 806,-25.5 932.38,-25.5 991.93,40.21 1090,-39.5 1139.19,-79.47 1109.73,-116.24 1126,-177.5 1147.04,-256.72 1172.71,-350.91 1183.65,-390.94"/>
<polygon fill="midnightblue" stroke="midnightblue" points="1180.31,-392.02 1186.33,-400.74 1187.07,-390.17 1180.31,-392.02"/>
</g>
<!-- Node4&#45;&gt;Node2 -->
<g id="edge4" class="edge">
<title>Node4&#45;&gt;Node2</title>
<path fill="none" stroke="midnightblue" d="M254.7,-779.19C253.86,-824.5 256.79,-1017.02 362,-1106.5 445.67,-1177.66 496.66,-1142.5 606.5,-1142.5 606.5,-1142.5 606.5,-1142.5 806,-1142.5 936.33,-1142.5 995.36,-1159.09 1090,-1069.5 1176.36,-987.74 1187.71,-831.32 1188.96,-776.26"/>
<polygon fill="midnightblue" stroke="midnightblue" points="1192.46,-776.16 1189.09,-766.12 1185.46,-776.07 1192.46,-776.16"/>
</g>
<!-- Node4&#45;&gt;Node3 -->
<g id="edge25" class="edge">
<title>Node4&#45;&gt;Node3</title>
<path fill="none" stroke="midnightblue" d="M256.24,-759.76C266.65,-678.47 339.45,-115.02 362,-87.5 365.08,-83.74 368.8,-80.57 372.89,-77.9"/>
<polygon fill="midnightblue" stroke="midnightblue" points="374.61,-80.95 381.71,-73.08 371.26,-74.8 374.61,-80.95"/>
</g>
<!-- Node5 -->
<g id="node5" class="node">
<title>Node5</title>
<g id="a_node5"><a xlink:href="class_t_rail_graphics.html#ad6db946801b17d5d4b462bc2c95ebfbd" target="_top" xlink:title="New function to do the same as the above but with fewer pixel changes &#45; for use in LoadSession to avo...">
<polygon fill="white" stroke="black" points="925,-187.5 925,-217.5 1090,-217.5 1090,-187.5 925,-187.5"/>
<text text-anchor="start" x="933" y="-205.5" font-family="Helvetica,sans-Serif" font-size="10.00">TRailGraphics::ChangeForeground</text>
<text text-anchor="middle" x="1007.5" y="-194.5" font-family="Helvetica,sans-Serif" font-size="10.00">Colour2</text>
</a>
</g>
</g>
<!-- Node4&#45;&gt;Node5 -->
<g id="edge5" class="edge">
<title>Node4&#45;&gt;Node5</title>
<path fill="none" stroke="midnightblue" d="M257.18,-759.57C265.58,-722.97 298.58,-593.25 362,-506.5 476.44,-349.94 539.11,-325.75 721,-258.5 783.68,-235.32 857.83,-221.14 914.85,-212.85"/>
<polygon fill="midnightblue" stroke="midnightblue" points="915.52,-216.29 924.93,-211.42 914.54,-209.36 915.52,-216.29"/>
</g>
<!-- Node4&#45;&gt;Node6 -->
<g id="edge69" class="edge">
<title>Node4&#45;&gt;Node6</title>
<path fill="none" stroke="midnightblue" d="M255.17,-759.94C256.49,-712.43 267.61,-498.42 362,-362.5 473.34,-202.17 536.9,-174.37 721,-109.5 875.77,-54.96 957.66,0.54 1090,-96.5 1114.84,-114.71 1168.03,-324.83 1184.22,-390.8"/>
<polygon fill="midnightblue" stroke="midnightblue" points="1180.88,-391.86 1186.65,-400.74 1187.68,-390.2 1180.88,-391.86"/>
</g>
<!-- Node7 -->
<g id="node7" class="node">
<title>Node7</title>
<g id="a_node7"><a xlink:href="class_t_train_controller.html#a1925032d5e41decf4befc07b35521d3c" target="_top" xlink:title="Returns true if the location name complies with requirements.">
<polygon fill="white" stroke="black" points="530,-914.5 530,-944.5 685,-944.5 685,-914.5 530,-914.5"/>
<text text-anchor="start" x="538" y="-932.5" font-family="Helvetica,sans-Serif" font-size="10.00">TTrainController::CheckLocation</text>
<text text-anchor="middle" x="607.5" y="-921.5" font-family="Helvetica,sans-Serif" font-size="10.00">Validity</text>
</a>
</g>
</g>
<!-- Node4&#45;&gt;Node7 -->
<g id="edge8" class="edge">
<title>Node4&#45;&gt;Node7</title>
<path fill="none" stroke="midnightblue" d="M274.13,-779.09C318.6,-801.27 432.55,-857.41 530,-899.5 538.75,-903.28 548.14,-907.12 557.24,-910.75"/>
<polygon fill="midnightblue" stroke="midnightblue" points="556,-914.02 566.59,-914.43 558.57,-907.51 556,-914.02"/>
</g>
<!-- Node9 -->
<g id="node9" class="node">
<title>Node9</title>
<g id="a_node9"><a xlink:href="class_t_track.html#ad377e5a1f152f2e89832c0f9bcfd261f" target="_top" xlink:title="A range&#45;checked version of TrackVector.at(At)">
<polygon fill="white" stroke="black" points="946.5,-905 946.5,-924 1068.5,-924 1068.5,-905 946.5,-905"/>
<text text-anchor="middle" x="1007.5" y="-912" font-family="Helvetica,sans-Serif" font-size="10.00">TTrack::TrackElementAt</text>
</a>
</g>
</g>
<!-- Node4&#45;&gt;Node9 -->
<g id="edge70" class="edge">
<title>Node4&#45;&gt;Node9</title>
<path fill="none" stroke="midnightblue" d="M263.73,-779.05C281.11,-797.71 321.87,-839.61 362,-867.5 430.88,-915.37 448.45,-933.84 530,-953.5 605.29,-971.65 824.03,-942.61 937.06,-925.54"/>
<polygon fill="midnightblue" stroke="midnightblue" points="937.64,-928.99 947,-924.03 936.59,-922.07 937.64,-928.99"/>
</g>
<!-- Node12 -->
<g id="node12" class="node">
<title>Node12</title>
<g id="a_node12"><a xlink:href="class_t_utilities.html#a9a0ec4d0c686c71157c371d647824777" target="_top" xlink:title="loads a bool value from the file">
<polygon fill="white" stroke="black" points="370,-1078 370,-1097 486,-1097 486,-1078 370,-1078"/>
<text text-anchor="middle" x="428" y="-1085" font-family="Helvetica,sans-Serif" font-size="10.00">TUtilities::LoadFileBool</text>
</a>
</g>
</g>
<!-- Node4&#45;&gt;Node12 -->
<g id="edge22" class="edge">
<title>Node4&#45;&gt;Node12</title>
<path fill="none" stroke="midnightblue" d="M255.66,-779.16C258.94,-819.7 276.93,-978.03 362,-1063.5 365.92,-1067.44 370.55,-1070.74 375.5,-1073.51"/>
<polygon fill="midnightblue" stroke="midnightblue" points="374.15,-1076.74 384.68,-1077.92 377.18,-1070.43 374.15,-1076.74"/>
</g>
<!-- Node13 -->
<g id="node13" class="node">
<title>Node13</title>
<g id="a_node13"><a xlink:href="class_t_utilities.html#ac970a0df84f5cb26ed962020b7dc2d6d" target="_top" xlink:title="loads a double value from the file (converts from a string to a double) and uses the local decimal po...">
<polygon fill="white" stroke="black" points="364.5,-1002 364.5,-1021 491.5,-1021 491.5,-1002 364.5,-1002"/>
<text text-anchor="middle" x="428" y="-1009" font-family="Helvetica,sans-Serif" font-size="10.00">TUtilities::LoadFileDouble</text>
</a>
</g>
</g>
<!-- Node4&#45;&gt;Node13 -->
<g id="edge23" class="edge">
<title>Node4&#45;&gt;Node13</title>
<path fill="none" stroke="midnightblue" d="M257.07,-779.33C264.7,-813.24 294.39,-926.49 362,-987.5 366.46,-991.52 371.66,-994.89 377.13,-997.71"/>
<polygon fill="midnightblue" stroke="midnightblue" points="375.97,-1001.02 386.53,-1001.94 378.85,-994.64 375.97,-1001.02"/>
</g>
<!-- Node14 -->
<g id="node14" class="node">
<title>Node14</title>
<g id="a_node14"><a xlink:href="class_t_utilities.html#a0aac90f10a08736514da3b3e02129e1e" target="_top" xlink:title="loads a string value from the file">
<polygon fill="white" stroke="black" points="546.5,-1095 546.5,-1114 668.5,-1114 668.5,-1095 546.5,-1095"/>
<text text-anchor="middle" x="607.5" y="-1102" font-family="Helvetica,sans-Serif" font-size="10.00">TUtilities::LoadFileString</text>
</a>
</g>
</g>
<!-- Node4&#45;&gt;Node14 -->
<g id="edge26" class="edge">
<title>Node4&#45;&gt;Node14</title>
<path fill="none" stroke="midnightblue" d="M255.96,-779C260.32,-816.87 281.61,-958.4 362,-1030.5 407.45,-1071.26 435.7,-1050.4 494,-1068.5 510.11,-1073.5 513.95,-1075.31 530,-1080.5 541.57,-1084.24 554.16,-1088.23 565.72,-1091.85"/>
<polygon fill="midnightblue" stroke="midnightblue" points="564.98,-1095.29 575.57,-1094.93 567.07,-1088.6 564.98,-1095.29"/>
</g>
<!-- Node15 -->
<g id="node15" class="node">
<title>Node15</title>
<g id="a_node15"><a xlink:href="class_t_train.html#af92ae73f1be23475e7ae424306cd4866" target="_top" xlink:title="Store the background bitmap pointer (BackgroundPtr &#45; see above) prior to being overwritten by the tra...">
<polygon fill="white" stroke="black" points="362,-685.5 362,-715.5 494,-715.5 494,-685.5 362,-685.5"/>
<text text-anchor="start" x="370" y="-703.5" font-family="Helvetica,sans-Serif" font-size="10.00">TTrain::PickUpBackground</text>
<text text-anchor="middle" x="428" y="-692.5" font-family="Helvetica,sans-Serif" font-size="10.00">Bitmap</text>
</a>
</g>
</g>
<!-- Node4&#45;&gt;Node15 -->
<g id="edge27" class="edge">
<title>Node4&#45;&gt;Node15</title>
<path fill="none" stroke="midnightblue" d="M278.92,-759.9C304.96,-749.46 347.27,-732.48 380.01,-719.35"/>
<polygon fill="midnightblue" stroke="midnightblue" points="381.42,-722.55 389.4,-715.58 378.82,-716.06 381.42,-722.55"/>
</g>
<!-- Node24 -->
<g id="node24" class="node">
<title>Node24</title>
<g id="a_node24"><a xlink:href="class_t_train.html#a594228489e522dfde0ffbe124cd27103" target="_top" xlink:title="Set the four HeadCodeGrPtr[4] pointers to the appropriate character graphics with the current backgro...">
<polygon fill="white" stroke="black" points="533.5,-376 533.5,-395 681.5,-395 681.5,-376 533.5,-376"/>
<text text-anchor="middle" x="607.5" y="-383" font-family="Helvetica,sans-Serif" font-size="10.00">TTrain::SetHeadCodeGraphics</text>
</a>
</g>
</g>
<!-- Node4&#45;&gt;Node24 -->
<g id="edge56" class="edge">
<title>Node4&#45;&gt;Node24</title>
<path fill="none" stroke="midnightblue" d="M264.04,-759.62C311.24,-708.06 529.47,-469.65 590.57,-402.9"/>
<polygon fill="midnightblue" stroke="midnightblue" points="593.35,-405.05 597.52,-395.31 588.18,-400.32 593.35,-405.05"/>
</g>
<!-- Node5&#45;&gt;Node2 -->
<g id="edge6" class="edge">
<title>Node5&#45;&gt;Node2</title>
<path fill="none" stroke="midnightblue" d="M1024.64,-217.67C1043.29,-236.14 1073.54,-269.16 1090,-303.5 1109.32,-343.8 1169.61,-655.02 1185.26,-736.84"/>
<polygon fill="midnightblue" stroke="midnightblue" points="1181.85,-737.65 1187.16,-746.81 1188.73,-736.33 1181.85,-737.65"/>
</g>
<!-- Node5&#45;&gt;Node6 -->
<g id="edge7" class="edge">
<title>Node5&#45;&gt;Node6</title>
<path fill="none" stroke="midnightblue" d="M1065.74,-217.6C1074.46,-221.52 1082.9,-226.42 1090,-232.5 1141.61,-276.68 1171.52,-354.8 1183.22,-391.03"/>
<polygon fill="midnightblue" stroke="midnightblue" points="1179.97,-392.34 1186.28,-400.85 1186.65,-390.26 1179.97,-392.34"/>
</g>
<!-- Node7&#45;&gt;Node2 -->
<g id="edge9" class="edge">
<title>Node7&#45;&gt;Node2</title>
<path fill="none" stroke="midnightblue" d="M617.66,-944.54C634.39,-970.4 672.68,-1022.42 721,-1042.5 745.74,-1052.78 1087.15,-1038.57 1090,-1036.5 1176.34,-973.5 1187.77,-828.94 1188.99,-776.21"/>
<polygon fill="midnightblue" stroke="midnightblue" points="1192.49,-776.2 1189.12,-766.15 1185.49,-776.11 1192.49,-776.2"/>
</g>
<!-- Node7&#45;&gt;Node6 -->
<g id="edge10" class="edge">
<title>Node7&#45;&gt;Node6</title>
<path fill="none" stroke="midnightblue" d="M612.27,-914.31C623.74,-867.98 658.99,-724.3 685,-604.5 702.4,-524.34 659.02,-477.22 721,-423.5 779.58,-372.72 1010.68,-390.39 1124.69,-402.7"/>
<polygon fill="midnightblue" stroke="midnightblue" points="1124.36,-406.19 1134.69,-403.8 1125.13,-399.23 1124.36,-406.19"/>
</g>
<!-- Node8 -->
<g id="node8" class="node">
<title>Node8</title>
<g id="a_node8"><a xlink:href="class_t_track.html#addd8e149e66c99a295541c9eda13eae4" target="_top" xlink:title="True if a non&#45;empty LocationName found as a timetabled location name i.e. not as a continuation name.">
<polygon fill="white" stroke="black" points="737,-1002.5 737,-1032.5 873,-1032.5 873,-1002.5 737,-1002.5"/>
<text text-anchor="start" x="745" y="-1020.5" font-family="Helvetica,sans-Serif" font-size="10.00">TTrack::TimetabledLocation</text>
<text text-anchor="middle" x="805" y="-1009.5" font-family="Helvetica,sans-Serif" font-size="10.00">NameAllocated</text>
</a>
</g>
</g>
<!-- Node7&#45;&gt;Node8 -->
<g id="edge11" class="edge">
<title>Node7&#45;&gt;Node8</title>
<path fill="none" stroke="midnightblue" d="M642.11,-944.63C675.08,-959.47 725.48,-982.15 761.28,-998.27"/>
<polygon fill="midnightblue" stroke="midnightblue" points="759.95,-1001.51 770.5,-1002.42 762.82,-995.12 759.95,-1001.51"/>
</g>
<!-- Node10 -->
<g id="node10" class="node">
<title>Node10</title>
<g id="a_node10"><a xlink:href="class_t_train_controller.html#a68d2124bc8f7df43e973299e0afb3dcd" target="_top" xlink:title="Sends a message to the user if GiveMessages is true, including ServiceReference (see above) if not nu...">
<polygon fill="white" stroke="black" points="739,-741.5 739,-771.5 871,-771.5 871,-741.5 739,-741.5"/>
<text text-anchor="start" x="747" y="-759.5" font-family="Helvetica,sans-Serif" font-size="10.00">TTrainController::Timetable</text>
<text text-anchor="middle" x="805" y="-748.5" font-family="Helvetica,sans-Serif" font-size="10.00">Message</text>
</a>
</g>
</g>
<!-- Node7&#45;&gt;Node10 -->
<g id="edge17" class="edge">
<title>Node7&#45;&gt;Node10</title>
<path fill="none" stroke="midnightblue" d="M624.28,-914.42C645.83,-893.94 685.8,-856.36 721,-825.5 739.48,-809.3 760.8,-791.59 777.21,-778.17"/>
<polygon fill="midnightblue" stroke="midnightblue" points="779.77,-780.6 785.3,-771.57 775.34,-775.18 779.77,-780.6"/>
</g>
<!-- Node8&#45;&gt;Node2 -->
<g id="edge12" class="edge">
<title>Node8&#45;&gt;Node2</title>
<path fill="none" stroke="midnightblue" d="M867.84,-1032.54C929.91,-1043.85 1025.35,-1050.49 1090,-1004.5 1167.11,-949.64 1184.19,-824.58 1187.95,-776.16"/>
<polygon fill="midnightblue" stroke="midnightblue" points="1191.45,-776.27 1188.62,-766.06 1184.47,-775.81 1191.45,-776.27"/>
</g>
<!-- Node8&#45;&gt;Node6 -->
<g id="edge13" class="edge">
<title>Node8&#45;&gt;Node6</title>
<path fill="none" stroke="midnightblue" d="M873.03,-1005.99C947.5,-991.83 1061.08,-965.66 1090,-933.5 1149.22,-867.64 1109.62,-824.54 1126,-737.5 1147.97,-620.76 1175.25,-480.77 1185.17,-430.05"/>
<polygon fill="midnightblue" stroke="midnightblue" points="1188.63,-430.61 1187.11,-420.12 1181.76,-429.26 1188.63,-430.61"/>
</g>
<!-- Node8&#45;&gt;Node9 -->
<g id="edge14" class="edge">
<title>Node8&#45;&gt;Node9</title>
<path fill="none" stroke="midnightblue" d="M853.24,-1002.36C865.12,-998.03 877.69,-992.98 889,-987.5 924.1,-970.48 961.97,-945.67 984.95,-929.8"/>
<polygon fill="midnightblue" stroke="midnightblue" points="987.08,-932.59 993.28,-924 983.08,-926.85 987.08,-932.59"/>
</g>
<!-- Node9&#45;&gt;Node2 -->
<g id="edge15" class="edge">
<title>Node9&#45;&gt;Node2</title>
<path fill="none" stroke="midnightblue" d="M1059.52,-904.98C1070.19,-901.52 1080.94,-896.84 1090,-890.5 1133.46,-860.09 1165.46,-804.49 1180.11,-775.39"/>
<polygon fill="midnightblue" stroke="midnightblue" points="1183.31,-776.81 1184.56,-766.29 1177.03,-773.73 1183.31,-776.81"/>
</g>
<!-- Node9&#45;&gt;Node6 -->
<g id="edge16" class="edge">
<title>Node9&#45;&gt;Node6</title>
<path fill="none" stroke="midnightblue" d="M1019,-904.79C1036.45,-888.07 1071.33,-851.99 1090,-814.5 1158.2,-677.56 1181.32,-490.6 1187.27,-430.18"/>
<polygon fill="midnightblue" stroke="midnightblue" points="1190.76,-430.41 1188.21,-420.13 1183.79,-429.76 1190.76,-430.41"/>
</g>
<!-- Node11 -->
<g id="node11" class="node">
<title>Node11</title>
<g id="a_node11"><a xlink:href="class_t_train_controller.html#a1ccd6c8f2c24e7417889e1a91cb9ca2f" target="_top" xlink:title="Returns true if the headcode complies with requirements.">
<polygon fill="white" stroke="black" points="937.5,-741.5 937.5,-771.5 1077.5,-771.5 1077.5,-741.5 937.5,-741.5"/>
<text text-anchor="start" x="945.5" y="-759.5" font-family="Helvetica,sans-Serif" font-size="10.00">TTrainController::CheckHead</text>
<text text-anchor="middle" x="1007.5" y="-748.5" font-family="Helvetica,sans-Serif" font-size="10.00">CodeValidity</text>
</a>
</g>
</g>
<!-- Node10&#45;&gt;Node11 -->
<g id="edge18" class="edge">
<title>Node10&#45;&gt;Node11</title>
<path fill="none" stroke="midnightblue" d="M871.1,-750.13C888.95,-749.73 908.5,-749.64 927.05,-749.88"/>
<polygon fill="midnightblue" stroke="midnightblue" points="927.19,-753.38 937.24,-750.04 927.3,-746.38 927.19,-753.38"/>
</g>
<!-- Node11&#45;&gt;Node2 -->
<g id="edge19" class="edge">
<title>Node11&#45;&gt;Node2</title>
<path fill="none" stroke="midnightblue" d="M1077.51,-756.5C1092.96,-756.5 1109.28,-756.5 1124.53,-756.5"/>
<polygon fill="midnightblue" stroke="midnightblue" points="1124.9,-760 1134.9,-756.5 1124.9,-753 1124.9,-760"/>
</g>
<!-- Node11&#45;&gt;Node6 -->
<g id="edge20" class="edge">
<title>Node11&#45;&gt;Node6</title>
<path fill="none" stroke="midnightblue" d="M1034.89,-741.35C1052.67,-729.95 1075.44,-712.83 1090,-692.5 1151.52,-606.57 1177.81,-478.87 1185.99,-430.26"/>
<polygon fill="midnightblue" stroke="midnightblue" points="1189.49,-430.58 1187.62,-420.15 1182.57,-429.47 1189.49,-430.58"/>
</g>
<!-- Node11&#45;&gt;Node10 -->
<g id="edge21" class="edge">
<title>Node11&#45;&gt;Node10</title>
<path fill="none" stroke="midnightblue" d="M937.24,-762.95C919.15,-763.31 899.56,-763.34 881.17,-763.06"/>
<polygon fill="midnightblue" stroke="midnightblue" points="881.16,-759.56 871.1,-762.86 881.03,-766.55 881.16,-759.56"/>
</g>
<!-- Node13&#45;&gt;Node14 -->
<g id="edge24" class="edge">
<title>Node13&#45;&gt;Node14</title>
<path fill="none" stroke="midnightblue" d="M465.48,-1021.06C475.29,-1024.64 485.51,-1029.38 494,-1035.5 514.77,-1050.48 508.86,-1066.03 530,-1080.5 536.46,-1084.92 543.78,-1088.56 551.26,-1091.54"/>
<polygon fill="midnightblue" stroke="midnightblue" points="550.18,-1094.87 560.77,-1094.98 552.56,-1088.29 550.18,-1094.87"/>
</g>
<!-- Node15&#45;&gt;Node2 -->
<g id="edge43" class="edge">
<title>Node15&#45;&gt;Node2</title>
<path fill="none" stroke="midnightblue" d="M431.38,-715.78C438.71,-758.31 464.54,-879.75 530,-953.5 594.17,-1025.78 627.33,-1033.65 721,-1057.5 746.82,-1064.07 1088.58,-1054.55 1090,-1053.5 1181.34,-986.27 1189.55,-831.33 1189.47,-776.31"/>
<polygon fill="midnightblue" stroke="midnightblue" points="1192.96,-776.12 1189.35,-766.16 1185.96,-776.2 1192.96,-776.12"/>
</g>
<!-- Node15&#45;&gt;Node6 -->
<g id="edge54" class="edge">
<title>Node15&#45;&gt;Node6</title>
<path fill="none" stroke="midnightblue" d="M430.48,-685.2C437.63,-614.04 470.74,-316.09 530,-247.5 589.41,-178.73 633.35,-198.52 721,-174.5 879.88,-130.96 955,-45.09 1090,-139.5 1133.29,-169.77 1172.46,-334.15 1184.9,-391.08"/>
<polygon fill="midnightblue" stroke="midnightblue" points="1181.5,-391.92 1187.03,-400.96 1188.35,-390.45 1181.5,-391.92"/>
</g>
<!-- Node15&#45;&gt;Node9 -->
<g id="edge55" class="edge">
<title>Node15&#45;&gt;Node9</title>
<path fill="none" stroke="midnightblue" d="M443.24,-715.61C461.81,-734.69 495.97,-767.66 530,-789.5 608.2,-839.68 631.68,-848.91 721,-874.5 792.72,-895.04 877.7,-905.22 936.2,-910.14"/>
<polygon fill="midnightblue" stroke="midnightblue" points="936.19,-913.65 946.44,-910.97 936.75,-906.68 936.19,-913.65"/>
</g>
<!-- Node16 -->
<g id="node16" class="node">
<title>Node16</title>
<g id="a_node16"><a xlink:href="class_t_track.html#af0a13922e664c99defc573f080956bb9" target="_top" xlink:title="Checks BarrierDownVector and returns true if there is one that is linked to the LC at H &amp; V positions...">
<polygon fill="white" stroke="black" points="544.5,-565.5 544.5,-595.5 670.5,-595.5 670.5,-565.5 544.5,-565.5"/>
<text text-anchor="start" x="552.5" y="-583.5" font-family="Helvetica,sans-Serif" font-size="10.00">TTrack::AnyLinkedBarrier</text>
<text text-anchor="middle" x="607.5" y="-572.5" font-family="Helvetica,sans-Serif" font-size="10.00">DownVectorManual</text>
</a>
</g>
</g>
<!-- Node15&#45;&gt;Node16 -->
<g id="edge28" class="edge">
<title>Node15&#45;&gt;Node16</title>
<path fill="none" stroke="midnightblue" d="M442.73,-685.29C461.03,-665.78 495.18,-631.89 530,-610.5 536.58,-606.46 543.8,-602.78 551.09,-599.5"/>
<polygon fill="midnightblue" stroke="midnightblue" points="552.51,-602.7 560.33,-595.56 549.76,-596.26 552.51,-602.7"/>
</g>
<!-- Node19 -->
<g id="node19" class="node">
<title>Node19</title>
<g id="a_node19"><a xlink:href="class_t_track.html#a418966e6fefb71b9d0c9b941197832da" target="_top" xlink:title="Similar to GetVectorPositionFromTrackMap but for inactive elements, a pair is returned because there ...">
<polygon fill="white" stroke="black" points="939,-653.5 939,-683.5 1076,-683.5 1076,-653.5 939,-653.5"/>
<text text-anchor="start" x="947" y="-671.5" font-family="Helvetica,sans-Serif" font-size="10.00">TTrack::GetVectorPositions</text>
<text text-anchor="middle" x="1007.5" y="-660.5" font-family="Helvetica,sans-Serif" font-size="10.00">FromInactiveTrackMap</text>
</a>
</g>
</g>
<!-- Node15&#45;&gt;Node19 -->
<g id="edge52" class="edge">
<title>Node15&#45;&gt;Node19</title>
<path fill="none" stroke="midnightblue" d="M494.21,-699.22C583.44,-697.14 748.53,-692.16 889,-681.5 901.88,-680.52 915.54,-679.24 928.8,-677.86"/>
<polygon fill="midnightblue" stroke="midnightblue" points="929.28,-681.33 938.85,-676.79 928.53,-674.37 929.28,-681.33"/>
</g>
<!-- Node20 -->
<g id="node20" class="node">
<title>Node20</title>
<g id="a_node20"><a xlink:href="class_t_track.html#a51f89cf70e94b037f6378cd78003d82b" target="_top" xlink:title="A range&#45;checked version of InactiveTrackVector.at(At)">
<polygon fill="white" stroke="black" points="930.5,-615 930.5,-634 1084.5,-634 1084.5,-615 930.5,-615"/>
<text text-anchor="middle" x="1007.5" y="-622" font-family="Helvetica,sans-Serif" font-size="10.00">TTrack::InactiveTrackElementAt</text>
</a>
</g>
</g>
<!-- Node15&#45;&gt;Node20 -->
<g id="edge53" class="edge">
<title>Node15&#45;&gt;Node20</title>
<path fill="none" stroke="midnightblue" d="M493.56,-685.46C552.48,-672.32 642.12,-653.78 721,-643.5 787.57,-634.82 863.41,-630.01 920.19,-627.4"/>
<polygon fill="midnightblue" stroke="midnightblue" points="920.37,-630.9 930.2,-626.96 920.06,-623.9 920.37,-630.9"/>
</g>
<!-- Node21 -->
<g id="node21" class="node">
<title>Node21</title>
<g id="a_node21"><a xlink:href="class_t_track.html#a28019284fc6a90e06fc4b27e011484fa" target="_top" xlink:title="Return a pointer to the point fillet (the bit that appears to move when points are changed) for the p...">
<polygon fill="white" stroke="black" points="946.5,-149 946.5,-168 1068.5,-168 1068.5,-149 946.5,-149"/>
<text text-anchor="middle" x="1007.5" y="-156" font-family="Helvetica,sans-Serif" font-size="10.00">TTrack::GetFilletGraphic</text>
</a>
</g>
</g>
<!-- Node15&#45;&gt;Node21 -->
<g id="edge44" class="edge">
<title>Node15&#45;&gt;Node21</title>
<path fill="none" stroke="midnightblue" d="M429.68,-685.37C432.69,-634.65 448.62,-468.19 530,-366.5 632.85,-237.98 830.98,-187.01 936.44,-168.32"/>
<polygon fill="midnightblue" stroke="midnightblue" points="937.09,-171.76 946.35,-166.62 935.9,-164.87 937.09,-171.76"/>
</g>
<!-- Node23 -->
<g id="node23" class="node">
<title>Node23</title>
<g id="a_node23"><a xlink:href="class_t_all_routes.html#afbb161c646677f13755041b895a23982" target="_top" xlink:title="Examines Route2MultiMap for the element at TrackVectorPosition with LinkPos (can be entry or exit).">
<polygon fill="white" stroke="black" points="739,-835.5 739,-865.5 871,-865.5 871,-835.5 739,-835.5"/>
<text text-anchor="start" x="747" y="-853.5" font-family="Helvetica,sans-Serif" font-size="10.00">TAllRoutes::GetRouteType</text>
<text text-anchor="middle" x="805" y="-842.5" font-family="Helvetica,sans-Serif" font-size="10.00">AndGraphics</text>
</a>
</g>
</g>
<!-- Node15&#45;&gt;Node23 -->
<g id="edge48" class="edge">
<title>Node15&#45;&gt;Node23</title>
<path fill="none" stroke="midnightblue" d="M464.31,-715.59C519.02,-738.83 627.69,-784.48 721,-820.5 730.86,-824.3 741.43,-828.23 751.61,-831.95"/>
<polygon fill="midnightblue" stroke="midnightblue" points="750.62,-835.31 761.22,-835.43 753.01,-828.73 750.62,-835.31"/>
</g>
<!-- Node16&#45;&gt;Node2 -->
<g id="edge29" class="edge">
<title>Node16&#45;&gt;Node2</title>
<path fill="none" stroke="midnightblue" d="M609.67,-595.59C614.23,-643.79 635.11,-795.53 721,-874.5 843.26,-986.91 946.74,-1017.52 1090,-933.5 1149.16,-898.8 1175.6,-814.44 1184.87,-776.07"/>
<polygon fill="midnightblue" stroke="midnightblue" points="1188.32,-776.68 1187.13,-766.15 1181.5,-775.12 1188.32,-776.68"/>
</g>
<!-- Node16&#45;&gt;Node6 -->
<g id="edge42" class="edge">
<title>Node16&#45;&gt;Node6</title>
<path fill="none" stroke="midnightblue" d="M613.23,-565.48C625.33,-529.33 660.8,-436.65 721,-384.5 794.73,-320.63 829.18,-321.82 925,-303.5 997.03,-289.72 1022.81,-274.12 1090,-303.5 1131.54,-321.65 1163.41,-366.78 1178.81,-392.25"/>
<polygon fill="midnightblue" stroke="midnightblue" points="1175.83,-394.09 1183.9,-400.96 1181.88,-390.56 1175.83,-394.09"/>
</g>
<!-- Node17 -->
<g id="node17" class="node">
<title>Node17</title>
<g id="a_node17"><a xlink:href="class_t_track.html#a6635891513167223f4b9aadd0121c312" target="_top" xlink:title="True if there is a vector entry at H &amp; V that is set to manual (TypeOfRoute == 2) and returns the vec...">
<polygon fill="white" stroke="black" points="937.5,-565.5 937.5,-595.5 1077.5,-595.5 1077.5,-565.5 937.5,-565.5"/>
<text text-anchor="start" x="945.5" y="-583.5" font-family="Helvetica,sans-Serif" font-size="10.00">TTrack::IsBarrierDownVector</text>
<text text-anchor="middle" x="1007.5" y="-572.5" font-family="Helvetica,sans-Serif" font-size="10.00">AtHVManual</text>
</a>
</g>
</g>
<!-- Node16&#45;&gt;Node17 -->
<g id="edge30" class="edge">
<title>Node16&#45;&gt;Node17</title>
<path fill="none" stroke="midnightblue" d="M670.69,-580.5C739.8,-580.5 851.59,-580.5 927.01,-580.5"/>
<polygon fill="midnightblue" stroke="midnightblue" points="927.4,-584 937.4,-580.5 927.4,-577 927.4,-584"/>
</g>
<!-- Node18 -->
<g id="node18" class="node">
<title>Node18</title>
<g id="a_node18"><a xlink:href="class_t_track.html#a73e781d0ada0b77618b886557f79b115" target="_top" xlink:title="True if a level crossing is found at H &amp; V.">
<polygon fill="white" stroke="black" points="757.5,-653 757.5,-672 852.5,-672 852.5,-653 757.5,-653"/>
<text text-anchor="middle" x="805" y="-660" font-family="Helvetica,sans-Serif" font-size="10.00">TTrack::IsLCAtHV</text>
</a>
</g>
</g>
<!-- Node16&#45;&gt;Node18 -->
<g id="edge33" class="edge">
<title>Node16&#45;&gt;Node18</title>
<path fill="none" stroke="midnightblue" d="M644.36,-595.54C680.83,-610.84 736.84,-634.33 771.9,-649.03"/>
<polygon fill="midnightblue" stroke="midnightblue" points="770.62,-652.29 781.2,-652.93 773.33,-645.84 770.62,-652.29"/>
</g>
<!-- Node17&#45;&gt;Node2 -->
<g id="edge31" class="edge">
<title>Node17&#45;&gt;Node2</title>
<path fill="none" stroke="midnightblue" d="M1073.31,-595.68C1079.23,-598.43 1084.91,-601.68 1090,-605.5 1136.84,-640.67 1168.05,-704.96 1181.49,-737.11"/>
<polygon fill="midnightblue" stroke="midnightblue" points="1178.37,-738.73 1185.36,-746.69 1184.86,-736.11 1178.37,-738.73"/>
</g>
<!-- Node17&#45;&gt;Node6 -->
<g id="edge32" class="edge">
<title>Node17&#45;&gt;Node6</title>
<path fill="none" stroke="midnightblue" d="M1027.76,-565.38C1044.58,-551.95 1069.46,-531.55 1090,-512.5 1120.83,-483.9 1154.47,-448.19 1173.53,-427.5"/>
<polygon fill="midnightblue" stroke="midnightblue" points="1176.13,-429.84 1180.31,-420.1 1170.97,-425.11 1176.13,-429.84"/>
</g>
<!-- Node18&#45;&gt;Node2 -->
<g id="edge34" class="edge">
<title>Node18&#45;&gt;Node2</title>
<path fill="none" stroke="midnightblue" d="M843.22,-672.03C866.66,-678 897.58,-685.8 925,-692.5 998.2,-710.37 1016.8,-713.61 1090,-731.5 1106.97,-735.65 1125.55,-740.3 1141.97,-744.47"/>
<polygon fill="midnightblue" stroke="midnightblue" points="1141.34,-747.92 1151.89,-746.98 1143.06,-741.13 1141.34,-747.92"/>
</g>
<!-- Node18&#45;&gt;Node6 -->
<g id="edge41" class="edge">
<title>Node18&#45;&gt;Node6</title>
<path fill="none" stroke="midnightblue" d="M814.78,-652.88C833.49,-632.78 879.35,-585.7 925,-555.5 992.49,-510.84 1019.74,-518.65 1090,-478.5 1118.1,-462.44 1148.52,-440.85 1168.12,-426.35"/>
<polygon fill="midnightblue" stroke="midnightblue" points="1170.4,-429.01 1176.31,-420.23 1166.21,-423.41 1170.4,-429.01"/>
</g>
<!-- Node18&#45;&gt;Node19 -->
<g id="edge35" class="edge">
<title>Node18&#45;&gt;Node19</title>
<path fill="none" stroke="midnightblue" d="M852.5,-663.89C875.17,-664.57 903.05,-665.4 928.83,-666.17"/>
<polygon fill="midnightblue" stroke="midnightblue" points="928.87,-669.68 938.97,-666.48 929.08,-662.68 928.87,-669.68"/>
</g>
<!-- Node18&#45;&gt;Node20 -->
<g id="edge38" class="edge">
<title>Node18&#45;&gt;Node20</title>
<path fill="none" stroke="midnightblue" d="M852.5,-653.68C880.36,-648.4 916.07,-641.64 946.09,-635.95"/>
<polygon fill="midnightblue" stroke="midnightblue" points="946.86,-639.36 956.03,-634.06 945.56,-632.49 946.86,-639.36"/>
</g>
<!-- Node19&#45;&gt;Node2 -->
<g id="edge36" class="edge">
<title>Node19&#45;&gt;Node2</title>
<path fill="none" stroke="midnightblue" d="M1053.93,-683.6C1065.84,-688 1078.55,-693.09 1090,-698.5 1116.9,-711.2 1146.11,-728.83 1165.77,-741.3"/>
<polygon fill="midnightblue" stroke="midnightblue" points="1164.05,-744.35 1174.35,-746.8 1167.83,-738.46 1164.05,-744.35"/>
</g>
<!-- Node19&#45;&gt;Node6 -->
<g id="edge37" class="edge">
<title>Node19&#45;&gt;Node6</title>
<path fill="none" stroke="midnightblue" d="M1075.66,-653.39C1080.84,-650.63 1085.71,-647.36 1090,-643.5 1155.48,-584.5 1179.13,-474.95 1186.29,-430.26"/>
<polygon fill="midnightblue" stroke="midnightblue" points="1189.79,-430.54 1187.81,-420.14 1182.87,-429.51 1189.79,-430.54"/>
</g>
<!-- Node20&#45;&gt;Node2 -->
<g id="edge39" class="edge">
<title>Node20&#45;&gt;Node2</title>
<path fill="none" stroke="midnightblue" d="M1068.94,-634.06C1076.31,-636.52 1083.52,-639.61 1090,-643.5 1129.87,-667.41 1162.21,-712.8 1178.18,-738.17"/>
<polygon fill="midnightblue" stroke="midnightblue" points="1175.27,-740.12 1183.48,-746.82 1181.24,-736.47 1175.27,-740.12"/>
</g>
<!-- Node20&#45;&gt;Node6 -->
<g id="edge40" class="edge">
<title>Node20&#45;&gt;Node6</title>
<path fill="none" stroke="midnightblue" d="M1071.62,-614.94C1078.23,-612.26 1084.52,-608.84 1090,-604.5 1147.86,-558.68 1175.04,-469.95 1184.69,-430.38"/>
<polygon fill="midnightblue" stroke="midnightblue" points="1188.16,-430.92 1187,-420.39 1181.34,-429.35 1188.16,-430.92"/>
</g>
<!-- Node21&#45;&gt;Node2 -->
<g id="edge45" class="edge">
<title>Node21&#45;&gt;Node2</title>
<path fill="none" stroke="midnightblue" d="M1068.72,-163.71C1076.76,-166.76 1084.21,-171.18 1090,-177.5 1128.22,-219.2 1116.65,-373.71 1126,-429.5 1145.64,-546.65 1174.34,-686.39 1184.9,-736.99"/>
<polygon fill="midnightblue" stroke="midnightblue" points="1181.5,-737.83 1186.97,-746.9 1188.35,-736.39 1181.5,-737.83"/>
</g>
<!-- Node21&#45;&gt;Node6 -->
<g id="edge47" class="edge">
<title>Node21&#45;&gt;Node6</title>
<path fill="none" stroke="midnightblue" d="M1068.6,-165.58C1076.37,-168.41 1083.77,-172.26 1090,-177.5 1157.61,-234.33 1180.08,-345.53 1186.62,-390.7"/>
<polygon fill="midnightblue" stroke="midnightblue" points="1183.16,-391.25 1187.95,-400.7 1190.1,-390.32 1183.16,-391.25"/>
</g>
<!-- Node22 -->
<g id="node22" class="node">
<title>Node22</title>
<g id="a_node22"><a xlink:href="class_t_track_element.html#a100bff829c4dca820927affde4cb9e57" target="_top" xlink:title="Used to log track parameters for call stack logging.">
<polygon fill="white" stroke="black" points="1126,-149 1126,-168 1254,-168 1254,-149 1126,-149"/>
<text text-anchor="middle" x="1190" y="-156" font-family="Helvetica,sans-Serif" font-size="10.00">TTrackElement::LogTrack</text>
</a>
</g>
</g>
<!-- Node21&#45;&gt;Node22 -->
<g id="edge46" class="edge">
<title>Node21&#45;&gt;Node22</title>
<path fill="none" stroke="midnightblue" d="M1068.6,-158.5C1083.66,-158.5 1099.99,-158.5 1115.61,-158.5"/>
<polygon fill="midnightblue" stroke="midnightblue" points="1115.76,-162 1125.76,-158.5 1115.76,-155 1115.76,-162"/>
</g>
<!-- Node23&#45;&gt;Node2 -->
<g id="edge49" class="edge">
<title>Node23&#45;&gt;Node2</title>
<path fill="none" stroke="midnightblue" d="M871.24,-864.68C930.57,-874.46 1019.4,-881.11 1090,-852.5 1128.79,-836.78 1160.76,-797.77 1177.14,-774.6"/>
<polygon fill="midnightblue" stroke="midnightblue" points="1180.06,-776.54 1182.82,-766.31 1174.29,-772.58 1180.06,-776.54"/>
</g>
<!-- Node23&#45;&gt;Node6 -->
<g id="edge50" class="edge">
<title>Node23&#45;&gt;Node6</title>
<path fill="none" stroke="midnightblue" d="M871.08,-852.35C935.25,-850.54 1031.89,-837.47 1090,-780.5 1141.5,-730.01 1176.81,-499.42 1186.38,-430.2"/>
<polygon fill="midnightblue" stroke="midnightblue" points="1189.86,-430.58 1187.74,-420.2 1182.93,-429.64 1189.86,-430.58"/>
</g>
<!-- Node23&#45;&gt;Node9 -->
<g id="edge51" class="edge">
<title>Node23&#45;&gt;Node9</title>
<path fill="none" stroke="midnightblue" d="M849.39,-865.52C871.89,-873.2 899.85,-882.57 925,-890.5 937.43,-894.42 950.99,-898.49 963.42,-902.14"/>
<polygon fill="midnightblue" stroke="midnightblue" points="962.52,-905.53 973.11,-904.97 964.49,-898.81 962.52,-905.53"/>
</g>
<!-- Node24&#45;&gt;Node2 -->
<g id="edge57" class="edge">
<title>Node24&#45;&gt;Node2</title>
<path fill="none" stroke="midnightblue" d="M613.93,-395.11C628,-420.47 665.89,-491.62 685,-555.5 699.52,-604.01 682.47,-747.64 721,-780.5 783.4,-833.7 1008.58,-790.23 1090,-780.5 1109.23,-778.2 1130.12,-773.48 1147.74,-768.82"/>
<polygon fill="midnightblue" stroke="midnightblue" points="1148.97,-772.12 1157.69,-766.11 1147.13,-765.36 1148.97,-772.12"/>
</g>
<!-- Node24&#45;&gt;Node6 -->
<g id="edge68" class="edge">
<title>Node24&#45;&gt;Node6</title>
<path fill="none" stroke="midnightblue" d="M613.72,-375.88C627.46,-351.72 667.28,-288.77 721,-265.5 743.3,-255.84 1084.3,-267.46 1090,-270.5 1139.08,-296.68 1169.26,-359.24 1181.98,-391.11"/>
<polygon fill="midnightblue" stroke="midnightblue" points="1178.79,-392.56 1185.63,-400.65 1185.32,-390.06 1178.79,-392.56"/>
</g>
<!-- Node25 -->
<g id="node25" class="node">
<title>Node25</title>
<g id="a_node25"><a xlink:href="class_t_rail_graphics.html#af83b21217bb1c2a229bdf14b0d2ffd0d" target="_top" xlink:title="as above but uses Scanline">
<polygon fill="white" stroke="black" points="721,-433.5 721,-463.5 889,-463.5 889,-433.5 721,-433.5"/>
<text text-anchor="start" x="729" y="-451.5" font-family="Helvetica,sans-Serif" font-size="10.00">TRailGraphics::ChangeBackground</text>
<text text-anchor="middle" x="805" y="-440.5" font-family="Helvetica,sans-Serif" font-size="10.00">Colour3</text>
</a>
</g>
</g>
<!-- Node24&#45;&gt;Node25 -->
<g id="edge58" class="edge">
<title>Node24&#45;&gt;Node25</title>
<path fill="none" stroke="midnightblue" d="M638.19,-395.07C667.09,-404.38 711.75,-418.77 747.44,-430.27"/>
<polygon fill="midnightblue" stroke="midnightblue" points="746.66,-433.7 757.25,-433.43 748.81,-427.03 746.66,-433.7"/>
</g>
<!-- Node27 -->
<g id="node27" class="node">
<title>Node27</title>
<g id="a_node27"><a xlink:href="class_t_train.html#ad7831e71f0c68933df4aea6661a77be5" target="_top" xlink:title="Return a pointer to the graphic corresponding to the character &#39;CodeVhar&#39;.">
<polygon fill="white" stroke="black" points="736,-275 736,-294 874,-294 874,-275 736,-275"/>
<text text-anchor="middle" x="805" y="-282" font-family="Helvetica,sans-Serif" font-size="10.00">TTrain::SetOneGraphicCode</text>
</a>
</g>
</g>
<!-- Node24&#45;&gt;Node27 -->
<g id="edge64" class="edge">
<title>Node24&#45;&gt;Node27</title>
<path fill="none" stroke="midnightblue" d="M619.89,-375.85C639.39,-359.76 680.97,-327.38 721,-308.5 730.56,-303.99 741.15,-300.14 751.47,-296.93"/>
<polygon fill="midnightblue" stroke="midnightblue" points="752.64,-300.24 761.25,-294.06 750.67,-293.52 752.64,-300.24"/>
</g>
<!-- Node28 -->
<g id="node28" class="node">
<title>Node28</title>
<g id="a_node28"><a xlink:href="class_t_train_controller.html#aba5615209a7dca921e968fca5c52c060" target="_top" xlink:title="sends a message to the user and stops the timetable clock while it is displayed">
<polygon fill="white" stroke="black" points="934.5,-313.5 934.5,-343.5 1080.5,-343.5 1080.5,-313.5 934.5,-313.5"/>
<text text-anchor="start" x="942.5" y="-331.5" font-family="Helvetica,sans-Serif" font-size="10.00">TTrainController::StopTTClock</text>
<text text-anchor="middle" x="1007.5" y="-320.5" font-family="Helvetica,sans-Serif" font-size="10.00">Message</text>
</a>
</g>
</g>
<!-- Node24&#45;&gt;Node28 -->
<g id="edge65" class="edge">
<title>Node24&#45;&gt;Node28</title>
<path fill="none" stroke="midnightblue" d="M675.12,-375.96C743.59,-366.15 850.35,-350.86 924.09,-340.3"/>
<polygon fill="midnightblue" stroke="midnightblue" points="924.87,-343.72 934.27,-338.84 923.88,-336.79 924.87,-343.72"/>
</g>
<!-- Node25&#45;&gt;Node2 -->
<g id="edge59" class="edge">
<title>Node25&#45;&gt;Node2</title>
<path fill="none" stroke="midnightblue" d="M859.66,-463.56C931.88,-484.68 1055.32,-524.04 1090,-555.5 1146.36,-606.62 1174.39,-696.97 1184.48,-736.75"/>
<polygon fill="midnightblue" stroke="midnightblue" points="1181.1,-737.67 1186.86,-746.56 1187.9,-736.01 1181.1,-737.67"/>
</g>
<!-- Node25&#45;&gt;Node6 -->
<g id="edge63" class="edge">
<title>Node25&#45;&gt;Node6</title>
<path fill="none" stroke="midnightblue" d="M889.1,-434.29C901.12,-432.51 913.36,-430.84 925,-429.5 992.97,-421.64 1071.19,-416.5 1124.74,-413.57"/>
<polygon fill="midnightblue" stroke="midnightblue" points="1124.97,-417.06 1134.77,-413.03 1124.6,-410.07 1124.97,-417.06"/>
</g>
<!-- Node26 -->
<g id="node26" class="node">
<title>Node26</title>
<g id="a_node26"><a xlink:href="class_t_rail_graphics.html#a654ae6c6b77e20d1625f1e52d04d9d69" target="_top" xlink:title="used in ChangeBackgroundColour3 to convert a named colour to a number for Scanline">
<polygon fill="white" stroke="black" points="942,-439.5 942,-469.5 1073,-469.5 1073,-439.5 942,-439.5"/>
<text text-anchor="start" x="950" y="-457.5" font-family="Helvetica,sans-Serif" font-size="10.00">TRailGraphics::ColNameto</text>
<text text-anchor="middle" x="1007.5" y="-446.5" font-family="Helvetica,sans-Serif" font-size="10.00">Number</text>
</a>
</g>
</g>
<!-- Node25&#45;&gt;Node26 -->
<g id="edge60" class="edge">
<title>Node25&#45;&gt;Node26</title>
<path fill="none" stroke="midnightblue" d="M889.29,-450.99C903.26,-451.41 917.69,-451.84 931.44,-452.25"/>
<polygon fill="midnightblue" stroke="midnightblue" points="931.71,-455.76 941.81,-452.56 931.92,-448.76 931.71,-455.76"/>
</g>
<!-- Node26&#45;&gt;Node2 -->
<g id="edge61" class="edge">
<title>Node26&#45;&gt;Node2</title>
<path fill="none" stroke="midnightblue" d="M1032.21,-469.66C1050.06,-482.07 1074.09,-501.03 1090,-522.5 1142.08,-592.76 1172.88,-694.56 1184.11,-736.89"/>
<polygon fill="midnightblue" stroke="midnightblue" points="1180.77,-737.94 1186.66,-746.75 1187.55,-736.19 1180.77,-737.94"/>
</g>
<!-- Node26&#45;&gt;Node6 -->
<g id="edge62" class="edge">
<title>Node26&#45;&gt;Node6</title>
<path fill="none" stroke="midnightblue" d="M1070.11,-439.48C1092.95,-433.91 1118.51,-427.68 1140.07,-422.43"/>
<polygon fill="midnightblue" stroke="midnightblue" points="1141.09,-425.78 1149.98,-420.01 1139.43,-418.98 1141.09,-425.78"/>
</g>
<!-- Node28&#45;&gt;Node2 -->
<g id="edge66" class="edge">
<title>Node28&#45;&gt;Node2</title>
<path fill="none" stroke="midnightblue" d="M1023.85,-343.57C1042.03,-362.21 1072.09,-395.64 1090,-429.5 1147.35,-537.94 1176.65,-684.6 1185.79,-736.94"/>
<polygon fill="midnightblue" stroke="midnightblue" points="1182.36,-737.61 1187.48,-746.89 1189.26,-736.44 1182.36,-737.61"/>
</g>
<!-- Node28&#45;&gt;Node6 -->
<g id="edge67" class="edge">
<title>Node28&#45;&gt;Node6</title>
<path fill="none" stroke="midnightblue" d="M1052.91,-343.65C1065.07,-348.12 1078.15,-353.23 1090,-358.5 1115.61,-369.88 1143.82,-384.96 1163.56,-395.95"/>
<polygon fill="midnightblue" stroke="midnightblue" points="1162.08,-399.14 1172.51,-400.98 1165.51,-393.03 1162.08,-399.14"/>
</g>
</g>
</svg>
