<?xml version="1.0" encoding="UTF-8" standalone="no"?>
<!DOCTYPE svg PUBLIC "-//W3C//DTD SVG 1.1//EN"
 "http://www.w3.org/Graphics/SVG/1.1/DTD/svg11.dtd">
<!-- Generated by graphviz version 2.44.1 (20200629.0800)
 -->
<!-- Title: TUtilities::CheckFileBool Pages: 1 -->
<svg width="1184pt" height="116pt"
 viewBox="0.00 0.00 1184.00 115.50" xmlns="http://www.w3.org/2000/svg" xmlns:xlink="http://www.w3.org/1999/xlink">
<g id="graph0" class="graph" transform="scale(1 1) rotate(0) translate(4 111.5)">
<title>TUtilities::CheckFileBool</title>
<polygon fill="white" stroke="transparent" points="-4,4 -4,-111.5 1180,-111.5 1180,4 -4,4"/>
<!-- Node1 -->
<g id="node1" class="node">
<title>Node1</title>
<g id="a_node1"><a xlink:title="checks that the value is a bool returns true for success">
<polygon fill="#bfbfbf" stroke="black" points="1053,-50 1053,-69 1176,-69 1176,-50 1053,-50"/>
<text text-anchor="middle" x="1114.5" y="-57" font-family="Helvetica,sans-Serif" font-size="10.00">TUtilities::CheckFileBool</text>
</a>
</g>
</g>
<!-- Node2 -->
<g id="node2" class="node">
<title>Node2</title>
<g id="a_node2"><a xlink:href="class_t_track.html#a3ff62ece81af00462951a989f3cee4e5" target="_top" xlink:title=" ">
<polygon fill="white" stroke="black" points="680.5,-88 680.5,-107 826.5,-107 826.5,-88 680.5,-88"/>
<text text-anchor="middle" x="753.5" y="-95" font-family="Helvetica,sans-Serif" font-size="10.00">TTrack::CheckActiveLCVector</text>
</a>
</g>
</g>
<!-- Node1&#45;&gt;Node2 -->
<g id="edge1" class="edge">
<title>Node1&#45;&gt;Node2</title>
<path fill="none" stroke="midnightblue" d="M1060.85,-71.07C1046.67,-73.86 1031.3,-76.58 1017,-78.5 952.92,-87.09 879.48,-91.99 826.61,-94.66"/>
<polygon fill="midnightblue" stroke="midnightblue" points="1061.82,-74.45 1070.93,-69.05 1060.44,-67.59 1061.82,-74.45"/>
</g>
<!-- Node7 -->
<g id="node7" class="node">
<title>Node7</title>
<g id="a_node7"><a xlink:href="class_t_interface.html#ae484cb4ac3ce536b922fff402e6689f7" target="_top" xlink:title="Check the interface part of a session file &amp; return false for error, called during SessionFileIntegri...">
<polygon fill="white" stroke="black" points="877,-50 877,-69 1006,-69 1006,-50 877,-50"/>
<text text-anchor="middle" x="941.5" y="-57" font-family="Helvetica,sans-Serif" font-size="10.00">TInterface::CheckInterface</text>
</a>
</g>
</g>
<!-- Node1&#45;&gt;Node7 -->
<g id="edge6" class="edge">
<title>Node1&#45;&gt;Node7</title>
<path fill="none" stroke="midnightblue" d="M1042.7,-59.5C1030.62,-59.5 1018.14,-59.5 1006.26,-59.5"/>
<polygon fill="midnightblue" stroke="midnightblue" points="1042.73,-63 1052.73,-59.5 1042.73,-56 1042.73,-63"/>
</g>
<!-- Node8 -->
<g id="node8" class="node">
<title>Node8</title>
<g id="a_node8"><a xlink:href="class_t_train.html#aad716bab6f8f4aa6dd49f35130d28dd9" target="_top" xlink:title="Carries out an integrity check for the train section of a session file, if fails a message is given a...">
<polygon fill="white" stroke="black" points="866,-9 866,-28 1017,-28 1017,-9 866,-9"/>
<text text-anchor="middle" x="941.5" y="-16" font-family="Helvetica,sans-Serif" font-size="10.00">TTrain::CheckOneSessionTrain</text>
</a>
</g>
</g>
<!-- Node1&#45;&gt;Node8 -->
<g id="edge8" class="edge">
<title>Node1&#45;&gt;Node8</title>
<path fill="none" stroke="midnightblue" d="M1063.82,-47.59C1037.87,-41.37 1006.56,-33.86 982.24,-28.03"/>
<polygon fill="midnightblue" stroke="midnightblue" points="1063.3,-51.06 1073.84,-49.99 1064.93,-44.26 1063.3,-51.06"/>
</g>
<!-- Node3 -->
<g id="node3" class="node">
<title>Node3</title>
<g id="a_node3"><a xlink:href="class_t_interface.html#a3904f26b67b9512507960187b37b6f7b" target="_top" xlink:title="Checks session file integrity prior to loading, true for success.">
<polygon fill="white" stroke="black" points="491,-44.5 491,-74.5 641,-74.5 641,-44.5 491,-44.5"/>
<text text-anchor="start" x="499" y="-62.5" font-family="Helvetica,sans-Serif" font-size="10.00">TInterface::SessionFileIntegrity</text>
<text text-anchor="middle" x="566" y="-51.5" font-family="Helvetica,sans-Serif" font-size="10.00">Check</text>
</a>
</g>
</g>
<!-- Node2&#45;&gt;Node3 -->
<g id="edge2" class="edge">
<title>Node2&#45;&gt;Node3</title>
<path fill="none" stroke="midnightblue" d="M695.69,-85.86C678.28,-82.3 658.87,-78.32 640.51,-74.56"/>
<polygon fill="midnightblue" stroke="midnightblue" points="695.19,-89.33 705.69,-87.91 696.6,-82.48 695.19,-89.33"/>
</g>
<!-- Node4 -->
<g id="node4" class="node">
<title>Node4</title>
<g id="a_node4"><a xlink:href="class_t_interface.html#a636b1b4bd29f2678a3290ed2d282f1c2" target="_top" xlink:title="Load a session file.">
<polygon fill="white" stroke="black" points="334,-50 334,-69 455,-69 455,-50 334,-50"/>
<text text-anchor="middle" x="394.5" y="-57" font-family="Helvetica,sans-Serif" font-size="10.00">TInterface::LoadSession</text>
</a>
</g>
</g>
<!-- Node3&#45;&gt;Node4 -->
<g id="edge3" class="edge">
<title>Node3&#45;&gt;Node4</title>
<path fill="none" stroke="midnightblue" d="M480.55,-59.5C471.93,-59.5 463.3,-59.5 455.02,-59.5"/>
<polygon fill="midnightblue" stroke="midnightblue" points="480.65,-63 490.65,-59.5 480.65,-56 480.65,-63"/>
</g>
<!-- Node5 -->
<g id="node5" class="node">
<title>Node5</title>
<g id="a_node5"><a xlink:href="class_t_interface.html#a6139ffb52492eb89e5487a8a3cd647b5" target="_top" xlink:title="The main loop, called every clock tick via MasterClockTimer.">
<polygon fill="white" stroke="black" points="179,-50 179,-69 298,-69 298,-50 179,-50"/>
<text text-anchor="middle" x="238.5" y="-57" font-family="Helvetica,sans-Serif" font-size="10.00">TInterface::ClockTimer2</text>
</a>
</g>
</g>
<!-- Node4&#45;&gt;Node5 -->
<g id="edge4" class="edge">
<title>Node4&#45;&gt;Node5</title>
<path fill="none" stroke="midnightblue" d="M323.92,-59.5C315.3,-59.5 306.56,-59.5 298.12,-59.5"/>
<polygon fill="midnightblue" stroke="midnightblue" points="323.96,-63 333.96,-59.5 323.96,-56 323.96,-63"/>
</g>
<!-- Node6 -->
<g id="node6" class="node">
<title>Node6</title>
<g id="a_node6"><a xlink:href="class_t_interface.html#ace30a12d923fc7fb489afabb0a09aa4f" target="_top" xlink:title=" ">
<polygon fill="white" stroke="black" points="0,-50 0,-69 143,-69 143,-50 0,-50"/>
<text text-anchor="middle" x="71.5" y="-57" font-family="Helvetica,sans-Serif" font-size="10.00">TInterface::MasterClockTimer</text>
</a>
</g>
</g>
<!-- Node5&#45;&gt;Node6 -->
<g id="edge5" class="edge">
<title>Node5&#45;&gt;Node6</title>
<path fill="none" stroke="midnightblue" d="M168.67,-59.5C160.22,-59.5 151.57,-59.5 143.09,-59.5"/>
<polygon fill="midnightblue" stroke="midnightblue" points="168.86,-63 178.86,-59.5 168.86,-56 168.86,-63"/>
</g>
<!-- Node7&#45;&gt;Node3 -->
<g id="edge7" class="edge">
<title>Node7&#45;&gt;Node3</title>
<path fill="none" stroke="midnightblue" d="M866.5,-59.5C801.18,-59.5 706.46,-59.5 641.11,-59.5"/>
<polygon fill="midnightblue" stroke="midnightblue" points="866.72,-63 876.72,-59.5 866.72,-56 866.72,-63"/>
</g>
<!-- Node9 -->
<g id="node9" class="node">
<title>Node9</title>
<g id="a_node9"><a xlink:href="class_t_train_controller.html#a53fb58a1ae6103601a24ad2162f86f58" target="_top" xlink:title="Part of the session file integrity check for train entries, true for success.">
<polygon fill="white" stroke="black" points="677,-0.5 677,-30.5 830,-30.5 830,-0.5 677,-0.5"/>
<text text-anchor="start" x="685" y="-18.5" font-family="Helvetica,sans-Serif" font-size="10.00">TTrainController::CheckSession</text>
<text text-anchor="middle" x="753.5" y="-7.5" font-family="Helvetica,sans-Serif" font-size="10.00">Trains</text>
</a>
</g>
</g>
<!-- Node8&#45;&gt;Node9 -->
<g id="edge9" class="edge">
<title>Node8&#45;&gt;Node9</title>
<path fill="none" stroke="midnightblue" d="M855.86,-17.13C847.24,-17 838.52,-16.86 830.01,-16.72"/>
<polygon fill="midnightblue" stroke="midnightblue" points="855.86,-20.64 865.92,-17.3 855.98,-13.64 855.86,-20.64"/>
</g>
<!-- Node9&#45;&gt;Node3 -->
<g id="edge10" class="edge">
<title>Node9&#45;&gt;Node3</title>
<path fill="none" stroke="midnightblue" d="M679.24,-32.88C663.08,-36.71 646.08,-40.74 630.35,-44.47"/>
<polygon fill="midnightblue" stroke="midnightblue" points="680.26,-36.23 689.18,-30.52 678.64,-29.42 680.26,-36.23"/>
</g>
</g>
</svg>
