<?xml version="1.0" encoding="UTF-8" standalone="no"?>
<!DOCTYPE svg PUBLIC "-//W3C//DTD SVG 1.1//EN"
 "http://www.w3.org/Graphics/SVG/1.1/DTD/svg11.dtd">
<!-- Generated by graphviz version 2.44.1 (20200629.0800)
 -->
<!-- Title: TUtilities::LoadFileInt Pages: 1 -->
<!--zoomable 842 -->
<svg id="main" version="1.1" xmlns="http://www.w3.org/2000/svg" xmlns:xlink="http://www.w3.org/1999/xlink" xml:space="preserve" onload="init(evt)">
<style type="text/css"><![CDATA[
.edge:hover path { stroke: red; }
.edge:hover polygon { stroke: red; fill: red; }
]]></style>
<script type="text/javascript"><![CDATA[
var edges = document.getElementsByTagName('g');
if (edges && edges.length) {
  for (var i=0;i<edges.length;i++) {
    if (edges[i].id.substr(0,4)=='edge') {
      edges[i].setAttribute('class','edge');
    }
  }
}
]]></script>
        <defs>
                <circle id="rim" cx="0" cy="0" r="7"/>
                <circle id="rim2" cx="0" cy="0" r="3.5"/>
                <g id="zoomPlus">
                        <use xlink:href="#rim" fill="#404040">
                                <set attributeName="fill" to="#808080" begin="zoomplus.mouseover" end="zoomplus.mouseout"/>
                        </use>
                        <path d="M-4,0h8M0,-4v8" fill="none" stroke="white" stroke-width="1.5" pointer-events="none"/>
                </g>
                <g id="zoomMin">
                        <use xlink:href="#rim" fill="#404040">
                                <set attributeName="fill" to="#808080" begin="zoomminus.mouseover" end="zoomminus.mouseout"/>
                        </use>
                        <path d="M-4,0h8" fill="none" stroke="white" stroke-width="1.5" pointer-events="none"/>
                </g>
                <g id="dirArrow">
                        <path fill="none" stroke="white" stroke-width="1.5" d="M0,-3.0v7 M-2.5,-0.5L0,-3.0L2.5,-0.5"/>
                </g>
               <g id="resetDef">
                       <use xlink:href="#rim2" fill="#404040">
                               <set attributeName="fill" to="#808080" begin="reset.mouseover" end="reset.mouseout"/>
                       </use>
               </g>
        </defs>

<script type="text/javascript">
var viewWidth = 1199;
var viewHeight = 842;
var sectionId = 'dynsection-22';
</script>
<script xlink:href="svgpan.js"/>
<svg id="graph" class="graph">
<g id="viewport">
<title>TUtilities::LoadFileInt</title>
<polygon fill="white" stroke="transparent" points="-4,4 -4,-838.44 1195,-838.44 1195,4 -4,4"/>
<!-- Node1 -->
<g id="node1" class="node">
<title>Node1</title>
<g id="a_node1"><a xlink:title="loads an int value from the file">
<polygon fill="#bfbfbf" stroke="black" points="1084,-380.5 1084,-399.5 1191,-399.5 1191,-380.5 1084,-380.5"/>
<text text-anchor="middle" x="1137.5" y="-387.5" font-family="Helvetica,sans-Serif" font-size="10.00">TUtilities::LoadFileInt</text>
</a>
</g>
</g>
<!-- Node2 -->
<g id="node2" class="node">
<title>Node2</title>
<g id="a_node2"><a xlink:href="class_t_track.html#a3ff62ece81af00462951a989f3cee4e5" target="_top" xlink:title=" ">
<polygon fill="white" stroke="black" points="699,-713.5 699,-732.5 845,-732.5 845,-713.5 699,-713.5"/>
<text text-anchor="middle" x="772" y="-720.5" font-family="Helvetica,sans-Serif" font-size="10.00">TTrack::CheckActiveLCVector</text>
</a>
</g>
</g>
<!-- Node1&#45;&gt;Node2 -->
<g id="edge1" class="edge">
<title>Node1&#45;&gt;Node2</title>
<path fill="none" stroke="midnightblue" d="M1133.76,-409.83C1124.74,-471.98 1093.9,-661.16 1048,-699 981.62,-753.72 873.13,-743.5 814.21,-732.51"/>
<polygon fill="midnightblue" stroke="midnightblue" points="1137.25,-410.16 1135.19,-399.76 1130.32,-409.17 1137.25,-410.16"/>
</g>
<!-- Node4 -->
<g id="node4" class="node">
<title>Node4</title>
<g id="a_node4"><a xlink:href="class_t_interface.html#a636b1b4bd29f2678a3290ed2d282f1c2" target="_top" xlink:title="Load a session file.">
<polygon fill="white" stroke="black" points="345,-315.5 345,-334.5 466,-334.5 466,-315.5 345,-315.5"/>
<text text-anchor="middle" x="405.5" y="-322.5" font-family="Helvetica,sans-Serif" font-size="10.00">TInterface::LoadSession</text>
</a>
</g>
</g>
<!-- Node1&#45;&gt;Node4 -->
<g id="edge40" class="edge">
<title>Node1&#45;&gt;Node4</title>
<path fill="none" stroke="midnightblue" d="M1134.85,-410.05C1128.52,-481.51 1103.36,-722.17 1048,-771 931.47,-873.79 850.08,-828.35 699,-792 608.75,-770.29 571.99,-768.67 513,-697 416.72,-580.04 407.42,-380.49 406.58,-334.6"/>
<polygon fill="midnightblue" stroke="midnightblue" points="1138.36,-410.01 1135.73,-399.75 1131.39,-409.41 1138.36,-410.01"/>
</g>
<!-- Node7 -->
<g id="node7" class="node">
<title>Node7</title>
<g id="a_node7"><a xlink:href="class_t_one_pref_dir.html#a1896affce3465b84cfd5128cca122639" target="_top" xlink:title="Called before PrefDir loading as part of the FileIntegrityCheck function in case there is an error in...">
<polygon fill="white" stroke="black" points="889.5,-670.5 889.5,-689.5 1039.5,-689.5 1039.5,-670.5 889.5,-670.5"/>
<text text-anchor="middle" x="964.5" y="-677.5" font-family="Helvetica,sans-Serif" font-size="10.00">TOnePrefDir::CheckOnePrefDir</text>
</a>
</g>
</g>
<!-- Node1&#45;&gt;Node7 -->
<g id="edge6" class="edge">
<title>Node1&#45;&gt;Node7</title>
<path fill="none" stroke="midnightblue" d="M1135.89,-409.85C1133.28,-458.95 1119.58,-587.1 1048,-656 1041.44,-662.31 1033.33,-666.98 1024.77,-670.42"/>
<polygon fill="midnightblue" stroke="midnightblue" points="1139.39,-409.77 1136.33,-399.63 1132.4,-409.47 1139.39,-409.77"/>
</g>
<!-- Node8 -->
<g id="node8" class="node">
<title>Node8</title>
<g id="a_node8"><a xlink:href="class_t_all_routes.html#ad151a9c7a0ad304f0f5c5c6b523ffb2e" target="_top" xlink:title="Performs an integrity check on the routes stored in a session file and returns false if there is an e...">
<polygon fill="white" stroke="black" points="708,-637.5 708,-656.5 836,-656.5 836,-637.5 708,-637.5"/>
<text text-anchor="middle" x="772" y="-644.5" font-family="Helvetica,sans-Serif" font-size="10.00">TAllRoutes::CheckRoutes</text>
</a>
</g>
</g>
<!-- Node1&#45;&gt;Node8 -->
<g id="edge10" class="edge">
<title>Node1&#45;&gt;Node8</title>
<path fill="none" stroke="midnightblue" d="M1135.65,-409.77C1132.5,-455.81 1117.68,-570.31 1048,-623 1015.79,-647.35 906.85,-650.04 836.13,-649.04"/>
<polygon fill="midnightblue" stroke="midnightblue" points="1139.15,-409.8 1136.23,-399.61 1132.16,-409.4 1139.15,-409.8"/>
</g>
<!-- Node9 -->
<g id="node9" class="node">
<title>Node9</title>
<g id="a_node9"><a xlink:href="class_t_text_handler.html#a9b78e10ef2f0907a845c0d8ed7ccdede" target="_top" xlink:title="check the validity of text items in VecFile prior to loading, return true for success">
<polygon fill="white" stroke="black" points="881,-495 881,-525 1048,-525 1048,-495 881,-495"/>
<text text-anchor="start" x="889" y="-513" font-family="Helvetica,sans-Serif" font-size="10.00">TTextHandler::CheckTextElements</text>
<text text-anchor="middle" x="964.5" y="-502" font-family="Helvetica,sans-Serif" font-size="10.00">InFile</text>
</a>
</g>
</g>
<!-- Node1&#45;&gt;Node9 -->
<g id="edge11" class="edge">
<title>Node1&#45;&gt;Node9</title>
<path fill="none" stroke="midnightblue" d="M1123.33,-407.49C1107.45,-427.51 1078.99,-460.08 1048,-480 1038.77,-485.93 1028.21,-490.9 1017.79,-494.98"/>
<polygon fill="midnightblue" stroke="midnightblue" points="1126.16,-409.56 1129.52,-399.51 1120.63,-405.27 1126.16,-409.56"/>
</g>
<!-- Node11 -->
<g id="node11" class="node">
<title>Node11</title>
<g id="a_node11"><a xlink:href="class_t_interface.html#a95c3545a30171ca5a08e34c58160079c" target="_top" xlink:title="Load a railway file. The Active elements marker now has a &#39;1&#39; at the end if there are user graphics t...">
<polygon fill="white" stroke="black" points="528.5,-239.5 528.5,-258.5 647.5,-258.5 647.5,-239.5 528.5,-239.5"/>
<text text-anchor="middle" x="588" y="-246.5" font-family="Helvetica,sans-Serif" font-size="10.00">TInterface::LoadRailway</text>
</a>
</g>
</g>
<!-- Node1&#45;&gt;Node11 -->
<g id="edge38" class="edge">
<title>Node1&#45;&gt;Node11</title>
<path fill="none" stroke="midnightblue" d="M1129.71,-370.69C1118.14,-341.14 1091.57,-285.64 1048,-262 980.64,-225.46 755.59,-236.47 647.68,-244.22"/>
<polygon fill="midnightblue" stroke="midnightblue" points="1126.51,-372.15 1133.29,-380.3 1133.07,-369.7 1126.51,-372.15"/>
</g>
<!-- Node13 -->
<g id="node13" class="node">
<title>Node13</title>
<g id="a_node13"><a xlink:href="class_t_track.html#aaaeca0e8840e05572e9c27e76a04483a" target="_top" xlink:title="True if TrackElements in the file are all valid.">
<polygon fill="white" stroke="black" points="892,-583 892,-613 1037,-613 1037,-583 892,-583"/>
<text text-anchor="start" x="900" y="-601" font-family="Helvetica,sans-Serif" font-size="10.00">TTrack::CheckTrackElements</text>
<text text-anchor="middle" x="964.5" y="-590" font-family="Helvetica,sans-Serif" font-size="10.00">InFile</text>
</a>
</g>
</g>
<!-- Node1&#45;&gt;Node13 -->
<g id="edge16" class="edge">
<title>Node1&#45;&gt;Node13</title>
<path fill="none" stroke="midnightblue" d="M1132.47,-409.73C1123.79,-447.18 1099.78,-528.74 1048,-573 1043.45,-576.89 1038.31,-580.17 1032.87,-582.95"/>
<polygon fill="midnightblue" stroke="midnightblue" points="1135.96,-410.14 1134.68,-399.62 1129.13,-408.64 1135.96,-410.14"/>
</g>
<!-- Node14 -->
<g id="node14" class="node">
<title>Node14</title>
<g id="a_node14"><a xlink:href="class_t_track.html#af4ef9874b8b8208112da24ac282298b7" target="_top" xlink:title="checks all user graphics &amp; returns true for success">
<polygon fill="white" stroke="black" points="895,-544.5 895,-563.5 1034,-563.5 1034,-544.5 895,-544.5"/>
<text text-anchor="middle" x="964.5" y="-551.5" font-family="Helvetica,sans-Serif" font-size="10.00">TTrack::CheckUserGraphics</text>
</a>
</g>
</g>
<!-- Node1&#45;&gt;Node14 -->
<g id="edge19" class="edge">
<title>Node1&#45;&gt;Node14</title>
<path fill="none" stroke="midnightblue" d="M1130.26,-409.37C1119.07,-440.87 1092.51,-502.91 1048,-535 1042.63,-538.87 1036.61,-541.96 1030.31,-544.44"/>
<polygon fill="midnightblue" stroke="midnightblue" points="1133.68,-410.19 1133.58,-399.6 1127.05,-407.94 1133.68,-410.19"/>
</g>
<!-- Node15 -->
<g id="node15" class="node">
<title>Node15</title>
<g id="a_node15"><a xlink:href="class_t_track.html#a96563ccfea0293d240212db434f4e3e0" target="_top" xlink:title="Load all BarriersDownVector values from SessionFile.">
<polygon fill="white" stroke="black" points="522.5,-392 522.5,-422 653.5,-422 653.5,-392 522.5,-392"/>
<text text-anchor="start" x="530.5" y="-410" font-family="Helvetica,sans-Serif" font-size="10.00">TTrack::LoadBarriersDown</text>
<text text-anchor="middle" x="588" y="-399" font-family="Helvetica,sans-Serif" font-size="10.00">Vector</text>
</a>
</g>
</g>
<!-- Node1&#45;&gt;Node15 -->
<g id="edge22" class="edge">
<title>Node1&#45;&gt;Node15</title>
<path fill="none" stroke="midnightblue" d="M1074.72,-400.99C1065.78,-402.22 1056.67,-403.29 1048,-404 907.82,-415.48 742.75,-412.56 653.75,-409.63"/>
<polygon fill="midnightblue" stroke="midnightblue" points="1075.32,-404.43 1084.71,-399.53 1074.31,-397.51 1075.32,-404.43"/>
</g>
<!-- Node16 -->
<g id="node16" class="node">
<title>Node16</title>
<g id="a_node16"><a xlink:href="class_t_track.html#a989be9c495abc0850c9237a845fa2846" target="_top" xlink:title="new at v2.4.0, load user graphics">
<polygon fill="white" stroke="black" points="716,-190.5 716,-209.5 828,-209.5 828,-190.5 716,-190.5"/>
<text text-anchor="middle" x="772" y="-197.5" font-family="Helvetica,sans-Serif" font-size="10.00">TTrack::LoadGraphics</text>
</a>
</g>
</g>
<!-- Node1&#45;&gt;Node16 -->
<g id="edge24" class="edge">
<title>Node1&#45;&gt;Node16</title>
<path fill="none" stroke="midnightblue" d="M1132.39,-370.15C1123.76,-334.11 1100.12,-258.45 1048,-224 981.83,-180.27 886.28,-183.05 827,-190.48"/>
<polygon fill="midnightblue" stroke="midnightblue" points="1129.07,-371.37 1134.67,-380.36 1135.9,-369.83 1129.07,-371.37"/>
</g>
<!-- Node17 -->
<g id="node17" class="node">
<title>Node17</title>
<g id="a_node17"><a xlink:href="class_t_interface.html#ad2e9b9996aa6ebd7108d14d8db399da8" target="_top" xlink:title="Load the interface part of a session file.">
<polygon fill="white" stroke="black" points="527,-353.5 527,-372.5 649,-372.5 649,-353.5 527,-353.5"/>
<text text-anchor="middle" x="588" y="-360.5" font-family="Helvetica,sans-Serif" font-size="10.00">TInterface::LoadInterface</text>
</a>
</g>
</g>
<!-- Node1&#45;&gt;Node17 -->
<g id="edge27" class="edge">
<title>Node1&#45;&gt;Node17</title>
<path fill="none" stroke="midnightblue" d="M1073.24,-386.88C966.79,-381.63 753.3,-371.1 649.05,-365.96"/>
<polygon fill="midnightblue" stroke="midnightblue" points="1073.35,-390.39 1083.51,-387.39 1073.69,-383.4 1073.35,-390.39"/>
</g>
<!-- Node18 -->
<g id="node18" class="node">
<title>Node18</title>
<g id="a_node18"><a xlink:href="class_t_one_pref_dir.html#a614933ff3958e4b8c9be9bc78159d9e8" target="_top" xlink:title="Old version of LoadPrefDir, used during development when the save format changed so the old files cou...">
<polygon fill="white" stroke="black" points="894.5,-0.5 894.5,-19.5 1034.5,-19.5 1034.5,-0.5 894.5,-0.5"/>
<text text-anchor="middle" x="964.5" y="-7.5" font-family="Helvetica,sans-Serif" font-size="10.00">TOnePrefDir::LoadOldPrefDir</text>
</a>
</g>
</g>
<!-- Node1&#45;&gt;Node18 -->
<g id="edge29" class="edge">
<title>Node1&#45;&gt;Node18</title>
<path fill="none" stroke="midnightblue" d="M1134.18,-370.28C1125.9,-302.94 1095.67,-83.59 1048,-34 1042,-27.76 1034.49,-23.12 1026.45,-19.67"/>
<polygon fill="midnightblue" stroke="midnightblue" points="1130.73,-370.86 1135.4,-380.37 1137.68,-370.03 1130.73,-370.86"/>
</g>
<!-- Node19 -->
<g id="node19" class="node">
<title>Node19</title>
<g id="a_node19"><a xlink:href="class_t_train.html#a23c65e7f2b2130ae87811f70afb6d5bf" target="_top" xlink:title="Create one train with relevant member values from the sesion file.">
<polygon fill="white" stroke="black" points="892.5,-304.5 892.5,-323.5 1036.5,-323.5 1036.5,-304.5 892.5,-304.5"/>
<text text-anchor="middle" x="964.5" y="-311.5" font-family="Helvetica,sans-Serif" font-size="10.00">TTrain::LoadOneSessionTrain</text>
</a>
</g>
</g>
<!-- Node1&#45;&gt;Node19 -->
<g id="edge30" class="edge">
<title>Node1&#45;&gt;Node19</title>
<path fill="none" stroke="midnightblue" d="M1114.31,-374.87C1096.89,-363.51 1071.69,-348.22 1048,-338 1034.58,-332.21 1019.34,-327.34 1005.65,-323.53"/>
<polygon fill="midnightblue" stroke="midnightblue" points="1112.4,-377.79 1122.67,-380.4 1116.26,-371.96 1112.4,-377.79"/>
</g>
<!-- Node20 -->
<g id="node20" class="node">
<title>Node20</title>
<g id="a_node20"><a xlink:href="class_t_train_controller.html#a853ddf9799c9fd7063c81ffa1dc754d7" target="_top" xlink:title="load trains from a session file">
<polygon fill="white" stroke="black" points="699,-310 699,-340 845,-340 845,-310 699,-310"/>
<text text-anchor="start" x="707" y="-328" font-family="Helvetica,sans-Serif" font-size="10.00">TTrainController::LoadSession</text>
<text text-anchor="middle" x="772" y="-317" font-family="Helvetica,sans-Serif" font-size="10.00">Trains</text>
</a>
</g>
</g>
<!-- Node1&#45;&gt;Node20 -->
<g id="edge45" class="edge">
<title>Node1&#45;&gt;Node20</title>
<path fill="none" stroke="midnightblue" d="M1073.74,-378.78C1010.12,-367.4 911.8,-349.82 845.04,-337.88"/>
<polygon fill="midnightblue" stroke="midnightblue" points="1073.18,-382.23 1083.64,-380.55 1074.42,-375.34 1073.18,-382.23"/>
</g>
<!-- Node21 -->
<g id="node21" class="node">
<title>Node21</title>
<g id="a_node21"><a xlink:href="class_t_one_pref_dir.html#a0779c9edd1ba268356590aac4719166d" target="_top" xlink:title="Load a vector and map of preferred directions from the file.">
<polygon fill="white" stroke="black" points="709.5,-152.5 709.5,-171.5 834.5,-171.5 834.5,-152.5 709.5,-152.5"/>
<text text-anchor="middle" x="772" y="-159.5" font-family="Helvetica,sans-Serif" font-size="10.00">TOnePrefDir::LoadPrefDir</text>
</a>
</g>
</g>
<!-- Node1&#45;&gt;Node21 -->
<g id="edge33" class="edge">
<title>Node1&#45;&gt;Node21</title>
<path fill="none" stroke="midnightblue" d="M1134.68,-370.38C1129.59,-328.02 1111.16,-228.24 1048,-183 979.49,-133.93 875.2,-142.41 816.71,-152.5"/>
<polygon fill="midnightblue" stroke="midnightblue" points="1131.22,-370.92 1135.76,-380.49 1138.18,-370.17 1131.22,-370.92"/>
</g>
<!-- Node22 -->
<g id="node22" class="node">
<title>Node22</title>
<g id="a_node22"><a xlink:href="class_t_all_routes.html#adadd08bb4cbbcaeba918f20c6c103a39" target="_top" xlink:title="Loads the routes from a session file.">
<polygon fill="white" stroke="black" points="527,-125.5 527,-144.5 649,-144.5 649,-125.5 527,-125.5"/>
<text text-anchor="middle" x="588" y="-132.5" font-family="Helvetica,sans-Serif" font-size="10.00">TAllRoutes::LoadRoutes</text>
</a>
</g>
</g>
<!-- Node1&#45;&gt;Node22 -->
<g id="edge39" class="edge">
<title>Node1&#45;&gt;Node22</title>
<path fill="none" stroke="midnightblue" d="M1136.45,-370.19C1135.13,-321.41 1124.16,-195.51 1048,-141 985.79,-96.47 758.71,-115.36 649.05,-127.59"/>
<polygon fill="midnightblue" stroke="midnightblue" points="1132.96,-370.42 1136.61,-380.36 1139.95,-370.31 1132.96,-370.42"/>
</g>
<!-- Node23 -->
<g id="node23" class="node">
<title>Node23</title>
<g id="a_node23"><a xlink:href="class_t_train_controller.html#ae30ca688c6c3672e98692a13f29b7a4b" target="_top" xlink:title="load ContinuationAutoSigEntries from a session file">
<polygon fill="white" stroke="black" points="515,-76 515,-106 661,-106 661,-76 515,-76"/>
<text text-anchor="start" x="523" y="-94" font-family="Helvetica,sans-Serif" font-size="10.00">TTrainController::LoadSession</text>
<text text-anchor="middle" x="588" y="-83" font-family="Helvetica,sans-Serif" font-size="10.00">ContinuationAutoSigEntries</text>
</a>
</g>
</g>
<!-- Node1&#45;&gt;Node23 -->
<g id="edge41" class="edge">
<title>Node1&#45;&gt;Node23</title>
<path fill="none" stroke="midnightblue" d="M1137.26,-370.34C1138.09,-317.74 1132.25,-173.37 1048,-109 989.3,-64.15 775.2,-74.79 661.35,-84.09"/>
<polygon fill="midnightblue" stroke="midnightblue" points="1133.76,-370.29 1137,-380.37 1140.76,-370.47 1133.76,-370.29"/>
</g>
<!-- Node24 -->
<g id="node24" class="node">
<title>Node24</title>
<g id="a_node24"><a xlink:href="class_t_train_controller.html#aefaafd5c6d1c51b4db9dd4b3646d0312" target="_top" xlink:title="load locked routes from a session file">
<polygon fill="white" stroke="black" points="515,-27 515,-57 661,-57 661,-27 515,-27"/>
<text text-anchor="start" x="523" y="-45" font-family="Helvetica,sans-Serif" font-size="10.00">TTrainController::LoadSession</text>
<text text-anchor="middle" x="588" y="-34" font-family="Helvetica,sans-Serif" font-size="10.00">LockedRoutes</text>
</a>
</g>
</g>
<!-- Node1&#45;&gt;Node24 -->
<g id="edge43" class="edge">
<title>Node1&#45;&gt;Node24</title>
<path fill="none" stroke="midnightblue" d="M1133.93,-370.05C1125.32,-306.63 1095.36,-111.53 1048,-73 990.54,-26.25 775.35,-30.97 661.18,-37.12"/>
<polygon fill="midnightblue" stroke="midnightblue" points="1130.5,-370.84 1135.29,-380.29 1137.44,-369.92 1130.5,-370.84"/>
</g>
<!-- Node25 -->
<g id="node25" class="node">
<title>Node25</title>
<g id="a_node25"><a xlink:href="class_t_text_handler.html#ab67bb7278c89557bf9cc8bef475afab5" target="_top" xlink:title="load the railway&#39;s text from VecFile">
<polygon fill="white" stroke="black" points="712.5,-266.5 712.5,-285.5 831.5,-285.5 831.5,-266.5 712.5,-266.5"/>
<text text-anchor="middle" x="772" y="-273.5" font-family="Helvetica,sans-Serif" font-size="10.00">TTextHandler::LoadText</text>
</a>
</g>
</g>
<!-- Node1&#45;&gt;Node25 -->
<g id="edge46" class="edge">
<title>Node1&#45;&gt;Node25</title>
<path fill="none" stroke="midnightblue" d="M1125.57,-371.56C1111.04,-349 1083.07,-311.72 1048,-295 979.21,-262.2 889.58,-262.86 831.67,-268.04"/>
<polygon fill="midnightblue" stroke="midnightblue" points="1122.7,-373.59 1130.95,-380.23 1128.65,-369.89 1122.7,-373.59"/>
</g>
<!-- Node26 -->
<g id="node26" class="node">
<title>Node26</title>
<g id="a_node26"><a xlink:href="class_t_interface.html#a92d5a9e07b9362dee2296b7759a1c83d" target="_top" xlink:title="Loads timetable into memory from a session file, true if successful.">
<polygon fill="white" stroke="black" points="708,-752 708,-782 836,-782 836,-752 708,-752"/>
<text text-anchor="start" x="716" y="-770" font-family="Helvetica,sans-Serif" font-size="10.00">TInterface::LoadTimetable</text>
<text text-anchor="middle" x="772" y="-759" font-family="Helvetica,sans-Serif" font-size="10.00">FromSessionFile</text>
</a>
</g>
</g>
<!-- Node1&#45;&gt;Node26 -->
<g id="edge49" class="edge">
<title>Node1&#45;&gt;Node26</title>
<path fill="none" stroke="midnightblue" d="M1134.31,-409.79C1126.54,-476.32 1098,-690.22 1048,-734 990.3,-784.53 897.75,-784.9 836.17,-778.01"/>
<polygon fill="midnightblue" stroke="midnightblue" points="1137.8,-410.12 1135.45,-399.78 1130.84,-409.32 1137.8,-410.12"/>
</g>
<!-- Node27 -->
<g id="node27" class="node">
<title>Node27</title>
<g id="a_node27"><a xlink:href="class_t_track.html#a09140dd23c45ccd541f056c3dd257c13" target="_top" xlink:title="Load track elements (active &amp; inactive) from the file into the relevant vectors and maps,...">
<polygon fill="white" stroke="black" points="723.5,-435.5 723.5,-454.5 820.5,-454.5 820.5,-435.5 723.5,-435.5"/>
<text text-anchor="middle" x="772" y="-442.5" font-family="Helvetica,sans-Serif" font-size="10.00">TTrack::LoadTrack</text>
</a>
</g>
</g>
<!-- Node1&#45;&gt;Node27 -->
<g id="edge52" class="edge">
<title>Node1&#45;&gt;Node27</title>
<path fill="none" stroke="midnightblue" d="M1116.75,-405.71C1099.67,-418.25 1073.73,-434.85 1048,-442 970.72,-463.48 876.43,-458.06 820.75,-451.79"/>
<polygon fill="midnightblue" stroke="midnightblue" points="1118.97,-408.43 1124.83,-399.6 1114.74,-402.84 1118.97,-408.43"/>
</g>
<!-- Node3 -->
<g id="node3" class="node">
<title>Node3</title>
<g id="a_node3"><a xlink:href="class_t_interface.html#a3904f26b67b9512507960187b37b6f7b" target="_top" xlink:title="Checks session file integrity prior to loading, true for success.">
<polygon fill="white" stroke="black" points="513,-594 513,-624 663,-624 663,-594 513,-594"/>
<text text-anchor="start" x="521" y="-612" font-family="Helvetica,sans-Serif" font-size="10.00">TInterface::SessionFileIntegrity</text>
<text text-anchor="middle" x="588" y="-601" font-family="Helvetica,sans-Serif" font-size="10.00">Check</text>
</a>
</g>
</g>
<!-- Node2&#45;&gt;Node3 -->
<g id="edge2" class="edge">
<title>Node2&#45;&gt;Node3</title>
<path fill="none" stroke="midnightblue" d="M724.07,-710.12C715.49,-707 706.8,-703.3 699,-699 661.18,-678.16 623.67,-643.75 603.71,-624.07"/>
<polygon fill="midnightblue" stroke="midnightblue" points="723.06,-713.47 733.65,-713.39 725.33,-706.85 723.06,-713.47"/>
</g>
<!-- Node3&#45;&gt;Node4 -->
<g id="edge3" class="edge">
<title>Node3&#45;&gt;Node4</title>
<path fill="none" stroke="midnightblue" d="M571.78,-585.05C534.14,-525.83 437.92,-374.44 412.65,-334.68"/>
<polygon fill="midnightblue" stroke="midnightblue" points="568.98,-587.17 577.3,-593.73 574.89,-583.41 568.98,-587.17"/>
</g>
<!-- Node5 -->
<g id="node5" class="node">
<title>Node5</title>
<g id="a_node5"><a xlink:href="class_t_interface.html#a6139ffb52492eb89e5487a8a3cd647b5" target="_top" xlink:title="The main loop, called every clock tick via MasterClockTimer.">
<polygon fill="white" stroke="black" points="179,-315.5 179,-334.5 298,-334.5 298,-315.5 179,-315.5"/>
<text text-anchor="middle" x="238.5" y="-322.5" font-family="Helvetica,sans-Serif" font-size="10.00">TInterface::ClockTimer2</text>
</a>
</g>
</g>
<!-- Node4&#45;&gt;Node5 -->
<g id="edge4" class="edge">
<title>Node4&#45;&gt;Node5</title>
<path fill="none" stroke="midnightblue" d="M334.8,-325C322.6,-325 310.01,-325 298.15,-325"/>
<polygon fill="midnightblue" stroke="midnightblue" points="334.93,-328.5 344.93,-325 334.93,-321.5 334.93,-328.5"/>
</g>
<!-- Node6 -->
<g id="node6" class="node">
<title>Node6</title>
<g id="a_node6"><a xlink:href="class_t_interface.html#ace30a12d923fc7fb489afabb0a09aa4f" target="_top" xlink:title=" ">
<polygon fill="white" stroke="black" points="0,-315.5 0,-334.5 143,-334.5 143,-315.5 0,-315.5"/>
<text text-anchor="middle" x="71.5" y="-322.5" font-family="Helvetica,sans-Serif" font-size="10.00">TInterface::MasterClockTimer</text>
</a>
</g>
</g>
<!-- Node5&#45;&gt;Node6 -->
<g id="edge5" class="edge">
<title>Node5&#45;&gt;Node6</title>
<path fill="none" stroke="midnightblue" d="M168.67,-325C160.22,-325 151.57,-325 143.09,-325"/>
<polygon fill="midnightblue" stroke="midnightblue" points="168.86,-328.5 178.86,-325 168.86,-321.5 168.86,-328.5"/>
</g>
<!-- Node7&#45;&gt;Node3 -->
<g id="edge9" class="edge">
<title>Node7&#45;&gt;Node3</title>
<path fill="none" stroke="midnightblue" d="M879.18,-684.53C826.5,-685.17 757.76,-681.98 699,-666 666.41,-657.14 632.42,-637.71 611.01,-624.01"/>
<polygon fill="midnightblue" stroke="midnightblue" points="879.55,-688.03 889.49,-684.36 879.43,-681.03 879.55,-688.03"/>
</g>
<!-- Node7&#45;&gt;Node8 -->
<g id="edge7" class="edge">
<title>Node7&#45;&gt;Node8</title>
<path fill="none" stroke="midnightblue" d="M898.67,-668.77C875.73,-664.8 850.17,-660.37 828.12,-656.55"/>
<polygon fill="midnightblue" stroke="midnightblue" points="898.2,-672.24 908.66,-670.5 899.4,-665.34 898.2,-672.24"/>
</g>
<!-- Node8&#45;&gt;Node3 -->
<g id="edge8" class="edge">
<title>Node8&#45;&gt;Node3</title>
<path fill="none" stroke="midnightblue" d="M715.27,-635.36C698.18,-631.8 679.14,-627.82 661.13,-624.06"/>
<polygon fill="midnightblue" stroke="midnightblue" points="714.57,-638.79 725.07,-637.41 716,-631.94 714.57,-638.79"/>
</g>
<!-- Node9&#45;&gt;Node3 -->
<g id="edge15" class="edge">
<title>Node9&#45;&gt;Node3</title>
<path fill="none" stroke="midnightblue" d="M892.52,-493.18C837.65,-483.65 760.86,-478.04 699,-503 653.25,-521.45 615.91,-569.05 598.91,-593.7"/>
<polygon fill="midnightblue" stroke="midnightblue" points="892.04,-496.65 902.5,-495 893.29,-489.76 892.04,-496.65"/>
</g>
<!-- Node10 -->
<g id="node10" class="node">
<title>Node10</title>
<g id="a_node10"><a xlink:href="class_t_interface.html#a1072fd152bca3234e6730efa17f84670" target="_top" xlink:title="Check integrity of a railway file prior to loading, return true for success.">
<polygon fill="white" stroke="black" points="714.5,-512 714.5,-542 829.5,-542 829.5,-512 714.5,-512"/>
<text text-anchor="start" x="722.5" y="-530" font-family="Helvetica,sans-Serif" font-size="10.00">TInterface::FileIntegrity</text>
<text text-anchor="middle" x="772" y="-519" font-family="Helvetica,sans-Serif" font-size="10.00">Check</text>
</a>
</g>
</g>
<!-- Node9&#45;&gt;Node10 -->
<g id="edge12" class="edge">
<title>Node9&#45;&gt;Node10</title>
<path fill="none" stroke="midnightblue" d="M870.61,-518.29C856.61,-519.54 842.54,-520.79 829.61,-521.95"/>
<polygon fill="midnightblue" stroke="midnightblue" points="871.13,-521.76 880.78,-517.38 870.5,-514.79 871.13,-521.76"/>
</g>
<!-- Node10&#45;&gt;Node11 -->
<g id="edge13" class="edge">
<title>Node10&#45;&gt;Node11</title>
<path fill="none" stroke="midnightblue" d="M739.68,-505.91C725.47,-494.91 709.52,-480.35 699,-464 668.87,-417.17 688.55,-393.48 663,-344 645.16,-309.45 614.18,-274.95 598.57,-258.67"/>
<polygon fill="midnightblue" stroke="midnightblue" points="737.69,-508.79 747.8,-511.96 741.87,-503.18 737.69,-508.79"/>
</g>
<!-- Node12 -->
<g id="node12" class="node">
<title>Node12</title>
<g id="a_node12"><a xlink:href="class_t_interface.html#a96249c7622a9d55541de186483e04d2e" target="_top" xlink:title=" ">
<polygon fill="white" stroke="black" points="334,-234 334,-264 477,-264 477,-234 334,-234"/>
<text text-anchor="start" x="342" y="-252" font-family="Helvetica,sans-Serif" font-size="10.00">TInterface::LoadRailwayMenu</text>
<text text-anchor="middle" x="405.5" y="-241" font-family="Helvetica,sans-Serif" font-size="10.00">ItemClick</text>
</a>
</g>
</g>
<!-- Node11&#45;&gt;Node12 -->
<g id="edge14" class="edge">
<title>Node11&#45;&gt;Node12</title>
<path fill="none" stroke="midnightblue" d="M518.25,-249C504.77,-249 490.62,-249 477.09,-249"/>
<polygon fill="midnightblue" stroke="midnightblue" points="518.4,-252.5 528.4,-249 518.4,-245.5 518.4,-252.5"/>
</g>
<!-- Node13&#45;&gt;Node3 -->
<g id="edge18" class="edge">
<title>Node13&#45;&gt;Node3</title>
<path fill="none" stroke="midnightblue" d="M881.51,-600.41C816.37,-602.32 726.06,-604.97 663.08,-606.82"/>
<polygon fill="midnightblue" stroke="midnightblue" points="881.84,-603.9 891.74,-600.11 881.64,-596.9 881.84,-603.9"/>
</g>
<!-- Node13&#45;&gt;Node10 -->
<g id="edge17" class="edge">
<title>Node13&#45;&gt;Node10</title>
<path fill="none" stroke="midnightblue" d="M900.96,-579.83C894.19,-577.63 887.43,-575.33 881,-573 855.33,-563.68 826.94,-551.51 805.72,-542.03"/>
<polygon fill="midnightblue" stroke="midnightblue" points="900.26,-583.28 910.85,-582.98 902.38,-576.61 900.26,-583.28"/>
</g>
<!-- Node14&#45;&gt;Node3 -->
<g id="edge21" class="edge">
<title>Node14&#45;&gt;Node3</title>
<path fill="none" stroke="midnightblue" d="M888.45,-565.02C822.98,-574.64 728.53,-588.51 663.29,-598.09"/>
<polygon fill="midnightblue" stroke="midnightblue" points="889.31,-568.43 898.69,-563.52 888.29,-561.51 889.31,-568.43"/>
</g>
<!-- Node14&#45;&gt;Node10 -->
<g id="edge20" class="edge">
<title>Node14&#45;&gt;Node10</title>
<path fill="none" stroke="midnightblue" d="M886.27,-543.05C867.38,-540.38 847.51,-537.56 829.78,-535.05"/>
<polygon fill="midnightblue" stroke="midnightblue" points="885.94,-546.54 896.34,-544.48 886.93,-539.61 885.94,-546.54"/>
</g>
<!-- Node15&#45;&gt;Node4 -->
<g id="edge23" class="edge">
<title>Node15&#45;&gt;Node4</title>
<path fill="none" stroke="midnightblue" d="M528.73,-388.34C523.37,-386.31 518.06,-384.19 513,-382 479.71,-367.58 442.77,-346.62 422.33,-334.54"/>
<polygon fill="midnightblue" stroke="midnightblue" points="527.8,-391.72 538.4,-391.87 530.2,-385.15 527.8,-391.72"/>
</g>
<!-- Node16&#45;&gt;Node4 -->
<g id="edge26" class="edge">
<title>Node16&#45;&gt;Node4</title>
<path fill="none" stroke="midnightblue" d="M705.63,-194.65C650.96,-193.1 572.56,-197.87 513,-230 491.06,-241.83 495.16,-255.93 477,-273 459.38,-289.57 436.45,-305.61 421.61,-315.4"/>
<polygon fill="midnightblue" stroke="midnightblue" points="705.78,-198.16 715.9,-195.03 706.03,-191.17 705.78,-198.16"/>
</g>
<!-- Node16&#45;&gt;Node11 -->
<g id="edge25" class="edge">
<title>Node16&#45;&gt;Node11</title>
<path fill="none" stroke="midnightblue" d="M725.68,-212.2C694.38,-220.63 653.35,-231.68 624.43,-239.46"/>
<polygon fill="midnightblue" stroke="midnightblue" points="726.73,-215.54 735.48,-209.56 724.91,-208.78 726.73,-215.54"/>
</g>
<!-- Node17&#45;&gt;Node4 -->
<g id="edge28" class="edge">
<title>Node17&#45;&gt;Node4</title>
<path fill="none" stroke="midnightblue" d="M531.52,-351.32C505.92,-345.93 475.92,-339.61 451.72,-334.52"/>
<polygon fill="midnightblue" stroke="midnightblue" points="530.95,-354.78 541.45,-353.41 532.39,-347.93 530.95,-354.78"/>
</g>
<!-- Node19&#45;&gt;Node20 -->
<g id="edge31" class="edge">
<title>Node19&#45;&gt;Node20</title>
<path fill="none" stroke="midnightblue" d="M882.06,-318.7C869.76,-319.41 857.15,-320.14 845.07,-320.84"/>
<polygon fill="midnightblue" stroke="midnightblue" points="882.51,-322.18 892.29,-318.11 882.11,-315.19 882.51,-322.18"/>
</g>
<!-- Node20&#45;&gt;Node4 -->
<g id="edge32" class="edge">
<title>Node20&#45;&gt;Node4</title>
<path fill="none" stroke="midnightblue" d="M688.78,-325C621.05,-325 526.62,-325 466.02,-325"/>
<polygon fill="midnightblue" stroke="midnightblue" points="688.99,-328.5 698.99,-325 688.99,-321.5 688.99,-328.5"/>
</g>
<!-- Node21&#45;&gt;Node4 -->
<g id="edge37" class="edge">
<title>Node21&#45;&gt;Node4</title>
<path fill="none" stroke="midnightblue" d="M698.89,-162.22C633.01,-163.81 541.64,-169.92 513,-191 480.95,-214.59 501.86,-241.91 477,-273 462.47,-291.17 440.12,-306.2 424.5,-315.35"/>
<polygon fill="midnightblue" stroke="midnightblue" points="699.3,-165.71 709.23,-162 699.16,-158.72 699.3,-165.71"/>
</g>
<!-- Node21&#45;&gt;Node11 -->
<g id="edge34" class="edge">
<title>Node21&#45;&gt;Node11</title>
<path fill="none" stroke="midnightblue" d="M716.9,-174.41C710.77,-176.36 704.69,-178.55 699,-181 661.46,-197.13 621.7,-224.7 601.85,-239.28"/>
<polygon fill="midnightblue" stroke="midnightblue" points="717.94,-177.75 726.52,-171.53 715.93,-171.04 717.94,-177.75"/>
</g>
<!-- Node21&#45;&gt;Node22 -->
<g id="edge35" class="edge">
<title>Node21&#45;&gt;Node22</title>
<path fill="none" stroke="midnightblue" d="M699.18,-151.34C682.56,-148.88 665.06,-146.28 649.01,-143.9"/>
<polygon fill="midnightblue" stroke="midnightblue" points="698.98,-154.85 709.38,-152.86 700,-147.93 698.98,-154.85"/>
</g>
<!-- Node22&#45;&gt;Node4 -->
<g id="edge36" class="edge">
<title>Node22&#45;&gt;Node4</title>
<path fill="none" stroke="midnightblue" d="M526.43,-148.98C521.51,-151.74 516.92,-155.05 513,-159 475.58,-196.72 507.9,-229.77 477,-273 463.65,-291.68 441.52,-306.42 425.61,-315.36"/>
<polygon fill="midnightblue" stroke="midnightblue" points="528.1,-152.06 535.6,-144.58 525.07,-145.75 528.1,-152.06"/>
</g>
<!-- Node23&#45;&gt;Node4 -->
<g id="edge42" class="edge">
<title>Node23&#45;&gt;Node4</title>
<path fill="none" stroke="midnightblue" d="M516.77,-112.26C515.45,-113.44 514.19,-114.69 513,-116 464.98,-169.1 516.25,-213.13 477,-273 464.49,-292.08 442.44,-306.65 426.32,-315.45"/>
<polygon fill="midnightblue" stroke="midnightblue" points="518.99,-114.97 524.93,-106.2 514.81,-109.35 518.99,-114.97"/>
</g>
<!-- Node24&#45;&gt;Node4 -->
<g id="edge44" class="edge">
<title>Node24&#45;&gt;Node4</title>
<path fill="none" stroke="midnightblue" d="M515.35,-63.49C514.54,-64.3 513.75,-65.13 513,-66 451.8,-136.53 526.11,-193.57 477,-273 465.08,-292.27 443.16,-306.73 426.91,-315.44"/>
<polygon fill="midnightblue" stroke="midnightblue" points="517.78,-66.03 523.36,-57.02 513.38,-60.58 517.78,-66.03"/>
</g>
<!-- Node25&#45;&gt;Node4 -->
<g id="edge48" class="edge">
<title>Node25&#45;&gt;Node4</title>
<path fill="none" stroke="midnightblue" d="M702.23,-285.24C634.12,-294.4 530.87,-308.28 466.13,-316.98"/>
<polygon fill="midnightblue" stroke="midnightblue" points="702.99,-288.67 712.44,-283.87 702.06,-281.74 702.99,-288.67"/>
</g>
<!-- Node25&#45;&gt;Node11 -->
<g id="edge47" class="edge">
<title>Node25&#45;&gt;Node11</title>
<path fill="none" stroke="midnightblue" d="M702.3,-265.81C684.35,-263.15 665.17,-260.3 647.79,-257.72"/>
<polygon fill="midnightblue" stroke="midnightblue" points="702.01,-269.3 712.41,-267.31 703.03,-262.38 702.01,-269.3"/>
</g>
<!-- Node26&#45;&gt;Node3 -->
<g id="edge51" class="edge">
<title>Node26&#45;&gt;Node3</title>
<path fill="none" stroke="midnightblue" d="M707.5,-747.37C704.54,-745.71 701.69,-743.92 699,-742 677.88,-726.91 679.41,-716.11 663,-696 642.19,-670.5 617.25,-641.49 602.29,-624.24"/>
<polygon fill="midnightblue" stroke="midnightblue" points="706.12,-750.59 716.62,-751.96 709.27,-744.34 706.12,-750.59"/>
</g>
<!-- Node26&#45;&gt;Node4 -->
<g id="edge50" class="edge">
<title>Node26&#45;&gt;Node4</title>
<path fill="none" stroke="midnightblue" d="M703.89,-748.91C645.32,-729.75 562.2,-693.82 513,-634 432.98,-536.71 411.66,-375.79 407.4,-334.76"/>
<polygon fill="midnightblue" stroke="midnightblue" points="702.85,-752.25 713.44,-751.96 704.97,-745.58 702.85,-752.25"/>
</g>
<!-- Node27&#45;&gt;Node3 -->
<g id="edge55" class="edge">
<title>Node27&#45;&gt;Node3</title>
<path fill="none" stroke="midnightblue" d="M719.02,-458.22C711.97,-461.17 705.07,-464.72 699,-469 650.21,-503.34 612.47,-565.47 596.84,-593.98"/>
<polygon fill="midnightblue" stroke="midnightblue" points="720.56,-461.38 728.67,-454.57 718.08,-454.83 720.56,-461.38"/>
</g>
<!-- Node27&#45;&gt;Node4 -->
<g id="edge54" class="edge">
<title>Node27&#45;&gt;Node4</title>
<path fill="none" stroke="midnightblue" d="M713.36,-453.24C659.19,-458.42 577.11,-459.52 513,-431 465.09,-409.68 426.76,-356.5 412.5,-334.62"/>
<polygon fill="midnightblue" stroke="midnightblue" points="713.88,-456.71 723.47,-452.2 713.16,-449.74 713.88,-456.71"/>
</g>
<!-- Node27&#45;&gt;Node11 -->
<g id="edge53" class="edge">
<title>Node27&#45;&gt;Node11</title>
<path fill="none" stroke="midnightblue" d="M755.14,-427.92C718.15,-388.09 627.15,-290.08 598.08,-258.78"/>
<polygon fill="midnightblue" stroke="midnightblue" points="752.61,-430.33 761.97,-435.28 757.73,-425.57 752.61,-430.33"/>
</g>
</g>
</svg>
        <g id="navigator" transform="translate(0 0)" fill="#404254">
                <rect fill="#f2f5e9" fill-opacity="0.5" stroke="#606060" stroke-width=".5" x="0" y="0" width="60" height="60"/>
                <use id="zoomplus" xlink:href="#zoomPlus" x="17" y="9" onmousedown="handleZoom(evt,'in')"/>
                <use id="zoomminus" xlink:href="#zoomMin" x="42" y="9" onmousedown="handleZoom(evt,'out')"/>
                <use id="reset" xlink:href="#resetDef" x="30" y="36" onmousedown="handleReset()"/>
                <g id="arrowUp" xlink:href="#dirArrow" transform="translate(30 24)" onmousedown="handlePan(0,-1)">
                  <use xlink:href="#rim" fill="#404040">
                        <set attributeName="fill" to="#808080" begin="arrowUp.mouseover" end="arrowUp.mouseout"/>
                  </use>
                  <path fill="none" stroke="white" stroke-width="1.5" d="M0,-3.0v7 M-2.5,-0.5L0,-3.0L2.5,-0.5"/>
                </g>
                <g id="arrowRight" xlink:href="#dirArrow" transform="rotate(90) translate(36 -43)" onmousedown="handlePan(1,0)">
                  <use xlink:href="#rim" fill="#404040">
                        <set attributeName="fill" to="#808080" begin="arrowRight.mouseover" end="arrowRight.mouseout"/>
                  </use>
                  <path fill="none" stroke="white" stroke-width="1.5" d="M0,-3.0v7 M-2.5,-0.5L0,-3.0L2.5,-0.5"/>
                </g>
                <g id="arrowDown" xlink:href="#dirArrow" transform="rotate(180) translate(-30 -48)" onmousedown="handlePan(0,1)">
                  <use xlink:href="#rim" fill="#404040">
                        <set attributeName="fill" to="#808080" begin="arrowDown.mouseover" end="arrowDown.mouseout"/>
                  </use>
                  <path fill="none" stroke="white" stroke-width="1.5" d="M0,-3.0v7 M-2.5,-0.5L0,-3.0L2.5,-0.5"/>
                </g>
                <g id="arrowLeft" xlink:href="#dirArrow" transform="rotate(270) translate(-36 17)" onmousedown="handlePan(-1,0)">
                  <use xlink:href="#rim" fill="#404040">
                        <set attributeName="fill" to="#808080" begin="arrowLeft.mouseover" end="arrowLeft.mouseout"/>
                  </use>
                  <path fill="none" stroke="white" stroke-width="1.5" d="M0,-3.0v7 M-2.5,-0.5L0,-3.0L2.5,-0.5"/>
                </g>
        </g>
        <svg viewBox="0 0 15 15" width="100%" height="30px" preserveAspectRatio="xMaxYMin meet">
         <g id="arrow_out" transform="scale(0.3 0.3)">
          <a xlink:href="class_t_utilities_a84bf39701305cf4814377d178d0fec8c_icgraph_org.svg" target="_base">
           <rect id="button" ry="5" rx="5" y="6" x="6" height="38" width="38"
                fill="#f2f5e9" fill-opacity="0.5" stroke="#606060" stroke-width="1.0"/>
           <path id="arrow"
             d="M 11.500037,31.436501 C 11.940474,20.09759 22.043105,11.32322 32.158766,21.979434 L 37.068811,17.246167 C 37.068811,17.246167 37.088388,32 37.088388,32 L 22.160133,31.978069 C 22.160133,31.978069 26.997745,27.140456 26.997745,27.140456 C 18.528582,18.264221 13.291696,25.230495 11.500037,31.436501 z"
             style="fill:#404040;"/>
          </a>
         </g>
        </svg>
</svg>
