<?xml version="1.0" encoding="UTF-8" standalone="no"?>
<!DOCTYPE svg PUBLIC "-//W3C//DTD SVG 1.1//EN"
 "http://www.w3.org/Graphics/SVG/1.1/DTD/svg11.dtd">
<!-- Generated by graphviz version 2.44.1 (20200629.0800)
 -->
<!-- Title: TTrainController::TimetableMessage Pages: 1 -->
<!--zoomable 348 -->
<svg id="main" version="1.1" xmlns="http://www.w3.org/2000/svg" xmlns:xlink="http://www.w3.org/1999/xlink" xml:space="preserve" onload="init(evt)">
<style type="text/css"><![CDATA[
.edge:hover path { stroke: red; }
.edge:hover polygon { stroke: red; fill: red; }
]]></style>
<script type="text/javascript"><![CDATA[
var edges = document.getElementsByTagName('g');
if (edges && edges.length) {
  for (var i=0;i<edges.length;i++) {
    if (edges[i].id.substr(0,4)=='edge') {
      edges[i].setAttribute('class','edge');
    }
  }
}
]]></script>
        <defs>
                <circle id="rim" cx="0" cy="0" r="7"/>
                <circle id="rim2" cx="0" cy="0" r="3.5"/>
                <g id="zoomPlus">
                        <use xlink:href="#rim" fill="#404040">
                                <set attributeName="fill" to="#808080" begin="zoomplus.mouseover" end="zoomplus.mouseout"/>
                        </use>
                        <path d="M-4,0h8M0,-4v8" fill="none" stroke="white" stroke-width="1.5" pointer-events="none"/>
                </g>
                <g id="zoomMin">
                        <use xlink:href="#rim" fill="#404040">
                                <set attributeName="fill" to="#808080" begin="zoomminus.mouseover" end="zoomminus.mouseout"/>
                        </use>
                        <path d="M-4,0h8" fill="none" stroke="white" stroke-width="1.5" pointer-events="none"/>
                </g>
                <g id="dirArrow">
                        <path fill="none" stroke="white" stroke-width="1.5" d="M0,-3.0v7 M-2.5,-0.5L0,-3.0L2.5,-0.5"/>
                </g>
               <g id="resetDef">
                       <use xlink:href="#rim2" fill="#404040">
                               <set attributeName="fill" to="#808080" begin="reset.mouseover" end="reset.mouseout"/>
                       </use>
               </g>
        </defs>

<script type="text/javascript">
var viewWidth = 1709;
var viewHeight = 348;
var sectionId = 'dynsection-128';
</script>
<script xlink:href="svgpan.js"/>
<svg id="graph" class="graph">
<g id="viewport">
<title>TTrainController::TimetableMessage</title>
<polygon fill="white" stroke="transparent" points="-4,4 -4,-343.99 1705,-343.99 1705,4 -4,4"/>
<!-- Node1 -->
<g id="node1" class="node">
<title>Node1</title>
<g id="a_node1"><a xlink:title="Sends a message to the user if GiveMessages is true, including ServiceReference (see above) if not nu...">
<polygon fill="#bfbfbf" stroke="black" points="1569,-162.49 1569,-192.49 1701,-192.49 1701,-162.49 1569,-162.49"/>
<text text-anchor="start" x="1577" y="-180.49" font-family="Helvetica,sans-Serif" font-size="10.00">TTrainController::Timetable</text>
<text text-anchor="middle" x="1635" y="-169.49" font-family="Helvetica,sans-Serif" font-size="10.00">Message</text>
</a>
</g>
</g>
<!-- Node2 -->
<g id="node2" class="node">
<title>Node2</title>
<g id="a_node2"><a xlink:href="class_t_train_controller.html#a3733e089b5f58d8b5e8355298653b53a" target="_top" xlink:title="Used to compile ExitList from a string list of element IDs, returns true for success or gives a messa...">
<polygon fill="white" stroke="black" points="1388,-260.49 1388,-290.49 1523,-290.49 1523,-260.49 1388,-260.49"/>
<text text-anchor="start" x="1396" y="-278.49" font-family="Helvetica,sans-Serif" font-size="10.00">TTrainController::CheckAnd</text>
<text text-anchor="middle" x="1455.5" y="-267.49" font-family="Helvetica,sans-Serif" font-size="10.00">PopulateListOfIDs</text>
</a>
</g>
</g>
<!-- Node1&#45;&gt;Node2 -->
<g id="edge1" class="edge">
<title>Node1&#45;&gt;Node2</title>
<path fill="none" stroke="midnightblue" d="M1609.11,-199.36C1589.55,-215.61 1561.01,-237.33 1533,-251.49 1526.42,-254.82 1519.28,-257.8 1512.1,-260.43"/>
<polygon fill="midnightblue" stroke="midnightblue" points="1611.54,-201.89 1616.92,-192.76 1607.02,-196.54 1611.54,-201.89"/>
</g>
<!-- Node4 -->
<g id="node4" class="node">
<title>Node4</title>
<g id="a_node4"><a xlink:href="class_t_train_controller.html#a5c51eb1e0018e189966ffdbc5d251990" target="_top" xlink:title="Carry out preliminary (mainly syntax) validity checks on a single timetable service entry and (if Fin...">
<polygon fill="white" stroke="black" points="1031,-90.49 1031,-120.49 1157,-120.49 1157,-90.49 1031,-90.49"/>
<text text-anchor="start" x="1039" y="-108.49" font-family="Helvetica,sans-Serif" font-size="10.00">TTrainController::Process</text>
<text text-anchor="middle" x="1094" y="-97.49" font-family="Helvetica,sans-Serif" font-size="10.00">OneTimetableLine</text>
</a>
</g>
</g>
<!-- Node1&#45;&gt;Node4 -->
<g id="edge34" class="edge">
<title>Node1&#45;&gt;Node4</title>
<path fill="none" stroke="midnightblue" d="M1596.66,-157.9C1578.03,-148.99 1554.85,-139.19 1533,-133.49 1402.49,-99.47 1243.07,-99.11 1157.1,-102.13"/>
<polygon fill="midnightblue" stroke="midnightblue" points="1595.16,-161.06 1605.69,-162.31 1598.24,-154.77 1595.16,-161.06"/>
</g>
<!-- Node14 -->
<g id="node14" class="node">
<title>Node14</title>
<g id="a_node14"><a xlink:href="class_t_train_controller.html#ac51af4807fe6bba453f8ab9bba42e2b5" target="_top" xlink:title="Checks overall timetable integrity, calls many other specific checking functions, returns true for su...">
<polygon fill="white" stroke="black" points="857.5,-66.49 857.5,-96.49 989.5,-96.49 989.5,-66.49 857.5,-66.49"/>
<text text-anchor="start" x="865.5" y="-84.49" font-family="Helvetica,sans-Serif" font-size="10.00">TTrainController::Timetable</text>
<text text-anchor="middle" x="923.5" y="-73.49" font-family="Helvetica,sans-Serif" font-size="10.00">IntegrityCheck</text>
</a>
</g>
</g>
<!-- Node1&#45;&gt;Node14 -->
<g id="edge38" class="edge">
<title>Node1&#45;&gt;Node14</title>
<path fill="none" stroke="midnightblue" d="M1622.87,-152.9C1607.52,-122.27 1576.72,-71.23 1533,-48.49 1340.1,51.79 1064.79,-30.19 963.68,-66.44"/>
<polygon fill="midnightblue" stroke="midnightblue" points="1619.8,-154.59 1627.3,-162.06 1626.1,-151.54 1619.8,-154.59"/>
</g>
<!-- Node16 -->
<g id="node16" class="node">
<title>Node16</title>
<g id="a_node16"><a xlink:href="class_t_train_controller.html#a1ccd6c8f2c24e7417889e1a91cb9ca2f" target="_top" xlink:title="Returns true if the headcode complies with requirements.">
<polygon fill="white" stroke="black" points="1385.5,-162.49 1385.5,-192.49 1525.5,-192.49 1525.5,-162.49 1385.5,-162.49"/>
<text text-anchor="start" x="1393.5" y="-180.49" font-family="Helvetica,sans-Serif" font-size="10.00">TTrainController::CheckHead</text>
<text text-anchor="middle" x="1455.5" y="-169.49" font-family="Helvetica,sans-Serif" font-size="10.00">CodeValidity</text>
</a>
</g>
</g>
<!-- Node1&#45;&gt;Node16 -->
<g id="edge19" class="edge">
<title>Node1&#45;&gt;Node16</title>
<path fill="none" stroke="midnightblue" d="M1558.91,-170.82C1547.92,-170.7 1536.63,-170.73 1525.76,-170.89"/>
<polygon fill="midnightblue" stroke="midnightblue" points="1558.86,-174.32 1568.91,-170.96 1558.97,-167.32 1558.86,-174.32"/>
</g>
<!-- Node20 -->
<g id="node20" class="node">
<title>Node20</title>
<g id="a_node20"><a xlink:href="class_t_train_controller.html#a53410afbc9dd5e8c2cd4a443bfb01034" target="_top" xlink:title="Parse a train information entry, return true for success; PowerAtRail changed to double&amp; from int&amp; at...">
<polygon fill="white" stroke="black" points="1196,-123.99 1196,-142.99 1342,-142.99 1342,-123.99 1196,-123.99"/>
<text text-anchor="middle" x="1269" y="-130.99" font-family="Helvetica,sans-Serif" font-size="10.00">TTrainController::SplitTrainInfo</text>
</a>
</g>
</g>
<!-- Node1&#45;&gt;Node20 -->
<g id="edge37" class="edge">
<title>Node1&#45;&gt;Node20</title>
<path fill="none" stroke="midnightblue" d="M1567.7,-160.17C1556.19,-157.62 1544.29,-155.25 1533,-153.49 1468.86,-143.5 1395.12,-138.44 1342.07,-135.92"/>
<polygon fill="midnightblue" stroke="midnightblue" points="1567.16,-163.64 1577.69,-162.46 1568.72,-156.81 1567.16,-163.64"/>
</g>
<!-- Node21 -->
<g id="node21" class="node">
<title>Node21</title>
<g id="a_node21"><a xlink:href="class_t_train_controller.html#a1925032d5e41decf4befc07b35521d3c" target="_top" xlink:title="Returns true if the location name complies with requirements.">
<polygon fill="white" stroke="black" points="1378,-309.49 1378,-339.49 1533,-339.49 1533,-309.49 1378,-309.49"/>
<text text-anchor="start" x="1386" y="-327.49" font-family="Helvetica,sans-Serif" font-size="10.00">TTrainController::CheckLocation</text>
<text text-anchor="middle" x="1455.5" y="-316.49" font-family="Helvetica,sans-Serif" font-size="10.00">Validity</text>
</a>
</g>
</g>
<!-- Node1&#45;&gt;Node21 -->
<g id="edge27" class="edge">
<title>Node1&#45;&gt;Node21</title>
<path fill="none" stroke="midnightblue" d="M1620.32,-201.45C1603.29,-229.19 1571.69,-274.39 1533,-300.49 1527.92,-303.92 1522.33,-306.88 1516.55,-309.43"/>
<polygon fill="midnightblue" stroke="midnightblue" points="1623.38,-203.15 1625.52,-192.77 1617.38,-199.55 1623.38,-203.15"/>
</g>
<!-- Node24 -->
<g id="node24" class="node">
<title>Node24</title>
<g id="a_node24"><a xlink:href="class_t_train_controller.html#a5c9711cc69c8332cf7db5e0b2696ca45" target="_top" xlink:title="A timetable validation function where train starting positions are checked for validity,...">
<polygon fill="white" stroke="black" points="1386,-211.49 1386,-241.49 1525,-241.49 1525,-211.49 1386,-211.49"/>
<text text-anchor="start" x="1394" y="-229.49" font-family="Helvetica,sans-Serif" font-size="10.00">TTrainController::CheckStart</text>
<text text-anchor="middle" x="1455.5" y="-218.49" font-family="Helvetica,sans-Serif" font-size="10.00">PositionValidity</text>
</a>
</g>
</g>
<!-- Node1&#45;&gt;Node24 -->
<g id="edge32" class="edge">
<title>Node1&#45;&gt;Node24</title>
<path fill="none" stroke="midnightblue" d="M1569.44,-195.32C1550.28,-200.61 1529.48,-206.35 1511.02,-211.44"/>
<polygon fill="midnightblue" stroke="midnightblue" points="1570.59,-198.63 1579.3,-192.6 1568.72,-191.88 1570.59,-198.63"/>
</g>
<!-- Node25 -->
<g id="node25" class="node">
<title>Node25</title>
<g id="a_node25"><a xlink:href="class_t_train_controller.html#a03d63b7579e50c092cca3b5200d9dafb" target="_top" xlink:title="Parse a timetable repeat entry, return true for success.">
<polygon fill="white" stroke="black" points="1199,-47.99 1199,-66.99 1339,-66.99 1339,-47.99 1199,-47.99"/>
<text text-anchor="middle" x="1269" y="-54.99" font-family="Helvetica,sans-Serif" font-size="10.00">TTrainController::SplitRepeat</text>
</a>
</g>
</g>
<!-- Node1&#45;&gt;Node25 -->
<g id="edge35" class="edge">
<title>Node1&#45;&gt;Node25</title>
<path fill="none" stroke="midnightblue" d="M1617.08,-154.07C1599.08,-131.19 1568.36,-97.52 1533,-81.49 1471.61,-53.67 1394.01,-49.89 1339.05,-51.71"/>
<polygon fill="midnightblue" stroke="midnightblue" points="1614.49,-156.44 1623.34,-162.26 1620.05,-152.19 1614.49,-156.44"/>
</g>
<!-- Node3 -->
<g id="node3" class="node">
<title>Node3</title>
<g id="a_node3"><a xlink:href="class_t_train_controller.html#a23ca27d36d711136e0529ba8ae4f22f0" target="_top" xlink:title="Parse a single timetable service action, return true for success.">
<polygon fill="white" stroke="black" points="1202.5,-216.99 1202.5,-235.99 1335.5,-235.99 1335.5,-216.99 1202.5,-216.99"/>
<text text-anchor="middle" x="1269" y="-223.99" font-family="Helvetica,sans-Serif" font-size="10.00">TTrainController::SplitEntry</text>
</a>
</g>
</g>
<!-- Node2&#45;&gt;Node3 -->
<g id="edge2" class="edge">
<title>Node2&#45;&gt;Node3</title>
<path fill="none" stroke="midnightblue" d="M1387.86,-257.8C1360.17,-250.44 1329.14,-242.2 1305.88,-236.02"/>
<polygon fill="midnightblue" stroke="midnightblue" points="1387.33,-261.28 1397.89,-260.46 1389.12,-254.51 1387.33,-261.28"/>
</g>
<!-- Node3&#45;&gt;Node4 -->
<g id="edge3" class="edge">
<title>Node3&#45;&gt;Node4</title>
<path fill="none" stroke="midnightblue" d="M1213.82,-213.15C1207.45,-210.25 1201.33,-206.74 1196,-202.49 1171.97,-183.36 1181.92,-165.01 1160,-143.49 1150.76,-134.43 1138.95,-126.69 1127.93,-120.61"/>
<polygon fill="midnightblue" stroke="midnightblue" points="1212.68,-216.46 1223.27,-216.97 1215.31,-209.97 1212.68,-216.46"/>
</g>
<!-- Node5 -->
<g id="node5" class="node">
<title>Node5</title>
<g id="a_node5"><a xlink:href="class_t_interface.html#a148e3f99d39f596dbd7d490403936154" target="_top" xlink:title="Convert a stored timetable file (either as a stand alone file or within a session file) to a loaded t...">
<polygon fill="white" stroke="black" points="859.5,-115.49 859.5,-145.49 987.5,-145.49 987.5,-115.49 859.5,-115.49"/>
<text text-anchor="start" x="867.5" y="-133.49" font-family="Helvetica,sans-Serif" font-size="10.00">TInterface::BuildTrainData</text>
<text text-anchor="middle" x="923.5" y="-122.49" font-family="Helvetica,sans-Serif" font-size="10.00">VectorForLoadFile</text>
</a>
</g>
</g>
<!-- Node4&#45;&gt;Node5 -->
<g id="edge4" class="edge">
<title>Node4&#45;&gt;Node5</title>
<path fill="none" stroke="midnightblue" d="M1020.73,-116.22C1009.72,-117.85 998.43,-119.53 987.63,-121.13"/>
<polygon fill="midnightblue" stroke="midnightblue" points="1021.36,-119.66 1030.74,-114.73 1020.33,-112.74 1021.36,-119.66"/>
</g>
<!-- Node12 -->
<g id="node12" class="node">
<title>Node12</title>
<g id="a_node12"><a xlink:href="class_t_interface.html#a4ffe7e6eb2421577f670a52f556aef97" target="_top" xlink:title="Check the integrity of a stored timetable file (either as a stand alone file or within a session file...">
<polygon fill="white" stroke="black" points="859.5,-17.49 859.5,-47.49 987.5,-47.49 987.5,-17.49 859.5,-17.49"/>
<text text-anchor="start" x="867.5" y="-35.49" font-family="Helvetica,sans-Serif" font-size="10.00">TInterface::BuildTrainData</text>
<text text-anchor="middle" x="923.5" y="-24.49" font-family="Helvetica,sans-Serif" font-size="10.00">VectorForValidateFile</text>
</a>
</g>
</g>
<!-- Node4&#45;&gt;Node12 -->
<g id="edge12" class="edge">
<title>Node4&#45;&gt;Node12</title>
<path fill="none" stroke="midnightblue" d="M1055.11,-85.89C1036.35,-76.49 1013.22,-65.38 992,-56.49 984.66,-53.42 976.77,-50.38 969.06,-47.56"/>
<polygon fill="midnightblue" stroke="midnightblue" points="1053.71,-89.1 1064.22,-90.48 1056.87,-82.85 1053.71,-89.1"/>
</g>
<!-- Node4&#45;&gt;Node14 -->
<g id="edge14" class="edge">
<title>Node4&#45;&gt;Node14</title>
<path fill="none" stroke="midnightblue" d="M1020.55,-95.18C1010.27,-93.71 999.75,-92.21 989.61,-90.77"/>
<polygon fill="midnightblue" stroke="midnightblue" points="1020.34,-98.68 1030.74,-96.63 1021.33,-91.75 1020.34,-98.68"/>
</g>
<!-- Node15 -->
<g id="node15" class="node">
<title>Node15</title>
<g id="a_node15"><a xlink:href="class_t_interface.html#a003b10236c2b4316dc57be370c715c44" target="_top" xlink:title=" ">
<polygon fill="white" stroke="black" points="855,-164.49 855,-194.49 992,-194.49 992,-164.49 855,-164.49"/>
<text text-anchor="start" x="863" y="-182.49" font-family="Helvetica,sans-Serif" font-size="10.00">TInterface::TTServiceSyntax</text>
<text text-anchor="middle" x="923.5" y="-171.49" font-family="Helvetica,sans-Serif" font-size="10.00">CheckButtonClick</text>
</a>
</g>
</g>
<!-- Node4&#45;&gt;Node15 -->
<g id="edge18" class="edge">
<title>Node4&#45;&gt;Node15</title>
<path fill="none" stroke="midnightblue" d="M1055.56,-125.35C1036.74,-134.99 1013.42,-146.42 992,-155.49 984.67,-158.6 976.79,-161.65 969.08,-164.48"/>
<polygon fill="midnightblue" stroke="midnightblue" points="1057.41,-128.33 1064.69,-120.63 1054.2,-122.11 1057.41,-128.33"/>
</g>
<!-- Node6 -->
<g id="node6" class="node">
<title>Node6</title>
<g id="a_node6"><a xlink:href="class_t_interface.html#a92d5a9e07b9362dee2296b7759a1c83d" target="_top" xlink:title="Loads timetable into memory from a session file, true if successful.">
<polygon fill="white" stroke="black" points="684,-66.49 684,-96.49 812,-96.49 812,-66.49 684,-66.49"/>
<text text-anchor="start" x="692" y="-84.49" font-family="Helvetica,sans-Serif" font-size="10.00">TInterface::LoadTimetable</text>
<text text-anchor="middle" x="748" y="-73.49" font-family="Helvetica,sans-Serif" font-size="10.00">FromSessionFile</text>
</a>
</g>
</g>
<!-- Node5&#45;&gt;Node6 -->
<g id="edge5" class="edge">
<title>Node5&#45;&gt;Node6</title>
<path fill="none" stroke="midnightblue" d="M859.4,-112.67C840.67,-107.38 820.34,-101.64 802.29,-96.55"/>
<polygon fill="midnightblue" stroke="midnightblue" points="858.45,-116.04 869.03,-115.39 860.36,-109.31 858.45,-116.04"/>
</g>
<!-- Node11 -->
<g id="node11" class="node">
<title>Node11</title>
<g id="a_node11"><a xlink:href="class_t_interface.html#a15a2f5ad77e4f6c2b0cc6314224dfb78" target="_top" xlink:title=" ">
<polygon fill="white" stroke="black" points="684,-115.49 684,-145.49 812,-145.49 812,-115.49 684,-115.49"/>
<text text-anchor="start" x="692" y="-133.49" font-family="Helvetica,sans-Serif" font-size="10.00">TInterface::LoadTimetable</text>
<text text-anchor="middle" x="748" y="-122.49" font-family="Helvetica,sans-Serif" font-size="10.00">MenuItemClick</text>
</a>
</g>
</g>
<!-- Node5&#45;&gt;Node11 -->
<g id="edge11" class="edge">
<title>Node5&#45;&gt;Node11</title>
<path fill="none" stroke="midnightblue" d="M849.13,-130.49C836.81,-130.49 824.12,-130.49 812.08,-130.49"/>
<polygon fill="midnightblue" stroke="midnightblue" points="849.37,-133.99 859.37,-130.49 849.37,-126.99 849.37,-133.99"/>
</g>
<!-- Node7 -->
<g id="node7" class="node">
<title>Node7</title>
<g id="a_node7"><a xlink:href="class_t_interface.html#a636b1b4bd29f2678a3290ed2d282f1c2" target="_top" xlink:title="Load a session file.">
<polygon fill="white" stroke="black" points="334,-115.99 334,-134.99 455,-134.99 455,-115.99 334,-115.99"/>
<text text-anchor="middle" x="394.5" y="-122.99" font-family="Helvetica,sans-Serif" font-size="10.00">TInterface::LoadSession</text>
</a>
</g>
</g>
<!-- Node6&#45;&gt;Node7 -->
<g id="edge6" class="edge">
<title>Node6&#45;&gt;Node7</title>
<path fill="none" stroke="midnightblue" d="M680.55,-98.82C667.51,-101.75 653.88,-104.49 641,-106.49 577.96,-116.31 504.98,-121.14 455.08,-123.46"/>
<polygon fill="midnightblue" stroke="midnightblue" points="681.42,-102.21 690.38,-96.55 679.85,-95.39 681.42,-102.21"/>
</g>
<!-- Node10 -->
<g id="node10" class="node">
<title>Node10</title>
<g id="a_node10"><a xlink:href="class_t_interface.html#a3904f26b67b9512507960187b37b6f7b" target="_top" xlink:title="Checks session file integrity prior to loading, true for success.">
<polygon fill="white" stroke="black" points="491,-66.49 491,-96.49 641,-96.49 641,-66.49 491,-66.49"/>
<text text-anchor="start" x="499" y="-84.49" font-family="Helvetica,sans-Serif" font-size="10.00">TInterface::SessionFileIntegrity</text>
<text text-anchor="middle" x="566" y="-73.49" font-family="Helvetica,sans-Serif" font-size="10.00">Check</text>
</a>
</g>
</g>
<!-- Node6&#45;&gt;Node10 -->
<g id="edge9" class="edge">
<title>Node6&#45;&gt;Node10</title>
<path fill="none" stroke="midnightblue" d="M673.64,-81.49C662.93,-81.49 651.89,-81.49 641.16,-81.49"/>
<polygon fill="midnightblue" stroke="midnightblue" points="673.79,-84.99 683.79,-81.49 673.79,-77.99 673.79,-84.99"/>
</g>
<!-- Node8 -->
<g id="node8" class="node">
<title>Node8</title>
<g id="a_node8"><a xlink:href="class_t_interface.html#a6139ffb52492eb89e5487a8a3cd647b5" target="_top" xlink:title="The main loop, called every clock tick via MasterClockTimer.">
<polygon fill="white" stroke="black" points="179,-115.99 179,-134.99 298,-134.99 298,-115.99 179,-115.99"/>
<text text-anchor="middle" x="238.5" y="-122.99" font-family="Helvetica,sans-Serif" font-size="10.00">TInterface::ClockTimer2</text>
</a>
</g>
</g>
<!-- Node7&#45;&gt;Node8 -->
<g id="edge7" class="edge">
<title>Node7&#45;&gt;Node8</title>
<path fill="none" stroke="midnightblue" d="M323.92,-125.49C315.3,-125.49 306.56,-125.49 298.12,-125.49"/>
<polygon fill="midnightblue" stroke="midnightblue" points="323.96,-128.99 333.96,-125.49 323.96,-121.99 323.96,-128.99"/>
</g>
<!-- Node9 -->
<g id="node9" class="node">
<title>Node9</title>
<g id="a_node9"><a xlink:href="class_t_interface.html#ace30a12d923fc7fb489afabb0a09aa4f" target="_top" xlink:title=" ">
<polygon fill="white" stroke="black" points="0,-115.99 0,-134.99 143,-134.99 143,-115.99 0,-115.99"/>
<text text-anchor="middle" x="71.5" y="-122.99" font-family="Helvetica,sans-Serif" font-size="10.00">TInterface::MasterClockTimer</text>
</a>
</g>
</g>
<!-- Node8&#45;&gt;Node9 -->
<g id="edge8" class="edge">
<title>Node8&#45;&gt;Node9</title>
<path fill="none" stroke="midnightblue" d="M168.67,-125.49C160.22,-125.49 151.57,-125.49 143.09,-125.49"/>
<polygon fill="midnightblue" stroke="midnightblue" points="168.86,-128.99 178.86,-125.49 168.86,-121.99 168.86,-128.99"/>
</g>
<!-- Node10&#45;&gt;Node7 -->
<g id="edge10" class="edge">
<title>Node10&#45;&gt;Node7</title>
<path fill="none" stroke="midnightblue" d="M497.39,-99.05C475.12,-104.83 451.2,-111.03 432.14,-115.98"/>
<polygon fill="midnightblue" stroke="midnightblue" points="498.34,-102.41 507.14,-96.51 496.58,-95.64 498.34,-102.41"/>
</g>
<!-- Node13 -->
<g id="node13" class="node">
<title>Node13</title>
<g id="a_node13"><a xlink:href="class_t_interface.html#a2f501868bbee2310af99bf2e8e265c59" target="_top" xlink:title=" ">
<polygon fill="white" stroke="black" points="677,-17.49 677,-47.49 819,-47.49 819,-17.49 677,-17.49"/>
<text text-anchor="start" x="685" y="-35.49" font-family="Helvetica,sans-Serif" font-size="10.00">TInterface::ValidateTimetable</text>
<text text-anchor="middle" x="748" y="-24.49" font-family="Helvetica,sans-Serif" font-size="10.00">ButtonClick</text>
</a>
</g>
</g>
<!-- Node12&#45;&gt;Node13 -->
<g id="edge13" class="edge">
<title>Node12&#45;&gt;Node13</title>
<path fill="none" stroke="midnightblue" d="M849.12,-32.49C839.18,-32.49 829,-32.49 819.12,-32.49"/>
<polygon fill="midnightblue" stroke="midnightblue" points="849.37,-35.99 859.37,-32.49 849.37,-28.99 849.37,-35.99"/>
</g>
<!-- Node14&#45;&gt;Node6 -->
<g id="edge15" class="edge">
<title>Node14&#45;&gt;Node6</title>
<path fill="none" stroke="midnightblue" d="M847.22,-81.49C835.53,-81.49 823.55,-81.49 812.16,-81.49"/>
<polygon fill="midnightblue" stroke="midnightblue" points="847.4,-84.99 857.4,-81.49 847.4,-77.99 847.4,-84.99"/>
</g>
<!-- Node14&#45;&gt;Node11 -->
<g id="edge16" class="edge">
<title>Node14&#45;&gt;Node11</title>
<path fill="none" stroke="midnightblue" d="M859.4,-99.32C840.67,-104.61 820.34,-110.35 802.29,-115.44"/>
<polygon fill="midnightblue" stroke="midnightblue" points="860.36,-102.68 869.03,-96.6 858.45,-95.95 860.36,-102.68"/>
</g>
<!-- Node14&#45;&gt;Node13 -->
<g id="edge17" class="edge">
<title>Node14&#45;&gt;Node13</title>
<path fill="none" stroke="midnightblue" d="M859.4,-63.67C840.67,-58.38 820.34,-52.64 802.29,-47.55"/>
<polygon fill="midnightblue" stroke="midnightblue" points="858.45,-67.04 869.03,-66.39 860.36,-60.31 858.45,-67.04"/>
</g>
<!-- Node16&#45;&gt;Node1 -->
<g id="edge26" class="edge">
<title>Node16&#45;&gt;Node1</title>
<path fill="none" stroke="midnightblue" d="M1535.84,-184.21C1546.9,-184.29 1558.16,-184.23 1568.91,-184.03"/>
<polygon fill="midnightblue" stroke="midnightblue" points="1535.8,-180.71 1525.76,-184.1 1535.72,-187.71 1535.8,-180.71"/>
</g>
<!-- Node16&#45;&gt;Node3 -->
<g id="edge23" class="edge">
<title>Node16&#45;&gt;Node3</title>
<path fill="none" stroke="midnightblue" d="M1387.86,-195.19C1360.17,-202.55 1329.14,-210.79 1305.88,-216.97"/>
<polygon fill="midnightblue" stroke="midnightblue" points="1389.12,-198.48 1397.89,-192.53 1387.33,-191.71 1389.12,-198.48"/>
</g>
<!-- Node17 -->
<g id="node17" class="node">
<title>Node17</title>
<g id="a_node17"><a xlink:href="class_t_train_controller.html#a4ab4b6a568064d27c65f0770e5a5ccd0" target="_top" xlink:title="Examines the internal timetable (TrainDataVector) and creates from it a chronological (....">
<polygon fill="white" stroke="black" points="1209.5,-162.49 1209.5,-192.49 1328.5,-192.49 1328.5,-162.49 1209.5,-162.49"/>
<text text-anchor="start" x="1217.5" y="-180.49" font-family="Helvetica,sans-Serif" font-size="10.00">TTrainController::Create</text>
<text text-anchor="middle" x="1269" y="-169.49" font-family="Helvetica,sans-Serif" font-size="10.00">FormattedTimetable</text>
</a>
</g>
</g>
<!-- Node16&#45;&gt;Node17 -->
<g id="edge20" class="edge">
<title>Node16&#45;&gt;Node17</title>
<path fill="none" stroke="midnightblue" d="M1375.13,-177.49C1359.56,-177.49 1343.49,-177.49 1328.74,-177.49"/>
<polygon fill="midnightblue" stroke="midnightblue" points="1375.27,-180.99 1385.27,-177.49 1375.27,-173.99 1375.27,-180.99"/>
</g>
<!-- Node16&#45;&gt;Node20 -->
<g id="edge24" class="edge">
<title>Node16&#45;&gt;Node20</title>
<path fill="none" stroke="midnightblue" d="M1381.55,-160.1C1357.13,-154.27 1330.82,-148 1309.89,-143.01"/>
<polygon fill="midnightblue" stroke="midnightblue" points="1380.98,-163.56 1391.52,-162.48 1382.61,-156.75 1380.98,-163.56"/>
</g>
<!-- Node18 -->
<g id="node18" class="node">
<title>Node18</title>
<g id="a_node18"><a xlink:href="class_t_interface.html#ab7c52bd31930036c95b9b71c2f1f0426" target="_top" xlink:title=" ">
<polygon fill="white" stroke="black" points="1028,-201.49 1028,-231.49 1160,-231.49 1160,-201.49 1028,-201.49"/>
<text text-anchor="start" x="1036" y="-219.49" font-family="Helvetica,sans-Serif" font-size="10.00">TInterface::ExportTTButton</text>
<text text-anchor="middle" x="1094" y="-208.49" font-family="Helvetica,sans-Serif" font-size="10.00">Click</text>
</a>
</g>
</g>
<!-- Node17&#45;&gt;Node18 -->
<g id="edge21" class="edge">
<title>Node17&#45;&gt;Node18</title>
<path fill="none" stroke="midnightblue" d="M1199.6,-192.91C1186.57,-195.85 1172.97,-198.92 1160.05,-201.83"/>
<polygon fill="midnightblue" stroke="midnightblue" points="1200.44,-196.31 1209.43,-190.7 1198.91,-189.48 1200.44,-196.31"/>
</g>
<!-- Node19 -->
<g id="node19" class="node">
<title>Node19</title>
<g id="a_node19"><a xlink:href="class_t_interface.html#a1bf4807428bf9fa4504be97d28642597" target="_top" xlink:title=" ">
<polygon fill="white" stroke="black" points="1030,-152.49 1030,-182.49 1158,-182.49 1158,-152.49 1030,-152.49"/>
<text text-anchor="start" x="1038" y="-170.49" font-family="Helvetica,sans-Serif" font-size="10.00">TInterface::ExportTTMenu</text>
<text text-anchor="middle" x="1094" y="-159.49" font-family="Helvetica,sans-Serif" font-size="10.00">ItemClick</text>
</a>
</g>
</g>
<!-- Node17&#45;&gt;Node19 -->
<g id="edge22" class="edge">
<title>Node17&#45;&gt;Node19</title>
<path fill="none" stroke="midnightblue" d="M1199.23,-173.52C1185.71,-172.74 1171.58,-171.92 1158.25,-171.15"/>
<polygon fill="midnightblue" stroke="midnightblue" points="1199.24,-177.03 1209.43,-174.11 1199.65,-170.04 1199.24,-177.03"/>
</g>
<!-- Node20&#45;&gt;Node4 -->
<g id="edge25" class="edge">
<title>Node20&#45;&gt;Node4</title>
<path fill="none" stroke="midnightblue" d="M1198.99,-122.32C1185.12,-120.08 1170.64,-117.74 1157.03,-115.53"/>
<polygon fill="midnightblue" stroke="midnightblue" points="1198.52,-125.79 1208.95,-123.94 1199.63,-118.88 1198.52,-125.79"/>
</g>
<!-- Node21&#45;&gt;Node3 -->
<g id="edge31" class="edge">
<title>Node21&#45;&gt;Node3</title>
<path fill="none" stroke="midnightblue" d="M1389.82,-305.76C1385.77,-304.11 1381.8,-302.35 1378,-300.49 1360.51,-291.93 1358.05,-286.53 1342,-275.49 1321.94,-261.7 1298.63,-245.88 1284.1,-236.03"/>
<polygon fill="midnightblue" stroke="midnightblue" points="1388.79,-309.12 1399.38,-309.42 1391.3,-302.58 1388.79,-309.12"/>
</g>
<!-- Node22 -->
<g id="node22" class="node">
<title>Node22</title>
<g id="a_node22"><a xlink:href="class_t_train.html#a23c65e7f2b2130ae87811f70afb6d5bf" target="_top" xlink:title="Create one train with relevant member values from the sesion file.">
<polygon fill="white" stroke="black" points="1197,-284.99 1197,-303.99 1341,-303.99 1341,-284.99 1197,-284.99"/>
<text text-anchor="middle" x="1269" y="-291.99" font-family="Helvetica,sans-Serif" font-size="10.00">TTrain::LoadOneSessionTrain</text>
</a>
</g>
</g>
<!-- Node21&#45;&gt;Node22 -->
<g id="edge28" class="edge">
<title>Node21&#45;&gt;Node22</title>
<path fill="none" stroke="midnightblue" d="M1367.78,-310.39C1354.53,-308.24 1341.13,-306.06 1328.68,-304.04"/>
<polygon fill="midnightblue" stroke="midnightblue" points="1367.43,-313.88 1377.86,-312.03 1368.55,-306.97 1367.43,-313.88"/>
</g>
<!-- Node23 -->
<g id="node23" class="node">
<title>Node23</title>
<g id="a_node23"><a xlink:href="class_t_train_controller.html#a853ddf9799c9fd7063c81ffa1dc754d7" target="_top" xlink:title="load trains from a session file">
<polygon fill="white" stroke="black" points="493,-191.49 493,-221.49 639,-221.49 639,-191.49 493,-191.49"/>
<text text-anchor="start" x="501" y="-209.49" font-family="Helvetica,sans-Serif" font-size="10.00">TTrainController::LoadSession</text>
<text text-anchor="middle" x="566" y="-198.49" font-family="Helvetica,sans-Serif" font-size="10.00">Trains</text>
</a>
</g>
</g>
<!-- Node22&#45;&gt;Node23 -->
<g id="edge29" class="edge">
<title>Node22&#45;&gt;Node23</title>
<path fill="none" stroke="midnightblue" d="M1186.83,-284.31C1048.81,-266.98 770.6,-232.05 639.05,-215.54"/>
<polygon fill="midnightblue" stroke="midnightblue" points="1186.57,-287.8 1196.93,-285.57 1187.44,-280.85 1186.57,-287.8"/>
</g>
<!-- Node23&#45;&gt;Node7 -->
<g id="edge30" class="edge">
<title>Node23&#45;&gt;Node7</title>
<path fill="none" stroke="midnightblue" d="M524.22,-187.01C489.91,-170.61 442.31,-147.87 415.66,-135.13"/>
<polygon fill="midnightblue" stroke="midnightblue" points="522.98,-190.3 533.52,-191.45 526,-183.98 522.98,-190.3"/>
</g>
<!-- Node24&#45;&gt;Node3 -->
<g id="edge33" class="edge">
<title>Node24&#45;&gt;Node3</title>
<path fill="none" stroke="midnightblue" d="M1375.7,-226.49C1362.36,-226.49 1348.65,-226.49 1335.7,-226.49"/>
<polygon fill="midnightblue" stroke="midnightblue" points="1375.8,-229.99 1385.8,-226.49 1375.8,-222.99 1375.8,-229.99"/>
</g>
<!-- Node25&#45;&gt;Node4 -->
<g id="edge36" class="edge">
<title>Node25&#45;&gt;Node4</title>
<path fill="none" stroke="midnightblue" d="M1223.71,-69.78C1201.04,-76.07 1173.24,-83.79 1149.29,-90.43"/>
<polygon fill="midnightblue" stroke="midnightblue" points="1224.71,-73.14 1233.41,-67.09 1222.83,-66.39 1224.71,-73.14"/>
</g>
</g>
</svg>
        <g id="navigator" transform="translate(0 0)" fill="#404254">
                <rect fill="#f2f5e9" fill-opacity="0.5" stroke="#606060" stroke-width=".5" x="0" y="0" width="60" height="60"/>
                <use id="zoomplus" xlink:href="#zoomPlus" x="17" y="9" onmousedown="handleZoom(evt,'in')"/>
                <use id="zoomminus" xlink:href="#zoomMin" x="42" y="9" onmousedown="handleZoom(evt,'out')"/>
                <use id="reset" xlink:href="#resetDef" x="30" y="36" onmousedown="handleReset()"/>
                <g id="arrowUp" xlink:href="#dirArrow" transform="translate(30 24)" onmousedown="handlePan(0,-1)">
                  <use xlink:href="#rim" fill="#404040">
                        <set attributeName="fill" to="#808080" begin="arrowUp.mouseover" end="arrowUp.mouseout"/>
                  </use>
                  <path fill="none" stroke="white" stroke-width="1.5" d="M0,-3.0v7 M-2.5,-0.5L0,-3.0L2.5,-0.5"/>
                </g>
                <g id="arrowRight" xlink:href="#dirArrow" transform="rotate(90) translate(36 -43)" onmousedown="handlePan(1,0)">
                  <use xlink:href="#rim" fill="#404040">
                        <set attributeName="fill" to="#808080" begin="arrowRight.mouseover" end="arrowRight.mouseout"/>
                  </use>
                  <path fill="none" stroke="white" stroke-width="1.5" d="M0,-3.0v7 M-2.5,-0.5L0,-3.0L2.5,-0.5"/>
                </g>
                <g id="arrowDown" xlink:href="#dirArrow" transform="rotate(180) translate(-30 -48)" onmousedown="handlePan(0,1)">
                  <use xlink:href="#rim" fill="#404040">
                        <set attributeName="fill" to="#808080" begin="arrowDown.mouseover" end="arrowDown.mouseout"/>
                  </use>
                  <path fill="none" stroke="white" stroke-width="1.5" d="M0,-3.0v7 M-2.5,-0.5L0,-3.0L2.5,-0.5"/>
                </g>
                <g id="arrowLeft" xlink:href="#dirArrow" transform="rotate(270) translate(-36 17)" onmousedown="handlePan(-1,0)">
                  <use xlink:href="#rim" fill="#404040">
                        <set attributeName="fill" to="#808080" begin="arrowLeft.mouseover" end="arrowLeft.mouseout"/>
                  </use>
                  <path fill="none" stroke="white" stroke-width="1.5" d="M0,-3.0v7 M-2.5,-0.5L0,-3.0L2.5,-0.5"/>
                </g>
        </g>
        <svg viewBox="0 0 15 15" width="100%" height="30px" preserveAspectRatio="xMaxYMin meet">
         <g id="arrow_out" transform="scale(0.3 0.3)">
          <a xlink:href="class_t_train_controller_a68d2124bc8f7df43e973299e0afb3dcd_icgraph_org.svg" target="_base">
           <rect id="button" ry="5" rx="5" y="6" x="6" height="38" width="38"
                fill="#f2f5e9" fill-opacity="0.5" stroke="#606060" stroke-width="1.0"/>
           <path id="arrow"
             d="M 11.500037,31.436501 C 11.940474,20.09759 22.043105,11.32322 32.158766,21.979434 L 37.068811,17.246167 C 37.068811,17.246167 37.088388,32 37.088388,32 L 22.160133,31.978069 C 22.160133,31.978069 26.997745,27.140456 26.997745,27.140456 C 18.528582,18.264221 13.291696,25.230495 11.500037,31.436501 z"
             style="fill:#404040;"/>
          </a>
         </g>
        </svg>
</svg>
