<?xml version="1.0" encoding="UTF-8" standalone="no"?>
<!DOCTYPE svg PUBLIC "-//W3C//DTD SVG 1.1//EN"
 "http://www.w3.org/Graphics/SVG/1.1/DTD/svg11.dtd">
<!-- Generated by graphviz version 2.44.1 (20200629.0800)
 -->
<!-- Title: TTrack::AnyLinkedLevelCrossingElementsWithRoutesOrTrains Pages: 1 -->
<!--zoomable 279 -->
<svg id="main" version="1.1" xmlns="http://www.w3.org/2000/svg" xmlns:xlink="http://www.w3.org/1999/xlink" xml:space="preserve" onload="init(evt)">
<style type="text/css"><![CDATA[
.edge:hover path { stroke: red; }
.edge:hover polygon { stroke: red; fill: red; }
]]></style>
<script type="text/javascript"><![CDATA[
var edges = document.getElementsByTagName('g');
if (edges && edges.length) {
  for (var i=0;i<edges.length;i++) {
    if (edges[i].id.substr(0,4)=='edge') {
      edges[i].setAttribute('class','edge');
    }
  }
}
]]></script>
        <defs>
                <circle id="rim" cx="0" cy="0" r="7"/>
                <circle id="rim2" cx="0" cy="0" r="3.5"/>
                <g id="zoomPlus">
                        <use xlink:href="#rim" fill="#404040">
                                <set attributeName="fill" to="#808080" begin="zoomplus.mouseover" end="zoomplus.mouseout"/>
                        </use>
                        <path d="M-4,0h8M0,-4v8" fill="none" stroke="white" stroke-width="1.5" pointer-events="none"/>
                </g>
                <g id="zoomMin">
                        <use xlink:href="#rim" fill="#404040">
                                <set attributeName="fill" to="#808080" begin="zoomminus.mouseover" end="zoomminus.mouseout"/>
                        </use>
                        <path d="M-4,0h8" fill="none" stroke="white" stroke-width="1.5" pointer-events="none"/>
                </g>
                <g id="dirArrow">
                        <path fill="none" stroke="white" stroke-width="1.5" d="M0,-3.0v7 M-2.5,-0.5L0,-3.0L2.5,-0.5"/>
                </g>
               <g id="resetDef">
                       <use xlink:href="#rim2" fill="#404040">
                               <set attributeName="fill" to="#808080" begin="reset.mouseover" end="reset.mouseout"/>
                       </use>
               </g>
        </defs>

<script type="text/javascript">
var viewWidth = 670;
var viewHeight = 279;
var sectionId = 'dynsection-10';
</script>
<script xlink:href="svgpan.js"/>
<svg id="graph" class="graph">
<g id="viewport">
<title>TTrack::AnyLinkedLevelCrossingElementsWithRoutesOrTrains</title>
<polygon fill="white" stroke="transparent" points="-4,4 -4,-274.8 666,-274.8 666,4 -4,4"/>
<!-- Node1 -->
<g id="node1" class="node">
<title>Node1</title>
<g id="a_node1"><a xlink:title="True if a route or train present on any linked level crossing element.">
<polygon fill="#bfbfbf" stroke="black" points="0,-84.14 0,-114.14 158,-114.14 158,-84.14 0,-84.14"/>
<text text-anchor="start" x="8" y="-102.14" font-family="Helvetica,sans-Serif" font-size="10.00">TTrack::AnyLinkedLevelCrossing</text>
<text text-anchor="middle" x="79" y="-91.14" font-family="Helvetica,sans-Serif" font-size="10.00">ElementsWithRoutesOrTrains</text>
</a>
</g>
</g>
<!-- Node2 -->
<g id="node2" class="node">
<title>Node2</title>
<g id="a_node2"><a xlink:href="class_t_utilities.html#ae1eddca13cc3c492839e131f40ec21c0" target="_top" xlink:title="pops the last entry off the call stack, throws an error if called when empty">
<polygon fill="white" stroke="black" points="552,-187.64 552,-206.64 662,-206.64 662,-187.64 552,-187.64"/>
<text text-anchor="middle" x="607" y="-194.64" font-family="Helvetica,sans-Serif" font-size="10.00">TUtilities::CallLogPop</text>
</a>
</g>
</g>
<!-- Node1&#45;&gt;Node2 -->
<g id="edge1" class="edge">
<title>Node1&#45;&gt;Node2</title>
<path fill="none" stroke="midnightblue" d="M94.97,-114.46C115.66,-134.93 154.86,-171.24 194,-194.14 262.97,-234.49 283.42,-243.68 362,-258.14 429.31,-270.53 450.57,-278.22 516,-258.14 544.38,-249.43 571.85,-228.4 588.83,-213.47"/>
<polygon fill="midnightblue" stroke="midnightblue" points="591.22,-216.03 596.27,-206.72 586.52,-210.85 591.22,-216.03"/>
</g>
<!-- Node3 -->
<g id="node3" class="node">
<title>Node3</title>
<g id="a_node3"><a xlink:href="class_t_all_routes.html#a0a9ccbc84687f85806115877aa86dcfd" target="_top" xlink:title="Examines Route2MultiMap and if the element at TrackVectorPosition with LinkPos (can be entry or exit)...">
<polygon fill="white" stroke="black" points="194,-40.14 194,-70.14 326,-70.14 326,-40.14 194,-40.14"/>
<text text-anchor="start" x="202" y="-58.14" font-family="Helvetica,sans-Serif" font-size="10.00">TAllRoutes::GetRouteType</text>
<text text-anchor="middle" x="260" y="-47.14" font-family="Helvetica,sans-Serif" font-size="10.00">AndNumber</text>
</a>
</g>
</g>
<!-- Node1&#45;&gt;Node3 -->
<g id="edge2" class="edge">
<title>Node1&#45;&gt;Node3</title>
<path fill="none" stroke="midnightblue" d="M141.1,-84.12C156.14,-80.42 172.37,-76.43 187.84,-72.63"/>
<polygon fill="midnightblue" stroke="midnightblue" points="189,-75.95 197.87,-70.17 187.32,-69.15 189,-75.95"/>
</g>
<!-- Node4 -->
<g id="node4" class="node">
<title>Node4</title>
<g id="a_node4"><a xlink:href="class_t_utilities.html#a34bd6bb5305bc29afdf424f6d35a921c" target="_top" xlink:title="creates a string of the form &#39;hh:mm:ss&#39; for use in call &amp; event logging">
<polygon fill="white" stroke="black" points="552,-64.64 552,-83.64 662,-83.64 662,-64.64 552,-64.64"/>
<text text-anchor="middle" x="607" y="-71.64" font-family="Helvetica,sans-Serif" font-size="10.00">TUtilities::TimeStamp</text>
</a>
</g>
</g>
<!-- Node1&#45;&gt;Node4 -->
<g id="edge17" class="edge">
<title>Node1&#45;&gt;Node4</title>
<path fill="none" stroke="midnightblue" d="M98.31,-83.84C119.7,-67.03 156.91,-40.97 194,-30.14 331.39,9.97 377.15,8.57 516,-26.14 541.31,-32.47 567.29,-47.41 584.8,-58.95"/>
<polygon fill="midnightblue" stroke="midnightblue" points="582.89,-61.89 593.13,-64.62 586.82,-56.1 582.89,-61.89"/>
</g>
<!-- Node5 -->
<g id="node5" class="node">
<title>Node5</title>
<g id="a_node5"><a xlink:href="class_t_track.html#ad377e5a1f152f2e89832c0f9bcfd261f" target="_top" xlink:title="A range&#45;checked version of TrackElement.at(At)">
<polygon fill="white" stroke="black" points="378,-45.64 378,-64.64 500,-64.64 500,-45.64 378,-45.64"/>
<text text-anchor="middle" x="439" y="-52.64" font-family="Helvetica,sans-Serif" font-size="10.00">TTrack::TrackElementAt</text>
</a>
</g>
</g>
<!-- Node1&#45;&gt;Node5 -->
<g id="edge18" class="edge">
<title>Node1&#45;&gt;Node5</title>
<path fill="none" stroke="midnightblue" d="M158.13,-95.39C206.63,-92.41 270.15,-87.36 326,-79.14 347.03,-76.05 370.02,-71.35 389.67,-66.93"/>
<polygon fill="midnightblue" stroke="midnightblue" points="390.64,-70.3 399.61,-64.66 389.08,-63.48 390.64,-70.3"/>
</g>
<!-- Node6 -->
<g id="node6" class="node">
<title>Node6</title>
<g id="a_node6"><a xlink:href="class_t_track.html#a73e781d0ada0b77618b886557f79b115" target="_top" xlink:title="True if a level crossing is found at H &amp; V.">
<polygon fill="white" stroke="black" points="212.5,-165.64 212.5,-184.64 307.5,-184.64 307.5,-165.64 212.5,-165.64"/>
<text text-anchor="middle" x="260" y="-172.64" font-family="Helvetica,sans-Serif" font-size="10.00">TTrack::IsLCAtHV</text>
</a>
</g>
</g>
<!-- Node1&#45;&gt;Node6 -->
<g id="edge8" class="edge">
<title>Node1&#45;&gt;Node6</title>
<path fill="none" stroke="midnightblue" d="M115.36,-114.15C147.82,-127.93 195.48,-148.17 226.87,-161.5"/>
<polygon fill="midnightblue" stroke="midnightblue" points="225.88,-164.88 236.45,-165.57 228.62,-158.44 225.88,-164.88"/>
</g>
<!-- Node3&#45;&gt;Node2 -->
<g id="edge3" class="edge">
<title>Node3&#45;&gt;Node2</title>
<path fill="none" stroke="midnightblue" d="M305.83,-70.3C357.25,-88.08 443.75,-119.2 516,-151.14 537.8,-160.78 561.81,-173.14 579.54,-182.62"/>
<polygon fill="midnightblue" stroke="midnightblue" points="578.23,-185.89 588.69,-187.56 581.55,-179.73 578.23,-185.89"/>
</g>
<!-- Node3&#45;&gt;Node4 -->
<g id="edge4" class="edge">
<title>Node3&#45;&gt;Node4</title>
<path fill="none" stroke="midnightblue" d="M326.06,-40.6C377.96,-31.32 452.26,-23.23 516,-36.14 538.58,-40.71 562.54,-51.13 580.06,-59.9"/>
<polygon fill="midnightblue" stroke="midnightblue" points="578.58,-63.08 589.07,-64.56 581.79,-56.86 578.58,-63.08"/>
</g>
<!-- Node3&#45;&gt;Node5 -->
<g id="edge5" class="edge">
<title>Node3&#45;&gt;Node5</title>
<path fill="none" stroke="midnightblue" d="M326.15,-55.14C339.66,-55.14 353.96,-55.14 367.64,-55.14"/>
<polygon fill="midnightblue" stroke="midnightblue" points="367.97,-58.64 377.97,-55.14 367.97,-51.64 367.97,-58.64"/>
</g>
<!-- Node5&#45;&gt;Node2 -->
<g id="edge6" class="edge">
<title>Node5&#45;&gt;Node2</title>
<path fill="none" stroke="midnightblue" d="M451.98,-64.65C467.06,-76.69 493.7,-98.15 516,-117.14 541.4,-138.77 570.1,-164.51 588.12,-180.84"/>
<polygon fill="midnightblue" stroke="midnightblue" points="585.84,-183.5 595.6,-187.63 590.55,-178.32 585.84,-183.5"/>
</g>
<!-- Node5&#45;&gt;Node4 -->
<g id="edge7" class="edge">
<title>Node5&#45;&gt;Node4</title>
<path fill="none" stroke="midnightblue" d="M500.4,-62.05C513.84,-63.59 528.15,-65.23 541.74,-66.78"/>
<polygon fill="midnightblue" stroke="midnightblue" points="541.64,-70.3 551.97,-67.95 542.43,-63.34 541.64,-70.3"/>
</g>
<!-- Node6&#45;&gt;Node2 -->
<g id="edge9" class="edge">
<title>Node6&#45;&gt;Node2</title>
<path fill="none" stroke="midnightblue" d="M271.8,-184.8C289.26,-199.71 325.44,-227.67 362,-238.14 427.8,-256.98 449.11,-252.66 516,-238.14 539.36,-233.07 563.93,-221.39 581.48,-211.79"/>
<polygon fill="midnightblue" stroke="midnightblue" points="583.47,-214.68 590.46,-206.72 580.03,-208.59 583.47,-214.68"/>
</g>
<!-- Node6&#45;&gt;Node4 -->
<g id="edge16" class="edge">
<title>Node6&#45;&gt;Node4</title>
<path fill="none" stroke="midnightblue" d="M293.46,-165.64C356.13,-147.29 493.77,-107 563.59,-86.56"/>
<polygon fill="midnightblue" stroke="midnightblue" points="564.76,-89.86 573.38,-83.69 562.8,-83.14 564.76,-89.86"/>
</g>
<!-- Node7 -->
<g id="node7" class="node">
<title>Node7</title>
<g id="a_node7"><a xlink:href="class_t_track.html#a418966e6fefb71b9d0c9b941197832da" target="_top" xlink:title="Similar to GetVectorPositionFromTrackMap but for inactive elements, a pair is returned because there ...">
<polygon fill="white" stroke="black" points="370.5,-160.14 370.5,-190.14 507.5,-190.14 507.5,-160.14 370.5,-160.14"/>
<text text-anchor="start" x="378.5" y="-178.14" font-family="Helvetica,sans-Serif" font-size="10.00">TTrack::GetVectorPositions</text>
<text text-anchor="middle" x="439" y="-167.14" font-family="Helvetica,sans-Serif" font-size="10.00">FromInactiveTrackMap</text>
</a>
</g>
</g>
<!-- Node6&#45;&gt;Node7 -->
<g id="edge10" class="edge">
<title>Node6&#45;&gt;Node7</title>
<path fill="none" stroke="midnightblue" d="M307.5,-175.14C323.59,-175.14 342.09,-175.14 360,-175.14"/>
<polygon fill="midnightblue" stroke="midnightblue" points="360.16,-178.64 370.16,-175.14 360.16,-171.64 360.16,-178.64"/>
</g>
<!-- Node8 -->
<g id="node8" class="node">
<title>Node8</title>
<g id="a_node8"><a xlink:href="class_t_track.html#a51f89cf70e94b037f6378cd78003d82b" target="_top" xlink:title="A range&#45;checked version of InactiveTrackElement.at(At)">
<polygon fill="white" stroke="black" points="362,-209.64 362,-228.64 516,-228.64 516,-209.64 362,-209.64"/>
<text text-anchor="middle" x="439" y="-216.64" font-family="Helvetica,sans-Serif" font-size="10.00">TTrack::InactiveTrackElementAt</text>
</a>
</g>
</g>
<!-- Node6&#45;&gt;Node8 -->
<g id="edge13" class="edge">
<title>Node6&#45;&gt;Node8</title>
<path fill="none" stroke="midnightblue" d="M299.41,-184.69C325.96,-191.29 361.5,-200.12 389.93,-207.19"/>
<polygon fill="midnightblue" stroke="midnightblue" points="389.12,-210.59 399.67,-209.61 390.81,-203.8 389.12,-210.59"/>
</g>
<!-- Node7&#45;&gt;Node2 -->
<g id="edge11" class="edge">
<title>Node7&#45;&gt;Node2</title>
<path fill="none" stroke="midnightblue" d="M507.52,-184.09C518.79,-185.58 530.45,-187.13 541.64,-188.61"/>
<polygon fill="midnightblue" stroke="midnightblue" points="541.39,-192.11 551.76,-189.95 542.31,-185.17 541.39,-192.11"/>
</g>
<!-- Node7&#45;&gt;Node4 -->
<g id="edge12" class="edge">
<title>Node7&#45;&gt;Node4</title>
<path fill="none" stroke="midnightblue" d="M464.85,-160.02C496.3,-140.89 550.12,-108.14 581.43,-89.09"/>
<polygon fill="midnightblue" stroke="midnightblue" points="583.28,-92.06 590,-83.87 579.64,-86.08 583.28,-92.06"/>
</g>
<!-- Node8&#45;&gt;Node2 -->
<g id="edge14" class="edge">
<title>Node8&#45;&gt;Node2</title>
<path fill="none" stroke="midnightblue" d="M511.84,-209.62C521.73,-208.31 531.83,-206.97 541.57,-205.68"/>
<polygon fill="midnightblue" stroke="midnightblue" points="542.11,-209.14 551.57,-204.35 541.19,-202.2 542.11,-209.14"/>
</g>
<!-- Node8&#45;&gt;Node4 -->
<g id="edge15" class="edge">
<title>Node8&#45;&gt;Node4</title>
<path fill="none" stroke="midnightblue" d="M497.12,-209.61C503.8,-207.15 510.27,-204.04 516,-200.14 556.2,-172.77 584.52,-121.17 597.68,-93.25"/>
<polygon fill="midnightblue" stroke="midnightblue" points="601.02,-94.35 601.98,-83.8 594.65,-91.46 601.02,-94.35"/>
</g>
</g>
</svg>
        <g id="navigator" transform="translate(0 0)" fill="#404254">
                <rect fill="#f2f5e9" fill-opacity="0.5" stroke="#606060" stroke-width=".5" x="0" y="0" width="60" height="60"/>
                <use id="zoomplus" xlink:href="#zoomPlus" x="17" y="9" onmousedown="handleZoom(evt,'in')"/>
                <use id="zoomminus" xlink:href="#zoomMin" x="42" y="9" onmousedown="handleZoom(evt,'out')"/>
                <use id="reset" xlink:href="#resetDef" x="30" y="36" onmousedown="handleReset()"/>
                <g id="arrowUp" xlink:href="#dirArrow" transform="translate(30 24)" onmousedown="handlePan(0,-1)">
                  <use xlink:href="#rim" fill="#404040">
                        <set attributeName="fill" to="#808080" begin="arrowUp.mouseover" end="arrowUp.mouseout"/>
                  </use>
                  <path fill="none" stroke="white" stroke-width="1.5" d="M0,-3.0v7 M-2.5,-0.5L0,-3.0L2.5,-0.5"/>
                </g>
                <g id="arrowRight" xlink:href="#dirArrow" transform="rotate(90) translate(36 -43)" onmousedown="handlePan(1,0)">
                  <use xlink:href="#rim" fill="#404040">
                        <set attributeName="fill" to="#808080" begin="arrowRight.mouseover" end="arrowRight.mouseout"/>
                  </use>
                  <path fill="none" stroke="white" stroke-width="1.5" d="M0,-3.0v7 M-2.5,-0.5L0,-3.0L2.5,-0.5"/>
                </g>
                <g id="arrowDown" xlink:href="#dirArrow" transform="rotate(180) translate(-30 -48)" onmousedown="handlePan(0,1)">
                  <use xlink:href="#rim" fill="#404040">
                        <set attributeName="fill" to="#808080" begin="arrowDown.mouseover" end="arrowDown.mouseout"/>
                  </use>
                  <path fill="none" stroke="white" stroke-width="1.5" d="M0,-3.0v7 M-2.5,-0.5L0,-3.0L2.5,-0.5"/>
                </g>
                <g id="arrowLeft" xlink:href="#dirArrow" transform="rotate(270) translate(-36 17)" onmousedown="handlePan(-1,0)">
                  <use xlink:href="#rim" fill="#404040">
                        <set attributeName="fill" to="#808080" begin="arrowLeft.mouseover" end="arrowLeft.mouseout"/>
                  </use>
                  <path fill="none" stroke="white" stroke-width="1.5" d="M0,-3.0v7 M-2.5,-0.5L0,-3.0L2.5,-0.5"/>
                </g>
        </g>
        <svg viewBox="0 0 15 15" width="100%" height="30px" preserveAspectRatio="xMaxYMin meet">
         <g id="arrow_out" transform="scale(0.3 0.3)">
          <a xlink:href="class_t_track_a54678551db16086c8d269808884075d2_cgraph_org.svg" target="_base">
           <rect id="button" ry="5" rx="5" y="6" x="6" height="38" width="38"
                fill="#f2f5e9" fill-opacity="0.5" stroke="#606060" stroke-width="1.0"/>
           <path id="arrow"
             d="M 11.500037,31.436501 C 11.940474,20.09759 22.043105,11.32322 32.158766,21.979434 L 37.068811,17.246167 C 37.068811,17.246167 37.088388,32 37.088388,32 L 22.160133,31.978069 C 22.160133,31.978069 26.997745,27.140456 26.997745,27.140456 C 18.528582,18.264221 13.291696,25.230495 11.500037,31.436501 z"
             style="fill:#404040;"/>
          </a>
         </g>
        </svg>
</svg>
