<?xml version="1.0" encoding="UTF-8" standalone="no"?>
<!DOCTYPE svg PUBLIC "-//W3C//DTD SVG 1.1//EN"
 "http://www.w3.org/Graphics/SVG/1.1/DTD/svg11.dtd">
<!-- Generated by graphviz version 2.44.1 (20200629.0800)
 -->
<!-- Title: TTrainController::SplitEntry Pages: 1 -->
<!--zoomable 812 -->
<svg id="main" version="1.1" xmlns="http://www.w3.org/2000/svg" xmlns:xlink="http://www.w3.org/1999/xlink" xml:space="preserve" onload="init(evt)">
<style type="text/css"><![CDATA[
.edge:hover path { stroke: red; }
.edge:hover polygon { stroke: red; fill: red; }
]]></style>
<script type="text/javascript"><![CDATA[
var edges = document.getElementsByTagName('g');
if (edges && edges.length) {
  for (var i=0;i<edges.length;i++) {
    if (edges[i].id.substr(0,4)=='edge') {
      edges[i].setAttribute('class','edge');
    }
  }
}
]]></script>
        <defs>
                <circle id="rim" cx="0" cy="0" r="7"/>
                <circle id="rim2" cx="0" cy="0" r="3.5"/>
                <g id="zoomPlus">
                        <use xlink:href="#rim" fill="#404040">
                                <set attributeName="fill" to="#808080" begin="zoomplus.mouseover" end="zoomplus.mouseout"/>
                        </use>
                        <path d="M-4,0h8M0,-4v8" fill="none" stroke="white" stroke-width="1.5" pointer-events="none"/>
                </g>
                <g id="zoomMin">
                        <use xlink:href="#rim" fill="#404040">
                                <set attributeName="fill" to="#808080" begin="zoomminus.mouseover" end="zoomminus.mouseout"/>
                        </use>
                        <path d="M-4,0h8" fill="none" stroke="white" stroke-width="1.5" pointer-events="none"/>
                </g>
                <g id="dirArrow">
                        <path fill="none" stroke="white" stroke-width="1.5" d="M0,-3.0v7 M-2.5,-0.5L0,-3.0L2.5,-0.5"/>
                </g>
               <g id="resetDef">
                       <use xlink:href="#rim2" fill="#404040">
                               <set attributeName="fill" to="#808080" begin="reset.mouseover" end="reset.mouseout"/>
                       </use>
               </g>
        </defs>

<script type="text/javascript">
var viewWidth = 859;
var viewHeight = 812;
var sectionId = 'dynsection-109';
</script>
<script xlink:href="svgpan.js"/>
<svg id="graph" class="graph">
<g id="viewport">
<title>TTrainController::SplitEntry</title>
<polygon fill="white" stroke="transparent" points="-4,4 -4,-808.34 855,-808.34 855,4 -4,4"/>
<!-- Node1 -->
<g id="node1" class="node">
<title>Node1</title>
<g id="a_node1"><a xlink:title="Parse a single timetable service action, return true for success.">
<polygon fill="#bfbfbf" stroke="black" points="0,-272.57 0,-291.57 133,-291.57 133,-272.57 0,-272.57"/>
<text text-anchor="middle" x="66.5" y="-279.57" font-family="Helvetica,sans-Serif" font-size="10.00">TTrainController::SplitEntry</text>
</a>
</g>
</g>
<!-- Node2 -->
<g id="node2" class="node">
<title>Node2</title>
<g id="a_node2"><a xlink:href="class_t_utilities.html#ae1eddca13cc3c492839e131f40ec21c0" target="_top" xlink:title="pops the last entry off the call stack, throws an error if called when empty">
<polygon fill="white" stroke="black" points="741,-579.57 741,-598.57 851,-598.57 851,-579.57 741,-579.57"/>
<text text-anchor="middle" x="796" y="-586.57" font-family="Helvetica,sans-Serif" font-size="10.00">TUtilities::CallLogPop</text>
</a>
</g>
</g>
<!-- Node1&#45;&gt;Node2 -->
<g id="edge1" class="edge">
<title>Node1&#45;&gt;Node2</title>
<path fill="none" stroke="midnightblue" d="M69.1,-291.69C75.85,-330.17 104.65,-475.89 169,-576.07 232.37,-674.73 251.14,-714.51 360,-758.07 502.43,-815.07 574.65,-827.97 705,-747.07 756.07,-715.38 780.96,-643.43 790.36,-608.64"/>
<polygon fill="midnightblue" stroke="midnightblue" points="793.8,-609.3 792.88,-598.75 787.02,-607.57 793.8,-609.3"/>
</g>
<!-- Node3 -->
<g id="node3" class="node">
<title>Node3</title>
<g id="a_node3"><a xlink:href="class_t_train_controller.html#ae91c1a77699c9daf327938081eab2241" target="_top" xlink:title="Used to compile ExitList from a string list of element IDs, returns true for success or gives a messa...">
<polygon fill="white" stroke="black" points="179,-368.07 179,-398.07 314,-398.07 314,-368.07 179,-368.07"/>
<text text-anchor="start" x="187" y="-386.07" font-family="Helvetica,sans-Serif" font-size="10.00">TTrainController::CheckAnd</text>
<text text-anchor="middle" x="246.5" y="-375.07" font-family="Helvetica,sans-Serif" font-size="10.00">PopulateListOfIDs</text>
</a>
</g>
</g>
<!-- Node1&#45;&gt;Node3 -->
<g id="edge2" class="edge">
<title>Node1&#45;&gt;Node3</title>
<path fill="none" stroke="midnightblue" d="M77.64,-291.7C95.03,-307.76 132.25,-340.1 169,-359.07 172.52,-360.89 176.2,-362.6 179.96,-364.2"/>
<polygon fill="midnightblue" stroke="midnightblue" points="178.85,-367.53 189.44,-367.97 181.44,-361.02 178.85,-367.53"/>
</g>
<!-- Node4 -->
<g id="node4" class="node">
<title>Node4</title>
<g id="a_node4"><a xlink:href="class_t_track.html#a54d3b9daeb9ec0b45b0672e7273bf575" target="_top" xlink:title="Takes the ElementID value (an AnsiString) (e.g. &quot;8&#45;13&quot;, &quot;N43&#45;N127&quot;, etc) and returns the correspondin...">
<polygon fill="white" stroke="black" points="360,-701.07 360,-731.07 515,-731.07 515,-701.07 360,-701.07"/>
<text text-anchor="start" x="368" y="-719.07" font-family="Helvetica,sans-Serif" font-size="10.00">TTrack::GetTrackVectorPosition</text>
<text text-anchor="middle" x="437.5" y="-708.07" font-family="Helvetica,sans-Serif" font-size="10.00">FromString</text>
</a>
</g>
</g>
<!-- Node1&#45;&gt;Node4 -->
<g id="edge42" class="edge">
<title>Node1&#45;&gt;Node4</title>
<path fill="none" stroke="midnightblue" d="M71.93,-291.82C94.81,-341.15 204.59,-565.72 360,-686.07 365.03,-689.97 370.64,-693.42 376.46,-696.46"/>
<polygon fill="midnightblue" stroke="midnightblue" points="375.2,-699.74 385.73,-700.91 378.23,-693.43 375.2,-699.74"/>
</g>
<!-- Node5 -->
<g id="node5" class="node">
<title>Node5</title>
<g id="a_node5"><a xlink:href="class_t_utilities.html#a34bd6bb5305bc29afdf424f6d35a921c" target="_top" xlink:title="creates a string of the form &#39;hh:mm:ss&#39; for use in call &amp; event logging">
<polygon fill="white" stroke="black" points="741,-298.57 741,-317.57 851,-317.57 851,-298.57 741,-298.57"/>
<text text-anchor="middle" x="796" y="-305.57" font-family="Helvetica,sans-Serif" font-size="10.00">TUtilities::TimeStamp</text>
</a>
</g>
</g>
<!-- Node1&#45;&gt;Node5 -->
<g id="edge43" class="edge">
<title>Node1&#45;&gt;Node5</title>
<path fill="none" stroke="midnightblue" d="M70.38,-272.35C79.46,-243.51 110.45,-158.05 169,-119.07 367.72,13.23 507.21,49.61 705,-84.07 774.78,-131.24 790.47,-242.4 793.99,-288.01"/>
<polygon fill="midnightblue" stroke="midnightblue" points="790.5,-288.36 794.64,-298.11 797.49,-287.91 790.5,-288.36"/>
</g>
<!-- Node7 -->
<g id="node7" class="node">
<title>Node7</title>
<g id="a_node7"><a xlink:href="class_t_train_controller.html#a1ccd6c8f2c24e7417889e1a91cb9ca2f" target="_top" xlink:title="Returns true if the headcode complies with requirements.">
<polygon fill="white" stroke="black" points="558,-271.07 558,-301.07 698,-301.07 698,-271.07 558,-271.07"/>
<text text-anchor="start" x="566" y="-289.07" font-family="Helvetica,sans-Serif" font-size="10.00">TTrainController::CheckHead</text>
<text text-anchor="middle" x="628" y="-278.07" font-family="Helvetica,sans-Serif" font-size="10.00">CodeValidity</text>
</a>
</g>
</g>
<!-- Node1&#45;&gt;Node7 -->
<g id="edge16" class="edge">
<title>Node1&#45;&gt;Node7</title>
<path fill="none" stroke="midnightblue" d="M133.13,-278.82C220.38,-275.03 379.36,-270.03 515,-276.07 525.6,-276.54 536.75,-277.27 547.74,-278.11"/>
<polygon fill="midnightblue" stroke="midnightblue" points="547.51,-281.61 557.76,-278.92 548.07,-274.63 547.51,-281.61"/>
</g>
<!-- Node9 -->
<g id="node9" class="node">
<title>Node9</title>
<g id="a_node9"><a xlink:href="class_t_train_controller.html#a1925032d5e41decf4befc07b35521d3c" target="_top" xlink:title="Returns true if the location name complies with requirements.">
<polygon fill="white" stroke="black" points="169,-172.07 169,-202.07 324,-202.07 324,-172.07 169,-172.07"/>
<text text-anchor="start" x="177" y="-190.07" font-family="Helvetica,sans-Serif" font-size="10.00">TTrainController::CheckLocation</text>
<text text-anchor="middle" x="246.5" y="-179.07" font-family="Helvetica,sans-Serif" font-size="10.00">Validity</text>
</a>
</g>
</g>
<!-- Node1&#45;&gt;Node9 -->
<g id="edge17" class="edge">
<title>Node1&#45;&gt;Node9</title>
<path fill="none" stroke="midnightblue" d="M80.79,-272.36C99.71,-258.81 135.82,-234 169,-217.07 176.76,-213.12 185.16,-209.34 193.47,-205.89"/>
<polygon fill="midnightblue" stroke="midnightblue" points="194.8,-209.12 202.76,-202.13 192.18,-202.63 194.8,-209.12"/>
</g>
<!-- Node11 -->
<g id="node11" class="node">
<title>Node11</title>
<g id="a_node11"><a xlink:href="class_t_train_controller.html#a5c9711cc69c8332cf7db5e0b2696ca45" target="_top" xlink:title="A timetable validation function where train starting positions are checked for validity,...">
<polygon fill="white" stroke="black" points="177,-319.07 177,-349.07 316,-349.07 316,-319.07 177,-319.07"/>
<text text-anchor="start" x="185" y="-337.07" font-family="Helvetica,sans-Serif" font-size="10.00">TTrainController::CheckStart</text>
<text text-anchor="middle" x="246.5" y="-326.07" font-family="Helvetica,sans-Serif" font-size="10.00">PositionValidity</text>
</a>
</g>
</g>
<!-- Node1&#45;&gt;Node11 -->
<g id="edge24" class="edge">
<title>Node1&#45;&gt;Node11</title>
<path fill="none" stroke="midnightblue" d="M100.15,-291.61C123.58,-298.46 155.87,-307.89 184.06,-316.12"/>
<polygon fill="midnightblue" stroke="midnightblue" points="183.26,-319.54 193.84,-318.98 185.22,-312.82 183.26,-319.54"/>
</g>
<!-- Node15 -->
<g id="node15" class="node">
<title>Node15</title>
<g id="a_node15"><a xlink:href="class_t_train_controller.html#a523077cf0c9c02c8cb56dab0af9b0e52" target="_top" xlink:title="returns true if the time complies with requirements">
<polygon fill="white" stroke="black" points="558.5,-134.07 558.5,-164.07 697.5,-164.07 697.5,-134.07 558.5,-134.07"/>
<text text-anchor="start" x="566.5" y="-152.07" font-family="Helvetica,sans-Serif" font-size="10.00">TTrainController::CheckTime</text>
<text text-anchor="middle" x="628" y="-141.07" font-family="Helvetica,sans-Serif" font-size="10.00">Validity</text>
</a>
</g>
</g>
<!-- Node1&#45;&gt;Node15 -->
<g id="edge39" class="edge">
<title>Node1&#45;&gt;Node15</title>
<path fill="none" stroke="midnightblue" d="M71.98,-272.57C83.83,-248.69 118.6,-186.33 169,-162.07 290.89,-103.41 452.94,-116.95 548.01,-132.65"/>
<polygon fill="midnightblue" stroke="midnightblue" points="547.69,-136.14 558.13,-134.37 548.86,-129.24 547.69,-136.14"/>
</g>
<!-- Node3&#45;&gt;Node2 -->
<g id="edge3" class="edge">
<title>Node3&#45;&gt;Node2</title>
<path fill="none" stroke="midnightblue" d="M249.84,-398.08C259.91,-460.49 301.7,-698.28 360,-741.07 388.76,-762.18 704.09,-726.61 705,-726.07 750.35,-699.24 777.18,-639.55 788.56,-608.57"/>
<polygon fill="midnightblue" stroke="midnightblue" points="791.94,-609.51 791.94,-598.91 785.33,-607.19 791.94,-609.51"/>
</g>
<!-- Node3&#45;&gt;Node4 -->
<g id="edge4" class="edge">
<title>Node3&#45;&gt;Node4</title>
<path fill="none" stroke="midnightblue" d="M254.98,-398.24C269.58,-428.23 302.36,-497.5 324,-558.07 343.88,-613.72 320.34,-642.26 360,-686.07 363.3,-689.72 367.09,-692.92 371.19,-695.74"/>
<polygon fill="midnightblue" stroke="midnightblue" points="369.59,-698.86 379.97,-701 373.19,-692.86 369.59,-698.86"/>
</g>
<!-- Node3&#45;&gt;Node5 -->
<g id="edge7" class="edge">
<title>Node3&#45;&gt;Node5</title>
<path fill="none" stroke="midnightblue" d="M314.36,-382.61C404.33,-380.67 568.79,-372.49 705,-340.07 724.69,-335.39 746.06,-327.9 763.04,-321.34"/>
<polygon fill="midnightblue" stroke="midnightblue" points="764.46,-324.54 772.48,-317.62 761.89,-318.03 764.46,-324.54"/>
</g>
<!-- Node6 -->
<g id="node6" class="node">
<title>Node6</title>
<g id="a_node6"><a xlink:href="class_t_train_controller.html#a68d2124bc8f7df43e973299e0afb3dcd" target="_top" xlink:title="Sends a message to the user if GiveMessages is true, including ServiceReference (see above) if not nu...">
<polygon fill="white" stroke="black" points="371.5,-286.07 371.5,-316.07 503.5,-316.07 503.5,-286.07 371.5,-286.07"/>
<text text-anchor="start" x="379.5" y="-304.07" font-family="Helvetica,sans-Serif" font-size="10.00">TTrainController::Timetable</text>
<text text-anchor="middle" x="437.5" y="-293.07" font-family="Helvetica,sans-Serif" font-size="10.00">Message</text>
</a>
</g>
</g>
<!-- Node3&#45;&gt;Node6 -->
<g id="edge8" class="edge">
<title>Node3&#45;&gt;Node6</title>
<path fill="none" stroke="midnightblue" d="M305.07,-368.06C311.64,-365.46 318.09,-362.48 324,-359.07 342.8,-348.23 341.26,-337.02 360,-326.07 363.66,-323.93 367.54,-321.95 371.51,-320.11"/>
<polygon fill="midnightblue" stroke="midnightblue" points="373.11,-323.23 380.94,-316.09 370.37,-316.79 373.11,-323.23"/>
</g>
<!-- Node8 -->
<g id="node8" class="node">
<title>Node8</title>
<g id="a_node8"><a xlink:href="class_t_track.html#ad377e5a1f152f2e89832c0f9bcfd261f" target="_top" xlink:title="A range&#45;checked version of TrackElement.at(At)">
<polygon fill="white" stroke="black" points="376.5,-335.57 376.5,-354.57 498.5,-354.57 498.5,-335.57 376.5,-335.57"/>
<text text-anchor="middle" x="437.5" y="-342.57" font-family="Helvetica,sans-Serif" font-size="10.00">TTrack::TrackElementAt</text>
</a>
</g>
</g>
<!-- Node3&#45;&gt;Node8 -->
<g id="edge13" class="edge">
<title>Node3&#45;&gt;Node8</title>
<path fill="none" stroke="midnightblue" d="M314.13,-369.68C335.41,-365.4 358.77,-360.7 379.31,-356.57"/>
<polygon fill="midnightblue" stroke="midnightblue" points="380.04,-359.99 389.15,-354.59 378.66,-353.13 380.04,-359.99"/>
</g>
<!-- Node4&#45;&gt;Node2 -->
<g id="edge5" class="edge">
<title>Node4&#45;&gt;Node2</title>
<path fill="none" stroke="midnightblue" d="M515.12,-726.42C570.82,-730.38 646.41,-728.13 705,-698.07 743.74,-678.2 772.02,-633.5 785.72,-607.95"/>
<polygon fill="midnightblue" stroke="midnightblue" points="788.92,-609.38 790.4,-598.89 782.7,-606.17 788.92,-609.38"/>
</g>
<!-- Node4&#45;&gt;Node5 -->
<g id="edge6" class="edge">
<title>Node4&#45;&gt;Node5</title>
<path fill="none" stroke="midnightblue" d="M444.82,-701.03C463.37,-657.39 518.47,-531.96 551,-502.07 605.71,-451.81 647.26,-483.82 705,-437.07 743.37,-406.01 772.44,-354.48 786.2,-326.89"/>
<polygon fill="midnightblue" stroke="midnightblue" points="789.35,-328.41 790.56,-317.89 783.05,-325.35 789.35,-328.41"/>
</g>
<!-- Node6&#45;&gt;Node7 -->
<g id="edge9" class="edge">
<title>Node6&#45;&gt;Node7</title>
<path fill="none" stroke="midnightblue" d="M503.63,-289.43C517.81,-288.01 532.97,-286.73 547.63,-285.71"/>
<polygon fill="midnightblue" stroke="midnightblue" points="547.94,-289.2 557.69,-285.05 547.48,-282.22 547.94,-289.2"/>
</g>
<!-- Node7&#45;&gt;Node2 -->
<g id="edge10" class="edge">
<title>Node7&#45;&gt;Node2</title>
<path fill="none" stroke="midnightblue" d="M637.23,-301.1C664.88,-351.57 754.41,-514.98 784.8,-570.45"/>
<polygon fill="midnightblue" stroke="midnightblue" points="781.88,-572.41 789.76,-579.5 788.02,-569.05 781.88,-572.41"/>
</g>
<!-- Node7&#45;&gt;Node5 -->
<g id="edge11" class="edge">
<title>Node7&#45;&gt;Node5</title>
<path fill="none" stroke="midnightblue" d="M698.44,-295.28C709.21,-296.7 720.3,-298.17 730.94,-299.58"/>
<polygon fill="midnightblue" stroke="midnightblue" points="730.62,-303.07 740.99,-300.91 731.54,-296.13 730.62,-303.07"/>
</g>
<!-- Node7&#45;&gt;Node6 -->
<g id="edge12" class="edge">
<title>Node7&#45;&gt;Node6</title>
<path fill="none" stroke="midnightblue" d="M557.69,-298.12C543.47,-299.51 528.43,-300.73 514.01,-301.69"/>
<polygon fill="midnightblue" stroke="midnightblue" points="513.4,-298.23 503.63,-302.34 513.83,-305.21 513.4,-298.23"/>
</g>
<!-- Node8&#45;&gt;Node2 -->
<g id="edge14" class="edge">
<title>Node8&#45;&gt;Node2</title>
<path fill="none" stroke="midnightblue" d="M458.22,-354.65C503.8,-377.2 619.1,-436.72 705,-502.07 733.47,-523.74 762.55,-553.52 779.67,-572.02"/>
<polygon fill="midnightblue" stroke="midnightblue" points="777.12,-574.41 786.45,-579.42 782.28,-569.68 777.12,-574.41"/>
</g>
<!-- Node8&#45;&gt;Node5 -->
<g id="edge15" class="edge">
<title>Node8&#45;&gt;Node5</title>
<path fill="none" stroke="midnightblue" d="M498.57,-338.84C562.9,-332.16 664.59,-321.61 730.55,-314.76"/>
<polygon fill="midnightblue" stroke="midnightblue" points="731.24,-318.21 740.82,-313.7 730.51,-311.25 731.24,-318.21"/>
</g>
<!-- Node9&#45;&gt;Node2 -->
<g id="edge18" class="edge">
<title>Node9&#45;&gt;Node2</title>
<path fill="none" stroke="midnightblue" d="M259.87,-202.16C277.22,-224.19 308.41,-267.12 324,-309.07 360.95,-408.53 291.69,-463.88 360,-545.07 456.58,-659.87 663.29,-623.64 752.54,-601.16"/>
<polygon fill="midnightblue" stroke="midnightblue" points="753.51,-604.52 762.32,-598.63 751.76,-597.74 753.51,-604.52"/>
</g>
<!-- Node9&#45;&gt;Node5 -->
<g id="edge19" class="edge">
<title>Node9&#45;&gt;Node5</title>
<path fill="none" stroke="midnightblue" d="M274.8,-171.95C349.92,-132.55 563.52,-35.78 705,-124.07 764.16,-160.99 785.5,-249.32 792.24,-288.63"/>
<polygon fill="midnightblue" stroke="midnightblue" points="788.79,-289.21 793.81,-298.54 795.7,-288.12 788.79,-289.21"/>
</g>
<!-- Node9&#45;&gt;Node6 -->
<g id="edge23" class="edge">
<title>Node9&#45;&gt;Node6</title>
<path fill="none" stroke="midnightblue" d="M272.6,-202.21C306.02,-222.37 365.24,-258.09 402.6,-280.63"/>
<polygon fill="midnightblue" stroke="midnightblue" points="401.23,-283.89 411.6,-286.05 404.84,-277.89 401.23,-283.89"/>
</g>
<!-- Node10 -->
<g id="node10" class="node">
<title>Node10</title>
<g id="a_node10"><a xlink:href="class_t_track.html#addd8e149e66c99a295541c9eda13eae4" target="_top" xlink:title="True if a non&#45;empty LocationName found as a timetabled location name i.e. not as a continuation name.">
<polygon fill="white" stroke="black" points="560,-183.07 560,-213.07 696,-213.07 696,-183.07 560,-183.07"/>
<text text-anchor="start" x="568" y="-201.07" font-family="Helvetica,sans-Serif" font-size="10.00">TTrack::TimetabledLocation</text>
<text text-anchor="middle" x="628" y="-190.07" font-family="Helvetica,sans-Serif" font-size="10.00">NameAllocated</text>
</a>
</g>
</g>
<!-- Node9&#45;&gt;Node10 -->
<g id="edge20" class="edge">
<title>Node9&#45;&gt;Node10</title>
<path fill="none" stroke="midnightblue" d="M324.3,-189.3C389.88,-191.2 483.76,-193.92 549.54,-195.83"/>
<polygon fill="midnightblue" stroke="midnightblue" points="549.75,-199.33 559.84,-196.13 549.95,-192.34 549.75,-199.33"/>
</g>
<!-- Node10&#45;&gt;Node2 -->
<g id="edge21" class="edge">
<title>Node10&#45;&gt;Node2</title>
<path fill="none" stroke="midnightblue" d="M654.38,-213.22C671.09,-224.45 692.17,-241.2 705,-261.07 771.38,-363.91 789.27,-515.26 793.68,-569.14"/>
<polygon fill="midnightblue" stroke="midnightblue" points="790.2,-569.65 794.44,-579.36 797.18,-569.13 790.2,-569.65"/>
</g>
<!-- Node10&#45;&gt;Node5 -->
<g id="edge22" class="edge">
<title>Node10&#45;&gt;Node5</title>
<path fill="none" stroke="midnightblue" d="M674.86,-213.17C685.11,-217.36 695.7,-222.35 705,-228.07 734.03,-245.92 762.59,-273.48 779.5,-291.15"/>
<polygon fill="midnightblue" stroke="midnightblue" points="777.01,-293.61 786.41,-298.5 782.11,-288.81 777.01,-293.61"/>
</g>
<!-- Node11&#45;&gt;Node2 -->
<g id="edge25" class="edge">
<title>Node11&#45;&gt;Node2</title>
<path fill="none" stroke="midnightblue" d="M312.8,-349.13C316.99,-351.91 320.8,-355.19 324,-359.07 406.34,-458.95 265.72,-559.39 360,-648.07 415.88,-700.63 632.53,-685.22 705,-660.07 735.54,-649.48 763.55,-623.75 779.96,-606.35"/>
<polygon fill="midnightblue" stroke="midnightblue" points="782.89,-608.33 787.04,-598.58 777.71,-603.62 782.89,-608.33"/>
</g>
<!-- Node11&#45;&gt;Node4 -->
<g id="edge26" class="edge">
<title>Node11&#45;&gt;Node4</title>
<path fill="none" stroke="midnightblue" d="M312.86,-349.08C317.04,-351.87 320.83,-355.17 324,-359.07 416.2,-472.55 271.12,-569.97 360,-686.07 362.63,-689.51 365.72,-692.56 369.11,-695.26"/>
<polygon fill="midnightblue" stroke="midnightblue" points="367.28,-698.24 377.52,-700.94 371.2,-692.44 367.28,-698.24"/>
</g>
<!-- Node11&#45;&gt;Node5 -->
<g id="edge36" class="edge">
<title>Node11&#45;&gt;Node5</title>
<path fill="none" stroke="midnightblue" d="M270.07,-319C292.02,-305.19 326.82,-285.51 360,-276.07 507.62,-234.07 555.94,-224.5 705,-261.07 730.07,-267.23 755.92,-281.72 773.44,-293"/>
<polygon fill="midnightblue" stroke="midnightblue" points="771.53,-295.94 781.8,-298.55 775.4,-290.1 771.53,-295.94"/>
</g>
<!-- Node11&#45;&gt;Node6 -->
<g id="edge37" class="edge">
<title>Node11&#45;&gt;Node6</title>
<path fill="none" stroke="midnightblue" d="M316,-322.11C330.68,-319.55 346.26,-316.83 361.18,-314.22"/>
<polygon fill="midnightblue" stroke="midnightblue" points="362.14,-317.61 371.39,-312.44 360.93,-310.71 362.14,-317.61"/>
</g>
<!-- Node11&#45;&gt;Node8 -->
<g id="edge38" class="edge">
<title>Node11&#45;&gt;Node8</title>
<path fill="none" stroke="midnightblue" d="M316,-338.06C332.36,-339.01 349.85,-340.03 366.28,-340.99"/>
<polygon fill="midnightblue" stroke="midnightblue" points="366.17,-344.49 376.36,-341.57 366.58,-337.5 366.17,-344.49"/>
</g>
<!-- Node12 -->
<g id="node12" class="node">
<title>Node12</title>
<g id="a_node12"><a xlink:href="class_t_track.html#a73e781d0ada0b77618b886557f79b115" target="_top" xlink:title="True if a level crossing is found at H &amp; V.">
<polygon fill="white" stroke="black" points="390,-516.57 390,-535.57 485,-535.57 485,-516.57 390,-516.57"/>
<text text-anchor="middle" x="437.5" y="-523.57" font-family="Helvetica,sans-Serif" font-size="10.00">TTrack::IsLCAtHV</text>
</a>
</g>
</g>
<!-- Node11&#45;&gt;Node12 -->
<g id="edge27" class="edge">
<title>Node11&#45;&gt;Node12</title>
<path fill="none" stroke="midnightblue" d="M307.12,-349.12C313.12,-351.91 318.87,-355.2 324,-359.07 377.34,-399.36 413.76,-472.64 428.78,-507.14"/>
<polygon fill="midnightblue" stroke="midnightblue" points="425.63,-508.68 432.75,-516.53 432.08,-505.95 425.63,-508.68"/>
</g>
<!-- Node12&#45;&gt;Node2 -->
<g id="edge28" class="edge">
<title>Node12&#45;&gt;Node2</title>
<path fill="none" stroke="midnightblue" d="M450.73,-535.75C470.46,-550.68 511.15,-578.67 551,-589.07 610.44,-604.58 680.83,-602.52 730.69,-597.82"/>
<polygon fill="midnightblue" stroke="midnightblue" points="731.1,-601.3 740.7,-596.81 730.4,-594.33 731.1,-601.3"/>
</g>
<!-- Node12&#45;&gt;Node5 -->
<g id="edge35" class="edge">
<title>Node12&#45;&gt;Node5</title>
<path fill="none" stroke="midnightblue" d="M457.54,-516.39C510.62,-489.31 659.39,-412.73 705,-382.07 731.4,-364.33 759.33,-340.46 776.95,-324.69"/>
<polygon fill="midnightblue" stroke="midnightblue" points="779.65,-326.96 784.71,-317.66 774.95,-321.77 779.65,-326.96"/>
</g>
<!-- Node13 -->
<g id="node13" class="node">
<title>Node13</title>
<g id="a_node13"><a xlink:href="class_t_track.html#a418966e6fefb71b9d0c9b941197832da" target="_top" xlink:title="Similar to GetVectorPositionFromTrackMap but for inactive elements, a pair is returned because there ...">
<polygon fill="white" stroke="black" points="559.5,-511.07 559.5,-541.07 696.5,-541.07 696.5,-511.07 559.5,-511.07"/>
<text text-anchor="start" x="567.5" y="-529.07" font-family="Helvetica,sans-Serif" font-size="10.00">TTrack::GetVectorPositions</text>
<text text-anchor="middle" x="628" y="-518.07" font-family="Helvetica,sans-Serif" font-size="10.00">FromInactiveTrackMap</text>
</a>
</g>
</g>
<!-- Node12&#45;&gt;Node13 -->
<g id="edge29" class="edge">
<title>Node12&#45;&gt;Node13</title>
<path fill="none" stroke="midnightblue" d="M485.1,-526.07C504.39,-526.07 527.3,-526.07 549.02,-526.07"/>
<polygon fill="midnightblue" stroke="midnightblue" points="549.23,-529.57 559.23,-526.07 549.23,-522.57 549.23,-529.57"/>
</g>
<!-- Node14 -->
<g id="node14" class="node">
<title>Node14</title>
<g id="a_node14"><a xlink:href="class_t_track.html#a51f89cf70e94b037f6378cd78003d82b" target="_top" xlink:title="A range&#45;checked version of InactiveTrackElement.at(At)">
<polygon fill="white" stroke="black" points="551,-560.57 551,-579.57 705,-579.57 705,-560.57 551,-560.57"/>
<text text-anchor="middle" x="628" y="-567.57" font-family="Helvetica,sans-Serif" font-size="10.00">TTrack::InactiveTrackElementAt</text>
</a>
</g>
</g>
<!-- Node12&#45;&gt;Node14 -->
<g id="edge32" class="edge">
<title>Node12&#45;&gt;Node14</title>
<path fill="none" stroke="midnightblue" d="M479.4,-535.62C507.81,-542.25 545.86,-551.13 576.21,-558.22"/>
<polygon fill="midnightblue" stroke="midnightblue" points="575.64,-561.68 586.18,-560.54 577.24,-554.86 575.64,-561.68"/>
</g>
<!-- Node13&#45;&gt;Node2 -->
<g id="edge30" class="edge">
<title>Node13&#45;&gt;Node2</title>
<path fill="none" stroke="midnightblue" d="M676.64,-541.08C686.09,-544.24 695.9,-547.66 705,-551.07 724.91,-558.54 746.91,-567.81 764.17,-575.32"/>
<polygon fill="midnightblue" stroke="midnightblue" points="763.18,-578.71 773.74,-579.52 765.99,-572.29 763.18,-578.71"/>
</g>
<!-- Node13&#45;&gt;Node5 -->
<g id="edge31" class="edge">
<title>Node13&#45;&gt;Node5</title>
<path fill="none" stroke="midnightblue" d="M682.31,-511.02C690.54,-507.08 698.46,-502.17 705,-496.07 756.1,-448.45 781.31,-365.76 790.62,-327.96"/>
<polygon fill="midnightblue" stroke="midnightblue" points="794.14,-328.29 793.01,-317.76 787.32,-326.69 794.14,-328.29"/>
</g>
<!-- Node14&#45;&gt;Node2 -->
<g id="edge33" class="edge">
<title>Node14&#45;&gt;Node2</title>
<path fill="none" stroke="midnightblue" d="M705.2,-578.79C713.68,-579.77 722.26,-580.75 730.58,-581.7"/>
<polygon fill="midnightblue" stroke="midnightblue" points="730.23,-585.18 740.57,-582.84 731.03,-578.23 730.23,-585.18"/>
</g>
<!-- Node14&#45;&gt;Node5 -->
<g id="edge34" class="edge">
<title>Node14&#45;&gt;Node5</title>
<path fill="none" stroke="midnightblue" d="M690.62,-560.43C695.84,-557.96 700.75,-554.88 705,-551.07 772.65,-490.47 789.57,-374.32 793.7,-327.93"/>
<polygon fill="midnightblue" stroke="midnightblue" points="797.21,-327.96 794.5,-317.71 790.23,-327.41 797.21,-327.96"/>
</g>
<!-- Node15&#45;&gt;Node2 -->
<g id="edge40" class="edge">
<title>Node15&#45;&gt;Node2</title>
<path fill="none" stroke="midnightblue" d="M694.54,-164.3C698.38,-166.79 701.92,-169.7 705,-173.07 711.91,-180.65 774.55,-488.08 791.04,-569.47"/>
<polygon fill="midnightblue" stroke="midnightblue" points="787.63,-570.29 793.05,-579.4 794.49,-568.9 787.63,-570.29"/>
</g>
<!-- Node15&#45;&gt;Node5 -->
<g id="edge41" class="edge">
<title>Node15&#45;&gt;Node5</title>
<path fill="none" stroke="midnightblue" d="M690.18,-164.21C695.43,-166.73 700.46,-169.66 705,-173.07 746.12,-203.96 774.36,-259.46 787.18,-288.75"/>
<polygon fill="midnightblue" stroke="midnightblue" points="784.09,-290.42 791.2,-298.26 790.53,-287.69 784.09,-290.42"/>
</g>
</g>
</svg>
        <g id="navigator" transform="translate(0 0)" fill="#404254">
                <rect fill="#f2f5e9" fill-opacity="0.5" stroke="#606060" stroke-width=".5" x="0" y="0" width="60" height="60"/>
                <use id="zoomplus" xlink:href="#zoomPlus" x="17" y="9" onmousedown="handleZoom(evt,'in')"/>
                <use id="zoomminus" xlink:href="#zoomMin" x="42" y="9" onmousedown="handleZoom(evt,'out')"/>
                <use id="reset" xlink:href="#resetDef" x="30" y="36" onmousedown="handleReset()"/>
                <g id="arrowUp" xlink:href="#dirArrow" transform="translate(30 24)" onmousedown="handlePan(0,-1)">
                  <use xlink:href="#rim" fill="#404040">
                        <set attributeName="fill" to="#808080" begin="arrowUp.mouseover" end="arrowUp.mouseout"/>
                  </use>
                  <path fill="none" stroke="white" stroke-width="1.5" d="M0,-3.0v7 M-2.5,-0.5L0,-3.0L2.5,-0.5"/>
                </g>
                <g id="arrowRight" xlink:href="#dirArrow" transform="rotate(90) translate(36 -43)" onmousedown="handlePan(1,0)">
                  <use xlink:href="#rim" fill="#404040">
                        <set attributeName="fill" to="#808080" begin="arrowRight.mouseover" end="arrowRight.mouseout"/>
                  </use>
                  <path fill="none" stroke="white" stroke-width="1.5" d="M0,-3.0v7 M-2.5,-0.5L0,-3.0L2.5,-0.5"/>
                </g>
                <g id="arrowDown" xlink:href="#dirArrow" transform="rotate(180) translate(-30 -48)" onmousedown="handlePan(0,1)">
                  <use xlink:href="#rim" fill="#404040">
                        <set attributeName="fill" to="#808080" begin="arrowDown.mouseover" end="arrowDown.mouseout"/>
                  </use>
                  <path fill="none" stroke="white" stroke-width="1.5" d="M0,-3.0v7 M-2.5,-0.5L0,-3.0L2.5,-0.5"/>
                </g>
                <g id="arrowLeft" xlink:href="#dirArrow" transform="rotate(270) translate(-36 17)" onmousedown="handlePan(-1,0)">
                  <use xlink:href="#rim" fill="#404040">
                        <set attributeName="fill" to="#808080" begin="arrowLeft.mouseover" end="arrowLeft.mouseout"/>
                  </use>
                  <path fill="none" stroke="white" stroke-width="1.5" d="M0,-3.0v7 M-2.5,-0.5L0,-3.0L2.5,-0.5"/>
                </g>
        </g>
        <svg viewBox="0 0 15 15" width="100%" height="30px" preserveAspectRatio="xMaxYMin meet">
         <g id="arrow_out" transform="scale(0.3 0.3)">
          <a xlink:href="class_t_train_controller_a9067975adc343b753d7eb882648c66bb_cgraph_org.svg" target="_base">
           <rect id="button" ry="5" rx="5" y="6" x="6" height="38" width="38"
                fill="#f2f5e9" fill-opacity="0.5" stroke="#606060" stroke-width="1.0"/>
           <path id="arrow"
             d="M 11.500037,31.436501 C 11.940474,20.09759 22.043105,11.32322 32.158766,21.979434 L 37.068811,17.246167 C 37.068811,17.246167 37.088388,32 37.088388,32 L 22.160133,31.978069 C 22.160133,31.978069 26.997745,27.140456 26.997745,27.140456 C 18.528582,18.264221 13.291696,25.230495 11.500037,31.436501 z"
             style="fill:#404040;"/>
          </a>
         </g>
        </svg>
</svg>
