<?xml version="1.0" encoding="UTF-8" standalone="no"?>
<!DOCTYPE svg PUBLIC "-//W3C//DTD SVG 1.1//EN"
 "http://www.w3.org/Graphics/SVG/1.1/DTD/svg11.dtd">
<!-- Generated by graphviz version 2.44.1 (20200629.0800)
 -->
<!-- Title: TDisplay::PlotOutput Pages: 1 -->
<svg width="261pt" height="66pt"
 viewBox="0.00 0.00 261.00 66.00" xmlns="http://www.w3.org/2000/svg" xmlns:xlink="http://www.w3.org/1999/xlink">
<g id="graph0" class="graph" transform="scale(1 1) rotate(0) translate(4 62)">
<title>TDisplay::PlotOutput</title>
<polygon fill="white" stroke="transparent" points="-4,4 -4,-62 257,-62 257,4 -4,4"/>
<!-- Node1 -->
<g id="node1" class="node">
<title>Node1</title>
<g id="a_node1"><a xlink:title="Plot the graphic at screen position HPos &amp; VPos.">
<polygon fill="#bfbfbf" stroke="black" points="0,-19.5 0,-38.5 107,-38.5 107,-19.5 0,-19.5"/>
<text text-anchor="middle" x="53.5" y="-26.5" font-family="Helvetica,sans-Serif" font-size="10.00">TDisplay::PlotOutput</text>
</a>
</g>
</g>
<!-- Node2 -->
<g id="node2" class="node">
<title>Node2</title>
<g id="a_node2"><a xlink:href="class_t_utilities.html#ae1eddca13cc3c492839e131f40ec21c0" target="_top" xlink:title="&lt; specifies whether no delays or minor, moderate or major random delays are to be applied">
<polygon fill="white" stroke="black" points="143,-38.5 143,-57.5 253,-57.5 253,-38.5 143,-38.5"/>
<text text-anchor="middle" x="198" y="-45.5" font-family="Helvetica,sans-Serif" font-size="10.00">TUtilities::CallLogPop</text>
</a>
</g>
</g>
<!-- Node1&#45;&gt;Node2 -->
<g id="edge1" class="edge">
<title>Node1&#45;&gt;Node2</title>
<path fill="none" stroke="midnightblue" d="M107.16,-36.02C115.48,-37.13 124.16,-38.29 132.71,-39.43"/>
<polygon fill="midnightblue" stroke="midnightblue" points="132.28,-42.9 142.65,-40.75 133.2,-35.96 132.28,-42.9"/>
</g>
<!-- Node3 -->
<g id="node3" class="node">
<title>Node3</title>
<g id="a_node3"><a xlink:href="class_t_utilities.html#a34bd6bb5305bc29afdf424f6d35a921c" target="_top" xlink:title="creates a string of the form &#39;hh:mm:ss&#39; for use in call &amp; event logging">
<polygon fill="white" stroke="black" points="143,-0.5 143,-19.5 253,-19.5 253,-0.5 143,-0.5"/>
<text text-anchor="middle" x="198" y="-7.5" font-family="Helvetica,sans-Serif" font-size="10.00">TUtilities::TimeStamp</text>
</a>
</g>
</g>
<!-- Node1&#45;&gt;Node3 -->
<g id="edge2" class="edge">
<title>Node1&#45;&gt;Node3</title>
<path fill="none" stroke="midnightblue" d="M107.16,-21.98C115.48,-20.87 124.16,-19.71 132.71,-18.57"/>
<polygon fill="midnightblue" stroke="midnightblue" points="133.2,-22.04 142.65,-17.25 132.28,-15.1 133.2,-22.04"/>
</g>
</g>
</svg>
