<?xml version="1.0" encoding="UTF-8" standalone="no"?>
<!DOCTYPE svg PUBLIC "-//W3C//DTD SVG 1.1//EN"
 "http://www.w3.org/Graphics/SVG/1.1/DTD/svg11.dtd">
<!-- Generated by graphviz version 2.44.1 (20200629.0800)
 -->
<!-- Title: TTrack::CheckMapAndTrack Pages: 1 -->
<svg width="461pt" height="110pt"
 viewBox="0.00 0.00 461.00 110.38" xmlns="http://www.w3.org/2000/svg" xmlns:xlink="http://www.w3.org/1999/xlink">
<g id="graph0" class="graph" transform="scale(1 1) rotate(0) translate(4 106.38)">
<title>TTrack::CheckMapAndTrack</title>
<polygon fill="white" stroke="transparent" points="-4,4 -4,-106.38 457,-106.38 457,4 -4,4"/>
<!-- Node1 -->
<g id="node1" class="node">
<title>Node1</title>
<g id="a_node1"><a xlink:title="Validity test.">
<polygon fill="#bfbfbf" stroke="black" points="0,-38.1 0,-57.1 140,-57.1 140,-38.1 0,-38.1"/>
<text text-anchor="middle" x="70" y="-45.1" font-family="Helvetica,sans-Serif" font-size="10.00">TTrack::CheckMapAndTrack</text>
</a>
</g>
</g>
<!-- Node2 -->
<g id="node2" class="node">
<title>Node2</title>
<g id="a_node2"><a xlink:href="class_t_utilities.html#ae1eddca13cc3c492839e131f40ec21c0" target="_top" xlink:title="pops the last entry off the call stack, throws an error if called when empty">
<polygon fill="white" stroke="black" points="343,-60.1 343,-79.1 453,-79.1 453,-60.1 343,-60.1"/>
<text text-anchor="middle" x="398" y="-67.1" font-family="Helvetica,sans-Serif" font-size="10.00">TUtilities::CallLogPop</text>
</a>
</g>
</g>
<!-- Node1&#45;&gt;Node2 -->
<g id="edge1" class="edge">
<title>Node1&#45;&gt;Node2</title>
<path fill="none" stroke="midnightblue" d="M86.65,-57.15C106.56,-68.68 142.41,-87.43 176,-94.6 232.94,-106.77 249.31,-102.47 307,-94.6 324.83,-92.17 344.11,-87.15 360.24,-82.24"/>
<polygon fill="midnightblue" stroke="midnightblue" points="361.34,-85.57 369.83,-79.23 359.24,-78.89 361.34,-85.57"/>
</g>
<!-- Node3 -->
<g id="node3" class="node">
<title>Node3</title>
<g id="a_node3"><a xlink:href="class_t_track.html#aa0812972d1ae27198c5fbca8aa7b6134" target="_top" xlink:title="Returns the track vector position corresponding to the Hloc &amp; VLoc positions, FoundFlag indicates whe...">
<polygon fill="white" stroke="black" points="176,-54.6 176,-84.6 307,-84.6 307,-54.6 176,-54.6"/>
<text text-anchor="start" x="184" y="-72.6" font-family="Helvetica,sans-Serif" font-size="10.00">TTrack::GetVectorPosition</text>
<text text-anchor="middle" x="241.5" y="-61.6" font-family="Helvetica,sans-Serif" font-size="10.00">FromTrackMap</text>
</a>
</g>
</g>
<!-- Node1&#45;&gt;Node3 -->
<g id="edge2" class="edge">
<title>Node1&#45;&gt;Node3</title>
<path fill="none" stroke="midnightblue" d="M140.43,-56.61C148.75,-57.69 157.27,-58.8 165.67,-59.89"/>
<polygon fill="midnightblue" stroke="midnightblue" points="165.45,-63.39 175.81,-61.21 166.35,-56.45 165.45,-63.39"/>
</g>
<!-- Node4 -->
<g id="node4" class="node">
<title>Node4</title>
<g id="a_node4"><a xlink:href="class_t_utilities.html#a34bd6bb5305bc29afdf424f6d35a921c" target="_top" xlink:title="creates a string of the form &#39;hh:mm:ss&#39; for use in call &amp; event logging">
<polygon fill="white" stroke="black" points="343,-16.1 343,-35.1 453,-35.1 453,-16.1 343,-16.1"/>
<text text-anchor="middle" x="398" y="-23.1" font-family="Helvetica,sans-Serif" font-size="10.00">TUtilities::TimeStamp</text>
</a>
</g>
</g>
<!-- Node1&#45;&gt;Node4 -->
<g id="edge5" class="edge">
<title>Node1&#45;&gt;Node4</title>
<path fill="none" stroke="midnightblue" d="M89.34,-38.01C109.82,-27.88 144.27,-12.58 176,-6.6 233.22,4.17 249.09,-0.56 307,-6.6 321.31,-8.1 336.7,-10.89 350.64,-13.89"/>
<polygon fill="midnightblue" stroke="midnightblue" points="349.97,-17.33 360.49,-16.09 351.5,-10.5 349.97,-17.33"/>
</g>
<!-- Node5 -->
<g id="node5" class="node">
<title>Node5</title>
<g id="a_node5"><a xlink:href="class_t_track.html#ad377e5a1f152f2e89832c0f9bcfd261f" target="_top" xlink:title="A range&#45;checked version of TrackVector.at(At)">
<polygon fill="white" stroke="black" points="180.5,-16.1 180.5,-35.1 302.5,-35.1 302.5,-16.1 180.5,-16.1"/>
<text text-anchor="middle" x="241.5" y="-23.1" font-family="Helvetica,sans-Serif" font-size="10.00">TTrack::TrackElementAt</text>
</a>
</g>
</g>
<!-- Node1&#45;&gt;Node5 -->
<g id="edge6" class="edge">
<title>Node1&#45;&gt;Node5</title>
<path fill="none" stroke="midnightblue" d="M140.43,-38.59C150.27,-37.31 160.39,-36 170.25,-34.72"/>
<polygon fill="midnightblue" stroke="midnightblue" points="170.93,-38.16 180.4,-33.4 170.03,-31.22 170.93,-38.16"/>
</g>
<!-- Node3&#45;&gt;Node2 -->
<g id="edge3" class="edge">
<title>Node3&#45;&gt;Node2</title>
<path fill="none" stroke="midnightblue" d="M307.13,-69.6C315.59,-69.6 324.27,-69.6 332.72,-69.6"/>
<polygon fill="midnightblue" stroke="midnightblue" points="332.91,-73.1 342.91,-69.6 332.91,-66.1 332.91,-73.1"/>
</g>
<!-- Node3&#45;&gt;Node4 -->
<g id="edge4" class="edge">
<title>Node3&#45;&gt;Node4</title>
<path fill="none" stroke="midnightblue" d="M295.24,-54.58C314.27,-49.16 335.51,-43.11 353.65,-37.95"/>
<polygon fill="midnightblue" stroke="midnightblue" points="354.71,-41.29 363.37,-35.18 352.79,-34.55 354.71,-41.29"/>
</g>
<!-- Node5&#45;&gt;Node2 -->
<g id="edge7" class="edge">
<title>Node5&#45;&gt;Node2</title>
<path fill="none" stroke="midnightblue" d="M276.02,-35.15C298.8,-41.64 329.14,-50.28 353.74,-57.28"/>
<polygon fill="midnightblue" stroke="midnightblue" points="352.96,-60.7 363.54,-60.07 354.88,-53.97 352.96,-60.7"/>
</g>
<!-- Node5&#45;&gt;Node4 -->
<g id="edge8" class="edge">
<title>Node5&#45;&gt;Node4</title>
<path fill="none" stroke="midnightblue" d="M302.68,-25.6C312.49,-25.6 322.68,-25.6 332.59,-25.6"/>
<polygon fill="midnightblue" stroke="midnightblue" points="332.78,-29.1 342.78,-25.6 332.78,-22.1 332.78,-29.1"/>
</g>
</g>
</svg>
