<?xml version="1.0" encoding="UTF-8" standalone="no"?>
<!DOCTYPE svg PUBLIC "-//W3C//DTD SVG 1.1//EN"
 "http://www.w3.org/Graphics/SVG/1.1/DTD/svg11.dtd">
<!-- Generated by graphviz version 2.44.1 (20200629.0800)
 -->
<!-- Title: TTrack::FindNonPlatformMatch Pages: 1 -->
<!--zoomable 495 -->
<svg id="main" version="1.1" xmlns="http://www.w3.org/2000/svg" xmlns:xlink="http://www.w3.org/1999/xlink" xml:space="preserve" onload="init(evt)">
<style type="text/css"><![CDATA[
.edge:hover path { stroke: red; }
.edge:hover polygon { stroke: red; fill: red; }
]]></style>
<script type="text/javascript"><![CDATA[
var edges = document.getElementsByTagName('g');
if (edges && edges.length) {
  for (var i=0;i<edges.length;i++) {
    if (edges[i].id.substr(0,4)=='edge') {
      edges[i].setAttribute('class','edge');
    }
  }
}
]]></script>
        <defs>
                <circle id="rim" cx="0" cy="0" r="7"/>
                <circle id="rim2" cx="0" cy="0" r="3.5"/>
                <g id="zoomPlus">
                        <use xlink:href="#rim" fill="#404040">
                                <set attributeName="fill" to="#808080" begin="zoomplus.mouseover" end="zoomplus.mouseout"/>
                        </use>
                        <path d="M-4,0h8M0,-4v8" fill="none" stroke="white" stroke-width="1.5" pointer-events="none"/>
                </g>
                <g id="zoomMin">
                        <use xlink:href="#rim" fill="#404040">
                                <set attributeName="fill" to="#808080" begin="zoomminus.mouseover" end="zoomminus.mouseout"/>
                        </use>
                        <path d="M-4,0h8" fill="none" stroke="white" stroke-width="1.5" pointer-events="none"/>
                </g>
                <g id="dirArrow">
                        <path fill="none" stroke="white" stroke-width="1.5" d="M0,-3.0v7 M-2.5,-0.5L0,-3.0L2.5,-0.5"/>
                </g>
               <g id="resetDef">
                       <use xlink:href="#rim2" fill="#404040">
                               <set attributeName="fill" to="#808080" begin="reset.mouseover" end="reset.mouseout"/>
                       </use>
               </g>
        </defs>

<script type="text/javascript">
var viewWidth = 1613;
var viewHeight = 495;
var sectionId = 'dynsection-62';
</script>
<script xlink:href="svgpan.js"/>
<svg id="graph" class="graph">
<g id="viewport">
<title>TTrack::FindNonPlatformMatch</title>
<polygon fill="white" stroke="transparent" points="-4,4 -4,-491.37 1609,-491.37 1609,4 -4,4"/>
<!-- Node1 -->
<g id="node1" class="node">
<title>Node1</title>
<g id="a_node1"><a xlink:title="True if find a non&#45;platform element at HLoc &amp; VLoc, and if so return its TrackVector position and a r...">
<polygon fill="#bfbfbf" stroke="black" points="1454,-241 1454,-260 1605,-260 1605,-241 1454,-241"/>
<text text-anchor="middle" x="1529.5" y="-248" font-family="Helvetica,sans-Serif" font-size="10.00">TTrack::FindNonPlatformMatch</text>
</a>
</g>
</g>
<!-- Node2 -->
<g id="node2" class="node">
<title>Node2</title>
<g id="a_node2"><a xlink:href="class_t_track.html#a6c4ff502fade845fc1b9011cc4532e3a" target="_top" xlink:title="Validity test.">
<polygon fill="white" stroke="black" points="1087,-377 1087,-396 1203,-396 1203,-377 1087,-377"/>
<text text-anchor="middle" x="1145" y="-384" font-family="Helvetica,sans-Serif" font-size="10.00">TTrack::CheckGapMap</text>
</a>
</g>
</g>
<!-- Node1&#45;&gt;Node2 -->
<g id="edge1" class="edge">
<title>Node1&#45;&gt;Node2</title>
<path fill="none" stroke="midnightblue" d="M1518.35,-269.13C1501.68,-297.58 1465.55,-350.92 1418,-373.5 1349.46,-406.05 1259.95,-402.89 1202.7,-396.01"/>
<polygon fill="midnightblue" stroke="midnightblue" points="1521.53,-270.62 1523.42,-260.19 1515.44,-267.16 1521.53,-270.62"/>
</g>
<!-- Node8 -->
<g id="node8" class="node">
<title>Node8</title>
<g id="a_node8"><a xlink:href="class_t_interface.html#a6139ffb52492eb89e5487a8a3cd647b5" target="_top" xlink:title="The main loop, called every clock tick via MasterClockTimer.">
<polygon fill="white" stroke="black" points="179,-421 179,-440 298,-440 298,-421 179,-421"/>
<text text-anchor="middle" x="238.5" y="-428" font-family="Helvetica,sans-Serif" font-size="10.00">TInterface::ClockTimer2</text>
</a>
</g>
</g>
<!-- Node1&#45;&gt;Node8 -->
<g id="edge12" class="edge">
<title>Node1&#45;&gt;Node8</title>
<path fill="none" stroke="midnightblue" d="M1524.13,-270.02C1513.76,-311.23 1483.5,-406.8 1418,-449.5 1316.31,-515.8 1267.4,-474.5 1146,-474.5 1146,-474.5 1146,-474.5 587,-474.5 474.24,-474.5 445.2,-474.22 334,-455.5 312.24,-451.84 288.22,-445.45 269.83,-440.05"/>
<polygon fill="midnightblue" stroke="midnightblue" points="1527.57,-270.68 1526.49,-260.14 1520.76,-269.05 1527.57,-270.68"/>
</g>
<!-- Node12 -->
<g id="node12" class="node">
<title>Node12</title>
<g id="a_node12"><a xlink:href="class_t_track.html#a4109e356d902de07ebb8848acbee364a" target="_top" xlink:title="True if find an unset gap that matches the gap at HLoc &amp; VLoc, if find one mark it with a green circl...">
<polygon fill="white" stroke="black" points="1268.5,-147.5 1268.5,-177.5 1403.5,-177.5 1403.5,-147.5 1268.5,-147.5"/>
<text text-anchor="start" x="1276.5" y="-165.5" font-family="Helvetica,sans-Serif" font-size="10.00">TTrack::FindSetAndDisplay</text>
<text text-anchor="middle" x="1336" y="-154.5" font-family="Helvetica,sans-Serif" font-size="10.00">MatchingGap</text>
</a>
</g>
</g>
<!-- Node1&#45;&gt;Node12 -->
<g id="edge13" class="edge">
<title>Node1&#45;&gt;Node12</title>
<path fill="none" stroke="midnightblue" d="M1503.23,-236.04C1481.12,-223.69 1447.96,-205.84 1418,-192.5 1406.08,-187.19 1392.91,-182.03 1380.71,-177.52"/>
<polygon fill="midnightblue" stroke="midnightblue" points="1501.55,-239.11 1511.98,-240.97 1504.99,-233.02 1501.55,-239.11"/>
</g>
<!-- Node13 -->
<g id="node13" class="node">
<title>Node13</title>
<g id="a_node13"><a xlink:href="class_t_interface.html#abf07d5edc1507de381825f17620748b2" target="_top" xlink:title="Called when mouse button clicked in zoom&#45;in mode.">
<polygon fill="white" stroke="black" points="1072,-169.5 1072,-199.5 1218,-199.5 1218,-169.5 1072,-169.5"/>
<text text-anchor="start" x="1080" y="-187.5" font-family="Helvetica,sans-Serif" font-size="10.00">TInterface::MainScreenMouse</text>
<text text-anchor="middle" x="1145" y="-176.5" font-family="Helvetica,sans-Serif" font-size="10.00">Down2</text>
</a>
</g>
</g>
<!-- Node1&#45;&gt;Node13 -->
<g id="edge30" class="edge">
<title>Node1&#45;&gt;Node13</title>
<path fill="none" stroke="midnightblue" d="M1477.63,-238.78C1458.93,-234.64 1437.55,-230.13 1418,-226.5 1350.47,-213.96 1273.01,-202.26 1218.07,-194.41"/>
<polygon fill="midnightblue" stroke="midnightblue" points="1476.91,-242.2 1487.43,-240.96 1478.43,-235.37 1476.91,-242.2"/>
</g>
<!-- Node15 -->
<g id="node15" class="node">
<title>Node15</title>
<g id="a_node15"><a xlink:href="class_t_one_route.html#a997f3cb02d8e03d0a12769b8eb903674" target="_top" xlink:title="Try to find a set of linked tracks between the route start element and the one at HLoc &amp; VLoc....">
<polygon fill="white" stroke="black" points="1254,-98.5 1254,-128.5 1418,-128.5 1418,-98.5 1254,-98.5"/>
<text text-anchor="start" x="1262" y="-116.5" font-family="Helvetica,sans-Serif" font-size="10.00">TOneRoute::GetNextNonPreferred</text>
<text text-anchor="middle" x="1336" y="-105.5" font-family="Helvetica,sans-Serif" font-size="10.00">RouteElement</text>
</a>
</g>
</g>
<!-- Node1&#45;&gt;Node15 -->
<g id="edge16" class="edge">
<title>Node1&#45;&gt;Node15</title>
<path fill="none" stroke="midnightblue" d="M1515.67,-232.49C1496.97,-207.56 1459.86,-162.73 1418,-137.5 1412.35,-134.09 1406.18,-131.14 1399.85,-128.59"/>
<polygon fill="midnightblue" stroke="midnightblue" points="1512.96,-234.72 1521.7,-240.71 1518.6,-230.58 1512.96,-234.72"/>
</g>
<!-- Node16 -->
<g id="node16" class="node">
<title>Node16</title>
<g id="a_node16"><a xlink:href="class_t_one_pref_dir.html#a06cd3491535362fccbba4e76b9a120e9" target="_top" xlink:title="Used when continuing a chain of preferred directions or element lengths. Tries to find a set of linke...">
<polygon fill="white" stroke="black" points="1272,-333.5 1272,-363.5 1400,-363.5 1400,-333.5 1272,-333.5"/>
<text text-anchor="start" x="1280" y="-351.5" font-family="Helvetica,sans-Serif" font-size="10.00">TOnePrefDir::GetNextPref</text>
<text text-anchor="middle" x="1336" y="-340.5" font-family="Helvetica,sans-Serif" font-size="10.00">DirElement</text>
</a>
</g>
</g>
<!-- Node1&#45;&gt;Node16 -->
<g id="edge18" class="edge">
<title>Node1&#45;&gt;Node16</title>
<path fill="none" stroke="midnightblue" d="M1508.68,-266.49C1487.37,-283 1451.98,-308.54 1418,-324.5 1410.96,-327.8 1403.37,-330.77 1395.75,-333.39"/>
<polygon fill="midnightblue" stroke="midnightblue" points="1510.94,-269.16 1516.64,-260.23 1506.61,-263.66 1510.94,-269.16"/>
</g>
<!-- Node17 -->
<g id="node17" class="node">
<title>Node17</title>
<g id="a_node17"><a xlink:href="class_t_one_route.html#af1794f576d8aff59f83992afc1c5acc2" target="_top" xlink:title="Try to find a set of linked tracks that lie on preferred directions between the route start element a...">
<polygon fill="white" stroke="black" points="1263,-0.5 1263,-30.5 1409,-30.5 1409,-0.5 1263,-0.5"/>
<text text-anchor="start" x="1271" y="-18.5" font-family="Helvetica,sans-Serif" font-size="10.00">TOneRoute::GetNextPreferred</text>
<text text-anchor="middle" x="1336" y="-7.5" font-family="Helvetica,sans-Serif" font-size="10.00">RouteElement</text>
</a>
</g>
</g>
<!-- Node1&#45;&gt;Node17 -->
<g id="edge20" class="edge">
<title>Node1&#45;&gt;Node17</title>
<path fill="none" stroke="midnightblue" d="M1523.84,-231.1C1512.85,-189.56 1481.33,-91.58 1418,-39.5 1413.81,-36.05 1409.14,-33.1 1404.21,-30.57"/>
<polygon fill="midnightblue" stroke="midnightblue" points="1520.45,-231.98 1526.3,-240.81 1527.24,-230.26 1520.45,-231.98"/>
</g>
<!-- Node19 -->
<g id="node19" class="node">
<title>Node19</title>
<g id="a_node19"><a xlink:href="class_t_one_route.html#a43513cae58e5d18979492cbe76b51f74" target="_top" xlink:title="Set the starting conditions for a non&#45;preferred (i.e. unrestricted) route selection beginning on HLoc...">
<polygon fill="white" stroke="black" points="1264.5,-284.5 1264.5,-314.5 1407.5,-314.5 1407.5,-284.5 1264.5,-284.5"/>
<text text-anchor="start" x="1272.5" y="-302.5" font-family="Helvetica,sans-Serif" font-size="10.00">TOneRoute::GetNonPreferred</text>
<text text-anchor="middle" x="1336" y="-291.5" font-family="Helvetica,sans-Serif" font-size="10.00">RouteStartElement</text>
</a>
</g>
</g>
<!-- Node1&#45;&gt;Node19 -->
<g id="edge23" class="edge">
<title>Node1&#45;&gt;Node19</title>
<path fill="none" stroke="midnightblue" d="M1481.2,-262.6C1455.39,-269.21 1423.19,-277.45 1395.77,-284.46"/>
<polygon fill="midnightblue" stroke="midnightblue" points="1482.3,-265.93 1491.12,-260.06 1480.57,-259.15 1482.3,-265.93"/>
</g>
<!-- Node20 -->
<g id="node20" class="node">
<title>Node20</title>
<g id="a_node20"><a xlink:href="class_t_one_pref_dir.html#ace0402792492c9da2551423f8287e41e" target="_top" xlink:title="Used when beginning a chain of preferred directions or element lengths. Enter with HLoc &amp; VLoc set to...">
<polygon fill="white" stroke="black" points="1265.5,-235.5 1265.5,-265.5 1406.5,-265.5 1406.5,-235.5 1265.5,-235.5"/>
<text text-anchor="start" x="1273.5" y="-253.5" font-family="Helvetica,sans-Serif" font-size="10.00">TOnePrefDir::GetPrefDirStart</text>
<text text-anchor="middle" x="1336" y="-242.5" font-family="Helvetica,sans-Serif" font-size="10.00">Element</text>
</a>
</g>
</g>
<!-- Node1&#45;&gt;Node20 -->
<g id="edge25" class="edge">
<title>Node1&#45;&gt;Node20</title>
<path fill="none" stroke="midnightblue" d="M1443.62,-250.5C1431.27,-250.5 1418.68,-250.5 1406.69,-250.5"/>
<polygon fill="midnightblue" stroke="midnightblue" points="1443.91,-254 1453.91,-250.5 1443.91,-247 1443.91,-254"/>
</g>
<!-- Node21 -->
<g id="node21" class="node">
<title>Node21</title>
<g id="a_node21"><a xlink:href="class_t_one_route.html#a07ee58454e2f49b4f0d5d8e6a1a2d40f" target="_top" xlink:title="Set the starting conditions for a preferred direction or automatic signal route selection beginning o...">
<polygon fill="white" stroke="black" points="1260,-49.5 1260,-79.5 1412,-79.5 1412,-49.5 1260,-49.5"/>
<text text-anchor="start" x="1268" y="-67.5" font-family="Helvetica,sans-Serif" font-size="10.00">TOneRoute::GetPreferredRoute</text>
<text text-anchor="middle" x="1336" y="-56.5" font-family="Helvetica,sans-Serif" font-size="10.00">StartElement</text>
</a>
</g>
</g>
<!-- Node1&#45;&gt;Node21 -->
<g id="edge27" class="edge">
<title>Node1&#45;&gt;Node21</title>
<path fill="none" stroke="midnightblue" d="M1520.75,-231.52C1505.93,-197.62 1470.35,-126.68 1418,-88.5 1413.26,-85.04 1408.02,-82.08 1402.56,-79.54"/>
<polygon fill="midnightblue" stroke="midnightblue" points="1517.55,-232.93 1524.67,-240.77 1523.99,-230.2 1517.55,-232.93"/>
</g>
<!-- Node22 -->
<g id="node22" class="node">
<title>Node22</title>
<g id="a_node22"><a xlink:href="class_t_track.html#a1be0a43c6b1dc736d981fe7d883d7f01" target="_top" xlink:title="Called by RepositionAndMapTrack to reset the connecting elements of all set gaps (their TrackVector p...">
<polygon fill="white" stroke="black" points="1256,-421 1256,-440 1416,-440 1416,-421 1256,-421"/>
<text text-anchor="middle" x="1336" y="-428" font-family="Helvetica,sans-Serif" font-size="10.00">TTrack::ResetGapsFromGapMap</text>
</a>
</g>
</g>
<!-- Node1&#45;&gt;Node22 -->
<g id="edge31" class="edge">
<title>Node1&#45;&gt;Node22</title>
<path fill="none" stroke="midnightblue" d="M1520.14,-269.68C1504.77,-302.65 1468.9,-370.07 1418,-406.5 1409.17,-412.82 1398.68,-417.49 1388.23,-420.94"/>
<polygon fill="midnightblue" stroke="midnightblue" points="1523.46,-270.81 1524.4,-260.26 1517.09,-267.93 1523.46,-270.81"/>
</g>
<!-- Node3 -->
<g id="node3" class="node">
<title>Node3</title>
<g id="a_node3"><a xlink:href="class_t_track.html#ac1dc75f1df6278c62f13e23469b80982" target="_top" xlink:title="Handles all tasks associated with track linking, returns true if successful (see also LinkTrack &amp; Lin...">
<polygon fill="white" stroke="black" points="883,-399 883,-418 1019,-418 1019,-399 883,-399"/>
<text text-anchor="middle" x="951" y="-406" font-family="Helvetica,sans-Serif" font-size="10.00">TTrack::TryToConnectTrack</text>
</a>
</g>
</g>
<!-- Node2&#45;&gt;Node3 -->
<g id="edge2" class="edge">
<title>Node2&#45;&gt;Node3</title>
<path fill="none" stroke="midnightblue" d="M1076.97,-394.18C1058.19,-396.33 1037.78,-398.67 1019.01,-400.82"/>
<polygon fill="midnightblue" stroke="midnightblue" points="1077.38,-397.66 1086.91,-393.04 1076.58,-390.7 1077.38,-397.66"/>
</g>
<!-- Node4 -->
<g id="node4" class="node">
<title>Node4</title>
<g id="a_node4"><a xlink:href="class_t_track.html#a09140dd23c45ccd541f056c3dd257c13" target="_top" xlink:title="Load track elements (active &amp; inactive) from the file into the relevant vectors and maps,...">
<polygon fill="white" stroke="black" points="716,-377 716,-396 813,-396 813,-377 716,-377"/>
<text text-anchor="middle" x="764.5" y="-384" font-family="Helvetica,sans-Serif" font-size="10.00">TTrack::LoadTrack</text>
</a>
</g>
</g>
<!-- Node3&#45;&gt;Node4 -->
<g id="edge3" class="edge">
<title>Node3&#45;&gt;Node4</title>
<path fill="none" stroke="midnightblue" d="M872.74,-399.29C852.55,-396.88 831.37,-394.35 813.22,-392.19"/>
<polygon fill="midnightblue" stroke="midnightblue" points="872.53,-402.79 882.87,-400.5 873.35,-395.84 872.53,-402.79"/>
</g>
<!-- Node11 -->
<g id="node11" class="node">
<title>Node11</title>
<g id="a_node11"><a xlink:href="class_t_interface.html#aab42b12ff3ba43ad2f70994b5399dd90" target="_top" xlink:title=" ">
<polygon fill="white" stroke="black" points="699,-415.5 699,-445.5 830,-445.5 830,-415.5 699,-415.5"/>
<text text-anchor="start" x="707" y="-433.5" font-family="Helvetica,sans-Serif" font-size="10.00">TInterface::TrackOKButton</text>
<text text-anchor="middle" x="764.5" y="-422.5" font-family="Helvetica,sans-Serif" font-size="10.00">Click</text>
</a>
</g>
</g>
<!-- Node3&#45;&gt;Node11 -->
<g id="edge11" class="edge">
<title>Node3&#45;&gt;Node11</title>
<path fill="none" stroke="midnightblue" d="M872.66,-417.72C858.5,-419.41 843.86,-421.16 830.12,-422.79"/>
<polygon fill="midnightblue" stroke="midnightblue" points="873.35,-421.16 882.87,-416.5 872.53,-414.21 873.35,-421.16"/>
</g>
<!-- Node5 -->
<g id="node5" class="node">
<title>Node5</title>
<g id="a_node5"><a xlink:href="class_t_interface.html#a95c3545a30171ca5a08e34c58160079c" target="_top" xlink:title="Load a railway file. The Active elements marker now has a &#39;1&#39; at the end if there are user graphics t...">
<polygon fill="white" stroke="black" points="528.5,-421 528.5,-440 647.5,-440 647.5,-421 528.5,-421"/>
<text text-anchor="middle" x="588" y="-428" font-family="Helvetica,sans-Serif" font-size="10.00">TInterface::LoadRailway</text>
</a>
</g>
</g>
<!-- Node4&#45;&gt;Node5 -->
<g id="edge4" class="edge">
<title>Node4&#45;&gt;Node5</title>
<path fill="none" stroke="midnightblue" d="M715.66,-398.56C687.68,-405.62 652.84,-414.4 626.79,-420.97"/>
<polygon fill="midnightblue" stroke="midnightblue" points="716.8,-401.89 725.64,-396.05 715.08,-395.1 716.8,-401.89"/>
</g>
<!-- Node7 -->
<g id="node7" class="node">
<title>Node7</title>
<g id="a_node7"><a xlink:href="class_t_interface.html#a636b1b4bd29f2678a3290ed2d282f1c2" target="_top" xlink:title="Load a session file.">
<polygon fill="white" stroke="black" points="345,-377 345,-396 466,-396 466,-377 345,-377"/>
<text text-anchor="middle" x="405.5" y="-384" font-family="Helvetica,sans-Serif" font-size="10.00">TInterface::LoadSession</text>
</a>
</g>
</g>
<!-- Node4&#45;&gt;Node7 -->
<g id="edge6" class="edge">
<title>Node4&#45;&gt;Node7</title>
<path fill="none" stroke="midnightblue" d="M721.85,-374.24C703.92,-369.56 682.6,-364.81 663,-362.5 596.79,-354.7 579.26,-355.13 513,-362.5 488.32,-365.25 461.01,-371.47 440.23,-376.89"/>
<polygon fill="midnightblue" stroke="midnightblue" points="721.14,-377.67 731.71,-376.89 722.96,-370.91 721.14,-377.67"/>
</g>
<!-- Node10 -->
<g id="node10" class="node">
<title>Node10</title>
<g id="a_node10"><a xlink:href="class_t_interface.html#a3904f26b67b9512507960187b37b6f7b" target="_top" xlink:title="Checks session file integrity prior to loading, true for success.">
<polygon fill="white" stroke="black" points="513,-371.5 513,-401.5 663,-401.5 663,-371.5 513,-371.5"/>
<text text-anchor="start" x="521" y="-389.5" font-family="Helvetica,sans-Serif" font-size="10.00">TInterface::SessionFileIntegrity</text>
<text text-anchor="middle" x="588" y="-378.5" font-family="Helvetica,sans-Serif" font-size="10.00">Check</text>
</a>
</g>
</g>
<!-- Node4&#45;&gt;Node10 -->
<g id="edge9" class="edge">
<title>Node4&#45;&gt;Node10</title>
<path fill="none" stroke="midnightblue" d="M705.66,-386.5C692.06,-386.5 677.38,-386.5 663.18,-386.5"/>
<polygon fill="midnightblue" stroke="midnightblue" points="705.82,-390 715.82,-386.5 705.82,-383 705.82,-390"/>
</g>
<!-- Node6 -->
<g id="node6" class="node">
<title>Node6</title>
<g id="a_node6"><a xlink:href="class_t_interface.html#a96249c7622a9d55541de186483e04d2e" target="_top" xlink:title=" ">
<polygon fill="white" stroke="black" points="334,-415.5 334,-445.5 477,-445.5 477,-415.5 334,-415.5"/>
<text text-anchor="start" x="342" y="-433.5" font-family="Helvetica,sans-Serif" font-size="10.00">TInterface::LoadRailwayMenu</text>
<text text-anchor="middle" x="405.5" y="-422.5" font-family="Helvetica,sans-Serif" font-size="10.00">ItemClick</text>
</a>
</g>
</g>
<!-- Node5&#45;&gt;Node6 -->
<g id="edge5" class="edge">
<title>Node5&#45;&gt;Node6</title>
<path fill="none" stroke="midnightblue" d="M518.25,-430.5C504.77,-430.5 490.62,-430.5 477.09,-430.5"/>
<polygon fill="midnightblue" stroke="midnightblue" points="518.4,-434 528.4,-430.5 518.4,-427 518.4,-434"/>
</g>
<!-- Node7&#45;&gt;Node8 -->
<g id="edge7" class="edge">
<title>Node7&#45;&gt;Node8</title>
<path fill="none" stroke="midnightblue" d="M358.92,-398.65C332.52,-405.7 299.76,-414.43 275.23,-420.97"/>
<polygon fill="midnightblue" stroke="midnightblue" points="359.94,-402.01 368.7,-396.05 358.13,-395.24 359.94,-402.01"/>
</g>
<!-- Node9 -->
<g id="node9" class="node">
<title>Node9</title>
<g id="a_node9"><a xlink:href="class_t_interface.html#ace30a12d923fc7fb489afabb0a09aa4f" target="_top" xlink:title=" ">
<polygon fill="white" stroke="black" points="0,-421 0,-440 143,-440 143,-421 0,-421"/>
<text text-anchor="middle" x="71.5" y="-428" font-family="Helvetica,sans-Serif" font-size="10.00">TInterface::MasterClockTimer</text>
</a>
</g>
</g>
<!-- Node8&#45;&gt;Node9 -->
<g id="edge8" class="edge">
<title>Node8&#45;&gt;Node9</title>
<path fill="none" stroke="midnightblue" d="M168.67,-430.5C160.22,-430.5 151.57,-430.5 143.09,-430.5"/>
<polygon fill="midnightblue" stroke="midnightblue" points="168.86,-434 178.86,-430.5 168.86,-427 168.86,-434"/>
</g>
<!-- Node10&#45;&gt;Node7 -->
<g id="edge10" class="edge">
<title>Node10&#45;&gt;Node7</title>
<path fill="none" stroke="midnightblue" d="M502.52,-386.5C490.21,-386.5 477.76,-386.5 466.09,-386.5"/>
<polygon fill="midnightblue" stroke="midnightblue" points="502.8,-390 512.8,-386.5 502.8,-383 502.8,-390"/>
</g>
<!-- Node12&#45;&gt;Node13 -->
<g id="edge14" class="edge">
<title>Node12&#45;&gt;Node13</title>
<path fill="none" stroke="midnightblue" d="M1258.33,-171.43C1245.05,-172.97 1231.28,-174.57 1218.13,-176.1"/>
<polygon fill="midnightblue" stroke="midnightblue" points="1258.84,-174.89 1268.37,-170.26 1258.03,-167.94 1258.84,-174.89"/>
</g>
<!-- Node14 -->
<g id="node14" class="node">
<title>Node14</title>
<g id="a_node14"><a xlink:href="class_t_interface.html#a7f37862fb9e01e1328d9fd3fd8c50094" target="_top" xlink:title=" ">
<polygon fill="white" stroke="black" points="866,-175 866,-194 1036,-194 1036,-175 866,-175"/>
<text text-anchor="middle" x="951" y="-182" font-family="Helvetica,sans-Serif" font-size="10.00">TInterface::MainScreenMouseDown</text>
</a>
</g>
</g>
<!-- Node13&#45;&gt;Node14 -->
<g id="edge15" class="edge">
<title>Node13&#45;&gt;Node14</title>
<path fill="none" stroke="midnightblue" d="M1061.7,-184.5C1053.22,-184.5 1044.58,-184.5 1036.08,-184.5"/>
<polygon fill="midnightblue" stroke="midnightblue" points="1061.96,-188 1071.96,-184.5 1061.96,-181 1061.96,-188"/>
</g>
<!-- Node15&#45;&gt;Node13 -->
<g id="edge17" class="edge">
<title>Node15&#45;&gt;Node13</title>
<path fill="none" stroke="midnightblue" d="M1270.97,-131.68C1265.2,-133.55 1259.47,-135.51 1254,-137.5 1227.87,-147.02 1199.02,-159.69 1177.72,-169.47"/>
<polygon fill="midnightblue" stroke="midnightblue" points="1272.2,-134.96 1280.67,-128.6 1270.08,-128.29 1272.2,-134.96"/>
</g>
<!-- Node16&#45;&gt;Node13 -->
<g id="edge19" class="edge">
<title>Node16&#45;&gt;Node13</title>
<path fill="none" stroke="midnightblue" d="M1262.56,-329.68C1259.59,-328.09 1256.72,-326.37 1254,-324.5 1205.13,-291 1168.56,-228.44 1153.52,-199.68"/>
<polygon fill="midnightblue" stroke="midnightblue" points="1261.19,-332.91 1271.72,-334.07 1264.22,-326.59 1261.19,-332.91"/>
</g>
<!-- Node17&#45;&gt;Node13 -->
<g id="edge21" class="edge">
<title>Node17&#45;&gt;Node13</title>
<path fill="none" stroke="midnightblue" d="M1260.73,-35.26C1258.41,-36.58 1256.16,-37.99 1254,-39.5 1204.06,-74.35 1167.79,-139.65 1153.15,-169.24"/>
<polygon fill="midnightblue" stroke="midnightblue" points="1262.66,-38.21 1270,-30.57 1259.5,-31.96 1262.66,-38.21"/>
</g>
<!-- Node18 -->
<g id="node18" class="node">
<title>Node18</title>
<g id="a_node18"><a xlink:href="class_t_interface.html#aa639148521a793641e694b15486b5055" target="_top" xlink:title=" ">
<polygon fill="white" stroke="black" points="1081,-25.5 1081,-55.5 1209,-55.5 1209,-25.5 1081,-25.5"/>
<text text-anchor="start" x="1089" y="-43.5" font-family="Helvetica,sans-Serif" font-size="10.00">TInterface::PresetAutoSig</text>
<text text-anchor="middle" x="1145" y="-32.5" font-family="Helvetica,sans-Serif" font-size="10.00">RoutesButtonClick</text>
</a>
</g>
</g>
<!-- Node17&#45;&gt;Node18 -->
<g id="edge22" class="edge">
<title>Node17&#45;&gt;Node18</title>
<path fill="none" stroke="midnightblue" d="M1252.73,-26.38C1238.17,-28.31 1223.21,-30.29 1209.27,-32.13"/>
<polygon fill="midnightblue" stroke="midnightblue" points="1253.28,-29.84 1262.74,-25.06 1252.37,-22.9 1253.28,-29.84"/>
</g>
<!-- Node19&#45;&gt;Node13 -->
<g id="edge24" class="edge">
<title>Node19&#45;&gt;Node13</title>
<path fill="none" stroke="midnightblue" d="M1264.8,-280.72C1261.08,-279.1 1257.46,-277.36 1254,-275.5 1216.01,-255.03 1179.21,-219.7 1159.92,-199.61"/>
<polygon fill="midnightblue" stroke="midnightblue" points="1263.59,-284 1274.18,-284.49 1266.2,-277.51 1263.59,-284"/>
</g>
<!-- Node20&#45;&gt;Node13 -->
<g id="edge26" class="edge">
<title>Node20&#45;&gt;Node13</title>
<path fill="none" stroke="midnightblue" d="M1281.98,-231.98C1252.67,-221.75 1216.73,-209.2 1189.16,-199.57"/>
<polygon fill="midnightblue" stroke="midnightblue" points="1281.04,-235.37 1291.64,-235.36 1283.35,-228.76 1281.04,-235.37"/>
</g>
<!-- Node21&#45;&gt;Node13 -->
<g id="edge28" class="edge">
<title>Node21&#45;&gt;Node13</title>
<path fill="none" stroke="midnightblue" d="M1264.2,-83.41C1260.69,-84.99 1257.27,-86.68 1254,-88.5 1214.97,-110.2 1178,-148.13 1159.1,-169.24"/>
<polygon fill="midnightblue" stroke="midnightblue" points="1265.75,-86.56 1273.66,-79.51 1263.08,-80.09 1265.75,-86.56"/>
</g>
<!-- Node21&#45;&gt;Node18 -->
<g id="edge29" class="edge">
<title>Node21&#45;&gt;Node18</title>
<path fill="none" stroke="midnightblue" d="M1249.45,-53.64C1235.88,-51.91 1222.06,-50.16 1209.12,-48.52"/>
<polygon fill="midnightblue" stroke="midnightblue" points="1249.4,-57.16 1259.76,-54.95 1250.28,-50.21 1249.4,-57.16"/>
</g>
<!-- Node23 -->
<g id="node23" class="node">
<title>Node23</title>
<g id="a_node23"><a xlink:href="class_t_track.html#a5e2e215fae5247206220d301c324e9a0" target="_top" xlink:title="When track is being built it is entered into the TrackVector in the order in which it is built,...">
<polygon fill="white" stroke="black" points="1078,-415.5 1078,-445.5 1212,-445.5 1212,-415.5 1078,-415.5"/>
<text text-anchor="start" x="1086" y="-433.5" font-family="Helvetica,sans-Serif" font-size="10.00">TTrack::RepositionAndMap</text>
<text text-anchor="middle" x="1145" y="-422.5" font-family="Helvetica,sans-Serif" font-size="10.00">Track</text>
</a>
</g>
</g>
<!-- Node22&#45;&gt;Node23 -->
<g id="edge32" class="edge">
<title>Node22&#45;&gt;Node23</title>
<path fill="none" stroke="midnightblue" d="M1245.64,-430.5C1234.36,-430.5 1222.99,-430.5 1212.17,-430.5"/>
<polygon fill="midnightblue" stroke="midnightblue" points="1245.94,-434 1255.94,-430.5 1245.94,-427 1245.94,-434"/>
</g>
<!-- Node23&#45;&gt;Node3 -->
<g id="edge33" class="edge">
<title>Node23&#45;&gt;Node3</title>
<path fill="none" stroke="midnightblue" d="M1067.54,-421.74C1051.55,-419.91 1034.8,-417.99 1019.18,-416.2"/>
<polygon fill="midnightblue" stroke="midnightblue" points="1067.59,-425.27 1077.92,-422.93 1068.39,-418.31 1067.59,-425.27"/>
</g>
</g>
</svg>
        <g id="navigator" transform="translate(0 0)" fill="#404254">
                <rect fill="#f2f5e9" fill-opacity="0.5" stroke="#606060" stroke-width=".5" x="0" y="0" width="60" height="60"/>
                <use id="zoomplus" xlink:href="#zoomPlus" x="17" y="9" onmousedown="handleZoom(evt,'in')"/>
                <use id="zoomminus" xlink:href="#zoomMin" x="42" y="9" onmousedown="handleZoom(evt,'out')"/>
                <use id="reset" xlink:href="#resetDef" x="30" y="36" onmousedown="handleReset()"/>
                <g id="arrowUp" xlink:href="#dirArrow" transform="translate(30 24)" onmousedown="handlePan(0,-1)">
                  <use xlink:href="#rim" fill="#404040">
                        <set attributeName="fill" to="#808080" begin="arrowUp.mouseover" end="arrowUp.mouseout"/>
                  </use>
                  <path fill="none" stroke="white" stroke-width="1.5" d="M0,-3.0v7 M-2.5,-0.5L0,-3.0L2.5,-0.5"/>
                </g>
                <g id="arrowRight" xlink:href="#dirArrow" transform="rotate(90) translate(36 -43)" onmousedown="handlePan(1,0)">
                  <use xlink:href="#rim" fill="#404040">
                        <set attributeName="fill" to="#808080" begin="arrowRight.mouseover" end="arrowRight.mouseout"/>
                  </use>
                  <path fill="none" stroke="white" stroke-width="1.5" d="M0,-3.0v7 M-2.5,-0.5L0,-3.0L2.5,-0.5"/>
                </g>
                <g id="arrowDown" xlink:href="#dirArrow" transform="rotate(180) translate(-30 -48)" onmousedown="handlePan(0,1)">
                  <use xlink:href="#rim" fill="#404040">
                        <set attributeName="fill" to="#808080" begin="arrowDown.mouseover" end="arrowDown.mouseout"/>
                  </use>
                  <path fill="none" stroke="white" stroke-width="1.5" d="M0,-3.0v7 M-2.5,-0.5L0,-3.0L2.5,-0.5"/>
                </g>
                <g id="arrowLeft" xlink:href="#dirArrow" transform="rotate(270) translate(-36 17)" onmousedown="handlePan(-1,0)">
                  <use xlink:href="#rim" fill="#404040">
                        <set attributeName="fill" to="#808080" begin="arrowLeft.mouseover" end="arrowLeft.mouseout"/>
                  </use>
                  <path fill="none" stroke="white" stroke-width="1.5" d="M0,-3.0v7 M-2.5,-0.5L0,-3.0L2.5,-0.5"/>
                </g>
        </g>
        <svg viewBox="0 0 15 15" width="100%" height="30px" preserveAspectRatio="xMaxYMin meet">
         <g id="arrow_out" transform="scale(0.3 0.3)">
          <a xlink:href="class_t_track_ad55e3329a208e84e9e7519cc024b7aec_icgraph_org.svg" target="_base">
           <rect id="button" ry="5" rx="5" y="6" x="6" height="38" width="38"
                fill="#f2f5e9" fill-opacity="0.5" stroke="#606060" stroke-width="1.0"/>
           <path id="arrow"
             d="M 11.500037,31.436501 C 11.940474,20.09759 22.043105,11.32322 32.158766,21.979434 L 37.068811,17.246167 C 37.068811,17.246167 37.088388,32 37.088388,32 L 22.160133,31.978069 C 22.160133,31.978069 26.997745,27.140456 26.997745,27.140456 C 18.528582,18.264221 13.291696,25.230495 11.500037,31.436501 z"
             style="fill:#404040;"/>
          </a>
         </g>
        </svg>
</svg>
