<?xml version="1.0" encoding="UTF-8" standalone="no"?>
<!DOCTYPE svg PUBLIC "-//W3C//DTD SVG 1.1//EN"
 "http://www.w3.org/Graphics/SVG/1.1/DTD/svg11.dtd">
<!-- Generated by graphviz version 2.44.1 (20200629.0800)
 -->
<!-- Title: TTrack::TrackClear Pages: 1 -->
<!--zoomable 270 -->
<svg id="main" version="1.1" xmlns="http://www.w3.org/2000/svg" xmlns:xlink="http://www.w3.org/1999/xlink" xml:space="preserve" onload="init(evt)">
<style type="text/css"><![CDATA[
.edge:hover path { stroke: red; }
.edge:hover polygon { stroke: red; fill: red; }
]]></style>
<script type="text/javascript"><![CDATA[
var edges = document.getElementsByTagName('g');
if (edges && edges.length) {
  for (var i=0;i<edges.length;i++) {
    if (edges[i].id.substr(0,4)=='edge') {
      edges[i].setAttribute('class','edge');
    }
  }
}
]]></script>
        <defs>
                <circle id="rim" cx="0" cy="0" r="7"/>
                <circle id="rim2" cx="0" cy="0" r="3.5"/>
                <g id="zoomPlus">
                        <use xlink:href="#rim" fill="#404040">
                                <set attributeName="fill" to="#808080" begin="zoomplus.mouseover" end="zoomplus.mouseout"/>
                        </use>
                        <path d="M-4,0h8M0,-4v8" fill="none" stroke="white" stroke-width="1.5" pointer-events="none"/>
                </g>
                <g id="zoomMin">
                        <use xlink:href="#rim" fill="#404040">
                                <set attributeName="fill" to="#808080" begin="zoomminus.mouseover" end="zoomminus.mouseout"/>
                        </use>
                        <path d="M-4,0h8" fill="none" stroke="white" stroke-width="1.5" pointer-events="none"/>
                </g>
                <g id="dirArrow">
                        <path fill="none" stroke="white" stroke-width="1.5" d="M0,-3.0v7 M-2.5,-0.5L0,-3.0L2.5,-0.5"/>
                </g>
               <g id="resetDef">
                       <use xlink:href="#rim2" fill="#404040">
                               <set attributeName="fill" to="#808080" begin="reset.mouseover" end="reset.mouseout"/>
                       </use>
               </g>
        </defs>

<script type="text/javascript">
var viewWidth = 603;
var viewHeight = 270;
var sectionId = 'dynsection-278';
</script>
<script xlink:href="svgpan.js"/>
<svg id="graph" class="graph">
<g id="viewport">
<title>TTrack::TrackClear</title>
<polygon fill="white" stroke="transparent" points="-4,4 -4,-266.31 599,-266.31 599,4 -4,4"/>
<!-- Node1 -->
<g id="node1" class="node">
<title>Node1</title>
<g id="a_node1"><a xlink:title="Empty the track and inactive track vectors, the corresponding track maps, and LocationNameMultiMap.">
<polygon fill="#bfbfbf" stroke="black" points="0,-120.53 0,-139.53 98,-139.53 98,-120.53 0,-120.53"/>
<text text-anchor="middle" x="49" y="-127.53" font-family="Helvetica,sans-Serif" font-size="10.00">TTrack::TrackClear</text>
</a>
</g>
</g>
<!-- Node2 -->
<g id="node2" class="node">
<title>Node2</title>
<g id="a_node2"><a xlink:href="class_t_track.html#a20a28eaf0308f7aedcfc78ba9eeadea9" target="_top" xlink:title="Examine TrackVector, InactiveTrackVector and TextVector, and set the values that indicate the extent ...">
<polygon fill="white" stroke="black" points="134,-120.53 134,-139.53 259,-139.53 259,-120.53 134,-120.53"/>
<text text-anchor="middle" x="196.5" y="-127.53" font-family="Helvetica,sans-Serif" font-size="10.00">TTrack::CalcHLocMinEtc</text>
</a>
</g>
</g>
<!-- Node1&#45;&gt;Node2 -->
<g id="edge1" class="edge">
<title>Node1&#45;&gt;Node2</title>
<path fill="none" stroke="midnightblue" d="M98.05,-130.03C106.26,-130.03 114.94,-130.03 123.61,-130.03"/>
<polygon fill="midnightblue" stroke="midnightblue" points="123.75,-133.53 133.75,-130.03 123.75,-126.53 123.75,-133.53"/>
</g>
<!-- Node3 -->
<g id="node3" class="node">
<title>Node3</title>
<g id="a_node3"><a xlink:href="class_t_utilities.html#ae1eddca13cc3c492839e131f40ec21c0" target="_top" xlink:title="&lt; specifies whether no delays or minor, moderate or major random delays are to be applied">
<polygon fill="white" stroke="black" points="485,-158.53 485,-177.53 595,-177.53 595,-158.53 485,-158.53"/>
<text text-anchor="middle" x="540" y="-165.53" font-family="Helvetica,sans-Serif" font-size="10.00">TUtilities::CallLogPop</text>
</a>
</g>
</g>
<!-- Node1&#45;&gt;Node3 -->
<g id="edge19" class="edge">
<title>Node1&#45;&gt;Node3</title>
<path fill="none" stroke="midnightblue" d="M64.08,-139.57C100.34,-163.5 200.76,-225.68 295,-247.03 361.75,-262.15 384.95,-271.16 449,-247.03 481.39,-234.83 509.72,-205.08 525.57,-185.77"/>
<polygon fill="midnightblue" stroke="midnightblue" points="528.47,-187.75 531.94,-177.74 522.99,-183.4 528.47,-187.75"/>
</g>
<!-- Node5 -->
<g id="node5" class="node">
<title>Node5</title>
<g id="a_node5"><a xlink:href="class_t_utilities.html#a34bd6bb5305bc29afdf424f6d35a921c" target="_top" xlink:title="creates a string of the form &#39;hh:mm:ss&#39; for use in call &amp; event logging">
<polygon fill="white" stroke="black" points="485,-82.53 485,-101.53 595,-101.53 595,-82.53 485,-82.53"/>
<text text-anchor="middle" x="540" y="-89.53" font-family="Helvetica,sans-Serif" font-size="10.00">TUtilities::TimeStamp</text>
</a>
</g>
</g>
<!-- Node1&#45;&gt;Node5 -->
<g id="edge20" class="edge">
<title>Node1&#45;&gt;Node5</title>
<path fill="none" stroke="midnightblue" d="M64.37,-120.48C100.93,-96.83 201.21,-35.95 295,-15.03 361.8,-0.13 384.8,8.69 449,-15.03 480.95,-26.83 509.23,-55.6 525.22,-74.43"/>
<polygon fill="midnightblue" stroke="midnightblue" points="522.62,-76.78 531.67,-82.29 528.03,-72.34 522.62,-76.78"/>
</g>
<!-- Node2&#45;&gt;Node3 -->
<g id="edge2" class="edge">
<title>Node2&#45;&gt;Node3</title>
<path fill="none" stroke="midnightblue" d="M203.57,-139.74C217.03,-160.22 251.65,-207.41 295,-225.03 358.4,-250.81 383.26,-244.1 449,-225.03 476.23,-217.14 503.12,-198.26 520.31,-184.38"/>
<polygon fill="midnightblue" stroke="midnightblue" points="522.93,-186.76 528.37,-177.67 518.44,-181.38 522.93,-186.76"/>
</g>
<!-- Node4 -->
<g id="node4" class="node">
<title>Node4</title>
<g id="a_node4"><a xlink:href="class_t_track.html#a51f89cf70e94b037f6378cd78003d82b" target="_top" xlink:title="A range&#45;checked version of InactiveTrackVector.at(At)">
<polygon fill="white" stroke="black" points="295,-158.53 295,-177.53 449,-177.53 449,-158.53 295,-158.53"/>
<text text-anchor="middle" x="372" y="-165.53" font-family="Helvetica,sans-Serif" font-size="10.00">TTrack::InactiveTrackElementAt</text>
</a>
</g>
</g>
<!-- Node2&#45;&gt;Node4 -->
<g id="edge3" class="edge">
<title>Node2&#45;&gt;Node4</title>
<path fill="none" stroke="midnightblue" d="M241.28,-139.62C264.49,-144.7 293.18,-150.99 317.67,-156.35"/>
<polygon fill="midnightblue" stroke="midnightblue" points="317.02,-159.79 327.53,-158.51 318.51,-152.95 317.02,-159.79"/>
</g>
<!-- Node2&#45;&gt;Node5 -->
<g id="edge12" class="edge">
<title>Node2&#45;&gt;Node5</title>
<path fill="none" stroke="midnightblue" d="M203.57,-120.33C217.03,-99.85 251.65,-52.66 295,-35.03 358.4,-9.25 383.26,-15.97 449,-35.03 476.23,-42.93 503.12,-61.8 520.31,-75.68"/>
<polygon fill="midnightblue" stroke="midnightblue" points="518.44,-78.68 528.37,-82.4 522.93,-73.3 518.44,-78.68"/>
</g>
<!-- Node6 -->
<g id="node6" class="node">
<title>Node6</title>
<g id="a_node6"><a xlink:href="class_t_text_handler.html#ac478536f458d9cda8a841953672f6525" target="_top" xlink:title="return the text item at position &#39;At&#39; in TextVector (carries out range checking)">
<polygon fill="white" stroke="black" points="311.5,-120.53 311.5,-139.53 432.5,-139.53 432.5,-120.53 311.5,-120.53"/>
<text text-anchor="middle" x="372" y="-127.53" font-family="Helvetica,sans-Serif" font-size="10.00">TTextHandler::TextPtrAt</text>
</a>
</g>
</g>
<!-- Node2&#45;&gt;Node6 -->
<g id="edge6" class="edge">
<title>Node2&#45;&gt;Node6</title>
<path fill="none" stroke="midnightblue" d="M259.16,-130.03C272.8,-130.03 287.34,-130.03 301.27,-130.03"/>
<polygon fill="midnightblue" stroke="midnightblue" points="301.29,-133.53 311.29,-130.03 301.29,-126.53 301.29,-133.53"/>
</g>
<!-- Node7 -->
<g id="node7" class="node">
<title>Node7</title>
<g id="a_node7"><a xlink:href="class_t_text_handler.html#a7dfd4e30235878fb01e7387715e0cb0f" target="_top" xlink:title="return the number of items in TextVector">
<polygon fill="white" stroke="black" points="299,-82.53 299,-101.53 445,-101.53 445,-82.53 299,-82.53"/>
<text text-anchor="middle" x="372" y="-89.53" font-family="Helvetica,sans-Serif" font-size="10.00">TTextHandler::TextVectorSize</text>
</a>
</g>
</g>
<!-- Node2&#45;&gt;Node7 -->
<g id="edge9" class="edge">
<title>Node2&#45;&gt;Node7</title>
<path fill="none" stroke="midnightblue" d="M241.28,-120.44C264.49,-115.36 293.18,-109.08 317.67,-103.71"/>
<polygon fill="midnightblue" stroke="midnightblue" points="318.51,-107.11 327.53,-101.55 317.02,-100.27 318.51,-107.11"/>
</g>
<!-- Node8 -->
<g id="node8" class="node">
<title>Node8</title>
<g id="a_node8"><a xlink:href="class_t_track.html#ad377e5a1f152f2e89832c0f9bcfd261f" target="_top" xlink:title="A range&#45;checked version of TrackVector.at(At)">
<polygon fill="white" stroke="black" points="311,-44.53 311,-63.53 433,-63.53 433,-44.53 311,-44.53"/>
<text text-anchor="middle" x="372" y="-51.53" font-family="Helvetica,sans-Serif" font-size="10.00">TTrack::TrackElementAt</text>
</a>
</g>
</g>
<!-- Node2&#45;&gt;Node8 -->
<g id="edge13" class="edge">
<title>Node2&#45;&gt;Node8</title>
<path fill="none" stroke="midnightblue" d="M211.06,-120.41C229.33,-107.86 263.22,-85.98 295,-73.03 301.18,-70.51 307.78,-68.26 314.41,-66.27"/>
<polygon fill="midnightblue" stroke="midnightblue" points="315.44,-69.62 324.11,-63.53 313.54,-62.88 315.44,-69.62"/>
</g>
<!-- Node9 -->
<g id="node9" class="node">
<title>Node9</title>
<g id="a_node9"><a xlink:href="class_t_track.html#a1092232428ee654facf8f53340c13f74" target="_top" xlink:title="A range&#45;checked version of UserGraphicVector.at(At)">
<polygon fill="white" stroke="black" points="300,-196.53 300,-215.53 444,-215.53 444,-196.53 300,-196.53"/>
<text text-anchor="middle" x="372" y="-203.53" font-family="Helvetica,sans-Serif" font-size="10.00">TTrack::UserGraphicVectorAt</text>
</a>
</g>
</g>
<!-- Node2&#45;&gt;Node9 -->
<g id="edge16" class="edge">
<title>Node2&#45;&gt;Node9</title>
<path fill="none" stroke="midnightblue" d="M211.06,-139.65C229.33,-152.2 263.22,-174.08 295,-187.03 301.18,-189.55 307.78,-191.8 314.41,-193.79"/>
<polygon fill="midnightblue" stroke="midnightblue" points="313.54,-197.18 324.11,-196.53 315.44,-190.45 313.54,-197.18"/>
</g>
<!-- Node4&#45;&gt;Node3 -->
<g id="edge4" class="edge">
<title>Node4&#45;&gt;Node3</title>
<path fill="none" stroke="midnightblue" d="M449.2,-168.03C457.59,-168.03 466.07,-168.03 474.3,-168.03"/>
<polygon fill="midnightblue" stroke="midnightblue" points="474.57,-171.53 484.57,-168.03 474.57,-164.53 474.57,-171.53"/>
</g>
<!-- Node4&#45;&gt;Node5 -->
<g id="edge5" class="edge">
<title>Node4&#45;&gt;Node5</title>
<path fill="none" stroke="midnightblue" d="M421.2,-158.45C430.6,-155.9 440.25,-152.78 449,-149.03 474.33,-138.18 500.67,-120.65 518.26,-107.89"/>
<polygon fill="midnightblue" stroke="midnightblue" points="520.65,-110.47 526.61,-101.71 516.49,-104.85 520.65,-110.47"/>
</g>
<!-- Node6&#45;&gt;Node3 -->
<g id="edge7" class="edge">
<title>Node6&#45;&gt;Node3</title>
<path fill="none" stroke="midnightblue" d="M414.89,-139.62C436.89,-144.66 464.05,-150.88 487.35,-156.21"/>
<polygon fill="midnightblue" stroke="midnightblue" points="486.88,-159.69 497.41,-158.51 488.45,-152.87 486.88,-159.69"/>
</g>
<!-- Node6&#45;&gt;Node5 -->
<g id="edge8" class="edge">
<title>Node6&#45;&gt;Node5</title>
<path fill="none" stroke="midnightblue" d="M414.89,-120.44C436.89,-115.41 464.05,-109.19 487.35,-103.85"/>
<polygon fill="midnightblue" stroke="midnightblue" points="488.45,-107.2 497.41,-101.55 486.88,-100.37 488.45,-107.2"/>
</g>
<!-- Node7&#45;&gt;Node3 -->
<g id="edge10" class="edge">
<title>Node7&#45;&gt;Node3</title>
<path fill="none" stroke="midnightblue" d="M421.2,-101.61C430.6,-104.16 440.25,-107.28 449,-111.03 474.33,-121.89 500.67,-139.42 518.26,-152.18"/>
<polygon fill="midnightblue" stroke="midnightblue" points="516.49,-155.22 526.61,-158.35 520.65,-149.59 516.49,-155.22"/>
</g>
<!-- Node7&#45;&gt;Node5 -->
<g id="edge11" class="edge">
<title>Node7&#45;&gt;Node5</title>
<path fill="none" stroke="midnightblue" d="M445.33,-92.03C455.08,-92.03 465.03,-92.03 474.63,-92.03"/>
<polygon fill="midnightblue" stroke="midnightblue" points="474.89,-95.53 484.89,-92.03 474.89,-88.53 474.89,-95.53"/>
</g>
<!-- Node8&#45;&gt;Node3 -->
<g id="edge14" class="edge">
<title>Node8&#45;&gt;Node3</title>
<path fill="none" stroke="midnightblue" d="M427.24,-63.54C434.83,-66.01 442.31,-69.12 449,-73.03 449.07,-73.07 496.85,-123.52 522.75,-150.87"/>
<polygon fill="midnightblue" stroke="midnightblue" points="520.3,-153.37 529.72,-158.23 525.38,-148.56 520.3,-153.37"/>
</g>
<!-- Node8&#45;&gt;Node5 -->
<g id="edge15" class="edge">
<title>Node8&#45;&gt;Node5</title>
<path fill="none" stroke="midnightblue" d="M414.89,-63.62C436.89,-68.66 464.05,-74.88 487.35,-80.21"/>
<polygon fill="midnightblue" stroke="midnightblue" points="486.88,-83.69 497.41,-82.51 488.45,-76.87 486.88,-83.69"/>
</g>
<!-- Node9&#45;&gt;Node3 -->
<g id="edge17" class="edge">
<title>Node9&#45;&gt;Node3</title>
<path fill="none" stroke="midnightblue" d="M414.89,-196.44C436.89,-191.41 464.05,-185.19 487.35,-179.85"/>
<polygon fill="midnightblue" stroke="midnightblue" points="488.45,-183.2 497.41,-177.55 486.88,-176.37 488.45,-183.2"/>
</g>
<!-- Node9&#45;&gt;Node5 -->
<g id="edge18" class="edge">
<title>Node9&#45;&gt;Node5</title>
<path fill="none" stroke="midnightblue" d="M427.24,-196.53C434.83,-194.05 442.31,-190.94 449,-187.03 449.07,-186.99 496.85,-136.55 522.75,-109.19"/>
<polygon fill="midnightblue" stroke="midnightblue" points="525.38,-111.5 529.72,-101.84 520.3,-106.69 525.38,-111.5"/>
</g>
</g>
</svg>
        <g id="navigator" transform="translate(0 0)" fill="#404254">
                <rect fill="#f2f5e9" fill-opacity="0.5" stroke="#606060" stroke-width=".5" x="0" y="0" width="60" height="60"/>
                <use id="zoomplus" xlink:href="#zoomPlus" x="17" y="9" onmousedown="handleZoom(evt,'in')"/>
                <use id="zoomminus" xlink:href="#zoomMin" x="42" y="9" onmousedown="handleZoom(evt,'out')"/>
                <use id="reset" xlink:href="#resetDef" x="30" y="36" onmousedown="handleReset()"/>
                <g id="arrowUp" xlink:href="#dirArrow" transform="translate(30 24)" onmousedown="handlePan(0,-1)">
                  <use xlink:href="#rim" fill="#404040">
                        <set attributeName="fill" to="#808080" begin="arrowUp.mouseover" end="arrowUp.mouseout"/>
                  </use>
                  <path fill="none" stroke="white" stroke-width="1.5" d="M0,-3.0v7 M-2.5,-0.5L0,-3.0L2.5,-0.5"/>
                </g>
                <g id="arrowRight" xlink:href="#dirArrow" transform="rotate(90) translate(36 -43)" onmousedown="handlePan(1,0)">
                  <use xlink:href="#rim" fill="#404040">
                        <set attributeName="fill" to="#808080" begin="arrowRight.mouseover" end="arrowRight.mouseout"/>
                  </use>
                  <path fill="none" stroke="white" stroke-width="1.5" d="M0,-3.0v7 M-2.5,-0.5L0,-3.0L2.5,-0.5"/>
                </g>
                <g id="arrowDown" xlink:href="#dirArrow" transform="rotate(180) translate(-30 -48)" onmousedown="handlePan(0,1)">
                  <use xlink:href="#rim" fill="#404040">
                        <set attributeName="fill" to="#808080" begin="arrowDown.mouseover" end="arrowDown.mouseout"/>
                  </use>
                  <path fill="none" stroke="white" stroke-width="1.5" d="M0,-3.0v7 M-2.5,-0.5L0,-3.0L2.5,-0.5"/>
                </g>
                <g id="arrowLeft" xlink:href="#dirArrow" transform="rotate(270) translate(-36 17)" onmousedown="handlePan(-1,0)">
                  <use xlink:href="#rim" fill="#404040">
                        <set attributeName="fill" to="#808080" begin="arrowLeft.mouseover" end="arrowLeft.mouseout"/>
                  </use>
                  <path fill="none" stroke="white" stroke-width="1.5" d="M0,-3.0v7 M-2.5,-0.5L0,-3.0L2.5,-0.5"/>
                </g>
        </g>
        <svg viewBox="0 0 15 15" width="100%" height="30px" preserveAspectRatio="xMaxYMin meet">
         <g id="arrow_out" transform="scale(0.3 0.3)">
          <a xlink:href="class_t_track_ae6fe537bbd1e56074a358bf2c6233c71_cgraph_org.svg" target="_base">
           <rect id="button" ry="5" rx="5" y="6" x="6" height="38" width="38"
                fill="#f2f5e9" fill-opacity="0.5" stroke="#606060" stroke-width="1.0"/>
           <path id="arrow"
             d="M 11.500037,31.436501 C 11.940474,20.09759 22.043105,11.32322 32.158766,21.979434 L 37.068811,17.246167 C 37.068811,17.246167 37.088388,32 37.088388,32 L 22.160133,31.978069 C 22.160133,31.978069 26.997745,27.140456 26.997745,27.140456 C 18.528582,18.264221 13.291696,25.230495 11.500037,31.436501 z"
             style="fill:#404040;"/>
          </a>
         </g>
        </svg>
</svg>
