<?xml version="1.0" encoding="UTF-8" standalone="no"?>
<!DOCTYPE svg PUBLIC "-//W3C//DTD SVG 1.1//EN"
 "http://www.w3.org/Graphics/SVG/1.1/DTD/svg11.dtd">
<!-- Generated by graphviz version 2.44.1 (20200629.0800)
 -->
<!-- Title: TPrefDirElement::SetEntryDirectionGraphicPtr Pages: 1 -->
<svg width="313pt" height="235pt"
 viewBox="0.00 0.00 313.00 235.00" xmlns="http://www.w3.org/2000/svg" xmlns:xlink="http://www.w3.org/1999/xlink">
<g id="graph0" class="graph" transform="scale(1 1) rotate(0) translate(4 231)">
<title>TPrefDirElement::SetEntryDirectionGraphicPtr</title>
<polygon fill="white" stroke="transparent" points="-4,4 -4,-231 309,-231 309,4 -4,4"/>
<!-- Node1 -->
<g id="node1" class="node">
<title>Node1</title>
<g id="a_node1"><a xlink:title="Used in pasting pref dirs.">
<polygon fill="#bfbfbf" stroke="black" points="174,-98.5 174,-128.5 305,-128.5 305,-98.5 174,-98.5"/>
<text text-anchor="start" x="182" y="-116.5" font-family="Helvetica,sans-Serif" font-size="10.00">TPrefDirElement::SetEntry</text>
<text text-anchor="middle" x="239.5" y="-105.5" font-family="Helvetica,sans-Serif" font-size="10.00">DirectionGraphicPtr</text>
</a>
</g>
</g>
<!-- Node2 -->
<g id="node2" class="node">
<title>Node2</title>
<g id="a_node2"><a xlink:href="class_t_interface.html#add5fbdbceae6285c2cc440905b270491" target="_top" xlink:title=" ">
<polygon fill="white" stroke="black" points="7.5,-196.5 7.5,-226.5 130.5,-226.5 130.5,-196.5 7.5,-196.5"/>
<text text-anchor="start" x="15.5" y="-214.5" font-family="Helvetica,sans-Serif" font-size="10.00">TInterface::FlipMenuItem</text>
<text text-anchor="middle" x="69" y="-203.5" font-family="Helvetica,sans-Serif" font-size="10.00">Click</text>
</a>
</g>
</g>
<!-- Node1&#45;&gt;Node2 -->
<g id="edge1" class="edge">
<title>Node1&#45;&gt;Node2</title>
<path fill="none" stroke="midnightblue" d="M213.61,-135.09C194.07,-151.2 165.65,-172.86 138,-187.5 131.8,-190.78 125.07,-193.77 118.32,-196.45"/>
<polygon fill="midnightblue" stroke="midnightblue" points="215.99,-137.66 221.41,-128.56 211.49,-132.3 215.99,-137.66"/>
</g>
<!-- Node3 -->
<g id="node3" class="node">
<title>Node3</title>
<g id="a_node3"><a xlink:href="class_t_interface.html#a4ee6afffbc33eab918cba315ab65ee6e" target="_top" xlink:title=" ">
<polygon fill="white" stroke="black" points="3,-147.5 3,-177.5 135,-177.5 135,-147.5 3,-147.5"/>
<text text-anchor="start" x="11" y="-165.5" font-family="Helvetica,sans-Serif" font-size="10.00">TInterface::MirrorMenuItem</text>
<text text-anchor="middle" x="69" y="-154.5" font-family="Helvetica,sans-Serif" font-size="10.00">Click</text>
</a>
</g>
</g>
<!-- Node1&#45;&gt;Node3 -->
<g id="edge2" class="edge">
<title>Node1&#45;&gt;Node3</title>
<path fill="none" stroke="midnightblue" d="M176.97,-131.39C158.84,-136.66 139.2,-142.38 121.76,-147.45"/>
<polygon fill="midnightblue" stroke="midnightblue" points="177.94,-134.75 186.57,-128.6 175.99,-128.03 177.94,-134.75"/>
</g>
<!-- Node4 -->
<g id="node4" class="node">
<title>Node4</title>
<g id="a_node4"><a xlink:href="class_t_interface.html#a02e91aba36e2b91354abd2884f658510" target="_top" xlink:title=" ">
<polygon fill="white" stroke="black" points="1,-98.5 1,-128.5 137,-128.5 137,-98.5 1,-98.5"/>
<text text-anchor="start" x="9" y="-116.5" font-family="Helvetica,sans-Serif" font-size="10.00">TInterface::RotateMenuItem</text>
<text text-anchor="middle" x="69" y="-105.5" font-family="Helvetica,sans-Serif" font-size="10.00">Click</text>
</a>
</g>
</g>
<!-- Node1&#45;&gt;Node4 -->
<g id="edge3" class="edge">
<title>Node1&#45;&gt;Node4</title>
<path fill="none" stroke="midnightblue" d="M163.83,-113.5C154.9,-113.5 145.82,-113.5 137,-113.5"/>
<polygon fill="midnightblue" stroke="midnightblue" points="163.84,-117 173.84,-113.5 163.84,-110 163.84,-117"/>
</g>
<!-- Node5 -->
<g id="node5" class="node">
<title>Node5</title>
<g id="a_node5"><a xlink:href="class_t_interface.html#a3cf2db0424e05908b20a97130895d056" target="_top" xlink:title=" ">
<polygon fill="white" stroke="black" points="0,-49.5 0,-79.5 138,-79.5 138,-49.5 0,-49.5"/>
<text text-anchor="start" x="8" y="-67.5" font-family="Helvetica,sans-Serif" font-size="10.00">TInterface::RotLeftMenuItem</text>
<text text-anchor="middle" x="69" y="-56.5" font-family="Helvetica,sans-Serif" font-size="10.00">Click</text>
</a>
</g>
</g>
<!-- Node1&#45;&gt;Node5 -->
<g id="edge4" class="edge">
<title>Node1&#45;&gt;Node5</title>
<path fill="none" stroke="midnightblue" d="M176.97,-95.61C158.84,-90.34 139.2,-84.62 121.76,-79.55"/>
<polygon fill="midnightblue" stroke="midnightblue" points="175.99,-98.97 186.57,-98.4 177.94,-92.25 175.99,-98.97"/>
</g>
<!-- Node6 -->
<g id="node6" class="node">
<title>Node6</title>
<g id="a_node6"><a xlink:href="class_t_interface.html#aa6e7359ece526e43589456e9a31851a0" target="_top" xlink:title=" ">
<polygon fill="white" stroke="black" points="6,-0.5 6,-30.5 132,-30.5 132,-0.5 6,-0.5"/>
<text text-anchor="start" x="14" y="-18.5" font-family="Helvetica,sans-Serif" font-size="10.00">TInterface::RotRightMenu</text>
<text text-anchor="middle" x="69" y="-7.5" font-family="Helvetica,sans-Serif" font-size="10.00">ItemClick</text>
</a>
</g>
</g>
<!-- Node1&#45;&gt;Node6 -->
<g id="edge5" class="edge">
<title>Node1&#45;&gt;Node6</title>
<path fill="none" stroke="midnightblue" d="M213.15,-92.04C193.57,-76.24 165.3,-55.07 138,-40.5 131.23,-36.89 123.83,-33.58 116.47,-30.63"/>
<polygon fill="midnightblue" stroke="midnightblue" points="211.02,-94.82 220.98,-98.44 215.46,-89.4 211.02,-94.82"/>
</g>
</g>
</svg>
