<?xml version="1.0" encoding="UTF-8" standalone="no"?>
<!DOCTYPE svg PUBLIC "-//W3C//DTD SVG 1.1//EN"
 "http://www.w3.org/Graphics/SVG/1.1/DTD/svg11.dtd">
<!-- Generated by graphviz version 2.44.1 (20200629.0800)
 -->
<!-- Title: TTrainController::SplitEntry Pages: 1 -->
<svg width="859pt" height="765pt"
 viewBox="0.00 0.00 859.00 765.20" xmlns="http://www.w3.org/2000/svg" xmlns:xlink="http://www.w3.org/1999/xlink">
<g id="graph0" class="graph" transform="scale(1 1) rotate(0) translate(4 761.2)">
<title>TTrainController::SplitEntry</title>
<polygon fill="white" stroke="transparent" points="-4,4 -4,-761.2 855,-761.2 855,4 -4,4"/>
<!-- Node1 -->
<g id="node1" class="node">
<title>Node1</title>
<g id="a_node1"><a xlink:title="Parse a single timetable service action, return true for success.">
<polygon fill="#bfbfbf" stroke="black" points="0,-413.63 0,-432.63 133,-432.63 133,-413.63 0,-413.63"/>
<text text-anchor="middle" x="66.5" y="-420.63" font-family="Helvetica,sans-Serif" font-size="10.00">TTrainController::SplitEntry</text>
</a>
</g>
</g>
<!-- Node2 -->
<g id="node2" class="node">
<title>Node2</title>
<g id="a_node2"><a xlink:href="class_t_utilities.html#ae1eddca13cc3c492839e131f40ec21c0" target="_top" xlink:title="pops the last entry off the call stack, throws an error if called when empty">
<polygon fill="white" stroke="black" points="741,-491.63 741,-510.63 851,-510.63 851,-491.63 741,-491.63"/>
<text text-anchor="middle" x="796" y="-498.63" font-family="Helvetica,sans-Serif" font-size="10.00">TUtilities::CallLogPop</text>
</a>
</g>
</g>
<!-- Node1&#45;&gt;Node2 -->
<g id="edge1" class="edge">
<title>Node1&#45;&gt;Node2</title>
<path fill="none" stroke="midnightblue" d="M72.38,-432.85C85.45,-458.23 123.37,-527.74 169,-574.13 241.54,-647.87 261.31,-676.15 360,-707.13 506.3,-753.05 576.7,-791.09 705,-707.13 770.05,-664.56 788.36,-563.51 793.28,-520.77"/>
<polygon fill="midnightblue" stroke="midnightblue" points="796.77,-521.09 794.3,-510.79 789.8,-520.38 796.77,-521.09"/>
</g>
<!-- Node3 -->
<g id="node3" class="node">
<title>Node3</title>
<g id="a_node3"><a xlink:href="class_t_train_controller.html#ae91c1a77699c9daf327938081eab2241" target="_top" xlink:title="Used to compile ExitList from a string list of element IDs, returns true for success or gives a messa...">
<polygon fill="white" stroke="black" points="179,-433.13 179,-463.13 314,-463.13 314,-433.13 179,-433.13"/>
<text text-anchor="start" x="187" y="-451.13" font-family="Helvetica,sans-Serif" font-size="10.00">TTrainController::CheckAnd</text>
<text text-anchor="middle" x="246.5" y="-440.13" font-family="Helvetica,sans-Serif" font-size="10.00">PopulateListOfIDs</text>
</a>
</g>
</g>
<!-- Node1&#45;&gt;Node3 -->
<g id="edge2" class="edge">
<title>Node1&#45;&gt;Node3</title>
<path fill="none" stroke="midnightblue" d="M133.02,-432.33C144.72,-433.97 156.99,-435.7 168.96,-437.38"/>
<polygon fill="midnightblue" stroke="midnightblue" points="168.54,-440.85 178.93,-438.78 169.51,-433.92 168.54,-440.85"/>
</g>
<!-- Node4 -->
<g id="node4" class="node">
<title>Node4</title>
<g id="a_node4"><a xlink:href="class_t_track.html#a54d3b9daeb9ec0b45b0672e7273bf575" target="_top" xlink:title="Takes the ElementID value (an AnsiString) (e.g. &quot;8&#45;13&quot;, &quot;N43&#45;N127&quot;, etc) and returns the correspondin...">
<polygon fill="white" stroke="black" points="360,-127.13 360,-157.13 515,-157.13 515,-127.13 360,-127.13"/>
<text text-anchor="start" x="368" y="-145.13" font-family="Helvetica,sans-Serif" font-size="10.00">TTrack::GetTrackVectorPosition</text>
<text text-anchor="middle" x="437.5" y="-134.13" font-family="Helvetica,sans-Serif" font-size="10.00">FromString</text>
</a>
</g>
</g>
<!-- Node1&#45;&gt;Node4 -->
<g id="edge43" class="edge">
<title>Node1&#45;&gt;Node4</title>
<path fill="none" stroke="midnightblue" d="M76.66,-413.15C110.78,-376.46 234.99,-247.31 360,-172.13 366.7,-168.1 374.05,-164.42 381.45,-161.12"/>
<polygon fill="midnightblue" stroke="midnightblue" points="382.97,-164.28 390.81,-157.15 380.24,-157.83 382.97,-164.28"/>
</g>
<!-- Node5 -->
<g id="node5" class="node">
<title>Node5</title>
<g id="a_node5"><a xlink:href="class_t_utilities.html#a34bd6bb5305bc29afdf424f6d35a921c" target="_top" xlink:title="creates a string of the form &#39;hh:mm:ss&#39; for use in call &amp; event logging">
<polygon fill="white" stroke="black" points="741,-224.63 741,-243.63 851,-243.63 851,-224.63 741,-224.63"/>
<text text-anchor="middle" x="796" y="-231.63" font-family="Helvetica,sans-Serif" font-size="10.00">TUtilities::TimeStamp</text>
</a>
</g>
</g>
<!-- Node1&#45;&gt;Node5 -->
<g id="edge44" class="edge">
<title>Node1&#45;&gt;Node5</title>
<path fill="none" stroke="midnightblue" d="M67.92,-413.57C70.23,-372.7 84.58,-210.68 169,-121.13 231.78,-54.53 270.15,-61.56 360,-44.13 510.53,-14.93 575.43,37.87 705,-44.13 765.61,-82.49 786.2,-173.92 792.5,-214.34"/>
<polygon fill="midnightblue" stroke="midnightblue" points="789.04,-214.89 793.92,-224.3 795.97,-213.91 789.04,-214.89"/>
</g>
<!-- Node7 -->
<g id="node7" class="node">
<title>Node7</title>
<g id="a_node7"><a xlink:href="class_t_train_controller.html#a1ccd6c8f2c24e7417889e1a91cb9ca2f" target="_top" xlink:title="Returns true if the headcode complies with requirements.">
<polygon fill="white" stroke="black" points="558,-606.13 558,-636.13 698,-636.13 698,-606.13 558,-606.13"/>
<text text-anchor="start" x="566" y="-624.13" font-family="Helvetica,sans-Serif" font-size="10.00">TTrainController::CheckHead</text>
<text text-anchor="middle" x="628" y="-613.13" font-family="Helvetica,sans-Serif" font-size="10.00">CodeValidity</text>
</a>
</g>
</g>
<!-- Node1&#45;&gt;Node7 -->
<g id="edge16" class="edge">
<title>Node1&#45;&gt;Node7</title>
<path fill="none" stroke="midnightblue" d="M75.29,-432.71C91.2,-451.81 129.33,-495.11 169,-522.13 245.94,-574.54 269.48,-586.37 360,-608.13 421.89,-623 494.11,-625.67 547.82,-624.94"/>
<polygon fill="midnightblue" stroke="midnightblue" points="548.03,-628.44 557.97,-624.76 547.9,-621.44 548.03,-628.44"/>
</g>
<!-- Node9 -->
<g id="node9" class="node">
<title>Node9</title>
<g id="a_node9"><a xlink:href="class_t_train_controller.html#a1925032d5e41decf4befc07b35521d3c" target="_top" xlink:title="Returns true if the location name complies with requirements.">
<polygon fill="white" stroke="black" points="169,-482.13 169,-512.13 324,-512.13 324,-482.13 169,-482.13"/>
<text text-anchor="start" x="177" y="-500.13" font-family="Helvetica,sans-Serif" font-size="10.00">TTrainController::CheckLocation</text>
<text text-anchor="middle" x="246.5" y="-489.13" font-family="Helvetica,sans-Serif" font-size="10.00">Validity</text>
</a>
</g>
</g>
<!-- Node1&#45;&gt;Node9 -->
<g id="edge17" class="edge">
<title>Node1&#45;&gt;Node9</title>
<path fill="none" stroke="midnightblue" d="M84.73,-432.64C104.63,-443.37 138.55,-460.93 169,-473.13 173.8,-475.05 178.82,-476.92 183.9,-478.72"/>
<polygon fill="midnightblue" stroke="midnightblue" points="183.09,-482.14 193.68,-482.06 185.35,-475.51 183.09,-482.14"/>
</g>
<!-- Node11 -->
<g id="node11" class="node">
<title>Node11</title>
<g id="a_node11"><a xlink:href="class_t_train_controller.html#a5c9711cc69c8332cf7db5e0b2696ca45" target="_top" xlink:title="A timetable validation function where train starting positions are checked for validity,...">
<polygon fill="white" stroke="black" points="177,-384.13 177,-414.13 316,-414.13 316,-384.13 177,-384.13"/>
<text text-anchor="start" x="185" y="-402.13" font-family="Helvetica,sans-Serif" font-size="10.00">TTrainController::CheckStart</text>
<text text-anchor="middle" x="246.5" y="-391.13" font-family="Helvetica,sans-Serif" font-size="10.00">PositionValidity</text>
</a>
</g>
</g>
<!-- Node1&#45;&gt;Node11 -->
<g id="edge25" class="edge">
<title>Node1&#45;&gt;Node11</title>
<path fill="none" stroke="midnightblue" d="M133.02,-414.29C143.95,-412.82 155.39,-411.28 166.61,-409.77"/>
<polygon fill="midnightblue" stroke="midnightblue" points="167.39,-413.19 176.83,-408.39 166.45,-406.26 167.39,-413.19"/>
</g>
<!-- Node15 -->
<g id="node15" class="node">
<title>Node15</title>
<g id="a_node15"><a xlink:href="class_t_train_controller.html#a523077cf0c9c02c8cb56dab0af9b0e52" target="_top" xlink:title="returns true if the time complies with requirements">
<polygon fill="white" stroke="black" points="558.5,-241.13 558.5,-271.13 697.5,-271.13 697.5,-241.13 558.5,-241.13"/>
<text text-anchor="start" x="566.5" y="-259.13" font-family="Helvetica,sans-Serif" font-size="10.00">TTrainController::CheckTime</text>
<text text-anchor="middle" x="628" y="-248.13" font-family="Helvetica,sans-Serif" font-size="10.00">Validity</text>
</a>
</g>
</g>
<!-- Node1&#45;&gt;Node15 -->
<g id="edge40" class="edge">
<title>Node1&#45;&gt;Node15</title>
<path fill="none" stroke="midnightblue" d="M69.16,-413.47C75.56,-379.08 101.68,-261.28 169,-196.13 234.89,-132.36 270.02,-135.79 360,-118.13 427.6,-104.86 452.81,-88.51 515,-118.13 564.23,-141.58 598.86,-198.41 615.59,-231.37"/>
<polygon fill="midnightblue" stroke="midnightblue" points="612.66,-233.33 620.21,-240.76 618.94,-230.25 612.66,-233.33"/>
</g>
<!-- Node3&#45;&gt;Node2 -->
<g id="edge3" class="edge">
<title>Node3&#45;&gt;Node2</title>
<path fill="none" stroke="midnightblue" d="M311.5,-463.25C316.1,-466.01 320.35,-469.27 324,-473.13 366.68,-518.23 314.7,-565.65 360,-608.13 423.14,-667.33 464.86,-637.64 551,-646.13 619.11,-652.84 645.19,-679.4 705,-646.13 753.62,-619.08 779.34,-553.7 789.59,-520.77"/>
<polygon fill="midnightblue" stroke="midnightblue" points="793.01,-521.53 792.49,-510.95 786.3,-519.55 793.01,-521.53"/>
</g>
<!-- Node3&#45;&gt;Node4 -->
<g id="edge4" class="edge">
<title>Node3&#45;&gt;Node4</title>
<path fill="none" stroke="midnightblue" d="M314.09,-432.96C317.76,-430.44 321.12,-427.52 324,-424.13 397.26,-337.91 289.79,-260.84 360,-172.13 362.74,-168.67 365.93,-165.61 369.43,-162.9"/>
<polygon fill="midnightblue" stroke="midnightblue" points="371.66,-165.62 378.08,-157.19 367.81,-159.78 371.66,-165.62"/>
</g>
<!-- Node3&#45;&gt;Node5 -->
<g id="edge7" class="edge">
<title>Node3&#45;&gt;Node5</title>
<path fill="none" stroke="midnightblue" d="M313.65,-433.11C317.47,-430.56 320.98,-427.59 324,-424.13 387.36,-351.41 294.92,-281.31 360,-210.13 367.4,-202.03 540.12,-161.53 551,-160.13 618.88,-151.39 640.57,-137.04 705,-160.13 736.38,-171.37 764.65,-198.8 780.81,-216.92"/>
<polygon fill="midnightblue" stroke="midnightblue" points="778.17,-219.21 787.35,-224.49 783.47,-214.64 778.17,-219.21"/>
</g>
<!-- Node6 -->
<g id="node6" class="node">
<title>Node6</title>
<g id="a_node6"><a xlink:href="class_t_train_controller.html#a68d2124bc8f7df43e973299e0afb3dcd" target="_top" xlink:title="Sends a message to the user if GiveMessages is true, including ServiceReference (see above) if not nu...">
<polygon fill="white" stroke="black" points="371.5,-568.13 371.5,-598.13 503.5,-598.13 503.5,-568.13 371.5,-568.13"/>
<text text-anchor="start" x="379.5" y="-586.13" font-family="Helvetica,sans-Serif" font-size="10.00">TTrainController::Timetable</text>
<text text-anchor="middle" x="437.5" y="-575.13" font-family="Helvetica,sans-Serif" font-size="10.00">Message</text>
</a>
</g>
</g>
<!-- Node3&#45;&gt;Node6 -->
<g id="edge8" class="edge">
<title>Node3&#45;&gt;Node6</title>
<path fill="none" stroke="midnightblue" d="M309.72,-463.31C314.88,-466.06 319.74,-469.3 324,-473.13 353,-499.19 331.76,-526.24 360,-553.13 364,-556.94 368.55,-560.29 373.38,-563.22"/>
<polygon fill="midnightblue" stroke="midnightblue" points="371.86,-566.38 382.32,-568.06 375.2,-560.22 371.86,-566.38"/>
</g>
<!-- Node8 -->
<g id="node8" class="node">
<title>Node8</title>
<g id="a_node8"><a xlink:href="class_t_track.html#ad377e5a1f152f2e89832c0f9bcfd261f" target="_top" xlink:title="A range&#45;checked version of TrackVector.at(At)">
<polygon fill="white" stroke="black" points="567,-453.63 567,-472.63 689,-472.63 689,-453.63 567,-453.63"/>
<text text-anchor="middle" x="628" y="-460.63" font-family="Helvetica,sans-Serif" font-size="10.00">TTrack::TrackElementAt</text>
</a>
</g>
</g>
<!-- Node3&#45;&gt;Node8 -->
<g id="edge13" class="edge">
<title>Node3&#45;&gt;Node8</title>
<path fill="none" stroke="midnightblue" d="M314.04,-450.76C381.98,-453.44 487.04,-457.6 556.41,-460.34"/>
<polygon fill="midnightblue" stroke="midnightblue" points="556.67,-463.85 566.8,-460.75 556.95,-456.86 556.67,-463.85"/>
</g>
<!-- Node4&#45;&gt;Node2 -->
<g id="edge5" class="edge">
<title>Node4&#45;&gt;Node2</title>
<path fill="none" stroke="midnightblue" d="M443.07,-157.33C454.72,-193.35 489.07,-284.33 551,-330.13 607.68,-372.04 647.17,-327.81 705,-368.13 746.75,-397.24 774.73,-452.48 787.34,-481.77"/>
<polygon fill="midnightblue" stroke="midnightblue" points="784.23,-483.39 791.29,-491.29 790.69,-480.71 784.23,-483.39"/>
</g>
<!-- Node4&#45;&gt;Node5 -->
<g id="edge6" class="edge">
<title>Node4&#45;&gt;Node5</title>
<path fill="none" stroke="midnightblue" d="M479.2,-127C533.57,-109.4 631.57,-86.94 705,-122.13 745.31,-141.45 773.29,-188.61 786.45,-215.16"/>
<polygon fill="midnightblue" stroke="midnightblue" points="783.44,-217 790.9,-224.53 789.77,-213.99 783.44,-217"/>
</g>
<!-- Node6&#45;&gt;Node7 -->
<g id="edge9" class="edge">
<title>Node6&#45;&gt;Node7</title>
<path fill="none" stroke="midnightblue" d="M503.63,-589.8C525.77,-593.81 550.29,-598.83 571.6,-603.75"/>
<polygon fill="midnightblue" stroke="midnightblue" points="570.92,-607.18 581.46,-606.07 572.53,-600.37 570.92,-607.18"/>
</g>
<!-- Node7&#45;&gt;Node2 -->
<g id="edge10" class="edge">
<title>Node7&#45;&gt;Node2</title>
<path fill="none" stroke="midnightblue" d="M675.91,-606.1C685.9,-601.96 696.1,-596.97 705,-591.13 735.9,-570.85 764.84,-538.66 781.19,-518.77"/>
<polygon fill="midnightblue" stroke="midnightblue" points="784.04,-520.81 787.59,-510.83 778.59,-516.42 784.04,-520.81"/>
</g>
<!-- Node7&#45;&gt;Node5 -->
<g id="edge11" class="edge">
<title>Node7&#45;&gt;Node5</title>
<path fill="none" stroke="midnightblue" d="M642.24,-605.96C658.88,-586.23 687.4,-550.13 705,-515.13 751.57,-422.54 780.74,-300.79 790.93,-253.8"/>
<polygon fill="midnightblue" stroke="midnightblue" points="794.41,-254.27 793.06,-243.76 787.56,-252.82 794.41,-254.27"/>
</g>
<!-- Node7&#45;&gt;Node6 -->
<g id="edge12" class="edge">
<title>Node7&#45;&gt;Node6</title>
<path fill="none" stroke="midnightblue" d="M557.87,-613.72C536.84,-609.86 514.01,-605.15 494.01,-600.53"/>
<polygon fill="midnightblue" stroke="midnightblue" points="494.67,-597.09 484.13,-598.21 493.06,-603.91 494.67,-597.09"/>
</g>
<!-- Node8&#45;&gt;Node2 -->
<g id="edge14" class="edge">
<title>Node8&#45;&gt;Node2</title>
<path fill="none" stroke="midnightblue" d="M670.89,-472.72C692.89,-477.76 720.05,-483.97 743.35,-489.31"/>
<polygon fill="midnightblue" stroke="midnightblue" points="742.88,-492.79 753.41,-491.61 744.45,-485.97 742.88,-492.79"/>
</g>
<!-- Node8&#45;&gt;Node5 -->
<g id="edge15" class="edge">
<title>Node8&#45;&gt;Node5</title>
<path fill="none" stroke="midnightblue" d="M645.84,-453.58C662.49,-443.47 687.91,-426.23 705,-406.13 746.17,-357.71 775.53,-287.29 788.13,-253.55"/>
<polygon fill="midnightblue" stroke="midnightblue" points="791.49,-254.56 791.63,-243.97 784.91,-252.16 791.49,-254.56"/>
</g>
<!-- Node9&#45;&gt;Node2 -->
<g id="edge18" class="edge">
<title>Node9&#45;&gt;Node2</title>
<path fill="none" stroke="midnightblue" d="M251.42,-512.31C261.83,-549.03 293.97,-642.32 360,-679.13 426.96,-716.46 639.69,-719.29 705,-679.13 762.45,-643.8 784.58,-559.19 791.88,-520.74"/>
<polygon fill="midnightblue" stroke="midnightblue" points="795.34,-521.25 793.62,-510.8 788.45,-520.04 795.34,-521.25"/>
</g>
<!-- Node9&#45;&gt;Node5 -->
<g id="edge19" class="edge">
<title>Node9&#45;&gt;Node5</title>
<path fill="none" stroke="midnightblue" d="M312.42,-482.08C316.64,-479.54 320.56,-476.58 324,-473.13 362.36,-434.55 329.13,-400.93 360,-356.13 421.09,-267.48 449.19,-242.14 551,-207.13 622.68,-182.48 712.53,-205.11 760.71,-221.22"/>
<polygon fill="midnightblue" stroke="midnightblue" points="759.74,-224.59 770.33,-224.55 762.02,-217.98 759.74,-224.59"/>
</g>
<!-- Node9&#45;&gt;Node6 -->
<g id="edge24" class="edge">
<title>Node9&#45;&gt;Node6</title>
<path fill="none" stroke="midnightblue" d="M276.3,-512.34C298.83,-524.03 331.09,-540.29 360,-553.13 368.52,-556.91 377.68,-560.72 386.59,-564.29"/>
<polygon fill="midnightblue" stroke="midnightblue" points="385.54,-567.64 396.12,-568.06 388.11,-561.13 385.54,-567.64"/>
</g>
<!-- Node10 -->
<g id="node10" class="node">
<title>Node10</title>
<g id="a_node10"><a xlink:href="class_t_track.html#addd8e149e66c99a295541c9eda13eae4" target="_top" xlink:title="True if a non&#45;empty LocationName found as a timetabled location name i.e. not as a continuation name.">
<polygon fill="white" stroke="black" points="369.5,-480.13 369.5,-510.13 505.5,-510.13 505.5,-480.13 369.5,-480.13"/>
<text text-anchor="start" x="377.5" y="-498.13" font-family="Helvetica,sans-Serif" font-size="10.00">TTrack::TimetabledLocation</text>
<text text-anchor="middle" x="437.5" y="-487.13" font-family="Helvetica,sans-Serif" font-size="10.00">NameAllocated</text>
</a>
</g>
</g>
<!-- Node9&#45;&gt;Node10 -->
<g id="edge20" class="edge">
<title>Node9&#45;&gt;Node10</title>
<path fill="none" stroke="midnightblue" d="M324.1,-496.32C335.66,-496.2 347.58,-496.07 359.15,-495.95"/>
<polygon fill="midnightblue" stroke="midnightblue" points="359.25,-499.45 369.21,-495.84 359.17,-492.45 359.25,-499.45"/>
</g>
<!-- Node10&#45;&gt;Node2 -->
<g id="edge21" class="edge">
<title>Node10&#45;&gt;Node2</title>
<path fill="none" stroke="midnightblue" d="M505.76,-509.08C520.6,-511.59 536.28,-513.83 551,-515.13 619.18,-521.14 636.76,-520.4 705,-515.13 714.03,-514.43 723.53,-513.34 732.83,-512.08"/>
<polygon fill="midnightblue" stroke="midnightblue" points="733.41,-515.53 742.81,-510.64 732.41,-508.6 733.41,-515.53"/>
</g>
<!-- Node10&#45;&gt;Node5 -->
<g id="edge22" class="edge">
<title>Node10&#45;&gt;Node5</title>
<path fill="none" stroke="midnightblue" d="M505.8,-500.07C574.27,-503.68 674.53,-504.61 705,-482.13 780.23,-426.61 792.71,-301.94 794.68,-253.71"/>
<polygon fill="midnightblue" stroke="midnightblue" points="798.18,-253.75 794.98,-243.65 791.18,-253.55 798.18,-253.75"/>
</g>
<!-- Node10&#45;&gt;Node8 -->
<g id="edge23" class="edge">
<title>Node10&#45;&gt;Node8</title>
<path fill="none" stroke="midnightblue" d="M505.75,-483.71C523.61,-480.68 542.87,-477.41 560.68,-474.39"/>
<polygon fill="midnightblue" stroke="midnightblue" points="561.7,-477.77 570.97,-472.64 560.52,-470.86 561.7,-477.77"/>
</g>
<!-- Node11&#45;&gt;Node2 -->
<g id="edge26" class="edge">
<title>Node11&#45;&gt;Node2</title>
<path fill="none" stroke="midnightblue" d="M310.36,-414.23C315.32,-416.99 319.96,-420.26 324,-424.13 356.91,-455.65 323.31,-493.11 360,-520.13 421.76,-565.62 629.28,-543.42 705,-531.13 724.98,-527.89 746.51,-520.85 763.51,-514.4"/>
<polygon fill="midnightblue" stroke="midnightblue" points="764.91,-517.61 772.94,-510.7 762.36,-511.09 764.91,-517.61"/>
</g>
<!-- Node11&#45;&gt;Node4 -->
<g id="edge27" class="edge">
<title>Node11&#45;&gt;Node4</title>
<path fill="none" stroke="midnightblue" d="M256.85,-383.73C271.94,-358.57 302.17,-306.87 324,-261.13 342.38,-222.62 329.67,-202.14 360,-172.13 363.77,-168.4 368.06,-165.12 372.63,-162.24"/>
<polygon fill="midnightblue" stroke="midnightblue" points="374.69,-165.1 381.73,-157.18 371.29,-158.98 374.69,-165.1"/>
</g>
<!-- Node11&#45;&gt;Node5 -->
<g id="edge37" class="edge">
<title>Node11&#45;&gt;Node5</title>
<path fill="none" stroke="midnightblue" d="M248.36,-384.04C251.98,-335.96 270.32,-185.54 360,-118.13 482.75,-25.86 569.61,-26.67 705,-99.13 751.21,-123.86 777.79,-183.95 788.87,-214.94"/>
<polygon fill="midnightblue" stroke="midnightblue" points="785.61,-216.24 792.14,-224.59 792.24,-213.99 785.61,-216.24"/>
</g>
<!-- Node11&#45;&gt;Node6 -->
<g id="edge38" class="edge">
<title>Node11&#45;&gt;Node6</title>
<path fill="none" stroke="midnightblue" d="M311.46,-414.3C316.06,-417.05 320.33,-420.29 324,-424.13 365.16,-467.13 320.1,-508.96 360,-553.13 363.29,-556.77 367.08,-559.98 371.18,-562.8"/>
<polygon fill="midnightblue" stroke="midnightblue" points="369.58,-565.93 379.95,-568.07 373.18,-559.92 369.58,-565.93"/>
</g>
<!-- Node11&#45;&gt;Node8 -->
<g id="edge39" class="edge">
<title>Node11&#45;&gt;Node8</title>
<path fill="none" stroke="midnightblue" d="M316.22,-410.72C385.5,-422.4 491.73,-440.32 560.28,-451.88"/>
<polygon fill="midnightblue" stroke="midnightblue" points="560.09,-455.39 570.53,-453.61 561.25,-448.49 560.09,-455.39"/>
</g>
<!-- Node12 -->
<g id="node12" class="node">
<title>Node12</title>
<g id="a_node12"><a xlink:href="class_t_track.html#a73e781d0ada0b77618b886557f79b115" target="_top" xlink:title="True if a level crossing is found at H &amp; V.">
<polygon fill="white" stroke="black" points="390,-365.63 390,-384.63 485,-384.63 485,-365.63 390,-365.63"/>
<text text-anchor="middle" x="437.5" y="-372.63" font-family="Helvetica,sans-Serif" font-size="10.00">TTrack::IsLCAtHV</text>
</a>
</g>
</g>
<!-- Node11&#45;&gt;Node12 -->
<g id="edge28" class="edge">
<title>Node11&#45;&gt;Node12</title>
<path fill="none" stroke="midnightblue" d="M316,-390.43C336.97,-387.77 359.79,-384.87 379.87,-382.32"/>
<polygon fill="midnightblue" stroke="midnightblue" points="380.31,-385.79 389.79,-381.06 379.43,-378.85 380.31,-385.79"/>
</g>
<!-- Node12&#45;&gt;Node2 -->
<g id="edge29" class="edge">
<title>Node12&#45;&gt;Node2</title>
<path fill="none" stroke="midnightblue" d="M472.4,-384.73C494.7,-390.98 524.54,-399.22 551,-406.13 619.21,-423.94 640.16,-416.47 705,-444.13 730.35,-454.94 756.69,-472.48 774.27,-485.25"/>
<polygon fill="midnightblue" stroke="midnightblue" points="772.49,-488.3 782.61,-491.44 776.66,-482.67 772.49,-488.3"/>
</g>
<!-- Node12&#45;&gt;Node5 -->
<g id="edge36" class="edge">
<title>Node12&#45;&gt;Node5</title>
<path fill="none" stroke="midnightblue" d="M442.48,-365.36C454.21,-338.03 491.61,-260.97 551,-232.13 614.64,-201.22 699.08,-211.49 750.1,-222.36"/>
<polygon fill="midnightblue" stroke="midnightblue" points="749.63,-225.85 760.15,-224.61 751.16,-219.01 749.63,-225.85"/>
</g>
<!-- Node13 -->
<g id="node13" class="node">
<title>Node13</title>
<g id="a_node13"><a xlink:href="class_t_track.html#a418966e6fefb71b9d0c9b941197832da" target="_top" xlink:title="Similar to GetVectorPositionFromTrackMap but for inactive elements, a pair is returned because there ...">
<polygon fill="white" stroke="black" points="559.5,-290.13 559.5,-320.13 696.5,-320.13 696.5,-290.13 559.5,-290.13"/>
<text text-anchor="start" x="567.5" y="-308.13" font-family="Helvetica,sans-Serif" font-size="10.00">TTrack::GetVectorPositions</text>
<text text-anchor="middle" x="628" y="-297.13" font-family="Helvetica,sans-Serif" font-size="10.00">FromInactiveTrackMap</text>
</a>
</g>
</g>
<!-- Node12&#45;&gt;Node13 -->
<g id="edge30" class="edge">
<title>Node12&#45;&gt;Node13</title>
<path fill="none" stroke="midnightblue" d="M464.31,-365.54C493.19,-354.82 540.67,-337.19 576.9,-323.73"/>
<polygon fill="midnightblue" stroke="midnightblue" points="578.17,-327 586.32,-320.23 575.73,-320.43 578.17,-327"/>
</g>
<!-- Node14 -->
<g id="node14" class="node">
<title>Node14</title>
<g id="a_node14"><a xlink:href="class_t_track.html#a51f89cf70e94b037f6378cd78003d82b" target="_top" xlink:title="A range&#45;checked version of InactiveTrackVector.at(At)">
<polygon fill="white" stroke="black" points="551,-377.63 551,-396.63 705,-396.63 705,-377.63 551,-377.63"/>
<text text-anchor="middle" x="628" y="-384.63" font-family="Helvetica,sans-Serif" font-size="10.00">TTrack::InactiveTrackElementAt</text>
</a>
</g>
</g>
<!-- Node12&#45;&gt;Node14 -->
<g id="edge33" class="edge">
<title>Node12&#45;&gt;Node14</title>
<path fill="none" stroke="midnightblue" d="M485.1,-378.1C501.99,-379.17 521.66,-380.42 540.88,-381.65"/>
<polygon fill="midnightblue" stroke="midnightblue" points="540.67,-385.14 550.87,-382.28 541.11,-378.15 540.67,-385.14"/>
</g>
<!-- Node13&#45;&gt;Node2 -->
<g id="edge31" class="edge">
<title>Node13&#45;&gt;Node2</title>
<path fill="none" stroke="midnightblue" d="M681.66,-320.28C690.06,-324.22 698.2,-329.11 705,-335.13 751.5,-376.32 778.47,-447.48 789.35,-481.68"/>
<polygon fill="midnightblue" stroke="midnightblue" points="786.05,-482.86 792.32,-491.4 792.74,-480.81 786.05,-482.86"/>
</g>
<!-- Node13&#45;&gt;Node5 -->
<g id="edge32" class="edge">
<title>Node13&#45;&gt;Node5</title>
<path fill="none" stroke="midnightblue" d="M680.95,-290.06C689.08,-287.32 697.33,-284.31 705,-281.13 727.53,-271.78 752,-258.8 769.73,-248.85"/>
<polygon fill="midnightblue" stroke="midnightblue" points="771.86,-251.67 778.83,-243.68 768.4,-245.58 771.86,-251.67"/>
</g>
<!-- Node14&#45;&gt;Node2 -->
<g id="edge34" class="edge">
<title>Node14&#45;&gt;Node2</title>
<path fill="none" stroke="midnightblue" d="M671.58,-396.65C682.91,-400.22 694.83,-404.95 705,-411.13 736.76,-430.41 765.62,-463.18 781.69,-483.41"/>
<polygon fill="midnightblue" stroke="midnightblue" points="779.06,-485.73 787.95,-491.48 784.59,-481.44 779.06,-485.73"/>
</g>
<!-- Node14&#45;&gt;Node5 -->
<g id="edge35" class="edge">
<title>Node14&#45;&gt;Node5</title>
<path fill="none" stroke="midnightblue" d="M643.3,-377.53C659.02,-366.72 684.73,-348.29 705,-330.13 733.59,-304.52 763.41,-271.18 780.54,-251.28"/>
<polygon fill="midnightblue" stroke="midnightblue" points="783.23,-253.52 787.06,-243.64 777.91,-248.97 783.23,-253.52"/>
</g>
<!-- Node15&#45;&gt;Node2 -->
<g id="edge41" class="edge">
<title>Node15&#45;&gt;Node2</title>
<path fill="none" stroke="midnightblue" d="M690.96,-271.2C696.05,-273.97 700.83,-277.25 705,-281.13 765.01,-337.05 786.09,-438.77 792.52,-481.45"/>
<polygon fill="midnightblue" stroke="midnightblue" points="789.09,-482.2 793.93,-491.62 796.02,-481.23 789.09,-482.2"/>
</g>
<!-- Node15&#45;&gt;Node5 -->
<g id="edge42" class="edge">
<title>Node15&#45;&gt;Node5</title>
<path fill="none" stroke="midnightblue" d="M697.96,-246.99C708.83,-245.55 720.02,-244.07 730.78,-242.64"/>
<polygon fill="midnightblue" stroke="midnightblue" points="731.48,-246.08 740.93,-241.3 730.56,-239.14 731.48,-246.08"/>
</g>
</g>
</svg>
