<?xml version="1.0" encoding="UTF-8" standalone="no"?>
<!DOCTYPE svg PUBLIC "-//W3C//DTD SVG 1.1//EN"
 "http://www.w3.org/Graphics/SVG/1.1/DTD/svg11.dtd">
<!-- Generated by graphviz version 2.44.1 (20200629.0800)
 -->
<!-- Title: TTrainController::SecondPassActions Pages: 1 -->
<!--zoomable 1327 -->
<svg id="main" version="1.1" xmlns="http://www.w3.org/2000/svg" xmlns:xlink="http://www.w3.org/1999/xlink" xml:space="preserve" onload="init(evt)">
<style type="text/css"><![CDATA[
.edge:hover path { stroke: red; }
.edge:hover polygon { stroke: red; fill: red; }
]]></style>
<script type="text/javascript"><![CDATA[
var edges = document.getElementsByTagName('g');
if (edges && edges.length) {
  for (var i=0;i<edges.length;i++) {
    if (edges[i].id.substr(0,4)=='edge') {
      edges[i].setAttribute('class','edge');
    }
  }
}
]]></script>
        <defs>
                <circle id="rim" cx="0" cy="0" r="7"/>
                <circle id="rim2" cx="0" cy="0" r="3.5"/>
                <g id="zoomPlus">
                        <use xlink:href="#rim" fill="#404040">
                                <set attributeName="fill" to="#808080" begin="zoomplus.mouseover" end="zoomplus.mouseout"/>
                        </use>
                        <path d="M-4,0h8M0,-4v8" fill="none" stroke="white" stroke-width="1.5" pointer-events="none"/>
                </g>
                <g id="zoomMin">
                        <use xlink:href="#rim" fill="#404040">
                                <set attributeName="fill" to="#808080" begin="zoomminus.mouseover" end="zoomminus.mouseout"/>
                        </use>
                        <path d="M-4,0h8" fill="none" stroke="white" stroke-width="1.5" pointer-events="none"/>
                </g>
                <g id="dirArrow">
                        <path fill="none" stroke="white" stroke-width="1.5" d="M0,-3.0v7 M-2.5,-0.5L0,-3.0L2.5,-0.5"/>
                </g>
               <g id="resetDef">
                       <use xlink:href="#rim2" fill="#404040">
                               <set attributeName="fill" to="#808080" begin="reset.mouseover" end="reset.mouseout"/>
                       </use>
               </g>
        </defs>

<script type="text/javascript">
var viewWidth = 879;
var viewHeight = 1327;
var sectionId = 'dynsection-102';
</script>
<script xlink:href="svgpan.js"/>
<svg id="graph" class="graph">
<g id="viewport">
<title>TTrainController::SecondPassActions</title>
<polygon fill="white" stroke="transparent" points="-4,4 -4,-1322.5 875,-1322.5 875,4 -4,4"/>
<!-- Node1 -->
<g id="node1" class="node">
<title>Node1</title>
<g id="a_node1"><a xlink:title="Carry out further detailed timetable consistency checks, return true for success.">
<polygon fill="#bfbfbf" stroke="black" points="0,-535.5 0,-565.5 123,-565.5 123,-535.5 0,-535.5"/>
<text text-anchor="start" x="8" y="-553.5" font-family="Helvetica,sans-Serif" font-size="10.00">TTrainController::Second</text>
<text text-anchor="middle" x="61.5" y="-542.5" font-family="Helvetica,sans-Serif" font-size="10.00">PassActions</text>
</a>
</g>
</g>
<!-- Node2 -->
<g id="node2" class="node">
<title>Node2</title>
<g id="a_node2"><a xlink:href="class_t_train_controller.html#a7fbe0dc297130da79bcfa3503c6c51c1" target="_top" xlink:title="A shorthand function that returns true if the successor to a given timetable action command should be...">
<polygon fill="white" stroke="black" points="161,-1299 161,-1318 323,-1318 323,-1299 161,-1299"/>
<text text-anchor="middle" x="242" y="-1306" font-family="Helvetica,sans-Serif" font-size="10.00">TTrainController::AtLocSuccessor</text>
</a>
</g>
</g>
<!-- Node1&#45;&gt;Node2 -->
<g id="edge1" class="edge">
<title>Node1&#45;&gt;Node2</title>
<path fill="none" stroke="midnightblue" d="M62.33,-565.66C61.56,-660.44 62,-1171.28 159,-1284.5 162.21,-1288.25 165.97,-1291.42 170.08,-1294.12"/>
<polygon fill="midnightblue" stroke="midnightblue" points="168.5,-1297.24 178.95,-1298.99 171.87,-1291.11 168.5,-1297.24"/>
</g>
<!-- Node3 -->
<g id="node3" class="node">
<title>Node3</title>
<g id="a_node3"><a xlink:href="class_t_train_controller.html#a0445987b1a355de3aef2c21b66d1ed8b" target="_top" xlink:title="populate the ContinuationTrainExpectationMultiMap during timetable loading">
<polygon fill="white" stroke="black" points="159,-933.5 159,-963.5 325,-963.5 325,-933.5 159,-933.5"/>
<text text-anchor="start" x="167" y="-951.5" font-family="Helvetica,sans-Serif" font-size="10.00">TTrainController::BuildContinuation</text>
<text text-anchor="middle" x="242" y="-940.5" font-family="Helvetica,sans-Serif" font-size="10.00">TrainExpectationMultiMap</text>
</a>
</g>
</g>
<!-- Node1&#45;&gt;Node3 -->
<g id="edge2" class="edge">
<title>Node1&#45;&gt;Node3</title>
<path fill="none" stroke="midnightblue" d="M69.28,-565.62C96.28,-625.83 196.35,-848.95 229.93,-923.82"/>
<polygon fill="midnightblue" stroke="midnightblue" points="226.93,-925.68 234.21,-933.37 233.32,-922.81 226.93,-925.68"/>
</g>
<!-- Node4 -->
<g id="node4" class="node">
<title>Node4</title>
<g id="a_node4"><a xlink:href="class_t_utilities.html#ae1eddca13cc3c492839e131f40ec21c0" target="_top" xlink:title="pops the last entry off the call stack, throws an error if called when empty">
<polygon fill="white" stroke="black" points="761,-857 761,-876 871,-876 871,-857 761,-857"/>
<text text-anchor="middle" x="816" y="-864" font-family="Helvetica,sans-Serif" font-size="10.00">TUtilities::CallLogPop</text>
</a>
</g>
</g>
<!-- Node1&#45;&gt;Node4 -->
<g id="edge17" class="edge">
<title>Node1&#45;&gt;Node4</title>
<path fill="none" stroke="midnightblue" d="M63.1,-565.71C66.64,-647.97 87.09,-1039.27 159,-1131.5 219.22,-1208.73 266.92,-1192.32 361,-1219.5 516.99,-1264.56 597.77,-1351.36 725,-1250.5 783.45,-1204.16 807.6,-958.57 813.5,-886.43"/>
<polygon fill="midnightblue" stroke="midnightblue" points="817.02,-886.31 814.31,-876.06 810.04,-885.76 817.02,-886.31"/>
</g>
<!-- Node7 -->
<g id="node7" class="node">
<title>Node7</title>
<g id="a_node7"><a xlink:href="class_t_utilities.html#a34bd6bb5305bc29afdf424f6d35a921c" target="_top" xlink:title="creates a string of the form &#39;hh:mm:ss&#39; for use in call &amp; event logging">
<polygon fill="white" stroke="black" points="761,-560 761,-579 871,-579 871,-560 761,-560"/>
<text text-anchor="middle" x="816" y="-567" font-family="Helvetica,sans-Serif" font-size="10.00">TUtilities::TimeStamp</text>
</a>
</g>
</g>
<!-- Node1&#45;&gt;Node7 -->
<g id="edge66" class="edge">
<title>Node1&#45;&gt;Node7</title>
<path fill="none" stroke="midnightblue" d="M63.76,-535.15C69.61,-467.71 96.63,-198.93 159,-148.5 354.64,9.7 529.76,20.18 725,-138.5 790.31,-191.58 809.85,-472.22 814.04,-549.68"/>
<polygon fill="midnightblue" stroke="midnightblue" points="810.56,-550.14 814.57,-559.95 817.55,-549.78 810.56,-550.14"/>
</g>
<!-- Node8 -->
<g id="node8" class="node">
<title>Node8</title>
<g id="a_node8"><a xlink:href="class_t_train_controller.html#a435ef46f062904e85ae9792faaecdcf7" target="_top" xlink:title="Return the repeating service time.">
<polygon fill="white" stroke="black" points="565.5,-1135 565.5,-1154 723.5,-1154 723.5,-1135 565.5,-1135"/>
<text text-anchor="middle" x="644.5" y="-1142" font-family="Helvetica,sans-Serif" font-size="10.00">TTrainController::GetRepeatTime</text>
</a>
</g>
</g>
<!-- Node1&#45;&gt;Node8 -->
<g id="edge56" class="edge">
<title>Node1&#45;&gt;Node8</title>
<path fill="none" stroke="midnightblue" d="M62.46,-565.67C62.99,-623.43 71.17,-833.3 159,-972.5 220.11,-1069.36 253.66,-1092.57 361,-1132.5 423.07,-1155.59 498.16,-1157.68 555.33,-1154.49"/>
<polygon fill="midnightblue" stroke="midnightblue" points="555.66,-1157.97 565.42,-1153.86 555.22,-1150.99 555.66,-1157.97"/>
</g>
<!-- Node10 -->
<g id="node10" class="node">
<title>Node10</title>
<g id="a_node10"><a xlink:href="class_t_train_controller.html#a72662be9ecd0e95131779bd10b6fe14f" target="_top" xlink:title="A timetable validation function where all service cross references are checked for validity and set p...">
<polygon fill="white" stroke="black" points="170.5,-535.5 170.5,-565.5 313.5,-565.5 313.5,-535.5 170.5,-535.5"/>
<text text-anchor="start" x="178.5" y="-553.5" font-family="Helvetica,sans-Serif" font-size="10.00">TTrainController::CheckCross</text>
<text text-anchor="middle" x="242" y="-542.5" font-family="Helvetica,sans-Serif" font-size="10.00">ReferencesAndSetData</text>
</a>
</g>
</g>
<!-- Node1&#45;&gt;Node10 -->
<g id="edge18" class="edge">
<title>Node1&#45;&gt;Node10</title>
<path fill="none" stroke="midnightblue" d="M123.43,-550.5C135.19,-550.5 147.67,-550.5 159.95,-550.5"/>
<polygon fill="midnightblue" stroke="midnightblue" points="160.2,-554 170.2,-550.5 160.2,-547 160.2,-554"/>
</g>
<!-- Node16 -->
<g id="node16" class="node">
<title>Node16</title>
<g id="a_node16"><a xlink:href="class_t_train_controller.html#a8df4599a1ae95093241fb707711af894" target="_top" xlink:title="Give a user message during timetable integrity checking if GiveMessages is true, ignore if false.">
<polygon fill="white" stroke="black" points="583,-240.5 583,-270.5 706,-270.5 706,-240.5 583,-240.5"/>
<text text-anchor="start" x="591" y="-258.5" font-family="Helvetica,sans-Serif" font-size="10.00">TTrainController::Second</text>
<text text-anchor="middle" x="644.5" y="-247.5" font-family="Helvetica,sans-Serif" font-size="10.00">PassMessage</text>
</a>
</g>
</g>
<!-- Node1&#45;&gt;Node16 -->
<g id="edge62" class="edge">
<title>Node1&#45;&gt;Node16</title>
<path fill="none" stroke="midnightblue" d="M68.61,-535.1C81.43,-504.38 113.71,-434.66 159,-390.5 232.96,-318.38 262.13,-305.45 361,-275.5 430.81,-254.36 514.57,-251 572.68,-251.92"/>
<polygon fill="midnightblue" stroke="midnightblue" points="572.79,-255.42 582.86,-252.13 572.93,-248.42 572.79,-255.42"/>
</g>
<!-- Node18 -->
<g id="node18" class="node">
<title>Node18</title>
<g id="a_node18"><a xlink:href="class_t_train_controller.html#a232adcf919e3d70f2fc0cdc4d3bb2ee4" target="_top" xlink:title="A timetable validation function where referenced services are checked for uniqueness,...">
<polygon fill="white" stroke="black" points="378.5,-153.5 378.5,-183.5 510.5,-183.5 510.5,-153.5 378.5,-153.5"/>
<text text-anchor="start" x="386.5" y="-171.5" font-family="Helvetica,sans-Serif" font-size="10.00">TTrainController::CheckFor</text>
<text text-anchor="middle" x="444.5" y="-160.5" font-family="Helvetica,sans-Serif" font-size="10.00">DuplicateCrossReferences</text>
</a>
</g>
</g>
<!-- Node1&#45;&gt;Node18 -->
<g id="edge41" class="edge">
<title>Node1&#45;&gt;Node18</title>
<path fill="none" stroke="midnightblue" d="M64.43,-535.1C72.49,-473.22 105.63,-243.83 159,-198.5 216.19,-149.92 304.98,-148.23 368.14,-155.01"/>
<polygon fill="midnightblue" stroke="midnightblue" points="368.1,-158.53 378.44,-156.21 368.91,-151.58 368.1,-158.53"/>
</g>
<!-- Node19 -->
<g id="node19" class="node">
<title>Node19</title>
<g id="a_node19"><a xlink:href="class_t_train_controller.html#aa991976bc8ea956f9e9230f6a6921ac1" target="_top" xlink:title="A timetable validation function where cross references are checked for validity for non&#45;repeating shu...">
<polygon fill="white" stroke="black" points="361,-328.5 361,-358.5 528,-358.5 528,-328.5 361,-328.5"/>
<text text-anchor="start" x="369" y="-346.5" font-family="Helvetica,sans-Serif" font-size="10.00">TTrainController::CheckNon</text>
<text text-anchor="middle" x="444.5" y="-335.5" font-family="Helvetica,sans-Serif" font-size="10.00">RepeatingShuttleLinksAndSetData</text>
</a>
</g>
</g>
<!-- Node1&#45;&gt;Node19 -->
<g id="edge45" class="edge">
<title>Node1&#45;&gt;Node19</title>
<path fill="none" stroke="midnightblue" d="M84.55,-535.47C132.97,-502.9 252.9,-424.66 361,-373.5 369.59,-369.44 378.89,-365.57 388.04,-362.05"/>
<polygon fill="midnightblue" stroke="midnightblue" points="389.35,-365.3 397.49,-358.51 386.9,-358.74 389.35,-365.3"/>
</g>
<!-- Node21 -->
<g id="node21" class="node">
<title>Node21</title>
<g id="a_node21"><a xlink:href="class_t_train_controller.html#a161fe7b4bbf101fc0a3f7eadd3aff9ca" target="_top" xlink:title="Check that each shuttle service ends either in Fns or Fxx&#45;sh (though a single service can&#39;t end in Fx...">
<polygon fill="white" stroke="black" points="370,-202.5 370,-232.5 519,-232.5 519,-202.5 370,-202.5"/>
<text text-anchor="start" x="378" y="-220.5" font-family="Helvetica,sans-Serif" font-size="10.00">TTrainController::CheckShuttle</text>
<text text-anchor="middle" x="444.5" y="-209.5" font-family="Helvetica,sans-Serif" font-size="10.00">ServiceIntegrity</text>
</a>
</g>
</g>
<!-- Node1&#45;&gt;Node21 -->
<g id="edge52" class="edge">
<title>Node1&#45;&gt;Node21</title>
<path fill="none" stroke="midnightblue" d="M62.05,-535.44C61.46,-485.24 66.99,-322.48 159,-247.5 214.44,-202.32 297.51,-198.48 359.6,-203.76"/>
<polygon fill="midnightblue" stroke="midnightblue" points="359.48,-207.26 369.76,-204.72 360.14,-200.29 359.48,-207.26"/>
</g>
<!-- Node22 -->
<g id="node22" class="node">
<title>Node22</title>
<g id="a_node22"><a xlink:href="class_t_train_controller.html#a61cdbf0085d24c76aa84e7d5e1d11ead" target="_top" xlink:title="New trains introduced with &#39;Snt&#39; may be at a timetabled location or elsewhere. This function checks a...">
<polygon fill="white" stroke="black" points="374.5,-813.5 374.5,-843.5 514.5,-843.5 514.5,-813.5 374.5,-813.5"/>
<text text-anchor="start" x="382.5" y="-831.5" font-family="Helvetica,sans-Serif" font-size="10.00">TTrainController::IsSNTEntry</text>
<text text-anchor="middle" x="444.5" y="-820.5" font-family="Helvetica,sans-Serif" font-size="10.00">Located</text>
</a>
</g>
</g>
<!-- Node1&#45;&gt;Node22 -->
<g id="edge57" class="edge">
<title>Node1&#45;&gt;Node22</title>
<path fill="none" stroke="midnightblue" d="M83.25,-565.64C146.97,-612.14 339.93,-752.93 414.06,-807.02"/>
<polygon fill="midnightblue" stroke="midnightblue" points="412.35,-810.1 422.49,-813.17 416.48,-804.45 412.35,-810.1"/>
</g>
<!-- Node23 -->
<g id="node23" class="node">
<title>Node23</title>
<g id="a_node23"><a xlink:href="class_t_train_controller.html#ae6c929171fa673b87e68694e6f48985d" target="_top" xlink:title="A shorthand function that returns true if the successor to a given timetable action command should be...">
<polygon fill="white" stroke="black" points="182,-0.5 182,-30.5 302,-30.5 302,-0.5 182,-0.5"/>
<text text-anchor="start" x="190" y="-18.5" font-family="Helvetica,sans-Serif" font-size="10.00">TTrainController::Moving</text>
<text text-anchor="middle" x="242" y="-7.5" font-family="Helvetica,sans-Serif" font-size="10.00">Successor</text>
</a>
</g>
</g>
<!-- Node1&#45;&gt;Node23 -->
<g id="edge61" class="edge">
<title>Node1&#45;&gt;Node23</title>
<path fill="none" stroke="midnightblue" d="M63.41,-535.5C68.26,-460.06 93.39,-122.7 159,-45.5 162.96,-40.84 167.71,-36.9 172.91,-33.57"/>
<polygon fill="midnightblue" stroke="midnightblue" points="174.95,-36.44 182,-28.54 171.56,-30.32 174.95,-36.44"/>
</g>
<!-- Node24 -->
<g id="node24" class="node">
<title>Node24</title>
<g id="a_node24"><a xlink:href="class_t_train_controller.html#ac47f05f3d0baaf235c430b631c6fd1ad" target="_top" xlink:title="change an extended headcode to an ordinary 4 character headcode">
<polygon fill="white" stroke="black" points="573,-1211.5 573,-1241.5 716,-1241.5 716,-1211.5 573,-1211.5"/>
<text text-anchor="start" x="581" y="-1229.5" font-family="Helvetica,sans-Serif" font-size="10.00">TTrainController::StripExcess</text>
<text text-anchor="middle" x="644.5" y="-1218.5" font-family="Helvetica,sans-Serif" font-size="10.00">FromHeadCode</text>
</a>
</g>
</g>
<!-- Node1&#45;&gt;Node24 -->
<g id="edge63" class="edge">
<title>Node1&#45;&gt;Node24</title>
<path fill="none" stroke="midnightblue" d="M63.57,-565.74C69.17,-641.64 97.19,-978.4 159,-1059.5 254.97,-1185.42 451.61,-1216.97 562.61,-1224.51"/>
<polygon fill="midnightblue" stroke="midnightblue" points="562.55,-1228.01 572.75,-1225.15 562.98,-1221.03 562.55,-1228.01"/>
</g>
<!-- Node3&#45;&gt;Node4 -->
<g id="edge3" class="edge">
<title>Node3&#45;&gt;Node4</title>
<path fill="none" stroke="midnightblue" d="M247.86,-963.76C260.23,-999.87 296.55,-1090.64 361,-1132.5 429.08,-1176.72 659.8,-1211.87 725,-1163.5 770.94,-1129.42 802.58,-947.58 812.05,-886.52"/>
<polygon fill="midnightblue" stroke="midnightblue" points="815.56,-886.7 813.6,-876.29 808.64,-885.65 815.56,-886.7"/>
</g>
<!-- Node5 -->
<g id="node5" class="node">
<title>Node5</title>
<g id="a_node5"><a xlink:href="class_t_train_controller.html#afb0e8fd36435809350cb323ab9fe2213" target="_top" xlink:title="Return the service headcode for the repeat service.">
<polygon fill="white" stroke="black" points="376,-971.5 376,-1001.5 513,-1001.5 513,-971.5 376,-971.5"/>
<text text-anchor="start" x="384" y="-989.5" font-family="Helvetica,sans-Serif" font-size="10.00">TTrainController::GetRepeat</text>
<text text-anchor="middle" x="444.5" y="-978.5" font-family="Helvetica,sans-Serif" font-size="10.00">HeadCode</text>
</a>
</g>
</g>
<!-- Node3&#45;&gt;Node5 -->
<g id="edge4" class="edge">
<title>Node3&#45;&gt;Node5</title>
<path fill="none" stroke="midnightblue" d="M322.24,-963.52C336.51,-966.22 351.38,-969.04 365.61,-971.74"/>
<polygon fill="midnightblue" stroke="midnightblue" points="365.36,-975.25 375.84,-973.68 366.66,-968.38 365.36,-975.25"/>
</g>
<!-- Node3&#45;&gt;Node7 -->
<g id="edge13" class="edge">
<title>Node3&#45;&gt;Node7</title>
<path fill="none" stroke="midnightblue" d="M314.21,-933.46C447.39,-905.26 721.15,-846.97 725,-843.5 801.4,-774.58 813.14,-639.76 814.79,-589.24"/>
<polygon fill="midnightblue" stroke="midnightblue" points="818.3,-589.12 815.02,-579.04 811.3,-588.96 818.3,-589.12"/>
</g>
<!-- Node3&#45;&gt;Node8 -->
<g id="edge10" class="edge">
<title>Node3&#45;&gt;Node8</title>
<path fill="none" stroke="midnightblue" d="M250.58,-963.92C266.45,-994.4 306.27,-1062.2 361,-1094.5 419.8,-1129.2 496.62,-1141.07 555.31,-1144.62"/>
<polygon fill="midnightblue" stroke="midnightblue" points="555.13,-1148.11 565.3,-1145.15 555.51,-1141.12 555.13,-1148.11"/>
</g>
<!-- Node9 -->
<g id="node9" class="node">
<title>Node9</title>
<g id="a_node9"><a xlink:href="class_t_track.html#ad377e5a1f152f2e89832c0f9bcfd261f" target="_top" xlink:title="A range&#45;checked version of TrackVector.at(At)">
<polygon fill="white" stroke="black" points="583.5,-781 583.5,-800 705.5,-800 705.5,-781 583.5,-781"/>
<text text-anchor="middle" x="644.5" y="-788" font-family="Helvetica,sans-Serif" font-size="10.00">TTrack::TrackElementAt</text>
</a>
</g>
</g>
<!-- Node3&#45;&gt;Node9 -->
<g id="edge14" class="edge">
<title>Node3&#45;&gt;Node9</title>
<path fill="none" stroke="midnightblue" d="M250.05,-933.06C265.2,-901.92 304.19,-832.13 361,-803.5 430.84,-768.3 523.13,-771.87 582.91,-779.59"/>
<polygon fill="midnightblue" stroke="midnightblue" points="582.56,-783.08 592.94,-780.97 583.51,-776.14 582.56,-783.08"/>
</g>
<!-- Node5&#45;&gt;Node4 -->
<g id="edge5" class="edge">
<title>Node5&#45;&gt;Node4</title>
<path fill="none" stroke="midnightblue" d="M467.65,-1001.63C517.46,-1033.6 640.55,-1100.95 725,-1048.5 783.45,-1012.2 805.09,-925.45 812.07,-886.28"/>
<polygon fill="midnightblue" stroke="midnightblue" points="815.53,-886.81 813.7,-876.38 808.62,-885.67 815.53,-886.81"/>
</g>
<!-- Node6 -->
<g id="node6" class="node">
<title>Node6</title>
<g id="a_node6"><a xlink:href="class_t_train_controller.html#a6fc210d266e7672ccc648c0a9ab4e542" target="_top" xlink:title="Checks the last two characters in HeadCode and returns true if both are digits.">
<polygon fill="white" stroke="black" points="564,-1009.5 564,-1039.5 725,-1039.5 725,-1009.5 564,-1009.5"/>
<text text-anchor="start" x="572" y="-1027.5" font-family="Helvetica,sans-Serif" font-size="10.00">TTrainController::Last2Characters</text>
<text text-anchor="middle" x="644.5" y="-1016.5" font-family="Helvetica,sans-Serif" font-size="10.00">BothDigits</text>
</a>
</g>
</g>
<!-- Node5&#45;&gt;Node6 -->
<g id="edge6" class="edge">
<title>Node5&#45;&gt;Node6</title>
<path fill="none" stroke="midnightblue" d="M513.09,-999.47C526.61,-1002.07 541,-1004.83 555.11,-1007.54"/>
<polygon fill="midnightblue" stroke="midnightblue" points="554.83,-1011.05 565.31,-1009.49 556.15,-1004.17 554.83,-1011.05"/>
</g>
<!-- Node5&#45;&gt;Node7 -->
<g id="edge9" class="edge">
<title>Node5&#45;&gt;Node7</title>
<path fill="none" stroke="midnightblue" d="M513.18,-978.18C576.56,-966.86 669.58,-940.58 725,-880.5 804.17,-794.66 814.11,-643.32 815.05,-589.33"/>
<polygon fill="midnightblue" stroke="midnightblue" points="818.55,-589.11 815.14,-579.08 811.55,-589.05 818.55,-589.11"/>
</g>
<!-- Node6&#45;&gt;Node4 -->
<g id="edge7" class="edge">
<title>Node6&#45;&gt;Node4</title>
<path fill="none" stroke="midnightblue" d="M698.74,-1009.49C708.02,-1005.5 717.19,-1000.56 725,-994.5 763.65,-964.54 792.44,-913.43 806.13,-885.72"/>
<polygon fill="midnightblue" stroke="midnightblue" points="809.46,-886.87 810.63,-876.34 803.15,-883.85 809.46,-886.87"/>
</g>
<!-- Node6&#45;&gt;Node7 -->
<g id="edge8" class="edge">
<title>Node6&#45;&gt;Node7</title>
<path fill="none" stroke="midnightblue" d="M660.03,-1009.27C677.87,-989.75 707.86,-954.16 725,-918.5 781.42,-801.08 805.6,-643.82 812.66,-589.18"/>
<polygon fill="midnightblue" stroke="midnightblue" points="816.15,-589.49 813.91,-579.13 809.2,-588.62 816.15,-589.49"/>
</g>
<!-- Node8&#45;&gt;Node4 -->
<g id="edge11" class="edge">
<title>Node8&#45;&gt;Node4</title>
<path fill="none" stroke="midnightblue" d="M701.31,-1135C710.02,-1131.55 718.32,-1126.87 725,-1120.5 793.65,-1055.02 810.01,-933.91 813.85,-886.38"/>
<polygon fill="midnightblue" stroke="midnightblue" points="817.36,-886.42 814.56,-876.2 810.37,-885.93 817.36,-886.42"/>
</g>
<!-- Node8&#45;&gt;Node7 -->
<g id="edge12" class="edge">
<title>Node8&#45;&gt;Node7</title>
<path fill="none" stroke="midnightblue" d="M656.57,-1134.82C674.14,-1118.78 708.15,-1084.81 725,-1048.5 763.2,-966.18 744.35,-936.71 761,-847.5 779.13,-750.37 802.07,-634.42 811.1,-589.05"/>
<polygon fill="midnightblue" stroke="midnightblue" points="814.56,-589.58 813.08,-579.09 807.7,-588.22 814.56,-589.58"/>
</g>
<!-- Node9&#45;&gt;Node4 -->
<g id="edge15" class="edge">
<title>Node9&#45;&gt;Node4</title>
<path fill="none" stroke="midnightblue" d="M666.97,-800.13C696.64,-813.43 750.37,-837.52 784.28,-852.73"/>
<polygon fill="midnightblue" stroke="midnightblue" points="783.15,-856.05 793.71,-856.95 786.01,-849.67 783.15,-856.05"/>
</g>
<!-- Node9&#45;&gt;Node7 -->
<g id="edge16" class="edge">
<title>Node9&#45;&gt;Node7</title>
<path fill="none" stroke="midnightblue" d="M699.62,-780.96C708.81,-777.52 717.72,-772.85 725,-766.5 780.29,-718.23 803.59,-629.04 811.54,-589.39"/>
<polygon fill="midnightblue" stroke="midnightblue" points="815.01,-589.87 813.42,-579.39 808.13,-588.57 815.01,-589.87"/>
</g>
<!-- Node10&#45;&gt;Node4 -->
<g id="edge19" class="edge">
<title>Node10&#45;&gt;Node4</title>
<path fill="none" stroke="midnightblue" d="M245.96,-565.57C260.9,-641.15 328.67,-976.67 361,-1010.5 417.69,-1069.82 656.34,-1117.43 725,-1072.5 790.05,-1029.93 808.36,-928.88 813.28,-886.14"/>
<polygon fill="midnightblue" stroke="midnightblue" points="816.77,-886.46 814.3,-876.16 809.8,-885.75 816.77,-886.46"/>
</g>
<!-- Node10&#45;&gt;Node7 -->
<g id="edge36" class="edge">
<title>Node10&#45;&gt;Node7</title>
<path fill="none" stroke="midnightblue" d="M261.55,-535.2C284.25,-516.84 324.21,-485.61 361,-462.5 404.09,-435.42 514.58,-368.63 564,-356.5 633.49,-339.45 665.36,-316.96 725,-356.5 791.79,-400.79 809.14,-505.52 813.55,-549.5"/>
<polygon fill="midnightblue" stroke="midnightblue" points="810.06,-549.87 814.43,-559.53 817.04,-549.26 810.06,-549.87"/>
</g>
<!-- Node11 -->
<g id="node11" class="node">
<title>Node11</title>
<g id="a_node11"><a xlink:href="class_t_train_controller.html#afe4a83b3b7ba6daa955ce5617d509d51" target="_top" xlink:title="Check that shuttle link services have consistent times, true for success.">
<polygon fill="white" stroke="black" points="570,-415.5 570,-445.5 719,-445.5 719,-415.5 570,-415.5"/>
<text text-anchor="start" x="578" y="-433.5" font-family="Helvetica,sans-Serif" font-size="10.00">TTrainController::CheckShuttle</text>
<text text-anchor="middle" x="644.5" y="-422.5" font-family="Helvetica,sans-Serif" font-size="10.00">RepeatTime</text>
</a>
</g>
</g>
<!-- Node10&#45;&gt;Node11 -->
<g id="edge20" class="edge">
<title>Node10&#45;&gt;Node11</title>
<path fill="none" stroke="midnightblue" d="M293.32,-535.42C367.16,-513.3 504.64,-472.11 583.59,-448.45"/>
<polygon fill="midnightblue" stroke="midnightblue" points="584.81,-451.74 593.39,-445.51 582.8,-445.03 584.81,-451.74"/>
</g>
<!-- Node12 -->
<g id="node12" class="node">
<title>Node12</title>
<g id="a_node12"><a xlink:href="class_t_track.html#a7eba939947b4c035a191ecaaf1b0bb9a" target="_top" xlink:title="True if there is at least one named location element with name &#39;LocationName&#39;, used in timetable inte...">
<polygon fill="white" stroke="black" points="376,-535.5 376,-565.5 513,-565.5 513,-535.5 376,-535.5"/>
<text text-anchor="start" x="384" y="-553.5" font-family="Helvetica,sans-Serif" font-size="10.00">TTrack::OneNamedLocation</text>
<text text-anchor="middle" x="444.5" y="-542.5" font-family="Helvetica,sans-Serif" font-size="10.00">ElementAtLocation</text>
</a>
</g>
</g>
<!-- Node10&#45;&gt;Node12 -->
<g id="edge23" class="edge">
<title>Node10&#45;&gt;Node12</title>
<path fill="none" stroke="midnightblue" d="M313.69,-550.5C330.4,-550.5 348.32,-550.5 365.34,-550.5"/>
<polygon fill="midnightblue" stroke="midnightblue" points="365.8,-554 375.8,-550.5 365.8,-547 365.8,-554"/>
</g>
<!-- Node14 -->
<g id="node14" class="node">
<title>Node14</title>
<g id="a_node14"><a xlink:href="class_t_track.html#a9d209cb6e24f67ba12020440a5e42347" target="_top" xlink:title=" ">
<polygon fill="white" stroke="black" points="376,-620.5 376,-650.5 513,-650.5 513,-620.5 376,-620.5"/>
<text text-anchor="start" x="384" y="-638.5" font-family="Helvetica,sans-Serif" font-size="10.00">TTrack::OneNamedLocation</text>
<text text-anchor="middle" x="444.5" y="-627.5" font-family="Helvetica,sans-Serif" font-size="10.00">LongEnoughForSplit</text>
</a>
</g>
</g>
<!-- Node10&#45;&gt;Node14 -->
<g id="edge29" class="edge">
<title>Node10&#45;&gt;Node14</title>
<path fill="none" stroke="midnightblue" d="M278.38,-565.5C311.82,-579.68 362.13,-601 398.42,-616.39"/>
<polygon fill="midnightblue" stroke="midnightblue" points="397.22,-619.68 407.8,-620.36 399.95,-613.24 397.22,-619.68"/>
</g>
<!-- Node10&#45;&gt;Node16 -->
<g id="edge35" class="edge">
<title>Node10&#45;&gt;Node16</title>
<path fill="none" stroke="midnightblue" d="M245.99,-535.47C255.1,-493.83 286.56,-376.25 361,-318.5 377.69,-305.55 494.4,-282.42 572.49,-268.08"/>
<polygon fill="midnightblue" stroke="midnightblue" points="573.56,-271.44 582.77,-266.2 572.3,-264.56 573.56,-271.44"/>
</g>
<!-- Node17 -->
<g id="node17" class="node">
<title>Node17</title>
<g id="a_node17"><a xlink:href="class_t_track.html#addd8e149e66c99a295541c9eda13eae4" target="_top" xlink:title="True if a non&#45;empty LocationName found as a timetabled location name i.e. not as a continuation name.">
<polygon fill="white" stroke="black" points="376.5,-725.5 376.5,-755.5 512.5,-755.5 512.5,-725.5 376.5,-725.5"/>
<text text-anchor="start" x="384.5" y="-743.5" font-family="Helvetica,sans-Serif" font-size="10.00">TTrack::TimetabledLocation</text>
<text text-anchor="middle" x="444.5" y="-732.5" font-family="Helvetica,sans-Serif" font-size="10.00">NameAllocated</text>
</a>
</g>
</g>
<!-- Node10&#45;&gt;Node17 -->
<g id="edge37" class="edge">
<title>Node10&#45;&gt;Node17</title>
<path fill="none" stroke="midnightblue" d="M259.07,-565.73C294.43,-599.23 379.08,-679.46 420.24,-718.46"/>
<polygon fill="midnightblue" stroke="midnightblue" points="417.97,-721.13 427.63,-725.46 422.78,-716.04 417.97,-721.13"/>
</g>
<!-- Node11&#45;&gt;Node4 -->
<g id="edge21" class="edge">
<title>Node11&#45;&gt;Node4</title>
<path fill="none" stroke="midnightblue" d="M670.34,-445.62C688.18,-457.75 711.39,-476.38 725,-498.5 762.22,-559 800.71,-779.4 811.82,-846.79"/>
<polygon fill="midnightblue" stroke="midnightblue" points="808.4,-847.58 813.47,-856.89 815.31,-846.46 808.4,-847.58"/>
</g>
<!-- Node11&#45;&gt;Node7 -->
<g id="edge22" class="edge">
<title>Node11&#45;&gt;Node7</title>
<path fill="none" stroke="midnightblue" d="M697.53,-445.66C707.13,-449.67 716.72,-454.58 725,-460.5 759.92,-485.46 789.13,-527.2 804.14,-551.13"/>
<polygon fill="midnightblue" stroke="midnightblue" points="801.31,-553.21 809.51,-559.92 807.28,-549.56 801.31,-553.21"/>
</g>
<!-- Node12&#45;&gt;Node4 -->
<g id="edge24" class="edge">
<title>Node12&#45;&gt;Node4</title>
<path fill="none" stroke="midnightblue" d="M508.84,-565.5C581.11,-583.72 693.39,-615.71 725,-645.5 785.05,-702.1 806.14,-804.43 812.54,-847.05"/>
<polygon fill="midnightblue" stroke="midnightblue" points="809.08,-847.55 813.92,-856.97 816.01,-846.58 809.08,-847.55"/>
</g>
<!-- Node12&#45;&gt;Node7 -->
<g id="edge28" class="edge">
<title>Node12&#45;&gt;Node7</title>
<path fill="none" stroke="midnightblue" d="M513.08,-535.93C570.11,-526 653.62,-517.05 725,-531.5 747.58,-536.07 771.54,-546.49 789.06,-555.27"/>
<polygon fill="midnightblue" stroke="midnightblue" points="787.58,-558.44 798.07,-559.92 790.79,-552.22 787.58,-558.44"/>
</g>
<!-- Node13 -->
<g id="node13" class="node">
<title>Node13</title>
<g id="a_node13"><a xlink:href="class_t_track.html#a51f89cf70e94b037f6378cd78003d82b" target="_top" xlink:title="A range&#45;checked version of InactiveTrackVector.at(At)">
<polygon fill="white" stroke="black" points="567.5,-541 567.5,-560 721.5,-560 721.5,-541 567.5,-541"/>
<text text-anchor="middle" x="644.5" y="-548" font-family="Helvetica,sans-Serif" font-size="10.00">TTrack::InactiveTrackElementAt</text>
</a>
</g>
</g>
<!-- Node12&#45;&gt;Node13 -->
<g id="edge25" class="edge">
<title>Node12&#45;&gt;Node13</title>
<path fill="none" stroke="midnightblue" d="M513.09,-550.5C527.29,-550.5 542.45,-550.5 557.22,-550.5"/>
<polygon fill="midnightblue" stroke="midnightblue" points="557.38,-554 567.38,-550.5 557.38,-547 557.38,-554"/>
</g>
<!-- Node13&#45;&gt;Node4 -->
<g id="edge26" class="edge">
<title>Node13&#45;&gt;Node4</title>
<path fill="none" stroke="midnightblue" d="M663.08,-560.13C680.99,-570.78 708.42,-589.5 725,-612.5 779.97,-688.78 804.1,-801.83 811.93,-846.91"/>
<polygon fill="midnightblue" stroke="midnightblue" points="808.49,-847.55 813.58,-856.84 815.4,-846.4 808.49,-847.55"/>
</g>
<!-- Node13&#45;&gt;Node7 -->
<g id="edge27" class="edge">
<title>Node13&#45;&gt;Node7</title>
<path fill="none" stroke="midnightblue" d="M721.82,-559.06C731.5,-560.14 741.33,-561.24 750.79,-562.3"/>
<polygon fill="midnightblue" stroke="midnightblue" points="750.57,-565.8 760.89,-563.44 751.35,-558.84 750.57,-565.8"/>
</g>
<!-- Node14&#45;&gt;Node4 -->
<g id="edge30" class="edge">
<title>Node14&#45;&gt;Node4</title>
<path fill="none" stroke="midnightblue" d="M475.63,-650.67C499.54,-662.66 533.85,-679.78 564,-694.5 635.28,-729.29 660.87,-724.82 725,-771.5 756.02,-794.08 785.28,-828.21 801.6,-848.83"/>
<polygon fill="midnightblue" stroke="midnightblue" points="798.87,-851.02 807.77,-856.76 804.4,-846.72 798.87,-851.02"/>
</g>
<!-- Node14&#45;&gt;Node7 -->
<g id="edge33" class="edge">
<title>Node14&#45;&gt;Node7</title>
<path fill="none" stroke="midnightblue" d="M513.27,-623.39C581.34,-611.24 685.41,-592.65 751.81,-580.79"/>
<polygon fill="midnightblue" stroke="midnightblue" points="752.5,-584.22 761.72,-579.02 751.26,-577.33 752.5,-584.22"/>
</g>
<!-- Node14&#45;&gt;Node9 -->
<g id="edge34" class="edge">
<title>Node14&#45;&gt;Node9</title>
<path fill="none" stroke="midnightblue" d="M464.78,-650.66C488.22,-669.08 528.98,-701.11 564,-728.5 584.01,-744.15 606.88,-761.98 622.94,-774.49"/>
<polygon fill="midnightblue" stroke="midnightblue" points="621.06,-777.46 631.1,-780.85 625.36,-771.94 621.06,-777.46"/>
</g>
<!-- Node14&#45;&gt;Node13 -->
<g id="edge32" class="edge">
<title>Node14&#45;&gt;Node13</title>
<path fill="none" stroke="midnightblue" d="M471.67,-620.27C495.26,-606.97 531.18,-587.77 564,-574.5 574.54,-570.24 586.13,-566.32 597.12,-562.95"/>
<polygon fill="midnightblue" stroke="midnightblue" points="598.42,-566.21 607,-560.01 596.42,-559.51 598.42,-566.21"/>
</g>
<!-- Node15 -->
<g id="node15" class="node">
<title>Node15</title>
<g id="a_node15"><a xlink:href="class_t_track.html#aeb515d40cb9b08ed55ce877ffdbc51a5" target="_top" xlink:title="Return the corresponding link position (track always occupies either links 0 &amp; 1 or 2 &amp; 3)">
<polygon fill="white" stroke="black" points="568.5,-655.5 568.5,-685.5 720.5,-685.5 720.5,-655.5 568.5,-655.5"/>
<text text-anchor="start" x="576.5" y="-673.5" font-family="Helvetica,sans-Serif" font-size="10.00">TTrack::GetNonPointsOpposite</text>
<text text-anchor="middle" x="644.5" y="-662.5" font-family="Helvetica,sans-Serif" font-size="10.00">LinkPos</text>
</a>
</g>
</g>
<!-- Node14&#45;&gt;Node15 -->
<g id="edge31" class="edge">
<title>Node14&#45;&gt;Node15</title>
<path fill="none" stroke="midnightblue" d="M513.09,-647.45C527.7,-650.03 543.33,-652.79 558.51,-655.48"/>
<polygon fill="midnightblue" stroke="midnightblue" points="557.95,-658.93 568.41,-657.23 559.17,-652.04 557.95,-658.93"/>
</g>
<!-- Node17&#45;&gt;Node4 -->
<g id="edge38" class="edge">
<title>Node17&#45;&gt;Node4</title>
<path fill="none" stroke="midnightblue" d="M466.76,-755.57C489.73,-771.19 527.9,-795.28 564,-809.5 625.19,-833.61 698.99,-848.84 750.68,-857.43"/>
<polygon fill="midnightblue" stroke="midnightblue" points="750.27,-860.91 760.71,-859.06 751.4,-854 750.27,-860.91"/>
</g>
<!-- Node17&#45;&gt;Node7 -->
<g id="edge39" class="edge">
<title>Node17&#45;&gt;Node7</title>
<path fill="none" stroke="midnightblue" d="M512.6,-743.42C572.56,-742.94 660.63,-734.4 725,-694.5 766.29,-668.9 794.31,-616.68 807.09,-588.51"/>
<polygon fill="midnightblue" stroke="midnightblue" points="810.31,-589.88 811.11,-579.32 803.9,-587.08 810.31,-589.88"/>
</g>
<!-- Node17&#45;&gt;Node9 -->
<g id="edge40" class="edge">
<title>Node17&#45;&gt;Node9</title>
<path fill="none" stroke="midnightblue" d="M504.91,-755.5C534.02,-762.85 568.61,-771.59 595.95,-778.49"/>
<polygon fill="midnightblue" stroke="midnightblue" points="595.12,-781.89 605.67,-780.95 596.83,-775.1 595.12,-781.89"/>
</g>
<!-- Node18&#45;&gt;Node4 -->
<g id="edge42" class="edge">
<title>Node18&#45;&gt;Node4</title>
<path fill="none" stroke="midnightblue" d="M510.55,-163.61C583.56,-159.68 695.67,-158.8 725,-187.5 756.97,-218.79 754.73,-544.21 761,-588.5 774.86,-686.33 800.24,-801.89 810.51,-847.05"/>
<polygon fill="midnightblue" stroke="midnightblue" points="807.13,-847.99 812.78,-856.96 813.96,-846.43 807.13,-847.99"/>
</g>
<!-- Node18&#45;&gt;Node7 -->
<g id="edge44" class="edge">
<title>Node18&#45;&gt;Node7</title>
<path fill="none" stroke="midnightblue" d="M498.8,-153.48C560.58,-139.59 661.95,-128.13 725,-180.5 783.21,-228.85 807.59,-477.65 813.51,-549.84"/>
<polygon fill="midnightblue" stroke="midnightblue" points="810.02,-550.16 814.3,-559.85 817,-549.61 810.02,-550.16"/>
</g>
<!-- Node18&#45;&gt;Node16 -->
<g id="edge43" class="edge">
<title>Node18&#45;&gt;Node16</title>
<path fill="none" stroke="midnightblue" d="M503.3,-183.58C511.69,-186.27 520.14,-189.26 528,-192.5 556.95,-204.44 588.02,-221.66 610.64,-235.08"/>
<polygon fill="midnightblue" stroke="midnightblue" points="609.1,-238.24 619.48,-240.39 612.7,-232.24 609.1,-238.24"/>
</g>
<!-- Node19&#45;&gt;Node4 -->
<g id="edge46" class="edge">
<title>Node19&#45;&gt;Node4</title>
<path fill="none" stroke="midnightblue" d="M458.86,-358.71C479.62,-381.66 521.64,-425.56 564,-454.5 629.49,-499.25 674.29,-470.51 725,-531.5 766.31,-581.19 801.61,-783.01 811.94,-846.96"/>
<polygon fill="midnightblue" stroke="midnightblue" points="808.5,-847.6 813.53,-856.93 815.41,-846.5 808.5,-847.6"/>
</g>
<!-- Node19&#45;&gt;Node7 -->
<g id="edge51" class="edge">
<title>Node19&#45;&gt;Node7</title>
<path fill="none" stroke="midnightblue" d="M516.82,-328.44C588.4,-315.06 692.55,-300.82 725,-323.5 801.09,-376.68 813.06,-501.47 814.78,-549.85"/>
<polygon fill="midnightblue" stroke="midnightblue" points="811.29,-550.02 815.03,-559.93 818.28,-549.85 811.29,-550.02"/>
</g>
<!-- Node19&#45;&gt;Node16 -->
<g id="edge50" class="edge">
<title>Node19&#45;&gt;Node16</title>
<path fill="none" stroke="midnightblue" d="M494.6,-328.5C505.87,-324.28 517.6,-319.25 528,-313.5 545.74,-303.69 546.32,-295.41 564,-285.5 571.31,-281.4 579.28,-277.65 587.27,-274.29"/>
<polygon fill="midnightblue" stroke="midnightblue" points="588.65,-277.5 596.62,-270.52 586.04,-271.01 588.65,-277.5"/>
</g>
<!-- Node20 -->
<g id="node20" class="node">
<title>Node20</title>
<g id="a_node20"><a xlink:href="class_t_train_controller.html#a45168500acc985a1573602e0c00a0d9a" target="_top" xlink:title="The forward train is the finish shuttle entry &#39;Fns&#45;sh&#39;, the reverse (new non&#45;repeating service) time ...">
<polygon fill="white" stroke="black" points="577,-366.5 577,-396.5 712,-396.5 712,-366.5 577,-366.5"/>
<text text-anchor="start" x="585" y="-384.5" font-family="Helvetica,sans-Serif" font-size="10.00">TTrainController::CheckNon</text>
<text text-anchor="middle" x="644.5" y="-373.5" font-family="Helvetica,sans-Serif" font-size="10.00">RepeatingShuttleLinkTime</text>
</a>
</g>
</g>
<!-- Node19&#45;&gt;Node20 -->
<g id="edge47" class="edge">
<title>Node19&#45;&gt;Node20</title>
<path fill="none" stroke="midnightblue" d="M523.75,-358.52C537.93,-361.24 552.71,-364.07 566.84,-366.79"/>
<polygon fill="midnightblue" stroke="midnightblue" points="566.52,-370.29 577,-368.74 567.84,-363.41 566.52,-370.29"/>
</g>
<!-- Node20&#45;&gt;Node4 -->
<g id="edge48" class="edge">
<title>Node20&#45;&gt;Node4</title>
<path fill="none" stroke="midnightblue" d="M712.27,-395.23C716.99,-398.05 721.33,-401.44 725,-405.5 725.48,-406.03 794.13,-759.13 811.2,-846.92"/>
<polygon fill="midnightblue" stroke="midnightblue" points="807.79,-847.74 813.13,-856.88 814.66,-846.4 807.79,-847.74"/>
</g>
<!-- Node20&#45;&gt;Node7 -->
<g id="edge49" class="edge">
<title>Node20&#45;&gt;Node7</title>
<path fill="none" stroke="midnightblue" d="M711.01,-396.57C716,-399.1 720.74,-402.05 725,-405.5 772.81,-444.25 799.15,-515.49 809.61,-549.89"/>
<polygon fill="midnightblue" stroke="midnightblue" points="806.31,-551.05 812.46,-559.68 813.03,-549.1 806.31,-551.05"/>
</g>
<!-- Node21&#45;&gt;Node4 -->
<g id="edge53" class="edge">
<title>Node21&#45;&gt;Node4</title>
<path fill="none" stroke="midnightblue" d="M495.35,-202.48C557.8,-187.08 664,-172.69 725,-230.5 783.04,-285.5 749.36,-509.39 761,-588.5 775.38,-686.26 800.46,-801.85 810.58,-847.04"/>
<polygon fill="midnightblue" stroke="midnightblue" points="807.2,-847.97 812.81,-856.95 814.03,-846.43 807.2,-847.97"/>
</g>
<!-- Node21&#45;&gt;Node7 -->
<g id="edge55" class="edge">
<title>Node21&#45;&gt;Node7</title>
<path fill="none" stroke="midnightblue" d="M513.41,-202.5C585.49,-188.3 693.32,-172.57 725,-197.5 781.76,-242.17 807.02,-479.24 813.35,-549.72"/>
<polygon fill="midnightblue" stroke="midnightblue" points="809.88,-550.22 814.23,-559.88 816.85,-549.62 809.88,-550.22"/>
</g>
<!-- Node21&#45;&gt;Node16 -->
<g id="edge54" class="edge">
<title>Node21&#45;&gt;Node16</title>
<path fill="none" stroke="midnightblue" d="M519.23,-231.65C536.78,-235.02 555.47,-238.61 572.89,-241.95"/>
<polygon fill="midnightblue" stroke="midnightblue" points="572.49,-245.44 582.97,-243.88 573.81,-238.56 572.49,-245.44"/>
</g>
<!-- Node22&#45;&gt;Node4 -->
<g id="edge58" class="edge">
<title>Node22&#45;&gt;Node4</title>
<path fill="none" stroke="midnightblue" d="M453.77,-843.69C470.29,-872.23 510.44,-933.1 564,-956.5 629.57,-985.15 658.89,-983.88 725,-956.5 760.01,-942 788.5,-906.53 803.5,-884.7"/>
<polygon fill="midnightblue" stroke="midnightblue" points="806.47,-886.55 809.08,-876.28 800.64,-882.69 806.47,-886.55"/>
</g>
<!-- Node22&#45;&gt;Node7 -->
<g id="edge59" class="edge">
<title>Node22&#45;&gt;Node7</title>
<path fill="none" stroke="midnightblue" d="M514.64,-843.16C575.98,-852.02 664.92,-854.23 725,-809.5 797.38,-755.61 811.56,-636.51 814.33,-589.32"/>
<polygon fill="midnightblue" stroke="midnightblue" points="817.84,-589.34 814.81,-579.19 810.84,-589.01 817.84,-589.34"/>
</g>
<!-- Node22&#45;&gt;Node9 -->
<g id="edge60" class="edge">
<title>Node22&#45;&gt;Node9</title>
<path fill="none" stroke="midnightblue" d="M514.75,-815.21C537.28,-810.89 562.07,-806.13 583.84,-801.95"/>
<polygon fill="midnightblue" stroke="midnightblue" points="584.77,-805.34 593.93,-800.01 583.45,-798.46 584.77,-805.34"/>
</g>
<!-- Node24&#45;&gt;Node4 -->
<g id="edge64" class="edge">
<title>Node24&#45;&gt;Node4</title>
<path fill="none" stroke="midnightblue" d="M705.07,-1211.37C712.51,-1207.48 719.44,-1202.61 725,-1196.5 808.56,-1104.63 815.66,-942.64 815.46,-886.4"/>
<polygon fill="midnightblue" stroke="midnightblue" points="818.95,-886.02 815.33,-876.07 811.95,-886.11 818.95,-886.02"/>
</g>
<!-- Node24&#45;&gt;Node7 -->
<g id="edge65" class="edge">
<title>Node24&#45;&gt;Node7</title>
<path fill="none" stroke="midnightblue" d="M674.65,-1211.27C692.3,-1200.42 713.54,-1184.13 725,-1163.5 759.32,-1101.72 750.25,-917.35 761,-847.5 776.02,-749.84 800.74,-634.19 810.67,-588.98"/>
<polygon fill="midnightblue" stroke="midnightblue" points="814.12,-589.57 812.86,-579.06 807.29,-588.07 814.12,-589.57"/>
</g>
</g>
</svg>
        <g id="navigator" transform="translate(0 0)" fill="#404254">
                <rect fill="#f2f5e9" fill-opacity="0.5" stroke="#606060" stroke-width=".5" x="0" y="0" width="60" height="60"/>
                <use id="zoomplus" xlink:href="#zoomPlus" x="17" y="9" onmousedown="handleZoom(evt,'in')"/>
                <use id="zoomminus" xlink:href="#zoomMin" x="42" y="9" onmousedown="handleZoom(evt,'out')"/>
                <use id="reset" xlink:href="#resetDef" x="30" y="36" onmousedown="handleReset()"/>
                <g id="arrowUp" xlink:href="#dirArrow" transform="translate(30 24)" onmousedown="handlePan(0,-1)">
                  <use xlink:href="#rim" fill="#404040">
                        <set attributeName="fill" to="#808080" begin="arrowUp.mouseover" end="arrowUp.mouseout"/>
                  </use>
                  <path fill="none" stroke="white" stroke-width="1.5" d="M0,-3.0v7 M-2.5,-0.5L0,-3.0L2.5,-0.5"/>
                </g>
                <g id="arrowRight" xlink:href="#dirArrow" transform="rotate(90) translate(36 -43)" onmousedown="handlePan(1,0)">
                  <use xlink:href="#rim" fill="#404040">
                        <set attributeName="fill" to="#808080" begin="arrowRight.mouseover" end="arrowRight.mouseout"/>
                  </use>
                  <path fill="none" stroke="white" stroke-width="1.5" d="M0,-3.0v7 M-2.5,-0.5L0,-3.0L2.5,-0.5"/>
                </g>
                <g id="arrowDown" xlink:href="#dirArrow" transform="rotate(180) translate(-30 -48)" onmousedown="handlePan(0,1)">
                  <use xlink:href="#rim" fill="#404040">
                        <set attributeName="fill" to="#808080" begin="arrowDown.mouseover" end="arrowDown.mouseout"/>
                  </use>
                  <path fill="none" stroke="white" stroke-width="1.5" d="M0,-3.0v7 M-2.5,-0.5L0,-3.0L2.5,-0.5"/>
                </g>
                <g id="arrowLeft" xlink:href="#dirArrow" transform="rotate(270) translate(-36 17)" onmousedown="handlePan(-1,0)">
                  <use xlink:href="#rim" fill="#404040">
                        <set attributeName="fill" to="#808080" begin="arrowLeft.mouseover" end="arrowLeft.mouseout"/>
                  </use>
                  <path fill="none" stroke="white" stroke-width="1.5" d="M0,-3.0v7 M-2.5,-0.5L0,-3.0L2.5,-0.5"/>
                </g>
        </g>
        <svg viewBox="0 0 15 15" width="100%" height="30px" preserveAspectRatio="xMaxYMin meet">
         <g id="arrow_out" transform="scale(0.3 0.3)">
          <a xlink:href="class_t_train_controller_af52f0033d498268c871980c17a8ddf36_cgraph_org.svg" target="_base">
           <rect id="button" ry="5" rx="5" y="6" x="6" height="38" width="38"
                fill="#f2f5e9" fill-opacity="0.5" stroke="#606060" stroke-width="1.0"/>
           <path id="arrow"
             d="M 11.500037,31.436501 C 11.940474,20.09759 22.043105,11.32322 32.158766,21.979434 L 37.068811,17.246167 C 37.068811,17.246167 37.088388,32 37.088388,32 L 22.160133,31.978069 C 22.160133,31.978069 26.997745,27.140456 26.997745,27.140456 C 18.528582,18.264221 13.291696,25.230495 11.500037,31.436501 z"
             style="fill:#404040;"/>
          </a>
         </g>
        </svg>
</svg>
