<?xml version="1.0" encoding="UTF-8" standalone="no"?>
<!DOCTYPE svg PUBLIC "-//W3C//DTD SVG 1.1//EN"
 "http://www.w3.org/Graphics/SVG/1.1/DTD/svg11.dtd">
<!-- Generated by graphviz version 2.44.1 (20200629.0800)
 -->
<!-- Title: TInterface::LoadPerformanceFile Pages: 1 -->
<svg width="500pt" height="75pt"
 viewBox="0.00 0.00 500.00 75.00" xmlns="http://www.w3.org/2000/svg" xmlns:xlink="http://www.w3.org/1999/xlink">
<g id="graph0" class="graph" transform="scale(1 1) rotate(0) translate(4 71)">
<title>TInterface::LoadPerformanceFile</title>
<polygon fill="white" stroke="transparent" points="-4,4 -4,-71 496,-71 496,4 -4,4"/>
<!-- Node1 -->
<g id="node1" class="node">
<title>Node1</title>
<g id="a_node1"><a xlink:title="Load the performance file part of a sessionfile.">
<polygon fill="#bfbfbf" stroke="black" points="0,-28.5 0,-47.5 156,-47.5 156,-28.5 0,-28.5"/>
<text text-anchor="middle" x="78" y="-35.5" font-family="Helvetica,sans-Serif" font-size="10.00">TInterface::LoadPerformanceFile</text>
</a>
</g>
</g>
<!-- Node2 -->
<g id="node2" class="node">
<title>Node2</title>
<g id="a_node2"><a xlink:href="class_t_utilities.html#ae1eddca13cc3c492839e131f40ec21c0" target="_top" xlink:title="pops the last entry off the call stack, throws an error if called when empty">
<polygon fill="white" stroke="black" points="382,-47.5 382,-66.5 492,-66.5 492,-47.5 382,-47.5"/>
<text text-anchor="middle" x="437" y="-54.5" font-family="Helvetica,sans-Serif" font-size="10.00">TUtilities::CallLogPop</text>
</a>
</g>
</g>
<!-- Node1&#45;&gt;Node2 -->
<g id="edge1" class="edge">
<title>Node1&#45;&gt;Node2</title>
<path fill="none" stroke="midnightblue" d="M124.96,-47.51C145.39,-51.28 169.8,-55.15 192,-57 252.69,-62.07 322.17,-61.44 371.43,-59.92"/>
<polygon fill="midnightblue" stroke="midnightblue" points="371.74,-63.41 381.62,-59.58 371.51,-56.42 371.74,-63.41"/>
</g>
<!-- Node3 -->
<g id="node3" class="node">
<title>Node3</title>
<g id="a_node3"><a xlink:href="class_t_perf_log_form.html#a72f06bf03353c15c94ceefbf420ff7b4" target="_top" xlink:title="Send Statement to the performance log on screen and to the file.">
<polygon fill="white" stroke="black" points="192,-28.5 192,-47.5 346,-47.5 346,-28.5 192,-28.5"/>
<text text-anchor="middle" x="269" y="-35.5" font-family="Helvetica,sans-Serif" font-size="10.00">TPerfLogForm::PerformanceLog</text>
</a>
</g>
</g>
<!-- Node1&#45;&gt;Node3 -->
<g id="edge2" class="edge">
<title>Node1&#45;&gt;Node3</title>
<path fill="none" stroke="midnightblue" d="M156.15,-38C164.49,-38 173.02,-38 181.47,-38"/>
<polygon fill="midnightblue" stroke="midnightblue" points="181.71,-41.5 191.71,-38 181.71,-34.5 181.71,-41.5"/>
</g>
<!-- Node4 -->
<g id="node4" class="node">
<title>Node4</title>
<g id="a_node4"><a xlink:href="class_t_utilities.html#a34bd6bb5305bc29afdf424f6d35a921c" target="_top" xlink:title="creates a string of the form &#39;hh:mm:ss&#39; for use in call &amp; event logging">
<polygon fill="white" stroke="black" points="382,-0.5 382,-19.5 492,-19.5 492,-0.5 382,-0.5"/>
<text text-anchor="middle" x="437" y="-7.5" font-family="Helvetica,sans-Serif" font-size="10.00">TUtilities::TimeStamp</text>
</a>
</g>
</g>
<!-- Node1&#45;&gt;Node4 -->
<g id="edge5" class="edge">
<title>Node1&#45;&gt;Node4</title>
<path fill="none" stroke="midnightblue" d="M127.2,-28.48C147.17,-24.9 170.63,-21.18 192,-19 252.63,-12.81 322.12,-10.73 371.39,-10.1"/>
<polygon fill="midnightblue" stroke="midnightblue" points="371.63,-13.6 381.59,-9.99 371.55,-6.6 371.63,-13.6"/>
</g>
<!-- Node3&#45;&gt;Node2 -->
<g id="edge3" class="edge">
<title>Node3&#45;&gt;Node2</title>
<path fill="none" stroke="midnightblue" d="M346.2,-46.72C354.68,-47.69 363.26,-48.67 371.58,-49.63"/>
<polygon fill="midnightblue" stroke="midnightblue" points="371.23,-53.11 381.57,-50.77 372.03,-46.16 371.23,-53.11"/>
</g>
<!-- Node3&#45;&gt;Node4 -->
<g id="edge4" class="edge">
<title>Node3&#45;&gt;Node4</title>
<path fill="none" stroke="midnightblue" d="M326.66,-28.44C341.16,-26 356.86,-23.35 371.71,-20.84"/>
<polygon fill="midnightblue" stroke="midnightblue" points="372.56,-24.25 381.83,-19.14 371.39,-17.35 372.56,-24.25"/>
</g>
</g>
</svg>
