<?xml version="1.0" encoding="UTF-8" standalone="no"?>
<!DOCTYPE svg PUBLIC "-//W3C//DTD SVG 1.1//EN"
 "http://www.w3.org/Graphics/SVG/1.1/DTD/svg11.dtd">
<!-- Generated by graphviz version 2.44.1 (20200629.0800)
 -->
<!-- Title: TTextHandler::GetFontStyleAsInt Pages: 1 -->
<svg width="1003pt" height="2102pt"
 viewBox="0.00 0.00 1003.00 2101.50" xmlns="http://www.w3.org/2000/svg" xmlns:xlink="http://www.w3.org/1999/xlink">
<g id="graph0" class="graph" transform="scale(1 1) rotate(0) translate(4 2097.5)">
<title>TTextHandler::GetFontStyleAsInt</title>
<polygon fill="white" stroke="transparent" points="-4,4 -4,-2097.5 999,-2097.5 999,4 -4,4"/>
<!-- Node1 -->
<g id="node1" class="node">
<title>Node1</title>
<g id="a_node1"><a xlink:title="retrieve the style of the font as a coded integer">
<polygon fill="#bfbfbf" stroke="black" points="858,-980 858,-1010 995,-1010 995,-980 858,-980"/>
<text text-anchor="start" x="866" y="-998" font-family="Helvetica,sans-Serif" font-size="10.00">TTextHandler::GetFontStyle</text>
<text text-anchor="middle" x="926.5" y="-987" font-family="Helvetica,sans-Serif" font-size="10.00">AsInt</text>
</a>
</g>
</g>
<!-- Node2 -->
<g id="node2" class="node">
<title>Node2</title>
<g id="a_node2"><a xlink:href="class_t_interface.html#a93054ca431a8665409bc9a11b7c82a72" target="_top" xlink:title="Load system clipboard to allow cutting &amp; pasting between separate railway applications.">
<polygon fill="white" stroke="black" points="191.5,-0.5 191.5,-19.5 317.5,-19.5 317.5,-0.5 191.5,-0.5"/>
<text text-anchor="middle" x="254.5" y="-7.5" font-family="Helvetica,sans-Serif" font-size="10.00">TInterface::LoadClipboard</text>
</a>
</g>
</g>
<!-- Node1&#45;&gt;Node2 -->
<g id="edge1" class="edge">
<title>Node1&#45;&gt;Node2</title>
<path fill="none" stroke="midnightblue" d="M917.95,-970.26C879.01,-846.96 688.57,-294.09 329,-29 323.7,-25.09 317.66,-21.98 311.38,-19.51"/>
<polygon fill="midnightblue" stroke="midnightblue" points="914.65,-971.43 920.97,-979.93 921.33,-969.34 914.65,-971.43"/>
</g>
<!-- Node5 -->
<g id="node5" class="node">
<title>Node5</title>
<g id="a_node5"><a xlink:href="class_t_text_handler.html#a07441155bee467c9fb111b8332681466" target="_top" xlink:title="save the railway&#39;s text to VecFile">
<polygon fill="white" stroke="black" points="703,-1947.5 703,-1966.5 822,-1966.5 822,-1947.5 703,-1947.5"/>
<text text-anchor="middle" x="762.5" y="-1954.5" font-family="Helvetica,sans-Serif" font-size="10.00">TTextHandler::SaveText</text>
</a>
</g>
</g>
<!-- Node1&#45;&gt;Node5 -->
<g id="edge4" class="edge">
<title>Node1&#45;&gt;Node5</title>
<path fill="none" stroke="midnightblue" d="M921.29,-1020.01C897.48,-1161.41 780.26,-1857.5 765.11,-1947.42"/>
<polygon fill="midnightblue" stroke="midnightblue" points="924.75,-1020.55 922.96,-1010.11 917.84,-1019.39 924.75,-1020.55"/>
</g>
<!-- Node3 -->
<g id="node3" class="node">
<title>Node3</title>
<g id="a_node3"><a xlink:href="class_t_interface.html#a424a7eb780461c1acb396feb21f52062" target="_top" xlink:title=" ">
<polygon fill="white" stroke="black" points="7,-760 7,-790 137,-790 137,-760 7,-760"/>
<text text-anchor="start" x="15" y="-778" font-family="Helvetica,sans-Serif" font-size="10.00">TInterface::CopyMenuItem</text>
<text text-anchor="middle" x="72" y="-767" font-family="Helvetica,sans-Serif" font-size="10.00">Click</text>
</a>
</g>
</g>
<!-- Node2&#45;&gt;Node3 -->
<g id="edge2" class="edge">
<title>Node2&#45;&gt;Node3</title>
<path fill="none" stroke="midnightblue" d="M225.17,-24.77C209.29,-34.57 190.59,-48.95 180,-67 107.26,-190.97 78.63,-668.69 73.77,-759.9"/>
<polygon fill="midnightblue" stroke="midnightblue" points="227.26,-27.61 234.12,-19.54 223.72,-21.57 227.26,-27.61"/>
</g>
<!-- Node4 -->
<g id="node4" class="node">
<title>Node4</title>
<g id="a_node4"><a xlink:href="class_t_interface.html#ae6e977c9dfdfbde9924ceefd19d7d0d3" target="_top" xlink:title=" ">
<polygon fill="white" stroke="black" points="0,-19.5 0,-38.5 144,-38.5 144,-19.5 0,-19.5"/>
<text text-anchor="middle" x="72" y="-26.5" font-family="Helvetica,sans-Serif" font-size="10.00">TInterface::CutMenuItemClick</text>
</a>
</g>
</g>
<!-- Node2&#45;&gt;Node4 -->
<g id="edge3" class="edge">
<title>Node2&#45;&gt;Node4</title>
<path fill="none" stroke="midnightblue" d="M181.26,-17.6C169.06,-18.89 156.4,-20.22 144.23,-21.5"/>
<polygon fill="midnightblue" stroke="midnightblue" points="181.8,-21.07 191.38,-16.54 181.07,-14.1 181.8,-21.07"/>
</g>
<!-- Node6 -->
<g id="node6" class="node">
<title>Node6</title>
<g id="a_node6"><a xlink:href="class_t_interface.html#a1b3189e6a50555f5952652d12b978e57" target="_top" xlink:title="Used to save a railway when not already saved &#45; e.g. when not already named or when the &#39;Save as&#39; men...">
<polygon fill="white" stroke="black" points="365,-2019.5 365,-2038.5 509,-2038.5 509,-2019.5 365,-2019.5"/>
<text text-anchor="middle" x="437" y="-2026.5" font-family="Helvetica,sans-Serif" font-size="10.00">TInterface::SaveAsSubroutine</text>
</a>
</g>
</g>
<!-- Node5&#45;&gt;Node6 -->
<g id="edge5" class="edge">
<title>Node5&#45;&gt;Node6</title>
<path fill="none" stroke="midnightblue" d="M729.88,-1970.47C711.75,-1977.74 688.41,-1986.36 667,-1992 614.91,-2005.71 554.74,-2015.2 509.15,-2021.13"/>
<polygon fill="midnightblue" stroke="midnightblue" points="731.43,-1973.62 739.36,-1966.6 728.78,-1967.14 731.43,-1973.62"/>
</g>
<!-- Node8 -->
<g id="node8" class="node">
<title>Node8</title>
<g id="a_node8"><a xlink:href="class_t_interface.html#a4f373f26e99a3dc0bc7effc71ca25dc0" target="_top" xlink:title=" ">
<polygon fill="white" stroke="black" points="181.5,-2063 181.5,-2093 327.5,-2093 327.5,-2063 181.5,-2063"/>
<text text-anchor="start" x="189.5" y="-2081" font-family="Helvetica,sans-Serif" font-size="10.00">TInterface::SaveHeaderMenu1</text>
<text text-anchor="middle" x="254.5" y="-2070" font-family="Helvetica,sans-Serif" font-size="10.00">Click</text>
</a>
</g>
</g>
<!-- Node5&#45;&gt;Node8 -->
<g id="edge56" class="edge">
<title>Node5&#45;&gt;Node8</title>
<path fill="none" stroke="midnightblue" d="M741.63,-1972.75C723.28,-1986.49 694.77,-2005.92 667,-2017 554.14,-2062.04 411.88,-2074.23 327.62,-2077.29"/>
<polygon fill="midnightblue" stroke="midnightblue" points="743.95,-1975.38 749.76,-1966.52 739.7,-1969.82 743.95,-1975.38"/>
</g>
<!-- Node9 -->
<g id="node9" class="node">
<title>Node9</title>
<g id="a_node9"><a xlink:href="class_t_interface.html#a0109f801142d4fa3becae22e23b84163" target="_top" xlink:title="Save the error log after an error has been thrown &#45; no need for a caller.">
<polygon fill="white" stroke="black" points="545,-1468.5 545,-1487.5 667,-1487.5 667,-1468.5 545,-1468.5"/>
<text text-anchor="middle" x="606" y="-1475.5" font-family="Helvetica,sans-Serif" font-size="10.00">TInterface::SaveErrorFile</text>
</a>
</g>
</g>
<!-- Node5&#45;&gt;Node9 -->
<g id="edge8" class="edge">
<title>Node5&#45;&gt;Node9</title>
<path fill="none" stroke="midnightblue" d="M755.23,-1937.55C729.05,-1856.38 629,-1546.21 610.09,-1487.59"/>
<polygon fill="midnightblue" stroke="midnightblue" points="752.01,-1938.99 758.41,-1947.43 758.68,-1936.84 752.01,-1938.99"/>
</g>
<!-- Node128 -->
<g id="node49" class="node">
<title>Node128</title>
<g id="a_node49"><a xlink:href="class_t_interface.html#a7699c9c408064623d335d3452b60f289" target="_top" xlink:title=" ">
<polygon fill="white" stroke="black" points="190.5,-1965 190.5,-1995 318.5,-1995 318.5,-1965 190.5,-1965"/>
<text text-anchor="start" x="198.5" y="-1983" font-family="Helvetica,sans-Serif" font-size="10.00">TInterface::SaveMenuItem</text>
<text text-anchor="middle" x="254.5" y="-1972" font-family="Helvetica,sans-Serif" font-size="10.00">Click</text>
</a>
</g>
</g>
<!-- Node5&#45;&gt;Node128 -->
<g id="edge57" class="edge">
<title>Node5&#45;&gt;Node128</title>
<path fill="none" stroke="midnightblue" d="M692.7,-1962.38C684.05,-1962.97 675.32,-1963.53 667,-1964 543.69,-1970.96 399.42,-1975.81 318.63,-1978.23"/>
<polygon fill="midnightblue" stroke="midnightblue" points="693.06,-1965.86 702.79,-1961.67 692.57,-1958.88 693.06,-1965.86"/>
</g>
<!-- Node152 -->
<g id="node50" class="node">
<title>Node152</title>
<g id="a_node50"><a xlink:href="class_t_interface.html#a3362cfff4fa746fdb4871fe9d6c5ba25" target="_top" xlink:title="Save a session file &#45; see LoadSession for details of additions to the session file.">
<polygon fill="white" stroke="black" points="194,-1926.5 194,-1945.5 315,-1945.5 315,-1926.5 194,-1926.5"/>
<text text-anchor="middle" x="254.5" y="-1933.5" font-family="Helvetica,sans-Serif" font-size="10.00">TInterface::SaveSession</text>
</a>
</g>
</g>
<!-- Node5&#45;&gt;Node152 -->
<g id="edge58" class="edge">
<title>Node5&#45;&gt;Node152</title>
<path fill="none" stroke="midnightblue" d="M692.68,-1954.14C592.84,-1950 409.45,-1942.39 315.08,-1938.47"/>
<polygon fill="midnightblue" stroke="midnightblue" points="692.82,-1957.65 702.96,-1954.57 693.11,-1950.66 692.82,-1957.65"/>
</g>
<!-- Node7 -->
<g id="node7" class="node">
<title>Node7</title>
<g id="a_node7"><a xlink:href="class_t_interface.html#a0be281457630fce07fc19cdbbfde79b1" target="_top" xlink:title=" ">
<polygon fill="white" stroke="black" points="184.5,-2014 184.5,-2044 324.5,-2044 324.5,-2014 184.5,-2014"/>
<text text-anchor="start" x="192.5" y="-2032" font-family="Helvetica,sans-Serif" font-size="10.00">TInterface::SaveAsMenuItem</text>
<text text-anchor="middle" x="254.5" y="-2021" font-family="Helvetica,sans-Serif" font-size="10.00">Click</text>
</a>
</g>
</g>
<!-- Node6&#45;&gt;Node7 -->
<g id="edge6" class="edge">
<title>Node6&#45;&gt;Node7</title>
<path fill="none" stroke="midnightblue" d="M354.92,-2029C344.84,-2029 334.62,-2029 324.74,-2029"/>
<polygon fill="midnightblue" stroke="midnightblue" points="354.92,-2032.5 364.92,-2029 354.92,-2025.5 354.92,-2032.5"/>
</g>
<!-- Node6&#45;&gt;Node8 -->
<g id="edge7" class="edge">
<title>Node6&#45;&gt;Node8</title>
<path fill="none" stroke="midnightblue" d="M391.1,-2041.19C366.82,-2047.78 336.62,-2055.98 310.89,-2062.96"/>
<polygon fill="midnightblue" stroke="midnightblue" points="392.04,-2044.56 400.77,-2038.56 390.2,-2037.81 392.04,-2044.56"/>
</g>
<!-- Node10 -->
<g id="node10" class="node">
<title>Node10</title>
<g id="a_node10"><a xlink:href="class_t_interface.html#a4f3a25665e2266441217849f947a1adf" target="_top" xlink:title="The error logging routine, called when an error is detected.">
<polygon fill="white" stroke="red" points="386.5,-1068.5 386.5,-1087.5 487.5,-1087.5 487.5,-1068.5 386.5,-1068.5"/>
<text text-anchor="middle" x="437" y="-1075.5" font-family="Helvetica,sans-Serif" font-size="10.00">TInterface::ErrorLog</text>
</a>
</g>
</g>
<!-- Node9&#45;&gt;Node10 -->
<g id="edge9" class="edge">
<title>Node9&#45;&gt;Node10</title>
<path fill="none" stroke="midnightblue" d="M596.86,-1458.51C566.94,-1386.84 463.6,-1139.32 441.98,-1087.54"/>
<polygon fill="midnightblue" stroke="midnightblue" points="593.79,-1460.23 600.87,-1468.11 600.25,-1457.54 593.79,-1460.23"/>
</g>
<!-- Node10&#45;&gt;Node2 -->
<g id="edge50" class="edge">
<title>Node10&#45;&gt;Node2</title>
<path fill="none" stroke="midnightblue" d="M432.89,-1058.35C422.03,-989 385.32,-749.16 365,-550 359.17,-492.82 364.35,-79.32 329,-34 324.13,-27.76 317.6,-23.11 310.43,-19.67"/>
<polygon fill="midnightblue" stroke="midnightblue" points="429.45,-1058.97 434.46,-1068.31 436.36,-1057.89 429.45,-1058.97"/>
</g>
<!-- Node10&#45;&gt;Node3 -->
<g id="edge33" class="edge">
<title>Node10&#45;&gt;Node3</title>
<path fill="none" stroke="midnightblue" d="M433.54,-1097.75C424.18,-1169.16 388.38,-1412.06 329,-1457 276.19,-1496.96 230.32,-1500.04 180,-1457 74.58,-1366.83 72.32,-882.03 72.86,-790.07"/>
<polygon fill="midnightblue" stroke="midnightblue" points="437.01,-1098.18 434.81,-1087.82 430.07,-1097.29 437.01,-1098.18"/>
</g>
<!-- Node10&#45;&gt;Node4 -->
<g id="edge38" class="edge">
<title>Node10&#45;&gt;Node4</title>
<path fill="none" stroke="midnightblue" d="M432.93,-1058.34C422.18,-988.98 385.79,-749.12 365,-550 359.41,-496.48 365.64,-106.42 329,-67 304.6,-40.76 211.23,-32.46 144.3,-29.94"/>
<polygon fill="midnightblue" stroke="midnightblue" points="429.48,-1058.96 434.48,-1068.31 436.4,-1057.89 429.48,-1058.96"/>
</g>
<!-- Node10&#45;&gt;Node7 -->
<g id="edge51" class="edge">
<title>Node10&#45;&gt;Node7</title>
<path fill="none" stroke="midnightblue" d="M434.99,-1097.77C428.28,-1225.57 388.64,-1932.01 329,-2005 326.2,-2008.43 322.9,-2011.38 319.27,-2013.9"/>
<polygon fill="midnightblue" stroke="midnightblue" points="438.5,-1097.7 435.52,-1087.53 431.5,-1097.33 438.5,-1097.7"/>
</g>
<!-- Node10&#45;&gt;Node8 -->
<g id="edge52" class="edge">
<title>Node10&#45;&gt;Node8</title>
<path fill="none" stroke="midnightblue" d="M435.1,-1097.99C428.95,-1230.3 391.66,-1976.86 329,-2054 326.21,-2057.44 322.91,-2060.39 319.29,-2062.92"/>
<polygon fill="midnightblue" stroke="midnightblue" points="438.61,-1097.88 435.57,-1087.73 431.61,-1097.55 438.61,-1097.88"/>
</g>
<!-- Node11 -->
<g id="node11" class="node">
<title>Node11</title>
<g id="a_node11"><a xlink:href="class_t_interface.html#a7ccec66d1d0a81f124397af39f43da32" target="_top" xlink:title=" ">
<polygon fill="white" stroke="black" points="188,-1418 188,-1448 321,-1448 321,-1418 188,-1418"/>
<text text-anchor="start" x="196" y="-1436" font-family="Helvetica,sans-Serif" font-size="10.00">TInterface::AboutMenuItem</text>
<text text-anchor="middle" x="254.5" y="-1425" font-family="Helvetica,sans-Serif" font-size="10.00">Click</text>
</a>
</g>
</g>
<!-- Node10&#45;&gt;Node11 -->
<g id="edge10" class="edge">
<title>Node10&#45;&gt;Node11</title>
<path fill="none" stroke="midnightblue" d="M435.46,-1097.76C432.85,-1154.25 417.61,-1318.12 329,-1408 325.22,-1411.84 320.82,-1415.09 316.09,-1417.84"/>
<polygon fill="midnightblue" stroke="midnightblue" points="438.96,-1097.8 435.84,-1087.68 431.97,-1097.54 438.96,-1097.8"/>
</g>
<!-- Node12 -->
<g id="node12" class="node">
<title>Node12</title>
<g id="a_node12"><a xlink:href="class_t_interface.html#adfe259347a82aae9fc9538bba9c51cb8" target="_top" xlink:title=" ">
<polygon fill="white" stroke="black" points="187.5,-1379.5 187.5,-1398.5 321.5,-1398.5 321.5,-1379.5 187.5,-1379.5"/>
<text text-anchor="middle" x="254.5" y="-1386.5" font-family="Helvetica,sans-Serif" font-size="10.00">TInterface::AcceptDragging</text>
</a>
</g>
</g>
<!-- Node10&#45;&gt;Node12 -->
<g id="edge11" class="edge">
<title>Node10&#45;&gt;Node12</title>
<path fill="none" stroke="midnightblue" d="M434.76,-1097.76C430.37,-1150.16 411.06,-1293.76 329,-1369 324.32,-1373.29 318.81,-1376.67 312.95,-1379.34"/>
<polygon fill="midnightblue" stroke="midnightblue" points="438.25,-1097.99 435.5,-1087.76 431.27,-1097.47 438.25,-1097.99"/>
</g>
<!-- Node13 -->
<g id="node13" class="node">
<title>Node13</title>
<g id="a_node13"><a xlink:href="class_t_interface.html#a30904d608111ce6452a9861d86b64267" target="_top" xlink:title=" ">
<polygon fill="white" stroke="black" points="189,-1330 189,-1360 320,-1360 320,-1330 189,-1330"/>
<text text-anchor="start" x="197" y="-1348" font-family="Helvetica,sans-Serif" font-size="10.00">TInterface::AddMinsButton</text>
<text text-anchor="middle" x="254.5" y="-1337" font-family="Helvetica,sans-Serif" font-size="10.00">Click</text>
</a>
</g>
</g>
<!-- Node10&#45;&gt;Node13 -->
<g id="edge12" class="edge">
<title>Node10&#45;&gt;Node13</title>
<path fill="none" stroke="midnightblue" d="M432.79,-1097.81C424.34,-1143.58 397.25,-1257.54 329,-1320 324.82,-1323.82 320.04,-1327.06 314.96,-1329.81"/>
<polygon fill="midnightblue" stroke="midnightblue" points="436.24,-1098.4 434.51,-1087.94 429.34,-1097.19 436.24,-1098.4"/>
</g>
<!-- Node14 -->
<g id="node14" class="node">
<title>Node14</title>
<g id="a_node14"><a xlink:href="class_t_interface.html#a1b1a4260e251c9bd5f48fd6c3432e7a5" target="_top" xlink:title=" ">
<polygon fill="white" stroke="black" points="184.5,-1281 184.5,-1311 324.5,-1311 324.5,-1281 184.5,-1281"/>
<text text-anchor="start" x="192.5" y="-1299" font-family="Helvetica,sans-Serif" font-size="10.00">TInterface::AddPrefDirButton</text>
<text text-anchor="middle" x="254.5" y="-1288" font-family="Helvetica,sans-Serif" font-size="10.00">Click</text>
</a>
</g>
</g>
<!-- Node10&#45;&gt;Node14 -->
<g id="edge13" class="edge">
<title>Node10&#45;&gt;Node14</title>
<path fill="none" stroke="midnightblue" d="M430.39,-1097.63C418.33,-1136.39 386.25,-1223.14 329,-1271 324.35,-1274.89 319.06,-1278.18 313.5,-1280.97"/>
<polygon fill="midnightblue" stroke="midnightblue" points="433.87,-1098.22 433.38,-1087.63 427.16,-1096.21 433.87,-1098.22"/>
</g>
<!-- Node15 -->
<g id="node15" class="node">
<title>Node15</title>
<g id="a_node15"><a xlink:href="class_t_interface.html#a0abab134f4994b02507e1e2d3f31cd77" target="_top" xlink:title=" ">
<polygon fill="white" stroke="black" points="186,-1232 186,-1262 323,-1262 323,-1232 186,-1232"/>
<text text-anchor="start" x="194" y="-1250" font-family="Helvetica,sans-Serif" font-size="10.00">TInterface::AddSubMinsBox</text>
<text text-anchor="middle" x="254.5" y="-1239" font-family="Helvetica,sans-Serif" font-size="10.00">KeyUp</text>
</a>
</g>
</g>
<!-- Node10&#45;&gt;Node15 -->
<g id="edge14" class="edge">
<title>Node10&#45;&gt;Node15</title>
<path fill="none" stroke="midnightblue" d="M426.87,-1096.77C411.08,-1127.34 375.81,-1187.88 329,-1222 323.77,-1225.81 317.92,-1229.07 311.86,-1231.85"/>
<polygon fill="midnightblue" stroke="midnightblue" points="430.1,-1098.14 431.47,-1087.63 423.85,-1094.99 430.1,-1098.14"/>
</g>
<!-- Node16 -->
<g id="node16" class="node">
<title>Node16</title>
<g id="a_node16"><a xlink:href="class_t_interface.html#aa20c05bf2d6c23035a10a89796334d0f" target="_top" xlink:title=" ">
<polygon fill="white" stroke="black" points="190,-1183 190,-1213 319,-1213 319,-1183 190,-1183"/>
<text text-anchor="start" x="198" y="-1201" font-family="Helvetica,sans-Serif" font-size="10.00">TInterface::AddTextButton</text>
<text text-anchor="middle" x="254.5" y="-1190" font-family="Helvetica,sans-Serif" font-size="10.00">Click</text>
</a>
</g>
</g>
<!-- Node10&#45;&gt;Node16 -->
<g id="edge15" class="edge">
<title>Node10&#45;&gt;Node16</title>
<path fill="none" stroke="midnightblue" d="M420.68,-1095.3C401.23,-1116.32 365.77,-1151.6 329,-1173 322.59,-1176.73 315.55,-1180.01 308.43,-1182.86"/>
<polygon fill="midnightblue" stroke="midnightblue" points="423.4,-1097.51 427.54,-1087.75 418.22,-1092.8 423.4,-1097.51"/>
</g>
<!-- Node17 -->
<g id="node17" class="node">
<title>Node17</title>
<g id="a_node17"><a xlink:href="class_t_interface.html#a10494e62a7bb4e7114ab4d98e18499f1" target="_top" xlink:title=" ">
<polygon fill="white" stroke="black" points="187.5,-1134 187.5,-1164 321.5,-1164 321.5,-1134 187.5,-1134"/>
<text text-anchor="start" x="195.5" y="-1152" font-family="Helvetica,sans-Serif" font-size="10.00">TInterface::AddTrackButton</text>
<text text-anchor="middle" x="254.5" y="-1141" font-family="Helvetica,sans-Serif" font-size="10.00">Click</text>
</a>
</g>
</g>
<!-- Node10&#45;&gt;Node17 -->
<g id="edge16" class="edge">
<title>Node10&#45;&gt;Node17</title>
<path fill="none" stroke="midnightblue" d="M405.7,-1091.78C384.42,-1101.27 355.19,-1113.93 329,-1124 320.19,-1127.38 310.71,-1130.79 301.57,-1133.95"/>
<polygon fill="midnightblue" stroke="midnightblue" points="407.19,-1094.94 414.88,-1087.66 404.33,-1088.56 407.19,-1094.94"/>
</g>
<!-- Node18 -->
<g id="node18" class="node">
<title>Node18</title>
<g id="a_node18"><a xlink:href="class_t_interface.html#a189a4b05f27d6b5ec8b9a90ec1a9cc50" target="_top" xlink:title=" ">
<polygon fill="white" stroke="black" points="188,-1085 188,-1115 321,-1115 321,-1085 188,-1085"/>
<text text-anchor="start" x="196" y="-1103" font-family="Helvetica,sans-Serif" font-size="10.00">TInterface::AllEntriesTTList</text>
<text text-anchor="middle" x="254.5" y="-1092" font-family="Helvetica,sans-Serif" font-size="10.00">BoxMouseUp</text>
</a>
</g>
</g>
<!-- Node10&#45;&gt;Node18 -->
<g id="edge17" class="edge">
<title>Node10&#45;&gt;Node18</title>
<path fill="none" stroke="midnightblue" d="M376.04,-1085.31C358.39,-1087.46 339.01,-1089.82 321.03,-1092.01"/>
<polygon fill="midnightblue" stroke="midnightblue" points="376.7,-1088.75 386.2,-1084.07 375.85,-1081.81 376.7,-1088.75"/>
</g>
<!-- Node19 -->
<g id="node19" class="node">
<title>Node19</title>
<g id="a_node19"><a xlink:href="class_t_interface.html#af99ae89b6c7a2d37bf49cf0b5fcc3f1f" target="_top" xlink:title=" ">
<polygon fill="white" stroke="red" points="196.5,-1046.5 196.5,-1065.5 312.5,-1065.5 312.5,-1046.5 196.5,-1046.5"/>
<text text-anchor="middle" x="254.5" y="-1053.5" font-family="Helvetica,sans-Serif" font-size="10.00">TInterface::AppActivate</text>
</a>
</g>
</g>
<!-- Node10&#45;&gt;Node19 -->
<g id="edge18" class="edge">
<title>Node10&#45;&gt;Node19</title>
<path fill="none" stroke="midnightblue" d="M376.09,-1070.7C355.7,-1068.21 332.97,-1065.44 312.79,-1062.98"/>
<polygon fill="midnightblue" stroke="midnightblue" points="375.85,-1074.19 386.2,-1071.93 376.7,-1067.25 375.85,-1074.19"/>
</g>
<!-- Node21 -->
<g id="node20" class="node">
<title>Node21</title>
<g id="a_node20"><a xlink:href="class_t_interface.html#a75f68c918750c0e007ea7a85d718e2ab" target="_top" xlink:title=" ">
<polygon fill="white" stroke="red" points="191,-1008.5 191,-1027.5 318,-1027.5 318,-1008.5 191,-1008.5"/>
<text text-anchor="middle" x="254.5" y="-1015.5" font-family="Helvetica,sans-Serif" font-size="10.00">TInterface::AppDeactivate</text>
</a>
</g>
</g>
<!-- Node10&#45;&gt;Node21 -->
<g id="edge19" class="edge">
<title>Node10&#45;&gt;Node21</title>
<path fill="none" stroke="midnightblue" d="M403.87,-1064.6C382.8,-1056.08 354.52,-1045.16 329,-1037 318.33,-1033.59 306.64,-1030.35 295.79,-1027.54"/>
<polygon fill="midnightblue" stroke="midnightblue" points="402.72,-1067.91 413.31,-1068.45 405.37,-1061.43 402.72,-1067.91"/>
</g>
<!-- Node22 -->
<g id="node21" class="node">
<title>Node22</title>
<g id="a_node21"><a xlink:href="class_t_interface.html#a36ad38f4b485bba874129aeb3a20d926" target="_top" xlink:title=" ">
<polygon fill="white" stroke="black" points="188,-959 188,-989 321,-989 321,-959 188,-959"/>
<text text-anchor="start" x="196" y="-977" font-family="Helvetica,sans-Serif" font-size="10.00">TInterface::AutoSigsButton</text>
<text text-anchor="middle" x="254.5" y="-966" font-family="Helvetica,sans-Serif" font-size="10.00">Click</text>
</a>
</g>
</g>
<!-- Node10&#45;&gt;Node22 -->
<g id="edge20" class="edge">
<title>Node10&#45;&gt;Node22</title>
<path fill="none" stroke="midnightblue" d="M417.94,-1061.92C397.55,-1044.45 362.81,-1016.68 329,-999 321.95,-995.31 314.25,-992 306.57,-989.08"/>
<polygon fill="midnightblue" stroke="midnightblue" points="415.66,-1064.58 425.5,-1068.5 420.25,-1059.3 415.66,-1064.58"/>
</g>
<!-- Node23 -->
<g id="node22" class="node">
<title>Node23</title>
<g id="a_node22"><a xlink:href="class_t_interface.html#a28579472104533fb5fd01066a22fbb5b" target="_top" xlink:title=" ">
<polygon fill="white" stroke="black" points="190,-910 190,-940 319,-940 319,-910 190,-910"/>
<text text-anchor="start" x="198" y="-928" font-family="Helvetica,sans-Serif" font-size="10.00">TInterface::AZOrderButton</text>
<text text-anchor="middle" x="254.5" y="-917" font-family="Helvetica,sans-Serif" font-size="10.00">Click</text>
</a>
</g>
</g>
<!-- Node10&#45;&gt;Node23 -->
<g id="edge21" class="edge">
<title>Node10&#45;&gt;Node23</title>
<path fill="none" stroke="midnightblue" d="M425.46,-1059.58C408.59,-1031.69 372.91,-978.85 329,-949 324,-945.6 318.49,-942.66 312.8,-940.12"/>
<polygon fill="midnightblue" stroke="midnightblue" points="422.53,-1061.49 430.63,-1068.33 428.55,-1057.93 422.53,-1061.49"/>
</g>
<!-- Node24 -->
<g id="node23" class="node">
<title>Node24</title>
<g id="a_node23"><a xlink:href="class_t_interface.html#a237c151513ca8adca6cd1006cc2fc66f" target="_top" xlink:title=" ">
<polygon fill="white" stroke="black" points="186.5,-861 186.5,-891 322.5,-891 322.5,-861 186.5,-861"/>
<text text-anchor="start" x="194.5" y="-879" font-family="Helvetica,sans-Serif" font-size="10.00">TInterface::BlackBgndMenu</text>
<text text-anchor="middle" x="254.5" y="-868" font-family="Helvetica,sans-Serif" font-size="10.00">ItemClick</text>
</a>
</g>
</g>
<!-- Node10&#45;&gt;Node24 -->
<g id="edge22" class="edge">
<title>Node10&#45;&gt;Node24</title>
<path fill="none" stroke="midnightblue" d="M429.46,-1058.35C416.31,-1021.79 383.19,-943.16 329,-900 324.69,-896.57 319.88,-893.63 314.84,-891.09"/>
<polygon fill="midnightblue" stroke="midnightblue" points="426.31,-1059.96 432.9,-1068.25 432.93,-1057.66 426.31,-1059.96"/>
</g>
<!-- Node25 -->
<g id="node24" class="node">
<title>Node25</title>
<g id="a_node24"><a xlink:href="class_t_interface.html#a24d79aa4745e495daa07bb5ce412e75f" target="_top" xlink:title=" ">
<polygon fill="white" stroke="black" points="189,-812 189,-842 320,-842 320,-812 189,-812"/>
<text text-anchor="start" x="197" y="-830" font-family="Helvetica,sans-Serif" font-size="10.00">TInterface::BlueBgndMenu</text>
<text text-anchor="middle" x="254.5" y="-819" font-family="Helvetica,sans-Serif" font-size="10.00">ItemClick</text>
</a>
</g>
</g>
<!-- Node10&#45;&gt;Node25 -->
<g id="edge23" class="edge">
<title>Node10&#45;&gt;Node25</title>
<path fill="none" stroke="midnightblue" d="M432.21,-1058.19C422.79,-1014.37 394.22,-908.54 329,-851 325.07,-847.54 320.64,-844.57 315.94,-842.03"/>
<polygon fill="midnightblue" stroke="midnightblue" points="428.81,-1059.06 434.24,-1068.16 435.67,-1057.66 428.81,-1059.06"/>
</g>
<!-- Node26 -->
<g id="node25" class="node">
<title>Node26</title>
<g id="a_node25"><a xlink:href="class_t_interface.html#ab1799665ee1e4212186f80ab49acf1e1" target="_top" xlink:title=" ">
<polygon fill="white" stroke="black" points="187.5,-763 187.5,-793 321.5,-793 321.5,-763 187.5,-763"/>
<text text-anchor="start" x="195.5" y="-781" font-family="Helvetica,sans-Serif" font-size="10.00">TInterface::BuildTrackMenu</text>
<text text-anchor="middle" x="254.5" y="-770" font-family="Helvetica,sans-Serif" font-size="10.00">ItemClick</text>
</a>
</g>
</g>
<!-- Node10&#45;&gt;Node26 -->
<g id="edge24" class="edge">
<title>Node10&#45;&gt;Node26</title>
<path fill="none" stroke="midnightblue" d="M434.06,-1058.15C428.1,-1007.89 405.5,-874.46 329,-802 325.39,-798.58 321.3,-795.65 316.92,-793.14"/>
<polygon fill="midnightblue" stroke="midnightblue" points="430.61,-1058.75 435.17,-1068.31 437.57,-1057.99 430.61,-1058.75"/>
</g>
<!-- Node27 -->
<g id="node26" class="node">
<title>Node27</title>
<g id="a_node26"><a xlink:href="class_t_interface.html#ae758bf4183bb5aa2a7cd83e06acd89b6" target="_top" xlink:title=" ">
<polygon fill="white" stroke="black" points="187,-714 187,-744 322,-744 322,-714 187,-714"/>
<text text-anchor="start" x="195" y="-732" font-family="Helvetica,sans-Serif" font-size="10.00">TInterface::CallingOnButton</text>
<text text-anchor="middle" x="254.5" y="-721" font-family="Helvetica,sans-Serif" font-size="10.00">Click</text>
</a>
</g>
</g>
<!-- Node10&#45;&gt;Node27 -->
<g id="edge25" class="edge">
<title>Node10&#45;&gt;Node27</title>
<path fill="none" stroke="midnightblue" d="M435.4,-1058.13C432.61,-1002.01 416.95,-840.73 329,-753 325.58,-749.59 321.67,-746.66 317.47,-744.15"/>
<polygon fill="midnightblue" stroke="midnightblue" points="431.91,-1058.59 435.82,-1068.44 438.91,-1058.31 431.91,-1058.59"/>
</g>
<!-- Node28 -->
<g id="node27" class="node">
<title>Node28</title>
<g id="a_node27"><a xlink:href="class_t_interface.html#a2fb2cd7dbddb7fa689ea994e9ffc10ff" target="_top" xlink:title=" ">
<polygon fill="white" stroke="black" points="187,-665 187,-695 322,-695 322,-665 187,-665"/>
<text text-anchor="start" x="195" y="-683" font-family="Helvetica,sans-Serif" font-size="10.00">TInterface::CancelSelection</text>
<text text-anchor="middle" x="254.5" y="-672" font-family="Helvetica,sans-Serif" font-size="10.00">MenuItemClick</text>
</a>
</g>
</g>
<!-- Node10&#45;&gt;Node28 -->
<g id="edge26" class="edge">
<title>Node10&#45;&gt;Node28</title>
<path fill="none" stroke="midnightblue" d="M436.41,-1058.07C436.56,-996.49 428.5,-807.25 329,-704 325.65,-700.52 321.78,-697.54 317.62,-695"/>
<polygon fill="midnightblue" stroke="midnightblue" points="432.91,-1058.29 436.3,-1068.32 439.91,-1058.36 432.91,-1058.29"/>
</g>
<!-- Node29 -->
<g id="node28" class="node">
<title>Node29</title>
<g id="a_node28"><a xlink:href="class_t_interface.html#a6fb1db3295ef42cb1b6f20bc142fa502" target="_top" xlink:title=" ">
<polygon fill="white" stroke="black" points="190.5,-616 190.5,-646 318.5,-646 318.5,-616 190.5,-616"/>
<text text-anchor="start" x="198.5" y="-634" font-family="Helvetica,sans-Serif" font-size="10.00">TInterface::CancelTTEntry</text>
<text text-anchor="middle" x="254.5" y="-623" font-family="Helvetica,sans-Serif" font-size="10.00">ButtonClick</text>
</a>
</g>
</g>
<!-- Node10&#45;&gt;Node29 -->
<g id="edge27" class="edge">
<title>Node10&#45;&gt;Node29</title>
<path fill="none" stroke="midnightblue" d="M433.52,-1058.1C423.76,-982.68 385.69,-715.68 329,-655 325.79,-651.57 322.09,-648.62 318.08,-646.1"/>
<polygon fill="midnightblue" stroke="midnightblue" points="430.07,-1058.67 434.8,-1068.14 437.01,-1057.78 430.07,-1058.67"/>
</g>
<!-- Node30 -->
<g id="node29" class="node">
<title>Node30</title>
<g id="a_node29"><a xlink:href="class_t_interface.html#aaaf32c3c815553f7ba70698e0f0071bb" target="_top" xlink:title=" ">
<polygon fill="white" stroke="black" points="186.5,-567 186.5,-597 322.5,-597 322.5,-567 186.5,-567"/>
<text text-anchor="start" x="194.5" y="-585" font-family="Helvetica,sans-Serif" font-size="10.00">TInterface::ChangeDirection</text>
<text text-anchor="middle" x="254.5" y="-574" font-family="Helvetica,sans-Serif" font-size="10.00">MenuItemClick</text>
</a>
</g>
</g>
<!-- Node10&#45;&gt;Node30 -->
<g id="edge28" class="edge">
<title>Node10&#45;&gt;Node30</title>
<path fill="none" stroke="midnightblue" d="M434.07,-1057.93C425.88,-976.87 391.58,-674.66 329,-606 325.84,-602.53 322.16,-599.56 318.18,-597.01"/>
<polygon fill="midnightblue" stroke="midnightblue" points="430.62,-1058.62 435.09,-1068.23 437.59,-1057.94 430.62,-1058.62"/>
</g>
<!-- Node31 -->
<g id="node30" class="node">
<title>Node31</title>
<g id="a_node30"><a xlink:href="class_t_interface.html#a928eba983ac5132e1ae7799f8330451e" target="_top" xlink:title=" ">
<polygon fill="white" stroke="black" points="193.5,-518 193.5,-548 315.5,-548 315.5,-518 193.5,-518"/>
<text text-anchor="start" x="201.5" y="-536" font-family="Helvetica,sans-Serif" font-size="10.00">TInterface::ClearAllMenu</text>
<text text-anchor="middle" x="254.5" y="-525" font-family="Helvetica,sans-Serif" font-size="10.00">ItemClick</text>
</a>
</g>
</g>
<!-- Node10&#45;&gt;Node31 -->
<g id="edge29" class="edge">
<title>Node10&#45;&gt;Node31</title>
<path fill="none" stroke="midnightblue" d="M434.56,-1058.36C427.94,-972.86 397.65,-633.88 329,-557 325.25,-552.79 320.74,-549.32 315.84,-546.46"/>
<polygon fill="midnightblue" stroke="midnightblue" points="431.09,-1058.79 435.33,-1068.5 438.07,-1058.26 431.09,-1058.79"/>
</g>
<!-- Node32 -->
<g id="node31" class="node">
<title>Node32</title>
<g id="a_node31"><a xlink:href="class_t_interface.html#a6139ffb52492eb89e5487a8a3cd647b5" target="_top" xlink:title="The main loop, called every clock tick via MasterClockTimer.">
<polygon fill="white" stroke="red" points="12.5,-1907.5 12.5,-1926.5 131.5,-1926.5 131.5,-1907.5 12.5,-1907.5"/>
<text text-anchor="middle" x="72" y="-1914.5" font-family="Helvetica,sans-Serif" font-size="10.00">TInterface::ClockTimer2</text>
</a>
</g>
</g>
<!-- Node10&#45;&gt;Node32 -->
<g id="edge30" class="edge">
<title>Node10&#45;&gt;Node32</title>
<path fill="none" stroke="midnightblue" d="M436.41,-1097.72C438.31,-1209.54 441.84,-1763.09 329,-1878 302.3,-1905.19 198.73,-1913.47 131.79,-1915.96"/>
<polygon fill="midnightblue" stroke="midnightblue" points="439.91,-1097.48 436.22,-1087.54 432.91,-1097.61 439.91,-1097.48"/>
</g>
<!-- Node34 -->
<g id="node32" class="node">
<title>Node34</title>
<g id="a_node32"><a xlink:href="class_t_interface.html#a77b4d0c5298ea6b8968af152fd8b7b8b" target="_top" xlink:title=" ">
<polygon fill="white" stroke="black" points="187.5,-469 187.5,-499 321.5,-499 321.5,-469 187.5,-469"/>
<text text-anchor="start" x="195.5" y="-487" font-family="Helvetica,sans-Serif" font-size="10.00">TInterface::ConflictAnalysis</text>
<text text-anchor="middle" x="254.5" y="-476" font-family="Helvetica,sans-Serif" font-size="10.00">ButtonClick</text>
</a>
</g>
</g>
<!-- Node10&#45;&gt;Node34 -->
<g id="edge31" class="edge">
<title>Node10&#45;&gt;Node34</title>
<path fill="none" stroke="midnightblue" d="M434.94,-1058.28C429.67,-967.77 403.61,-593 329,-508 325.99,-504.57 322.48,-501.63 318.66,-499.1"/>
<polygon fill="midnightblue" stroke="midnightblue" points="431.45,-1058.7 435.51,-1068.49 438.44,-1058.31 431.45,-1058.7"/>
</g>
<!-- Node35 -->
<g id="node33" class="node">
<title>Node35</title>
<g id="a_node33"><a xlink:href="class_t_interface.html#ad9449a5d1fa3eada816b8b66500d7d44" target="_top" xlink:title=" ">
<polygon fill="white" stroke="black" points="186.5,-420 186.5,-450 322.5,-450 322.5,-420 186.5,-420"/>
<text text-anchor="start" x="194.5" y="-438" font-family="Helvetica,sans-Serif" font-size="10.00">TInterface::ConverttoRight</text>
<text text-anchor="middle" x="254.5" y="-427" font-family="Helvetica,sans-Serif" font-size="10.00">HandSignalsMenuItemClick</text>
</a>
</g>
</g>
<!-- Node10&#45;&gt;Node35 -->
<g id="edge32" class="edge">
<title>Node10&#45;&gt;Node35</title>
<path fill="none" stroke="midnightblue" d="M433.79,-1058.1C422.42,-957.27 369.53,-505.86 329,-459 326.01,-455.55 322.52,-452.59 318.72,-450.06"/>
<polygon fill="midnightblue" stroke="midnightblue" points="430.32,-1058.6 434.91,-1068.15 437.28,-1057.82 430.32,-1058.6"/>
</g>
<!-- Node36 -->
<g id="node34" class="node">
<title>Node36</title>
<g id="a_node34"><a xlink:href="class_t_interface.html#adc0dd871fdd70ff11ada7a0ddd549e8e" target="_top" xlink:title=" ">
<polygon fill="white" stroke="black" points="180,-371 180,-401 329,-401 329,-371 180,-371"/>
<text text-anchor="start" x="188" y="-389" font-family="Helvetica,sans-Serif" font-size="10.00">TInterface::CopyTTEntryButton</text>
<text text-anchor="middle" x="254.5" y="-378" font-family="Helvetica,sans-Serif" font-size="10.00">Click</text>
</a>
</g>
</g>
<!-- Node10&#45;&gt;Node36 -->
<g id="edge34" class="edge">
<title>Node10&#45;&gt;Node36</title>
<path fill="none" stroke="midnightblue" d="M433.44,-1058.34C419.32,-950.59 350.85,-435.58 329,-410 326.04,-406.53 322.56,-403.56 318.77,-401.01"/>
<polygon fill="midnightblue" stroke="midnightblue" points="429.99,-1058.99 434.76,-1068.45 436.93,-1058.08 429.99,-1058.99"/>
</g>
<!-- Node37 -->
<g id="node35" class="node">
<title>Node37</title>
<g id="a_node35"><a xlink:href="class_t_interface.html#a117ba58c37a617edeeb033fcdff841e9" target="_top" xlink:title=" ">
<polygon fill="white" stroke="black" points="186,-322 186,-352 323,-352 323,-322 186,-322"/>
<text text-anchor="start" x="194" y="-340" font-family="Helvetica,sans-Serif" font-size="10.00">TInterface::CPCancelButton</text>
<text text-anchor="middle" x="254.5" y="-329" font-family="Helvetica,sans-Serif" font-size="10.00">Click</text>
</a>
</g>
</g>
<!-- Node10&#45;&gt;Node37 -->
<g id="edge35" class="edge">
<title>Node10&#45;&gt;Node37</title>
<path fill="none" stroke="midnightblue" d="M433.34,-1058.25C417.97,-944.24 340.7,-374.84 329,-361 326.14,-357.62 322.8,-354.71 319.14,-352.2"/>
<polygon fill="midnightblue" stroke="midnightblue" points="429.9,-1058.9 434.7,-1068.34 436.84,-1057.97 429.9,-1058.9"/>
</g>
<!-- Node38 -->
<g id="node36" class="node">
<title>Node38</title>
<g id="a_node36"><a xlink:href="class_t_interface.html#a6379037c7970acda71188947cb3ba6b2" target="_top" xlink:title=" ">
<polygon fill="white" stroke="black" points="184.5,-273 184.5,-303 324.5,-303 324.5,-273 184.5,-273"/>
<text text-anchor="start" x="192.5" y="-291" font-family="Helvetica,sans-Serif" font-size="10.00">TInterface::CPGenFileButton</text>
<text text-anchor="middle" x="254.5" y="-280" font-family="Helvetica,sans-Serif" font-size="10.00">Click</text>
</a>
</g>
</g>
<!-- Node10&#45;&gt;Node38 -->
<g id="edge36" class="edge">
<title>Node10&#45;&gt;Node38</title>
<path fill="none" stroke="midnightblue" d="M433.38,-1058.19C417.55,-938.74 335.23,-319.44 329,-312 326.16,-308.6 322.82,-305.68 319.18,-303.17"/>
<polygon fill="midnightblue" stroke="midnightblue" points="429.95,-1058.96 434.73,-1068.42 436.89,-1058.04 429.95,-1058.96"/>
</g>
<!-- Node39 -->
<g id="node37" class="node">
<title>Node39</title>
<g id="a_node37"><a xlink:href="class_t_interface.html#a1c8fab7fa2f1be662f2d7418e95e3a63" target="_top" xlink:title=" ">
<polygon fill="white" stroke="black" points="187,-224 187,-254 322,-254 322,-224 187,-224"/>
<text text-anchor="start" x="195" y="-242" font-family="Helvetica,sans-Serif" font-size="10.00">TInterface::CreateTimetable</text>
<text text-anchor="middle" x="254.5" y="-231" font-family="Helvetica,sans-Serif" font-size="10.00">MenuItemClick</text>
</a>
</g>
</g>
<!-- Node10&#45;&gt;Node39 -->
<g id="edge37" class="edge">
<title>Node10&#45;&gt;Node39</title>
<path fill="none" stroke="midnightblue" d="M433.29,-1058.3C423.73,-988.8 390.8,-748.53 365,-550 356.72,-486.26 369.91,-312.57 329,-263 326.18,-259.58 322.87,-256.65 319.23,-254.13"/>
<polygon fill="midnightblue" stroke="midnightblue" points="429.83,-1058.86 434.66,-1068.29 436.76,-1057.9 429.83,-1058.86"/>
</g>
<!-- Node40 -->
<g id="node38" class="node">
<title>Node40</title>
<g id="a_node38"><a xlink:href="class_t_interface.html#acd41ae8fa5d16248a867472d9c8ae646" target="_top" xlink:title=" ">
<polygon fill="white" stroke="black" points="183.5,-175 183.5,-205 325.5,-205 325.5,-175 183.5,-175"/>
<text text-anchor="start" x="191.5" y="-193" font-family="Helvetica,sans-Serif" font-size="10.00">TInterface::CutTTEntryButton</text>
<text text-anchor="middle" x="254.5" y="-182" font-family="Helvetica,sans-Serif" font-size="10.00">Click</text>
</a>
</g>
</g>
<!-- Node10&#45;&gt;Node40 -->
<g id="edge39" class="edge">
<title>Node10&#45;&gt;Node40</title>
<path fill="none" stroke="midnightblue" d="M433.16,-1058.32C423.17,-988.87 389.01,-748.75 365,-550 356,-475.45 376.27,-272.35 329,-214 326.21,-210.56 322.92,-207.6 319.3,-205.07"/>
<polygon fill="midnightblue" stroke="midnightblue" points="429.71,-1058.9 434.6,-1068.29 436.63,-1057.9 429.71,-1058.9"/>
</g>
<!-- Node41 -->
<g id="node39" class="node">
<title>Node41</title>
<g id="a_node39"><a xlink:href="class_t_interface.html#af9cb95043f5276df55cb6809e104c93a" target="_top" xlink:title=" ">
<polygon fill="white" stroke="black" points="194,-126 194,-156 315,-156 315,-126 194,-126"/>
<text text-anchor="start" x="202" y="-144" font-family="Helvetica,sans-Serif" font-size="10.00">TInterface::DeleteAllPref</text>
<text text-anchor="middle" x="254.5" y="-133" font-family="Helvetica,sans-Serif" font-size="10.00">DirButtonClick</text>
</a>
</g>
</g>
<!-- Node10&#45;&gt;Node41 -->
<g id="edge40" class="edge">
<title>Node10&#45;&gt;Node41</title>
<path fill="none" stroke="midnightblue" d="M433.06,-1058.33C422.76,-988.92 387.66,-748.91 365,-550 355.27,-464.62 382.64,-232.13 329,-165 325.23,-160.28 320.51,-156.48 315.3,-153.42"/>
<polygon fill="midnightblue" stroke="midnightblue" points="429.61,-1058.92 434.55,-1068.3 436.54,-1057.89 429.61,-1058.92"/>
</g>
<!-- Node42 -->
<g id="node40" class="node">
<title>Node42</title>
<g id="a_node40"><a xlink:href="class_t_interface.html#aff2c1cd6ed2d45fdcf6392a85a6d9415" target="_top" xlink:title=" ">
<polygon fill="white" stroke="black" points="187,-77 187,-107 322,-107 322,-77 187,-77"/>
<text text-anchor="start" x="195" y="-95" font-family="Helvetica,sans-Serif" font-size="10.00">TInterface::DeleteMenuItem</text>
<text text-anchor="middle" x="254.5" y="-84" font-family="Helvetica,sans-Serif" font-size="10.00">Click</text>
</a>
</g>
</g>
<!-- Node10&#45;&gt;Node42 -->
<g id="edge41" class="edge">
<title>Node10&#45;&gt;Node42</title>
<path fill="none" stroke="midnightblue" d="M432.99,-1058.34C422.44,-988.96 386.62,-749.03 365,-550 359.77,-501.9 359.01,-153.96 329,-116 326.34,-112.63 323.19,-109.73 319.72,-107.23"/>
<polygon fill="midnightblue" stroke="midnightblue" points="429.54,-1058.95 434.51,-1068.3 436.46,-1057.89 429.54,-1058.95"/>
</g>
<!-- Node43 -->
<g id="node41" class="node">
<title>Node43</title>
<g id="a_node41"><a xlink:href="class_t_interface.html#a3136530959237eaa57486f4f48357855" target="_top" xlink:title=" ">
<polygon fill="white" stroke="black" points="190.5,-1839 190.5,-1869 318.5,-1869 318.5,-1839 190.5,-1839"/>
<text text-anchor="start" x="198.5" y="-1857" font-family="Helvetica,sans-Serif" font-size="10.00">TInterface::DeleteOnePref</text>
<text text-anchor="middle" x="254.5" y="-1846" font-family="Helvetica,sans-Serif" font-size="10.00">DirButtonClick</text>
</a>
</g>
</g>
<!-- Node10&#45;&gt;Node43 -->
<g id="edge42" class="edge">
<title>Node10&#45;&gt;Node43</title>
<path fill="none" stroke="midnightblue" d="M435.89,-1097.89C434.89,-1205.05 425.11,-1713.08 329,-1829 325.82,-1832.84 322.02,-1836.09 317.85,-1838.84"/>
<polygon fill="midnightblue" stroke="midnightblue" points="439.39,-1097.84 435.97,-1087.81 432.39,-1097.78 439.39,-1097.84"/>
</g>
<!-- Node44 -->
<g id="node42" class="node">
<title>Node44</title>
<g id="a_node42"><a xlink:href="class_t_interface.html#abdd4a70649a10a29c9a069d040072808" target="_top" xlink:title=" ">
<polygon fill="white" stroke="black" points="191.5,-1790 191.5,-1820 317.5,-1820 317.5,-1790 191.5,-1790"/>
<text text-anchor="start" x="199.5" y="-1808" font-family="Helvetica,sans-Serif" font-size="10.00">TInterface::DeleteTTEntry</text>
<text text-anchor="middle" x="254.5" y="-1797" font-family="Helvetica,sans-Serif" font-size="10.00">ButtonClick</text>
</a>
</g>
</g>
<!-- Node10&#45;&gt;Node44 -->
<g id="edge43" class="edge">
<title>Node10&#45;&gt;Node44</title>
<path fill="none" stroke="midnightblue" d="M435.67,-1097.86C433.58,-1200.74 419.12,-1672.38 329,-1780 325.8,-1783.82 321.99,-1787.06 317.81,-1789.81"/>
<polygon fill="midnightblue" stroke="midnightblue" points="439.17,-1097.72 435.86,-1087.65 432.17,-1097.59 439.17,-1097.72"/>
</g>
<!-- Node45 -->
<g id="node43" class="node">
<title>Node45</title>
<g id="a_node43"><a xlink:href="class_t_interface.html#ac53c02024590fc44371ed3b7efc3ddde" target="_top" xlink:title=" ">
<polygon fill="white" stroke="black" points="190.5,-1751.5 190.5,-1770.5 318.5,-1770.5 318.5,-1751.5 190.5,-1751.5"/>
<text text-anchor="middle" x="254.5" y="-1758.5" font-family="Helvetica,sans-Serif" font-size="10.00">TInterface::EditMenuClick</text>
</a>
</g>
</g>
<!-- Node10&#45;&gt;Node45 -->
<g id="edge44" class="edge">
<title>Node10&#45;&gt;Node45</title>
<path fill="none" stroke="midnightblue" d="M435.6,-1097.79C433.18,-1197.37 417.51,-1642.61 329,-1741 325.11,-1745.33 320.38,-1748.76 315.23,-1751.47"/>
<polygon fill="midnightblue" stroke="midnightblue" points="439.1,-1097.71 435.83,-1087.63 432.1,-1097.55 439.1,-1097.71"/>
</g>
<!-- Node46 -->
<g id="node44" class="node">
<title>Node46</title>
<g id="a_node44"><a xlink:href="class_t_interface.html#a0cf35a6e4a6cfa72b63222acb51f9f74" target="_top" xlink:title=" ">
<polygon fill="white" stroke="black" points="192.5,-1702 192.5,-1732 316.5,-1732 316.5,-1702 192.5,-1702"/>
<text text-anchor="start" x="200.5" y="-1720" font-family="Helvetica,sans-Serif" font-size="10.00">TInterface::EditTimetable</text>
<text text-anchor="middle" x="254.5" y="-1709" font-family="Helvetica,sans-Serif" font-size="10.00">MenuItemClick</text>
</a>
</g>
</g>
<!-- Node10&#45;&gt;Node46 -->
<g id="edge45" class="edge">
<title>Node10&#45;&gt;Node46</title>
<path fill="none" stroke="midnightblue" d="M435.19,-1098.01C430.94,-1193.17 408.35,-1599.26 329,-1692 325.5,-1696.1 321.29,-1699.52 316.69,-1702.39"/>
<polygon fill="midnightblue" stroke="midnightblue" points="438.7,-1097.91 435.63,-1087.77 431.7,-1097.61 438.7,-1097.91"/>
</g>
<!-- Node47 -->
<g id="node45" class="node">
<title>Node47</title>
<g id="a_node45"><a xlink:href="class_t_interface.html#a9cfdb7521877f2c7ab124d0e4f47a0f6" target="_top" xlink:title=" ">
<polygon fill="white" stroke="black" points="192,-1653 192,-1683 317,-1683 317,-1653 192,-1653"/>
<text text-anchor="start" x="200" y="-1671" font-family="Helvetica,sans-Serif" font-size="10.00">TInterface::ExitMenuItem</text>
<text text-anchor="middle" x="254.5" y="-1660" font-family="Helvetica,sans-Serif" font-size="10.00">Click</text>
</a>
</g>
</g>
<!-- Node10&#45;&gt;Node47 -->
<g id="edge46" class="edge">
<title>Node10&#45;&gt;Node47</title>
<path fill="none" stroke="midnightblue" d="M434.87,-1097.83C429.35,-1187.99 402.44,-1558.42 329,-1643 325.64,-1646.87 321.66,-1650.14 317.32,-1652.9"/>
<polygon fill="midnightblue" stroke="midnightblue" points="438.36,-1098.04 435.46,-1087.85 431.37,-1097.62 438.36,-1098.04"/>
</g>
<!-- Node48 -->
<g id="node46" class="node">
<title>Node48</title>
<g id="a_node46"><a xlink:href="class_t_interface.html#a3e59d6f1f39ffe34a9d6e7bf930acbff" target="_top" xlink:title=" ">
<polygon fill="white" stroke="black" points="192.5,-1604 192.5,-1634 316.5,-1634 316.5,-1604 192.5,-1604"/>
<text text-anchor="start" x="200.5" y="-1622" font-family="Helvetica,sans-Serif" font-size="10.00">TInterface::ExitOperation</text>
<text text-anchor="middle" x="254.5" y="-1611" font-family="Helvetica,sans-Serif" font-size="10.00">ButtonClick</text>
</a>
</g>
</g>
<!-- Node10&#45;&gt;Node48 -->
<g id="edge47" class="edge">
<title>Node10&#45;&gt;Node48</title>
<path fill="none" stroke="midnightblue" d="M434.47,-1097.98C427.54,-1183.47 396.47,-1517.64 329,-1594 325.43,-1598.04 321.18,-1601.43 316.55,-1604.27"/>
<polygon fill="midnightblue" stroke="midnightblue" points="437.97,-1098.06 435.27,-1087.81 431,-1097.51 437.97,-1098.06"/>
</g>
<!-- Node49 -->
<g id="node47" class="node">
<title>Node49</title>
<g id="a_node47"><a xlink:href="class_t_interface.html#ab2a25d27dcbae558b8f9a4ac62937523" target="_top" xlink:title=" ">
<polygon fill="white" stroke="black" points="184.5,-1555 184.5,-1585 324.5,-1585 324.5,-1555 184.5,-1555"/>
<text text-anchor="start" x="192.5" y="-1573" font-family="Helvetica,sans-Serif" font-size="10.00">TInterface::ExitPrefDirButton</text>
<text text-anchor="middle" x="254.5" y="-1562" font-family="Helvetica,sans-Serif" font-size="10.00">Click</text>
</a>
</g>
</g>
<!-- Node10&#45;&gt;Node49 -->
<g id="edge48" class="edge">
<title>Node10&#45;&gt;Node49</title>
<path fill="none" stroke="midnightblue" d="M434.01,-1097.84C425.62,-1177.97 390.61,-1476.72 329,-1545 325.48,-1548.9 321.32,-1552.2 316.81,-1554.98"/>
<polygon fill="midnightblue" stroke="midnightblue" points="437.52,-1097.96 435.06,-1087.66 430.56,-1097.25 437.52,-1097.96"/>
</g>
<!-- Node50 -->
<g id="node48" class="node">
<title>Node50</title>
<g id="a_node48"><a xlink:href="class_t_interface.html#ad0fa9f32b059b346e066ab23d62a4bfc" target="_top" xlink:title=" ">
<polygon fill="white" stroke="black" points="187.5,-1506 187.5,-1536 321.5,-1536 321.5,-1506 187.5,-1506"/>
<text text-anchor="start" x="195.5" y="-1524" font-family="Helvetica,sans-Serif" font-size="10.00">TInterface::ExitTrackButton</text>
<text text-anchor="middle" x="254.5" y="-1513" font-family="Helvetica,sans-Serif" font-size="10.00">Click</text>
</a>
</g>
</g>
<!-- Node10&#45;&gt;Node50 -->
<g id="edge49" class="edge">
<title>Node10&#45;&gt;Node50</title>
<path fill="none" stroke="midnightblue" d="M436.73,-1097.94C438.01,-1162.96 433.39,-1371.59 329,-1491 323.65,-1497.12 316.86,-1502.02 309.58,-1505.92"/>
<polygon fill="midnightblue" stroke="midnightblue" points="440.22,-1097.73 436.45,-1087.83 433.22,-1097.92 440.22,-1097.73"/>
</g>
<!-- Node10&#45;&gt;Node128 -->
<g id="edge53" class="edge">
<title>Node10&#45;&gt;Node128</title>
<path fill="none" stroke="midnightblue" d="M436.34,-1097.81C437.94,-1215.04 440.61,-1817.6 329,-1955 325.86,-1958.87 322.09,-1962.15 317.93,-1964.91"/>
<polygon fill="midnightblue" stroke="midnightblue" points="439.84,-1097.69 436.19,-1087.74 432.84,-1097.8 439.84,-1097.69"/>
</g>
<!-- Node10&#45;&gt;Node152 -->
<g id="edge54" class="edge">
<title>Node10&#45;&gt;Node152</title>
<path fill="none" stroke="midnightblue" d="M436.22,-1097.55C437.11,-1210.85 436.2,-1782.48 329,-1912 323.78,-1918.31 316.87,-1922.97 309.38,-1926.42"/>
<polygon fill="midnightblue" stroke="midnightblue" points="439.72,-1097.51 436.13,-1087.54 432.72,-1097.57 439.72,-1097.51"/>
</g>
<!-- Node152&#45;&gt;Node32 -->
<g id="edge55" class="edge">
<title>Node152&#45;&gt;Node32</title>
<path fill="none" stroke="midnightblue" d="M183.88,-1928.67C166.62,-1926.85 148.29,-1924.93 131.62,-1923.17"/>
<polygon fill="midnightblue" stroke="midnightblue" points="183.59,-1932.16 193.9,-1929.73 184.32,-1925.2 183.59,-1932.16"/>
</g>
</g>
</svg>
