<?xml version="1.0" encoding="UTF-8" standalone="no"?>
<!DOCTYPE svg PUBLIC "-//W3C//DTD SVG 1.1//EN"
 "http://www.w3.org/Graphics/SVG/1.1/DTD/svg11.dtd">
<!-- Generated by graphviz version 2.44.1 (20200629.0800)
 -->
<!-- Title: TTrack::IsLCBarrierDownAtHV Pages: 1 -->
<!--zoomable 390 -->
<svg id="main" version="1.1" xmlns="http://www.w3.org/2000/svg" xmlns:xlink="http://www.w3.org/1999/xlink" xml:space="preserve" onload="init(evt)">
<style type="text/css"><![CDATA[
.edge:hover path { stroke: red; }
.edge:hover polygon { stroke: red; fill: red; }
]]></style>
<script type="text/javascript"><![CDATA[
var edges = document.getElementsByTagName('g');
if (edges && edges.length) {
  for (var i=0;i<edges.length;i++) {
    if (edges[i].id.substr(0,4)=='edge') {
      edges[i].setAttribute('class','edge');
    }
  }
}
]]></script>
        <defs>
                <circle id="rim" cx="0" cy="0" r="7"/>
                <circle id="rim2" cx="0" cy="0" r="3.5"/>
                <g id="zoomPlus">
                        <use xlink:href="#rim" fill="#404040">
                                <set attributeName="fill" to="#808080" begin="zoomplus.mouseover" end="zoomplus.mouseout"/>
                        </use>
                        <path d="M-4,0h8M0,-4v8" fill="none" stroke="white" stroke-width="1.5" pointer-events="none"/>
                </g>
                <g id="zoomMin">
                        <use xlink:href="#rim" fill="#404040">
                                <set attributeName="fill" to="#808080" begin="zoomminus.mouseover" end="zoomminus.mouseout"/>
                        </use>
                        <path d="M-4,0h8" fill="none" stroke="white" stroke-width="1.5" pointer-events="none"/>
                </g>
                <g id="dirArrow">
                        <path fill="none" stroke="white" stroke-width="1.5" d="M0,-3.0v7 M-2.5,-0.5L0,-3.0L2.5,-0.5"/>
                </g>
               <g id="resetDef">
                       <use xlink:href="#rim2" fill="#404040">
                               <set attributeName="fill" to="#808080" begin="reset.mouseover" end="reset.mouseout"/>
                       </use>
               </g>
        </defs>

<script type="text/javascript">
var viewWidth = 1945;
var viewHeight = 390;
var sectionId = 'dynsection-118';
</script>
<script xlink:href="svgpan.js"/>
<svg id="graph" class="graph">
<g id="viewport">
<title>TTrack::IsLCBarrierDownAtHV</title>
<polygon fill="white" stroke="transparent" points="-4,4 -4,-386.4 1941,-386.4 1941,4 -4,4"/>
<!-- Node1 -->
<g id="node1" class="node">
<title>Node1</title>
<g id="a_node1"><a xlink:title="True if an open (to trains) level crossing is found at H &amp; V.">
<polygon fill="#bfbfbf" stroke="black" points="1790,-162.5 1790,-181.5 1937,-181.5 1937,-162.5 1790,-162.5"/>
<text text-anchor="middle" x="1863.5" y="-169.5" font-family="Helvetica,sans-Serif" font-size="10.00">TTrack::IsLCBarrierDownAtHV</text>
</a>
</g>
</g>
<!-- Node2 -->
<g id="node2" class="node">
<title>Node2</title>
<g id="a_node2"><a xlink:href="class_t_one_route.html#a4d92e68782eea0534a02e1b8176bc730" target="_top" xlink:title="Used when setting signal aspects for a route by working forwards through the route to see what the ne...">
<polygon fill="white" stroke="black" points="1402,-132 1402,-162 1554,-162 1554,-132 1402,-132"/>
<text text-anchor="start" x="1410" y="-150" font-family="Helvetica,sans-Serif" font-size="10.00">TOneRoute::FindForwardTarget</text>
<text text-anchor="middle" x="1478" y="-139" font-family="Helvetica,sans-Serif" font-size="10.00">SignalAttribute</text>
</a>
</g>
</g>
<!-- Node1&#45;&gt;Node2 -->
<g id="edge1" class="edge">
<title>Node1&#45;&gt;Node2</title>
<path fill="none" stroke="midnightblue" d="M1779.81,-166.61C1712.8,-162.24 1619.16,-156.14 1554.24,-151.9"/>
<polygon fill="midnightblue" stroke="midnightblue" points="1779.71,-170.11 1789.92,-167.27 1780.16,-163.13 1779.71,-170.11"/>
</g>
<!-- Node6 -->
<g id="node6" class="node">
<title>Node6</title>
<g id="a_node6"><a xlink:href="class_t_train.html#a89ad640ecf8f5163c40727b4e28575fc" target="_top" xlink:title="Major function called at each clock tick for each train &amp; handles all train movement &amp; associated act...">
<polygon fill="white" stroke="black" points="495,-264.5 495,-283.5 596,-283.5 596,-264.5 495,-264.5"/>
<text text-anchor="middle" x="545.5" y="-271.5" font-family="Helvetica,sans-Serif" font-size="10.00">TTrain::UpdateTrain</text>
</a>
</g>
</g>
<!-- Node1&#45;&gt;Node6 -->
<g id="edge35" class="edge">
<title>Node1&#45;&gt;Node6</title>
<path fill="none" stroke="midnightblue" d="M1846.03,-188.64C1795.83,-237.47 1638.45,-377 1479,-377 1479,-377 1479,-377 910,-377 785.86,-377 745.76,-399.68 632,-350 597.42,-334.9 567.07,-300.35 553.72,-283.54"/>
<polygon fill="midnightblue" stroke="midnightblue" points="1848.49,-191.13 1853.15,-181.61 1843.57,-186.14 1848.49,-191.13"/>
</g>
<!-- Node13 -->
<g id="node13" class="node">
<title>Node13</title>
<g id="a_node13"><a xlink:href="class_t_interface.html#abf07d5edc1507de381825f17620748b2" target="_top" xlink:title="Called when mouse button clicked in zoom&#45;in mode.">
<polygon fill="white" stroke="black" points="838,-7 838,-37 984,-37 984,-7 838,-7"/>
<text text-anchor="start" x="846" y="-25" font-family="Helvetica,sans-Serif" font-size="10.00">TInterface::MainScreenMouse</text>
<text text-anchor="middle" x="911" y="-14" font-family="Helvetica,sans-Serif" font-size="10.00">Down2</text>
</a>
</g>
</g>
<!-- Node1&#45;&gt;Node13 -->
<g id="edge23" class="edge">
<title>Node1&#45;&gt;Node13</title>
<path fill="none" stroke="midnightblue" d="M1842.69,-155.79C1788.25,-112.95 1630.38,0 1479,0 1479,0 1479,0 1289,0 1182.79,0 1060.03,-8.81 984.2,-15.28"/>
<polygon fill="midnightblue" stroke="midnightblue" points="1840.8,-158.76 1850.8,-162.26 1845.16,-153.29 1840.8,-158.76"/>
</g>
<!-- Node17 -->
<g id="node17" class="node">
<title>Node17</title>
<g id="a_node17"><a xlink:href="class_t_one_route.html#a55e04e36f652344b5215f8a28143c4a3" target="_top" xlink:title="Called by TAllRoutes::SetAllRearwardsSignals to set rearwards signals from a specified starting posit...">
<polygon fill="white" stroke="black" points="1590,-179 1590,-209 1754,-209 1754,-179 1590,-179"/>
<text text-anchor="start" x="1598" y="-197" font-family="Helvetica,sans-Serif" font-size="10.00">TOneRoute::SetRearwardsSignals</text>
<text text-anchor="middle" x="1672" y="-186" font-family="Helvetica,sans-Serif" font-size="10.00">ReturnFalseForTrain</text>
</a>
</g>
</g>
<!-- Node1&#45;&gt;Node17 -->
<g id="edge24" class="edge">
<title>Node1&#45;&gt;Node17</title>
<path fill="none" stroke="midnightblue" d="M1779.82,-181.6C1771.27,-182.59 1762.58,-183.6 1754.05,-184.59"/>
<polygon fill="midnightblue" stroke="midnightblue" points="1780.25,-185.07 1789.78,-180.44 1779.44,-178.12 1780.25,-185.07"/>
</g>
<!-- Node3 -->
<g id="node3" class="node">
<title>Node3</title>
<g id="a_node3"><a xlink:href="class_t_one_route.html#a4dfe3a028da7a4b6df0f44f33c3e2196" target="_top" xlink:title="Called when setting a route to set all points appropriately. Also called when a new train is added at...">
<polygon fill="white" stroke="black" points="1218,-137.5 1218,-156.5 1362,-156.5 1362,-137.5 1218,-137.5"/>
<text text-anchor="middle" x="1290" y="-144.5" font-family="Helvetica,sans-Serif" font-size="10.00">TOneRoute::SetRouteSignals</text>
</a>
</g>
</g>
<!-- Node2&#45;&gt;Node3 -->
<g id="edge2" class="edge">
<title>Node2&#45;&gt;Node3</title>
<path fill="none" stroke="midnightblue" d="M1391.67,-147C1381.8,-147 1371.83,-147 1362.18,-147"/>
<polygon fill="midnightblue" stroke="midnightblue" points="1391.88,-150.5 1401.88,-147 1391.88,-143.5 1391.88,-150.5"/>
</g>
<!-- Node4 -->
<g id="node4" class="node">
<title>Node4</title>
<g id="a_node4"><a xlink:href="class_t_train_controller.html#aa895b60238810a9d134cd5b9c886da56" target="_top" xlink:title="Introduce a new train to the railway, with the characteristics specified, returns true for success,...">
<polygon fill="white" stroke="black" points="847,-306.5 847,-325.5 975,-325.5 975,-306.5 847,-306.5"/>
<text text-anchor="middle" x="911" y="-313.5" font-family="Helvetica,sans-Serif" font-size="10.00">TTrainController::AddTrain</text>
</a>
</g>
</g>
<!-- Node3&#45;&gt;Node4 -->
<g id="edge3" class="edge">
<title>Node3&#45;&gt;Node4</title>
<path fill="none" stroke="midnightblue" d="M1263.1,-162.11C1247.31,-172.34 1227.61,-187.05 1214,-204 1190.09,-233.77 1208.79,-259.42 1178,-282 1146.7,-304.95 1043.32,-312.43 975.04,-314.85"/>
<polygon fill="midnightblue" stroke="midnightblue" points="1265.25,-164.89 1271.87,-156.62 1261.54,-158.95 1265.25,-164.89"/>
</g>
<!-- Node3&#45;&gt;Node6 -->
<g id="edge22" class="edge">
<title>Node3&#45;&gt;Node6</title>
<path fill="none" stroke="midnightblue" d="M1207.41,-148.06C1116.5,-150.51 965.53,-158.32 838,-183 736.24,-202.69 619.9,-245.38 570.6,-264.45"/>
<polygon fill="midnightblue" stroke="midnightblue" points="1207.74,-151.56 1217.65,-147.8 1207.56,-144.56 1207.74,-151.56"/>
</g>
<!-- Node7 -->
<g id="node7" class="node">
<title>Node7</title>
<g id="a_node7"><a xlink:href="class_t_train_controller.html#a20a1576dea1d86ed78fc5e9f46343481" target="_top" xlink:title="called every clock tick to introduce new trains and update existing trains">
<polygon fill="white" stroke="black" points="334,-180.5 334,-199.5 459,-199.5 459,-180.5 334,-180.5"/>
<text text-anchor="middle" x="396.5" y="-187.5" font-family="Helvetica,sans-Serif" font-size="10.00">TTrainController::Operate</text>
</a>
</g>
</g>
<!-- Node3&#45;&gt;Node7 -->
<g id="edge21" class="edge">
<title>Node3&#45;&gt;Node7</title>
<path fill="none" stroke="midnightblue" d="M1207.82,-139.86C1131.52,-133.77 1014.1,-126 912,-126 912,-126 912,-126 716,-126 606.87,-126 480.75,-162.56 425.67,-180.42"/>
<polygon fill="midnightblue" stroke="midnightblue" points="1207.59,-143.35 1217.84,-140.67 1208.16,-136.38 1207.59,-143.35"/>
</g>
<!-- Node11 -->
<g id="node11" class="node">
<title>Node11</title>
<g id="a_node11"><a xlink:href="class_t_one_route.html#a53496c398dcdb3a644801c4e74d47d01" target="_top" xlink:title="Called after a non&#45;preferred (i.e. unrestricted) route has been selected and has finished flashing,...">
<polygon fill="white" stroke="black" points="1020,-29 1020,-59 1178,-59 1178,-29 1020,-29"/>
<text text-anchor="start" x="1028" y="-47" font-family="Helvetica,sans-Serif" font-size="10.00">TOneRoute::ConvertAndAdd</text>
<text text-anchor="middle" x="1099" y="-36" font-family="Helvetica,sans-Serif" font-size="10.00">NonPreferredRouteSearchVector</text>
</a>
</g>
</g>
<!-- Node3&#45;&gt;Node11 -->
<g id="edge12" class="edge">
<title>Node3&#45;&gt;Node11</title>
<path fill="none" stroke="midnightblue" d="M1265.1,-132.02C1250.29,-122.67 1230.94,-110.29 1214,-99 1197.79,-88.19 1195.21,-83.12 1178,-74 1167.49,-68.43 1155.71,-63.35 1144.55,-59.02"/>
<polygon fill="midnightblue" stroke="midnightblue" points="1263.34,-135.05 1273.66,-137.42 1267.07,-129.13 1263.34,-135.05"/>
</g>
<!-- Node12 -->
<g id="node12" class="node">
<title>Node12</title>
<g id="a_node12"><a xlink:href="class_t_interface.html#a7e6535742855a19cb3e35b1711a7ab59" target="_top" xlink:title="Deal with any warning graphics that need to flash (call on, signal stop, crash etc),...">
<polygon fill="white" stroke="black" points="841,-78.5 841,-97.5 981,-97.5 981,-78.5 841,-78.5"/>
<text text-anchor="middle" x="911" y="-85.5" font-family="Helvetica,sans-Serif" font-size="10.00">TInterface::FlashingGraphics</text>
</a>
</g>
</g>
<!-- Node3&#45;&gt;Node12 -->
<g id="edge20" class="edge">
<title>Node3&#45;&gt;Node12</title>
<path fill="none" stroke="midnightblue" d="M1254.42,-133.98C1232.77,-126.35 1204.12,-117.23 1178,-112 1111.96,-98.77 1035.23,-92.83 981.2,-90.16"/>
<polygon fill="midnightblue" stroke="midnightblue" points="1253.24,-137.27 1263.84,-137.35 1255.6,-130.68 1253.24,-137.27"/>
</g>
<!-- Node15 -->
<g id="node15" class="node">
<title>Node15</title>
<g id="a_node15"><a xlink:href="class_t_one_route.html#a36ba8adc8b4a47908ee4e1b8e75792ca" target="_top" xlink:title="Called after a preferred (i.e. preferred direction or automatic signals) route has been selected and ...">
<polygon fill="white" stroke="black" points="1029,-193 1029,-223 1169,-223 1169,-193 1029,-193"/>
<text text-anchor="start" x="1037" y="-211" font-family="Helvetica,sans-Serif" font-size="10.00">TOneRoute::ConvertAndAdd</text>
<text text-anchor="middle" x="1099" y="-200" font-family="Helvetica,sans-Serif" font-size="10.00">PreferredRouteSearchVector</text>
</a>
</g>
</g>
<!-- Node3&#45;&gt;Node15 -->
<g id="edge17" class="edge">
<title>Node3&#45;&gt;Node15</title>
<path fill="none" stroke="midnightblue" d="M1249.36,-159.65C1237.94,-163.3 1225.47,-167.3 1214,-171 1191.72,-178.18 1167.01,-186.2 1146.3,-192.92"/>
<polygon fill="midnightblue" stroke="midnightblue" points="1250.61,-162.93 1259.06,-156.55 1248.47,-156.26 1250.61,-162.93"/>
</g>
<!-- Node5 -->
<g id="node5" class="node">
<title>Node5</title>
<g id="a_node5"><a xlink:href="class_t_train.html#ad666fb061d1da7c44a72ec963c2098aa" target="_top" xlink:title="Carry out the actions needed when a train is to split from the front.">
<polygon fill="white" stroke="black" points="661,-321.5 661,-340.5 773,-340.5 773,-321.5 661,-321.5"/>
<text text-anchor="middle" x="717" y="-328.5" font-family="Helvetica,sans-Serif" font-size="10.00">TTrain::FrontTrainSplit</text>
</a>
</g>
</g>
<!-- Node4&#45;&gt;Node5 -->
<g id="edge4" class="edge">
<title>Node4&#45;&gt;Node5</title>
<path fill="none" stroke="midnightblue" d="M836.65,-321.73C815.55,-323.38 792.9,-325.15 773.1,-326.69"/>
<polygon fill="midnightblue" stroke="midnightblue" points="837.17,-325.2 846.87,-320.93 836.62,-318.22 837.17,-325.2"/>
</g>
<!-- Node4&#45;&gt;Node7 -->
<g id="edge9" class="edge">
<title>Node4&#45;&gt;Node7</title>
<path fill="none" stroke="midnightblue" d="M877.44,-329.11C856.32,-336.9 828,-346 802,-350 727.32,-361.48 706.09,-364.8 632,-350 567.33,-337.08 549.3,-330.43 495,-293 455.06,-265.47 418.85,-219.32 404.29,-199.5"/>
<polygon fill="midnightblue" stroke="midnightblue" points="878.78,-332.35 886.9,-325.54 876.3,-325.8 878.78,-332.35"/>
</g>
<!-- Node10 -->
<g id="node10" class="node">
<title>Node10</title>
<g id="a_node10"><a xlink:href="class_t_train.html#ad64c5823265b0c611c2e5f0613317aa5" target="_top" xlink:title="Carry out the actions needed when a train is to split from the rear.">
<polygon fill="white" stroke="black" points="662,-283.5 662,-302.5 772,-302.5 772,-283.5 662,-283.5"/>
<text text-anchor="middle" x="717" y="-290.5" font-family="Helvetica,sans-Serif" font-size="10.00">TTrain::RearTrainSplit</text>
</a>
</g>
</g>
<!-- Node4&#45;&gt;Node10 -->
<g id="edge10" class="edge">
<title>Node4&#45;&gt;Node10</title>
<path fill="none" stroke="midnightblue" d="M836.8,-307.23C815.32,-304.66 792.22,-301.89 772.16,-299.49"/>
<polygon fill="midnightblue" stroke="midnightblue" points="836.52,-310.72 846.87,-308.44 837.35,-303.77 836.52,-310.72"/>
</g>
<!-- Node5&#45;&gt;Node6 -->
<g id="edge5" class="edge">
<title>Node5&#45;&gt;Node6</title>
<path fill="none" stroke="midnightblue" d="M656.28,-319.01C648.06,-316.92 639.77,-314.58 632,-312 608.26,-304.12 582.14,-291.97 565.1,-283.54"/>
<polygon fill="midnightblue" stroke="midnightblue" points="655.71,-322.48 666.25,-321.44 657.37,-315.67 655.71,-322.48"/>
</g>
<!-- Node6&#45;&gt;Node7 -->
<g id="edge6" class="edge">
<title>Node6&#45;&gt;Node7</title>
<path fill="none" stroke="midnightblue" d="M518.57,-259.18C488.44,-241.97 439.63,-214.08 414.17,-199.52"/>
<polygon fill="midnightblue" stroke="midnightblue" points="517.22,-262.44 527.64,-264.36 520.69,-256.36 517.22,-262.44"/>
</g>
<!-- Node8 -->
<g id="node8" class="node">
<title>Node8</title>
<g id="a_node8"><a xlink:href="class_t_interface.html#a6139ffb52492eb89e5487a8a3cd647b5" target="_top" xlink:title="The main loop, called every clock tick via MasterClockTimer.">
<polygon fill="white" stroke="black" points="179,-97.5 179,-116.5 298,-116.5 298,-97.5 179,-97.5"/>
<text text-anchor="middle" x="238.5" y="-104.5" font-family="Helvetica,sans-Serif" font-size="10.00">TInterface::ClockTimer2</text>
</a>
</g>
</g>
<!-- Node7&#45;&gt;Node8 -->
<g id="edge7" class="edge">
<title>Node7&#45;&gt;Node8</title>
<path fill="none" stroke="midnightblue" d="M368.45,-175.61C336.7,-158.72 284.96,-131.18 257.67,-116.67"/>
<polygon fill="midnightblue" stroke="midnightblue" points="367.13,-178.87 377.6,-180.48 370.42,-172.69 367.13,-178.87"/>
</g>
<!-- Node9 -->
<g id="node9" class="node">
<title>Node9</title>
<g id="a_node9"><a xlink:href="class_t_interface.html#ace30a12d923fc7fb489afabb0a09aa4f" target="_top" xlink:title=" ">
<polygon fill="white" stroke="black" points="0,-97.5 0,-116.5 143,-116.5 143,-97.5 0,-97.5"/>
<text text-anchor="middle" x="71.5" y="-104.5" font-family="Helvetica,sans-Serif" font-size="10.00">TInterface::MasterClockTimer</text>
</a>
</g>
</g>
<!-- Node8&#45;&gt;Node9 -->
<g id="edge8" class="edge">
<title>Node8&#45;&gt;Node9</title>
<path fill="none" stroke="midnightblue" d="M168.67,-107C160.22,-107 151.57,-107 143.09,-107"/>
<polygon fill="midnightblue" stroke="midnightblue" points="168.86,-110.5 178.86,-107 168.86,-103.5 168.86,-110.5"/>
</g>
<!-- Node10&#45;&gt;Node6 -->
<g id="edge11" class="edge">
<title>Node10&#45;&gt;Node6</title>
<path fill="none" stroke="midnightblue" d="M651.81,-285.8C633.35,-283.74 613.5,-281.51 596.06,-279.56"/>
<polygon fill="midnightblue" stroke="midnightblue" points="651.58,-289.3 661.9,-286.94 652.36,-282.34 651.58,-289.3"/>
</g>
<!-- Node11&#45;&gt;Node12 -->
<g id="edge13" class="edge">
<title>Node11&#45;&gt;Node12</title>
<path fill="none" stroke="midnightblue" d="M1024.46,-61.4C999.84,-67.22 973.31,-73.5 952.21,-78.49"/>
<polygon fill="midnightblue" stroke="midnightblue" points="1025.58,-64.73 1034.51,-59.02 1023.97,-57.92 1025.58,-64.73"/>
</g>
<!-- Node11&#45;&gt;Node13 -->
<g id="edge15" class="edge">
<title>Node11&#45;&gt;Node13</title>
<path fill="none" stroke="midnightblue" d="M1009.88,-33.58C1001.29,-32.56 992.65,-31.54 984.24,-30.54"/>
<polygon fill="midnightblue" stroke="midnightblue" points="1009.59,-37.07 1019.93,-34.77 1010.41,-30.12 1009.59,-37.07"/>
</g>
<!-- Node12&#45;&gt;Node8 -->
<g id="edge14" class="edge">
<title>Node12&#45;&gt;Node8</title>
<path fill="none" stroke="midnightblue" d="M830.4,-90.26C693.99,-94.12 418.64,-101.92 298.17,-105.34"/>
<polygon fill="midnightblue" stroke="midnightblue" points="830.87,-93.74 840.77,-89.96 830.67,-86.75 830.87,-93.74"/>
</g>
<!-- Node14 -->
<g id="node14" class="node">
<title>Node14</title>
<g id="a_node14"><a xlink:href="class_t_interface.html#a7f37862fb9e01e1328d9fd3fd8c50094" target="_top" xlink:title=" ">
<polygon fill="white" stroke="black" points="632,-12.5 632,-31.5 802,-31.5 802,-12.5 632,-12.5"/>
<text text-anchor="middle" x="717" y="-19.5" font-family="Helvetica,sans-Serif" font-size="10.00">TInterface::MainScreenMouseDown</text>
</a>
</g>
</g>
<!-- Node13&#45;&gt;Node14 -->
<g id="edge16" class="edge">
<title>Node13&#45;&gt;Node14</title>
<path fill="none" stroke="midnightblue" d="M827.7,-22C819.22,-22 810.58,-22 802.08,-22"/>
<polygon fill="midnightblue" stroke="midnightblue" points="827.96,-25.5 837.96,-22 827.96,-18.5 827.96,-25.5"/>
</g>
<!-- Node15&#45;&gt;Node12 -->
<g id="edge18" class="edge">
<title>Node15&#45;&gt;Node12</title>
<path fill="none" stroke="midnightblue" d="M1065.96,-187.33C1025.27,-161.08 956.76,-116.88 926.79,-97.54"/>
<polygon fill="midnightblue" stroke="midnightblue" points="1064.14,-190.32 1074.44,-192.8 1067.94,-184.44 1064.14,-190.32"/>
</g>
<!-- Node16 -->
<g id="node16" class="node">
<title>Node16</title>
<g id="a_node16"><a xlink:href="class_t_interface.html#aa639148521a793641e694b15486b5055" target="_top" xlink:title=" ">
<polygon fill="white" stroke="black" points="847,-193 847,-223 975,-223 975,-193 847,-193"/>
<text text-anchor="start" x="855" y="-211" font-family="Helvetica,sans-Serif" font-size="10.00">TInterface::PresetAutoSig</text>
<text text-anchor="middle" x="911" y="-200" font-family="Helvetica,sans-Serif" font-size="10.00">RoutesButtonClick</text>
</a>
</g>
</g>
<!-- Node15&#45;&gt;Node16 -->
<g id="edge19" class="edge">
<title>Node15&#45;&gt;Node16</title>
<path fill="none" stroke="midnightblue" d="M1018.33,-208C1003.91,-208 989.05,-208 975.17,-208"/>
<polygon fill="midnightblue" stroke="midnightblue" points="1018.74,-211.5 1028.74,-208 1018.74,-204.5 1018.74,-211.5"/>
</g>
<!-- Node18 -->
<g id="node18" class="node">
<title>Node18</title>
<g id="a_node18"><a xlink:href="class_t_all_routes.html#ac6bd39457747eaa96476a8a87df15ac2" target="_top" xlink:title="Set rearwards signals from the specified route starting position.">
<polygon fill="white" stroke="black" points="1407,-181 1407,-211 1549,-211 1549,-181 1407,-181"/>
<text text-anchor="start" x="1415" y="-199" font-family="Helvetica,sans-Serif" font-size="10.00">TAllRoutes::SetAllRearwards</text>
<text text-anchor="middle" x="1478" y="-188" font-family="Helvetica,sans-Serif" font-size="10.00">Signals</text>
</a>
</g>
</g>
<!-- Node17&#45;&gt;Node18 -->
<g id="edge25" class="edge">
<title>Node17&#45;&gt;Node18</title>
<path fill="none" stroke="midnightblue" d="M1579.66,-194.95C1569.43,-195.06 1559.13,-195.17 1549.22,-195.27"/>
<polygon fill="midnightblue" stroke="midnightblue" points="1579.89,-198.45 1589.85,-194.85 1579.82,-191.45 1579.89,-198.45"/>
</g>
<!-- Node18&#45;&gt;Node3 -->
<g id="edge34" class="edge">
<title>Node18&#45;&gt;Node3</title>
<path fill="none" stroke="midnightblue" d="M1410.19,-178.4C1382.18,-171.02 1350.73,-162.73 1327.17,-156.53"/>
<polygon fill="midnightblue" stroke="midnightblue" points="1409.37,-181.8 1419.93,-180.97 1411.15,-175.03 1409.37,-181.8"/>
</g>
<!-- Node18&#45;&gt;Node4 -->
<g id="edge26" class="edge">
<title>Node18&#45;&gt;Node4</title>
<path fill="none" stroke="midnightblue" d="M1458.13,-219.06C1437.95,-241.9 1403.72,-275.75 1366,-292 1234.62,-348.62 1061.7,-337.09 971.91,-325.54"/>
<polygon fill="midnightblue" stroke="midnightblue" points="1461.03,-221.05 1464.91,-211.19 1455.73,-216.48 1461.03,-221.05"/>
</g>
<!-- Node18&#45;&gt;Node11 -->
<g id="edge27" class="edge">
<title>Node18&#45;&gt;Node11</title>
<path fill="none" stroke="midnightblue" d="M1411.23,-176.54C1408.02,-174.84 1404.92,-172.99 1402,-171 1381.4,-156.97 1386.71,-141.86 1366,-128 1309.15,-89.95 1234.06,-68.32 1178.16,-56.57"/>
<polygon fill="midnightblue" stroke="midnightblue" points="1409.96,-179.81 1420.48,-180.99 1412.99,-173.5 1409.96,-179.81"/>
</g>
<!-- Node18&#45;&gt;Node15 -->
<g id="edge28" class="edge">
<title>Node18&#45;&gt;Node15</title>
<path fill="none" stroke="midnightblue" d="M1396.77,-198.34C1344.68,-199.89 1275.32,-201.99 1214,-204 1199.45,-204.48 1183.86,-205.01 1169.02,-205.53"/>
<polygon fill="midnightblue" stroke="midnightblue" points="1397.06,-201.84 1406.95,-198.04 1396.85,-194.84 1397.06,-201.84"/>
</g>
<!-- Node19 -->
<g id="node19" class="node">
<title>Node19</title>
<g id="a_node19"><a xlink:href="class_t_one_route.html#a491fff1e619a9dc79774acf85eed72a5" target="_top" xlink:title="Cancel a route immediately if a train occupies it when travelling in the wrong direction (or occupies...">
<polygon fill="white" stroke="black" points="1214,-263.5 1214,-282.5 1366,-282.5 1366,-263.5 1214,-263.5"/>
<text text-anchor="middle" x="1290" y="-270.5" font-family="Helvetica,sans-Serif" font-size="10.00">TOneRoute::ForceCancelRoute</text>
</a>
</g>
</g>
<!-- Node18&#45;&gt;Node19 -->
<g id="edge29" class="edge">
<title>Node18&#45;&gt;Node19</title>
<path fill="none" stroke="midnightblue" d="M1442.52,-216.14C1421.04,-228.06 1392.53,-242.78 1366,-253 1355.56,-257.02 1344.01,-260.53 1333.16,-263.45"/>
<polygon fill="midnightblue" stroke="midnightblue" points="1444.26,-219.17 1451.27,-211.22 1440.83,-213.07 1444.26,-219.17"/>
</g>
<!-- Node21 -->
<g id="node21" class="node">
<title>Node21</title>
<g id="a_node21"><a xlink:href="class_t_one_route.html#afe23206f22e1ffaafe1a5fe866d2b8ec" target="_top" xlink:title="Examines the route to see whether the element at H &amp; V is in the route, and if not returns a ReturnFl...">
<polygon fill="white" stroke="black" points="1215,-214 1215,-244 1365,-244 1365,-214 1215,-214"/>
<text text-anchor="start" x="1223" y="-232" font-family="Helvetica,sans-Serif" font-size="10.00">TOneRoute::GetRouteTruncate</text>
<text text-anchor="middle" x="1290" y="-221" font-family="Helvetica,sans-Serif" font-size="10.00">Element</text>
</a>
</g>
</g>
<!-- Node18&#45;&gt;Node21 -->
<g id="edge33" class="edge">
<title>Node18&#45;&gt;Node21</title>
<path fill="none" stroke="midnightblue" d="M1396.89,-210.21C1386.31,-212.09 1375.5,-214.01 1365.03,-215.87"/>
<polygon fill="midnightblue" stroke="midnightblue" points="1397.71,-213.62 1406.95,-208.43 1396.49,-206.73 1397.71,-213.62"/>
</g>
<!-- Node20 -->
<g id="node20" class="node">
<title>Node20</title>
<g id="a_node20"><a xlink:href="class_t_train.html#a50997f7e8138a7e6a147fe3b5ad21b84" target="_top" xlink:title="Checks whether Element and EntryPos (where train is about to enter) is on an existing route (or cross...">
<polygon fill="white" stroke="black" points="1024.5,-242 1024.5,-272 1173.5,-272 1173.5,-242 1024.5,-242"/>
<text text-anchor="start" x="1032.5" y="-260" font-family="Helvetica,sans-Serif" font-size="10.00">TTrain::CheckAndCancelRoute</text>
<text text-anchor="middle" x="1099" y="-249" font-family="Helvetica,sans-Serif" font-size="10.00">ForWrongEndEntry</text>
</a>
</g>
</g>
<!-- Node19&#45;&gt;Node20 -->
<g id="edge30" class="edge">
<title>Node19&#45;&gt;Node20</title>
<path fill="none" stroke="midnightblue" d="M1203.48,-265.76C1193.56,-264.92 1183.5,-264.07 1173.75,-263.24"/>
<polygon fill="midnightblue" stroke="midnightblue" points="1203.5,-269.27 1213.76,-266.63 1204.09,-262.3 1203.5,-269.27"/>
</g>
<!-- Node20&#45;&gt;Node4 -->
<g id="edge31" class="edge">
<title>Node20&#45;&gt;Node4</title>
<path fill="none" stroke="midnightblue" d="M1040.72,-275.17C1008.17,-285.5 968.72,-298.01 942.15,-306.44"/>
<polygon fill="midnightblue" stroke="midnightblue" points="1042.11,-278.4 1050.58,-272.04 1039.99,-271.73 1042.11,-278.4"/>
</g>
<!-- Node20&#45;&gt;Node6 -->
<g id="edge32" class="edge">
<title>Node20&#45;&gt;Node6</title>
<path fill="none" stroke="midnightblue" d="M1014.2,-259.58C897.81,-263.17 690.9,-269.55 596.25,-272.47"/>
<polygon fill="midnightblue" stroke="midnightblue" points="1014.59,-263.07 1024.48,-259.27 1014.38,-256.08 1014.59,-263.07"/>
</g>
</g>
</svg>
        <g id="navigator" transform="translate(0 0)" fill="#404254">
                <rect fill="#f2f5e9" fill-opacity="0.5" stroke="#606060" stroke-width=".5" x="0" y="0" width="60" height="60"/>
                <use id="zoomplus" xlink:href="#zoomPlus" x="17" y="9" onmousedown="handleZoom(evt,'in')"/>
                <use id="zoomminus" xlink:href="#zoomMin" x="42" y="9" onmousedown="handleZoom(evt,'out')"/>
                <use id="reset" xlink:href="#resetDef" x="30" y="36" onmousedown="handleReset()"/>
                <g id="arrowUp" xlink:href="#dirArrow" transform="translate(30 24)" onmousedown="handlePan(0,-1)">
                  <use xlink:href="#rim" fill="#404040">
                        <set attributeName="fill" to="#808080" begin="arrowUp.mouseover" end="arrowUp.mouseout"/>
                  </use>
                  <path fill="none" stroke="white" stroke-width="1.5" d="M0,-3.0v7 M-2.5,-0.5L0,-3.0L2.5,-0.5"/>
                </g>
                <g id="arrowRight" xlink:href="#dirArrow" transform="rotate(90) translate(36 -43)" onmousedown="handlePan(1,0)">
                  <use xlink:href="#rim" fill="#404040">
                        <set attributeName="fill" to="#808080" begin="arrowRight.mouseover" end="arrowRight.mouseout"/>
                  </use>
                  <path fill="none" stroke="white" stroke-width="1.5" d="M0,-3.0v7 M-2.5,-0.5L0,-3.0L2.5,-0.5"/>
                </g>
                <g id="arrowDown" xlink:href="#dirArrow" transform="rotate(180) translate(-30 -48)" onmousedown="handlePan(0,1)">
                  <use xlink:href="#rim" fill="#404040">
                        <set attributeName="fill" to="#808080" begin="arrowDown.mouseover" end="arrowDown.mouseout"/>
                  </use>
                  <path fill="none" stroke="white" stroke-width="1.5" d="M0,-3.0v7 M-2.5,-0.5L0,-3.0L2.5,-0.5"/>
                </g>
                <g id="arrowLeft" xlink:href="#dirArrow" transform="rotate(270) translate(-36 17)" onmousedown="handlePan(-1,0)">
                  <use xlink:href="#rim" fill="#404040">
                        <set attributeName="fill" to="#808080" begin="arrowLeft.mouseover" end="arrowLeft.mouseout"/>
                  </use>
                  <path fill="none" stroke="white" stroke-width="1.5" d="M0,-3.0v7 M-2.5,-0.5L0,-3.0L2.5,-0.5"/>
                </g>
        </g>
        <svg viewBox="0 0 15 15" width="100%" height="30px" preserveAspectRatio="xMaxYMin meet">
         <g id="arrow_out" transform="scale(0.3 0.3)">
          <a xlink:href="class_t_track_aad258b17c96ace0dbbad3754eb743274_icgraph_org.svg" target="_base">
           <rect id="button" ry="5" rx="5" y="6" x="6" height="38" width="38"
                fill="#f2f5e9" fill-opacity="0.5" stroke="#606060" stroke-width="1.0"/>
           <path id="arrow"
             d="M 11.500037,31.436501 C 11.940474,20.09759 22.043105,11.32322 32.158766,21.979434 L 37.068811,17.246167 C 37.068811,17.246167 37.088388,32 37.088388,32 L 22.160133,31.978069 C 22.160133,31.978069 26.997745,27.140456 26.997745,27.140456 C 18.528582,18.264221 13.291696,25.230495 11.500037,31.436501 z"
             style="fill:#404040;"/>
          </a>
         </g>
        </svg>
</svg>
