<?xml version="1.0" encoding="UTF-8" standalone="no"?>
<!DOCTYPE svg PUBLIC "-//W3C//DTD SVG 1.1//EN"
 "http://www.w3.org/Graphics/SVG/1.1/DTD/svg11.dtd">
<!-- Generated by graphviz version 2.44.1 (20200629.0800)
 -->
<!-- Title: TOnePrefDir::CheckPrefDir4MultiMap Pages: 1 -->
<svg width="487pt" height="69pt"
 viewBox="0.00 0.00 487.00 69.00" xmlns="http://www.w3.org/2000/svg" xmlns:xlink="http://www.w3.org/1999/xlink">
<g id="graph0" class="graph" transform="scale(1 1) rotate(0) translate(4 65)">
<title>TOnePrefDir::CheckPrefDir4MultiMap</title>
<polygon fill="white" stroke="transparent" points="-4,4 -4,-65 483,-65 483,4 -4,4"/>
<!-- Node1 -->
<g id="node1" class="node">
<title>Node1</title>
<g id="a_node1"><a xlink:title="Diagnostic validity check.">
<polygon fill="#bfbfbf" stroke="black" points="0,-16 0,-46 137,-46 137,-16 0,-16"/>
<text text-anchor="start" x="8" y="-34" font-family="Helvetica,sans-Serif" font-size="10.00">TOnePrefDir::CheckPrefDir4</text>
<text text-anchor="middle" x="68.5" y="-23" font-family="Helvetica,sans-Serif" font-size="10.00">MultiMap</text>
</a>
</g>
</g>
<!-- Node2 -->
<g id="node2" class="node">
<title>Node2</title>
<g id="a_node2"><a xlink:href="class_t_utilities.html#ae1eddca13cc3c492839e131f40ec21c0" target="_top" xlink:title="pops the last entry off the call stack, throws an error if called when empty">
<polygon fill="white" stroke="black" points="369,-41.5 369,-60.5 479,-60.5 479,-41.5 369,-41.5"/>
<text text-anchor="middle" x="424" y="-48.5" font-family="Helvetica,sans-Serif" font-size="10.00">TUtilities::CallLogPop</text>
</a>
</g>
</g>
<!-- Node1&#45;&gt;Node2 -->
<g id="edge1" class="edge">
<title>Node1&#45;&gt;Node2</title>
<path fill="none" stroke="midnightblue" d="M121.18,-46.03C137.6,-50.11 155.93,-53.97 173,-56 235.71,-63.47 307.88,-60.83 358.51,-57.17"/>
<polygon fill="midnightblue" stroke="midnightblue" points="358.95,-60.64 368.66,-56.4 358.42,-53.66 358.95,-60.64"/>
</g>
<!-- Node3 -->
<g id="node3" class="node">
<title>Node3</title>
<g id="a_node3"><a xlink:href="class_t_one_pref_dir.html#a820f6cc109de519289e6a63dac835ebc" target="_top" xlink:title="Return up to 4 vector positions for a given HLoc &amp; VLoc; unused values return &#45;1.">
<polygon fill="white" stroke="black" points="173,-16 173,-46 333,-46 333,-16 173,-16"/>
<text text-anchor="start" x="181" y="-34" font-family="Helvetica,sans-Serif" font-size="10.00">TOnePrefDir::GetVectorPositions</text>
<text text-anchor="middle" x="253" y="-23" font-family="Helvetica,sans-Serif" font-size="10.00">FromPrefDir4MultiMap</text>
</a>
</g>
</g>
<!-- Node1&#45;&gt;Node3 -->
<g id="edge2" class="edge">
<title>Node1&#45;&gt;Node3</title>
<path fill="none" stroke="midnightblue" d="M137.2,-31C145.51,-31 154.1,-31 162.67,-31"/>
<polygon fill="midnightblue" stroke="midnightblue" points="162.7,-34.5 172.7,-31 162.7,-27.5 162.7,-34.5"/>
</g>
<!-- Node4 -->
<g id="node4" class="node">
<title>Node4</title>
<g id="a_node4"><a xlink:href="class_t_utilities.html#a34bd6bb5305bc29afdf424f6d35a921c" target="_top" xlink:title="creates a string of the form &#39;hh:mm:ss&#39; for use in call &amp; event logging">
<polygon fill="white" stroke="black" points="369,-0.5 369,-19.5 479,-19.5 479,-0.5 369,-0.5"/>
<text text-anchor="middle" x="424" y="-7.5" font-family="Helvetica,sans-Serif" font-size="10.00">TUtilities::TimeStamp</text>
</a>
</g>
</g>
<!-- Node1&#45;&gt;Node4 -->
<g id="edge5" class="edge">
<title>Node1&#45;&gt;Node4</title>
<path fill="none" stroke="midnightblue" d="M121.18,-15.97C137.6,-11.89 155.93,-8.03 173,-6 235.71,1.47 307.88,-0.85 358.51,-4.23"/>
<polygon fill="midnightblue" stroke="midnightblue" points="358.43,-7.74 368.65,-4.94 358.92,-0.75 358.43,-7.74"/>
</g>
<!-- Node3&#45;&gt;Node2 -->
<g id="edge3" class="edge">
<title>Node3&#45;&gt;Node2</title>
<path fill="none" stroke="midnightblue" d="M333.06,-40.36C341.61,-41.37 350.23,-42.39 358.58,-43.38"/>
<polygon fill="midnightblue" stroke="midnightblue" points="358.26,-46.86 368.6,-44.56 359.08,-39.91 358.26,-46.86"/>
</g>
<!-- Node3&#45;&gt;Node4 -->
<g id="edge4" class="edge">
<title>Node3&#45;&gt;Node4</title>
<path fill="none" stroke="midnightblue" d="M333.06,-21.18C341.61,-20.11 350.23,-19.04 358.58,-18"/>
<polygon fill="midnightblue" stroke="midnightblue" points="359.11,-21.47 368.6,-16.76 358.25,-14.52 359.11,-21.47"/>
</g>
</g>
</svg>
