<?xml version="1.0" encoding="UTF-8" standalone="no"?>
<!DOCTYPE svg PUBLIC "-//W3C//DTD SVG 1.1//EN"
 "http://www.w3.org/Graphics/SVG/1.1/DTD/svg11.dtd">
<!-- Generated by graphviz version 2.44.1 (20200629.0800)
 -->
<!-- Title: TTrain::UnplotTrain Pages: 1 -->
<svg width="983pt" height="425pt"
 viewBox="0.00 0.00 983.00 425.16" xmlns="http://www.w3.org/2000/svg" xmlns:xlink="http://www.w3.org/1999/xlink">
<g id="graph0" class="graph" transform="scale(1 1) rotate(0) translate(4 421.16)">
<title>TTrain::UnplotTrain</title>
<polygon fill="white" stroke="transparent" points="-4,4 -4,-421.16 979,-421.16 979,4 -4,4"/>
<!-- Node1 -->
<g id="node1" class="node">
<title>Node1</title>
<g id="a_node1"><a xlink:title="Unplot train from screen in zoomed&#45;in mode.">
<polygon fill="#bfbfbf" stroke="black" points="877,-206 877,-225 975,-225 975,-206 877,-206"/>
<text text-anchor="middle" x="926" y="-213" font-family="Helvetica,sans-Serif" font-size="10.00">TTrain::UnplotTrain</text>
</a>
</g>
</g>
<!-- Node2 -->
<g id="node2" class="node">
<title>Node2</title>
<g id="a_node2"><a xlink:href="class_t_train.html#a406c172a0ba96802ada1aa04d78948d0" target="_top" xlink:title="Reverses the direction of motion of the train.">
<polygon fill="white" stroke="black" points="683.5,-351 683.5,-370 824.5,-370 824.5,-351 683.5,-351"/>
<text text-anchor="middle" x="754" y="-358" font-family="Helvetica,sans-Serif" font-size="10.00">TTrain::ChangeTrainDirection</text>
</a>
</g>
</g>
<!-- Node1&#45;&gt;Node2 -->
<g id="edge1" class="edge">
<title>Node1&#45;&gt;Node2</title>
<path fill="none" stroke="midnightblue" d="M917.69,-234.74C905.97,-262.83 880.25,-314.64 841,-341.5 835.32,-345.39 828.98,-348.49 822.39,-350.97"/>
<polygon fill="midnightblue" stroke="midnightblue" points="921.02,-235.82 921.49,-225.24 914.52,-233.22 921.02,-235.82"/>
</g>
<!-- Node4 -->
<g id="node4" class="node">
<title>Node4</title>
<g id="a_node4"><a xlink:href="class_t_train_controller.html#a20a1576dea1d86ed78fc5e9f46343481" target="_top" xlink:title="called every clock tick to introduce new trains and update existing trains">
<polygon fill="white" stroke="black" points="334,-329 334,-348 459,-348 459,-329 334,-329"/>
<text text-anchor="middle" x="396.5" y="-336" font-family="Helvetica,sans-Serif" font-size="10.00">TTrainController::Operate</text>
</a>
</g>
</g>
<!-- Node1&#45;&gt;Node4 -->
<g id="edge12" class="edge">
<title>Node1&#45;&gt;Node4</title>
<path fill="none" stroke="midnightblue" d="M921.62,-235.52C914.3,-271.79 893.21,-347.58 841,-379.5 699.49,-466.01 483.76,-378.76 417.53,-348.2"/>
<polygon fill="midnightblue" stroke="midnightblue" points="925.15,-235.71 923.54,-225.23 918.26,-234.42 925.15,-235.71"/>
</g>
<!-- Node7 -->
<g id="node7" class="node">
<title>Node7</title>
<g id="a_node7"><a xlink:href="class_t_train.html#ad666fb061d1da7c44a72ec963c2098aa" target="_top" xlink:title="Carry out the actions needed when a train is to split from the front.">
<polygon fill="white" stroke="black" points="698,-313 698,-332 810,-332 810,-313 698,-313"/>
<text text-anchor="middle" x="754" y="-320" font-family="Helvetica,sans-Serif" font-size="10.00">TTrain::FrontTrainSplit</text>
</a>
</g>
</g>
<!-- Node1&#45;&gt;Node7 -->
<g id="edge6" class="edge">
<title>Node1&#45;&gt;Node7</title>
<path fill="none" stroke="midnightblue" d="M912.84,-233.6C898.23,-253.87 871.8,-286.15 841,-303.5 831.54,-308.83 820.71,-312.66 810.01,-315.42"/>
<polygon fill="midnightblue" stroke="midnightblue" points="915.83,-235.43 918.69,-225.23 910.1,-231.42 915.83,-235.43"/>
</g>
<!-- Node8 -->
<g id="node8" class="node">
<title>Node8</title>
<g id="a_node8"><a xlink:href="class_t_train.html#a56fcfe4b9a3cef988bbeb4f4766372aa" target="_top" xlink:title="Carry out the actions needed when a new shuttle service is created from a non&#45;repeating (F&#45;nshs) serv...">
<polygon fill="white" stroke="black" points="685,-263.5 685,-293.5 823,-293.5 823,-263.5 685,-263.5"/>
<text text-anchor="start" x="693" y="-281.5" font-family="Helvetica,sans-Serif" font-size="10.00">TTrain::NewShuttleFromNon</text>
<text text-anchor="middle" x="754" y="-270.5" font-family="Helvetica,sans-Serif" font-size="10.00">RepeatService</text>
</a>
</g>
</g>
<!-- Node1&#45;&gt;Node8 -->
<g id="edge8" class="edge">
<title>Node1&#45;&gt;Node8</title>
<path fill="none" stroke="midnightblue" d="M896.6,-229.56C880.52,-237.22 859.9,-246.52 841,-253.5 831.52,-257 821.31,-260.34 811.35,-263.37"/>
<polygon fill="midnightblue" stroke="midnightblue" points="898.49,-232.54 905.97,-225.04 895.45,-226.23 898.49,-232.54"/>
</g>
<!-- Node9 -->
<g id="node9" class="node">
<title>Node9</title>
<g id="a_node9"><a xlink:href="class_t_train.html#a75a2e9017b96e2a8f2a1edbd01c2cd68" target="_top" xlink:title="Carry out the actions needed when a train forms a new service (code Fns)">
<polygon fill="white" stroke="black" points="694,-225 694,-244 814,-244 814,-225 694,-225"/>
<text text-anchor="middle" x="754" y="-232" font-family="Helvetica,sans-Serif" font-size="10.00">TTrain::NewTrainService</text>
</a>
</g>
</g>
<!-- Node1&#45;&gt;Node9 -->
<g id="edge10" class="edge">
<title>Node1&#45;&gt;Node9</title>
<path fill="none" stroke="midnightblue" d="M866.46,-222.04C849.6,-223.93 831.18,-225.99 814.27,-227.88"/>
<polygon fill="midnightblue" stroke="midnightblue" points="867.19,-225.48 876.74,-220.89 866.41,-218.53 867.19,-225.48"/>
</g>
<!-- Node10 -->
<g id="node10" class="node">
<title>Node10</title>
<g id="a_node10"><a xlink:href="class_t_train.html#ad64c5823265b0c611c2e5f0613317aa5" target="_top" xlink:title="Carry out the actions needed when a train is to split from the rear.">
<polygon fill="white" stroke="black" points="699,-187 699,-206 809,-206 809,-187 699,-187"/>
<text text-anchor="middle" x="754" y="-194" font-family="Helvetica,sans-Serif" font-size="10.00">TTrain::RearTrainSplit</text>
</a>
</g>
</g>
<!-- Node1&#45;&gt;Node10 -->
<g id="edge13" class="edge">
<title>Node1&#45;&gt;Node10</title>
<path fill="none" stroke="midnightblue" d="M866.6,-208.97C847.95,-206.89 827.39,-204.59 809.06,-202.54"/>
<polygon fill="midnightblue" stroke="midnightblue" points="866.41,-212.47 876.74,-210.11 867.19,-205.52 866.41,-212.47"/>
</g>
<!-- Node11 -->
<g id="node11" class="node">
<title>Node11</title>
<g id="a_node11"><a xlink:href="class_t_train.html#a8262f447ec811db7e524c7bb885226c5" target="_top" xlink:title="Carry out the actions needed to create either a new shuttle service or (if all repeats have finished)...">
<polygon fill="white" stroke="black" points="684,-137.5 684,-167.5 824,-167.5 824,-137.5 684,-137.5"/>
<text text-anchor="start" x="692" y="-155.5" font-family="Helvetica,sans-Serif" font-size="10.00">TTrain::RepeatShuttleOrNew</text>
<text text-anchor="middle" x="754" y="-144.5" font-family="Helvetica,sans-Serif" font-size="10.00">NonRepeatService</text>
</a>
</g>
</g>
<!-- Node1&#45;&gt;Node11 -->
<g id="edge15" class="edge">
<title>Node1&#45;&gt;Node11</title>
<path fill="none" stroke="midnightblue" d="M896.6,-201.44C880.52,-193.78 859.9,-184.48 841,-177.5 831.52,-174 821.31,-170.66 811.35,-167.63"/>
<polygon fill="midnightblue" stroke="midnightblue" points="895.45,-204.77 905.97,-205.96 898.49,-198.46 895.45,-204.77"/>
</g>
<!-- Node12 -->
<g id="node12" class="node">
<title>Node12</title>
<g id="a_node12"><a xlink:href="class_t_train.html#ac6f5cda912103fda4da31bdca611e4b5" target="_top" xlink:title="Carry out the actions needed to create either a new shuttle service or (if all repeats have finished)...">
<polygon fill="white" stroke="black" points="667,-99 667,-118 841,-118 841,-99 667,-99"/>
<text text-anchor="middle" x="754" y="-106" font-family="Helvetica,sans-Serif" font-size="10.00">TTrain::RepeatShuttleOrRemainHere</text>
</a>
</g>
</g>
<!-- Node1&#45;&gt;Node12 -->
<g id="edge17" class="edge">
<title>Node1&#45;&gt;Node12</title>
<path fill="none" stroke="midnightblue" d="M912.76,-197.67C898.07,-177.69 871.57,-145.83 841,-128.5 833.27,-124.12 824.62,-120.69 815.88,-118.02"/>
<polygon fill="midnightblue" stroke="midnightblue" points="909.99,-199.81 918.65,-205.92 915.69,-195.74 909.99,-199.81"/>
</g>
<!-- Node13 -->
<g id="node13" class="node">
<title>Node13</title>
<g id="a_node13"><a xlink:href="class_t_train.html#affbb94aa088370056f8ca8c45a1fdd48" target="_top" xlink:title="Unplots &amp; replots train, which checks for facing signal and sets StoppedAtSignal if req&#39;d.">
<polygon fill="white" stroke="black" points="684,-49.5 684,-79.5 824,-79.5 824,-49.5 684,-49.5"/>
<text text-anchor="start" x="692" y="-67.5" font-family="Helvetica,sans-Serif" font-size="10.00">TTrain::SignallerChangeTrain</text>
<text text-anchor="middle" x="754" y="-56.5" font-family="Helvetica,sans-Serif" font-size="10.00">Direction</text>
</a>
</g>
</g>
<!-- Node1&#45;&gt;Node13 -->
<g id="edge19" class="edge">
<title>Node1&#45;&gt;Node13</title>
<path fill="none" stroke="midnightblue" d="M917.45,-196.59C905.44,-168.92 879.35,-117.63 841,-89.5 835.73,-85.64 829.88,-82.37 823.78,-79.61"/>
<polygon fill="midnightblue" stroke="midnightblue" points="914.28,-198.07 921.36,-205.94 920.74,-195.37 914.28,-198.07"/>
</g>
<!-- Node15 -->
<g id="node15" class="node">
<title>Node15</title>
<g id="a_node15"><a xlink:href="class_t_train_controller.html#a7e2abfcc38e51933883d959c4155aca0" target="_top" xlink:title="unplot all trains from screen">
<polygon fill="white" stroke="black" points="695,-0.5 695,-30.5 813,-30.5 813,-0.5 695,-0.5"/>
<text text-anchor="start" x="703" y="-18.5" font-family="Helvetica,sans-Serif" font-size="10.00">TTrainController::Unplot</text>
<text text-anchor="middle" x="754" y="-7.5" font-family="Helvetica,sans-Serif" font-size="10.00">Trains</text>
</a>
</g>
</g>
<!-- Node1&#45;&gt;Node15 -->
<g id="edge21" class="edge">
<title>Node1&#45;&gt;Node15</title>
<path fill="none" stroke="midnightblue" d="M921.22,-195.91C913.16,-159.51 890.8,-81.35 841,-39.5 833.05,-32.82 823.37,-27.99 813.41,-24.5"/>
<polygon fill="midnightblue" stroke="midnightblue" points="917.81,-196.71 923.28,-205.78 924.67,-195.28 917.81,-196.71"/>
</g>
<!-- Node3 -->
<g id="node3" class="node">
<title>Node3</title>
<g id="a_node3"><a xlink:href="class_t_train.html#a89ad640ecf8f5163c40727b4e28575fc" target="_top" xlink:title="Major function called at each clock tick for each train &amp; handles all train movement &amp; associated act...">
<polygon fill="white" stroke="black" points="512.5,-247 512.5,-266 613.5,-266 613.5,-247 512.5,-247"/>
<text text-anchor="middle" x="563" y="-254" font-family="Helvetica,sans-Serif" font-size="10.00">TTrain::UpdateTrain</text>
</a>
</g>
</g>
<!-- Node2&#45;&gt;Node3 -->
<g id="edge2" class="edge">
<title>Node2&#45;&gt;Node3</title>
<path fill="none" stroke="midnightblue" d="M682.7,-347.91C677.28,-346.05 671.98,-343.93 667,-341.5 626.99,-321.99 589.06,-283.93 572.59,-266.12"/>
<polygon fill="midnightblue" stroke="midnightblue" points="681.96,-351.34 692.55,-350.96 684.03,-344.65 681.96,-351.34"/>
</g>
<!-- Node3&#45;&gt;Node4 -->
<g id="edge3" class="edge">
<title>Node3&#45;&gt;Node4</title>
<path fill="none" stroke="midnightblue" d="M533.55,-270.68C500.06,-287.38 445.35,-314.65 416.57,-328.99"/>
<polygon fill="midnightblue" stroke="midnightblue" points="535.42,-273.66 542.81,-266.07 532.3,-267.4 535.42,-273.66"/>
</g>
<!-- Node5 -->
<g id="node5" class="node">
<title>Node5</title>
<g id="a_node5"><a xlink:href="class_t_interface.html#a6139ffb52492eb89e5487a8a3cd647b5" target="_top" xlink:title="The main loop, called every clock tick via MasterClockTimer.">
<polygon fill="white" stroke="black" points="179,-329 179,-348 298,-348 298,-329 179,-329"/>
<text text-anchor="middle" x="238.5" y="-336" font-family="Helvetica,sans-Serif" font-size="10.00">TInterface::ClockTimer2</text>
</a>
</g>
</g>
<!-- Node4&#45;&gt;Node5 -->
<g id="edge4" class="edge">
<title>Node4&#45;&gt;Node5</title>
<path fill="none" stroke="midnightblue" d="M323.83,-338.5C315.24,-338.5 306.54,-338.5 298.16,-338.5"/>
<polygon fill="midnightblue" stroke="midnightblue" points="323.84,-342 333.84,-338.5 323.84,-335 323.84,-342"/>
</g>
<!-- Node6 -->
<g id="node6" class="node">
<title>Node6</title>
<g id="a_node6"><a xlink:href="class_t_interface.html#ace30a12d923fc7fb489afabb0a09aa4f" target="_top" xlink:title=" ">
<polygon fill="white" stroke="black" points="0,-329 0,-348 143,-348 143,-329 0,-329"/>
<text text-anchor="middle" x="71.5" y="-336" font-family="Helvetica,sans-Serif" font-size="10.00">TInterface::MasterClockTimer</text>
</a>
</g>
</g>
<!-- Node5&#45;&gt;Node6 -->
<g id="edge5" class="edge">
<title>Node5&#45;&gt;Node6</title>
<path fill="none" stroke="midnightblue" d="M168.67,-338.5C160.22,-338.5 151.57,-338.5 143.09,-338.5"/>
<polygon fill="midnightblue" stroke="midnightblue" points="168.86,-342 178.86,-338.5 168.86,-335 168.86,-342"/>
</g>
<!-- Node7&#45;&gt;Node3 -->
<g id="edge7" class="edge">
<title>Node7&#45;&gt;Node3</title>
<path fill="none" stroke="midnightblue" d="M691.78,-310.64C683.38,-308.53 674.92,-306.15 667,-303.5 636.06,-293.15 601.93,-276.46 581.77,-266.01"/>
<polygon fill="midnightblue" stroke="midnightblue" points="691.04,-314.07 701.58,-313 692.68,-307.26 691.04,-314.07"/>
</g>
<!-- Node8&#45;&gt;Node3 -->
<g id="edge9" class="edge">
<title>Node8&#45;&gt;Node3</title>
<path fill="none" stroke="midnightblue" d="M674.74,-269.39C654.11,-266.99 632.42,-264.46 613.75,-262.29"/>
<polygon fill="midnightblue" stroke="midnightblue" points="674.43,-272.88 684.77,-270.56 675.24,-265.92 674.43,-272.88"/>
</g>
<!-- Node9&#45;&gt;Node3 -->
<g id="edge11" class="edge">
<title>Node9&#45;&gt;Node3</title>
<path fill="none" stroke="midnightblue" d="M683.82,-242.55C660.58,-245.26 635.13,-248.22 613.68,-250.72"/>
<polygon fill="midnightblue" stroke="midnightblue" points="684.45,-246 693.98,-241.37 683.64,-239.05 684.45,-246"/>
</g>
<!-- Node10&#45;&gt;Node3 -->
<g id="edge14" class="edge">
<title>Node10&#45;&gt;Node3</title>
<path fill="none" stroke="midnightblue" d="M693.18,-208.41C684.34,-210.54 675.39,-212.92 667,-215.5 638.12,-224.38 605.92,-237.79 585.34,-246.83"/>
<polygon fill="midnightblue" stroke="midnightblue" points="694.13,-211.78 703.07,-206.1 692.54,-204.96 694.13,-211.78"/>
</g>
<!-- Node11&#45;&gt;Node3 -->
<g id="edge16" class="edge">
<title>Node11&#45;&gt;Node3</title>
<path fill="none" stroke="midnightblue" d="M681.3,-171.1C676.38,-173.06 671.56,-175.19 667,-177.5 629.2,-196.63 591.37,-230.27 573.94,-246.79"/>
<polygon fill="midnightblue" stroke="midnightblue" points="682.7,-174.31 690.86,-167.55 680.26,-167.75 682.7,-174.31"/>
</g>
<!-- Node12&#45;&gt;Node3 -->
<g id="edge18" class="edge">
<title>Node12&#45;&gt;Node3</title>
<path fill="none" stroke="midnightblue" d="M680.01,-121.75C675.46,-123.7 671.08,-125.93 667,-128.5 617.48,-159.6 581.22,-222.97 568.74,-246.99"/>
<polygon fill="midnightblue" stroke="midnightblue" points="681.41,-124.96 689.51,-118.13 678.92,-118.42 681.41,-124.96"/>
</g>
<!-- Node14 -->
<g id="node14" class="node">
<title>Node14</title>
<g id="a_node14"><a xlink:href="class_t_interface.html#aaaf32c3c815553f7ba70698e0f0071bb" target="_top" xlink:title=" ">
<polygon fill="white" stroke="black" points="495,-49.5 495,-79.5 631,-79.5 631,-49.5 495,-49.5"/>
<text text-anchor="start" x="503" y="-67.5" font-family="Helvetica,sans-Serif" font-size="10.00">TInterface::ChangeDirection</text>
<text text-anchor="middle" x="563" y="-56.5" font-family="Helvetica,sans-Serif" font-size="10.00">MenuItemClick</text>
</a>
</g>
</g>
<!-- Node13&#45;&gt;Node14 -->
<g id="edge20" class="edge">
<title>Node13&#45;&gt;Node14</title>
<path fill="none" stroke="midnightblue" d="M673.77,-64.5C659.64,-64.5 645.03,-64.5 631.27,-64.5"/>
<polygon fill="midnightblue" stroke="midnightblue" points="673.96,-68 683.96,-64.5 673.96,-61 673.96,-68"/>
</g>
<!-- Node16 -->
<g id="node16" class="node">
<title>Node16</title>
<g id="a_node16"><a xlink:href="class_t_interface.html#a3e59d6f1f39ffe34a9d6e7bf930acbff" target="_top" xlink:title=" ">
<polygon fill="white" stroke="black" points="501,-0.5 501,-30.5 625,-30.5 625,-0.5 501,-0.5"/>
<text text-anchor="start" x="509" y="-18.5" font-family="Helvetica,sans-Serif" font-size="10.00">TInterface::ExitOperation</text>
<text text-anchor="middle" x="563" y="-7.5" font-family="Helvetica,sans-Serif" font-size="10.00">ButtonClick</text>
</a>
</g>
</g>
<!-- Node15&#45;&gt;Node16 -->
<g id="edge22" class="edge">
<title>Node15&#45;&gt;Node16</title>
<path fill="none" stroke="midnightblue" d="M684.49,-15.5C665.15,-15.5 644.23,-15.5 625.33,-15.5"/>
<polygon fill="midnightblue" stroke="midnightblue" points="684.75,-19 694.75,-15.5 684.75,-12 684.75,-19"/>
</g>
</g>
</svg>
