<?xml version="1.0" encoding="UTF-8" standalone="no"?>
<!DOCTYPE svg PUBLIC "-//W3C//DTD SVG 1.1//EN"
 "http://www.w3.org/Graphics/SVG/1.1/DTD/svg11.dtd">
<!-- Generated by graphviz version 2.44.1 (20200629.0800)
 -->
<!-- Title: TTrack::AdjElement Pages: 1 -->
<!--zoomable 381 -->
<svg id="main" version="1.1" xmlns="http://www.w3.org/2000/svg" xmlns:xlink="http://www.w3.org/1999/xlink" xml:space="preserve" onload="init(evt)">
<style type="text/css"><![CDATA[
.edge:hover path { stroke: red; }
.edge:hover polygon { stroke: red; fill: red; }
]]></style>
<script type="text/javascript"><![CDATA[
var edges = document.getElementsByTagName('g');
if (edges && edges.length) {
  for (var i=0;i<edges.length;i++) {
    if (edges[i].id.substr(0,4)=='edge') {
      edges[i].setAttribute('class','edge');
    }
  }
}
]]></script>
        <defs>
                <circle id="rim" cx="0" cy="0" r="7"/>
                <circle id="rim2" cx="0" cy="0" r="3.5"/>
                <g id="zoomPlus">
                        <use xlink:href="#rim" fill="#404040">
                                <set attributeName="fill" to="#808080" begin="zoomplus.mouseover" end="zoomplus.mouseout"/>
                        </use>
                        <path d="M-4,0h8M0,-4v8" fill="none" stroke="white" stroke-width="1.5" pointer-events="none"/>
                </g>
                <g id="zoomMin">
                        <use xlink:href="#rim" fill="#404040">
                                <set attributeName="fill" to="#808080" begin="zoomminus.mouseover" end="zoomminus.mouseout"/>
                        </use>
                        <path d="M-4,0h8" fill="none" stroke="white" stroke-width="1.5" pointer-events="none"/>
                </g>
                <g id="dirArrow">
                        <path fill="none" stroke="white" stroke-width="1.5" d="M0,-3.0v7 M-2.5,-0.5L0,-3.0L2.5,-0.5"/>
                </g>
               <g id="resetDef">
                       <use xlink:href="#rim2" fill="#404040">
                               <set attributeName="fill" to="#808080" begin="reset.mouseover" end="reset.mouseout"/>
                       </use>
               </g>
        </defs>

<script type="text/javascript">
var viewWidth = 651;
var viewHeight = 381;
var sectionId = 'dynsection-6';
</script>
<script xlink:href="svgpan.js"/>
<svg id="graph" class="graph">
<g id="viewport">
<title>TTrack::AdjElement</title>
<polygon fill="white" stroke="transparent" points="-4,4 -4,-376.74 647,-376.74 647,4 -4,4"/>
<!-- Node1 -->
<g id="node1" class="node">
<title>Node1</title>
<g id="a_node1"><a xlink:title=" ">
<polygon fill="#bfbfbf" stroke="black" points="0,-169.01 0,-188.01 102,-188.01 102,-169.01 0,-169.01"/>
<text text-anchor="middle" x="51" y="-176.01" font-family="Helvetica,sans-Serif" font-size="10.00">TTrack::AdjElement</text>
</a>
</g>
</g>
<!-- Node2 -->
<g id="node2" class="node">
<title>Node2</title>
<g id="a_node2"><a xlink:href="class_t_utilities.html#ae1eddca13cc3c492839e131f40ec21c0" target="_top" xlink:title="pops the last entry off the call stack, throws an error if called when empty">
<polygon fill="white" stroke="black" points="533,-189.01 533,-208.01 643,-208.01 643,-189.01 533,-189.01"/>
<text text-anchor="middle" x="588" y="-196.01" font-family="Helvetica,sans-Serif" font-size="10.00">TUtilities::CallLogPop</text>
</a>
</g>
</g>
<!-- Node1&#45;&gt;Node2 -->
<g id="edge1" class="edge">
<title>Node1&#45;&gt;Node2</title>
<path fill="none" stroke="midnightblue" d="M54.89,-188.26C63.13,-214.19 89.3,-285.12 138,-318.51 212.92,-369.87 248.54,-347.25 339,-355.51 408.93,-361.89 436.24,-390.71 497,-355.51 548.76,-325.52 573.31,-253.29 582.49,-218.25"/>
<polygon fill="midnightblue" stroke="midnightblue" points="585.96,-218.82 584.95,-208.27 579.16,-217.15 585.96,-218.82"/>
</g>
<!-- Node3 -->
<g id="node3" class="node">
<title>Node3</title>
<g id="a_node3"><a xlink:href="class_t_track.html#a35cb615d02e6e4debe2fb2b764adc058" target="_top" xlink:title="True if the element defined by MapPos is present in LNDone2MultiMap, used during location naming.">
<polygon fill="white" stroke="black" points="350.5,-163.51 350.5,-193.51 485.5,-193.51 485.5,-163.51 350.5,-163.51"/>
<text text-anchor="start" x="358.5" y="-181.51" font-family="Helvetica,sans-Serif" font-size="10.00">TTrack::ElementInLNDone2</text>
<text text-anchor="middle" x="418" y="-170.51" font-family="Helvetica,sans-Serif" font-size="10.00">MultiMap</text>
</a>
</g>
</g>
<!-- Node1&#45;&gt;Node3 -->
<g id="edge2" class="edge">
<title>Node1&#45;&gt;Node3</title>
<path fill="none" stroke="midnightblue" d="M102.37,-178.51C163.88,-178.51 268.55,-178.51 340.15,-178.51"/>
<polygon fill="midnightblue" stroke="midnightblue" points="340.46,-182.01 350.46,-178.51 340.46,-175.01 340.46,-182.01"/>
</g>
<!-- Node4 -->
<g id="node4" class="node">
<title>Node4</title>
<g id="a_node4"><a xlink:href="class_t_utilities.html#a34bd6bb5305bc29afdf424f6d35a921c" target="_top" xlink:title="creates a string of the form &#39;hh:mm:ss&#39; for use in call &amp; event logging">
<polygon fill="white" stroke="black" points="533,-148.01 533,-167.01 643,-167.01 643,-148.01 533,-148.01"/>
<text text-anchor="middle" x="588" y="-155.01" font-family="Helvetica,sans-Serif" font-size="10.00">TUtilities::TimeStamp</text>
</a>
</g>
</g>
<!-- Node1&#45;&gt;Node4 -->
<g id="edge24" class="edge">
<title>Node1&#45;&gt;Node4</title>
<path fill="none" stroke="midnightblue" d="M55.42,-168.92C64.59,-144.76 92.16,-81.15 138,-51.51 214.15,-2.27 248.66,-24.31 339,-16.51 408.96,-10.46 435.42,17.24 497,-16.51 544.82,-42.71 570.91,-106.34 581.42,-138.38"/>
<polygon fill="midnightblue" stroke="midnightblue" points="578.08,-139.44 584.4,-147.94 584.76,-137.36 578.08,-139.44"/>
</g>
<!-- Node5 -->
<g id="node5" class="node">
<title>Node5</title>
<g id="a_node5"><a xlink:href="class_t_track.html#a977285544a4e0b017ed5c9670ac38d87" target="_top" xlink:title=" ">
<polygon fill="white" stroke="black" points="339,-125.01 339,-144.01 497,-144.01 497,-125.01 339,-125.01"/>
<text text-anchor="middle" x="418" y="-132.01" font-family="Helvetica,sans-Serif" font-size="10.00">TTrack::ElementInLNPendingList</text>
</a>
</g>
</g>
<!-- Node1&#45;&gt;Node5 -->
<g id="edge5" class="edge">
<title>Node1&#45;&gt;Node5</title>
<path fill="none" stroke="midnightblue" d="M102.37,-172.44C160.62,-165.41 257.57,-153.73 328.49,-145.18"/>
<polygon fill="midnightblue" stroke="midnightblue" points="329.25,-148.61 338.75,-143.94 328.41,-141.66 329.25,-148.61"/>
</g>
<!-- Node6 -->
<g id="node6" class="node">
<title>Node6</title>
<g id="a_node6"><a xlink:href="class_t_track.html#aa0812972d1ae27198c5fbca8aa7b6134" target="_top" xlink:title="Returns the track vector position corresponding to the Hloc &amp; VLoc positions, FoundFlag indicates whe...">
<polygon fill="white" stroke="black" points="352.5,-26.51 352.5,-56.51 483.5,-56.51 483.5,-26.51 352.5,-26.51"/>
<text text-anchor="start" x="360.5" y="-44.51" font-family="Helvetica,sans-Serif" font-size="10.00">TTrack::GetVectorPosition</text>
<text text-anchor="middle" x="418" y="-33.51" font-family="Helvetica,sans-Serif" font-size="10.00">FromTrackMap</text>
</a>
</g>
</g>
<!-- Node1&#45;&gt;Node6 -->
<g id="edge8" class="edge">
<title>Node1&#45;&gt;Node6</title>
<path fill="none" stroke="midnightblue" d="M60.2,-168.89C74.38,-152.92 105.1,-121.07 138,-104.51 202.54,-72.02 283.85,-56.11 342.02,-48.43"/>
<polygon fill="midnightblue" stroke="midnightblue" points="342.76,-51.86 352.24,-47.13 341.88,-44.92 342.76,-51.86"/>
</g>
<!-- Node7 -->
<g id="node7" class="node">
<title>Node7</title>
<g id="a_node7"><a xlink:href="class_t_track.html#a418966e6fefb71b9d0c9b941197832da" target="_top" xlink:title="Similar to GetVectorPositionFromTrackMap but for inactive elements, a pair is returned because there ...">
<polygon fill="white" stroke="black" points="349.5,-75.51 349.5,-105.51 486.5,-105.51 486.5,-75.51 349.5,-75.51"/>
<text text-anchor="start" x="357.5" y="-93.51" font-family="Helvetica,sans-Serif" font-size="10.00">TTrack::GetVectorPositions</text>
<text text-anchor="middle" x="418" y="-82.51" font-family="Helvetica,sans-Serif" font-size="10.00">FromInactiveTrackMap</text>
</a>
</g>
</g>
<!-- Node1&#45;&gt;Node7 -->
<g id="edge11" class="edge">
<title>Node1&#45;&gt;Node7</title>
<path fill="none" stroke="midnightblue" d="M73.92,-168.9C91.09,-161.66 115.72,-151.93 138,-145.51 205.02,-126.2 283.03,-111.45 339.5,-102.11"/>
<polygon fill="midnightblue" stroke="midnightblue" points="340.12,-105.56 349.43,-100.49 338.99,-98.65 340.12,-105.56"/>
</g>
<!-- Node8 -->
<g id="node8" class="node">
<title>Node8</title>
<g id="a_node8"><a xlink:href="class_t_track.html#a51f89cf70e94b037f6378cd78003d82b" target="_top" xlink:title="A range&#45;checked version of InactiveTrackElement.at(At)">
<polygon fill="white" stroke="black" points="341,-213.01 341,-232.01 495,-232.01 495,-213.01 341,-213.01"/>
<text text-anchor="middle" x="418" y="-220.01" font-family="Helvetica,sans-Serif" font-size="10.00">TTrack::InactiveTrackElementAt</text>
</a>
</g>
</g>
<!-- Node1&#45;&gt;Node8 -->
<g id="edge14" class="edge">
<title>Node1&#45;&gt;Node8</title>
<path fill="none" stroke="midnightblue" d="M102.41,-187.18C114.08,-189.06 126.46,-190.95 138,-192.51 202.42,-201.21 275.49,-208.99 330.69,-214.45"/>
<polygon fill="midnightblue" stroke="midnightblue" points="330.49,-217.94 340.78,-215.44 331.17,-210.98 330.49,-217.94"/>
</g>
<!-- Node9 -->
<g id="node9" class="node">
<title>Node9</title>
<g id="a_node9"><a xlink:href="class_t_track.html#a198ba6486ccb7cdfb25bdd8c30451d06" target="_top" xlink:title="True if the active or inactive TrackElement at HLoc &amp; VLoc has its FixedNamedLocationElement member t...">
<polygon fill="white" stroke="black" points="138,-251.01 138,-270.01 303,-270.01 303,-251.01 138,-251.01"/>
<text text-anchor="middle" x="220.5" y="-258.01" font-family="Helvetica,sans-Serif" font-size="10.00">TTrack::NamedLocationElementAt</text>
</a>
</g>
</g>
<!-- Node1&#45;&gt;Node9 -->
<g id="edge17" class="edge">
<title>Node1&#45;&gt;Node9</title>
<path fill="none" stroke="midnightblue" d="M64.81,-188.15C81.12,-200.08 110.48,-220.4 138,-233.51 149.46,-238.96 162.31,-243.78 174.37,-247.77"/>
<polygon fill="midnightblue" stroke="midnightblue" points="173.66,-251.22 184.25,-250.93 175.79,-244.56 173.66,-251.22"/>
</g>
<!-- Node10 -->
<g id="node10" class="node">
<title>Node10</title>
<g id="a_node10"><a xlink:href="class_t_track.html#ad377e5a1f152f2e89832c0f9bcfd261f" target="_top" xlink:title="A range&#45;checked version of TrackElement.at(At)">
<polygon fill="white" stroke="black" points="357,-327.01 357,-346.01 479,-346.01 479,-327.01 357,-327.01"/>
<text text-anchor="middle" x="418" y="-334.01" font-family="Helvetica,sans-Serif" font-size="10.00">TTrack::TrackElementAt</text>
</a>
</g>
</g>
<!-- Node1&#45;&gt;Node10 -->
<g id="edge25" class="edge">
<title>Node1&#45;&gt;Node10</title>
<path fill="none" stroke="midnightblue" d="M57.2,-188.14C68.76,-208.58 98.74,-256.32 138,-279.51 202.18,-317.41 287.54,-330.44 346.87,-334.75"/>
<polygon fill="midnightblue" stroke="midnightblue" points="346.69,-338.24 356.9,-335.41 347.15,-331.26 346.69,-338.24"/>
</g>
<!-- Node3&#45;&gt;Node2 -->
<g id="edge3" class="edge">
<title>Node3&#45;&gt;Node2</title>
<path fill="none" stroke="midnightblue" d="M485.88,-186.47C498.03,-187.92 510.69,-189.42 522.76,-190.86"/>
<polygon fill="midnightblue" stroke="midnightblue" points="522.4,-194.34 532.74,-192.05 523.23,-187.39 522.4,-194.34"/>
</g>
<!-- Node3&#45;&gt;Node4 -->
<g id="edge4" class="edge">
<title>Node3&#45;&gt;Node4</title>
<path fill="none" stroke="midnightblue" d="M485.88,-170.15C498.03,-168.63 510.69,-167.05 522.76,-165.54"/>
<polygon fill="midnightblue" stroke="midnightblue" points="523.25,-169 532.74,-164.29 522.39,-162.06 523.25,-169"/>
</g>
<!-- Node5&#45;&gt;Node2 -->
<g id="edge6" class="edge">
<title>Node5&#45;&gt;Node2</title>
<path fill="none" stroke="midnightblue" d="M468.9,-144.06C478.41,-146.61 488.16,-149.73 497,-153.51 514.46,-160.97 516.14,-167.78 533,-176.51 538.78,-179.5 545.07,-182.38 551.24,-185.01"/>
<polygon fill="midnightblue" stroke="midnightblue" points="550.17,-188.35 560.75,-188.92 552.83,-181.88 550.17,-188.35"/>
</g>
<!-- Node5&#45;&gt;Node4 -->
<g id="edge7" class="edge">
<title>Node5&#45;&gt;Node4</title>
<path fill="none" stroke="midnightblue" d="M488.79,-144.06C500.04,-145.6 511.64,-147.19 522.75,-148.71"/>
<polygon fill="midnightblue" stroke="midnightblue" points="522.41,-152.2 532.79,-150.09 523.36,-145.26 522.41,-152.2"/>
</g>
<!-- Node6&#45;&gt;Node2 -->
<g id="edge9" class="edge">
<title>Node6&#45;&gt;Node2</title>
<path fill="none" stroke="midnightblue" d="M483.64,-55.65C488.52,-58.38 493.06,-61.63 497,-65.51 533.95,-101.9 497.69,-138.52 533,-176.51 535.6,-179.3 538.6,-181.75 541.84,-183.9"/>
<polygon fill="midnightblue" stroke="midnightblue" points="540.38,-187.09 550.82,-188.89 543.78,-180.98 540.38,-187.09"/>
</g>
<!-- Node6&#45;&gt;Node4 -->
<g id="edge10" class="edge">
<title>Node6&#45;&gt;Node4</title>
<path fill="none" stroke="midnightblue" d="M479.12,-56.61C485.35,-59.17 491.44,-62.11 497,-65.51 529.24,-85.16 558.13,-118.96 574.05,-139.66"/>
<polygon fill="midnightblue" stroke="midnightblue" points="571.43,-142 580.23,-147.9 577.03,-137.8 571.43,-142"/>
</g>
<!-- Node7&#45;&gt;Node2 -->
<g id="edge12" class="edge">
<title>Node7&#45;&gt;Node2</title>
<path fill="none" stroke="midnightblue" d="M480.82,-105.51C486.6,-108.3 492.11,-111.6 497,-115.51 521.6,-135.15 509.17,-155.93 533,-176.51 536.5,-179.53 540.47,-182.17 544.63,-184.48"/>
<polygon fill="midnightblue" stroke="midnightblue" points="543.41,-187.78 553.93,-188.99 546.47,-181.48 543.41,-187.78"/>
</g>
<!-- Node7&#45;&gt;Node4 -->
<g id="edge13" class="edge">
<title>Node7&#45;&gt;Node4</title>
<path fill="none" stroke="midnightblue" d="M469.26,-105.58C478.56,-108.66 488.13,-112.03 497,-115.51 518.27,-123.84 541.62,-134.79 559.21,-143.43"/>
<polygon fill="midnightblue" stroke="midnightblue" points="557.83,-146.65 568.34,-147.95 560.94,-140.37 557.83,-146.65"/>
</g>
<!-- Node8&#45;&gt;Node2 -->
<g id="edge15" class="edge">
<title>Node8&#45;&gt;Node2</title>
<path fill="none" stroke="midnightblue" d="M485.88,-212.95C498.03,-211.22 510.69,-209.41 522.76,-207.68"/>
<polygon fill="midnightblue" stroke="midnightblue" points="523.34,-211.14 532.74,-206.26 522.35,-204.21 523.34,-211.14"/>
</g>
<!-- Node8&#45;&gt;Node4 -->
<g id="edge16" class="edge">
<title>Node8&#45;&gt;Node4</title>
<path fill="none" stroke="midnightblue" d="M466.42,-212.92C476.71,-210.13 487.38,-206.68 497,-202.51 514.41,-194.94 516.14,-188.24 533,-179.51 538.78,-176.51 545.07,-173.64 551.24,-171"/>
<polygon fill="midnightblue" stroke="midnightblue" points="552.83,-174.13 560.75,-167.09 550.17,-167.66 552.83,-174.13"/>
</g>
<!-- Node9&#45;&gt;Node2 -->
<g id="edge18" class="edge">
<title>Node9&#45;&gt;Node2</title>
<path fill="none" stroke="midnightblue" d="M253.69,-270.05C306.39,-283.96 413.57,-305.02 497,-274.51 528.81,-262.87 557.13,-234.48 573.17,-215.88"/>
<polygon fill="midnightblue" stroke="midnightblue" points="575.92,-218.04 579.63,-208.12 570.54,-213.56 575.92,-218.04"/>
</g>
<!-- Node9&#45;&gt;Node4 -->
<g id="edge20" class="edge">
<title>Node9&#45;&gt;Node4</title>
<path fill="none" stroke="midnightblue" d="M303.27,-263.16C372.63,-263.92 465.71,-260.98 497,-241.51 524.05,-224.67 508.96,-200.42 533,-179.51 536.44,-176.51 540.35,-173.89 544.45,-171.6"/>
<polygon fill="midnightblue" stroke="midnightblue" points="546.18,-174.65 553.63,-167.11 543.11,-168.36 546.18,-174.65"/>
</g>
<!-- Node9&#45;&gt;Node8 -->
<g id="edge19" class="edge">
<title>Node9&#45;&gt;Node8</title>
<path fill="none" stroke="midnightblue" d="M270.58,-250.97C297.07,-245.82 329.97,-239.42 357.87,-234"/>
<polygon fill="midnightblue" stroke="midnightblue" points="358.75,-237.39 367.9,-232.05 357.42,-230.52 358.75,-237.39"/>
</g>
<!-- Node9&#45;&gt;Node10 -->
<g id="edge21" class="edge">
<title>Node9&#45;&gt;Node10</title>
<path fill="none" stroke="midnightblue" d="M241.16,-270.07C264.26,-281.09 303.89,-299.39 339,-312.51 349.98,-316.61 362.02,-320.57 373.27,-324.05"/>
<polygon fill="midnightblue" stroke="midnightblue" points="372.34,-327.42 382.92,-326.97 374.37,-320.72 372.34,-327.42"/>
</g>
<!-- Node10&#45;&gt;Node2 -->
<g id="edge22" class="edge">
<title>Node10&#45;&gt;Node2</title>
<path fill="none" stroke="midnightblue" d="M466.47,-326.89C477.08,-323.42 487.88,-318.75 497,-312.51 533.92,-287.22 562.9,-242.22 577.21,-216.98"/>
<polygon fill="midnightblue" stroke="midnightblue" points="580.36,-218.51 582.11,-208.07 574.22,-215.14 580.36,-218.51"/>
</g>
<!-- Node10&#45;&gt;Node4 -->
<g id="edge23" class="edge">
<title>Node10&#45;&gt;Node4</title>
<path fill="none" stroke="midnightblue" d="M435.82,-326.92C453.3,-316.19 480.37,-297.28 497,-274.51 523.63,-238.04 501.47,-211.83 533,-179.51 535.82,-176.61 539.08,-174.09 542.56,-171.89"/>
<polygon fill="midnightblue" stroke="midnightblue" points="544.42,-174.86 551.58,-167.05 541.11,-168.69 544.42,-174.86"/>
</g>
</g>
</svg>
        <g id="navigator" transform="translate(0 0)" fill="#404254">
                <rect fill="#f2f5e9" fill-opacity="0.5" stroke="#606060" stroke-width=".5" x="0" y="0" width="60" height="60"/>
                <use id="zoomplus" xlink:href="#zoomPlus" x="17" y="9" onmousedown="handleZoom(evt,'in')"/>
                <use id="zoomminus" xlink:href="#zoomMin" x="42" y="9" onmousedown="handleZoom(evt,'out')"/>
                <use id="reset" xlink:href="#resetDef" x="30" y="36" onmousedown="handleReset()"/>
                <g id="arrowUp" xlink:href="#dirArrow" transform="translate(30 24)" onmousedown="handlePan(0,-1)">
                  <use xlink:href="#rim" fill="#404040">
                        <set attributeName="fill" to="#808080" begin="arrowUp.mouseover" end="arrowUp.mouseout"/>
                  </use>
                  <path fill="none" stroke="white" stroke-width="1.5" d="M0,-3.0v7 M-2.5,-0.5L0,-3.0L2.5,-0.5"/>
                </g>
                <g id="arrowRight" xlink:href="#dirArrow" transform="rotate(90) translate(36 -43)" onmousedown="handlePan(1,0)">
                  <use xlink:href="#rim" fill="#404040">
                        <set attributeName="fill" to="#808080" begin="arrowRight.mouseover" end="arrowRight.mouseout"/>
                  </use>
                  <path fill="none" stroke="white" stroke-width="1.5" d="M0,-3.0v7 M-2.5,-0.5L0,-3.0L2.5,-0.5"/>
                </g>
                <g id="arrowDown" xlink:href="#dirArrow" transform="rotate(180) translate(-30 -48)" onmousedown="handlePan(0,1)">
                  <use xlink:href="#rim" fill="#404040">
                        <set attributeName="fill" to="#808080" begin="arrowDown.mouseover" end="arrowDown.mouseout"/>
                  </use>
                  <path fill="none" stroke="white" stroke-width="1.5" d="M0,-3.0v7 M-2.5,-0.5L0,-3.0L2.5,-0.5"/>
                </g>
                <g id="arrowLeft" xlink:href="#dirArrow" transform="rotate(270) translate(-36 17)" onmousedown="handlePan(-1,0)">
                  <use xlink:href="#rim" fill="#404040">
                        <set attributeName="fill" to="#808080" begin="arrowLeft.mouseover" end="arrowLeft.mouseout"/>
                  </use>
                  <path fill="none" stroke="white" stroke-width="1.5" d="M0,-3.0v7 M-2.5,-0.5L0,-3.0L2.5,-0.5"/>
                </g>
        </g>
        <svg viewBox="0 0 15 15" width="100%" height="30px" preserveAspectRatio="xMaxYMin meet">
         <g id="arrow_out" transform="scale(0.3 0.3)">
          <a xlink:href="class_t_track_a607c6164af3158c328dd7c3ae25236c7_cgraph_org.svg" target="_base">
           <rect id="button" ry="5" rx="5" y="6" x="6" height="38" width="38"
                fill="#f2f5e9" fill-opacity="0.5" stroke="#606060" stroke-width="1.0"/>
           <path id="arrow"
             d="M 11.500037,31.436501 C 11.940474,20.09759 22.043105,11.32322 32.158766,21.979434 L 37.068811,17.246167 C 37.068811,17.246167 37.088388,32 37.088388,32 L 22.160133,31.978069 C 22.160133,31.978069 26.997745,27.140456 26.997745,27.140456 C 18.528582,18.264221 13.291696,25.230495 11.500037,31.436501 z"
             style="fill:#404040;"/>
          </a>
         </g>
        </svg>
</svg>
