<?xml version="1.0" encoding="UTF-8" standalone="no"?>
<!DOCTYPE svg PUBLIC "-//W3C//DTD SVG 1.1//EN"
 "http://www.w3.org/Graphics/SVG/1.1/DTD/svg11.dtd">
<!-- Generated by graphviz version 2.44.1 (20200629.0800)
 -->
<!-- Title: TOnePrefDir::EndPossible Pages: 1 -->
<svg width="450pt" height="69pt"
 viewBox="0.00 0.00 450.00 69.00" xmlns="http://www.w3.org/2000/svg" xmlns:xlink="http://www.w3.org/1999/xlink">
<g id="graph0" class="graph" transform="scale(1 1) rotate(0) translate(4 65)">
<title>TOnePrefDir::EndPossible</title>
<polygon fill="white" stroke="transparent" points="-4,4 -4,-65 446,-65 446,4 -4,4"/>
<!-- Node1 -->
<g id="node1" class="node">
<title>Node1</title>
<g id="a_node1"><a xlink:title="Used when setting preferred directions, true if able to finish at the last selected element (can&#39;t fi...">
<polygon fill="#bfbfbf" stroke="black" points="0,-21.5 0,-40.5 130,-40.5 130,-21.5 0,-21.5"/>
<text text-anchor="middle" x="65" y="-28.5" font-family="Helvetica,sans-Serif" font-size="10.00">TOnePrefDir::EndPossible</text>
</a>
</g>
</g>
<!-- Node2 -->
<g id="node2" class="node">
<title>Node2</title>
<g id="a_node2"><a xlink:href="class_t_utilities.html#ae1eddca13cc3c492839e131f40ec21c0" target="_top" xlink:title="pops the last entry off the call stack, throws an error if called when empty">
<polygon fill="white" stroke="black" points="332,-41.5 332,-60.5 442,-60.5 442,-41.5 332,-41.5"/>
<text text-anchor="middle" x="387" y="-48.5" font-family="Helvetica,sans-Serif" font-size="10.00">TUtilities::CallLogPop</text>
</a>
</g>
</g>
<!-- Node1&#45;&gt;Node2 -->
<g id="edge1" class="edge">
<title>Node1&#45;&gt;Node2</title>
<path fill="none" stroke="midnightblue" d="M96.27,-40.63C115.92,-46.36 142.2,-53.07 166,-56 218.24,-62.43 277.97,-60.49 322,-57.33"/>
<polygon fill="midnightblue" stroke="midnightblue" points="322.28,-60.82 331.99,-56.57 321.75,-53.84 322.28,-60.82"/>
</g>
<!-- Node3 -->
<g id="node3" class="node">
<title>Node3</title>
<g id="a_node3"><a xlink:href="class_t_one_pref_dir.html#a26a1ee9d1ced0d53e35936097d4896f0" target="_top" xlink:title="Return the vector position of the last element in the vector (i.e. one less than the vector size)">
<polygon fill="white" stroke="black" points="166,-16 166,-46 296,-46 296,-16 166,-16"/>
<text text-anchor="start" x="174" y="-34" font-family="Helvetica,sans-Serif" font-size="10.00">TOnePrefDir::LastElement</text>
<text text-anchor="middle" x="231" y="-23" font-family="Helvetica,sans-Serif" font-size="10.00">Number</text>
</a>
</g>
</g>
<!-- Node1&#45;&gt;Node3 -->
<g id="edge2" class="edge">
<title>Node1&#45;&gt;Node3</title>
<path fill="none" stroke="midnightblue" d="M130.35,-31C138.64,-31 147.19,-31 155.62,-31"/>
<polygon fill="midnightblue" stroke="midnightblue" points="155.84,-34.5 165.84,-31 155.84,-27.5 155.84,-34.5"/>
</g>
<!-- Node4 -->
<g id="node4" class="node">
<title>Node4</title>
<g id="a_node4"><a xlink:href="class_t_utilities.html#a34bd6bb5305bc29afdf424f6d35a921c" target="_top" xlink:title="creates a string of the form &#39;hh:mm:ss&#39; for use in call &amp; event logging">
<polygon fill="white" stroke="black" points="332,-0.5 332,-19.5 442,-19.5 442,-0.5 332,-0.5"/>
<text text-anchor="middle" x="387" y="-7.5" font-family="Helvetica,sans-Serif" font-size="10.00">TUtilities::TimeStamp</text>
</a>
</g>
</g>
<!-- Node1&#45;&gt;Node4 -->
<g id="edge5" class="edge">
<title>Node1&#45;&gt;Node4</title>
<path fill="none" stroke="midnightblue" d="M96.27,-21.37C115.92,-15.64 142.2,-8.93 166,-6 218.23,0.43 277.96,-1.22 321.99,-4.11"/>
<polygon fill="midnightblue" stroke="midnightblue" points="321.77,-7.61 331.98,-4.81 322.25,-0.62 321.77,-7.61"/>
</g>
<!-- Node3&#45;&gt;Node2 -->
<g id="edge3" class="edge">
<title>Node3&#45;&gt;Node2</title>
<path fill="none" stroke="midnightblue" d="M296.42,-39.37C304.74,-40.45 313.26,-41.55 321.58,-42.63"/>
<polygon fill="midnightblue" stroke="midnightblue" points="321.24,-46.12 331.6,-43.94 322.14,-39.18 321.24,-46.12"/>
</g>
<!-- Node3&#45;&gt;Node4 -->
<g id="edge4" class="edge">
<title>Node3&#45;&gt;Node4</title>
<path fill="none" stroke="midnightblue" d="M296.42,-22.22C304.74,-21.08 313.26,-19.92 321.58,-18.78"/>
<polygon fill="midnightblue" stroke="midnightblue" points="322.17,-22.24 331.6,-17.42 321.22,-15.3 322.17,-22.24"/>
</g>
</g>
</svg>
