<?xml version="1.0" encoding="UTF-8" standalone="no"?>
<!DOCTYPE svg PUBLIC "-//W3C//DTD SVG 1.1//EN"
 "http://www.w3.org/Graphics/SVG/1.1/DTD/svg11.dtd">
<!-- Generated by graphviz version 2.44.1 (20200629.0800)
 -->
<!-- Title: TOneRoute::SetRemainingSearchVectorValues Pages: 1 -->
<!--zoomable 223 -->
<svg id="main" version="1.1" xmlns="http://www.w3.org/2000/svg" xmlns:xlink="http://www.w3.org/1999/xlink" xml:space="preserve" onload="init(evt)">
<style type="text/css"><![CDATA[
.edge:hover path { stroke: red; }
.edge:hover polygon { stroke: red; fill: red; }
]]></style>
<script type="text/javascript"><![CDATA[
var edges = document.getElementsByTagName('g');
if (edges && edges.length) {
  for (var i=0;i<edges.length;i++) {
    if (edges[i].id.substr(0,4)=='edge') {
      edges[i].setAttribute('class','edge');
    }
  }
}
]]></script>
        <defs>
                <circle id="rim" cx="0" cy="0" r="7"/>
                <circle id="rim2" cx="0" cy="0" r="3.5"/>
                <g id="zoomPlus">
                        <use xlink:href="#rim" fill="#404040">
                                <set attributeName="fill" to="#808080" begin="zoomplus.mouseover" end="zoomplus.mouseout"/>
                        </use>
                        <path d="M-4,0h8M0,-4v8" fill="none" stroke="white" stroke-width="1.5" pointer-events="none"/>
                </g>
                <g id="zoomMin">
                        <use xlink:href="#rim" fill="#404040">
                                <set attributeName="fill" to="#808080" begin="zoomminus.mouseover" end="zoomminus.mouseout"/>
                        </use>
                        <path d="M-4,0h8" fill="none" stroke="white" stroke-width="1.5" pointer-events="none"/>
                </g>
                <g id="dirArrow">
                        <path fill="none" stroke="white" stroke-width="1.5" d="M0,-3.0v7 M-2.5,-0.5L0,-3.0L2.5,-0.5"/>
                </g>
               <g id="resetDef">
                       <use xlink:href="#rim2" fill="#404040">
                               <set attributeName="fill" to="#808080" begin="reset.mouseover" end="reset.mouseout"/>
                       </use>
               </g>
        </defs>

<script type="text/javascript">
var viewWidth = 849;
var viewHeight = 223;
var sectionId = 'dynsection-31';
</script>
<script xlink:href="svgpan.js"/>
<svg id="graph" class="graph">
<g id="viewport">
<title>TOneRoute::SetRemainingSearchVectorValues</title>
<polygon fill="white" stroke="transparent" points="-4,4 -4,-219.39 845,-219.39 845,4 -4,4"/>
<!-- Node1 -->
<g id="node1" class="node">
<title>Node1</title>
<g id="a_node1"><a xlink:title="Called when setting unrestricted routes to set the route element values appropriately after a success...">
<polygon fill="#bfbfbf" stroke="black" points="0,-106.61 0,-136.61 163,-136.61 163,-106.61 0,-106.61"/>
<text text-anchor="start" x="8" y="-124.61" font-family="Helvetica,sans-Serif" font-size="10.00">TOneRoute::SetRemainingSearch</text>
<text text-anchor="middle" x="81.5" y="-113.61" font-family="Helvetica,sans-Serif" font-size="10.00">VectorValues</text>
</a>
</g>
</g>
<!-- Node2 -->
<g id="node2" class="node">
<title>Node2</title>
<g id="a_node2"><a xlink:href="class_t_utilities.html#ae1eddca13cc3c492839e131f40ec21c0" target="_top" xlink:title="pops the last entry off the call stack, throws an error if called when empty">
<polygon fill="white" stroke="black" points="731,-183.11 731,-202.11 841,-202.11 841,-183.11 731,-183.11"/>
<text text-anchor="middle" x="786" y="-190.11" font-family="Helvetica,sans-Serif" font-size="10.00">TUtilities::CallLogPop</text>
</a>
</g>
</g>
<!-- Node1&#45;&gt;Node2 -->
<g id="edge1" class="edge">
<title>Node1&#45;&gt;Node2</title>
<path fill="none" stroke="midnightblue" d="M133.26,-136.61C191.75,-153.32 290.98,-179.91 378,-194.61 458.54,-208.22 479.4,-207.83 561,-211.61 620.49,-214.37 635.77,-217.8 695,-211.61 709.31,-210.12 724.7,-207.32 738.64,-204.32"/>
<polygon fill="midnightblue" stroke="midnightblue" points="739.5,-207.72 748.49,-202.12 737.97,-200.89 739.5,-207.72"/>
</g>
<!-- Node3 -->
<g id="node3" class="node">
<title>Node3</title>
<g id="a_node3"><a xlink:href="class_t_one_route.html#ab8570cc4c3941927b206c015a9813af0" target="_top" xlink:title="Set values for EXGraphicPtr and EntryDirectionGraphicPtr for all elements in SearchVector so that the...">
<polygon fill="white" stroke="black" points="199,-106.61 199,-136.61 342,-136.61 342,-106.61 199,-106.61"/>
<text text-anchor="start" x="207" y="-124.61" font-family="Helvetica,sans-Serif" font-size="10.00">TOneRoute::SetRouteSearch</text>
<text text-anchor="middle" x="270.5" y="-113.61" font-family="Helvetica,sans-Serif" font-size="10.00">VectorGraphics</text>
</a>
</g>
</g>
<!-- Node1&#45;&gt;Node3 -->
<g id="edge2" class="edge">
<title>Node1&#45;&gt;Node3</title>
<path fill="none" stroke="midnightblue" d="M163.16,-121.61C171.59,-121.61 180.17,-121.61 188.61,-121.61"/>
<polygon fill="midnightblue" stroke="midnightblue" points="188.81,-125.11 198.81,-121.61 188.81,-118.11 188.81,-125.11"/>
</g>
<!-- Node6 -->
<g id="node6" class="node">
<title>Node6</title>
<g id="a_node6"><a xlink:href="class_t_utilities.html#a34bd6bb5305bc29afdf424f6d35a921c" target="_top" xlink:title="creates a string of the form &#39;hh:mm:ss&#39; for use in call &amp; event logging">
<polygon fill="white" stroke="black" points="731,-90.11 731,-109.11 841,-109.11 841,-90.11 731,-90.11"/>
<text text-anchor="middle" x="786" y="-97.11" font-family="Helvetica,sans-Serif" font-size="10.00">TUtilities::TimeStamp</text>
</a>
</g>
</g>
<!-- Node1&#45;&gt;Node6 -->
<g id="edge13" class="edge">
<title>Node1&#45;&gt;Node6</title>
<path fill="none" stroke="midnightblue" d="M111.24,-106.52C162.91,-80.35 275.65,-27.51 378,-8.61 442.25,3.25 460.59,2.33 525,-8.61 611.93,-23.39 708.52,-64.09 755.75,-85.7"/>
<polygon fill="midnightblue" stroke="midnightblue" points="754.52,-88.98 765.06,-90.01 757.46,-82.63 754.52,-88.98"/>
</g>
<!-- Node3&#45;&gt;Node2 -->
<g id="edge3" class="edge">
<title>Node3&#45;&gt;Node2</title>
<path fill="none" stroke="midnightblue" d="M300.09,-136.76C321.09,-147.25 350.62,-160.71 378,-168.61 495.23,-202.45 639.12,-201.6 720.61,-197.43"/>
<polygon fill="midnightblue" stroke="midnightblue" points="720.93,-200.92 730.72,-196.88 720.55,-193.93 720.93,-200.92"/>
</g>
<!-- Node4 -->
<g id="node4" class="node">
<title>Node4</title>
<g id="a_node4"><a xlink:href="class_t_pref_dir_element.html#a3a31ae39854d89213a06010dcb8d2b34" target="_top" xlink:title="picks up the green or red route direction graphic">
<polygon fill="white" stroke="black" points="378,-18.61 378,-48.61 525,-48.61 525,-18.61 378,-18.61"/>
<text text-anchor="start" x="386" y="-36.61" font-family="Helvetica,sans-Serif" font-size="10.00">TPrefDirElement::GetDirection</text>
<text text-anchor="middle" x="451.5" y="-25.61" font-family="Helvetica,sans-Serif" font-size="10.00">RouteGraphicPtr</text>
</a>
</g>
</g>
<!-- Node3&#45;&gt;Node4 -->
<g id="edge4" class="edge">
<title>Node3&#45;&gt;Node4</title>
<path fill="none" stroke="midnightblue" d="M297.36,-106.52C318.68,-94.33 349.88,-77.04 378,-63.61 385.77,-59.9 394.13,-56.19 402.31,-52.71"/>
<polygon fill="midnightblue" stroke="midnightblue" points="403.92,-55.83 411.79,-48.74 401.21,-49.38 403.92,-55.83"/>
</g>
<!-- Node5 -->
<g id="node5" class="node">
<title>Node5</title>
<g id="a_node5"><a xlink:href="class_t_one_pref_dir.html#a6724a8304760eb6107bddc60a269595b" target="_top" xlink:title="Return a modifiable element at SearchVector position &#39;At&#39;.">
<polygon fill="white" stroke="black" points="561,-155.61 561,-185.61 695,-185.61 695,-155.61 561,-155.61"/>
<text text-anchor="start" x="569" y="-173.61" font-family="Helvetica,sans-Serif" font-size="10.00">TOnePrefDir::GetModifiable</text>
<text text-anchor="middle" x="628" y="-162.61" font-family="Helvetica,sans-Serif" font-size="10.00">SearchElementAt</text>
</a>
</g>
</g>
<!-- Node3&#45;&gt;Node5 -->
<g id="edge5" class="edge">
<title>Node3&#45;&gt;Node5</title>
<path fill="none" stroke="midnightblue" d="M329.25,-136.66C344.98,-140.35 362.07,-143.99 378,-146.61 435.63,-156.11 501.43,-162.25 550.91,-165.94"/>
<polygon fill="midnightblue" stroke="midnightblue" points="550.66,-169.43 560.89,-166.67 551.17,-162.45 550.66,-169.43"/>
</g>
<!-- Node3&#45;&gt;Node6 -->
<g id="edge12" class="edge">
<title>Node3&#45;&gt;Node6</title>
<path fill="none" stroke="midnightblue" d="M327.48,-106.55C343.66,-102.87 361.42,-99.46 378,-97.61 498.31,-84.22 639.85,-89.65 720.34,-94.7"/>
<polygon fill="midnightblue" stroke="midnightblue" points="720.6,-98.23 730.8,-95.38 721.05,-91.24 720.6,-98.23"/>
</g>
<!-- Node7 -->
<g id="node7" class="node">
<title>Node7</title>
<g id="a_node7"><a xlink:href="class_t_pref_dir_element.html#acc8674681c7b4eda8ce8551abdae9680" target="_top" xlink:title="picks up the appropriate route graphic">
<polygon fill="white" stroke="black" points="384.5,-106.61 384.5,-136.61 518.5,-136.61 518.5,-106.61 384.5,-106.61"/>
<text text-anchor="start" x="392.5" y="-124.61" font-family="Helvetica,sans-Serif" font-size="10.00">TPrefDirElement::GetRoute</text>
<text text-anchor="middle" x="451.5" y="-113.61" font-family="Helvetica,sans-Serif" font-size="10.00">GraphicPtr</text>
</a>
</g>
</g>
<!-- Node3&#45;&gt;Node7 -->
<g id="edge8" class="edge">
<title>Node3&#45;&gt;Node7</title>
<path fill="none" stroke="midnightblue" d="M342.25,-121.61C352.76,-121.61 363.64,-121.61 374.26,-121.61"/>
<polygon fill="midnightblue" stroke="midnightblue" points="374.35,-125.11 384.35,-121.61 374.35,-118.11 374.35,-125.11"/>
</g>
<!-- Node5&#45;&gt;Node2 -->
<g id="edge6" class="edge">
<title>Node5&#45;&gt;Node2</title>
<path fill="none" stroke="midnightblue" d="M695.16,-179.94C703.54,-181.12 712.11,-182.33 720.47,-183.51"/>
<polygon fill="midnightblue" stroke="midnightblue" points="720.14,-187 730.53,-184.93 721.12,-180.07 720.14,-187"/>
</g>
<!-- Node5&#45;&gt;Node6 -->
<g id="edge7" class="edge">
<title>Node5&#45;&gt;Node6</title>
<path fill="none" stroke="midnightblue" d="M672.99,-155.54C680.4,-152.74 687.97,-149.71 695,-146.61 717.19,-136.84 741.51,-124 759.27,-114.21"/>
<polygon fill="midnightblue" stroke="midnightblue" points="761.37,-117.05 768.41,-109.13 757.97,-110.93 761.37,-117.05"/>
</g>
<!-- Node8 -->
<g id="node8" class="node">
<title>Node8</title>
<g id="a_node8"><a xlink:href="class_t_pref_dir_element.html#ae8ee9f59578f80d23aebfdb9fff041d4" target="_top" xlink:title="determines and loads EXNumber (see above)">
<polygon fill="white" stroke="black" points="561,-106.61 561,-136.61 695,-136.61 695,-106.61 561,-106.61"/>
<text text-anchor="start" x="569" y="-124.61" font-family="Helvetica,sans-Serif" font-size="10.00">TPrefDirElement::EntryExit</text>
<text text-anchor="middle" x="628" y="-113.61" font-family="Helvetica,sans-Serif" font-size="10.00">Number</text>
</a>
</g>
</g>
<!-- Node7&#45;&gt;Node8 -->
<g id="edge9" class="edge">
<title>Node7&#45;&gt;Node8</title>
<path fill="none" stroke="midnightblue" d="M518.97,-121.61C529.33,-121.61 540.11,-121.61 550.68,-121.61"/>
<polygon fill="midnightblue" stroke="midnightblue" points="550.72,-125.11 560.72,-121.61 550.72,-118.11 550.72,-125.11"/>
</g>
<!-- Node8&#45;&gt;Node2 -->
<g id="edge10" class="edge">
<title>Node8&#45;&gt;Node2</title>
<path fill="none" stroke="midnightblue" d="M670.83,-136.66C678.91,-139.79 687.27,-143.19 695,-146.61 716.79,-156.27 740.8,-168.63 758.53,-178.11"/>
<polygon fill="midnightblue" stroke="midnightblue" points="757.22,-181.38 767.69,-183.04 760.54,-175.22 757.22,-181.38"/>
</g>
<!-- Node8&#45;&gt;Node6 -->
<g id="edge11" class="edge">
<title>Node8&#45;&gt;Node6</title>
<path fill="none" stroke="midnightblue" d="M695.16,-112.28C703.54,-111.1 712.11,-109.89 720.47,-108.71"/>
<polygon fill="midnightblue" stroke="midnightblue" points="721.12,-112.16 730.53,-107.29 720.14,-105.22 721.12,-112.16"/>
</g>
</g>
</svg>
        <g id="navigator" transform="translate(0 0)" fill="#404254">
                <rect fill="#f2f5e9" fill-opacity="0.5" stroke="#606060" stroke-width=".5" x="0" y="0" width="60" height="60"/>
                <use id="zoomplus" xlink:href="#zoomPlus" x="17" y="9" onmousedown="handleZoom(evt,'in')"/>
                <use id="zoomminus" xlink:href="#zoomMin" x="42" y="9" onmousedown="handleZoom(evt,'out')"/>
                <use id="reset" xlink:href="#resetDef" x="30" y="36" onmousedown="handleReset()"/>
                <g id="arrowUp" xlink:href="#dirArrow" transform="translate(30 24)" onmousedown="handlePan(0,-1)">
                  <use xlink:href="#rim" fill="#404040">
                        <set attributeName="fill" to="#808080" begin="arrowUp.mouseover" end="arrowUp.mouseout"/>
                  </use>
                  <path fill="none" stroke="white" stroke-width="1.5" d="M0,-3.0v7 M-2.5,-0.5L0,-3.0L2.5,-0.5"/>
                </g>
                <g id="arrowRight" xlink:href="#dirArrow" transform="rotate(90) translate(36 -43)" onmousedown="handlePan(1,0)">
                  <use xlink:href="#rim" fill="#404040">
                        <set attributeName="fill" to="#808080" begin="arrowRight.mouseover" end="arrowRight.mouseout"/>
                  </use>
                  <path fill="none" stroke="white" stroke-width="1.5" d="M0,-3.0v7 M-2.5,-0.5L0,-3.0L2.5,-0.5"/>
                </g>
                <g id="arrowDown" xlink:href="#dirArrow" transform="rotate(180) translate(-30 -48)" onmousedown="handlePan(0,1)">
                  <use xlink:href="#rim" fill="#404040">
                        <set attributeName="fill" to="#808080" begin="arrowDown.mouseover" end="arrowDown.mouseout"/>
                  </use>
                  <path fill="none" stroke="white" stroke-width="1.5" d="M0,-3.0v7 M-2.5,-0.5L0,-3.0L2.5,-0.5"/>
                </g>
                <g id="arrowLeft" xlink:href="#dirArrow" transform="rotate(270) translate(-36 17)" onmousedown="handlePan(-1,0)">
                  <use xlink:href="#rim" fill="#404040">
                        <set attributeName="fill" to="#808080" begin="arrowLeft.mouseover" end="arrowLeft.mouseout"/>
                  </use>
                  <path fill="none" stroke="white" stroke-width="1.5" d="M0,-3.0v7 M-2.5,-0.5L0,-3.0L2.5,-0.5"/>
                </g>
        </g>
        <svg viewBox="0 0 15 15" width="100%" height="30px" preserveAspectRatio="xMaxYMin meet">
         <g id="arrow_out" transform="scale(0.3 0.3)">
          <a xlink:href="class_t_one_route_a8f8fe8f852dd24cf8d12933f22b5750c_cgraph_org.svg" target="_base">
           <rect id="button" ry="5" rx="5" y="6" x="6" height="38" width="38"
                fill="#f2f5e9" fill-opacity="0.5" stroke="#606060" stroke-width="1.0"/>
           <path id="arrow"
             d="M 11.500037,31.436501 C 11.940474,20.09759 22.043105,11.32322 32.158766,21.979434 L 37.068811,17.246167 C 37.068811,17.246167 37.088388,32 37.088388,32 L 22.160133,31.978069 C 22.160133,31.978069 26.997745,27.140456 26.997745,27.140456 C 18.528582,18.264221 13.291696,25.230495 11.500037,31.436501 z"
             style="fill:#404040;"/>
          </a>
         </g>
        </svg>
</svg>
