<?xml version="1.0" encoding="UTF-8" standalone="no"?>
<!DOCTYPE svg PUBLIC "-//W3C//DTD SVG 1.1//EN"
 "http://www.w3.org/Graphics/SVG/1.1/DTD/svg11.dtd">
<!-- Generated by graphviz version 2.44.1 (20200629.0800)
 -->
<!-- Title: TTrain::RepeatShuttleOrNewNonRepeatService Pages: 1 -->
<svg width="830pt" height="78pt"
 viewBox="0.00 0.00 830.00 77.50" xmlns="http://www.w3.org/2000/svg" xmlns:xlink="http://www.w3.org/1999/xlink">
<g id="graph0" class="graph" transform="scale(1 1) rotate(0) translate(4 73.5)">
<title>TTrain::RepeatShuttleOrNewNonRepeatService</title>
<polygon fill="white" stroke="transparent" points="-4,4 -4,-73.5 826,-73.5 826,4 -4,4"/>
<!-- Node1 -->
<g id="node1" class="node">
<title>Node1</title>
<g id="a_node1"><a xlink:title="Carry out the actions needed to create either a new shuttle service or (if all repeats have finished)...">
<polygon fill="#bfbfbf" stroke="black" points="682,-17 682,-47 822,-47 822,-17 682,-17"/>
<text text-anchor="start" x="690" y="-35" font-family="Helvetica,sans-Serif" font-size="10.00">TTrain::RepeatShuttleOrNew</text>
<text text-anchor="middle" x="752" y="-24" font-family="Helvetica,sans-Serif" font-size="10.00">NonRepeatService</text>
</a>
</g>
</g>
<!-- Node2 -->
<g id="node2" class="node">
<title>Node2</title>
<g id="a_node2"><a xlink:href="class_t_interface.html#a0e9af41ff305fe2813385fce38b73206" target="_top" xlink:title=" ">
<polygon fill="white" stroke="black" points="495,-39 495,-69 646,-69 646,-39 495,-39"/>
<text text-anchor="start" x="503" y="-57" font-family="Helvetica,sans-Serif" font-size="10.00">TInterface::BecomeNewService</text>
<text text-anchor="middle" x="570.5" y="-46" font-family="Helvetica,sans-Serif" font-size="10.00">MenuItemClick</text>
</a>
</g>
</g>
<!-- Node1&#45;&gt;Node2 -->
<g id="edge1" class="edge">
<title>Node1&#45;&gt;Node2</title>
<path fill="none" stroke="midnightblue" d="M671.93,-41.69C663.4,-42.74 654.74,-43.8 646.27,-44.84"/>
<polygon fill="midnightblue" stroke="midnightblue" points="672.36,-45.16 681.86,-40.47 671.51,-38.22 672.36,-45.16"/>
</g>
<!-- Node3 -->
<g id="node3" class="node">
<title>Node3</title>
<g id="a_node3"><a xlink:href="class_t_train.html#a89ad640ecf8f5163c40727b4e28575fc" target="_top" xlink:title="Major function called at each clock tick for each train &amp; handles all train movement &amp; associated act...">
<polygon fill="white" stroke="black" points="520,-0.5 520,-19.5 621,-19.5 621,-0.5 520,-0.5"/>
<text text-anchor="middle" x="570.5" y="-7.5" font-family="Helvetica,sans-Serif" font-size="10.00">TTrain::UpdateTrain</text>
</a>
</g>
</g>
<!-- Node1&#45;&gt;Node3 -->
<g id="edge2" class="edge">
<title>Node1&#45;&gt;Node3</title>
<path fill="none" stroke="midnightblue" d="M671.79,-22.29C654.56,-20.18 636.81,-18 621.11,-16.08"/>
<polygon fill="midnightblue" stroke="midnightblue" points="671.51,-25.78 681.86,-23.53 672.36,-18.84 671.51,-25.78"/>
</g>
<!-- Node4 -->
<g id="node4" class="node">
<title>Node4</title>
<g id="a_node4"><a xlink:href="class_t_train_controller.html#a20a1576dea1d86ed78fc5e9f46343481" target="_top" xlink:title="called every clock tick to introduce new trains and update existing trains">
<polygon fill="white" stroke="black" points="334,-0.5 334,-19.5 459,-19.5 459,-0.5 334,-0.5"/>
<text text-anchor="middle" x="396.5" y="-7.5" font-family="Helvetica,sans-Serif" font-size="10.00">TTrainController::Operate</text>
</a>
</g>
</g>
<!-- Node3&#45;&gt;Node4 -->
<g id="edge3" class="edge">
<title>Node3&#45;&gt;Node4</title>
<path fill="none" stroke="midnightblue" d="M509.75,-10C493.35,-10 475.55,-10 459.06,-10"/>
<polygon fill="midnightblue" stroke="midnightblue" points="509.75,-13.5 519.75,-10 509.75,-6.5 509.75,-13.5"/>
</g>
<!-- Node5 -->
<g id="node5" class="node">
<title>Node5</title>
<g id="a_node5"><a xlink:href="class_t_interface.html#a6139ffb52492eb89e5487a8a3cd647b5" target="_top" xlink:title="The main loop, called every clock tick via MasterClockTimer.">
<polygon fill="white" stroke="black" points="179,-0.5 179,-19.5 298,-19.5 298,-0.5 179,-0.5"/>
<text text-anchor="middle" x="238.5" y="-7.5" font-family="Helvetica,sans-Serif" font-size="10.00">TInterface::ClockTimer2</text>
</a>
</g>
</g>
<!-- Node4&#45;&gt;Node5 -->
<g id="edge4" class="edge">
<title>Node4&#45;&gt;Node5</title>
<path fill="none" stroke="midnightblue" d="M323.83,-10C315.24,-10 306.54,-10 298.16,-10"/>
<polygon fill="midnightblue" stroke="midnightblue" points="323.84,-13.5 333.84,-10 323.84,-6.5 323.84,-13.5"/>
</g>
<!-- Node6 -->
<g id="node6" class="node">
<title>Node6</title>
<g id="a_node6"><a xlink:href="class_t_interface.html#ace30a12d923fc7fb489afabb0a09aa4f" target="_top" xlink:title=" ">
<polygon fill="white" stroke="black" points="0,-0.5 0,-19.5 143,-19.5 143,-0.5 0,-0.5"/>
<text text-anchor="middle" x="71.5" y="-7.5" font-family="Helvetica,sans-Serif" font-size="10.00">TInterface::MasterClockTimer</text>
</a>
</g>
</g>
<!-- Node5&#45;&gt;Node6 -->
<g id="edge5" class="edge">
<title>Node5&#45;&gt;Node6</title>
<path fill="none" stroke="midnightblue" d="M168.67,-10C160.22,-10 151.57,-10 143.09,-10"/>
<polygon fill="midnightblue" stroke="midnightblue" points="168.86,-13.5 178.86,-10 168.86,-6.5 168.86,-13.5"/>
</g>
</g>
</svg>
