<?xml version="1.0" encoding="UTF-8" standalone="no"?>
<!DOCTYPE svg PUBLIC "-//W3C//DTD SVG 1.1//EN"
 "http://www.w3.org/Graphics/SVG/1.1/DTD/svg11.dtd">
<!-- Generated by graphviz version 2.44.1 (20200629.0800)
 -->
<!-- Title: TInterface::SaveAsSubroutine Pages: 1 -->
<svg width="334pt" height="88pt"
 viewBox="0.00 0.00 334.00 88.00" xmlns="http://www.w3.org/2000/svg" xmlns:xlink="http://www.w3.org/1999/xlink">
<g id="graph0" class="graph" transform="scale(1 1) rotate(0) translate(4 84)">
<title>TInterface::SaveAsSubroutine</title>
<polygon fill="white" stroke="transparent" points="-4,4 -4,-84 330,-84 330,4 -4,4"/>
<!-- Node1 -->
<g id="node1" class="node">
<title>Node1</title>
<g id="a_node1"><a xlink:title="Used to save a railway when not already saved &#45; e.g. when not already named or when the &#39;Save as&#39; men...">
<polygon fill="#bfbfbf" stroke="black" points="182,-30 182,-49 326,-49 326,-30 182,-30"/>
<text text-anchor="middle" x="254" y="-37" font-family="Helvetica,sans-Serif" font-size="10.00">TInterface::SaveAsSubroutine</text>
</a>
</g>
</g>
<!-- Node2 -->
<g id="node2" class="node">
<title>Node2</title>
<g id="a_node2"><a xlink:href="class_t_interface.html#a0be281457630fce07fc19cdbbfde79b1" target="_top" xlink:title=" ">
<polygon fill="white" stroke="black" points="3,-49.5 3,-79.5 143,-79.5 143,-49.5 3,-49.5"/>
<text text-anchor="start" x="11" y="-67.5" font-family="Helvetica,sans-Serif" font-size="10.00">TInterface::SaveAsMenuItem</text>
<text text-anchor="middle" x="73" y="-56.5" font-family="Helvetica,sans-Serif" font-size="10.00">Click</text>
</a>
</g>
</g>
<!-- Node1&#45;&gt;Node2 -->
<g id="edge1" class="edge">
<title>Node1&#45;&gt;Node2</title>
<path fill="none" stroke="midnightblue" d="M174.81,-50.42C164.28,-51.89 153.54,-53.39 143.18,-54.84"/>
<polygon fill="midnightblue" stroke="midnightblue" points="175.4,-53.87 184.82,-49.02 174.43,-46.94 175.4,-53.87"/>
</g>
<!-- Node3 -->
<g id="node3" class="node">
<title>Node3</title>
<g id="a_node3"><a xlink:href="class_t_interface.html#a4f373f26e99a3dc0bc7effc71ca25dc0" target="_top" xlink:title=" ">
<polygon fill="white" stroke="black" points="0,-0.5 0,-30.5 146,-30.5 146,-0.5 0,-0.5"/>
<text text-anchor="start" x="8" y="-18.5" font-family="Helvetica,sans-Serif" font-size="10.00">TInterface::SaveHeaderMenu1</text>
<text text-anchor="middle" x="73" y="-7.5" font-family="Helvetica,sans-Serif" font-size="10.00">Click</text>
</a>
</g>
</g>
<!-- Node1&#45;&gt;Node3 -->
<g id="edge2" class="edge">
<title>Node1&#45;&gt;Node3</title>
<path fill="none" stroke="midnightblue" d="M171.94,-28.63C163.32,-27.48 154.6,-26.31 146.09,-25.17"/>
<polygon fill="midnightblue" stroke="midnightblue" points="171.62,-32.12 182,-29.98 172.55,-25.18 171.62,-32.12"/>
</g>
</g>
</svg>
