<?xml version="1.0" encoding="UTF-8" standalone="no"?>
<!DOCTYPE svg PUBLIC "-//W3C//DTD SVG 1.1//EN"
 "http://www.w3.org/Graphics/SVG/1.1/DTD/svg11.dtd">
<!-- Generated by graphviz version 2.44.1 (20200629.0800)
 -->
<!-- Title: TTrack::PlotGap Pages: 1 -->
<svg width="405pt" height="112pt"
 viewBox="0.00 0.00 405.00 112.09" xmlns="http://www.w3.org/2000/svg" xmlns:xlink="http://www.w3.org/1999/xlink">
<g id="graph0" class="graph" transform="scale(1 1) rotate(0) translate(4 108.09)">
<title>TTrack::PlotGap</title>
<polygon fill="white" stroke="transparent" points="-4,4 -4,-108.09 401,-108.09 401,4 -4,4"/>
<!-- Node1 -->
<g id="node1" class="node">
<title>Node1</title>
<g id="a_node1"><a xlink:title="Plots a gap on screen &#45; may be set or unset.">
<polygon fill="#bfbfbf" stroke="black" points="0,-47.5 0,-66.5 87,-66.5 87,-47.5 0,-47.5"/>
<text text-anchor="middle" x="43.5" y="-54.5" font-family="Helvetica,sans-Serif" font-size="10.00">TTrack::PlotGap</text>
</a>
</g>
</g>
<!-- Node2 -->
<g id="node2" class="node">
<title>Node2</title>
<g id="a_node2"><a xlink:href="class_t_utilities.html#ae1eddca13cc3c492839e131f40ec21c0" target="_top" xlink:title="&lt; specifies whether no delays or minor, moderate or major random delays are to be applied">
<polygon fill="white" stroke="black" points="287,-47.5 287,-66.5 397,-66.5 397,-47.5 287,-47.5"/>
<text text-anchor="middle" x="342" y="-54.5" font-family="Helvetica,sans-Serif" font-size="10.00">TUtilities::CallLogPop</text>
</a>
</g>
</g>
<!-- Node1&#45;&gt;Node2 -->
<g id="edge1" class="edge">
<title>Node1&#45;&gt;Node2</title>
<path fill="none" stroke="midnightblue" d="M59.09,-66.56C74.32,-75.93 99.24,-89.55 123,-95 178.45,-107.72 195.24,-106.29 251,-95 273.58,-90.43 297.54,-80.01 315.06,-71.23"/>
<polygon fill="midnightblue" stroke="midnightblue" points="316.79,-74.28 324.07,-66.58 313.58,-68.06 316.79,-74.28"/>
</g>
<!-- Node3 -->
<g id="node3" class="node">
<title>Node3</title>
<g id="a_node3"><a xlink:href="class_t_track_element.html#a100bff829c4dca820927affde4cb9e57" target="_top" xlink:title="Used to log track parameters for call stack logging.">
<polygon fill="white" stroke="black" points="123,-66.5 123,-85.5 251,-85.5 251,-66.5 123,-66.5"/>
<text text-anchor="middle" x="187" y="-73.5" font-family="Helvetica,sans-Serif" font-size="10.00">TTrackElement::LogTrack</text>
</a>
</g>
</g>
<!-- Node1&#45;&gt;Node3 -->
<g id="edge2" class="edge">
<title>Node1&#45;&gt;Node3</title>
<path fill="none" stroke="midnightblue" d="M87.34,-62.75C95.49,-63.85 104.24,-65.02 113.03,-66.2"/>
<polygon fill="midnightblue" stroke="midnightblue" points="112.57,-69.67 122.95,-67.53 113.5,-62.73 112.57,-69.67"/>
</g>
<!-- Node4 -->
<g id="node4" class="node">
<title>Node4</title>
<g id="a_node4"><a xlink:href="class_t_display.html#a9ab49e52c7eb92b32ae2c34547183439" target="_top" xlink:title="Plot the graphic at screen position HPos &amp; VPos.">
<polygon fill="white" stroke="black" points="133.5,-28.5 133.5,-47.5 240.5,-47.5 240.5,-28.5 133.5,-28.5"/>
<text text-anchor="middle" x="187" y="-35.5" font-family="Helvetica,sans-Serif" font-size="10.00">TDisplay::PlotOutput</text>
</a>
</g>
</g>
<!-- Node1&#45;&gt;Node4 -->
<g id="edge3" class="edge">
<title>Node1&#45;&gt;Node4</title>
<path fill="none" stroke="midnightblue" d="M87.34,-51.25C98.65,-49.73 111.1,-48.06 123.22,-46.43"/>
<polygon fill="midnightblue" stroke="midnightblue" points="123.86,-49.88 133.31,-45.08 122.93,-42.94 123.86,-49.88"/>
</g>
<!-- Node5 -->
<g id="node5" class="node">
<title>Node5</title>
<g id="a_node5"><a xlink:href="class_t_utilities.html#a34bd6bb5305bc29afdf424f6d35a921c" target="_top" xlink:title="creates a string of the form &#39;hh:mm:ss&#39; for use in call &amp; event logging">
<polygon fill="white" stroke="black" points="287,-0.5 287,-19.5 397,-19.5 397,-0.5 287,-0.5"/>
<text text-anchor="middle" x="342" y="-7.5" font-family="Helvetica,sans-Serif" font-size="10.00">TUtilities::TimeStamp</text>
</a>
</g>
</g>
<!-- Node1&#45;&gt;Node5 -->
<g id="edge6" class="edge">
<title>Node1&#45;&gt;Node5</title>
<path fill="none" stroke="midnightblue" d="M59.43,-47.47C74.71,-38.27 99.5,-24.9 123,-19 173.51,-6.32 232.64,-4.66 276.56,-5.84"/>
<polygon fill="midnightblue" stroke="midnightblue" points="276.71,-9.35 286.82,-6.18 276.94,-2.36 276.71,-9.35"/>
</g>
<!-- Node4&#45;&gt;Node2 -->
<g id="edge4" class="edge">
<title>Node4&#45;&gt;Node2</title>
<path fill="none" stroke="midnightblue" d="M240.65,-44.54C252.34,-45.99 264.84,-47.54 276.93,-49.04"/>
<polygon fill="midnightblue" stroke="midnightblue" points="276.59,-52.53 286.95,-50.29 277.46,-45.58 276.59,-52.53"/>
</g>
<!-- Node4&#45;&gt;Node5 -->
<g id="edge5" class="edge">
<title>Node4&#45;&gt;Node5</title>
<path fill="none" stroke="midnightblue" d="M240.23,-28.44C252.66,-26.17 266.04,-23.72 278.87,-21.37"/>
<polygon fill="midnightblue" stroke="midnightblue" points="279.8,-24.76 289.01,-19.51 278.54,-17.87 279.8,-24.76"/>
</g>
</g>
</svg>
