<?xml version="1.0" encoding="UTF-8" standalone="no"?>
<!DOCTYPE svg PUBLIC "-//W3C//DTD SVG 1.1//EN"
 "http://www.w3.org/Graphics/SVG/1.1/DTD/svg11.dtd">
<!-- Generated by graphviz version 2.44.1 (20200629.0800)
 -->
<!-- Title: TTrainController::SplitRepeat Pages: 1 -->
<svg width="1338pt" height="186pt"
 viewBox="0.00 0.00 1338.00 186.00" xmlns="http://www.w3.org/2000/svg" xmlns:xlink="http://www.w3.org/1999/xlink">
<g id="graph0" class="graph" transform="scale(1 1) rotate(0) translate(4 182)">
<title>TTrainController::SplitRepeat</title>
<polygon fill="white" stroke="transparent" points="-4,4 -4,-182 1334,-182 1334,4 -4,4"/>
<!-- Node1 -->
<g id="node1" class="node">
<title>Node1</title>
<g id="a_node1"><a xlink:title="Parse a timetable repeat entry, return true for success.">
<polygon fill="#bfbfbf" stroke="black" points="1190,-79 1190,-98 1330,-98 1330,-79 1190,-79"/>
<text text-anchor="middle" x="1260" y="-86" font-family="Helvetica,sans-Serif" font-size="10.00">TTrainController::SplitRepeat</text>
</a>
</g>
</g>
<!-- Node2 -->
<g id="node2" class="node">
<title>Node2</title>
<g id="a_node2"><a xlink:href="class_t_train_controller.html#a5c51eb1e0018e189966ffdbc5d251990" target="_top" xlink:title="Carry out preliminary (mainly syntax) validity checks on a single timetable service entry and (if Fin...">
<polygon fill="white" stroke="black" points="1028,-73.5 1028,-103.5 1154,-103.5 1154,-73.5 1028,-73.5"/>
<text text-anchor="start" x="1036" y="-91.5" font-family="Helvetica,sans-Serif" font-size="10.00">TTrainController::Process</text>
<text text-anchor="middle" x="1091" y="-80.5" font-family="Helvetica,sans-Serif" font-size="10.00">OneTimetableLine</text>
</a>
</g>
</g>
<!-- Node1&#45;&gt;Node2 -->
<g id="edge1" class="edge">
<title>Node1&#45;&gt;Node2</title>
<path fill="none" stroke="midnightblue" d="M1179.37,-88.5C1170.93,-88.5 1162.43,-88.5 1154.22,-88.5"/>
<polygon fill="midnightblue" stroke="midnightblue" points="1179.63,-92 1189.63,-88.5 1179.63,-85 1179.63,-92"/>
</g>
<!-- Node3 -->
<g id="node3" class="node">
<title>Node3</title>
<g id="a_node3"><a xlink:href="class_t_interface.html#a148e3f99d39f596dbd7d490403936154" target="_top" xlink:title="Convert a stored timetable file (either as a stand alone file or within a session file) to a loaded t...">
<polygon fill="white" stroke="black" points="859.5,-147.5 859.5,-177.5 987.5,-177.5 987.5,-147.5 859.5,-147.5"/>
<text text-anchor="start" x="867.5" y="-165.5" font-family="Helvetica,sans-Serif" font-size="10.00">TInterface::BuildTrainData</text>
<text text-anchor="middle" x="923.5" y="-154.5" font-family="Helvetica,sans-Serif" font-size="10.00">VectorForLoadFile</text>
</a>
</g>
</g>
<!-- Node2&#45;&gt;Node3 -->
<g id="edge2" class="edge">
<title>Node2&#45;&gt;Node3</title>
<path fill="none" stroke="midnightblue" d="M1053.48,-108.56C1035.28,-118.19 1012.76,-129.56 992,-138.5 984.8,-141.6 977.06,-144.63 969.48,-147.43"/>
<polygon fill="midnightblue" stroke="midnightblue" points="1055.41,-111.5 1062.58,-103.7 1052.11,-105.33 1055.41,-111.5"/>
</g>
<!-- Node10 -->
<g id="node10" class="node">
<title>Node10</title>
<g id="a_node10"><a xlink:href="class_t_interface.html#a4ffe7e6eb2421577f670a52f556aef97" target="_top" xlink:title="Check the integrity of a stored timetable file (either as a stand alone file or within a session file...">
<polygon fill="white" stroke="black" points="859.5,-49.5 859.5,-79.5 987.5,-79.5 987.5,-49.5 859.5,-49.5"/>
<text text-anchor="start" x="867.5" y="-67.5" font-family="Helvetica,sans-Serif" font-size="10.00">TInterface::BuildTrainData</text>
<text text-anchor="middle" x="923.5" y="-56.5" font-family="Helvetica,sans-Serif" font-size="10.00">VectorForValidateFile</text>
</a>
</g>
</g>
<!-- Node2&#45;&gt;Node10 -->
<g id="edge10" class="edge">
<title>Node2&#45;&gt;Node10</title>
<path fill="none" stroke="midnightblue" d="M1017.95,-78.05C1007.9,-76.59 997.64,-75.11 987.77,-73.68"/>
<polygon fill="midnightblue" stroke="midnightblue" points="1017.5,-81.52 1027.9,-79.5 1018.51,-74.6 1017.5,-81.52"/>
</g>
<!-- Node12 -->
<g id="node12" class="node">
<title>Node12</title>
<g id="a_node12"><a xlink:href="class_t_train_controller.html#ac51af4807fe6bba453f8ab9bba42e2b5" target="_top" xlink:title="Checks overall timetable integrity, calls many other specific checking functions, returns true for su...">
<polygon fill="white" stroke="black" points="857.5,-98.5 857.5,-128.5 989.5,-128.5 989.5,-98.5 857.5,-98.5"/>
<text text-anchor="start" x="865.5" y="-116.5" font-family="Helvetica,sans-Serif" font-size="10.00">TTrainController::Timetable</text>
<text text-anchor="middle" x="923.5" y="-105.5" font-family="Helvetica,sans-Serif" font-size="10.00">IntegrityCheck</text>
</a>
</g>
</g>
<!-- Node2&#45;&gt;Node12 -->
<g id="edge12" class="edge">
<title>Node2&#45;&gt;Node12</title>
<path fill="none" stroke="midnightblue" d="M1017.84,-99.4C1008.49,-100.81 998.95,-102.25 989.71,-103.65"/>
<polygon fill="midnightblue" stroke="midnightblue" points="1018.54,-102.83 1027.9,-97.88 1017.49,-95.91 1018.54,-102.83"/>
</g>
<!-- Node13 -->
<g id="node13" class="node">
<title>Node13</title>
<g id="a_node13"><a xlink:href="class_t_interface.html#a003b10236c2b4316dc57be370c715c44" target="_top" xlink:title=" ">
<polygon fill="white" stroke="black" points="855,-0.5 855,-30.5 992,-30.5 992,-0.5 855,-0.5"/>
<text text-anchor="start" x="863" y="-18.5" font-family="Helvetica,sans-Serif" font-size="10.00">TInterface::TTServiceSyntax</text>
<text text-anchor="middle" x="923.5" y="-7.5" font-family="Helvetica,sans-Serif" font-size="10.00">CheckButtonClick</text>
</a>
</g>
</g>
<!-- Node2&#45;&gt;Node13 -->
<g id="edge16" class="edge">
<title>Node2&#45;&gt;Node13</title>
<path fill="none" stroke="midnightblue" d="M1053.05,-68.69C1034.9,-59.3 1012.57,-48.26 992,-39.5 984.79,-36.43 977.04,-33.42 969.46,-30.62"/>
<polygon fill="midnightblue" stroke="midnightblue" points="1051.64,-71.9 1062.12,-73.42 1054.88,-65.69 1051.64,-71.9"/>
</g>
<!-- Node4 -->
<g id="node4" class="node">
<title>Node4</title>
<g id="a_node4"><a xlink:href="class_t_interface.html#a92d5a9e07b9362dee2296b7759a1c83d" target="_top" xlink:title="Loads timetable into memory from a session file, true if successful.">
<polygon fill="white" stroke="black" points="684,-98.5 684,-128.5 812,-128.5 812,-98.5 684,-98.5"/>
<text text-anchor="start" x="692" y="-116.5" font-family="Helvetica,sans-Serif" font-size="10.00">TInterface::LoadTimetable</text>
<text text-anchor="middle" x="748" y="-105.5" font-family="Helvetica,sans-Serif" font-size="10.00">FromSessionFile</text>
</a>
</g>
</g>
<!-- Node3&#45;&gt;Node4 -->
<g id="edge3" class="edge">
<title>Node3&#45;&gt;Node4</title>
<path fill="none" stroke="midnightblue" d="M859.4,-144.68C840.67,-139.39 820.34,-133.65 802.29,-128.55"/>
<polygon fill="midnightblue" stroke="midnightblue" points="858.45,-148.05 869.03,-147.4 860.36,-141.31 858.45,-148.05"/>
</g>
<!-- Node9 -->
<g id="node9" class="node">
<title>Node9</title>
<g id="a_node9"><a xlink:href="class_t_interface.html#a15a2f5ad77e4f6c2b0cc6314224dfb78" target="_top" xlink:title=" ">
<polygon fill="white" stroke="black" points="684,-147.5 684,-177.5 812,-177.5 812,-147.5 684,-147.5"/>
<text text-anchor="start" x="692" y="-165.5" font-family="Helvetica,sans-Serif" font-size="10.00">TInterface::LoadTimetable</text>
<text text-anchor="middle" x="748" y="-154.5" font-family="Helvetica,sans-Serif" font-size="10.00">MenuItemClick</text>
</a>
</g>
</g>
<!-- Node3&#45;&gt;Node9 -->
<g id="edge9" class="edge">
<title>Node3&#45;&gt;Node9</title>
<path fill="none" stroke="midnightblue" d="M849.13,-162.5C836.81,-162.5 824.12,-162.5 812.08,-162.5"/>
<polygon fill="midnightblue" stroke="midnightblue" points="849.37,-166 859.37,-162.5 849.37,-159 849.37,-166"/>
</g>
<!-- Node5 -->
<g id="node5" class="node">
<title>Node5</title>
<g id="a_node5"><a xlink:href="class_t_interface.html#a636b1b4bd29f2678a3290ed2d282f1c2" target="_top" xlink:title="Load a session file.">
<polygon fill="white" stroke="black" points="334,-104 334,-123 455,-123 455,-104 334,-104"/>
<text text-anchor="middle" x="394.5" y="-111" font-family="Helvetica,sans-Serif" font-size="10.00">TInterface::LoadSession</text>
</a>
</g>
</g>
<!-- Node4&#45;&gt;Node5 -->
<g id="edge4" class="edge">
<title>Node4&#45;&gt;Node5</title>
<path fill="none" stroke="midnightblue" d="M673.91,-115.84C662.88,-116.11 651.64,-116.35 641,-116.5 574.34,-117.44 557.66,-117.55 491,-116.5 479.39,-116.32 466.99,-116.01 455.1,-115.66"/>
<polygon fill="midnightblue" stroke="midnightblue" points="674.04,-119.34 683.95,-115.58 673.86,-112.34 674.04,-119.34"/>
</g>
<!-- Node8 -->
<g id="node8" class="node">
<title>Node8</title>
<g id="a_node8"><a xlink:href="class_t_interface.html#a3904f26b67b9512507960187b37b6f7b" target="_top" xlink:title="Checks session file integrity prior to loading, true for success.">
<polygon fill="white" stroke="black" points="491,-76.5 491,-106.5 641,-106.5 641,-76.5 491,-76.5"/>
<text text-anchor="start" x="499" y="-94.5" font-family="Helvetica,sans-Serif" font-size="10.00">TInterface::SessionFileIntegrity</text>
<text text-anchor="middle" x="566" y="-83.5" font-family="Helvetica,sans-Serif" font-size="10.00">Check</text>
</a>
</g>
</g>
<!-- Node4&#45;&gt;Node8 -->
<g id="edge7" class="edge">
<title>Node4&#45;&gt;Node8</title>
<path fill="none" stroke="midnightblue" d="M673.64,-104.53C662.93,-103.22 651.89,-101.88 641.16,-100.56"/>
<polygon fill="midnightblue" stroke="midnightblue" points="673.44,-108.04 683.79,-105.77 674.29,-101.09 673.44,-108.04"/>
</g>
<!-- Node6 -->
<g id="node6" class="node">
<title>Node6</title>
<g id="a_node6"><a xlink:href="class_t_interface.html#a6139ffb52492eb89e5487a8a3cd647b5" target="_top" xlink:title="The main loop, called every clock tick via MasterClockTimer.">
<polygon fill="white" stroke="black" points="179,-104 179,-123 298,-123 298,-104 179,-104"/>
<text text-anchor="middle" x="238.5" y="-111" font-family="Helvetica,sans-Serif" font-size="10.00">TInterface::ClockTimer2</text>
</a>
</g>
</g>
<!-- Node5&#45;&gt;Node6 -->
<g id="edge5" class="edge">
<title>Node5&#45;&gt;Node6</title>
<path fill="none" stroke="midnightblue" d="M323.92,-113.5C315.3,-113.5 306.56,-113.5 298.12,-113.5"/>
<polygon fill="midnightblue" stroke="midnightblue" points="323.96,-117 333.96,-113.5 323.96,-110 323.96,-117"/>
</g>
<!-- Node7 -->
<g id="node7" class="node">
<title>Node7</title>
<g id="a_node7"><a xlink:href="class_t_interface.html#ace30a12d923fc7fb489afabb0a09aa4f" target="_top" xlink:title=" ">
<polygon fill="white" stroke="black" points="0,-104 0,-123 143,-123 143,-104 0,-104"/>
<text text-anchor="middle" x="71.5" y="-111" font-family="Helvetica,sans-Serif" font-size="10.00">TInterface::MasterClockTimer</text>
</a>
</g>
</g>
<!-- Node6&#45;&gt;Node7 -->
<g id="edge6" class="edge">
<title>Node6&#45;&gt;Node7</title>
<path fill="none" stroke="midnightblue" d="M168.67,-113.5C160.22,-113.5 151.57,-113.5 143.09,-113.5"/>
<polygon fill="midnightblue" stroke="midnightblue" points="168.86,-117 178.86,-113.5 168.86,-110 168.86,-117"/>
</g>
<!-- Node8&#45;&gt;Node5 -->
<g id="edge8" class="edge">
<title>Node8&#45;&gt;Node5</title>
<path fill="none" stroke="midnightblue" d="M480.55,-102.46C471.93,-103.58 463.3,-104.7 455.02,-105.77"/>
<polygon fill="midnightblue" stroke="midnightblue" points="481.19,-105.91 490.65,-101.15 480.29,-98.97 481.19,-105.91"/>
</g>
<!-- Node11 -->
<g id="node11" class="node">
<title>Node11</title>
<g id="a_node11"><a xlink:href="class_t_interface.html#a2f501868bbee2310af99bf2e8e265c59" target="_top" xlink:title=" ">
<polygon fill="white" stroke="black" points="677,-49.5 677,-79.5 819,-79.5 819,-49.5 677,-49.5"/>
<text text-anchor="start" x="685" y="-67.5" font-family="Helvetica,sans-Serif" font-size="10.00">TInterface::ValidateTimetable</text>
<text text-anchor="middle" x="748" y="-56.5" font-family="Helvetica,sans-Serif" font-size="10.00">ButtonClick</text>
</a>
</g>
</g>
<!-- Node10&#45;&gt;Node11 -->
<g id="edge11" class="edge">
<title>Node10&#45;&gt;Node11</title>
<path fill="none" stroke="midnightblue" d="M849.12,-64.5C839.18,-64.5 829,-64.5 819.12,-64.5"/>
<polygon fill="midnightblue" stroke="midnightblue" points="849.37,-68 859.37,-64.5 849.37,-61 849.37,-68"/>
</g>
<!-- Node12&#45;&gt;Node4 -->
<g id="edge13" class="edge">
<title>Node12&#45;&gt;Node4</title>
<path fill="none" stroke="midnightblue" d="M847.22,-113.5C835.53,-113.5 823.55,-113.5 812.16,-113.5"/>
<polygon fill="midnightblue" stroke="midnightblue" points="847.4,-117 857.4,-113.5 847.4,-110 847.4,-117"/>
</g>
<!-- Node12&#45;&gt;Node9 -->
<g id="edge14" class="edge">
<title>Node12&#45;&gt;Node9</title>
<path fill="none" stroke="midnightblue" d="M859.4,-131.32C840.67,-136.61 820.34,-142.35 802.29,-147.45"/>
<polygon fill="midnightblue" stroke="midnightblue" points="860.36,-134.69 869.03,-128.6 858.45,-127.95 860.36,-134.69"/>
</g>
<!-- Node12&#45;&gt;Node11 -->
<g id="edge15" class="edge">
<title>Node12&#45;&gt;Node11</title>
<path fill="none" stroke="midnightblue" d="M859.4,-95.68C840.67,-90.39 820.34,-84.65 802.29,-79.55"/>
<polygon fill="midnightblue" stroke="midnightblue" points="858.45,-99.05 869.03,-98.4 860.36,-92.31 858.45,-99.05"/>
</g>
</g>
</svg>
