<?xml version="1.0" encoding="UTF-8" standalone="no"?>
<!DOCTYPE svg PUBLIC "-//W3C//DTD SVG 1.1//EN"
 "http://www.w3.org/Graphics/SVG/1.1/DTD/svg11.dtd">
<!-- Generated by graphviz version 2.44.1 (20200629.0800)
 -->
<!-- Title: TRailGraphics::ChangeBackgroundColour3 Pages: 1 -->
<svg width="1614pt" height="460pt"
 viewBox="0.00 0.00 1614.00 460.00" xmlns="http://www.w3.org/2000/svg" xmlns:xlink="http://www.w3.org/1999/xlink">
<g id="graph0" class="graph" transform="scale(1 1) rotate(0) translate(4 456)">
<title>TRailGraphics::ChangeBackgroundColour3</title>
<polygon fill="white" stroke="transparent" points="-4,4 -4,-456 1610,-456 1610,4 -4,4"/>
<!-- Node1 -->
<g id="node1" class="node">
<title>Node1</title>
<g id="a_node1"><a xlink:title="as above but uses Scanline">
<polygon fill="#bfbfbf" stroke="black" points="1438,-252.5 1438,-282.5 1606,-282.5 1606,-252.5 1438,-252.5"/>
<text text-anchor="start" x="1446" y="-270.5" font-family="Helvetica,sans-Serif" font-size="10.00">TRailGraphics::ChangeBackground</text>
<text text-anchor="middle" x="1522" y="-259.5" font-family="Helvetica,sans-Serif" font-size="10.00">Colour3</text>
</a>
</g>
</g>
<!-- Node2 -->
<g id="node2" class="node">
<title>Node2</title>
<g id="a_node2"><a xlink:href="class_t_train.html#a594228489e522dfde0ffbe124cd27103" target="_top" xlink:title="Set the four HeadCodeGrPtr[4] pointers to the appropriate character graphics with the current backgro...">
<polygon fill="white" stroke="black" points="1254,-258 1254,-277 1402,-277 1402,-258 1254,-258"/>
<text text-anchor="middle" x="1328" y="-265" font-family="Helvetica,sans-Serif" font-size="10.00">TTrain::SetHeadCodeGraphics</text>
</a>
</g>
</g>
<!-- Node1&#45;&gt;Node2 -->
<g id="edge1" class="edge">
<title>Node1&#45;&gt;Node2</title>
<path fill="none" stroke="midnightblue" d="M1427.85,-267.5C1419.26,-267.5 1410.64,-267.5 1402.27,-267.5"/>
<polygon fill="midnightblue" stroke="midnightblue" points="1427.9,-271 1437.9,-267.5 1427.9,-264 1427.9,-271"/>
</g>
<!-- Node3 -->
<g id="node3" class="node">
<title>Node3</title>
<g id="a_node3"><a xlink:href="class_t_train.html#a23c65e7f2b2130ae87811f70afb6d5bf" target="_top" xlink:title="Create one train with relevant member values from the sesion file.">
<polygon fill="white" stroke="black" points="1074,-352 1074,-371 1218,-371 1218,-352 1074,-352"/>
<text text-anchor="middle" x="1146" y="-359" font-family="Helvetica,sans-Serif" font-size="10.00">TTrain::LoadOneSessionTrain</text>
</a>
</g>
</g>
<!-- Node2&#45;&gt;Node3 -->
<g id="edge2" class="edge">
<title>Node2&#45;&gt;Node3</title>
<path fill="none" stroke="midnightblue" d="M1299.5,-281.86C1262.31,-301.28 1197,-335.39 1165.3,-351.94"/>
<polygon fill="midnightblue" stroke="midnightblue" points="1301.51,-284.76 1308.75,-277.03 1298.27,-278.56 1301.51,-284.76"/>
</g>
<!-- Node8 -->
<g id="node8" class="node">
<title>Node8</title>
<g id="a_node8"><a xlink:href="class_t_train.html#a43cd691f12297c4c13a19791329dd627" target="_top" xlink:title="Plots the train and sets up all relevant members for a new train when it is introduced into the railw...">
<polygon fill="white" stroke="black" points="1085,-239 1085,-258 1207,-258 1207,-239 1085,-239"/>
<text text-anchor="middle" x="1146" y="-246" font-family="Helvetica,sans-Serif" font-size="10.00">TTrain::PlotStartPosition</text>
</a>
</g>
</g>
<!-- Node2&#45;&gt;Node8 -->
<g id="edge7" class="edge">
<title>Node2&#45;&gt;Node8</title>
<path fill="none" stroke="midnightblue" d="M1243.55,-258.69C1231.3,-257.4 1218.88,-256.09 1207.22,-254.86"/>
<polygon fill="midnightblue" stroke="midnightblue" points="1243.47,-262.2 1253.79,-259.77 1244.21,-255.24 1243.47,-262.2"/>
</g>
<!-- Node4 -->
<g id="node4" class="node">
<title>Node4</title>
<g id="a_node4"><a xlink:href="class_t_train_controller.html#a853ddf9799c9fd7063c81ffa1dc754d7" target="_top" xlink:title="load trains from a session file">
<polygon fill="white" stroke="black" points="892,-421.5 892,-451.5 1038,-451.5 1038,-421.5 892,-421.5"/>
<text text-anchor="start" x="900" y="-439.5" font-family="Helvetica,sans-Serif" font-size="10.00">TTrainController::LoadSession</text>
<text text-anchor="middle" x="965" y="-428.5" font-family="Helvetica,sans-Serif" font-size="10.00">Trains</text>
</a>
</g>
</g>
<!-- Node3&#45;&gt;Node4 -->
<g id="edge3" class="edge">
<title>Node3&#45;&gt;Node4</title>
<path fill="none" stroke="midnightblue" d="M1117.62,-375.7C1096.25,-386.5 1065.64,-401.36 1038,-412.5 1030.3,-415.6 1022.03,-418.63 1013.94,-421.44"/>
<polygon fill="midnightblue" stroke="midnightblue" points="1119.43,-378.7 1126.75,-371.05 1116.25,-372.47 1119.43,-378.7"/>
</g>
<!-- Node5 -->
<g id="node5" class="node">
<title>Node5</title>
<g id="a_node5"><a xlink:href="class_t_interface.html#a636b1b4bd29f2678a3290ed2d282f1c2" target="_top" xlink:title="Load a session file.">
<polygon fill="white" stroke="black" points="336,-402 336,-421 457,-421 457,-402 336,-402"/>
<text text-anchor="middle" x="396.5" y="-409" font-family="Helvetica,sans-Serif" font-size="10.00">TInterface::LoadSession</text>
</a>
</g>
</g>
<!-- Node4&#45;&gt;Node5 -->
<g id="edge4" class="edge">
<title>Node4&#45;&gt;Node5</title>
<path fill="none" stroke="midnightblue" d="M881.78,-432.87C766.42,-427.78 559.27,-418.64 457.4,-414.14"/>
<polygon fill="midnightblue" stroke="midnightblue" points="881.82,-436.38 891.96,-433.32 882.13,-429.38 881.82,-436.38"/>
</g>
<!-- Node6 -->
<g id="node6" class="node">
<title>Node6</title>
<g id="a_node6"><a xlink:href="class_t_interface.html#a6139ffb52492eb89e5487a8a3cd647b5" target="_top" xlink:title="The main loop, called every clock tick via MasterClockTimer.">
<polygon fill="white" stroke="black" points="179,-358 179,-377 298,-377 298,-358 179,-358"/>
<text text-anchor="middle" x="238.5" y="-365" font-family="Helvetica,sans-Serif" font-size="10.00">TInterface::ClockTimer2</text>
</a>
</g>
</g>
<!-- Node5&#45;&gt;Node6 -->
<g id="edge5" class="edge">
<title>Node5&#45;&gt;Node6</title>
<path fill="none" stroke="midnightblue" d="M351.74,-399.16C326.9,-392.15 296.27,-383.51 273.28,-377.03"/>
<polygon fill="midnightblue" stroke="midnightblue" points="351.08,-402.61 361.65,-401.95 352.98,-395.87 351.08,-402.61"/>
</g>
<!-- Node7 -->
<g id="node7" class="node">
<title>Node7</title>
<g id="a_node7"><a xlink:href="class_t_interface.html#ace30a12d923fc7fb489afabb0a09aa4f" target="_top" xlink:title=" ">
<polygon fill="white" stroke="black" points="0,-358 0,-377 143,-377 143,-358 0,-358"/>
<text text-anchor="middle" x="71.5" y="-365" font-family="Helvetica,sans-Serif" font-size="10.00">TInterface::MasterClockTimer</text>
</a>
</g>
</g>
<!-- Node6&#45;&gt;Node7 -->
<g id="edge6" class="edge">
<title>Node6&#45;&gt;Node7</title>
<path fill="none" stroke="midnightblue" d="M168.67,-367.5C160.22,-367.5 151.57,-367.5 143.09,-367.5"/>
<polygon fill="midnightblue" stroke="midnightblue" points="168.86,-371 178.86,-367.5 168.86,-364 168.86,-371"/>
</g>
<!-- Node9 -->
<g id="node9" class="node">
<title>Node9</title>
<g id="a_node9"><a xlink:href="class_t_train_controller.html#aa895b60238810a9d134cd5b9c886da56" target="_top" xlink:title="Introduce a new train to the railway, with the characteristics specified, returns true for success,...">
<polygon fill="white" stroke="black" points="901,-334 901,-353 1029,-353 1029,-334 901,-334"/>
<text text-anchor="middle" x="965" y="-341" font-family="Helvetica,sans-Serif" font-size="10.00">TTrainController::AddTrain</text>
</a>
</g>
</g>
<!-- Node8&#45;&gt;Node9 -->
<g id="edge8" class="edge">
<title>Node8&#45;&gt;Node9</title>
<path fill="none" stroke="midnightblue" d="M1124.72,-264.33C1103.89,-280 1070.09,-303.85 1038,-319.5 1026.28,-325.22 1012.85,-330.1 1000.8,-333.94"/>
<polygon fill="midnightblue" stroke="midnightblue" points="1126.98,-267.01 1132.81,-258.16 1122.73,-261.45 1126.98,-267.01"/>
</g>
<!-- Node10 -->
<g id="node10" class="node">
<title>Node10</title>
<g id="a_node10"><a xlink:href="class_t_train.html#ad666fb061d1da7c44a72ec963c2098aa" target="_top" xlink:title="Carry out the actions needed when a train is to split from the front.">
<polygon fill="white" stroke="black" points="713,-263 713,-282 825,-282 825,-263 713,-263"/>
<text text-anchor="middle" x="769" y="-270" font-family="Helvetica,sans-Serif" font-size="10.00">TTrain::FrontTrainSplit</text>
</a>
</g>
</g>
<!-- Node8&#45;&gt;Node10 -->
<g id="edge20" class="edge">
<title>Node8&#45;&gt;Node10</title>
<path fill="none" stroke="midnightblue" d="M1074.38,-253.02C1002.11,-257.65 891.31,-264.74 825.21,-268.97"/>
<polygon fill="midnightblue" stroke="midnightblue" points="1074.99,-256.49 1084.75,-252.36 1074.55,-249.5 1074.99,-256.49"/>
</g>
<!-- Node13 -->
<g id="node13" class="node">
<title>Node13</title>
<g id="a_node13"><a xlink:href="class_t_train.html#ad64c5823265b0c611c2e5f0613317aa5" target="_top" xlink:title="Carry out the actions needed when a train is to split from the rear.">
<polygon fill="white" stroke="black" points="714,-301 714,-320 824,-320 824,-301 714,-301"/>
<text text-anchor="middle" x="769" y="-308" font-family="Helvetica,sans-Serif" font-size="10.00">TTrain::RearTrainSplit</text>
</a>
</g>
</g>
<!-- Node8&#45;&gt;Node13 -->
<g id="edge27" class="edge">
<title>Node8&#45;&gt;Node13</title>
<path fill="none" stroke="midnightblue" d="M1098.3,-260.4C1079.63,-264.9 1057.87,-269.81 1038,-273.5 964.34,-287.16 878.43,-298.16 824.13,-304.51"/>
<polygon fill="midnightblue" stroke="midnightblue" points="1099.15,-263.79 1108.04,-258.02 1097.49,-256.99 1099.15,-263.79"/>
</g>
<!-- Node14 -->
<g id="node14" class="node">
<title>Node14</title>
<g id="a_node14"><a xlink:href="class_t_train.html#aaac04c1b5e358a69e1930bae9ca6f429" target="_top" xlink:title="Reverses the direction of motion of the train.">
<polygon fill="white" stroke="black" points="894.5,-106 894.5,-125 1035.5,-125 1035.5,-106 894.5,-106"/>
<text text-anchor="middle" x="965" y="-113" font-family="Helvetica,sans-Serif" font-size="10.00">TTrain::ChangeTrainDirection</text>
</a>
</g>
</g>
<!-- Node8&#45;&gt;Node14 -->
<g id="edge16" class="edge">
<title>Node8&#45;&gt;Node14</title>
<path fill="none" stroke="midnightblue" d="M1131.92,-230.65C1113.5,-206.69 1077.69,-164.28 1038,-139.5 1028.17,-133.36 1016.58,-128.6 1005.62,-125.01"/>
<polygon fill="midnightblue" stroke="midnightblue" points="1129.29,-232.97 1138.11,-238.85 1134.88,-228.76 1129.29,-232.97"/>
</g>
<!-- Node17 -->
<g id="node17" class="node">
<title>Node17</title>
<g id="a_node17"><a xlink:href="class_t_train.html#a2bde9b347632a790874abfee29758d32" target="_top" xlink:title="Carry out the actions needed when a new shuttle service is created from a non&#45;repeating (F&#45;nshs) serv...">
<polygon fill="white" stroke="black" points="700,-0.5 700,-30.5 838,-30.5 838,-0.5 700,-0.5"/>
<text text-anchor="start" x="708" y="-18.5" font-family="Helvetica,sans-Serif" font-size="10.00">TTrain::NewShuttleFromNon</text>
<text text-anchor="middle" x="769" y="-7.5" font-family="Helvetica,sans-Serif" font-size="10.00">RepeatService</text>
</a>
</g>
</g>
<!-- Node8&#45;&gt;Node17 -->
<g id="edge21" class="edge">
<title>Node8&#45;&gt;Node17</title>
<path fill="none" stroke="midnightblue" d="M1136.66,-229.43C1121.63,-197.26 1086.93,-132.21 1038,-96.5 978.62,-53.16 895.85,-32.76 838.06,-23.32"/>
<polygon fill="midnightblue" stroke="midnightblue" points="1133.52,-230.99 1140.84,-238.65 1139.9,-228.09 1133.52,-230.99"/>
</g>
<!-- Node18 -->
<g id="node18" class="node">
<title>Node18</title>
<g id="a_node18"><a xlink:href="class_t_train.html#a68bda28987bb7b9d7e52b35abb2399de" target="_top" xlink:title="Carry out the actions needed when a train forms a new service (code Fns)">
<polygon fill="white" stroke="black" points="709,-225 709,-244 829,-244 829,-225 709,-225"/>
<text text-anchor="middle" x="769" y="-232" font-family="Helvetica,sans-Serif" font-size="10.00">TTrain::NewTrainService</text>
</a>
</g>
</g>
<!-- Node8&#45;&gt;Node18 -->
<g id="edge24" class="edge">
<title>Node8&#45;&gt;Node18</title>
<path fill="none" stroke="midnightblue" d="M1074.58,-245.87C1003.74,-243.23 895.72,-239.19 829.17,-236.71"/>
<polygon fill="midnightblue" stroke="midnightblue" points="1074.63,-249.38 1084.75,-246.25 1074.89,-242.38 1074.63,-249.38"/>
</g>
<!-- Node19 -->
<g id="node19" class="node">
<title>Node19</title>
<g id="a_node19"><a xlink:href="class_t_train.html#a648f31ead801d51160c024f1ead459c8" target="_top" xlink:title="Carry out the actions needed to create either a new shuttle service or (if all repeats have finished)...">
<polygon fill="white" stroke="black" points="699,-137.5 699,-167.5 839,-167.5 839,-137.5 699,-137.5"/>
<text text-anchor="start" x="707" y="-155.5" font-family="Helvetica,sans-Serif" font-size="10.00">TTrain::RepeatShuttleOrNew</text>
<text text-anchor="middle" x="769" y="-144.5" font-family="Helvetica,sans-Serif" font-size="10.00">NonRepeatService</text>
</a>
</g>
</g>
<!-- Node8&#45;&gt;Node19 -->
<g id="edge28" class="edge">
<title>Node8&#45;&gt;Node19</title>
<path fill="none" stroke="midnightblue" d="M1097.62,-236.37C1029.28,-218.88 903.12,-186.58 828.88,-167.57"/>
<polygon fill="midnightblue" stroke="midnightblue" points="1097.12,-239.85 1107.67,-238.94 1098.85,-233.07 1097.12,-239.85"/>
</g>
<!-- Node20 -->
<g id="node20" class="node">
<title>Node20</title>
<g id="a_node20"><a xlink:href="class_t_train.html#a1f4b4616c1167ff2ef83b2df48545c6b" target="_top" xlink:title="Carry out the actions needed to create either a new shuttle service or (if all repeats have finished)...">
<polygon fill="white" stroke="black" points="682,-99 682,-118 856,-118 856,-99 682,-99"/>
<text text-anchor="middle" x="769" y="-106" font-family="Helvetica,sans-Serif" font-size="10.00">TTrain::RepeatShuttleOrRemainHere</text>
</a>
</g>
</g>
<!-- Node8&#45;&gt;Node20 -->
<g id="edge31" class="edge">
<title>Node8&#45;&gt;Node20</title>
<path fill="none" stroke="midnightblue" d="M1123.99,-232.93C1103.08,-218.03 1069.64,-195.78 1038,-181.5 961.09,-146.79 937.69,-148.61 856,-127.5 843.12,-124.17 829.06,-120.91 816.11,-118.06"/>
<polygon fill="midnightblue" stroke="midnightblue" points="1121.98,-235.8 1132.14,-238.82 1126.08,-230.13 1121.98,-235.8"/>
</g>
<!-- Node21 -->
<g id="node21" class="node">
<title>Node21</title>
<g id="a_node21"><a xlink:href="class_t_train.html#affbb94aa088370056f8ca8c45a1fdd48" target="_top" xlink:title="Unplots &amp; replots train, which checks for facing signal and sets StoppedAtSignal if req&#39;d.">
<polygon fill="white" stroke="black" points="895,-372.5 895,-402.5 1035,-402.5 1035,-372.5 895,-372.5"/>
<text text-anchor="start" x="903" y="-390.5" font-family="Helvetica,sans-Serif" font-size="10.00">TTrain::SignallerChangeTrain</text>
<text text-anchor="middle" x="965" y="-379.5" font-family="Helvetica,sans-Serif" font-size="10.00">Direction</text>
</a>
</g>
</g>
<!-- Node8&#45;&gt;Node21 -->
<g id="edge34" class="edge">
<title>Node8&#45;&gt;Node21</title>
<path fill="none" stroke="midnightblue" d="M1132.58,-266.42C1114.48,-291.3 1078.56,-336.18 1038,-362.5 1032.12,-366.32 1025.58,-369.63 1018.92,-372.47"/>
<polygon fill="midnightblue" stroke="midnightblue" points="1135.46,-268.41 1138.42,-258.24 1129.76,-264.35 1135.46,-268.41"/>
</g>
<!-- Node9&#45;&gt;Node10 -->
<g id="edge9" class="edge">
<title>Node9&#45;&gt;Node10</title>
<path fill="none" stroke="midnightblue" d="M938.51,-329.14C917.06,-317.58 885.29,-301.64 856,-291.5 845.31,-287.8 833.61,-284.65 822.38,-282.05"/>
<polygon fill="midnightblue" stroke="midnightblue" points="936.86,-332.23 947.31,-333.96 940.22,-326.09 936.86,-332.23"/>
</g>
<!-- Node12 -->
<g id="node12" class="node">
<title>Node12</title>
<g id="a_node12"><a xlink:href="class_t_train_controller.html#a20a1576dea1d86ed78fc5e9f46343481" target="_top" xlink:title="called every clock tick to introduce new trains and update existing trains">
<polygon fill="white" stroke="black" points="334,-339 334,-358 459,-358 459,-339 334,-339"/>
<text text-anchor="middle" x="396.5" y="-346" font-family="Helvetica,sans-Serif" font-size="10.00">TTrainController::Operate</text>
</a>
</g>
</g>
<!-- Node9&#45;&gt;Node12 -->
<g id="edge13" class="edge">
<title>Node9&#45;&gt;Node12</title>
<path fill="none" stroke="midnightblue" d="M890.69,-344.15C778.05,-345.14 564.42,-347.03 459.21,-347.96"/>
<polygon fill="midnightblue" stroke="midnightblue" points="890.97,-347.64 900.94,-344.06 890.91,-340.65 890.97,-347.64"/>
</g>
<!-- Node9&#45;&gt;Node13 -->
<g id="edge14" class="edge">
<title>Node9&#45;&gt;Node13</title>
<path fill="none" stroke="midnightblue" d="M898.03,-332.28C873.96,-328.18 847.04,-323.6 824.12,-319.71"/>
<polygon fill="midnightblue" stroke="midnightblue" points="897.7,-335.77 908.15,-334 898.88,-328.87 897.7,-335.77"/>
</g>
<!-- Node11 -->
<g id="node11" class="node">
<title>Node11</title>
<g id="a_node11"><a xlink:href="class_t_train.html#a89ad640ecf8f5163c40727b4e28575fc" target="_top" xlink:title="Major function called at each clock tick for each train &amp; handles all train movement &amp; associated act...">
<polygon fill="white" stroke="black" points="520,-206 520,-225 621,-225 621,-206 520,-206"/>
<text text-anchor="middle" x="570.5" y="-213" font-family="Helvetica,sans-Serif" font-size="10.00">TTrain::UpdateTrain</text>
</a>
</g>
</g>
<!-- Node10&#45;&gt;Node11 -->
<g id="edge10" class="edge">
<title>Node10&#45;&gt;Node11</title>
<path fill="none" stroke="midnightblue" d="M710.23,-260.69C700.75,-258.48 691.07,-256.05 682,-253.5 652.32,-245.15 618.93,-233.32 596.7,-225.08"/>
<polygon fill="midnightblue" stroke="midnightblue" points="709.47,-264.1 720,-262.91 711.02,-257.28 709.47,-264.1"/>
</g>
<!-- Node11&#45;&gt;Node12 -->
<g id="edge11" class="edge">
<title>Node11&#45;&gt;Node12</title>
<path fill="none" stroke="midnightblue" d="M548.83,-231.48C512.84,-259.32 439.69,-315.88 410.22,-338.66"/>
<polygon fill="midnightblue" stroke="midnightblue" points="551.36,-233.95 557.13,-225.07 547.08,-228.41 551.36,-233.95"/>
</g>
<!-- Node12&#45;&gt;Node6 -->
<g id="edge12" class="edge">
<title>Node12&#45;&gt;Node6</title>
<path fill="none" stroke="midnightblue" d="M323.83,-357.23C315.24,-358.28 306.54,-359.33 298.16,-360.35"/>
<polygon fill="midnightblue" stroke="midnightblue" points="324.34,-360.69 333.84,-356.01 323.49,-353.74 324.34,-360.69"/>
</g>
<!-- Node13&#45;&gt;Node11 -->
<g id="edge15" class="edge">
<title>Node13&#45;&gt;Node11</title>
<path fill="none" stroke="midnightblue" d="M703.89,-299.23C696.37,-297.06 688.92,-294.51 682,-291.5 641.85,-274.05 601.08,-241.24 582.25,-225.05"/>
<polygon fill="midnightblue" stroke="midnightblue" points="703.21,-302.67 713.78,-301.85 705.01,-295.9 703.21,-302.67"/>
</g>
<!-- Node14&#45;&gt;Node11 -->
<g id="edge19" class="edge">
<title>Node14&#45;&gt;Node11</title>
<path fill="none" stroke="midnightblue" d="M942.73,-131.07C921.77,-145.57 888.28,-166.55 856,-177.5 776.72,-204.39 678.97,-212.35 621.14,-214.65"/>
<polygon fill="midnightblue" stroke="midnightblue" points="945.02,-133.74 951.16,-125.11 940.98,-128.02 945.02,-133.74"/>
</g>
<!-- Node15 -->
<g id="node15" class="node">
<title>Node15</title>
<g id="a_node15"><a xlink:href="class_t_interface.html#a528675bee2f8940b6fb3de82ebdd9cc1" target="_top" xlink:title="&lt; used when change early to the next service (Fns, Fns&#45;sh, Frh&#45;sh or F&#45;nshs) to advance the action po...">
<polygon fill="white" stroke="black" points="698.5,-49.5 698.5,-79.5 839.5,-79.5 839.5,-49.5 698.5,-49.5"/>
<text text-anchor="start" x="706.5" y="-67.5" font-family="Helvetica,sans-Serif" font-size="10.00">TInterface::SkipEventsBefore</text>
<text text-anchor="middle" x="769" y="-56.5" font-family="Helvetica,sans-Serif" font-size="10.00">SameLoc</text>
</a>
</g>
</g>
<!-- Node14&#45;&gt;Node15 -->
<g id="edge17" class="edge">
<title>Node14&#45;&gt;Node15</title>
<path fill="none" stroke="midnightblue" d="M917.51,-103.28C890.43,-96.16 856.05,-87.12 827.3,-79.56"/>
<polygon fill="midnightblue" stroke="midnightblue" points="916.95,-106.75 927.51,-105.91 918.73,-99.98 916.95,-106.75"/>
</g>
<!-- Node16 -->
<g id="node16" class="node">
<title>Node16</title>
<g id="a_node16"><a xlink:href="class_t_interface.html#a0e9af41ff305fe2813385fce38b73206" target="_top" xlink:title=" ">
<polygon fill="white" stroke="black" points="495,-93.5 495,-123.5 646,-123.5 646,-93.5 495,-93.5"/>
<text text-anchor="start" x="503" y="-111.5" font-family="Helvetica,sans-Serif" font-size="10.00">TInterface::BecomeNewService</text>
<text text-anchor="middle" x="570.5" y="-100.5" font-family="Helvetica,sans-Serif" font-size="10.00">MenuItemClick</text>
</a>
</g>
</g>
<!-- Node15&#45;&gt;Node16 -->
<g id="edge18" class="edge">
<title>Node15&#45;&gt;Node16</title>
<path fill="none" stroke="midnightblue" d="M690.88,-81.77C673.61,-85.64 655.43,-89.71 638.61,-93.47"/>
<polygon fill="midnightblue" stroke="midnightblue" points="691.93,-85.12 700.93,-79.52 690.4,-78.29 691.93,-85.12"/>
</g>
<!-- Node17&#45;&gt;Node11 -->
<g id="edge23" class="edge">
<title>Node17&#45;&gt;Node11</title>
<path fill="none" stroke="midnightblue" d="M691.09,-32.64C687.86,-34.68 684.81,-36.95 682,-39.5 649.17,-69.28 669.18,-94.72 646,-132.5 627.67,-162.37 598.02,-191.49 582.22,-205.99"/>
<polygon fill="midnightblue" stroke="midnightblue" points="692.89,-35.64 699.99,-27.78 689.54,-29.5 692.89,-35.64"/>
</g>
<!-- Node17&#45;&gt;Node16 -->
<g id="edge22" class="edge">
<title>Node17&#45;&gt;Node16</title>
<path fill="none" stroke="midnightblue" d="M695.88,-33.96C691.13,-35.69 686.46,-37.53 682,-39.5 648.47,-54.28 613.13,-77.98 591.69,-93.4"/>
<polygon fill="midnightblue" stroke="midnightblue" points="697.39,-37.14 705.71,-30.59 695.12,-30.52 697.39,-37.14"/>
</g>
<!-- Node18&#45;&gt;Node11 -->
<g id="edge26" class="edge">
<title>Node18&#45;&gt;Node11</title>
<path fill="none" stroke="midnightblue" d="M698.73,-227.8C673.09,-225.32 644.54,-222.56 621,-220.29"/>
<polygon fill="midnightblue" stroke="midnightblue" points="698.49,-231.29 708.78,-228.77 699.16,-224.33 698.49,-231.29"/>
</g>
<!-- Node18&#45;&gt;Node16 -->
<g id="edge25" class="edge">
<title>Node18&#45;&gt;Node16</title>
<path fill="none" stroke="midnightblue" d="M744.07,-219.16C706.13,-194.83 632.62,-147.69 594.97,-123.55"/>
<polygon fill="midnightblue" stroke="midnightblue" points="742.6,-222.37 752.91,-224.82 746.38,-216.48 742.6,-222.37"/>
</g>
<!-- Node19&#45;&gt;Node11 -->
<g id="edge30" class="edge">
<title>Node19&#45;&gt;Node11</title>
<path fill="none" stroke="midnightblue" d="M711.08,-170.75C675.24,-182.24 630.42,-196.61 601.39,-205.92"/>
<polygon fill="midnightblue" stroke="midnightblue" points="712.48,-173.98 720.93,-167.59 710.34,-167.31 712.48,-173.98"/>
</g>
<!-- Node19&#45;&gt;Node16 -->
<g id="edge29" class="edge">
<title>Node19&#45;&gt;Node16</title>
<path fill="none" stroke="midnightblue" d="M690.88,-135.23C673.61,-131.36 655.43,-127.29 638.61,-123.53"/>
<polygon fill="midnightblue" stroke="midnightblue" points="690.4,-138.71 700.93,-137.48 691.93,-131.88 690.4,-138.71"/>
</g>
<!-- Node20&#45;&gt;Node11 -->
<g id="edge33" class="edge">
<title>Node20&#45;&gt;Node11</title>
<path fill="none" stroke="midnightblue" d="M698.44,-120.96C692.77,-122.85 687.22,-125.01 682,-127.5 639.28,-147.87 598.17,-187.54 580.52,-205.84"/>
<polygon fill="midnightblue" stroke="midnightblue" points="699.51,-124.29 708.06,-118.04 697.48,-117.59 699.51,-124.29"/>
</g>
<!-- Node20&#45;&gt;Node16 -->
<g id="edge32" class="edge">
<title>Node20&#45;&gt;Node16</title>
<path fill="none" stroke="midnightblue" d="M671.77,-108.5C663.19,-108.5 654.59,-108.5 646.23,-108.5"/>
<polygon fill="midnightblue" stroke="midnightblue" points="671.81,-112 681.81,-108.5 671.81,-105 671.81,-112"/>
</g>
<!-- Node22 -->
<g id="node22" class="node">
<title>Node22</title>
<g id="a_node22"><a xlink:href="class_t_interface.html#aaaf32c3c815553f7ba70698e0f0071bb" target="_top" xlink:title=" ">
<polygon fill="white" stroke="black" points="701,-377.5 701,-407.5 837,-407.5 837,-377.5 701,-377.5"/>
<text text-anchor="start" x="709" y="-395.5" font-family="Helvetica,sans-Serif" font-size="10.00">TInterface::ChangeDirection</text>
<text text-anchor="middle" x="769" y="-384.5" font-family="Helvetica,sans-Serif" font-size="10.00">MenuItemClick</text>
</a>
</g>
</g>
<!-- Node21&#45;&gt;Node22 -->
<g id="edge35" class="edge">
<title>Node21&#45;&gt;Node22</title>
<path fill="none" stroke="midnightblue" d="M884.57,-389.55C868.85,-389.95 852.5,-390.37 837.24,-390.77"/>
<polygon fill="midnightblue" stroke="midnightblue" points="884.88,-393.04 894.78,-389.28 884.7,-386.04 884.88,-393.04"/>
</g>
</g>
</svg>
