<?xml version="1.0" encoding="UTF-8" standalone="no"?>
<!DOCTYPE svg PUBLIC "-//W3C//DTD SVG 1.1//EN"
 "http://www.w3.org/Graphics/SVG/1.1/DTD/svg11.dtd">
<!-- Generated by graphviz version 2.44.1 (20200629.0800)
 -->
<!-- Title: TAboutForm Pages: 1 -->
<svg width="157pt" height="347pt"
 viewBox="0.00 0.00 157.00 347.00" xmlns="http://www.w3.org/2000/svg" xmlns:xlink="http://www.w3.org/1999/xlink">
<g id="graph0" class="graph" transform="scale(1 1) rotate(0) translate(4 343)">
<title>TAboutForm</title>
<polygon fill="white" stroke="transparent" points="-4,4 -4,-343 153,-343 153,4 -4,4"/>
<!-- Node1 -->
<g id="node1" class="node">
<title>Node1</title>
<g id="a_node1"><a xlink:title="The small &#39;About&#39; box selected from the Help menu.">
<polygon fill="#bfbfbf" stroke="black" points="0,-0.5 0,-244.5 149,-244.5 149,-0.5 0,-0.5"/>
<text text-anchor="middle" x="74.5" y="-232.5" font-family="Helvetica,sans-Serif" font-size="10.00">TAboutForm</text>
<polyline fill="none" stroke="black" points="0,-225.5 149,-225.5 "/>
<text text-anchor="start" x="8" y="-213.5" font-family="Helvetica,sans-Serif" font-size="10.00">+ AboutFormButton</text>
<text text-anchor="start" x="8" y="-202.5" font-family="Helvetica,sans-Serif" font-size="10.00">+ ImageAppIcon</text>
<text text-anchor="start" x="8" y="-191.5" font-family="Helvetica,sans-Serif" font-size="10.00">+ AboutLabelCaption</text>
<text text-anchor="start" x="8" y="-180.5" font-family="Helvetica,sans-Serif" font-size="10.00">+ AboutLabelTitle</text>
<text text-anchor="start" x="8" y="-169.5" font-family="Helvetica,sans-Serif" font-size="10.00">+ WebsiteLinkLabel</text>
<text text-anchor="start" x="8" y="-158.5" font-family="Helvetica,sans-Serif" font-size="10.00">+ Attribution1LinkLabel</text>
<text text-anchor="start" x="8" y="-147.5" font-family="Helvetica,sans-Serif" font-size="10.00">+ Attribution2LinkLabel</text>
<text text-anchor="start" x="8" y="-136.5" font-family="Helvetica,sans-Serif" font-size="10.00">+ Attribution1Label</text>
<text text-anchor="start" x="8" y="-125.5" font-family="Helvetica,sans-Serif" font-size="10.00">+ Attribution2Label</text>
<polyline fill="none" stroke="black" points="0,-118.5 149,-118.5 "/>
<text text-anchor="start" x="8" y="-106.5" font-family="Helvetica,sans-Serif" font-size="10.00">+ FormCreate()</text>
<text text-anchor="start" x="8" y="-95.5" font-family="Helvetica,sans-Serif" font-size="10.00">+ AboutFormButtonClick()</text>
<text text-anchor="start" x="8" y="-84.5" font-family="Helvetica,sans-Serif" font-size="10.00">+ FormClose()</text>
<text text-anchor="start" x="8" y="-73.5" font-family="Helvetica,sans-Serif" font-size="10.00">+ WebsiteLinkLabelLinkClick()</text>
<text text-anchor="start" x="8" y="-62.5" font-family="Helvetica,sans-Serif" font-size="10.00">+ Attribution1LinkLabelLink</text>
<text text-anchor="start" x="8" y="-51.5" font-family="Helvetica,sans-Serif" font-size="10.00">Click()</text>
<text text-anchor="start" x="8" y="-40.5" font-family="Helvetica,sans-Serif" font-size="10.00">+ Attribution2LinkLabelLink</text>
<text text-anchor="start" x="8" y="-29.5" font-family="Helvetica,sans-Serif" font-size="10.00">Click()</text>
<text text-anchor="start" x="8" y="-18.5" font-family="Helvetica,sans-Serif" font-size="10.00">+ TAboutForm()</text>
<text text-anchor="start" x="8" y="-7.5" font-family="Helvetica,sans-Serif" font-size="10.00">&#45; SetAboutCaption()</text>
</a>
</g>
</g>
<!-- Node2 -->
<g id="node2" class="node">
<title>Node2</title>
<g id="a_node2"><a xlink:title=" ">
<polygon fill="white" stroke="#bfbfbf" points="52.5,-281.5 52.5,-338.5 96.5,-338.5 96.5,-281.5 52.5,-281.5"/>
<text text-anchor="middle" x="74.5" y="-326.5" font-family="Helvetica,sans-Serif" font-size="10.00">TForm</text>
<polyline fill="none" stroke="#bfbfbf" points="52.5,-319.5 96.5,-319.5 "/>
<text text-anchor="middle" x="74.5" y="-307.5" font-family="Helvetica,sans-Serif" font-size="10.00"> </text>
<polyline fill="none" stroke="#bfbfbf" points="52.5,-300.5 96.5,-300.5 "/>
<text text-anchor="middle" x="74.5" y="-288.5" font-family="Helvetica,sans-Serif" font-size="10.00"> </text>
</a>
</g>
</g>
<!-- Node2&#45;&gt;Node1 -->
<g id="edge1" class="edge">
<title>Node2&#45;&gt;Node1</title>
<path fill="none" stroke="midnightblue" d="M74.5,-271.14C74.5,-263.05 74.5,-254.1 74.5,-244.72"/>
<polygon fill="none" stroke="midnightblue" points="71,-271.23 74.5,-281.23 78,-271.23 71,-271.23"/>
</g>
</g>
</svg>
