<?xml version="1.0" encoding="UTF-8" standalone="no"?>
<!DOCTYPE svg PUBLIC "-//W3C//DTD SVG 1.1//EN"
 "http://www.w3.org/Graphics/SVG/1.1/DTD/svg11.dtd">
<!-- Generated by graphviz version 2.44.1 (20200629.0800)
 -->
<!-- Title: TOnePrefDir::RealignAfterTrackErase Pages: 1 -->
<!--zoomable 446 -->
<svg id="main" version="1.1" xmlns="http://www.w3.org/2000/svg" xmlns:xlink="http://www.w3.org/1999/xlink" xml:space="preserve" onload="init(evt)">
<style type="text/css"><![CDATA[
.edge:hover path { stroke: red; }
.edge:hover polygon { stroke: red; fill: red; }
]]></style>
<script type="text/javascript"><![CDATA[
var edges = document.getElementsByTagName('g');
if (edges && edges.length) {
  for (var i=0;i<edges.length;i++) {
    if (edges[i].id.substr(0,4)=='edge') {
      edges[i].setAttribute('class','edge');
    }
  }
}
]]></script>
        <defs>
                <circle id="rim" cx="0" cy="0" r="7"/>
                <circle id="rim2" cx="0" cy="0" r="3.5"/>
                <g id="zoomPlus">
                        <use xlink:href="#rim" fill="#404040">
                                <set attributeName="fill" to="#808080" begin="zoomplus.mouseover" end="zoomplus.mouseout"/>
                        </use>
                        <path d="M-4,0h8M0,-4v8" fill="none" stroke="white" stroke-width="1.5" pointer-events="none"/>
                </g>
                <g id="zoomMin">
                        <use xlink:href="#rim" fill="#404040">
                                <set attributeName="fill" to="#808080" begin="zoomminus.mouseover" end="zoomminus.mouseout"/>
                        </use>
                        <path d="M-4,0h8" fill="none" stroke="white" stroke-width="1.5" pointer-events="none"/>
                </g>
                <g id="dirArrow">
                        <path fill="none" stroke="white" stroke-width="1.5" d="M0,-3.0v7 M-2.5,-0.5L0,-3.0L2.5,-0.5"/>
                </g>
               <g id="resetDef">
                       <use xlink:href="#rim2" fill="#404040">
                               <set attributeName="fill" to="#808080" begin="reset.mouseover" end="reset.mouseout"/>
                       </use>
               </g>
        </defs>

<script type="text/javascript">
var viewWidth = 848;
var viewHeight = 446;
var sectionId = 'dynsection-71';
</script>
<script xlink:href="svgpan.js"/>
<svg id="graph" class="graph">
<g id="viewport">
<title>TOnePrefDir::RealignAfterTrackErase</title>
<polygon fill="white" stroke="transparent" points="-4,4 -4,-441.93 844,-441.93 844,4 -4,4"/>
<!-- Node1 -->
<g id="node1" class="node">
<title>Node1</title>
<g id="a_node1"><a xlink:title="After a track element is erased the preferred direction elements are likely to be affected....">
<polygon fill="#bfbfbf" stroke="black" points="0,-94 0,-124 128,-124 128,-94 0,-94"/>
<text text-anchor="start" x="8" y="-112" font-family="Helvetica,sans-Serif" font-size="10.00">TOnePrefDir::RealignAfter</text>
<text text-anchor="middle" x="64" y="-101" font-family="Helvetica,sans-Serif" font-size="10.00">TrackErase</text>
</a>
</g>
</g>
<!-- Node2 -->
<g id="node2" class="node">
<title>Node2</title>
<g id="a_node2"><a xlink:href="class_t_utilities.html#ae1eddca13cc3c492839e131f40ec21c0" target="_top" xlink:title="&lt; specifies whether no delays or minor, moderate or major random delays are to be applied">
<polygon fill="white" stroke="black" points="730,-333.5 730,-352.5 840,-352.5 840,-333.5 730,-333.5"/>
<text text-anchor="middle" x="785" y="-340.5" font-family="Helvetica,sans-Serif" font-size="10.00">TUtilities::CallLogPop</text>
</a>
</g>
</g>
<!-- Node1&#45;&gt;Node2 -->
<g id="edge1" class="edge">
<title>Node1&#45;&gt;Node2</title>
<path fill="none" stroke="midnightblue" d="M75.23,-124.25C106.9,-170.12 208.56,-307.5 330,-370 474.63,-444.43 539.23,-458.04 694,-408 723,-398.62 750.51,-376.03 767.31,-360.13"/>
<polygon fill="midnightblue" stroke="midnightblue" points="769.95,-362.44 774.65,-352.94 765.06,-357.43 769.95,-362.44"/>
</g>
<!-- Node3 -->
<g id="node3" class="node">
<title>Node3</title>
<g id="a_node3"><a xlink:href="class_t_one_pref_dir.html#aa191ffa7fa23838043d34d9b02cd7bcb" target="_top" xlink:title="Erase a single element from PrefDirVector and 4MultiMap, decrementing the remaining PrefDirElementNum...">
<polygon fill="white" stroke="black" points="164,-178 164,-208 294,-208 294,-178 164,-178"/>
<text text-anchor="start" x="172" y="-196" font-family="Helvetica,sans-Serif" font-size="10.00">TOnePrefDir::ErasePrefDir</text>
<text text-anchor="middle" x="229" y="-185" font-family="Helvetica,sans-Serif" font-size="10.00">ElementAt</text>
</a>
</g>
</g>
<!-- Node1&#45;&gt;Node3 -->
<g id="edge2" class="edge">
<title>Node1&#45;&gt;Node3</title>
<path fill="none" stroke="midnightblue" d="M94.14,-124.02C120.83,-137.77 160.51,-158.22 189.74,-173.28"/>
<polygon fill="midnightblue" stroke="midnightblue" points="188.34,-176.5 198.84,-177.97 191.55,-170.28 188.34,-176.5"/>
</g>
<!-- Node6 -->
<g id="node6" class="node">
<title>Node6</title>
<g id="a_node6"><a xlink:href="class_t_utilities.html#a34bd6bb5305bc29afdf424f6d35a921c" target="_top" xlink:title="creates a string of the form &#39;hh:mm:ss&#39; for use in call &amp; event logging">
<polygon fill="white" stroke="black" points="730,-158.5 730,-177.5 840,-177.5 840,-158.5 730,-158.5"/>
<text text-anchor="middle" x="785" y="-165.5" font-family="Helvetica,sans-Serif" font-size="10.00">TUtilities::TimeStamp</text>
</a>
</g>
</g>
<!-- Node1&#45;&gt;Node6 -->
<g id="edge21" class="edge">
<title>Node1&#45;&gt;Node6</title>
<path fill="none" stroke="midnightblue" d="M128.13,-98.75C243.22,-82.41 493.74,-57.67 694,-114 720.59,-121.48 747.24,-139.03 764.56,-152.11"/>
<polygon fill="midnightblue" stroke="midnightblue" points="762.68,-155.08 772.72,-158.46 766.98,-149.56 762.68,-155.08"/>
</g>
<!-- Node10 -->
<g id="node10" class="node">
<title>Node10</title>
<g id="a_node10"><a xlink:href="class_t_one_pref_dir.html#a29d013bf730e23d27fdb2c390e3a14da" target="_top" xlink:title="Return the vector size.">
<polygon fill="white" stroke="black" points="167,-0.5 167,-19.5 291,-19.5 291,-0.5 167,-0.5"/>
<text text-anchor="middle" x="229" y="-7.5" font-family="Helvetica,sans-Serif" font-size="10.00">TOnePrefDir::PrefDirSize</text>
</a>
</g>
</g>
<!-- Node1&#45;&gt;Node10 -->
<g id="edge20" class="edge">
<title>Node1&#45;&gt;Node10</title>
<path fill="none" stroke="midnightblue" d="M81.82,-93.81C100.72,-77.36 132.84,-51.17 164,-34 171.32,-29.97 179.45,-26.34 187.39,-23.2"/>
<polygon fill="midnightblue" stroke="midnightblue" points="188.8,-26.41 196.92,-19.61 186.33,-19.86 188.8,-26.41"/>
</g>
<!-- Node3&#45;&gt;Node2 -->
<g id="edge3" class="edge">
<title>Node3&#45;&gt;Node2</title>
<path fill="none" stroke="midnightblue" d="M237.04,-208.19C250.85,-236.36 284.21,-296.84 330,-330 397.73,-379.05 426.4,-374.95 509,-388 590.22,-400.83 613.98,-406.89 694,-388 718.39,-382.24 743.7,-368.81 761.25,-358.11"/>
<polygon fill="midnightblue" stroke="midnightblue" points="763.54,-360.8 770.14,-352.51 759.81,-354.88 763.54,-360.8"/>
</g>
<!-- Node4 -->
<g id="node4" class="node">
<title>Node4</title>
<g id="a_node4"><a xlink:href="class_t_one_pref_dir.html#a8a7ddf3981800ec0df1225c9e5aa52c2" target="_top" xlink:title="Diagnostic validity check.">
<polygon fill="white" stroke="black" points="333,-201 333,-231 470,-231 470,-201 333,-201"/>
<text text-anchor="start" x="341" y="-219" font-family="Helvetica,sans-Serif" font-size="10.00">TOnePrefDir::CheckPrefDir4</text>
<text text-anchor="middle" x="401.5" y="-208" font-family="Helvetica,sans-Serif" font-size="10.00">MultiMap</text>
</a>
</g>
</g>
<!-- Node3&#45;&gt;Node4 -->
<g id="edge4" class="edge">
<title>Node3&#45;&gt;Node4</title>
<path fill="none" stroke="midnightblue" d="M294.46,-201.7C303.67,-202.94 313.22,-204.23 322.66,-205.5"/>
<polygon fill="midnightblue" stroke="midnightblue" points="322.45,-209 332.82,-206.87 323.38,-202.07 322.45,-209"/>
</g>
<!-- Node3&#45;&gt;Node6 -->
<g id="edge19" class="edge">
<title>Node3&#45;&gt;Node6</title>
<path fill="none" stroke="midnightblue" d="M270.36,-177.97C351.32,-149.88 539.04,-95.11 694,-128 717.14,-132.91 741.56,-144.2 759.12,-153.54"/>
<polygon fill="midnightblue" stroke="midnightblue" points="757.66,-156.73 768.11,-158.47 761.03,-150.59 757.66,-156.73"/>
</g>
<!-- Node7 -->
<g id="node7" class="node">
<title>Node7</title>
<g id="a_node7"><a xlink:href="class_t_one_pref_dir.html#a056c475541b487ce13cb34dc43b1cf6f" target="_top" xlink:title="Called after ErasePrefDirElementAt to decrement the remaining PrefDirElementNumbers in 4MultiMap if t...">
<polygon fill="white" stroke="black" points="509,-153 509,-183 694,-183 694,-153 509,-153"/>
<text text-anchor="start" x="517" y="-171" font-family="Helvetica,sans-Serif" font-size="10.00">TOnePrefDir::DecrementPref</text>
<text text-anchor="middle" x="601.5" y="-160" font-family="Helvetica,sans-Serif" font-size="10.00">DirElementNumbersInPrefDir4MultiMap</text>
</a>
</g>
</g>
<!-- Node3&#45;&gt;Node7 -->
<g id="edge10" class="edge">
<title>Node3&#45;&gt;Node7</title>
<path fill="none" stroke="midnightblue" d="M294.11,-188.67C350.34,-184.88 433.08,-179.3 498.41,-174.89"/>
<polygon fill="midnightblue" stroke="midnightblue" points="498.99,-178.36 508.74,-174.19 498.52,-171.37 498.99,-178.36"/>
</g>
<!-- Node8 -->
<g id="node8" class="node">
<title>Node8</title>
<g id="a_node8"><a xlink:href="class_t_one_pref_dir.html#a8bc65b139325c45b57a9f43a9b3404a8" target="_top" xlink:title="Retrieves a PrefDir4MultiMap iterator to the PrefDir element at PrefDirVectorPosition....">
<polygon fill="white" stroke="black" points="330,-290 330,-320 473,-320 473,-290 330,-290"/>
<text text-anchor="start" x="338" y="-308" font-family="Helvetica,sans-Serif" font-size="10.00">TOnePrefDir::GetExactMatch</text>
<text text-anchor="middle" x="401.5" y="-297" font-family="Helvetica,sans-Serif" font-size="10.00">From4MultiMap</text>
</a>
</g>
</g>
<!-- Node3&#45;&gt;Node8 -->
<g id="edge13" class="edge">
<title>Node3&#45;&gt;Node8</title>
<path fill="none" stroke="midnightblue" d="M252.99,-208.1C282.95,-227.78 335.45,-262.27 369.07,-284.35"/>
<polygon fill="midnightblue" stroke="midnightblue" points="367.32,-287.39 377.6,-289.96 371.16,-281.54 367.32,-287.39"/>
</g>
<!-- Node4&#45;&gt;Node2 -->
<g id="edge5" class="edge">
<title>Node4&#45;&gt;Node2</title>
<path fill="none" stroke="midnightblue" d="M447.76,-231.07C523.39,-256.24 674.13,-306.42 745.21,-330.09"/>
<polygon fill="midnightblue" stroke="midnightblue" points="744.5,-333.54 755.1,-333.38 746.71,-326.9 744.5,-333.54"/>
</g>
<!-- Node5 -->
<g id="node5" class="node">
<title>Node5</title>
<g id="a_node5"><a xlink:href="class_t_one_pref_dir.html#a820f6cc109de519289e6a63dac835ebc" target="_top" xlink:title="Return up to 4 vector positions for a given HLoc &amp; VLoc; unused values return &#45;1.">
<polygon fill="white" stroke="black" points="521.5,-202 521.5,-232 681.5,-232 681.5,-202 521.5,-202"/>
<text text-anchor="start" x="529.5" y="-220" font-family="Helvetica,sans-Serif" font-size="10.00">TOnePrefDir::GetVectorPositions</text>
<text text-anchor="middle" x="601.5" y="-209" font-family="Helvetica,sans-Serif" font-size="10.00">FromPrefDir4MultiMap</text>
</a>
</g>
</g>
<!-- Node4&#45;&gt;Node5 -->
<g id="edge6" class="edge">
<title>Node4&#45;&gt;Node5</title>
<path fill="none" stroke="midnightblue" d="M470.09,-216.34C483.34,-216.41 497.43,-216.48 511.26,-216.55"/>
<polygon fill="midnightblue" stroke="midnightblue" points="511.25,-220.05 521.27,-216.6 511.29,-213.05 511.25,-220.05"/>
</g>
<!-- Node4&#45;&gt;Node6 -->
<g id="edge9" class="edge">
<title>Node4&#45;&gt;Node6</title>
<path fill="none" stroke="midnightblue" d="M417.82,-200.95C437.17,-183.1 472.39,-154.34 509,-143 590.74,-117.68 692.19,-139.82 746.12,-155.55"/>
<polygon fill="midnightblue" stroke="midnightblue" points="745.35,-158.97 755.94,-158.5 747.37,-152.27 745.35,-158.97"/>
</g>
<!-- Node5&#45;&gt;Node2 -->
<g id="edge7" class="edge">
<title>Node5&#45;&gt;Node2</title>
<path fill="none" stroke="midnightblue" d="M624.39,-232.2C659.19,-256.35 726.74,-303.25 761.75,-327.56"/>
<polygon fill="midnightblue" stroke="midnightblue" points="760.1,-330.67 770.31,-333.5 764.09,-324.92 760.1,-330.67"/>
</g>
<!-- Node5&#45;&gt;Node6 -->
<g id="edge8" class="edge">
<title>Node5&#45;&gt;Node6</title>
<path fill="none" stroke="midnightblue" d="M658.44,-201.9C684.34,-194.9 714.71,-186.71 739.09,-180.12"/>
<polygon fill="midnightblue" stroke="midnightblue" points="740.06,-183.49 748.8,-177.5 738.24,-176.73 740.06,-183.49"/>
</g>
<!-- Node7&#45;&gt;Node2 -->
<g id="edge11" class="edge">
<title>Node7&#45;&gt;Node2</title>
<path fill="none" stroke="midnightblue" d="M679.07,-183.05C684.36,-185.59 689.41,-188.54 694,-192 739.8,-226.45 766.83,-291.6 777.99,-323.88"/>
<polygon fill="midnightblue" stroke="midnightblue" points="774.7,-325.09 781.17,-333.48 781.34,-322.88 774.7,-325.09"/>
</g>
<!-- Node7&#45;&gt;Node6 -->
<g id="edge12" class="edge">
<title>Node7&#45;&gt;Node6</title>
<path fill="none" stroke="midnightblue" d="M694.05,-168C702.6,-168 711.14,-168 719.36,-168"/>
<polygon fill="midnightblue" stroke="midnightblue" points="719.59,-171.5 729.59,-168 719.59,-164.5 719.59,-171.5"/>
</g>
<!-- Node8&#45;&gt;Node2 -->
<g id="edge14" class="edge">
<title>Node8&#45;&gt;Node2</title>
<path fill="none" stroke="midnightblue" d="M421.08,-320.24C441.28,-335.74 475.23,-358.76 509,-368 588.31,-389.7 612.53,-379.1 694,-368 711.83,-365.57 731.11,-360.55 747.24,-355.64"/>
<polygon fill="midnightblue" stroke="midnightblue" points="748.34,-358.96 756.83,-352.62 746.24,-352.28 748.34,-358.96"/>
</g>
<!-- Node8&#45;&gt;Node6 -->
<g id="edge18" class="edge">
<title>Node8&#45;&gt;Node6</title>
<path fill="none" stroke="midnightblue" d="M473.26,-299.15C534.26,-291.95 623.39,-276.15 694,-242 723.26,-227.85 751.25,-202.3 768.04,-185.24"/>
<polygon fill="midnightblue" stroke="midnightblue" points="770.93,-187.28 775.33,-177.64 765.88,-182.43 770.93,-187.28"/>
</g>
<!-- Node9 -->
<g id="node9" class="node">
<title>Node9</title>
<g id="a_node9"><a xlink:href="class_t_one_pref_dir.html#a5b67e5aaa86d324229aedc68f32f32b8" target="_top" xlink:title="Return a non&#45;modifiable element at PrefDirVector position &#39;At&#39;.">
<polygon fill="white" stroke="black" points="535.5,-328 535.5,-358 667.5,-358 667.5,-328 535.5,-328"/>
<text text-anchor="start" x="543.5" y="-346" font-family="Helvetica,sans-Serif" font-size="10.00">TOnePrefDir::GetFixedPref</text>
<text text-anchor="middle" x="601.5" y="-335" font-family="Helvetica,sans-Serif" font-size="10.00">DirElementAt</text>
</a>
</g>
</g>
<!-- Node8&#45;&gt;Node9 -->
<g id="edge15" class="edge">
<title>Node8&#45;&gt;Node9</title>
<path fill="none" stroke="midnightblue" d="M473.14,-318.56C490.13,-321.82 508.34,-325.31 525.52,-328.61"/>
<polygon fill="midnightblue" stroke="midnightblue" points="525.02,-332.08 535.5,-330.53 526.34,-325.2 525.02,-332.08"/>
</g>
<!-- Node9&#45;&gt;Node2 -->
<g id="edge16" class="edge">
<title>Node9&#45;&gt;Node2</title>
<path fill="none" stroke="midnightblue" d="M667.51,-343C684.44,-343 702.68,-343 719.58,-343"/>
<polygon fill="midnightblue" stroke="midnightblue" points="719.91,-346.5 729.91,-343 719.91,-339.5 719.91,-346.5"/>
</g>
<!-- Node9&#45;&gt;Node6 -->
<g id="edge17" class="edge">
<title>Node9&#45;&gt;Node6</title>
<path fill="none" stroke="midnightblue" d="M625.84,-327.89C645.06,-314.93 672.53,-295.22 694,-275 724.44,-246.34 754.67,-207.8 771.18,-185.65"/>
<polygon fill="midnightblue" stroke="midnightblue" points="774.08,-187.63 777.19,-177.5 768.44,-183.47 774.08,-187.63"/>
</g>
</g>
</svg>
        <g id="navigator" transform="translate(0 0)" fill="#404254">
                <rect fill="#f2f5e9" fill-opacity="0.5" stroke="#606060" stroke-width=".5" x="0" y="0" width="60" height="60"/>
                <use id="zoomplus" xlink:href="#zoomPlus" x="17" y="9" onmousedown="handleZoom(evt,'in')"/>
                <use id="zoomminus" xlink:href="#zoomMin" x="42" y="9" onmousedown="handleZoom(evt,'out')"/>
                <use id="reset" xlink:href="#resetDef" x="30" y="36" onmousedown="handleReset()"/>
                <g id="arrowUp" xlink:href="#dirArrow" transform="translate(30 24)" onmousedown="handlePan(0,-1)">
                  <use xlink:href="#rim" fill="#404040">
                        <set attributeName="fill" to="#808080" begin="arrowUp.mouseover" end="arrowUp.mouseout"/>
                  </use>
                  <path fill="none" stroke="white" stroke-width="1.5" d="M0,-3.0v7 M-2.5,-0.5L0,-3.0L2.5,-0.5"/>
                </g>
                <g id="arrowRight" xlink:href="#dirArrow" transform="rotate(90) translate(36 -43)" onmousedown="handlePan(1,0)">
                  <use xlink:href="#rim" fill="#404040">
                        <set attributeName="fill" to="#808080" begin="arrowRight.mouseover" end="arrowRight.mouseout"/>
                  </use>
                  <path fill="none" stroke="white" stroke-width="1.5" d="M0,-3.0v7 M-2.5,-0.5L0,-3.0L2.5,-0.5"/>
                </g>
                <g id="arrowDown" xlink:href="#dirArrow" transform="rotate(180) translate(-30 -48)" onmousedown="handlePan(0,1)">
                  <use xlink:href="#rim" fill="#404040">
                        <set attributeName="fill" to="#808080" begin="arrowDown.mouseover" end="arrowDown.mouseout"/>
                  </use>
                  <path fill="none" stroke="white" stroke-width="1.5" d="M0,-3.0v7 M-2.5,-0.5L0,-3.0L2.5,-0.5"/>
                </g>
                <g id="arrowLeft" xlink:href="#dirArrow" transform="rotate(270) translate(-36 17)" onmousedown="handlePan(-1,0)">
                  <use xlink:href="#rim" fill="#404040">
                        <set attributeName="fill" to="#808080" begin="arrowLeft.mouseover" end="arrowLeft.mouseout"/>
                  </use>
                  <path fill="none" stroke="white" stroke-width="1.5" d="M0,-3.0v7 M-2.5,-0.5L0,-3.0L2.5,-0.5"/>
                </g>
        </g>
        <svg viewBox="0 0 15 15" width="100%" height="30px" preserveAspectRatio="xMaxYMin meet">
         <g id="arrow_out" transform="scale(0.3 0.3)">
          <a xlink:href="class_t_one_pref_dir_ab5bb3791670fd04645faf4ab1f2a5781_cgraph_org.svg" target="_base">
           <rect id="button" ry="5" rx="5" y="6" x="6" height="38" width="38"
                fill="#f2f5e9" fill-opacity="0.5" stroke="#606060" stroke-width="1.0"/>
           <path id="arrow"
             d="M 11.500037,31.436501 C 11.940474,20.09759 22.043105,11.32322 32.158766,21.979434 L 37.068811,17.246167 C 37.068811,17.246167 37.088388,32 37.088388,32 L 22.160133,31.978069 C 22.160133,31.978069 26.997745,27.140456 26.997745,27.140456 C 18.528582,18.264221 13.291696,25.230495 11.500037,31.436501 z"
             style="fill:#404040;"/>
          </a>
         </g>
        </svg>
</svg>
