<?xml version="1.0" encoding="UTF-8" standalone="no"?>
<!DOCTYPE svg PUBLIC "-//W3C//DTD SVG 1.1//EN"
 "http://www.w3.org/Graphics/SVG/1.1/DTD/svg11.dtd">
<!-- Generated by graphviz version 2.44.1 (20200629.0800)
 -->
<!-- Title: TTrain::PlotStartPosition Pages: 1 -->
<!--zoomable 391 -->
<svg id="main" version="1.1" xmlns="http://www.w3.org/2000/svg" xmlns:xlink="http://www.w3.org/1999/xlink" xml:space="preserve" onload="init(evt)">
<style type="text/css"><![CDATA[
.edge:hover path { stroke: red; }
.edge:hover polygon { stroke: red; fill: red; }
]]></style>
<script type="text/javascript"><![CDATA[
var edges = document.getElementsByTagName('g');
if (edges && edges.length) {
  for (var i=0;i<edges.length;i++) {
    if (edges[i].id.substr(0,4)=='edge') {
      edges[i].setAttribute('class','edge');
    }
  }
}
]]></script>
        <defs>
                <circle id="rim" cx="0" cy="0" r="7"/>
                <circle id="rim2" cx="0" cy="0" r="3.5"/>
                <g id="zoomPlus">
                        <use xlink:href="#rim" fill="#404040">
                                <set attributeName="fill" to="#808080" begin="zoomplus.mouseover" end="zoomplus.mouseout"/>
                        </use>
                        <path d="M-4,0h8M0,-4v8" fill="none" stroke="white" stroke-width="1.5" pointer-events="none"/>
                </g>
                <g id="zoomMin">
                        <use xlink:href="#rim" fill="#404040">
                                <set attributeName="fill" to="#808080" begin="zoomminus.mouseover" end="zoomminus.mouseout"/>
                        </use>
                        <path d="M-4,0h8" fill="none" stroke="white" stroke-width="1.5" pointer-events="none"/>
                </g>
                <g id="dirArrow">
                        <path fill="none" stroke="white" stroke-width="1.5" d="M0,-3.0v7 M-2.5,-0.5L0,-3.0L2.5,-0.5"/>
                </g>
               <g id="resetDef">
                       <use xlink:href="#rim2" fill="#404040">
                               <set attributeName="fill" to="#808080" begin="reset.mouseover" end="reset.mouseout"/>
                       </use>
               </g>
        </defs>

<script type="text/javascript">
var viewWidth = 1199;
var viewHeight = 391;
var sectionId = 'dynsection-70';
</script>
<script xlink:href="svgpan.js"/>
<svg id="graph" class="graph">
<g id="viewport">
<title>TTrain::PlotStartPosition</title>
<polygon fill="white" stroke="transparent" points="-4,4 -4,-386.55 1195,-386.55 1195,4 -4,4"/>
<!-- Node1 -->
<g id="node1" class="node">
<title>Node1</title>
<g id="a_node1"><a xlink:title="Plots the train and sets up all relevant members for a new train when it is introduced into the railw...">
<polygon fill="#bfbfbf" stroke="black" points="1069,-192 1069,-211 1191,-211 1191,-192 1069,-192"/>
<text text-anchor="middle" x="1130" y="-199" font-family="Helvetica,sans-Serif" font-size="10.00">TTrain::PlotStartPosition</text>
</a>
</g>
</g>
<!-- Node2 -->
<g id="node2" class="node">
<title>Node2</title>
<g id="a_node2"><a xlink:href="class_t_train_controller.html#aa895b60238810a9d134cd5b9c886da56" target="_top" xlink:title="Introduce a new train to the railway, with the characteristics specified, returns true for success,...">
<polygon fill="white" stroke="black" points="898.5,-349 898.5,-368 1026.5,-368 1026.5,-349 898.5,-349"/>
<text text-anchor="middle" x="962.5" y="-356" font-family="Helvetica,sans-Serif" font-size="10.00">TTrainController::AddTrain</text>
</a>
</g>
</g>
<!-- Node1&#45;&gt;Node2 -->
<g id="edge1" class="edge">
<title>Node1&#45;&gt;Node2</title>
<path fill="none" stroke="midnightblue" d="M1120.14,-220.39C1105.77,-249.06 1074.73,-303.49 1033,-334.5 1024.6,-340.74 1014.45,-345.45 1004.53,-348.96"/>
<polygon fill="midnightblue" stroke="midnightblue" points="1123.44,-221.61 1124.67,-211.09 1117.14,-218.55 1123.44,-221.61"/>
</g>
<!-- Node3 -->
<g id="node3" class="node">
<title>Node3</title>
<g id="a_node3"><a xlink:href="class_t_train.html#ad666fb061d1da7c44a72ec963c2098aa" target="_top" xlink:title="Carry out the actions needed when a train is to split from the front.">
<polygon fill="white" stroke="black" points="713,-350 713,-369 825,-369 825,-350 713,-350"/>
<text text-anchor="middle" x="769" y="-357" font-family="Helvetica,sans-Serif" font-size="10.00">TTrain::FrontTrainSplit</text>
</a>
</g>
</g>
<!-- Node1&#45;&gt;Node3 -->
<g id="edge14" class="edge">
<title>Node1&#45;&gt;Node3</title>
<path fill="none" stroke="midnightblue" d="M1114.45,-218.72C1097,-238.33 1065.96,-270.02 1033,-288.5 995.87,-309.32 880.93,-335.96 815.96,-349.95"/>
<polygon fill="midnightblue" stroke="midnightblue" points="1117.13,-220.97 1121.06,-211.13 1111.86,-216.37 1117.13,-220.97"/>
</g>
<!-- Node8 -->
<g id="node8" class="node">
<title>Node8</title>
<g id="a_node8"><a xlink:href="class_t_train.html#ad64c5823265b0c611c2e5f0613317aa5" target="_top" xlink:title="Carry out the actions needed when a train is to split from the rear.">
<polygon fill="white" stroke="black" points="714,-312 714,-331 824,-331 824,-312 714,-312"/>
<text text-anchor="middle" x="769" y="-319" font-family="Helvetica,sans-Serif" font-size="10.00">TTrain::RearTrainSplit</text>
</a>
</g>
</g>
<!-- Node1&#45;&gt;Node8 -->
<g id="edge21" class="edge">
<title>Node1&#45;&gt;Node8</title>
<path fill="none" stroke="midnightblue" d="M1105.31,-216.3C1086.32,-227.67 1058.68,-243.15 1033,-253.5 957.3,-284.02 935.21,-282.8 856,-302.5 842.79,-305.78 828.38,-309.08 815.18,-311.99"/>
<polygon fill="midnightblue" stroke="midnightblue" points="1107.17,-219.27 1113.9,-211.08 1103.53,-213.28 1107.17,-219.27"/>
</g>
<!-- Node9 -->
<g id="node9" class="node">
<title>Node9</title>
<g id="a_node9"><a xlink:href="class_t_train.html#aaac04c1b5e358a69e1930bae9ca6f429" target="_top" xlink:title="Reverses the direction of motion of the train.">
<polygon fill="white" stroke="black" points="892,-116 892,-135 1033,-135 1033,-116 892,-116"/>
<text text-anchor="middle" x="962.5" y="-123" font-family="Helvetica,sans-Serif" font-size="10.00">TTrain::ChangeTrainDirection</text>
</a>
</g>
</g>
<!-- Node1&#45;&gt;Node9 -->
<g id="edge10" class="edge">
<title>Node1&#45;&gt;Node9</title>
<path fill="none" stroke="midnightblue" d="M1104.45,-186.75C1085.38,-175.65 1058.05,-160.52 1033,-149.5 1020.73,-144.1 1006.84,-139.1 994.71,-135.07"/>
<polygon fill="midnightblue" stroke="midnightblue" points="1102.71,-189.78 1113.1,-191.84 1106.25,-183.75 1102.71,-189.78"/>
</g>
<!-- Node12 -->
<g id="node12" class="node">
<title>Node12</title>
<g id="a_node12"><a xlink:href="class_t_train.html#a2bde9b347632a790874abfee29758d32" target="_top" xlink:title="Carry out the actions needed when a new shuttle service is created from a non&#45;repeating (F&#45;nshs) serv...">
<polygon fill="white" stroke="black" points="700,-186.5 700,-216.5 838,-216.5 838,-186.5 700,-186.5"/>
<text text-anchor="start" x="708" y="-204.5" font-family="Helvetica,sans-Serif" font-size="10.00">TTrain::NewShuttleFromNon</text>
<text text-anchor="middle" x="769" y="-193.5" font-family="Helvetica,sans-Serif" font-size="10.00">RepeatService</text>
</a>
</g>
</g>
<!-- Node1&#45;&gt;Node12 -->
<g id="edge15" class="edge">
<title>Node1&#45;&gt;Node12</title>
<path fill="none" stroke="midnightblue" d="M1058.54,-201.5C994.75,-201.5 901.36,-201.5 838.26,-201.5"/>
<polygon fill="midnightblue" stroke="midnightblue" points="1058.91,-205 1068.91,-201.5 1058.91,-198 1058.91,-205"/>
</g>
<!-- Node13 -->
<g id="node13" class="node">
<title>Node13</title>
<g id="a_node13"><a xlink:href="class_t_train.html#a68bda28987bb7b9d7e52b35abb2399de" target="_top" xlink:title="Carry out the actions needed when a train forms a new service (code Fns)">
<polygon fill="white" stroke="black" points="709,-148 709,-167 829,-167 829,-148 709,-148"/>
<text text-anchor="middle" x="769" y="-155" font-family="Helvetica,sans-Serif" font-size="10.00">TTrain::NewTrainService</text>
</a>
</g>
</g>
<!-- Node1&#45;&gt;Node13 -->
<g id="edge18" class="edge">
<title>Node1&#45;&gt;Node13</title>
<path fill="none" stroke="midnightblue" d="M1058.87,-192.9C991.9,-184.7 892.12,-172.47 829.09,-164.74"/>
<polygon fill="midnightblue" stroke="midnightblue" points="1058.56,-196.39 1068.91,-194.14 1059.41,-189.44 1058.56,-196.39"/>
</g>
<!-- Node14 -->
<g id="node14" class="node">
<title>Node14</title>
<g id="a_node14"><a xlink:href="class_t_train.html#a648f31ead801d51160c024f1ead459c8" target="_top" xlink:title="Carry out the actions needed to create either a new shuttle service or (if all repeats have finished)...">
<polygon fill="white" stroke="black" points="699,-49.5 699,-79.5 839,-79.5 839,-49.5 699,-49.5"/>
<text text-anchor="start" x="707" y="-67.5" font-family="Helvetica,sans-Serif" font-size="10.00">TTrain::RepeatShuttleOrNew</text>
<text text-anchor="middle" x="769" y="-56.5" font-family="Helvetica,sans-Serif" font-size="10.00">NonRepeatService</text>
</a>
</g>
</g>
<!-- Node1&#45;&gt;Node14 -->
<g id="edge22" class="edge">
<title>Node1&#45;&gt;Node14</title>
<path fill="none" stroke="midnightblue" d="M1116.47,-183.52C1100.04,-161.47 1069.03,-124.77 1033,-106.5 972.27,-75.71 894.39,-66.44 839.18,-64.13"/>
<polygon fill="midnightblue" stroke="midnightblue" points="1113.71,-185.67 1122.41,-191.72 1119.37,-181.56 1113.71,-185.67"/>
</g>
<!-- Node15 -->
<g id="node15" class="node">
<title>Node15</title>
<g id="a_node15"><a xlink:href="class_t_train.html#a1f4b4616c1167ff2ef83b2df48545c6b" target="_top" xlink:title="Carry out the actions needed to create either a new shuttle service or (if all repeats have finished)...">
<polygon fill="white" stroke="black" points="682,-274 682,-293 856,-293 856,-274 682,-274"/>
<text text-anchor="middle" x="769" y="-281" font-family="Helvetica,sans-Serif" font-size="10.00">TTrain::RepeatShuttleOrRemainHere</text>
</a>
</g>
</g>
<!-- Node1&#45;&gt;Node15 -->
<g id="edge25" class="edge">
<title>Node1&#45;&gt;Node15</title>
<path fill="none" stroke="midnightblue" d="M1076.95,-213.39C1005.22,-229.77 877.38,-258.97 811.62,-273.99"/>
<polygon fill="midnightblue" stroke="midnightblue" points="1078.15,-216.71 1087.12,-211.07 1076.59,-209.88 1078.15,-216.71"/>
</g>
<!-- Node16 -->
<g id="node16" class="node">
<title>Node16</title>
<g id="a_node16"><a xlink:href="class_t_train.html#affbb94aa088370056f8ca8c45a1fdd48" target="_top" xlink:title="Unplots &amp; replots train, which checks for facing signal and sets StoppedAtSignal if req&#39;d.">
<polygon fill="white" stroke="black" points="892.5,-7.5 892.5,-37.5 1032.5,-37.5 1032.5,-7.5 892.5,-7.5"/>
<text text-anchor="start" x="900.5" y="-25.5" font-family="Helvetica,sans-Serif" font-size="10.00">TTrain::SignallerChangeTrain</text>
<text text-anchor="middle" x="962.5" y="-14.5" font-family="Helvetica,sans-Serif" font-size="10.00">Direction</text>
</a>
</g>
</g>
<!-- Node1&#45;&gt;Node16 -->
<g id="edge28" class="edge">
<title>Node1&#45;&gt;Node16</title>
<path fill="none" stroke="midnightblue" d="M1118.78,-182.65C1103.06,-154.85 1070.74,-102.27 1033,-66.5 1021.08,-55.2 1005.84,-45.18 992.68,-37.56"/>
<polygon fill="midnightblue" stroke="midnightblue" points="1115.89,-184.66 1123.81,-191.7 1122.01,-181.26 1115.89,-184.66"/>
</g>
<!-- Node2&#45;&gt;Node3 -->
<g id="edge2" class="edge">
<title>Node2&#45;&gt;Node3</title>
<path fill="none" stroke="midnightblue" d="M888.13,-358.88C867.21,-358.99 844.77,-359.11 825.13,-359.21"/>
<polygon fill="midnightblue" stroke="midnightblue" points="888.28,-362.38 898.27,-358.83 888.25,-355.38 888.28,-362.38"/>
</g>
<!-- Node5 -->
<g id="node5" class="node">
<title>Node5</title>
<g id="a_node5"><a xlink:href="class_t_train_controller.html#a20a1576dea1d86ed78fc5e9f46343481" target="_top" xlink:title="called every clock tick to introduce new trains and update existing trains">
<polygon fill="white" stroke="black" points="334,-331 334,-350 459,-350 459,-331 334,-331"/>
<text text-anchor="middle" x="396.5" y="-338" font-family="Helvetica,sans-Serif" font-size="10.00">TTrainController::Operate</text>
</a>
</g>
</g>
<!-- Node2&#45;&gt;Node5 -->
<g id="edge7" class="edge">
<title>Node2&#45;&gt;Node5</title>
<path fill="none" stroke="midnightblue" d="M911,-370.06C893.67,-373.5 874.08,-376.8 856,-378.5 706.3,-392.56 528.83,-365.4 445.39,-350.03"/>
<polygon fill="midnightblue" stroke="midnightblue" points="911.83,-373.47 920.92,-368.03 910.42,-366.61 911.83,-373.47"/>
</g>
<!-- Node2&#45;&gt;Node8 -->
<g id="edge8" class="edge">
<title>Node2&#45;&gt;Node8</title>
<path fill="none" stroke="midnightblue" d="M902.25,-347.05C875.7,-341.92 844.76,-335.94 819.48,-331.06"/>
<polygon fill="midnightblue" stroke="midnightblue" points="901.7,-350.51 912.18,-348.97 903.03,-343.64 901.7,-350.51"/>
</g>
<!-- Node4 -->
<g id="node4" class="node">
<title>Node4</title>
<g id="a_node4"><a xlink:href="class_t_train.html#a89ad640ecf8f5163c40727b4e28575fc" target="_top" xlink:title="Major function called at each clock tick for each train &amp; handles all train movement &amp; associated act...">
<polygon fill="white" stroke="black" points="520,-255 520,-274 621,-274 621,-255 520,-255"/>
<text text-anchor="middle" x="570.5" y="-262" font-family="Helvetica,sans-Serif" font-size="10.00">TTrain::UpdateTrain</text>
</a>
</g>
</g>
<!-- Node3&#45;&gt;Node4 -->
<g id="edge3" class="edge">
<title>Node3&#45;&gt;Node4</title>
<path fill="none" stroke="midnightblue" d="M703.01,-347.97C695.79,-345.86 688.65,-343.39 682,-340.5 641.85,-323.05 601.08,-290.24 582.25,-274.05"/>
<polygon fill="midnightblue" stroke="midnightblue" points="702.3,-351.4 712.86,-350.63 704.12,-344.65 702.3,-351.4"/>
</g>
<!-- Node4&#45;&gt;Node5 -->
<g id="edge4" class="edge">
<title>Node4&#45;&gt;Node5</title>
<path fill="none" stroke="midnightblue" d="M538.13,-278.36C503.63,-293.6 449.12,-317.69 419.11,-330.95"/>
<polygon fill="midnightblue" stroke="midnightblue" points="539.98,-281.37 547.72,-274.13 537.15,-274.97 539.98,-281.37"/>
</g>
<!-- Node6 -->
<g id="node6" class="node">
<title>Node6</title>
<g id="a_node6"><a xlink:href="class_t_interface.html#a6139ffb52492eb89e5487a8a3cd647b5" target="_top" xlink:title="The main loop, called every clock tick via MasterClockTimer.">
<polygon fill="white" stroke="black" points="179,-331 179,-350 298,-350 298,-331 179,-331"/>
<text text-anchor="middle" x="238.5" y="-338" font-family="Helvetica,sans-Serif" font-size="10.00">TInterface::ClockTimer2</text>
</a>
</g>
</g>
<!-- Node5&#45;&gt;Node6 -->
<g id="edge5" class="edge">
<title>Node5&#45;&gt;Node6</title>
<path fill="none" stroke="midnightblue" d="M323.83,-340.5C315.24,-340.5 306.54,-340.5 298.16,-340.5"/>
<polygon fill="midnightblue" stroke="midnightblue" points="323.84,-344 333.84,-340.5 323.84,-337 323.84,-344"/>
</g>
<!-- Node7 -->
<g id="node7" class="node">
<title>Node7</title>
<g id="a_node7"><a xlink:href="class_t_interface.html#ace30a12d923fc7fb489afabb0a09aa4f" target="_top" xlink:title=" ">
<polygon fill="white" stroke="black" points="0,-331 0,-350 143,-350 143,-331 0,-331"/>
<text text-anchor="middle" x="71.5" y="-338" font-family="Helvetica,sans-Serif" font-size="10.00">TInterface::MasterClockTimer</text>
</a>
</g>
</g>
<!-- Node6&#45;&gt;Node7 -->
<g id="edge6" class="edge">
<title>Node6&#45;&gt;Node7</title>
<path fill="none" stroke="midnightblue" d="M168.67,-340.5C160.22,-340.5 151.57,-340.5 143.09,-340.5"/>
<polygon fill="midnightblue" stroke="midnightblue" points="168.86,-344 178.86,-340.5 168.86,-337 168.86,-344"/>
</g>
<!-- Node8&#45;&gt;Node4 -->
<g id="edge9" class="edge">
<title>Node8&#45;&gt;Node4</title>
<path fill="none" stroke="midnightblue" d="M710.23,-309.69C700.75,-307.48 691.07,-305.05 682,-302.5 652.32,-294.15 618.93,-282.32 596.7,-274.08"/>
<polygon fill="midnightblue" stroke="midnightblue" points="709.47,-313.1 720,-311.91 711.02,-306.28 709.47,-313.1"/>
</g>
<!-- Node9&#45;&gt;Node4 -->
<g id="edge13" class="edge">
<title>Node9&#45;&gt;Node4</title>
<path fill="none" stroke="midnightblue" d="M948.39,-143.54C930.42,-166.77 895.77,-206.41 856,-225.5 815.55,-244.91 691.33,-256.31 621.14,-261.36"/>
<polygon fill="midnightblue" stroke="midnightblue" points="951.42,-145.34 954.64,-135.24 945.83,-141.12 951.42,-145.34"/>
</g>
<!-- Node10 -->
<g id="node10" class="node">
<title>Node10</title>
<g id="a_node10"><a xlink:href="class_t_interface.html#a528675bee2f8940b6fb3de82ebdd9cc1" target="_top" xlink:title="&lt; used when change early to the next service (Fns, Fns&#45;sh, Frh&#45;sh or F&#45;nshs) to advance the action po...">
<polygon fill="white" stroke="black" points="698.5,-98.5 698.5,-128.5 839.5,-128.5 839.5,-98.5 698.5,-98.5"/>
<text text-anchor="start" x="706.5" y="-116.5" font-family="Helvetica,sans-Serif" font-size="10.00">TInterface::SkipEventsBefore</text>
<text text-anchor="middle" x="769" y="-105.5" font-family="Helvetica,sans-Serif" font-size="10.00">SameLoc</text>
</a>
</g>
</g>
<!-- Node9&#45;&gt;Node10 -->
<g id="edge11" class="edge">
<title>Node9&#45;&gt;Node10</title>
<path fill="none" stroke="midnightblue" d="M881.74,-120.5C867.76,-119.63 853.31,-118.72 839.63,-117.86"/>
<polygon fill="midnightblue" stroke="midnightblue" points="881.62,-124 891.82,-121.13 882.06,-117.02 881.62,-124"/>
</g>
<!-- Node11 -->
<g id="node11" class="node">
<title>Node11</title>
<g id="a_node11"><a xlink:href="class_t_interface.html#a0e9af41ff305fe2813385fce38b73206" target="_top" xlink:title=" ">
<polygon fill="white" stroke="black" points="495,-142.5 495,-172.5 646,-172.5 646,-142.5 495,-142.5"/>
<text text-anchor="start" x="503" y="-160.5" font-family="Helvetica,sans-Serif" font-size="10.00">TInterface::BecomeNewService</text>
<text text-anchor="middle" x="570.5" y="-149.5" font-family="Helvetica,sans-Serif" font-size="10.00">MenuItemClick</text>
</a>
</g>
</g>
<!-- Node10&#45;&gt;Node11 -->
<g id="edge12" class="edge">
<title>Node10&#45;&gt;Node11</title>
<path fill="none" stroke="midnightblue" d="M690.88,-130.77C673.61,-134.64 655.43,-138.71 638.61,-142.47"/>
<polygon fill="midnightblue" stroke="midnightblue" points="691.93,-134.12 700.93,-128.52 690.4,-127.29 691.93,-134.12"/>
</g>
<!-- Node12&#45;&gt;Node4 -->
<g id="edge17" class="edge">
<title>Node12&#45;&gt;Node4</title>
<path fill="none" stroke="midnightblue" d="M711.08,-219.75C675.24,-231.24 630.42,-245.61 601.39,-254.92"/>
<polygon fill="midnightblue" stroke="midnightblue" points="712.48,-222.98 720.93,-216.59 710.34,-216.31 712.48,-222.98"/>
</g>
<!-- Node12&#45;&gt;Node11 -->
<g id="edge16" class="edge">
<title>Node12&#45;&gt;Node11</title>
<path fill="none" stroke="midnightblue" d="M690.88,-184.23C673.61,-180.36 655.43,-176.29 638.61,-172.53"/>
<polygon fill="midnightblue" stroke="midnightblue" points="690.4,-187.71 700.93,-186.48 691.93,-180.88 690.4,-187.71"/>
</g>
<!-- Node13&#45;&gt;Node4 -->
<g id="edge20" class="edge">
<title>Node13&#45;&gt;Node4</title>
<path fill="none" stroke="midnightblue" d="M699.02,-169.77C693.14,-171.7 687.39,-173.93 682,-176.5 639.28,-196.87 598.17,-236.54 580.52,-254.84"/>
<polygon fill="midnightblue" stroke="midnightblue" points="700.4,-173.01 708.98,-166.79 698.39,-166.3 700.4,-173.01"/>
</g>
<!-- Node13&#45;&gt;Node11 -->
<g id="edge19" class="edge">
<title>Node13&#45;&gt;Node11</title>
<path fill="none" stroke="midnightblue" d="M698.44,-157.5C681.54,-157.5 663.41,-157.5 646.28,-157.5"/>
<polygon fill="midnightblue" stroke="midnightblue" points="698.78,-161 708.78,-157.5 698.78,-154 698.78,-161"/>
</g>
<!-- Node14&#45;&gt;Node4 -->
<g id="edge24" class="edge">
<title>Node14&#45;&gt;Node4</title>
<path fill="none" stroke="midnightblue" d="M689.93,-82.38C687.13,-84.23 684.47,-86.26 682,-88.5 649.17,-118.28 669.18,-143.72 646,-181.5 627.67,-211.37 598.02,-240.49 582.22,-254.99"/>
<polygon fill="midnightblue" stroke="midnightblue" points="691.75,-85.38 698.72,-77.39 688.29,-79.29 691.75,-85.38"/>
</g>
<!-- Node14&#45;&gt;Node11 -->
<g id="edge23" class="edge">
<title>Node14&#45;&gt;Node11</title>
<path fill="none" stroke="midnightblue" d="M695.88,-82.96C691.13,-84.69 686.46,-86.53 682,-88.5 648.47,-103.28 613.13,-126.98 591.69,-142.4"/>
<polygon fill="midnightblue" stroke="midnightblue" points="697.39,-86.14 705.71,-79.59 695.12,-79.52 697.39,-86.14"/>
</g>
<!-- Node15&#45;&gt;Node4 -->
<g id="edge27" class="edge">
<title>Node15&#45;&gt;Node4</title>
<path fill="none" stroke="midnightblue" d="M671.57,-274.18C654.13,-272.49 636.61,-270.8 621.22,-269.31"/>
<polygon fill="midnightblue" stroke="midnightblue" points="671.52,-277.69 681.81,-275.17 672.2,-270.72 671.52,-277.69"/>
</g>
<!-- Node15&#45;&gt;Node11 -->
<g id="edge26" class="edge">
<title>Node15&#45;&gt;Node11</title>
<path fill="none" stroke="midnightblue" d="M744.07,-268.16C706.13,-243.83 632.62,-196.69 594.97,-172.55"/>
<polygon fill="midnightblue" stroke="midnightblue" points="742.6,-271.37 752.91,-273.82 746.38,-265.48 742.6,-271.37"/>
</g>
<!-- Node17 -->
<g id="node17" class="node">
<title>Node17</title>
<g id="a_node17"><a xlink:href="class_t_interface.html#aaaf32c3c815553f7ba70698e0f0071bb" target="_top" xlink:title=" ">
<polygon fill="white" stroke="black" points="701,-0.5 701,-30.5 837,-30.5 837,-0.5 701,-0.5"/>
<text text-anchor="start" x="709" y="-18.5" font-family="Helvetica,sans-Serif" font-size="10.00">TInterface::ChangeDirection</text>
<text text-anchor="middle" x="769" y="-7.5" font-family="Helvetica,sans-Serif" font-size="10.00">MenuItemClick</text>
</a>
</g>
</g>
<!-- Node16&#45;&gt;Node17 -->
<g id="edge29" class="edge">
<title>Node16&#45;&gt;Node17</title>
<path fill="none" stroke="midnightblue" d="M882.11,-19.6C867.16,-19.05 851.65,-18.48 837.11,-17.95"/>
<polygon fill="midnightblue" stroke="midnightblue" points="882.24,-23.11 892.36,-19.97 882.5,-16.11 882.24,-23.11"/>
</g>
</g>
</svg>
        <g id="navigator" transform="translate(0 0)" fill="#404254">
                <rect fill="#f2f5e9" fill-opacity="0.5" stroke="#606060" stroke-width=".5" x="0" y="0" width="60" height="60"/>
                <use id="zoomplus" xlink:href="#zoomPlus" x="17" y="9" onmousedown="handleZoom(evt,'in')"/>
                <use id="zoomminus" xlink:href="#zoomMin" x="42" y="9" onmousedown="handleZoom(evt,'out')"/>
                <use id="reset" xlink:href="#resetDef" x="30" y="36" onmousedown="handleReset()"/>
                <g id="arrowUp" xlink:href="#dirArrow" transform="translate(30 24)" onmousedown="handlePan(0,-1)">
                  <use xlink:href="#rim" fill="#404040">
                        <set attributeName="fill" to="#808080" begin="arrowUp.mouseover" end="arrowUp.mouseout"/>
                  </use>
                  <path fill="none" stroke="white" stroke-width="1.5" d="M0,-3.0v7 M-2.5,-0.5L0,-3.0L2.5,-0.5"/>
                </g>
                <g id="arrowRight" xlink:href="#dirArrow" transform="rotate(90) translate(36 -43)" onmousedown="handlePan(1,0)">
                  <use xlink:href="#rim" fill="#404040">
                        <set attributeName="fill" to="#808080" begin="arrowRight.mouseover" end="arrowRight.mouseout"/>
                  </use>
                  <path fill="none" stroke="white" stroke-width="1.5" d="M0,-3.0v7 M-2.5,-0.5L0,-3.0L2.5,-0.5"/>
                </g>
                <g id="arrowDown" xlink:href="#dirArrow" transform="rotate(180) translate(-30 -48)" onmousedown="handlePan(0,1)">
                  <use xlink:href="#rim" fill="#404040">
                        <set attributeName="fill" to="#808080" begin="arrowDown.mouseover" end="arrowDown.mouseout"/>
                  </use>
                  <path fill="none" stroke="white" stroke-width="1.5" d="M0,-3.0v7 M-2.5,-0.5L0,-3.0L2.5,-0.5"/>
                </g>
                <g id="arrowLeft" xlink:href="#dirArrow" transform="rotate(270) translate(-36 17)" onmousedown="handlePan(-1,0)">
                  <use xlink:href="#rim" fill="#404040">
                        <set attributeName="fill" to="#808080" begin="arrowLeft.mouseover" end="arrowLeft.mouseout"/>
                  </use>
                  <path fill="none" stroke="white" stroke-width="1.5" d="M0,-3.0v7 M-2.5,-0.5L0,-3.0L2.5,-0.5"/>
                </g>
        </g>
        <svg viewBox="0 0 15 15" width="100%" height="30px" preserveAspectRatio="xMaxYMin meet">
         <g id="arrow_out" transform="scale(0.3 0.3)">
          <a xlink:href="class_t_train_a43cd691f12297c4c13a19791329dd627_icgraph_org.svg" target="_base">
           <rect id="button" ry="5" rx="5" y="6" x="6" height="38" width="38"
                fill="#f2f5e9" fill-opacity="0.5" stroke="#606060" stroke-width="1.0"/>
           <path id="arrow"
             d="M 11.500037,31.436501 C 11.940474,20.09759 22.043105,11.32322 32.158766,21.979434 L 37.068811,17.246167 C 37.068811,17.246167 37.088388,32 37.088388,32 L 22.160133,31.978069 C 22.160133,31.978069 26.997745,27.140456 26.997745,27.140456 C 18.528582,18.264221 13.291696,25.230495 11.500037,31.436501 z"
             style="fill:#404040;"/>
          </a>
         </g>
        </svg>
</svg>
