<?xml version="1.0" encoding="UTF-8" standalone="no"?>
<!DOCTYPE svg PUBLIC "-//W3C//DTD SVG 1.1//EN"
 "http://www.w3.org/Graphics/SVG/1.1/DTD/svg11.dtd">
<!-- Generated by graphviz version 2.44.1 (20200629.0800)
 -->
<!-- Title: TDisplay::Rectangle Pages: 1 -->
<svg width="258pt" height="142pt"
 viewBox="0.00 0.00 258.00 142.00" xmlns="http://www.w3.org/2000/svg" xmlns:xlink="http://www.w3.org/1999/xlink">
<g id="graph0" class="graph" transform="scale(1 1) rotate(0) translate(4 138)">
<title>TDisplay::Rectangle</title>
<polygon fill="white" stroke="transparent" points="-4,4 -4,-138 254,-138 254,4 -4,4"/>
<!-- Node1 -->
<g id="node1" class="node">
<title>Node1</title>
<g id="a_node1"><a xlink:title="Plot a rectangle at the defined position with colour Col &amp; size defined by Size.">
<polygon fill="#bfbfbf" stroke="black" points="0,-57.5 0,-76.5 104,-76.5 104,-57.5 0,-57.5"/>
<text text-anchor="middle" x="52" y="-64.5" font-family="Helvetica,sans-Serif" font-size="10.00">TDisplay::Rectangle</text>
</a>
</g>
</g>
<!-- Node2 -->
<g id="node2" class="node">
<title>Node2</title>
<g id="a_node2"><a xlink:href="class_t_utilities.html#ae1eddca13cc3c492839e131f40ec21c0" target="_top" xlink:title="&lt; specifies whether no delays or minor, moderate or major random delays are to be applied">
<polygon fill="white" stroke="black" points="140,-114.5 140,-133.5 250,-133.5 250,-114.5 140,-114.5"/>
<text text-anchor="middle" x="195" y="-121.5" font-family="Helvetica,sans-Serif" font-size="10.00">TUtilities::CallLogPop</text>
</a>
</g>
</g>
<!-- Node1&#45;&gt;Node2 -->
<g id="edge1" class="edge">
<title>Node1&#45;&gt;Node2</title>
<path fill="none" stroke="midnightblue" d="M73.91,-76.65C91.43,-84.61 117.15,-96 140,-105 145.14,-107.03 150.6,-109.07 155.99,-111.02"/>
<polygon fill="midnightblue" stroke="midnightblue" points="154.95,-114.37 165.55,-114.43 157.31,-107.77 154.95,-114.37"/>
</g>
<!-- Node3 -->
<g id="node3" class="node">
<title>Node3</title>
<g id="a_node3"><a xlink:href="class_t_utilities.html#a34bd6bb5305bc29afdf424f6d35a921c" target="_top" xlink:title="creates a string of the form &#39;hh:mm:ss&#39; for use in call &amp; event logging">
<polygon fill="white" stroke="black" points="140,-76.5 140,-95.5 250,-95.5 250,-76.5 140,-76.5"/>
<text text-anchor="middle" x="195" y="-83.5" font-family="Helvetica,sans-Serif" font-size="10.00">TUtilities::TimeStamp</text>
</a>
</g>
</g>
<!-- Node1&#45;&gt;Node3 -->
<g id="edge2" class="edge">
<title>Node1&#45;&gt;Node3</title>
<path fill="none" stroke="midnightblue" d="M104.3,-73.91C112.57,-75.03 121.21,-76.19 129.73,-77.34"/>
<polygon fill="midnightblue" stroke="midnightblue" points="129.27,-80.81 139.65,-78.68 130.21,-73.87 129.27,-80.81"/>
</g>
<!-- Node4 -->
<g id="node4" class="node">
<title>Node4</title>
<g id="a_node4"><a xlink:href="class_t_display.html#aa4f37ab2a4df6437a2219f303e1de40b" target="_top" xlink:title="Repaint the screen display.">
<polygon fill="white" stroke="black" points="149.5,-38.5 149.5,-57.5 240.5,-57.5 240.5,-38.5 149.5,-38.5"/>
<text text-anchor="middle" x="195" y="-45.5" font-family="Helvetica,sans-Serif" font-size="10.00">TDisplay::Update</text>
</a>
</g>
</g>
<!-- Node1&#45;&gt;Node4 -->
<g id="edge3" class="edge">
<title>Node1&#45;&gt;Node4</title>
<path fill="none" stroke="midnightblue" d="M104.3,-60.09C115.75,-58.54 127.93,-56.9 139.51,-55.34"/>
<polygon fill="midnightblue" stroke="midnightblue" points="140.04,-58.8 149.49,-54 139.11,-51.87 140.04,-58.8"/>
</g>
<!-- Node5 -->
<g id="node5" class="node">
<title>Node5</title>
<g id="a_node5"><a xlink:href="class_t_display.html#a39cee11613d156de0d1f5df923a02c8d" target="_top" xlink:title="Return the width of the screen.">
<polygon fill="white" stroke="black" points="152,-0.5 152,-19.5 238,-19.5 238,-0.5 152,-0.5"/>
<text text-anchor="middle" x="195" y="-7.5" font-family="Helvetica,sans-Serif" font-size="10.00">TDisplay::Width</text>
</a>
</g>
</g>
<!-- Node1&#45;&gt;Node5 -->
<g id="edge4" class="edge">
<title>Node1&#45;&gt;Node5</title>
<path fill="none" stroke="midnightblue" d="M73.91,-57.35C91.43,-49.39 117.15,-38 140,-29 145.14,-26.97 150.6,-24.93 155.99,-22.98"/>
<polygon fill="midnightblue" stroke="midnightblue" points="157.31,-26.23 165.55,-19.57 154.95,-19.63 157.31,-26.23"/>
</g>
</g>
</svg>
