<?xml version="1.0" encoding="UTF-8" standalone="no"?>
<!DOCTYPE svg PUBLIC "-//W3C//DTD SVG 1.1//EN"
 "http://www.w3.org/Graphics/SVG/1.1/DTD/svg11.dtd">
<!-- Generated by graphviz version 2.44.1 (20200629.0800)
 -->
<!-- Title: TAllRoutes::IsElementInLockedRouteGetPrefDirElementGetLockedVectorNumber Pages: 1 -->
<!--zoomable 993 -->
<svg id="main" version="1.1" xmlns="http://www.w3.org/2000/svg" xmlns:xlink="http://www.w3.org/1999/xlink" xml:space="preserve" onload="init(evt)">
<style type="text/css"><![CDATA[
.edge:hover path { stroke: red; }
.edge:hover polygon { stroke: red; fill: red; }
]]></style>
<script type="text/javascript"><![CDATA[
var edges = document.getElementsByTagName('g');
if (edges && edges.length) {
  for (var i=0;i<edges.length;i++) {
    if (edges[i].id.substr(0,4)=='edge') {
      edges[i].setAttribute('class','edge');
    }
  }
}
]]></script>
        <defs>
                <circle id="rim" cx="0" cy="0" r="7"/>
                <circle id="rim2" cx="0" cy="0" r="3.5"/>
                <g id="zoomPlus">
                        <use xlink:href="#rim" fill="#404040">
                                <set attributeName="fill" to="#808080" begin="zoomplus.mouseover" end="zoomplus.mouseout"/>
                        </use>
                        <path d="M-4,0h8M0,-4v8" fill="none" stroke="white" stroke-width="1.5" pointer-events="none"/>
                </g>
                <g id="zoomMin">
                        <use xlink:href="#rim" fill="#404040">
                                <set attributeName="fill" to="#808080" begin="zoomminus.mouseover" end="zoomminus.mouseout"/>
                        </use>
                        <path d="M-4,0h8" fill="none" stroke="white" stroke-width="1.5" pointer-events="none"/>
                </g>
                <g id="dirArrow">
                        <path fill="none" stroke="white" stroke-width="1.5" d="M0,-3.0v7 M-2.5,-0.5L0,-3.0L2.5,-0.5"/>
                </g>
               <g id="resetDef">
                       <use xlink:href="#rim2" fill="#404040">
                               <set attributeName="fill" to="#808080" begin="reset.mouseover" end="reset.mouseout"/>
                       </use>
               </g>
        </defs>

<script type="text/javascript">
var viewWidth = 2027;
var viewHeight = 993;
var sectionId = 'dynsection-41';
</script>
<script xlink:href="svgpan.js"/>
<svg id="graph" class="graph">
<g id="viewport">
<title>TAllRoutes::IsElementInLockedRouteGetPrefDirElementGetLockedVectorNumber</title>
<polygon fill="white" stroke="transparent" points="-4,4 -4,-989.43 2023,-989.43 2023,4 -4,4"/>
<!-- Node1 -->
<g id="node1" class="node">
<title>Node1</title>
<g id="a_node1"><a xlink:title="Checks whether the preferred direction element at TrackVectorPosition with XLinkPos value is in a loc...">
<polygon fill="#bfbfbf" stroke="black" points="1820,-277 1820,-318 2019,-318 2019,-277 1820,-277"/>
<text text-anchor="start" x="1828" y="-306" font-family="Helvetica,sans-Serif" font-size="10.00">TAllRoutes::IsElementInLocked</text>
<text text-anchor="start" x="1828" y="-295" font-family="Helvetica,sans-Serif" font-size="10.00">RouteGetPrefDirElementGetLockedVector</text>
<text text-anchor="middle" x="1919.5" y="-284" font-family="Helvetica,sans-Serif" font-size="10.00">Number</text>
</a>
</g>
</g>
<!-- Node2 -->
<g id="node2" class="node">
<title>Node2</title>
<g id="a_node2"><a xlink:href="class_t_train_controller.html#ab8d8cf015d4784f12585f0ead325e9bf" target="_top" xlink:title="Called when trying to introduce a new train &#45; checks for points in correct orientation,...">
<polygon fill="white" stroke="black" points="1632.5,-384.5 1632.5,-414.5 1771.5,-414.5 1771.5,-384.5 1632.5,-384.5"/>
<text text-anchor="start" x="1640.5" y="-402.5" font-family="Helvetica,sans-Serif" font-size="10.00">TTrainController::CheckStart</text>
<text text-anchor="middle" x="1702" y="-391.5" font-family="Helvetica,sans-Serif" font-size="10.00">Allowable</text>
</a>
</g>
</g>
<!-- Node1&#45;&gt;Node2 -->
<g id="edge1" class="edge">
<title>Node1&#45;&gt;Node2</title>
<path fill="none" stroke="midnightblue" d="M1866.1,-322.3C1825.05,-341.73 1769.28,-368.13 1734.74,-384.48"/>
<polygon fill="midnightblue" stroke="midnightblue" points="1867.61,-325.46 1875.15,-318.02 1864.61,-319.13 1867.61,-325.46"/>
</g>
<!-- Node5 -->
<g id="node5" class="node">
<title>Node5</title>
<g id="a_node5"><a xlink:href="class_t_train.html#a89ad640ecf8f5163c40727b4e28575fc" target="_top" xlink:title="Major function called at each clock tick for each train &amp; handles all train movement &amp; associated act...">
<polygon fill="white" stroke="black" points="512.5,-558 512.5,-577 613.5,-577 613.5,-558 512.5,-558"/>
<text text-anchor="middle" x="563" y="-565" font-family="Helvetica,sans-Serif" font-size="10.00">TTrain::UpdateTrain</text>
</a>
</g>
</g>
<!-- Node1&#45;&gt;Node5 -->
<g id="edge61" class="edge">
<title>Node1&#45;&gt;Node5</title>
<path fill="none" stroke="midnightblue" d="M1894.85,-325.76C1869.89,-354.01 1828.1,-396.95 1784,-423.5 1675.09,-489.08 1640.63,-516.5 1513.5,-516.5 1513.5,-516.5 1513.5,-516.5 1328,-516.5 1057.81,-516.5 735.07,-548.65 613.53,-561.9"/>
<polygon fill="midnightblue" stroke="midnightblue" points="1897.5,-328.05 1901.44,-318.21 1892.23,-323.45 1897.5,-328.05"/>
</g>
<!-- Node10 -->
<g id="node10" class="node">
<title>Node10</title>
<g id="a_node10"><a xlink:href="class_t_interface.html#abfdbbb1cf793f965f8c6ce60d4bb46ae" target="_top" xlink:title="Deal with signal resetting on auto signal routes that extend to continuations where trains have depar...">
<polygon fill="white" stroke="black" points="1453,-0.5 1453,-30.5 1572,-30.5 1572,-0.5 1453,-0.5"/>
<text text-anchor="start" x="1461" y="-18.5" font-family="Helvetica,sans-Serif" font-size="10.00">TInterface::Continuation</text>
<text text-anchor="middle" x="1512.5" y="-7.5" font-family="Helvetica,sans-Serif" font-size="10.00">AutoSignals</text>
</a>
</g>
</g>
<!-- Node1&#45;&gt;Node10 -->
<g id="edge11" class="edge">
<title>Node1&#45;&gt;Node10</title>
<path fill="none" stroke="midnightblue" d="M1907.5,-267.63C1889.11,-221.94 1847.77,-135.12 1784,-88.5 1720.98,-42.42 1630.65,-25.43 1572.03,-19.16"/>
<polygon fill="midnightblue" stroke="midnightblue" points="1904.26,-268.96 1911.17,-276.99 1910.78,-266.4 1904.26,-268.96"/>
</g>
<!-- Node11 -->
<g id="node11" class="node">
<title>Node11</title>
<g id="a_node11"><a xlink:href="class_t_one_route.html#a13dd08bfcc95ea1296f9ac4fd699e94d" target="_top" xlink:title="Set the starting conditions for a non&#45;preferred (i.e. unrestricted) route selection beginning on HLoc...">
<polygon fill="white" stroke="black" points="1441,-76.5 1441,-106.5 1584,-106.5 1584,-76.5 1441,-76.5"/>
<text text-anchor="start" x="1449" y="-94.5" font-family="Helvetica,sans-Serif" font-size="10.00">TOneRoute::GetNonPreferred</text>
<text text-anchor="middle" x="1512.5" y="-83.5" font-family="Helvetica,sans-Serif" font-size="10.00">RouteStartElement</text>
</a>
</g>
</g>
<!-- Node1&#45;&gt;Node11 -->
<g id="edge13" class="edge">
<title>Node1&#45;&gt;Node11</title>
<path fill="none" stroke="midnightblue" d="M1902.85,-267.86C1881.4,-230.41 1839.14,-167.04 1784,-135.5 1722.67,-100.42 1641.47,-91.23 1584.09,-89.7"/>
<polygon fill="midnightblue" stroke="midnightblue" points="1899.91,-269.77 1907.85,-276.79 1906.02,-266.35 1899.91,-269.77"/>
</g>
<!-- Node14 -->
<g id="node14" class="node">
<title>Node14</title>
<g id="a_node14"><a xlink:href="class_t_one_route.html#ab7ac58fe51393873e9054ffa724bc118" target="_top" xlink:title="Set the starting conditions for a preferred direction or automatic signal route selection beginning o...">
<polygon fill="white" stroke="black" points="1062,-81.5 1062,-111.5 1214,-111.5 1214,-81.5 1062,-81.5"/>
<text text-anchor="start" x="1070" y="-99.5" font-family="Helvetica,sans-Serif" font-size="10.00">TOneRoute::GetPreferredRoute</text>
<text text-anchor="middle" x="1138" y="-88.5" font-family="Helvetica,sans-Serif" font-size="10.00">StartElement</text>
</a>
</g>
</g>
<!-- Node1&#45;&gt;Node14 -->
<g id="edge16" class="edge">
<title>Node1&#45;&gt;Node14</title>
<path fill="none" stroke="midnightblue" d="M1830.73,-274.35C1728.54,-247.46 1554.64,-201.87 1405,-163.5 1334.42,-145.4 1253.19,-125.01 1199.25,-111.52"/>
<polygon fill="midnightblue" stroke="midnightblue" points="1830.13,-277.81 1840.69,-276.98 1831.91,-271.05 1830.13,-277.81"/>
</g>
<!-- Node16 -->
<g id="node16" class="node">
<title>Node16</title>
<g id="a_node16"><a xlink:href="class_t_train.html#aa21e18b3085773ca8351c446911611c1" target="_top" xlink:title="When a train moves off a bridge the other track may contain a route or have a train on it that has be...">
<polygon fill="white" stroke="black" points="1070.5,-545.5 1070.5,-575.5 1205.5,-575.5 1205.5,-545.5 1070.5,-545.5"/>
<text text-anchor="start" x="1078.5" y="-563.5" font-family="Helvetica,sans-Serif" font-size="10.00">TTrain::PlotAlternativeTrack</text>
<text text-anchor="middle" x="1138" y="-552.5" font-family="Helvetica,sans-Serif" font-size="10.00">RouteGraphic</text>
</a>
</g>
</g>
<!-- Node1&#45;&gt;Node16 -->
<g id="edge19" class="edge">
<title>Node1&#45;&gt;Node16</title>
<path fill="none" stroke="midnightblue" d="M1911.07,-327.99C1896.59,-380.01 1859.21,-484.71 1784,-530.5 1597.29,-644.17 1320.78,-602.08 1199.61,-575.56"/>
<polygon fill="midnightblue" stroke="midnightblue" points="1914.53,-328.59 1913.74,-318.03 1907.77,-326.78 1914.53,-328.59"/>
</g>
<!-- Node27 -->
<g id="node27" class="node">
<title>Node27</title>
<g id="a_node27"><a xlink:href="class_t_one_route.html#a55e04e36f652344b5215f8a28143c4a3" target="_top" xlink:title="Called by TAllRoutes::SetAllRearwardsSignals to set rearwards signals from a specified starting posit...">
<polygon fill="white" stroke="black" points="1620,-282.5 1620,-312.5 1784,-312.5 1784,-282.5 1620,-282.5"/>
<text text-anchor="start" x="1628" y="-300.5" font-family="Helvetica,sans-Serif" font-size="10.00">TOneRoute::SetRearwardsSignals</text>
<text text-anchor="middle" x="1702" y="-289.5" font-family="Helvetica,sans-Serif" font-size="10.00">ReturnFalseForTrain</text>
</a>
</g>
</g>
<!-- Node1&#45;&gt;Node27 -->
<g id="edge39" class="edge">
<title>Node1&#45;&gt;Node27</title>
<path fill="none" stroke="midnightblue" d="M1809.77,-297.5C1801.14,-297.5 1792.52,-297.5 1784.13,-297.5"/>
<polygon fill="midnightblue" stroke="midnightblue" points="1809.89,-301 1819.89,-297.5 1809.89,-294 1809.89,-301"/>
</g>
<!-- Node3 -->
<g id="node3" class="node">
<title>Node3</title>
<g id="a_node3"><a xlink:href="class_t_train_controller.html#aa895b60238810a9d134cd5b9c886da56" target="_top" xlink:title="Introduce a new train to the railway, with the characteristics specified, returns true for success,...">
<polygon fill="white" stroke="black" points="886,-431 886,-450 1014,-450 1014,-431 886,-431"/>
<text text-anchor="middle" x="950" y="-438" font-family="Helvetica,sans-Serif" font-size="10.00">TTrainController::AddTrain</text>
</a>
</g>
</g>
<!-- Node2&#45;&gt;Node3 -->
<g id="edge2" class="edge">
<title>Node2&#45;&gt;Node3</title>
<path fill="none" stroke="midnightblue" d="M1628.46,-416.8C1509.46,-442.93 1265.4,-487.16 1059,-464.5 1033.99,-461.75 1006.29,-455.53 985.21,-450.11"/>
<polygon fill="midnightblue" stroke="midnightblue" points="1629.53,-420.14 1638.54,-414.56 1628.02,-413.31 1629.53,-420.14"/>
</g>
<!-- Node4 -->
<g id="node4" class="node">
<title>Node4</title>
<g id="a_node4"><a xlink:href="class_t_train.html#ad666fb061d1da7c44a72ec963c2098aa" target="_top" xlink:title="Carry out the actions needed when a train is to split from the front.">
<polygon fill="white" stroke="black" points="698,-463 698,-482 810,-482 810,-463 698,-463"/>
<text text-anchor="middle" x="754" y="-470" font-family="Helvetica,sans-Serif" font-size="10.00">TTrain::FrontTrainSplit</text>
</a>
</g>
</g>
<!-- Node3&#45;&gt;Node4 -->
<g id="edge3" class="edge">
<title>Node3&#45;&gt;Node4</title>
<path fill="none" stroke="midnightblue" d="M881.18,-451.69C857.94,-455.52 832.24,-459.76 810.13,-463.41"/>
<polygon fill="midnightblue" stroke="midnightblue" points="882.02,-455.1 891.32,-450.01 880.88,-448.19 882.02,-455.1"/>
</g>
<!-- Node6 -->
<g id="node6" class="node">
<title>Node6</title>
<g id="a_node6"><a xlink:href="class_t_train_controller.html#a20a1576dea1d86ed78fc5e9f46343481" target="_top" xlink:title="called every clock tick to introduce new trains and update existing trains">
<polygon fill="white" stroke="black" points="334,-425 334,-444 459,-444 459,-425 334,-425"/>
<text text-anchor="middle" x="396.5" y="-432" font-family="Helvetica,sans-Serif" font-size="10.00">TTrainController::Operate</text>
</a>
</g>
</g>
<!-- Node3&#45;&gt;Node6 -->
<g id="edge8" class="edge">
<title>Node3&#45;&gt;Node6</title>
<path fill="none" stroke="midnightblue" d="M875.43,-439.7C765.78,-438.51 561.48,-436.28 459.18,-435.17"/>
<polygon fill="midnightblue" stroke="midnightblue" points="875.7,-443.2 885.74,-439.81 875.77,-436.2 875.7,-443.2"/>
</g>
<!-- Node9 -->
<g id="node9" class="node">
<title>Node9</title>
<g id="a_node9"><a xlink:href="class_t_train.html#ad64c5823265b0c611c2e5f0613317aa5" target="_top" xlink:title="Carry out the actions needed when a train is to split from the rear.">
<polygon fill="white" stroke="black" points="699,-577 699,-596 809,-596 809,-577 699,-577"/>
<text text-anchor="middle" x="754" y="-584" font-family="Helvetica,sans-Serif" font-size="10.00">TTrain::RearTrainSplit</text>
</a>
</g>
</g>
<!-- Node3&#45;&gt;Node9 -->
<g id="edge9" class="edge">
<title>Node3&#45;&gt;Node9</title>
<path fill="none" stroke="midnightblue" d="M928.24,-456.12C888.13,-486.31 801.03,-551.86 768.03,-576.69"/>
<polygon fill="midnightblue" stroke="midnightblue" points="930.39,-458.89 936.27,-450.08 926.18,-453.3 930.39,-458.89"/>
</g>
<!-- Node4&#45;&gt;Node5 -->
<g id="edge4" class="edge">
<title>Node4&#45;&gt;Node5</title>
<path fill="none" stroke="midnightblue" d="M697.86,-484.96C687.39,-488.14 676.68,-491.97 667,-496.5 630.81,-513.44 593.43,-542.71 575.27,-557.83"/>
<polygon fill="midnightblue" stroke="midnightblue" points="699.15,-488.23 707.8,-482.1 697.22,-481.5 699.15,-488.23"/>
</g>
<!-- Node5&#45;&gt;Node6 -->
<g id="edge5" class="edge">
<title>Node5&#45;&gt;Node6</title>
<path fill="none" stroke="midnightblue" d="M542.23,-551.52C507.81,-523.68 437.85,-467.12 409.67,-444.34"/>
<polygon fill="midnightblue" stroke="midnightblue" points="540.19,-554.37 550.17,-557.93 544.59,-548.93 540.19,-554.37"/>
</g>
<!-- Node7 -->
<g id="node7" class="node">
<title>Node7</title>
<g id="a_node7"><a xlink:href="class_t_interface.html#a6139ffb52492eb89e5487a8a3cd647b5" target="_top" xlink:title="The main loop, called every clock tick via MasterClockTimer.">
<polygon fill="white" stroke="black" points="179,-185 179,-204 298,-204 298,-185 179,-185"/>
<text text-anchor="middle" x="238.5" y="-192" font-family="Helvetica,sans-Serif" font-size="10.00">TInterface::ClockTimer2</text>
</a>
</g>
</g>
<!-- Node6&#45;&gt;Node7 -->
<g id="edge6" class="edge">
<title>Node6&#45;&gt;Node7</title>
<path fill="none" stroke="midnightblue" d="M383.7,-416.35C352.61,-368.51 269.18,-240.16 245.72,-204.06"/>
<polygon fill="midnightblue" stroke="midnightblue" points="380.81,-418.32 389.19,-424.79 386.68,-414.5 380.81,-418.32"/>
</g>
<!-- Node8 -->
<g id="node8" class="node">
<title>Node8</title>
<g id="a_node8"><a xlink:href="class_t_interface.html#ace30a12d923fc7fb489afabb0a09aa4f" target="_top" xlink:title=" ">
<polygon fill="white" stroke="black" points="0,-185 0,-204 143,-204 143,-185 0,-185"/>
<text text-anchor="middle" x="71.5" y="-192" font-family="Helvetica,sans-Serif" font-size="10.00">TInterface::MasterClockTimer</text>
</a>
</g>
</g>
<!-- Node7&#45;&gt;Node8 -->
<g id="edge7" class="edge">
<title>Node7&#45;&gt;Node8</title>
<path fill="none" stroke="midnightblue" d="M168.67,-194.5C160.22,-194.5 151.57,-194.5 143.09,-194.5"/>
<polygon fill="midnightblue" stroke="midnightblue" points="168.86,-198 178.86,-194.5 168.86,-191 168.86,-198"/>
</g>
<!-- Node9&#45;&gt;Node5 -->
<g id="edge10" class="edge">
<title>Node9&#45;&gt;Node5</title>
<path fill="none" stroke="midnightblue" d="M688.88,-580.05C664.3,-577.58 636.66,-574.8 613.64,-572.49"/>
<polygon fill="midnightblue" stroke="midnightblue" points="688.54,-583.54 698.84,-581.06 689.24,-576.57 688.54,-583.54"/>
</g>
<!-- Node10&#45;&gt;Node7 -->
<g id="edge12" class="edge">
<title>Node10&#45;&gt;Node7</title>
<path fill="none" stroke="midnightblue" d="M1442.57,-15.2C1367.8,-14.91 1244.93,-14.5 1139,-14.5 1139,-14.5 1139,-14.5 562,-14.5 420.94,-14.5 284.15,-147.43 248.47,-184.82"/>
<polygon fill="midnightblue" stroke="midnightblue" points="1442.78,-18.71 1452.79,-15.25 1442.8,-11.71 1442.78,-18.71"/>
</g>
<!-- Node12 -->
<g id="node12" class="node">
<title>Node12</title>
<g id="a_node12"><a xlink:href="class_t_interface.html#abf07d5edc1507de381825f17620748b2" target="_top" xlink:title="Called when mouse button clicked in zoom&#45;in mode.">
<polygon fill="white" stroke="black" points="877,-81.5 877,-111.5 1023,-111.5 1023,-81.5 877,-81.5"/>
<text text-anchor="start" x="885" y="-99.5" font-family="Helvetica,sans-Serif" font-size="10.00">TInterface::MainScreenMouse</text>
<text text-anchor="middle" x="950" y="-88.5" font-family="Helvetica,sans-Serif" font-size="10.00">Down2</text>
</a>
</g>
</g>
<!-- Node11&#45;&gt;Node12 -->
<g id="edge14" class="edge">
<title>Node11&#45;&gt;Node12</title>
<path fill="none" stroke="midnightblue" d="M1430.78,-80.29C1340.06,-69.46 1188.52,-56.7 1059,-71.5 1041.22,-73.53 1022.1,-77.39 1004.97,-81.47"/>
<polygon fill="midnightblue" stroke="midnightblue" points="1430.37,-83.76 1440.72,-81.5 1431.21,-76.81 1430.37,-83.76"/>
</g>
<!-- Node13 -->
<g id="node13" class="node">
<title>Node13</title>
<g id="a_node13"><a xlink:href="class_t_interface.html#a7f37862fb9e01e1328d9fd3fd8c50094" target="_top" xlink:title=" ">
<polygon fill="white" stroke="black" points="669,-87 669,-106 839,-106 839,-87 669,-87"/>
<text text-anchor="middle" x="754" y="-94" font-family="Helvetica,sans-Serif" font-size="10.00">TInterface::MainScreenMouseDown</text>
</a>
</g>
</g>
<!-- Node12&#45;&gt;Node13 -->
<g id="edge15" class="edge">
<title>Node12&#45;&gt;Node13</title>
<path fill="none" stroke="midnightblue" d="M866.58,-96.5C857.48,-96.5 848.2,-96.5 839.08,-96.5"/>
<polygon fill="midnightblue" stroke="midnightblue" points="866.76,-100 876.76,-96.5 866.76,-93 866.76,-100"/>
</g>
<!-- Node14&#45;&gt;Node12 -->
<g id="edge17" class="edge">
<title>Node14&#45;&gt;Node12</title>
<path fill="none" stroke="midnightblue" d="M1051.6,-96.5C1042.06,-96.5 1032.42,-96.5 1023.08,-96.5"/>
<polygon fill="midnightblue" stroke="midnightblue" points="1051.88,-100 1061.88,-96.5 1051.88,-93 1051.88,-100"/>
</g>
<!-- Node15 -->
<g id="node15" class="node">
<title>Node15</title>
<g id="a_node15"><a xlink:href="class_t_interface.html#aa639148521a793641e694b15486b5055" target="_top" xlink:title=" ">
<polygon fill="white" stroke="black" points="886,-133.5 886,-163.5 1014,-163.5 1014,-133.5 886,-133.5"/>
<text text-anchor="start" x="894" y="-151.5" font-family="Helvetica,sans-Serif" font-size="10.00">TInterface::PresetAutoSig</text>
<text text-anchor="middle" x="950" y="-140.5" font-family="Helvetica,sans-Serif" font-size="10.00">RoutesButtonClick</text>
</a>
</g>
</g>
<!-- Node14&#45;&gt;Node15 -->
<g id="edge18" class="edge">
<title>Node14&#45;&gt;Node15</title>
<path fill="none" stroke="midnightblue" d="M1073.45,-114.27C1051.08,-120.52 1026.16,-127.49 1004.68,-133.49"/>
<polygon fill="midnightblue" stroke="midnightblue" points="1074.51,-117.6 1083.2,-111.54 1072.63,-110.86 1074.51,-117.6"/>
</g>
<!-- Node16&#45;&gt;Node5 -->
<g id="edge38" class="edge">
<title>Node16&#45;&gt;Node5</title>
<path fill="none" stroke="midnightblue" d="M1060.27,-561.44C940.91,-562.9 714.05,-565.67 613.78,-566.89"/>
<polygon fill="midnightblue" stroke="midnightblue" points="1060.47,-564.94 1070.43,-561.31 1060.39,-557.94 1060.47,-564.94"/>
</g>
<!-- Node17 -->
<g id="node17" class="node">
<title>Node17</title>
<g id="a_node17"><a xlink:href="class_t_train.html#a4978a3050ca943076eb6cbd03eeee1d4" target="_top" xlink:title="Unplot train from screen in zoomed&#45;in mode.">
<polygon fill="white" stroke="black" points="901,-703 901,-722 999,-722 999,-703 901,-703"/>
<text text-anchor="middle" x="950" y="-710" font-family="Helvetica,sans-Serif" font-size="10.00">TTrain::UnplotTrain</text>
</a>
</g>
</g>
<!-- Node16&#45;&gt;Node17 -->
<g id="edge20" class="edge">
<title>Node16&#45;&gt;Node17</title>
<path fill="none" stroke="midnightblue" d="M1110.56,-582.11C1069.58,-615.6 992.38,-678.68 962.88,-702.79"/>
<polygon fill="midnightblue" stroke="midnightblue" points="1112.96,-584.67 1118.49,-575.63 1108.53,-579.25 1112.96,-584.67"/>
</g>
<!-- Node17&#45;&gt;Node4 -->
<g id="edge23" class="edge">
<title>Node17&#45;&gt;Node4</title>
<path fill="none" stroke="midnightblue" d="M936.36,-694.4C916.72,-666.53 877.35,-611.73 841,-567.5 814.44,-535.19 780.51,-499.1 764.36,-482.21"/>
<polygon fill="midnightblue" stroke="midnightblue" points="933.62,-696.58 942.23,-702.76 939.35,-692.56 933.62,-696.58"/>
</g>
<!-- Node17&#45;&gt;Node6 -->
<g id="edge28" class="edge">
<title>Node17&#45;&gt;Node6</title>
<path fill="none" stroke="midnightblue" d="M945.57,-732.28C936.93,-775.3 909.83,-876.87 841,-918.5 709.42,-998.08 613.99,-1015.91 495,-918.5 417.9,-855.38 400.42,-507.69 397.86,-444.39"/>
<polygon fill="midnightblue" stroke="midnightblue" points="949.05,-732.7 947.46,-722.23 942.18,-731.41 949.05,-732.7"/>
</g>
<!-- Node17&#45;&gt;Node9 -->
<g id="edge29" class="edge">
<title>Node17&#45;&gt;Node9</title>
<path fill="none" stroke="midnightblue" d="M935.97,-694.62C917.56,-670.73 881.63,-628.82 841,-606.5 831.33,-601.19 820.29,-597.28 809.43,-594.41"/>
<polygon fill="midnightblue" stroke="midnightblue" points="933.33,-696.93 942.14,-702.82 938.92,-692.72 933.33,-696.93"/>
</g>
<!-- Node18 -->
<g id="node18" class="node">
<title>Node18</title>
<g id="a_node18"><a xlink:href="class_t_train.html#a406c172a0ba96802ada1aa04d78948d0" target="_top" xlink:title="Reverses the direction of motion of the train.">
<polygon fill="white" stroke="black" points="683.5,-665 683.5,-684 824.5,-684 824.5,-665 683.5,-665"/>
<text text-anchor="middle" x="754" y="-672" font-family="Helvetica,sans-Serif" font-size="10.00">TTrain::ChangeTrainDirection</text>
</a>
</g>
</g>
<!-- Node17&#45;&gt;Node18 -->
<g id="edge21" class="edge">
<title>Node17&#45;&gt;Node18</title>
<path fill="none" stroke="midnightblue" d="M890.55,-701.05C862.75,-695.61 829.91,-689.17 803.51,-684"/>
<polygon fill="midnightblue" stroke="midnightblue" points="890.06,-704.52 900.55,-703.01 891.41,-697.65 890.06,-704.52"/>
</g>
<!-- Node19 -->
<g id="node19" class="node">
<title>Node19</title>
<g id="a_node19"><a xlink:href="class_t_train.html#a56fcfe4b9a3cef988bbeb4f4766372aa" target="_top" xlink:title="Carry out the actions needed when a new shuttle service is created from a non&#45;repeating (F&#45;nshs) serv...">
<polygon fill="white" stroke="black" points="685,-615.5 685,-645.5 823,-645.5 823,-615.5 685,-615.5"/>
<text text-anchor="start" x="693" y="-633.5" font-family="Helvetica,sans-Serif" font-size="10.00">TTrain::NewShuttleFromNon</text>
<text text-anchor="middle" x="754" y="-622.5" font-family="Helvetica,sans-Serif" font-size="10.00">RepeatService</text>
</a>
</g>
</g>
<!-- Node17&#45;&gt;Node19 -->
<g id="edge24" class="edge">
<title>Node17&#45;&gt;Node19</title>
<path fill="none" stroke="midnightblue" d="M924.62,-697.8C903.16,-685.31 870.79,-667.55 841,-655.5 832.06,-651.89 822.41,-648.56 812.91,-645.59"/>
<polygon fill="midnightblue" stroke="midnightblue" points="922.99,-700.9 933.38,-702.96 926.54,-694.87 922.99,-700.9"/>
</g>
<!-- Node20 -->
<g id="node20" class="node">
<title>Node20</title>
<g id="a_node20"><a xlink:href="class_t_train.html#a75a2e9017b96e2a8f2a1edbd01c2cd68" target="_top" xlink:title="Carry out the actions needed when a train forms a new service (code Fns)">
<polygon fill="white" stroke="black" points="694,-791 694,-810 814,-810 814,-791 694,-791"/>
<text text-anchor="middle" x="754" y="-798" font-family="Helvetica,sans-Serif" font-size="10.00">TTrain::NewTrainService</text>
</a>
</g>
</g>
<!-- Node17&#45;&gt;Node20 -->
<g id="edge26" class="edge">
<title>Node17&#45;&gt;Node20</title>
<path fill="none" stroke="midnightblue" d="M929.09,-728.29C908.28,-744.03 874.09,-767.78 841,-781.5 831.82,-785.31 821.76,-788.4 811.85,-790.91"/>
<polygon fill="midnightblue" stroke="midnightblue" points="931.36,-730.96 937.15,-722.08 927.09,-725.41 931.36,-730.96"/>
</g>
<!-- Node21 -->
<g id="node21" class="node">
<title>Node21</title>
<g id="a_node21"><a xlink:href="class_t_train.html#a8262f447ec811db7e524c7bb885226c5" target="_top" xlink:title="Carry out the actions needed to create either a new shuttle service or (if all repeats have finished)...">
<polygon fill="white" stroke="black" points="684,-741.5 684,-771.5 824,-771.5 824,-741.5 684,-741.5"/>
<text text-anchor="start" x="692" y="-759.5" font-family="Helvetica,sans-Serif" font-size="10.00">TTrain::RepeatShuttleOrNew</text>
<text text-anchor="middle" x="754" y="-748.5" font-family="Helvetica,sans-Serif" font-size="10.00">NonRepeatService</text>
</a>
</g>
</g>
<!-- Node17&#45;&gt;Node21 -->
<g id="edge30" class="edge">
<title>Node17&#45;&gt;Node21</title>
<path fill="none" stroke="midnightblue" d="M896.91,-724.31C873.71,-729.58 846.1,-735.84 821.42,-741.43"/>
<polygon fill="midnightblue" stroke="midnightblue" points="897.93,-727.67 906.9,-722.05 896.38,-720.85 897.93,-727.67"/>
</g>
<!-- Node22 -->
<g id="node22" class="node">
<title>Node22</title>
<g id="a_node22"><a xlink:href="class_t_train.html#ac6f5cda912103fda4da31bdca611e4b5" target="_top" xlink:title="Carry out the actions needed to create either a new shuttle service or (if all repeats have finished)...">
<polygon fill="white" stroke="black" points="667,-703 667,-722 841,-722 841,-703 667,-703"/>
<text text-anchor="middle" x="754" y="-710" font-family="Helvetica,sans-Serif" font-size="10.00">TTrain::RepeatShuttleOrRemainHere</text>
</a>
</g>
</g>
<!-- Node17&#45;&gt;Node22 -->
<g id="edge32" class="edge">
<title>Node17&#45;&gt;Node22</title>
<path fill="none" stroke="midnightblue" d="M890.15,-712.5C874.76,-712.5 857.83,-712.5 841.33,-712.5"/>
<polygon fill="midnightblue" stroke="midnightblue" points="890.55,-716 900.55,-712.5 890.55,-709 890.55,-716"/>
</g>
<!-- Node23 -->
<g id="node23" class="node">
<title>Node23</title>
<g id="a_node23"><a xlink:href="class_t_train.html#affbb94aa088370056f8ca8c45a1fdd48" target="_top" xlink:title="Unplots &amp; replots train, which checks for facing signal and sets StoppedAtSignal if req&#39;d.">
<polygon fill="white" stroke="black" points="684,-878.5 684,-908.5 824,-908.5 824,-878.5 684,-878.5"/>
<text text-anchor="start" x="692" y="-896.5" font-family="Helvetica,sans-Serif" font-size="10.00">TTrain::SignallerChangeTrain</text>
<text text-anchor="middle" x="754" y="-885.5" font-family="Helvetica,sans-Serif" font-size="10.00">Direction</text>
</a>
</g>
</g>
<!-- Node17&#45;&gt;Node23 -->
<g id="edge34" class="edge">
<title>Node17&#45;&gt;Node23</title>
<path fill="none" stroke="midnightblue" d="M941.04,-731.88C926.35,-765.2 891.77,-833.24 841,-869.5 835.83,-873.19 830.11,-876.32 824.15,-878.97"/>
<polygon fill="midnightblue" stroke="midnightblue" points="944.39,-732.94 945.11,-722.37 937.96,-730.19 944.39,-732.94"/>
</g>
<!-- Node25 -->
<g id="node25" class="node">
<title>Node25</title>
<g id="a_node25"><a xlink:href="class_t_train_controller.html#a7e2abfcc38e51933883d959c4155aca0" target="_top" xlink:title="unplot all trains from screen">
<polygon fill="white" stroke="black" points="695,-829.5 695,-859.5 813,-859.5 813,-829.5 695,-829.5"/>
<text text-anchor="start" x="703" y="-847.5" font-family="Helvetica,sans-Serif" font-size="10.00">TTrainController::Unplot</text>
<text text-anchor="middle" x="754" y="-836.5" font-family="Helvetica,sans-Serif" font-size="10.00">Trains</text>
</a>
</g>
</g>
<!-- Node17&#45;&gt;Node25 -->
<g id="edge36" class="edge">
<title>Node17&#45;&gt;Node25</title>
<path fill="none" stroke="midnightblue" d="M935.83,-730.23C917.26,-753.99 881.14,-795.88 841,-819.5 832.42,-824.55 822.76,-828.63 813.09,-831.92"/>
<polygon fill="midnightblue" stroke="midnightblue" points="938.76,-732.16 942.05,-722.09 933.2,-727.9 938.76,-732.16"/>
</g>
<!-- Node18&#45;&gt;Node5 -->
<g id="edge22" class="edge">
<title>Node18&#45;&gt;Node5</title>
<path fill="none" stroke="midnightblue" d="M682.37,-661.9C677.06,-660.05 671.88,-657.93 667,-655.5 626.37,-635.26 588.46,-595.52 572.26,-577.19"/>
<polygon fill="midnightblue" stroke="midnightblue" points="681.44,-665.28 692.03,-664.95 683.55,-658.6 681.44,-665.28"/>
</g>
<!-- Node19&#45;&gt;Node5 -->
<g id="edge25" class="edge">
<title>Node19&#45;&gt;Node5</title>
<path fill="none" stroke="midnightblue" d="M689.54,-612.6C681.92,-610.29 674.27,-607.89 667,-605.5 639.84,-596.56 609.15,-585.05 588.39,-577.05"/>
<polygon fill="midnightblue" stroke="midnightblue" points="688.56,-615.96 699.15,-615.48 690.57,-609.26 688.56,-615.96"/>
</g>
<!-- Node20&#45;&gt;Node5 -->
<g id="edge27" class="edge">
<title>Node20&#45;&gt;Node5</title>
<path fill="none" stroke="midnightblue" d="M684.02,-791.34C677.91,-788.78 672.11,-785.55 667,-781.5 596.86,-725.95 571.62,-610.81 565.56,-577.02"/>
<polygon fill="midnightblue" stroke="midnightblue" points="683.23,-794.78 693.83,-794.86 685.59,-788.19 683.23,-794.78"/>
</g>
<!-- Node21&#45;&gt;Node5 -->
<g id="edge31" class="edge">
<title>Node21&#45;&gt;Node5</title>
<path fill="none" stroke="midnightblue" d="M674.76,-736.68C672.06,-735.08 669.46,-733.36 667,-731.5 610.64,-688.97 577.44,-605.86 567.32,-577.36"/>
<polygon fill="midnightblue" stroke="midnightblue" points="673.2,-739.81 683.68,-741.34 676.44,-733.6 673.2,-739.81"/>
</g>
<!-- Node22&#45;&gt;Node5 -->
<g id="edge33" class="edge">
<title>Node22&#45;&gt;Node5</title>
<path fill="none" stroke="midnightblue" d="M677.79,-699.14C674.04,-697.47 670.42,-695.6 667,-693.5 617.91,-663.3 581.65,-601.22 568.95,-577.25"/>
<polygon fill="midnightblue" stroke="midnightblue" points="676.73,-702.48 687.32,-702.87 679.28,-695.97 676.73,-702.48"/>
</g>
<!-- Node24 -->
<g id="node24" class="node">
<title>Node24</title>
<g id="a_node24"><a xlink:href="class_t_interface.html#aaaf32c3c815553f7ba70698e0f0071bb" target="_top" xlink:title=" ">
<polygon fill="white" stroke="black" points="495,-878.5 495,-908.5 631,-908.5 631,-878.5 495,-878.5"/>
<text text-anchor="start" x="503" y="-896.5" font-family="Helvetica,sans-Serif" font-size="10.00">TInterface::ChangeDirection</text>
<text text-anchor="middle" x="563" y="-885.5" font-family="Helvetica,sans-Serif" font-size="10.00">MenuItemClick</text>
</a>
</g>
</g>
<!-- Node23&#45;&gt;Node24 -->
<g id="edge35" class="edge">
<title>Node23&#45;&gt;Node24</title>
<path fill="none" stroke="midnightblue" d="M673.77,-893.5C659.64,-893.5 645.03,-893.5 631.27,-893.5"/>
<polygon fill="midnightblue" stroke="midnightblue" points="673.96,-897 683.96,-893.5 673.96,-890 673.96,-897"/>
</g>
<!-- Node26 -->
<g id="node26" class="node">
<title>Node26</title>
<g id="a_node26"><a xlink:href="class_t_interface.html#a3e59d6f1f39ffe34a9d6e7bf930acbff" target="_top" xlink:title=" ">
<polygon fill="white" stroke="black" points="501,-829.5 501,-859.5 625,-859.5 625,-829.5 501,-829.5"/>
<text text-anchor="start" x="509" y="-847.5" font-family="Helvetica,sans-Serif" font-size="10.00">TInterface::ExitOperation</text>
<text text-anchor="middle" x="563" y="-836.5" font-family="Helvetica,sans-Serif" font-size="10.00">ButtonClick</text>
</a>
</g>
</g>
<!-- Node25&#45;&gt;Node26 -->
<g id="edge37" class="edge">
<title>Node25&#45;&gt;Node26</title>
<path fill="none" stroke="midnightblue" d="M684.49,-844.5C665.15,-844.5 644.23,-844.5 625.33,-844.5"/>
<polygon fill="midnightblue" stroke="midnightblue" points="684.75,-848 694.75,-844.5 684.75,-841 684.75,-848"/>
</g>
<!-- Node28 -->
<g id="node28" class="node">
<title>Node28</title>
<g id="a_node28"><a xlink:href="class_t_all_routes.html#ac6bd39457747eaa96476a8a87df15ac2" target="_top" xlink:title="Set rearwards signals from the specified route starting position.">
<polygon fill="white" stroke="black" points="1441.5,-282.5 1441.5,-312.5 1583.5,-312.5 1583.5,-282.5 1441.5,-282.5"/>
<text text-anchor="start" x="1449.5" y="-300.5" font-family="Helvetica,sans-Serif" font-size="10.00">TAllRoutes::SetAllRearwards</text>
<text text-anchor="middle" x="1512.5" y="-289.5" font-family="Helvetica,sans-Serif" font-size="10.00">Signals</text>
</a>
</g>
</g>
<!-- Node27&#45;&gt;Node28 -->
<g id="edge40" class="edge">
<title>Node27&#45;&gt;Node28</title>
<path fill="none" stroke="midnightblue" d="M1609.61,-297.5C1600.87,-297.5 1592.09,-297.5 1583.6,-297.5"/>
<polygon fill="midnightblue" stroke="midnightblue" points="1609.85,-301 1619.85,-297.5 1609.85,-294 1609.85,-301"/>
</g>
<!-- Node28&#45;&gt;Node3 -->
<g id="edge41" class="edge">
<title>Node28&#45;&gt;Node3</title>
<path fill="none" stroke="midnightblue" d="M1494.75,-320.79C1475.92,-344.99 1442.96,-381.74 1405,-399.5 1276.5,-459.61 1105.37,-455.64 1014.3,-447.86"/>
<polygon fill="midnightblue" stroke="midnightblue" points="1497.55,-322.89 1500.81,-312.81 1491.98,-318.66 1497.55,-322.89"/>
</g>
<!-- Node29 -->
<g id="node29" class="node">
<title>Node29</title>
<g id="a_node29"><a xlink:href="class_t_one_route.html#a53496c398dcdb3a644801c4e74d47d01" target="_top" xlink:title="Called after a non&#45;preferred (i.e. unrestricted) route has been selected and has finished flashing,...">
<polygon fill="white" stroke="black" points="1059,-130.5 1059,-160.5 1217,-160.5 1217,-130.5 1059,-130.5"/>
<text text-anchor="start" x="1067" y="-148.5" font-family="Helvetica,sans-Serif" font-size="10.00">TOneRoute::ConvertAndAdd</text>
<text text-anchor="middle" x="1138" y="-137.5" font-family="Helvetica,sans-Serif" font-size="10.00">NonPreferredRouteSearchVector</text>
</a>
</g>
</g>
<!-- Node28&#45;&gt;Node29 -->
<g id="edge42" class="edge">
<title>Node28&#45;&gt;Node29</title>
<path fill="none" stroke="midnightblue" d="M1488.81,-275.28C1468.45,-256.5 1436.93,-230.24 1405,-214.5 1345.3,-185.08 1271.68,-167.23 1217.04,-157.08"/>
<polygon fill="midnightblue" stroke="midnightblue" points="1486.62,-278.02 1496.31,-282.31 1491.41,-272.92 1486.62,-278.02"/>
</g>
<!-- Node31 -->
<g id="node31" class="node">
<title>Node31</title>
<g id="a_node31"><a xlink:href="class_t_one_route.html#a36ba8adc8b4a47908ee4e1b8e75792ca" target="_top" xlink:title="Called after a preferred (i.e. preferred direction or automatic signals) route has been selected and ...">
<polygon fill="white" stroke="black" points="1068,-179.5 1068,-209.5 1208,-209.5 1208,-179.5 1068,-179.5"/>
<text text-anchor="start" x="1076" y="-197.5" font-family="Helvetica,sans-Serif" font-size="10.00">TOneRoute::ConvertAndAdd</text>
<text text-anchor="middle" x="1138" y="-186.5" font-family="Helvetica,sans-Serif" font-size="10.00">PreferredRouteSearchVector</text>
</a>
</g>
</g>
<!-- Node28&#45;&gt;Node31 -->
<g id="edge46" class="edge">
<title>Node28&#45;&gt;Node31</title>
<path fill="none" stroke="midnightblue" d="M1466.46,-278.57C1447.66,-271.09 1425.48,-262.8 1405,-256.5 1339.05,-236.23 1262.14,-218.97 1208.03,-207.85"/>
<polygon fill="midnightblue" stroke="midnightblue" points="1465.36,-281.9 1475.95,-282.39 1467.98,-275.41 1465.36,-281.9"/>
</g>
<!-- Node32 -->
<g id="node32" class="node">
<title>Node32</title>
<g id="a_node32"><a xlink:href="class_t_one_route.html#a491fff1e619a9dc79774acf85eed72a5" target="_top" xlink:title="Cancel a route immediately if a train occupies it when travelling in the wrong direction (or occupies...">
<polygon fill="white" stroke="black" points="1253,-371 1253,-390 1405,-390 1405,-371 1253,-371"/>
<text text-anchor="middle" x="1329" y="-378" font-family="Helvetica,sans-Serif" font-size="10.00">TOneRoute::ForceCancelRoute</text>
</a>
</g>
</g>
<!-- Node28&#45;&gt;Node32 -->
<g id="edge49" class="edge">
<title>Node28&#45;&gt;Node32</title>
<path fill="none" stroke="midnightblue" d="M1469.09,-316.9C1432.02,-333.84 1379.77,-357.74 1351.02,-370.89"/>
<polygon fill="midnightblue" stroke="midnightblue" points="1470.99,-319.87 1478.63,-312.53 1468.08,-313.51 1470.99,-319.87"/>
</g>
<!-- Node34 -->
<g id="node34" class="node">
<title>Node34</title>
<g id="a_node34"><a xlink:href="class_t_one_route.html#afe23206f22e1ffaafe1a5fe866d2b8ec" target="_top" xlink:title="Examines the route to see whether the element at H &amp; V is in the route, and if not returns a ReturnFl...">
<polygon fill="white" stroke="black" points="1254,-304.5 1254,-334.5 1404,-334.5 1404,-304.5 1254,-304.5"/>
<text text-anchor="start" x="1262" y="-322.5" font-family="Helvetica,sans-Serif" font-size="10.00">TOneRoute::GetRouteTruncate</text>
<text text-anchor="middle" x="1329" y="-311.5" font-family="Helvetica,sans-Serif" font-size="10.00">Element</text>
</a>
</g>
</g>
<!-- Node28&#45;&gt;Node34 -->
<g id="edge53" class="edge">
<title>Node28&#45;&gt;Node34</title>
<path fill="none" stroke="midnightblue" d="M1431.25,-307.23C1422.25,-308.32 1413.11,-309.43 1404.19,-310.51"/>
<polygon fill="midnightblue" stroke="midnightblue" points="1431.82,-310.68 1441.33,-306.01 1430.98,-303.73 1431.82,-310.68"/>
</g>
<!-- Node35 -->
<g id="node35" class="node">
<title>Node35</title>
<g id="a_node35"><a xlink:href="class_t_one_route.html#a4dfe3a028da7a4b6df0f44f33c3e2196" target="_top" xlink:title="Called when setting a route to set all points appropriately. Also called when a new train is added at...">
<polygon fill="white" stroke="black" points="1257,-266 1257,-285 1401,-285 1401,-266 1257,-266"/>
<text text-anchor="middle" x="1329" y="-273" font-family="Helvetica,sans-Serif" font-size="10.00">TOneRoute::SetRouteSignals</text>
</a>
</g>
</g>
<!-- Node28&#45;&gt;Node35 -->
<g id="edge54" class="edge">
<title>Node28&#45;&gt;Node35</title>
<path fill="none" stroke="midnightblue" d="M1431.36,-287.79C1421.31,-286.57 1411.08,-285.33 1401.18,-284.13"/>
<polygon fill="midnightblue" stroke="midnightblue" points="1430.98,-291.27 1441.33,-288.99 1431.82,-284.32 1430.98,-291.27"/>
</g>
<!-- Node29&#45;&gt;Node12 -->
<g id="edge45" class="edge">
<title>Node29&#45;&gt;Node12</title>
<path fill="none" stroke="midnightblue" d="M1070.1,-127.88C1049.76,-122.52 1027.59,-116.68 1007.96,-111.51"/>
<polygon fill="midnightblue" stroke="midnightblue" points="1069.37,-131.3 1079.93,-130.47 1071.15,-124.53 1069.37,-131.3"/>
</g>
<!-- Node30 -->
<g id="node30" class="node">
<title>Node30</title>
<g id="a_node30"><a xlink:href="class_t_interface.html#a7e6535742855a19cb3e35b1711a7ab59" target="_top" xlink:title="Deal with any warning graphics that need to flash (call on, signal stop, crash etc),...">
<polygon fill="white" stroke="black" points="880,-185 880,-204 1020,-204 1020,-185 880,-185"/>
<text text-anchor="middle" x="950" y="-192" font-family="Helvetica,sans-Serif" font-size="10.00">TInterface::FlashingGraphics</text>
</a>
</g>
</g>
<!-- Node29&#45;&gt;Node30 -->
<g id="edge43" class="edge">
<title>Node29&#45;&gt;Node30</title>
<path fill="none" stroke="midnightblue" d="M1070.19,-163.1C1042.18,-170.48 1010.73,-178.77 987.17,-184.97"/>
<polygon fill="midnightblue" stroke="midnightblue" points="1071.15,-166.47 1079.93,-160.53 1069.37,-159.7 1071.15,-166.47"/>
</g>
<!-- Node30&#45;&gt;Node7 -->
<g id="edge44" class="edge">
<title>Node30&#45;&gt;Node7</title>
<path fill="none" stroke="midnightblue" d="M869.6,-194.5C725.87,-194.5 425.65,-194.5 298.46,-194.5"/>
<polygon fill="midnightblue" stroke="midnightblue" points="869.68,-198 879.68,-194.5 869.68,-191 869.68,-198"/>
</g>
<!-- Node31&#45;&gt;Node15 -->
<g id="edge48" class="edge">
<title>Node31&#45;&gt;Node15</title>
<path fill="none" stroke="midnightblue" d="M1066.25,-177C1048.29,-172.56 1029.14,-167.83 1011.72,-163.52"/>
<polygon fill="midnightblue" stroke="midnightblue" points="1065.55,-180.43 1076.1,-179.44 1067.23,-173.64 1065.55,-180.43"/>
</g>
<!-- Node31&#45;&gt;Node30 -->
<g id="edge47" class="edge">
<title>Node31&#45;&gt;Node30</title>
<path fill="none" stroke="midnightblue" d="M1057.39,-194.5C1044.95,-194.5 1032.18,-194.5 1020.01,-194.5"/>
<polygon fill="midnightblue" stroke="midnightblue" points="1057.74,-198 1067.74,-194.5 1057.74,-191 1057.74,-198"/>
</g>
<!-- Node33 -->
<g id="node33" class="node">
<title>Node33</title>
<g id="a_node33"><a xlink:href="class_t_train.html#a50997f7e8138a7e6a147fe3b5ad21b84" target="_top" xlink:title="Checks whether Element and EntryPos (where train is about to enter) is on an existing route (or cross...">
<polygon fill="white" stroke="black" points="1063.5,-381.5 1063.5,-411.5 1212.5,-411.5 1212.5,-381.5 1063.5,-381.5"/>
<text text-anchor="start" x="1071.5" y="-399.5" font-family="Helvetica,sans-Serif" font-size="10.00">TTrain::CheckAndCancelRoute</text>
<text text-anchor="middle" x="1138" y="-388.5" font-family="Helvetica,sans-Serif" font-size="10.00">ForWrongEndEntry</text>
</a>
</g>
</g>
<!-- Node32&#45;&gt;Node33 -->
<g id="edge50" class="edge">
<title>Node32&#45;&gt;Node33</title>
<path fill="none" stroke="midnightblue" d="M1242.48,-387.74C1232.56,-388.58 1222.5,-389.43 1212.75,-390.26"/>
<polygon fill="midnightblue" stroke="midnightblue" points="1243.09,-391.2 1252.76,-386.87 1242.5,-384.23 1243.09,-391.2"/>
</g>
<!-- Node33&#45;&gt;Node3 -->
<g id="edge51" class="edge">
<title>Node33&#45;&gt;Node3</title>
<path fill="none" stroke="midnightblue" d="M1063.46,-413.9C1038.84,-419.72 1012.31,-426 991.21,-430.99"/>
<polygon fill="midnightblue" stroke="midnightblue" points="1064.58,-417.23 1073.51,-411.52 1062.97,-410.42 1064.58,-417.23"/>
</g>
<!-- Node33&#45;&gt;Node5 -->
<g id="edge52" class="edge">
<title>Node33&#45;&gt;Node5</title>
<path fill="none" stroke="midnightblue" d="M1053.04,-388.95C954.54,-383.93 789.17,-387.77 667,-453.5 619.55,-479.03 582.85,-535.25 569.48,-557.83"/>
<polygon fill="midnightblue" stroke="midnightblue" points="1053.07,-392.46 1063.24,-389.51 1053.45,-385.47 1053.07,-392.46"/>
</g>
<!-- Node35&#45;&gt;Node3 -->
<g id="edge55" class="edge">
<title>Node35&#45;&gt;Node3</title>
<path fill="none" stroke="midnightblue" d="M1266.28,-288.38C1261.67,-290.16 1257.19,-292.2 1253,-294.5 1233.71,-305.1 1236.19,-317.73 1217,-328.5 1153.53,-364.11 1125.54,-342.02 1059,-371.5 1021.77,-388 982.58,-416.17 963.26,-430.89"/>
<polygon fill="midnightblue" stroke="midnightblue" points="1267.56,-291.63 1275.85,-285.03 1265.25,-285.02 1267.56,-291.63"/>
</g>
<!-- Node35&#45;&gt;Node5 -->
<g id="edge60" class="edge">
<title>Node35&#45;&gt;Node5</title>
<path fill="none" stroke="midnightblue" d="M1247.62,-286.44C1082.04,-309.52 714.38,-363.75 667,-396.5 606.56,-438.28 575.59,-528.13 566.73,-557.78"/>
<polygon fill="midnightblue" stroke="midnightblue" points="1248.33,-289.88 1257.75,-285.03 1247.37,-282.94 1248.33,-289.88"/>
</g>
<!-- Node35&#45;&gt;Node6 -->
<g id="edge59" class="edge">
<title>Node35&#45;&gt;Node6</title>
<path fill="none" stroke="midnightblue" d="M1246.75,-275.84C1170.4,-276.13 1052.95,-276.5 951,-276.5 951,-276.5 951,-276.5 753,-276.5 606.1,-276.5 452.2,-390.55 409.24,-424.85"/>
<polygon fill="midnightblue" stroke="midnightblue" points="1246.79,-279.34 1256.78,-275.8 1246.76,-272.34 1246.79,-279.34"/>
</g>
<!-- Node35&#45;&gt;Node29 -->
<g id="edge56" class="edge">
<title>Node35&#45;&gt;Node29</title>
<path fill="none" stroke="midnightblue" d="M1308.68,-259.14C1293.25,-245.87 1271.27,-226.48 1253,-208.5 1236.18,-191.96 1236.96,-182.07 1217,-169.5 1211.6,-166.1 1205.7,-163.16 1199.62,-160.61"/>
<polygon fill="midnightblue" stroke="midnightblue" points="1306.64,-262 1316.51,-265.84 1311.18,-256.68 1306.64,-262"/>
</g>
<!-- Node35&#45;&gt;Node30 -->
<g id="edge58" class="edge">
<title>Node35&#45;&gt;Node30</title>
<path fill="none" stroke="midnightblue" d="M1272.49,-263.9C1218.07,-252.5 1132.78,-234.51 1059,-218.5 1037.32,-213.79 1013.22,-208.45 993.29,-204"/>
<polygon fill="midnightblue" stroke="midnightblue" points="1271.77,-267.33 1282.28,-265.95 1273.21,-260.48 1271.77,-267.33"/>
</g>
<!-- Node35&#45;&gt;Node31 -->
<g id="edge57" class="edge">
<title>Node35&#45;&gt;Node31</title>
<path fill="none" stroke="midnightblue" d="M1284.48,-262.67C1273.94,-258.95 1262.88,-254.52 1253,-249.5 1235.64,-240.67 1234.21,-233.62 1217,-224.5 1206.49,-218.93 1194.71,-213.85 1183.55,-209.52"/>
<polygon fill="midnightblue" stroke="midnightblue" points="1283.37,-265.99 1293.96,-265.88 1285.61,-259.36 1283.37,-265.99"/>
</g>
</g>
</svg>
        <g id="navigator" transform="translate(0 0)" fill="#404254">
                <rect fill="#f2f5e9" fill-opacity="0.5" stroke="#606060" stroke-width=".5" x="0" y="0" width="60" height="60"/>
                <use id="zoomplus" xlink:href="#zoomPlus" x="17" y="9" onmousedown="handleZoom(evt,'in')"/>
                <use id="zoomminus" xlink:href="#zoomMin" x="42" y="9" onmousedown="handleZoom(evt,'out')"/>
                <use id="reset" xlink:href="#resetDef" x="30" y="36" onmousedown="handleReset()"/>
                <g id="arrowUp" xlink:href="#dirArrow" transform="translate(30 24)" onmousedown="handlePan(0,-1)">
                  <use xlink:href="#rim" fill="#404040">
                        <set attributeName="fill" to="#808080" begin="arrowUp.mouseover" end="arrowUp.mouseout"/>
                  </use>
                  <path fill="none" stroke="white" stroke-width="1.5" d="M0,-3.0v7 M-2.5,-0.5L0,-3.0L2.5,-0.5"/>
                </g>
                <g id="arrowRight" xlink:href="#dirArrow" transform="rotate(90) translate(36 -43)" onmousedown="handlePan(1,0)">
                  <use xlink:href="#rim" fill="#404040">
                        <set attributeName="fill" to="#808080" begin="arrowRight.mouseover" end="arrowRight.mouseout"/>
                  </use>
                  <path fill="none" stroke="white" stroke-width="1.5" d="M0,-3.0v7 M-2.5,-0.5L0,-3.0L2.5,-0.5"/>
                </g>
                <g id="arrowDown" xlink:href="#dirArrow" transform="rotate(180) translate(-30 -48)" onmousedown="handlePan(0,1)">
                  <use xlink:href="#rim" fill="#404040">
                        <set attributeName="fill" to="#808080" begin="arrowDown.mouseover" end="arrowDown.mouseout"/>
                  </use>
                  <path fill="none" stroke="white" stroke-width="1.5" d="M0,-3.0v7 M-2.5,-0.5L0,-3.0L2.5,-0.5"/>
                </g>
                <g id="arrowLeft" xlink:href="#dirArrow" transform="rotate(270) translate(-36 17)" onmousedown="handlePan(-1,0)">
                  <use xlink:href="#rim" fill="#404040">
                        <set attributeName="fill" to="#808080" begin="arrowLeft.mouseover" end="arrowLeft.mouseout"/>
                  </use>
                  <path fill="none" stroke="white" stroke-width="1.5" d="M0,-3.0v7 M-2.5,-0.5L0,-3.0L2.5,-0.5"/>
                </g>
        </g>
        <svg viewBox="0 0 15 15" width="100%" height="30px" preserveAspectRatio="xMaxYMin meet">
         <g id="arrow_out" transform="scale(0.3 0.3)">
          <a xlink:href="class_t_all_routes_aa92b37f73176fcf3454688bb15b9f64c_icgraph_org.svg" target="_base">
           <rect id="button" ry="5" rx="5" y="6" x="6" height="38" width="38"
                fill="#f2f5e9" fill-opacity="0.5" stroke="#606060" stroke-width="1.0"/>
           <path id="arrow"
             d="M 11.500037,31.436501 C 11.940474,20.09759 22.043105,11.32322 32.158766,21.979434 L 37.068811,17.246167 C 37.068811,17.246167 37.088388,32 37.088388,32 L 22.160133,31.978069 C 22.160133,31.978069 26.997745,27.140456 26.997745,27.140456 C 18.528582,18.264221 13.291696,25.230495 11.500037,31.436501 z"
             style="fill:#404040;"/>
          </a>
         </g>
        </svg>
</svg>
