<?xml version="1.0" encoding="UTF-8" standalone="no"?>
<!DOCTYPE svg PUBLIC "-//W3C//DTD SVG 1.1//EN"
 "http://www.w3.org/Graphics/SVG/1.1/DTD/svg11.dtd">
<!-- Generated by graphviz version 2.44.1 (20200629.0800)
 -->
<!-- Title: TTrack::IsLCBarrierUpAtHV Pages: 1 -->
<svg width="479pt" height="113pt"
 viewBox="0.00 0.00 479.00 113.16" xmlns="http://www.w3.org/2000/svg" xmlns:xlink="http://www.w3.org/1999/xlink">
<g id="graph0" class="graph" transform="scale(1 1) rotate(0) translate(4 109.16)">
<title>TTrack::IsLCBarrierUpAtHV</title>
<polygon fill="white" stroke="transparent" points="-4,4 -4,-109.16 475,-109.16 475,4 -4,4"/>
<!-- Node1 -->
<g id="node1" class="node">
<title>Node1</title>
<g id="a_node1"><a xlink:title="True if a closed (to trains) level crossing is found at H &amp; V.">
<polygon fill="#bfbfbf" stroke="black" points="0,-39.38 0,-58.38 135,-58.38 135,-39.38 0,-39.38"/>
<text text-anchor="middle" x="67.5" y="-46.38" font-family="Helvetica,sans-Serif" font-size="10.00">TTrack::IsLCBarrierUpAtHV</text>
</a>
</g>
</g>
<!-- Node2 -->
<g id="node2" class="node">
<title>Node2</title>
<g id="a_node2"><a xlink:href="class_t_utilities.html#ae1eddca13cc3c492839e131f40ec21c0" target="_top" xlink:title="pops the last entry off the call stack, throws an error if called when empty">
<polygon fill="white" stroke="black" points="361,-61.38 361,-80.38 471,-80.38 471,-61.38 361,-61.38"/>
<text text-anchor="middle" x="416" y="-68.38" font-family="Helvetica,sans-Serif" font-size="10.00">TUtilities::CallLogPop</text>
</a>
</g>
</g>
<!-- Node1&#45;&gt;Node2 -->
<g id="edge1" class="edge">
<title>Node1&#45;&gt;Node2</title>
<path fill="none" stroke="midnightblue" d="M83.74,-58.42C103.14,-69.95 138.1,-88.7 171,-95.88 237.87,-110.48 257.18,-105.13 325,-95.88 342.83,-93.45 362.11,-88.43 378.24,-83.52"/>
<polygon fill="midnightblue" stroke="midnightblue" points="379.34,-86.85 387.83,-80.51 377.24,-80.17 379.34,-86.85"/>
</g>
<!-- Node3 -->
<g id="node3" class="node">
<title>Node3</title>
<g id="a_node3"><a xlink:href="class_t_track.html#a418966e6fefb71b9d0c9b941197832da" target="_top" xlink:title="Similar to GetVectorPositionFromTrackMap but for inactive elements, a pair is returned because there ...">
<polygon fill="white" stroke="black" points="179.5,-55.88 179.5,-85.88 316.5,-85.88 316.5,-55.88 179.5,-55.88"/>
<text text-anchor="start" x="187.5" y="-73.88" font-family="Helvetica,sans-Serif" font-size="10.00">TTrack::GetVectorPositions</text>
<text text-anchor="middle" x="248" y="-62.88" font-family="Helvetica,sans-Serif" font-size="10.00">FromInactiveTrackMap</text>
</a>
</g>
</g>
<!-- Node1&#45;&gt;Node3 -->
<g id="edge2" class="edge">
<title>Node1&#45;&gt;Node3</title>
<path fill="none" stroke="midnightblue" d="M135.22,-57.11C146.4,-58.49 158.09,-59.93 169.51,-61.33"/>
<polygon fill="midnightblue" stroke="midnightblue" points="169.12,-64.81 179.47,-62.56 169.97,-57.86 169.12,-64.81"/>
</g>
<!-- Node4 -->
<g id="node4" class="node">
<title>Node4</title>
<g id="a_node4"><a xlink:href="class_t_utilities.html#a34bd6bb5305bc29afdf424f6d35a921c" target="_top" xlink:title="creates a string of the form &#39;hh:mm:ss&#39; for use in call &amp; event logging">
<polygon fill="white" stroke="black" points="361,-17.38 361,-36.38 471,-36.38 471,-17.38 361,-17.38"/>
<text text-anchor="middle" x="416" y="-24.38" font-family="Helvetica,sans-Serif" font-size="10.00">TUtilities::TimeStamp</text>
</a>
</g>
</g>
<!-- Node1&#45;&gt;Node4 -->
<g id="edge8" class="edge">
<title>Node1&#45;&gt;Node4</title>
<path fill="none" stroke="midnightblue" d="M86.38,-39.29C106.34,-29.17 139.95,-13.86 171,-7.88 238.21,5.06 256.93,-0.78 325,-7.88 339.31,-9.38 354.7,-12.18 368.64,-15.17"/>
<polygon fill="midnightblue" stroke="midnightblue" points="367.97,-18.61 378.49,-17.37 369.5,-11.78 367.97,-18.61"/>
</g>
<!-- Node5 -->
<g id="node5" class="node">
<title>Node5</title>
<g id="a_node5"><a xlink:href="class_t_track.html#a51f89cf70e94b037f6378cd78003d82b" target="_top" xlink:title="A range&#45;checked version of InactiveTrackElement.at(At)">
<polygon fill="white" stroke="black" points="171,-17.38 171,-36.38 325,-36.38 325,-17.38 171,-17.38"/>
<text text-anchor="middle" x="248" y="-24.38" font-family="Helvetica,sans-Serif" font-size="10.00">TTrack::InactiveTrackElementAt</text>
</a>
</g>
</g>
<!-- Node1&#45;&gt;Node5 -->
<g id="edge5" class="edge">
<title>Node1&#45;&gt;Node5</title>
<path fill="none" stroke="midnightblue" d="M135.22,-40.66C143.55,-39.63 152.16,-38.57 160.73,-37.52"/>
<polygon fill="midnightblue" stroke="midnightblue" points="161.25,-40.98 170.75,-36.28 160.4,-34.03 161.25,-40.98"/>
</g>
<!-- Node3&#45;&gt;Node2 -->
<g id="edge3" class="edge">
<title>Node3&#45;&gt;Node2</title>
<path fill="none" stroke="midnightblue" d="M316.52,-70.88C327.79,-70.88 339.45,-70.88 350.64,-70.88"/>
<polygon fill="midnightblue" stroke="midnightblue" points="350.76,-74.38 360.76,-70.88 350.76,-67.38 350.76,-74.38"/>
</g>
<!-- Node3&#45;&gt;Node4 -->
<g id="edge4" class="edge">
<title>Node3&#45;&gt;Node4</title>
<path fill="none" stroke="midnightblue" d="M305.66,-55.86C326.3,-50.39 349.36,-44.28 368.96,-39.09"/>
<polygon fill="midnightblue" stroke="midnightblue" points="370.09,-42.41 378.86,-36.46 368.3,-35.64 370.09,-42.41"/>
</g>
<!-- Node5&#45;&gt;Node2 -->
<g id="edge6" class="edge">
<title>Node5&#45;&gt;Node2</title>
<path fill="none" stroke="midnightblue" d="M288.1,-36.45C299.97,-39.41 313.03,-42.73 325,-45.88 340.16,-49.88 356.71,-54.43 371.43,-58.54"/>
<polygon fill="midnightblue" stroke="midnightblue" points="370.72,-61.97 381.29,-61.3 372.61,-55.23 370.72,-61.97"/>
</g>
<!-- Node5&#45;&gt;Node4 -->
<g id="edge7" class="edge">
<title>Node5&#45;&gt;Node4</title>
<path fill="none" stroke="midnightblue" d="M325.2,-26.88C333.59,-26.88 342.07,-26.88 350.3,-26.88"/>
<polygon fill="midnightblue" stroke="midnightblue" points="350.57,-30.38 360.57,-26.88 350.57,-23.38 350.57,-30.38"/>
</g>
</g>
</svg>
