<?xml version="1.0" encoding="UTF-8" standalone="no"?>
<!DOCTYPE svg PUBLIC "-//W3C//DTD SVG 1.1//EN"
 "http://www.w3.org/Graphics/SVG/1.1/DTD/svg11.dtd">
<!-- Generated by graphviz version 2.44.1 (20200629.0800)
 -->
<!-- Title: TOnePrefDir::CheckPrefDirAgainstTrackVectorNoMessage Pages: 1 -->
<svg width="495pt" height="213pt"
 viewBox="0.00 0.00 495.00 212.69" xmlns="http://www.w3.org/2000/svg" xmlns:xlink="http://www.w3.org/1999/xlink">
<g id="graph0" class="graph" transform="scale(1 1) rotate(0) translate(4 208.69)">
<title>TOnePrefDir::CheckPrefDirAgainstTrackVectorNoMessage</title>
<polygon fill="white" stroke="transparent" points="-4,4 -4,-208.69 491,-208.69 491,4 -4,4"/>
<!-- Node1 -->
<g id="node1" class="node">
<title>Node1</title>
<g id="a_node1"><a xlink:title="Check loaded PrefDir against loaded track, and if discrepancies found clear EveryPrefDir &amp; PrefDir4Mu...">
<polygon fill="#bfbfbf" stroke="black" points="0,-90 0,-120 154,-120 154,-90 0,-90"/>
<text text-anchor="start" x="8" y="-108" font-family="Helvetica,sans-Serif" font-size="10.00">TOnePrefDir::CheckPrefDir</text>
<text text-anchor="middle" x="77" y="-97" font-family="Helvetica,sans-Serif" font-size="10.00">AgainstTrackVectorNoMessage</text>
</a>
</g>
</g>
<!-- Node2 -->
<g id="node2" class="node">
<title>Node2</title>
<g id="a_node2"><a xlink:href="class_t_utilities.html#ae1eddca13cc3c492839e131f40ec21c0" target="_top" xlink:title="pops the last entry off the call stack, throws an error if called when empty">
<polygon fill="white" stroke="black" points="377,-158.5 377,-177.5 487,-177.5 487,-158.5 377,-158.5"/>
<text text-anchor="middle" x="432" y="-165.5" font-family="Helvetica,sans-Serif" font-size="10.00">TUtilities::CallLogPop</text>
</a>
</g>
</g>
<!-- Node1&#45;&gt;Node2 -->
<g id="edge1" class="edge">
<title>Node1&#45;&gt;Node2</title>
<path fill="none" stroke="midnightblue" d="M90.95,-120.17C110.08,-141.27 148.17,-178.53 190,-193 260.15,-217.26 348.09,-196.2 395.97,-180.77"/>
<polygon fill="midnightblue" stroke="midnightblue" points="397.17,-184.06 405.56,-177.58 394.96,-177.42 397.17,-184.06"/>
</g>
<!-- Node3 -->
<g id="node3" class="node">
<title>Node3</title>
<g id="a_node3"><a xlink:href="class_t_pref_dir_element.html#aa5944dedfb065d9e251c26b28fff69f6" target="_top" xlink:title="Returns the ELink array position.">
<polygon fill="white" stroke="black" points="190,-38.5 190,-57.5 341,-57.5 341,-38.5 190,-38.5"/>
<text text-anchor="middle" x="265.5" y="-45.5" font-family="Helvetica,sans-Serif" font-size="10.00">TPrefDirElement::GetELinkPos</text>
</a>
</g>
</g>
<!-- Node1&#45;&gt;Node3 -->
<g id="edge2" class="edge">
<title>Node1&#45;&gt;Node3</title>
<path fill="none" stroke="midnightblue" d="M127.49,-89.87C157.51,-80.7 195.36,-69.13 223.66,-60.48"/>
<polygon fill="midnightblue" stroke="midnightblue" points="224.71,-63.82 233.25,-57.55 222.66,-57.13 224.71,-63.82"/>
</g>
<!-- Node4 -->
<g id="node4" class="node">
<title>Node4</title>
<g id="a_node4"><a xlink:href="class_t_track.html#aa0812972d1ae27198c5fbca8aa7b6134" target="_top" xlink:title="Returns the track vector position corresponding to the Hloc &amp; VLoc positions, FoundFlag indicates whe...">
<polygon fill="white" stroke="black" points="200,-153 200,-183 331,-183 331,-153 200,-153"/>
<text text-anchor="start" x="208" y="-171" font-family="Helvetica,sans-Serif" font-size="10.00">TTrack::GetVectorPosition</text>
<text text-anchor="middle" x="265.5" y="-160" font-family="Helvetica,sans-Serif" font-size="10.00">FromTrackMap</text>
</a>
</g>
</g>
<!-- Node1&#45;&gt;Node4 -->
<g id="edge3" class="edge">
<title>Node1&#45;&gt;Node4</title>
<path fill="none" stroke="midnightblue" d="M122.14,-120.01C142.75,-127.02 167.63,-135.45 190,-143 196.43,-145.17 203.17,-147.44 209.86,-149.69"/>
<polygon fill="midnightblue" stroke="midnightblue" points="208.99,-153.09 219.58,-152.95 211.22,-146.45 208.99,-153.09"/>
</g>
<!-- Node5 -->
<g id="node5" class="node">
<title>Node5</title>
<g id="a_node5"><a xlink:href="class_t_utilities.html#a34bd6bb5305bc29afdf424f6d35a921c" target="_top" xlink:title="creates a string of the form &#39;hh:mm:ss&#39; for use in call &amp; event logging">
<polygon fill="white" stroke="black" points="377,-114.5 377,-133.5 487,-133.5 487,-114.5 377,-114.5"/>
<text text-anchor="middle" x="432" y="-121.5" font-family="Helvetica,sans-Serif" font-size="10.00">TUtilities::TimeStamp</text>
</a>
</g>
</g>
<!-- Node1&#45;&gt;Node5 -->
<g id="edge7" class="edge">
<title>Node1&#45;&gt;Node5</title>
<path fill="none" stroke="midnightblue" d="M154.18,-100.83C206.8,-98.97 278.33,-98.46 341,-105 355.31,-106.49 370.7,-109.29 384.64,-112.29"/>
<polygon fill="midnightblue" stroke="midnightblue" points="383.97,-115.73 394.49,-114.49 385.5,-108.89 383.97,-115.73"/>
</g>
<!-- Node6 -->
<g id="node6" class="node">
<title>Node6</title>
<g id="a_node6"><a xlink:href="class_t_pref_dir_element.html#a35cd9c18012bd537fa988a32c510b01b" target="_top" xlink:title="Returns the XLink array position.">
<polygon fill="white" stroke="black" points="191,-0.5 191,-19.5 340,-19.5 340,-0.5 191,-0.5"/>
<text text-anchor="middle" x="265.5" y="-7.5" font-family="Helvetica,sans-Serif" font-size="10.00">TPrefDirElement::GetXLinkPos</text>
</a>
</g>
</g>
<!-- Node1&#45;&gt;Node6 -->
<g id="edge6" class="edge">
<title>Node1&#45;&gt;Node6</title>
<path fill="none" stroke="midnightblue" d="M95.84,-89.98C117.02,-72.87 154,-45.2 190,-29 195.38,-26.58 201.12,-24.43 206.94,-22.52"/>
<polygon fill="midnightblue" stroke="midnightblue" points="208.21,-25.8 216.76,-19.55 206.18,-19.1 208.21,-25.8"/>
</g>
<!-- Node7 -->
<g id="node7" class="node">
<title>Node7</title>
<g id="a_node7"><a xlink:href="class_t_track.html#ad377e5a1f152f2e89832c0f9bcfd261f" target="_top" xlink:title="A range&#45;checked version of TrackElement.at(At)">
<polygon fill="white" stroke="black" points="204.5,-114.5 204.5,-133.5 326.5,-133.5 326.5,-114.5 204.5,-114.5"/>
<text text-anchor="middle" x="265.5" y="-121.5" font-family="Helvetica,sans-Serif" font-size="10.00">TTrack::TrackElementAt</text>
</a>
</g>
</g>
<!-- Node1&#45;&gt;Node7 -->
<g id="edge8" class="edge">
<title>Node1&#45;&gt;Node7</title>
<path fill="none" stroke="midnightblue" d="M154.13,-112.76C167.32,-114.1 180.99,-115.49 194.02,-116.82"/>
<polygon fill="midnightblue" stroke="midnightblue" points="194.01,-120.34 204.32,-117.87 194.72,-113.37 194.01,-120.34"/>
</g>
<!-- Node4&#45;&gt;Node2 -->
<g id="edge4" class="edge">
<title>Node4&#45;&gt;Node2</title>
<path fill="none" stroke="midnightblue" d="M331.04,-168C342.74,-168 354.94,-168 366.63,-168"/>
<polygon fill="midnightblue" stroke="midnightblue" points="366.74,-171.5 376.74,-168 366.74,-164.5 366.74,-171.5"/>
</g>
<!-- Node4&#45;&gt;Node5 -->
<g id="edge5" class="edge">
<title>Node4&#45;&gt;Node5</title>
<path fill="none" stroke="midnightblue" d="M322.65,-152.98C343.1,-147.51 365.95,-141.4 385.38,-136.2"/>
<polygon fill="midnightblue" stroke="midnightblue" points="386.43,-139.54 395.19,-133.58 384.63,-132.78 386.43,-139.54"/>
</g>
<!-- Node7&#45;&gt;Node2 -->
<g id="edge9" class="edge">
<title>Node7&#45;&gt;Node2</title>
<path fill="none" stroke="midnightblue" d="M304.44,-133.51C316.17,-136.5 329.13,-139.84 341,-143 356.15,-147.04 372.7,-151.59 387.42,-155.69"/>
<polygon fill="midnightblue" stroke="midnightblue" points="386.71,-159.13 397.28,-158.45 388.6,-152.39 386.71,-159.13"/>
</g>
<!-- Node7&#45;&gt;Node5 -->
<g id="edge10" class="edge">
<title>Node7&#45;&gt;Node5</title>
<path fill="none" stroke="midnightblue" d="M326.82,-124C339.77,-124 353.5,-124 366.6,-124"/>
<polygon fill="midnightblue" stroke="midnightblue" points="366.95,-127.5 376.95,-124 366.95,-120.5 366.95,-127.5"/>
</g>
</g>
</svg>
