<?xml version="1.0" encoding="UTF-8" standalone="no"?>
<!DOCTYPE svg PUBLIC "-//W3C//DTD SVG 1.1//EN"
 "http://www.w3.org/Graphics/SVG/1.1/DTD/svg11.dtd">
<!-- Generated by graphviz version 2.44.1 (20200629.0800)
 -->
<!-- Title: TTrainController::CheckLocationValidity Pages: 1 -->
<!--zoomable 188 -->
<svg id="main" version="1.1" xmlns="http://www.w3.org/2000/svg" xmlns:xlink="http://www.w3.org/1999/xlink" xml:space="preserve" onload="init(evt)">
<style type="text/css"><![CDATA[
.edge:hover path { stroke: red; }
.edge:hover polygon { stroke: red; fill: red; }
]]></style>
<script type="text/javascript"><![CDATA[
var edges = document.getElementsByTagName('g');
if (edges && edges.length) {
  for (var i=0;i<edges.length;i++) {
    if (edges[i].id.substr(0,4)=='edge') {
      edges[i].setAttribute('class','edge');
    }
  }
}
]]></script>
        <defs>
                <circle id="rim" cx="0" cy="0" r="7"/>
                <circle id="rim2" cx="0" cy="0" r="3.5"/>
                <g id="zoomPlus">
                        <use xlink:href="#rim" fill="#404040">
                                <set attributeName="fill" to="#808080" begin="zoomplus.mouseover" end="zoomplus.mouseout"/>
                        </use>
                        <path d="M-4,0h8M0,-4v8" fill="none" stroke="white" stroke-width="1.5" pointer-events="none"/>
                </g>
                <g id="zoomMin">
                        <use xlink:href="#rim" fill="#404040">
                                <set attributeName="fill" to="#808080" begin="zoomminus.mouseover" end="zoomminus.mouseout"/>
                        </use>
                        <path d="M-4,0h8" fill="none" stroke="white" stroke-width="1.5" pointer-events="none"/>
                </g>
                <g id="dirArrow">
                        <path fill="none" stroke="white" stroke-width="1.5" d="M0,-3.0v7 M-2.5,-0.5L0,-3.0L2.5,-0.5"/>
                </g>
               <g id="resetDef">
                       <use xlink:href="#rim2" fill="#404040">
                               <set attributeName="fill" to="#808080" begin="reset.mouseover" end="reset.mouseout"/>
                       </use>
               </g>
        </defs>

<script type="text/javascript">
var viewWidth = 657;
var viewHeight = 188;
var sectionId = 'dynsection-19';
</script>
<script xlink:href="svgpan.js"/>
<svg id="graph" class="graph">
<g id="viewport">
<title>TTrainController::CheckLocationValidity</title>
<polygon fill="white" stroke="transparent" points="-4,4 -4,-183.54 653,-183.54 653,4 -4,4"/>
<!-- Node1 -->
<g id="node1" class="node">
<title>Node1</title>
<g id="a_node1"><a xlink:title="Returns true if the location name complies with requirements.">
<polygon fill="#bfbfbf" stroke="black" points="0,-78.04 0,-108.04 155,-108.04 155,-78.04 0,-78.04"/>
<text text-anchor="start" x="8" y="-96.04" font-family="Helvetica,sans-Serif" font-size="10.00">TTrainController::CheckLocation</text>
<text text-anchor="middle" x="77.5" y="-85.04" font-family="Helvetica,sans-Serif" font-size="10.00">Validity</text>
</a>
</g>
</g>
<!-- Node2 -->
<g id="node2" class="node">
<title>Node2</title>
<g id="a_node2"><a xlink:href="class_t_utilities.html#ae1eddca13cc3c492839e131f40ec21c0" target="_top" xlink:title="pops the last entry off the call stack, throws an error if called when empty">
<polygon fill="white" stroke="black" points="539,-135.54 539,-154.54 649,-154.54 649,-135.54 539,-135.54"/>
<text text-anchor="middle" x="594" y="-142.54" font-family="Helvetica,sans-Serif" font-size="10.00">TUtilities::CallLogPop</text>
</a>
</g>
</g>
<!-- Node1&#45;&gt;Node2 -->
<g id="edge1" class="edge">
<title>Node1&#45;&gt;Node2</title>
<path fill="none" stroke="midnightblue" d="M106.83,-108.19C129.11,-119.46 161.25,-134.35 191,-143.04 324.57,-182.04 365.03,-187.12 503,-169.04 520.23,-166.78 538.85,-162.19 554.66,-157.62"/>
<polygon fill="midnightblue" stroke="midnightblue" points="556.03,-160.86 564.61,-154.65 554.02,-154.16 556.03,-160.86"/>
</g>
<!-- Node3 -->
<g id="node3" class="node">
<title>Node3</title>
<g id="a_node3"><a xlink:href="class_t_utilities.html#a34bd6bb5305bc29afdf424f6d35a921c" target="_top" xlink:title="creates a string of the form &#39;hh:mm:ss&#39; for use in call &amp; event logging">
<polygon fill="white" stroke="black" points="539,-75.54 539,-94.54 649,-94.54 649,-75.54 539,-75.54"/>
<text text-anchor="middle" x="594" y="-82.54" font-family="Helvetica,sans-Serif" font-size="10.00">TUtilities::TimeStamp</text>
</a>
</g>
</g>
<!-- Node1&#45;&gt;Node3 -->
<g id="edge2" class="edge">
<title>Node1&#45;&gt;Node3</title>
<path fill="none" stroke="midnightblue" d="M97.41,-77.89C118.71,-61.89 155.05,-37.67 191,-28.04 324.94,7.87 369.82,10.59 503,-28.04 530.23,-35.93 557.12,-54.81 574.31,-68.68"/>
<polygon fill="midnightblue" stroke="midnightblue" points="572.44,-71.69 582.37,-75.4 576.93,-66.31 572.44,-71.69"/>
</g>
<!-- Node4 -->
<g id="node4" class="node">
<title>Node4</title>
<g id="a_node4"><a xlink:href="class_t_track.html#addd8e149e66c99a295541c9eda13eae4" target="_top" xlink:title="True if a non&#45;empty LocationName found as a timetabled location name i.e. not as a continuation name.">
<polygon fill="white" stroke="black" points="191,-103.04 191,-133.04 327,-133.04 327,-103.04 191,-103.04"/>
<text text-anchor="start" x="199" y="-121.04" font-family="Helvetica,sans-Serif" font-size="10.00">TTrack::TimetabledLocation</text>
<text text-anchor="middle" x="259" y="-110.04" font-family="Helvetica,sans-Serif" font-size="10.00">NameAllocated</text>
</a>
</g>
</g>
<!-- Node1&#45;&gt;Node4 -->
<g id="edge3" class="edge">
<title>Node1&#45;&gt;Node4</title>
<path fill="none" stroke="midnightblue" d="M155.14,-103.71C163.71,-104.9 172.43,-106.12 181,-107.31"/>
<polygon fill="midnightblue" stroke="midnightblue" points="180.57,-110.79 190.96,-108.7 181.54,-103.85 180.57,-110.79"/>
</g>
<!-- Node6 -->
<g id="node6" class="node">
<title>Node6</title>
<g id="a_node6"><a xlink:href="class_t_train_controller.html#a68d2124bc8f7df43e973299e0afb3dcd" target="_top" xlink:title="Sends a message to the user if GiveMessages is true, including ServiceReference (see above) if not nu...">
<polygon fill="white" stroke="black" points="193,-37.04 193,-67.04 325,-67.04 325,-37.04 193,-37.04"/>
<text text-anchor="start" x="201" y="-55.04" font-family="Helvetica,sans-Serif" font-size="10.00">TTrainController::Timetable</text>
<text text-anchor="middle" x="259" y="-44.04" font-family="Helvetica,sans-Serif" font-size="10.00">Message</text>
</a>
</g>
</g>
<!-- Node1&#45;&gt;Node6 -->
<g id="edge9" class="edge">
<title>Node1&#45;&gt;Node6</title>
<path fill="none" stroke="midnightblue" d="M144.32,-78C156.79,-75.15 169.93,-72.15 182.68,-69.24"/>
<polygon fill="midnightblue" stroke="midnightblue" points="183.82,-72.57 192.79,-66.93 182.26,-65.75 183.82,-72.57"/>
</g>
<!-- Node4&#45;&gt;Node2 -->
<g id="edge4" class="edge">
<title>Node4&#45;&gt;Node2</title>
<path fill="none" stroke="midnightblue" d="M295.01,-133.13C314.61,-140.75 339.71,-149.19 363,-153.04 418.34,-162.18 482.15,-158.89 528.5,-154.05"/>
<polygon fill="midnightblue" stroke="midnightblue" points="529.14,-157.5 538.7,-152.93 528.38,-150.55 529.14,-157.5"/>
</g>
<!-- Node4&#45;&gt;Node3 -->
<g id="edge5" class="edge">
<title>Node4&#45;&gt;Node3</title>
<path fill="none" stroke="midnightblue" d="M327.39,-111.36C386.19,-105.53 470.93,-97.13 528.78,-91.4"/>
<polygon fill="midnightblue" stroke="midnightblue" points="529.29,-94.87 538.9,-90.4 528.6,-87.9 529.29,-94.87"/>
</g>
<!-- Node5 -->
<g id="node5" class="node">
<title>Node5</title>
<g id="a_node5"><a xlink:href="class_t_track.html#ad377e5a1f152f2e89832c0f9bcfd261f" target="_top" xlink:title="A range&#45;checked version of TrackVector.at(At)">
<polygon fill="white" stroke="black" points="372,-124.54 372,-143.54 494,-143.54 494,-124.54 372,-124.54"/>
<text text-anchor="middle" x="433" y="-131.54" font-family="Helvetica,sans-Serif" font-size="10.00">TTrack::TrackElementAt</text>
</a>
</g>
</g>
<!-- Node4&#45;&gt;Node5 -->
<g id="edge6" class="edge">
<title>Node4&#45;&gt;Node5</title>
<path fill="none" stroke="midnightblue" d="M327.49,-124.31C338.73,-125.36 350.41,-126.45 361.72,-127.5"/>
<polygon fill="midnightblue" stroke="midnightblue" points="361.69,-131.01 371.97,-128.45 362.34,-124.04 361.69,-131.01"/>
</g>
<!-- Node5&#45;&gt;Node2 -->
<g id="edge7" class="edge">
<title>Node5&#45;&gt;Node2</title>
<path fill="none" stroke="midnightblue" d="M494.11,-138.19C505.36,-138.97 517.15,-139.79 528.52,-140.58"/>
<polygon fill="midnightblue" stroke="midnightblue" points="528.6,-144.09 538.81,-141.29 529.08,-137.11 528.6,-144.09"/>
</g>
<!-- Node5&#45;&gt;Node3 -->
<g id="edge8" class="edge">
<title>Node5&#45;&gt;Node3</title>
<path fill="none" stroke="midnightblue" d="M465.03,-124.47C489.99,-116.78 525.24,-105.92 552.43,-97.54"/>
<polygon fill="midnightblue" stroke="midnightblue" points="553.52,-100.87 562.04,-94.58 551.46,-94.18 553.52,-100.87"/>
</g>
<!-- Node7 -->
<g id="node7" class="node">
<title>Node7</title>
<g id="a_node7"><a xlink:href="class_t_train_controller.html#a1ccd6c8f2c24e7417889e1a91cb9ca2f" target="_top" xlink:title="Returns true if the headcode complies with requirements.">
<polygon fill="white" stroke="black" points="363,-37.04 363,-67.04 503,-67.04 503,-37.04 363,-37.04"/>
<text text-anchor="start" x="371" y="-55.04" font-family="Helvetica,sans-Serif" font-size="10.00">TTrainController::CheckHead</text>
<text text-anchor="middle" x="433" y="-44.04" font-family="Helvetica,sans-Serif" font-size="10.00">CodeValidity</text>
</a>
</g>
</g>
<!-- Node6&#45;&gt;Node7 -->
<g id="edge10" class="edge">
<title>Node6&#45;&gt;Node7</title>
<path fill="none" stroke="midnightblue" d="M325.03,-45.47C334.11,-45.31 343.52,-45.25 352.83,-45.31"/>
<polygon fill="midnightblue" stroke="midnightblue" points="352.83,-48.81 362.87,-45.4 352.9,-41.81 352.83,-48.81"/>
</g>
<!-- Node7&#45;&gt;Node2 -->
<g id="edge11" class="edge">
<title>Node7&#45;&gt;Node2</title>
<path fill="none" stroke="midnightblue" d="M459.9,-67.19C489.6,-84.56 537.97,-112.85 567.5,-130.12"/>
<polygon fill="midnightblue" stroke="midnightblue" points="565.98,-133.29 576.38,-135.31 569.51,-127.24 565.98,-133.29"/>
</g>
<!-- Node7&#45;&gt;Node3 -->
<g id="edge12" class="edge">
<title>Node7&#45;&gt;Node3</title>
<path fill="none" stroke="midnightblue" d="M503.28,-66.41C514.55,-68.75 526.11,-71.15 537.02,-73.42"/>
<polygon fill="midnightblue" stroke="midnightblue" points="536.32,-76.85 546.82,-75.45 537.74,-69.99 536.32,-76.85"/>
</g>
<!-- Node7&#45;&gt;Node6 -->
<g id="edge13" class="edge">
<title>Node7&#45;&gt;Node6</title>
<path fill="none" stroke="midnightblue" d="M362.87,-58.67C353.79,-58.8 344.46,-58.82 335.29,-58.74"/>
<polygon fill="midnightblue" stroke="midnightblue" points="335.07,-55.24 325.03,-58.6 334.98,-62.24 335.07,-55.24"/>
</g>
</g>
</svg>
        <g id="navigator" transform="translate(0 0)" fill="#404254">
                <rect fill="#f2f5e9" fill-opacity="0.5" stroke="#606060" stroke-width=".5" x="0" y="0" width="60" height="60"/>
                <use id="zoomplus" xlink:href="#zoomPlus" x="17" y="9" onmousedown="handleZoom(evt,'in')"/>
                <use id="zoomminus" xlink:href="#zoomMin" x="42" y="9" onmousedown="handleZoom(evt,'out')"/>
                <use id="reset" xlink:href="#resetDef" x="30" y="36" onmousedown="handleReset()"/>
                <g id="arrowUp" xlink:href="#dirArrow" transform="translate(30 24)" onmousedown="handlePan(0,-1)">
                  <use xlink:href="#rim" fill="#404040">
                        <set attributeName="fill" to="#808080" begin="arrowUp.mouseover" end="arrowUp.mouseout"/>
                  </use>
                  <path fill="none" stroke="white" stroke-width="1.5" d="M0,-3.0v7 M-2.5,-0.5L0,-3.0L2.5,-0.5"/>
                </g>
                <g id="arrowRight" xlink:href="#dirArrow" transform="rotate(90) translate(36 -43)" onmousedown="handlePan(1,0)">
                  <use xlink:href="#rim" fill="#404040">
                        <set attributeName="fill" to="#808080" begin="arrowRight.mouseover" end="arrowRight.mouseout"/>
                  </use>
                  <path fill="none" stroke="white" stroke-width="1.5" d="M0,-3.0v7 M-2.5,-0.5L0,-3.0L2.5,-0.5"/>
                </g>
                <g id="arrowDown" xlink:href="#dirArrow" transform="rotate(180) translate(-30 -48)" onmousedown="handlePan(0,1)">
                  <use xlink:href="#rim" fill="#404040">
                        <set attributeName="fill" to="#808080" begin="arrowDown.mouseover" end="arrowDown.mouseout"/>
                  </use>
                  <path fill="none" stroke="white" stroke-width="1.5" d="M0,-3.0v7 M-2.5,-0.5L0,-3.0L2.5,-0.5"/>
                </g>
                <g id="arrowLeft" xlink:href="#dirArrow" transform="rotate(270) translate(-36 17)" onmousedown="handlePan(-1,0)">
                  <use xlink:href="#rim" fill="#404040">
                        <set attributeName="fill" to="#808080" begin="arrowLeft.mouseover" end="arrowLeft.mouseout"/>
                  </use>
                  <path fill="none" stroke="white" stroke-width="1.5" d="M0,-3.0v7 M-2.5,-0.5L0,-3.0L2.5,-0.5"/>
                </g>
        </g>
        <svg viewBox="0 0 15 15" width="100%" height="30px" preserveAspectRatio="xMaxYMin meet">
         <g id="arrow_out" transform="scale(0.3 0.3)">
          <a xlink:href="class_t_train_controller_a1925032d5e41decf4befc07b35521d3c_cgraph_org.svg" target="_base">
           <rect id="button" ry="5" rx="5" y="6" x="6" height="38" width="38"
                fill="#f2f5e9" fill-opacity="0.5" stroke="#606060" stroke-width="1.0"/>
           <path id="arrow"
             d="M 11.500037,31.436501 C 11.940474,20.09759 22.043105,11.32322 32.158766,21.979434 L 37.068811,17.246167 C 37.068811,17.246167 37.088388,32 37.088388,32 L 22.160133,31.978069 C 22.160133,31.978069 26.997745,27.140456 26.997745,27.140456 C 18.528582,18.264221 13.291696,25.230495 11.500037,31.436501 z"
             style="fill:#404040;"/>
          </a>
         </g>
        </svg>
</svg>
