<?xml version="1.0" encoding="UTF-8" standalone="no"?>
<!DOCTYPE svg PUBLIC "-//W3C//DTD SVG 1.1//EN"
 "http://www.w3.org/Graphics/SVG/1.1/DTD/svg11.dtd">
<!-- Generated by graphviz version 2.44.1 (20200629.0800)
 -->
<!-- Title: TRailGraphics::ConvertSignalsToOppositeHand Pages: 1 -->
<svg width="328pt" height="78pt"
 viewBox="0.00 0.00 328.00 77.50" xmlns="http://www.w3.org/2000/svg" xmlns:xlink="http://www.w3.org/1999/xlink">
<g id="graph0" class="graph" transform="scale(1 1) rotate(0) translate(4 73.5)">
<title>TRailGraphics::ConvertSignalsToOppositeHand</title>
<polygon fill="white" stroke="transparent" points="-4,4 -4,-73.5 324,-73.5 324,4 -4,4"/>
<!-- Node1 -->
<g id="node1" class="node">
<title>Node1</title>
<g id="a_node1"><a xlink:title="Converts all signal graphics to opposite hand new at v2.3.0.">
<polygon fill="#bfbfbf" stroke="black" points="172,-17 172,-47 320,-47 320,-17 172,-17"/>
<text text-anchor="start" x="180" y="-35" font-family="Helvetica,sans-Serif" font-size="10.00">TRailGraphics::ConvertSignals</text>
<text text-anchor="middle" x="246" y="-24" font-family="Helvetica,sans-Serif" font-size="10.00">ToOppositeHand</text>
</a>
</g>
</g>
<!-- Node2 -->
<g id="node2" class="node">
<title>Node2</title>
<g id="a_node2"><a xlink:href="class_t_interface.html#ad9449a5d1fa3eada816b8b66500d7d44" target="_top" xlink:title=" ">
<polygon fill="white" stroke="black" points="0,-39 0,-69 136,-69 136,-39 0,-39"/>
<text text-anchor="start" x="8" y="-57" font-family="Helvetica,sans-Serif" font-size="10.00">TInterface::ConverttoRight</text>
<text text-anchor="middle" x="68" y="-46" font-family="Helvetica,sans-Serif" font-size="10.00">HandSignalsMenuItemClick</text>
</a>
</g>
</g>
<!-- Node1&#45;&gt;Node2 -->
<g id="edge1" class="edge">
<title>Node1&#45;&gt;Node2</title>
<path fill="none" stroke="midnightblue" d="M161.86,-42.39C153.28,-43.47 144.63,-44.55 136.25,-45.59"/>
<polygon fill="midnightblue" stroke="midnightblue" points="162.4,-45.85 171.89,-41.14 161.53,-38.91 162.4,-45.85"/>
</g>
<!-- Node3 -->
<g id="node3" class="node">
<title>Node3</title>
<g id="a_node3"><a xlink:href="class_t_interface.html#a0659e748042e378f3e325652c9c2e6d2" target="_top" xlink:title="constructor">
<polygon fill="white" stroke="black" points="14.5,-0.5 14.5,-19.5 121.5,-19.5 121.5,-0.5 14.5,-0.5"/>
<text text-anchor="middle" x="68" y="-7.5" font-family="Helvetica,sans-Serif" font-size="10.00">TInterface::TInterface</text>
</a>
</g>
</g>
<!-- Node1&#45;&gt;Node3 -->
<g id="edge2" class="edge">
<title>Node1&#45;&gt;Node3</title>
<path fill="none" stroke="midnightblue" d="M161.92,-21.61C148.15,-19.89 134.23,-18.15 121.5,-16.56"/>
<polygon fill="midnightblue" stroke="midnightblue" points="161.53,-25.09 171.89,-22.86 162.4,-18.15 161.53,-25.09"/>
</g>
</g>
</svg>
