<?xml version="1.0" encoding="UTF-8" standalone="no"?>
<!DOCTYPE svg PUBLIC "-//W3C//DTD SVG 1.1//EN"
 "http://www.w3.org/Graphics/SVG/1.1/DTD/svg11.dtd">
<!-- Generated by graphviz version 2.44.1 (20200629.0800)
 -->
<!-- Title: TOneRoute::SetRearwardsSignalsReturnFalseForTrain Pages: 1 -->
<svg width="875pt" height="825pt"
 viewBox="0.00 0.00 875.00 825.02" xmlns="http://www.w3.org/2000/svg" xmlns:xlink="http://www.w3.org/1999/xlink">
<g id="graph0" class="graph" transform="scale(1 1) rotate(0) translate(4 821.02)">
<title>TOneRoute::SetRearwardsSignalsReturnFalseForTrain</title>
<polygon fill="white" stroke="transparent" points="-4,4 -4,-821.02 871,-821.02 871,4 -4,4"/>
<!-- Node1 -->
<g id="node1" class="node">
<title>Node1</title>
<g id="a_node1"><a xlink:title="Called by TAllRoutes::SetAllRearwardsSignals to set rearwards signals from a specified starting posit...">
<polygon fill="#bfbfbf" stroke="black" points="0,-397 0,-427 164,-427 164,-397 0,-397"/>
<text text-anchor="start" x="8" y="-415" font-family="Helvetica,sans-Serif" font-size="10.00">TOneRoute::SetRearwardsSignals</text>
<text text-anchor="middle" x="82" y="-404" font-family="Helvetica,sans-Serif" font-size="10.00">ReturnFalseForTrain</text>
</a>
</g>
</g>
<!-- Node2 -->
<g id="node2" class="node">
<title>Node2</title>
<g id="a_node2"><a xlink:href="class_t_utilities.html#ae1eddca13cc3c492839e131f40ec21c0" target="_top" xlink:title="pops the last entry off the call stack, throws an error if called when empty">
<polygon fill="white" stroke="black" points="757,-430.5 757,-449.5 867,-449.5 867,-430.5 757,-430.5"/>
<text text-anchor="middle" x="812" y="-437.5" font-family="Helvetica,sans-Serif" font-size="10.00">TUtilities::CallLogPop</text>
</a>
</g>
</g>
<!-- Node1&#45;&gt;Node2 -->
<g id="edge1" class="edge">
<title>Node1&#45;&gt;Node2</title>
<path fill="none" stroke="midnightblue" d="M83.97,-427.02C88.06,-477.2 108.16,-640.61 200,-725 248.68,-769.73 543.71,-795.28 567,-797 635.26,-802.06 667.01,-839.07 721,-797 775.57,-754.48 802.21,-528.59 809.13,-459.86"/>
<polygon fill="midnightblue" stroke="midnightblue" points="812.64,-459.87 810.13,-449.57 805.68,-459.19 812.64,-459.87"/>
</g>
<!-- Node3 -->
<g id="node3" class="node">
<title>Node3</title>
<g id="a_node3"><a xlink:href="class_t_all_routes.html#afbb161c646677f13755041b895a23982" target="_top" xlink:title="Examines Route2MultiMap for the element at TrackVectorPosition with LinkPos (can be entry or exit).">
<polygon fill="white" stroke="black" points="365.5,-722 365.5,-752 497.5,-752 497.5,-722 365.5,-722"/>
<text text-anchor="start" x="373.5" y="-740" font-family="Helvetica,sans-Serif" font-size="10.00">TAllRoutes::GetRouteType</text>
<text text-anchor="middle" x="431.5" y="-729" font-family="Helvetica,sans-Serif" font-size="10.00">AndGraphics</text>
</a>
</g>
</g>
<!-- Node1&#45;&gt;Node3 -->
<g id="edge2" class="edge">
<title>Node1&#45;&gt;Node3</title>
<path fill="none" stroke="midnightblue" d="M84.5,-427.31C90.02,-474.75 113.59,-620.35 200,-691 243.21,-726.33 306.04,-737.03 355.2,-739.35"/>
<polygon fill="midnightblue" stroke="midnightblue" points="355.34,-742.86 365.47,-739.72 355.6,-735.86 355.34,-742.86"/>
</g>
<!-- Node4 -->
<g id="node4" class="node">
<title>Node4</title>
<g id="a_node4"><a xlink:href="class_t_utilities.html#a34bd6bb5305bc29afdf424f6d35a921c" target="_top" xlink:title="creates a string of the form &#39;hh:mm:ss&#39; for use in call &amp; event logging">
<polygon fill="white" stroke="black" points="757,-342.5 757,-361.5 867,-361.5 867,-342.5 757,-342.5"/>
<text text-anchor="middle" x="812" y="-349.5" font-family="Helvetica,sans-Serif" font-size="10.00">TUtilities::TimeStamp</text>
</a>
</g>
</g>
<!-- Node1&#45;&gt;Node4 -->
<g id="edge47" class="edge">
<title>Node1&#45;&gt;Node4</title>
<path fill="none" stroke="midnightblue" d="M87.66,-396.91C106.5,-339.16 183.16,-132.31 332,-72 492.23,-7.07 581.29,29.84 721,-72 806.53,-134.35 812.56,-279.31 811.75,-332.22"/>
<polygon fill="midnightblue" stroke="midnightblue" points="808.25,-332.22 811.5,-342.31 815.25,-332.4 808.25,-332.22"/>
</g>
<!-- Node5 -->
<g id="node5" class="node">
<title>Node5</title>
<g id="a_node5"><a xlink:href="class_t_track.html#ad377e5a1f152f2e89832c0f9bcfd261f" target="_top" xlink:title="A range&#45;checked version of TrackVector.at(At)">
<polygon fill="white" stroke="black" points="583,-708.5 583,-727.5 705,-727.5 705,-708.5 583,-708.5"/>
<text text-anchor="middle" x="644" y="-715.5" font-family="Helvetica,sans-Serif" font-size="10.00">TTrack::TrackElementAt</text>
</a>
</g>
</g>
<!-- Node1&#45;&gt;Node5 -->
<g id="edge48" class="edge">
<title>Node1&#45;&gt;Node5</title>
<path fill="none" stroke="midnightblue" d="M100.83,-427.11C123.75,-446.54 164.81,-481.32 200,-511 258.59,-560.42 264.71,-585.3 332,-622 412.29,-665.79 515.36,-692.58 580.32,-706.36"/>
<polygon fill="midnightblue" stroke="midnightblue" points="579.9,-709.85 590.4,-708.46 581.33,-703 579.9,-709.85"/>
</g>
<!-- Node6 -->
<g id="node6" class="node">
<title>Node6</title>
<g id="a_node6"><a xlink:href="class_t_all_routes.html#aa92b37f73176fcf3454688bb15b9f64c" target="_top" xlink:title="Checks whether the preferred direction element at TrackVectorPosition with XLinkPos value is in a loc...">
<polygon fill="white" stroke="black" points="332,-571.5 332,-612.5 531,-612.5 531,-571.5 332,-571.5"/>
<text text-anchor="start" x="340" y="-600.5" font-family="Helvetica,sans-Serif" font-size="10.00">TAllRoutes::IsElementInLocked</text>
<text text-anchor="start" x="340" y="-589.5" font-family="Helvetica,sans-Serif" font-size="10.00">RouteGetPrefDirElementGetLockedVector</text>
<text text-anchor="middle" x="431.5" y="-578.5" font-family="Helvetica,sans-Serif" font-size="10.00">Number</text>
</a>
</g>
</g>
<!-- Node1&#45;&gt;Node6 -->
<g id="edge8" class="edge">
<title>Node1&#45;&gt;Node6</title>
<path fill="none" stroke="midnightblue" d="M112.03,-427.04C171.63,-457.91 308.35,-528.73 381.77,-566.76"/>
<polygon fill="midnightblue" stroke="midnightblue" points="380.34,-569.96 390.83,-571.45 383.56,-563.74 380.34,-569.96"/>
</g>
<!-- Node9 -->
<g id="node9" class="node">
<title>Node9</title>
<g id="a_node9"><a xlink:href="class_t_track.html#a73e781d0ada0b77618b886557f79b115" target="_top" xlink:title="True if a level crossing is found at H &amp; V.">
<polygon fill="white" stroke="black" points="384,-421.5 384,-440.5 479,-440.5 479,-421.5 384,-421.5"/>
<text text-anchor="middle" x="431.5" y="-428.5" font-family="Helvetica,sans-Serif" font-size="10.00">TTrack::IsLCAtHV</text>
</a>
</g>
</g>
<!-- Node1&#45;&gt;Node9 -->
<g id="edge15" class="edge">
<title>Node1&#45;&gt;Node9</title>
<path fill="none" stroke="midnightblue" d="M164.03,-416.43C228.23,-419.94 316.3,-424.76 373.31,-427.87"/>
<polygon fill="midnightblue" stroke="midnightblue" points="373.4,-431.38 383.58,-428.43 373.78,-424.39 373.4,-431.38"/>
</g>
<!-- Node12 -->
<g id="node12" class="node">
<title>Node12</title>
<g id="a_node12"><a xlink:href="class_t_track.html#aad258b17c96ace0dbbad3754eb743274" target="_top" xlink:title="True if an open (to trains) level crossing is found at H &amp; V.">
<polygon fill="white" stroke="black" points="358,-383.5 358,-402.5 505,-402.5 505,-383.5 358,-383.5"/>
<text text-anchor="middle" x="431.5" y="-390.5" font-family="Helvetica,sans-Serif" font-size="10.00">TTrack::IsLCBarrierDownAtHV</text>
</a>
</g>
</g>
<!-- Node1&#45;&gt;Node12 -->
<g id="edge24" class="edge">
<title>Node1&#45;&gt;Node12</title>
<path fill="none" stroke="midnightblue" d="M164.03,-407.57C219.26,-404.55 292.16,-400.56 347.74,-397.52"/>
<polygon fill="midnightblue" stroke="midnightblue" points="348.12,-401.01 357.91,-396.97 347.74,-394.02 348.12,-401.01"/>
</g>
<!-- Node13 -->
<g id="node13" class="node">
<title>Node13</title>
<g id="a_node13"><a xlink:href="class_t_display.html#a9ab49e52c7eb92b32ae2c34547183439" target="_top" xlink:title="Plot the graphic at screen position HPos &amp; VPos.">
<polygon fill="white" stroke="black" points="590.5,-190.5 590.5,-209.5 697.5,-209.5 697.5,-190.5 590.5,-190.5"/>
<text text-anchor="middle" x="644" y="-197.5" font-family="Helvetica,sans-Serif" font-size="10.00">TDisplay::PlotOutput</text>
</a>
</g>
</g>
<!-- Node1&#45;&gt;Node13 -->
<g id="edge29" class="edge">
<title>Node1&#45;&gt;Node13</title>
<path fill="none" stroke="midnightblue" d="M125.3,-396.89C174.49,-379.71 258.36,-351.64 332,-333 419.29,-310.9 457.17,-346.55 531,-295 556.5,-277.2 543.85,-255.76 567,-235 577.07,-225.97 589.87,-218.88 602.08,-213.51"/>
<polygon fill="midnightblue" stroke="midnightblue" points="603.76,-216.6 611.68,-209.57 601.1,-210.13 603.76,-216.6"/>
</g>
<!-- Node14 -->
<g id="node14" class="node">
<title>Node14</title>
<g id="a_node14"><a xlink:href="class_t_track.html#aa5742fbc2eb3f8743dde84005499f89e" target="_top" xlink:title="Plot signals on screen according to their aspect (Attribute value)">
<polygon fill="white" stroke="black" points="200,-209.5 200,-228.5 296,-228.5 296,-209.5 200,-209.5"/>
<text text-anchor="middle" x="248" y="-216.5" font-family="Helvetica,sans-Serif" font-size="10.00">TTrack::PlotSignal</text>
</a>
</g>
</g>
<!-- Node1&#45;&gt;Node14 -->
<g id="edge32" class="edge">
<title>Node1&#45;&gt;Node14</title>
<path fill="none" stroke="midnightblue" d="M95.87,-396.86C125.79,-361.64 199.91,-274.41 231.9,-236.77"/>
<polygon fill="midnightblue" stroke="midnightblue" points="234.93,-238.61 238.74,-228.72 229.6,-234.07 234.93,-238.61"/>
</g>
<!-- Node19 -->
<g id="node19" class="node">
<title>Node19</title>
<g id="a_node19"><a xlink:href="class_t_display.html#aa4f37ab2a4df6437a2219f303e1de40b" target="_top" xlink:title="Repaint the screen display.">
<polygon fill="white" stroke="black" points="202.5,-0.5 202.5,-19.5 293.5,-19.5 293.5,-0.5 202.5,-0.5"/>
<text text-anchor="middle" x="248" y="-7.5" font-family="Helvetica,sans-Serif" font-size="10.00">TDisplay::Update</text>
</a>
</g>
</g>
<!-- Node1&#45;&gt;Node19 -->
<g id="edge49" class="edge">
<title>Node1&#45;&gt;Node19</title>
<path fill="none" stroke="midnightblue" d="M83.62,-396.68C86.61,-341.24 103.81,-148.33 200,-34 202.93,-30.51 206.5,-27.48 210.34,-24.85"/>
<polygon fill="midnightblue" stroke="midnightblue" points="212.21,-27.81 219.06,-19.72 208.67,-21.77 212.21,-27.81"/>
</g>
<!-- Node3&#45;&gt;Node2 -->
<g id="edge3" class="edge">
<title>Node3&#45;&gt;Node2</title>
<path fill="none" stroke="midnightblue" d="M460.96,-752.1C517.03,-779.55 643.08,-829.52 721,-770 771.75,-731.24 800.75,-524.66 808.73,-459.62"/>
<polygon fill="midnightblue" stroke="midnightblue" points="812.23,-459.85 809.94,-449.5 805.27,-459.02 812.23,-459.85"/>
</g>
<!-- Node3&#45;&gt;Node4 -->
<g id="edge4" class="edge">
<title>Node3&#45;&gt;Node4</title>
<path fill="none" stroke="midnightblue" d="M497.55,-746.6C572.44,-756.05 689.24,-765.35 721,-737 773.73,-689.94 730.21,-486.4 757,-421 765.21,-400.95 781,-381.85 793.4,-368.85"/>
<polygon fill="midnightblue" stroke="midnightblue" points="796.03,-371.16 800.58,-361.59 791.06,-366.24 796.03,-371.16"/>
</g>
<!-- Node3&#45;&gt;Node5 -->
<g id="edge5" class="edge">
<title>Node3&#45;&gt;Node5</title>
<path fill="none" stroke="midnightblue" d="M497.66,-731.12C521.43,-728.97 548.41,-726.54 572.62,-724.35"/>
<polygon fill="midnightblue" stroke="midnightblue" points="573.16,-727.82 582.81,-723.43 572.53,-720.85 573.16,-727.82"/>
</g>
<!-- Node5&#45;&gt;Node2 -->
<g id="edge6" class="edge">
<title>Node5&#45;&gt;Node2</title>
<path fill="none" stroke="midnightblue" d="M697.6,-708.45C706.2,-705.01 714.43,-700.34 721,-694 789.23,-628.09 805.84,-507.23 809.8,-459.82"/>
<polygon fill="midnightblue" stroke="midnightblue" points="813.3,-459.9 810.54,-449.67 806.32,-459.39 813.3,-459.9"/>
</g>
<!-- Node5&#45;&gt;Node4 -->
<g id="edge7" class="edge">
<title>Node5&#45;&gt;Node4</title>
<path fill="none" stroke="midnightblue" d="M665.38,-708.45C683.12,-699.01 707.98,-682.81 721,-661 776.28,-568.38 714.36,-520.07 757,-421 765.57,-401.1 781.32,-381.98 793.61,-368.94"/>
<polygon fill="midnightblue" stroke="midnightblue" points="796.24,-371.25 800.71,-361.65 791.23,-366.36 796.24,-371.25"/>
</g>
<!-- Node6&#45;&gt;Node2 -->
<g id="edge9" class="edge">
<title>Node6&#45;&gt;Node2</title>
<path fill="none" stroke="midnightblue" d="M461.33,-612.56C516.43,-649.08 638.52,-716.47 721,-661 789.94,-614.64 806.1,-505.29 809.87,-460.09"/>
<polygon fill="midnightblue" stroke="midnightblue" points="813.38,-460.05 810.59,-449.83 806.39,-459.56 813.38,-460.05"/>
</g>
<!-- Node6&#45;&gt;Node4 -->
<g id="edge14" class="edge">
<title>Node6&#45;&gt;Node4</title>
<path fill="none" stroke="midnightblue" d="M531.03,-597.6C603.12,-599.51 693.02,-596.66 721,-573 774.01,-528.17 726.91,-483.56 757,-421 766.39,-401.47 782.05,-382.32 794.09,-369.16"/>
<polygon fill="midnightblue" stroke="midnightblue" points="796.72,-371.47 801.04,-361.8 791.63,-366.67 796.72,-371.47"/>
</g>
<!-- Node7 -->
<g id="node7" class="node">
<title>Node7</title>
<g id="a_node7"><a xlink:href="class_t_one_pref_dir.html#a5b67e5aaa86d324229aedc68f32f32b8" target="_top" xlink:title="Return a non&#45;modifiable element at PrefDirVector position &#39;At&#39;.">
<polygon fill="white" stroke="black" points="578,-621 578,-651 710,-651 710,-621 578,-621"/>
<text text-anchor="start" x="586" y="-639" font-family="Helvetica,sans-Serif" font-size="10.00">TOnePrefDir::GetFixedPref</text>
<text text-anchor="middle" x="644" y="-628" font-family="Helvetica,sans-Serif" font-size="10.00">DirElementAt</text>
</a>
</g>
</g>
<!-- Node6&#45;&gt;Node7 -->
<g id="edge10" class="edge">
<title>Node6&#45;&gt;Node7</title>
<path fill="none" stroke="midnightblue" d="M530.66,-612.52C543.14,-615.13 555.75,-617.76 567.79,-620.28"/>
<polygon fill="midnightblue" stroke="midnightblue" points="567.25,-623.74 577.75,-622.36 568.68,-616.89 567.25,-623.74"/>
</g>
<!-- Node8 -->
<g id="node8" class="node">
<title>Node8</title>
<g id="a_node8"><a xlink:href="class_t_one_pref_dir.html#a29d013bf730e23d27fdb2c390e3a14da" target="_top" xlink:title="Return the vector size.">
<polygon fill="white" stroke="black" points="582,-544.5 582,-563.5 706,-563.5 706,-544.5 582,-544.5"/>
<text text-anchor="middle" x="644" y="-551.5" font-family="Helvetica,sans-Serif" font-size="10.00">TOnePrefDir::PrefDirSize</text>
</a>
</g>
</g>
<!-- Node6&#45;&gt;Node8 -->
<g id="edge13" class="edge">
<title>Node6&#45;&gt;Node8</title>
<path fill="none" stroke="midnightblue" d="M531.28,-574.17C547.93,-571.16 564.79,-568.12 580.2,-565.34"/>
<polygon fill="midnightblue" stroke="midnightblue" points="580.88,-568.77 590.1,-563.55 579.63,-561.88 580.88,-568.77"/>
</g>
<!-- Node7&#45;&gt;Node2 -->
<g id="edge11" class="edge">
<title>Node7&#45;&gt;Node2</title>
<path fill="none" stroke="midnightblue" d="M697.66,-620.85C706.06,-616.91 714.2,-612.02 721,-606 767.5,-564.81 794.47,-493.64 805.35,-459.45"/>
<polygon fill="midnightblue" stroke="midnightblue" points="808.74,-460.32 808.32,-449.73 802.05,-458.27 808.74,-460.32"/>
</g>
<!-- Node7&#45;&gt;Node4 -->
<g id="edge12" class="edge">
<title>Node7&#45;&gt;Node4</title>
<path fill="none" stroke="midnightblue" d="M702.38,-620.86C709.43,-616.98 715.92,-612.11 721,-606 774.55,-541.58 722.22,-497.2 757,-421 766,-401.29 781.7,-382.15 793.86,-369.05"/>
<polygon fill="midnightblue" stroke="midnightblue" points="796.49,-371.36 800.88,-361.72 791.44,-366.52 796.49,-371.36"/>
</g>
<!-- Node9&#45;&gt;Node2 -->
<g id="edge16" class="edge">
<title>Node9&#45;&gt;Node2</title>
<path fill="none" stroke="midnightblue" d="M447.89,-440.63C472.11,-455.17 521.14,-482.09 567,-492 633.9,-506.46 654.89,-509.73 721,-492 747.12,-485 773.51,-468.37 790.89,-455.79"/>
<polygon fill="midnightblue" stroke="midnightblue" points="793.19,-458.44 799.11,-449.65 789.01,-452.83 793.19,-458.44"/>
</g>
<!-- Node9&#45;&gt;Node4 -->
<g id="edge23" class="edge">
<title>Node9&#45;&gt;Node4</title>
<path fill="none" stroke="midnightblue" d="M479.07,-437.58C537.48,-443.97 639.8,-448.96 721,-420 750.48,-409.48 778.24,-385.59 794.93,-369.12"/>
<polygon fill="midnightblue" stroke="midnightblue" points="797.68,-371.31 802.19,-361.73 792.68,-366.41 797.68,-371.31"/>
</g>
<!-- Node10 -->
<g id="node10" class="node">
<title>Node10</title>
<g id="a_node10"><a xlink:href="class_t_track.html#a418966e6fefb71b9d0c9b941197832da" target="_top" xlink:title="Similar to GetVectorPositionFromTrackMap but for inactive elements, a pair is returned because there ...">
<polygon fill="white" stroke="black" points="575.5,-381 575.5,-411 712.5,-411 712.5,-381 575.5,-381"/>
<text text-anchor="start" x="583.5" y="-399" font-family="Helvetica,sans-Serif" font-size="10.00">TTrack::GetVectorPositions</text>
<text text-anchor="middle" x="644" y="-388" font-family="Helvetica,sans-Serif" font-size="10.00">FromInactiveTrackMap</text>
</a>
</g>
</g>
<!-- Node9&#45;&gt;Node10 -->
<g id="edge17" class="edge">
<title>Node9&#45;&gt;Node10</title>
<path fill="none" stroke="midnightblue" d="M479.22,-423.23C504.46,-419.03 536.29,-413.74 565.17,-408.94"/>
<polygon fill="midnightblue" stroke="midnightblue" points="565.95,-412.36 575.24,-407.27 564.8,-405.45 565.95,-412.36"/>
</g>
<!-- Node11 -->
<g id="node11" class="node">
<title>Node11</title>
<g id="a_node11"><a xlink:href="class_t_track.html#a51f89cf70e94b037f6378cd78003d82b" target="_top" xlink:title="A range&#45;checked version of InactiveTrackVector.at(At)">
<polygon fill="white" stroke="black" points="567,-342.5 567,-361.5 721,-361.5 721,-342.5 567,-342.5"/>
<text text-anchor="middle" x="644" y="-349.5" font-family="Helvetica,sans-Serif" font-size="10.00">TTrack::InactiveTrackElementAt</text>
</a>
</g>
</g>
<!-- Node9&#45;&gt;Node11 -->
<g id="edge20" class="edge">
<title>Node9&#45;&gt;Node11</title>
<path fill="none" stroke="midnightblue" d="M479.32,-428.31C496.45,-425.74 515.44,-420.92 531,-412 552.04,-399.94 546.3,-383.63 567,-371 570.59,-368.81 574.43,-366.87 578.39,-365.15"/>
<polygon fill="midnightblue" stroke="midnightblue" points="579.74,-368.39 587.83,-361.54 577.24,-361.85 579.74,-368.39"/>
</g>
<!-- Node10&#45;&gt;Node2 -->
<g id="edge18" class="edge">
<title>Node10&#45;&gt;Node2</title>
<path fill="none" stroke="midnightblue" d="M701.66,-411.02C722.3,-416.49 745.36,-422.6 764.96,-427.8"/>
<polygon fill="midnightblue" stroke="midnightblue" points="764.3,-431.24 774.86,-430.42 766.09,-424.48 764.3,-431.24"/>
</g>
<!-- Node10&#45;&gt;Node4 -->
<g id="edge19" class="edge">
<title>Node10&#45;&gt;Node4</title>
<path fill="none" stroke="midnightblue" d="M701.66,-380.98C722.3,-375.51 745.36,-369.4 764.96,-364.2"/>
<polygon fill="midnightblue" stroke="midnightblue" points="766.09,-367.52 774.86,-361.58 764.3,-360.76 766.09,-367.52"/>
</g>
<!-- Node11&#45;&gt;Node2 -->
<g id="edge21" class="edge">
<title>Node11&#45;&gt;Node2</title>
<path fill="none" stroke="midnightblue" d="M695.49,-361.53C704.22,-364.04 713.04,-367.16 721,-371 749.04,-384.53 776.78,-407.67 793.89,-423.39"/>
<polygon fill="midnightblue" stroke="midnightblue" points="791.7,-426.14 801.39,-430.43 796.5,-421.03 791.7,-426.14"/>
</g>
<!-- Node11&#45;&gt;Node4 -->
<g id="edge22" class="edge">
<title>Node11&#45;&gt;Node4</title>
<path fill="none" stroke="midnightblue" d="M721.2,-352C729.59,-352 738.07,-352 746.3,-352"/>
<polygon fill="midnightblue" stroke="midnightblue" points="746.57,-355.5 756.57,-352 746.57,-348.5 746.57,-355.5"/>
</g>
<!-- Node12&#45;&gt;Node2 -->
<g id="edge25" class="edge">
<title>Node12&#45;&gt;Node2</title>
<path fill="none" stroke="midnightblue" d="M483.42,-402.54C498.74,-405.48 515.57,-408.8 531,-412 547.05,-415.33 550.79,-417.55 567,-420 627.62,-429.18 697.39,-434.36 746.75,-437.14"/>
<polygon fill="midnightblue" stroke="midnightblue" points="746.79,-440.65 756.97,-437.7 747.17,-433.66 746.79,-440.65"/>
</g>
<!-- Node12&#45;&gt;Node4 -->
<g id="edge28" class="edge">
<title>Node12&#45;&gt;Node4</title>
<path fill="none" stroke="midnightblue" d="M500.19,-383.48C510.9,-380.42 521.55,-376.36 531,-371 551.23,-359.52 545.63,-342.19 567,-333 636.2,-303.24 726.57,-323.81 775.61,-339.27"/>
<polygon fill="midnightblue" stroke="midnightblue" points="774.54,-342.61 785.13,-342.38 776.71,-335.95 774.54,-342.61"/>
</g>
<!-- Node12&#45;&gt;Node10 -->
<g id="edge26" class="edge">
<title>Node12&#45;&gt;Node10</title>
<path fill="none" stroke="midnightblue" d="M505.24,-394.04C524.57,-394.31 545.52,-394.61 565.11,-394.89"/>
<polygon fill="midnightblue" stroke="midnightblue" points="565.16,-398.39 575.21,-395.03 565.26,-391.39 565.16,-398.39"/>
</g>
<!-- Node12&#45;&gt;Node11 -->
<g id="edge27" class="edge">
<title>Node12&#45;&gt;Node11</title>
<path fill="none" stroke="midnightblue" d="M481.32,-383.49C511.9,-377.54 551.5,-369.82 583.85,-363.52"/>
<polygon fill="midnightblue" stroke="midnightblue" points="584.93,-366.88 594.08,-361.53 583.59,-360.01 584.93,-366.88"/>
</g>
<!-- Node13&#45;&gt;Node2 -->
<g id="edge30" class="edge">
<title>Node13&#45;&gt;Node2</title>
<path fill="none" stroke="midnightblue" d="M661.57,-209.55C678.76,-220.25 705.27,-239.14 721,-262 749.92,-304.03 732.92,-326.02 757,-371 767.34,-390.32 783.15,-409.75 795,-423.05"/>
<polygon fill="midnightblue" stroke="midnightblue" points="792.45,-425.45 801.77,-430.48 797.62,-420.73 792.45,-425.45"/>
</g>
<!-- Node13&#45;&gt;Node4 -->
<g id="edge31" class="edge">
<title>Node13&#45;&gt;Node4</title>
<path fill="none" stroke="midnightblue" d="M691.9,-209.56C702.1,-213.03 712.4,-217.71 721,-224 760.65,-253.03 789.2,-304.94 802.54,-332.91"/>
<polygon fill="midnightblue" stroke="midnightblue" points="799.54,-334.74 806.9,-342.35 805.89,-331.81 799.54,-334.74"/>
</g>
<!-- Node14&#45;&gt;Node2 -->
<g id="edge33" class="edge">
<title>Node14&#45;&gt;Node2</title>
<path fill="none" stroke="midnightblue" d="M286.69,-209.48C386.66,-185.21 655.39,-126.66 721,-181 787.19,-235.83 721.51,-292.72 757,-371 765.95,-390.73 781.65,-409.87 793.83,-422.96"/>
<polygon fill="midnightblue" stroke="midnightblue" points="791.41,-425.5 800.86,-430.29 796.46,-420.65 791.41,-425.5"/>
</g>
<!-- Node14&#45;&gt;Node4 -->
<g id="edge46" class="edge">
<title>Node14&#45;&gt;Node4</title>
<path fill="none" stroke="midnightblue" d="M253.05,-209.37C262.84,-187.49 290.12,-134.29 332,-113 409.08,-73.82 650.17,-55.42 721,-105 797.33,-158.42 809.15,-283.7 810.81,-332.27"/>
<polygon fill="midnightblue" stroke="midnightblue" points="807.32,-332.48 811.04,-342.4 814.32,-332.32 807.32,-332.48"/>
</g>
<!-- Node14&#45;&gt;Node13 -->
<g id="edge36" class="edge">
<title>Node14&#45;&gt;Node13</title>
<path fill="none" stroke="midnightblue" d="M296.13,-216.73C367,-213.31 501.08,-206.84 580.18,-203.03"/>
<polygon fill="midnightblue" stroke="midnightblue" points="580.67,-206.51 590.49,-202.53 580.33,-199.52 580.67,-206.51"/>
</g>
<!-- Node15 -->
<g id="node15" class="node">
<title>Node15</title>
<g id="a_node15"><a xlink:href="class_t_display.html#a33f7067eea9e638bdc363bd0af70d7d5" target="_top" xlink:title="Return a pointer to the screen image.">
<polygon fill="white" stroke="black" points="380.5,-266.5 380.5,-285.5 482.5,-285.5 482.5,-266.5 380.5,-266.5"/>
<text text-anchor="middle" x="431.5" y="-273.5" font-family="Helvetica,sans-Serif" font-size="10.00">TDisplay::GetImage</text>
</a>
</g>
</g>
<!-- Node14&#45;&gt;Node15 -->
<g id="edge34" class="edge">
<title>Node14&#45;&gt;Node15</title>
<path fill="none" stroke="midnightblue" d="M266.64,-228.58C283.11,-237.16 308.61,-249.51 332,-257 344.17,-260.9 357.46,-264.12 370.22,-266.74"/>
<polygon fill="midnightblue" stroke="midnightblue" points="369.83,-270.23 380.31,-268.71 371.17,-263.36 369.83,-270.23"/>
</g>
<!-- Node16 -->
<g id="node16" class="node">
<title>Node16</title>
<g id="a_node16"><a xlink:href="class_t_track_element.html#a100bff829c4dca820927affde4cb9e57" target="_top" xlink:title="Used to log track parameters for call stack logging.">
<polygon fill="white" stroke="black" points="367.5,-228.5 367.5,-247.5 495.5,-247.5 495.5,-228.5 367.5,-228.5"/>
<text text-anchor="middle" x="431.5" y="-235.5" font-family="Helvetica,sans-Serif" font-size="10.00">TTrackElement::LogTrack</text>
</a>
</g>
</g>
<!-- Node14&#45;&gt;Node16 -->
<g id="edge35" class="edge">
<title>Node14&#45;&gt;Node16</title>
<path fill="none" stroke="midnightblue" d="M296.21,-223.94C314.9,-225.9 336.81,-228.19 357.45,-230.35"/>
<polygon fill="midnightblue" stroke="midnightblue" points="357.15,-233.84 367.46,-231.4 357.88,-226.88 357.15,-233.84"/>
</g>
<!-- Node17 -->
<g id="node17" class="node">
<title>Node17</title>
<g id="a_node17"><a xlink:href="class_t_display.html#a6e970089a9419e6bdd12576b6e860c95" target="_top" xlink:title=" ">
<polygon fill="white" stroke="black" points="579.5,-114.5 579.5,-133.5 708.5,-133.5 708.5,-114.5 579.5,-114.5"/>
<text text-anchor="middle" x="644" y="-121.5" font-family="Helvetica,sans-Serif" font-size="10.00">TDisplay::PlotSignalBlank</text>
</a>
</g>
</g>
<!-- Node14&#45;&gt;Node17 -->
<g id="edge37" class="edge">
<title>Node14&#45;&gt;Node17</title>
<path fill="none" stroke="midnightblue" d="M256.7,-209.26C270.05,-193.19 299.23,-161.56 332,-148 408.35,-116.41 504.17,-113.95 569.13,-117.12"/>
<polygon fill="midnightblue" stroke="midnightblue" points="569.11,-120.62 579.28,-117.67 569.49,-113.63 569.11,-120.62"/>
</g>
<!-- Node18 -->
<g id="node18" class="node">
<title>Node18</title>
<g id="a_node18"><a xlink:href="class_t_track.html#a2830b22db25712a80fa55b1546b5df9b" target="_top" xlink:title="Plot platforms if any for a signal graphic &#45; plotted before signal so shows through transparent signa...">
<polygon fill="white" stroke="black" points="363,-342.5 363,-361.5 500,-361.5 500,-342.5 363,-342.5"/>
<text text-anchor="middle" x="431.5" y="-349.5" font-family="Helvetica,sans-Serif" font-size="10.00">TTrack::PlotSignalPlatforms</text>
</a>
</g>
</g>
<!-- Node14&#45;&gt;Node18 -->
<g id="edge40" class="edge">
<title>Node14&#45;&gt;Node18</title>
<path fill="none" stroke="midnightblue" d="M258.12,-228.61C272.82,-243.78 303.02,-273.73 332,-295 354.42,-311.45 381.95,-327.03 402.2,-337.74"/>
<polygon fill="midnightblue" stroke="midnightblue" points="400.74,-340.92 411.23,-342.44 403.98,-334.72 400.74,-340.92"/>
</g>
<!-- Node17&#45;&gt;Node2 -->
<g id="edge38" class="edge">
<title>Node17&#45;&gt;Node2</title>
<path fill="none" stroke="midnightblue" d="M700.89,-133.61C708.51,-137.06 715.57,-141.72 721,-148 786.63,-223.97 716.79,-279.01 757,-371 765.68,-390.85 781.42,-409.97 793.67,-423.03"/>
<polygon fill="midnightblue" stroke="midnightblue" points="791.28,-425.6 800.76,-430.33 796.3,-420.72 791.28,-425.6"/>
</g>
<!-- Node17&#45;&gt;Node4 -->
<g id="edge39" class="edge">
<title>Node17&#45;&gt;Node4</title>
<path fill="none" stroke="midnightblue" d="M696.03,-133.51C705.09,-136.95 713.89,-141.63 721,-148 777.66,-198.77 800.37,-291.81 807.86,-332.3"/>
<polygon fill="midnightblue" stroke="midnightblue" points="804.43,-333 809.58,-342.25 811.32,-331.8 804.43,-333"/>
</g>
<!-- Node18&#45;&gt;Node2 -->
<g id="edge41" class="edge">
<title>Node18&#45;&gt;Node2</title>
<path fill="none" stroke="midnightblue" d="M485.55,-342.48C557.19,-330.65 680.56,-314.17 721,-333 731.32,-337.81 774.84,-393.02 797.37,-422.19"/>
<polygon fill="midnightblue" stroke="midnightblue" points="794.75,-424.53 803.62,-430.32 800.3,-420.26 794.75,-424.53"/>
</g>
<!-- Node18&#45;&gt;Node4 -->
<g id="edge45" class="edge">
<title>Node18&#45;&gt;Node4</title>
<path fill="none" stroke="midnightblue" d="M500.03,-343.5C511.11,-339.95 521.93,-334.97 531,-328 557.49,-307.64 538.27,-279.06 567,-262 625.86,-227.06 657.77,-235.81 721,-262 756.01,-276.5 784.5,-311.97 799.5,-333.8"/>
<polygon fill="midnightblue" stroke="midnightblue" points="796.64,-335.81 805.08,-342.22 802.47,-331.95 796.64,-335.81"/>
</g>
<!-- Node18&#45;&gt;Node10 -->
<g id="edge42" class="edge">
<title>Node18&#45;&gt;Node10</title>
<path fill="none" stroke="midnightblue" d="M478.18,-361.55C503.71,-366.88 536.21,-373.68 565.59,-379.82"/>
<polygon fill="midnightblue" stroke="midnightblue" points="564.92,-383.25 575.42,-381.87 566.35,-376.4 564.92,-383.25"/>
</g>
<!-- Node18&#45;&gt;Node11 -->
<g id="edge43" class="edge">
<title>Node18&#45;&gt;Node11</title>
<path fill="none" stroke="midnightblue" d="M500.26,-352C518.29,-352 538.02,-352 556.89,-352"/>
<polygon fill="midnightblue" stroke="midnightblue" points="556.97,-355.5 566.97,-352 556.97,-348.5 556.97,-355.5"/>
</g>
<!-- Node18&#45;&gt;Node13 -->
<g id="edge44" class="edge">
<title>Node18&#45;&gt;Node13</title>
<path fill="none" stroke="midnightblue" d="M500.03,-345.05C511.37,-341.36 522.28,-335.94 531,-328 567.18,-295.08 531.94,-258.11 567,-224 571.09,-220.02 575.84,-216.7 580.92,-213.93"/>
<polygon fill="midnightblue" stroke="midnightblue" points="582.79,-216.92 590.37,-209.51 579.82,-210.58 582.79,-216.92"/>
</g>
</g>
</svg>
