<?xml version="1.0" encoding="UTF-8" standalone="no"?>
<!DOCTYPE svg PUBLIC "-//W3C//DTD SVG 1.1//EN"
 "http://www.w3.org/Graphics/SVG/1.1/DTD/svg11.dtd">
<!-- Generated by graphviz version 2.44.1 (20200629.0800)
 -->
<!-- Title: TTrack::WriteTrackAndTextToImage Pages: 1 -->
<svg width="873pt" height="959pt"
 viewBox="0.00 0.00 873.00 958.90" xmlns="http://www.w3.org/2000/svg" xmlns:xlink="http://www.w3.org/1999/xlink">
<g id="graph0" class="graph" transform="scale(1 1) rotate(0) translate(4 954.9)">
<title>TTrack::WriteTrackAndTextToImage</title>
<polygon fill="white" stroke="transparent" points="-4,4 -4,-954.9 869,-954.9 869,4 -4,4"/>
<!-- Node1 -->
<g id="node1" class="node">
<title>Node1</title>
<g id="a_node1"><a xlink:title="Called by TInterface::SaveImageNoGrid1Click, TInterface::SaveImageAndGrid1Click and TInterface::SaveI...">
<polygon fill="#bfbfbf" stroke="black" points="0,-333.81 0,-363.81 135,-363.81 135,-333.81 0,-333.81"/>
<text text-anchor="start" x="8" y="-351.81" font-family="Helvetica,sans-Serif" font-size="10.00">TTrack::WriteTrackAndText</text>
<text text-anchor="middle" x="67.5" y="-340.81" font-family="Helvetica,sans-Serif" font-size="10.00">ToImage</text>
</a>
</g>
</g>
<!-- Node2 -->
<g id="node2" class="node">
<title>Node2</title>
<g id="a_node2"><a xlink:href="class_t_utilities.html#ae1eddca13cc3c492839e131f40ec21c0" target="_top" xlink:title="pops the last entry off the call stack, throws an error if called when empty">
<polygon fill="white" stroke="black" points="755,-567.31 755,-586.31 865,-586.31 865,-567.31 755,-567.31"/>
<text text-anchor="middle" x="810" y="-574.31" font-family="Helvetica,sans-Serif" font-size="10.00">TUtilities::CallLogPop</text>
</a>
</g>
</g>
<!-- Node1&#45;&gt;Node2 -->
<g id="edge1" class="edge">
<title>Node1&#45;&gt;Node2</title>
<path fill="none" stroke="midnightblue" d="M69.79,-364.17C76.09,-435.57 106.06,-734.12 171,-795.81 348.9,-964.8 521.16,-1007.95 719,-862.81 763.46,-830.19 795.97,-655.71 805.86,-596.49"/>
<polygon fill="midnightblue" stroke="midnightblue" points="809.33,-596.98 807.49,-586.54 802.42,-595.85 809.33,-596.98"/>
</g>
<!-- Node3 -->
<g id="node3" class="node">
<title>Node3</title>
<g id="a_node3"><a xlink:href="class_t_rail_graphics.html#a5121c6d8b8fa69eefc293ca51cddce88" target="_top" xlink:title=" ">
<polygon fill="white" stroke="black" points="377,-163.81 377,-193.81 505,-193.81 505,-163.81 377,-163.81"/>
<text text-anchor="start" x="385" y="-181.81" font-family="Helvetica,sans-Serif" font-size="10.00">TRailGraphics::ChangeAll</text>
<text text-anchor="middle" x="441" y="-170.81" font-family="Helvetica,sans-Serif" font-size="10.00">TransparentColours</text>
</a>
</g>
</g>
<!-- Node1&#45;&gt;Node3 -->
<g id="edge2" class="edge">
<title>Node1&#45;&gt;Node3</title>
<path fill="none" stroke="midnightblue" d="M75.18,-333.61C88.67,-304.93 122.1,-243.16 171,-214.81 230.6,-180.25 309.88,-173.43 366.91,-173.93"/>
<polygon fill="midnightblue" stroke="midnightblue" points="366.87,-177.43 376.93,-174.09 366.99,-170.43 366.87,-177.43"/>
</g>
<!-- Node5 -->
<g id="node5" class="node">
<title>Node5</title>
<g id="a_node5"><a xlink:href="class_t_utilities.html#a34bd6bb5305bc29afdf424f6d35a921c" target="_top" xlink:title="creates a string of the form &#39;hh:mm:ss&#39; for use in call &amp; event logging">
<polygon fill="white" stroke="black" points="755,-415.31 755,-434.31 865,-434.31 865,-415.31 755,-415.31"/>
<text text-anchor="middle" x="810" y="-422.31" font-family="Helvetica,sans-Serif" font-size="10.00">TUtilities::TimeStamp</text>
</a>
</g>
</g>
<!-- Node1&#45;&gt;Node5 -->
<g id="edge41" class="edge">
<title>Node1&#45;&gt;Node5</title>
<path fill="none" stroke="midnightblue" d="M73.07,-333.73C84.16,-299.67 115.74,-216.17 171,-170.81 361.89,-14.11 523.62,72.25 719,-78.81 772.03,-119.81 799.65,-337.95 806.98,-405.11"/>
<polygon fill="midnightblue" stroke="midnightblue" points="803.51,-405.62 808.05,-415.19 810.47,-404.88 803.51,-405.62"/>
</g>
<!-- Node7 -->
<g id="node7" class="node">
<title>Node7</title>
<g id="a_node7"><a xlink:href="class_t_track.html#a5d25871e34f26d3c4c878fd4707ed375" target="_top" xlink:title=" ">
<polygon fill="white" stroke="black" points="582.5,-339.31 582.5,-358.31 688.5,-358.31 688.5,-339.31 582.5,-339.31"/>
<text text-anchor="middle" x="635.5" y="-346.31" font-family="Helvetica,sans-Serif" font-size="10.00">TTrack::GetHLocMin</text>
</a>
</g>
</g>
<!-- Node1&#45;&gt;Node7 -->
<g id="edge9" class="edge">
<title>Node1&#45;&gt;Node7</title>
<path fill="none" stroke="midnightblue" d="M135.09,-348.81C245.5,-348.81 464.9,-348.81 572.32,-348.81"/>
<polygon fill="midnightblue" stroke="midnightblue" points="572.36,-352.31 582.36,-348.81 572.36,-345.31 572.36,-352.31"/>
</g>
<!-- Node8 -->
<g id="node8" class="node">
<title>Node8</title>
<g id="a_node8"><a xlink:href="class_t_track.html#aeb60286bc570dbafab64fe6dc06af2e4" target="_top" xlink:title="Return a reference to the element at HLoc &amp; VLoc, if no element is found an error is thrown.">
<polygon fill="white" stroke="black" points="366,-668.81 366,-698.81 516,-698.81 516,-668.81 366,-668.81"/>
<text text-anchor="start" x="374" y="-686.81" font-family="Helvetica,sans-Serif" font-size="10.00">TTrack::GetTrackElementFrom</text>
<text text-anchor="middle" x="441" y="-675.81" font-family="Helvetica,sans-Serif" font-size="10.00">TrackMap</text>
</a>
</g>
</g>
<!-- Node1&#45;&gt;Node8 -->
<g id="edge10" class="edge">
<title>Node1&#45;&gt;Node8</title>
<path fill="none" stroke="midnightblue" d="M71.35,-363.9C79.6,-403.65 107.1,-512.37 171,-573.81 221.97,-622.82 297.75,-651.13 355.9,-666.72"/>
<polygon fill="midnightblue" stroke="midnightblue" points="355.25,-670.17 365.81,-669.3 357.01,-663.4 355.25,-670.17"/>
</g>
<!-- Node10 -->
<g id="node10" class="node">
<title>Node10</title>
<g id="a_node10"><a xlink:href="class_t_track.html#ac42bd1e1e148a91396310b1077d2d8e0" target="_top" xlink:title=" ">
<polygon fill="white" stroke="black" points="582.5,-301.31 582.5,-320.31 688.5,-320.31 688.5,-301.31 582.5,-301.31"/>
<text text-anchor="middle" x="635.5" y="-308.31" font-family="Helvetica,sans-Serif" font-size="10.00">TTrack::GetVLocMin</text>
</a>
</g>
</g>
<!-- Node1&#45;&gt;Node10 -->
<g id="edge16" class="edge">
<title>Node1&#45;&gt;Node10</title>
<path fill="none" stroke="midnightblue" d="M135.09,-344.34C245.5,-336.93 464.9,-322.2 572.32,-314.98"/>
<polygon fill="midnightblue" stroke="midnightblue" points="572.62,-318.47 582.36,-314.31 572.15,-311.49 572.62,-318.47"/>
</g>
<!-- Node11 -->
<g id="node11" class="node">
<title>Node11</title>
<g id="a_node11"><a xlink:href="class_t_track.html#a7c2888cb7acea2b9c65c5f9cc538df66" target="_top" xlink:title="Check whether there is a platform present at HLoc &amp; VLoc at the same side as the signal represented b...">
<polygon fill="white" stroke="black" points="177,-545.31 177,-564.31 324,-564.31 324,-545.31 177,-545.31"/>
<text text-anchor="middle" x="250.5" y="-552.31" font-family="Helvetica,sans-Serif" font-size="10.00">TTrack::PlatformOnSignalSide</text>
</a>
</g>
</g>
<!-- Node1&#45;&gt;Node11 -->
<g id="edge17" class="edge">
<title>Node1&#45;&gt;Node11</title>
<path fill="none" stroke="midnightblue" d="M81.81,-363.96C114.6,-401.27 199.13,-497.48 234.05,-537.23"/>
<polygon fill="midnightblue" stroke="midnightblue" points="231.85,-540.02 241.08,-545.23 237.11,-535.4 231.85,-540.02"/>
</g>
<!-- Node15 -->
<g id="node15" class="node">
<title>Node15</title>
<g id="a_node15"><a xlink:href="class_t_track.html#a58a2afacadd0f564b474ac0faabc88d4" target="_top" xlink:title="Return a reference to the inactive track element pointed to by NextTrackElementPtr (during zoomed&#45;in ...">
<polygon fill="white" stroke="black" points="569,-251.81 569,-281.81 702,-281.81 702,-251.81 569,-251.81"/>
<text text-anchor="start" x="577" y="-269.81" font-family="Helvetica,sans-Serif" font-size="10.00">TTrack::ReturnNextInactive</text>
<text text-anchor="middle" x="635.5" y="-258.81" font-family="Helvetica,sans-Serif" font-size="10.00">TrackElement</text>
</a>
</g>
</g>
<!-- Node1&#45;&gt;Node15 -->
<g id="edge31" class="edge">
<title>Node1&#45;&gt;Node15</title>
<path fill="none" stroke="midnightblue" d="M134.51,-333.8C146.61,-331.29 159.16,-328.84 171,-326.81 307.05,-303.44 466.96,-284.64 558.95,-274.65"/>
<polygon fill="midnightblue" stroke="midnightblue" points="559.43,-278.12 569,-273.56 558.68,-271.16 559.43,-278.12"/>
</g>
<!-- Node16 -->
<g id="node16" class="node">
<title>Node16</title>
<g id="a_node16"><a xlink:href="class_t_track.html#a90e1db27659603b72a703c017ee576c8" target="_top" xlink:title="Return a reference to the active track element pointed to by NextTrackElementPtr (during zoomed&#45;in or...">
<polygon fill="white" stroke="black" points="555,-213.31 555,-232.31 716,-232.31 716,-213.31 555,-213.31"/>
<text text-anchor="middle" x="635.5" y="-220.31" font-family="Helvetica,sans-Serif" font-size="10.00">TTrack::ReturnNextTrackElement</text>
</a>
</g>
</g>
<!-- Node1&#45;&gt;Node16 -->
<g id="edge34" class="edge">
<title>Node1&#45;&gt;Node16</title>
<path fill="none" stroke="midnightblue" d="M94.17,-333.67C114.39,-322.4 143.64,-307.52 171,-298.81 297.32,-258.6 450.13,-238.81 544.84,-229.72"/>
<polygon fill="midnightblue" stroke="midnightblue" points="545.33,-233.19 554.96,-228.77 544.67,-226.22 545.33,-233.19"/>
</g>
<!-- Node17 -->
<g id="node17" class="node">
<title>Node17</title>
<g id="a_node17"><a xlink:href="class_t_rail_graphics.html#ae19696d461eea07c5444ed4c9714acf3" target="_top" xlink:title=" ">
<polygon fill="white" stroke="black" points="171,-755.81 171,-785.81 330,-785.81 330,-755.81 171,-755.81"/>
<text text-anchor="start" x="179" y="-773.81" font-family="Helvetica,sans-Serif" font-size="10.00">TRailGraphics::SetUpAllDerivitive</text>
<text text-anchor="middle" x="250.5" y="-762.81" font-family="Helvetica,sans-Serif" font-size="10.00">Graphics</text>
</a>
</g>
</g>
<!-- Node1&#45;&gt;Node17 -->
<g id="edge37" class="edge">
<title>Node1&#45;&gt;Node17</title>
<path fill="none" stroke="midnightblue" d="M72.98,-363.89C85.94,-406.75 125.39,-532.57 171,-631.81 190.15,-673.48 217.35,-719.36 234.18,-746.6"/>
<polygon fill="midnightblue" stroke="midnightblue" points="231.42,-748.78 239.68,-755.41 237.36,-745.08 231.42,-748.78"/>
</g>
<!-- Node19 -->
<g id="node19" class="node">
<title>Node19</title>
<g id="a_node19"><a xlink:href="class_t_text_handler.html#a7d202827ae62cd288a07431579977539" target="_top" xlink:title="write all items in TextVector to the railway image in &#39;Bitmap&#39;">
<polygon fill="white" stroke="black" points="375,-377.81 375,-407.81 507,-407.81 507,-377.81 375,-377.81"/>
<text text-anchor="start" x="383" y="-395.81" font-family="Helvetica,sans-Serif" font-size="10.00">TTextHandler::WriteTextTo</text>
<text text-anchor="middle" x="441" y="-384.81" font-family="Helvetica,sans-Serif" font-size="10.00">Image</text>
</a>
</g>
</g>
<!-- Node1&#45;&gt;Node19 -->
<g id="edge42" class="edge">
<title>Node1&#45;&gt;Node19</title>
<path fill="none" stroke="midnightblue" d="M135.18,-358.16C147.1,-359.76 159.41,-361.37 171,-362.81 236.39,-370.92 310.84,-379.15 364.82,-384.93"/>
<polygon fill="midnightblue" stroke="midnightblue" points="364.68,-388.43 374.99,-386.01 365.42,-381.47 364.68,-388.43"/>
</g>
<!-- Node4 -->
<g id="node4" class="node">
<title>Node4</title>
<g id="a_node4"><a xlink:href="class_t_rail_graphics.html#ac4e48e6ee19e01724adb0d490762d548" target="_top" xlink:title=" ">
<polygon fill="white" stroke="black" points="560,-163.81 560,-193.81 711,-193.81 711,-163.81 560,-163.81"/>
<text text-anchor="start" x="568" y="-181.81" font-family="Helvetica,sans-Serif" font-size="10.00">TRailGraphics::ChangeSpecific</text>
<text text-anchor="middle" x="635.5" y="-170.81" font-family="Helvetica,sans-Serif" font-size="10.00">Colour</text>
</a>
</g>
</g>
<!-- Node3&#45;&gt;Node4 -->
<g id="edge3" class="edge">
<title>Node3&#45;&gt;Node4</title>
<path fill="none" stroke="midnightblue" d="M505.03,-178.81C519.29,-178.81 534.65,-178.81 549.64,-178.81"/>
<polygon fill="midnightblue" stroke="midnightblue" points="549.94,-182.31 559.94,-178.81 549.94,-175.31 549.94,-182.31"/>
</g>
<!-- Node6 -->
<g id="node6" class="node">
<title>Node6</title>
<g id="a_node6"><a xlink:href="class_t_rail_graphics.html#a89a3e3a91129c4d02f4606478781b519" target="_top" xlink:title=" ">
<polygon fill="white" stroke="black" points="552,-114.81 552,-144.81 719,-144.81 719,-114.81 552,-114.81"/>
<text text-anchor="start" x="560" y="-132.81" font-family="Helvetica,sans-Serif" font-size="10.00">TRailGraphics::ChangeTransparent</text>
<text text-anchor="middle" x="635.5" y="-121.81" font-family="Helvetica,sans-Serif" font-size="10.00">Colour</text>
</a>
</g>
</g>
<!-- Node3&#45;&gt;Node6 -->
<g id="edge6" class="edge">
<title>Node3&#45;&gt;Node6</title>
<path fill="none" stroke="midnightblue" d="M501.06,-163.77C521.48,-158.58 544.54,-152.71 565.67,-147.33"/>
<polygon fill="midnightblue" stroke="midnightblue" points="566.72,-150.67 575.55,-144.82 564.99,-143.89 566.72,-150.67"/>
</g>
<!-- Node4&#45;&gt;Node2 -->
<g id="edge4" class="edge">
<title>Node4&#45;&gt;Node2</title>
<path fill="none" stroke="midnightblue" d="M707.51,-193.92C711.77,-196.69 715.67,-199.96 719,-203.81 789.53,-285.41 726.51,-339.78 755,-443.81 766.51,-485.85 787.5,-532.53 799.64,-557.88"/>
<polygon fill="midnightblue" stroke="midnightblue" points="796.59,-559.61 804.11,-567.08 802.89,-556.55 796.59,-559.61"/>
</g>
<!-- Node4&#45;&gt;Node5 -->
<g id="edge5" class="edge">
<title>Node4&#45;&gt;Node5</title>
<path fill="none" stroke="midnightblue" d="M704.94,-193.99C710.02,-196.73 714.8,-199.98 719,-203.81 779.99,-259.4 800.56,-362.29 806.68,-405.21"/>
<polygon fill="midnightblue" stroke="midnightblue" points="803.22,-405.74 808,-415.2 810.16,-404.83 803.22,-405.74"/>
</g>
<!-- Node6&#45;&gt;Node2 -->
<g id="edge7" class="edge">
<title>Node6&#45;&gt;Node2</title>
<path fill="none" stroke="midnightblue" d="M709.08,-144.93C712.74,-147.47 716.1,-150.4 719,-153.81 761.11,-203.24 738.64,-380.96 755,-443.81 765.98,-485.99 787.16,-532.62 799.48,-557.92"/>
<polygon fill="midnightblue" stroke="midnightblue" points="796.45,-559.69 804.02,-567.1 802.72,-556.59 796.45,-559.69"/>
</g>
<!-- Node6&#45;&gt;Node5 -->
<g id="edge8" class="edge">
<title>Node6&#45;&gt;Node5</title>
<path fill="none" stroke="midnightblue" d="M707.17,-144.94C711.45,-147.46 715.45,-150.39 719,-153.81 792.21,-224.32 805.88,-355.72 808.42,-405.24"/>
<polygon fill="midnightblue" stroke="midnightblue" points="804.93,-405.41 808.84,-415.26 811.92,-405.12 804.93,-405.41"/>
</g>
<!-- Node8&#45;&gt;Node2 -->
<g id="edge11" class="edge">
<title>Node8&#45;&gt;Node2</title>
<path fill="none" stroke="midnightblue" d="M449.67,-699.17C464.75,-727.4 501.24,-786.74 552,-809.81 619.57,-840.52 657.79,-851.79 719,-809.81 791.52,-760.08 805.62,-642.94 808.35,-596.38"/>
<polygon fill="midnightblue" stroke="midnightblue" points="811.85,-596.54 808.82,-586.39 804.86,-596.21 811.85,-596.54"/>
</g>
<!-- Node8&#45;&gt;Node5 -->
<g id="edge12" class="edge">
<title>Node8&#45;&gt;Node5</title>
<path fill="none" stroke="midnightblue" d="M516.04,-681.86C587.16,-678.57 688.23,-669.7 719,-645.81 719.27,-645.6 779.39,-497.68 801.21,-443.99"/>
<polygon fill="midnightblue" stroke="midnightblue" points="804.51,-445.16 805.03,-434.58 798.02,-442.53 804.51,-445.16"/>
</g>
<!-- Node9 -->
<g id="node9" class="node">
<title>Node9</title>
<g id="a_node9"><a xlink:href="class_t_track.html#ad377e5a1f152f2e89832c0f9bcfd261f" target="_top" xlink:title="A range&#45;checked version of TrackVector.at(At)">
<polygon fill="white" stroke="black" points="574.5,-693.31 574.5,-712.31 696.5,-712.31 696.5,-693.31 574.5,-693.31"/>
<text text-anchor="middle" x="635.5" y="-700.31" font-family="Helvetica,sans-Serif" font-size="10.00">TTrack::TrackElementAt</text>
</a>
</g>
</g>
<!-- Node8&#45;&gt;Node9 -->
<g id="edge13" class="edge">
<title>Node8&#45;&gt;Node9</title>
<path fill="none" stroke="midnightblue" d="M516.15,-691.13C531.96,-692.69 548.62,-694.33 564.28,-695.88"/>
<polygon fill="midnightblue" stroke="midnightblue" points="564.11,-699.38 574.41,-696.88 564.8,-692.41 564.11,-699.38"/>
</g>
<!-- Node9&#45;&gt;Node2 -->
<g id="edge14" class="edge">
<title>Node9&#45;&gt;Node2</title>
<path fill="none" stroke="midnightblue" d="M686.44,-693.18C697.68,-689.71 709.18,-685.04 719,-678.81 753.53,-656.9 782.52,-617.97 797.67,-595.06"/>
<polygon fill="midnightblue" stroke="midnightblue" points="800.65,-596.9 803.12,-586.59 794.77,-593.11 800.65,-596.9"/>
</g>
<!-- Node9&#45;&gt;Node5 -->
<g id="edge15" class="edge">
<title>Node9&#45;&gt;Node5</title>
<path fill="none" stroke="midnightblue" d="M696.37,-693.24C704.75,-689.79 712.65,-685.12 719,-678.81 758.79,-639.26 736.42,-610.75 755,-557.81 769.5,-516.47 789.55,-469.2 800.69,-443.63"/>
<polygon fill="midnightblue" stroke="midnightblue" points="803.94,-444.93 804.75,-434.37 797.53,-442.12 803.94,-444.93"/>
</g>
<!-- Node11&#45;&gt;Node2 -->
<g id="edge18" class="edge">
<title>Node11&#45;&gt;Node2</title>
<path fill="none" stroke="midnightblue" d="M257.06,-564.4C283.16,-608.21 398.62,-789.13 552,-836.81 622.88,-858.84 658.54,-879.86 719,-836.81 798.96,-779.87 808.54,-646.82 809.21,-596.53"/>
<polygon fill="midnightblue" stroke="midnightblue" points="812.71,-596.37 809.23,-586.36 805.71,-596.35 812.71,-596.37"/>
</g>
<!-- Node11&#45;&gt;Node5 -->
<g id="edge30" class="edge">
<title>Node11&#45;&gt;Node5</title>
<path fill="none" stroke="midnightblue" d="M251.07,-545.29C249.38,-496.16 248.34,-269.08 366,-153.81 427.07,-93.98 467.22,-115.79 552,-104.81 625.61,-95.28 659.84,-59.99 719,-104.81 768.26,-142.13 798.09,-340.97 806.52,-404.96"/>
<polygon fill="midnightblue" stroke="midnightblue" points="803.1,-405.8 807.85,-415.27 810.04,-404.9 803.1,-405.8"/>
</g>
<!-- Node12 -->
<g id="node12" class="node">
<title>Node12</title>
<g id="a_node12"><a xlink:href="class_t_track.html#a418966e6fefb71b9d0c9b941197832da" target="_top" xlink:title="Similar to GetVectorPositionFromTrackMap but for inactive elements, a pair is returned because there ...">
<polygon fill="white" stroke="black" points="567,-605.81 567,-635.81 704,-635.81 704,-605.81 567,-605.81"/>
<text text-anchor="start" x="575" y="-623.81" font-family="Helvetica,sans-Serif" font-size="10.00">TTrack::GetVectorPositions</text>
<text text-anchor="middle" x="635.5" y="-612.81" font-family="Helvetica,sans-Serif" font-size="10.00">FromInactiveTrackMap</text>
</a>
</g>
</g>
<!-- Node11&#45;&gt;Node12 -->
<g id="edge19" class="edge">
<title>Node11&#45;&gt;Node12</title>
<path fill="none" stroke="midnightblue" d="M269.54,-564.34C291.61,-575.49 330.43,-593.48 366,-601.81 429.05,-616.58 502.51,-620.92 556.64,-621.81"/>
<polygon fill="midnightblue" stroke="midnightblue" points="556.81,-625.31 566.86,-621.93 556.9,-618.31 556.81,-625.31"/>
</g>
<!-- Node13 -->
<g id="node13" class="node">
<title>Node13</title>
<g id="a_node13"><a xlink:href="class_t_track.html#a51f89cf70e94b037f6378cd78003d82b" target="_top" xlink:title="A range&#45;checked version of InactiveTrackVector.at(At)">
<polygon fill="white" stroke="black" points="558.5,-567.31 558.5,-586.31 712.5,-586.31 712.5,-567.31 558.5,-567.31"/>
<text text-anchor="middle" x="635.5" y="-574.31" font-family="Helvetica,sans-Serif" font-size="10.00">TTrack::InactiveTrackElementAt</text>
</a>
</g>
</g>
<!-- Node11&#45;&gt;Node13 -->
<g id="edge22" class="edge">
<title>Node11&#45;&gt;Node13</title>
<path fill="none" stroke="midnightblue" d="M324.1,-550.08C377.36,-547.62 451.35,-546.33 516,-552.81 539.71,-555.19 565.69,-560.17 587.27,-564.99"/>
<polygon fill="midnightblue" stroke="midnightblue" points="586.64,-568.44 597.17,-567.26 588.2,-561.61 586.64,-568.44"/>
</g>
<!-- Node14 -->
<g id="node14" class="node">
<title>Node14</title>
<g id="a_node14"><a xlink:href="class_t_track.html#adbec6561f4ecd2fa1dabf3e41502b085" target="_top" xlink:title="True if a non&#45;station named location or platform at HLoc &amp; VLoc.">
<polygon fill="white" stroke="black" points="372.5,-561.81 372.5,-591.81 509.5,-591.81 509.5,-561.81 372.5,-561.81"/>
<text text-anchor="start" x="380.5" y="-579.81" font-family="Helvetica,sans-Serif" font-size="10.00">TTrack::IsPlatformOrNamed</text>
<text text-anchor="middle" x="441" y="-568.81" font-family="Helvetica,sans-Serif" font-size="10.00">NonStationLocationPresent</text>
</a>
</g>
</g>
<!-- Node11&#45;&gt;Node14 -->
<g id="edge25" class="edge">
<title>Node11&#45;&gt;Node14</title>
<path fill="none" stroke="midnightblue" d="M324.11,-563.28C336.63,-564.74 349.69,-566.27 362.34,-567.75"/>
<polygon fill="midnightblue" stroke="midnightblue" points="362.04,-571.23 372.38,-568.92 362.85,-564.28 362.04,-571.23"/>
</g>
<!-- Node12&#45;&gt;Node2 -->
<g id="edge20" class="edge">
<title>Node12&#45;&gt;Node2</title>
<path fill="none" stroke="midnightblue" d="M695.38,-605.79C717.11,-600.25 741.41,-594.05 761.95,-588.81"/>
<polygon fill="midnightblue" stroke="midnightblue" points="762.88,-592.18 771.71,-586.32 761.15,-585.4 762.88,-592.18"/>
</g>
<!-- Node12&#45;&gt;Node5 -->
<g id="edge21" class="edge">
<title>Node12&#45;&gt;Node5</title>
<path fill="none" stroke="midnightblue" d="M703.32,-605.8C708.94,-603.01 714.27,-599.72 719,-595.81 768.25,-555.14 794.03,-480.38 804,-444.73"/>
<polygon fill="midnightblue" stroke="midnightblue" points="807.5,-445.19 806.69,-434.62 800.74,-443.39 807.5,-445.19"/>
</g>
<!-- Node13&#45;&gt;Node2 -->
<g id="edge23" class="edge">
<title>Node13&#45;&gt;Node2</title>
<path fill="none" stroke="midnightblue" d="M712.66,-576.81C723.36,-576.81 734.26,-576.81 744.71,-576.81"/>
<polygon fill="midnightblue" stroke="midnightblue" points="744.97,-580.31 754.97,-576.81 744.97,-573.31 744.97,-580.31"/>
</g>
<!-- Node13&#45;&gt;Node5 -->
<g id="edge24" class="edge">
<title>Node13&#45;&gt;Node5</title>
<path fill="none" stroke="midnightblue" d="M652.41,-567.21C669.56,-556.56 697.32,-538.39 719,-519.81 747.98,-494.97 777.69,-461.82 794.68,-441.96"/>
<polygon fill="midnightblue" stroke="midnightblue" points="797.35,-444.22 801.15,-434.33 792.01,-439.7 797.35,-444.22"/>
</g>
<!-- Node14&#45;&gt;Node2 -->
<g id="edge26" class="edge">
<title>Node14&#45;&gt;Node2</title>
<path fill="none" stroke="midnightblue" d="M457.18,-591.92C472.89,-607.97 497.65,-634.49 516,-659.81 534.7,-685.61 524.39,-705.91 552,-721.81 616.32,-758.84 654.14,-757.89 719,-721.81 767.62,-694.76 793.34,-629.38 803.59,-596.45"/>
<polygon fill="midnightblue" stroke="midnightblue" points="807.01,-597.21 806.49,-586.63 800.3,-595.24 807.01,-597.21"/>
</g>
<!-- Node14&#45;&gt;Node5 -->
<g id="edge29" class="edge">
<title>Node14&#45;&gt;Node5</title>
<path fill="none" stroke="midnightblue" d="M454.91,-561.7C473.94,-540.45 511.63,-502.08 552,-481.81 556.57,-479.51 680.5,-452.54 754.57,-436.53"/>
<polygon fill="midnightblue" stroke="midnightblue" points="755.64,-439.88 764.67,-434.35 754.16,-433.04 755.64,-439.88"/>
</g>
<!-- Node14&#45;&gt;Node12 -->
<g id="edge27" class="edge">
<title>Node14&#45;&gt;Node12</title>
<path fill="none" stroke="midnightblue" d="M507.71,-591.83C524.19,-595.6 542,-599.67 558.92,-603.53"/>
<polygon fill="midnightblue" stroke="midnightblue" points="558.23,-606.97 568.76,-605.78 559.79,-600.14 558.23,-606.97"/>
</g>
<!-- Node14&#45;&gt;Node13 -->
<g id="edge28" class="edge">
<title>Node14&#45;&gt;Node13</title>
<path fill="none" stroke="midnightblue" d="M509.6,-576.81C521.99,-576.81 535.09,-576.81 547.94,-576.81"/>
<polygon fill="midnightblue" stroke="midnightblue" points="548.19,-580.31 558.19,-576.81 548.19,-573.31 548.19,-580.31"/>
</g>
<!-- Node15&#45;&gt;Node2 -->
<g id="edge32" class="edge">
<title>Node15&#45;&gt;Node2</title>
<path fill="none" stroke="midnightblue" d="M702.04,-279.34C708.35,-282.6 714.18,-286.68 719,-291.81 766.55,-342.39 733.88,-377.68 755,-443.81 768.26,-485.33 788.61,-532.2 800.17,-557.72"/>
<polygon fill="midnightblue" stroke="midnightblue" points="797.06,-559.35 804.4,-566.99 803.43,-556.44 797.06,-559.35"/>
</g>
<!-- Node15&#45;&gt;Node5 -->
<g id="edge33" class="edge">
<title>Node15&#45;&gt;Node5</title>
<path fill="none" stroke="midnightblue" d="M701.62,-281.81C707.78,-284.6 713.7,-287.9 719,-291.81 759.98,-322.01 788.28,-376.78 801.15,-405.72"/>
<polygon fill="midnightblue" stroke="midnightblue" points="798.02,-407.31 805.19,-415.11 804.46,-404.54 798.02,-407.31"/>
</g>
<!-- Node16&#45;&gt;Node2 -->
<g id="edge35" class="edge">
<title>Node16&#45;&gt;Node2</title>
<path fill="none" stroke="midnightblue" d="M704.96,-232.33C710.17,-235.08 714.96,-238.52 719,-242.81 781.2,-308.9 729.79,-356.63 755,-443.81 767.11,-485.68 787.88,-532.42 799.82,-557.83"/>
<polygon fill="midnightblue" stroke="midnightblue" points="796.75,-559.53 804.21,-567.05 803.07,-556.52 796.75,-559.53"/>
</g>
<!-- Node16&#45;&gt;Node5 -->
<g id="edge36" class="edge">
<title>Node16&#45;&gt;Node5</title>
<path fill="none" stroke="midnightblue" d="M700.86,-232.38C707.39,-235.07 713.59,-238.48 719,-242.81 772.13,-285.31 796.31,-367.2 804.99,-404.91"/>
<polygon fill="midnightblue" stroke="midnightblue" points="801.66,-406.07 807.2,-415.1 808.5,-404.58 801.66,-406.07"/>
</g>
<!-- Node18 -->
<g id="node18" class="node">
<title>Node18</title>
<g id="a_node18"><a xlink:href="class_t_rail_graphics.html#aa2dace651659e084ec23c9961f5819b1" target="_top" xlink:title=" ">
<polygon fill="white" stroke="black" points="553,-769.81 553,-799.81 718,-799.81 718,-769.81 553,-769.81"/>
<text text-anchor="start" x="561" y="-787.81" font-family="Helvetica,sans-Serif" font-size="10.00">TRailGraphics::ChangeForeground</text>
<text text-anchor="middle" x="635.5" y="-776.81" font-family="Helvetica,sans-Serif" font-size="10.00">Colour</text>
</a>
</g>
</g>
<!-- Node17&#45;&gt;Node18 -->
<g id="edge38" class="edge">
<title>Node17&#45;&gt;Node18</title>
<path fill="none" stroke="midnightblue" d="M330.39,-773.69C392.02,-775.95 477.79,-779.08 542.53,-781.45"/>
<polygon fill="midnightblue" stroke="midnightblue" points="542.61,-784.95 552.74,-781.82 542.87,-777.96 542.61,-784.95"/>
</g>
<!-- Node18&#45;&gt;Node2 -->
<g id="edge39" class="edge">
<title>Node18&#45;&gt;Node2</title>
<path fill="none" stroke="midnightblue" d="M695.5,-769.65C703.99,-765.75 712.16,-760.88 719,-754.81 768.77,-710.66 794.53,-632.52 804.28,-596.28"/>
<polygon fill="midnightblue" stroke="midnightblue" points="807.71,-597.02 806.8,-586.46 800.93,-595.27 807.71,-597.02"/>
</g>
<!-- Node18&#45;&gt;Node5 -->
<g id="edge40" class="edge">
<title>Node18&#45;&gt;Node5</title>
<path fill="none" stroke="midnightblue" d="M665.61,-769.64C683.7,-758.72 705.93,-742.33 719,-721.81 759.1,-658.88 732.88,-629.08 755,-557.81 767.92,-516.18 788.39,-469.35 800.07,-443.86"/>
<polygon fill="midnightblue" stroke="midnightblue" points="803.32,-445.15 804.35,-434.61 796.97,-442.21 803.32,-445.15"/>
</g>
<!-- Node19&#45;&gt;Node2 -->
<g id="edge43" class="edge">
<title>Node19&#45;&gt;Node2</title>
<path fill="none" stroke="midnightblue" d="M450.67,-408.12C466.86,-435.22 504.4,-491.43 552,-519.81 556.39,-522.43 680.07,-549.2 754.23,-565.11"/>
<polygon fill="midnightblue" stroke="midnightblue" points="753.83,-568.6 764.34,-567.28 755.3,-561.76 753.83,-568.6"/>
</g>
<!-- Node19&#45;&gt;Node5 -->
<g id="edge52" class="edge">
<title>Node19&#45;&gt;Node5</title>
<path fill="none" stroke="midnightblue" d="M507.18,-392.91C563.48,-393.71 646.89,-396.57 719,-405.81 732.63,-407.56 747.27,-410.28 760.7,-413.12"/>
<polygon fill="midnightblue" stroke="midnightblue" points="760.18,-416.59 770.69,-415.3 761.67,-409.75 760.18,-416.59"/>
</g>
<!-- Node19&#45;&gt;Node7 -->
<g id="edge44" class="edge">
<title>Node19&#45;&gt;Node7</title>
<path fill="none" stroke="midnightblue" d="M507.17,-377.91C531.78,-372.29 559.42,-365.97 582.65,-360.66"/>
<polygon fill="midnightblue" stroke="midnightblue" points="583.68,-364.02 592.65,-358.38 582.12,-357.19 583.68,-364.02"/>
</g>
<!-- Node19&#45;&gt;Node10 -->
<g id="edge45" class="edge">
<title>Node19&#45;&gt;Node10</title>
<path fill="none" stroke="midnightblue" d="M463.78,-377.75C485.31,-363.51 519.62,-342.49 552,-329.81 558.44,-327.29 565.29,-325.05 572.2,-323.08"/>
<polygon fill="midnightblue" stroke="midnightblue" points="573.55,-326.35 582.3,-320.38 571.74,-319.58 573.55,-326.35"/>
</g>
<!-- Node20 -->
<g id="node20" class="node">
<title>Node20</title>
<g id="a_node20"><a xlink:href="class_t_text_handler.html#ac478536f458d9cda8a841953672f6525" target="_top" xlink:title="return the text item at position &#39;At&#39; in TextVector (carries out range checking)">
<polygon fill="white" stroke="black" points="575,-415.31 575,-434.31 696,-434.31 696,-415.31 575,-415.31"/>
<text text-anchor="middle" x="635.5" y="-422.31" font-family="Helvetica,sans-Serif" font-size="10.00">TTextHandler::TextPtrAt</text>
</a>
</g>
</g>
<!-- Node19&#45;&gt;Node20 -->
<g id="edge46" class="edge">
<title>Node19&#45;&gt;Node20</title>
<path fill="none" stroke="midnightblue" d="M507.17,-403.64C526.49,-406.85 547.68,-410.38 567.14,-413.61"/>
<polygon fill="midnightblue" stroke="midnightblue" points="566.7,-417.09 577.13,-415.27 567.84,-410.18 566.7,-417.09"/>
</g>
<!-- Node21 -->
<g id="node21" class="node">
<title>Node21</title>
<g id="a_node21"><a xlink:href="class_t_text_handler.html#a7dfd4e30235878fb01e7387715e0cb0f" target="_top" xlink:title="return the number of items in TextVector">
<polygon fill="white" stroke="black" points="562.5,-491.31 562.5,-510.31 708.5,-510.31 708.5,-491.31 562.5,-491.31"/>
<text text-anchor="middle" x="635.5" y="-498.31" font-family="Helvetica,sans-Serif" font-size="10.00">TTextHandler::TextVectorSize</text>
</a>
</g>
</g>
<!-- Node19&#45;&gt;Node21 -->
<g id="edge49" class="edge">
<title>Node19&#45;&gt;Node21</title>
<path fill="none" stroke="midnightblue" d="M468.77,-407.83C505.66,-428.52 571.71,-465.58 608.3,-486.11"/>
<polygon fill="midnightblue" stroke="midnightblue" points="606.93,-489.35 617.36,-491.19 610.35,-483.25 606.93,-489.35"/>
</g>
<!-- Node20&#45;&gt;Node2 -->
<g id="edge47" class="edge">
<title>Node20&#45;&gt;Node2</title>
<path fill="none" stroke="midnightblue" d="M652.41,-434.4C669.56,-445.06 697.32,-463.23 719,-481.81 747.98,-506.65 777.69,-539.8 794.68,-559.65"/>
<polygon fill="midnightblue" stroke="midnightblue" points="792.01,-561.92 801.15,-567.29 797.35,-557.4 792.01,-561.92"/>
</g>
<!-- Node20&#45;&gt;Node5 -->
<g id="edge48" class="edge">
<title>Node20&#45;&gt;Node5</title>
<path fill="none" stroke="midnightblue" d="M696.35,-424.81C711.91,-424.81 728.75,-424.81 744.54,-424.81"/>
<polygon fill="midnightblue" stroke="midnightblue" points="744.74,-428.31 754.74,-424.81 744.74,-421.31 744.74,-428.31"/>
</g>
<!-- Node21&#45;&gt;Node2 -->
<g id="edge50" class="edge">
<title>Node21&#45;&gt;Node2</title>
<path fill="none" stroke="midnightblue" d="M676.62,-510.39C690.31,-514.21 705.56,-519.07 719,-524.81 743.03,-535.07 768.66,-550.35 786.4,-561.7"/>
<polygon fill="midnightblue" stroke="midnightblue" points="784.61,-564.71 794.91,-567.23 788.43,-558.84 784.61,-564.71"/>
</g>
<!-- Node21&#45;&gt;Node5 -->
<g id="edge51" class="edge">
<title>Node21&#45;&gt;Node5</title>
<path fill="none" stroke="midnightblue" d="M676.62,-491.23C690.31,-487.41 705.56,-482.55 719,-476.81 743.03,-466.55 768.66,-451.27 786.4,-439.92"/>
<polygon fill="midnightblue" stroke="midnightblue" points="788.43,-442.78 794.91,-434.39 784.61,-436.91 788.43,-442.78"/>
</g>
</g>
</svg>
