<?xml version="1.0" encoding="UTF-8" standalone="no"?>
<!DOCTYPE svg PUBLIC "-//W3C//DTD SVG 1.1//EN"
 "http://www.w3.org/Graphics/SVG/1.1/DTD/svg11.dtd">
<!-- Generated by graphviz version 2.44.1 (20200629.0800)
 -->
<!-- Title: TTrainController::SameDirection Pages: 1 -->
<svg width="670pt" height="39pt"
 viewBox="0.00 0.00 670.00 39.00" xmlns="http://www.w3.org/2000/svg" xmlns:xlink="http://www.w3.org/1999/xlink">
<g id="graph0" class="graph" transform="scale(1 1) rotate(0) translate(4 35)">
<title>TTrainController::SameDirection</title>
<polygon fill="white" stroke="transparent" points="-4,4 -4,-35 666,-35 666,4 -4,4"/>
<!-- Node1 -->
<g id="node1" class="node">
<title>Node1</title>
<g id="a_node1"><a xlink:title="Determines whether two services are running in the same direction when they arrive or depart from Loc...">
<polygon fill="#bfbfbf" stroke="black" points="508,-6 508,-25 662,-25 662,-6 508,-6"/>
<text text-anchor="middle" x="585" y="-13" font-family="Helvetica,sans-Serif" font-size="10.00">TTrainController::SameDirection</text>
</a>
</g>
</g>
<!-- Node2 -->
<g id="node2" class="node">
<title>Node2</title>
<g id="a_node2"><a xlink:href="class_t_train_controller.html#a9529f225878cf4920b52914022f44c4e" target="_top" xlink:title="Removes duplicates from and sorts ServiceAndRepeatNumTotal into alphabetical order for arrivals (bool...">
<polygon fill="white" stroke="black" points="331,-0.5 331,-30.5 472,-30.5 472,-0.5 331,-0.5"/>
<text text-anchor="start" x="339" y="-18.5" font-family="Helvetica,sans-Serif" font-size="10.00">TTrainController::Consolidate</text>
<text text-anchor="middle" x="401.5" y="-7.5" font-family="Helvetica,sans-Serif" font-size="10.00">SARNTArrDep</text>
</a>
</g>
</g>
<!-- Node1&#45;&gt;Node2 -->
<g id="edge1" class="edge">
<title>Node1&#45;&gt;Node2</title>
<path fill="none" stroke="midnightblue" d="M497.77,-15.5C489.17,-15.5 480.52,-15.5 472.13,-15.5"/>
<polygon fill="midnightblue" stroke="midnightblue" points="497.82,-19 507.82,-15.5 497.82,-12 497.82,-19"/>
</g>
<!-- Node3 -->
<g id="node3" class="node">
<title>Node3</title>
<g id="a_node3"><a xlink:href="class_t_train_controller.html#a9271e33e06360d367f7fa01b30c6137f" target="_top" xlink:title="Generate a timetable analysis file in the &#39;Formatted Timetables&#39; folder, return false if failed for a...">
<polygon fill="white" stroke="black" points="176,-0.5 176,-30.5 295,-30.5 295,-0.5 176,-0.5"/>
<text text-anchor="start" x="184" y="-18.5" font-family="Helvetica,sans-Serif" font-size="10.00">TTrainController::Create</text>
<text text-anchor="middle" x="235.5" y="-7.5" font-family="Helvetica,sans-Serif" font-size="10.00">TTAnalysisFile</text>
</a>
</g>
</g>
<!-- Node2&#45;&gt;Node3 -->
<g id="edge2" class="edge">
<title>Node2&#45;&gt;Node3</title>
<path fill="none" stroke="midnightblue" d="M320.8,-15.5C312.11,-15.5 303.39,-15.5 295.03,-15.5"/>
<polygon fill="midnightblue" stroke="midnightblue" points="320.95,-19 330.95,-15.5 320.95,-12 320.95,-19"/>
</g>
<!-- Node4 -->
<g id="node4" class="node">
<title>Node4</title>
<g id="a_node4"><a xlink:href="class_t_interface.html#a6379037c7970acda71188947cb3ba6b2" target="_top" xlink:title=" ">
<polygon fill="white" stroke="black" points="0,-0.5 0,-30.5 140,-30.5 140,-0.5 0,-0.5"/>
<text text-anchor="start" x="8" y="-18.5" font-family="Helvetica,sans-Serif" font-size="10.00">TInterface::CPGenFileButton</text>
<text text-anchor="middle" x="70" y="-7.5" font-family="Helvetica,sans-Serif" font-size="10.00">Click</text>
</a>
</g>
</g>
<!-- Node3&#45;&gt;Node4 -->
<g id="edge3" class="edge">
<title>Node3&#45;&gt;Node4</title>
<path fill="none" stroke="midnightblue" d="M165.7,-15.5C157.21,-15.5 148.52,-15.5 140.03,-15.5"/>
<polygon fill="midnightblue" stroke="midnightblue" points="165.93,-19 175.93,-15.5 165.93,-12 165.93,-19"/>
</g>
</g>
</svg>
