<?xml version="1.0" encoding="UTF-8" standalone="no"?>
<!DOCTYPE svg PUBLIC "-//W3C//DTD SVG 1.1//EN"
 "http://www.w3.org/Graphics/SVG/1.1/DTD/svg11.dtd">
<!-- Generated by graphviz version 2.44.1 (20200629.0800)
 -->
<!-- Title: TAllRoutes::GetRouteVectorNumber Pages: 1 -->
<!--zoomable 212 -->
<svg id="main" version="1.1" xmlns="http://www.w3.org/2000/svg" xmlns:xlink="http://www.w3.org/1999/xlink" xml:space="preserve" onload="init(evt)">
<style type="text/css"><![CDATA[
.edge:hover path { stroke: red; }
.edge:hover polygon { stroke: red; fill: red; }
]]></style>
<script type="text/javascript"><![CDATA[
var edges = document.getElementsByTagName('g');
if (edges && edges.length) {
  for (var i=0;i<edges.length;i++) {
    if (edges[i].id.substr(0,4)=='edge') {
      edges[i].setAttribute('class','edge');
    }
  }
}
]]></script>
        <defs>
                <circle id="rim" cx="0" cy="0" r="7"/>
                <circle id="rim2" cx="0" cy="0" r="3.5"/>
                <g id="zoomPlus">
                        <use xlink:href="#rim" fill="#404040">
                                <set attributeName="fill" to="#808080" begin="zoomplus.mouseover" end="zoomplus.mouseout"/>
                        </use>
                        <path d="M-4,0h8M0,-4v8" fill="none" stroke="white" stroke-width="1.5" pointer-events="none"/>
                </g>
                <g id="zoomMin">
                        <use xlink:href="#rim" fill="#404040">
                                <set attributeName="fill" to="#808080" begin="zoomminus.mouseover" end="zoomminus.mouseout"/>
                        </use>
                        <path d="M-4,0h8" fill="none" stroke="white" stroke-width="1.5" pointer-events="none"/>
                </g>
                <g id="dirArrow">
                        <path fill="none" stroke="white" stroke-width="1.5" d="M0,-3.0v7 M-2.5,-0.5L0,-3.0L2.5,-0.5"/>
                </g>
               <g id="resetDef">
                       <use xlink:href="#rim2" fill="#404040">
                               <set attributeName="fill" to="#808080" begin="reset.mouseover" end="reset.mouseout"/>
                       </use>
               </g>
        </defs>

<script type="text/javascript">
var viewWidth = 945;
var viewHeight = 212;
var sectionId = 'dynsection-39';
</script>
<script xlink:href="svgpan.js"/>
<svg id="graph" class="graph">
<g id="viewport">
<title>TAllRoutes::GetRouteVectorNumber</title>
<polygon fill="white" stroke="transparent" points="-4,4 -4,-208 941,-208 941,4 -4,4"/>
<!-- Node1 -->
<g id="node1" class="node">
<title>Node1</title>
<g id="a_node1"><a xlink:title="Returns a route&#39;s position in AllRoutesVector from its ID, throws an error if a matching route isn&#39;t ...">
<polygon fill="#bfbfbf" stroke="black" points="797,-73.5 797,-103.5 937,-103.5 937,-73.5 797,-73.5"/>
<text text-anchor="start" x="805" y="-91.5" font-family="Helvetica,sans-Serif" font-size="10.00">TAllRoutes::GetRouteVector</text>
<text text-anchor="middle" x="867" y="-80.5" font-family="Helvetica,sans-Serif" font-size="10.00">Number</text>
</a>
</g>
</g>
<!-- Node2 -->
<g id="node2" class="node">
<title>Node2</title>
<g id="a_node2"><a xlink:href="class_t_one_route.html#a53496c398dcdb3a644801c4e74d47d01" target="_top" xlink:title="Called after a non&#45;preferred (i.e. unrestricted) route has been selected and has finished flashing,...">
<polygon fill="white" stroke="black" points="595.5,-49.5 595.5,-79.5 753.5,-79.5 753.5,-49.5 595.5,-49.5"/>
<text text-anchor="start" x="603.5" y="-67.5" font-family="Helvetica,sans-Serif" font-size="10.00">TOneRoute::ConvertAndAdd</text>
<text text-anchor="middle" x="674.5" y="-56.5" font-family="Helvetica,sans-Serif" font-size="10.00">NonPreferredRouteSearchVector</text>
</a>
</g>
</g>
<!-- Node1&#45;&gt;Node2 -->
<g id="edge1" class="edge">
<title>Node1&#45;&gt;Node2</title>
<path fill="none" stroke="midnightblue" d="M786.95,-78.54C775.95,-77.16 764.66,-75.73 753.67,-74.35"/>
<polygon fill="midnightblue" stroke="midnightblue" points="786.6,-82.02 796.96,-79.8 787.47,-75.08 786.6,-82.02"/>
</g>
<!-- Node8 -->
<g id="node8" class="node">
<title>Node8</title>
<g id="a_node8"><a xlink:href="class_t_one_route.html#a36ba8adc8b4a47908ee4e1b8e75792ca" target="_top" xlink:title="Called after a preferred (i.e. preferred direction or automatic signals) route has been selected and ...">
<polygon fill="white" stroke="black" points="604.5,-147.5 604.5,-177.5 744.5,-177.5 744.5,-147.5 604.5,-147.5"/>
<text text-anchor="start" x="612.5" y="-165.5" font-family="Helvetica,sans-Serif" font-size="10.00">TOneRoute::ConvertAndAdd</text>
<text text-anchor="middle" x="674.5" y="-154.5" font-family="Helvetica,sans-Serif" font-size="10.00">PreferredRouteSearchVector</text>
</a>
</g>
</g>
<!-- Node1&#45;&gt;Node8 -->
<g id="edge7" class="edge">
<title>Node1&#45;&gt;Node8</title>
<path fill="none" stroke="midnightblue" d="M828.63,-108.21C808.88,-118.14 784.01,-129.86 761,-138.5 752.48,-141.7 743.35,-144.69 734.34,-147.41"/>
<polygon fill="midnightblue" stroke="midnightblue" points="830.28,-111.3 837.61,-103.65 827.11,-105.06 830.28,-111.3"/>
</g>
<!-- Node10 -->
<g id="node10" class="node">
<title>Node10</title>
<g id="a_node10"><a xlink:href="class_t_one_route.html#a59270c9b68d679ea29086216c21decfb" target="_top" xlink:title="Called by GetNextNonPreferredRouteElement to carry out the search for linked track,...">
<polygon fill="white" stroke="black" points="588,-0.5 588,-30.5 761,-30.5 761,-0.5 588,-0.5"/>
<text text-anchor="start" x="596" y="-18.5" font-family="Helvetica,sans-Serif" font-size="10.00">TOneRoute::SearchForNonPreferred</text>
<text text-anchor="middle" x="674.5" y="-7.5" font-family="Helvetica,sans-Serif" font-size="10.00">Route</text>
</a>
</g>
</g>
<!-- Node1&#45;&gt;Node10 -->
<g id="edge10" class="edge">
<title>Node1&#45;&gt;Node10</title>
<path fill="none" stroke="midnightblue" d="M826.98,-69.03C807.45,-59.71 783.27,-48.8 761,-40.5 751.58,-36.99 741.43,-33.65 731.53,-30.62"/>
<polygon fill="midnightblue" stroke="midnightblue" points="825.63,-72.27 836.16,-73.46 828.67,-65.97 825.63,-72.27"/>
</g>
<!-- Node12 -->
<g id="node12" class="node">
<title>Node12</title>
<g id="a_node12"><a xlink:href="class_t_one_route.html#a78f476e2ae0584ef8873414b53fd09b4" target="_top" xlink:title="Called by GetNextPreferredRouteElement to carry out the search for a valid route, and also called rec...">
<polygon fill="white" stroke="black" points="597,-98.5 597,-128.5 752,-128.5 752,-98.5 597,-98.5"/>
<text text-anchor="start" x="605" y="-116.5" font-family="Helvetica,sans-Serif" font-size="10.00">TOneRoute::SearchForPreferred</text>
<text text-anchor="middle" x="674.5" y="-105.5" font-family="Helvetica,sans-Serif" font-size="10.00">Route</text>
</a>
</g>
</g>
<!-- Node1&#45;&gt;Node12 -->
<g id="edge13" class="edge">
<title>Node1&#45;&gt;Node12</title>
<path fill="none" stroke="midnightblue" d="M786.92,-98.88C775.39,-100.39 763.53,-101.95 752.05,-103.45"/>
<polygon fill="midnightblue" stroke="midnightblue" points="787.5,-102.33 796.96,-97.56 786.59,-95.39 787.5,-102.33"/>
</g>
<!-- Node3 -->
<g id="node3" class="node">
<title>Node3</title>
<g id="a_node3"><a xlink:href="class_t_interface.html#a7e6535742855a19cb3e35b1711a7ab59" target="_top" xlink:title="Deal with any warning graphics that need to flash (call on, signal stop, crash etc),...">
<polygon fill="white" stroke="black" points="400,-141 400,-160 540,-160 540,-141 400,-141"/>
<text text-anchor="middle" x="470" y="-148" font-family="Helvetica,sans-Serif" font-size="10.00">TInterface::FlashingGraphics</text>
</a>
</g>
</g>
<!-- Node2&#45;&gt;Node3 -->
<g id="edge2" class="edge">
<title>Node2&#45;&gt;Node3</title>
<path fill="none" stroke="midnightblue" d="M597.98,-83.83C594.52,-85.56 591.18,-87.45 588,-89.5 567.35,-102.84 573.01,-118.73 552,-131.5 545.58,-135.4 538.43,-138.5 531.11,-140.97"/>
<polygon fill="midnightblue" stroke="midnightblue" points="599.69,-86.9 607.35,-79.58 596.8,-80.52 599.69,-86.9"/>
</g>
<!-- Node6 -->
<g id="node6" class="node">
<title>Node6</title>
<g id="a_node6"><a xlink:href="class_t_interface.html#abf07d5edc1507de381825f17620748b2" target="_top" xlink:title="Called when mouse button clicked in zoom&#45;in mode.">
<polygon fill="white" stroke="black" points="206,-47.5 206,-77.5 352,-77.5 352,-47.5 206,-47.5"/>
<text text-anchor="start" x="214" y="-65.5" font-family="Helvetica,sans-Serif" font-size="10.00">TInterface::MainScreenMouse</text>
<text text-anchor="middle" x="279" y="-54.5" font-family="Helvetica,sans-Serif" font-size="10.00">Down2</text>
</a>
</g>
</g>
<!-- Node2&#45;&gt;Node6 -->
<g id="edge5" class="edge">
<title>Node2&#45;&gt;Node6</title>
<path fill="none" stroke="midnightblue" d="M585.12,-64.05C514.83,-63.69 417.73,-63.2 352.1,-62.87"/>
<polygon fill="midnightblue" stroke="midnightblue" points="585.27,-67.55 595.29,-64.1 585.3,-60.55 585.27,-67.55"/>
</g>
<!-- Node4 -->
<g id="node4" class="node">
<title>Node4</title>
<g id="a_node4"><a xlink:href="class_t_interface.html#a6139ffb52492eb89e5487a8a3cd647b5" target="_top" xlink:title="The main loop, called every clock tick via MasterClockTimer.">
<polygon fill="white" stroke="black" points="219.5,-135 219.5,-154 338.5,-154 338.5,-135 219.5,-135"/>
<text text-anchor="middle" x="279" y="-142" font-family="Helvetica,sans-Serif" font-size="10.00">TInterface::ClockTimer2</text>
</a>
</g>
</g>
<!-- Node3&#45;&gt;Node4 -->
<g id="edge3" class="edge">
<title>Node3&#45;&gt;Node4</title>
<path fill="none" stroke="midnightblue" d="M389.93,-147.99C372.73,-147.44 354.83,-146.88 338.59,-146.36"/>
<polygon fill="midnightblue" stroke="midnightblue" points="389.86,-151.49 399.96,-148.31 390.08,-144.49 389.86,-151.49"/>
</g>
<!-- Node5 -->
<g id="node5" class="node">
<title>Node5</title>
<g id="a_node5"><a xlink:href="class_t_interface.html#ace30a12d923fc7fb489afabb0a09aa4f" target="_top" xlink:title=" ">
<polygon fill="white" stroke="black" points="13.5,-135 13.5,-154 156.5,-154 156.5,-135 13.5,-135"/>
<text text-anchor="middle" x="85" y="-142" font-family="Helvetica,sans-Serif" font-size="10.00">TInterface::MasterClockTimer</text>
</a>
</g>
</g>
<!-- Node4&#45;&gt;Node5 -->
<g id="edge4" class="edge">
<title>Node4&#45;&gt;Node5</title>
<path fill="none" stroke="midnightblue" d="M208.97,-144.5C192.02,-144.5 173.84,-144.5 156.8,-144.5"/>
<polygon fill="midnightblue" stroke="midnightblue" points="209.35,-148 219.35,-144.5 209.35,-141 209.35,-148"/>
</g>
<!-- Node7 -->
<g id="node7" class="node">
<title>Node7</title>
<g id="a_node7"><a xlink:href="class_t_interface.html#a7f37862fb9e01e1328d9fd3fd8c50094" target="_top" xlink:title=" ">
<polygon fill="white" stroke="black" points="0,-53 0,-72 170,-72 170,-53 0,-53"/>
<text text-anchor="middle" x="85" y="-60" font-family="Helvetica,sans-Serif" font-size="10.00">TInterface::MainScreenMouseDown</text>
</a>
</g>
</g>
<!-- Node6&#45;&gt;Node7 -->
<g id="edge6" class="edge">
<title>Node6&#45;&gt;Node7</title>
<path fill="none" stroke="midnightblue" d="M195.7,-62.5C187.22,-62.5 178.58,-62.5 170.08,-62.5"/>
<polygon fill="midnightblue" stroke="midnightblue" points="195.96,-66 205.96,-62.5 195.96,-59 195.96,-66"/>
</g>
<!-- Node8&#45;&gt;Node3 -->
<g id="edge8" class="edge">
<title>Node8&#45;&gt;Node3</title>
<path fill="none" stroke="midnightblue" d="M594.03,-157.79C576.23,-156.74 557.49,-155.63 540.15,-154.6"/>
<polygon fill="midnightblue" stroke="midnightblue" points="594.19,-161.31 604.38,-158.4 594.6,-154.32 594.19,-161.31"/>
</g>
<!-- Node9 -->
<g id="node9" class="node">
<title>Node9</title>
<g id="a_node9"><a xlink:href="class_t_interface.html#aa639148521a793641e694b15486b5055" target="_top" xlink:title=" ">
<polygon fill="white" stroke="black" points="215,-173.5 215,-203.5 343,-203.5 343,-173.5 215,-173.5"/>
<text text-anchor="start" x="223" y="-191.5" font-family="Helvetica,sans-Serif" font-size="10.00">TInterface::PresetAutoSig</text>
<text text-anchor="middle" x="279" y="-180.5" font-family="Helvetica,sans-Serif" font-size="10.00">RoutesButtonClick</text>
</a>
</g>
</g>
<!-- Node8&#45;&gt;Node9 -->
<g id="edge9" class="edge">
<title>Node8&#45;&gt;Node9</title>
<path fill="none" stroke="midnightblue" d="M593.86,-167.76C519.95,-172.65 411.36,-179.82 343.23,-184.32"/>
<polygon fill="midnightblue" stroke="midnightblue" points="594.31,-171.24 604.06,-167.09 593.85,-164.26 594.31,-171.24"/>
</g>
<!-- Node11 -->
<g id="node11" class="node">
<title>Node11</title>
<g id="a_node11"><a xlink:href="class_t_one_route.html#a997f3cb02d8e03d0a12769b8eb903674" target="_top" xlink:title="Try to find a set of linked tracks between the route start element and the one at HLoc &amp; VLoc....">
<polygon fill="white" stroke="black" points="388,-2.5 388,-32.5 552,-32.5 552,-2.5 388,-2.5"/>
<text text-anchor="start" x="396" y="-20.5" font-family="Helvetica,sans-Serif" font-size="10.00">TOneRoute::GetNextNonPreferred</text>
<text text-anchor="middle" x="470" y="-9.5" font-family="Helvetica,sans-Serif" font-size="10.00">RouteElement</text>
</a>
</g>
</g>
<!-- Node10&#45;&gt;Node11 -->
<g id="edge11" class="edge">
<title>Node10&#45;&gt;Node11</title>
<path fill="none" stroke="midnightblue" d="M577.84,-16.44C569.23,-16.53 560.56,-16.62 552.09,-16.7"/>
<polygon fill="midnightblue" stroke="midnightblue" points="577.95,-19.94 587.92,-16.35 577.88,-12.94 577.95,-19.94"/>
</g>
<!-- Node11&#45;&gt;Node6 -->
<g id="edge12" class="edge">
<title>Node11&#45;&gt;Node6</title>
<path fill="none" stroke="midnightblue" d="M395.72,-34.95C378.36,-39.08 360,-43.45 343.14,-47.47"/>
<polygon fill="midnightblue" stroke="midnightblue" points="396.89,-38.27 405.8,-32.55 395.26,-31.46 396.89,-38.27"/>
</g>
<!-- Node13 -->
<g id="node13" class="node">
<title>Node13</title>
<g id="a_node13"><a xlink:href="class_t_one_route.html#af1794f576d8aff59f83992afc1c5acc2" target="_top" xlink:title="Try to find a set of linked tracks that lie on preferred directions between the route start element a...">
<polygon fill="white" stroke="black" points="397,-91.5 397,-121.5 543,-121.5 543,-91.5 397,-91.5"/>
<text text-anchor="start" x="405" y="-109.5" font-family="Helvetica,sans-Serif" font-size="10.00">TOneRoute::GetNextPreferred</text>
<text text-anchor="middle" x="470" y="-98.5" font-family="Helvetica,sans-Serif" font-size="10.00">RouteElement</text>
</a>
</g>
</g>
<!-- Node12&#45;&gt;Node13 -->
<g id="edge14" class="edge">
<title>Node12&#45;&gt;Node13</title>
<path fill="none" stroke="midnightblue" d="M586.54,-110.49C572.12,-110 557.32,-109.48 543.32,-109"/>
<polygon fill="midnightblue" stroke="midnightblue" points="586.83,-114.01 596.94,-110.85 587.07,-107.01 586.83,-114.01"/>
</g>
<!-- Node13&#45;&gt;Node6 -->
<g id="edge15" class="edge">
<title>Node13&#45;&gt;Node6</title>
<path fill="none" stroke="midnightblue" d="M394.36,-89.12C377.89,-85.29 360.57,-81.26 344.54,-77.53"/>
<polygon fill="midnightblue" stroke="midnightblue" points="393.95,-92.62 404.49,-91.48 395.54,-85.8 393.95,-92.62"/>
</g>
<!-- Node13&#45;&gt;Node9 -->
<g id="edge16" class="edge">
<title>Node13&#45;&gt;Node9</title>
<path fill="none" stroke="midnightblue" d="M400.34,-125.37C396.08,-127.25 391.93,-129.29 388,-131.5 369.35,-142.01 370.47,-152.67 352,-163.5 345.61,-167.25 338.57,-170.55 331.47,-173.43"/>
<polygon fill="midnightblue" stroke="midnightblue" points="401.86,-128.52 409.8,-121.51 399.22,-122.04 401.86,-128.52"/>
</g>
</g>
</svg>
        <g id="navigator" transform="translate(0 0)" fill="#404254">
                <rect fill="#f2f5e9" fill-opacity="0.5" stroke="#606060" stroke-width=".5" x="0" y="0" width="60" height="60"/>
                <use id="zoomplus" xlink:href="#zoomPlus" x="17" y="9" onmousedown="handleZoom(evt,'in')"/>
                <use id="zoomminus" xlink:href="#zoomMin" x="42" y="9" onmousedown="handleZoom(evt,'out')"/>
                <use id="reset" xlink:href="#resetDef" x="30" y="36" onmousedown="handleReset()"/>
                <g id="arrowUp" xlink:href="#dirArrow" transform="translate(30 24)" onmousedown="handlePan(0,-1)">
                  <use xlink:href="#rim" fill="#404040">
                        <set attributeName="fill" to="#808080" begin="arrowUp.mouseover" end="arrowUp.mouseout"/>
                  </use>
                  <path fill="none" stroke="white" stroke-width="1.5" d="M0,-3.0v7 M-2.5,-0.5L0,-3.0L2.5,-0.5"/>
                </g>
                <g id="arrowRight" xlink:href="#dirArrow" transform="rotate(90) translate(36 -43)" onmousedown="handlePan(1,0)">
                  <use xlink:href="#rim" fill="#404040">
                        <set attributeName="fill" to="#808080" begin="arrowRight.mouseover" end="arrowRight.mouseout"/>
                  </use>
                  <path fill="none" stroke="white" stroke-width="1.5" d="M0,-3.0v7 M-2.5,-0.5L0,-3.0L2.5,-0.5"/>
                </g>
                <g id="arrowDown" xlink:href="#dirArrow" transform="rotate(180) translate(-30 -48)" onmousedown="handlePan(0,1)">
                  <use xlink:href="#rim" fill="#404040">
                        <set attributeName="fill" to="#808080" begin="arrowDown.mouseover" end="arrowDown.mouseout"/>
                  </use>
                  <path fill="none" stroke="white" stroke-width="1.5" d="M0,-3.0v7 M-2.5,-0.5L0,-3.0L2.5,-0.5"/>
                </g>
                <g id="arrowLeft" xlink:href="#dirArrow" transform="rotate(270) translate(-36 17)" onmousedown="handlePan(-1,0)">
                  <use xlink:href="#rim" fill="#404040">
                        <set attributeName="fill" to="#808080" begin="arrowLeft.mouseover" end="arrowLeft.mouseout"/>
                  </use>
                  <path fill="none" stroke="white" stroke-width="1.5" d="M0,-3.0v7 M-2.5,-0.5L0,-3.0L2.5,-0.5"/>
                </g>
        </g>
        <svg viewBox="0 0 15 15" width="100%" height="30px" preserveAspectRatio="xMaxYMin meet">
         <g id="arrow_out" transform="scale(0.3 0.3)">
          <a xlink:href="class_t_all_routes_a1913c6b3db0107874816d94a4d77e7a8_icgraph_org.svg" target="_base">
           <rect id="button" ry="5" rx="5" y="6" x="6" height="38" width="38"
                fill="#f2f5e9" fill-opacity="0.5" stroke="#606060" stroke-width="1.0"/>
           <path id="arrow"
             d="M 11.500037,31.436501 C 11.940474,20.09759 22.043105,11.32322 32.158766,21.979434 L 37.068811,17.246167 C 37.068811,17.246167 37.088388,32 37.088388,32 L 22.160133,31.978069 C 22.160133,31.978069 26.997745,27.140456 26.997745,27.140456 C 18.528582,18.264221 13.291696,25.230495 11.500037,31.436501 z"
             style="fill:#404040;"/>
          </a>
         </g>
        </svg>
</svg>
