<?xml version="1.0" encoding="UTF-8" standalone="no"?>
<!DOCTYPE svg PUBLIC "-//W3C//DTD SVG 1.1//EN"
 "http://www.w3.org/Graphics/SVG/1.1/DTD/svg11.dtd">
<!-- Generated by graphviz version 2.44.1 (20200629.0800)
 -->
<!-- Title: TTrack::FindSetAndDisplayMatchingGap Pages: 1 -->
<svg width="643pt" height="216pt"
 viewBox="0.00 0.00 643.00 216.31" xmlns="http://www.w3.org/2000/svg" xmlns:xlink="http://www.w3.org/1999/xlink">
<g id="graph0" class="graph" transform="scale(1 1) rotate(0) translate(4 212.31)">
<title>TTrack::FindSetAndDisplayMatchingGap</title>
<polygon fill="white" stroke="transparent" points="-4,4 -4,-212.31 639,-212.31 639,4 -4,4"/>
<!-- Node1 -->
<g id="node1" class="node">
<title>Node1</title>
<g id="a_node1"><a xlink:title="True if find an unset gap that matches the gap at HLoc &amp; VLoc, if find one mark it with a green circl...">
<polygon fill="#bfbfbf" stroke="black" points="0,-113.03 0,-143.03 135,-143.03 135,-113.03 0,-113.03"/>
<text text-anchor="start" x="8" y="-131.03" font-family="Helvetica,sans-Serif" font-size="10.00">TTrack::FindSetAndDisplay</text>
<text text-anchor="middle" x="67.5" y="-120.03" font-family="Helvetica,sans-Serif" font-size="10.00">MatchingGap</text>
</a>
</g>
</g>
<!-- Node2 -->
<g id="node2" class="node">
<title>Node2</title>
<g id="a_node2"><a xlink:href="class_t_utilities.html#ae1eddca13cc3c492839e131f40ec21c0" target="_top" xlink:title="pops the last entry off the call stack, throws an error if called when empty">
<polygon fill="white" stroke="black" points="525,-118.53 525,-137.53 635,-137.53 635,-118.53 525,-118.53"/>
<text text-anchor="middle" x="580" y="-125.53" font-family="Helvetica,sans-Serif" font-size="10.00">TUtilities::CallLogPop</text>
</a>
</g>
</g>
<!-- Node1&#45;&gt;Node2 -->
<g id="edge1" class="edge">
<title>Node1&#45;&gt;Node2</title>
<path fill="none" stroke="midnightblue" d="M100.09,-143.14C172.23,-175.38 353.31,-243.4 489,-185.03 510.37,-175.84 505.48,-159.69 525,-147.03 528.1,-145.02 531.44,-143.19 534.88,-141.54"/>
<polygon fill="midnightblue" stroke="midnightblue" points="536.35,-144.72 544.15,-137.55 533.58,-138.29 536.35,-144.72"/>
</g>
<!-- Node3 -->
<g id="node3" class="node">
<title>Node3</title>
<g id="a_node3"><a xlink:href="class_t_display.html#ac97de4f74b0b295de941320578d6da28" target="_top" xlink:title="Plot an ellipse at the defined position and with the defined colour.">
<polygon fill="white" stroke="black" points="379,-156.53 379,-175.53 468,-175.53 468,-156.53 379,-156.53"/>
<text text-anchor="middle" x="423.5" y="-163.53" font-family="Helvetica,sans-Serif" font-size="10.00">TDisplay::Ellipse</text>
</a>
</g>
</g>
<!-- Node1&#45;&gt;Node3 -->
<g id="edge2" class="edge">
<title>Node1&#45;&gt;Node3</title>
<path fill="none" stroke="midnightblue" d="M135.08,-135.18C202.72,-142.44 306.17,-153.55 368.77,-160.27"/>
<polygon fill="midnightblue" stroke="midnightblue" points="368.51,-163.76 378.83,-161.35 369.26,-156.8 368.51,-163.76"/>
</g>
<!-- Node4 -->
<g id="node4" class="node">
<title>Node4</title>
<g id="a_node4"><a xlink:href="class_t_utilities.html#a34bd6bb5305bc29afdf424f6d35a921c" target="_top" xlink:title="creates a string of the form &#39;hh:mm:ss&#39; for use in call &amp; event logging">
<polygon fill="white" stroke="black" points="525,-14.53 525,-33.53 635,-33.53 635,-14.53 525,-14.53"/>
<text text-anchor="middle" x="580" y="-21.53" font-family="Helvetica,sans-Serif" font-size="10.00">TUtilities::TimeStamp</text>
</a>
</g>
</g>
<!-- Node1&#45;&gt;Node4 -->
<g id="edge13" class="edge">
<title>Node1&#45;&gt;Node4</title>
<path fill="none" stroke="midnightblue" d="M92.74,-112.98C113.13,-100.71 143.31,-83.43 171,-71.03 251.3,-35.07 271.24,-20.68 358,-6.03 415.41,3.66 431.06,-0.3 489,-6.03 502.39,-7.36 516.75,-9.77 529.97,-12.41"/>
<polygon fill="midnightblue" stroke="midnightblue" points="529.32,-15.85 539.82,-14.45 530.74,-8.99 529.32,-15.85"/>
</g>
<!-- Node6 -->
<g id="node6" class="node">
<title>Node6</title>
<g id="a_node6"><a xlink:href="class_t_track.html#ad55e3329a208e84e9e7519cc024b7aec" target="_top" xlink:title="True if find a non&#45;platform element at HLoc &amp; VLoc, and if so return its TrackVector position and a r...">
<polygon fill="white" stroke="black" points="171,-80.53 171,-99.53 322,-99.53 322,-80.53 171,-80.53"/>
<text text-anchor="middle" x="246.5" y="-87.53" font-family="Helvetica,sans-Serif" font-size="10.00">TTrack::FindNonPlatformMatch</text>
</a>
</g>
</g>
<!-- Node1&#45;&gt;Node6 -->
<g id="edge6" class="edge">
<title>Node1&#45;&gt;Node6</title>
<path fill="none" stroke="midnightblue" d="M135.16,-113.72C153.6,-109.76 173.38,-105.52 191.03,-101.73"/>
<polygon fill="midnightblue" stroke="midnightblue" points="192.1,-105.08 201.14,-99.56 190.63,-98.23 192.1,-105.08"/>
</g>
<!-- Node3&#45;&gt;Node2 -->
<g id="edge3" class="edge">
<title>Node3&#45;&gt;Node2</title>
<path fill="none" stroke="midnightblue" d="M463.49,-156.44C483.78,-151.45 508.79,-145.3 530.35,-140"/>
<polygon fill="midnightblue" stroke="midnightblue" points="531.42,-143.34 540.29,-137.55 529.75,-136.54 531.42,-143.34"/>
</g>
<!-- Node3&#45;&gt;Node4 -->
<g id="edge4" class="edge">
<title>Node3&#45;&gt;Node4</title>
<path fill="none" stroke="midnightblue" d="M435.55,-156.46C448.48,-145.22 470.47,-125.97 489,-109.03 514.59,-85.65 543.66,-57.99 561.67,-40.72"/>
<polygon fill="midnightblue" stroke="midnightblue" points="564.33,-43.03 569.11,-33.58 559.48,-37.98 564.33,-43.03"/>
</g>
<!-- Node5 -->
<g id="node5" class="node">
<title>Node5</title>
<g id="a_node5"><a xlink:href="class_t_display.html#aa4f37ab2a4df6437a2219f303e1de40b" target="_top" xlink:title="Repaint the screen display.">
<polygon fill="white" stroke="black" points="534.5,-156.53 534.5,-175.53 625.5,-175.53 625.5,-156.53 534.5,-156.53"/>
<text text-anchor="middle" x="580" y="-163.53" font-family="Helvetica,sans-Serif" font-size="10.00">TDisplay::Update</text>
</a>
</g>
</g>
<!-- Node3&#45;&gt;Node5 -->
<g id="edge5" class="edge">
<title>Node3&#45;&gt;Node5</title>
<path fill="none" stroke="midnightblue" d="M468.36,-166.03C485.74,-166.03 505.92,-166.03 524.24,-166.03"/>
<polygon fill="midnightblue" stroke="midnightblue" points="524.49,-169.53 534.49,-166.03 524.49,-162.53 524.49,-169.53"/>
</g>
<!-- Node6&#45;&gt;Node2 -->
<g id="edge7" class="edge">
<title>Node6&#45;&gt;Node2</title>
<path fill="none" stroke="midnightblue" d="M297.42,-99.54C316.34,-102.9 338.11,-106.47 358,-109.03 410.62,-115.81 470.61,-120.79 514.8,-123.95"/>
<polygon fill="midnightblue" stroke="midnightblue" points="514.6,-127.45 524.82,-124.66 515.09,-120.47 514.6,-127.45"/>
</g>
<!-- Node6&#45;&gt;Node4 -->
<g id="edge12" class="edge">
<title>Node6&#45;&gt;Node4</title>
<path fill="none" stroke="midnightblue" d="M258.1,-80.49C276.69,-64.47 317.13,-32.75 358,-21.03 409.16,-6.37 469.76,-8.48 514.54,-13.49"/>
<polygon fill="midnightblue" stroke="midnightblue" points="514.37,-16.99 524.71,-14.7 515.2,-10.04 514.37,-16.99"/>
</g>
<!-- Node7 -->
<g id="node7" class="node">
<title>Node7</title>
<g id="a_node7"><a xlink:href="class_t_track.html#aa0812972d1ae27198c5fbca8aa7b6134" target="_top" xlink:title="Returns the track vector position corresponding to the Hloc &amp; VLoc positions, FoundFlag indicates whe...">
<polygon fill="white" stroke="black" points="358,-31.03 358,-61.03 489,-61.03 489,-31.03 358,-31.03"/>
<text text-anchor="start" x="366" y="-49.03" font-family="Helvetica,sans-Serif" font-size="10.00">TTrack::GetVectorPosition</text>
<text text-anchor="middle" x="423.5" y="-38.03" font-family="Helvetica,sans-Serif" font-size="10.00">FromTrackMap</text>
</a>
</g>
</g>
<!-- Node6&#45;&gt;Node7 -->
<g id="edge8" class="edge">
<title>Node6&#45;&gt;Node7</title>
<path fill="none" stroke="midnightblue" d="M285.47,-80.49C305.18,-75.53 329.87,-69.32 352.86,-63.54"/>
<polygon fill="midnightblue" stroke="midnightblue" points="353.74,-66.93 362.58,-61.1 352.03,-60.14 353.74,-66.93"/>
</g>
<!-- Node8 -->
<g id="node8" class="node">
<title>Node8</title>
<g id="a_node8"><a xlink:href="class_t_track_element.html#a100bff829c4dca820927affde4cb9e57" target="_top" xlink:title="Used to log track parameters for call stack logging.">
<polygon fill="white" stroke="black" points="359.5,-80.53 359.5,-99.53 487.5,-99.53 487.5,-80.53 359.5,-80.53"/>
<text text-anchor="middle" x="423.5" y="-87.53" font-family="Helvetica,sans-Serif" font-size="10.00">TTrackElement::LogTrack</text>
</a>
</g>
</g>
<!-- Node6&#45;&gt;Node8 -->
<g id="edge11" class="edge">
<title>Node6&#45;&gt;Node8</title>
<path fill="none" stroke="midnightblue" d="M322.22,-90.03C331.2,-90.03 340.36,-90.03 349.32,-90.03"/>
<polygon fill="midnightblue" stroke="midnightblue" points="349.32,-93.53 359.32,-90.03 349.32,-86.53 349.32,-93.53"/>
</g>
<!-- Node7&#45;&gt;Node2 -->
<g id="edge9" class="edge">
<title>Node7&#45;&gt;Node2</title>
<path fill="none" stroke="midnightblue" d="M467,-61.15C474.44,-64.18 482.03,-67.52 489,-71.03 513.33,-83.3 539.46,-100.33 557.26,-112.57"/>
<polygon fill="midnightblue" stroke="midnightblue" points="555.56,-115.65 565.76,-118.49 559.55,-109.9 555.56,-115.65"/>
</g>
<!-- Node7&#45;&gt;Node4 -->
<g id="edge10" class="edge">
<title>Node7&#45;&gt;Node4</title>
<path fill="none" stroke="midnightblue" d="M489.13,-36.83C497.69,-35.61 506.46,-34.36 515,-33.15"/>
<polygon fill="midnightblue" stroke="midnightblue" points="515.5,-36.61 524.91,-31.74 514.52,-29.68 515.5,-36.61"/>
</g>
</g>
</svg>
