<?xml version="1.0" encoding="UTF-8" standalone="no"?>
<!DOCTYPE svg PUBLIC "-//W3C//DTD SVG 1.1//EN"
 "http://www.w3.org/Graphics/SVG/1.1/DTD/svg11.dtd">
<!-- Generated by graphviz version 2.44.1 (20200629.0800)
 -->
<!-- Title: TTrack::EraseLocationAndActiveTrackElementNames Pages: 1 -->
<!--zoomable 476 -->
<svg id="main" version="1.1" xmlns="http://www.w3.org/2000/svg" xmlns:xlink="http://www.w3.org/1999/xlink" xml:space="preserve" onload="init(evt)">
<style type="text/css"><![CDATA[
.edge:hover path { stroke: red; }
.edge:hover polygon { stroke: red; fill: red; }
]]></style>
<script type="text/javascript"><![CDATA[
var edges = document.getElementsByTagName('g');
if (edges && edges.length) {
  for (var i=0;i<edges.length;i++) {
    if (edges[i].id.substr(0,4)=='edge') {
      edges[i].setAttribute('class','edge');
    }
  }
}
]]></script>
        <defs>
                <circle id="rim" cx="0" cy="0" r="7"/>
                <circle id="rim2" cx="0" cy="0" r="3.5"/>
                <g id="zoomPlus">
                        <use xlink:href="#rim" fill="#404040">
                                <set attributeName="fill" to="#808080" begin="zoomplus.mouseover" end="zoomplus.mouseout"/>
                        </use>
                        <path d="M-4,0h8M0,-4v8" fill="none" stroke="white" stroke-width="1.5" pointer-events="none"/>
                </g>
                <g id="zoomMin">
                        <use xlink:href="#rim" fill="#404040">
                                <set attributeName="fill" to="#808080" begin="zoomminus.mouseover" end="zoomminus.mouseout"/>
                        </use>
                        <path d="M-4,0h8" fill="none" stroke="white" stroke-width="1.5" pointer-events="none"/>
                </g>
                <g id="dirArrow">
                        <path fill="none" stroke="white" stroke-width="1.5" d="M0,-3.0v7 M-2.5,-0.5L0,-3.0L2.5,-0.5"/>
                </g>
               <g id="resetDef">
                       <use xlink:href="#rim2" fill="#404040">
                               <set attributeName="fill" to="#808080" begin="reset.mouseover" end="reset.mouseout"/>
                       </use>
               </g>
        </defs>

<script type="text/javascript">
var viewWidth = 664;
var viewHeight = 476;
var sectionId = 'dynsection-48';
</script>
<script xlink:href="svgpan.js"/>
<svg id="graph" class="graph">
<g id="viewport">
<title>TTrack::EraseLocationAndActiveTrackElementNames</title>
<polygon fill="white" stroke="transparent" points="-4,4 -4,-471.91 660,-471.91 660,4 -4,4"/>
<!-- Node1 -->
<g id="node1" class="node">
<title>Node1</title>
<g id="a_node1"><a xlink:title="Examines LocationNameMultiMap and if the LocationName is found all elements at that H &amp; V (in both ac...">
<polygon fill="#bfbfbf" stroke="black" points="0,-136.07 0,-166.07 134,-166.07 134,-136.07 0,-136.07"/>
<text text-anchor="start" x="8" y="-154.07" font-family="Helvetica,sans-Serif" font-size="10.00">TTrack::EraseLocationAnd</text>
<text text-anchor="middle" x="67" y="-143.07" font-family="Helvetica,sans-Serif" font-size="10.00">ActiveTrackElementNames</text>
</a>
</g>
</g>
<!-- Node2 -->
<g id="node2" class="node">
<title>Node2</title>
<g id="a_node2"><a xlink:href="class_t_utilities.html#ae1eddca13cc3c492839e131f40ec21c0" target="_top" xlink:title="pops the last entry off the call stack, throws an error if called when empty">
<polygon fill="white" stroke="black" points="546,-296.57 546,-315.57 656,-315.57 656,-296.57 546,-296.57"/>
<text text-anchor="middle" x="601" y="-303.57" font-family="Helvetica,sans-Serif" font-size="10.00">TUtilities::CallLogPop</text>
</a>
</g>
</g>
<!-- Node1&#45;&gt;Node2 -->
<g id="edge1" class="edge">
<title>Node1&#45;&gt;Node2</title>
<path fill="none" stroke="midnightblue" d="M73.37,-166.23C85.88,-199.82 119.76,-281.71 170,-334.07 237.13,-404.03 262.68,-421.75 356,-448.07 421.87,-466.65 450.03,-481.06 510,-448.07 558.02,-421.65 584.02,-357.59 594.46,-325.32"/>
<polygon fill="midnightblue" stroke="midnightblue" points="597.83,-326.29 597.42,-315.7 591.14,-324.23 597.83,-326.29"/>
</g>
<!-- Node3 -->
<g id="node3" class="node">
<title>Node3</title>
<g id="a_node3"><a xlink:href="class_t_track.html#aaf3f48b8df9877499aaf4c05f804426c" target="_top" xlink:title="Validity test.">
<polygon fill="white" stroke="black" points="174,-294.07 174,-324.07 316,-324.07 316,-294.07 174,-294.07"/>
<text text-anchor="start" x="182" y="-312.07" font-family="Helvetica,sans-Serif" font-size="10.00">TTrack::CheckLocationName</text>
<text text-anchor="middle" x="245" y="-301.07" font-family="Helvetica,sans-Serif" font-size="10.00">MultiMap</text>
</a>
</g>
</g>
<!-- Node1&#45;&gt;Node3 -->
<g id="edge2" class="edge">
<title>Node1&#45;&gt;Node3</title>
<path fill="none" stroke="midnightblue" d="M84.88,-166.22C116.15,-194.3 183.23,-254.51 219.5,-287.08"/>
<polygon fill="midnightblue" stroke="midnightblue" points="217.4,-289.89 227.18,-293.97 222.07,-284.68 217.4,-289.89"/>
</g>
<!-- Node5 -->
<g id="node5" class="node">
<title>Node5</title>
<g id="a_node5"><a xlink:href="class_t_utilities.html#a34bd6bb5305bc29afdf424f6d35a921c" target="_top" xlink:title="creates a string of the form &#39;hh:mm:ss&#39; for use in call &amp; event logging">
<polygon fill="white" stroke="black" points="546,-182.57 546,-201.57 656,-201.57 656,-182.57 546,-182.57"/>
<text text-anchor="middle" x="601" y="-189.57" font-family="Helvetica,sans-Serif" font-size="10.00">TUtilities::TimeStamp</text>
</a>
</g>
</g>
<!-- Node1&#45;&gt;Node5 -->
<g id="edge27" class="edge">
<title>Node1&#45;&gt;Node5</title>
<path fill="none" stroke="midnightblue" d="M84.77,-136.05C103.99,-119.62 137.12,-93.69 170,-79.07 309.13,-17.21 378.05,38.9 510,-37.07 561.34,-66.63 586.1,-137.96 595.41,-172.57"/>
<polygon fill="midnightblue" stroke="midnightblue" points="592.06,-173.59 597.91,-182.42 598.85,-171.87 592.06,-173.59"/>
</g>
<!-- Node8 -->
<g id="node8" class="node">
<title>Node8</title>
<g id="a_node8"><a xlink:href="class_t_track.html#ae37fe26f1d8ed9ef0f498ae12347e0ac" target="_top" xlink:title="Takes an adjusted vector position value from either vector (if active, Position = &#45;TruePos &#45;1,...">
<polygon fill="white" stroke="black" points="170,-180.07 170,-210.07 320,-210.07 320,-180.07 170,-180.07"/>
<text text-anchor="start" x="178" y="-198.07" font-family="Helvetica,sans-Serif" font-size="10.00">TTrack::GetTrackVectorIterator</text>
<text text-anchor="middle" x="245" y="-187.07" font-family="Helvetica,sans-Serif" font-size="10.00">FromNamePosition</text>
</a>
</g>
</g>
<!-- Node1&#45;&gt;Node8 -->
<g id="edge14" class="edge">
<title>Node1&#45;&gt;Node8</title>
<path fill="none" stroke="midnightblue" d="M128.08,-166.09C142.86,-169.79 158.82,-173.78 174.03,-177.58"/>
<polygon fill="midnightblue" stroke="midnightblue" points="173.34,-181.01 183.9,-180.04 175.04,-174.22 173.34,-181.01"/>
</g>
<!-- Node9 -->
<g id="node9" class="node">
<title>Node9</title>
<g id="a_node9"><a xlink:href="class_t_track.html#ad377e5a1f152f2e89832c0f9bcfd261f" target="_top" xlink:title="A range&#45;checked version of TrackElement.at(At)">
<polygon fill="white" stroke="black" points="372,-144.57 372,-163.57 494,-163.57 494,-144.57 372,-144.57"/>
<text text-anchor="middle" x="433" y="-151.57" font-family="Helvetica,sans-Serif" font-size="10.00">TTrack::TrackElementAt</text>
</a>
</g>
</g>
<!-- Node1&#45;&gt;Node9 -->
<g id="edge28" class="edge">
<title>Node1&#45;&gt;Node9</title>
<path fill="none" stroke="midnightblue" d="M134.34,-151.62C198.67,-152.15 295.92,-152.95 361.59,-153.49"/>
<polygon fill="midnightblue" stroke="midnightblue" points="361.82,-156.99 371.85,-153.58 361.88,-149.99 361.82,-156.99"/>
</g>
<!-- Node10 -->
<g id="node10" class="node">
<title>Node10</title>
<g id="a_node10"><a xlink:href="class_t_track.html#aa0812972d1ae27198c5fbca8aa7b6134" target="_top" xlink:title="Returns the track vector position corresponding to the Hloc &amp; VLoc positions, FoundFlag indicates whe...">
<polygon fill="white" stroke="black" points="367.5,-46.07 367.5,-76.07 498.5,-76.07 498.5,-46.07 367.5,-46.07"/>
<text text-anchor="start" x="375.5" y="-64.07" font-family="Helvetica,sans-Serif" font-size="10.00">TTrack::GetVectorPosition</text>
<text text-anchor="middle" x="433" y="-53.07" font-family="Helvetica,sans-Serif" font-size="10.00">FromTrackMap</text>
</a>
</g>
</g>
<!-- Node1&#45;&gt;Node10 -->
<g id="edge21" class="edge">
<title>Node1&#45;&gt;Node10</title>
<path fill="none" stroke="midnightblue" d="M112.95,-136.05C130.63,-130.39 151.17,-124.1 170,-119.07 232.69,-102.33 304.71,-86.64 357.36,-75.81"/>
<polygon fill="midnightblue" stroke="midnightblue" points="358.2,-79.21 367.29,-73.78 356.79,-72.35 358.2,-79.21"/>
</g>
<!-- Node11 -->
<g id="node11" class="node">
<title>Node11</title>
<g id="a_node11"><a xlink:href="class_t_track.html#a4a948544c9ac877232ec721db8bfc914" target="_top" xlink:title="Clears the existing LocationNameMultiMap and rebuilds it from TrackVector and InactiveTrackVector....">
<polygon fill="white" stroke="black" points="360,-95.07 360,-125.07 506,-125.07 506,-95.07 360,-95.07"/>
<text text-anchor="start" x="368" y="-113.07" font-family="Helvetica,sans-Serif" font-size="10.00">TTrack::RebuildLocationName</text>
<text text-anchor="middle" x="433" y="-102.07" font-family="Helvetica,sans-Serif" font-size="10.00">MultiMap</text>
</a>
</g>
</g>
<!-- Node1&#45;&gt;Node11 -->
<g id="edge24" class="edge">
<title>Node1&#45;&gt;Node11</title>
<path fill="none" stroke="midnightblue" d="M134.34,-143.6C194.87,-136.78 284.56,-126.68 349.65,-119.35"/>
<polygon fill="midnightblue" stroke="midnightblue" points="350.34,-122.79 359.88,-118.19 349.55,-115.84 350.34,-122.79"/>
</g>
<!-- Node3&#45;&gt;Node2 -->
<g id="edge3" class="edge">
<title>Node3&#45;&gt;Node2</title>
<path fill="none" stroke="midnightblue" d="M254.79,-324.36C270.91,-350.65 307.98,-403.55 356,-424.07 418.94,-450.96 448.66,-454.43 510,-424.07 551.77,-403.4 579.45,-353.02 592.09,-325.24"/>
<polygon fill="midnightblue" stroke="midnightblue" points="595.41,-326.38 596.2,-315.81 589,-323.58 595.41,-326.38"/>
</g>
<!-- Node4 -->
<g id="node4" class="node">
<title>Node4</title>
<g id="a_node4"><a xlink:href="class_t_track.html#a694370e3ec67d43da1d8333e06d9ebba" target="_top" xlink:title="Searches LocationNameMultiMap to check if the element pointed to by the TTrackVectorIterator has the ...">
<polygon fill="white" stroke="black" points="364.5,-335.07 364.5,-365.07 501.5,-365.07 501.5,-335.07 364.5,-335.07"/>
<text text-anchor="start" x="372.5" y="-353.07" font-family="Helvetica,sans-Serif" font-size="10.00">TTrack::FindNamedElement</text>
<text text-anchor="middle" x="433" y="-342.07" font-family="Helvetica,sans-Serif" font-size="10.00">InLocationNameMultiMap</text>
</a>
</g>
</g>
<!-- Node3&#45;&gt;Node4 -->
<g id="edge4" class="edge">
<title>Node3&#45;&gt;Node4</title>
<path fill="none" stroke="midnightblue" d="M314.2,-324.11C327.26,-326.98 341.01,-330.02 354.34,-332.95"/>
<polygon fill="midnightblue" stroke="midnightblue" points="353.91,-336.44 364.43,-335.18 355.41,-329.61 353.91,-336.44"/>
</g>
<!-- Node3&#45;&gt;Node5 -->
<g id="edge13" class="edge">
<title>Node3&#45;&gt;Node5</title>
<path fill="none" stroke="midnightblue" d="M269.14,-294.03C290.82,-280.55 324.5,-261.09 356,-249.07 389.59,-236.26 481.53,-216.23 542.47,-203.64"/>
<polygon fill="midnightblue" stroke="midnightblue" points="543.25,-207.05 552.34,-201.61 541.84,-200.2 543.25,-207.05"/>
</g>
<!-- Node6 -->
<g id="node6" class="node">
<title>Node6</title>
<g id="a_node6"><a xlink:href="class_t_track.html#a418966e6fefb71b9d0c9b941197832da" target="_top" xlink:title="Similar to GetVectorPositionFromTrackMap but for inactive elements, a pair is returned because there ...">
<polygon fill="white" stroke="black" points="364.5,-384.07 364.5,-414.07 501.5,-414.07 501.5,-384.07 364.5,-384.07"/>
<text text-anchor="start" x="372.5" y="-402.07" font-family="Helvetica,sans-Serif" font-size="10.00">TTrack::GetVectorPositions</text>
<text text-anchor="middle" x="433" y="-391.07" font-family="Helvetica,sans-Serif" font-size="10.00">FromInactiveTrackMap</text>
</a>
</g>
</g>
<!-- Node3&#45;&gt;Node6 -->
<g id="edge7" class="edge">
<title>Node3&#45;&gt;Node6</title>
<path fill="none" stroke="midnightblue" d="M267.91,-324.33C289.53,-338.87 323.92,-360.62 356,-375.07 360.16,-376.94 364.5,-378.73 368.92,-380.43"/>
<polygon fill="midnightblue" stroke="midnightblue" points="368.07,-383.84 378.66,-383.98 370.47,-377.26 368.07,-383.84"/>
</g>
<!-- Node7 -->
<g id="node7" class="node">
<title>Node7</title>
<g id="a_node7"><a xlink:href="class_t_track.html#a51f89cf70e94b037f6378cd78003d82b" target="_top" xlink:title="A range&#45;checked version of InactiveTrackElement.at(At)">
<polygon fill="white" stroke="black" points="356,-258.57 356,-277.57 510,-277.57 510,-258.57 356,-258.57"/>
<text text-anchor="middle" x="433" y="-265.57" font-family="Helvetica,sans-Serif" font-size="10.00">TTrack::InactiveTrackElementAt</text>
</a>
</g>
</g>
<!-- Node3&#45;&gt;Node7 -->
<g id="edge10" class="edge">
<title>Node3&#45;&gt;Node7</title>
<path fill="none" stroke="midnightblue" d="M314.2,-294.04C335.49,-289.34 358.65,-284.24 378.75,-279.81"/>
<polygon fill="midnightblue" stroke="midnightblue" points="379.64,-283.2 388.66,-277.63 378.14,-276.36 379.64,-283.2"/>
</g>
<!-- Node4&#45;&gt;Node2 -->
<g id="edge5" class="edge">
<title>Node4&#45;&gt;Node2</title>
<path fill="none" stroke="midnightblue" d="M490.66,-335.05C511.3,-329.58 534.36,-323.47 553.96,-318.27"/>
<polygon fill="midnightblue" stroke="midnightblue" points="555.09,-321.59 563.86,-315.65 553.3,-314.83 555.09,-321.59"/>
</g>
<!-- Node4&#45;&gt;Node5 -->
<g id="edge6" class="edge">
<title>Node4&#45;&gt;Node5</title>
<path fill="none" stroke="midnightblue" d="M453.6,-334.9C469.28,-322.5 491.61,-304.29 510,-287.07 537.72,-261.13 567.61,-228.57 585.01,-209.09"/>
<polygon fill="midnightblue" stroke="midnightblue" points="587.64,-211.4 591.67,-201.6 582.41,-206.75 587.64,-211.4"/>
</g>
<!-- Node6&#45;&gt;Node2 -->
<g id="edge8" class="edge">
<title>Node6&#45;&gt;Node2</title>
<path fill="none" stroke="midnightblue" d="M489.71,-383.97C496.69,-381.36 503.62,-378.39 510,-375.07 537.46,-360.77 565.15,-338 582.42,-322.56"/>
<polygon fill="midnightblue" stroke="midnightblue" points="584.98,-324.97 590.02,-315.64 580.27,-319.79 584.98,-324.97"/>
</g>
<!-- Node6&#45;&gt;Node5 -->
<g id="edge9" class="edge">
<title>Node6&#45;&gt;Node5</title>
<path fill="none" stroke="midnightblue" d="M497.43,-384.04C501.97,-381.51 506.23,-378.54 510,-375.07 541.09,-346.45 527.52,-325.07 546,-287.07 559.28,-259.76 577.07,-229.45 588.53,-210.58"/>
<polygon fill="midnightblue" stroke="midnightblue" points="591.66,-212.18 593.9,-201.83 585.69,-208.53 591.66,-212.18"/>
</g>
<!-- Node7&#45;&gt;Node2 -->
<g id="edge11" class="edge">
<title>Node7&#45;&gt;Node2</title>
<path fill="none" stroke="midnightblue" d="M475.89,-277.66C497.89,-282.7 525.05,-288.91 548.35,-294.25"/>
<polygon fill="midnightblue" stroke="midnightblue" points="547.88,-297.73 558.41,-296.55 549.45,-290.91 547.88,-297.73"/>
</g>
<!-- Node7&#45;&gt;Node5 -->
<g id="edge12" class="edge">
<title>Node7&#45;&gt;Node5</title>
<path fill="none" stroke="midnightblue" d="M469.78,-258.53C482.68,-254.63 497.21,-249.7 510,-244.07 533.77,-233.6 559.25,-218.47 577.02,-207.23"/>
<polygon fill="midnightblue" stroke="midnightblue" points="579.03,-210.09 585.55,-201.75 575.25,-204.2 579.03,-210.09"/>
</g>
<!-- Node8&#45;&gt;Node2 -->
<g id="edge15" class="edge">
<title>Node8&#45;&gt;Node2</title>
<path fill="none" stroke="midnightblue" d="M258.36,-210.11C276.98,-231.54 314.5,-270.15 356,-287.07 413.61,-310.56 485.13,-313.39 535.81,-311.52"/>
<polygon fill="midnightblue" stroke="midnightblue" points="536.14,-315.01 545.98,-311.07 535.83,-308.01 536.14,-315.01"/>
</g>
<!-- Node8&#45;&gt;Node5 -->
<g id="edge17" class="edge">
<title>Node8&#45;&gt;Node5</title>
<path fill="none" stroke="midnightblue" d="M320.21,-194.44C383.94,-193.9 474.86,-193.13 535.58,-192.62"/>
<polygon fill="midnightblue" stroke="midnightblue" points="535.83,-196.12 545.8,-192.53 535.77,-189.12 535.83,-196.12"/>
</g>
<!-- Node8&#45;&gt;Node7 -->
<g id="edge16" class="edge">
<title>Node8&#45;&gt;Node7</title>
<path fill="none" stroke="midnightblue" d="M284.54,-210.2C318.1,-223.37 366.26,-242.27 398.31,-254.85"/>
<polygon fill="midnightblue" stroke="midnightblue" points="397.11,-258.14 407.7,-258.53 399.67,-251.62 397.11,-258.14"/>
</g>
<!-- Node8&#45;&gt;Node9 -->
<g id="edge18" class="edge">
<title>Node8&#45;&gt;Node9</title>
<path fill="none" stroke="midnightblue" d="M314.2,-180.04C335.49,-175.34 358.65,-170.24 378.75,-165.81"/>
<polygon fill="midnightblue" stroke="midnightblue" points="379.64,-169.2 388.66,-163.63 378.14,-162.36 379.64,-169.2"/>
</g>
<!-- Node9&#45;&gt;Node2 -->
<g id="edge19" class="edge">
<title>Node9&#45;&gt;Node2</title>
<path fill="none" stroke="midnightblue" d="M444.38,-163.58C471.98,-188.85 547.41,-257.92 582.11,-289.69"/>
<polygon fill="midnightblue" stroke="midnightblue" points="579.88,-292.39 589.62,-296.57 584.61,-287.23 579.88,-292.39"/>
</g>
<!-- Node9&#45;&gt;Node5 -->
<g id="edge20" class="edge">
<title>Node9&#45;&gt;Node5</title>
<path fill="none" stroke="midnightblue" d="M475.89,-163.66C497.89,-168.7 525.05,-174.91 548.35,-180.25"/>
<polygon fill="midnightblue" stroke="midnightblue" points="547.88,-183.73 558.41,-182.55 549.45,-176.91 547.88,-183.73"/>
</g>
<!-- Node10&#45;&gt;Node2 -->
<g id="edge22" class="edge">
<title>Node10&#45;&gt;Node2</title>
<path fill="none" stroke="midnightblue" d="M497.14,-76.1C501.86,-78.88 506.24,-82.17 510,-86.07 550.11,-127.71 523.56,-157.79 546,-211.07 557.79,-239.06 575.95,-269.2 587.91,-287.85"/>
<polygon fill="midnightblue" stroke="midnightblue" points="585.14,-290.01 593.52,-296.48 591,-286.19 585.14,-290.01"/>
</g>
<!-- Node10&#45;&gt;Node5 -->
<g id="edge23" class="edge">
<title>Node10&#45;&gt;Node5</title>
<path fill="none" stroke="midnightblue" d="M491.64,-76.22C498.08,-79.01 504.35,-82.27 510,-86.07 544.85,-109.53 573.91,-150.07 588.95,-173.64"/>
<polygon fill="midnightblue" stroke="midnightblue" points="586.09,-175.68 594.34,-182.32 592.04,-171.98 586.09,-175.68"/>
</g>
<!-- Node11&#45;&gt;Node2 -->
<g id="edge25" class="edge">
<title>Node11&#45;&gt;Node2</title>
<path fill="none" stroke="midnightblue" d="M495.36,-125.18C500.64,-127.94 505.63,-131.21 510,-135.07 538.02,-159.8 528.75,-177.91 546,-211.07 560.09,-238.16 577.81,-268.74 589.02,-287.71"/>
<polygon fill="midnightblue" stroke="midnightblue" points="586.12,-289.68 594.24,-296.49 592.14,-286.11 586.12,-289.68"/>
</g>
<!-- Node11&#45;&gt;Node5 -->
<g id="edge26" class="edge">
<title>Node11&#45;&gt;Node5</title>
<path fill="none" stroke="midnightblue" d="M485.77,-125.19C494.01,-128.14 502.34,-131.45 510,-135.07 534.78,-146.77 561.03,-164.02 578.74,-176.48"/>
<polygon fill="midnightblue" stroke="midnightblue" points="577,-179.54 587.17,-182.5 581.07,-173.84 577,-179.54"/>
</g>
</g>
</svg>
        <g id="navigator" transform="translate(0 0)" fill="#404254">
                <rect fill="#f2f5e9" fill-opacity="0.5" stroke="#606060" stroke-width=".5" x="0" y="0" width="60" height="60"/>
                <use id="zoomplus" xlink:href="#zoomPlus" x="17" y="9" onmousedown="handleZoom(evt,'in')"/>
                <use id="zoomminus" xlink:href="#zoomMin" x="42" y="9" onmousedown="handleZoom(evt,'out')"/>
                <use id="reset" xlink:href="#resetDef" x="30" y="36" onmousedown="handleReset()"/>
                <g id="arrowUp" xlink:href="#dirArrow" transform="translate(30 24)" onmousedown="handlePan(0,-1)">
                  <use xlink:href="#rim" fill="#404040">
                        <set attributeName="fill" to="#808080" begin="arrowUp.mouseover" end="arrowUp.mouseout"/>
                  </use>
                  <path fill="none" stroke="white" stroke-width="1.5" d="M0,-3.0v7 M-2.5,-0.5L0,-3.0L2.5,-0.5"/>
                </g>
                <g id="arrowRight" xlink:href="#dirArrow" transform="rotate(90) translate(36 -43)" onmousedown="handlePan(1,0)">
                  <use xlink:href="#rim" fill="#404040">
                        <set attributeName="fill" to="#808080" begin="arrowRight.mouseover" end="arrowRight.mouseout"/>
                  </use>
                  <path fill="none" stroke="white" stroke-width="1.5" d="M0,-3.0v7 M-2.5,-0.5L0,-3.0L2.5,-0.5"/>
                </g>
                <g id="arrowDown" xlink:href="#dirArrow" transform="rotate(180) translate(-30 -48)" onmousedown="handlePan(0,1)">
                  <use xlink:href="#rim" fill="#404040">
                        <set attributeName="fill" to="#808080" begin="arrowDown.mouseover" end="arrowDown.mouseout"/>
                  </use>
                  <path fill="none" stroke="white" stroke-width="1.5" d="M0,-3.0v7 M-2.5,-0.5L0,-3.0L2.5,-0.5"/>
                </g>
                <g id="arrowLeft" xlink:href="#dirArrow" transform="rotate(270) translate(-36 17)" onmousedown="handlePan(-1,0)">
                  <use xlink:href="#rim" fill="#404040">
                        <set attributeName="fill" to="#808080" begin="arrowLeft.mouseover" end="arrowLeft.mouseout"/>
                  </use>
                  <path fill="none" stroke="white" stroke-width="1.5" d="M0,-3.0v7 M-2.5,-0.5L0,-3.0L2.5,-0.5"/>
                </g>
        </g>
        <svg viewBox="0 0 15 15" width="100%" height="30px" preserveAspectRatio="xMaxYMin meet">
         <g id="arrow_out" transform="scale(0.3 0.3)">
          <a xlink:href="class_t_track_a13a1cc9770c8729d04ad4c0130f91634_cgraph_org.svg" target="_base">
           <rect id="button" ry="5" rx="5" y="6" x="6" height="38" width="38"
                fill="#f2f5e9" fill-opacity="0.5" stroke="#606060" stroke-width="1.0"/>
           <path id="arrow"
             d="M 11.500037,31.436501 C 11.940474,20.09759 22.043105,11.32322 32.158766,21.979434 L 37.068811,17.246167 C 37.068811,17.246167 37.088388,32 37.088388,32 L 22.160133,31.978069 C 22.160133,31.978069 26.997745,27.140456 26.997745,27.140456 C 18.528582,18.264221 13.291696,25.230495 11.500037,31.436501 z"
             style="fill:#404040;"/>
          </a>
         </g>
        </svg>
</svg>
