<?xml version="1.0" encoding="UTF-8" standalone="no"?>
<!DOCTYPE svg PUBLIC "-//W3C//DTD SVG 1.1//EN"
 "http://www.w3.org/Graphics/SVG/1.1/DTD/svg11.dtd">
<!-- Generated by graphviz version 2.44.1 (20200629.0800)
 -->
<!-- Title: TOnePrefDir::CalcDistanceAndSpeed Pages: 1 -->
<svg width="474pt" height="255pt"
 viewBox="0.00 0.00 474.00 254.52" xmlns="http://www.w3.org/2000/svg" xmlns:xlink="http://www.w3.org/1999/xlink">
<g id="graph0" class="graph" transform="scale(1 1) rotate(0) translate(4 250.52)">
<title>TOnePrefDir::CalcDistanceAndSpeed</title>
<polygon fill="white" stroke="transparent" points="-4,4 -4,-250.52 470,-250.52 470,4 -4,4"/>
<!-- Node1 -->
<g id="node1" class="node">
<title>Node1</title>
<g id="a_node1"><a xlink:title="Used when setting element lengths, returns in &amp;OverallDistance the overall distance for the selected ...">
<polygon fill="#bfbfbf" stroke="black" points="0,-109 0,-139 133,-139 133,-109 0,-109"/>
<text text-anchor="start" x="8" y="-127" font-family="Helvetica,sans-Serif" font-size="10.00">TOnePrefDir::CalcDistance</text>
<text text-anchor="middle" x="66.5" y="-116" font-family="Helvetica,sans-Serif" font-size="10.00">AndSpeed</text>
</a>
</g>
</g>
<!-- Node2 -->
<g id="node2" class="node">
<title>Node2</title>
<g id="a_node2"><a xlink:href="class_t_utilities.html#ae1eddca13cc3c492839e131f40ec21c0" target="_top" xlink:title="&lt; specifies whether no delays or minor, moderate or major random delays are to be applied">
<polygon fill="white" stroke="black" points="356,-202.5 356,-221.5 466,-221.5 466,-202.5 356,-202.5"/>
<text text-anchor="middle" x="411" y="-209.5" font-family="Helvetica,sans-Serif" font-size="10.00">TUtilities::CallLogPop</text>
</a>
</g>
</g>
<!-- Node1&#45;&gt;Node2 -->
<g id="edge1" class="edge">
<title>Node1&#45;&gt;Node2</title>
<path fill="none" stroke="midnightblue" d="M76.06,-139.01C91.13,-163.72 125.01,-212.1 169,-231 237.22,-260.32 326.25,-240.04 374.74,-224.71"/>
<polygon fill="midnightblue" stroke="midnightblue" points="376.04,-227.97 384.45,-221.54 373.86,-221.32 376.04,-227.97"/>
</g>
<!-- Node3 -->
<g id="node3" class="node">
<title>Node3</title>
<g id="a_node3"><a xlink:href="class_t_pref_dir_element.html#aa5944dedfb065d9e251c26b28fff69f6" target="_top" xlink:title="Returns the ELink array position.">
<polygon fill="white" stroke="black" points="169,-76.5 169,-95.5 320,-95.5 320,-76.5 169,-76.5"/>
<text text-anchor="middle" x="244.5" y="-83.5" font-family="Helvetica,sans-Serif" font-size="10.00">TPrefDirElement::GetELinkPos</text>
</a>
</g>
</g>
<!-- Node1&#45;&gt;Node3 -->
<g id="edge2" class="edge">
<title>Node1&#45;&gt;Node3</title>
<path fill="none" stroke="midnightblue" d="M133.04,-109.85C151.5,-105.86 171.38,-101.57 189.11,-97.74"/>
<polygon fill="midnightblue" stroke="midnightblue" points="190.24,-101.08 199.28,-95.55 188.77,-94.24 190.24,-101.08"/>
</g>
<!-- Node4 -->
<g id="node4" class="node">
<title>Node4</title>
<g id="a_node4"><a xlink:href="class_t_one_pref_dir.html#a5b67e5aaa86d324229aedc68f32f32b8" target="_top" xlink:title="Return a non&#45;modifiable element at PrefDirVector position &#39;At&#39;.">
<polygon fill="white" stroke="black" points="178.5,-153 178.5,-183 310.5,-183 310.5,-153 178.5,-153"/>
<text text-anchor="start" x="186.5" y="-171" font-family="Helvetica,sans-Serif" font-size="10.00">TOnePrefDir::GetFixedPref</text>
<text text-anchor="middle" x="244.5" y="-160" font-family="Helvetica,sans-Serif" font-size="10.00">DirElementAt</text>
</a>
</g>
</g>
<!-- Node1&#45;&gt;Node4 -->
<g id="edge3" class="edge">
<title>Node1&#45;&gt;Node4</title>
<path fill="none" stroke="midnightblue" d="M127.58,-139.02C142.36,-142.72 158.32,-146.71 173.53,-150.51"/>
<polygon fill="midnightblue" stroke="midnightblue" points="172.84,-153.94 183.4,-152.97 174.54,-147.15 172.84,-153.94"/>
</g>
<!-- Node5 -->
<g id="node5" class="node">
<title>Node5</title>
<g id="a_node5"><a xlink:href="class_t_utilities.html#a34bd6bb5305bc29afdf424f6d35a921c" target="_top" xlink:title="creates a string of the form &#39;hh:mm:ss&#39; for use in call &amp; event logging">
<polygon fill="white" stroke="black" points="356,-158.5 356,-177.5 466,-177.5 466,-158.5 356,-158.5"/>
<text text-anchor="middle" x="411" y="-165.5" font-family="Helvetica,sans-Serif" font-size="10.00">TUtilities::TimeStamp</text>
</a>
</g>
</g>
<!-- Node1&#45;&gt;Node5 -->
<g id="edge11" class="edge">
<title>Node1&#45;&gt;Node5</title>
<path fill="none" stroke="midnightblue" d="M133.07,-125.42C184.29,-127.37 257.1,-132.01 320,-143 337.04,-145.98 355.5,-150.81 371.24,-155.44"/>
<polygon fill="midnightblue" stroke="midnightblue" points="370.56,-158.89 381.15,-158.43 372.58,-152.19 370.56,-158.89"/>
</g>
<!-- Node6 -->
<g id="node6" class="node">
<title>Node6</title>
<g id="a_node6"><a xlink:href="class_t_pref_dir_element.html#a35cd9c18012bd537fa988a32c510b01b" target="_top" xlink:title="Returns the XLink array position.">
<polygon fill="white" stroke="black" points="170,-38.5 170,-57.5 319,-57.5 319,-38.5 170,-38.5"/>
<text text-anchor="middle" x="244.5" y="-45.5" font-family="Helvetica,sans-Serif" font-size="10.00">TPrefDirElement::GetXLinkPos</text>
</a>
</g>
</g>
<!-- Node1&#45;&gt;Node6 -->
<g id="edge6" class="edge">
<title>Node1&#45;&gt;Node6</title>
<path fill="none" stroke="midnightblue" d="M90.42,-108.82C110.45,-96.13 140.67,-78.34 169,-67 175.16,-64.53 181.74,-62.31 188.34,-60.33"/>
<polygon fill="midnightblue" stroke="midnightblue" points="189.32,-63.69 197.98,-57.59 187.41,-56.95 189.32,-63.69"/>
</g>
<!-- Node7 -->
<g id="node7" class="node">
<title>Node7</title>
<g id="a_node7"><a xlink:href="class_t_one_pref_dir.html#a42862b2abcd0eb356982f4ce46922922" target="_top" xlink:title="Return a pointer to the last element in the vector.">
<polygon fill="white" stroke="black" points="173,-202.5 173,-221.5 316,-221.5 316,-202.5 173,-202.5"/>
<text text-anchor="middle" x="244.5" y="-209.5" font-family="Helvetica,sans-Serif" font-size="10.00">TOnePrefDir::LastElementPtr</text>
</a>
</g>
</g>
<!-- Node1&#45;&gt;Node7 -->
<g id="edge7" class="edge">
<title>Node1&#45;&gt;Node7</title>
<path fill="none" stroke="midnightblue" d="M85.85,-139.03C105.38,-154.34 137.71,-177.79 169,-192 175.23,-194.83 181.93,-197.32 188.68,-199.51"/>
<polygon fill="midnightblue" stroke="midnightblue" points="187.96,-202.94 198.54,-202.48 189.98,-196.24 187.96,-202.94"/>
</g>
<!-- Node8 -->
<g id="node8" class="node">
<title>Node8</title>
<g id="a_node8"><a xlink:href="class_t_one_pref_dir.html#a29d013bf730e23d27fdb2c390e3a14da" target="_top" xlink:title="Return the vector size.">
<polygon fill="white" stroke="black" points="182.5,-0.5 182.5,-19.5 306.5,-19.5 306.5,-0.5 182.5,-0.5"/>
<text text-anchor="middle" x="244.5" y="-7.5" font-family="Helvetica,sans-Serif" font-size="10.00">TOnePrefDir::PrefDirSize</text>
</a>
</g>
</g>
<!-- Node1&#45;&gt;Node8 -->
<g id="edge10" class="edge">
<title>Node1&#45;&gt;Node8</title>
<path fill="none" stroke="midnightblue" d="M79.53,-108.66C96.97,-87.5 131.32,-49.64 169,-29 173.17,-26.72 177.62,-24.7 182.2,-22.92"/>
<polygon fill="midnightblue" stroke="midnightblue" points="183.43,-26.2 191.71,-19.59 181.12,-19.59 183.43,-26.2"/>
</g>
<!-- Node4&#45;&gt;Node2 -->
<g id="edge4" class="edge">
<title>Node4&#45;&gt;Node2</title>
<path fill="none" stroke="midnightblue" d="M301.65,-183.02C322.1,-188.49 344.95,-194.6 364.38,-199.8"/>
<polygon fill="midnightblue" stroke="midnightblue" points="363.63,-203.22 374.19,-202.42 365.43,-196.46 363.63,-203.22"/>
</g>
<!-- Node4&#45;&gt;Node5 -->
<g id="edge5" class="edge">
<title>Node4&#45;&gt;Node5</title>
<path fill="none" stroke="midnightblue" d="M310.51,-168C322.11,-168 334.19,-168 345.77,-168"/>
<polygon fill="midnightblue" stroke="midnightblue" points="345.79,-171.5 355.79,-168 345.79,-164.5 345.79,-171.5"/>
</g>
<!-- Node7&#45;&gt;Node2 -->
<g id="edge8" class="edge">
<title>Node7&#45;&gt;Node2</title>
<path fill="none" stroke="midnightblue" d="M316.22,-212C325.94,-212 335.88,-212 345.48,-212"/>
<polygon fill="midnightblue" stroke="midnightblue" points="345.74,-215.5 355.74,-212 345.74,-208.5 345.74,-215.5"/>
</g>
<!-- Node7&#45;&gt;Node5 -->
<g id="edge9" class="edge">
<title>Node7&#45;&gt;Node5</title>
<path fill="none" stroke="midnightblue" d="M281.19,-202.45C305.66,-195.91 338.32,-187.17 364.63,-180.13"/>
<polygon fill="midnightblue" stroke="midnightblue" points="365.62,-183.49 374.38,-177.53 363.81,-176.73 365.62,-183.49"/>
</g>
</g>
</svg>
