<?xml version="1.0" encoding="UTF-8" standalone="no"?>
<!DOCTYPE svg PUBLIC "-//W3C//DTD SVG 1.1//EN"
 "http://www.w3.org/Graphics/SVG/1.1/DTD/svg11.dtd">
<!-- Generated by graphviz version 2.44.1 (20200629.0800)
 -->
<!-- Title: TTrack::PlotSignalPlatforms Pages: 1 -->
<svg width="481pt" height="160pt"
 viewBox="0.00 0.00 481.00 159.74" xmlns="http://www.w3.org/2000/svg" xmlns:xlink="http://www.w3.org/1999/xlink">
<g id="graph0" class="graph" transform="scale(1 1) rotate(0) translate(4 155.74)">
<title>TTrack::PlotSignalPlatforms</title>
<polygon fill="white" stroke="transparent" points="-4,4 -4,-155.74 477,-155.74 477,4 -4,4"/>
<!-- Node1 -->
<g id="node1" class="node">
<title>Node1</title>
<g id="a_node1"><a xlink:title="Plot platforms if any for a signal graphic &#45; plotted before signal so shows through transparent signa...">
<polygon fill="#bfbfbf" stroke="black" points="0,-59.2 0,-78.2 137,-78.2 137,-59.2 0,-59.2"/>
<text text-anchor="middle" x="68.5" y="-66.2" font-family="Helvetica,sans-Serif" font-size="10.00">TTrack::PlotSignalPlatforms</text>
</a>
</g>
</g>
<!-- Node2 -->
<g id="node2" class="node">
<title>Node2</title>
<g id="a_node2"><a xlink:href="class_t_utilities.html#ae1eddca13cc3c492839e131f40ec21c0" target="_top" xlink:title="pops the last entry off the call stack, throws an error if called when empty">
<polygon fill="white" stroke="black" points="363,-78.2 363,-97.2 473,-97.2 473,-78.2 363,-78.2"/>
<text text-anchor="middle" x="418" y="-85.2" font-family="Helvetica,sans-Serif" font-size="10.00">TUtilities::CallLogPop</text>
</a>
</g>
</g>
<!-- Node1&#45;&gt;Node2 -->
<g id="edge1" class="edge">
<title>Node1&#45;&gt;Node2</title>
<path fill="none" stroke="midnightblue" d="M79.3,-78.23C96.54,-94.24 134.14,-125.94 173,-137.7 238.51,-157.54 260.74,-154.87 327,-137.7 352.64,-131.06 378.75,-115.36 396.19,-103.31"/>
<polygon fill="midnightblue" stroke="midnightblue" points="398.37,-106.06 404.48,-97.4 394.3,-100.35 398.37,-106.06"/>
</g>
<!-- Node3 -->
<g id="node3" class="node">
<title>Node3</title>
<g id="a_node3"><a xlink:href="class_t_track.html#a418966e6fefb71b9d0c9b941197832da" target="_top" xlink:title="Similar to GetVectorPositionFromTrackMap but for inactive elements, a pair is returned because there ...">
<polygon fill="white" stroke="black" points="181.5,-97.7 181.5,-127.7 318.5,-127.7 318.5,-97.7 181.5,-97.7"/>
<text text-anchor="start" x="189.5" y="-115.7" font-family="Helvetica,sans-Serif" font-size="10.00">TTrack::GetVectorPositions</text>
<text text-anchor="middle" x="250" y="-104.7" font-family="Helvetica,sans-Serif" font-size="10.00">FromInactiveTrackMap</text>
</a>
</g>
</g>
<!-- Node1&#45;&gt;Node3 -->
<g id="edge2" class="edge">
<title>Node1&#45;&gt;Node3</title>
<path fill="none" stroke="midnightblue" d="M108.45,-78.25C128.66,-83.2 153.99,-89.41 177.57,-95.19"/>
<polygon fill="midnightblue" stroke="midnightblue" points="176.99,-98.66 187.54,-97.64 178.66,-91.86 176.99,-98.66"/>
</g>
<!-- Node4 -->
<g id="node4" class="node">
<title>Node4</title>
<g id="a_node4"><a xlink:href="class_t_utilities.html#a34bd6bb5305bc29afdf424f6d35a921c" target="_top" xlink:title="creates a string of the form &#39;hh:mm:ss&#39; for use in call &amp; event logging">
<polygon fill="white" stroke="black" points="363,-40.2 363,-59.2 473,-59.2 473,-40.2 363,-40.2"/>
<text text-anchor="middle" x="418" y="-47.2" font-family="Helvetica,sans-Serif" font-size="10.00">TUtilities::TimeStamp</text>
</a>
</g>
</g>
<!-- Node1&#45;&gt;Node4 -->
<g id="edge11" class="edge">
<title>Node1&#45;&gt;Node4</title>
<path fill="none" stroke="midnightblue" d="M81.99,-59.05C100.6,-45.34 137.24,-20.9 173,-11.7 239.29,5.34 259.92,1.88 327,-11.7 349.58,-16.27 373.54,-26.69 391.06,-35.47"/>
<polygon fill="midnightblue" stroke="midnightblue" points="389.58,-38.65 400.07,-40.13 392.79,-32.43 389.58,-38.65"/>
</g>
<!-- Node5 -->
<g id="node5" class="node">
<title>Node5</title>
<g id="a_node5"><a xlink:href="class_t_track.html#a51f89cf70e94b037f6378cd78003d82b" target="_top" xlink:title="A range&#45;checked version of InactiveTrackVector.at(At)">
<polygon fill="white" stroke="black" points="173,-59.2 173,-78.2 327,-78.2 327,-59.2 173,-59.2"/>
<text text-anchor="middle" x="250" y="-66.2" font-family="Helvetica,sans-Serif" font-size="10.00">TTrack::InactiveTrackElementAt</text>
</a>
</g>
</g>
<!-- Node1&#45;&gt;Node5 -->
<g id="edge5" class="edge">
<title>Node1&#45;&gt;Node5</title>
<path fill="none" stroke="midnightblue" d="M137.11,-68.7C145.46,-68.7 154.09,-68.7 162.68,-68.7"/>
<polygon fill="midnightblue" stroke="midnightblue" points="162.73,-72.2 172.73,-68.7 162.73,-65.2 162.73,-72.2"/>
</g>
<!-- Node6 -->
<g id="node6" class="node">
<title>Node6</title>
<g id="a_node6"><a xlink:href="class_t_display.html#a9ab49e52c7eb92b32ae2c34547183439" target="_top" xlink:title="Plot the graphic at screen position HPos &amp; VPos.">
<polygon fill="white" stroke="black" points="196.5,-21.2 196.5,-40.2 303.5,-40.2 303.5,-21.2 196.5,-21.2"/>
<text text-anchor="middle" x="250" y="-28.2" font-family="Helvetica,sans-Serif" font-size="10.00">TDisplay::PlotOutput</text>
</a>
</g>
</g>
<!-- Node1&#45;&gt;Node6 -->
<g id="edge8" class="edge">
<title>Node1&#45;&gt;Node6</title>
<path fill="none" stroke="midnightblue" d="M114.8,-59.11C138.91,-54.01 168.75,-47.69 194.17,-42.31"/>
<polygon fill="midnightblue" stroke="midnightblue" points="194.97,-45.72 204.03,-40.22 193.52,-38.87 194.97,-45.72"/>
</g>
<!-- Node3&#45;&gt;Node2 -->
<g id="edge3" class="edge">
<title>Node3&#45;&gt;Node2</title>
<path fill="none" stroke="midnightblue" d="M318.52,-102.53C329.79,-100.84 341.45,-99.08 352.64,-97.39"/>
<polygon fill="midnightblue" stroke="midnightblue" points="353.39,-100.82 362.76,-95.87 352.35,-93.9 353.39,-100.82"/>
</g>
<!-- Node3&#45;&gt;Node4 -->
<g id="edge4" class="edge">
<title>Node3&#45;&gt;Node4</title>
<path fill="none" stroke="midnightblue" d="M300.91,-97.61C309.7,-94.58 318.69,-91.23 327,-87.7 343.65,-80.63 346.42,-75.95 363,-68.7 367.72,-66.64 372.74,-64.64 377.74,-62.75"/>
<polygon fill="midnightblue" stroke="midnightblue" points="379.07,-65.99 387.27,-59.28 376.67,-59.41 379.07,-65.99"/>
</g>
<!-- Node5&#45;&gt;Node2 -->
<g id="edge6" class="edge">
<title>Node5&#45;&gt;Node2</title>
<path fill="none" stroke="midnightblue" d="M327.2,-77.42C335.68,-78.39 344.26,-79.38 352.58,-80.33"/>
<polygon fill="midnightblue" stroke="midnightblue" points="352.23,-83.81 362.57,-81.47 353.03,-76.86 352.23,-83.81"/>
</g>
<!-- Node5&#45;&gt;Node4 -->
<g id="edge7" class="edge">
<title>Node5&#45;&gt;Node4</title>
<path fill="none" stroke="midnightblue" d="M327.2,-59.98C335.68,-59.01 344.26,-58.03 352.58,-57.08"/>
<polygon fill="midnightblue" stroke="midnightblue" points="353.03,-60.55 362.57,-55.93 352.23,-53.59 353.03,-60.55"/>
</g>
<!-- Node6&#45;&gt;Node2 -->
<g id="edge9" class="edge">
<title>Node6&#45;&gt;Node2</title>
<path fill="none" stroke="midnightblue" d="M296.96,-40.3C307,-42.92 317.47,-46.06 327,-49.7 343.9,-56.16 346.42,-61.46 363,-68.7 367.72,-70.76 372.74,-72.77 377.74,-74.66"/>
<polygon fill="midnightblue" stroke="midnightblue" points="376.67,-77.99 387.27,-78.12 379.07,-71.41 376.67,-77.99"/>
</g>
<!-- Node6&#45;&gt;Node4 -->
<g id="edge10" class="edge">
<title>Node6&#45;&gt;Node4</title>
<path fill="none" stroke="midnightblue" d="M303.52,-36.71C319.18,-38.51 336.51,-40.49 352.82,-42.36"/>
<polygon fill="midnightblue" stroke="midnightblue" points="352.48,-45.84 362.82,-43.5 353.28,-38.89 352.48,-45.84"/>
</g>
</g>
</svg>
