<?xml version="1.0" encoding="UTF-8" standalone="no"?>
<!DOCTYPE svg PUBLIC "-//W3C//DTD SVG 1.1//EN"
 "http://www.w3.org/Graphics/SVG/1.1/DTD/svg11.dtd">
<!-- Generated by graphviz version 2.44.1 (20200629.0800)
 -->
<!-- Title: TTrainController::TrainExistsAtIdent Pages: 1 -->
<svg width="827pt" height="66pt"
 viewBox="0.00 0.00 827.00 66.00" xmlns="http://www.w3.org/2000/svg" xmlns:xlink="http://www.w3.org/1999/xlink">
<g id="graph0" class="graph" transform="scale(1 1) rotate(0) translate(4 62)">
<title>TTrainController::TrainExistsAtIdent</title>
<polygon fill="white" stroke="transparent" points="-4,4 -4,-62 823,-62 823,4 -4,4"/>
<!-- Node1 -->
<g id="node1" class="node">
<title>Node1</title>
<g id="a_node1"><a xlink:title="new at v2.4.0 return true if find the train (added at v2.4.0 as can select a removed train in OAListB...">
<polygon fill="#bfbfbf" stroke="black" points="680,-14 680,-44 819,-44 819,-14 680,-14"/>
<text text-anchor="start" x="688" y="-32" font-family="Helvetica,sans-Serif" font-size="10.00">TTrainController::TrainExists</text>
<text text-anchor="middle" x="749.5" y="-21" font-family="Helvetica,sans-Serif" font-size="10.00">AtIdent</text>
</a>
</g>
</g>
<!-- Node2 -->
<g id="node2" class="node">
<title>Node2</title>
<g id="a_node2"><a xlink:href="class_t_interface.html#a8bf97b0604338d3a8b8432e070b7a669" target="_top" xlink:title="Used in actions due panel to identify the train or continuation.">
<polygon fill="white" stroke="black" points="523,-14 523,-44 644,-44 644,-14 523,-14"/>
<text text-anchor="start" x="531" y="-32" font-family="Helvetica,sans-Serif" font-size="10.00">TInterface::GetTrainIDOr</text>
<text text-anchor="middle" x="583.5" y="-21" font-family="Helvetica,sans-Serif" font-size="10.00">ContinuationPosition</text>
</a>
</g>
</g>
<!-- Node1&#45;&gt;Node2 -->
<g id="edge1" class="edge">
<title>Node1&#45;&gt;Node2</title>
<path fill="none" stroke="midnightblue" d="M669.83,-29C661.22,-29 652.56,-29 644.23,-29"/>
<polygon fill="midnightblue" stroke="midnightblue" points="669.9,-32.5 679.9,-29 669.9,-25.5 669.9,-32.5"/>
</g>
<!-- Node3 -->
<g id="node3" class="node">
<title>Node3</title>
<g id="a_node3"><a xlink:href="class_t_interface.html#a54c8faaf7d1d8f0456114676fd20a17f" target="_top" xlink:title=" ">
<polygon fill="white" stroke="black" points="334,-38.5 334,-57.5 487,-57.5 487,-38.5 334,-38.5"/>
<text text-anchor="middle" x="410.5" y="-45.5" font-family="Helvetica,sans-Serif" font-size="10.00">TInterface::OAListBoxMouseUp</text>
</a>
</g>
</g>
<!-- Node2&#45;&gt;Node3 -->
<g id="edge2" class="edge">
<title>Node2&#45;&gt;Node3</title>
<path fill="none" stroke="midnightblue" d="M512.61,-36.77C504.23,-37.7 495.66,-38.65 487.21,-39.59"/>
<polygon fill="midnightblue" stroke="midnightblue" points="513.14,-40.23 522.69,-35.65 512.37,-33.27 513.14,-40.23"/>
</g>
<!-- Node4 -->
<g id="node4" class="node">
<title>Node4</title>
<g id="a_node4"><a xlink:href="class_t_interface.html#a9aaa19d39382a32701d7ded3b8c1802b" target="_top" xlink:title="Controls the floating window function, called during the ClockTimer2 function.">
<polygon fill="white" stroke="black" points="345,-0.5 345,-19.5 476,-19.5 476,-0.5 345,-0.5"/>
<text text-anchor="middle" x="410.5" y="-7.5" font-family="Helvetica,sans-Serif" font-size="10.00">TInterface::TrackTrainFloat</text>
</a>
</g>
</g>
<!-- Node2&#45;&gt;Node4 -->
<g id="edge3" class="edge">
<title>Node2&#45;&gt;Node4</title>
<path fill="none" stroke="midnightblue" d="M512.69,-21.24C500.63,-19.9 488.14,-18.52 476.22,-17.19"/>
<polygon fill="midnightblue" stroke="midnightblue" points="512.37,-24.73 522.69,-22.35 513.14,-17.77 512.37,-24.73"/>
</g>
<!-- Node5 -->
<g id="node5" class="node">
<title>Node5</title>
<g id="a_node5"><a xlink:href="class_t_interface.html#a6139ffb52492eb89e5487a8a3cd647b5" target="_top" xlink:title="The main loop, called every clock tick via MasterClockTimer.">
<polygon fill="white" stroke="black" points="179,-0.5 179,-19.5 298,-19.5 298,-0.5 179,-0.5"/>
<text text-anchor="middle" x="238.5" y="-7.5" font-family="Helvetica,sans-Serif" font-size="10.00">TInterface::ClockTimer2</text>
</a>
</g>
</g>
<!-- Node4&#45;&gt;Node5 -->
<g id="edge4" class="edge">
<title>Node4&#45;&gt;Node5</title>
<path fill="none" stroke="midnightblue" d="M334.6,-10C322.41,-10 309.94,-10 298.22,-10"/>
<polygon fill="midnightblue" stroke="midnightblue" points="334.75,-13.5 344.75,-10 334.75,-6.5 334.75,-13.5"/>
</g>
<!-- Node6 -->
<g id="node6" class="node">
<title>Node6</title>
<g id="a_node6"><a xlink:href="class_t_interface.html#ace30a12d923fc7fb489afabb0a09aa4f" target="_top" xlink:title=" ">
<polygon fill="white" stroke="black" points="0,-0.5 0,-19.5 143,-19.5 143,-0.5 0,-0.5"/>
<text text-anchor="middle" x="71.5" y="-7.5" font-family="Helvetica,sans-Serif" font-size="10.00">TInterface::MasterClockTimer</text>
</a>
</g>
</g>
<!-- Node5&#45;&gt;Node6 -->
<g id="edge5" class="edge">
<title>Node5&#45;&gt;Node6</title>
<path fill="none" stroke="midnightblue" d="M168.67,-10C160.22,-10 151.57,-10 143.09,-10"/>
<polygon fill="midnightblue" stroke="midnightblue" points="168.86,-13.5 178.86,-10 168.86,-6.5 168.86,-13.5"/>
</g>
</g>
</svg>
