<?xml version="1.0" encoding="UTF-8" standalone="no"?>
<!DOCTYPE svg PUBLIC "-//W3C//DTD SVG 1.1//EN"
 "http://www.w3.org/Graphics/SVG/1.1/DTD/svg11.dtd">
<!-- Generated by graphviz version 2.44.1 (20200629.0800)
 -->
<!-- Title: TUtilities::LoadFileBool Pages: 1 -->
<svg width="999pt" height="285pt"
 viewBox="0.00 0.00 999.00 285.00" xmlns="http://www.w3.org/2000/svg" xmlns:xlink="http://www.w3.org/1999/xlink">
<g id="graph0" class="graph" transform="scale(1 1) rotate(0) translate(4 281)">
<title>TUtilities::LoadFileBool</title>
<polygon fill="white" stroke="transparent" points="-4,4 -4,-281 995,-281 995,4 -4,4"/>
<!-- Node1 -->
<g id="node1" class="node">
<title>Node1</title>
<g id="a_node1"><a xlink:title="loads a bool value from the file">
<polygon fill="#bfbfbf" stroke="black" points="875,-151 875,-170 991,-170 991,-151 875,-151"/>
<text text-anchor="middle" x="933" y="-158" font-family="Helvetica,sans-Serif" font-size="10.00">TUtilities::LoadFileBool</text>
</a>
</g>
</g>
<!-- Node2 -->
<g id="node2" class="node">
<title>Node2</title>
<g id="a_node2"><a xlink:href="class_t_track.html#a96563ccfea0293d240212db434f4e3e0" target="_top" xlink:title="Load all BarriersDownVector values from SessionFile.">
<polygon fill="white" stroke="black" points="520.5,-246.5 520.5,-276.5 651.5,-276.5 651.5,-246.5 520.5,-246.5"/>
<text text-anchor="start" x="528.5" y="-264.5" font-family="Helvetica,sans-Serif" font-size="10.00">TTrack::LoadBarriersDown</text>
<text text-anchor="middle" x="586" y="-253.5" font-family="Helvetica,sans-Serif" font-size="10.00">Vector</text>
</a>
</g>
</g>
<!-- Node1&#45;&gt;Node2 -->
<g id="edge1" class="edge">
<title>Node1&#45;&gt;Node2</title>
<path fill="none" stroke="midnightblue" d="M915.51,-177.59C898.17,-194.39 869.25,-219.23 839,-231.5 778.67,-255.96 704.04,-262.18 651.71,-263.07"/>
<polygon fill="midnightblue" stroke="midnightblue" points="918.43,-179.62 923.05,-170.08 913.49,-174.66 918.43,-179.62"/>
</g>
<!-- Node3 -->
<g id="node3" class="node">
<title>Node3</title>
<g id="a_node3"><a xlink:href="class_t_interface.html#a636b1b4bd29f2678a3290ed2d282f1c2" target="_top" xlink:title="Load a session file.">
<polygon fill="white" stroke="black" points="345,-148 345,-167 466,-167 466,-148 345,-148"/>
<text text-anchor="middle" x="405.5" y="-155" font-family="Helvetica,sans-Serif" font-size="10.00">TInterface::LoadSession</text>
</a>
</g>
</g>
<!-- Node1&#45;&gt;Node3 -->
<g id="edge17" class="edge">
<title>Node1&#45;&gt;Node3</title>
<path fill="none" stroke="midnightblue" d="M905.13,-174.74C887.01,-183.51 862.25,-193.93 839,-198.5 691.91,-227.39 512.52,-186.71 439.65,-167.07"/>
<polygon fill="midnightblue" stroke="midnightblue" points="907.08,-177.68 914.47,-170.08 903.96,-171.41 907.08,-177.68"/>
</g>
<!-- Node6 -->
<g id="node6" class="node">
<title>Node6</title>
<g id="a_node6"><a xlink:href="class_t_interface.html#ad2e9b9996aa6ebd7108d14d8db399da8" target="_top" xlink:title="Load the interface part of a session file.">
<polygon fill="white" stroke="black" points="706,-170 706,-189 828,-189 828,-170 706,-170"/>
<text text-anchor="middle" x="767" y="-177" font-family="Helvetica,sans-Serif" font-size="10.00">TInterface::LoadInterface</text>
</a>
</g>
</g>
<!-- Node1&#45;&gt;Node6 -->
<g id="edge5" class="edge">
<title>Node1&#45;&gt;Node6</title>
<path fill="none" stroke="midnightblue" d="M864.61,-168.31C852.51,-169.71 839.98,-171.16 828.11,-172.54"/>
<polygon fill="midnightblue" stroke="midnightblue" points="865.11,-171.77 874.64,-167.15 864.3,-164.82 865.11,-171.77"/>
</g>
<!-- Node7 -->
<g id="node7" class="node">
<title>Node7</title>
<g id="a_node7"><a xlink:href="class_t_one_pref_dir.html#a614933ff3958e4b8c9be9bc78159d9e8" target="_top" xlink:title="Old version of LoadPrefDir, used during development when the save format changed so the old files cou...">
<polygon fill="white" stroke="black" points="697,-132 697,-151 837,-151 837,-132 697,-132"/>
<text text-anchor="middle" x="767" y="-139" font-family="Helvetica,sans-Serif" font-size="10.00">TOnePrefDir::LoadOldPrefDir</text>
</a>
</g>
</g>
<!-- Node1&#45;&gt;Node7 -->
<g id="edge7" class="edge">
<title>Node1&#45;&gt;Node7</title>
<path fill="none" stroke="midnightblue" d="M864.56,-152.69C855.52,-151.64 846.24,-150.56 837.17,-149.51"/>
<polygon fill="midnightblue" stroke="midnightblue" points="864.3,-156.18 874.64,-153.85 865.11,-149.23 864.3,-156.18"/>
</g>
<!-- Node8 -->
<g id="node8" class="node">
<title>Node8</title>
<g id="a_node8"><a xlink:href="class_t_train.html#a23c65e7f2b2130ae87811f70afb6d5bf" target="_top" xlink:title="Create one train with relevant member values from the sesion file.">
<polygon fill="white" stroke="black" points="695,-94 695,-113 839,-113 839,-94 695,-94"/>
<text text-anchor="middle" x="767" y="-101" font-family="Helvetica,sans-Serif" font-size="10.00">TTrain::LoadOneSessionTrain</text>
</a>
</g>
</g>
<!-- Node1&#45;&gt;Node8 -->
<g id="edge8" class="edge">
<title>Node1&#45;&gt;Node8</title>
<path fill="none" stroke="midnightblue" d="M901.47,-146.89C883.5,-139.16 860.2,-129.64 839,-122.5 828.84,-119.08 817.71,-115.86 807.33,-113.07"/>
<polygon fill="midnightblue" stroke="midnightblue" points="900.3,-150.19 910.87,-150.97 903.09,-143.77 900.3,-150.19"/>
</g>
<!-- Node10 -->
<g id="node10" class="node">
<title>Node10</title>
<g id="a_node10"><a xlink:href="class_t_one_pref_dir.html#a0779c9edd1ba268356590aac4719166d" target="_top" xlink:title="Load a vector and map of preferred directions from the file.">
<polygon fill="white" stroke="black" points="704.5,-50 704.5,-69 829.5,-69 829.5,-50 704.5,-50"/>
<text text-anchor="middle" x="767" y="-57" font-family="Helvetica,sans-Serif" font-size="10.00">TOnePrefDir::LoadPrefDir</text>
</a>
</g>
</g>
<!-- Node1&#45;&gt;Node10 -->
<g id="edge11" class="edge">
<title>Node1&#45;&gt;Node10</title>
<path fill="none" stroke="midnightblue" d="M915.27,-143.76C897.61,-126.86 868.32,-100.97 839,-84.5 827.72,-78.16 814.55,-72.99 802.63,-69.03"/>
<polygon fill="midnightblue" stroke="midnightblue" points="912.92,-146.35 922.53,-150.82 917.81,-141.34 912.92,-146.35"/>
</g>
<!-- Node2&#45;&gt;Node3 -->
<g id="edge2" class="edge">
<title>Node2&#45;&gt;Node3</title>
<path fill="none" stroke="midnightblue" d="M535.44,-242.49C527.79,-239.09 520.09,-235.38 513,-231.5 476.66,-211.6 437.54,-182.08 418.41,-167.05"/>
<polygon fill="midnightblue" stroke="midnightblue" points="534.11,-245.73 544.68,-246.47 536.88,-239.3 534.11,-245.73"/>
</g>
<!-- Node4 -->
<g id="node4" class="node">
<title>Node4</title>
<g id="a_node4"><a xlink:href="class_t_interface.html#a6139ffb52492eb89e5487a8a3cd647b5" target="_top" xlink:title="The main loop, called every clock tick via MasterClockTimer.">
<polygon fill="white" stroke="black" points="179,-148 179,-167 298,-167 298,-148 179,-148"/>
<text text-anchor="middle" x="238.5" y="-155" font-family="Helvetica,sans-Serif" font-size="10.00">TInterface::ClockTimer2</text>
</a>
</g>
</g>
<!-- Node3&#45;&gt;Node4 -->
<g id="edge3" class="edge">
<title>Node3&#45;&gt;Node4</title>
<path fill="none" stroke="midnightblue" d="M334.8,-157.5C322.6,-157.5 310.01,-157.5 298.15,-157.5"/>
<polygon fill="midnightblue" stroke="midnightblue" points="334.93,-161 344.93,-157.5 334.93,-154 334.93,-161"/>
</g>
<!-- Node5 -->
<g id="node5" class="node">
<title>Node5</title>
<g id="a_node5"><a xlink:href="class_t_interface.html#ace30a12d923fc7fb489afabb0a09aa4f" target="_top" xlink:title=" ">
<polygon fill="white" stroke="black" points="0,-148 0,-167 143,-167 143,-148 0,-148"/>
<text text-anchor="middle" x="71.5" y="-155" font-family="Helvetica,sans-Serif" font-size="10.00">TInterface::MasterClockTimer</text>
</a>
</g>
</g>
<!-- Node4&#45;&gt;Node5 -->
<g id="edge4" class="edge">
<title>Node4&#45;&gt;Node5</title>
<path fill="none" stroke="midnightblue" d="M168.67,-157.5C160.22,-157.5 151.57,-157.5 143.09,-157.5"/>
<polygon fill="midnightblue" stroke="midnightblue" points="168.86,-161 178.86,-157.5 168.86,-154 168.86,-161"/>
</g>
<!-- Node6&#45;&gt;Node3 -->
<g id="edge6" class="edge">
<title>Node6&#45;&gt;Node3</title>
<path fill="none" stroke="midnightblue" d="M695.8,-175.2C628.95,-171.11 529.43,-165.02 466.27,-161.16"/>
<polygon fill="midnightblue" stroke="midnightblue" points="695.63,-178.7 705.83,-175.82 696.06,-171.71 695.63,-178.7"/>
</g>
<!-- Node9 -->
<g id="node9" class="node">
<title>Node9</title>
<g id="a_node9"><a xlink:href="class_t_train_controller.html#a853ddf9799c9fd7063c81ffa1dc754d7" target="_top" xlink:title="load trains from a session file">
<polygon fill="white" stroke="black" points="513,-120.5 513,-150.5 659,-150.5 659,-120.5 513,-120.5"/>
<text text-anchor="start" x="521" y="-138.5" font-family="Helvetica,sans-Serif" font-size="10.00">TTrainController::LoadSession</text>
<text text-anchor="middle" x="586" y="-127.5" font-family="Helvetica,sans-Serif" font-size="10.00">Trains</text>
</a>
</g>
</g>
<!-- Node8&#45;&gt;Node9 -->
<g id="edge9" class="edge">
<title>Node8&#45;&gt;Node9</title>
<path fill="none" stroke="midnightblue" d="M702.72,-114.81C688.65,-117.33 673.64,-120.01 659.24,-122.59"/>
<polygon fill="midnightblue" stroke="midnightblue" points="703.55,-118.22 712.78,-113.01 702.32,-111.33 703.55,-118.22"/>
</g>
<!-- Node9&#45;&gt;Node3 -->
<g id="edge10" class="edge">
<title>Node9&#45;&gt;Node3</title>
<path fill="none" stroke="midnightblue" d="M502.67,-145.65C490.4,-147.16 477.96,-148.69 466.28,-150.13"/>
<polygon fill="midnightblue" stroke="midnightblue" points="503.41,-149.08 512.91,-144.38 502.56,-142.13 503.41,-149.08"/>
</g>
<!-- Node10&#45;&gt;Node3 -->
<g id="edge16" class="edge">
<title>Node10&#45;&gt;Node3</title>
<path fill="none" stroke="midnightblue" d="M694.29,-70.21C643.09,-78.82 572.94,-92.61 513,-111.5 481.3,-121.49 446.22,-137.71 425.29,-147.98"/>
<polygon fill="midnightblue" stroke="midnightblue" points="694.98,-73.64 704.27,-68.55 693.83,-66.73 694.98,-73.64"/>
</g>
<!-- Node11 -->
<g id="node11" class="node">
<title>Node11</title>
<g id="a_node11"><a xlink:href="class_t_interface.html#a95c3545a30171ca5a08e34c58160079c" target="_top" xlink:title="Load a railway file. The Active elements marker now has a &#39;1&#39; at the end if there are user graphics t...">
<polygon fill="white" stroke="black" points="526.5,-6 526.5,-25 645.5,-25 645.5,-6 526.5,-6"/>
<text text-anchor="middle" x="586" y="-13" font-family="Helvetica,sans-Serif" font-size="10.00">TInterface::LoadRailway</text>
</a>
</g>
</g>
<!-- Node10&#45;&gt;Node11 -->
<g id="edge12" class="edge">
<title>Node10&#45;&gt;Node11</title>
<path fill="none" stroke="midnightblue" d="M717.31,-47.53C688.54,-40.46 652.61,-31.63 625.76,-25.03"/>
<polygon fill="midnightblue" stroke="midnightblue" points="716.61,-50.96 727.16,-49.95 718.28,-44.17 716.61,-50.96"/>
</g>
<!-- Node13 -->
<g id="node13" class="node">
<title>Node13</title>
<g id="a_node13"><a xlink:href="class_t_all_routes.html#adadd08bb4cbbcaeba918f20c6c103a39" target="_top" xlink:title="Loads the routes from a session file.">
<polygon fill="white" stroke="black" points="525,-44 525,-63 647,-63 647,-44 525,-44"/>
<text text-anchor="middle" x="586" y="-51" font-family="Helvetica,sans-Serif" font-size="10.00">TAllRoutes::LoadRoutes</text>
</a>
</g>
</g>
<!-- Node10&#45;&gt;Node13 -->
<g id="edge14" class="edge">
<title>Node10&#45;&gt;Node13</title>
<path fill="none" stroke="midnightblue" d="M694.27,-57.1C678.67,-56.57 662.31,-56.02 647.2,-55.52"/>
<polygon fill="midnightblue" stroke="midnightblue" points="694.29,-60.6 704.4,-57.44 694.52,-53.6 694.29,-60.6"/>
</g>
<!-- Node12 -->
<g id="node12" class="node">
<title>Node12</title>
<g id="a_node12"><a xlink:href="class_t_interface.html#a96249c7622a9d55541de186483e04d2e" target="_top" xlink:title=" ">
<polygon fill="white" stroke="black" points="334,-0.5 334,-30.5 477,-30.5 477,-0.5 334,-0.5"/>
<text text-anchor="start" x="342" y="-18.5" font-family="Helvetica,sans-Serif" font-size="10.00">TInterface::LoadRailwayMenu</text>
<text text-anchor="middle" x="405.5" y="-7.5" font-family="Helvetica,sans-Serif" font-size="10.00">ItemClick</text>
</a>
</g>
</g>
<!-- Node11&#45;&gt;Node12 -->
<g id="edge13" class="edge">
<title>Node11&#45;&gt;Node12</title>
<path fill="none" stroke="midnightblue" d="M515.99,-15.5C503.27,-15.5 489.96,-15.5 477.18,-15.5"/>
<polygon fill="midnightblue" stroke="midnightblue" points="516.06,-19 526.06,-15.5 516.06,-12 516.06,-19"/>
</g>
<!-- Node13&#45;&gt;Node3 -->
<g id="edge15" class="edge">
<title>Node13&#45;&gt;Node3</title>
<path fill="none" stroke="midnightblue" d="M539.33,-66.25C530.38,-69.43 521.23,-73.19 513,-77.5 474.5,-97.69 435.11,-131.37 416.9,-147.84"/>
<polygon fill="midnightblue" stroke="midnightblue" points="540.55,-69.53 548.91,-63.02 538.31,-62.9 540.55,-69.53"/>
</g>
</g>
</svg>
