<?xml version="1.0" encoding="UTF-8" standalone="no"?>
<!DOCTYPE svg PUBLIC "-//W3C//DTD SVG 1.1//EN"
 "http://www.w3.org/Graphics/SVG/1.1/DTD/svg11.dtd">
<!-- Generated by graphviz version 2.44.1 (20200629.0800)
 -->
<!-- Title: TAllRoutes::SetAllRearwardsSignals Pages: 1 -->
<svg width="1053pt" height="938pt"
 viewBox="0.00 0.00 1053.00 937.61" xmlns="http://www.w3.org/2000/svg" xmlns:xlink="http://www.w3.org/1999/xlink">
<g id="graph0" class="graph" transform="scale(1 1) rotate(0) translate(4 933.61)">
<title>TAllRoutes::SetAllRearwardsSignals</title>
<polygon fill="white" stroke="transparent" points="-4,4 -4,-933.61 1049,-933.61 1049,4 -4,4"/>
<!-- Node1 -->
<g id="node1" class="node">
<title>Node1</title>
<g id="a_node1"><a xlink:title="Set rearwards signals from the specified route starting position.">
<polygon fill="#bfbfbf" stroke="black" points="0,-370.05 0,-400.05 142,-400.05 142,-370.05 0,-370.05"/>
<text text-anchor="start" x="8" y="-388.05" font-family="Helvetica,sans-Serif" font-size="10.00">TAllRoutes::SetAllRearwards</text>
<text text-anchor="middle" x="71" y="-377.05" font-family="Helvetica,sans-Serif" font-size="10.00">Signals</text>
</a>
</g>
</g>
<!-- Node2 -->
<g id="node2" class="node">
<title>Node2</title>
<g id="a_node2"><a xlink:href="class_t_utilities.html#ae1eddca13cc3c492839e131f40ec21c0" target="_top" xlink:title="&lt; specifies whether no delays or minor, moderate or major random delays are to be applied">
<polygon fill="white" stroke="black" points="935,-505.55 935,-524.55 1045,-524.55 1045,-505.55 935,-505.55"/>
<text text-anchor="middle" x="990" y="-512.55" font-family="Helvetica,sans-Serif" font-size="10.00">TUtilities::CallLogPop</text>
</a>
</g>
</g>
<!-- Node1&#45;&gt;Node2 -->
<g id="edge1" class="edge">
<title>Node1&#45;&gt;Node2</title>
<path fill="none" stroke="midnightblue" d="M74.34,-400.28C88.55,-486.85 171.39,-913.05 425,-913.05 425,-913.05 425,-913.05 610.5,-913.05 739.51,-913.05 802.02,-966.12 899,-881.05 952.35,-834.24 979.91,-603.96 987.08,-534.75"/>
<polygon fill="midnightblue" stroke="midnightblue" points="990.57,-535.05 988.09,-524.75 983.6,-534.35 990.57,-535.05"/>
</g>
<!-- Node3 -->
<g id="node3" class="node">
<title>Node3</title>
<g id="a_node3"><a xlink:href="class_t_one_pref_dir.html#a5b67e5aaa86d324229aedc68f32f32b8" target="_top" xlink:title="Return a non&#45;modifiable element at PrefDirVector position &#39;At&#39;.">
<polygon fill="white" stroke="black" points="756,-740.05 756,-770.05 888,-770.05 888,-740.05 756,-740.05"/>
<text text-anchor="start" x="764" y="-758.05" font-family="Helvetica,sans-Serif" font-size="10.00">TOnePrefDir::GetFixedPref</text>
<text text-anchor="middle" x="822" y="-747.05" font-family="Helvetica,sans-Serif" font-size="10.00">DirElementAt</text>
</a>
</g>
</g>
<!-- Node1&#45;&gt;Node3 -->
<g id="edge2" class="edge">
<title>Node1&#45;&gt;Node3</title>
<path fill="none" stroke="midnightblue" d="M82.19,-400.2C125.04,-462.41 298.29,-698.68 510,-780.05 595.67,-812.97 704.17,-791.36 767.76,-772.98"/>
<polygon fill="midnightblue" stroke="midnightblue" points="768.97,-776.27 777.56,-770.07 766.98,-769.56 768.97,-776.27"/>
</g>
<!-- Node4 -->
<g id="node4" class="node">
<title>Node4</title>
<g id="a_node4"><a xlink:href="class_t_utilities.html#a34bd6bb5305bc29afdf424f6d35a921c" target="_top" xlink:title="creates a string of the form &#39;hh:mm:ss&#39; for use in call &amp; event logging">
<polygon fill="white" stroke="black" points="935,-309.55 935,-328.55 1045,-328.55 1045,-309.55 935,-309.55"/>
<text text-anchor="middle" x="990" y="-316.55" font-family="Helvetica,sans-Serif" font-size="10.00">TUtilities::TimeStamp</text>
</a>
</g>
</g>
<!-- Node1&#45;&gt;Node4 -->
<g id="edge56" class="edge">
<title>Node1&#45;&gt;Node4</title>
<path fill="none" stroke="midnightblue" d="M75.06,-369.94C84.04,-329.01 113.83,-214.44 178,-145.05 262.66,-53.51 300.32,-12.05 425,-12.05 425,-12.05 425,-12.05 610.5,-12.05 739.83,-12.05 799.21,32.22 899,-50.05 977.08,-114.42 987.8,-248.77 988.99,-299.28"/>
<polygon fill="midnightblue" stroke="midnightblue" points="985.49,-299.53 989.12,-309.49 992.49,-299.44 985.49,-299.53"/>
</g>
<!-- Node5 -->
<g id="node5" class="node">
<title>Node5</title>
<g id="a_node5"><a xlink:href="class_t_all_routes.html#a7d9f820738af6314f2b9a4a1f52bb64a" target="_top" xlink:title="Returns a constant reference to the route at AllRoutesVector position &#39;At&#39;, after performing range ch...">
<polygon fill="white" stroke="black" points="749.5,-157.55 749.5,-176.55 894.5,-176.55 894.5,-157.55 749.5,-157.55"/>
<text text-anchor="middle" x="822" y="-164.55" font-family="Helvetica,sans-Serif" font-size="10.00">TAllRoutes::GetFixedRouteAt</text>
</a>
</g>
</g>
<!-- Node1&#45;&gt;Node5 -->
<g id="edge5" class="edge">
<title>Node1&#45;&gt;Node5</title>
<path fill="none" stroke="midnightblue" d="M76.97,-369.87C88.73,-336.47 121.6,-256.45 178,-217.05 363.1,-87.72 655.59,-131.12 771.41,-155.37"/>
<polygon fill="midnightblue" stroke="midnightblue" points="770.9,-158.84 781.41,-157.51 772.36,-151.99 770.9,-158.84"/>
</g>
<!-- Node6 -->
<g id="node6" class="node">
<title>Node6</title>
<g id="a_node6"><a xlink:href="class_t_one_pref_dir.html#a29d013bf730e23d27fdb2c390e3a14da" target="_top" xlink:title="Return the vector size.">
<polygon fill="white" stroke="black" points="760,-827.55 760,-846.55 884,-846.55 884,-827.55 760,-827.55"/>
<text text-anchor="middle" x="822" y="-834.55" font-family="Helvetica,sans-Serif" font-size="10.00">TOnePrefDir::PrefDirSize</text>
</a>
</g>
</g>
<!-- Node1&#45;&gt;Node6 -->
<g id="edge8" class="edge">
<title>Node1&#45;&gt;Node6</title>
<path fill="none" stroke="midnightblue" d="M75.8,-400.17C86.33,-439.63 119.04,-547.44 178,-617.05 247.32,-698.88 282.94,-702.41 378,-752.05 433.75,-781.16 448.89,-788.17 510,-803.05 590.73,-822.7 686.04,-831.01 749.67,-834.51"/>
<polygon fill="midnightblue" stroke="midnightblue" points="749.82,-838.02 759.99,-835.05 750.19,-831.03 749.82,-838.02"/>
</g>
<!-- Node7 -->
<g id="node7" class="node">
<title>Node7</title>
<g id="a_node7"><a xlink:href="class_t_one_route.html#a55e04e36f652344b5215f8a28143c4a3" target="_top" xlink:title="Called by TAllRoutes::SetAllRearwardsSignals to set rearwards signals from a specified starting posit...">
<polygon fill="white" stroke="black" points="178,-370.05 178,-400.05 342,-400.05 342,-370.05 178,-370.05"/>
<text text-anchor="start" x="186" y="-388.05" font-family="Helvetica,sans-Serif" font-size="10.00">TOneRoute::SetRearwardsSignals</text>
<text text-anchor="middle" x="260" y="-377.05" font-family="Helvetica,sans-Serif" font-size="10.00">ReturnFalseForTrain</text>
</a>
</g>
</g>
<!-- Node1&#45;&gt;Node7 -->
<g id="edge9" class="edge">
<title>Node1&#45;&gt;Node7</title>
<path fill="none" stroke="midnightblue" d="M142.16,-385.05C150.51,-385.05 159.11,-385.05 167.7,-385.05"/>
<polygon fill="midnightblue" stroke="midnightblue" points="167.74,-388.55 177.74,-385.05 167.74,-381.55 167.74,-388.55"/>
</g>
<!-- Node9 -->
<g id="node9" class="node">
<title>Node9</title>
<g id="a_node9"><a xlink:href="class_t_track.html#ad377e5a1f152f2e89832c0f9bcfd261f" target="_top" xlink:title="A range&#45;checked version of TrackVector.at(At)">
<polygon fill="white" stroke="black" points="761,-195.55 761,-214.55 883,-214.55 883,-195.55 761,-195.55"/>
<text text-anchor="middle" x="822" y="-202.55" font-family="Helvetica,sans-Serif" font-size="10.00">TTrack::TrackElementAt</text>
</a>
</g>
</g>
<!-- Node1&#45;&gt;Node9 -->
<g id="edge57" class="edge">
<title>Node1&#45;&gt;Node9</title>
<path fill="none" stroke="midnightblue" d="M91.83,-369.81C138.72,-334.62 261.27,-247.45 378,-205.05 516.58,-154.71 562.26,-168.77 709,-183.05 729.99,-185.09 752.89,-189.24 772.48,-193.39"/>
<polygon fill="midnightblue" stroke="midnightblue" points="771.88,-196.84 782.4,-195.54 773.37,-190 771.88,-196.84"/>
</g>
<!-- Node3&#45;&gt;Node2 -->
<g id="edge3" class="edge">
<title>Node3&#45;&gt;Node2</title>
<path fill="none" stroke="midnightblue" d="M876.92,-740.03C884.98,-736.09 892.69,-731.17 899,-725.05 954.91,-670.73 978.02,-576.05 985.74,-534.99"/>
<polygon fill="midnightblue" stroke="midnightblue" points="989.23,-535.36 987.52,-524.91 982.33,-534.15 989.23,-535.36"/>
</g>
<!-- Node3&#45;&gt;Node4 -->
<g id="edge4" class="edge">
<title>Node3&#45;&gt;Node4</title>
<path fill="none" stroke="midnightblue" d="M847.08,-739.89C864.3,-727.73 886.56,-709.1 899,-687.05 941.44,-611.81 914.37,-579.93 935,-496.05 949.27,-438.03 971.31,-370.89 982.29,-338.51"/>
<polygon fill="midnightblue" stroke="midnightblue" points="985.65,-339.51 985.57,-328.92 979.02,-337.25 985.65,-339.51"/>
</g>
<!-- Node5&#45;&gt;Node2 -->
<g id="edge6" class="edge">
<title>Node5&#45;&gt;Node2</title>
<path fill="none" stroke="midnightblue" d="M886.21,-176.72C890.92,-179.21 895.27,-182.27 899,-186.05 947.78,-235.44 916.86,-271.03 935,-338.05 950.69,-396 972.25,-463.66 982.75,-495.98"/>
<polygon fill="midnightblue" stroke="midnightblue" points="979.43,-497.09 985.86,-505.52 986.08,-494.92 979.43,-497.09"/>
</g>
<!-- Node5&#45;&gt;Node4 -->
<g id="edge7" class="edge">
<title>Node5&#45;&gt;Node4</title>
<path fill="none" stroke="midnightblue" d="M880.61,-176.58C887.13,-179.05 893.43,-182.15 899,-186.05 940.71,-215.23 968.7,-270.43 981.33,-299.7"/>
<polygon fill="midnightblue" stroke="midnightblue" points="978.21,-301.32 985.28,-309.21 984.68,-298.64 978.21,-301.32"/>
</g>
<!-- Node7&#45;&gt;Node2 -->
<g id="edge10" class="edge">
<title>Node7&#45;&gt;Node2</title>
<path fill="none" stroke="midnightblue" d="M265.59,-400.28C278.69,-442.3 319.14,-562.37 378,-648.05 484.17,-802.57 559.8,-826.84 745,-856.05 812.61,-866.71 844.78,-897.81 899,-856.05 951.27,-815.78 979.32,-601.61 986.88,-534.9"/>
<polygon fill="midnightblue" stroke="midnightblue" points="990.37,-535.19 987.99,-524.86 983.41,-534.42 990.37,-535.19"/>
</g>
<!-- Node7&#45;&gt;Node4 -->
<g id="edge53" class="edge">
<title>Node7&#45;&gt;Node4</title>
<path fill="none" stroke="midnightblue" d="M267.9,-369.93C283.58,-336.8 324.73,-256.66 378,-205.05 427.27,-157.31 444.86,-146.57 510,-125.05 674.42,-70.72 754.92,-6.99 899,-103.05 966.79,-148.24 983.6,-255.18 987.7,-299.39"/>
<polygon fill="midnightblue" stroke="midnightblue" points="984.22,-299.74 988.51,-309.43 991.2,-299.18 984.22,-299.74"/>
</g>
<!-- Node8 -->
<g id="node8" class="node">
<title>Node8</title>
<g id="a_node8"><a xlink:href="class_t_all_routes.html#afbb161c646677f13755041b895a23982" target="_top" xlink:title="Examines Route2MultiMap for the element at TrackVectorPosition with LinkPos (can be entry or exit).">
<polygon fill="white" stroke="black" points="543.5,-193.05 543.5,-223.05 675.5,-223.05 675.5,-193.05 543.5,-193.05"/>
<text text-anchor="start" x="551.5" y="-211.05" font-family="Helvetica,sans-Serif" font-size="10.00">TAllRoutes::GetRouteType</text>
<text text-anchor="middle" x="609.5" y="-200.05" font-family="Helvetica,sans-Serif" font-size="10.00">AndGraphics</text>
</a>
</g>
</g>
<!-- Node7&#45;&gt;Node8 -->
<g id="edge11" class="edge">
<title>Node7&#45;&gt;Node8</title>
<path fill="none" stroke="midnightblue" d="M268.09,-369.79C283.32,-338.95 322.33,-269.48 378,-238.05 424.98,-211.52 485.75,-204.52 533.1,-203.88"/>
<polygon fill="midnightblue" stroke="midnightblue" points="533.31,-207.38 543.3,-203.84 533.28,-200.38 533.31,-207.38"/>
</g>
<!-- Node7&#45;&gt;Node9 -->
<g id="edge54" class="edge">
<title>Node7&#45;&gt;Node9</title>
<path fill="none" stroke="midnightblue" d="M280.76,-369.9C303.29,-353.18 341.72,-326.37 378,-309.05 514.3,-243.96 561.06,-262.48 709,-232.05 721.27,-229.52 748.34,-223.01 772.79,-217.01"/>
<polygon fill="midnightblue" stroke="midnightblue" points="773.83,-220.36 782.71,-214.57 772.16,-213.56 773.83,-220.36"/>
</g>
<!-- Node10 -->
<g id="node10" class="node">
<title>Node10</title>
<g id="a_node10"><a xlink:href="class_t_all_routes.html#aa92b37f73176fcf3454688bb15b9f64c" target="_top" xlink:title="Checks whether the preferred direction element at TrackVectorPosition with XLinkPos value is in a loc...">
<polygon fill="white" stroke="black" points="510,-729.55 510,-770.55 709,-770.55 709,-729.55 510,-729.55"/>
<text text-anchor="start" x="518" y="-758.55" font-family="Helvetica,sans-Serif" font-size="10.00">TAllRoutes::IsElementInLocked</text>
<text text-anchor="start" x="518" y="-747.55" font-family="Helvetica,sans-Serif" font-size="10.00">RouteGetPrefDirElementGetLockedVector</text>
<text text-anchor="middle" x="609.5" y="-736.55" font-family="Helvetica,sans-Serif" font-size="10.00">Number</text>
</a>
</g>
</g>
<!-- Node7&#45;&gt;Node10 -->
<g id="edge17" class="edge">
<title>Node7&#45;&gt;Node10</title>
<path fill="none" stroke="midnightblue" d="M268.36,-400.34C294.09,-452.26 385.29,-623.56 510,-715.05 515.04,-718.74 520.51,-722.08 526.2,-725.09"/>
<polygon fill="midnightblue" stroke="midnightblue" points="524.77,-728.29 535.29,-729.54 527.85,-722 524.77,-728.29"/>
</g>
<!-- Node11 -->
<g id="node11" class="node">
<title>Node11</title>
<g id="a_node11"><a xlink:href="class_t_track.html#a73e781d0ada0b77618b886557f79b115" target="_top" xlink:title="True if a level crossing is found at H &amp; V.">
<polygon fill="white" stroke="black" points="562,-508.55 562,-527.55 657,-527.55 657,-508.55 562,-508.55"/>
<text text-anchor="middle" x="609.5" y="-515.55" font-family="Helvetica,sans-Serif" font-size="10.00">TTrack::IsLCAtHV</text>
</a>
</g>
</g>
<!-- Node7&#45;&gt;Node11 -->
<g id="edge22" class="edge">
<title>Node7&#45;&gt;Node11</title>
<path fill="none" stroke="midnightblue" d="M284.54,-400.19C307.71,-414.69 344.4,-436.59 378,-452.05 434.58,-478.07 449.92,-482.66 510,-499.05 523.39,-502.7 537.98,-505.92 551.73,-508.62"/>
<polygon fill="midnightblue" stroke="midnightblue" points="551.09,-512.06 561.57,-510.49 552.4,-505.18 551.09,-512.06"/>
</g>
<!-- Node14 -->
<g id="node14" class="node">
<title>Node14</title>
<g id="a_node14"><a xlink:href="class_t_track.html#aad258b17c96ace0dbbad3754eb743274" target="_top" xlink:title="True if an open (to trains) level crossing is found at H &amp; V.">
<polygon fill="white" stroke="black" points="536,-470.55 536,-489.55 683,-489.55 683,-470.55 536,-470.55"/>
<text text-anchor="middle" x="609.5" y="-477.55" font-family="Helvetica,sans-Serif" font-size="10.00">TTrack::IsLCBarrierDownAtHV</text>
</a>
</g>
</g>
<!-- Node7&#45;&gt;Node14 -->
<g id="edge31" class="edge">
<title>Node7&#45;&gt;Node14</title>
<path fill="none" stroke="midnightblue" d="M305.14,-400.07C354.6,-416.54 437.4,-443.02 510,-461.05 520.85,-463.74 532.45,-466.28 543.75,-468.57"/>
<polygon fill="midnightblue" stroke="midnightblue" points="543.08,-472 553.57,-470.52 544.44,-465.14 543.08,-472"/>
</g>
<!-- Node15 -->
<g id="node15" class="node">
<title>Node15</title>
<g id="a_node15"><a xlink:href="class_t_display.html#a9ab49e52c7eb92b32ae2c34547183439" target="_top" xlink:title="Plot the graphic at screen position HPos &amp; VPos.">
<polygon fill="white" stroke="black" points="768.5,-309.55 768.5,-328.55 875.5,-328.55 875.5,-309.55 768.5,-309.55"/>
<text text-anchor="middle" x="822" y="-316.55" font-family="Helvetica,sans-Serif" font-size="10.00">TDisplay::PlotOutput</text>
</a>
</g>
</g>
<!-- Node7&#45;&gt;Node15 -->
<g id="edge36" class="edge">
<title>Node7&#45;&gt;Node15</title>
<path fill="none" stroke="midnightblue" d="M342.01,-390.65C432.76,-394.82 583.57,-395.38 709,-365.05 713.15,-364.04 757.25,-345.74 788.85,-332.53"/>
<polygon fill="midnightblue" stroke="midnightblue" points="790.33,-335.71 798.2,-328.62 787.63,-329.25 790.33,-335.71"/>
</g>
<!-- Node16 -->
<g id="node16" class="node">
<title>Node16</title>
<g id="a_node16"><a xlink:href="class_t_track.html#aa5742fbc2eb3f8743dde84005499f89e" target="_top" xlink:title="Plot signals on screen according to their aspect (Attribute value)">
<polygon fill="white" stroke="black" points="378,-318.55 378,-337.55 474,-337.55 474,-318.55 378,-318.55"/>
<text text-anchor="middle" x="426" y="-325.55" font-family="Helvetica,sans-Serif" font-size="10.00">TTrack::PlotSignal</text>
</a>
</g>
</g>
<!-- Node7&#45;&gt;Node16 -->
<g id="edge39" class="edge">
<title>Node7&#45;&gt;Node16</title>
<path fill="none" stroke="midnightblue" d="M304.52,-369.92C330.37,-360.93 362.83,-349.65 387.54,-341.07"/>
<polygon fill="midnightblue" stroke="midnightblue" points="388.98,-344.27 397.27,-337.68 386.68,-337.66 388.98,-344.27"/>
</g>
<!-- Node20 -->
<g id="node20" class="node">
<title>Node20</title>
<g id="a_node20"><a xlink:href="class_t_display.html#aa4f37ab2a4df6437a2219f303e1de40b" target="_top" xlink:title="Repaint the screen display.">
<polygon fill="white" stroke="black" points="380.5,-356.55 380.5,-375.55 471.5,-375.55 471.5,-356.55 380.5,-356.55"/>
<text text-anchor="middle" x="426" y="-363.55" font-family="Helvetica,sans-Serif" font-size="10.00">TDisplay::Update</text>
</a>
</g>
</g>
<!-- Node7&#45;&gt;Node20 -->
<g id="edge55" class="edge">
<title>Node7&#45;&gt;Node20</title>
<path fill="none" stroke="midnightblue" d="M342.04,-375.66C351.65,-374.54 361.29,-373.43 370.41,-372.37"/>
<polygon fill="midnightblue" stroke="midnightblue" points="370.93,-375.83 380.46,-371.21 370.13,-368.88 370.93,-375.83"/>
</g>
<!-- Node8&#45;&gt;Node2 -->
<g id="edge12" class="edge">
<title>Node8&#45;&gt;Node2</title>
<path fill="none" stroke="midnightblue" d="M644.29,-223.15C671.2,-234.8 710.03,-250.77 745,-262.05 812.1,-283.68 845.45,-254.19 899,-300.05 959.94,-352.23 980.47,-452.56 986.63,-495.15"/>
<polygon fill="midnightblue" stroke="midnightblue" points="983.17,-495.65 987.96,-505.1 990.11,-494.73 983.17,-495.65"/>
</g>
<!-- Node8&#45;&gt;Node4 -->
<g id="edge13" class="edge">
<title>Node8&#45;&gt;Node4</title>
<path fill="none" stroke="midnightblue" d="M633.69,-192.86C685.23,-161.2 811.63,-95.3 899,-148.05 954.44,-181.52 977.44,-261.74 985.41,-299.17"/>
<polygon fill="midnightblue" stroke="midnightblue" points="982.04,-300.19 987.41,-309.32 988.91,-298.83 982.04,-300.19"/>
</g>
<!-- Node8&#45;&gt;Node9 -->
<g id="edge14" class="edge">
<title>Node8&#45;&gt;Node9</title>
<path fill="none" stroke="midnightblue" d="M675.66,-207.12C699.43,-206.78 726.41,-206.39 750.62,-206.05"/>
<polygon fill="midnightblue" stroke="midnightblue" points="750.86,-209.55 760.81,-205.9 750.76,-202.55 750.86,-209.55"/>
</g>
<!-- Node9&#45;&gt;Node2 -->
<g id="edge15" class="edge">
<title>Node9&#45;&gt;Node2</title>
<path fill="none" stroke="midnightblue" d="M883.35,-213.74C889.09,-216.38 894.46,-219.75 899,-224.05 900.29,-225.27 963.2,-430.7 983.06,-495.62"/>
<polygon fill="midnightblue" stroke="midnightblue" points="979.78,-496.87 986.05,-505.41 986.48,-494.82 979.78,-496.87"/>
</g>
<!-- Node9&#45;&gt;Node4 -->
<g id="edge16" class="edge">
<title>Node9&#45;&gt;Node4</title>
<path fill="none" stroke="midnightblue" d="M877.24,-214.55C884.83,-217.03 892.31,-220.14 899,-224.05 932.64,-243.7 961.6,-279.66 977.05,-301.25"/>
<polygon fill="midnightblue" stroke="midnightblue" points="974.24,-303.33 982.82,-309.54 979.98,-299.33 974.24,-303.33"/>
</g>
<!-- Node10&#45;&gt;Node2 -->
<g id="edge18" class="edge">
<title>Node10&#45;&gt;Node2</title>
<path fill="none" stroke="midnightblue" d="M653.21,-770.57C713.87,-796.41 825.72,-831.48 899,-779.05 979.92,-721.14 988.92,-586.09 989.32,-535.06"/>
<polygon fill="midnightblue" stroke="midnightblue" points="992.82,-534.73 989.29,-524.74 985.82,-534.75 992.82,-534.73"/>
</g>
<!-- Node10&#45;&gt;Node3 -->
<g id="edge19" class="edge">
<title>Node10&#45;&gt;Node3</title>
<path fill="none" stroke="midnightblue" d="M709.28,-752.39C721.51,-752.68 733.85,-752.98 745.65,-753.26"/>
<polygon fill="midnightblue" stroke="midnightblue" points="745.78,-756.76 755.86,-753.5 745.94,-749.76 745.78,-756.76"/>
</g>
<!-- Node10&#45;&gt;Node4 -->
<g id="edge21" class="edge">
<title>Node10&#45;&gt;Node4</title>
<path fill="none" stroke="midnightblue" d="M662.94,-729.43C727.15,-701.69 835.2,-646.46 899,-567.05 928.73,-530.04 969.32,-390.36 983.69,-338.55"/>
<polygon fill="midnightblue" stroke="midnightblue" points="987.14,-339.2 986.42,-328.63 980.39,-337.35 987.14,-339.2"/>
</g>
<!-- Node10&#45;&gt;Node6 -->
<g id="edge20" class="edge">
<title>Node10&#45;&gt;Node6</title>
<path fill="none" stroke="midnightblue" d="M650.8,-770.63C677.2,-783.69 712.69,-800.44 745,-813.05 755.46,-817.13 766.93,-821.03 777.71,-824.46"/>
<polygon fill="midnightblue" stroke="midnightblue" points="776.78,-827.84 787.37,-827.47 778.87,-821.16 776.78,-827.84"/>
</g>
<!-- Node11&#45;&gt;Node2 -->
<g id="edge23" class="edge">
<title>Node11&#45;&gt;Node2</title>
<path fill="none" stroke="midnightblue" d="M619.82,-527.63C640.23,-547.83 691.34,-594.3 745,-611.05 810.34,-631.44 836.2,-638.26 899,-611.05 935.48,-595.24 963.95,-556.56 978.45,-533.41"/>
<polygon fill="midnightblue" stroke="midnightblue" points="981.46,-535.2 983.63,-524.83 975.46,-531.58 981.46,-535.2"/>
</g>
<!-- Node11&#45;&gt;Node4 -->
<g id="edge30" class="edge">
<title>Node11&#45;&gt;Node4</title>
<path fill="none" stroke="midnightblue" d="M631.59,-527.68C682.55,-549.37 814.36,-595.87 899,-539.05 934.28,-515.36 971.04,-387.43 984.07,-338.29"/>
<polygon fill="midnightblue" stroke="midnightblue" points="987.46,-339.13 986.6,-328.57 980.69,-337.36 987.46,-339.13"/>
</g>
<!-- Node12 -->
<g id="node12" class="node">
<title>Node12</title>
<g id="a_node12"><a xlink:href="class_t_track.html#a418966e6fefb71b9d0c9b941197832da" target="_top" xlink:title="Similar to GetVectorPositionFromTrackMap but for inactive elements, a pair is returned because there ...">
<polygon fill="white" stroke="black" points="753.5,-500.05 753.5,-530.05 890.5,-530.05 890.5,-500.05 753.5,-500.05"/>
<text text-anchor="start" x="761.5" y="-518.05" font-family="Helvetica,sans-Serif" font-size="10.00">TTrack::GetVectorPositions</text>
<text text-anchor="middle" x="822" y="-507.05" font-family="Helvetica,sans-Serif" font-size="10.00">FromInactiveTrackMap</text>
</a>
</g>
</g>
<!-- Node11&#45;&gt;Node12 -->
<g id="edge24" class="edge">
<title>Node11&#45;&gt;Node12</title>
<path fill="none" stroke="midnightblue" d="M657.22,-517.38C682.46,-517.02 714.29,-516.57 743.17,-516.16"/>
<polygon fill="midnightblue" stroke="midnightblue" points="743.29,-519.65 753.24,-516.01 743.19,-512.65 743.29,-519.65"/>
</g>
<!-- Node13 -->
<g id="node13" class="node">
<title>Node13</title>
<g id="a_node13"><a xlink:href="class_t_track.html#a51f89cf70e94b037f6378cd78003d82b" target="_top" xlink:title="A range&#45;checked version of InactiveTrackVector.at(At)">
<polygon fill="white" stroke="black" points="745,-461.55 745,-480.55 899,-480.55 899,-461.55 745,-461.55"/>
<text text-anchor="middle" x="822" y="-468.55" font-family="Helvetica,sans-Serif" font-size="10.00">TTrack::InactiveTrackElementAt</text>
</a>
</g>
</g>
<!-- Node11&#45;&gt;Node13 -->
<g id="edge27" class="edge">
<title>Node11&#45;&gt;Node13</title>
<path fill="none" stroke="midnightblue" d="M657.21,-509.58C673.62,-506.46 692.17,-502.77 709,-499.05 709.21,-499 742.55,-490.66 772.79,-483.1"/>
<polygon fill="midnightblue" stroke="midnightblue" points="774.03,-486.4 782.88,-480.58 772.33,-479.61 774.03,-486.4"/>
</g>
<!-- Node12&#45;&gt;Node2 -->
<g id="edge25" class="edge">
<title>Node12&#45;&gt;Node2</title>
<path fill="none" stroke="midnightblue" d="M890.52,-515.05C901.79,-515.05 913.45,-515.05 924.64,-515.05"/>
<polygon fill="midnightblue" stroke="midnightblue" points="924.76,-518.55 934.76,-515.05 924.76,-511.55 924.76,-518.55"/>
</g>
<!-- Node12&#45;&gt;Node4 -->
<g id="edge26" class="edge">
<title>Node12&#45;&gt;Node4</title>
<path fill="none" stroke="midnightblue" d="M883.82,-499.94C889.27,-497.17 894.44,-493.9 899,-490.05 947.77,-448.8 973.78,-374.32 983.91,-338.85"/>
<polygon fill="midnightblue" stroke="midnightblue" points="987.39,-339.37 986.64,-328.8 980.64,-337.53 987.39,-339.37"/>
</g>
<!-- Node13&#45;&gt;Node2 -->
<g id="edge28" class="edge">
<title>Node13&#45;&gt;Node2</title>
<path fill="none" stroke="midnightblue" d="M862.1,-480.62C873.97,-483.58 887.03,-486.89 899,-490.05 914.16,-494.05 930.71,-498.59 945.43,-502.7"/>
<polygon fill="midnightblue" stroke="midnightblue" points="944.72,-506.13 955.29,-505.46 946.61,-499.39 944.72,-506.13"/>
</g>
<!-- Node13&#45;&gt;Node4 -->
<g id="edge29" class="edge">
<title>Node13&#45;&gt;Node4</title>
<path fill="none" stroke="midnightblue" d="M869.9,-461.48C880.1,-458.02 890.4,-453.34 899,-447.05 938.65,-418.02 967.2,-366.1 980.54,-338.14"/>
<polygon fill="midnightblue" stroke="midnightblue" points="983.89,-339.24 984.9,-328.69 977.54,-336.31 983.89,-339.24"/>
</g>
<!-- Node14&#45;&gt;Node2 -->
<g id="edge32" class="edge">
<title>Node14&#45;&gt;Node2</title>
<path fill="none" stroke="midnightblue" d="M683.18,-488.45C692.2,-491.1 701.04,-494.55 709,-499.05 729.82,-510.81 723.15,-529.32 745,-539.05 815.24,-570.33 907.85,-545.51 956.28,-528.19"/>
<polygon fill="midnightblue" stroke="midnightblue" points="957.76,-531.38 965.92,-524.63 955.33,-524.81 957.76,-531.38"/>
</g>
<!-- Node14&#45;&gt;Node4 -->
<g id="edge35" class="edge">
<title>Node14&#45;&gt;Node4</title>
<path fill="none" stroke="midnightblue" d="M667.33,-470.53C681.06,-467.83 695.63,-464.64 709,-461.05 795.33,-437.85 821.32,-439.29 899,-395.05 927.4,-378.87 955.43,-353.26 972.47,-336.31"/>
<polygon fill="midnightblue" stroke="midnightblue" points="975.38,-338.34 979.91,-328.76 970.39,-333.43 975.38,-338.34"/>
</g>
<!-- Node14&#45;&gt;Node12 -->
<g id="edge33" class="edge">
<title>Node14&#45;&gt;Node12</title>
<path fill="none" stroke="midnightblue" d="M667.74,-489.56C690.96,-493.42 718.15,-497.95 743.12,-502.1"/>
<polygon fill="midnightblue" stroke="midnightblue" points="742.87,-505.6 753.31,-503.79 744.02,-498.7 742.87,-505.6"/>
</g>
<!-- Node14&#45;&gt;Node13 -->
<g id="edge34" class="edge">
<title>Node14&#45;&gt;Node13</title>
<path fill="none" stroke="midnightblue" d="M683.24,-476.94C699.67,-476.23 717.28,-475.48 734.23,-474.76"/>
<polygon fill="midnightblue" stroke="midnightblue" points="734.84,-478.23 744.68,-474.31 734.54,-471.24 734.84,-478.23"/>
</g>
<!-- Node15&#45;&gt;Node2 -->
<g id="edge37" class="edge">
<title>Node15&#45;&gt;Node2</title>
<path fill="none" stroke="midnightblue" d="M837.23,-328.7C853.34,-340.05 879.85,-360.03 899,-381.05 932.96,-418.31 963.64,-469.38 978.87,-496.44"/>
<polygon fill="midnightblue" stroke="midnightblue" points="975.85,-498.22 983.77,-505.26 981.97,-494.82 975.85,-498.22"/>
</g>
<!-- Node15&#45;&gt;Node4 -->
<g id="edge38" class="edge">
<title>Node15&#45;&gt;Node4</title>
<path fill="none" stroke="midnightblue" d="M875.52,-319.05C891.03,-319.05 908.18,-319.05 924.36,-319.05"/>
<polygon fill="midnightblue" stroke="midnightblue" points="924.82,-322.55 934.82,-319.05 924.82,-315.55 924.82,-322.55"/>
</g>
<!-- Node16&#45;&gt;Node2 -->
<g id="edge40" class="edge">
<title>Node16&#45;&gt;Node2</title>
<path fill="none" stroke="midnightblue" d="M462.51,-337.74C466.87,-340.18 470.87,-343.24 474,-347.05 528.51,-413.5 455.74,-470.39 510,-537.05 581.34,-624.67 634.17,-612.07 745,-634.05 812.14,-647.36 837.72,-664.53 899,-634.05 940.95,-613.18 968.55,-562.38 981.14,-534.38"/>
<polygon fill="midnightblue" stroke="midnightblue" points="984.49,-535.44 985.22,-524.87 978.06,-532.67 984.49,-535.44"/>
</g>
<!-- Node16&#45;&gt;Node4 -->
<g id="edge52" class="edge">
<title>Node16&#45;&gt;Node4</title>
<path fill="none" stroke="midnightblue" d="M429.58,-318.5C437.15,-292.4 461.84,-219.39 510,-183.05 595.87,-118.25 638.21,-138.03 745,-125.05 812.94,-116.79 841.31,-88.21 899,-125.05 960.79,-164.49 980.8,-258.49 986.73,-299.43"/>
<polygon fill="midnightblue" stroke="midnightblue" points="983.27,-300.02 988.05,-309.48 990.21,-299.11 983.27,-300.02"/>
</g>
<!-- Node16&#45;&gt;Node15 -->
<g id="edge42" class="edge">
<title>Node16&#45;&gt;Node15</title>
<path fill="none" stroke="midnightblue" d="M460.62,-337.55C475.61,-341.32 493.55,-345.19 510,-347.05 597.89,-356.98 621.22,-357.85 709,-347.05 733.56,-344.02 760.47,-337.4 781.77,-331.36"/>
<polygon fill="midnightblue" stroke="midnightblue" points="782.8,-334.7 791.43,-328.55 780.85,-327.98 782.8,-334.7"/>
</g>
<!-- Node17 -->
<g id="node17" class="node">
<title>Node17</title>
<g id="a_node17"><a xlink:href="class_t_track_element.html#a100bff829c4dca820927affde4cb9e57" target="_top" xlink:title="Used to log track parameters for call stack logging.">
<polygon fill="white" stroke="black" points="545.5,-318.55 545.5,-337.55 673.5,-337.55 673.5,-318.55 545.5,-318.55"/>
<text text-anchor="middle" x="609.5" y="-325.55" font-family="Helvetica,sans-Serif" font-size="10.00">TTrackElement::LogTrack</text>
</a>
</g>
</g>
<!-- Node16&#45;&gt;Node17 -->
<g id="edge41" class="edge">
<title>Node16&#45;&gt;Node17</title>
<path fill="none" stroke="midnightblue" d="M474.21,-328.05C492.9,-328.05 514.81,-328.05 535.45,-328.05"/>
<polygon fill="midnightblue" stroke="midnightblue" points="535.46,-331.55 545.46,-328.05 535.46,-324.55 535.46,-331.55"/>
</g>
<!-- Node18 -->
<g id="node18" class="node">
<title>Node18</title>
<g id="a_node18"><a xlink:href="class_t_display.html#a6e970089a9419e6bdd12576b6e860c95" target="_top" xlink:title=" ">
<polygon fill="white" stroke="black" points="757.5,-233.55 757.5,-252.55 886.5,-252.55 886.5,-233.55 757.5,-233.55"/>
<text text-anchor="middle" x="822" y="-240.55" font-family="Helvetica,sans-Serif" font-size="10.00">TDisplay::PlotSignalBlank</text>
</a>
</g>
</g>
<!-- Node16&#45;&gt;Node18 -->
<g id="edge43" class="edge">
<title>Node16&#45;&gt;Node18</title>
<path fill="none" stroke="midnightblue" d="M467.92,-318.54C481.32,-315.47 496.29,-312.07 510,-309.05 599.1,-289.4 702.8,-267.61 765.1,-254.63"/>
<polygon fill="midnightblue" stroke="midnightblue" points="766.03,-258.01 775.11,-252.55 764.6,-251.16 766.03,-258.01"/>
</g>
<!-- Node19 -->
<g id="node19" class="node">
<title>Node19</title>
<g id="a_node19"><a xlink:href="class_t_track.html#a2830b22db25712a80fa55b1546b5df9b" target="_top" xlink:title="Plot platforms if any for a signal graphic &#45; plotted before signal so shows through transparent signa...">
<polygon fill="white" stroke="black" points="541,-432.55 541,-451.55 678,-451.55 678,-432.55 541,-432.55"/>
<text text-anchor="middle" x="609.5" y="-439.55" font-family="Helvetica,sans-Serif" font-size="10.00">TTrack::PlotSignalPlatforms</text>
</a>
</g>
</g>
<!-- Node16&#45;&gt;Node19 -->
<g id="edge46" class="edge">
<title>Node16&#45;&gt;Node19</title>
<path fill="none" stroke="midnightblue" d="M455.64,-337.72C461.9,-340.35 468.34,-343.48 474,-347.05 492.35,-358.63 492.75,-366.88 510,-380.05 533.4,-397.91 562.07,-415.52 582.43,-427.38"/>
<polygon fill="midnightblue" stroke="midnightblue" points="580.74,-430.44 591.15,-432.41 584.23,-424.38 580.74,-430.44"/>
</g>
<!-- Node18&#45;&gt;Node2 -->
<g id="edge44" class="edge">
<title>Node18&#45;&gt;Node2</title>
<path fill="none" stroke="midnightblue" d="M875.56,-252.64C884.16,-256.07 892.41,-260.73 899,-267.05 916.4,-283.72 966.02,-440.61 983.12,-495.88"/>
<polygon fill="midnightblue" stroke="midnightblue" points="979.8,-496.99 986.09,-505.51 986.49,-494.93 979.8,-496.99"/>
</g>
<!-- Node18&#45;&gt;Node4 -->
<g id="edge45" class="edge">
<title>Node18&#45;&gt;Node4</title>
<path fill="none" stroke="midnightblue" d="M858.78,-252.59C871.68,-256.49 886.21,-261.41 899,-267.05 922.77,-277.51 948.25,-292.65 966.02,-303.89"/>
<polygon fill="midnightblue" stroke="midnightblue" points="964.25,-306.91 974.55,-309.37 968.03,-301.02 964.25,-306.91"/>
</g>
<!-- Node19&#45;&gt;Node2 -->
<g id="edge47" class="edge">
<title>Node19&#45;&gt;Node2</title>
<path fill="none" stroke="midnightblue" d="M678,-433.77C737.72,-428.9 826.4,-427.77 899,-452.05 927.6,-461.61 955.21,-483.4 972.14,-498.66"/>
<polygon fill="midnightblue" stroke="midnightblue" points="969.84,-501.3 979.55,-505.54 974.6,-496.17 969.84,-501.3"/>
</g>
<!-- Node19&#45;&gt;Node4 -->
<g id="edge51" class="edge">
<title>Node19&#45;&gt;Node4</title>
<path fill="none" stroke="midnightblue" d="M653.91,-432.47C671.16,-428.4 691.12,-423.37 709,-418.05 799.06,-391.23 902.8,-352.42 955.1,-332.28"/>
<polygon fill="midnightblue" stroke="midnightblue" points="956.49,-335.5 964.55,-328.63 953.96,-328.97 956.49,-335.5"/>
</g>
<!-- Node19&#45;&gt;Node12 -->
<g id="edge48" class="edge">
<title>Node19&#45;&gt;Node12</title>
<path fill="none" stroke="midnightblue" d="M678.11,-450.54C688.73,-453.16 699.36,-456.58 709,-461.05 727.64,-469.69 726.95,-480.23 745,-490.05 748.95,-492.19 753.12,-494.2 757.38,-496.06"/>
<polygon fill="midnightblue" stroke="midnightblue" points="756.25,-499.38 766.83,-499.91 758.89,-492.9 756.25,-499.38"/>
</g>
<!-- Node19&#45;&gt;Node13 -->
<g id="edge49" class="edge">
<title>Node19&#45;&gt;Node13</title>
<path fill="none" stroke="midnightblue" d="M678.26,-451.38C698.51,-454.17 720.88,-457.25 741.79,-460.13"/>
<polygon fill="midnightblue" stroke="midnightblue" points="741.54,-463.63 751.92,-461.53 742.49,-456.7 741.54,-463.63"/>
</g>
<!-- Node19&#45;&gt;Node15 -->
<g id="edge50" class="edge">
<title>Node19&#45;&gt;Node15</title>
<path fill="none" stroke="midnightblue" d="M678.08,-434.02C689.22,-430.42 700.04,-425.31 709,-418.05 737.72,-394.76 717.07,-367.28 745,-343.05 749.8,-338.88 755.33,-335.44 761.16,-332.59"/>
<polygon fill="midnightblue" stroke="midnightblue" points="762.7,-335.74 770.53,-328.59 759.96,-329.3 762.7,-335.74"/>
</g>
</g>
</svg>
