<?xml version="1.0" encoding="UTF-8" standalone="no"?>
<!DOCTYPE svg PUBLIC "-//W3C//DTD SVG 1.1//EN"
 "http://www.w3.org/Graphics/SVG/1.1/DTD/svg11.dtd">
<!-- Generated by graphviz version 2.44.1 (20200629.0800)
 -->
<!-- Title: TAllRoutes::CheckMapAndRoutes Pages: 1 -->
<!--zoomable 334 -->
<svg id="main" version="1.1" xmlns="http://www.w3.org/2000/svg" xmlns:xlink="http://www.w3.org/1999/xlink" xml:space="preserve" onload="init(evt)">
<style type="text/css"><![CDATA[
.edge:hover path { stroke: red; }
.edge:hover polygon { stroke: red; fill: red; }
]]></style>
<script type="text/javascript"><![CDATA[
var edges = document.getElementsByTagName('g');
if (edges && edges.length) {
  for (var i=0;i<edges.length;i++) {
    if (edges[i].id.substr(0,4)=='edge') {
      edges[i].setAttribute('class','edge');
    }
  }
}
]]></script>
        <defs>
                <circle id="rim" cx="0" cy="0" r="7"/>
                <circle id="rim2" cx="0" cy="0" r="3.5"/>
                <g id="zoomPlus">
                        <use xlink:href="#rim" fill="#404040">
                                <set attributeName="fill" to="#808080" begin="zoomplus.mouseover" end="zoomplus.mouseout"/>
                        </use>
                        <path d="M-4,0h8M0,-4v8" fill="none" stroke="white" stroke-width="1.5" pointer-events="none"/>
                </g>
                <g id="zoomMin">
                        <use xlink:href="#rim" fill="#404040">
                                <set attributeName="fill" to="#808080" begin="zoomminus.mouseover" end="zoomminus.mouseout"/>
                        </use>
                        <path d="M-4,0h8" fill="none" stroke="white" stroke-width="1.5" pointer-events="none"/>
                </g>
                <g id="dirArrow">
                        <path fill="none" stroke="white" stroke-width="1.5" d="M0,-3.0v7 M-2.5,-0.5L0,-3.0L2.5,-0.5"/>
                </g>
               <g id="resetDef">
                       <use xlink:href="#rim2" fill="#404040">
                               <set attributeName="fill" to="#808080" begin="reset.mouseover" end="reset.mouseout"/>
                       </use>
               </g>
        </defs>

<script type="text/javascript">
var viewWidth = 1576;
var viewHeight = 334;
var sectionId = 'dynsection-8';
</script>
<script xlink:href="svgpan.js"/>
<svg id="graph" class="graph">
<g id="viewport">
<title>TAllRoutes::CheckMapAndRoutes</title>
<polygon fill="white" stroke="transparent" points="-4,4 -4,-329.5 1572,-329.5 1572,4 -4,4"/>
<!-- Node1 -->
<g id="node1" class="node">
<title>Node1</title>
<g id="a_node1"><a xlink:title="Diagnostic function &#45; checks equivalence for each route between entries in PrefDirVector and those in...">
<polygon fill="#bfbfbf" stroke="black" points="1404,-157 1404,-176 1568,-176 1568,-157 1404,-157"/>
<text text-anchor="middle" x="1486" y="-164" font-family="Helvetica,sans-Serif" font-size="10.00">TAllRoutes::CheckMapAndRoutes</text>
</a>
</g>
</g>
<!-- Node2 -->
<g id="node2" class="node">
<title>Node2</title>
<g id="a_node2"><a xlink:href="class_t_interface.html#a0a89df44c20c9e2c096e66e2950c79a6" target="_top" xlink:title="Function that deals with approach locking during ClockTimer2 function.">
<polygon fill="white" stroke="black" points="495,-306 495,-325 635,-325 635,-306 495,-306"/>
<text text-anchor="middle" x="565" y="-313" font-family="Helvetica,sans-Serif" font-size="10.00">TInterface::ApproachLocking</text>
</a>
</g>
</g>
<!-- Node1&#45;&gt;Node2 -->
<g id="edge1" class="edge">
<title>Node1&#45;&gt;Node2</title>
<path fill="none" stroke="midnightblue" d="M1469.27,-183.78C1448.31,-205.72 1409.09,-243.14 1368,-263.5 1258.64,-317.68 1222.54,-325.5 1100.5,-325.5 1100.5,-325.5 1100.5,-325.5 903,-325.5 810.23,-325.5 703.15,-321.67 635.04,-318.75"/>
<polygon fill="midnightblue" stroke="midnightblue" points="1472.09,-185.89 1476.37,-176.2 1466.98,-181.11 1472.09,-185.89"/>
</g>
<!-- Node5 -->
<g id="node5" class="node">
<title>Node5</title>
<g id="a_node5"><a xlink:href="class_t_one_route.html#a53496c398dcdb3a644801c4e74d47d01" target="_top" xlink:title="Called after a non&#45;preferred (i.e. unrestricted) route has been selected and has finished flashing,...">
<polygon fill="white" stroke="black" points="1210,-223.5 1210,-253.5 1368,-253.5 1368,-223.5 1210,-223.5"/>
<text text-anchor="start" x="1218" y="-241.5" font-family="Helvetica,sans-Serif" font-size="10.00">TOneRoute::ConvertAndAdd</text>
<text text-anchor="middle" x="1289" y="-230.5" font-family="Helvetica,sans-Serif" font-size="10.00">NonPreferredRouteSearchVector</text>
</a>
</g>
</g>
<!-- Node1&#45;&gt;Node5 -->
<g id="edge4" class="edge">
<title>Node1&#45;&gt;Node5</title>
<path fill="none" stroke="midnightblue" d="M1453.83,-180.19C1430.43,-190.25 1397.48,-203.94 1368,-214.5 1359.46,-217.56 1350.32,-220.59 1341.41,-223.41"/>
<polygon fill="midnightblue" stroke="midnightblue" points="1455.45,-183.31 1463.24,-176.12 1452.67,-176.88 1455.45,-183.31"/>
</g>
<!-- Node9 -->
<g id="node9" class="node">
<title>Node9</title>
<g id="a_node9"><a xlink:href="class_t_one_route.html#a36ba8adc8b4a47908ee4e1b8e75792ca" target="_top" xlink:title="Called after a preferred (i.e. preferred direction or automatic signals) route has been selected and ...">
<polygon fill="white" stroke="black" points="1219,-174.5 1219,-204.5 1359,-204.5 1359,-174.5 1219,-174.5"/>
<text text-anchor="start" x="1227" y="-192.5" font-family="Helvetica,sans-Serif" font-size="10.00">TOneRoute::ConvertAndAdd</text>
<text text-anchor="middle" x="1289" y="-181.5" font-family="Helvetica,sans-Serif" font-size="10.00">PreferredRouteSearchVector</text>
</a>
</g>
</g>
<!-- Node1&#45;&gt;Node9 -->
<g id="edge9" class="edge">
<title>Node1&#45;&gt;Node9</title>
<path fill="none" stroke="midnightblue" d="M1394.03,-177.23C1382.31,-178.61 1370.46,-180.01 1359.17,-181.34"/>
<polygon fill="midnightblue" stroke="midnightblue" points="1394.76,-180.67 1404.28,-176.02 1393.94,-173.72 1394.76,-180.67"/>
</g>
<!-- Node11 -->
<g id="node11" class="node">
<title>Node11</title>
<g id="a_node11"><a xlink:href="class_t_one_route.html#a491fff1e619a9dc79774acf85eed72a5" target="_top" xlink:title="Cancel a route immediately if a train occupies it when travelling in the wrong direction (or occupies...">
<polygon fill="white" stroke="black" points="1213,-134 1213,-153 1365,-153 1365,-134 1213,-134"/>
<text text-anchor="middle" x="1289" y="-141" font-family="Helvetica,sans-Serif" font-size="10.00">TOneRoute::ForceCancelRoute</text>
</a>
</g>
</g>
<!-- Node1&#45;&gt;Node11 -->
<g id="edge12" class="edge">
<title>Node1&#45;&gt;Node11</title>
<path fill="none" stroke="midnightblue" d="M1394.16,-155.79C1384.41,-154.64 1374.57,-153.48 1365.03,-152.35"/>
<polygon fill="midnightblue" stroke="midnightblue" points="1393.94,-159.28 1404.28,-156.98 1394.76,-152.33 1393.94,-159.28"/>
</g>
<!-- Node15 -->
<g id="node15" class="node">
<title>Node15</title>
<g id="a_node15"><a xlink:href="class_t_train.html#a89ad640ecf8f5163c40727b4e28575fc" target="_top" xlink:title="Major function called at each clock tick for each train &amp; handles all train movement &amp; associated act...">
<polygon fill="white" stroke="black" points="514.5,-126 514.5,-145 615.5,-145 615.5,-126 514.5,-126"/>
<text text-anchor="middle" x="565" y="-133" font-family="Helvetica,sans-Serif" font-size="10.00">TTrain::UpdateTrain</text>
</a>
</g>
</g>
<!-- Node1&#45;&gt;Node15 -->
<g id="edge24" class="edge">
<title>Node1&#45;&gt;Node15</title>
<path fill="none" stroke="midnightblue" d="M1455.78,-152.47C1392.54,-123.45 1237.63,-59.5 1100.5,-59.5 1100.5,-59.5 1100.5,-59.5 903,-59.5 783.65,-59.5 646.21,-105.42 590.93,-125.87"/>
<polygon fill="midnightblue" stroke="midnightblue" points="1454.58,-155.78 1465.12,-156.82 1457.53,-149.43 1454.58,-155.78"/>
</g>
<!-- Node18 -->
<g id="node18" class="node">
<title>Node18</title>
<g id="a_node18"><a xlink:href="class_t_one_route.html#ae131609dd8248dae2d7b699ab8777202" target="_top" xlink:title="Examines the route to see whether the element at H &amp; V is in the route, and if not returns a ReturnFl...">
<polygon fill="white" stroke="black" points="1214,-0.5 1214,-30.5 1364,-30.5 1364,-0.5 1214,-0.5"/>
<text text-anchor="start" x="1222" y="-18.5" font-family="Helvetica,sans-Serif" font-size="10.00">TOneRoute::GetRouteTruncate</text>
<text text-anchor="middle" x="1289" y="-7.5" font-family="Helvetica,sans-Serif" font-size="10.00">Element</text>
</a>
</g>
</g>
<!-- Node1&#45;&gt;Node18 -->
<g id="edge23" class="edge">
<title>Node1&#45;&gt;Node18</title>
<path fill="none" stroke="midnightblue" d="M1472.01,-148.81C1452.19,-122.93 1412.03,-74.64 1368,-45.5 1359.17,-39.65 1349.03,-34.7 1339.05,-30.61"/>
<polygon fill="midnightblue" stroke="midnightblue" points="1469.34,-151.08 1478.15,-156.97 1474.93,-146.87 1469.34,-151.08"/>
</g>
<!-- Node3 -->
<g id="node3" class="node">
<title>Node3</title>
<g id="a_node3"><a xlink:href="class_t_interface.html#a6139ffb52492eb89e5487a8a3cd647b5" target="_top" xlink:title="The main loop, called every clock tick via MasterClockTimer.">
<polygon fill="white" stroke="black" points="179,-240 179,-259 298,-259 298,-240 179,-240"/>
<text text-anchor="middle" x="238.5" y="-247" font-family="Helvetica,sans-Serif" font-size="10.00">TInterface::ClockTimer2</text>
</a>
</g>
</g>
<!-- Node2&#45;&gt;Node3 -->
<g id="edge2" class="edge">
<title>Node2&#45;&gt;Node3</title>
<path fill="none" stroke="midnightblue" d="M507.04,-303.92C444.33,-291.16 344.67,-270.89 286.32,-259.02"/>
<polygon fill="midnightblue" stroke="midnightblue" points="506.66,-307.41 517.16,-305.97 508.06,-300.55 506.66,-307.41"/>
</g>
<!-- Node4 -->
<g id="node4" class="node">
<title>Node4</title>
<g id="a_node4"><a xlink:href="class_t_interface.html#ace30a12d923fc7fb489afabb0a09aa4f" target="_top" xlink:title=" ">
<polygon fill="white" stroke="black" points="0,-240 0,-259 143,-259 143,-240 0,-240"/>
<text text-anchor="middle" x="71.5" y="-247" font-family="Helvetica,sans-Serif" font-size="10.00">TInterface::MasterClockTimer</text>
</a>
</g>
</g>
<!-- Node3&#45;&gt;Node4 -->
<g id="edge3" class="edge">
<title>Node3&#45;&gt;Node4</title>
<path fill="none" stroke="midnightblue" d="M168.67,-249.5C160.22,-249.5 151.57,-249.5 143.09,-249.5"/>
<polygon fill="midnightblue" stroke="midnightblue" points="168.86,-253 178.86,-249.5 168.86,-246 168.86,-253"/>
</g>
<!-- Node6 -->
<g id="node6" class="node">
<title>Node6</title>
<g id="a_node6"><a xlink:href="class_t_interface.html#a7e6535742855a19cb3e35b1711a7ab59" target="_top" xlink:title="Deal with any warning graphics that need to flash (call on, signal stop, crash etc),...">
<polygon fill="white" stroke="black" points="1029.5,-228 1029.5,-247 1169.5,-247 1169.5,-228 1029.5,-228"/>
<text text-anchor="middle" x="1099.5" y="-235" font-family="Helvetica,sans-Serif" font-size="10.00">TInterface::FlashingGraphics</text>
</a>
</g>
</g>
<!-- Node5&#45;&gt;Node6 -->
<g id="edge5" class="edge">
<title>Node5&#45;&gt;Node6</title>
<path fill="none" stroke="midnightblue" d="M1199.75,-238.03C1189.62,-237.98 1179.4,-237.92 1169.57,-237.87"/>
<polygon fill="midnightblue" stroke="midnightblue" points="1199.82,-241.53 1209.84,-238.08 1199.86,-234.53 1199.82,-241.53"/>
</g>
<!-- Node7 -->
<g id="node7" class="node">
<title>Node7</title>
<g id="a_node7"><a xlink:href="class_t_interface.html#abf07d5edc1507de381825f17620748b2" target="_top" xlink:title="Called when mouse button clicked in zoom&#45;in mode.">
<polygon fill="white" stroke="black" points="1026.5,-266.5 1026.5,-296.5 1172.5,-296.5 1172.5,-266.5 1026.5,-266.5"/>
<text text-anchor="start" x="1034.5" y="-284.5" font-family="Helvetica,sans-Serif" font-size="10.00">TInterface::MainScreenMouse</text>
<text text-anchor="middle" x="1099.5" y="-273.5" font-family="Helvetica,sans-Serif" font-size="10.00">Down2</text>
</a>
</g>
</g>
<!-- Node5&#45;&gt;Node7 -->
<g id="edge7" class="edge">
<title>Node5&#45;&gt;Node7</title>
<path fill="none" stroke="midnightblue" d="M1212.44,-255.83C1197.07,-259.35 1181.03,-263.03 1166.04,-266.47"/>
<polygon fill="midnightblue" stroke="midnightblue" points="1213.46,-259.19 1222.42,-253.54 1211.89,-252.36 1213.46,-259.19"/>
</g>
<!-- Node6&#45;&gt;Node3 -->
<g id="edge6" class="edge">
<title>Node6&#45;&gt;Node3</title>
<path fill="none" stroke="midnightblue" d="M1018.9,-241.57C943.89,-245.05 828.34,-249.5 728,-249.5 728,-249.5 728,-249.5 564,-249.5 471.04,-249.5 363.11,-249.5 298.12,-249.5"/>
<polygon fill="midnightblue" stroke="midnightblue" points="1019.39,-245.05 1029.21,-241.08 1019.06,-238.06 1019.39,-245.05"/>
</g>
<!-- Node8 -->
<g id="node8" class="node">
<title>Node8</title>
<g id="a_node8"><a xlink:href="class_t_interface.html#a7f37862fb9e01e1328d9fd3fd8c50094" target="_top" xlink:title=" ">
<polygon fill="white" stroke="black" points="819,-278 819,-297 989,-297 989,-278 819,-278"/>
<text text-anchor="middle" x="904" y="-285" font-family="Helvetica,sans-Serif" font-size="10.00">TInterface::MainScreenMouseDown</text>
</a>
</g>
</g>
<!-- Node7&#45;&gt;Node8 -->
<g id="edge8" class="edge">
<title>Node7&#45;&gt;Node8</title>
<path fill="none" stroke="midnightblue" d="M1016.38,-284.05C1007.38,-284.33 998.21,-284.61 989.19,-284.89"/>
<polygon fill="midnightblue" stroke="midnightblue" points="1016.56,-287.54 1026.45,-283.73 1016.34,-280.55 1016.56,-287.54"/>
</g>
<!-- Node9&#45;&gt;Node6 -->
<g id="edge10" class="edge">
<title>Node9&#45;&gt;Node6</title>
<path fill="none" stroke="midnightblue" d="M1219.21,-207.11C1191.7,-214.15 1161.1,-221.99 1137.86,-227.94"/>
<polygon fill="midnightblue" stroke="midnightblue" points="1220.37,-210.43 1229.19,-204.56 1218.63,-203.65 1220.37,-210.43"/>
</g>
<!-- Node10 -->
<g id="node10" class="node">
<title>Node10</title>
<g id="a_node10"><a xlink:href="class_t_interface.html#aa639148521a793641e694b15486b5055" target="_top" xlink:title=" ">
<polygon fill="white" stroke="black" points="1035.5,-176.5 1035.5,-206.5 1163.5,-206.5 1163.5,-176.5 1035.5,-176.5"/>
<text text-anchor="start" x="1043.5" y="-194.5" font-family="Helvetica,sans-Serif" font-size="10.00">TInterface::PresetAutoSig</text>
<text text-anchor="middle" x="1099.5" y="-183.5" font-family="Helvetica,sans-Serif" font-size="10.00">RoutesButtonClick</text>
</a>
</g>
</g>
<!-- Node9&#45;&gt;Node10 -->
<g id="edge11" class="edge">
<title>Node9&#45;&gt;Node10</title>
<path fill="none" stroke="midnightblue" d="M1208.7,-190.35C1193.7,-190.51 1178.2,-190.67 1163.78,-190.82"/>
<polygon fill="midnightblue" stroke="midnightblue" points="1209.02,-193.84 1218.98,-190.24 1208.94,-186.84 1209.02,-193.84"/>
</g>
<!-- Node12 -->
<g id="node12" class="node">
<title>Node12</title>
<g id="a_node12"><a xlink:href="class_t_train.html#a50997f7e8138a7e6a147fe3b5ad21b84" target="_top" xlink:title="Checks whether Element and EntryPos (where train is about to enter) is on an existing route (or cross...">
<polygon fill="white" stroke="black" points="1025,-127.5 1025,-157.5 1174,-157.5 1174,-127.5 1025,-127.5"/>
<text text-anchor="start" x="1033" y="-145.5" font-family="Helvetica,sans-Serif" font-size="10.00">TTrain::CheckAndCancelRoute</text>
<text text-anchor="middle" x="1099.5" y="-134.5" font-family="Helvetica,sans-Serif" font-size="10.00">ForWrongEndEntry</text>
</a>
</g>
</g>
<!-- Node11&#45;&gt;Node12 -->
<g id="edge13" class="edge">
<title>Node11&#45;&gt;Node12</title>
<path fill="none" stroke="midnightblue" d="M1202.59,-143.04C1193.1,-142.99 1183.5,-142.94 1174.17,-142.89"/>
<polygon fill="midnightblue" stroke="midnightblue" points="1202.8,-146.55 1212.82,-143.1 1202.84,-139.55 1202.8,-146.55"/>
</g>
<!-- Node13 -->
<g id="node13" class="node">
<title>Node13</title>
<g id="a_node13"><a xlink:href="class_t_train_controller.html#aa895b60238810a9d134cd5b9c886da56" target="_top" xlink:title="Introduce a new train to the railway, with the characteristics specified, returns true for success,...">
<polygon fill="white" stroke="black" points="840,-148 840,-167 968,-167 968,-148 840,-148"/>
<text text-anchor="middle" x="904" y="-155" font-family="Helvetica,sans-Serif" font-size="10.00">TTrainController::AddTrain</text>
</a>
</g>
</g>
<!-- Node12&#45;&gt;Node13 -->
<g id="edge14" class="edge">
<title>Node12&#45;&gt;Node13</title>
<path fill="none" stroke="midnightblue" d="M1014.62,-149C999.01,-150.21 982.94,-151.46 968.08,-152.61"/>
<polygon fill="midnightblue" stroke="midnightblue" points="1015.09,-152.48 1024.79,-148.21 1014.55,-145.5 1015.09,-152.48"/>
</g>
<!-- Node12&#45;&gt;Node15 -->
<g id="edge22" class="edge">
<title>Node12&#45;&gt;Node15</title>
<path fill="none" stroke="midnightblue" d="M1014.65,-129.97C928.37,-118.82 790.14,-105.81 671,-116.5 650.33,-118.35 627.65,-122.22 608.68,-125.99"/>
<polygon fill="midnightblue" stroke="midnightblue" points="1014.27,-133.45 1024.65,-131.28 1015.19,-126.51 1014.27,-133.45"/>
</g>
<!-- Node14 -->
<g id="node14" class="node">
<title>Node14</title>
<g id="a_node14"><a xlink:href="class_t_train.html#ad666fb061d1da7c44a72ec963c2098aa" target="_top" xlink:title="Carry out the actions needed when a train is to split from the front.">
<polygon fill="white" stroke="black" points="671,-164 671,-183 783,-183 783,-164 671,-164"/>
<text text-anchor="middle" x="727" y="-171" font-family="Helvetica,sans-Serif" font-size="10.00">TTrain::FrontTrainSplit</text>
</a>
</g>
</g>
<!-- Node13&#45;&gt;Node14 -->
<g id="edge15" class="edge">
<title>Node13&#45;&gt;Node14</title>
<path fill="none" stroke="midnightblue" d="M829.71,-164.2C814.17,-165.62 798.01,-167.1 783.27,-168.45"/>
<polygon fill="midnightblue" stroke="midnightblue" points="830.18,-167.67 839.82,-163.28 829.54,-160.7 830.18,-167.67"/>
</g>
<!-- Node16 -->
<g id="node16" class="node">
<title>Node16</title>
<g id="a_node16"><a xlink:href="class_t_train_controller.html#a20a1576dea1d86ed78fc5e9f46343481" target="_top" xlink:title="called every clock tick to introduce new trains and update existing trains">
<polygon fill="white" stroke="black" points="334,-202 334,-221 459,-221 459,-202 334,-202"/>
<text text-anchor="middle" x="396.5" y="-209" font-family="Helvetica,sans-Serif" font-size="10.00">TTrainController::Operate</text>
</a>
</g>
</g>
<!-- Node13&#45;&gt;Node16 -->
<g id="edge19" class="edge">
<title>Node13&#45;&gt;Node16</title>
<path fill="none" stroke="midnightblue" d="M867.15,-170.36C843.56,-178.21 811.84,-187.65 783,-192.5 669.84,-211.52 535.57,-213.6 459.07,-212.89"/>
<polygon fill="midnightblue" stroke="midnightblue" points="868.38,-173.63 876.73,-167.1 866.13,-167 868.38,-173.63"/>
</g>
<!-- Node17 -->
<g id="node17" class="node">
<title>Node17</title>
<g id="a_node17"><a xlink:href="class_t_train.html#ad64c5823265b0c611c2e5f0613317aa5" target="_top" xlink:title="Carry out the actions needed when a train is to split from the rear.">
<polygon fill="white" stroke="black" points="672,-126 672,-145 782,-145 782,-126 672,-126"/>
<text text-anchor="middle" x="727" y="-133" font-family="Helvetica,sans-Serif" font-size="10.00">TTrain::RearTrainSplit</text>
</a>
</g>
</g>
<!-- Node13&#45;&gt;Node17 -->
<g id="edge20" class="edge">
<title>Node13&#45;&gt;Node17</title>
<path fill="none" stroke="midnightblue" d="M829.5,-148.26C813.62,-146.26 797.11,-144.19 782.13,-142.3"/>
<polygon fill="midnightblue" stroke="midnightblue" points="829.46,-151.78 839.82,-149.56 830.34,-144.84 829.46,-151.78"/>
</g>
<!-- Node14&#45;&gt;Node15 -->
<g id="edge16" class="edge">
<title>Node14&#45;&gt;Node15</title>
<path fill="none" stroke="midnightblue" d="M675.61,-161.53C653.19,-156.21 627.15,-150.02 606.08,-145.02"/>
<polygon fill="midnightblue" stroke="midnightblue" points="675.09,-165.01 685.63,-163.91 676.7,-158.19 675.09,-165.01"/>
</g>
<!-- Node15&#45;&gt;Node16 -->
<g id="edge17" class="edge">
<title>Node15&#45;&gt;Node16</title>
<path fill="none" stroke="midnightblue" d="M533.63,-149.36C500.24,-164.6 447.47,-188.69 418.42,-201.95"/>
<polygon fill="midnightblue" stroke="midnightblue" points="535.27,-152.46 542.91,-145.13 532.36,-146.09 535.27,-152.46"/>
</g>
<!-- Node16&#45;&gt;Node3 -->
<g id="edge18" class="edge">
<title>Node16&#45;&gt;Node3</title>
<path fill="none" stroke="midnightblue" d="M346.37,-223.47C324.51,-228.79 299.12,-234.98 278.58,-239.98"/>
<polygon fill="midnightblue" stroke="midnightblue" points="347.25,-226.86 356.13,-221.09 345.59,-220.06 347.25,-226.86"/>
</g>
<!-- Node17&#45;&gt;Node15 -->
<g id="edge21" class="edge">
<title>Node17&#45;&gt;Node15</title>
<path fill="none" stroke="midnightblue" d="M661.4,-135.5C646.11,-135.5 630.04,-135.5 615.54,-135.5"/>
<polygon fill="midnightblue" stroke="midnightblue" points="661.83,-139 671.83,-135.5 661.83,-132 661.83,-139"/>
</g>
</g>
</svg>
        <g id="navigator" transform="translate(0 0)" fill="#404254">
                <rect fill="#f2f5e9" fill-opacity="0.5" stroke="#606060" stroke-width=".5" x="0" y="0" width="60" height="60"/>
                <use id="zoomplus" xlink:href="#zoomPlus" x="17" y="9" onmousedown="handleZoom(evt,'in')"/>
                <use id="zoomminus" xlink:href="#zoomMin" x="42" y="9" onmousedown="handleZoom(evt,'out')"/>
                <use id="reset" xlink:href="#resetDef" x="30" y="36" onmousedown="handleReset()"/>
                <g id="arrowUp" xlink:href="#dirArrow" transform="translate(30 24)" onmousedown="handlePan(0,-1)">
                  <use xlink:href="#rim" fill="#404040">
                        <set attributeName="fill" to="#808080" begin="arrowUp.mouseover" end="arrowUp.mouseout"/>
                  </use>
                  <path fill="none" stroke="white" stroke-width="1.5" d="M0,-3.0v7 M-2.5,-0.5L0,-3.0L2.5,-0.5"/>
                </g>
                <g id="arrowRight" xlink:href="#dirArrow" transform="rotate(90) translate(36 -43)" onmousedown="handlePan(1,0)">
                  <use xlink:href="#rim" fill="#404040">
                        <set attributeName="fill" to="#808080" begin="arrowRight.mouseover" end="arrowRight.mouseout"/>
                  </use>
                  <path fill="none" stroke="white" stroke-width="1.5" d="M0,-3.0v7 M-2.5,-0.5L0,-3.0L2.5,-0.5"/>
                </g>
                <g id="arrowDown" xlink:href="#dirArrow" transform="rotate(180) translate(-30 -48)" onmousedown="handlePan(0,1)">
                  <use xlink:href="#rim" fill="#404040">
                        <set attributeName="fill" to="#808080" begin="arrowDown.mouseover" end="arrowDown.mouseout"/>
                  </use>
                  <path fill="none" stroke="white" stroke-width="1.5" d="M0,-3.0v7 M-2.5,-0.5L0,-3.0L2.5,-0.5"/>
                </g>
                <g id="arrowLeft" xlink:href="#dirArrow" transform="rotate(270) translate(-36 17)" onmousedown="handlePan(-1,0)">
                  <use xlink:href="#rim" fill="#404040">
                        <set attributeName="fill" to="#808080" begin="arrowLeft.mouseover" end="arrowLeft.mouseout"/>
                  </use>
                  <path fill="none" stroke="white" stroke-width="1.5" d="M0,-3.0v7 M-2.5,-0.5L0,-3.0L2.5,-0.5"/>
                </g>
        </g>
        <svg viewBox="0 0 15 15" width="100%" height="30px" preserveAspectRatio="xMaxYMin meet">
         <g id="arrow_out" transform="scale(0.3 0.3)">
          <a xlink:href="class_t_all_routes_a54e5483e7b01daf50436e3dcc8794e77_icgraph_org.svg" target="_base">
           <rect id="button" ry="5" rx="5" y="6" x="6" height="38" width="38"
                fill="#f2f5e9" fill-opacity="0.5" stroke="#606060" stroke-width="1.0"/>
           <path id="arrow"
             d="M 11.500037,31.436501 C 11.940474,20.09759 22.043105,11.32322 32.158766,21.979434 L 37.068811,17.246167 C 37.068811,17.246167 37.088388,32 37.088388,32 L 22.160133,31.978069 C 22.160133,31.978069 26.997745,27.140456 26.997745,27.140456 C 18.528582,18.264221 13.291696,25.230495 11.500037,31.436501 z"
             style="fill:#404040;"/>
          </a>
         </g>
        </svg>
</svg>
