<?xml version="1.0" encoding="UTF-8" standalone="no"?>
<!DOCTYPE svg PUBLIC "-//W3C//DTD SVG 1.1//EN"
 "http://www.w3.org/Graphics/SVG/1.1/DTD/svg11.dtd">
<!-- Generated by graphviz version 2.44.1 (20200629.0800)
 -->
<!-- Title: TTrack::AnyLinkedBarrierDownVectorManual Pages: 1 -->
<svg width="601pt" height="225pt"
 viewBox="0.00 0.00 601.00 224.95" xmlns="http://www.w3.org/2000/svg" xmlns:xlink="http://www.w3.org/1999/xlink">
<g id="graph0" class="graph" transform="scale(1 1) rotate(0) translate(4 220.95)">
<title>TTrack::AnyLinkedBarrierDownVectorManual</title>
<polygon fill="white" stroke="transparent" points="-4,4 -4,-220.95 597,-220.95 597,4 -4,4"/>
<!-- Node1 -->
<g id="node1" class="node">
<title>Node1</title>
<g id="a_node1"><a xlink:title="Checks BarrierDownVector and returns true if there is one that is linked to the LC at H &amp; V positions...">
<polygon fill="#bfbfbf" stroke="black" points="0,-121.28 0,-151.28 126,-151.28 126,-121.28 0,-121.28"/>
<text text-anchor="start" x="8" y="-139.28" font-family="Helvetica,sans-Serif" font-size="10.00">TTrack::AnyLinkedBarrier</text>
<text text-anchor="middle" x="63" y="-128.28" font-family="Helvetica,sans-Serif" font-size="10.00">DownVectorManual</text>
</a>
</g>
</g>
<!-- Node2 -->
<g id="node2" class="node">
<title>Node2</title>
<g id="a_node2"><a xlink:href="class_t_utilities.html#ae1eddca13cc3c492839e131f40ec21c0" target="_top" xlink:title="&lt; specifies whether no delays or minor, moderate or major random delays are to be applied">
<polygon fill="white" stroke="black" points="483,-123.78 483,-142.78 593,-142.78 593,-123.78 483,-123.78"/>
<text text-anchor="middle" x="538" y="-130.78" font-family="Helvetica,sans-Serif" font-size="10.00">TUtilities::CallLogPop</text>
</a>
</g>
</g>
<!-- Node1&#45;&gt;Node2 -->
<g id="edge1" class="edge">
<title>Node1&#45;&gt;Node2</title>
<path fill="none" stroke="midnightblue" d="M94.09,-151.28C159.75,-181.92 320.16,-245.3 447,-202.28 477.12,-192.06 505.07,-167.25 521.59,-150.35"/>
<polygon fill="midnightblue" stroke="midnightblue" points="524.42,-152.45 528.74,-142.78 519.33,-147.64 524.42,-152.45"/>
</g>
<!-- Node3 -->
<g id="node3" class="node">
<title>Node3</title>
<g id="a_node3"><a xlink:href="class_t_track.html#a6635891513167223f4b9aadd0121c312" target="_top" xlink:title="True if there is a vector entry at H &amp; V that is set to manual (TypeOfRoute == 2) and returns the vec...">
<polygon fill="white" stroke="black" points="300,-162.28 300,-192.28 440,-192.28 440,-162.28 300,-162.28"/>
<text text-anchor="start" x="308" y="-180.28" font-family="Helvetica,sans-Serif" font-size="10.00">TTrack::IsBarrierDownVector</text>
<text text-anchor="middle" x="370" y="-169.28" font-family="Helvetica,sans-Serif" font-size="10.00">AtHVManual</text>
</a>
</g>
</g>
<!-- Node1&#45;&gt;Node3 -->
<g id="edge2" class="edge">
<title>Node1&#45;&gt;Node3</title>
<path fill="none" stroke="midnightblue" d="M126.09,-144.62C173.36,-150.98 238.77,-159.77 289.81,-166.63"/>
<polygon fill="midnightblue" stroke="midnightblue" points="289.44,-170.11 299.82,-167.98 290.37,-163.17 289.44,-170.11"/>
</g>
<!-- Node4 -->
<g id="node4" class="node">
<title>Node4</title>
<g id="a_node4"><a xlink:href="class_t_utilities.html#a34bd6bb5305bc29afdf424f6d35a921c" target="_top" xlink:title="creates a string of the form &#39;hh:mm:ss&#39; for use in call &amp; event logging">
<polygon fill="white" stroke="black" points="483,-41.78 483,-60.78 593,-60.78 593,-41.78 483,-41.78"/>
<text text-anchor="middle" x="538" y="-48.78" font-family="Helvetica,sans-Serif" font-size="10.00">TUtilities::TimeStamp</text>
</a>
</g>
</g>
<!-- Node1&#45;&gt;Node4 -->
<g id="edge14" class="edge">
<title>Node1&#45;&gt;Node4</title>
<path fill="none" stroke="midnightblue" d="M83.03,-121.14C120.5,-92.46 207.67,-31.28 293,-11.28 359.64,4.35 380.05,2.93 447,-11.28 470.14,-16.19 494.56,-27.48 512.12,-36.81"/>
<polygon fill="midnightblue" stroke="midnightblue" points="510.66,-40.01 521.11,-41.75 514.03,-33.87 510.66,-40.01"/>
</g>
<!-- Node5 -->
<g id="node5" class="node">
<title>Node5</title>
<g id="a_node5"><a xlink:href="class_t_track.html#a73e781d0ada0b77618b886557f79b115" target="_top" xlink:title="True if a level crossing is found at H &amp; V.">
<polygon fill="white" stroke="black" points="162,-85.78 162,-104.78 257,-104.78 257,-85.78 162,-85.78"/>
<text text-anchor="middle" x="209.5" y="-92.78" font-family="Helvetica,sans-Serif" font-size="10.00">TTrack::IsLCAtHV</text>
</a>
</g>
</g>
<!-- Node1&#45;&gt;Node5 -->
<g id="edge5" class="edge">
<title>Node1&#45;&gt;Node5</title>
<path fill="none" stroke="midnightblue" d="M116.99,-121.24C132.84,-116.74 150.04,-111.86 165.19,-107.56"/>
<polygon fill="midnightblue" stroke="midnightblue" points="166.16,-110.93 174.83,-104.83 164.25,-104.19 166.16,-110.93"/>
</g>
<!-- Node3&#45;&gt;Node2 -->
<g id="edge3" class="edge">
<title>Node3&#45;&gt;Node2</title>
<path fill="none" stroke="midnightblue" d="M427.66,-162.26C448.3,-156.79 471.36,-150.67 490.96,-145.48"/>
<polygon fill="midnightblue" stroke="midnightblue" points="492.09,-148.8 500.86,-142.85 490.3,-142.03 492.09,-148.8"/>
</g>
<!-- Node3&#45;&gt;Node4 -->
<g id="edge4" class="edge">
<title>Node3&#45;&gt;Node4</title>
<path fill="none" stroke="midnightblue" d="M391.02,-162.08C422.71,-138.03 484.1,-91.43 516.24,-67.03"/>
<polygon fill="midnightblue" stroke="midnightblue" points="518.63,-69.61 524.48,-60.78 514.4,-64.04 518.63,-69.61"/>
</g>
<!-- Node5&#45;&gt;Node2 -->
<g id="edge6" class="edge">
<title>Node5&#45;&gt;Node2</title>
<path fill="none" stroke="midnightblue" d="M246.83,-104.87C261.13,-108.32 277.75,-111.94 293,-114.28 353.58,-123.56 423.35,-128.41 472.73,-130.88"/>
<polygon fill="midnightblue" stroke="midnightblue" points="472.79,-134.39 482.95,-131.37 473.13,-127.4 472.79,-134.39"/>
</g>
<!-- Node5&#45;&gt;Node4 -->
<g id="edge13" class="edge">
<title>Node5&#45;&gt;Node4</title>
<path fill="none" stroke="midnightblue" d="M218.1,-85.54C231.29,-69.52 260.18,-38.19 293,-26.28 364.19,-0.43 454.23,-22.56 502.57,-38.48"/>
<polygon fill="midnightblue" stroke="midnightblue" points="501.63,-41.86 512.23,-41.77 503.89,-35.23 501.63,-41.86"/>
</g>
<!-- Node6 -->
<g id="node6" class="node">
<title>Node6</title>
<g id="a_node6"><a xlink:href="class_t_track.html#a418966e6fefb71b9d0c9b941197832da" target="_top" xlink:title="Similar to GetVectorPositionFromTrackMap but for inactive elements, a pair is returned because there ...">
<polygon fill="white" stroke="black" points="301.5,-36.28 301.5,-66.28 438.5,-66.28 438.5,-36.28 301.5,-36.28"/>
<text text-anchor="start" x="309.5" y="-54.28" font-family="Helvetica,sans-Serif" font-size="10.00">TTrack::GetVectorPositions</text>
<text text-anchor="middle" x="370" y="-43.28" font-family="Helvetica,sans-Serif" font-size="10.00">FromInactiveTrackMap</text>
</a>
</g>
</g>
<!-- Node5&#45;&gt;Node6 -->
<g id="edge7" class="edge">
<title>Node5&#45;&gt;Node6</title>
<path fill="none" stroke="midnightblue" d="M244.89,-85.73C262.5,-80.84 284.51,-74.73 305.09,-69.02"/>
<polygon fill="midnightblue" stroke="midnightblue" points="306.03,-72.39 314.73,-66.34 304.16,-65.64 306.03,-72.39"/>
</g>
<!-- Node7 -->
<g id="node7" class="node">
<title>Node7</title>
<g id="a_node7"><a xlink:href="class_t_track.html#a51f89cf70e94b037f6378cd78003d82b" target="_top" xlink:title="A range&#45;checked version of InactiveTrackVector.at(At)">
<polygon fill="white" stroke="black" points="293,-85.78 293,-104.78 447,-104.78 447,-85.78 293,-85.78"/>
<text text-anchor="middle" x="370" y="-92.78" font-family="Helvetica,sans-Serif" font-size="10.00">TTrack::InactiveTrackElementAt</text>
</a>
</g>
</g>
<!-- Node5&#45;&gt;Node7 -->
<g id="edge10" class="edge">
<title>Node5&#45;&gt;Node7</title>
<path fill="none" stroke="midnightblue" d="M257.2,-95.28C265.27,-95.28 273.89,-95.28 282.62,-95.28"/>
<polygon fill="midnightblue" stroke="midnightblue" points="282.91,-98.78 292.91,-95.28 282.91,-91.78 282.91,-98.78"/>
</g>
<!-- Node6&#45;&gt;Node2 -->
<g id="edge8" class="edge">
<title>Node6&#45;&gt;Node2</title>
<path fill="none" stroke="midnightblue" d="M422.77,-66.4C431.01,-69.34 439.34,-72.66 447,-76.28 471.78,-87.98 498.03,-105.23 515.74,-117.68"/>
<polygon fill="midnightblue" stroke="midnightblue" points="514,-120.74 524.17,-123.71 518.07,-115.05 514,-120.74"/>
</g>
<!-- Node6&#45;&gt;Node4 -->
<g id="edge9" class="edge">
<title>Node6&#45;&gt;Node4</title>
<path fill="none" stroke="midnightblue" d="M438.52,-51.28C449.79,-51.28 461.45,-51.28 472.64,-51.28"/>
<polygon fill="midnightblue" stroke="midnightblue" points="472.76,-54.78 482.76,-51.28 472.76,-47.78 472.76,-54.78"/>
</g>
<!-- Node7&#45;&gt;Node2 -->
<g id="edge11" class="edge">
<title>Node7&#45;&gt;Node2</title>
<path fill="none" stroke="midnightblue" d="M412.89,-104.86C434.89,-109.9 462.05,-116.12 485.35,-121.45"/>
<polygon fill="midnightblue" stroke="midnightblue" points="484.88,-124.94 495.41,-123.76 486.45,-118.11 484.88,-124.94"/>
</g>
<!-- Node7&#45;&gt;Node4 -->
<g id="edge12" class="edge">
<title>Node7&#45;&gt;Node4</title>
<path fill="none" stroke="midnightblue" d="M407.34,-85.74C419.91,-82.43 434.08,-78.7 447,-75.28 461.34,-71.48 476.96,-67.32 491.1,-63.55"/>
<polygon fill="midnightblue" stroke="midnightblue" points="492.34,-66.84 501.1,-60.88 490.53,-60.08 492.34,-66.84"/>
</g>
</g>
</svg>
