<?xml version="1.0" encoding="UTF-8" standalone="no"?>
<!DOCTYPE svg PUBLIC "-//W3C//DTD SVG 1.1//EN"
 "http://www.w3.org/Graphics/SVG/1.1/DTD/svg11.dtd">
<!-- Generated by graphviz version 2.44.1 (20200629.0800)
 -->
<!-- Title: TTrack::ResetGapsFromGapMap Pages: 1 -->
<svg width="668pt" height="211pt"
 viewBox="0.00 0.00 668.00 211.12" xmlns="http://www.w3.org/2000/svg" xmlns:xlink="http://www.w3.org/1999/xlink">
<g id="graph0" class="graph" transform="scale(1 1) rotate(0) translate(4 207.12)">
<title>TTrack::ResetGapsFromGapMap</title>
<polygon fill="white" stroke="transparent" points="-4,4 -4,-207.12 664,-207.12 664,4 -4,4"/>
<!-- Node1 -->
<g id="node1" class="node">
<title>Node1</title>
<g id="a_node1"><a xlink:title="Called by RepositionAndMapTrack to reset the connecting elements of all set gaps (their TrackVector p...">
<polygon fill="#bfbfbf" stroke="black" points="0,-39.37 0,-58.37 160,-58.37 160,-39.37 0,-39.37"/>
<text text-anchor="middle" x="80" y="-46.37" font-family="Helvetica,sans-Serif" font-size="10.00">TTrack::ResetGapsFromGapMap</text>
</a>
</g>
</g>
<!-- Node2 -->
<g id="node2" class="node">
<title>Node2</title>
<g id="a_node2"><a xlink:href="class_t_utilities.html#ae1eddca13cc3c492839e131f40ec21c0" target="_top" xlink:title="&lt; specifies whether no delays or minor, moderate or major random delays are to be applied">
<polygon fill="white" stroke="black" points="550,-143.37 550,-162.37 660,-162.37 660,-143.37 550,-143.37"/>
<text text-anchor="middle" x="605" y="-150.37" font-family="Helvetica,sans-Serif" font-size="10.00">TUtilities::CallLogPop</text>
</a>
</g>
</g>
<!-- Node1&#45;&gt;Node2 -->
<g id="edge1" class="edge">
<title>Node1&#45;&gt;Node2</title>
<path fill="none" stroke="midnightblue" d="M94.89,-58.52C136.28,-86.61 263.35,-167.95 383,-193.87 439.9,-206.19 457.1,-206.21 514,-193.87 537.36,-188.8 561.93,-177.11 579.48,-167.51"/>
<polygon fill="midnightblue" stroke="midnightblue" points="581.47,-170.41 588.46,-162.45 578.03,-164.31 581.47,-170.41"/>
</g>
<!-- Node3 -->
<g id="node3" class="node">
<title>Node3</title>
<g id="a_node3"><a xlink:href="class_t_track.html#ad55e3329a208e84e9e7519cc024b7aec" target="_top" xlink:title="True if find a non&#45;platform element at HLoc &amp; VLoc, and if so return its TrackVector position and a r...">
<polygon fill="white" stroke="black" points="196,-80.37 196,-99.37 347,-99.37 347,-80.37 196,-80.37"/>
<text text-anchor="middle" x="271.5" y="-87.37" font-family="Helvetica,sans-Serif" font-size="10.00">TTrack::FindNonPlatformMatch</text>
</a>
</g>
</g>
<!-- Node1&#45;&gt;Node3 -->
<g id="edge2" class="edge">
<title>Node1&#45;&gt;Node3</title>
<path fill="none" stroke="midnightblue" d="M124.95,-58.37C152.24,-64.28 187.51,-71.91 216.49,-78.18"/>
<polygon fill="midnightblue" stroke="midnightblue" points="215.95,-81.64 226.46,-80.34 217.43,-74.8 215.95,-81.64"/>
</g>
<!-- Node5 -->
<g id="node5" class="node">
<title>Node5</title>
<g id="a_node5"><a xlink:href="class_t_utilities.html#a34bd6bb5305bc29afdf424f6d35a921c" target="_top" xlink:title="creates a string of the form &#39;hh:mm:ss&#39; for use in call &amp; event logging">
<polygon fill="white" stroke="black" points="550,-39.37 550,-58.37 660,-58.37 660,-39.37 550,-39.37"/>
<text text-anchor="middle" x="605" y="-46.37" font-family="Helvetica,sans-Serif" font-size="10.00">TUtilities::TimeStamp</text>
</a>
</g>
</g>
<!-- Node1&#45;&gt;Node5 -->
<g id="edge12" class="edge">
<title>Node1&#45;&gt;Node5</title>
<path fill="none" stroke="midnightblue" d="M115.06,-39.33C188.62,-20.16 367.56,18.78 514,-10.87 536.58,-15.44 560.54,-25.86 578.06,-34.63"/>
<polygon fill="midnightblue" stroke="midnightblue" points="576.58,-37.81 587.07,-39.29 579.79,-31.59 576.58,-37.81"/>
</g>
<!-- Node7 -->
<g id="node7" class="node">
<title>Node7</title>
<g id="a_node7"><a xlink:href="class_t_track.html#ad377e5a1f152f2e89832c0f9bcfd261f" target="_top" xlink:title="A range&#45;checked version of TrackVector.at(At)">
<polygon fill="white" stroke="black" points="387.5,-20.37 387.5,-39.37 509.5,-39.37 509.5,-20.37 387.5,-20.37"/>
<text text-anchor="middle" x="448.5" y="-27.37" font-family="Helvetica,sans-Serif" font-size="10.00">TTrack::TrackElementAt</text>
</a>
</g>
</g>
<!-- Node1&#45;&gt;Node7 -->
<g id="edge13" class="edge">
<title>Node1&#45;&gt;Node7</title>
<path fill="none" stroke="midnightblue" d="M160.07,-44.77C224.66,-41.42 315.09,-36.73 377.18,-33.51"/>
<polygon fill="midnightblue" stroke="midnightblue" points="377.47,-37 387.28,-32.99 377.11,-30.01 377.47,-37"/>
</g>
<!-- Node3&#45;&gt;Node2 -->
<g id="edge3" class="edge">
<title>Node3&#45;&gt;Node2</title>
<path fill="none" stroke="midnightblue" d="M280.72,-99.46C297.59,-118.3 338.32,-159.67 383,-174.87 445.48,-196.12 523.21,-179.11 567.86,-165.51"/>
<polygon fill="midnightblue" stroke="midnightblue" points="569.19,-168.76 577.67,-162.42 567.08,-162.09 569.19,-168.76"/>
</g>
<!-- Node4 -->
<g id="node4" class="node">
<title>Node4</title>
<g id="a_node4"><a xlink:href="class_t_track.html#aa0812972d1ae27198c5fbca8aa7b6134" target="_top" xlink:title="Returns the track vector position corresponding to the Hloc &amp; VLoc positions, FoundFlag indicates whe...">
<polygon fill="white" stroke="black" points="383,-96.87 383,-126.87 514,-126.87 514,-96.87 383,-96.87"/>
<text text-anchor="start" x="391" y="-114.87" font-family="Helvetica,sans-Serif" font-size="10.00">TTrack::GetVectorPosition</text>
<text text-anchor="middle" x="448.5" y="-103.87" font-family="Helvetica,sans-Serif" font-size="10.00">FromTrackMap</text>
</a>
</g>
</g>
<!-- Node3&#45;&gt;Node4 -->
<g id="edge4" class="edge">
<title>Node3&#45;&gt;Node4</title>
<path fill="none" stroke="midnightblue" d="M347.22,-99.26C355.77,-100.33 364.48,-101.43 373.03,-102.5"/>
<polygon fill="midnightblue" stroke="midnightblue" points="372.6,-105.98 382.96,-103.75 373.47,-99.03 372.6,-105.98"/>
</g>
<!-- Node3&#45;&gt;Node5 -->
<g id="edge8" class="edge">
<title>Node3&#45;&gt;Node5</title>
<path fill="none" stroke="midnightblue" d="M347.31,-80.61C405.29,-73.44 484.76,-63.61 539.86,-56.8"/>
<polygon fill="midnightblue" stroke="midnightblue" points="540.35,-60.26 549.85,-55.56 539.49,-53.32 540.35,-60.26"/>
</g>
<!-- Node6 -->
<g id="node6" class="node">
<title>Node6</title>
<g id="a_node6"><a xlink:href="class_t_track_element.html#a100bff829c4dca820927affde4cb9e57" target="_top" xlink:title="Used to log track parameters for call stack logging.">
<polygon fill="white" stroke="black" points="384.5,-146.37 384.5,-165.37 512.5,-165.37 512.5,-146.37 384.5,-146.37"/>
<text text-anchor="middle" x="448.5" y="-153.37" font-family="Helvetica,sans-Serif" font-size="10.00">TTrackElement::LogTrack</text>
</a>
</g>
</g>
<!-- Node3&#45;&gt;Node6 -->
<g id="edge7" class="edge">
<title>Node3&#45;&gt;Node6</title>
<path fill="none" stroke="midnightblue" d="M292.99,-99.43C314.96,-109.48 351.01,-125.39 383,-136.87 389.35,-139.14 396.12,-141.36 402.79,-143.43"/>
<polygon fill="midnightblue" stroke="midnightblue" points="401.86,-146.8 412.45,-146.34 403.89,-140.1 401.86,-146.8"/>
</g>
<!-- Node3&#45;&gt;Node7 -->
<g id="edge9" class="edge">
<title>Node3&#45;&gt;Node7</title>
<path fill="none" stroke="midnightblue" d="M300.23,-80.36C329.84,-70.21 376.94,-54.06 409.88,-42.76"/>
<polygon fill="midnightblue" stroke="midnightblue" points="411.29,-45.98 419.61,-39.43 409.02,-39.36 411.29,-45.98"/>
</g>
<!-- Node4&#45;&gt;Node2 -->
<g id="edge5" class="edge">
<title>Node4&#45;&gt;Node2</title>
<path fill="none" stroke="midnightblue" d="M506.15,-126.9C523.27,-131.44 541.84,-136.37 558.16,-140.7"/>
<polygon fill="midnightblue" stroke="midnightblue" points="557.43,-144.13 568,-143.31 559.23,-137.36 557.43,-144.13"/>
</g>
<!-- Node4&#45;&gt;Node5 -->
<g id="edge6" class="edge">
<title>Node4&#45;&gt;Node5</title>
<path fill="none" stroke="midnightblue" d="M486.51,-96.78C512.2,-86.3 546.13,-72.46 570.92,-62.35"/>
<polygon fill="midnightblue" stroke="midnightblue" points="572.33,-65.56 580.27,-58.54 569.69,-59.08 572.33,-65.56"/>
</g>
<!-- Node7&#45;&gt;Node2 -->
<g id="edge10" class="edge">
<title>Node7&#45;&gt;Node2</title>
<path fill="none" stroke="midnightblue" d="M461.62,-39.52C488.14,-60.62 551.49,-111.06 584,-136.95"/>
<polygon fill="midnightblue" stroke="midnightblue" points="581.93,-139.77 591.93,-143.26 586.29,-134.29 581.93,-139.77"/>
</g>
<!-- Node7&#45;&gt;Node5 -->
<g id="edge11" class="edge">
<title>Node7&#45;&gt;Node5</title>
<path fill="none" stroke="midnightblue" d="M509.68,-37.27C519.49,-38.47 529.68,-39.73 539.59,-40.94"/>
<polygon fill="midnightblue" stroke="midnightblue" points="539.43,-44.45 549.78,-42.2 540.28,-37.5 539.43,-44.45"/>
</g>
</g>
</svg>
