<?xml version="1.0" encoding="UTF-8" standalone="no"?>
<!DOCTYPE svg PUBLIC "-//W3C//DTD SVG 1.1//EN"
 "http://www.w3.org/Graphics/SVG/1.1/DTD/svg11.dtd">
<!-- Generated by graphviz version 2.44.1 (20200629.0800)
 -->
<!-- Title: TTrainController::GetRepeatHeadCode Pages: 1 -->
<!--zoomable 679 -->
<svg id="main" version="1.1" xmlns="http://www.w3.org/2000/svg" xmlns:xlink="http://www.w3.org/1999/xlink" xml:space="preserve" onload="init(evt)">
<style type="text/css"><![CDATA[
.edge:hover path { stroke: red; }
.edge:hover polygon { stroke: red; fill: red; }
]]></style>
<script type="text/javascript"><![CDATA[
var edges = document.getElementsByTagName('g');
if (edges && edges.length) {
  for (var i=0;i<edges.length;i++) {
    if (edges[i].id.substr(0,4)=='edge') {
      edges[i].setAttribute('class','edge');
    }
  }
}
]]></script>
        <defs>
                <circle id="rim" cx="0" cy="0" r="7"/>
                <circle id="rim2" cx="0" cy="0" r="3.5"/>
                <g id="zoomPlus">
                        <use xlink:href="#rim" fill="#404040">
                                <set attributeName="fill" to="#808080" begin="zoomplus.mouseover" end="zoomplus.mouseout"/>
                        </use>
                        <path d="M-4,0h8M0,-4v8" fill="none" stroke="white" stroke-width="1.5" pointer-events="none"/>
                </g>
                <g id="zoomMin">
                        <use xlink:href="#rim" fill="#404040">
                                <set attributeName="fill" to="#808080" begin="zoomminus.mouseover" end="zoomminus.mouseout"/>
                        </use>
                        <path d="M-4,0h8" fill="none" stroke="white" stroke-width="1.5" pointer-events="none"/>
                </g>
                <g id="dirArrow">
                        <path fill="none" stroke="white" stroke-width="1.5" d="M0,-3.0v7 M-2.5,-0.5L0,-3.0L2.5,-0.5"/>
                </g>
               <g id="resetDef">
                       <use xlink:href="#rim2" fill="#404040">
                               <set attributeName="fill" to="#808080" begin="reset.mouseover" end="reset.mouseout"/>
                       </use>
               </g>
        </defs>

<script type="text/javascript">
var viewWidth = 1564;
var viewHeight = 679;
var sectionId = 'dynsection-62';
</script>
<script xlink:href="svgpan.js"/>
<svg id="graph" class="graph">
<g id="viewport">
<title>TTrainController::GetRepeatHeadCode</title>
<polygon fill="white" stroke="transparent" points="-4,4 -4,-674.5 1560,-674.5 1560,4 -4,4"/>
<!-- Node1 -->
<g id="node1" class="node">
<title>Node1</title>
<g id="a_node1"><a xlink:title="Return the service headcode for the repeat service.">
<polygon fill="#bfbfbf" stroke="black" points="1419,-266 1419,-296 1556,-296 1556,-266 1419,-266"/>
<text text-anchor="start" x="1427" y="-284" font-family="Helvetica,sans-Serif" font-size="10.00">TTrainController::GetRepeat</text>
<text text-anchor="middle" x="1487.5" y="-273" font-family="Helvetica,sans-Serif" font-size="10.00">HeadCode</text>
</a>
</g>
</g>
<!-- Node2 -->
<g id="node2" class="node">
<title>Node2</title>
<g id="a_node2"><a xlink:href="class_t_train_controller.html#a0445987b1a355de3aef2c21b66d1ed8b" target="_top" xlink:title="populate the ContinuationTrainExpectationMultiMap during timetable loading">
<polygon fill="white" stroke="black" points="1213,-591 1213,-621 1379,-621 1379,-591 1213,-591"/>
<text text-anchor="start" x="1221" y="-609" font-family="Helvetica,sans-Serif" font-size="10.00">TTrainController::BuildContinuation</text>
<text text-anchor="middle" x="1296" y="-598" font-family="Helvetica,sans-Serif" font-size="10.00">TrainExpectationMultiMap</text>
</a>
</g>
</g>
<!-- Node1&#45;&gt;Node2 -->
<g id="edge1" class="edge">
<title>Node1&#45;&gt;Node2</title>
<path fill="none" stroke="midnightblue" d="M1483.55,-306.12C1476.07,-359.59 1451.77,-486.07 1383,-563 1372.21,-575.07 1357.25,-584.17 1342.83,-590.81"/>
<polygon fill="midnightblue" stroke="midnightblue" points="1487.03,-306.52 1484.87,-296.15 1480.09,-305.6 1487.03,-306.52"/>
</g>
<!-- Node13 -->
<g id="node13" class="node">
<title>Node13</title>
<g id="a_node13"><a xlink:href="class_t_train_controller.html#a9c531d3df66921ada4e698bcf47f72f3" target="_top" xlink:title="Build string for use in floating window for expected trains at continuations.">
<polygon fill="white" stroke="black" points="1224,-405 1224,-435 1368,-435 1368,-405 1224,-405"/>
<text text-anchor="start" x="1232" y="-423" font-family="Helvetica,sans-Serif" font-size="10.00">TTrainController::Continuation</text>
<text text-anchor="middle" x="1296" y="-412" font-family="Helvetica,sans-Serif" font-size="10.00">EntryFloatingTTString</text>
</a>
</g>
</g>
<!-- Node1&#45;&gt;Node13 -->
<g id="edge13" class="edge">
<title>Node1&#45;&gt;Node13</title>
<path fill="none" stroke="midnightblue" d="M1469.83,-304.25C1451.2,-328.72 1418.88,-366.82 1383,-390 1373.83,-395.92 1363.36,-400.83 1352.95,-404.84"/>
<polygon fill="midnightblue" stroke="midnightblue" points="1472.66,-306.32 1475.84,-296.21 1467.05,-302.13 1472.66,-306.32"/>
</g>
<!-- Node16 -->
<g id="node16" class="node">
<title>Node16</title>
<g id="a_node16"><a xlink:href="class_t_train_controller.html#a4ab4b6a568064d27c65f0770e5a5ccd0" target="_top" xlink:title="Examines the internal timetable (TrainDataVector) and creates from it a chronological (....">
<polygon fill="white" stroke="black" points="1236.5,-39 1236.5,-69 1355.5,-69 1355.5,-39 1236.5,-39"/>
<text text-anchor="start" x="1244.5" y="-57" font-family="Helvetica,sans-Serif" font-size="10.00">TTrainController::Create</text>
<text text-anchor="middle" x="1296" y="-46" font-family="Helvetica,sans-Serif" font-size="10.00">FormattedTimetable</text>
</a>
</g>
</g>
<!-- Node1&#45;&gt;Node16 -->
<g id="edge17" class="edge">
<title>Node1&#45;&gt;Node16</title>
<path fill="none" stroke="midnightblue" d="M1480.66,-256.15C1469.33,-213.48 1440.29,-126.29 1383,-79 1375.09,-72.47 1365.54,-67.64 1355.72,-64.08"/>
<polygon fill="midnightblue" stroke="midnightblue" points="1477.31,-257.17 1483.16,-265.99 1484.09,-255.44 1477.31,-257.17"/>
</g>
<!-- Node19 -->
<g id="node19" class="node">
<title>Node19</title>
<g id="a_node19"><a xlink:href="class_t_train.html#ab9edf458753619f8cd25f0165484d26f" target="_top" xlink:title="Carry out the actions needed when a train is waiting to join another train.">
<polygon fill="white" stroke="black" points="1250,-252.5 1250,-271.5 1342,-271.5 1342,-252.5 1250,-252.5"/>
<text text-anchor="middle" x="1296" y="-259.5" font-family="Helvetica,sans-Serif" font-size="10.00">TTrain::FinishJoin</text>
</a>
</g>
</g>
<!-- Node1&#45;&gt;Node19 -->
<g id="edge20" class="edge">
<title>Node1&#45;&gt;Node19</title>
<path fill="none" stroke="midnightblue" d="M1408.9,-273.22C1386.15,-270.94 1362.04,-268.52 1342.05,-266.52"/>
<polygon fill="midnightblue" stroke="midnightblue" points="1408.59,-276.71 1418.89,-274.22 1409.29,-269.74 1408.59,-276.71"/>
</g>
<!-- Node21 -->
<g id="node21" class="node">
<title>Node21</title>
<g id="a_node21"><a xlink:href="class_t_train_controller.html#a20a1576dea1d86ed78fc5e9f46343481" target="_top" xlink:title="called every clock tick to introduce new trains and update existing trains">
<polygon fill="white" stroke="black" points="858,-366.5 858,-385.5 983,-385.5 983,-366.5 858,-366.5"/>
<text text-anchor="middle" x="920.5" y="-373.5" font-family="Helvetica,sans-Serif" font-size="10.00">TTrainController::Operate</text>
</a>
</g>
</g>
<!-- Node1&#45;&gt;Node21 -->
<g id="edge38" class="edge">
<title>Node1&#45;&gt;Node21</title>
<path fill="none" stroke="midnightblue" d="M1464.65,-303.18C1445.14,-321.37 1414.8,-345.85 1383,-357 1246.79,-404.76 1073.97,-394.75 983.36,-384.6"/>
<polygon fill="midnightblue" stroke="midnightblue" points="1467.27,-305.52 1472.07,-296.08 1462.43,-300.47 1467.27,-305.52"/>
</g>
<!-- Node22 -->
<g id="node22" class="node">
<title>Node22</title>
<g id="a_node22"><a xlink:href="class_t_train.html#a221da69cd80d206a06f840f4cd463cf9" target="_top" xlink:title="Used in the floating window to display the &#39;Next&#39; action.">
<polygon fill="white" stroke="black" points="1232.5,-523 1232.5,-553 1359.5,-553 1359.5,-523 1232.5,-523"/>
<text text-anchor="start" x="1240.5" y="-541" font-family="Helvetica,sans-Serif" font-size="10.00">TTrain::FloatingLabelNext</text>
<text text-anchor="middle" x="1296" y="-530" font-family="Helvetica,sans-Serif" font-size="10.00">String</text>
</a>
</g>
</g>
<!-- Node1&#45;&gt;Node22 -->
<g id="edge24" class="edge">
<title>Node1&#45;&gt;Node22</title>
<path fill="none" stroke="midnightblue" d="M1480.1,-305.78C1467.85,-348.92 1437.35,-438.51 1383,-494 1370.91,-506.34 1354.63,-515.87 1339.48,-522.86"/>
<polygon fill="midnightblue" stroke="midnightblue" points="1483.49,-306.67 1482.76,-296.1 1476.74,-304.81 1483.49,-306.67"/>
</g>
<!-- Node24 -->
<g id="node24" class="node">
<title>Node24</title>
<g id="a_node24"><a xlink:href="class_t_train.html#a81bf61b47a2867f0c6901b1ea6f47177" target="_top" xlink:title="Used in the floating window to display the timetable.">
<polygon fill="white" stroke="black" points="1233.5,-454 1233.5,-484 1358.5,-484 1358.5,-454 1233.5,-454"/>
<text text-anchor="start" x="1241.5" y="-472" font-family="Helvetica,sans-Serif" font-size="10.00">TTrain::FloatingTimetable</text>
<text text-anchor="middle" x="1296" y="-461" font-family="Helvetica,sans-Serif" font-size="10.00">String</text>
</a>
</g>
</g>
<!-- Node1&#45;&gt;Node24 -->
<g id="edge27" class="edge">
<title>Node1&#45;&gt;Node24</title>
<path fill="none" stroke="midnightblue" d="M1477.45,-306.08C1463.1,-342.28 1431.67,-408.77 1383,-445 1375.79,-450.37 1367.43,-454.54 1358.82,-457.77"/>
<polygon fill="midnightblue" stroke="midnightblue" points="1480.89,-306.9 1481.2,-296.31 1474.35,-304.39 1480.89,-306.9"/>
</g>
<!-- Node26 -->
<g id="node26" class="node">
<title>Node26</title>
<g id="a_node26"><a xlink:href="class_t_train.html#ad666fb061d1da7c44a72ec963c2098aa" target="_top" xlink:title="Carry out the actions needed when a train is to split from the front.">
<polygon fill="white" stroke="black" points="1240,-214.5 1240,-233.5 1352,-233.5 1352,-214.5 1240,-214.5"/>
<text text-anchor="middle" x="1296" y="-221.5" font-family="Helvetica,sans-Serif" font-size="10.00">TTrain::FrontTrainSplit</text>
</a>
</g>
</g>
<!-- Node1&#45;&gt;Node26 -->
<g id="edge30" class="edge">
<title>Node1&#45;&gt;Node26</title>
<path fill="none" stroke="midnightblue" d="M1439.59,-262.26C1422.01,-255.64 1401.76,-248.49 1383,-243 1370.97,-239.48 1357.82,-236.26 1345.5,-233.52"/>
<polygon fill="midnightblue" stroke="midnightblue" points="1438.46,-265.58 1449.05,-265.87 1440.96,-259.04 1438.46,-265.58"/>
</g>
<!-- Node27 -->
<g id="node27" class="node">
<title>Node27</title>
<g id="a_node27"><a xlink:href="class_t_train.html#a63b0884e315178879369c82ee7fd2cb8" target="_top" xlink:title="Returns the train headcode, taking account of the RepeatNumber.">
<polygon fill="white" stroke="black" points="1230.5,-0.5 1230.5,-19.5 1361.5,-19.5 1361.5,-0.5 1230.5,-0.5"/>
<text text-anchor="middle" x="1296" y="-7.5" font-family="Helvetica,sans-Serif" font-size="10.00">TTrain::GetTrainHeadCode</text>
</a>
</g>
</g>
<!-- Node1&#45;&gt;Node27 -->
<g id="edge32" class="edge">
<title>Node1&#45;&gt;Node27</title>
<path fill="none" stroke="midnightblue" d="M1483.67,-255.68C1476.59,-204.75 1453.29,-89.7 1383,-30 1376.81,-24.74 1369.49,-20.8 1361.79,-17.86"/>
<polygon fill="midnightblue" stroke="midnightblue" points="1480.23,-256.34 1484.98,-265.81 1487.17,-255.44 1480.23,-256.34"/>
</g>
<!-- Node28 -->
<g id="node28" class="node">
<title>Node28</title>
<g id="a_node28"><a xlink:href="class_t_train.html#a6c3479378d35f9041c38d80f03686b41" target="_top" xlink:title="Carry out the actions needed when a train is waiting to be joined by another train.">
<polygon fill="white" stroke="black" points="1251.5,-328.5 1251.5,-347.5 1340.5,-347.5 1340.5,-328.5 1251.5,-328.5"/>
<text text-anchor="middle" x="1296" y="-335.5" font-family="Helvetica,sans-Serif" font-size="10.00">TTrain::JoinedBy</text>
</a>
</g>
</g>
<!-- Node1&#45;&gt;Node28 -->
<g id="edge33" class="edge">
<title>Node1&#45;&gt;Node28</title>
<path fill="none" stroke="midnightblue" d="M1439.59,-299.74C1422.01,-306.36 1401.76,-313.51 1383,-319 1369.35,-322.99 1354.27,-326.59 1340.6,-329.56"/>
<polygon fill="midnightblue" stroke="midnightblue" points="1440.96,-302.96 1449.05,-296.13 1438.46,-296.42 1440.96,-302.96"/>
</g>
<!-- Node29 -->
<g id="node29" class="node">
<title>Node29</title>
<g id="a_node29"><a xlink:href="class_t_train.html#a68bda28987bb7b9d7e52b35abb2399de" target="_top" xlink:title="Carry out the actions needed when a train forms a new service (code Fns)">
<polygon fill="white" stroke="black" points="1236,-176.5 1236,-195.5 1356,-195.5 1356,-176.5 1236,-176.5"/>
<text text-anchor="middle" x="1296" y="-183.5" font-family="Helvetica,sans-Serif" font-size="10.00">TTrain::NewTrainService</text>
</a>
</g>
</g>
<!-- Node1&#45;&gt;Node29 -->
<g id="edge35" class="edge">
<title>Node1&#45;&gt;Node29</title>
<path fill="none" stroke="midnightblue" d="M1462.69,-258.98C1442.81,-241.78 1412.98,-218.58 1383,-205 1374.5,-201.15 1365.17,-198.06 1355.89,-195.58"/>
<polygon fill="midnightblue" stroke="midnightblue" points="1460.5,-261.72 1470.31,-265.71 1465.13,-256.47 1460.5,-261.72"/>
</g>
<!-- Node31 -->
<g id="node31" class="node">
<title>Node31</title>
<g id="a_node31"><a xlink:href="class_t_train.html#ad64c5823265b0c611c2e5f0613317aa5" target="_top" xlink:title="Carry out the actions needed when a train is to split from the rear.">
<polygon fill="white" stroke="black" points="1241,-290.5 1241,-309.5 1351,-309.5 1351,-290.5 1241,-290.5"/>
<text text-anchor="middle" x="1296" y="-297.5" font-family="Helvetica,sans-Serif" font-size="10.00">TTrain::RearTrainSplit</text>
</a>
</g>
</g>
<!-- Node1&#45;&gt;Node31 -->
<g id="edge39" class="edge">
<title>Node1&#45;&gt;Node31</title>
<path fill="none" stroke="midnightblue" d="M1408.87,-288.78C1389.51,-290.72 1369.15,-292.77 1351.2,-294.57"/>
<polygon fill="midnightblue" stroke="midnightblue" points="1409.29,-292.26 1418.89,-287.78 1408.59,-285.29 1409.29,-292.26"/>
</g>
<!-- Node32 -->
<g id="node32" class="node">
<title>Node32</title>
<g id="a_node32"><a xlink:href="class_t_train.html#a648f31ead801d51160c024f1ead459c8" target="_top" xlink:title="Carry out the actions needed to create either a new shuttle service or (if all repeats have finished)...">
<polygon fill="white" stroke="black" points="1226,-127 1226,-157 1366,-157 1366,-127 1226,-127"/>
<text text-anchor="start" x="1234" y="-145" font-family="Helvetica,sans-Serif" font-size="10.00">TTrain::RepeatShuttleOrNew</text>
<text text-anchor="middle" x="1296" y="-134" font-family="Helvetica,sans-Serif" font-size="10.00">NonRepeatService</text>
</a>
</g>
</g>
<!-- Node1&#45;&gt;Node32 -->
<g id="edge41" class="edge">
<title>Node1&#45;&gt;Node32</title>
<path fill="none" stroke="midnightblue" d="M1471.2,-257.53C1453.13,-231.65 1420.72,-190.56 1383,-167 1376.8,-163.13 1369.98,-159.84 1362.97,-157.04"/>
<polygon fill="midnightblue" stroke="midnightblue" points="1468.45,-259.71 1476.98,-266 1474.23,-255.77 1468.45,-259.71"/>
</g>
<!-- Node33 -->
<g id="node33" class="node">
<title>Node33</title>
<g id="a_node33"><a xlink:href="class_t_train.html#a1f4b4616c1167ff2ef83b2df48545c6b" target="_top" xlink:title="Carry out the actions needed to create either a new shuttle service or (if all repeats have finished)...">
<polygon fill="white" stroke="black" points="1209,-88.5 1209,-107.5 1383,-107.5 1383,-88.5 1209,-88.5"/>
<text text-anchor="middle" x="1296" y="-95.5" font-family="Helvetica,sans-Serif" font-size="10.00">TTrain::RepeatShuttleOrRemainHere</text>
</a>
</g>
</g>
<!-- Node1&#45;&gt;Node33 -->
<g id="edge44" class="edge">
<title>Node1&#45;&gt;Node33</title>
<path fill="none" stroke="midnightblue" d="M1477.61,-255.79C1463.47,-219.46 1432.28,-152.94 1383,-118 1376.87,-113.66 1369.94,-110.24 1362.74,-107.56"/>
<polygon fill="midnightblue" stroke="midnightblue" points="1474.51,-257.48 1481.31,-265.6 1481.06,-255.01 1474.51,-257.48"/>
</g>
<!-- Node3 -->
<g id="node3" class="node">
<title>Node3</title>
<g id="a_node3"><a xlink:href="class_t_train_controller.html#af52f0033d498268c871980c17a8ddf36" target="_top" xlink:title="Carry out further detailed timetable consistency checks, return true for success.">
<polygon fill="white" stroke="black" points="1036,-591 1036,-621 1159,-621 1159,-591 1036,-591"/>
<text text-anchor="start" x="1044" y="-609" font-family="Helvetica,sans-Serif" font-size="10.00">TTrainController::Second</text>
<text text-anchor="middle" x="1097.5" y="-598" font-family="Helvetica,sans-Serif" font-size="10.00">PassActions</text>
</a>
</g>
</g>
<!-- Node2&#45;&gt;Node3 -->
<g id="edge2" class="edge">
<title>Node2&#45;&gt;Node3</title>
<path fill="none" stroke="midnightblue" d="M1202.63,-606C1187.86,-606 1172.92,-606 1159.14,-606"/>
<polygon fill="midnightblue" stroke="midnightblue" points="1202.8,-609.5 1212.8,-606 1202.8,-602.5 1202.8,-609.5"/>
</g>
<!-- Node4 -->
<g id="node4" class="node">
<title>Node4</title>
<g id="a_node4"><a xlink:href="class_t_interface.html#a148e3f99d39f596dbd7d490403936154" target="_top" xlink:title="Convert a stored timetable file (either as a stand alone file or within a session file) to a loaded t...">
<polygon fill="white" stroke="black" points="856.5,-591 856.5,-621 984.5,-621 984.5,-591 856.5,-591"/>
<text text-anchor="start" x="864.5" y="-609" font-family="Helvetica,sans-Serif" font-size="10.00">TInterface::BuildTrainData</text>
<text text-anchor="middle" x="920.5" y="-598" font-family="Helvetica,sans-Serif" font-size="10.00">VectorForLoadFile</text>
</a>
</g>
</g>
<!-- Node3&#45;&gt;Node4 -->
<g id="edge3" class="edge">
<title>Node3&#45;&gt;Node4</title>
<path fill="none" stroke="midnightblue" d="M1025.59,-606C1012.08,-606 998.03,-606 984.78,-606"/>
<polygon fill="midnightblue" stroke="midnightblue" points="1025.78,-609.5 1035.78,-606 1025.78,-602.5 1025.78,-609.5"/>
</g>
<!-- Node11 -->
<g id="node11" class="node">
<title>Node11</title>
<g id="a_node11"><a xlink:href="class_t_interface.html#a4ffe7e6eb2421577f670a52f556aef97" target="_top" xlink:title="Check the integrity of a stored timetable file (either as a stand alone file or within a session file...">
<polygon fill="white" stroke="black" points="856.5,-542 856.5,-572 984.5,-572 984.5,-542 856.5,-542"/>
<text text-anchor="start" x="864.5" y="-560" font-family="Helvetica,sans-Serif" font-size="10.00">TInterface::BuildTrainData</text>
<text text-anchor="middle" x="920.5" y="-549" font-family="Helvetica,sans-Serif" font-size="10.00">VectorForValidateFile</text>
</a>
</g>
</g>
<!-- Node3&#45;&gt;Node11 -->
<g id="edge11" class="edge">
<title>Node3&#45;&gt;Node11</title>
<path fill="none" stroke="midnightblue" d="M1032.85,-588.18C1013.96,-582.89 993.46,-577.15 975.26,-572.05"/>
<polygon fill="midnightblue" stroke="midnightblue" points="1031.99,-591.57 1042.57,-590.9 1033.88,-584.83 1031.99,-591.57"/>
</g>
<!-- Node5 -->
<g id="node5" class="node">
<title>Node5</title>
<g id="a_node5"><a xlink:href="class_t_interface.html#a92d5a9e07b9362dee2296b7759a1c83d" target="_top" xlink:title="Loads timetable into memory from a session file, true if successful.">
<polygon fill="white" stroke="black" points="684,-591 684,-621 812,-621 812,-591 684,-591"/>
<text text-anchor="start" x="692" y="-609" font-family="Helvetica,sans-Serif" font-size="10.00">TInterface::LoadTimetable</text>
<text text-anchor="middle" x="748" y="-598" font-family="Helvetica,sans-Serif" font-size="10.00">FromSessionFile</text>
</a>
</g>
</g>
<!-- Node4&#45;&gt;Node5 -->
<g id="edge4" class="edge">
<title>Node4&#45;&gt;Node5</title>
<path fill="none" stroke="midnightblue" d="M846.16,-606C834.8,-606 823.14,-606 812.03,-606"/>
<polygon fill="midnightblue" stroke="midnightblue" points="846.5,-609.5 856.5,-606 846.5,-602.5 846.5,-609.5"/>
</g>
<!-- Node10 -->
<g id="node10" class="node">
<title>Node10</title>
<g id="a_node10"><a xlink:href="class_t_interface.html#a15a2f5ad77e4f6c2b0cc6314224dfb78" target="_top" xlink:title=" ">
<polygon fill="white" stroke="black" points="684,-640 684,-670 812,-670 812,-640 684,-640"/>
<text text-anchor="start" x="692" y="-658" font-family="Helvetica,sans-Serif" font-size="10.00">TInterface::LoadTimetable</text>
<text text-anchor="middle" x="748" y="-647" font-family="Helvetica,sans-Serif" font-size="10.00">MenuItemClick</text>
</a>
</g>
</g>
<!-- Node4&#45;&gt;Node10 -->
<g id="edge10" class="edge">
<title>Node4&#45;&gt;Node10</title>
<path fill="none" stroke="midnightblue" d="M857.24,-623.89C838.9,-629.16 819.02,-634.88 801.37,-639.95"/>
<polygon fill="midnightblue" stroke="midnightblue" points="858.31,-627.23 866.95,-621.1 856.38,-620.5 858.31,-627.23"/>
</g>
<!-- Node6 -->
<g id="node6" class="node">
<title>Node6</title>
<g id="a_node6"><a xlink:href="class_t_interface.html#a636b1b4bd29f2678a3290ed2d282f1c2" target="_top" xlink:title="Load a session file.">
<polygon fill="white" stroke="black" points="334,-552.5 334,-571.5 455,-571.5 455,-552.5 334,-552.5"/>
<text text-anchor="middle" x="394.5" y="-559.5" font-family="Helvetica,sans-Serif" font-size="10.00">TInterface::LoadSession</text>
</a>
</g>
</g>
<!-- Node5&#45;&gt;Node6 -->
<g id="edge5" class="edge">
<title>Node5&#45;&gt;Node6</title>
<path fill="none" stroke="midnightblue" d="M673.73,-604.1C622.31,-601.9 552.1,-597.18 491,-587 469.02,-583.34 444.74,-576.95 426.16,-571.55"/>
<polygon fill="midnightblue" stroke="midnightblue" points="673.62,-607.6 683.76,-604.51 673.91,-600.6 673.62,-607.6"/>
</g>
<!-- Node9 -->
<g id="node9" class="node">
<title>Node9</title>
<g id="a_node9"><a xlink:href="class_t_interface.html#a3904f26b67b9512507960187b37b6f7b" target="_top" xlink:title="Checks session file integrity prior to loading, true for success.">
<polygon fill="white" stroke="black" points="491,-547 491,-577 641,-577 641,-547 491,-547"/>
<text text-anchor="start" x="499" y="-565" font-family="Helvetica,sans-Serif" font-size="10.00">TInterface::SessionFileIntegrity</text>
<text text-anchor="middle" x="566" y="-554" font-family="Helvetica,sans-Serif" font-size="10.00">Check</text>
</a>
</g>
</g>
<!-- Node5&#45;&gt;Node9 -->
<g id="edge8" class="edge">
<title>Node5&#45;&gt;Node9</title>
<path fill="none" stroke="midnightblue" d="M675.47,-588.51C659.92,-584.71 643.59,-580.72 628.47,-577.03"/>
<polygon fill="midnightblue" stroke="midnightblue" points="675.01,-592.01 685.56,-590.98 676.67,-585.21 675.01,-592.01"/>
</g>
<!-- Node7 -->
<g id="node7" class="node">
<title>Node7</title>
<g id="a_node7"><a xlink:href="class_t_interface.html#a6139ffb52492eb89e5487a8a3cd647b5" target="_top" xlink:title="The main loop, called every clock tick via MasterClockTimer.">
<polygon fill="white" stroke="black" points="179,-503.5 179,-522.5 298,-522.5 298,-503.5 179,-503.5"/>
<text text-anchor="middle" x="238.5" y="-510.5" font-family="Helvetica,sans-Serif" font-size="10.00">TInterface::ClockTimer2</text>
</a>
</g>
</g>
<!-- Node6&#45;&gt;Node7 -->
<g id="edge6" class="edge">
<title>Node6&#45;&gt;Node7</title>
<path fill="none" stroke="midnightblue" d="M353.77,-549.36C327.47,-540.99 293.52,-530.19 269.48,-522.54"/>
<polygon fill="midnightblue" stroke="midnightblue" points="352.85,-552.74 363.44,-552.44 354.97,-546.07 352.85,-552.74"/>
</g>
<!-- Node8 -->
<g id="node8" class="node">
<title>Node8</title>
<g id="a_node8"><a xlink:href="class_t_interface.html#ace30a12d923fc7fb489afabb0a09aa4f" target="_top" xlink:title=" ">
<polygon fill="white" stroke="black" points="0,-503.5 0,-522.5 143,-522.5 143,-503.5 0,-503.5"/>
<text text-anchor="middle" x="71.5" y="-510.5" font-family="Helvetica,sans-Serif" font-size="10.00">TInterface::MasterClockTimer</text>
</a>
</g>
</g>
<!-- Node7&#45;&gt;Node8 -->
<g id="edge7" class="edge">
<title>Node7&#45;&gt;Node8</title>
<path fill="none" stroke="midnightblue" d="M168.67,-513C160.22,-513 151.57,-513 143.09,-513"/>
<polygon fill="midnightblue" stroke="midnightblue" points="168.86,-516.5 178.86,-513 168.86,-509.5 168.86,-516.5"/>
</g>
<!-- Node9&#45;&gt;Node6 -->
<g id="edge9" class="edge">
<title>Node9&#45;&gt;Node6</title>
<path fill="none" stroke="midnightblue" d="M480.55,-562C471.93,-562 463.3,-562 455.02,-562"/>
<polygon fill="midnightblue" stroke="midnightblue" points="480.65,-565.5 490.65,-562 480.65,-558.5 480.65,-565.5"/>
</g>
<!-- Node12 -->
<g id="node12" class="node">
<title>Node12</title>
<g id="a_node12"><a xlink:href="class_t_interface.html#a2f501868bbee2310af99bf2e8e265c59" target="_top" xlink:title=" ">
<polygon fill="white" stroke="black" points="677,-542 677,-572 819,-572 819,-542 677,-542"/>
<text text-anchor="start" x="685" y="-560" font-family="Helvetica,sans-Serif" font-size="10.00">TInterface::ValidateTimetable</text>
<text text-anchor="middle" x="748" y="-549" font-family="Helvetica,sans-Serif" font-size="10.00">ButtonClick</text>
</a>
</g>
</g>
<!-- Node11&#45;&gt;Node12 -->
<g id="edge12" class="edge">
<title>Node11&#45;&gt;Node12</title>
<path fill="none" stroke="midnightblue" d="M846.41,-557C837.39,-557 828.19,-557 819.21,-557"/>
<polygon fill="midnightblue" stroke="midnightblue" points="846.5,-560.5 856.5,-557 846.5,-553.5 846.5,-560.5"/>
</g>
<!-- Node14 -->
<g id="node14" class="node">
<title>Node14</title>
<g id="a_node14"><a xlink:href="class_t_interface.html#adc9ce6e5ee756279efbe92fd749355bf" target="_top" xlink:title="Called when floating train info needed and train hasn&#39;t entered yet.">
<polygon fill="white" stroke="black" points="1029.5,-405 1029.5,-435 1165.5,-435 1165.5,-405 1029.5,-405"/>
<text text-anchor="start" x="1037.5" y="-423" font-family="Helvetica,sans-Serif" font-size="10.00">TInterface::GetTrainFloating</text>
<text text-anchor="middle" x="1097.5" y="-412" font-family="Helvetica,sans-Serif" font-size="10.00">InfoFromContinuation</text>
</a>
</g>
</g>
<!-- Node13&#45;&gt;Node14 -->
<g id="edge14" class="edge">
<title>Node13&#45;&gt;Node14</title>
<path fill="none" stroke="midnightblue" d="M1213.41,-420C1197.48,-420 1180.94,-420 1165.55,-420"/>
<polygon fill="midnightblue" stroke="midnightblue" points="1213.78,-423.5 1223.78,-420 1213.78,-416.5 1213.78,-423.5"/>
</g>
<!-- Node15 -->
<g id="node15" class="node">
<title>Node15</title>
<g id="a_node15"><a xlink:href="class_t_interface.html#a9aaa19d39382a32701d7ded3b8c1802b" target="_top" xlink:title="Controls the floating window function, called during the ClockTimer2 function.">
<polygon fill="white" stroke="black" points="855,-503.5 855,-522.5 986,-522.5 986,-503.5 855,-503.5"/>
<text text-anchor="middle" x="920.5" y="-510.5" font-family="Helvetica,sans-Serif" font-size="10.00">TInterface::TrackTrainFloat</text>
</a>
</g>
</g>
<!-- Node14&#45;&gt;Node15 -->
<g id="edge15" class="edge">
<title>Node14&#45;&gt;Node15</title>
<path fill="none" stroke="midnightblue" d="M1035.61,-438.89C1030.94,-440.81 1026.36,-442.85 1022,-445 987.82,-461.9 951.73,-488.9 933.52,-503.26"/>
<polygon fill="midnightblue" stroke="midnightblue" points="1037.21,-442.03 1045.26,-435.14 1034.67,-435.5 1037.21,-442.03"/>
</g>
<!-- Node15&#45;&gt;Node7 -->
<g id="edge16" class="edge">
<title>Node15&#45;&gt;Node7</title>
<path fill="none" stroke="midnightblue" d="M844.56,-513C708.11,-513 421.82,-513 298.3,-513"/>
<polygon fill="midnightblue" stroke="midnightblue" points="844.91,-516.5 854.91,-513 844.91,-509.5 844.91,-516.5"/>
</g>
<!-- Node17 -->
<g id="node17" class="node">
<title>Node17</title>
<g id="a_node17"><a xlink:href="class_t_interface.html#ab7c52bd31930036c95b9b71c2f1f0426" target="_top" xlink:title=" ">
<polygon fill="white" stroke="black" points="1031.5,-59 1031.5,-89 1163.5,-89 1163.5,-59 1031.5,-59"/>
<text text-anchor="start" x="1039.5" y="-77" font-family="Helvetica,sans-Serif" font-size="10.00">TInterface::ExportTTButton</text>
<text text-anchor="middle" x="1097.5" y="-66" font-family="Helvetica,sans-Serif" font-size="10.00">Click</text>
</a>
</g>
</g>
<!-- Node16&#45;&gt;Node17 -->
<g id="edge18" class="edge">
<title>Node16&#45;&gt;Node17</title>
<path fill="none" stroke="midnightblue" d="M1226.21,-61C1205.93,-63.07 1183.81,-65.32 1163.76,-67.36"/>
<polygon fill="midnightblue" stroke="midnightblue" points="1226.72,-64.47 1236.31,-59.97 1226.01,-57.5 1226.72,-64.47"/>
</g>
<!-- Node18 -->
<g id="node18" class="node">
<title>Node18</title>
<g id="a_node18"><a xlink:href="class_t_interface.html#a1bf4807428bf9fa4504be97d28642597" target="_top" xlink:title=" ">
<polygon fill="white" stroke="black" points="1033.5,-10 1033.5,-40 1161.5,-40 1161.5,-10 1033.5,-10"/>
<text text-anchor="start" x="1041.5" y="-28" font-family="Helvetica,sans-Serif" font-size="10.00">TInterface::ExportTTMenu</text>
<text text-anchor="middle" x="1097.5" y="-17" font-family="Helvetica,sans-Serif" font-size="10.00">ItemClick</text>
</a>
</g>
</g>
<!-- Node16&#45;&gt;Node18 -->
<g id="edge19" class="edge">
<title>Node16&#45;&gt;Node18</title>
<path fill="none" stroke="midnightblue" d="M1226.19,-43.84C1205.21,-40.75 1182.26,-37.36 1161.68,-34.32"/>
<polygon fill="midnightblue" stroke="midnightblue" points="1225.91,-47.34 1236.31,-45.34 1226.93,-40.42 1225.91,-47.34"/>
</g>
<!-- Node20 -->
<g id="node20" class="node">
<title>Node20</title>
<g id="a_node20"><a xlink:href="class_t_train.html#a89ad640ecf8f5163c40727b4e28575fc" target="_top" xlink:title="Major function called at each clock tick for each train &amp; handles all train movement &amp; associated act...">
<polygon fill="white" stroke="black" points="1047,-233.5 1047,-252.5 1148,-252.5 1148,-233.5 1047,-233.5"/>
<text text-anchor="middle" x="1097.5" y="-240.5" font-family="Helvetica,sans-Serif" font-size="10.00">TTrain::UpdateTrain</text>
</a>
</g>
</g>
<!-- Node19&#45;&gt;Node20 -->
<g id="edge21" class="edge">
<title>Node19&#45;&gt;Node20</title>
<path fill="none" stroke="midnightblue" d="M1239.63,-256.65C1210.89,-253.87 1176.07,-250.5 1148.2,-247.81"/>
<polygon fill="midnightblue" stroke="midnightblue" points="1239.63,-260.16 1249.92,-257.64 1240.3,-253.19 1239.63,-260.16"/>
</g>
<!-- Node20&#45;&gt;Node21 -->
<g id="edge22" class="edge">
<title>Node20&#45;&gt;Node21</title>
<path fill="none" stroke="midnightblue" d="M1075.93,-258.63C1039.48,-286.34 964.55,-343.28 934.44,-366.16"/>
<polygon fill="midnightblue" stroke="midnightblue" points="1078.07,-261.4 1083.91,-252.57 1073.83,-255.83 1078.07,-261.4"/>
</g>
<!-- Node21&#45;&gt;Node7 -->
<g id="edge23" class="edge">
<title>Node21&#45;&gt;Node7</title>
<path fill="none" stroke="midnightblue" d="M862.33,-387.52C730.75,-414.03 408.45,-478.96 286.91,-503.45"/>
<polygon fill="midnightblue" stroke="midnightblue" points="863.11,-390.93 872.22,-385.52 861.73,-384.07 863.11,-390.93"/>
</g>
<!-- Node23 -->
<g id="node23" class="node">
<title>Node23</title>
<g id="a_node23"><a xlink:href="class_t_interface.html#a51b94ffa3dc90fe4e3bec2f1ae28074e" target="_top" xlink:title="used for floating window to display train status">
<polygon fill="white" stroke="black" points="1032.5,-542 1032.5,-572 1162.5,-572 1162.5,-542 1032.5,-542"/>
<text text-anchor="start" x="1040.5" y="-560" font-family="Helvetica,sans-Serif" font-size="10.00">TInterface::GetTrainStatus</text>
<text text-anchor="middle" x="1097.5" y="-549" font-family="Helvetica,sans-Serif" font-size="10.00">Float</text>
</a>
</g>
</g>
<!-- Node22&#45;&gt;Node23 -->
<g id="edge25" class="edge">
<title>Node22&#45;&gt;Node23</title>
<path fill="none" stroke="midnightblue" d="M1222.21,-545.04C1202.67,-546.93 1181.68,-548.96 1162.64,-550.8"/>
<polygon fill="midnightblue" stroke="midnightblue" points="1222.67,-548.51 1232.29,-544.06 1222,-541.54 1222.67,-548.51"/>
</g>
<!-- Node23&#45;&gt;Node15 -->
<g id="edge26" class="edge">
<title>Node23&#45;&gt;Node15</title>
<path fill="none" stroke="midnightblue" d="M1027,-539.53C1003.92,-533.72 979.1,-527.48 959.33,-522.51"/>
<polygon fill="midnightblue" stroke="midnightblue" points="1026.21,-542.94 1036.76,-541.98 1027.92,-536.15 1026.21,-542.94"/>
</g>
<!-- Node24&#45;&gt;Node15 -->
<g id="edge29" class="edge">
<title>Node24&#45;&gt;Node15</title>
<path fill="none" stroke="midnightblue" d="M1223.13,-485.3C1206.72,-488.59 1189.31,-491.72 1173,-494 1109.79,-502.83 1037.04,-507.76 986.09,-510.38"/>
<polygon fill="midnightblue" stroke="midnightblue" points="1224.1,-488.68 1233.2,-483.25 1222.7,-481.82 1224.1,-488.68"/>
</g>
<!-- Node25 -->
<g id="node25" class="node">
<title>Node25</title>
<g id="a_node25"><a xlink:href="class_t_interface.html#a40232083747ef274344eed7021c6f43c" target="_top" xlink:title=" ">
<polygon fill="white" stroke="black" points="1032,-454 1032,-484 1163,-484 1163,-454 1032,-454"/>
<text text-anchor="start" x="1040" y="-472" font-family="Helvetica,sans-Serif" font-size="10.00">TInterface::SkipTimetabled</text>
<text text-anchor="middle" x="1097.5" y="-461" font-family="Helvetica,sans-Serif" font-size="10.00">ActionsMenuItemClick</text>
</a>
</g>
</g>
<!-- Node24&#45;&gt;Node25 -->
<g id="edge28" class="edge">
<title>Node24&#45;&gt;Node25</title>
<path fill="none" stroke="midnightblue" d="M1223.27,-469C1203.65,-469 1182.51,-469 1163.31,-469"/>
<polygon fill="midnightblue" stroke="midnightblue" points="1223.37,-472.5 1233.37,-469 1223.37,-465.5 1223.37,-472.5"/>
</g>
<!-- Node26&#45;&gt;Node20 -->
<g id="edge31" class="edge">
<title>Node26&#45;&gt;Node20</title>
<path fill="none" stroke="midnightblue" d="M1229.76,-230.31C1203.22,-232.87 1173.04,-235.79 1148.31,-238.18"/>
<polygon fill="midnightblue" stroke="midnightblue" points="1230.12,-233.79 1239.74,-229.34 1229.45,-226.82 1230.12,-233.79"/>
</g>
<!-- Node28&#45;&gt;Node20 -->
<g id="edge34" class="edge">
<title>Node28&#45;&gt;Node20</title>
<path fill="none" stroke="midnightblue" d="M1241.22,-329.46C1230.31,-326.81 1219.09,-323.39 1209,-319 1168.85,-301.55 1128.08,-268.74 1109.25,-252.55"/>
<polygon fill="midnightblue" stroke="midnightblue" points="1240.58,-332.91 1251.11,-331.69 1242.12,-326.08 1240.58,-332.91"/>
</g>
<!-- Node29&#45;&gt;Node20 -->
<g id="edge37" class="edge">
<title>Node29&#45;&gt;Node20</title>
<path fill="none" stroke="midnightblue" d="M1237.23,-197.81C1227.75,-200.02 1218.07,-202.45 1209,-205 1179.32,-213.35 1145.93,-225.18 1123.7,-233.42"/>
<polygon fill="midnightblue" stroke="midnightblue" points="1238.02,-201.22 1247,-195.59 1236.47,-194.4 1238.02,-201.22"/>
</g>
<!-- Node30 -->
<g id="node30" class="node">
<title>Node30</title>
<g id="a_node30"><a xlink:href="class_t_interface.html#a0e9af41ff305fe2813385fce38b73206" target="_top" xlink:title=" ">
<polygon fill="white" stroke="black" points="1022,-127 1022,-157 1173,-157 1173,-127 1022,-127"/>
<text text-anchor="start" x="1030" y="-145" font-family="Helvetica,sans-Serif" font-size="10.00">TInterface::BecomeNewService</text>
<text text-anchor="middle" x="1097.5" y="-134" font-family="Helvetica,sans-Serif" font-size="10.00">MenuItemClick</text>
</a>
</g>
</g>
<!-- Node29&#45;&gt;Node30 -->
<g id="edge36" class="edge">
<title>Node29&#45;&gt;Node30</title>
<path fill="none" stroke="midnightblue" d="M1241.87,-174.31C1230.99,-171.9 1219.63,-169.38 1209,-167 1194.7,-163.8 1179.36,-160.35 1164.81,-157.06"/>
<polygon fill="midnightblue" stroke="midnightblue" points="1241.16,-177.73 1251.68,-176.47 1242.67,-170.9 1241.16,-177.73"/>
</g>
<!-- Node31&#45;&gt;Node20 -->
<g id="edge40" class="edge">
<title>Node31&#45;&gt;Node20</title>
<path fill="none" stroke="midnightblue" d="M1237.23,-288.19C1227.75,-285.98 1218.07,-283.55 1209,-281 1179.32,-272.65 1145.93,-260.82 1123.7,-252.58"/>
<polygon fill="midnightblue" stroke="midnightblue" points="1236.47,-291.6 1247,-290.41 1238.02,-284.78 1236.47,-291.6"/>
</g>
<!-- Node32&#45;&gt;Node20 -->
<g id="edge43" class="edge">
<title>Node32&#45;&gt;Node20</title>
<path fill="none" stroke="midnightblue" d="M1224.38,-160.51C1219.1,-162.51 1213.92,-164.67 1209,-167 1169.66,-185.65 1128.83,-217.61 1109.68,-233.48"/>
<polygon fill="midnightblue" stroke="midnightblue" points="1225.71,-163.76 1233.95,-157.1 1223.36,-157.16 1225.71,-163.76"/>
</g>
<!-- Node32&#45;&gt;Node30 -->
<g id="edge42" class="edge">
<title>Node32&#45;&gt;Node30</title>
<path fill="none" stroke="midnightblue" d="M1215.82,-142C1201.69,-142 1187.01,-142 1173.02,-142"/>
<polygon fill="midnightblue" stroke="midnightblue" points="1216,-145.5 1226,-142 1216,-138.5 1216,-145.5"/>
</g>
<!-- Node33&#45;&gt;Node20 -->
<g id="edge46" class="edge">
<title>Node33&#45;&gt;Node20</title>
<path fill="none" stroke="midnightblue" d="M1221.27,-111.31C1216.98,-113.25 1212.85,-115.46 1209,-118 1186.44,-132.87 1190.5,-146.41 1173,-167 1151.7,-192.06 1124,-219.01 1109.1,-233.11"/>
<polygon fill="midnightblue" stroke="midnightblue" points="1222.87,-114.44 1230.88,-107.5 1220.3,-107.93 1222.87,-114.44"/>
</g>
<!-- Node33&#45;&gt;Node30 -->
<g id="edge45" class="edge">
<title>Node33&#45;&gt;Node30</title>
<path fill="none" stroke="midnightblue" d="M1242.56,-109.74C1218.99,-115.02 1190.88,-121.31 1165.78,-126.93"/>
<polygon fill="midnightblue" stroke="midnightblue" points="1243.37,-113.15 1252.36,-107.55 1241.84,-106.32 1243.37,-113.15"/>
</g>
</g>
</svg>
        <g id="navigator" transform="translate(0 0)" fill="#404254">
                <rect fill="#f2f5e9" fill-opacity="0.5" stroke="#606060" stroke-width=".5" x="0" y="0" width="60" height="60"/>
                <use id="zoomplus" xlink:href="#zoomPlus" x="17" y="9" onmousedown="handleZoom(evt,'in')"/>
                <use id="zoomminus" xlink:href="#zoomMin" x="42" y="9" onmousedown="handleZoom(evt,'out')"/>
                <use id="reset" xlink:href="#resetDef" x="30" y="36" onmousedown="handleReset()"/>
                <g id="arrowUp" xlink:href="#dirArrow" transform="translate(30 24)" onmousedown="handlePan(0,-1)">
                  <use xlink:href="#rim" fill="#404040">
                        <set attributeName="fill" to="#808080" begin="arrowUp.mouseover" end="arrowUp.mouseout"/>
                  </use>
                  <path fill="none" stroke="white" stroke-width="1.5" d="M0,-3.0v7 M-2.5,-0.5L0,-3.0L2.5,-0.5"/>
                </g>
                <g id="arrowRight" xlink:href="#dirArrow" transform="rotate(90) translate(36 -43)" onmousedown="handlePan(1,0)">
                  <use xlink:href="#rim" fill="#404040">
                        <set attributeName="fill" to="#808080" begin="arrowRight.mouseover" end="arrowRight.mouseout"/>
                  </use>
                  <path fill="none" stroke="white" stroke-width="1.5" d="M0,-3.0v7 M-2.5,-0.5L0,-3.0L2.5,-0.5"/>
                </g>
                <g id="arrowDown" xlink:href="#dirArrow" transform="rotate(180) translate(-30 -48)" onmousedown="handlePan(0,1)">
                  <use xlink:href="#rim" fill="#404040">
                        <set attributeName="fill" to="#808080" begin="arrowDown.mouseover" end="arrowDown.mouseout"/>
                  </use>
                  <path fill="none" stroke="white" stroke-width="1.5" d="M0,-3.0v7 M-2.5,-0.5L0,-3.0L2.5,-0.5"/>
                </g>
                <g id="arrowLeft" xlink:href="#dirArrow" transform="rotate(270) translate(-36 17)" onmousedown="handlePan(-1,0)">
                  <use xlink:href="#rim" fill="#404040">
                        <set attributeName="fill" to="#808080" begin="arrowLeft.mouseover" end="arrowLeft.mouseout"/>
                  </use>
                  <path fill="none" stroke="white" stroke-width="1.5" d="M0,-3.0v7 M-2.5,-0.5L0,-3.0L2.5,-0.5"/>
                </g>
        </g>
        <svg viewBox="0 0 15 15" width="100%" height="30px" preserveAspectRatio="xMaxYMin meet">
         <g id="arrow_out" transform="scale(0.3 0.3)">
          <a xlink:href="class_t_train_controller_afb0e8fd36435809350cb323ab9fe2213_icgraph_org.svg" target="_base">
           <rect id="button" ry="5" rx="5" y="6" x="6" height="38" width="38"
                fill="#f2f5e9" fill-opacity="0.5" stroke="#606060" stroke-width="1.0"/>
           <path id="arrow"
             d="M 11.500037,31.436501 C 11.940474,20.09759 22.043105,11.32322 32.158766,21.979434 L 37.068811,17.246167 C 37.068811,17.246167 37.088388,32 37.088388,32 L 22.160133,31.978069 C 22.160133,31.978069 26.997745,27.140456 26.997745,27.140456 C 18.528582,18.264221 13.291696,25.230495 11.500037,31.436501 z"
             style="fill:#404040;"/>
          </a>
         </g>
        </svg>
</svg>
