<?xml version="1.0" encoding="UTF-8" standalone="no"?>
<!DOCTYPE svg PUBLIC "-//W3C//DTD SVG 1.1//EN"
 "http://www.w3.org/Graphics/SVG/1.1/DTD/svg11.dtd">
<!-- Generated by graphviz version 2.44.1 (20200629.0800)
 -->
<!-- Title: TInterface::LoadGroundSignalGlyphs Pages: 1 -->
<svg width="326pt" height="127pt"
 viewBox="0.00 0.00 326.00 126.50" xmlns="http://www.w3.org/2000/svg" xmlns:xlink="http://www.w3.org/1999/xlink">
<g id="graph0" class="graph" transform="scale(1 1) rotate(0) translate(4 122.5)">
<title>TInterface::LoadGroundSignalGlyphs</title>
<polygon fill="white" stroke="transparent" points="-4,4 -4,-122.5 322,-122.5 322,4 -4,4"/>
<!-- Node1 -->
<g id="node1" class="node">
<title>Node1</title>
<g id="a_node1"><a xlink:title="In trackbuild display ground signal types on signal buttons.">
<polygon fill="#bfbfbf" stroke="black" points="174,-39 174,-69 318,-69 318,-39 174,-39"/>
<text text-anchor="start" x="182" y="-57" font-family="Helvetica,sans-Serif" font-size="10.00">TInterface::LoadGroundSignal</text>
<text text-anchor="middle" x="246" y="-46" font-family="Helvetica,sans-Serif" font-size="10.00">Glyphs</text>
</a>
</g>
</g>
<!-- Node2 -->
<g id="node2" class="node">
<title>Node2</title>
<g id="a_node2"><a xlink:href="class_t_interface.html#ad9449a5d1fa3eada816b8b66500d7d44" target="_top" xlink:title=" ">
<polygon fill="white" stroke="black" points="1,-88 1,-118 137,-118 137,-88 1,-88"/>
<text text-anchor="start" x="9" y="-106" font-family="Helvetica,sans-Serif" font-size="10.00">TInterface::ConverttoRight</text>
<text text-anchor="middle" x="69" y="-95" font-family="Helvetica,sans-Serif" font-size="10.00">HandSignalsMenuItemClick</text>
</a>
</g>
</g>
<!-- Node1&#45;&gt;Node2 -->
<g id="edge1" class="edge">
<title>Node1&#45;&gt;Node2</title>
<path fill="none" stroke="midnightblue" d="M181.35,-71.82C162.46,-77.11 141.96,-82.85 123.76,-87.95"/>
<polygon fill="midnightblue" stroke="midnightblue" points="182.38,-75.17 191.07,-69.1 180.49,-68.43 182.38,-75.17"/>
</g>
<!-- Node3 -->
<g id="node3" class="node">
<title>Node3</title>
<g id="a_node3"><a xlink:href="class_t_interface.html#ac1e9ee3443ac91e2687e6f154d15521a" target="_top" xlink:title=" ">
<polygon fill="white" stroke="black" points="0,-39 0,-69 138,-69 138,-39 0,-39"/>
<text text-anchor="start" x="8" y="-57" font-family="Helvetica,sans-Serif" font-size="10.00">TInterface::SigAspectButton</text>
<text text-anchor="middle" x="69" y="-46" font-family="Helvetica,sans-Serif" font-size="10.00">Click</text>
</a>
</g>
</g>
<!-- Node1&#45;&gt;Node3 -->
<g id="edge2" class="edge">
<title>Node1&#45;&gt;Node3</title>
<path fill="none" stroke="midnightblue" d="M163.76,-54C155.15,-54 146.45,-54 138,-54"/>
<polygon fill="midnightblue" stroke="midnightblue" points="163.82,-57.5 173.82,-54 163.82,-50.5 163.82,-57.5"/>
</g>
<!-- Node4 -->
<g id="node4" class="node">
<title>Node4</title>
<g id="a_node4"><a xlink:href="class_t_interface.html#a0659e748042e378f3e325652c9c2e6d2" target="_top" xlink:title="constructor">
<polygon fill="white" stroke="black" points="15.5,-0.5 15.5,-19.5 122.5,-19.5 122.5,-0.5 15.5,-0.5"/>
<text text-anchor="middle" x="69" y="-7.5" font-family="Helvetica,sans-Serif" font-size="10.00">TInterface::TInterface</text>
</a>
</g>
</g>
<!-- Node1&#45;&gt;Node4 -->
<g id="edge3" class="edge">
<title>Node1&#45;&gt;Node4</title>
<path fill="none" stroke="midnightblue" d="M175.5,-36.53C152.42,-30.72 127.6,-24.48 107.83,-19.51"/>
<polygon fill="midnightblue" stroke="midnightblue" points="174.71,-39.94 185.26,-38.98 176.42,-33.15 174.71,-39.94"/>
</g>
</g>
</svg>
