<?xml version="1.0" encoding="UTF-8" standalone="no"?>
<!DOCTYPE svg PUBLIC "-//W3C//DTD SVG 1.1//EN"
 "http://www.w3.org/Graphics/SVG/1.1/DTD/svg11.dtd">
<!-- Generated by graphviz version 2.44.1 (20200629.0800)
 -->
<!-- Title: TInterface::GetTrainFloatingInfoFromContinuation Pages: 1 -->
<!--zoomable 591 -->
<svg id="main" version="1.1" xmlns="http://www.w3.org/2000/svg" xmlns:xlink="http://www.w3.org/1999/xlink" xml:space="preserve" onload="init(evt)">
<style type="text/css"><![CDATA[
.edge:hover path { stroke: red; }
.edge:hover polygon { stroke: red; fill: red; }
]]></style>
<script type="text/javascript"><![CDATA[
var edges = document.getElementsByTagName('g');
if (edges && edges.length) {
  for (var i=0;i<edges.length;i++) {
    if (edges[i].id.substr(0,4)=='edge') {
      edges[i].setAttribute('class','edge');
    }
  }
}
]]></script>
        <defs>
                <circle id="rim" cx="0" cy="0" r="7"/>
                <circle id="rim2" cx="0" cy="0" r="3.5"/>
                <g id="zoomPlus">
                        <use xlink:href="#rim" fill="#404040">
                                <set attributeName="fill" to="#808080" begin="zoomplus.mouseover" end="zoomplus.mouseout"/>
                        </use>
                        <path d="M-4,0h8M0,-4v8" fill="none" stroke="white" stroke-width="1.5" pointer-events="none"/>
                </g>
                <g id="zoomMin">
                        <use xlink:href="#rim" fill="#404040">
                                <set attributeName="fill" to="#808080" begin="zoomminus.mouseover" end="zoomminus.mouseout"/>
                        </use>
                        <path d="M-4,0h8" fill="none" stroke="white" stroke-width="1.5" pointer-events="none"/>
                </g>
                <g id="dirArrow">
                        <path fill="none" stroke="white" stroke-width="1.5" d="M0,-3.0v7 M-2.5,-0.5L0,-3.0L2.5,-0.5"/>
                </g>
               <g id="resetDef">
                       <use xlink:href="#rim2" fill="#404040">
                               <set attributeName="fill" to="#808080" begin="reset.mouseover" end="reset.mouseout"/>
                       </use>
               </g>
        </defs>

<script type="text/javascript">
var viewWidth = 1026;
var viewHeight = 591;
var sectionId = 'dynsection-114';
</script>
<script xlink:href="svgpan.js"/>
<svg id="graph" class="graph">
<g id="viewport">
<title>TInterface::GetTrainFloatingInfoFromContinuation</title>
<polygon fill="white" stroke="transparent" points="-4,4 -4,-587.22 1022,-587.22 1022,4 -4,4"/>
<!-- Node1 -->
<g id="node1" class="node">
<title>Node1</title>
<g id="a_node1"><a xlink:title="Called when floating train info needed and train hasn&#39;t entered yet.">
<polygon fill="#bfbfbf" stroke="black" points="0,-486.22 0,-516.22 136,-516.22 136,-486.22 0,-486.22"/>
<text text-anchor="start" x="8" y="-504.22" font-family="Helvetica,sans-Serif" font-size="10.00">TInterface::GetTrainFloating</text>
<text text-anchor="middle" x="68" y="-493.22" font-family="Helvetica,sans-Serif" font-size="10.00">InfoFromContinuation</text>
</a>
</g>
</g>
<!-- Node2 -->
<g id="node2" class="node">
<title>Node2</title>
<g id="a_node2"><a xlink:href="class_t_utilities.html#ae1eddca13cc3c492839e131f40ec21c0" target="_top" xlink:title="&lt; specifies whether no delays or minor, moderate or major random delays are to be applied">
<polygon fill="white" stroke="black" points="908,-421.72 908,-440.72 1018,-440.72 1018,-421.72 908,-421.72"/>
<text text-anchor="middle" x="963" y="-428.72" font-family="Helvetica,sans-Serif" font-size="10.00">TUtilities::CallLogPop</text>
</a>
</g>
</g>
<!-- Node1&#45;&gt;Node2 -->
<g id="edge1" class="edge">
<title>Node1&#45;&gt;Node2</title>
<path fill="none" stroke="midnightblue" d="M107.38,-516.26C171.36,-539.93 304.29,-583.22 421,-583.22 421,-583.22 421,-583.22 602.5,-583.22 725.82,-583.22 763.86,-576.49 872,-517.22 903.7,-499.84 932.39,-468.46 948.48,-448.8"/>
<polygon fill="midnightblue" stroke="midnightblue" points="951.26,-450.92 954.76,-440.92 945.79,-446.55 951.26,-450.92"/>
</g>
<!-- Node3 -->
<g id="node3" class="node">
<title>Node3</title>
<g id="a_node3"><a xlink:href="class_t_train_controller.html#a9c531d3df66921ada4e698bcf47f72f3" target="_top" xlink:title="Build string for use in floating window for expected trains at continuations.">
<polygon fill="white" stroke="black" points="172,-350.22 172,-380.22 316,-380.22 316,-350.22 172,-350.22"/>
<text text-anchor="start" x="180" y="-368.22" font-family="Helvetica,sans-Serif" font-size="10.00">TTrainController::Continuation</text>
<text text-anchor="middle" x="244" y="-357.22" font-family="Helvetica,sans-Serif" font-size="10.00">EntryFloatingTTString</text>
</a>
</g>
</g>
<!-- Node1&#45;&gt;Node3 -->
<g id="edge2" class="edge">
<title>Node1&#45;&gt;Node3</title>
<path fill="none" stroke="midnightblue" d="M88.29,-486.14C119.25,-461.94 180.16,-414.33 215.62,-386.62"/>
<polygon fill="midnightblue" stroke="midnightblue" points="217.9,-389.28 223.63,-380.36 213.59,-383.76 217.9,-389.28"/>
</g>
<!-- Node5 -->
<g id="node5" class="node">
<title>Node5</title>
<g id="a_node5"><a xlink:href="class_t_utilities.html#a6dc0e83b149563fdf43f068fd26cead8" target="_top" xlink:title="formats a TDateTime into an AnsiString of the form hh:mm where hh runs from 00 to 95 &amp; resets when it...">
<polygon fill="white" stroke="black" points="536,-459.72 536,-478.72 667,-478.72 667,-459.72 536,-459.72"/>
<text text-anchor="middle" x="601.5" y="-466.72" font-family="Helvetica,sans-Serif" font-size="10.00">TUtilities::Format96HHMM</text>
</a>
</g>
</g>
<!-- Node1&#45;&gt;Node5 -->
<g id="edge31" class="edge">
<title>Node1&#45;&gt;Node5</title>
<path fill="none" stroke="midnightblue" d="M136.05,-497.18C235.57,-491.19 421.78,-479.98 525.64,-473.73"/>
<polygon fill="midnightblue" stroke="midnightblue" points="525.96,-477.21 535.73,-473.12 525.54,-470.22 525.96,-477.21"/>
</g>
<!-- Node9 -->
<g id="node9" class="node">
<title>Node9</title>
<g id="a_node9"><a xlink:href="class_t_utilities.html#a34bd6bb5305bc29afdf424f6d35a921c" target="_top" xlink:title="creates a string of the form &#39;hh:mm:ss&#39; for use in call &amp; event logging">
<polygon fill="white" stroke="black" points="908,-149.72 908,-168.72 1018,-168.72 1018,-149.72 908,-149.72"/>
<text text-anchor="middle" x="963" y="-156.72" font-family="Helvetica,sans-Serif" font-size="10.00">TUtilities::TimeStamp</text>
</a>
</g>
</g>
<!-- Node1&#45;&gt;Node9 -->
<g id="edge32" class="edge">
<title>Node1&#45;&gt;Node9</title>
<path fill="none" stroke="midnightblue" d="M71.76,-485.98C87.86,-402.19 177.63,-1.22 421,-1.22 421,-1.22 421,-1.22 602.5,-1.22 724.24,-1.22 766.97,11.35 872,-50.22 909.38,-72.13 938.01,-115.67 952.18,-140.58"/>
<polygon fill="midnightblue" stroke="midnightblue" points="949.16,-142.34 957.04,-149.42 955.29,-138.97 949.16,-142.34"/>
</g>
<!-- Node10 -->
<g id="node10" class="node">
<title>Node10</title>
<g id="a_node10"><a xlink:href="class_t_track.html#ad377e5a1f152f2e89832c0f9bcfd261f" target="_top" xlink:title="A range&#45;checked version of TrackVector.at(At)">
<polygon fill="white" stroke="black" points="730.5,-421.72 730.5,-440.72 852.5,-440.72 852.5,-421.72 730.5,-421.72"/>
<text text-anchor="middle" x="791.5" y="-428.72" font-family="Helvetica,sans-Serif" font-size="10.00">TTrack::TrackElementAt</text>
</a>
</g>
</g>
<!-- Node1&#45;&gt;Node10 -->
<g id="edge33" class="edge">
<title>Node1&#45;&gt;Node10</title>
<path fill="none" stroke="midnightblue" d="M136.26,-509.61C249.53,-521.59 484.66,-537.12 675,-488.22 709.07,-479.46 744.89,-459.94 767.44,-446.19"/>
<polygon fill="midnightblue" stroke="midnightblue" points="769.32,-449.14 775.96,-440.88 765.62,-443.2 769.32,-449.14"/>
</g>
<!-- Node3&#45;&gt;Node2 -->
<g id="edge3" class="edge">
<title>Node3&#45;&gt;Node2</title>
<path fill="none" stroke="midnightblue" d="M266.27,-380.47C287.27,-395 320.7,-416.75 352,-431.22 426.64,-465.71 446.89,-474.73 528,-488.22 678.82,-513.3 725.67,-535.52 872,-491.22 900.11,-482.71 927.47,-462.2 944.5,-447.53"/>
<polygon fill="midnightblue" stroke="midnightblue" points="946.84,-450.14 951.99,-440.88 942.19,-444.9 946.84,-450.14"/>
</g>
<!-- Node4 -->
<g id="node4" class="node">
<title>Node4</title>
<g id="a_node4"><a xlink:href="class_t_train_controller.html#aab94af5bb445fc36543e2c22d2986daa" target="_top" xlink:title="Similar to TTrain::GetNewServiceDepartureInfo for use in ContinuationEntryFloatingTTString.">
<polygon fill="white" stroke="black" points="352,-328.22 352,-358.22 492,-358.22 492,-328.22 352,-328.22"/>
<text text-anchor="start" x="360" y="-346.22" font-family="Helvetica,sans-Serif" font-size="10.00">TTrainController::Controller</text>
<text text-anchor="middle" x="422" y="-335.22" font-family="Helvetica,sans-Serif" font-size="10.00">GetNewServiceDepartureInfo</text>
</a>
</g>
</g>
<!-- Node3&#45;&gt;Node4 -->
<g id="edge4" class="edge">
<title>Node3&#45;&gt;Node4</title>
<path fill="none" stroke="midnightblue" d="M316.08,-356.33C324.58,-355.27 333.3,-354.18 341.91,-353.1"/>
<polygon fill="midnightblue" stroke="midnightblue" points="342.45,-356.56 351.94,-351.85 341.58,-349.62 342.45,-356.56"/>
</g>
<!-- Node3&#45;&gt;Node5 -->
<g id="edge18" class="edge">
<title>Node3&#45;&gt;Node5</title>
<path fill="none" stroke="midnightblue" d="M296.31,-380.23C366.77,-400.84 492.16,-437.52 557.78,-456.72"/>
<polygon fill="midnightblue" stroke="midnightblue" points="557.21,-460.2 567.79,-459.65 559.17,-453.48 557.21,-460.2"/>
</g>
<!-- Node6 -->
<g id="node6" class="node">
<title>Node6</title>
<g id="a_node6"><a xlink:href="class_t_train_controller.html#a2713e7d4bb329d65df8b3fa0ad59b6cf" target="_top" xlink:title="Get the interval between repeats.">
<polygon fill="white" stroke="black" points="528,-284.22 528,-314.22 675,-314.22 675,-284.22 528,-284.22"/>
<text text-anchor="start" x="536" y="-302.22" font-family="Helvetica,sans-Serif" font-size="10.00">TTrainController::GetController</text>
<text text-anchor="middle" x="601.5" y="-291.22" font-family="Helvetica,sans-Serif" font-size="10.00">TrainTime</text>
</a>
</g>
</g>
<!-- Node3&#45;&gt;Node6 -->
<g id="edge19" class="edge">
<title>Node3&#45;&gt;Node6</title>
<path fill="none" stroke="midnightblue" d="M273.18,-350.09C294.26,-339.53 324.13,-326.13 352,-319.22 406.12,-305.79 468.71,-300.81 517.53,-299.18"/>
<polygon fill="midnightblue" stroke="midnightblue" points="517.84,-302.67 527.73,-298.88 517.63,-295.68 517.84,-302.67"/>
</g>
<!-- Node3&#45;&gt;Node9 -->
<g id="edge30" class="edge">
<title>Node3&#45;&gt;Node9</title>
<path fill="none" stroke="midnightblue" d="M253.73,-350.01C283.78,-299.58 388.73,-138.35 528,-91.22 672.82,-42.21 727.21,-41.1 872,-90.22 902.12,-100.44 930.07,-125.24 946.59,-142.15"/>
<polygon fill="midnightblue" stroke="midnightblue" points="944.33,-144.85 953.74,-149.72 949.42,-140.04 944.33,-144.85"/>
</g>
<!-- Node11 -->
<g id="node11" class="node">
<title>Node11</title>
<g id="a_node11"><a xlink:href="class_t_train_controller.html#ab6b9585304d792300f5ca7f9c7a0ad06" target="_top" xlink:title="Check all timetable names in ExitList, if all same return &quot; at [name]&quot; + AllowableExits = elements,...">
<polygon fill="white" stroke="black" points="540,-372.22 540,-402.22 663,-402.22 663,-372.22 540,-372.22"/>
<text text-anchor="start" x="548" y="-390.22" font-family="Helvetica,sans-Serif" font-size="10.00">TTrainController::GetExit</text>
<text text-anchor="middle" x="601.5" y="-379.22" font-family="Helvetica,sans-Serif" font-size="10.00">LocationAndAt</text>
</a>
</g>
</g>
<!-- Node3&#45;&gt;Node11 -->
<g id="edge20" class="edge">
<title>Node3&#45;&gt;Node11</title>
<path fill="none" stroke="midnightblue" d="M316.09,-369.62C378.18,-373.46 467.83,-379.01 529.8,-382.84"/>
<polygon fill="midnightblue" stroke="midnightblue" points="529.69,-386.34 539.89,-383.47 530.12,-379.36 529.69,-386.34"/>
</g>
<!-- Node12 -->
<g id="node12" class="node">
<title>Node12</title>
<g id="a_node12"><a xlink:href="class_t_train_controller.html#afb0e8fd36435809350cb323ab9fe2213" target="_top" xlink:title="Return the service headcode for the repeat service.">
<polygon fill="white" stroke="black" points="533,-166.22 533,-196.22 670,-196.22 670,-166.22 533,-166.22"/>
<text text-anchor="start" x="541" y="-184.22" font-family="Helvetica,sans-Serif" font-size="10.00">TTrainController::GetRepeat</text>
<text text-anchor="middle" x="601.5" y="-173.22" font-family="Helvetica,sans-Serif" font-size="10.00">HeadCode</text>
</a>
</g>
</g>
<!-- Node3&#45;&gt;Node12 -->
<g id="edge24" class="edge">
<title>Node3&#45;&gt;Node12</title>
<path fill="none" stroke="midnightblue" d="M266.58,-350.03C287.82,-335.39 321.4,-313.06 352,-296.22 420.67,-258.43 503.96,-221.61 554.56,-200.19"/>
<polygon fill="midnightblue" stroke="midnightblue" points="556.06,-203.36 563.92,-196.25 553.35,-196.91 556.06,-203.36"/>
</g>
<!-- Node4&#45;&gt;Node2 -->
<g id="edge5" class="edge">
<title>Node4&#45;&gt;Node2</title>
<path fill="none" stroke="midnightblue" d="M442.01,-358.5C462.23,-374.07 495.69,-397.9 528,-412.22 589.69,-439.56 612.6,-424.53 675,-450.22 692.13,-457.27 693.12,-466.38 711,-471.22 780.08,-489.89 802,-486.07 872,-471.22 895.14,-466.31 919.56,-455.02 937.12,-445.68"/>
<polygon fill="midnightblue" stroke="midnightblue" points="939.03,-448.63 946.11,-440.75 935.66,-442.49 939.03,-448.63"/>
</g>
<!-- Node4&#45;&gt;Node5 -->
<g id="edge6" class="edge">
<title>Node4&#45;&gt;Node5</title>
<path fill="none" stroke="midnightblue" d="M438.47,-358.42C467.03,-386.46 525.38,-443.63 528,-445.22 535.25,-449.62 543.41,-453.32 551.56,-456.39"/>
<polygon fill="midnightblue" stroke="midnightblue" points="550.48,-459.72 561.08,-459.72 552.79,-453.11 550.48,-459.72"/>
</g>
<!-- Node4&#45;&gt;Node6 -->
<g id="edge7" class="edge">
<title>Node4&#45;&gt;Node6</title>
<path fill="none" stroke="midnightblue" d="M483.59,-328.2C498.5,-324.5 514.6,-320.51 529.93,-316.71"/>
<polygon fill="midnightblue" stroke="midnightblue" points="531.02,-320.05 539.88,-314.24 529.33,-313.25 531.02,-320.05"/>
</g>
<!-- Node4&#45;&gt;Node9 -->
<g id="edge14" class="edge">
<title>Node4&#45;&gt;Node9</title>
<path fill="none" stroke="midnightblue" d="M426.75,-328.17C436.58,-292.09 466.66,-200.38 528,-156.22 652.71,-66.42 721.38,-90.72 872,-121.22 894.58,-125.79 918.54,-136.21 936.06,-144.98"/>
<polygon fill="midnightblue" stroke="midnightblue" points="934.58,-148.16 945.07,-149.64 937.79,-141.94 934.58,-148.16"/>
</g>
<!-- Node4&#45;&gt;Node10 -->
<g id="edge15" class="edge">
<title>Node4&#45;&gt;Node10</title>
<path fill="none" stroke="midnightblue" d="M492.25,-334.6C545.26,-331.21 618.62,-333.71 675,-363.22 697.39,-374.93 689.99,-393.18 711,-407.22 717.57,-411.61 724.98,-415.22 732.56,-418.19"/>
<polygon fill="midnightblue" stroke="midnightblue" points="731.61,-421.56 742.2,-421.61 733.95,-414.97 731.61,-421.56"/>
</g>
<!-- Node6&#45;&gt;Node2 -->
<g id="edge8" class="edge">
<title>Node6&#45;&gt;Node2</title>
<path fill="none" stroke="midnightblue" d="M648.87,-314.31C657.99,-318.38 667.16,-323.33 675,-329.22 695.48,-344.6 689.3,-360.62 711,-374.22 715.23,-376.87 836.05,-403.63 908.49,-419.53"/>
<polygon fill="midnightblue" stroke="midnightblue" points="907.86,-422.97 918.37,-421.69 909.36,-416.13 907.86,-422.97"/>
</g>
<!-- Node7 -->
<g id="node7" class="node">
<title>Node7</title>
<g id="a_node7"><a xlink:href="class_t_utilities.html#a2dfbe3d4ed11770bc1a902b51afdc10c" target="_top" xlink:title="formats a TDateTime into an AnsiString of the form hh:mm:ss where hh runs from 00 to 95 &amp; resets when...">
<polygon fill="white" stroke="black" points="719,-269.72 719,-288.72 864,-288.72 864,-269.72 719,-269.72"/>
<text text-anchor="middle" x="791.5" y="-276.72" font-family="Helvetica,sans-Serif" font-size="10.00">TUtilities::Format96HHMMSS</text>
</a>
</g>
</g>
<!-- Node6&#45;&gt;Node7 -->
<g id="edge9" class="edge">
<title>Node6&#45;&gt;Node7</title>
<path fill="none" stroke="midnightblue" d="M675.19,-291.49C686.18,-290.32 697.59,-289.1 708.76,-287.91"/>
<polygon fill="midnightblue" stroke="midnightblue" points="709.36,-291.37 718.94,-286.83 708.62,-284.41 709.36,-291.37"/>
</g>
<!-- Node8 -->
<g id="node8" class="node">
<title>Node8</title>
<g id="a_node8"><a xlink:href="class_t_train_controller.html#a435ef46f062904e85ae9792faaecdcf7" target="_top" xlink:title="Return the repeating service time.">
<polygon fill="white" stroke="black" points="712.5,-345.72 712.5,-364.72 870.5,-364.72 870.5,-345.72 712.5,-345.72"/>
<text text-anchor="middle" x="791.5" y="-352.72" font-family="Helvetica,sans-Serif" font-size="10.00">TTrainController::GetRepeatTime</text>
</a>
</g>
</g>
<!-- Node6&#45;&gt;Node8 -->
<g id="edge10" class="edge">
<title>Node6&#45;&gt;Node8</title>
<path fill="none" stroke="midnightblue" d="M652.88,-314.22C682.94,-323.18 720.66,-334.41 749,-342.86"/>
<polygon fill="midnightblue" stroke="midnightblue" points="748.02,-346.22 758.6,-345.72 750.02,-339.51 748.02,-346.22"/>
</g>
<!-- Node6&#45;&gt;Node9 -->
<g id="edge13" class="edge">
<title>Node6&#45;&gt;Node9</title>
<path fill="none" stroke="midnightblue" d="M641.31,-284.1C711.95,-256.6 860.38,-198.79 927.61,-172.61"/>
<polygon fill="midnightblue" stroke="midnightblue" points="929.25,-175.73 937.3,-168.84 926.71,-169.2 929.25,-175.73"/>
</g>
<!-- Node8&#45;&gt;Node2 -->
<g id="edge11" class="edge">
<title>Node8&#45;&gt;Node2</title>
<path fill="none" stroke="midnightblue" d="M830.75,-364.83C844.04,-368.67 858.9,-373.55 872,-379.22 895.97,-389.6 921.61,-404.87 939.37,-416.18"/>
<polygon fill="midnightblue" stroke="midnightblue" points="937.59,-419.19 947.88,-421.68 941.39,-413.31 937.59,-419.19"/>
</g>
<!-- Node8&#45;&gt;Node9 -->
<g id="edge12" class="edge">
<title>Node8&#45;&gt;Node9</title>
<path fill="none" stroke="midnightblue" d="M845.52,-345.66C855.02,-342.22 864.33,-337.56 872,-331.22 921.66,-290.15 947.35,-214.47 957.17,-178.8"/>
<polygon fill="midnightblue" stroke="midnightblue" points="960.56,-179.65 959.71,-169.09 953.79,-177.88 960.56,-179.65"/>
</g>
<!-- Node10&#45;&gt;Node2 -->
<g id="edge16" class="edge">
<title>Node10&#45;&gt;Node2</title>
<path fill="none" stroke="midnightblue" d="M852.74,-431.22C867.35,-431.22 883.02,-431.22 897.81,-431.22"/>
<polygon fill="midnightblue" stroke="midnightblue" points="897.88,-434.72 907.88,-431.22 897.88,-427.72 897.88,-434.72"/>
</g>
<!-- Node10&#45;&gt;Node9 -->
<g id="edge17" class="edge">
<title>Node10&#45;&gt;Node9</title>
<path fill="none" stroke="midnightblue" d="M811.52,-421.59C829.25,-411.79 855.39,-395.07 872,-374.22 921.54,-312.01 948.06,-218.61 957.71,-178.57"/>
<polygon fill="midnightblue" stroke="midnightblue" points="961.13,-179.29 959.98,-168.76 954.31,-177.71 961.13,-179.29"/>
</g>
<!-- Node11&#45;&gt;Node2 -->
<g id="edge21" class="edge">
<title>Node11&#45;&gt;Node2</title>
<path fill="none" stroke="midnightblue" d="M645.91,-402.28C655.81,-406.5 666.04,-411.51 675,-417.22 693.31,-428.88 690.77,-442.35 711,-450.22 782.63,-478.08 874.32,-458.69 924.68,-443.82"/>
<polygon fill="midnightblue" stroke="midnightblue" points="925.94,-447.1 934.49,-440.83 923.9,-440.4 925.94,-447.1"/>
</g>
<!-- Node11&#45;&gt;Node9 -->
<g id="edge22" class="edge">
<title>Node11&#45;&gt;Node9</title>
<path fill="none" stroke="midnightblue" d="M630.38,-372.14C651.91,-360.99 682.7,-346.09 711,-336.22 780.42,-312.01 811.91,-340.58 872,-298.22 915.51,-267.55 943.16,-208.52 955.14,-178.21"/>
<polygon fill="midnightblue" stroke="midnightblue" points="958.44,-179.37 958.72,-168.78 951.89,-176.88 958.44,-179.37"/>
</g>
<!-- Node11&#45;&gt;Node10 -->
<g id="edge23" class="edge">
<title>Node11&#45;&gt;Node10</title>
<path fill="none" stroke="midnightblue" d="M663.02,-401.38C687.81,-407.19 716.19,-413.83 739.86,-419.37"/>
<polygon fill="midnightblue" stroke="midnightblue" points="739.16,-422.8 749.69,-421.67 740.75,-415.98 739.16,-422.8"/>
</g>
<!-- Node12&#45;&gt;Node2 -->
<g id="edge25" class="edge">
<title>Node12&#45;&gt;Node2</title>
<path fill="none" stroke="midnightblue" d="M670.24,-186.35C729.28,-193.99 814.26,-212.98 872,-260.22 921.44,-300.67 947.12,-375.53 957.04,-411.25"/>
<polygon fill="midnightblue" stroke="midnightblue" points="953.77,-412.61 959.71,-421.38 960.54,-410.82 953.77,-412.61"/>
</g>
<!-- Node12&#45;&gt;Node9 -->
<g id="edge29" class="edge">
<title>Node12&#45;&gt;Node9</title>
<path fill="none" stroke="midnightblue" d="M629.13,-166.01C650.49,-154.73 681.65,-140.3 711,-134.22 781.07,-119.69 801.1,-124.55 872,-134.22 889.83,-136.65 909.11,-141.67 925.24,-146.58"/>
<polygon fill="midnightblue" stroke="midnightblue" points="924.24,-149.93 934.83,-149.6 926.34,-143.26 924.24,-149.93"/>
</g>
<!-- Node13 -->
<g id="node13" class="node">
<title>Node13</title>
<g id="a_node13"><a xlink:href="class_t_train_controller.html#a6fc210d266e7672ccc648c0a9ab4e542" target="_top" xlink:title="Checks the last two characters in HeadCode and returns true if both are digits.">
<polygon fill="white" stroke="black" points="711,-144.22 711,-174.22 872,-174.22 872,-144.22 711,-144.22"/>
<text text-anchor="start" x="719" y="-162.22" font-family="Helvetica,sans-Serif" font-size="10.00">TTrainController::Last2Characters</text>
<text text-anchor="middle" x="791.5" y="-151.22" font-family="Helvetica,sans-Serif" font-size="10.00">BothDigits</text>
</a>
</g>
</g>
<!-- Node12&#45;&gt;Node13 -->
<g id="edge26" class="edge">
<title>Node12&#45;&gt;Node13</title>
<path fill="none" stroke="midnightblue" d="M670.11,-173.31C679.98,-172.15 690.27,-170.95 700.5,-169.75"/>
<polygon fill="midnightblue" stroke="midnightblue" points="701.16,-173.2 710.68,-168.56 700.35,-166.24 701.16,-173.2"/>
</g>
<!-- Node13&#45;&gt;Node2 -->
<g id="edge27" class="edge">
<title>Node13&#45;&gt;Node2</title>
<path fill="none" stroke="midnightblue" d="M850.78,-174.41C858.58,-178.3 865.96,-183.15 872,-189.22 935.55,-253.07 954.79,-365.81 960.12,-411.33"/>
<polygon fill="midnightblue" stroke="midnightblue" points="956.65,-411.81 961.2,-421.38 963.61,-411.07 956.65,-411.81"/>
</g>
<!-- Node13&#45;&gt;Node9 -->
<g id="edge28" class="edge">
<title>Node13&#45;&gt;Node9</title>
<path fill="none" stroke="midnightblue" d="M872.29,-159.22C880.83,-159.22 889.45,-159.22 897.78,-159.22"/>
<polygon fill="midnightblue" stroke="midnightblue" points="897.78,-162.72 907.78,-159.22 897.78,-155.72 897.78,-162.72"/>
</g>
</g>
</svg>
        <g id="navigator" transform="translate(0 0)" fill="#404254">
                <rect fill="#f2f5e9" fill-opacity="0.5" stroke="#606060" stroke-width=".5" x="0" y="0" width="60" height="60"/>
                <use id="zoomplus" xlink:href="#zoomPlus" x="17" y="9" onmousedown="handleZoom(evt,'in')"/>
                <use id="zoomminus" xlink:href="#zoomMin" x="42" y="9" onmousedown="handleZoom(evt,'out')"/>
                <use id="reset" xlink:href="#resetDef" x="30" y="36" onmousedown="handleReset()"/>
                <g id="arrowUp" xlink:href="#dirArrow" transform="translate(30 24)" onmousedown="handlePan(0,-1)">
                  <use xlink:href="#rim" fill="#404040">
                        <set attributeName="fill" to="#808080" begin="arrowUp.mouseover" end="arrowUp.mouseout"/>
                  </use>
                  <path fill="none" stroke="white" stroke-width="1.5" d="M0,-3.0v7 M-2.5,-0.5L0,-3.0L2.5,-0.5"/>
                </g>
                <g id="arrowRight" xlink:href="#dirArrow" transform="rotate(90) translate(36 -43)" onmousedown="handlePan(1,0)">
                  <use xlink:href="#rim" fill="#404040">
                        <set attributeName="fill" to="#808080" begin="arrowRight.mouseover" end="arrowRight.mouseout"/>
                  </use>
                  <path fill="none" stroke="white" stroke-width="1.5" d="M0,-3.0v7 M-2.5,-0.5L0,-3.0L2.5,-0.5"/>
                </g>
                <g id="arrowDown" xlink:href="#dirArrow" transform="rotate(180) translate(-30 -48)" onmousedown="handlePan(0,1)">
                  <use xlink:href="#rim" fill="#404040">
                        <set attributeName="fill" to="#808080" begin="arrowDown.mouseover" end="arrowDown.mouseout"/>
                  </use>
                  <path fill="none" stroke="white" stroke-width="1.5" d="M0,-3.0v7 M-2.5,-0.5L0,-3.0L2.5,-0.5"/>
                </g>
                <g id="arrowLeft" xlink:href="#dirArrow" transform="rotate(270) translate(-36 17)" onmousedown="handlePan(-1,0)">
                  <use xlink:href="#rim" fill="#404040">
                        <set attributeName="fill" to="#808080" begin="arrowLeft.mouseover" end="arrowLeft.mouseout"/>
                  </use>
                  <path fill="none" stroke="white" stroke-width="1.5" d="M0,-3.0v7 M-2.5,-0.5L0,-3.0L2.5,-0.5"/>
                </g>
        </g>
        <svg viewBox="0 0 15 15" width="100%" height="30px" preserveAspectRatio="xMaxYMin meet">
         <g id="arrow_out" transform="scale(0.3 0.3)">
          <a xlink:href="class_t_interface_adc9ce6e5ee756279efbe92fd749355bf_cgraph_org.svg" target="_base">
           <rect id="button" ry="5" rx="5" y="6" x="6" height="38" width="38"
                fill="#f2f5e9" fill-opacity="0.5" stroke="#606060" stroke-width="1.0"/>
           <path id="arrow"
             d="M 11.500037,31.436501 C 11.940474,20.09759 22.043105,11.32322 32.158766,21.979434 L 37.068811,17.246167 C 37.068811,17.246167 37.088388,32 37.088388,32 L 22.160133,31.978069 C 22.160133,31.978069 26.997745,27.140456 26.997745,27.140456 C 18.528582,18.264221 13.291696,25.230495 11.500037,31.436501 z"
             style="fill:#404040;"/>
          </a>
         </g>
        </svg>
</svg>
