<?xml version="1.0" encoding="UTF-8" standalone="no"?>
<!DOCTYPE svg PUBLIC "-//W3C//DTD SVG 1.1//EN"
 "http://www.w3.org/Graphics/SVG/1.1/DTD/svg11.dtd">
<!-- Generated by graphviz version 2.44.1 (20200629.0800)
 -->
<!-- Title: TTrain::SetTrainMovementValues Pages: 1 -->
<!--zoomable 229 -->
<svg id="main" version="1.1" xmlns="http://www.w3.org/2000/svg" xmlns:xlink="http://www.w3.org/1999/xlink" xml:space="preserve" onload="init(evt)">
<style type="text/css"><![CDATA[
.edge:hover path { stroke: red; }
.edge:hover polygon { stroke: red; fill: red; }
]]></style>
<script type="text/javascript"><![CDATA[
var edges = document.getElementsByTagName('g');
if (edges && edges.length) {
  for (var i=0;i<edges.length;i++) {
    if (edges[i].id.substr(0,4)=='edge') {
      edges[i].setAttribute('class','edge');
    }
  }
}
]]></script>
        <defs>
                <circle id="rim" cx="0" cy="0" r="7"/>
                <circle id="rim2" cx="0" cy="0" r="3.5"/>
                <g id="zoomPlus">
                        <use xlink:href="#rim" fill="#404040">
                                <set attributeName="fill" to="#808080" begin="zoomplus.mouseover" end="zoomplus.mouseout"/>
                        </use>
                        <path d="M-4,0h8M0,-4v8" fill="none" stroke="white" stroke-width="1.5" pointer-events="none"/>
                </g>
                <g id="zoomMin">
                        <use xlink:href="#rim" fill="#404040">
                                <set attributeName="fill" to="#808080" begin="zoomminus.mouseover" end="zoomminus.mouseout"/>
                        </use>
                        <path d="M-4,0h8" fill="none" stroke="white" stroke-width="1.5" pointer-events="none"/>
                </g>
                <g id="dirArrow">
                        <path fill="none" stroke="white" stroke-width="1.5" d="M0,-3.0v7 M-2.5,-0.5L0,-3.0L2.5,-0.5"/>
                </g>
               <g id="resetDef">
                       <use xlink:href="#rim2" fill="#404040">
                               <set attributeName="fill" to="#808080" begin="reset.mouseover" end="reset.mouseout"/>
                       </use>
               </g>
        </defs>

<script type="text/javascript">
var viewWidth = 677;
var viewHeight = 229;
var sectionId = 'dynsection-98';
</script>
<script xlink:href="svgpan.js"/>
<svg id="graph" class="graph">
<g id="viewport">
<title>TTrain::SetTrainMovementValues</title>
<polygon fill="white" stroke="transparent" points="-4,4 -4,-224.91 673,-224.91 673,4 -4,4"/>
<!-- Node1 -->
<g id="node1" class="node">
<title>Node1</title>
<g id="a_node1"><a xlink:title="Calculates train speeds and times for the element that the train is about to enter....">
<polygon fill="#bfbfbf" stroke="black" points="0,-101.5 0,-131.5 129,-131.5 129,-101.5 0,-101.5"/>
<text text-anchor="start" x="8" y="-119.5" font-family="Helvetica,sans-Serif" font-size="10.00">TTrain::SetTrainMovement</text>
<text text-anchor="middle" x="64.5" y="-108.5" font-family="Helvetica,sans-Serif" font-size="10.00">Values</text>
</a>
</g>
</g>
<!-- Node2 -->
<g id="node2" class="node">
<title>Node2</title>
<g id="a_node2"><a xlink:href="class_t_utilities.html#ae1eddca13cc3c492839e131f40ec21c0" target="_top" xlink:title="pops the last entry off the call stack, throws an error if called when empty">
<polygon fill="white" stroke="black" points="559,-173 559,-192 669,-192 669,-173 559,-173"/>
<text text-anchor="middle" x="614" y="-180" font-family="Helvetica,sans-Serif" font-size="10.00">TUtilities::CallLogPop</text>
</a>
</g>
</g>
<!-- Node1&#45;&gt;Node2 -->
<g id="edge1" class="edge">
<title>Node1&#45;&gt;Node2</title>
<path fill="none" stroke="midnightblue" d="M79.28,-131.51C97.06,-149.72 129.91,-179.58 165,-192.5 303.77,-243.58 483.44,-213.3 566.78,-194.31"/>
<polygon fill="midnightblue" stroke="midnightblue" points="567.75,-197.68 576.69,-192 566.16,-190.86 567.75,-197.68"/>
</g>
<!-- Node3 -->
<g id="node3" class="node">
<title>Node3</title>
<g id="a_node3"><a xlink:href="class_t_track.html#aeb515d40cb9b08ed55ce877ffdbc51a5" target="_top" xlink:title="Return the corresponding link position (track always occupies either links 0 &amp; 1 or 2 &amp; 3)">
<polygon fill="white" stroke="black" points="165,-0.5 165,-30.5 317,-30.5 317,-0.5 165,-0.5"/>
<text text-anchor="start" x="173" y="-18.5" font-family="Helvetica,sans-Serif" font-size="10.00">TTrack::GetNonPointsOpposite</text>
<text text-anchor="middle" x="241" y="-7.5" font-family="Helvetica,sans-Serif" font-size="10.00">LinkPos</text>
</a>
</g>
</g>
<!-- Node1&#45;&gt;Node3 -->
<g id="edge2" class="edge">
<title>Node1&#45;&gt;Node3</title>
<path fill="none" stroke="midnightblue" d="M83.69,-101.48C103,-86.04 134.83,-61.99 165,-45.5 172.17,-41.58 179.97,-37.89 187.73,-34.53"/>
<polygon fill="midnightblue" stroke="midnightblue" points="189.26,-37.68 197.14,-30.6 186.56,-31.22 189.26,-37.68"/>
</g>
<!-- Node4 -->
<g id="node4" class="node">
<title>Node4</title>
<g id="a_node4"><a xlink:href="class_t_train.html#a7a54125a3a5052cb25e17014075a686b" target="_top" xlink:title="Returns the number by which the train ActionVectorEntryPtr needs to be incremented to point to the lo...">
<polygon fill="white" stroke="black" points="353,-88 353,-107 523,-107 523,-88 353,-88"/>
<text text-anchor="middle" x="438" y="-95" font-family="Helvetica,sans-Serif" font-size="10.00">TTrain::NameInTimetableBeforeCDT</text>
</a>
</g>
</g>
<!-- Node1&#45;&gt;Node4 -->
<g id="edge3" class="edge">
<title>Node1&#45;&gt;Node4</title>
<path fill="none" stroke="midnightblue" d="M129.36,-113.23C188.07,-110.23 275.85,-105.74 342.64,-102.33"/>
<polygon fill="midnightblue" stroke="midnightblue" points="342.95,-105.81 352.75,-101.81 342.59,-98.82 342.95,-105.81"/>
</g>
<!-- Node5 -->
<g id="node5" class="node">
<title>Node5</title>
<g id="a_node5"><a xlink:href="class_t_utilities.html#a34bd6bb5305bc29afdf424f6d35a921c" target="_top" xlink:title="creates a string of the form &#39;hh:mm:ss&#39; for use in call &amp; event logging">
<polygon fill="white" stroke="black" points="559,-107 559,-126 669,-126 669,-107 559,-107"/>
<text text-anchor="middle" x="614" y="-114" font-family="Helvetica,sans-Serif" font-size="10.00">TUtilities::TimeStamp</text>
</a>
</g>
</g>
<!-- Node1&#45;&gt;Node5 -->
<g id="edge12" class="edge">
<title>Node1&#45;&gt;Node5</title>
<path fill="none" stroke="midnightblue" d="M123.16,-101.43C210.51,-80.89 381.22,-49.8 523,-78.5 545.58,-83.07 569.54,-93.49 587.06,-102.27"/>
<polygon fill="midnightblue" stroke="midnightblue" points="585.58,-105.44 596.07,-106.92 588.79,-99.22 585.58,-105.44"/>
</g>
<!-- Node6 -->
<g id="node6" class="node">
<title>Node6</title>
<g id="a_node6"><a xlink:href="class_t_track.html#aeac90568597c9f13a27fa90c58f9041f" target="_top" xlink:title="True if another train on NextEntryPos track of element at NextPos, whether bridge or not,...">
<polygon fill="white" stroke="black" points="174,-164 174,-183 308,-183 308,-164 174,-164"/>
<text text-anchor="middle" x="241" y="-171" font-family="Helvetica,sans-Serif" font-size="10.00">TTrack::OtherTrainOnTrack</text>
</a>
</g>
</g>
<!-- Node1&#45;&gt;Node6 -->
<g id="edge6" class="edge">
<title>Node1&#45;&gt;Node6</title>
<path fill="none" stroke="midnightblue" d="M110.54,-131.55C127.59,-137.22 147.18,-143.69 165,-149.5 176.46,-153.23 188.92,-157.24 200.34,-160.89"/>
<polygon fill="midnightblue" stroke="midnightblue" points="199.46,-164.29 210.05,-164 201.59,-157.62 199.46,-164.29"/>
</g>
<!-- Node7 -->
<g id="node7" class="node">
<title>Node7</title>
<g id="a_node7"><a xlink:href="class_t_track.html#ad377e5a1f152f2e89832c0f9bcfd261f" target="_top" xlink:title="A range&#45;checked version of TrackVector.at(At)">
<polygon fill="white" stroke="black" points="377,-126 377,-145 499,-145 499,-126 377,-126"/>
<text text-anchor="middle" x="438" y="-133" font-family="Helvetica,sans-Serif" font-size="10.00">TTrack::TrackElementAt</text>
</a>
</g>
</g>
<!-- Node1&#45;&gt;Node7 -->
<g id="edge13" class="edge">
<title>Node1&#45;&gt;Node7</title>
<path fill="none" stroke="midnightblue" d="M129.36,-119.77C195.37,-123.14 298.14,-128.4 366.49,-131.89"/>
<polygon fill="midnightblue" stroke="midnightblue" points="366.57,-135.4 376.74,-132.42 366.93,-128.41 366.57,-135.4"/>
</g>
<!-- Node4&#45;&gt;Node2 -->
<g id="edge4" class="edge">
<title>Node4&#45;&gt;Node2</title>
<path fill="none" stroke="midnightblue" d="M496.07,-107.07C505.29,-109.56 514.56,-112.66 523,-116.5 550.58,-129.07 578.05,-150.91 595.26,-166.01"/>
<polygon fill="midnightblue" stroke="midnightblue" points="593.05,-168.74 602.83,-172.81 597.73,-163.53 593.05,-168.74"/>
</g>
<!-- Node4&#45;&gt;Node5 -->
<g id="edge5" class="edge">
<title>Node4&#45;&gt;Node5</title>
<path fill="none" stroke="midnightblue" d="M523.2,-106.69C531.83,-107.64 540.5,-108.58 548.87,-109.5"/>
<polygon fill="midnightblue" stroke="midnightblue" points="548.58,-112.99 558.9,-110.59 549.34,-106.03 548.58,-112.99"/>
</g>
<!-- Node6&#45;&gt;Node2 -->
<g id="edge7" class="edge">
<title>Node6&#45;&gt;Node2</title>
<path fill="none" stroke="midnightblue" d="M306.44,-183.02C321.67,-184.88 337.88,-186.55 353,-187.5 428.41,-192.24 447.47,-189.6 523,-187.5 531.32,-187.27 540.07,-186.92 548.71,-186.51"/>
<polygon fill="midnightblue" stroke="midnightblue" points="548.95,-190 558.77,-186 548.6,-183.01 548.95,-190"/>
</g>
<!-- Node6&#45;&gt;Node5 -->
<g id="edge8" class="edge">
<title>Node6&#45;&gt;Node5</title>
<path fill="none" stroke="midnightblue" d="M308.22,-175.16C365.75,-175.15 450.93,-171.64 523,-154.5 545.14,-149.23 568.79,-139.05 586.29,-130.55"/>
<polygon fill="midnightblue" stroke="midnightblue" points="587.94,-133.64 595.33,-126.04 584.82,-127.37 587.94,-133.64"/>
</g>
<!-- Node6&#45;&gt;Node7 -->
<g id="edge9" class="edge">
<title>Node6&#45;&gt;Node7</title>
<path fill="none" stroke="midnightblue" d="M290.96,-163.96C317.38,-158.81 350.19,-152.42 378.02,-146.99"/>
<polygon fill="midnightblue" stroke="midnightblue" points="378.88,-150.39 388.02,-145.04 377.54,-143.52 378.88,-150.39"/>
</g>
<!-- Node7&#45;&gt;Node2 -->
<g id="edge10" class="edge">
<title>Node7&#45;&gt;Node2</title>
<path fill="none" stroke="midnightblue" d="M474.21,-145.01C501.13,-152.28 538.44,-162.36 567.6,-170.24"/>
<polygon fill="midnightblue" stroke="midnightblue" points="566.98,-173.69 577.54,-172.92 568.8,-166.94 566.98,-173.69"/>
</g>
<!-- Node7&#45;&gt;Node5 -->
<g id="edge11" class="edge">
<title>Node7&#45;&gt;Node5</title>
<path fill="none" stroke="midnightblue" d="M499.37,-128.91C515.23,-127.18 532.4,-125.3 548.47,-123.55"/>
<polygon fill="midnightblue" stroke="midnightblue" points="549.29,-126.98 558.85,-122.41 548.53,-120.02 549.29,-126.98"/>
</g>
</g>
</svg>
        <g id="navigator" transform="translate(0 0)" fill="#404254">
                <rect fill="#f2f5e9" fill-opacity="0.5" stroke="#606060" stroke-width=".5" x="0" y="0" width="60" height="60"/>
                <use id="zoomplus" xlink:href="#zoomPlus" x="17" y="9" onmousedown="handleZoom(evt,'in')"/>
                <use id="zoomminus" xlink:href="#zoomMin" x="42" y="9" onmousedown="handleZoom(evt,'out')"/>
                <use id="reset" xlink:href="#resetDef" x="30" y="36" onmousedown="handleReset()"/>
                <g id="arrowUp" xlink:href="#dirArrow" transform="translate(30 24)" onmousedown="handlePan(0,-1)">
                  <use xlink:href="#rim" fill="#404040">
                        <set attributeName="fill" to="#808080" begin="arrowUp.mouseover" end="arrowUp.mouseout"/>
                  </use>
                  <path fill="none" stroke="white" stroke-width="1.5" d="M0,-3.0v7 M-2.5,-0.5L0,-3.0L2.5,-0.5"/>
                </g>
                <g id="arrowRight" xlink:href="#dirArrow" transform="rotate(90) translate(36 -43)" onmousedown="handlePan(1,0)">
                  <use xlink:href="#rim" fill="#404040">
                        <set attributeName="fill" to="#808080" begin="arrowRight.mouseover" end="arrowRight.mouseout"/>
                  </use>
                  <path fill="none" stroke="white" stroke-width="1.5" d="M0,-3.0v7 M-2.5,-0.5L0,-3.0L2.5,-0.5"/>
                </g>
                <g id="arrowDown" xlink:href="#dirArrow" transform="rotate(180) translate(-30 -48)" onmousedown="handlePan(0,1)">
                  <use xlink:href="#rim" fill="#404040">
                        <set attributeName="fill" to="#808080" begin="arrowDown.mouseover" end="arrowDown.mouseout"/>
                  </use>
                  <path fill="none" stroke="white" stroke-width="1.5" d="M0,-3.0v7 M-2.5,-0.5L0,-3.0L2.5,-0.5"/>
                </g>
                <g id="arrowLeft" xlink:href="#dirArrow" transform="rotate(270) translate(-36 17)" onmousedown="handlePan(-1,0)">
                  <use xlink:href="#rim" fill="#404040">
                        <set attributeName="fill" to="#808080" begin="arrowLeft.mouseover" end="arrowLeft.mouseout"/>
                  </use>
                  <path fill="none" stroke="white" stroke-width="1.5" d="M0,-3.0v7 M-2.5,-0.5L0,-3.0L2.5,-0.5"/>
                </g>
        </g>
        <svg viewBox="0 0 15 15" width="100%" height="30px" preserveAspectRatio="xMaxYMin meet">
         <g id="arrow_out" transform="scale(0.3 0.3)">
          <a xlink:href="class_t_train_aaa6289d279b229d05963f8b3a35d53e9_cgraph_org.svg" target="_base">
           <rect id="button" ry="5" rx="5" y="6" x="6" height="38" width="38"
                fill="#f2f5e9" fill-opacity="0.5" stroke="#606060" stroke-width="1.0"/>
           <path id="arrow"
             d="M 11.500037,31.436501 C 11.940474,20.09759 22.043105,11.32322 32.158766,21.979434 L 37.068811,17.246167 C 37.068811,17.246167 37.088388,32 37.088388,32 L 22.160133,31.978069 C 22.160133,31.978069 26.997745,27.140456 26.997745,27.140456 C 18.528582,18.264221 13.291696,25.230495 11.500037,31.436501 z"
             style="fill:#404040;"/>
          </a>
         </g>
        </svg>
</svg>
