<?xml version="1.0" encoding="UTF-8" standalone="no"?>
<!DOCTYPE svg PUBLIC "-//W3C//DTD SVG 1.1//EN"
 "http://www.w3.org/Graphics/SVG/1.1/DTD/svg11.dtd">
<!-- Generated by graphviz version 2.44.1 (20200629.0800)
 -->
<!-- Title: TTrainController::ControllerCheckNewServiceDepartureTime Pages: 1 -->
<svg width="689pt" height="149pt"
 viewBox="0.00 0.00 689.00 149.35" xmlns="http://www.w3.org/2000/svg" xmlns:xlink="http://www.w3.org/1999/xlink">
<g id="graph0" class="graph" transform="scale(1 1) rotate(0) translate(4 145.35)">
<title>TTrainController::ControllerCheckNewServiceDepartureTime</title>
<polygon fill="white" stroke="transparent" points="-4,4 -4,-145.35 685,-145.35 685,4 -4,4"/>
<!-- Node1 -->
<g id="node1" class="node">
<title>Node1</title>
<g id="a_node1"><a xlink:title="Similar to TTrain::CheckNewServiceDepartureTime for use in ContinuationEntryFloatingTTString.">
<polygon fill="#bfbfbf" stroke="black" points="0,-71 0,-101 158,-101 158,-71 0,-71"/>
<text text-anchor="start" x="8" y="-89" font-family="Helvetica,sans-Serif" font-size="10.00">TTrainController::Controller</text>
<text text-anchor="middle" x="79" y="-78" font-family="Helvetica,sans-Serif" font-size="10.00">CheckNewServiceDepartureTime</text>
</a>
</g>
</g>
<!-- Node2 -->
<g id="node2" class="node">
<title>Node2</title>
<g id="a_node2"><a xlink:href="class_t_utilities.html#ae1eddca13cc3c492839e131f40ec21c0" target="_top" xlink:title="pops the last entry off the call stack, throws an error if called when empty">
<polygon fill="white" stroke="black" points="571,-114.5 571,-133.5 681,-133.5 681,-114.5 571,-114.5"/>
<text text-anchor="middle" x="626" y="-121.5" font-family="Helvetica,sans-Serif" font-size="10.00">TUtilities::CallLogPop</text>
</a>
</g>
</g>
<!-- Node1&#45;&gt;Node2 -->
<g id="edge1" class="edge">
<title>Node1&#45;&gt;Node2</title>
<path fill="none" stroke="midnightblue" d="M112.61,-101.08C134.97,-110.58 165.63,-121.97 194,-127 322.51,-149.77 475.96,-140.12 560.73,-131.66"/>
<polygon fill="midnightblue" stroke="midnightblue" points="561.13,-135.14 570.72,-130.63 560.41,-128.17 561.13,-135.14"/>
</g>
<!-- Node3 -->
<g id="node3" class="node">
<title>Node3</title>
<g id="a_node3"><a xlink:href="class_t_utilities.html#a6dc0e83b149563fdf43f068fd26cead8" target="_top" xlink:title="formats a TDateTime into an AnsiString of the form hh:mm where hh runs from 00 to 95 &amp; resets when it...">
<polygon fill="white" stroke="black" points="202,-98.5 202,-117.5 333,-117.5 333,-98.5 202,-98.5"/>
<text text-anchor="middle" x="267.5" y="-105.5" font-family="Helvetica,sans-Serif" font-size="10.00">TUtilities::Format96HHMM</text>
</a>
</g>
</g>
<!-- Node1&#45;&gt;Node3 -->
<g id="edge2" class="edge">
<title>Node1&#45;&gt;Node3</title>
<path fill="none" stroke="midnightblue" d="M158.01,-95.2C169.17,-96.52 180.63,-97.87 191.72,-99.18"/>
<polygon fill="midnightblue" stroke="midnightblue" points="191.45,-102.67 201.79,-100.37 192.27,-95.72 191.45,-102.67"/>
</g>
<!-- Node4 -->
<g id="node4" class="node">
<title>Node4</title>
<g id="a_node4"><a xlink:href="class_t_train_controller.html#a2713e7d4bb329d65df8b3fa0ad59b6cf" target="_top" xlink:title="Get the interval between repeats.">
<polygon fill="white" stroke="black" points="194,-49 194,-79 341,-79 341,-49 194,-49"/>
<text text-anchor="start" x="202" y="-67" font-family="Helvetica,sans-Serif" font-size="10.00">TTrainController::GetController</text>
<text text-anchor="middle" x="267.5" y="-56" font-family="Helvetica,sans-Serif" font-size="10.00">TrainTime</text>
</a>
</g>
</g>
<!-- Node1&#45;&gt;Node4 -->
<g id="edge3" class="edge">
<title>Node1&#45;&gt;Node4</title>
<path fill="none" stroke="midnightblue" d="M158.01,-76.8C166.55,-75.79 175.26,-74.76 183.85,-73.75"/>
<polygon fill="midnightblue" stroke="midnightblue" points="184.34,-77.22 193.86,-72.57 183.52,-70.26 184.34,-77.22"/>
</g>
<!-- Node7 -->
<g id="node7" class="node">
<title>Node7</title>
<g id="a_node7"><a xlink:href="class_t_utilities.html#a34bd6bb5305bc29afdf424f6d35a921c" target="_top" xlink:title="creates a string of the form &#39;hh:mm:ss&#39; for use in call &amp; event logging">
<polygon fill="white" stroke="black" points="571,-0.5 571,-19.5 681,-19.5 681,-0.5 571,-0.5"/>
<text text-anchor="middle" x="626" y="-7.5" font-family="Helvetica,sans-Serif" font-size="10.00">TUtilities::TimeStamp</text>
</a>
</g>
</g>
<!-- Node1&#45;&gt;Node7 -->
<g id="edge10" class="edge">
<title>Node1&#45;&gt;Node7</title>
<path fill="none" stroke="midnightblue" d="M111.25,-70.84C133.78,-60.48 165.17,-47.19 194,-39 320.17,-3.16 475.1,-2.76 560.62,-6.1"/>
<polygon fill="midnightblue" stroke="midnightblue" points="560.55,-9.6 570.69,-6.52 560.85,-2.6 560.55,-9.6"/>
</g>
<!-- Node4&#45;&gt;Node2 -->
<g id="edge4" class="edge">
<title>Node4&#45;&gt;Node2</title>
<path fill="none" stroke="midnightblue" d="M313.97,-79.01C322.98,-82.17 332.33,-85.59 341,-89 357.29,-95.42 360.02,-100.71 377,-105 438.1,-120.43 510.14,-124.44 560.78,-125.04"/>
<polygon fill="midnightblue" stroke="midnightblue" points="560.91,-128.54 570.94,-125.12 560.96,-121.54 560.91,-128.54"/>
</g>
<!-- Node5 -->
<g id="node5" class="node">
<title>Node5</title>
<g id="a_node5"><a xlink:href="class_t_utilities.html#a2dfbe3d4ed11770bc1a902b51afdc10c" target="_top" xlink:title="formats a TDateTime into an AnsiString of the form hh:mm:ss where hh runs from 00 to 95 &amp; resets when...">
<polygon fill="white" stroke="black" points="383.5,-76.5 383.5,-95.5 528.5,-95.5 528.5,-76.5 383.5,-76.5"/>
<text text-anchor="middle" x="456" y="-83.5" font-family="Helvetica,sans-Serif" font-size="10.00">TUtilities::Format96HHMMSS</text>
</a>
</g>
</g>
<!-- Node4&#45;&gt;Node5 -->
<g id="edge5" class="edge">
<title>Node4&#45;&gt;Node5</title>
<path fill="none" stroke="midnightblue" d="M341.14,-72.57C351.68,-73.81 362.59,-75.1 373.3,-76.36"/>
<polygon fill="midnightblue" stroke="midnightblue" points="373.14,-79.87 383.48,-77.56 373.96,-72.92 373.14,-79.87"/>
</g>
<!-- Node6 -->
<g id="node6" class="node">
<title>Node6</title>
<g id="a_node6"><a xlink:href="class_t_train_controller.html#a435ef46f062904e85ae9792faaecdcf7" target="_top" xlink:title="Return the repeating service time.">
<polygon fill="white" stroke="black" points="377,-38.5 377,-57.5 535,-57.5 535,-38.5 377,-38.5"/>
<text text-anchor="middle" x="456" y="-45.5" font-family="Helvetica,sans-Serif" font-size="10.00">TTrainController::GetRepeatTime</text>
</a>
</g>
</g>
<!-- Node4&#45;&gt;Node6 -->
<g id="edge6" class="edge">
<title>Node4&#45;&gt;Node6</title>
<path fill="none" stroke="midnightblue" d="M341.14,-57.77C349.52,-57.05 358.13,-56.31 366.69,-55.58"/>
<polygon fill="midnightblue" stroke="midnightblue" points="367.03,-59.06 376.7,-54.72 366.43,-52.09 367.03,-59.06"/>
</g>
<!-- Node4&#45;&gt;Node7 -->
<g id="edge9" class="edge">
<title>Node4&#45;&gt;Node7</title>
<path fill="none" stroke="midnightblue" d="M307.59,-48.92C327.98,-41.69 353.5,-33.62 377,-29 438.64,-16.87 510.31,-12.39 560.71,-10.79"/>
<polygon fill="midnightblue" stroke="midnightblue" points="560.91,-14.28 570.81,-10.49 560.71,-7.28 560.91,-14.28"/>
</g>
<!-- Node6&#45;&gt;Node2 -->
<g id="edge7" class="edge">
<title>Node6&#45;&gt;Node2</title>
<path fill="none" stroke="midnightblue" d="M506.89,-57.58C516.4,-60.13 526.15,-63.24 535,-67 560.37,-77.78 586.7,-95.32 604.28,-108.1"/>
<polygon fill="midnightblue" stroke="midnightblue" points="602.5,-111.15 612.62,-114.29 606.67,-105.52 602.5,-111.15"/>
</g>
<!-- Node6&#45;&gt;Node7 -->
<g id="edge8" class="edge">
<title>Node6&#45;&gt;Node7</title>
<path fill="none" stroke="midnightblue" d="M499.39,-38.41C521.76,-33.35 549.4,-27.1 573.05,-21.75"/>
<polygon fill="midnightblue" stroke="midnightblue" points="573.93,-25.14 582.91,-19.52 572.39,-18.31 573.93,-25.14"/>
</g>
</g>
</svg>
