<?xml version="1.0" encoding="UTF-8" standalone="no"?>
<!DOCTYPE svg PUBLIC "-//W3C//DTD SVG 1.1//EN"
 "http://www.w3.org/Graphics/SVG/1.1/DTD/svg11.dtd">
<!-- Generated by graphviz version 2.44.1 (20200629.0800)
 -->
<!-- Title: TInterface::BypassPDCrossoverMismatch Pages: 1 -->
<svg width="504pt" height="113pt"
 viewBox="0.00 0.00 504.00 112.88" xmlns="http://www.w3.org/2000/svg" xmlns:xlink="http://www.w3.org/1999/xlink">
<g id="graph0" class="graph" transform="scale(1 1) rotate(0) translate(4 108.88)">
<title>TInterface::BypassPDCrossoverMismatch</title>
<polygon fill="white" stroke="transparent" points="-4,4 -4,-108.88 500,-108.88 500,4 -4,4"/>
<!-- Node1 -->
<g id="node1" class="node">
<title>Node1</title>
<g id="a_node1"><a xlink:title="Check for bidir crossover between two single PD lines. Used in PD check function.">
<polygon fill="#bfbfbf" stroke="black" points="0,-33.74 0,-63.74 154,-63.74 154,-33.74 0,-33.74"/>
<text text-anchor="start" x="8" y="-51.74" font-family="Helvetica,sans-Serif" font-size="10.00">TInterface::BypassPDCrossover</text>
<text text-anchor="middle" x="77" y="-40.74" font-family="Helvetica,sans-Serif" font-size="10.00">Mismatch</text>
</a>
</g>
</g>
<!-- Node2 -->
<g id="node2" class="node">
<title>Node2</title>
<g id="a_node2"><a xlink:href="class_t_utilities.html#ae1eddca13cc3c492839e131f40ec21c0" target="_top" xlink:title="pops the last entry off the call stack, throws an error if called when empty">
<polygon fill="white" stroke="black" points="386,-61.24 386,-80.24 496,-80.24 496,-61.24 386,-61.24"/>
<text text-anchor="middle" x="441" y="-68.24" font-family="Helvetica,sans-Serif" font-size="10.00">TUtilities::CallLogPop</text>
</a>
</g>
</g>
<!-- Node1&#45;&gt;Node2 -->
<g id="edge1" class="edge">
<title>Node1&#45;&gt;Node2</title>
<path fill="none" stroke="midnightblue" d="M105.55,-63.95C127.63,-75.23 159.82,-89.66 190,-95.74 259.71,-109.77 279.54,-105.34 350,-95.74 367.83,-93.31 387.11,-88.29 403.24,-83.38"/>
<polygon fill="midnightblue" stroke="midnightblue" points="404.34,-86.7 412.83,-80.36 402.24,-80.02 404.34,-86.7"/>
</g>
<!-- Node3 -->
<g id="node3" class="node">
<title>Node3</title>
<g id="a_node3"><a xlink:href="class_t_one_pref_dir.html#a820f6cc109de519289e6a63dac835ebc" target="_top" xlink:title="Return up to 4 vector positions for a given HLoc &amp; VLoc; unused values return &#45;1.">
<polygon fill="white" stroke="black" points="190,-55.74 190,-85.74 350,-85.74 350,-55.74 190,-55.74"/>
<text text-anchor="start" x="198" y="-73.74" font-family="Helvetica,sans-Serif" font-size="10.00">TOnePrefDir::GetVectorPositions</text>
<text text-anchor="middle" x="270" y="-62.74" font-family="Helvetica,sans-Serif" font-size="10.00">FromPrefDir4MultiMap</text>
</a>
</g>
</g>
<!-- Node1&#45;&gt;Node3 -->
<g id="edge2" class="edge">
<title>Node1&#45;&gt;Node3</title>
<path fill="none" stroke="midnightblue" d="M154.04,-57.5C162.49,-58.47 171.15,-59.47 179.74,-60.46"/>
<polygon fill="midnightblue" stroke="midnightblue" points="179.45,-63.95 189.78,-61.61 180.25,-56.99 179.45,-63.95"/>
</g>
<!-- Node4 -->
<g id="node4" class="node">
<title>Node4</title>
<g id="a_node4"><a xlink:href="class_t_utilities.html#a34bd6bb5305bc29afdf424f6d35a921c" target="_top" xlink:title="creates a string of the form &#39;hh:mm:ss&#39; for use in call &amp; event logging">
<polygon fill="white" stroke="black" points="386,-17.24 386,-36.24 496,-36.24 496,-17.24 386,-17.24"/>
<text text-anchor="middle" x="441" y="-24.24" font-family="Helvetica,sans-Serif" font-size="10.00">TUtilities::TimeStamp</text>
</a>
</g>
</g>
<!-- Node1&#45;&gt;Node4 -->
<g id="edge5" class="edge">
<title>Node1&#45;&gt;Node4</title>
<path fill="none" stroke="midnightblue" d="M110,-33.61C131.96,-24.08 162.07,-12.69 190,-7.74 260.02,4.67 279.27,-0.35 350,-7.74 364.31,-9.23 379.7,-12.03 393.64,-15.03"/>
<polygon fill="midnightblue" stroke="midnightblue" points="392.97,-18.46 403.49,-17.23 394.5,-11.63 392.97,-18.46"/>
</g>
<!-- Node5 -->
<g id="node5" class="node">
<title>Node5</title>
<g id="a_node5"><a xlink:href="class_t_track.html#ad377e5a1f152f2e89832c0f9bcfd261f" target="_top" xlink:title="A range&#45;checked version of TrackVector.at(At)">
<polygon fill="white" stroke="black" points="209,-17.24 209,-36.24 331,-36.24 331,-17.24 209,-17.24"/>
<text text-anchor="middle" x="270" y="-24.24" font-family="Helvetica,sans-Serif" font-size="10.00">TTrack::TrackElementAt</text>
</a>
</g>
</g>
<!-- Node1&#45;&gt;Node5 -->
<g id="edge6" class="edge">
<title>Node1&#45;&gt;Node5</title>
<path fill="none" stroke="midnightblue" d="M154.04,-39.98C168.83,-38.28 184.27,-36.5 198.86,-34.82"/>
<polygon fill="midnightblue" stroke="midnightblue" points="199.28,-38.29 208.81,-33.67 198.47,-31.34 199.28,-38.29"/>
</g>
<!-- Node3&#45;&gt;Node2 -->
<g id="edge3" class="edge">
<title>Node3&#45;&gt;Node2</title>
<path fill="none" stroke="midnightblue" d="M350.06,-70.74C358.61,-70.74 367.23,-70.74 375.58,-70.74"/>
<polygon fill="midnightblue" stroke="midnightblue" points="375.6,-74.24 385.6,-70.74 375.6,-67.24 375.6,-74.24"/>
</g>
<!-- Node3&#45;&gt;Node4 -->
<g id="edge4" class="edge">
<title>Node3&#45;&gt;Node4</title>
<path fill="none" stroke="midnightblue" d="M328.69,-55.72C349.87,-50.2 373.57,-44.03 393.63,-38.81"/>
<polygon fill="midnightblue" stroke="midnightblue" points="394.67,-42.16 403.46,-36.25 392.9,-35.38 394.67,-42.16"/>
</g>
<!-- Node5&#45;&gt;Node2 -->
<g id="edge7" class="edge">
<title>Node5&#45;&gt;Node2</title>
<path fill="none" stroke="midnightblue" d="M312.07,-36.33C324.3,-39.26 337.71,-42.55 350,-45.74 365.31,-49.7 382.01,-54.27 396.82,-58.42"/>
<polygon fill="midnightblue" stroke="midnightblue" points="396.16,-61.87 406.74,-61.2 398.06,-55.13 396.16,-61.87"/>
</g>
<!-- Node5&#45;&gt;Node4 -->
<g id="edge8" class="edge">
<title>Node5&#45;&gt;Node4</title>
<path fill="none" stroke="midnightblue" d="M331.06,-26.74C345.41,-26.74 360.79,-26.74 375.34,-26.74"/>
<polygon fill="midnightblue" stroke="midnightblue" points="375.76,-30.24 385.76,-26.74 375.76,-23.24 375.76,-30.24"/>
</g>
</g>
</svg>
