<?xml version="1.0" encoding="UTF-8" standalone="no"?>
<!DOCTYPE svg PUBLIC "-//W3C//DTD SVG 1.1//EN"
 "http://www.w3.org/Graphics/SVG/1.1/DTD/svg11.dtd">
<!-- Generated by graphviz version 2.44.1 (20200629.0800)
 -->
<!-- Title: TTrack::IsNamedNonStationLocationPresent Pages: 1 -->
<svg width="482pt" height="113pt"
 viewBox="0.00 0.00 482.00 113.01" xmlns="http://www.w3.org/2000/svg" xmlns:xlink="http://www.w3.org/1999/xlink">
<g id="graph0" class="graph" transform="scale(1 1) rotate(0) translate(4 109.01)">
<title>TTrack::IsNamedNonStationLocationPresent</title>
<polygon fill="white" stroke="transparent" points="-4,4 -4,-109.01 478,-109.01 478,4 -4,4"/>
<!-- Node1 -->
<g id="node1" class="node">
<title>Node1</title>
<g id="a_node1"><a xlink:title="True if a non&#45;station named location at HLoc &amp; VLoc.">
<polygon fill="#bfbfbf" stroke="black" points="0,-33.81 0,-63.81 138,-63.81 138,-33.81 0,-33.81"/>
<text text-anchor="start" x="8" y="-51.81" font-family="Helvetica,sans-Serif" font-size="10.00">TTrack::IsNamedNonStation</text>
<text text-anchor="middle" x="69" y="-40.81" font-family="Helvetica,sans-Serif" font-size="10.00">LocationPresent</text>
</a>
</g>
</g>
<!-- Node2 -->
<g id="node2" class="node">
<title>Node2</title>
<g id="a_node2"><a xlink:href="class_t_utilities.html#ae1eddca13cc3c492839e131f40ec21c0" target="_top" xlink:title="pops the last entry off the call stack, throws an error if called when empty">
<polygon fill="white" stroke="black" points="364,-61.31 364,-80.31 474,-80.31 474,-61.31 364,-61.31"/>
<text text-anchor="middle" x="419" y="-68.31" font-family="Helvetica,sans-Serif" font-size="10.00">TUtilities::CallLogPop</text>
</a>
</g>
</g>
<!-- Node1&#45;&gt;Node2 -->
<g id="edge1" class="edge">
<title>Node1&#45;&gt;Node2</title>
<path fill="none" stroke="midnightblue" d="M95.44,-64.01C115.87,-75.29 145.72,-89.72 174,-95.81 240.91,-110.23 260.18,-105.05 328,-95.81 345.83,-93.38 365.11,-88.36 381.24,-83.45"/>
<polygon fill="midnightblue" stroke="midnightblue" points="382.34,-86.77 390.83,-80.43 380.24,-80.1 382.34,-86.77"/>
</g>
<!-- Node3 -->
<g id="node3" class="node">
<title>Node3</title>
<g id="a_node3"><a xlink:href="class_t_track.html#a418966e6fefb71b9d0c9b941197832da" target="_top" xlink:title="Similar to GetVectorPositionFromTrackMap but for inactive elements, a pair is returned because there ...">
<polygon fill="white" stroke="black" points="182.5,-55.81 182.5,-85.81 319.5,-85.81 319.5,-55.81 182.5,-55.81"/>
<text text-anchor="start" x="190.5" y="-73.81" font-family="Helvetica,sans-Serif" font-size="10.00">TTrack::GetVectorPositions</text>
<text text-anchor="middle" x="251" y="-62.81" font-family="Helvetica,sans-Serif" font-size="10.00">FromInactiveTrackMap</text>
</a>
</g>
</g>
<!-- Node1&#45;&gt;Node3 -->
<g id="edge2" class="edge">
<title>Node1&#45;&gt;Node3</title>
<path fill="none" stroke="midnightblue" d="M138.05,-57.13C149.29,-58.5 161.02,-59.94 172.47,-61.34"/>
<polygon fill="midnightblue" stroke="midnightblue" points="172.1,-64.82 182.45,-62.55 172.95,-57.87 172.1,-64.82"/>
</g>
<!-- Node4 -->
<g id="node4" class="node">
<title>Node4</title>
<g id="a_node4"><a xlink:href="class_t_utilities.html#a34bd6bb5305bc29afdf424f6d35a921c" target="_top" xlink:title="creates a string of the form &#39;hh:mm:ss&#39; for use in call &amp; event logging">
<polygon fill="white" stroke="black" points="364,-17.31 364,-36.31 474,-36.31 474,-17.31 364,-17.31"/>
<text text-anchor="middle" x="419" y="-24.31" font-family="Helvetica,sans-Serif" font-size="10.00">TUtilities::TimeStamp</text>
</a>
</g>
</g>
<!-- Node1&#45;&gt;Node4 -->
<g id="edge8" class="edge">
<title>Node1&#45;&gt;Node4</title>
<path fill="none" stroke="midnightblue" d="M99.59,-33.69C119.93,-24.17 147.88,-12.77 174,-7.81 241.24,4.97 259.93,-0.7 328,-7.81 342.31,-9.3 357.7,-12.1 371.64,-15.1"/>
<polygon fill="midnightblue" stroke="midnightblue" points="370.97,-18.54 381.49,-17.3 372.5,-11.7 370.97,-18.54"/>
</g>
<!-- Node5 -->
<g id="node5" class="node">
<title>Node5</title>
<g id="a_node5"><a xlink:href="class_t_track.html#a51f89cf70e94b037f6378cd78003d82b" target="_top" xlink:title="A range&#45;checked version of InactiveTrackElement.at(At)">
<polygon fill="white" stroke="black" points="174,-17.31 174,-36.31 328,-36.31 328,-17.31 174,-17.31"/>
<text text-anchor="middle" x="251" y="-24.31" font-family="Helvetica,sans-Serif" font-size="10.00">TTrack::InactiveTrackElementAt</text>
</a>
</g>
</g>
<!-- Node1&#45;&gt;Node5 -->
<g id="edge5" class="edge">
<title>Node1&#45;&gt;Node5</title>
<path fill="none" stroke="midnightblue" d="M138.05,-40.49C146.42,-39.47 155.06,-38.41 163.66,-37.36"/>
<polygon fill="midnightblue" stroke="midnightblue" points="164.21,-40.82 173.71,-36.13 163.36,-33.87 164.21,-40.82"/>
</g>
<!-- Node3&#45;&gt;Node2 -->
<g id="edge3" class="edge">
<title>Node3&#45;&gt;Node2</title>
<path fill="none" stroke="midnightblue" d="M319.52,-70.81C330.79,-70.81 342.45,-70.81 353.64,-70.81"/>
<polygon fill="midnightblue" stroke="midnightblue" points="353.76,-74.31 363.76,-70.81 353.76,-67.31 353.76,-74.31"/>
</g>
<!-- Node3&#45;&gt;Node4 -->
<g id="edge4" class="edge">
<title>Node3&#45;&gt;Node4</title>
<path fill="none" stroke="midnightblue" d="M308.66,-55.79C329.3,-50.32 352.36,-44.21 371.96,-39.01"/>
<polygon fill="midnightblue" stroke="midnightblue" points="373.09,-42.33 381.86,-36.39 371.3,-35.57 373.09,-42.33"/>
</g>
<!-- Node5&#45;&gt;Node2 -->
<g id="edge6" class="edge">
<title>Node5&#45;&gt;Node2</title>
<path fill="none" stroke="midnightblue" d="M291.1,-36.38C302.97,-39.34 316.03,-42.65 328,-45.81 343.16,-49.81 359.71,-54.36 374.43,-58.46"/>
<polygon fill="midnightblue" stroke="midnightblue" points="373.72,-61.9 384.29,-61.22 375.61,-55.16 373.72,-61.9"/>
</g>
<!-- Node5&#45;&gt;Node4 -->
<g id="edge7" class="edge">
<title>Node5&#45;&gt;Node4</title>
<path fill="none" stroke="midnightblue" d="M328.2,-26.81C336.59,-26.81 345.07,-26.81 353.3,-26.81"/>
<polygon fill="midnightblue" stroke="midnightblue" points="353.57,-30.31 363.57,-26.81 353.57,-23.31 353.57,-30.31"/>
</g>
</g>
</svg>
