<?xml version="1.0" encoding="UTF-8" standalone="no"?>
<!DOCTYPE svg PUBLIC "-//W3C//DTD SVG 1.1//EN"
 "http://www.w3.org/Graphics/SVG/1.1/DTD/svg11.dtd">
<!-- Generated by graphviz version 2.44.1 (20200629.0800)
 -->
<!-- Title: TTrack::AddName Pages: 1 -->
<!--zoomable 394 -->
<svg id="main" version="1.1" xmlns="http://www.w3.org/2000/svg" xmlns:xlink="http://www.w3.org/1999/xlink" xml:space="preserve" onload="init(evt)">
<style type="text/css"><![CDATA[
.edge:hover path { stroke: red; }
.edge:hover polygon { stroke: red; fill: red; }
]]></style>
<script type="text/javascript"><![CDATA[
var edges = document.getElementsByTagName('g');
if (edges && edges.length) {
  for (var i=0;i<edges.length;i++) {
    if (edges[i].id.substr(0,4)=='edge') {
      edges[i].setAttribute('class','edge');
    }
  }
}
]]></script>
        <defs>
                <circle id="rim" cx="0" cy="0" r="7"/>
                <circle id="rim2" cx="0" cy="0" r="3.5"/>
                <g id="zoomPlus">
                        <use xlink:href="#rim" fill="#404040">
                                <set attributeName="fill" to="#808080" begin="zoomplus.mouseover" end="zoomplus.mouseout"/>
                        </use>
                        <path d="M-4,0h8M0,-4v8" fill="none" stroke="white" stroke-width="1.5" pointer-events="none"/>
                </g>
                <g id="zoomMin">
                        <use xlink:href="#rim" fill="#404040">
                                <set attributeName="fill" to="#808080" begin="zoomminus.mouseover" end="zoomminus.mouseout"/>
                        </use>
                        <path d="M-4,0h8" fill="none" stroke="white" stroke-width="1.5" pointer-events="none"/>
                </g>
                <g id="dirArrow">
                        <path fill="none" stroke="white" stroke-width="1.5" d="M0,-3.0v7 M-2.5,-0.5L0,-3.0L2.5,-0.5"/>
                </g>
               <g id="resetDef">
                       <use xlink:href="#rim2" fill="#404040">
                               <set attributeName="fill" to="#808080" begin="reset.mouseover" end="reset.mouseout"/>
                       </use>
               </g>
        </defs>

<script type="text/javascript">
var viewWidth = 617;
var viewHeight = 394;
var sectionId = 'dynsection-4';
</script>
<script xlink:href="svgpan.js"/>
<svg id="graph" class="graph">
<g id="viewport">
<title>TTrack::AddName</title>
<polygon fill="white" stroke="transparent" points="-4,4 -4,-389.8 613,-389.8 613,4 -4,4"/>
<!-- Node1 -->
<g id="node1" class="node">
<title>Node1</title>
<g id="a_node1"><a xlink:title="TrackElement.LocationName becomes &#39;Name&#39; (for active and inactive elements) and, if TrackElement is a...">
<polygon fill="#bfbfbf" stroke="black" points="0,-174.03 0,-193.03 95,-193.03 95,-174.03 0,-174.03"/>
<text text-anchor="middle" x="47.5" y="-181.03" font-family="Helvetica,sans-Serif" font-size="10.00">TTrack::AddName</text>
</a>
</g>
</g>
<!-- Node2 -->
<g id="node2" class="node">
<title>Node2</title>
<g id="a_node2"><a xlink:href="class_t_utilities.html#ae1eddca13cc3c492839e131f40ec21c0" target="_top" xlink:title="pops the last entry off the call stack, throws an error if called when empty">
<polygon fill="white" stroke="black" points="499,-218.03 499,-237.03 609,-237.03 609,-218.03 499,-218.03"/>
<text text-anchor="middle" x="554" y="-225.03" font-family="Helvetica,sans-Serif" font-size="10.00">TUtilities::CallLogPop</text>
</a>
</g>
</g>
<!-- Node1&#45;&gt;Node2 -->
<g id="edge1" class="edge">
<title>Node1&#45;&gt;Node2</title>
<path fill="none" stroke="midnightblue" d="M53.61,-193.23C64.94,-213.93 94.12,-262.85 131,-291.53 198.9,-344.34 224.72,-350.29 309,-367.53 376.06,-381.25 402.93,-400.33 463,-367.53 510.39,-341.66 536.55,-278.95 547.22,-246.98"/>
<polygon fill="midnightblue" stroke="midnightblue" points="550.57,-248 550.26,-237.41 543.9,-245.89 550.57,-248"/>
</g>
<!-- Node3 -->
<g id="node3" class="node">
<title>Node3</title>
<g id="a_node3"><a xlink:href="class_t_track.html#aa081ea276995a63dfa00fc0ace24f5c5" target="_top" xlink:title="Changes the LocationName in the name multimap to NewName at the location pointed to by the TLocationN...">
<polygon fill="white" stroke="black" points="312.5,-327.53 312.5,-357.53 459.5,-357.53 459.5,-327.53 312.5,-327.53"/>
<text text-anchor="start" x="320.5" y="-345.53" font-family="Helvetica,sans-Serif" font-size="10.00">TTrack::ChangeLocationName</text>
<text text-anchor="middle" x="386" y="-334.53" font-family="Helvetica,sans-Serif" font-size="10.00">MultiMapEntry</text>
</a>
</g>
</g>
<!-- Node1&#45;&gt;Node3 -->
<g id="edge2" class="edge">
<title>Node1&#45;&gt;Node3</title>
<path fill="none" stroke="midnightblue" d="M58.76,-193.04C73.72,-206.55 102.84,-231.42 131,-247.53 191.59,-282.19 267.2,-308.57 320.11,-324.64"/>
<polygon fill="midnightblue" stroke="midnightblue" points="319.13,-328 329.71,-327.51 321.14,-321.29 319.13,-328"/>
</g>
<!-- Node4 -->
<g id="node4" class="node">
<title>Node4</title>
<g id="a_node4"><a xlink:href="class_t_utilities.html#a34bd6bb5305bc29afdf424f6d35a921c" target="_top" xlink:title="creates a string of the form &#39;hh:mm:ss&#39; for use in call &amp; event logging">
<polygon fill="white" stroke="black" points="499,-133.03 499,-152.03 609,-152.03 609,-133.03 499,-133.03"/>
<text text-anchor="middle" x="554" y="-140.03" font-family="Helvetica,sans-Serif" font-size="10.00">TUtilities::TimeStamp</text>
</a>
</g>
</g>
<!-- Node1&#45;&gt;Node4 -->
<g id="edge24" class="edge">
<title>Node1&#45;&gt;Node4</title>
<path fill="none" stroke="midnightblue" d="M52.18,-173.84C61.53,-150.59 88.51,-91.35 131,-61.53 197.79,-14.66 228.02,-26.61 309,-16.53 376.92,-8.08 402.14,14.79 463,-16.53 506.85,-39.1 534.08,-94.03 545.98,-123.35"/>
<polygon fill="midnightblue" stroke="midnightblue" points="542.8,-124.83 549.68,-132.89 549.33,-122.3 542.8,-124.83"/>
</g>
<!-- Node5 -->
<g id="node5" class="node">
<title>Node5</title>
<g id="a_node5"><a xlink:href="class_t_track.html#aaf3f48b8df9877499aaf4c05f804426c" target="_top" xlink:title="Validity test.">
<polygon fill="white" stroke="black" points="131,-168.53 131,-198.53 273,-198.53 273,-168.53 131,-168.53"/>
<text text-anchor="start" x="139" y="-186.53" font-family="Helvetica,sans-Serif" font-size="10.00">TTrack::CheckLocationName</text>
<text text-anchor="middle" x="202" y="-175.53" font-family="Helvetica,sans-Serif" font-size="10.00">MultiMap</text>
</a>
</g>
</g>
<!-- Node1&#45;&gt;Node5 -->
<g id="edge5" class="edge">
<title>Node1&#45;&gt;Node5</title>
<path fill="none" stroke="midnightblue" d="M95.08,-183.53C103.21,-183.53 111.86,-183.53 120.59,-183.53"/>
<polygon fill="midnightblue" stroke="midnightblue" points="120.84,-187.03 130.84,-183.53 120.84,-180.03 120.84,-187.03"/>
</g>
<!-- Node6 -->
<g id="node6" class="node">
<title>Node6</title>
<g id="a_node6"><a xlink:href="class_t_track.html#a694370e3ec67d43da1d8333e06d9ebba" target="_top" xlink:title="Searches LocationNameMultiMap to check if the element pointed to by the TTrackVectorIterator has the ...">
<polygon fill="white" stroke="black" points="317.5,-278.53 317.5,-308.53 454.5,-308.53 454.5,-278.53 317.5,-278.53"/>
<text text-anchor="start" x="325.5" y="-296.53" font-family="Helvetica,sans-Serif" font-size="10.00">TTrack::FindNamedElement</text>
<text text-anchor="middle" x="386" y="-285.53" font-family="Helvetica,sans-Serif" font-size="10.00">InLocationNameMultiMap</text>
</a>
</g>
</g>
<!-- Node1&#45;&gt;Node6 -->
<g id="edge20" class="edge">
<title>Node1&#45;&gt;Node6</title>
<path fill="none" stroke="midnightblue" d="M77.77,-193.1C133.74,-211.4 256.78,-251.62 329.02,-275.23"/>
<polygon fill="midnightblue" stroke="midnightblue" points="328.27,-278.67 338.87,-278.45 330.45,-272.01 328.27,-278.67"/>
</g>
<!-- Node9 -->
<g id="node9" class="node">
<title>Node9</title>
<g id="a_node9"><a xlink:href="class_t_track.html#ad377e5a1f152f2e89832c0f9bcfd261f" target="_top" xlink:title="A range&#45;checked version of TrackVector.at(At)">
<polygon fill="white" stroke="black" points="325,-76.03 325,-95.03 447,-95.03 447,-76.03 325,-76.03"/>
<text text-anchor="middle" x="386" y="-83.03" font-family="Helvetica,sans-Serif" font-size="10.00">TTrack::TrackElementAt</text>
</a>
</g>
</g>
<!-- Node1&#45;&gt;Node9 -->
<g id="edge25" class="edge">
<title>Node1&#45;&gt;Node9</title>
<path fill="none" stroke="midnightblue" d="M81.38,-173.95C142.57,-156.13 273.88,-117.89 342.01,-98.05"/>
<polygon fill="midnightblue" stroke="midnightblue" points="343.37,-101.3 351.99,-95.14 341.41,-94.58 343.37,-101.3"/>
</g>
<!-- Node10 -->
<g id="node10" class="node">
<title>Node10</title>
<g id="a_node10"><a xlink:href="class_t_track.html#aa0812972d1ae27198c5fbca8aa7b6134" target="_top" xlink:title="Returns the track vector position corresponding to the Hloc &amp; VLoc positions, FoundFlag indicates whe...">
<polygon fill="white" stroke="black" points="320.5,-26.53 320.5,-56.53 451.5,-56.53 451.5,-26.53 320.5,-26.53"/>
<text text-anchor="start" x="328.5" y="-44.53" font-family="Helvetica,sans-Serif" font-size="10.00">TTrack::GetVectorPosition</text>
<text text-anchor="middle" x="386" y="-33.53" font-family="Helvetica,sans-Serif" font-size="10.00">FromTrackMap</text>
</a>
</g>
</g>
<!-- Node1&#45;&gt;Node10 -->
<g id="edge21" class="edge">
<title>Node1&#45;&gt;Node10</title>
<path fill="none" stroke="midnightblue" d="M57.75,-173.89C72.12,-159.44 101.29,-132.17 131,-116.53 187.86,-86.6 258.33,-66.99 310.6,-55.36"/>
<polygon fill="midnightblue" stroke="midnightblue" points="311.45,-58.76 320.48,-53.21 309.96,-51.92 311.45,-58.76"/>
</g>
<!-- Node3&#45;&gt;Node2 -->
<g id="edge3" class="edge">
<title>Node3&#45;&gt;Node2</title>
<path fill="none" stroke="midnightblue" d="M445.16,-327.44C451.38,-324.87 457.45,-321.92 463,-318.53 494.88,-299.05 523.7,-265.91 539.73,-245.45"/>
<polygon fill="midnightblue" stroke="midnightblue" points="542.68,-247.36 545.98,-237.29 537.12,-243.1 542.68,-247.36"/>
</g>
<!-- Node3&#45;&gt;Node4 -->
<g id="edge4" class="edge">
<title>Node3&#45;&gt;Node4</title>
<path fill="none" stroke="midnightblue" d="M451.43,-327.37C455.64,-324.86 459.56,-321.94 463,-318.53 499.56,-282.35 474.29,-253.65 499,-208.53 508.92,-190.42 524.05,-172.46 535.78,-159.85"/>
<polygon fill="midnightblue" stroke="midnightblue" points="538.53,-162.04 542.9,-152.4 533.47,-157.21 538.53,-162.04"/>
</g>
<!-- Node5&#45;&gt;Node2 -->
<g id="edge6" class="edge">
<title>Node5&#45;&gt;Node2</title>
<path fill="none" stroke="midnightblue" d="M228.97,-198.73C249.81,-210.01 280.25,-224.44 309,-230.53 368.91,-243.22 438.95,-240.62 488.59,-235.95"/>
<polygon fill="midnightblue" stroke="midnightblue" points="488.94,-239.44 498.54,-234.97 488.25,-232.47 488.94,-239.44"/>
</g>
<!-- Node5&#45;&gt;Node4 -->
<g id="edge16" class="edge">
<title>Node5&#45;&gt;Node4</title>
<path fill="none" stroke="midnightblue" d="M233.19,-168.4C253.94,-158.88 282.43,-147.49 309,-142.53 369.06,-131.32 438.9,-132.74 488.44,-136.12"/>
<polygon fill="midnightblue" stroke="midnightblue" points="488.46,-139.63 498.69,-136.87 488.97,-132.65 488.46,-139.63"/>
</g>
<!-- Node5&#45;&gt;Node6 -->
<g id="edge7" class="edge">
<title>Node5&#45;&gt;Node6</title>
<path fill="none" stroke="midnightblue" d="M223.61,-198.66C237.6,-208.97 256.49,-222.98 273,-235.53 289.14,-247.8 291.39,-253.48 309,-263.53 316.01,-267.53 323.65,-271.23 331.31,-274.57"/>
<polygon fill="midnightblue" stroke="midnightblue" points="330.03,-277.83 340.6,-278.46 332.73,-271.37 330.03,-277.83"/>
</g>
<!-- Node7 -->
<g id="node7" class="node">
<title>Node7</title>
<g id="a_node7"><a xlink:href="class_t_track.html#a418966e6fefb71b9d0c9b941197832da" target="_top" xlink:title="Similar to GetVectorPositionFromTrackMap but for inactive elements, a pair is returned because there ...">
<polygon fill="white" stroke="black" points="317.5,-190.53 317.5,-220.53 454.5,-220.53 454.5,-190.53 317.5,-190.53"/>
<text text-anchor="start" x="325.5" y="-208.53" font-family="Helvetica,sans-Serif" font-size="10.00">TTrack::GetVectorPositions</text>
<text text-anchor="middle" x="386" y="-197.53" font-family="Helvetica,sans-Serif" font-size="10.00">FromInactiveTrackMap</text>
</a>
</g>
</g>
<!-- Node5&#45;&gt;Node7 -->
<g id="edge10" class="edge">
<title>Node5&#45;&gt;Node7</title>
<path fill="none" stroke="midnightblue" d="M273.11,-192C284.22,-193.35 295.78,-194.74 307.06,-196.11"/>
<polygon fill="midnightblue" stroke="midnightblue" points="306.98,-199.62 317.33,-197.35 307.82,-192.67 306.98,-199.62"/>
</g>
<!-- Node8 -->
<g id="node8" class="node">
<title>Node8</title>
<g id="a_node8"><a xlink:href="class_t_track.html#a51f89cf70e94b037f6378cd78003d82b" target="_top" xlink:title="A range&#45;checked version of InactiveTrackVector.at(At)">
<polygon fill="white" stroke="black" points="309,-152.03 309,-171.03 463,-171.03 463,-152.03 309,-152.03"/>
<text text-anchor="middle" x="386" y="-159.03" font-family="Helvetica,sans-Serif" font-size="10.00">TTrack::InactiveTrackElementAt</text>
</a>
</g>
</g>
<!-- Node5&#45;&gt;Node8 -->
<g id="edge13" class="edge">
<title>Node5&#45;&gt;Node8</title>
<path fill="none" stroke="midnightblue" d="M273.11,-175.06C281.53,-174.04 290.2,-172.99 298.82,-171.95"/>
<polygon fill="midnightblue" stroke="midnightblue" points="299.38,-175.41 308.88,-170.73 298.54,-168.46 299.38,-175.41"/>
</g>
<!-- Node5&#45;&gt;Node9 -->
<g id="edge17" class="edge">
<title>Node5&#45;&gt;Node9</title>
<path fill="none" stroke="midnightblue" d="M221.07,-168.33C241.35,-151.9 275.78,-125.89 309,-109.53 317.84,-105.17 327.65,-101.38 337.2,-98.18"/>
<polygon fill="midnightblue" stroke="midnightblue" points="338.54,-101.43 347.01,-95.06 336.42,-94.76 338.54,-101.43"/>
</g>
<!-- Node6&#45;&gt;Node2 -->
<g id="edge8" class="edge">
<title>Node6&#45;&gt;Node2</title>
<path fill="none" stroke="midnightblue" d="M425.29,-278.46C437.36,-273.69 450.74,-268.4 463,-263.53 481.83,-256.05 502.85,-247.64 519.84,-240.84"/>
<polygon fill="midnightblue" stroke="midnightblue" points="521.35,-244 529.33,-237.03 518.74,-237.51 521.35,-244"/>
</g>
<!-- Node6&#45;&gt;Node4 -->
<g id="edge9" class="edge">
<title>Node6&#45;&gt;Node4</title>
<path fill="none" stroke="midnightblue" d="M406.1,-278.42C421.7,-265.91 444.15,-247.5 463,-230.53 489.47,-206.69 518.73,-177.52 536.49,-159.48"/>
<polygon fill="midnightblue" stroke="midnightblue" points="539.28,-161.63 543.79,-152.04 534.29,-156.73 539.28,-161.63"/>
</g>
<!-- Node7&#45;&gt;Node2 -->
<g id="edge11" class="edge">
<title>Node7&#45;&gt;Node2</title>
<path fill="none" stroke="midnightblue" d="M454.52,-214.48C465.79,-215.97 477.45,-217.52 488.64,-219"/>
<polygon fill="midnightblue" stroke="midnightblue" points="488.39,-222.5 498.76,-220.34 489.31,-215.56 488.39,-222.5"/>
</g>
<!-- Node7&#45;&gt;Node4 -->
<g id="edge12" class="edge">
<title>Node7&#45;&gt;Node4</title>
<path fill="none" stroke="midnightblue" d="M434.64,-190.52C444.09,-187.36 453.9,-183.94 463,-180.53 482.91,-173.06 504.91,-163.8 522.17,-156.28"/>
<polygon fill="midnightblue" stroke="midnightblue" points="523.99,-159.31 531.74,-152.09 521.18,-152.9 523.99,-159.31"/>
</g>
<!-- Node8&#45;&gt;Node2 -->
<g id="edge14" class="edge">
<title>Node8&#45;&gt;Node2</title>
<path fill="none" stroke="midnightblue" d="M429.72,-171.05C440.71,-173.97 452.42,-177.49 463,-181.53 485.68,-190.19 510.14,-202.93 527.83,-212.81"/>
<polygon fill="midnightblue" stroke="midnightblue" points="526.47,-216.07 536.9,-217.96 529.93,-209.98 526.47,-216.07"/>
</g>
<!-- Node8&#45;&gt;Node4 -->
<g id="edge15" class="edge">
<title>Node8&#45;&gt;Node4</title>
<path fill="none" stroke="midnightblue" d="M463.2,-152.81C471.68,-151.84 480.26,-150.86 488.58,-149.9"/>
<polygon fill="midnightblue" stroke="midnightblue" points="489.03,-153.37 498.57,-148.76 488.23,-146.42 489.03,-153.37"/>
</g>
<!-- Node9&#45;&gt;Node2 -->
<g id="edge18" class="edge">
<title>Node9&#45;&gt;Node2</title>
<path fill="none" stroke="midnightblue" d="M400.81,-95.17C416.32,-106.16 442.06,-124.89 463,-142.53 489.65,-164.99 518.65,-193.1 536.33,-210.69"/>
<polygon fill="midnightblue" stroke="midnightblue" points="534.06,-213.38 543.61,-217.98 539.02,-208.43 534.06,-213.38"/>
</g>
<!-- Node9&#45;&gt;Node4 -->
<g id="edge19" class="edge">
<title>Node9&#45;&gt;Node4</title>
<path fill="none" stroke="midnightblue" d="M418.54,-95.14C432.24,-99.4 448.46,-104.57 463,-109.53 481.43,-115.82 501.82,-123.25 518.53,-129.47"/>
<polygon fill="midnightblue" stroke="midnightblue" points="517.3,-132.75 527.89,-132.98 519.75,-126.19 517.3,-132.75"/>
</g>
<!-- Node10&#45;&gt;Node2 -->
<g id="edge22" class="edge">
<title>Node10&#45;&gt;Node2</title>
<path fill="none" stroke="midnightblue" d="M449.44,-56.69C454.37,-59.44 458.99,-62.69 463,-66.53 495.63,-97.74 476.41,-122.44 499,-161.53 509.45,-179.62 524.79,-197.81 536.45,-210.51"/>
<polygon fill="midnightblue" stroke="midnightblue" points="534.09,-213.11 543.49,-218 539.19,-208.31 534.09,-213.11"/>
</g>
<!-- Node10&#45;&gt;Node4 -->
<g id="edge23" class="edge">
<title>Node10&#45;&gt;Node4</title>
<path fill="none" stroke="midnightblue" d="M441.65,-56.67C449.02,-59.52 456.33,-62.8 463,-66.53 491.69,-82.56 519.83,-108.41 536.8,-125.44"/>
<polygon fill="midnightblue" stroke="midnightblue" points="534.7,-128.3 544.19,-133.01 539.7,-123.41 534.7,-128.3"/>
</g>
</g>
</svg>
        <g id="navigator" transform="translate(0 0)" fill="#404254">
                <rect fill="#f2f5e9" fill-opacity="0.5" stroke="#606060" stroke-width=".5" x="0" y="0" width="60" height="60"/>
                <use id="zoomplus" xlink:href="#zoomPlus" x="17" y="9" onmousedown="handleZoom(evt,'in')"/>
                <use id="zoomminus" xlink:href="#zoomMin" x="42" y="9" onmousedown="handleZoom(evt,'out')"/>
                <use id="reset" xlink:href="#resetDef" x="30" y="36" onmousedown="handleReset()"/>
                <g id="arrowUp" xlink:href="#dirArrow" transform="translate(30 24)" onmousedown="handlePan(0,-1)">
                  <use xlink:href="#rim" fill="#404040">
                        <set attributeName="fill" to="#808080" begin="arrowUp.mouseover" end="arrowUp.mouseout"/>
                  </use>
                  <path fill="none" stroke="white" stroke-width="1.5" d="M0,-3.0v7 M-2.5,-0.5L0,-3.0L2.5,-0.5"/>
                </g>
                <g id="arrowRight" xlink:href="#dirArrow" transform="rotate(90) translate(36 -43)" onmousedown="handlePan(1,0)">
                  <use xlink:href="#rim" fill="#404040">
                        <set attributeName="fill" to="#808080" begin="arrowRight.mouseover" end="arrowRight.mouseout"/>
                  </use>
                  <path fill="none" stroke="white" stroke-width="1.5" d="M0,-3.0v7 M-2.5,-0.5L0,-3.0L2.5,-0.5"/>
                </g>
                <g id="arrowDown" xlink:href="#dirArrow" transform="rotate(180) translate(-30 -48)" onmousedown="handlePan(0,1)">
                  <use xlink:href="#rim" fill="#404040">
                        <set attributeName="fill" to="#808080" begin="arrowDown.mouseover" end="arrowDown.mouseout"/>
                  </use>
                  <path fill="none" stroke="white" stroke-width="1.5" d="M0,-3.0v7 M-2.5,-0.5L0,-3.0L2.5,-0.5"/>
                </g>
                <g id="arrowLeft" xlink:href="#dirArrow" transform="rotate(270) translate(-36 17)" onmousedown="handlePan(-1,0)">
                  <use xlink:href="#rim" fill="#404040">
                        <set attributeName="fill" to="#808080" begin="arrowLeft.mouseover" end="arrowLeft.mouseout"/>
                  </use>
                  <path fill="none" stroke="white" stroke-width="1.5" d="M0,-3.0v7 M-2.5,-0.5L0,-3.0L2.5,-0.5"/>
                </g>
        </g>
        <svg viewBox="0 0 15 15" width="100%" height="30px" preserveAspectRatio="xMaxYMin meet">
         <g id="arrow_out" transform="scale(0.3 0.3)">
          <a xlink:href="class_t_track_a306dfdff414c8edf6f974d21bd9b83ce_cgraph_org.svg" target="_base">
           <rect id="button" ry="5" rx="5" y="6" x="6" height="38" width="38"
                fill="#f2f5e9" fill-opacity="0.5" stroke="#606060" stroke-width="1.0"/>
           <path id="arrow"
             d="M 11.500037,31.436501 C 11.940474,20.09759 22.043105,11.32322 32.158766,21.979434 L 37.068811,17.246167 C 37.068811,17.246167 37.088388,32 37.088388,32 L 22.160133,31.978069 C 22.160133,31.978069 26.997745,27.140456 26.997745,27.140456 C 18.528582,18.264221 13.291696,25.230495 11.500037,31.436501 z"
             style="fill:#404040;"/>
          </a>
         </g>
        </svg>
</svg>
