<?xml version="1.0" encoding="UTF-8" standalone="no"?>
<!DOCTYPE svg PUBLIC "-//W3C//DTD SVG 1.1//EN"
 "http://www.w3.org/Graphics/SVG/1.1/DTD/svg11.dtd">
<!-- Generated by graphviz version 2.44.1 (20200629.0800)
 -->
<!-- Title: TTrack::WriteOperatingTrackToImage Pages: 1 -->
<svg width="879pt" height="794pt"
 viewBox="0.00 0.00 879.00 794.17" xmlns="http://www.w3.org/2000/svg" xmlns:xlink="http://www.w3.org/1999/xlink">
<g id="graph0" class="graph" transform="scale(1 1) rotate(0) translate(4 790.17)">
<title>TTrack::WriteOperatingTrackToImage</title>
<polygon fill="white" stroke="transparent" points="-4,4 -4,-790.17 875,-790.17 875,4 -4,4"/>
<!-- Node1 -->
<g id="node1" class="node">
<title>Node1</title>
<g id="a_node1"><a xlink:title="Called by TInterface::SaveOperatingImage1Click to add all track element graphics to the image file in...">
<polygon fill="#bfbfbf" stroke="black" points="0,-244 0,-274 141,-274 141,-244 0,-244"/>
<text text-anchor="start" x="8" y="-262" font-family="Helvetica,sans-Serif" font-size="10.00">TTrack::WriteOperatingTrack</text>
<text text-anchor="middle" x="70.5" y="-251" font-family="Helvetica,sans-Serif" font-size="10.00">ToImage</text>
</a>
</g>
</g>
<!-- Node2 -->
<g id="node2" class="node">
<title>Node2</title>
<g id="a_node2"><a xlink:href="class_t_utilities.html#ae1eddca13cc3c492839e131f40ec21c0" target="_top" xlink:title="pops the last entry off the call stack, throws an error if called when empty">
<polygon fill="white" stroke="black" points="761,-503.5 761,-522.5 871,-522.5 871,-503.5 761,-503.5"/>
<text text-anchor="middle" x="816" y="-510.5" font-family="Helvetica,sans-Serif" font-size="10.00">TUtilities::CallLogPop</text>
</a>
</g>
</g>
<!-- Node1&#45;&gt;Node2 -->
<g id="edge1" class="edge">
<title>Node1&#45;&gt;Node2</title>
<path fill="none" stroke="midnightblue" d="M71.72,-274.26C73.29,-327.74 85.44,-509.15 177,-614 239.54,-685.62 281.99,-671.36 372,-702 521.67,-752.95 594.61,-835.41 725,-746 797.52,-696.27 811.62,-579.13 814.35,-532.57"/>
<polygon fill="midnightblue" stroke="midnightblue" points="817.85,-532.73 814.82,-522.58 810.86,-532.4 817.85,-532.73"/>
</g>
<!-- Node3 -->
<g id="node3" class="node">
<title>Node3</title>
<g id="a_node3"><a xlink:href="class_t_rail_graphics.html#a5121c6d8b8fa69eefc293ca51cddce88" target="_top" xlink:title=" ">
<polygon fill="white" stroke="black" points="383,-328 383,-358 511,-358 511,-328 383,-328"/>
<text text-anchor="start" x="391" y="-346" font-family="Helvetica,sans-Serif" font-size="10.00">TRailGraphics::ChangeAll</text>
<text text-anchor="middle" x="447" y="-335" font-family="Helvetica,sans-Serif" font-size="10.00">TransparentColours</text>
</a>
</g>
</g>
<!-- Node1&#45;&gt;Node3 -->
<g id="edge2" class="edge">
<title>Node1&#45;&gt;Node3</title>
<path fill="none" stroke="midnightblue" d="M138.45,-274.02C204.43,-288.82 304.95,-311.36 372.96,-326.62"/>
<polygon fill="midnightblue" stroke="midnightblue" points="372.22,-330.04 382.75,-328.81 373.75,-323.21 372.22,-330.04"/>
</g>
<!-- Node5 -->
<g id="node5" class="node">
<title>Node5</title>
<g id="a_node5"><a xlink:href="class_t_utilities.html#a34bd6bb5305bc29afdf424f6d35a921c" target="_top" xlink:title="creates a string of the form &#39;hh:mm:ss&#39; for use in call &amp; event logging">
<polygon fill="white" stroke="black" points="761,-333.5 761,-352.5 871,-352.5 871,-333.5 761,-333.5"/>
<text text-anchor="middle" x="816" y="-340.5" font-family="Helvetica,sans-Serif" font-size="10.00">TUtilities::TimeStamp</text>
</a>
</g>
</g>
<!-- Node1&#45;&gt;Node5 -->
<g id="edge44" class="edge">
<title>Node1&#45;&gt;Node5</title>
<path fill="none" stroke="midnightblue" d="M82.06,-243.7C99.04,-220.46 134.83,-176.88 177,-157 397.99,-52.84 523.11,23.57 725,-114 796.27,-162.57 811.1,-276.96 814.19,-323.14"/>
<polygon fill="midnightblue" stroke="midnightblue" points="810.71,-323.54 814.75,-333.33 817.7,-323.16 810.71,-323.54"/>
</g>
<!-- Node7 -->
<g id="node7" class="node">
<title>Node7</title>
<g id="a_node7"><a xlink:href="class_t_track.html#a5d25871e34f26d3c4c878fd4707ed375" target="_top" xlink:title=" ">
<polygon fill="white" stroke="black" points="203.5,-38.5 203.5,-57.5 309.5,-57.5 309.5,-38.5 203.5,-38.5"/>
<text text-anchor="middle" x="256.5" y="-45.5" font-family="Helvetica,sans-Serif" font-size="10.00">TTrack::GetHLocMin</text>
</a>
</g>
</g>
<!-- Node1&#45;&gt;Node7 -->
<g id="edge9" class="edge">
<title>Node1&#45;&gt;Node7</title>
<path fill="none" stroke="midnightblue" d="M75.77,-243.84C86.55,-208.33 118.31,-119.17 177,-72 182.3,-67.74 188.35,-64.24 194.69,-61.35"/>
<polygon fill="midnightblue" stroke="midnightblue" points="196.15,-64.54 204.12,-57.56 193.54,-58.04 196.15,-64.54"/>
</g>
<!-- Node8 -->
<g id="node8" class="node">
<title>Node8</title>
<g id="a_node8"><a xlink:href="class_t_track.html#aeb60286bc570dbafab64fe6dc06af2e4" target="_top" xlink:title="Return a reference to the element at HLoc &amp; VLoc, if no element is found an error is thrown.">
<polygon fill="white" stroke="black" points="372,-413 372,-443 522,-443 522,-413 372,-413"/>
<text text-anchor="start" x="380" y="-431" font-family="Helvetica,sans-Serif" font-size="10.00">TTrack::GetTrackElementFrom</text>
<text text-anchor="middle" x="447" y="-420" font-family="Helvetica,sans-Serif" font-size="10.00">TrackMap</text>
</a>
</g>
</g>
<!-- Node1&#45;&gt;Node8 -->
<g id="edge10" class="edge">
<title>Node1&#45;&gt;Node8</title>
<path fill="none" stroke="midnightblue" d="M98.48,-274.19C119.59,-285.86 149.83,-302.12 177,-315 252.99,-351.04 343.56,-387.86 397.84,-409.29"/>
<polygon fill="midnightblue" stroke="midnightblue" points="396.62,-412.58 407.21,-412.98 399.19,-406.06 396.62,-412.58"/>
</g>
<!-- Node10 -->
<g id="node10" class="node">
<title>Node10</title>
<g id="a_node10"><a xlink:href="class_t_track.html#ac42bd1e1e148a91396310b1077d2d8e0" target="_top" xlink:title=" ">
<polygon fill="white" stroke="black" points="203.5,-0.5 203.5,-19.5 309.5,-19.5 309.5,-0.5 203.5,-0.5"/>
<text text-anchor="middle" x="256.5" y="-7.5" font-family="Helvetica,sans-Serif" font-size="10.00">TTrack::GetVLocMin</text>
</a>
</g>
</g>
<!-- Node1&#45;&gt;Node10 -->
<g id="edge16" class="edge">
<title>Node1&#45;&gt;Node10</title>
<path fill="none" stroke="midnightblue" d="M73.8,-243.9C80.91,-202.62 106.47,-87.1 177,-29 181.97,-24.9 187.69,-21.67 193.72,-19.11"/>
<polygon fill="midnightblue" stroke="midnightblue" points="195.17,-22.31 203.4,-15.63 192.8,-15.72 195.17,-22.31"/>
</g>
<!-- Node11 -->
<g id="node11" class="node">
<title>Node11</title>
<g id="a_node11"><a xlink:href="class_t_track.html#a7c2888cb7acea2b9c65c5f9cc538df66" target="_top" xlink:title="Check whether there is a platform present at HLoc &amp; VLoc at the same side as the signal represented b...">
<polygon fill="white" stroke="black" points="183,-519.5 183,-538.5 330,-538.5 330,-519.5 183,-519.5"/>
<text text-anchor="middle" x="256.5" y="-526.5" font-family="Helvetica,sans-Serif" font-size="10.00">TTrack::PlatformOnSignalSide</text>
</a>
</g>
</g>
<!-- Node1&#45;&gt;Node11 -->
<g id="edge17" class="edge">
<title>Node1&#45;&gt;Node11</title>
<path fill="none" stroke="midnightblue" d="M81.92,-274.29C113.63,-320.82 208.88,-460.59 243.09,-510.79"/>
<polygon fill="midnightblue" stroke="midnightblue" points="240.39,-513.04 248.91,-519.34 246.17,-509.1 240.39,-513.04"/>
</g>
<!-- Node15 -->
<g id="node15" class="node">
<title>Node15</title>
<g id="a_node15"><a xlink:href="class_t_display.html#abb140097c975da97aa53bc3946f3ea31" target="_top" xlink:title=" ">
<polygon fill="white" stroke="black" points="577,-153 577,-183 706,-183 706,-153 577,-153"/>
<text text-anchor="start" x="585" y="-171" font-family="Helvetica,sans-Serif" font-size="10.00">TDisplay::PlotSignalBlank</text>
<text text-anchor="middle" x="641.5" y="-160" font-family="Helvetica,sans-Serif" font-size="10.00">OnBitmap</text>
</a>
</g>
</g>
<!-- Node1&#45;&gt;Node15 -->
<g id="edge31" class="edge">
<title>Node1&#45;&gt;Node15</title>
<path fill="none" stroke="midnightblue" d="M88.28,-243.86C107.93,-227.2 142.23,-201.26 177,-190 309.04,-147.22 473.29,-152.06 566.59,-159.8"/>
<polygon fill="midnightblue" stroke="midnightblue" points="566.51,-163.3 576.78,-160.68 567.12,-156.33 566.51,-163.3"/>
</g>
<!-- Node16 -->
<g id="node16" class="node">
<title>Node16</title>
<g id="a_node16"><a xlink:href="class_t_track.html#a58a2afacadd0f564b474ac0faabc88d4" target="_top" xlink:title="Return a reference to the inactive track element pointed to by NextTrackElementPtr (during zoomed&#45;in ...">
<polygon fill="white" stroke="black" points="575,-706 575,-736 708,-736 708,-706 575,-706"/>
<text text-anchor="start" x="583" y="-724" font-family="Helvetica,sans-Serif" font-size="10.00">TTrack::ReturnNextInactive</text>
<text text-anchor="middle" x="641.5" y="-713" font-family="Helvetica,sans-Serif" font-size="10.00">TrackElement</text>
</a>
</g>
</g>
<!-- Node1&#45;&gt;Node16 -->
<g id="edge34" class="edge">
<title>Node1&#45;&gt;Node16</title>
<path fill="none" stroke="midnightblue" d="M73.04,-274.24C78.52,-320.95 101,-464.06 177,-548 279.1,-660.76 461.76,-700.3 564.66,-713.96"/>
<polygon fill="midnightblue" stroke="midnightblue" points="564.3,-717.45 574.66,-715.24 565.19,-710.5 564.3,-717.45"/>
</g>
<!-- Node17 -->
<g id="node17" class="node">
<title>Node17</title>
<g id="a_node17"><a xlink:href="class_t_track.html#a90e1db27659603b72a703c017ee576c8" target="_top" xlink:title="Return a reference to the active track element pointed to by NextTrackElementPtr (during zoomed&#45;in or...">
<polygon fill="white" stroke="black" points="561,-251.5 561,-270.5 722,-270.5 722,-251.5 561,-251.5"/>
<text text-anchor="middle" x="641.5" y="-258.5" font-family="Helvetica,sans-Serif" font-size="10.00">TTrack::ReturnNextTrackElement</text>
</a>
</g>
</g>
<!-- Node1&#45;&gt;Node17 -->
<g id="edge37" class="edge">
<title>Node1&#45;&gt;Node17</title>
<path fill="none" stroke="midnightblue" d="M141.27,-259.25C244.25,-259.61 436.98,-260.28 550.48,-260.68"/>
<polygon fill="midnightblue" stroke="midnightblue" points="550.53,-264.18 560.54,-260.72 550.55,-257.18 550.53,-264.18"/>
</g>
<!-- Node18 -->
<g id="node18" class="node">
<title>Node18</title>
<g id="a_node18"><a xlink:href="class_t_rail_graphics.html#ae19696d461eea07c5444ed4c9714acf3" target="_top" xlink:title=" ">
<polygon fill="white" stroke="black" points="177,-200 177,-230 336,-230 336,-200 177,-200"/>
<text text-anchor="start" x="185" y="-218" font-family="Helvetica,sans-Serif" font-size="10.00">TRailGraphics::SetUpAllDerivitive</text>
<text text-anchor="middle" x="256.5" y="-207" font-family="Helvetica,sans-Serif" font-size="10.00">Graphics</text>
</a>
</g>
</g>
<!-- Node1&#45;&gt;Node18 -->
<g id="edge40" class="edge">
<title>Node1&#45;&gt;Node18</title>
<path fill="none" stroke="midnightblue" d="M134.31,-243.98C149.91,-240.25 166.77,-236.22 182.8,-232.38"/>
<polygon fill="midnightblue" stroke="midnightblue" points="183.75,-235.76 192.66,-230.03 182.12,-228.95 183.75,-235.76"/>
</g>
<!-- Node4 -->
<g id="node4" class="node">
<title>Node4</title>
<g id="a_node4"><a xlink:href="class_t_rail_graphics.html#ac4e48e6ee19e01724adb0d490762d548" target="_top" xlink:title=" ">
<polygon fill="white" stroke="black" points="566,-328 566,-358 717,-358 717,-328 566,-328"/>
<text text-anchor="start" x="574" y="-346" font-family="Helvetica,sans-Serif" font-size="10.00">TRailGraphics::ChangeSpecific</text>
<text text-anchor="middle" x="641.5" y="-335" font-family="Helvetica,sans-Serif" font-size="10.00">Colour</text>
</a>
</g>
</g>
<!-- Node3&#45;&gt;Node4 -->
<g id="edge3" class="edge">
<title>Node3&#45;&gt;Node4</title>
<path fill="none" stroke="midnightblue" d="M511.03,-343C525.29,-343 540.65,-343 555.64,-343"/>
<polygon fill="midnightblue" stroke="midnightblue" points="555.94,-346.5 565.94,-343 555.94,-339.5 555.94,-346.5"/>
</g>
<!-- Node6 -->
<g id="node6" class="node">
<title>Node6</title>
<g id="a_node6"><a xlink:href="class_t_rail_graphics.html#a89a3e3a91129c4d02f4606478781b519" target="_top" xlink:title=" ">
<polygon fill="white" stroke="black" points="558,-416 558,-446 725,-446 725,-416 558,-416"/>
<text text-anchor="start" x="566" y="-434" font-family="Helvetica,sans-Serif" font-size="10.00">TRailGraphics::ChangeTransparent</text>
<text text-anchor="middle" x="641.5" y="-423" font-family="Helvetica,sans-Serif" font-size="10.00">Colour</text>
</a>
</g>
</g>
<!-- Node3&#45;&gt;Node6 -->
<g id="edge6" class="edge">
<title>Node3&#45;&gt;Node6</title>
<path fill="none" stroke="midnightblue" d="M481.09,-358.13C513.42,-372.91 562.77,-395.46 597.98,-411.56"/>
<polygon fill="midnightblue" stroke="midnightblue" points="596.97,-414.95 607.52,-415.92 599.88,-408.58 596.97,-414.95"/>
</g>
<!-- Node4&#45;&gt;Node2 -->
<g id="edge4" class="edge">
<title>Node4&#45;&gt;Node2</title>
<path fill="none" stroke="midnightblue" d="M664.51,-358.16C681.73,-370.46 705.88,-388.7 725,-407 754.9,-435.6 785.1,-473.42 801.8,-495.29"/>
<polygon fill="midnightblue" stroke="midnightblue" points="799.08,-497.49 807.9,-503.36 804.66,-493.27 799.08,-497.49"/>
</g>
<!-- Node4&#45;&gt;Node5 -->
<g id="edge5" class="edge">
<title>Node4&#45;&gt;Node5</title>
<path fill="none" stroke="midnightblue" d="M717.16,-343C728.27,-343 739.64,-343 750.51,-343"/>
<polygon fill="midnightblue" stroke="midnightblue" points="750.77,-346.5 760.77,-343 750.77,-339.5 750.77,-346.5"/>
</g>
<!-- Node6&#45;&gt;Node2 -->
<g id="edge7" class="edge">
<title>Node6&#45;&gt;Node2</title>
<path fill="none" stroke="midnightblue" d="M699.61,-446.1C708.26,-449.01 716.97,-452.32 725,-456 749.92,-467.41 776.14,-484.71 793.81,-497.25"/>
<polygon fill="midnightblue" stroke="midnightblue" points="792.06,-500.31 802.22,-503.33 796.16,-494.63 792.06,-500.31"/>
</g>
<!-- Node6&#45;&gt;Node5 -->
<g id="edge8" class="edge">
<title>Node6&#45;&gt;Node5</title>
<path fill="none" stroke="midnightblue" d="M689.51,-415.96C701.32,-411.63 713.81,-406.56 725,-401 749.67,-388.76 775.93,-371.26 793.68,-358.69"/>
<polygon fill="midnightblue" stroke="midnightblue" points="796.05,-361.29 802.13,-352.61 791.97,-355.61 796.05,-361.29"/>
</g>
<!-- Node8&#45;&gt;Node2 -->
<g id="edge11" class="edge">
<title>Node8&#45;&gt;Node2</title>
<path fill="none" stroke="midnightblue" d="M466.92,-443.17C487.83,-458.98 523.18,-482.96 558,-494 621.37,-514.1 697.76,-517.27 750.71,-516.39"/>
<polygon fill="midnightblue" stroke="midnightblue" points="751.05,-519.88 760.97,-516.16 750.9,-512.88 751.05,-519.88"/>
</g>
<!-- Node8&#45;&gt;Node5 -->
<g id="edge12" class="edge">
<title>Node8&#45;&gt;Node5</title>
<path fill="none" stroke="midnightblue" d="M469.64,-412.77C485.09,-401.37 505.91,-384.88 522,-368 540.65,-348.44 533.89,-331.2 558,-319 631.84,-281.62 732.9,-310.67 783.47,-329.75"/>
<polygon fill="midnightblue" stroke="midnightblue" points="782.3,-333.05 792.89,-333.41 784.84,-326.52 782.3,-333.05"/>
</g>
<!-- Node9 -->
<g id="node9" class="node">
<title>Node9</title>
<g id="a_node9"><a xlink:href="class_t_track.html#ad377e5a1f152f2e89832c0f9bcfd261f" target="_top" xlink:title="A range&#45;checked version of TrackElement.at(At)">
<polygon fill="white" stroke="black" points="580.5,-465.5 580.5,-484.5 702.5,-484.5 702.5,-465.5 580.5,-465.5"/>
<text text-anchor="middle" x="641.5" y="-472.5" font-family="Helvetica,sans-Serif" font-size="10.00">TTrack::TrackElementAt</text>
</a>
</g>
</g>
<!-- Node8&#45;&gt;Node9 -->
<g id="edge13" class="edge">
<title>Node8&#45;&gt;Node9</title>
<path fill="none" stroke="midnightblue" d="M506.17,-443.07C522.88,-447.33 541.15,-451.91 558,-456 567.75,-458.36 578.16,-460.82 588.2,-463.14"/>
<polygon fill="midnightblue" stroke="midnightblue" points="587.53,-466.58 598.06,-465.42 589.11,-459.76 587.53,-466.58"/>
</g>
<!-- Node9&#45;&gt;Node2 -->
<g id="edge14" class="edge">
<title>Node9&#45;&gt;Node2</title>
<path fill="none" stroke="midnightblue" d="M686.03,-484.59C709.1,-489.67 737.63,-495.96 761.98,-501.32"/>
<polygon fill="midnightblue" stroke="midnightblue" points="761.27,-504.75 771.78,-503.48 762.77,-497.91 761.27,-504.75"/>
</g>
<!-- Node9&#45;&gt;Node5 -->
<g id="edge15" class="edge">
<title>Node9&#45;&gt;Node5</title>
<path fill="none" stroke="midnightblue" d="M702.56,-466.22C710.45,-463.64 718.16,-460.31 725,-456 762.65,-432.27 791.35,-387.15 805.41,-361.69"/>
<polygon fill="midnightblue" stroke="midnightblue" points="808.6,-363.15 810.23,-352.68 802.43,-359.85 808.6,-363.15"/>
</g>
<!-- Node11&#45;&gt;Node2 -->
<g id="edge18" class="edge">
<title>Node11&#45;&gt;Node2</title>
<path fill="none" stroke="midnightblue" d="M270.58,-538.5C327.72,-578.79 559.98,-729.46 725,-643 769.83,-619.51 796.77,-562.43 808.33,-532.33"/>
<polygon fill="midnightblue" stroke="midnightblue" points="811.75,-533.16 811.9,-522.57 805.18,-530.76 811.75,-533.16"/>
</g>
<!-- Node11&#45;&gt;Node5 -->
<g id="edge30" class="edge">
<title>Node11&#45;&gt;Node5</title>
<path fill="none" stroke="midnightblue" d="M260.79,-519.43C279.43,-467.05 377.31,-214.94 558,-143 626.96,-115.55 662.67,-102.7 725,-143 788.26,-183.91 807.5,-281.05 812.97,-323.07"/>
<polygon fill="midnightblue" stroke="midnightblue" points="809.51,-323.62 814.15,-333.15 816.47,-322.81 809.51,-323.62"/>
</g>
<!-- Node12 -->
<g id="node12" class="node">
<title>Node12</title>
<g id="a_node12"><a xlink:href="class_t_track.html#a418966e6fefb71b9d0c9b941197832da" target="_top" xlink:title="Similar to GetVectorPositionFromTrackMap but for inactive elements, a pair is returned because there ...">
<polygon fill="white" stroke="black" points="573,-580 573,-610 710,-610 710,-580 573,-580"/>
<text text-anchor="start" x="581" y="-598" font-family="Helvetica,sans-Serif" font-size="10.00">TTrack::GetVectorPositions</text>
<text text-anchor="middle" x="641.5" y="-587" font-family="Helvetica,sans-Serif" font-size="10.00">FromInactiveTrackMap</text>
</a>
</g>
</g>
<!-- Node11&#45;&gt;Node12 -->
<g id="edge19" class="edge">
<title>Node11&#45;&gt;Node12</title>
<path fill="none" stroke="midnightblue" d="M275.54,-538.53C297.61,-549.68 336.43,-567.67 372,-576 435.05,-590.77 508.51,-595.11 562.64,-596"/>
<polygon fill="midnightblue" stroke="midnightblue" points="562.81,-599.5 572.86,-596.13 562.9,-592.5 562.81,-599.5"/>
</g>
<!-- Node13 -->
<g id="node13" class="node">
<title>Node13</title>
<g id="a_node13"><a xlink:href="class_t_track.html#a51f89cf70e94b037f6378cd78003d82b" target="_top" xlink:title="A range&#45;checked version of InactiveTrackElement.at(At)">
<polygon fill="white" stroke="black" points="564.5,-541.5 564.5,-560.5 718.5,-560.5 718.5,-541.5 564.5,-541.5"/>
<text text-anchor="middle" x="641.5" y="-548.5" font-family="Helvetica,sans-Serif" font-size="10.00">TTrack::InactiveTrackElementAt</text>
</a>
</g>
</g>
<!-- Node11&#45;&gt;Node13 -->
<g id="edge22" class="edge">
<title>Node11&#45;&gt;Node13</title>
<path fill="none" stroke="midnightblue" d="M330.1,-524.27C383.36,-521.81 457.35,-520.52 522,-527 545.71,-529.38 571.69,-534.37 593.27,-539.18"/>
<polygon fill="midnightblue" stroke="midnightblue" points="592.64,-542.63 603.17,-541.45 594.2,-535.8 592.64,-542.63"/>
</g>
<!-- Node14 -->
<g id="node14" class="node">
<title>Node14</title>
<g id="a_node14"><a xlink:href="class_t_track.html#adbec6561f4ecd2fa1dabf3e41502b085" target="_top" xlink:title="True if a non&#45;station named location or platform at HLoc &amp; VLoc.">
<polygon fill="white" stroke="black" points="378.5,-536 378.5,-566 515.5,-566 515.5,-536 378.5,-536"/>
<text text-anchor="start" x="386.5" y="-554" font-family="Helvetica,sans-Serif" font-size="10.00">TTrack::IsPlatformOrNamed</text>
<text text-anchor="middle" x="447" y="-543" font-family="Helvetica,sans-Serif" font-size="10.00">NonStationLocationPresent</text>
</a>
</g>
</g>
<!-- Node11&#45;&gt;Node14 -->
<g id="edge25" class="edge">
<title>Node11&#45;&gt;Node14</title>
<path fill="none" stroke="midnightblue" d="M330.11,-537.47C342.63,-538.94 355.69,-540.46 368.34,-541.94"/>
<polygon fill="midnightblue" stroke="midnightblue" points="368.04,-545.42 378.38,-543.11 368.85,-538.47 368.04,-545.42"/>
</g>
<!-- Node12&#45;&gt;Node2 -->
<g id="edge20" class="edge">
<title>Node12&#45;&gt;Node2</title>
<path fill="none" stroke="midnightblue" d="M699.61,-579.9C708.26,-576.99 716.97,-573.68 725,-570 749.92,-558.59 776.14,-541.29 793.81,-528.75"/>
<polygon fill="midnightblue" stroke="midnightblue" points="796.16,-531.37 802.22,-522.67 792.06,-525.69 796.16,-531.37"/>
</g>
<!-- Node12&#45;&gt;Node5 -->
<g id="edge21" class="edge">
<title>Node12&#45;&gt;Node5</title>
<path fill="none" stroke="midnightblue" d="M710.18,-580.3C715.55,-577.45 720.59,-574.05 725,-570 741.24,-555.06 790.59,-414.29 808.45,-362.23"/>
<polygon fill="midnightblue" stroke="midnightblue" points="811.84,-363.14 811.77,-352.55 805.22,-360.88 811.84,-363.14"/>
</g>
<!-- Node13&#45;&gt;Node2 -->
<g id="edge23" class="edge">
<title>Node13&#45;&gt;Node2</title>
<path fill="none" stroke="midnightblue" d="M686.03,-541.41C709.1,-536.33 737.63,-530.04 761.98,-524.68"/>
<polygon fill="midnightblue" stroke="midnightblue" points="762.77,-528.09 771.78,-522.52 761.27,-521.25 762.77,-528.09"/>
</g>
<!-- Node13&#45;&gt;Node5 -->
<g id="edge24" class="edge">
<title>Node13&#45;&gt;Node5</title>
<path fill="none" stroke="midnightblue" d="M660.91,-541.36C678.85,-531.31 706.09,-514.22 725,-494 763.41,-452.92 793.16,-392.74 806.81,-362.24"/>
<polygon fill="midnightblue" stroke="midnightblue" points="810.15,-363.34 810.96,-352.78 803.74,-360.53 810.15,-363.34"/>
</g>
<!-- Node14&#45;&gt;Node2 -->
<g id="edge26" class="edge">
<title>Node14&#45;&gt;Node2</title>
<path fill="none" stroke="midnightblue" d="M465.16,-566.14C485.6,-583.09 521.6,-609.53 558,-620 629.33,-640.52 657.71,-651.33 725,-620 764.24,-601.73 792.48,-556.99 806.01,-531.53"/>
<polygon fill="midnightblue" stroke="midnightblue" points="809.18,-533.01 810.61,-522.51 802.95,-529.83 809.18,-533.01"/>
</g>
<!-- Node14&#45;&gt;Node5 -->
<g id="edge29" class="edge">
<title>Node14&#45;&gt;Node5</title>
<path fill="none" stroke="midnightblue" d="M459.36,-535.99C487.13,-499.33 556.31,-408.09 558,-407 622.01,-365.62 651.15,-386.87 725,-368 740.32,-364.09 757.02,-359.53 771.84,-355.38"/>
<polygon fill="midnightblue" stroke="midnightblue" points="773.07,-358.67 781.75,-352.59 771.18,-351.93 773.07,-358.67"/>
</g>
<!-- Node14&#45;&gt;Node12 -->
<g id="edge27" class="edge">
<title>Node14&#45;&gt;Node12</title>
<path fill="none" stroke="midnightblue" d="M513.71,-566.02C530.19,-569.79 548,-573.86 564.92,-577.72"/>
<polygon fill="midnightblue" stroke="midnightblue" points="564.23,-581.16 574.76,-579.97 565.79,-574.33 564.23,-581.16"/>
</g>
<!-- Node14&#45;&gt;Node13 -->
<g id="edge28" class="edge">
<title>Node14&#45;&gt;Node13</title>
<path fill="none" stroke="midnightblue" d="M515.6,-551C527.99,-551 541.09,-551 553.94,-551"/>
<polygon fill="midnightblue" stroke="midnightblue" points="554.19,-554.5 564.19,-551 554.19,-547.5 554.19,-554.5"/>
</g>
<!-- Node15&#45;&gt;Node2 -->
<g id="edge32" class="edge">
<title>Node15&#45;&gt;Node2</title>
<path fill="none" stroke="midnightblue" d="M706.12,-178.6C713.19,-181.95 719.72,-186.31 725,-192 777.54,-248.6 739.95,-287.69 761,-362 774.66,-410.22 795.81,-465.28 807.16,-493.73"/>
<polygon fill="midnightblue" stroke="midnightblue" points="804.01,-495.29 811,-503.26 810.51,-492.67 804.01,-495.29"/>
</g>
<!-- Node15&#45;&gt;Node5 -->
<g id="edge33" class="edge">
<title>Node15&#45;&gt;Node5</title>
<path fill="none" stroke="midnightblue" d="M706.17,-181.11C712.9,-184.04 719.34,-187.62 725,-192 770.12,-226.89 797.32,-291.3 808.73,-323.55"/>
<polygon fill="midnightblue" stroke="midnightblue" points="805.46,-324.82 811.99,-333.16 812.09,-322.57 805.46,-324.82"/>
</g>
<!-- Node16&#45;&gt;Node2 -->
<g id="edge35" class="edge">
<title>Node16&#45;&gt;Node2</title>
<path fill="none" stroke="midnightblue" d="M701.5,-705.84C709.99,-701.94 718.16,-697.07 725,-691 774.77,-646.85 800.53,-568.71 810.28,-532.47"/>
<polygon fill="midnightblue" stroke="midnightblue" points="813.71,-533.21 812.8,-522.65 806.93,-531.46 813.71,-533.21"/>
</g>
<!-- Node16&#45;&gt;Node5 -->
<g id="edge36" class="edge">
<title>Node16&#45;&gt;Node5</title>
<path fill="none" stroke="midnightblue" d="M658.47,-705.68C677,-687.07 707.28,-653.91 725,-620 751.98,-568.38 743.18,-549.45 761,-494 776.33,-446.29 796.8,-391.02 807.6,-362.41"/>
<polygon fill="midnightblue" stroke="midnightblue" points="810.96,-363.41 811.24,-352.82 804.42,-360.93 810.96,-363.41"/>
</g>
<!-- Node17&#45;&gt;Node2 -->
<g id="edge38" class="edge">
<title>Node17&#45;&gt;Node2</title>
<path fill="none" stroke="midnightblue" d="M661.71,-270.66C679.99,-280.66 707.26,-297.77 725,-319 770.94,-373.97 798.76,-456.29 809.67,-493.5"/>
<polygon fill="midnightblue" stroke="midnightblue" points="806.31,-494.47 812.41,-503.13 813.04,-492.55 806.31,-494.47"/>
</g>
<!-- Node17&#45;&gt;Node5 -->
<g id="edge39" class="edge">
<title>Node17&#45;&gt;Node5</title>
<path fill="none" stroke="midnightblue" d="M684.05,-270.56C697.42,-274.3 712.11,-279.12 725,-285 750.21,-296.49 776.56,-314.26 794.19,-327.1"/>
<polygon fill="midnightblue" stroke="midnightblue" points="792.44,-330.16 802.56,-333.31 796.61,-324.54 792.44,-330.16"/>
</g>
<!-- Node19 -->
<g id="node19" class="node">
<title>Node19</title>
<g id="a_node19"><a xlink:href="class_t_rail_graphics.html#aa2dace651659e084ec23c9961f5819b1" target="_top" xlink:title=" ">
<polygon fill="white" stroke="black" points="559,-202 559,-232 724,-232 724,-202 559,-202"/>
<text text-anchor="start" x="567" y="-220" font-family="Helvetica,sans-Serif" font-size="10.00">TRailGraphics::ChangeForeground</text>
<text text-anchor="middle" x="641.5" y="-209" font-family="Helvetica,sans-Serif" font-size="10.00">Colour</text>
</a>
</g>
</g>
<!-- Node18&#45;&gt;Node19 -->
<g id="edge41" class="edge">
<title>Node18&#45;&gt;Node19</title>
<path fill="none" stroke="midnightblue" d="M336.39,-215.41C398.02,-215.73 483.79,-216.18 548.53,-216.52"/>
<polygon fill="midnightblue" stroke="midnightblue" points="548.72,-220.02 558.74,-216.57 548.75,-213.02 548.72,-220.02"/>
</g>
<!-- Node19&#45;&gt;Node2 -->
<g id="edge42" class="edge">
<title>Node19&#45;&gt;Node2</title>
<path fill="none" stroke="midnightblue" d="M712.14,-232.2C716.83,-234.95 721.2,-238.18 725,-242 764.32,-281.43 743.62,-309.1 761,-362 776.64,-409.61 796.99,-464.92 807.68,-493.57"/>
<polygon fill="midnightblue" stroke="midnightblue" points="804.5,-495.03 811.28,-503.17 811.05,-492.58 804.5,-495.03"/>
</g>
<!-- Node19&#45;&gt;Node5 -->
<g id="edge43" class="edge">
<title>Node19&#45;&gt;Node5</title>
<path fill="none" stroke="midnightblue" d="M705.4,-232.03C712.26,-234.84 718.95,-238.13 725,-242 759.11,-263.8 788.09,-302.03 803.38,-324.69"/>
<polygon fill="midnightblue" stroke="midnightblue" points="800.66,-326.91 809.07,-333.35 806.51,-323.07 800.66,-326.91"/>
</g>
</g>
</svg>
