<?xml version="1.0" encoding="UTF-8" standalone="no"?>
<!DOCTYPE svg PUBLIC "-//W3C//DTD SVG 1.1//EN"
 "http://www.w3.org/Graphics/SVG/1.1/DTD/svg11.dtd">
<!-- Generated by graphviz version 2.44.1 (20200629.0800)
 -->
<!-- Title: TOnePrefDir::ConsolidatePrefDirs Pages: 1 -->
<svg width="310pt" height="88pt"
 viewBox="0.00 0.00 310.00 88.00" xmlns="http://www.w3.org/2000/svg" xmlns:xlink="http://www.w3.org/1999/xlink">
<g id="graph0" class="graph" transform="scale(1 1) rotate(0) translate(4 84)">
<title>TOnePrefDir::ConsolidatePrefDirs</title>
<polygon fill="white" stroke="transparent" points="-4,4 -4,-84 306,-84 306,4 -4,4"/>
<!-- Node1 -->
<g id="node1" class="node">
<title>Node1</title>
<g id="a_node1"><a xlink:title="Used when a preferred direction has been set to add all the elements to EveryPrefDir,...">
<polygon fill="#bfbfbf" stroke="black" points="176,-24.5 176,-54.5 302,-54.5 302,-24.5 176,-24.5"/>
<text text-anchor="start" x="184" y="-42.5" font-family="Helvetica,sans-Serif" font-size="10.00">TOnePrefDir::Consolidate</text>
<text text-anchor="middle" x="239" y="-31.5" font-family="Helvetica,sans-Serif" font-size="10.00">PrefDirs</text>
</a>
</g>
</g>
<!-- Node2 -->
<g id="node2" class="node">
<title>Node2</title>
<g id="a_node2"><a xlink:href="class_t_interface.html#a1b1a4260e251c9bd5f48fd6c3432e7a5" target="_top" xlink:title=" ">
<polygon fill="white" stroke="black" points="0,-49.5 0,-79.5 140,-79.5 140,-49.5 0,-49.5"/>
<text text-anchor="start" x="8" y="-67.5" font-family="Helvetica,sans-Serif" font-size="10.00">TInterface::AddPrefDirButton</text>
<text text-anchor="middle" x="70" y="-56.5" font-family="Helvetica,sans-Serif" font-size="10.00">Click</text>
</a>
</g>
</g>
<!-- Node1&#45;&gt;Node2 -->
<g id="edge1" class="edge">
<title>Node1&#45;&gt;Node2</title>
<path fill="none" stroke="midnightblue" d="M165.92,-50.29C157.4,-51.57 148.73,-52.86 140.26,-54.13"/>
<polygon fill="midnightblue" stroke="midnightblue" points="166.44,-53.75 175.82,-48.81 165.41,-46.83 166.44,-53.75"/>
</g>
<!-- Node3 -->
<g id="node3" class="node">
<title>Node3</title>
<g id="a_node3"><a xlink:href="class_t_interface.html#a8ed3d3631b2d3235f1e011d595909eec" target="_top" xlink:title=" ">
<polygon fill="white" stroke="black" points="4.5,-0.5 4.5,-30.5 135.5,-30.5 135.5,-0.5 4.5,-0.5"/>
<text text-anchor="start" x="12.5" y="-18.5" font-family="Helvetica,sans-Serif" font-size="10.00">TInterface::SelectBiDirPref</text>
<text text-anchor="middle" x="70" y="-7.5" font-family="Helvetica,sans-Serif" font-size="10.00">DirsMenuItemClick</text>
</a>
</g>
</g>
<!-- Node1&#45;&gt;Node3 -->
<g id="edge2" class="edge">
<title>Node1&#45;&gt;Node3</title>
<path fill="none" stroke="midnightblue" d="M165.89,-29.14C155.87,-27.7 145.62,-26.22 135.75,-24.81"/>
<polygon fill="midnightblue" stroke="midnightblue" points="165.42,-32.61 175.82,-30.56 166.41,-25.68 165.42,-32.61"/>
</g>
</g>
</svg>
