<?xml version="1.0" encoding="UTF-8" standalone="no"?>
<!DOCTYPE svg PUBLIC "-//W3C//DTD SVG 1.1//EN"
 "http://www.w3.org/Graphics/SVG/1.1/DTD/svg11.dtd">
<!-- Generated by graphviz version 2.44.1 (20200629.0800)
 -->
<!-- Title: TAllRoutes::RemoveRouteElement Pages: 1 -->
<!--zoomable 520 -->
<svg id="main" version="1.1" xmlns="http://www.w3.org/2000/svg" xmlns:xlink="http://www.w3.org/1999/xlink" xml:space="preserve" onload="init(evt)">
<style type="text/css"><![CDATA[
.edge:hover path { stroke: red; }
.edge:hover polygon { stroke: red; fill: red; }
]]></style>
<script type="text/javascript"><![CDATA[
var edges = document.getElementsByTagName('g');
if (edges && edges.length) {
  for (var i=0;i<edges.length;i++) {
    if (edges[i].id.substr(0,4)=='edge') {
      edges[i].setAttribute('class','edge');
    }
  }
}
]]></script>
        <defs>
                <circle id="rim" cx="0" cy="0" r="7"/>
                <circle id="rim2" cx="0" cy="0" r="3.5"/>
                <g id="zoomPlus">
                        <use xlink:href="#rim" fill="#404040">
                                <set attributeName="fill" to="#808080" begin="zoomplus.mouseover" end="zoomplus.mouseout"/>
                        </use>
                        <path d="M-4,0h8M0,-4v8" fill="none" stroke="white" stroke-width="1.5" pointer-events="none"/>
                </g>
                <g id="zoomMin">
                        <use xlink:href="#rim" fill="#404040">
                                <set attributeName="fill" to="#808080" begin="zoomminus.mouseover" end="zoomminus.mouseout"/>
                        </use>
                        <path d="M-4,0h8" fill="none" stroke="white" stroke-width="1.5" pointer-events="none"/>
                </g>
                <g id="dirArrow">
                        <path fill="none" stroke="white" stroke-width="1.5" d="M0,-3.0v7 M-2.5,-0.5L0,-3.0L2.5,-0.5"/>
                </g>
               <g id="resetDef">
                       <use xlink:href="#rim2" fill="#404040">
                               <set attributeName="fill" to="#808080" begin="reset.mouseover" end="reset.mouseout"/>
                       </use>
               </g>
        </defs>

<script type="text/javascript">
var viewWidth = 1615;
var viewHeight = 520;
var sectionId = 'dynsection-49';
</script>
<script xlink:href="svgpan.js"/>
<svg id="graph" class="graph">
<g id="viewport">
<title>TAllRoutes::RemoveRouteElement</title>
<polygon fill="white" stroke="transparent" points="-4,4 -4,-515.5 1611,-515.5 1611,4 -4,4"/>
<!-- Node1 -->
<g id="node1" class="node">
<title>Node1</title>
<g id="a_node1"><a xlink:title="Erases the route element from Route2MultiMap and from the PrefDirVector.">
<polygon fill="#bfbfbf" stroke="black" points="1441,-236 1441,-255 1607,-255 1607,-236 1441,-236"/>
<text text-anchor="middle" x="1524" y="-243" font-family="Helvetica,sans-Serif" font-size="10.00">TAllRoutes::RemoveRouteElement</text>
</a>
</g>
</g>
<!-- Node2 -->
<g id="node2" class="node">
<title>Node2</title>
<g id="a_node2"><a xlink:href="class_t_train_controller.html#aa895b60238810a9d134cd5b9c886da56" target="_top" xlink:title="Introduce a new train to the railway, with the characteristics specified, returns true for success,...">
<polygon fill="white" stroke="black" points="886,-400 886,-419 1014,-419 1014,-400 886,-400"/>
<text text-anchor="middle" x="950" y="-407" font-family="Helvetica,sans-Serif" font-size="10.00">TTrainController::AddTrain</text>
</a>
</g>
</g>
<!-- Node1&#45;&gt;Node2 -->
<g id="edge1" class="edge">
<title>Node1&#45;&gt;Node2</title>
<path fill="none" stroke="midnightblue" d="M1513.51,-263.83C1496.5,-294.53 1457.6,-355.51 1405,-381.5 1273.49,-446.47 1093.8,-431.9 1005.09,-419.01"/>
<polygon fill="midnightblue" stroke="midnightblue" points="1516.6,-265.48 1518.26,-255.01 1510.44,-262.16 1516.6,-265.48"/>
</g>
<!-- Node4 -->
<g id="node4" class="node">
<title>Node4</title>
<g id="a_node4"><a xlink:href="class_t_train.html#a89ad640ecf8f5163c40727b4e28575fc" target="_top" xlink:title="Major function called at each clock tick for each train &amp; handles all train movement &amp; associated act...">
<polygon fill="white" stroke="black" points="514.5,-350 514.5,-369 615.5,-369 615.5,-350 514.5,-350"/>
<text text-anchor="middle" x="565" y="-357" font-family="Helvetica,sans-Serif" font-size="10.00">TTrain::UpdateTrain</text>
</a>
</g>
</g>
<!-- Node1&#45;&gt;Node4 -->
<g id="edge33" class="edge">
<title>Node1&#45;&gt;Node4</title>
<path fill="none" stroke="midnightblue" d="M1484.56,-258.3C1415.98,-279.95 1267.64,-321.5 1139,-321.5 1139,-321.5 1139,-321.5 949,-321.5 828.89,-321.5 688.63,-340.23 615.73,-351.39"/>
<polygon fill="midnightblue" stroke="midnightblue" points="1486.02,-261.5 1494.48,-255.13 1483.89,-254.84 1486.02,-261.5"/>
</g>
<!-- Node6 -->
<g id="node6" class="node">
<title>Node6</title>
<g id="a_node6"><a xlink:href="class_t_interface.html#a6139ffb52492eb89e5487a8a3cd647b5" target="_top" xlink:title="The main loop, called every clock tick via MasterClockTimer.">
<polygon fill="white" stroke="black" points="179,-305 179,-324 298,-324 298,-305 179,-305"/>
<text text-anchor="middle" x="238.5" y="-312" font-family="Helvetica,sans-Serif" font-size="10.00">TInterface::ClockTimer2</text>
</a>
</g>
</g>
<!-- Node1&#45;&gt;Node6 -->
<g id="edge23" class="edge">
<title>Node1&#45;&gt;Node6</title>
<path fill="none" stroke="midnightblue" d="M1514.66,-264.74C1498.52,-299.83 1459.7,-374.49 1405,-416.5 1305.44,-492.96 1264.54,-511.5 1139,-511.5 1139,-511.5 1139,-511.5 564,-511.5 417.69,-511.5 281.11,-363.35 247.41,-324"/>
<polygon fill="midnightblue" stroke="midnightblue" points="1518.04,-265.75 1518.94,-255.2 1511.66,-262.89 1518.04,-265.75"/>
</g>
<!-- Node9 -->
<g id="node9" class="node">
<title>Node9</title>
<g id="a_node9"><a xlink:href="class_t_interface.html#a0a89df44c20c9e2c096e66e2950c79a6" target="_top" xlink:title="Function that deals with approach locking during ClockTimer2 function.">
<polygon fill="white" stroke="black" points="495,-248 495,-267 635,-267 635,-248 495,-248"/>
<text text-anchor="middle" x="565" y="-255" font-family="Helvetica,sans-Serif" font-size="10.00">TInterface::ApproachLocking</text>
</a>
</g>
</g>
<!-- Node1&#45;&gt;Node9 -->
<g id="edge10" class="edge">
<title>Node1&#45;&gt;Node9</title>
<path fill="none" stroke="midnightblue" d="M1430.72,-245.5C1352.94,-245.5 1238.69,-245.5 1139,-245.5 1139,-245.5 1139,-245.5 949,-245.5 839.23,-245.5 711.86,-250.49 635.17,-254.03"/>
<polygon fill="midnightblue" stroke="midnightblue" points="1430.98,-249 1440.98,-245.5 1430.98,-242 1430.98,-249"/>
</g>
<!-- Node10 -->
<g id="node10" class="node">
<title>Node10</title>
<g id="a_node10"><a xlink:href="class_t_train.html#a406c172a0ba96802ada1aa04d78948d0" target="_top" xlink:title="Reverses the direction of motion of the train.">
<polygon fill="white" stroke="black" points="685.5,-274 685.5,-293 826.5,-293 826.5,-274 685.5,-274"/>
<text text-anchor="middle" x="756" y="-281" font-family="Helvetica,sans-Serif" font-size="10.00">TTrain::ChangeTrainDirection</text>
</a>
</g>
</g>
<!-- Node1&#45;&gt;Node10 -->
<g id="edge12" class="edge">
<title>Node1&#45;&gt;Node10</title>
<path fill="none" stroke="midnightblue" d="M1440.72,-256.13C1428.75,-257.42 1416.57,-258.6 1405,-259.5 1194.83,-275.83 945.43,-281.11 826.63,-282.77"/>
<polygon fill="midnightblue" stroke="midnightblue" points="1441.15,-259.6 1450.7,-255.02 1440.38,-252.64 1441.15,-259.6"/>
</g>
<!-- Node11 -->
<g id="node11" class="node">
<title>Node11</title>
<g id="a_node11"><a xlink:href="class_t_all_routes.html#ab23a53bd95aeb951108a004735b9a45e" target="_top" xlink:title="When attaching a new route section to an existing route, it is sometimes necessary to erase the origi...">
<polygon fill="white" stroke="black" points="1256,-148.5 1256,-178.5 1402,-178.5 1402,-148.5 1256,-148.5"/>
<text text-anchor="start" x="1264" y="-166.5" font-family="Helvetica,sans-Serif" font-size="10.00">TAllRoutes::ClearRouteDuring</text>
<text text-anchor="middle" x="1329" y="-155.5" font-family="Helvetica,sans-Serif" font-size="10.00">RouteBuildingAt</text>
</a>
</g>
</g>
<!-- Node1&#45;&gt;Node11 -->
<g id="edge14" class="edge">
<title>Node1&#45;&gt;Node11</title>
<path fill="none" stroke="midnightblue" d="M1492.57,-231.75C1468.82,-221.09 1434.93,-206.08 1405,-193.5 1393.11,-188.5 1380.07,-183.22 1368.26,-178.51"/>
<polygon fill="midnightblue" stroke="midnightblue" points="1491.22,-234.98 1501.78,-235.88 1494.09,-228.59 1491.22,-234.98"/>
</g>
<!-- Node14 -->
<g id="node14" class="node">
<title>Node14</title>
<g id="a_node14"><a xlink:href="class_t_interface.html#abf07d5edc1507de381825f17620748b2" target="_top" xlink:title="Called when mouse button clicked in zoom&#45;in mode.">
<polygon fill="white" stroke="black" points="877,-96.5 877,-126.5 1023,-126.5 1023,-96.5 877,-96.5"/>
<text text-anchor="start" x="885" y="-114.5" font-family="Helvetica,sans-Serif" font-size="10.00">TInterface::MainScreenMouse</text>
<text text-anchor="middle" x="950" y="-103.5" font-family="Helvetica,sans-Serif" font-size="10.00">Down2</text>
</a>
</g>
</g>
<!-- Node1&#45;&gt;Node14 -->
<g id="edge30" class="edge">
<title>Node1&#45;&gt;Node14</title>
<path fill="none" stroke="midnightblue" d="M1510.04,-227.83C1490.5,-202.75 1450.84,-157.77 1405,-138.5 1278.89,-85.48 1115.54,-91.86 1023.11,-101.52"/>
<polygon fill="midnightblue" stroke="midnightblue" points="1507.26,-229.95 1516.1,-235.79 1512.83,-225.71 1507.26,-229.95"/>
</g>
<!-- Node16 -->
<g id="node16" class="node">
<title>Node16</title>
<g id="a_node16"><a xlink:href="class_t_one_route.html#a36ba8adc8b4a47908ee4e1b8e75792ca" target="_top" xlink:title="Called after a preferred (i.e. preferred direction or automatic signals) route has been selected and ...">
<polygon fill="white" stroke="black" points="1068,-186.5 1068,-216.5 1208,-216.5 1208,-186.5 1068,-186.5"/>
<text text-anchor="start" x="1076" y="-204.5" font-family="Helvetica,sans-Serif" font-size="10.00">TOneRoute::ConvertAndAdd</text>
<text text-anchor="middle" x="1138" y="-193.5" font-family="Helvetica,sans-Serif" font-size="10.00">PreferredRouteSearchVector</text>
</a>
</g>
</g>
<!-- Node1&#45;&gt;Node16 -->
<g id="edge24" class="edge">
<title>Node1&#45;&gt;Node16</title>
<path fill="none" stroke="midnightblue" d="M1433.39,-234.81C1423.81,-233.69 1414.2,-232.56 1405,-231.5 1338.18,-223.77 1261.88,-215.19 1208.18,-209.19"/>
<polygon fill="midnightblue" stroke="midnightblue" points="1433.01,-238.29 1443.35,-235.99 1433.83,-231.34 1433.01,-238.29"/>
</g>
<!-- Node18 -->
<g id="node18" class="node">
<title>Node18</title>
<g id="a_node18"><a xlink:href="class_t_one_route.html#a491fff1e619a9dc79774acf85eed72a5" target="_top" xlink:title="Cancel a route immediately if a train occupies it when travelling in the wrong direction (or occupies...">
<polygon fill="white" stroke="black" points="1253,-353 1253,-372 1405,-372 1405,-353 1253,-353"/>
<text text-anchor="middle" x="1329" y="-360" font-family="Helvetica,sans-Serif" font-size="10.00">TOneRoute::ForceCancelRoute</text>
</a>
</g>
</g>
<!-- Node1&#45;&gt;Node18 -->
<g id="edge25" class="edge">
<title>Node1&#45;&gt;Node18</title>
<path fill="none" stroke="midnightblue" d="M1505.12,-261.97C1483,-281.64 1443.52,-314.53 1405,-335.5 1391.99,-342.58 1376.76,-348.46 1363.43,-352.9"/>
<polygon fill="midnightblue" stroke="midnightblue" points="1507.62,-264.42 1512.71,-255.13 1502.94,-259.22 1507.62,-264.42"/>
</g>
<!-- Node20 -->
<g id="node20" class="node">
<title>Node20</title>
<g id="a_node20"><a xlink:href="class_t_one_route.html#ae131609dd8248dae2d7b699ab8777202" target="_top" xlink:title="Examines the route to see whether the element at H &amp; V is in the route, and if not returns a ReturnFl...">
<polygon fill="white" stroke="black" points="1254,-49.5 1254,-79.5 1404,-79.5 1404,-49.5 1254,-49.5"/>
<text text-anchor="start" x="1262" y="-67.5" font-family="Helvetica,sans-Serif" font-size="10.00">TOneRoute::GetRouteTruncate</text>
<text text-anchor="middle" x="1329" y="-56.5" font-family="Helvetica,sans-Serif" font-size="10.00">Element</text>
</a>
</g>
</g>
<!-- Node1&#45;&gt;Node20 -->
<g id="edge29" class="edge">
<title>Node1&#45;&gt;Node20</title>
<path fill="none" stroke="midnightblue" d="M1512.94,-226.99C1495.08,-195.67 1454.94,-131.99 1405,-94.5 1397.15,-88.61 1387.98,-83.69 1378.81,-79.66"/>
<polygon fill="midnightblue" stroke="midnightblue" points="1510.02,-228.92 1517.95,-235.95 1516.13,-225.51 1510.02,-228.92"/>
</g>
<!-- Node21 -->
<g id="node21" class="node">
<title>Node21</title>
<g id="a_node21"><a xlink:href="class_t_train.html#affbb94aa088370056f8ca8c45a1fdd48" target="_top" xlink:title="Unplots &amp; replots train, which checks for facing signal and sets StoppedAtSignal if req&#39;d.">
<polygon fill="white" stroke="black" points="1259,-0.5 1259,-30.5 1399,-30.5 1399,-0.5 1259,-0.5"/>
<text text-anchor="start" x="1267" y="-18.5" font-family="Helvetica,sans-Serif" font-size="10.00">TTrain::SignallerChangeTrain</text>
<text text-anchor="middle" x="1329" y="-7.5" font-family="Helvetica,sans-Serif" font-size="10.00">Direction</text>
</a>
</g>
</g>
<!-- Node1&#45;&gt;Node21 -->
<g id="edge31" class="edge">
<title>Node1&#45;&gt;Node21</title>
<path fill="none" stroke="midnightblue" d="M1517.22,-226.08C1504.11,-185.37 1468.24,-90.66 1405,-39.5 1400.75,-36.06 1395.99,-33.11 1391,-30.58"/>
<polygon fill="midnightblue" stroke="midnightblue" points="1513.88,-227.12 1520.19,-235.63 1520.56,-225.04 1513.88,-227.12"/>
</g>
<!-- Node3 -->
<g id="node3" class="node">
<title>Node3</title>
<g id="a_node3"><a xlink:href="class_t_train.html#ad666fb061d1da7c44a72ec963c2098aa" target="_top" xlink:title="Carry out the actions needed when a train is to split from the front.">
<polygon fill="white" stroke="black" points="700,-388 700,-407 812,-407 812,-388 700,-388"/>
<text text-anchor="middle" x="756" y="-395" font-family="Helvetica,sans-Serif" font-size="10.00">TTrain::FrontTrainSplit</text>
</a>
</g>
</g>
<!-- Node2&#45;&gt;Node3 -->
<g id="edge2" class="edge">
<title>Node2&#45;&gt;Node3</title>
<path fill="none" stroke="midnightblue" d="M875.65,-404.92C854.55,-403.6 831.9,-402.18 812.1,-400.94"/>
<polygon fill="midnightblue" stroke="midnightblue" points="875.67,-408.42 885.87,-405.55 876.1,-401.44 875.67,-408.42"/>
</g>
<!-- Node5 -->
<g id="node5" class="node">
<title>Node5</title>
<g id="a_node5"><a xlink:href="class_t_train_controller.html#a20a1576dea1d86ed78fc5e9f46343481" target="_top" xlink:title="called every clock tick to introduce new trains and update existing trains">
<polygon fill="white" stroke="black" points="334,-350 334,-369 459,-369 459,-350 334,-350"/>
<text text-anchor="middle" x="396.5" y="-357" font-family="Helvetica,sans-Serif" font-size="10.00">TTrainController::Operate</text>
</a>
</g>
</g>
<!-- Node2&#45;&gt;Node5 -->
<g id="edge7" class="edge">
<title>Node2&#45;&gt;Node5</title>
<path fill="none" stroke="midnightblue" d="M923.04,-423.75C901.72,-434.6 870.36,-448.63 841,-454.5 766.91,-469.32 745.5,-467.07 671,-454.5 572.37,-437.86 461.81,-389.68 417.47,-369.06"/>
<polygon fill="midnightblue" stroke="midnightblue" points="924.84,-426.76 932.09,-419.03 921.6,-420.55 924.84,-426.76"/>
</g>
<!-- Node8 -->
<g id="node8" class="node">
<title>Node8</title>
<g id="a_node8"><a xlink:href="class_t_train.html#ad64c5823265b0c611c2e5f0613317aa5" target="_top" xlink:title="Carry out the actions needed when a train is to split from the rear.">
<polygon fill="white" stroke="black" points="701,-426 701,-445 811,-445 811,-426 701,-426"/>
<text text-anchor="middle" x="756" y="-433" font-family="Helvetica,sans-Serif" font-size="10.00">TTrain::RearTrainSplit</text>
</a>
</g>
</g>
<!-- Node2&#45;&gt;Node8 -->
<g id="edge8" class="edge">
<title>Node2&#45;&gt;Node8</title>
<path fill="none" stroke="midnightblue" d="M875.8,-419.41C854.32,-422.32 831.22,-425.45 811.16,-428.17"/>
<polygon fill="midnightblue" stroke="midnightblue" points="876.43,-422.86 885.87,-418.05 875.49,-415.92 876.43,-422.86"/>
</g>
<!-- Node3&#45;&gt;Node4 -->
<g id="edge3" class="edge">
<title>Node3&#45;&gt;Node4</title>
<path fill="none" stroke="midnightblue" d="M697.26,-385.89C670.38,-380.49 638.8,-374.14 613.35,-369.02"/>
<polygon fill="midnightblue" stroke="midnightblue" points="696.81,-389.37 707.31,-387.91 698.19,-382.51 696.81,-389.37"/>
</g>
<!-- Node4&#45;&gt;Node5 -->
<g id="edge4" class="edge">
<title>Node4&#45;&gt;Node5</title>
<path fill="none" stroke="midnightblue" d="M504.09,-359.5C489.5,-359.5 473.88,-359.5 459.21,-359.5"/>
<polygon fill="midnightblue" stroke="midnightblue" points="504.5,-363 514.5,-359.5 504.5,-356 504.5,-363"/>
</g>
<!-- Node5&#45;&gt;Node6 -->
<g id="edge5" class="edge">
<title>Node5&#45;&gt;Node6</title>
<path fill="none" stroke="midnightblue" d="M352.71,-347.16C327.43,-339.86 295.9,-330.77 272.54,-324.03"/>
<polygon fill="midnightblue" stroke="midnightblue" points="351.84,-350.55 362.42,-349.96 353.78,-343.82 351.84,-350.55"/>
</g>
<!-- Node7 -->
<g id="node7" class="node">
<title>Node7</title>
<g id="a_node7"><a xlink:href="class_t_interface.html#ace30a12d923fc7fb489afabb0a09aa4f" target="_top" xlink:title=" ">
<polygon fill="white" stroke="black" points="0,-305 0,-324 143,-324 143,-305 0,-305"/>
<text text-anchor="middle" x="71.5" y="-312" font-family="Helvetica,sans-Serif" font-size="10.00">TInterface::MasterClockTimer</text>
</a>
</g>
</g>
<!-- Node6&#45;&gt;Node7 -->
<g id="edge6" class="edge">
<title>Node6&#45;&gt;Node7</title>
<path fill="none" stroke="midnightblue" d="M168.67,-314.5C160.22,-314.5 151.57,-314.5 143.09,-314.5"/>
<polygon fill="midnightblue" stroke="midnightblue" points="168.86,-318 178.86,-314.5 168.86,-311 168.86,-318"/>
</g>
<!-- Node8&#45;&gt;Node4 -->
<g id="edge9" class="edge">
<title>Node8&#45;&gt;Node4</title>
<path fill="none" stroke="midnightblue" d="M692.42,-423.36C685.11,-421.35 677.83,-419.07 671,-416.5 637.03,-403.72 600.43,-381.77 580.68,-369.17"/>
<polygon fill="midnightblue" stroke="midnightblue" points="691.81,-426.82 702.37,-425.93 693.56,-420.04 691.81,-426.82"/>
</g>
<!-- Node9&#45;&gt;Node6 -->
<g id="edge11" class="edge">
<title>Node9&#45;&gt;Node6</title>
<path fill="none" stroke="midnightblue" d="M499.53,-268.82C439.3,-279.4 350.4,-295.02 293.72,-304.98"/>
<polygon fill="midnightblue" stroke="midnightblue" points="500.44,-272.22 509.69,-267.04 499.23,-265.32 500.44,-272.22"/>
</g>
<!-- Node10&#45;&gt;Node4 -->
<g id="edge13" class="edge">
<title>Node10&#45;&gt;Node4</title>
<path fill="none" stroke="midnightblue" d="M706.39,-295.77C694.67,-299.17 682.27,-303.14 671,-307.5 638.94,-319.9 603.45,-338.59 583.03,-349.86"/>
<polygon fill="midnightblue" stroke="midnightblue" points="707.37,-299.13 716.04,-293.05 705.47,-292.39 707.37,-299.13"/>
</g>
<!-- Node12 -->
<g id="node12" class="node">
<title>Node12</title>
<g id="a_node12"><a xlink:href="class_t_one_route.html#a53496c398dcdb3a644801c4e74d47d01" target="_top" xlink:title="Called after a non&#45;preferred (i.e. unrestricted) route has been selected and has finished flashing,...">
<polygon fill="white" stroke="black" points="1059,-137.5 1059,-167.5 1217,-167.5 1217,-137.5 1059,-137.5"/>
<text text-anchor="start" x="1067" y="-155.5" font-family="Helvetica,sans-Serif" font-size="10.00">TOneRoute::ConvertAndAdd</text>
<text text-anchor="middle" x="1138" y="-144.5" font-family="Helvetica,sans-Serif" font-size="10.00">NonPreferredRouteSearchVector</text>
</a>
</g>
</g>
<!-- Node11&#45;&gt;Node12 -->
<g id="edge15" class="edge">
<title>Node11&#45;&gt;Node12</title>
<path fill="none" stroke="midnightblue" d="M1245.59,-158.7C1236.16,-158.15 1226.57,-157.6 1217.2,-157.05"/>
<polygon fill="midnightblue" stroke="midnightblue" points="1245.55,-162.21 1255.74,-159.29 1245.96,-155.22 1245.55,-162.21"/>
</g>
<!-- Node11&#45;&gt;Node16 -->
<g id="edge20" class="edge">
<title>Node11&#45;&gt;Node16</title>
<path fill="none" stroke="midnightblue" d="M1245.75,-180.04C1233.19,-182.56 1220.34,-185.15 1208.11,-187.61"/>
<polygon fill="midnightblue" stroke="midnightblue" points="1246.62,-183.43 1255.74,-178.03 1245.24,-176.57 1246.62,-183.43"/>
</g>
<!-- Node13 -->
<g id="node13" class="node">
<title>Node13</title>
<g id="a_node13"><a xlink:href="class_t_interface.html#a7e6535742855a19cb3e35b1711a7ab59" target="_top" xlink:title="Deal with any warning graphics that need to flash (call on, signal stop, crash etc),...">
<polygon fill="white" stroke="black" points="880,-148 880,-167 1020,-167 1020,-148 880,-148"/>
<text text-anchor="middle" x="950" y="-155" font-family="Helvetica,sans-Serif" font-size="10.00">TInterface::FlashingGraphics</text>
</a>
</g>
</g>
<!-- Node12&#45;&gt;Node13 -->
<g id="edge16" class="edge">
<title>Node12&#45;&gt;Node13</title>
<path fill="none" stroke="midnightblue" d="M1048.87,-154.87C1039.18,-155.13 1029.42,-155.39 1020,-155.65"/>
<polygon fill="midnightblue" stroke="midnightblue" points="1049.03,-158.37 1058.93,-154.6 1048.84,-151.37 1049.03,-158.37"/>
</g>
<!-- Node12&#45;&gt;Node14 -->
<g id="edge18" class="edge">
<title>Node12&#45;&gt;Node14</title>
<path fill="none" stroke="midnightblue" d="M1058.82,-135.27C1045.66,-132.37 1032.08,-129.37 1019.2,-126.53"/>
<polygon fill="midnightblue" stroke="midnightblue" points="1058.28,-138.73 1068.8,-137.47 1059.78,-131.9 1058.28,-138.73"/>
</g>
<!-- Node13&#45;&gt;Node6 -->
<g id="edge17" class="edge">
<title>Node13&#45;&gt;Node6</title>
<path fill="none" stroke="midnightblue" d="M869.76,-166.29C751.14,-180.84 521.31,-214.46 334,-274.5 307.53,-282.98 278.23,-295.98 259.38,-304.84"/>
<polygon fill="midnightblue" stroke="midnightblue" points="870.34,-169.74 879.84,-165.06 869.5,-162.79 870.34,-169.74"/>
</g>
<!-- Node15 -->
<g id="node15" class="node">
<title>Node15</title>
<g id="a_node15"><a xlink:href="class_t_interface.html#a7f37862fb9e01e1328d9fd3fd8c50094" target="_top" xlink:title=" ">
<polygon fill="white" stroke="black" points="671,-102 671,-121 841,-121 841,-102 671,-102"/>
<text text-anchor="middle" x="756" y="-109" font-family="Helvetica,sans-Serif" font-size="10.00">TInterface::MainScreenMouseDown</text>
</a>
</g>
</g>
<!-- Node14&#45;&gt;Node15 -->
<g id="edge19" class="edge">
<title>Node14&#45;&gt;Node15</title>
<path fill="none" stroke="midnightblue" d="M866.7,-111.5C858.22,-111.5 849.58,-111.5 841.08,-111.5"/>
<polygon fill="midnightblue" stroke="midnightblue" points="866.96,-115 876.96,-111.5 866.96,-108 866.96,-115"/>
</g>
<!-- Node16&#45;&gt;Node13 -->
<g id="edge21" class="edge">
<title>Node16&#45;&gt;Node13</title>
<path fill="none" stroke="midnightblue" d="M1063.46,-184.1C1038.84,-178.28 1012.31,-172 991.21,-167.01"/>
<polygon fill="midnightblue" stroke="midnightblue" points="1062.97,-187.58 1073.51,-186.48 1064.58,-180.77 1062.97,-187.58"/>
</g>
<!-- Node17 -->
<g id="node17" class="node">
<title>Node17</title>
<g id="a_node17"><a xlink:href="class_t_interface.html#aa639148521a793641e694b15486b5055" target="_top" xlink:title=" ">
<polygon fill="white" stroke="black" points="886,-186.5 886,-216.5 1014,-216.5 1014,-186.5 886,-186.5"/>
<text text-anchor="start" x="894" y="-204.5" font-family="Helvetica,sans-Serif" font-size="10.00">TInterface::PresetAutoSig</text>
<text text-anchor="middle" x="950" y="-193.5" font-family="Helvetica,sans-Serif" font-size="10.00">RoutesButtonClick</text>
</a>
</g>
</g>
<!-- Node16&#45;&gt;Node17 -->
<g id="edge22" class="edge">
<title>Node16&#45;&gt;Node17</title>
<path fill="none" stroke="midnightblue" d="M1057.33,-201.5C1042.91,-201.5 1028.05,-201.5 1014.17,-201.5"/>
<polygon fill="midnightblue" stroke="midnightblue" points="1057.74,-205 1067.74,-201.5 1057.74,-198 1057.74,-205"/>
</g>
<!-- Node19 -->
<g id="node19" class="node">
<title>Node19</title>
<g id="a_node19"><a xlink:href="class_t_train.html#a50997f7e8138a7e6a147fe3b5ad21b84" target="_top" xlink:title="Checks whether Element and EntryPos (where train is about to enter) is on an existing route (or cross...">
<polygon fill="white" stroke="black" points="1063.5,-350.5 1063.5,-380.5 1212.5,-380.5 1212.5,-350.5 1063.5,-350.5"/>
<text text-anchor="start" x="1071.5" y="-368.5" font-family="Helvetica,sans-Serif" font-size="10.00">TTrain::CheckAndCancelRoute</text>
<text text-anchor="middle" x="1138" y="-357.5" font-family="Helvetica,sans-Serif" font-size="10.00">ForWrongEndEntry</text>
</a>
</g>
</g>
<!-- Node18&#45;&gt;Node19 -->
<g id="edge26" class="edge">
<title>Node18&#45;&gt;Node19</title>
<path fill="none" stroke="midnightblue" d="M1242.48,-363.86C1232.56,-364.01 1222.5,-364.17 1212.75,-364.33"/>
<polygon fill="midnightblue" stroke="midnightblue" points="1242.82,-367.35 1252.76,-363.69 1242.7,-360.35 1242.82,-367.35"/>
</g>
<!-- Node19&#45;&gt;Node2 -->
<g id="edge27" class="edge">
<title>Node19&#45;&gt;Node2</title>
<path fill="none" stroke="midnightblue" d="M1063.46,-382.9C1038.84,-388.72 1012.31,-395 991.21,-399.99"/>
<polygon fill="midnightblue" stroke="midnightblue" points="1064.58,-386.23 1073.51,-380.52 1062.97,-379.42 1064.58,-386.23"/>
</g>
<!-- Node19&#45;&gt;Node4 -->
<g id="edge28" class="edge">
<title>Node19&#45;&gt;Node4</title>
<path fill="none" stroke="midnightblue" d="M1052.93,-364.62C932.2,-363.35 713.51,-361.05 615.66,-360.02"/>
<polygon fill="midnightblue" stroke="midnightblue" points="1053.19,-368.12 1063.23,-364.72 1053.27,-361.12 1053.19,-368.12"/>
</g>
<!-- Node22 -->
<g id="node22" class="node">
<title>Node22</title>
<g id="a_node22"><a xlink:href="class_t_interface.html#aaaf32c3c815553f7ba70698e0f0071bb" target="_top" xlink:title=" ">
<polygon fill="white" stroke="black" points="1070,-0.5 1070,-30.5 1206,-30.5 1206,-0.5 1070,-0.5"/>
<text text-anchor="start" x="1078" y="-18.5" font-family="Helvetica,sans-Serif" font-size="10.00">TInterface::ChangeDirection</text>
<text text-anchor="middle" x="1138" y="-7.5" font-family="Helvetica,sans-Serif" font-size="10.00">MenuItemClick</text>
</a>
</g>
</g>
<!-- Node21&#45;&gt;Node22 -->
<g id="edge32" class="edge">
<title>Node21&#45;&gt;Node22</title>
<path fill="none" stroke="midnightblue" d="M1248.77,-15.5C1234.64,-15.5 1220.03,-15.5 1206.27,-15.5"/>
<polygon fill="midnightblue" stroke="midnightblue" points="1248.96,-19 1258.96,-15.5 1248.96,-12 1248.96,-19"/>
</g>
</g>
</svg>
        <g id="navigator" transform="translate(0 0)" fill="#404254">
                <rect fill="#f2f5e9" fill-opacity="0.5" stroke="#606060" stroke-width=".5" x="0" y="0" width="60" height="60"/>
                <use id="zoomplus" xlink:href="#zoomPlus" x="17" y="9" onmousedown="handleZoom(evt,'in')"/>
                <use id="zoomminus" xlink:href="#zoomMin" x="42" y="9" onmousedown="handleZoom(evt,'out')"/>
                <use id="reset" xlink:href="#resetDef" x="30" y="36" onmousedown="handleReset()"/>
                <g id="arrowUp" xlink:href="#dirArrow" transform="translate(30 24)" onmousedown="handlePan(0,-1)">
                  <use xlink:href="#rim" fill="#404040">
                        <set attributeName="fill" to="#808080" begin="arrowUp.mouseover" end="arrowUp.mouseout"/>
                  </use>
                  <path fill="none" stroke="white" stroke-width="1.5" d="M0,-3.0v7 M-2.5,-0.5L0,-3.0L2.5,-0.5"/>
                </g>
                <g id="arrowRight" xlink:href="#dirArrow" transform="rotate(90) translate(36 -43)" onmousedown="handlePan(1,0)">
                  <use xlink:href="#rim" fill="#404040">
                        <set attributeName="fill" to="#808080" begin="arrowRight.mouseover" end="arrowRight.mouseout"/>
                  </use>
                  <path fill="none" stroke="white" stroke-width="1.5" d="M0,-3.0v7 M-2.5,-0.5L0,-3.0L2.5,-0.5"/>
                </g>
                <g id="arrowDown" xlink:href="#dirArrow" transform="rotate(180) translate(-30 -48)" onmousedown="handlePan(0,1)">
                  <use xlink:href="#rim" fill="#404040">
                        <set attributeName="fill" to="#808080" begin="arrowDown.mouseover" end="arrowDown.mouseout"/>
                  </use>
                  <path fill="none" stroke="white" stroke-width="1.5" d="M0,-3.0v7 M-2.5,-0.5L0,-3.0L2.5,-0.5"/>
                </g>
                <g id="arrowLeft" xlink:href="#dirArrow" transform="rotate(270) translate(-36 17)" onmousedown="handlePan(-1,0)">
                  <use xlink:href="#rim" fill="#404040">
                        <set attributeName="fill" to="#808080" begin="arrowLeft.mouseover" end="arrowLeft.mouseout"/>
                  </use>
                  <path fill="none" stroke="white" stroke-width="1.5" d="M0,-3.0v7 M-2.5,-0.5L0,-3.0L2.5,-0.5"/>
                </g>
        </g>
        <svg viewBox="0 0 15 15" width="100%" height="30px" preserveAspectRatio="xMaxYMin meet">
         <g id="arrow_out" transform="scale(0.3 0.3)">
          <a xlink:href="class_t_all_routes_aacbc3765d695c99cf64ad2826792508f_icgraph_org.svg" target="_base">
           <rect id="button" ry="5" rx="5" y="6" x="6" height="38" width="38"
                fill="#f2f5e9" fill-opacity="0.5" stroke="#606060" stroke-width="1.0"/>
           <path id="arrow"
             d="M 11.500037,31.436501 C 11.940474,20.09759 22.043105,11.32322 32.158766,21.979434 L 37.068811,17.246167 C 37.068811,17.246167 37.088388,32 37.088388,32 L 22.160133,31.978069 C 22.160133,31.978069 26.997745,27.140456 26.997745,27.140456 C 18.528582,18.264221 13.291696,25.230495 11.500037,31.436501 z"
             style="fill:#404040;"/>
          </a>
         </g>
        </svg>
</svg>
