<?xml version="1.0" encoding="UTF-8" standalone="no"?>
<!DOCTYPE svg PUBLIC "-//W3C//DTD SVG 1.1//EN"
 "http://www.w3.org/Graphics/SVG/1.1/DTD/svg11.dtd">
<!-- Generated by graphviz version 2.44.1 (20200629.0800)
 -->
<!-- Title: TTrain::PlotBackgroundGraphic Pages: 1 -->
<svg width="464pt" height="66pt"
 viewBox="0.00 0.00 464.00 66.00" xmlns="http://www.w3.org/2000/svg" xmlns:xlink="http://www.w3.org/1999/xlink">
<g id="graph0" class="graph" transform="scale(1 1) rotate(0) translate(4 62)">
<title>TTrain::PlotBackgroundGraphic</title>
<polygon fill="white" stroke="transparent" points="-4,4 -4,-62 460,-62 460,4 -4,4"/>
<!-- Node1 -->
<g id="node1" class="node">
<title>Node1</title>
<g id="a_node1"><a xlink:title="Replot the graphic pointed to by BackgroundPtr (see above) after a train has passed.">
<polygon fill="#bfbfbf" stroke="black" points="0,-19.5 0,-38.5 152,-38.5 152,-19.5 0,-19.5"/>
<text text-anchor="middle" x="76" y="-26.5" font-family="Helvetica,sans-Serif" font-size="10.00">TTrain::PlotBackgroundGraphic</text>
</a>
</g>
</g>
<!-- Node2 -->
<g id="node2" class="node">
<title>Node2</title>
<g id="a_node2"><a xlink:href="class_t_display.html#a9ab49e52c7eb92b32ae2c34547183439" target="_top" xlink:title="Plot the graphic at screen position HPos &amp; VPos.">
<polygon fill="white" stroke="black" points="195.5,-38.5 195.5,-57.5 302.5,-57.5 302.5,-38.5 195.5,-38.5"/>
<text text-anchor="middle" x="249" y="-45.5" font-family="Helvetica,sans-Serif" font-size="10.00">TDisplay::PlotOutput</text>
</a>
</g>
</g>
<!-- Node1&#45;&gt;Node2 -->
<g id="edge1" class="edge">
<title>Node1&#45;&gt;Node2</title>
<path fill="none" stroke="midnightblue" d="M152,-37.33C163.09,-38.57 174.41,-39.82 185.21,-41.02"/>
<polygon fill="midnightblue" stroke="midnightblue" points="185.06,-44.53 195.39,-42.15 185.83,-37.57 185.06,-44.53"/>
</g>
<!-- Node5 -->
<g id="node5" class="node">
<title>Node5</title>
<g id="a_node5"><a xlink:href="class_t_track.html#ad377e5a1f152f2e89832c0f9bcfd261f" target="_top" xlink:title="A range&#45;checked version of TrackElement.at(At)">
<polygon fill="white" stroke="black" points="188,-0.5 188,-19.5 310,-19.5 310,-0.5 188,-0.5"/>
<text text-anchor="middle" x="249" y="-7.5" font-family="Helvetica,sans-Serif" font-size="10.00">TTrack::TrackElementAt</text>
</a>
</g>
</g>
<!-- Node1&#45;&gt;Node5 -->
<g id="edge4" class="edge">
<title>Node1&#45;&gt;Node5</title>
<path fill="none" stroke="midnightblue" d="M152,-20.67C160.65,-19.71 169.43,-18.73 178.01,-17.78"/>
<polygon fill="midnightblue" stroke="midnightblue" points="178.4,-21.26 187.95,-16.67 177.62,-14.3 178.4,-21.26"/>
</g>
<!-- Node3 -->
<g id="node3" class="node">
<title>Node3</title>
<g id="a_node3"><a xlink:href="class_t_utilities.html#ae1eddca13cc3c492839e131f40ec21c0" target="_top" xlink:title="pops the last entry off the call stack, throws an error if called when empty">
<polygon fill="white" stroke="black" points="346,-38.5 346,-57.5 456,-57.5 456,-38.5 346,-38.5"/>
<text text-anchor="middle" x="401" y="-45.5" font-family="Helvetica,sans-Serif" font-size="10.00">TUtilities::CallLogPop</text>
</a>
</g>
</g>
<!-- Node2&#45;&gt;Node3 -->
<g id="edge2" class="edge">
<title>Node2&#45;&gt;Node3</title>
<path fill="none" stroke="midnightblue" d="M302.88,-48C313.43,-48 324.62,-48 335.5,-48"/>
<polygon fill="midnightblue" stroke="midnightblue" points="335.82,-51.5 345.82,-48 335.82,-44.5 335.82,-51.5"/>
</g>
<!-- Node4 -->
<g id="node4" class="node">
<title>Node4</title>
<g id="a_node4"><a xlink:href="class_t_utilities.html#a34bd6bb5305bc29afdf424f6d35a921c" target="_top" xlink:title="creates a string of the form &#39;hh:mm:ss&#39; for use in call &amp; event logging">
<polygon fill="white" stroke="black" points="346,-0.5 346,-19.5 456,-19.5 456,-0.5 346,-0.5"/>
<text text-anchor="middle" x="401" y="-7.5" font-family="Helvetica,sans-Serif" font-size="10.00">TUtilities::TimeStamp</text>
</a>
</g>
</g>
<!-- Node2&#45;&gt;Node4 -->
<g id="edge3" class="edge">
<title>Node2&#45;&gt;Node4</title>
<path fill="none" stroke="midnightblue" d="M287.85,-38.41C307.47,-33.44 331.62,-27.32 352.48,-22.04"/>
<polygon fill="midnightblue" stroke="midnightblue" points="353.59,-25.37 362.42,-19.52 351.87,-18.58 353.59,-25.37"/>
</g>
<!-- Node5&#45;&gt;Node3 -->
<g id="edge5" class="edge">
<title>Node5&#45;&gt;Node3</title>
<path fill="none" stroke="midnightblue" d="M287.85,-19.59C307.47,-24.56 331.62,-30.68 352.48,-35.96"/>
<polygon fill="midnightblue" stroke="midnightblue" points="351.87,-39.42 362.42,-38.48 353.59,-32.63 351.87,-39.42"/>
</g>
<!-- Node5&#45;&gt;Node4 -->
<g id="edge6" class="edge">
<title>Node5&#45;&gt;Node4</title>
<path fill="none" stroke="midnightblue" d="M310.15,-10C318.49,-10 327.09,-10 335.51,-10"/>
<polygon fill="midnightblue" stroke="midnightblue" points="335.66,-13.5 345.66,-10 335.66,-6.5 335.66,-13.5"/>
</g>
</g>
</svg>
