<?xml version="1.0" encoding="UTF-8" standalone="no"?>
<!DOCTYPE svg PUBLIC "-//W3C//DTD SVG 1.1//EN"
 "http://www.w3.org/Graphics/SVG/1.1/DTD/svg11.dtd">
<!-- Generated by graphviz version 2.44.1 (20200629.0800)
 -->
<!-- Title: TTrainController::EntryPos Pages: 1 -->
<svg width="470pt" height="75pt"
 viewBox="0.00 0.00 470.00 75.00" xmlns="http://www.w3.org/2000/svg" xmlns:xlink="http://www.w3.org/1999/xlink">
<g id="graph0" class="graph" transform="scale(1 1) rotate(0) translate(4 71)">
<title>TTrainController::EntryPos</title>
<polygon fill="white" stroke="transparent" points="-4,4 -4,-71 466,-71 466,4 -4,4"/>
<!-- Node1 -->
<g id="node1" class="node">
<title>Node1</title>
<g id="a_node1"><a xlink:title="Return the track entry link (Link[]) array position for the given train on track element at track vec...">
<polygon fill="#bfbfbf" stroke="black" points="0,-28.5 0,-47.5 131,-47.5 131,-28.5 0,-28.5"/>
<text text-anchor="middle" x="65.5" y="-35.5" font-family="Helvetica,sans-Serif" font-size="10.00">TTrainController::EntryPos</text>
</a>
</g>
</g>
<!-- Node2 -->
<g id="node2" class="node">
<title>Node2</title>
<g id="a_node2"><a xlink:href="class_t_utilities.html#ae1eddca13cc3c492839e131f40ec21c0" target="_top" xlink:title="pops the last entry off the call stack, throws an error if called when empty">
<polygon fill="white" stroke="black" points="352,-47.5 352,-66.5 462,-66.5 462,-47.5 352,-47.5"/>
<text text-anchor="middle" x="407" y="-54.5" font-family="Helvetica,sans-Serif" font-size="10.00">TUtilities::CallLogPop</text>
</a>
</g>
</g>
<!-- Node1&#45;&gt;Node2 -->
<g id="edge1" class="edge">
<title>Node1&#45;&gt;Node2</title>
<path fill="none" stroke="midnightblue" d="M107.33,-47.51C125.49,-51.28 147.2,-55.14 167,-57 225.89,-62.52 293.29,-61.89 341.48,-60.25"/>
<polygon fill="midnightblue" stroke="midnightblue" points="341.9,-63.74 351.76,-59.88 341.64,-56.74 341.9,-63.74"/>
</g>
<!-- Node3 -->
<g id="node3" class="node">
<title>Node3</title>
<g id="a_node3"><a xlink:href="class_t_utilities.html#a34bd6bb5305bc29afdf424f6d35a921c" target="_top" xlink:title="creates a string of the form &#39;hh:mm:ss&#39; for use in call &amp; event logging">
<polygon fill="white" stroke="black" points="352,-0.5 352,-19.5 462,-19.5 462,-0.5 352,-0.5"/>
<text text-anchor="middle" x="407" y="-7.5" font-family="Helvetica,sans-Serif" font-size="10.00">TUtilities::TimeStamp</text>
</a>
</g>
</g>
<!-- Node1&#45;&gt;Node3 -->
<g id="edge2" class="edge">
<title>Node1&#45;&gt;Node3</title>
<path fill="none" stroke="midnightblue" d="M109.32,-28.45C127.08,-24.87 147.94,-21.15 167,-19 225.81,-12.37 293.23,-10.33 341.43,-9.83"/>
<polygon fill="midnightblue" stroke="midnightblue" points="341.75,-13.33 351.72,-9.74 341.69,-6.33 341.75,-13.33"/>
</g>
<!-- Node4 -->
<g id="node4" class="node">
<title>Node4</title>
<g id="a_node4"><a xlink:href="class_t_train_controller.html#aa09adf9c442406cccc270d6703867a1d" target="_top" xlink:title="Return a reference to the train at position VecPos in the TrainVector, carries out range checking on ...">
<polygon fill="white" stroke="black" points="167,-28.5 167,-47.5 316,-47.5 316,-28.5 167,-28.5"/>
<text text-anchor="middle" x="241.5" y="-35.5" font-family="Helvetica,sans-Serif" font-size="10.00">TTrainController::TrainVectorAt</text>
</a>
</g>
</g>
<!-- Node1&#45;&gt;Node4 -->
<g id="edge3" class="edge">
<title>Node1&#45;&gt;Node4</title>
<path fill="none" stroke="midnightblue" d="M131.29,-38C139.62,-38 148.25,-38 156.83,-38"/>
<polygon fill="midnightblue" stroke="midnightblue" points="156.87,-41.5 166.87,-38 156.87,-34.5 156.87,-41.5"/>
</g>
<!-- Node4&#45;&gt;Node2 -->
<g id="edge4" class="edge">
<title>Node4&#45;&gt;Node2</title>
<path fill="none" stroke="midnightblue" d="M316.12,-46.56C324.68,-47.55 333.35,-48.56 341.77,-49.54"/>
<polygon fill="midnightblue" stroke="midnightblue" points="341.54,-53.03 351.88,-50.71 342.35,-46.08 341.54,-53.03"/>
</g>
<!-- Node4&#45;&gt;Node3 -->
<g id="edge5" class="edge">
<title>Node4&#45;&gt;Node3</title>
<path fill="none" stroke="midnightblue" d="M298.31,-28.44C312.23,-26.06 327.27,-23.48 341.57,-21.03"/>
<polygon fill="midnightblue" stroke="midnightblue" points="342.56,-24.42 351.82,-19.28 341.38,-17.52 342.56,-24.42"/>
</g>
</g>
</svg>
