<?xml version="1.0" encoding="UTF-8" standalone="no"?>
<!DOCTYPE svg PUBLIC "-//W3C//DTD SVG 1.1//EN"
 "http://www.w3.org/Graphics/SVG/1.1/DTD/svg11.dtd">
<!-- Generated by graphviz version 2.44.1 (20200629.0800)
 -->
<!-- Title: TTrain::PlotTrainGraphic Pages: 1 -->
<!--zoomable 299 -->
<svg id="main" version="1.1" xmlns="http://www.w3.org/2000/svg" xmlns:xlink="http://www.w3.org/1999/xlink" xml:space="preserve" onload="init(evt)">
<style type="text/css"><![CDATA[
.edge:hover path { stroke: red; }
.edge:hover polygon { stroke: red; fill: red; }
]]></style>
<script type="text/javascript"><![CDATA[
var edges = document.getElementsByTagName('g');
if (edges && edges.length) {
  for (var i=0;i<edges.length;i++) {
    if (edges[i].id.substr(0,4)=='edge') {
      edges[i].setAttribute('class','edge');
    }
  }
}
]]></script>
        <defs>
                <circle id="rim" cx="0" cy="0" r="7"/>
                <circle id="rim2" cx="0" cy="0" r="3.5"/>
                <g id="zoomPlus">
                        <use xlink:href="#rim" fill="#404040">
                                <set attributeName="fill" to="#808080" begin="zoomplus.mouseover" end="zoomplus.mouseout"/>
                        </use>
                        <path d="M-4,0h8M0,-4v8" fill="none" stroke="white" stroke-width="1.5" pointer-events="none"/>
                </g>
                <g id="zoomMin">
                        <use xlink:href="#rim" fill="#404040">
                                <set attributeName="fill" to="#808080" begin="zoomminus.mouseover" end="zoomminus.mouseout"/>
                        </use>
                        <path d="M-4,0h8" fill="none" stroke="white" stroke-width="1.5" pointer-events="none"/>
                </g>
                <g id="dirArrow">
                        <path fill="none" stroke="white" stroke-width="1.5" d="M0,-3.0v7 M-2.5,-0.5L0,-3.0L2.5,-0.5"/>
                </g>
               <g id="resetDef">
                       <use xlink:href="#rim2" fill="#404040">
                               <set attributeName="fill" to="#808080" begin="reset.mouseover" end="reset.mouseout"/>
                       </use>
               </g>
        </defs>

<script type="text/javascript">
var viewWidth = 768;
var viewHeight = 299;
var sectionId = 'dynsection-73';
</script>
<script xlink:href="svgpan.js"/>
<svg id="graph" class="graph">
<g id="viewport">
<title>TTrain::PlotTrainGraphic</title>
<polygon fill="white" stroke="transparent" points="-4,4 -4,-295.37 764,-295.37 764,4 -4,4"/>
<!-- Node1 -->
<g id="node1" class="node">
<title>Node1</title>
<g id="a_node1"><a xlink:title="Plot the train&#39;s headcode character corresponding to ArrayNumber.">
<polygon fill="#bfbfbf" stroke="black" points="0,-156.46 0,-175.46 121,-175.46 121,-156.46 0,-156.46"/>
<text text-anchor="middle" x="60.5" y="-163.46" font-family="Helvetica,sans-Serif" font-size="10.00">TTrain::PlotTrainGraphic</text>
</a>
</g>
</g>
<!-- Node2 -->
<g id="node2" class="node">
<title>Node2</title>
<g id="a_node2"><a xlink:href="class_t_utilities.html#ae1eddca13cc3c492839e131f40ec21c0" target="_top" xlink:title="pops the last entry off the call stack, throws an error if called when empty">
<polygon fill="white" stroke="black" points="650,-213.46 650,-232.46 760,-232.46 760,-213.46 650,-213.46"/>
<text text-anchor="middle" x="705" y="-220.46" font-family="Helvetica,sans-Serif" font-size="10.00">TUtilities::CallLogPop</text>
</a>
</g>
</g>
<!-- Node1&#45;&gt;Node2 -->
<g id="edge1" class="edge">
<title>Node1&#45;&gt;Node2</title>
<path fill="none" stroke="midnightblue" d="M75.2,-175.62C93.28,-188.05 126.4,-209.72 157,-223.96 227.59,-256.82 246.17,-267.35 323,-279.96 451.02,-300.98 488.64,-290.36 614,-256.96 633.97,-251.65 655.66,-243.53 672.74,-236.56"/>
<polygon fill="midnightblue" stroke="midnightblue" points="674.33,-239.69 682.22,-232.61 671.64,-233.22 674.33,-239.69"/>
</g>
<!-- Node3 -->
<g id="node3" class="node">
<title>Node3</title>
<g id="a_node3"><a xlink:href="class_t_display.html#a9ab49e52c7eb92b32ae2c34547183439" target="_top" xlink:title="Plot the graphic at screen position HPos &amp; VPos.">
<polygon fill="white" stroke="black" points="507,-23.46 507,-42.46 614,-42.46 614,-23.46 507,-23.46"/>
<text text-anchor="middle" x="560.5" y="-30.46" font-family="Helvetica,sans-Serif" font-size="10.00">TDisplay::PlotOutput</text>
</a>
</g>
</g>
<!-- Node1&#45;&gt;Node3 -->
<g id="edge2" class="edge">
<title>Node1&#45;&gt;Node3</title>
<path fill="none" stroke="midnightblue" d="M92.77,-156.37C141.68,-141.47 239.38,-112.18 323,-89.96 386.26,-73.16 459.6,-55.81 507.63,-44.74"/>
<polygon fill="midnightblue" stroke="midnightblue" points="508.52,-48.12 517.49,-42.47 506.96,-41.3 508.52,-48.12"/>
</g>
<!-- Node4 -->
<g id="node4" class="node">
<title>Node4</title>
<g id="a_node4"><a xlink:href="class_t_utilities.html#a34bd6bb5305bc29afdf424f6d35a921c" target="_top" xlink:title="creates a string of the form &#39;hh:mm:ss&#39; for use in call &amp; event logging">
<polygon fill="white" stroke="black" points="650,-23.46 650,-42.46 760,-42.46 760,-23.46 650,-23.46"/>
<text text-anchor="middle" x="705" y="-30.46" font-family="Helvetica,sans-Serif" font-size="10.00">TUtilities::TimeStamp</text>
</a>
</g>
</g>
<!-- Node1&#45;&gt;Node4 -->
<g id="edge16" class="edge">
<title>Node1&#45;&gt;Node4</title>
<path fill="none" stroke="midnightblue" d="M72.16,-156.33C89.01,-141.58 123.35,-113.37 157,-96.96 301.58,-26.49 347.27,-23.8 507,-4.96 554.23,0.6 566.98,2.18 614,-4.96 633.02,-7.86 653.56,-14 670.21,-19.8"/>
<polygon fill="midnightblue" stroke="midnightblue" points="669.43,-23.23 680.02,-23.33 671.8,-16.65 669.43,-23.23"/>
</g>
<!-- Node5 -->
<g id="node5" class="node">
<title>Node5</title>
<g id="a_node5"><a xlink:href="class_t_train.html#a0e0ab54415645b04cbdeadd829d27898" target="_top" xlink:title="When a train moves onto an element that element has its TrainIDOnElement value set to the TrainID val...">
<polygon fill="white" stroke="black" points="157,-156.46 157,-175.46 287,-175.46 287,-156.46 157,-156.46"/>
<text text-anchor="middle" x="222" y="-163.46" font-family="Helvetica,sans-Serif" font-size="10.00">TTrain::SetTrainElementID</text>
</a>
</g>
</g>
<!-- Node1&#45;&gt;Node5 -->
<g id="edge5" class="edge">
<title>Node1&#45;&gt;Node5</title>
<path fill="none" stroke="midnightblue" d="M121.35,-165.96C129.58,-165.96 138.11,-165.96 146.57,-165.96"/>
<polygon fill="midnightblue" stroke="midnightblue" points="146.82,-169.46 156.82,-165.96 146.82,-162.46 146.82,-169.46"/>
</g>
<!-- Node8 -->
<g id="node8" class="node">
<title>Node8</title>
<g id="a_node8"><a xlink:href="class_t_track.html#ad377e5a1f152f2e89832c0f9bcfd261f" target="_top" xlink:title="A range&#45;checked version of TrackElement.at(At)">
<polygon fill="white" stroke="black" points="336,-251.46 336,-270.46 458,-270.46 458,-251.46 336,-251.46"/>
<text text-anchor="middle" x="397" y="-258.46" font-family="Helvetica,sans-Serif" font-size="10.00">TTrack::TrackElementAt</text>
</a>
</g>
</g>
<!-- Node1&#45;&gt;Node8 -->
<g id="edge17" class="edge">
<title>Node1&#45;&gt;Node8</title>
<path fill="none" stroke="midnightblue" d="M95.1,-175.51C156.09,-192.83 284.91,-229.42 352.51,-248.61"/>
<polygon fill="midnightblue" stroke="midnightblue" points="351.84,-252.06 362.42,-251.43 353.75,-245.33 351.84,-252.06"/>
</g>
<!-- Node3&#45;&gt;Node2 -->
<g id="edge3" class="edge">
<title>Node3&#45;&gt;Node2</title>
<path fill="none" stroke="midnightblue" d="M571.26,-42.65C582.18,-53.69 600.14,-72.45 614,-89.96 644.98,-129.1 676.64,-178.54 692.88,-204.73"/>
<polygon fill="midnightblue" stroke="midnightblue" points="689.92,-206.59 698.14,-213.27 695.88,-202.92 689.92,-206.59"/>
</g>
<!-- Node3&#45;&gt;Node4 -->
<g id="edge4" class="edge">
<title>Node3&#45;&gt;Node4</title>
<path fill="none" stroke="midnightblue" d="M614.16,-32.96C622.39,-32.96 630.97,-32.96 639.43,-32.96"/>
<polygon fill="midnightblue" stroke="midnightblue" points="639.65,-36.46 649.65,-32.96 639.65,-29.46 639.65,-36.46"/>
</g>
<!-- Node5&#45;&gt;Node2 -->
<g id="edge6" class="edge">
<title>Node5&#45;&gt;Node2</title>
<path fill="none" stroke="midnightblue" d="M287.37,-173.59C379.41,-184.5 547.62,-204.43 639.64,-215.34"/>
<polygon fill="midnightblue" stroke="midnightblue" points="639.32,-218.82 649.66,-216.53 640.15,-211.87 639.32,-218.82"/>
</g>
<!-- Node5&#45;&gt;Node4 -->
<g id="edge12" class="edge">
<title>Node5&#45;&gt;Node4</title>
<path fill="none" stroke="midnightblue" d="M233.73,-156.3C251.37,-140.79 288.01,-110.04 323,-89.96 399.75,-45.94 420.21,-31.18 507,-13.96 558.58,-3.73 618.89,-12.52 659.06,-21.25"/>
<polygon fill="midnightblue" stroke="midnightblue" points="658.29,-24.66 668.82,-23.46 659.84,-17.84 658.29,-24.66"/>
</g>
<!-- Node6 -->
<g id="node6" class="node">
<title>Node6</title>
<g id="a_node6"><a xlink:href="class_t_graphic_element.html#ad9e23ba031b1110126227d301b59ffc7" target="_top" xlink:title="Plot the original graphic on screen.">
<polygon fill="white" stroke="black" points="323,-99.46 323,-118.46 471,-118.46 471,-99.46 323,-99.46"/>
<text text-anchor="middle" x="397" y="-106.46" font-family="Helvetica,sans-Serif" font-size="10.00">TGraphicElement::PlotOriginal</text>
</a>
</g>
</g>
<!-- Node5&#45;&gt;Node6 -->
<g id="edge7" class="edge">
<title>Node5&#45;&gt;Node6</title>
<path fill="none" stroke="midnightblue" d="M251.96,-156.42C280.77,-146.93 325.18,-132.3 357.07,-121.79"/>
<polygon fill="midnightblue" stroke="midnightblue" points="358.55,-124.99 366.95,-118.54 356.36,-118.34 358.55,-124.99"/>
</g>
<!-- Node5&#45;&gt;Node8 -->
<g id="edge13" class="edge">
<title>Node5&#45;&gt;Node8</title>
<path fill="none" stroke="midnightblue" d="M234.27,-175.71C252.06,-190.67 288.22,-219.4 323,-236.96 331.57,-241.29 341.1,-245.08 350.36,-248.3"/>
<polygon fill="midnightblue" stroke="midnightblue" points="349.28,-251.63 359.87,-251.44 351.47,-244.98 349.28,-251.63"/>
</g>
<!-- Node6&#45;&gt;Node2 -->
<g id="edge8" class="edge">
<title>Node6&#45;&gt;Node2</title>
<path fill="none" stroke="midnightblue" d="M423.56,-118.49C478.24,-138.86 606.61,-186.68 668.89,-209.88"/>
<polygon fill="midnightblue" stroke="midnightblue" points="667.7,-213.18 678.29,-213.39 670.15,-206.62 667.7,-213.18"/>
</g>
<!-- Node6&#45;&gt;Node3 -->
<g id="edge9" class="edge">
<title>Node6&#45;&gt;Node3</title>
<path fill="none" stroke="midnightblue" d="M418.04,-99.28C439.87,-88.76 475.85,-71.52 507,-56.96 514.05,-53.67 521.66,-50.16 528.84,-46.88"/>
<polygon fill="midnightblue" stroke="midnightblue" points="530.62,-49.91 538.26,-42.58 527.71,-43.55 530.62,-49.91"/>
</g>
<!-- Node6&#45;&gt;Node4 -->
<g id="edge10" class="edge">
<title>Node6&#45;&gt;Node4</title>
<path fill="none" stroke="midnightblue" d="M436.45,-99.42C492.1,-85.59 595.06,-60.02 655.75,-44.95"/>
<polygon fill="midnightblue" stroke="midnightblue" points="656.61,-48.34 665.47,-42.53 654.92,-41.55 656.61,-48.34"/>
</g>
<!-- Node7 -->
<g id="node7" class="node">
<title>Node7</title>
<g id="a_node7"><a xlink:href="class_t_display.html#aa4f37ab2a4df6437a2219f303e1de40b" target="_top" xlink:title="Repaint the screen display.">
<polygon fill="white" stroke="black" points="515,-99.46 515,-118.46 606,-118.46 606,-99.46 515,-99.46"/>
<text text-anchor="middle" x="560.5" y="-106.46" font-family="Helvetica,sans-Serif" font-size="10.00">TDisplay::Update</text>
</a>
</g>
</g>
<!-- Node6&#45;&gt;Node7 -->
<g id="edge11" class="edge">
<title>Node6&#45;&gt;Node7</title>
<path fill="none" stroke="midnightblue" d="M471.19,-108.96C482.45,-108.96 493.9,-108.96 504.67,-108.96"/>
<polygon fill="midnightblue" stroke="midnightblue" points="504.75,-112.46 514.75,-108.96 504.75,-105.46 504.75,-112.46"/>
</g>
<!-- Node8&#45;&gt;Node2 -->
<g id="edge14" class="edge">
<title>Node8&#45;&gt;Node2</title>
<path fill="none" stroke="midnightblue" d="M458.14,-254.99C501.52,-250.51 561.45,-243.97 614,-236.96 622.34,-235.85 631.09,-234.6 639.74,-233.31"/>
<polygon fill="midnightblue" stroke="midnightblue" points="640.44,-236.74 649.8,-231.79 639.39,-229.82 640.44,-236.74"/>
</g>
<!-- Node8&#45;&gt;Node4 -->
<g id="edge15" class="edge">
<title>Node8&#45;&gt;Node4</title>
<path fill="none" stroke="midnightblue" d="M416.99,-251.44C455.98,-231.44 547,-182.38 614,-127.96 643.63,-103.9 673.13,-70.51 689.91,-50.39"/>
<polygon fill="midnightblue" stroke="midnightblue" points="692.63,-52.6 696.29,-42.65 687.23,-48.15 692.63,-52.6"/>
</g>
</g>
</svg>
        <g id="navigator" transform="translate(0 0)" fill="#404254">
                <rect fill="#f2f5e9" fill-opacity="0.5" stroke="#606060" stroke-width=".5" x="0" y="0" width="60" height="60"/>
                <use id="zoomplus" xlink:href="#zoomPlus" x="17" y="9" onmousedown="handleZoom(evt,'in')"/>
                <use id="zoomminus" xlink:href="#zoomMin" x="42" y="9" onmousedown="handleZoom(evt,'out')"/>
                <use id="reset" xlink:href="#resetDef" x="30" y="36" onmousedown="handleReset()"/>
                <g id="arrowUp" xlink:href="#dirArrow" transform="translate(30 24)" onmousedown="handlePan(0,-1)">
                  <use xlink:href="#rim" fill="#404040">
                        <set attributeName="fill" to="#808080" begin="arrowUp.mouseover" end="arrowUp.mouseout"/>
                  </use>
                  <path fill="none" stroke="white" stroke-width="1.5" d="M0,-3.0v7 M-2.5,-0.5L0,-3.0L2.5,-0.5"/>
                </g>
                <g id="arrowRight" xlink:href="#dirArrow" transform="rotate(90) translate(36 -43)" onmousedown="handlePan(1,0)">
                  <use xlink:href="#rim" fill="#404040">
                        <set attributeName="fill" to="#808080" begin="arrowRight.mouseover" end="arrowRight.mouseout"/>
                  </use>
                  <path fill="none" stroke="white" stroke-width="1.5" d="M0,-3.0v7 M-2.5,-0.5L0,-3.0L2.5,-0.5"/>
                </g>
                <g id="arrowDown" xlink:href="#dirArrow" transform="rotate(180) translate(-30 -48)" onmousedown="handlePan(0,1)">
                  <use xlink:href="#rim" fill="#404040">
                        <set attributeName="fill" to="#808080" begin="arrowDown.mouseover" end="arrowDown.mouseout"/>
                  </use>
                  <path fill="none" stroke="white" stroke-width="1.5" d="M0,-3.0v7 M-2.5,-0.5L0,-3.0L2.5,-0.5"/>
                </g>
                <g id="arrowLeft" xlink:href="#dirArrow" transform="rotate(270) translate(-36 17)" onmousedown="handlePan(-1,0)">
                  <use xlink:href="#rim" fill="#404040">
                        <set attributeName="fill" to="#808080" begin="arrowLeft.mouseover" end="arrowLeft.mouseout"/>
                  </use>
                  <path fill="none" stroke="white" stroke-width="1.5" d="M0,-3.0v7 M-2.5,-0.5L0,-3.0L2.5,-0.5"/>
                </g>
        </g>
        <svg viewBox="0 0 15 15" width="100%" height="30px" preserveAspectRatio="xMaxYMin meet">
         <g id="arrow_out" transform="scale(0.3 0.3)">
          <a xlink:href="class_t_train_a247bd95a7c648367736b116f553f4e54_cgraph_org.svg" target="_base">
           <rect id="button" ry="5" rx="5" y="6" x="6" height="38" width="38"
                fill="#f2f5e9" fill-opacity="0.5" stroke="#606060" stroke-width="1.0"/>
           <path id="arrow"
             d="M 11.500037,31.436501 C 11.940474,20.09759 22.043105,11.32322 32.158766,21.979434 L 37.068811,17.246167 C 37.068811,17.246167 37.088388,32 37.088388,32 L 22.160133,31.978069 C 22.160133,31.978069 26.997745,27.140456 26.997745,27.140456 C 18.528582,18.264221 13.291696,25.230495 11.500037,31.436501 z"
             style="fill:#404040;"/>
          </a>
         </g>
        </svg>
</svg>
