<?xml version="1.0" encoding="UTF-8" standalone="no"?>
<!DOCTYPE svg PUBLIC "-//W3C//DTD SVG 1.1//EN"
 "http://www.w3.org/Graphics/SVG/1.1/DTD/svg11.dtd">
<!-- Generated by graphviz version 2.44.1 (20200629.0800)
 -->
<!-- Title: TAllRoutes::GetRouteTypeAndNumber Pages: 1 -->
<!--zoomable 694 -->
<svg id="main" version="1.1" xmlns="http://www.w3.org/2000/svg" xmlns:xlink="http://www.w3.org/1999/xlink" xml:space="preserve" onload="init(evt)">
<style type="text/css"><![CDATA[
.edge:hover path { stroke: red; }
.edge:hover polygon { stroke: red; fill: red; }
]]></style>
<script type="text/javascript"><![CDATA[
var edges = document.getElementsByTagName('g');
if (edges && edges.length) {
  for (var i=0;i<edges.length;i++) {
    if (edges[i].id.substr(0,4)=='edge') {
      edges[i].setAttribute('class','edge');
    }
  }
}
]]></script>
        <defs>
                <circle id="rim" cx="0" cy="0" r="7"/>
                <circle id="rim2" cx="0" cy="0" r="3.5"/>
                <g id="zoomPlus">
                        <use xlink:href="#rim" fill="#404040">
                                <set attributeName="fill" to="#808080" begin="zoomplus.mouseover" end="zoomplus.mouseout"/>
                        </use>
                        <path d="M-4,0h8M0,-4v8" fill="none" stroke="white" stroke-width="1.5" pointer-events="none"/>
                </g>
                <g id="zoomMin">
                        <use xlink:href="#rim" fill="#404040">
                                <set attributeName="fill" to="#808080" begin="zoomminus.mouseover" end="zoomminus.mouseout"/>
                        </use>
                        <path d="M-4,0h8" fill="none" stroke="white" stroke-width="1.5" pointer-events="none"/>
                </g>
                <g id="dirArrow">
                        <path fill="none" stroke="white" stroke-width="1.5" d="M0,-3.0v7 M-2.5,-0.5L0,-3.0L2.5,-0.5"/>
                </g>
               <g id="resetDef">
                       <use xlink:href="#rim2" fill="#404040">
                               <set attributeName="fill" to="#808080" begin="reset.mouseover" end="reset.mouseout"/>
                       </use>
               </g>
        </defs>

<script type="text/javascript">
var viewWidth = 1590;
var viewHeight = 694;
var sectionId = 'dynsection-37';
</script>
<script xlink:href="svgpan.js"/>
<svg id="graph" class="graph">
<g id="viewport">
<title>TAllRoutes::GetRouteTypeAndNumber</title>
<polygon fill="white" stroke="transparent" points="-4,4 -4,-689.82 1586,-689.82 1586,4 -4,4"/>
<!-- Node1 -->
<g id="node1" class="node">
<title>Node1</title>
<g id="a_node1"><a xlink:title="Examines Route2MultiMap and if the element at TrackVectorPosition with LinkPos (can be entry or exit)...">
<polygon fill="#bfbfbf" stroke="black" points="1450,-363.5 1450,-393.5 1582,-393.5 1582,-363.5 1450,-363.5"/>
<text text-anchor="start" x="1458" y="-381.5" font-family="Helvetica,sans-Serif" font-size="10.00">TAllRoutes::GetRouteType</text>
<text text-anchor="middle" x="1516" y="-370.5" font-family="Helvetica,sans-Serif" font-size="10.00">AndNumber</text>
</a>
</g>
</g>
<!-- Node2 -->
<g id="node2" class="node">
<title>Node2</title>
<g id="a_node2"><a xlink:href="class_t_train_controller.html#aa895b60238810a9d134cd5b9c886da56" target="_top" xlink:title="Introduce a new train to the railway, with the characteristics specified, returns true for success,...">
<polygon fill="white" stroke="black" points="898,-350 898,-369 1026,-369 1026,-350 898,-350"/>
<text text-anchor="middle" x="962" y="-357" font-family="Helvetica,sans-Serif" font-size="10.00">TTrainController::AddTrain</text>
</a>
</g>
</g>
<!-- Node1&#45;&gt;Node2 -->
<g id="edge1" class="edge">
<title>Node1&#45;&gt;Node2</title>
<path fill="none" stroke="midnightblue" d="M1439.47,-375.9C1329.86,-372.13 1128.66,-365.2 1026.35,-361.68"/>
<polygon fill="midnightblue" stroke="midnightblue" points="1439.67,-379.41 1449.78,-376.26 1439.91,-372.41 1439.67,-379.41"/>
</g>
<!-- Node4 -->
<g id="node4" class="node">
<title>Node4</title>
<g id="a_node4"><a xlink:href="class_t_train.html#a89ad640ecf8f5163c40727b4e28575fc" target="_top" xlink:title="Major function called at each clock tick for each train &amp; handles all train movement &amp; associated act...">
<polygon fill="white" stroke="black" points="529.5,-426 529.5,-445 630.5,-445 630.5,-426 529.5,-426"/>
<text text-anchor="middle" x="580" y="-433" font-family="Helvetica,sans-Serif" font-size="10.00">TTrain::UpdateTrain</text>
</a>
</g>
</g>
<!-- Node1&#45;&gt;Node4 -->
<g id="edge51" class="edge">
<title>Node1&#45;&gt;Node4</title>
<path fill="none" stroke="midnightblue" d="M1503.66,-403C1488.1,-433.63 1457.06,-485.1 1414,-510.5 1312.78,-570.19 1270.01,-549.5 1152.5,-549.5 1152.5,-549.5 1152.5,-549.5 961,-549.5 841.89,-549.5 811.32,-529.4 701,-484.5 683.84,-477.52 681.88,-471.14 665,-463.5 649.03,-456.28 630.63,-449.93 615.13,-445.12"/>
<polygon fill="midnightblue" stroke="midnightblue" points="1506.89,-404.37 1508.17,-393.85 1500.61,-401.27 1506.89,-404.37"/>
</g>
<!-- Node6 -->
<g id="node6" class="node">
<title>Node6</title>
<g id="a_node6"><a xlink:href="class_t_interface.html#a6139ffb52492eb89e5487a8a3cd647b5" target="_top" xlink:title="The main loop, called every clock tick via MasterClockTimer.">
<polygon fill="white" stroke="black" points="179,-445 179,-464 298,-464 298,-445 179,-445"/>
<text text-anchor="middle" x="238.5" y="-452" font-family="Helvetica,sans-Serif" font-size="10.00">TInterface::ClockTimer2</text>
</a>
</g>
</g>
<!-- Node1&#45;&gt;Node6 -->
<g id="edge29" class="edge">
<title>Node1&#45;&gt;Node6</title>
<path fill="none" stroke="midnightblue" d="M1513.51,-403.77C1508.88,-457.2 1490.05,-581.65 1414,-641.5 1321.9,-713.98 1269.7,-675.5 1152.5,-675.5 1152.5,-675.5 1152.5,-675.5 579,-675.5 421.82,-675.5 280.32,-507.05 246.93,-464.28"/>
<polygon fill="midnightblue" stroke="midnightblue" points="1517,-404.02 1514.27,-393.78 1510.02,-403.48 1517,-404.02"/>
</g>
<!-- Node9 -->
<g id="node9" class="node">
<title>Node9</title>
<g id="a_node9"><a xlink:href="class_t_track.html#a0a99f8e9b1b6fc3f629d6292f2e14308" target="_top" xlink:title="True if a route or train present on any linked level crossing element.">
<polygon fill="white" stroke="black" points="883,-49.5 883,-79.5 1041,-79.5 1041,-49.5 883,-49.5"/>
<text text-anchor="start" x="891" y="-67.5" font-family="Helvetica,sans-Serif" font-size="10.00">TTrack::AnyLinkedLevelCrossing</text>
<text text-anchor="middle" x="962" y="-56.5" font-family="Helvetica,sans-Serif" font-size="10.00">ElementsWithRoutesOrTrains</text>
</a>
</g>
</g>
<!-- Node1&#45;&gt;Node9 -->
<g id="edge10" class="edge">
<title>Node1&#45;&gt;Node9</title>
<path fill="none" stroke="midnightblue" d="M1509.28,-353.52C1498.33,-311.44 1470.29,-226.6 1414,-181.5 1406.25,-175.29 1144.68,-109.68 1023.51,-79.52"/>
<polygon fill="midnightblue" stroke="midnightblue" points="1505.95,-354.63 1511.77,-363.49 1512.75,-352.94 1505.95,-354.63"/>
</g>
<!-- Node12 -->
<g id="node12" class="node">
<title>Node12</title>
<g id="a_node12"><a xlink:href="class_t_train_controller.html#ad81afe17a036ab3f96c340ab75a2d8e2" target="_top" xlink:title="new v2.2.0, calcs distance to red signal, returns &#45;1 for no signal found, for autosigs route after ne...">
<polygon fill="white" stroke="black" points="888,-616.5 888,-646.5 1036,-646.5 1036,-616.5 888,-616.5"/>
<text text-anchor="start" x="896" y="-634.5" font-family="Helvetica,sans-Serif" font-size="10.00">TTrainController::CalcDistance</text>
<text text-anchor="middle" x="962" y="-623.5" font-family="Helvetica,sans-Serif" font-size="10.00">ToRedSignalandStopTime</text>
</a>
</g>
</g>
<!-- Node1&#45;&gt;Node12 -->
<g id="edge14" class="edge">
<title>Node1&#45;&gt;Node12</title>
<path fill="none" stroke="midnightblue" d="M1511.91,-403.9C1504.58,-451.79 1481.41,-554.79 1414,-601.5 1298.22,-681.73 1123.07,-664.2 1028.73,-646.56"/>
<polygon fill="midnightblue" stroke="midnightblue" points="1515.4,-404.16 1513.34,-393.77 1508.47,-403.18 1515.4,-404.16"/>
</g>
<!-- Node13 -->
<g id="node13" class="node">
<title>Node13</title>
<g id="a_node13"><a xlink:href="class_t_train.html#ae34370de578ebd07a217c79d8b67312c" target="_top" xlink:title="new v2.2.0 for operator action panel. Calculates the time left for operator action to avoid unnecessa...">
<polygon fill="white" stroke="black" points="716.5,-578 716.5,-597 831.5,-597 831.5,-578 716.5,-578"/>
<text text-anchor="middle" x="774" y="-585" font-family="Helvetica,sans-Serif" font-size="10.00">TTrain::CalcTimeToAct</text>
</a>
</g>
</g>
<!-- Node1&#45;&gt;Node13 -->
<g id="edge21" class="edge">
<title>Node1&#45;&gt;Node13</title>
<path fill="none" stroke="midnightblue" d="M1509.66,-403.59C1499.32,-445.19 1472.25,-527.44 1414,-563.5 1317.78,-623.07 969.54,-602.98 831.72,-592.33"/>
<polygon fill="midnightblue" stroke="midnightblue" points="1513.1,-404.24 1511.99,-393.71 1506.29,-402.64 1513.1,-404.24"/>
</g>
<!-- Node15 -->
<g id="node15" class="node">
<title>Node15</title>
<g id="a_node15"><a xlink:href="class_t_train.html#a4524b72ef62ef2c1375f58fac05929ee" target="_top" xlink:title="True if the train can be called on at its current position &#45; see detail in .cpp file.">
<polygon fill="white" stroke="black" points="1089,-502 1089,-521 1214,-521 1214,-502 1089,-502"/>
<text text-anchor="middle" x="1151.5" y="-509" font-family="Helvetica,sans-Serif" font-size="10.00">TTrain::CallingOnAllowed</text>
</a>
</g>
</g>
<!-- Node1&#45;&gt;Node15 -->
<g id="edge22" class="edge">
<title>Node1&#45;&gt;Node15</title>
<path fill="none" stroke="midnightblue" d="M1499.14,-402.05C1481.46,-426.21 1450.5,-462.68 1414,-480.5 1350.84,-511.34 1269.22,-516.32 1214.1,-515.37"/>
<polygon fill="midnightblue" stroke="midnightblue" points="1502.09,-403.95 1505.04,-393.77 1496.39,-399.89 1502.09,-403.95"/>
</g>
<!-- Node16 -->
<g id="node16" class="node">
<title>Node16</title>
<g id="a_node16"><a xlink:href="class_t_train.html#a406c172a0ba96802ada1aa04d78948d0" target="_top" xlink:title="Reverses the direction of motion of the train.">
<polygon fill="white" stroke="black" points="1081,-464 1081,-483 1222,-483 1222,-464 1081,-464"/>
<text text-anchor="middle" x="1151.5" y="-471" font-family="Helvetica,sans-Serif" font-size="10.00">TTrain::ChangeTrainDirection</text>
</a>
</g>
</g>
<!-- Node1&#45;&gt;Node16 -->
<g id="edge24" class="edge">
<title>Node1&#45;&gt;Node16</title>
<path fill="none" stroke="midnightblue" d="M1493.36,-400.75C1474.31,-418.74 1444.88,-442.92 1414,-454.5 1352.09,-477.72 1276.25,-480.7 1222.22,-478.94"/>
<polygon fill="midnightblue" stroke="midnightblue" points="1495.87,-403.19 1500.61,-393.71 1490.99,-398.16 1495.87,-403.19"/>
</g>
<!-- Node17 -->
<g id="node17" class="node">
<title>Node17</title>
<g id="a_node17"><a xlink:href="class_t_train.html#a50997f7e8138a7e6a147fe3b5ad21b84" target="_top" xlink:title="Checks whether Element and EntryPos (where train is about to enter) is on an existing route (or cross...">
<polygon fill="white" stroke="black" points="1077,-401.5 1077,-431.5 1226,-431.5 1226,-401.5 1077,-401.5"/>
<text text-anchor="start" x="1085" y="-419.5" font-family="Helvetica,sans-Serif" font-size="10.00">TTrain::CheckAndCancelRoute</text>
<text text-anchor="middle" x="1151.5" y="-408.5" font-family="Helvetica,sans-Serif" font-size="10.00">ForWrongEndEntry</text>
</a>
</g>
</g>
<!-- Node1&#45;&gt;Node17 -->
<g id="edge26" class="edge">
<title>Node1&#45;&gt;Node17</title>
<path fill="none" stroke="midnightblue" d="M1439.57,-386.41C1376.95,-392.97 1288.4,-402.25 1226.25,-408.77"/>
<polygon fill="midnightblue" stroke="midnightblue" points="1440.19,-389.86 1449.77,-385.34 1439.46,-382.9 1440.19,-389.86"/>
</g>
<!-- Node18 -->
<g id="node18" class="node">
<title>Node18</title>
<g id="a_node18"><a xlink:href="class_t_one_route.html#a4d92e68782eea0534a02e1b8176bc730" target="_top" xlink:title="Used when setting signal aspects for a route by working forwards through the route to see what the ne...">
<polygon fill="white" stroke="black" points="1262,-262.5 1262,-292.5 1414,-292.5 1414,-262.5 1262,-262.5"/>
<text text-anchor="start" x="1270" y="-280.5" font-family="Helvetica,sans-Serif" font-size="10.00">TOneRoute::FindForwardTarget</text>
<text text-anchor="middle" x="1338" y="-269.5" font-family="Helvetica,sans-Serif" font-size="10.00">SignalAttribute</text>
</a>
</g>
</g>
<!-- Node1&#45;&gt;Node18 -->
<g id="edge30" class="edge">
<title>Node1&#45;&gt;Node18</title>
<path fill="none" stroke="midnightblue" d="M1488.2,-357.07C1468.46,-341.94 1440.55,-321.89 1414,-307.5 1403.89,-302.02 1392.56,-296.97 1381.83,-292.64"/>
<polygon fill="midnightblue" stroke="midnightblue" points="1486.08,-359.85 1496.13,-363.22 1490.37,-354.32 1486.08,-359.85"/>
</g>
<!-- Node19 -->
<g id="node19" class="node">
<title>Node19</title>
<g id="a_node19"><a xlink:href="class_t_one_route.html#a4dfe3a028da7a4b6df0f44f33c3e2196" target="_top" xlink:title="Called when setting a route to set all points appropriately. Also called when a new train is added at...">
<polygon fill="white" stroke="black" points="1079.5,-271 1079.5,-290 1223.5,-290 1223.5,-271 1079.5,-271"/>
<text text-anchor="middle" x="1151.5" y="-278" font-family="Helvetica,sans-Serif" font-size="10.00">TOneRoute::SetRouteSignals</text>
</a>
</g>
</g>
<!-- Node1&#45;&gt;Node19 -->
<g id="edge48" class="edge">
<title>Node1&#45;&gt;Node19</title>
<path fill="none" stroke="midnightblue" d="M1461.21,-360.13C1446.01,-355.16 1429.42,-349.93 1414,-345.5 1337.34,-323.48 1246.8,-301.96 1194.87,-290.04"/>
<polygon fill="midnightblue" stroke="midnightblue" points="1460.37,-363.54 1470.97,-363.35 1462.57,-356.89 1460.37,-363.54"/>
</g>
<!-- Node21 -->
<g id="node21" class="node">
<title>Node21</title>
<g id="a_node21"><a xlink:href="class_t_interface.html#a7e6535742855a19cb3e35b1711a7ab59" target="_top" xlink:title="Deal with any warning graphics that need to flash (call on, signal stop, crash etc),...">
<polygon fill="white" stroke="black" points="704,-148 704,-167 844,-167 844,-148 704,-148"/>
<text text-anchor="middle" x="774" y="-155" font-family="Helvetica,sans-Serif" font-size="10.00">TInterface::FlashingGraphics</text>
</a>
</g>
</g>
<!-- Node1&#45;&gt;Node21 -->
<g id="edge43" class="edge">
<title>Node1&#45;&gt;Node21</title>
<path fill="none" stroke="midnightblue" d="M1502.33,-354.46C1485.9,-325.77 1454.51,-278.55 1414,-253.5 1232.71,-141.4 968.53,-142.82 844.37,-151"/>
<polygon fill="midnightblue" stroke="midnightblue" points="1499.39,-356.38 1507.31,-363.42 1505.51,-352.98 1499.39,-356.38"/>
</g>
<!-- Node24 -->
<g id="node24" class="node">
<title>Node24</title>
<g id="a_node24"><a xlink:href="class_t_one_route.html#a491fff1e619a9dc79774acf85eed72a5" target="_top" xlink:title="Cancel a route immediately if a train occupies it when travelling in the wrong direction (or occupies...">
<polygon fill="white" stroke="black" points="1262,-426 1262,-445 1414,-445 1414,-426 1262,-426"/>
<text text-anchor="middle" x="1338" y="-433" font-family="Helvetica,sans-Serif" font-size="10.00">TOneRoute::ForceCancelRoute</text>
</a>
</g>
</g>
<!-- Node1&#45;&gt;Node24 -->
<g id="edge44" class="edge">
<title>Node1&#45;&gt;Node24</title>
<path fill="none" stroke="midnightblue" d="M1459.71,-396.63C1444.87,-401.48 1428.83,-406.7 1414,-411.5 1399.17,-416.3 1382.68,-421.58 1368.94,-425.97"/>
<polygon fill="midnightblue" stroke="midnightblue" points="1460.85,-399.94 1469.27,-393.51 1458.67,-393.29 1460.85,-399.94"/>
</g>
<!-- Node25 -->
<g id="node25" class="node">
<title>Node25</title>
<g id="a_node25"><a xlink:href="class_t_one_route.html#afe23206f22e1ffaafe1a5fe866d2b8ec" target="_top" xlink:title="Examines the route to see whether the element at H &amp; V is in the route, and if not returns a ReturnFl...">
<polygon fill="white" stroke="black" points="1263,-98.5 1263,-128.5 1413,-128.5 1413,-98.5 1263,-98.5"/>
<text text-anchor="start" x="1271" y="-116.5" font-family="Helvetica,sans-Serif" font-size="10.00">TOneRoute::GetRouteTruncate</text>
<text text-anchor="middle" x="1338" y="-105.5" font-family="Helvetica,sans-Serif" font-size="10.00">Element</text>
</a>
</g>
</g>
<!-- Node1&#45;&gt;Node25 -->
<g id="edge46" class="edge">
<title>Node1&#45;&gt;Node25</title>
<path fill="none" stroke="midnightblue" d="M1510.74,-353.31C1501.48,-305.99 1475.21,-203.17 1414,-143.5 1407.77,-137.43 1400.16,-132.54 1392.21,-128.62"/>
<polygon fill="midnightblue" stroke="midnightblue" points="1507.33,-354.13 1512.6,-363.32 1514.21,-352.85 1507.33,-354.13"/>
</g>
<!-- Node26 -->
<g id="node26" class="node">
<title>Node26</title>
<g id="a_node26"><a xlink:href="class_t_interface.html#a921ff57bd9af8acdd79a7c99d4839218" target="_top" xlink:title=" ">
<polygon fill="white" stroke="black" points="1266,-49.5 1266,-79.5 1410,-79.5 1410,-49.5 1266,-49.5"/>
<text text-anchor="start" x="1274" y="-67.5" font-family="Helvetica,sans-Serif" font-size="10.00">TInterface::RemoveTrainMenu</text>
<text text-anchor="middle" x="1338" y="-56.5" font-family="Helvetica,sans-Serif" font-size="10.00">ItemClick</text>
</a>
</g>
</g>
<!-- Node1&#45;&gt;Node26 -->
<g id="edge47" class="edge">
<title>Node1&#45;&gt;Node26</title>
<path fill="none" stroke="midnightblue" d="M1513.55,-353.36C1508.99,-297.64 1490.23,-162.82 1414,-88.5 1410.48,-85.06 1406.46,-82.12 1402.16,-79.6"/>
<polygon fill="midnightblue" stroke="midnightblue" points="1510.07,-353.69 1514.29,-363.41 1517.05,-353.18 1510.07,-353.69"/>
</g>
<!-- Node27 -->
<g id="node27" class="node">
<title>Node27</title>
<g id="a_node27"><a xlink:href="class_t_train.html#affbb94aa088370056f8ca8c45a1fdd48" target="_top" xlink:title="Unplots &amp; replots train, which checks for facing signal and sets StoppedAtSignal if req&#39;d.">
<polygon fill="white" stroke="black" points="1268,-0.5 1268,-30.5 1408,-30.5 1408,-0.5 1268,-0.5"/>
<text text-anchor="start" x="1276" y="-18.5" font-family="Helvetica,sans-Serif" font-size="10.00">TTrain::SignallerChangeTrain</text>
<text text-anchor="middle" x="1338" y="-7.5" font-family="Helvetica,sans-Serif" font-size="10.00">Direction</text>
</a>
</g>
</g>
<!-- Node1&#45;&gt;Node27 -->
<g id="edge49" class="edge">
<title>Node1&#45;&gt;Node27</title>
<path fill="none" stroke="midnightblue" d="M1515.04,-353.08C1513.73,-290.74 1501.59,-128.87 1414,-39.5 1410.65,-36.08 1406.82,-33.15 1402.69,-30.64"/>
<polygon fill="midnightblue" stroke="midnightblue" points="1511.54,-353.24 1515.17,-363.2 1518.54,-353.15 1511.54,-353.24"/>
</g>
<!-- Node3 -->
<g id="node3" class="node">
<title>Node3</title>
<g id="a_node3"><a xlink:href="class_t_train.html#ad666fb061d1da7c44a72ec963c2098aa" target="_top" xlink:title="Carry out the actions needed when a train is to split from the front.">
<polygon fill="white" stroke="black" points="718,-350 718,-369 830,-369 830,-350 718,-350"/>
<text text-anchor="middle" x="774" y="-357" font-family="Helvetica,sans-Serif" font-size="10.00">TTrain::FrontTrainSplit</text>
</a>
</g>
</g>
<!-- Node2&#45;&gt;Node3 -->
<g id="edge2" class="edge">
<title>Node2&#45;&gt;Node3</title>
<path fill="none" stroke="midnightblue" d="M887.61,-359.5C868.51,-359.5 848.26,-359.5 830.28,-359.5"/>
<polygon fill="midnightblue" stroke="midnightblue" points="887.77,-363 897.77,-359.5 887.77,-356 887.77,-363"/>
</g>
<!-- Node5 -->
<g id="node5" class="node">
<title>Node5</title>
<g id="a_node5"><a xlink:href="class_t_train_controller.html#a20a1576dea1d86ed78fc5e9f46343481" target="_top" xlink:title="called every clock tick to introduce new trains and update existing trains">
<polygon fill="white" stroke="black" points="334,-426 334,-445 459,-445 459,-426 334,-426"/>
<text text-anchor="middle" x="396.5" y="-433" font-family="Helvetica,sans-Serif" font-size="10.00">TTrainController::Operate</text>
</a>
</g>
</g>
<!-- Node2&#45;&gt;Node5 -->
<g id="edge7" class="edge">
<title>Node2&#45;&gt;Node5</title>
<path fill="none" stroke="midnightblue" d="M904.7,-348.22C886.38,-345.06 865.9,-342.06 847,-340.5 782.33,-335.15 765.14,-330.7 701,-340.5 592.39,-357.1 469.24,-405.3 419.79,-425.94"/>
<polygon fill="midnightblue" stroke="midnightblue" points="904.17,-351.68 914.63,-349.99 905.39,-344.79 904.17,-351.68"/>
</g>
<!-- Node8 -->
<g id="node8" class="node">
<title>Node8</title>
<g id="a_node8"><a xlink:href="class_t_train.html#ad64c5823265b0c611c2e5f0613317aa5" target="_top" xlink:title="Carry out the actions needed when a train is to split from the rear.">
<polygon fill="white" stroke="black" points="719,-388 719,-407 829,-407 829,-388 719,-388"/>
<text text-anchor="middle" x="774" y="-395" font-family="Helvetica,sans-Serif" font-size="10.00">TTrain::RearTrainSplit</text>
</a>
</g>
</g>
<!-- Node2&#45;&gt;Node8 -->
<g id="edge8" class="edge">
<title>Node2&#45;&gt;Node8</title>
<path fill="none" stroke="midnightblue" d="M904.17,-371.11C877.72,-376.51 846.64,-382.86 821.6,-387.98"/>
<polygon fill="midnightblue" stroke="midnightblue" points="904.97,-374.52 914.06,-369.09 903.57,-367.66 904.97,-374.52"/>
</g>
<!-- Node3&#45;&gt;Node4 -->
<g id="edge3" class="edge">
<title>Node3&#45;&gt;Node4</title>
<path fill="none" stroke="midnightblue" d="M721.41,-371.87C714.49,-373.89 707.53,-376.11 701,-378.5 663.31,-392.29 621.42,-413.67 598.45,-425.95"/>
<polygon fill="midnightblue" stroke="midnightblue" points="722.78,-375.12 731.47,-369.05 720.9,-368.38 722.78,-375.12"/>
</g>
<!-- Node4&#45;&gt;Node5 -->
<g id="edge4" class="edge">
<title>Node4&#45;&gt;Node5</title>
<path fill="none" stroke="midnightblue" d="M519.22,-435.5C499.91,-435.5 478.47,-435.5 459.03,-435.5"/>
<polygon fill="midnightblue" stroke="midnightblue" points="519.4,-439 529.4,-435.5 519.4,-432 519.4,-439"/>
</g>
<!-- Node5&#45;&gt;Node6 -->
<g id="edge5" class="edge">
<title>Node5&#45;&gt;Node6</title>
<path fill="none" stroke="midnightblue" d="M323.83,-444.23C315.24,-445.28 306.54,-446.33 298.16,-447.35"/>
<polygon fill="midnightblue" stroke="midnightblue" points="324.34,-447.69 333.84,-443.01 323.49,-440.74 324.34,-447.69"/>
</g>
<!-- Node7 -->
<g id="node7" class="node">
<title>Node7</title>
<g id="a_node7"><a xlink:href="class_t_interface.html#ace30a12d923fc7fb489afabb0a09aa4f" target="_top" xlink:title=" ">
<polygon fill="white" stroke="black" points="0,-445 0,-464 143,-464 143,-445 0,-445"/>
<text text-anchor="middle" x="71.5" y="-452" font-family="Helvetica,sans-Serif" font-size="10.00">TInterface::MasterClockTimer</text>
</a>
</g>
</g>
<!-- Node6&#45;&gt;Node7 -->
<g id="edge6" class="edge">
<title>Node6&#45;&gt;Node7</title>
<path fill="none" stroke="midnightblue" d="M168.67,-454.5C160.22,-454.5 151.57,-454.5 143.09,-454.5"/>
<polygon fill="midnightblue" stroke="midnightblue" points="168.86,-458 178.86,-454.5 168.86,-451 168.86,-458"/>
</g>
<!-- Node8&#45;&gt;Node4 -->
<g id="edge9" class="edge">
<title>Node8&#45;&gt;Node4</title>
<path fill="none" stroke="midnightblue" d="M714.7,-409.04C687.32,-414.46 655.07,-420.84 629.1,-425.98"/>
<polygon fill="midnightblue" stroke="midnightblue" points="715.42,-412.46 724.55,-407.09 714.06,-405.6 715.42,-412.46"/>
</g>
<!-- Node9&#45;&gt;Node6 -->
<g id="edge11" class="edge">
<title>Node9&#45;&gt;Node6</title>
<path fill="none" stroke="midnightblue" d="M872.82,-52.05C775.77,-42.28 617.33,-38.16 495,-92.5 335.06,-163.54 257.61,-394.2 242.35,-444.68"/>
<polygon fill="midnightblue" stroke="midnightblue" points="872.57,-55.54 882.88,-53.1 873.3,-48.58 872.57,-55.54"/>
</g>
<!-- Node10 -->
<g id="node10" class="node">
<title>Node10</title>
<g id="a_node10"><a xlink:href="class_t_interface.html#abf07d5edc1507de381825f17620748b2" target="_top" xlink:title="Called when mouse button clicked in zoom&#45;in mode.">
<polygon fill="white" stroke="black" points="701,-96.5 701,-126.5 847,-126.5 847,-96.5 701,-96.5"/>
<text text-anchor="start" x="709" y="-114.5" font-family="Helvetica,sans-Serif" font-size="10.00">TInterface::MainScreenMouse</text>
<text text-anchor="middle" x="774" y="-103.5" font-family="Helvetica,sans-Serif" font-size="10.00">Down2</text>
</a>
</g>
</g>
<!-- Node9&#45;&gt;Node10 -->
<g id="edge12" class="edge">
<title>Node9&#45;&gt;Node10</title>
<path fill="none" stroke="midnightblue" d="M891.91,-81.96C873.03,-86.73 852.73,-91.86 834.44,-96.48"/>
<polygon fill="midnightblue" stroke="midnightblue" points="892.8,-85.34 901.64,-79.5 891.08,-78.56 892.8,-85.34"/>
</g>
<!-- Node11 -->
<g id="node11" class="node">
<title>Node11</title>
<g id="a_node11"><a xlink:href="class_t_interface.html#a7f37862fb9e01e1328d9fd3fd8c50094" target="_top" xlink:title=" ">
<polygon fill="white" stroke="black" points="495,-102 495,-121 665,-121 665,-102 495,-102"/>
<text text-anchor="middle" x="580" y="-109" font-family="Helvetica,sans-Serif" font-size="10.00">TInterface::MainScreenMouseDown</text>
</a>
</g>
</g>
<!-- Node10&#45;&gt;Node11 -->
<g id="edge13" class="edge">
<title>Node10&#45;&gt;Node11</title>
<path fill="none" stroke="midnightblue" d="M690.7,-111.5C682.22,-111.5 673.58,-111.5 665.08,-111.5"/>
<polygon fill="midnightblue" stroke="midnightblue" points="690.96,-115 700.96,-111.5 690.96,-108 690.96,-115"/>
</g>
<!-- Node12&#45;&gt;Node13 -->
<g id="edge15" class="edge">
<title>Node12&#45;&gt;Node13</title>
<path fill="none" stroke="midnightblue" d="M887.46,-614.1C862.84,-608.28 836.31,-602 815.21,-597.01"/>
<polygon fill="midnightblue" stroke="midnightblue" points="886.97,-617.58 897.51,-616.48 888.58,-610.77 886.97,-617.58"/>
</g>
<!-- Node14 -->
<g id="node14" class="node">
<title>Node14</title>
<g id="a_node14"><a xlink:href="class_t_train_controller.html#a0e16b9cb91bb29f83bffc7ae3461200d" target="_top" xlink:title="new v2.2.0 for OperatorActionPanel">
<polygon fill="white" stroke="black" points="519,-502.5 519,-532.5 641,-532.5 641,-502.5 519,-502.5"/>
<text text-anchor="start" x="527" y="-520.5" font-family="Helvetica,sans-Serif" font-size="10.00">TTrainController::Rebuild</text>
<text text-anchor="middle" x="580" y="-509.5" font-family="Helvetica,sans-Serif" font-size="10.00">OpTimeToActMultimap</text>
</a>
</g>
</g>
<!-- Node12&#45;&gt;Node14 -->
<g id="edge18" class="edge">
<title>Node12&#45;&gt;Node14</title>
<path fill="none" stroke="midnightblue" d="M877.75,-634.72C825.4,-634.05 757.35,-628.16 701,-606.5 657.91,-589.93 616.72,-553.38 595.63,-532.64"/>
<polygon fill="midnightblue" stroke="midnightblue" points="877.98,-638.22 888,-634.79 878.02,-631.22 877.98,-638.22"/>
</g>
<!-- Node13&#45;&gt;Node4 -->
<g id="edge17" class="edge">
<title>Node13&#45;&gt;Node4</title>
<path fill="none" stroke="midnightblue" d="M714.6,-573.48C709.63,-570.73 704.98,-567.44 701,-563.5 666.22,-529.11 700.52,-493.12 665,-459.5 655.64,-450.64 643.23,-445.01 630.84,-441.46"/>
<polygon fill="midnightblue" stroke="midnightblue" points="713.32,-576.74 723.85,-577.87 716.32,-570.42 713.32,-576.74"/>
</g>
<!-- Node13&#45;&gt;Node6 -->
<g id="edge16" class="edge">
<title>Node13&#45;&gt;Node6</title>
<path fill="none" stroke="midnightblue" d="M717.36,-573.97C711.46,-571.11 705.86,-567.66 701,-563.5 674.44,-540.73 694,-513.07 665,-493.5 635.29,-473.45 407.97,-461.45 298.31,-456.77"/>
<polygon fill="midnightblue" stroke="midnightblue" points="716.22,-577.29 726.79,-577.98 718.96,-570.85 716.22,-577.29"/>
</g>
<!-- Node14&#45;&gt;Node5 -->
<g id="edge20" class="edge">
<title>Node14&#45;&gt;Node5</title>
<path fill="none" stroke="midnightblue" d="M536.18,-498.16C499.21,-481.45 447.35,-458.02 418.67,-445.06"/>
<polygon fill="midnightblue" stroke="midnightblue" points="535.16,-501.53 545.71,-502.46 538.04,-495.15 535.16,-501.53"/>
</g>
<!-- Node14&#45;&gt;Node6 -->
<g id="edge19" class="edge">
<title>Node14&#45;&gt;Node6</title>
<path fill="none" stroke="midnightblue" d="M508.72,-512.91C459.36,-508.71 392.06,-501.03 334,-487.5 308.95,-481.66 281.28,-471.55 262.39,-464.05"/>
<polygon fill="midnightblue" stroke="midnightblue" points="508.71,-516.42 518.97,-513.75 509.29,-509.44 508.71,-516.42"/>
</g>
<!-- Node15&#45;&gt;Node4 -->
<g id="edge23" class="edge">
<title>Node15&#45;&gt;Node4</title>
<path fill="none" stroke="midnightblue" d="M1078.81,-505.81C989.83,-498.22 833.63,-483.19 701,-461.5 673.76,-457.05 643.37,-450.44 619.99,-445.01"/>
<polygon fill="midnightblue" stroke="midnightblue" points="1078.53,-509.3 1088.79,-506.65 1079.12,-502.32 1078.53,-509.3"/>
</g>
<!-- Node16&#45;&gt;Node4 -->
<g id="edge25" class="edge">
<title>Node16&#45;&gt;Node4</title>
<path fill="none" stroke="midnightblue" d="M1070.77,-468.18C951.3,-460.21 729.31,-445.4 630.57,-438.81"/>
<polygon fill="midnightblue" stroke="midnightblue" points="1070.74,-471.69 1080.95,-468.86 1071.21,-464.7 1070.74,-471.69"/>
</g>
<!-- Node17&#45;&gt;Node2 -->
<g id="edge27" class="edge">
<title>Node17&#45;&gt;Node2</title>
<path fill="none" stroke="midnightblue" d="M1091.02,-398.42C1058.96,-388.67 1020.71,-377.04 994.42,-369.05"/>
<polygon fill="midnightblue" stroke="midnightblue" points="1090.16,-401.81 1100.75,-401.37 1092.2,-395.12 1090.16,-401.81"/>
</g>
<!-- Node17&#45;&gt;Node4 -->
<g id="edge28" class="edge">
<title>Node17&#45;&gt;Node4</title>
<path fill="none" stroke="midnightblue" d="M1066.65,-419.3C946.24,-423.31 728.13,-430.59 630.53,-433.85"/>
<polygon fill="midnightblue" stroke="midnightblue" points="1067.05,-422.79 1076.92,-418.95 1066.81,-415.79 1067.05,-422.79"/>
</g>
<!-- Node18&#45;&gt;Node19 -->
<g id="edge31" class="edge">
<title>Node18&#45;&gt;Node19</title>
<path fill="none" stroke="midnightblue" d="M1251.78,-278.89C1242.36,-279.04 1232.83,-279.19 1223.6,-279.34"/>
<polygon fill="midnightblue" stroke="midnightblue" points="1252.02,-282.38 1261.96,-278.72 1251.9,-275.38 1252.02,-282.38"/>
</g>
<!-- Node19&#45;&gt;Node2 -->
<g id="edge32" class="edge">
<title>Node19&#45;&gt;Node2</title>
<path fill="none" stroke="midnightblue" d="M1124.5,-295.11C1102.66,-307 1070.4,-323.69 1041,-335.5 1027.33,-340.99 1011.89,-345.98 998.38,-349.97"/>
<polygon fill="midnightblue" stroke="midnightblue" points="1126.39,-298.07 1133.47,-290.18 1123.02,-291.93 1126.39,-298.07"/>
</g>
<!-- Node19&#45;&gt;Node4 -->
<g id="edge42" class="edge">
<title>Node19&#45;&gt;Node4</title>
<path fill="none" stroke="midnightblue" d="M1081.11,-291.58C1067.81,-293.61 1053.98,-295.67 1041,-297.5 890.17,-318.74 841.43,-281.51 701,-340.5 652.74,-360.77 607.69,-406.1 589.49,-425.92"/>
<polygon fill="midnightblue" stroke="midnightblue" points="1081.81,-295.01 1091.16,-290.03 1080.74,-288.09 1081.81,-295.01"/>
</g>
<!-- Node19&#45;&gt;Node5 -->
<g id="edge41" class="edge">
<title>Node19&#45;&gt;Node5</title>
<path fill="none" stroke="midnightblue" d="M1069.34,-271.26C940.79,-260.23 685.44,-253.17 495,-342.5 453.49,-361.97 418.39,-406.14 404.22,-425.78"/>
<polygon fill="midnightblue" stroke="midnightblue" points="1069.23,-274.76 1079.5,-272.16 1069.85,-267.79 1069.23,-274.76"/>
</g>
<!-- Node20 -->
<g id="node20" class="node">
<title>Node20</title>
<g id="a_node20"><a xlink:href="class_t_one_route.html#a53496c398dcdb3a644801c4e74d47d01" target="_top" xlink:title="Called after a non&#45;preferred (i.e. unrestricted) route has been selected and has finished flashing,...">
<polygon fill="white" stroke="black" points="883,-98.5 883,-128.5 1041,-128.5 1041,-98.5 883,-98.5"/>
<text text-anchor="start" x="891" y="-116.5" font-family="Helvetica,sans-Serif" font-size="10.00">TOneRoute::ConvertAndAdd</text>
<text text-anchor="middle" x="962" y="-105.5" font-family="Helvetica,sans-Serif" font-size="10.00">NonPreferredRouteSearchVector</text>
</a>
</g>
</g>
<!-- Node19&#45;&gt;Node20 -->
<g id="edge33" class="edge">
<title>Node19&#45;&gt;Node20</title>
<path fill="none" stroke="midnightblue" d="M1132.52,-264.06C1110.9,-244.34 1073.46,-210.32 1041,-181.5 1020.31,-163.13 996.29,-142.26 980.43,-128.54"/>
<polygon fill="midnightblue" stroke="midnightblue" points="1130.24,-266.72 1139.99,-270.88 1134.96,-261.55 1130.24,-266.72"/>
</g>
<!-- Node19&#45;&gt;Node21 -->
<g id="edge40" class="edge">
<title>Node19&#45;&gt;Node21</title>
<path fill="none" stroke="midnightblue" d="M1129.49,-264.92C1108.22,-249.87 1073.87,-227.5 1041,-214.5 976.66,-189.04 898.85,-174.06 844.05,-165.89"/>
<polygon fill="midnightblue" stroke="midnightblue" points="1127.6,-267.87 1137.76,-270.87 1131.68,-262.19 1127.6,-267.87"/>
</g>
<!-- Node22 -->
<g id="node22" class="node">
<title>Node22</title>
<g id="a_node22"><a xlink:href="class_t_one_route.html#a36ba8adc8b4a47908ee4e1b8e75792ca" target="_top" xlink:title="Called after a preferred (i.e. preferred direction or automatic signals) route has been selected and ...">
<polygon fill="white" stroke="black" points="892,-224.5 892,-254.5 1032,-254.5 1032,-224.5 892,-224.5"/>
<text text-anchor="start" x="900" y="-242.5" font-family="Helvetica,sans-Serif" font-size="10.00">TOneRoute::ConvertAndAdd</text>
<text text-anchor="middle" x="962" y="-231.5" font-family="Helvetica,sans-Serif" font-size="10.00">PreferredRouteSearchVector</text>
</a>
</g>
</g>
<!-- Node19&#45;&gt;Node22 -->
<g id="edge37" class="edge">
<title>Node19&#45;&gt;Node22</title>
<path fill="none" stroke="midnightblue" d="M1097.04,-268.81C1076.78,-264.38 1053.43,-259.27 1031.95,-254.58"/>
<polygon fill="midnightblue" stroke="midnightblue" points="1096.5,-272.27 1107.01,-270.99 1097.99,-265.44 1096.5,-272.27"/>
</g>
<!-- Node20&#45;&gt;Node10 -->
<g id="edge36" class="edge">
<title>Node20&#45;&gt;Node10</title>
<path fill="none" stroke="midnightblue" d="M872.88,-112.55C864.29,-112.46 855.65,-112.37 847.24,-112.28"/>
<polygon fill="midnightblue" stroke="midnightblue" points="872.89,-116.05 882.93,-112.66 872.97,-109.05 872.89,-116.05"/>
</g>
<!-- Node20&#45;&gt;Node21 -->
<g id="edge34" class="edge">
<title>Node20&#45;&gt;Node21</title>
<path fill="none" stroke="midnightblue" d="M887.46,-130.9C862.84,-136.72 836.31,-143 815.21,-147.99"/>
<polygon fill="midnightblue" stroke="midnightblue" points="888.58,-134.23 897.51,-128.52 886.97,-127.42 888.58,-134.23"/>
</g>
<!-- Node21&#45;&gt;Node6 -->
<g id="edge35" class="edge">
<title>Node21&#45;&gt;Node6</title>
<path fill="none" stroke="midnightblue" d="M693.64,-168.68C636,-179.12 557.49,-198.23 495,-231.5 382.23,-291.54 277.06,-410.02 247.63,-444.73"/>
<polygon fill="midnightblue" stroke="midnightblue" points="694.55,-172.08 703.79,-166.9 693.33,-165.18 694.55,-172.08"/>
</g>
<!-- Node22&#45;&gt;Node21 -->
<g id="edge38" class="edge">
<title>Node22&#45;&gt;Node21</title>
<path fill="none" stroke="midnightblue" d="M904.16,-220.54C896.83,-217.27 889.59,-213.58 883,-209.5 864.55,-198.07 866.05,-186.91 847,-176.5 839.97,-172.66 832.12,-169.56 824.26,-167.08"/>
<polygon fill="midnightblue" stroke="midnightblue" points="902.87,-223.8 913.45,-224.47 905.6,-217.35 902.87,-223.8"/>
</g>
<!-- Node23 -->
<g id="node23" class="node">
<title>Node23</title>
<g id="a_node23"><a xlink:href="class_t_interface.html#aa639148521a793641e694b15486b5055" target="_top" xlink:title=" ">
<polygon fill="white" stroke="black" points="710,-186.5 710,-216.5 838,-216.5 838,-186.5 710,-186.5"/>
<text text-anchor="start" x="718" y="-204.5" font-family="Helvetica,sans-Serif" font-size="10.00">TInterface::PresetAutoSig</text>
<text text-anchor="middle" x="774" y="-193.5" font-family="Helvetica,sans-Serif" font-size="10.00">RoutesButtonClick</text>
</a>
</g>
</g>
<!-- Node22&#45;&gt;Node23 -->
<g id="edge39" class="edge">
<title>Node22&#45;&gt;Node23</title>
<path fill="none" stroke="midnightblue" d="M881.75,-223.31C867.2,-220.34 852.18,-217.27 838.17,-214.41"/>
<polygon fill="midnightblue" stroke="midnightblue" points="881.24,-226.78 891.74,-225.35 882.64,-219.92 881.24,-226.78"/>
</g>
<!-- Node24&#45;&gt;Node17 -->
<g id="edge45" class="edge">
<title>Node24&#45;&gt;Node17</title>
<path fill="none" stroke="midnightblue" d="M1251.95,-426.74C1243.38,-425.86 1234.72,-424.97 1226.28,-424.1"/>
<polygon fill="midnightblue" stroke="midnightblue" points="1251.65,-430.23 1261.96,-427.77 1252.37,-423.27 1251.65,-430.23"/>
</g>
<!-- Node28 -->
<g id="node28" class="node">
<title>Node28</title>
<g id="a_node28"><a xlink:href="class_t_interface.html#aaaf32c3c815553f7ba70698e0f0071bb" target="_top" xlink:title=" ">
<polygon fill="white" stroke="black" points="1083.5,-0.5 1083.5,-30.5 1219.5,-30.5 1219.5,-0.5 1083.5,-0.5"/>
<text text-anchor="start" x="1091.5" y="-18.5" font-family="Helvetica,sans-Serif" font-size="10.00">TInterface::ChangeDirection</text>
<text text-anchor="middle" x="1151.5" y="-7.5" font-family="Helvetica,sans-Serif" font-size="10.00">MenuItemClick</text>
</a>
</g>
</g>
<!-- Node27&#45;&gt;Node28 -->
<g id="edge50" class="edge">
<title>Node27&#45;&gt;Node28</title>
<path fill="none" stroke="midnightblue" d="M1257.7,-15.5C1245.03,-15.5 1232.02,-15.5 1219.67,-15.5"/>
<polygon fill="midnightblue" stroke="midnightblue" points="1257.77,-19 1267.77,-15.5 1257.77,-12 1257.77,-19"/>
</g>
</g>
</svg>
        <g id="navigator" transform="translate(0 0)" fill="#404254">
                <rect fill="#f2f5e9" fill-opacity="0.5" stroke="#606060" stroke-width=".5" x="0" y="0" width="60" height="60"/>
                <use id="zoomplus" xlink:href="#zoomPlus" x="17" y="9" onmousedown="handleZoom(evt,'in')"/>
                <use id="zoomminus" xlink:href="#zoomMin" x="42" y="9" onmousedown="handleZoom(evt,'out')"/>
                <use id="reset" xlink:href="#resetDef" x="30" y="36" onmousedown="handleReset()"/>
                <g id="arrowUp" xlink:href="#dirArrow" transform="translate(30 24)" onmousedown="handlePan(0,-1)">
                  <use xlink:href="#rim" fill="#404040">
                        <set attributeName="fill" to="#808080" begin="arrowUp.mouseover" end="arrowUp.mouseout"/>
                  </use>
                  <path fill="none" stroke="white" stroke-width="1.5" d="M0,-3.0v7 M-2.5,-0.5L0,-3.0L2.5,-0.5"/>
                </g>
                <g id="arrowRight" xlink:href="#dirArrow" transform="rotate(90) translate(36 -43)" onmousedown="handlePan(1,0)">
                  <use xlink:href="#rim" fill="#404040">
                        <set attributeName="fill" to="#808080" begin="arrowRight.mouseover" end="arrowRight.mouseout"/>
                  </use>
                  <path fill="none" stroke="white" stroke-width="1.5" d="M0,-3.0v7 M-2.5,-0.5L0,-3.0L2.5,-0.5"/>
                </g>
                <g id="arrowDown" xlink:href="#dirArrow" transform="rotate(180) translate(-30 -48)" onmousedown="handlePan(0,1)">
                  <use xlink:href="#rim" fill="#404040">
                        <set attributeName="fill" to="#808080" begin="arrowDown.mouseover" end="arrowDown.mouseout"/>
                  </use>
                  <path fill="none" stroke="white" stroke-width="1.5" d="M0,-3.0v7 M-2.5,-0.5L0,-3.0L2.5,-0.5"/>
                </g>
                <g id="arrowLeft" xlink:href="#dirArrow" transform="rotate(270) translate(-36 17)" onmousedown="handlePan(-1,0)">
                  <use xlink:href="#rim" fill="#404040">
                        <set attributeName="fill" to="#808080" begin="arrowLeft.mouseover" end="arrowLeft.mouseout"/>
                  </use>
                  <path fill="none" stroke="white" stroke-width="1.5" d="M0,-3.0v7 M-2.5,-0.5L0,-3.0L2.5,-0.5"/>
                </g>
        </g>
        <svg viewBox="0 0 15 15" width="100%" height="30px" preserveAspectRatio="xMaxYMin meet">
         <g id="arrow_out" transform="scale(0.3 0.3)">
          <a xlink:href="class_t_all_routes_a0a9ccbc84687f85806115877aa86dcfd_icgraph_org.svg" target="_base">
           <rect id="button" ry="5" rx="5" y="6" x="6" height="38" width="38"
                fill="#f2f5e9" fill-opacity="0.5" stroke="#606060" stroke-width="1.0"/>
           <path id="arrow"
             d="M 11.500037,31.436501 C 11.940474,20.09759 22.043105,11.32322 32.158766,21.979434 L 37.068811,17.246167 C 37.068811,17.246167 37.088388,32 37.088388,32 L 22.160133,31.978069 C 22.160133,31.978069 26.997745,27.140456 26.997745,27.140456 C 18.528582,18.264221 13.291696,25.230495 11.500037,31.436501 z"
             style="fill:#404040;"/>
          </a>
         </g>
        </svg>
</svg>
