<?xml version="1.0" encoding="UTF-8" standalone="no"?>
<!DOCTYPE svg PUBLIC "-//W3C//DTD SVG 1.1//EN"
 "http://www.w3.org/Graphics/SVG/1.1/DTD/svg11.dtd">
<!-- Generated by graphviz version 2.44.1 (20200629.0800)
 -->
<!-- Title: TTrainController::CheckNonRepeatingShuttleLinksAndSetData Pages: 1 -->
<svg width="492pt" height="144pt"
 viewBox="0.00 0.00 492.00 143.85" xmlns="http://www.w3.org/2000/svg" xmlns:xlink="http://www.w3.org/1999/xlink">
<g id="graph0" class="graph" transform="scale(1 1) rotate(0) translate(4 139.85)">
<title>TTrainController::CheckNonRepeatingShuttleLinksAndSetData</title>
<polygon fill="white" stroke="transparent" points="-4,4 -4,-139.85 488,-139.85 488,4 -4,4"/>
<!-- Node1 -->
<g id="node1" class="node">
<title>Node1</title>
<g id="a_node1"><a xlink:title="A timetable validation function where cross references are checked for validity for non&#45;repeating shu...">
<polygon fill="#bfbfbf" stroke="black" points="0,-66.5 0,-96.5 167,-96.5 167,-66.5 0,-66.5"/>
<text text-anchor="start" x="8" y="-84.5" font-family="Helvetica,sans-Serif" font-size="10.00">TTrainController::CheckNon</text>
<text text-anchor="middle" x="83.5" y="-73.5" font-family="Helvetica,sans-Serif" font-size="10.00">RepeatingShuttleLinksAndSetData</text>
</a>
</g>
</g>
<!-- Node2 -->
<g id="node2" class="node">
<title>Node2</title>
<g id="a_node2"><a xlink:href="class_t_utilities.html#ae1eddca13cc3c492839e131f40ec21c0" target="_top" xlink:title="&lt; specifies whether no delays or minor, moderate or major random delays are to be applied">
<polygon fill="white" stroke="black" points="374,-114 374,-133 484,-133 484,-114 374,-114"/>
<text text-anchor="middle" x="429" y="-121" font-family="Helvetica,sans-Serif" font-size="10.00">TUtilities::CallLogPop</text>
</a>
</g>
</g>
<!-- Node1&#45;&gt;Node2 -->
<g id="edge1" class="edge">
<title>Node1&#45;&gt;Node2</title>
<path fill="none" stroke="midnightblue" d="M113.75,-96.72C137.18,-108 171.26,-122.44 203,-128.5 256.52,-138.73 318.5,-136.33 363.84,-132.02"/>
<polygon fill="midnightblue" stroke="midnightblue" points="364.23,-135.5 373.83,-131.02 363.53,-128.54 364.23,-135.5"/>
</g>
<!-- Node3 -->
<g id="node3" class="node">
<title>Node3</title>
<g id="a_node3"><a xlink:href="class_t_train_controller.html#a45168500acc985a1573602e0c00a0d9a" target="_top" xlink:title="The forward train is the finish shuttle entry &#39;Fns&#45;sh&#39;, the reverse (new non&#45;repeating service) time ...">
<polygon fill="white" stroke="black" points="203,-88.5 203,-118.5 338,-118.5 338,-88.5 203,-88.5"/>
<text text-anchor="start" x="211" y="-106.5" font-family="Helvetica,sans-Serif" font-size="10.00">TTrainController::CheckNon</text>
<text text-anchor="middle" x="270.5" y="-95.5" font-family="Helvetica,sans-Serif" font-size="10.00">RepeatingShuttleLinkTime</text>
</a>
</g>
</g>
<!-- Node1&#45;&gt;Node3 -->
<g id="edge2" class="edge">
<title>Node1&#45;&gt;Node3</title>
<path fill="none" stroke="midnightblue" d="M167.26,-91.34C175.74,-92.35 184.33,-93.37 192.75,-94.37"/>
<polygon fill="midnightblue" stroke="midnightblue" points="192.56,-97.87 202.9,-95.58 193.38,-90.92 192.56,-97.87"/>
</g>
<!-- Node4 -->
<g id="node4" class="node">
<title>Node4</title>
<g id="a_node4"><a xlink:href="class_t_utilities.html#a34bd6bb5305bc29afdf424f6d35a921c" target="_top" xlink:title="creates a string of the form &#39;hh:mm:ss&#39; for use in call &amp; event logging">
<polygon fill="white" stroke="black" points="374,-73 374,-92 484,-92 484,-73 374,-73"/>
<text text-anchor="middle" x="429" y="-80" font-family="Helvetica,sans-Serif" font-size="10.00">TUtilities::TimeStamp</text>
</a>
</g>
</g>
<!-- Node1&#45;&gt;Node4 -->
<g id="edge6" class="edge">
<title>Node1&#45;&gt;Node4</title>
<path fill="none" stroke="midnightblue" d="M167.28,-79.1C216.82,-78.02 281.02,-77.23 338,-78.5 346.32,-78.68 355.06,-78.97 363.7,-79.29"/>
<polygon fill="midnightblue" stroke="midnightblue" points="363.63,-82.79 373.76,-79.7 363.91,-75.8 363.63,-82.79"/>
</g>
<!-- Node5 -->
<g id="node5" class="node">
<title>Node5</title>
<g id="a_node5"><a xlink:href="class_t_train_controller.html#a8df4599a1ae95093241fb707711af894" target="_top" xlink:title="Give a user message during timetable integrity checking if GiveMessages is true, ignore if false.">
<polygon fill="white" stroke="black" points="209,-0.5 209,-30.5 332,-30.5 332,-0.5 209,-0.5"/>
<text text-anchor="start" x="217" y="-18.5" font-family="Helvetica,sans-Serif" font-size="10.00">TTrainController::Second</text>
<text text-anchor="middle" x="270.5" y="-7.5" font-family="Helvetica,sans-Serif" font-size="10.00">PassMessage</text>
</a>
</g>
</g>
<!-- Node1&#45;&gt;Node5 -->
<g id="edge5" class="edge">
<title>Node1&#45;&gt;Node5</title>
<path fill="none" stroke="midnightblue" d="M126.94,-66.36C153.97,-56.72 189.16,-44.16 217.81,-33.94"/>
<polygon fill="midnightblue" stroke="midnightblue" points="219.01,-37.23 227.25,-30.57 216.66,-30.63 219.01,-37.23"/>
</g>
<!-- Node3&#45;&gt;Node2 -->
<g id="edge3" class="edge">
<title>Node3&#45;&gt;Node2</title>
<path fill="none" stroke="midnightblue" d="M338.32,-112.04C346.71,-113.11 355.28,-114.21 363.63,-115.27"/>
<polygon fill="midnightblue" stroke="midnightblue" points="363.31,-118.76 373.67,-116.56 364.2,-111.82 363.31,-118.76"/>
</g>
<!-- Node3&#45;&gt;Node4 -->
<g id="edge4" class="edge">
<title>Node3&#45;&gt;Node4</title>
<path fill="none" stroke="midnightblue" d="M338.32,-94.53C346.71,-93.41 355.28,-92.26 363.63,-91.14"/>
<polygon fill="midnightblue" stroke="midnightblue" points="364.23,-94.59 373.67,-89.79 363.3,-87.65 364.23,-94.59"/>
</g>
</g>
</svg>
