<?xml version="1.0" encoding="UTF-8" standalone="no"?>
<!DOCTYPE svg PUBLIC "-//W3C//DTD SVG 1.1//EN"
 "http://www.w3.org/Graphics/SVG/1.1/DTD/svg11.dtd">
<!-- Generated by graphviz version 2.44.1 (20200629.0800)
 -->
<!-- Title: TTrack::SetLinkedManualLCs Pages: 1 -->
<!--zoomable 224 -->
<svg id="main" version="1.1" xmlns="http://www.w3.org/2000/svg" xmlns:xlink="http://www.w3.org/1999/xlink" xml:space="preserve" onload="init(evt)">
<style type="text/css"><![CDATA[
.edge:hover path { stroke: red; }
.edge:hover polygon { stroke: red; fill: red; }
]]></style>
<script type="text/javascript"><![CDATA[
var edges = document.getElementsByTagName('g');
if (edges && edges.length) {
  for (var i=0;i<edges.length;i++) {
    if (edges[i].id.substr(0,4)=='edge') {
      edges[i].setAttribute('class','edge');
    }
  }
}
]]></script>
        <defs>
                <circle id="rim" cx="0" cy="0" r="7"/>
                <circle id="rim2" cx="0" cy="0" r="3.5"/>
                <g id="zoomPlus">
                        <use xlink:href="#rim" fill="#404040">
                                <set attributeName="fill" to="#808080" begin="zoomplus.mouseover" end="zoomplus.mouseout"/>
                        </use>
                        <path d="M-4,0h8M0,-4v8" fill="none" stroke="white" stroke-width="1.5" pointer-events="none"/>
                </g>
                <g id="zoomMin">
                        <use xlink:href="#rim" fill="#404040">
                                <set attributeName="fill" to="#808080" begin="zoomminus.mouseover" end="zoomminus.mouseout"/>
                        </use>
                        <path d="M-4,0h8" fill="none" stroke="white" stroke-width="1.5" pointer-events="none"/>
                </g>
                <g id="dirArrow">
                        <path fill="none" stroke="white" stroke-width="1.5" d="M0,-3.0v7 M-2.5,-0.5L0,-3.0L2.5,-0.5"/>
                </g>
               <g id="resetDef">
                       <use xlink:href="#rim2" fill="#404040">
                               <set attributeName="fill" to="#808080" begin="reset.mouseover" end="reset.mouseout"/>
                       </use>
               </g>
        </defs>

<script type="text/javascript">
var viewWidth = 619;
var viewHeight = 224;
var sectionId = 'dynsection-263';
</script>
<script xlink:href="svgpan.js"/>
<svg id="graph" class="graph">
<g id="viewport">
<title>TTrack::SetLinkedManualLCs</title>
<polygon fill="white" stroke="transparent" points="-4,4 -4,-220.25 615,-220.25 615,4 -4,4"/>
<!-- Node1 -->
<g id="node1" class="node">
<title>Node1</title>
<g id="a_node1"><a xlink:title="Set all TypeOfRoute values to 2 for all linked LCs to indicate manually lowered.">
<polygon fill="#bfbfbf" stroke="black" points="0,-122.63 0,-141.63 144,-141.63 144,-122.63 0,-122.63"/>
<text text-anchor="middle" x="72" y="-129.63" font-family="Helvetica,sans-Serif" font-size="10.00">TTrack::SetLinkedManualLCs</text>
</a>
</g>
</g>
<!-- Node2 -->
<g id="node2" class="node">
<title>Node2</title>
<g id="a_node2"><a xlink:href="class_t_utilities.html#ae1eddca13cc3c492839e131f40ec21c0" target="_top" xlink:title="pops the last entry off the call stack, throws an error if called when empty">
<polygon fill="white" stroke="black" points="501,-122.63 501,-141.63 611,-141.63 611,-122.63 501,-122.63"/>
<text text-anchor="middle" x="556" y="-129.63" font-family="Helvetica,sans-Serif" font-size="10.00">TUtilities::CallLogPop</text>
</a>
</g>
</g>
<!-- Node1&#45;&gt;Node2 -->
<g id="edge1" class="edge">
<title>Node1&#45;&gt;Node2</title>
<path fill="none" stroke="midnightblue" d="M91.46,-141.72C148.48,-169.99 326.27,-248.19 465,-201.13 495.12,-190.91 523.07,-166.11 539.59,-149.2"/>
<polygon fill="midnightblue" stroke="midnightblue" points="542.42,-151.3 546.74,-141.63 537.33,-146.5 542.42,-151.3"/>
</g>
<!-- Node3 -->
<g id="node3" class="node">
<title>Node3</title>
<g id="a_node3"><a xlink:href="class_t_track.html#a73e781d0ada0b77618b886557f79b115" target="_top" xlink:title="True if a level crossing is found at H &amp; V.">
<polygon fill="white" stroke="black" points="180,-78.63 180,-97.63 275,-97.63 275,-78.63 180,-78.63"/>
<text text-anchor="middle" x="227.5" y="-85.63" font-family="Helvetica,sans-Serif" font-size="10.00">TTrack::IsLCAtHV</text>
</a>
</g>
</g>
<!-- Node1&#45;&gt;Node3 -->
<g id="edge2" class="edge">
<title>Node1&#45;&gt;Node3</title>
<path fill="none" stroke="midnightblue" d="M106.31,-122.58C128.94,-116.1 159.08,-107.46 183.52,-100.45"/>
<polygon fill="midnightblue" stroke="midnightblue" points="184.61,-103.78 193.26,-97.66 182.68,-97.05 184.61,-103.78"/>
</g>
<!-- Node5 -->
<g id="node5" class="node">
<title>Node5</title>
<g id="a_node5"><a xlink:href="class_t_utilities.html#a34bd6bb5305bc29afdf424f6d35a921c" target="_top" xlink:title="creates a string of the form &#39;hh:mm:ss&#39; for use in call &amp; event logging">
<polygon fill="white" stroke="black" points="501,-34.63 501,-53.63 611,-53.63 611,-34.63 501,-34.63"/>
<text text-anchor="middle" x="556" y="-41.63" font-family="Helvetica,sans-Serif" font-size="10.00">TUtilities::TimeStamp</text>
</a>
</g>
</g>
<!-- Node1&#45;&gt;Node5 -->
<g id="edge14" class="edge">
<title>Node1&#45;&gt;Node5</title>
<path fill="none" stroke="midnightblue" d="M85.99,-122.29C120.36,-96.97 217.48,-30.22 311,-10.13 377.92,4.24 397.67,2.16 465,-10.13 486.29,-14.02 509.08,-22.68 526.41,-30.29"/>
<polygon fill="midnightblue" stroke="midnightblue" points="525.37,-33.66 535.92,-34.6 528.26,-27.28 525.37,-33.66"/>
</g>
<!-- Node7 -->
<g id="node7" class="node">
<title>Node7</title>
<g id="a_node7"><a xlink:href="class_t_track.html#aec33abe03255861c32284031b7c9dd98" target="_top" xlink:title="Set TypeOfRoute value to 2 to indicate barriers manually closed.">
<polygon fill="white" stroke="black" points="314.5,-161.13 314.5,-191.13 461.5,-191.13 461.5,-161.13 314.5,-161.13"/>
<text text-anchor="start" x="322.5" y="-179.13" font-family="Helvetica,sans-Serif" font-size="10.00">TTrack::SetBarriersDownLCTo</text>
<text text-anchor="middle" x="388" y="-168.13" font-family="Helvetica,sans-Serif" font-size="10.00">Manual</text>
</a>
</g>
</g>
<!-- Node1&#45;&gt;Node7 -->
<g id="edge11" class="edge">
<title>Node1&#45;&gt;Node7</title>
<path fill="none" stroke="midnightblue" d="M141.13,-141.68C189.07,-148.4 253.49,-157.42 304.37,-164.55"/>
<polygon fill="midnightblue" stroke="midnightblue" points="303.96,-168.03 314.35,-165.95 304.94,-161.1 303.96,-168.03"/>
</g>
<!-- Node3&#45;&gt;Node2 -->
<g id="edge3" class="edge">
<title>Node3&#45;&gt;Node2</title>
<path fill="none" stroke="midnightblue" d="M254.89,-97.72C270.9,-103.14 291.88,-109.53 311,-113.13 371.23,-124.46 441.05,-129.06 490.53,-130.91"/>
<polygon fill="midnightblue" stroke="midnightblue" points="490.65,-134.41 500.77,-131.26 490.9,-127.42 490.65,-134.41"/>
</g>
<!-- Node4 -->
<g id="node4" class="node">
<title>Node4</title>
<g id="a_node4"><a xlink:href="class_t_track.html#a418966e6fefb71b9d0c9b941197832da" target="_top" xlink:title="Similar to GetVectorPositionFromTrackMap but for inactive elements, a pair is returned because there ...">
<polygon fill="white" stroke="black" points="319.5,-73.13 319.5,-103.13 456.5,-103.13 456.5,-73.13 319.5,-73.13"/>
<text text-anchor="start" x="327.5" y="-91.13" font-family="Helvetica,sans-Serif" font-size="10.00">TTrack::GetVectorPositions</text>
<text text-anchor="middle" x="388" y="-80.13" font-family="Helvetica,sans-Serif" font-size="10.00">FromInactiveTrackMap</text>
</a>
</g>
</g>
<!-- Node3&#45;&gt;Node4 -->
<g id="edge4" class="edge">
<title>Node3&#45;&gt;Node4</title>
<path fill="none" stroke="midnightblue" d="M275.2,-88.13C285.93,-88.13 297.63,-88.13 309.29,-88.13"/>
<polygon fill="midnightblue" stroke="midnightblue" points="309.49,-91.63 319.49,-88.13 309.49,-84.63 309.49,-91.63"/>
</g>
<!-- Node3&#45;&gt;Node5 -->
<g id="edge10" class="edge">
<title>Node3&#45;&gt;Node5</title>
<path fill="none" stroke="midnightblue" d="M236.95,-78.5C250.71,-63.65 279.59,-35.75 311,-25.13 380.14,-1.75 466.36,-18.3 515.6,-31.72"/>
<polygon fill="midnightblue" stroke="midnightblue" points="514.95,-35.18 525.53,-34.52 516.86,-28.44 514.95,-35.18"/>
</g>
<!-- Node6 -->
<g id="node6" class="node">
<title>Node6</title>
<g id="a_node6"><a xlink:href="class_t_track.html#a51f89cf70e94b037f6378cd78003d82b" target="_top" xlink:title="A range&#45;checked version of InactiveTrackVector.at(At)">
<polygon fill="white" stroke="black" points="311,-34.63 311,-53.63 465,-53.63 465,-34.63 311,-34.63"/>
<text text-anchor="middle" x="388" y="-41.63" font-family="Helvetica,sans-Serif" font-size="10.00">TTrack::InactiveTrackElementAt</text>
</a>
</g>
</g>
<!-- Node3&#45;&gt;Node6 -->
<g id="edge7" class="edge">
<title>Node3&#45;&gt;Node6</title>
<path fill="none" stroke="midnightblue" d="M258.57,-78.63C274.16,-73.8 293.55,-67.95 311,-63.13 319.48,-60.79 328.52,-58.42 337.3,-56.18"/>
<polygon fill="midnightblue" stroke="midnightblue" points="338.22,-59.56 347.07,-53.72 336.51,-52.77 338.22,-59.56"/>
</g>
<!-- Node4&#45;&gt;Node2 -->
<g id="edge5" class="edge">
<title>Node4&#45;&gt;Node2</title>
<path fill="none" stroke="midnightblue" d="M445.66,-103.15C466.3,-108.62 489.36,-114.73 508.96,-119.93"/>
<polygon fill="midnightblue" stroke="midnightblue" points="508.3,-123.37 518.86,-122.55 510.09,-116.61 508.3,-123.37"/>
</g>
<!-- Node4&#45;&gt;Node5 -->
<g id="edge6" class="edge">
<title>Node4&#45;&gt;Node5</title>
<path fill="none" stroke="midnightblue" d="M445.66,-73.11C466.3,-67.64 489.36,-61.53 508.96,-56.33"/>
<polygon fill="midnightblue" stroke="midnightblue" points="510.09,-59.65 518.86,-53.71 508.3,-52.89 510.09,-59.65"/>
</g>
<!-- Node6&#45;&gt;Node2 -->
<g id="edge8" class="edge">
<title>Node6&#45;&gt;Node2</title>
<path fill="none" stroke="midnightblue" d="M439.49,-53.66C448.22,-56.17 457.04,-59.29 465,-63.13 493.04,-76.66 520.78,-99.8 537.89,-115.52"/>
<polygon fill="midnightblue" stroke="midnightblue" points="535.7,-118.27 545.39,-122.56 540.5,-113.17 535.7,-118.27"/>
</g>
<!-- Node6&#45;&gt;Node5 -->
<g id="edge9" class="edge">
<title>Node6&#45;&gt;Node5</title>
<path fill="none" stroke="midnightblue" d="M465.2,-44.13C473.59,-44.13 482.07,-44.13 490.3,-44.13"/>
<polygon fill="midnightblue" stroke="midnightblue" points="490.57,-47.63 500.57,-44.13 490.57,-40.63 490.57,-47.63"/>
</g>
<!-- Node7&#45;&gt;Node2 -->
<g id="edge12" class="edge">
<title>Node7&#45;&gt;Node2</title>
<path fill="none" stroke="midnightblue" d="M445.66,-161.11C466.3,-155.64 489.36,-149.53 508.96,-144.33"/>
<polygon fill="midnightblue" stroke="midnightblue" points="510.09,-147.65 518.86,-141.71 508.3,-140.89 510.09,-147.65"/>
</g>
<!-- Node7&#45;&gt;Node5 -->
<g id="edge13" class="edge">
<title>Node7&#45;&gt;Node5</title>
<path fill="none" stroke="midnightblue" d="M408.04,-160.99C439.63,-135.87 502.56,-85.83 534.85,-60.15"/>
<polygon fill="midnightblue" stroke="midnightblue" points="537.09,-62.85 542.73,-53.88 532.73,-57.37 537.09,-62.85"/>
</g>
</g>
</svg>
        <g id="navigator" transform="translate(0 0)" fill="#404254">
                <rect fill="#f2f5e9" fill-opacity="0.5" stroke="#606060" stroke-width=".5" x="0" y="0" width="60" height="60"/>
                <use id="zoomplus" xlink:href="#zoomPlus" x="17" y="9" onmousedown="handleZoom(evt,'in')"/>
                <use id="zoomminus" xlink:href="#zoomMin" x="42" y="9" onmousedown="handleZoom(evt,'out')"/>
                <use id="reset" xlink:href="#resetDef" x="30" y="36" onmousedown="handleReset()"/>
                <g id="arrowUp" xlink:href="#dirArrow" transform="translate(30 24)" onmousedown="handlePan(0,-1)">
                  <use xlink:href="#rim" fill="#404040">
                        <set attributeName="fill" to="#808080" begin="arrowUp.mouseover" end="arrowUp.mouseout"/>
                  </use>
                  <path fill="none" stroke="white" stroke-width="1.5" d="M0,-3.0v7 M-2.5,-0.5L0,-3.0L2.5,-0.5"/>
                </g>
                <g id="arrowRight" xlink:href="#dirArrow" transform="rotate(90) translate(36 -43)" onmousedown="handlePan(1,0)">
                  <use xlink:href="#rim" fill="#404040">
                        <set attributeName="fill" to="#808080" begin="arrowRight.mouseover" end="arrowRight.mouseout"/>
                  </use>
                  <path fill="none" stroke="white" stroke-width="1.5" d="M0,-3.0v7 M-2.5,-0.5L0,-3.0L2.5,-0.5"/>
                </g>
                <g id="arrowDown" xlink:href="#dirArrow" transform="rotate(180) translate(-30 -48)" onmousedown="handlePan(0,1)">
                  <use xlink:href="#rim" fill="#404040">
                        <set attributeName="fill" to="#808080" begin="arrowDown.mouseover" end="arrowDown.mouseout"/>
                  </use>
                  <path fill="none" stroke="white" stroke-width="1.5" d="M0,-3.0v7 M-2.5,-0.5L0,-3.0L2.5,-0.5"/>
                </g>
                <g id="arrowLeft" xlink:href="#dirArrow" transform="rotate(270) translate(-36 17)" onmousedown="handlePan(-1,0)">
                  <use xlink:href="#rim" fill="#404040">
                        <set attributeName="fill" to="#808080" begin="arrowLeft.mouseover" end="arrowLeft.mouseout"/>
                  </use>
                  <path fill="none" stroke="white" stroke-width="1.5" d="M0,-3.0v7 M-2.5,-0.5L0,-3.0L2.5,-0.5"/>
                </g>
        </g>
        <svg viewBox="0 0 15 15" width="100%" height="30px" preserveAspectRatio="xMaxYMin meet">
         <g id="arrow_out" transform="scale(0.3 0.3)">
          <a xlink:href="class_t_track_a603206eee65e4b536af10b048e3573c6_cgraph_org.svg" target="_base">
           <rect id="button" ry="5" rx="5" y="6" x="6" height="38" width="38"
                fill="#f2f5e9" fill-opacity="0.5" stroke="#606060" stroke-width="1.0"/>
           <path id="arrow"
             d="M 11.500037,31.436501 C 11.940474,20.09759 22.043105,11.32322 32.158766,21.979434 L 37.068811,17.246167 C 37.068811,17.246167 37.088388,32 37.088388,32 L 22.160133,31.978069 C 22.160133,31.978069 26.997745,27.140456 26.997745,27.140456 C 18.528582,18.264221 13.291696,25.230495 11.500037,31.436501 z"
             style="fill:#404040;"/>
          </a>
         </g>
        </svg>
</svg>
