<?xml version="1.0" encoding="UTF-8" standalone="no"?>
<!DOCTYPE svg PUBLIC "-//W3C//DTD SVG 1.1//EN"
 "http://www.w3.org/Graphics/SVG/1.1/DTD/svg11.dtd">
<!-- Generated by graphviz version 2.44.1 (20200629.0800)
 -->
<!-- Title: TTrain::PlotTrainInZoomOutMode Pages: 1 -->
<svg width="479pt" height="96pt"
 viewBox="0.00 0.00 479.00 95.94" xmlns="http://www.w3.org/2000/svg" xmlns:xlink="http://www.w3.org/1999/xlink">
<g id="graph0" class="graph" transform="scale(1 1) rotate(0) translate(4 91.94)">
<title>TTrain::PlotTrainInZoomOutMode</title>
<polygon fill="white" stroke="transparent" points="-4,4 -4,-91.94 475,-91.94 475,4 -4,4"/>
<!-- Node1 -->
<g id="node1" class="node">
<title>Node1</title>
<g id="a_node1"><a xlink:title="Plots the train on screen in zoomed&#45;out mode, state of &#39;Flash&#39; determines whether the flashing trains...">
<polygon fill="#bfbfbf" stroke="black" points="0,-34.47 0,-53.47 158,-53.47 158,-34.47 0,-34.47"/>
<text text-anchor="middle" x="79" y="-41.47" font-family="Helvetica,sans-Serif" font-size="10.00">TTrain::PlotTrainInZoomOutMode</text>
</a>
</g>
</g>
<!-- Node2 -->
<g id="node2" class="node">
<title>Node2</title>
<g id="a_node2"><a xlink:href="class_t_utilities.html#ae1eddca13cc3c492839e131f40ec21c0" target="_top" xlink:title="&lt; specifies whether no delays or minor, moderate or major random delays are to be applied">
<polygon fill="white" stroke="black" points="361,-53.47 361,-72.47 471,-72.47 471,-53.47 361,-53.47"/>
<text text-anchor="middle" x="416" y="-60.47" font-family="Helvetica,sans-Serif" font-size="10.00">TUtilities::CallLogPop</text>
</a>
</g>
</g>
<!-- Node1&#45;&gt;Node2 -->
<g id="edge1" class="edge">
<title>Node1&#45;&gt;Node2</title>
<path fill="none" stroke="midnightblue" d="M101.75,-53.56C124.3,-62.95 160.85,-76.59 194,-81.97 251.47,-91.3 267.09,-88.02 325,-81.97 339.31,-80.48 354.7,-77.68 368.64,-74.68"/>
<polygon fill="midnightblue" stroke="midnightblue" points="369.5,-78.08 378.49,-72.48 367.97,-71.24 369.5,-78.08"/>
</g>
<!-- Node3 -->
<g id="node3" class="node">
<title>Node3</title>
<g id="a_node3"><a xlink:href="class_t_display.html#a95aaa80515f0abb7715920b326b318dd" target="_top" xlink:title="Plot small (4x4) graphic PlotItem on the zoomed&#45;out display at HPos &amp; Vpos.">
<polygon fill="white" stroke="black" points="194,-53.47 194,-72.47 325,-72.47 325,-53.47 194,-53.47"/>
<text text-anchor="middle" x="259.5" y="-60.47" font-family="Helvetica,sans-Serif" font-size="10.00">TDisplay::PlotSmallOutput</text>
</a>
</g>
</g>
<!-- Node1&#45;&gt;Node3 -->
<g id="edge2" class="edge">
<title>Node1&#45;&gt;Node3</title>
<path fill="none" stroke="midnightblue" d="M158.03,-52.28C166.66,-53.19 175.44,-54.13 184.02,-55.04"/>
<polygon fill="midnightblue" stroke="midnightblue" points="183.68,-58.53 193.99,-56.1 184.42,-51.56 183.68,-58.53"/>
</g>
<!-- Node4 -->
<g id="node4" class="node">
<title>Node4</title>
<g id="a_node4"><a xlink:href="class_t_utilities.html#a34bd6bb5305bc29afdf424f6d35a921c" target="_top" xlink:title="creates a string of the form &#39;hh:mm:ss&#39; for use in call &amp; event logging">
<polygon fill="white" stroke="black" points="361,-15.47 361,-34.47 471,-34.47 471,-15.47 361,-15.47"/>
<text text-anchor="middle" x="416" y="-22.47" font-family="Helvetica,sans-Serif" font-size="10.00">TUtilities::TimeStamp</text>
</a>
</g>
</g>
<!-- Node1&#45;&gt;Node4 -->
<g id="edge5" class="edge">
<title>Node1&#45;&gt;Node4</title>
<path fill="none" stroke="midnightblue" d="M101.75,-34.38C124.3,-24.99 160.85,-11.35 194,-5.97 251.47,3.36 267.09,0.08 325,-5.97 339.31,-7.46 354.7,-10.26 368.64,-13.26"/>
<polygon fill="midnightblue" stroke="midnightblue" points="367.97,-16.69 378.49,-15.46 369.5,-9.86 367.97,-16.69"/>
</g>
<!-- Node5 -->
<g id="node5" class="node">
<title>Node5</title>
<g id="a_node5"><a xlink:href="class_t_track.html#ad377e5a1f152f2e89832c0f9bcfd261f" target="_top" xlink:title="A range&#45;checked version of TrackVector.at(At)">
<polygon fill="white" stroke="black" points="198.5,-15.47 198.5,-34.47 320.5,-34.47 320.5,-15.47 198.5,-15.47"/>
<text text-anchor="middle" x="259.5" y="-22.47" font-family="Helvetica,sans-Serif" font-size="10.00">TTrack::TrackElementAt</text>
</a>
</g>
</g>
<!-- Node1&#45;&gt;Node5 -->
<g id="edge6" class="edge">
<title>Node1&#45;&gt;Node5</title>
<path fill="none" stroke="midnightblue" d="M158.03,-35.66C168.06,-34.6 178.28,-33.51 188.17,-32.46"/>
<polygon fill="midnightblue" stroke="midnightblue" points="188.77,-35.91 198.34,-31.37 188.03,-28.95 188.77,-35.91"/>
</g>
<!-- Node3&#45;&gt;Node2 -->
<g id="edge3" class="edge">
<title>Node3&#45;&gt;Node2</title>
<path fill="none" stroke="midnightblue" d="M325.13,-62.97C333.59,-62.97 342.27,-62.97 350.72,-62.97"/>
<polygon fill="midnightblue" stroke="midnightblue" points="350.91,-66.47 360.91,-62.97 350.91,-59.47 350.91,-66.47"/>
</g>
<!-- Node3&#45;&gt;Node4 -->
<g id="edge4" class="edge">
<title>Node3&#45;&gt;Node4</title>
<path fill="none" stroke="midnightblue" d="M299.49,-53.38C319.78,-48.39 344.79,-42.24 366.35,-36.94"/>
<polygon fill="midnightblue" stroke="midnightblue" points="367.42,-40.28 376.29,-34.49 365.75,-33.48 367.42,-40.28"/>
</g>
<!-- Node5&#45;&gt;Node2 -->
<g id="edge7" class="edge">
<title>Node5&#45;&gt;Node2</title>
<path fill="none" stroke="midnightblue" d="M299.49,-34.56C319.78,-39.55 344.79,-45.7 366.35,-51"/>
<polygon fill="midnightblue" stroke="midnightblue" points="365.75,-54.46 376.29,-53.45 367.42,-47.66 365.75,-54.46"/>
</g>
<!-- Node5&#45;&gt;Node4 -->
<g id="edge8" class="edge">
<title>Node5&#45;&gt;Node4</title>
<path fill="none" stroke="midnightblue" d="M320.68,-24.97C330.49,-24.97 340.68,-24.97 350.59,-24.97"/>
<polygon fill="midnightblue" stroke="midnightblue" points="350.78,-28.47 360.78,-24.97 350.78,-21.47 350.78,-28.47"/>
</g>
</g>
</svg>
