<?xml version="1.0" encoding="UTF-8" standalone="no"?>
<!DOCTYPE svg PUBLIC "-//W3C//DTD SVG 1.1//EN"
 "http://www.w3.org/Graphics/SVG/1.1/DTD/svg11.dtd">
<!-- Generated by graphviz version 2.44.1 (20200629.0800)
 -->
<!-- Title: TTrack::IsReadyForOperation Pages: 1 -->
<svg width="473pt" height="104pt"
 viewBox="0.00 0.00 473.00 104.00" xmlns="http://www.w3.org/2000/svg" xmlns:xlink="http://www.w3.org/1999/xlink">
<g id="graph0" class="graph" transform="scale(1 1) rotate(0) translate(4 100)">
<title>TTrack::IsReadyForOperation</title>
<polygon fill="white" stroke="transparent" points="-4,4 -4,-100 469,-100 469,4 -4,4"/>
<!-- Node1 -->
<g id="node1" class="node">
<title>Node1</title>
<g id="a_node1"><a xlink:title="Indicates whether or not the railway is ready for saving as a &#39;.rly&#39; file and for operation.">
<polygon fill="#bfbfbf" stroke="black" points="0,-38.5 0,-57.5 143,-57.5 143,-38.5 0,-38.5"/>
<text text-anchor="middle" x="71.5" y="-45.5" font-family="Helvetica,sans-Serif" font-size="10.00">TTrack::IsReadyForOperation</text>
</a>
</g>
</g>
<!-- Node2 -->
<g id="node2" class="node">
<title>Node2</title>
<g id="a_node2"><a xlink:href="class_t_track.html#a794daa0471b473e28ff24c87a92112dc" target="_top" xlink:title="True if there are gaps in the railway and any are unset.">
<polygon fill="white" stroke="black" points="198.5,-38.5 198.5,-57.5 299.5,-57.5 299.5,-38.5 198.5,-38.5"/>
<text text-anchor="middle" x="249" y="-45.5" font-family="Helvetica,sans-Serif" font-size="10.00">TTrack::GapsUnset</text>
</a>
</g>
</g>
<!-- Node1&#45;&gt;Node2 -->
<g id="edge1" class="edge">
<title>Node1&#45;&gt;Node2</title>
<path fill="none" stroke="midnightblue" d="M143.12,-48C157.99,-48 173.54,-48 187.98,-48"/>
<polygon fill="midnightblue" stroke="midnightblue" points="188.27,-51.5 198.27,-48 188.27,-44.5 188.27,-51.5"/>
</g>
<!-- Node5 -->
<g id="node5" class="node">
<title>Node5</title>
<g id="a_node5"><a xlink:href="class_t_track.html#aa8386109483977bfaa97909747358149" target="_top" xlink:title="Indicates whether or not the track has been successfully linked together.">
<polygon fill="white" stroke="black" points="189,-0.5 189,-19.5 309,-19.5 309,-0.5 189,-0.5"/>
<text text-anchor="middle" x="249" y="-7.5" font-family="Helvetica,sans-Serif" font-size="10.00">TTrack::IsTrackFinished</text>
</a>
</g>
</g>
<!-- Node1&#45;&gt;Node5 -->
<g id="edge4" class="edge">
<title>Node1&#45;&gt;Node5</title>
<path fill="none" stroke="midnightblue" d="M116.79,-38.41C140.26,-33.33 169.28,-27.04 194.06,-21.68"/>
<polygon fill="midnightblue" stroke="midnightblue" points="195,-25.06 204.03,-19.52 193.52,-18.22 195,-25.06"/>
</g>
<!-- Node6 -->
<g id="node6" class="node">
<title>Node6</title>
<g id="a_node6"><a xlink:href="class_t_track.html#ad7d7ef450424ea6aab50db5445c6448c" target="_top" xlink:title="True if there are unnamed NamedLocationElements (includes footcrossings)">
<polygon fill="white" stroke="black" points="179,-76.5 179,-95.5 319,-95.5 319,-76.5 179,-76.5"/>
<text text-anchor="middle" x="249" y="-83.5" font-family="Helvetica,sans-Serif" font-size="10.00">TTrack::LocationsNotNamed</text>
</a>
</g>
</g>
<!-- Node1&#45;&gt;Node6 -->
<g id="edge5" class="edge">
<title>Node1&#45;&gt;Node6</title>
<path fill="none" stroke="midnightblue" d="M116.79,-57.59C140.26,-62.67 169.28,-68.96 194.06,-74.32"/>
<polygon fill="midnightblue" stroke="midnightblue" points="193.52,-77.78 204.03,-76.48 195,-70.94 193.52,-77.78"/>
</g>
<!-- Node3 -->
<g id="node3" class="node">
<title>Node3</title>
<g id="a_node3"><a xlink:href="class_t_utilities.html#ae1eddca13cc3c492839e131f40ec21c0" target="_top" xlink:title="pops the last entry off the call stack, throws an error if called when empty">
<polygon fill="white" stroke="black" points="355,-76.5 355,-95.5 465,-95.5 465,-76.5 355,-76.5"/>
<text text-anchor="middle" x="410" y="-83.5" font-family="Helvetica,sans-Serif" font-size="10.00">TUtilities::CallLogPop</text>
</a>
</g>
</g>
<!-- Node2&#45;&gt;Node3 -->
<g id="edge2" class="edge">
<title>Node2&#45;&gt;Node3</title>
<path fill="none" stroke="midnightblue" d="M290.12,-57.59C311.1,-62.6 336.98,-68.79 359.23,-74.11"/>
<polygon fill="midnightblue" stroke="midnightblue" points="358.63,-77.56 369.17,-76.48 360.25,-70.75 358.63,-77.56"/>
</g>
<!-- Node4 -->
<g id="node4" class="node">
<title>Node4</title>
<g id="a_node4"><a xlink:href="class_t_utilities.html#a34bd6bb5305bc29afdf424f6d35a921c" target="_top" xlink:title="creates a string of the form &#39;hh:mm:ss&#39; for use in call &amp; event logging">
<polygon fill="white" stroke="black" points="355,-38.5 355,-57.5 465,-57.5 465,-38.5 355,-38.5"/>
<text text-anchor="middle" x="410" y="-45.5" font-family="Helvetica,sans-Serif" font-size="10.00">TUtilities::TimeStamp</text>
</a>
</g>
</g>
<!-- Node2&#45;&gt;Node4 -->
<g id="edge3" class="edge">
<title>Node2&#45;&gt;Node4</title>
<path fill="none" stroke="midnightblue" d="M299.87,-48C314.08,-48 329.76,-48 344.7,-48"/>
<polygon fill="midnightblue" stroke="midnightblue" points="344.89,-51.5 354.89,-48 344.89,-44.5 344.89,-51.5"/>
</g>
<!-- Node6&#45;&gt;Node3 -->
<g id="edge6" class="edge">
<title>Node6&#45;&gt;Node3</title>
<path fill="none" stroke="midnightblue" d="M319.28,-86C327.73,-86 336.33,-86 344.7,-86"/>
<polygon fill="midnightblue" stroke="midnightblue" points="344.77,-89.5 354.77,-86 344.77,-82.5 344.77,-89.5"/>
</g>
<!-- Node6&#45;&gt;Node4 -->
<g id="edge7" class="edge">
<title>Node6&#45;&gt;Node4</title>
<path fill="none" stroke="midnightblue" d="M290.12,-76.41C311.1,-71.4 336.98,-65.21 359.23,-59.89"/>
<polygon fill="midnightblue" stroke="midnightblue" points="360.25,-63.25 369.17,-57.52 358.63,-56.44 360.25,-63.25"/>
</g>
</g>
</svg>
