<?xml version="1.0" encoding="UTF-8" standalone="no"?>
<!DOCTYPE svg PUBLIC "-//W3C//DTD SVG 1.1//EN"
 "http://www.w3.org/Graphics/SVG/1.1/DTD/svg11.dtd">
<!-- Generated by graphviz version 2.44.1 (20200629.0800)
 -->
<!-- Title: TTrain::TrainHasFailed Pages: 1 -->
<!--zoomable 992 -->
<svg id="main" version="1.1" xmlns="http://www.w3.org/2000/svg" xmlns:xlink="http://www.w3.org/1999/xlink" xml:space="preserve" onload="init(evt)">
<style type="text/css"><![CDATA[
.edge:hover path { stroke: red; }
.edge:hover polygon { stroke: red; fill: red; }
]]></style>
<script type="text/javascript"><![CDATA[
var edges = document.getElementsByTagName('g');
if (edges && edges.length) {
  for (var i=0;i<edges.length;i++) {
    if (edges[i].id.substr(0,4)=='edge') {
      edges[i].setAttribute('class','edge');
    }
  }
}
]]></script>
        <defs>
                <circle id="rim" cx="0" cy="0" r="7"/>
                <circle id="rim2" cx="0" cy="0" r="3.5"/>
                <g id="zoomPlus">
                        <use xlink:href="#rim" fill="#404040">
                                <set attributeName="fill" to="#808080" begin="zoomplus.mouseover" end="zoomplus.mouseout"/>
                        </use>
                        <path d="M-4,0h8M0,-4v8" fill="none" stroke="white" stroke-width="1.5" pointer-events="none"/>
                </g>
                <g id="zoomMin">
                        <use xlink:href="#rim" fill="#404040">
                                <set attributeName="fill" to="#808080" begin="zoomminus.mouseover" end="zoomminus.mouseout"/>
                        </use>
                        <path d="M-4,0h8" fill="none" stroke="white" stroke-width="1.5" pointer-events="none"/>
                </g>
                <g id="dirArrow">
                        <path fill="none" stroke="white" stroke-width="1.5" d="M0,-3.0v7 M-2.5,-0.5L0,-3.0L2.5,-0.5"/>
                </g>
               <g id="resetDef">
                       <use xlink:href="#rim2" fill="#404040">
                               <set attributeName="fill" to="#808080" begin="reset.mouseover" end="reset.mouseout"/>
                       </use>
               </g>
        </defs>

<script type="text/javascript">
var viewWidth = 1165;
var viewHeight = 992;
var sectionId = 'dynsection-105';
</script>
<script xlink:href="svgpan.js"/>
<svg id="graph" class="graph">
<g id="viewport">
<title>TTrain::TrainHasFailed</title>
<polygon fill="white" stroke="transparent" points="-4,4 -4,-987.67 1161,-987.67 1161,4 -4,4"/>
<!-- Node1 -->
<g id="node1" class="node">
<title>Node1</title>
<g id="a_node1"><a xlink:title="Called when there is a random train failure.">
<polygon fill="#bfbfbf" stroke="black" points="0,-549.5 0,-568.5 113,-568.5 113,-549.5 0,-549.5"/>
<text text-anchor="middle" x="56.5" y="-556.5" font-family="Helvetica,sans-Serif" font-size="10.00">TTrain::TrainHasFailed</text>
</a>
</g>
</g>
<!-- Node2 -->
<g id="node2" class="node">
<title>Node2</title>
<g id="a_node2"><a xlink:href="class_t_utilities.html#ae1eddca13cc3c492839e131f40ec21c0" target="_top" xlink:title="pops the last entry off the call stack, throws an error if called when empty">
<polygon fill="white" stroke="black" points="1047,-639.5 1047,-658.5 1157,-658.5 1157,-639.5 1047,-639.5"/>
<text text-anchor="middle" x="1102" y="-646.5" font-family="Helvetica,sans-Serif" font-size="10.00">TUtilities::CallLogPop</text>
</a>
</g>
</g>
<!-- Node1&#45;&gt;Node2 -->
<g id="edge1" class="edge">
<title>Node1&#45;&gt;Node2</title>
<path fill="none" stroke="midnightblue" d="M59.86,-568.8C75.55,-631.34 170.74,-972 383,-972 383,-972 383,-972 734,-972 858.2,-972 915.95,-1014.95 1011,-935 1093.4,-865.69 1101.4,-721.66 1101.43,-668.91"/>
<polygon fill="midnightblue" stroke="midnightblue" points="1104.93,-668.55 1101.33,-658.58 1097.93,-668.61 1104.93,-668.55"/>
</g>
<!-- Node3 -->
<g id="node3" class="node">
<title>Node3</title>
<g id="a_node3"><a xlink:href="class_t_train.html#a493ab1c185d29bf28ec8fded2356e9fc" target="_top" xlink:title="Send a message to the performance log and performance file, and if the message is flagged as a warnin...">
<polygon fill="white" stroke="black" points="512,-696.5 512,-715.5 604,-715.5 604,-696.5 512,-696.5"/>
<text text-anchor="middle" x="558" y="-703.5" font-family="Helvetica,sans-Serif" font-size="10.00">TTrain::LogAction</text>
</a>
</g>
</g>
<!-- Node1&#45;&gt;Node3 -->
<g id="edge2" class="edge">
<title>Node1&#45;&gt;Node3</title>
<path fill="none" stroke="midnightblue" d="M69.47,-568.55C86.25,-581.46 118.21,-604.35 149,-617 269.17,-666.38 421.03,-690.24 501.32,-700.11"/>
<polygon fill="midnightblue" stroke="midnightblue" points="501.35,-703.64 511.7,-701.35 502.19,-696.69 501.35,-703.64"/>
</g>
<!-- Node7 -->
<g id="node7" class="node">
<title>Node7</title>
<g id="a_node7"><a xlink:href="class_t_utilities.html#a34bd6bb5305bc29afdf424f6d35a921c" target="_top" xlink:title="creates a string of the form &#39;hh:mm:ss&#39; for use in call &amp; event logging">
<polygon fill="white" stroke="black" points="1047,-335.5 1047,-354.5 1157,-354.5 1157,-335.5 1047,-335.5"/>
<text text-anchor="middle" x="1102" y="-342.5" font-family="Helvetica,sans-Serif" font-size="10.00">TUtilities::TimeStamp</text>
</a>
</g>
</g>
<!-- Node1&#45;&gt;Node7 -->
<g id="edge49" class="edge">
<title>Node1&#45;&gt;Node7</title>
<path fill="none" stroke="midnightblue" d="M58.72,-549.25C68.16,-478.6 135.82,-48 383,-48 383,-48 383,-48 734,-48 857.5,-48 913.96,6.39 1011,-70 1092.47,-134.13 1101.07,-273.6 1101.35,-325.25"/>
<polygon fill="midnightblue" stroke="midnightblue" points="1097.85,-325.37 1101.3,-335.39 1104.85,-325.4 1097.85,-325.37"/>
</g>
<!-- Node10 -->
<g id="node10" class="node">
<title>Node10</title>
<g id="a_node10"><a xlink:href="class_t_train.html#abfa6da75d034c737d53819e6edbfa3dc" target="_top" xlink:title="Changes the train&#39;s background colour (e.g. to pale green if stopped at a station) Note that this use...">
<polygon fill="white" stroke="black" points="149,-356 149,-386 275,-386 275,-356 149,-356"/>
<text text-anchor="start" x="157" y="-374" font-family="Helvetica,sans-Serif" font-size="10.00">TTrain::PlotTrainWithNew</text>
<text text-anchor="middle" x="212" y="-363" font-family="Helvetica,sans-Serif" font-size="10.00">BackgroundColour</text>
</a>
</g>
</g>
<!-- Node1&#45;&gt;Node10 -->
<g id="edge19" class="edge">
<title>Node1&#45;&gt;Node10</title>
<path fill="none" stroke="midnightblue" d="M65.32,-549.42C88.7,-520.79 158.5,-435.3 192.28,-393.93"/>
<polygon fill="midnightblue" stroke="midnightblue" points="195.11,-396 198.72,-386.04 189.68,-391.57 195.11,-396"/>
</g>
<!-- Node17 -->
<g id="node17" class="node">
<title>Node17</title>
<g id="a_node17"><a xlink:href="class_t_track.html#ad377e5a1f152f2e89832c0f9bcfd261f" target="_top" xlink:title="A range&#45;checked version of TrackElement.at(At)">
<polygon fill="white" stroke="black" points="672,-506.5 672,-525.5 794,-525.5 794,-506.5 672,-506.5"/>
<text text-anchor="middle" x="733" y="-513.5" font-family="Helvetica,sans-Serif" font-size="10.00">TTrack::TrackElementAt</text>
</a>
</g>
</g>
<!-- Node1&#45;&gt;Node17 -->
<g id="edge50" class="edge">
<title>Node1&#45;&gt;Node17</title>
<path fill="none" stroke="midnightblue" d="M113.04,-568.32C124.88,-570.07 137.34,-571.75 149,-573 285.18,-587.59 321.02,-599.33 457,-583 542.71,-572.71 640.29,-544.99 693.09,-528.61"/>
<polygon fill="midnightblue" stroke="midnightblue" points="694.22,-531.92 702.72,-525.59 692.13,-525.24 694.22,-531.92"/>
</g>
<!-- Node18 -->
<g id="node18" class="node">
<title>Node18</title>
<g id="a_node18"><a xlink:href="class_t_train_controller.html#aba5615209a7dca921e968fca5c52c060" target="_top" xlink:title="sends a message to the user and stops the timetable clock while it is displayed">
<polygon fill="white" stroke="black" points="311,-544 311,-574 457,-574 457,-544 311,-544"/>
<text text-anchor="start" x="319" y="-562" font-family="Helvetica,sans-Serif" font-size="10.00">TTrainController::StopTTClock</text>
<text text-anchor="middle" x="384" y="-551" font-family="Helvetica,sans-Serif" font-size="10.00">Message</text>
</a>
</g>
</g>
<!-- Node1&#45;&gt;Node18 -->
<g id="edge48" class="edge">
<title>Node1&#45;&gt;Node18</title>
<path fill="none" stroke="midnightblue" d="M113.09,-559C164.56,-559 241.78,-559 300.45,-559"/>
<polygon fill="midnightblue" stroke="midnightblue" points="300.81,-562.5 310.81,-559 300.81,-555.5 300.81,-562.5"/>
</g>
<!-- Node19 -->
<g id="node19" class="node">
<title>Node19</title>
<g id="a_node19"><a xlink:href="class_t_train.html#a2a2d78164c9dc1881b2c77526f04903f" target="_top" xlink:title="True if the train has stopped for any reason.">
<polygon fill="white" stroke="black" points="169.5,-0.5 169.5,-19.5 254.5,-19.5 254.5,-0.5 169.5,-0.5"/>
<text text-anchor="middle" x="212" y="-7.5" font-family="Helvetica,sans-Serif" font-size="10.00">TTrain::Stopped</text>
</a>
</g>
</g>
<!-- Node1&#45;&gt;Node19 -->
<g id="edge47" class="edge">
<title>Node1&#45;&gt;Node19</title>
<path fill="none" stroke="midnightblue" d="M57.91,-549.48C60.83,-485.45 80.49,-117.51 149,-34 152.17,-30.13 156.05,-26.89 160.3,-24.16"/>
<polygon fill="midnightblue" stroke="midnightblue" points="162.27,-27.07 169.44,-19.27 158.97,-20.9 162.27,-27.07"/>
</g>
<!-- Node3&#45;&gt;Node2 -->
<g id="edge3" class="edge">
<title>Node3&#45;&gt;Node2</title>
<path fill="none" stroke="midnightblue" d="M566.26,-715.58C581.47,-735.08 618.66,-779.76 659,-806 792.77,-893.04 879.05,-966.77 1011,-877 1082.03,-828.67 1097,-714.77 1100.16,-668.77"/>
<polygon fill="midnightblue" stroke="midnightblue" points="1103.66,-668.81 1100.73,-658.63 1096.67,-668.41 1103.66,-668.81"/>
</g>
<!-- Node4 -->
<g id="node4" class="node">
<title>Node4</title>
<g id="a_node4"><a xlink:href="class_t_utilities.html#a2dfbe3d4ed11770bc1a902b51afdc10c" target="_top" xlink:title="formats a TDateTime into an AnsiString of the form hh:mm:ss where hh runs from 00 to 95 &amp; resets when...">
<polygon fill="white" stroke="black" points="854.5,-848.5 854.5,-867.5 999.5,-867.5 999.5,-848.5 854.5,-848.5"/>
<text text-anchor="middle" x="927" y="-855.5" font-family="Helvetica,sans-Serif" font-size="10.00">TUtilities::Format96HHMMSS</text>
</a>
</g>
</g>
<!-- Node3&#45;&gt;Node4 -->
<g id="edge4" class="edge">
<title>Node3&#45;&gt;Node4</title>
<path fill="none" stroke="midnightblue" d="M573.81,-715.55C592.95,-727.63 627.58,-748.59 659,-763 735.89,-798.26 829.92,-829 883.4,-845.4"/>
<polygon fill="midnightblue" stroke="midnightblue" points="882.63,-848.82 893.21,-848.39 884.67,-842.13 882.63,-848.82"/>
</g>
<!-- Node5 -->
<g id="node5" class="node">
<title>Node5</title>
<g id="a_node5"><a xlink:href="class_t_train.html#ad249f34f6862e604b8e141d1b25fe57d" target="_top" xlink:title="Returns the timetable action time corresponding to &#39;Time&#39; for this train, i.e. it adjusts the time va...">
<polygon fill="white" stroke="black" points="679.5,-734.5 679.5,-753.5 786.5,-753.5 786.5,-734.5 679.5,-734.5"/>
<text text-anchor="middle" x="733" y="-741.5" font-family="Helvetica,sans-Serif" font-size="10.00">TTrain::GetTrainTime</text>
</a>
</g>
</g>
<!-- Node3&#45;&gt;Node5 -->
<g id="edge5" class="edge">
<title>Node3&#45;&gt;Node5</title>
<path fill="none" stroke="midnightblue" d="M602.66,-715.59C625.79,-720.67 654.4,-726.96 678.83,-732.32"/>
<polygon fill="midnightblue" stroke="midnightblue" points="678.14,-735.75 688.66,-734.48 679.64,-728.92 678.14,-735.75"/>
</g>
<!-- Node3&#45;&gt;Node7 -->
<g id="edge15" class="edge">
<title>Node3&#45;&gt;Node7</title>
<path fill="none" stroke="midnightblue" d="M575.62,-696.49C595.44,-685.15 629.61,-665.64 659,-649 815.19,-560.56 872.52,-565.2 1011,-451 1043.08,-424.54 1072.74,-385.69 1088.71,-363.11"/>
<polygon fill="midnightblue" stroke="midnightblue" points="1091.67,-364.99 1094.5,-354.78 1085.92,-360.99 1091.67,-364.99"/>
</g>
<!-- Node8 -->
<g id="node8" class="node">
<title>Node8</title>
<g id="a_node8"><a xlink:href="class_t_display.html#a92bea1eb27a17c6c7f902858d4115d71" target="_top" xlink:title="Send Statement to the performance log on screen and to the file.">
<polygon fill="white" stroke="black" points="861.5,-658.5 861.5,-677.5 992.5,-677.5 992.5,-658.5 861.5,-658.5"/>
<text text-anchor="middle" x="927" y="-665.5" font-family="Helvetica,sans-Serif" font-size="10.00">TDisplay::PerformanceLog</text>
</a>
</g>
</g>
<!-- Node3&#45;&gt;Node8 -->
<g id="edge12" class="edge">
<title>Node3&#45;&gt;Node8</title>
<path fill="none" stroke="midnightblue" d="M604.28,-701.9C654.02,-697.33 736.25,-689.58 807,-682 821.37,-680.46 836.7,-678.72 851.42,-677.01"/>
<polygon fill="midnightblue" stroke="midnightblue" points="851.96,-680.47 861.49,-675.84 851.15,-673.52 851.96,-680.47"/>
</g>
<!-- Node9 -->
<g id="node9" class="node">
<title>Node9</title>
<g id="a_node9"><a xlink:href="class_t_display.html#a604d491a723df459bdcd54a4b9d1d9f2" target="_top" xlink:title="Display warning message Statement in the bottom left hand warning position and scroll other messages ...">
<polygon fill="white" stroke="black" points="871,-620.5 871,-639.5 983,-639.5 983,-620.5 871,-620.5"/>
<text text-anchor="middle" x="927" y="-627.5" font-family="Helvetica,sans-Serif" font-size="10.00">TDisplay::WarningLog</text>
</a>
</g>
</g>
<!-- Node3&#45;&gt;Node9 -->
<g id="edge16" class="edge">
<title>Node3&#45;&gt;Node9</title>
<path fill="none" stroke="midnightblue" d="M596.9,-696.5C615.56,-691.92 638.41,-686.47 659,-682 728.69,-666.86 809.07,-651.49 863.28,-641.42"/>
<polygon fill="midnightblue" stroke="midnightblue" points="864.23,-644.81 873.43,-639.55 862.96,-637.92 864.23,-644.81"/>
</g>
<!-- Node5&#45;&gt;Node2 -->
<g id="edge6" class="edge">
<title>Node5&#45;&gt;Node2</title>
<path fill="none" stroke="midnightblue" d="M749.56,-753.67C793.62,-779.7 921.78,-845.99 1011,-796 1060.25,-768.4 1085.79,-701.64 1095.82,-668.43"/>
<polygon fill="midnightblue" stroke="midnightblue" points="1099.26,-669.13 1098.64,-658.56 1092.53,-667.21 1099.26,-669.13"/>
</g>
<!-- Node5&#45;&gt;Node4 -->
<g id="edge7" class="edge">
<title>Node5&#45;&gt;Node4</title>
<path fill="none" stroke="midnightblue" d="M745.37,-753.6C772.18,-776.2 837.49,-831.09 843,-834 851.56,-838.52 861.09,-842.29 870.54,-845.4"/>
<polygon fill="midnightblue" stroke="midnightblue" points="869.74,-848.81 880.33,-848.4 871.8,-842.12 869.74,-848.81"/>
</g>
<!-- Node6 -->
<g id="node6" class="node">
<title>Node6</title>
<g id="a_node6"><a xlink:href="class_t_train_controller.html#a435ef46f062904e85ae9792faaecdcf7" target="_top" xlink:title="Return the repeating service time.">
<polygon fill="white" stroke="black" points="848,-734.5 848,-753.5 1006,-753.5 1006,-734.5 848,-734.5"/>
<text text-anchor="middle" x="927" y="-741.5" font-family="Helvetica,sans-Serif" font-size="10.00">TTrainController::GetRepeatTime</text>
</a>
</g>
</g>
<!-- Node5&#45;&gt;Node6 -->
<g id="edge8" class="edge">
<title>Node5&#45;&gt;Node6</title>
<path fill="none" stroke="midnightblue" d="M786.72,-744C802.5,-744 820.24,-744 837.65,-744"/>
<polygon fill="midnightblue" stroke="midnightblue" points="837.85,-747.5 847.85,-744 837.85,-740.5 837.85,-747.5"/>
</g>
<!-- Node5&#45;&gt;Node7 -->
<g id="edge11" class="edge">
<title>Node5&#45;&gt;Node7</title>
<path fill="none" stroke="midnightblue" d="M786.74,-734.62C864.8,-720.53 1002.85,-694.72 1011,-687 1058.94,-641.6 1089.85,-431.07 1098.51,-364.94"/>
<polygon fill="midnightblue" stroke="midnightblue" points="1102.03,-365.02 1099.83,-354.65 1095.09,-364.13 1102.03,-365.02"/>
</g>
<!-- Node6&#45;&gt;Node2 -->
<g id="edge9" class="edge">
<title>Node6&#45;&gt;Node2</title>
<path fill="none" stroke="midnightblue" d="M972.72,-734.48C985.48,-730.86 999.13,-726.1 1011,-720 1038.99,-705.62 1066.74,-681.91 1083.87,-665.89"/>
<polygon fill="midnightblue" stroke="midnightblue" points="1086.56,-668.16 1091.38,-658.72 1081.73,-663.09 1086.56,-668.16"/>
</g>
<!-- Node6&#45;&gt;Node7 -->
<g id="edge10" class="edge">
<title>Node6&#45;&gt;Node7</title>
<path fill="none" stroke="midnightblue" d="M989.37,-734.43C997.44,-730.96 1004.99,-726.29 1011,-720 1036.29,-693.52 1084.09,-438.38 1097.45,-364.78"/>
<polygon fill="midnightblue" stroke="midnightblue" points="1100.96,-365.05 1099.29,-354.59 1094.07,-363.81 1100.96,-365.05"/>
</g>
<!-- Node8&#45;&gt;Node2 -->
<g id="edge13" class="edge">
<title>Node8&#45;&gt;Node2</title>
<path fill="none" stroke="midnightblue" d="M992.91,-660.87C1007.18,-659.3 1022.29,-657.64 1036.55,-656.08"/>
<polygon fill="midnightblue" stroke="midnightblue" points="1037.2,-659.53 1046.75,-654.96 1036.43,-652.57 1037.2,-659.53"/>
</g>
<!-- Node8&#45;&gt;Node7 -->
<g id="edge14" class="edge">
<title>Node8&#45;&gt;Node7</title>
<path fill="none" stroke="midnightblue" d="M992.68,-660.55C999.42,-657.71 1005.72,-653.96 1011,-649 1094.36,-570.72 1101.69,-419.28 1101.5,-364.98"/>
<polygon fill="midnightblue" stroke="midnightblue" points="1104.99,-364.62 1101.36,-354.66 1097.99,-364.71 1104.99,-364.62"/>
</g>
<!-- Node9&#45;&gt;Node2 -->
<g id="edge17" class="edge">
<title>Node9&#45;&gt;Node2</title>
<path fill="none" stroke="midnightblue" d="M983.21,-636.06C1000.24,-637.93 1019.14,-640.01 1036.72,-641.94"/>
<polygon fill="midnightblue" stroke="midnightblue" points="1036.58,-645.45 1046.9,-643.06 1037.34,-638.49 1036.58,-645.45"/>
</g>
<!-- Node9&#45;&gt;Node7 -->
<g id="edge18" class="edge">
<title>Node9&#45;&gt;Node7</title>
<path fill="none" stroke="midnightblue" d="M946.16,-620.4C964.7,-609.78 993.22,-591.08 1011,-568 1061.18,-502.86 1087.42,-405.97 1096.85,-364.73"/>
<polygon fill="midnightblue" stroke="midnightblue" points="1100.29,-365.38 1099.03,-354.86 1093.46,-363.87 1100.29,-365.38"/>
</g>
<!-- Node10&#45;&gt;Node2 -->
<g id="edge20" class="edge">
<title>Node10&#45;&gt;Node2</title>
<path fill="none" stroke="midnightblue" d="M244.91,-386.08C337.21,-430.51 610.4,-567.66 807,-725 825.16,-739.54 821.63,-753.81 843,-763 911.59,-792.5 943.81,-795.56 1011,-763 1051.85,-743.21 1079.75,-694.89 1092.71,-667.94"/>
<polygon fill="midnightblue" stroke="midnightblue" points="1095.94,-669.31 1096.95,-658.77 1089.58,-666.38 1095.94,-669.31"/>
</g>
<!-- Node10&#45;&gt;Node7 -->
<g id="edge45" class="edge">
<title>Node10&#45;&gt;Node7</title>
<path fill="none" stroke="midnightblue" d="M221.37,-355.68C254.96,-296.48 386.38,-86 557,-86 557,-86 557,-86 734,-86 857.93,-86 912.66,-42.59 1011,-118 1078.61,-169.84 1095.53,-280.18 1099.68,-325.23"/>
<polygon fill="midnightblue" stroke="midnightblue" points="1096.2,-325.51 1100.49,-335.2 1103.17,-324.95 1096.2,-325.51"/>
</g>
<!-- Node11 -->
<g id="node11" class="node">
<title>Node11</title>
<g id="a_node11"><a xlink:href="class_t_rail_graphics.html#a74d7dcd5e17ef156d8c216c8e524de11" target="_top" xlink:title=" ">
<polygon fill="white" stroke="black" points="843,-229 843,-259 1011,-259 1011,-229 843,-229"/>
<text text-anchor="start" x="851" y="-247" font-family="Helvetica,sans-Serif" font-size="10.00">TRailGraphics::ChangeBackground</text>
<text text-anchor="middle" x="927" y="-236" font-family="Helvetica,sans-Serif" font-size="10.00">Colour</text>
</a>
</g>
</g>
<!-- Node10&#45;&gt;Node11 -->
<g id="edge21" class="edge">
<title>Node10&#45;&gt;Node11</title>
<path fill="none" stroke="midnightblue" d="M275.14,-357.6C331.79,-345.56 417.85,-327.72 493,-314 609.85,-292.67 745.07,-271.34 832.88,-257.94"/>
<polygon fill="midnightblue" stroke="midnightblue" points="833.46,-261.39 842.82,-256.42 832.41,-254.47 833.46,-261.39"/>
</g>
<!-- Node12 -->
<g id="node12" class="node">
<title>Node12</title>
<g id="a_node12"><a xlink:href="class_t_train.html#a247bd95a7c648367736b116f553f4e54" target="_top" xlink:title="Plot the train&#39;s headcode character corresponding to ArrayNumber.">
<polygon fill="white" stroke="black" points="323.5,-361.5 323.5,-380.5 444.5,-380.5 444.5,-361.5 323.5,-361.5"/>
<text text-anchor="middle" x="384" y="-368.5" font-family="Helvetica,sans-Serif" font-size="10.00">TTrain::PlotTrainGraphic</text>
</a>
</g>
</g>
<!-- Node10&#45;&gt;Node12 -->
<g id="edge24" class="edge">
<title>Node10&#45;&gt;Node12</title>
<path fill="none" stroke="midnightblue" d="M275.34,-371C287.55,-371 300.44,-371 312.89,-371"/>
<polygon fill="midnightblue" stroke="midnightblue" points="313.22,-374.5 323.22,-371 313.22,-367.5 313.22,-374.5"/>
</g>
<!-- Node16 -->
<g id="node16" class="node">
<title>Node16</title>
<g id="a_node16"><a xlink:href="class_t_display.html#aa4f37ab2a4df6437a2219f303e1de40b" target="_top" xlink:title="Repaint the screen display.">
<polygon fill="white" stroke="black" points="881.5,-152.5 881.5,-171.5 972.5,-171.5 972.5,-152.5 881.5,-152.5"/>
<text text-anchor="middle" x="927" y="-159.5" font-family="Helvetica,sans-Serif" font-size="10.00">TDisplay::Update</text>
</a>
</g>
</g>
<!-- Node10&#45;&gt;Node16 -->
<g id="edge46" class="edge">
<title>Node10&#45;&gt;Node16</title>
<path fill="none" stroke="midnightblue" d="M237.76,-356C257.22,-344.61 285.24,-329.08 311,-318 460.51,-253.7 500.77,-242.1 659,-204 731.43,-186.56 816.72,-174.6 871.05,-168.03"/>
<polygon fill="midnightblue" stroke="midnightblue" points="871.65,-171.48 881.16,-166.82 870.82,-164.53 871.65,-171.48"/>
</g>
<!-- Node10&#45;&gt;Node18 -->
<g id="edge42" class="edge">
<title>Node10&#45;&gt;Node18</title>
<path fill="none" stroke="midnightblue" d="M218.69,-386.21C230.97,-417.16 262.82,-487.99 311,-529 315.49,-532.82 320.54,-536.21 325.83,-539.21"/>
<polygon fill="midnightblue" stroke="midnightblue" points="324.39,-542.41 334.89,-543.88 327.6,-536.19 324.39,-542.41"/>
</g>
<!-- Node11&#45;&gt;Node2 -->
<g id="edge22" class="edge">
<title>Node11&#45;&gt;Node2</title>
<path fill="none" stroke="midnightblue" d="M956.6,-259.07C974.75,-270.05 997.32,-286.55 1011,-307 1082.21,-413.49 1097.13,-573.59 1100.21,-629.16"/>
<polygon fill="midnightblue" stroke="midnightblue" points="1096.73,-629.56 1100.7,-639.38 1103.72,-629.22 1096.73,-629.56"/>
</g>
<!-- Node11&#45;&gt;Node7 -->
<g id="edge23" class="edge">
<title>Node11&#45;&gt;Node7</title>
<path fill="none" stroke="midnightblue" d="M977.87,-259.08C989.07,-263.27 1000.69,-268.27 1011,-274 1038.36,-289.21 1066.07,-312.53 1083.37,-328.25"/>
<polygon fill="midnightblue" stroke="midnightblue" points="1081.27,-331.07 1090.98,-335.29 1086.02,-325.93 1081.27,-331.07"/>
</g>
<!-- Node12&#45;&gt;Node2 -->
<g id="edge25" class="edge">
<title>Node12&#45;&gt;Node2</title>
<path fill="none" stroke="midnightblue" d="M397.6,-380.64C435.16,-408.88 550.45,-492.15 659,-535 807.87,-593.77 858.39,-562.77 1011,-611 1031.82,-617.58 1054.46,-627.15 1071.82,-635.04"/>
<polygon fill="midnightblue" stroke="midnightblue" points="1070.84,-638.44 1081.38,-639.46 1073.77,-632.09 1070.84,-638.44"/>
</g>
<!-- Node12&#45;&gt;Node7 -->
<g id="edge40" class="edge">
<title>Node12&#45;&gt;Node7</title>
<path fill="none" stroke="midnightblue" d="M397.13,-361.4C447.78,-322.14 648.77,-174.36 843,-143 916.71,-131.1 948.37,-102.34 1011,-143 1074.71,-184.36 1093.7,-282.45 1099.04,-324.88"/>
<polygon fill="midnightblue" stroke="midnightblue" points="1095.59,-325.51 1100.19,-335.05 1102.55,-324.72 1095.59,-325.51"/>
</g>
<!-- Node13 -->
<g id="node13" class="node">
<title>Node13</title>
<g id="a_node13"><a xlink:href="class_t_display.html#a9ab49e52c7eb92b32ae2c34547183439" target="_top" xlink:title="Plot the graphic at screen position HPos &amp; VPos.">
<polygon fill="white" stroke="black" points="873.5,-316.5 873.5,-335.5 980.5,-335.5 980.5,-316.5 873.5,-316.5"/>
<text text-anchor="middle" x="927" y="-323.5" font-family="Helvetica,sans-Serif" font-size="10.00">TDisplay::PlotOutput</text>
</a>
</g>
</g>
<!-- Node12&#45;&gt;Node13 -->
<g id="edge26" class="edge">
<title>Node12&#45;&gt;Node13</title>
<path fill="none" stroke="midnightblue" d="M444.56,-369.15C526.42,-366.19 678.23,-359.21 807,-345 825.42,-342.97 845.35,-340.06 863.53,-337.14"/>
<polygon fill="midnightblue" stroke="midnightblue" points="864.12,-340.59 873.43,-335.52 862.99,-333.68 864.12,-340.59"/>
</g>
<!-- Node14 -->
<g id="node14" class="node">
<title>Node14</title>
<g id="a_node14"><a xlink:href="class_t_train.html#a0e0ab54415645b04cbdeadd829d27898" target="_top" xlink:title="When a train moves onto an element that element has its TrainIDOnElement value set to the TrainID val...">
<polygon fill="white" stroke="black" points="493,-323.5 493,-342.5 623,-342.5 623,-323.5 493,-323.5"/>
<text text-anchor="middle" x="558" y="-330.5" font-family="Helvetica,sans-Serif" font-size="10.00">TTrain::SetTrainElementID</text>
</a>
</g>
</g>
<!-- Node12&#45;&gt;Node14 -->
<g id="edge29" class="edge">
<title>Node12&#45;&gt;Node14</title>
<path fill="none" stroke="midnightblue" d="M428.4,-361.41C451.41,-356.33 479.85,-350.04 504.13,-344.68"/>
<polygon fill="midnightblue" stroke="midnightblue" points="504.9,-348.09 513.91,-342.52 503.39,-341.26 504.9,-348.09"/>
</g>
<!-- Node12&#45;&gt;Node17 -->
<g id="edge41" class="edge">
<title>Node12&#45;&gt;Node17</title>
<path fill="none" stroke="midnightblue" d="M444.99,-379.85C494.55,-388.73 565.79,-405.17 623,-433 658.72,-450.38 694.22,-480.4 714.59,-499.18"/>
<polygon fill="midnightblue" stroke="midnightblue" points="712.42,-501.94 722.1,-506.24 717.21,-496.84 712.42,-501.94"/>
</g>
<!-- Node13&#45;&gt;Node2 -->
<g id="edge27" class="edge">
<title>Node13&#45;&gt;Node2</title>
<path fill="none" stroke="midnightblue" d="M937.86,-335.71C954.69,-352.72 989.26,-389.58 1011,-426 1052.86,-496.12 1083.3,-589.28 1095.33,-629.33"/>
<polygon fill="midnightblue" stroke="midnightblue" points="1092.04,-630.56 1098.23,-639.16 1098.75,-628.58 1092.04,-630.56"/>
</g>
<!-- Node13&#45;&gt;Node7 -->
<g id="edge28" class="edge">
<title>Node13&#45;&gt;Node7</title>
<path fill="none" stroke="midnightblue" d="M980.85,-331.8C998.54,-333.75 1018.45,-335.93 1036.91,-337.96"/>
<polygon fill="midnightblue" stroke="midnightblue" points="1036.66,-341.45 1046.98,-339.07 1037.43,-334.5 1036.66,-341.45"/>
</g>
<!-- Node14&#45;&gt;Node2 -->
<g id="edge30" class="edge">
<title>Node14&#45;&gt;Node2</title>
<path fill="none" stroke="midnightblue" d="M586.65,-342.54C673.6,-372.86 939.88,-468.38 1011,-525 1048.28,-554.67 1077.45,-603.53 1091.61,-630.19"/>
<polygon fill="midnightblue" stroke="midnightblue" points="1088.59,-631.97 1096.29,-639.24 1094.8,-628.75 1088.59,-631.97"/>
</g>
<!-- Node14&#45;&gt;Node7 -->
<g id="edge36" class="edge">
<title>Node14&#45;&gt;Node7</title>
<path fill="none" stroke="midnightblue" d="M571.97,-323.42C627.65,-283.55 850.89,-136.6 1011,-219 1054.85,-241.57 1082.08,-296.5 1093.98,-325.82"/>
<polygon fill="midnightblue" stroke="midnightblue" points="1090.8,-327.3 1097.68,-335.36 1097.33,-324.77 1090.8,-327.3"/>
</g>
<!-- Node15 -->
<g id="node15" class="node">
<title>Node15</title>
<g id="a_node15"><a xlink:href="class_t_graphic_element.html#ad9e23ba031b1110126227d301b59ffc7" target="_top" xlink:title="Plot the original graphic on screen.">
<polygon fill="white" stroke="black" points="659,-316.5 659,-335.5 807,-335.5 807,-316.5 659,-316.5"/>
<text text-anchor="middle" x="733" y="-323.5" font-family="Helvetica,sans-Serif" font-size="10.00">TGraphicElement::PlotOriginal</text>
</a>
</g>
</g>
<!-- Node14&#45;&gt;Node15 -->
<g id="edge31" class="edge">
<title>Node14&#45;&gt;Node15</title>
<path fill="none" stroke="midnightblue" d="M623.42,-330.39C631.61,-330.06 640.09,-329.72 648.53,-329.38"/>
<polygon fill="midnightblue" stroke="midnightblue" points="648.94,-332.86 658.79,-328.96 648.66,-325.87 648.94,-332.86"/>
</g>
<!-- Node14&#45;&gt;Node17 -->
<g id="edge37" class="edge">
<title>Node14&#45;&gt;Node17</title>
<path fill="none" stroke="midnightblue" d="M570.73,-342.75C584.28,-354.34 606.77,-374.7 623,-395 642.19,-418.99 639.04,-430.65 659,-454 674.08,-471.64 694.42,-488.48 709.8,-500.15"/>
<polygon fill="midnightblue" stroke="midnightblue" points="708.09,-503.23 718.21,-506.38 712.26,-497.61 708.09,-503.23"/>
</g>
<!-- Node15&#45;&gt;Node2 -->
<g id="edge32" class="edge">
<title>Node15&#45;&gt;Node2</title>
<path fill="none" stroke="midnightblue" d="M769.49,-335.52C826.93,-352.54 940.86,-393.19 1011,-464 1059.29,-512.75 1085.79,-592.53 1096.01,-629.3"/>
<polygon fill="midnightblue" stroke="midnightblue" points="1092.7,-630.49 1098.66,-639.25 1099.47,-628.69 1092.7,-630.49"/>
</g>
<!-- Node15&#45;&gt;Node7 -->
<g id="edge34" class="edge">
<title>Node15&#45;&gt;Node7</title>
<path fill="none" stroke="midnightblue" d="M774.81,-316.47C829.24,-305.29 928.32,-290.26 1011,-307 1033.58,-311.57 1057.54,-321.99 1075.06,-330.77"/>
<polygon fill="midnightblue" stroke="midnightblue" points="1073.58,-333.94 1084.07,-335.42 1076.79,-327.72 1073.58,-333.94"/>
</g>
<!-- Node15&#45;&gt;Node13 -->
<g id="edge33" class="edge">
<title>Node15&#45;&gt;Node13</title>
<path fill="none" stroke="midnightblue" d="M807.13,-326C825.65,-326 845.36,-326 863.31,-326"/>
<polygon fill="midnightblue" stroke="midnightblue" points="863.36,-329.5 873.36,-326 863.36,-322.5 863.36,-329.5"/>
</g>
<!-- Node15&#45;&gt;Node16 -->
<g id="edge35" class="edge">
<title>Node15&#45;&gt;Node16</title>
<path fill="none" stroke="midnightblue" d="M742.82,-316.27C760.73,-296.75 803.09,-251.87 843,-219 861.79,-203.53 884.69,-188.03 901.67,-177.1"/>
<polygon fill="midnightblue" stroke="midnightblue" points="903.87,-179.85 910.43,-171.54 900.12,-173.94 903.87,-179.85"/>
</g>
<!-- Node17&#45;&gt;Node2 -->
<g id="edge38" class="edge">
<title>Node17&#45;&gt;Node2</title>
<path fill="none" stroke="midnightblue" d="M794.06,-521.63C851.93,-528.82 940.8,-544.6 1011,-578 1039.42,-591.52 1067.07,-615.43 1084.05,-631.73"/>
<polygon fill="midnightblue" stroke="midnightblue" points="1081.91,-634.53 1091.49,-639.04 1086.82,-629.54 1081.91,-634.53"/>
</g>
<!-- Node17&#45;&gt;Node7 -->
<g id="edge39" class="edge">
<title>Node17&#45;&gt;Node7</title>
<path fill="none" stroke="midnightblue" d="M766.35,-506.48C779.16,-502.43 793.92,-497.38 807,-492 909.12,-449.95 1024.86,-387.47 1075.26,-359.48"/>
<polygon fill="midnightblue" stroke="midnightblue" points="1077.14,-362.44 1084.18,-354.51 1073.74,-356.32 1077.14,-362.44"/>
</g>
<!-- Node18&#45;&gt;Node2 -->
<g id="edge43" class="edge">
<title>Node18&#45;&gt;Node2</title>
<path fill="none" stroke="midnightblue" d="M392.9,-574.24C409.14,-604.77 448.53,-674.83 493,-725 609.85,-856.82 668.22,-889.03 843,-911 917.08,-920.31 950.23,-954.38 1011,-911 1091.44,-853.58 1100.73,-719.53 1101.27,-668.87"/>
<polygon fill="midnightblue" stroke="midnightblue" points="1104.77,-668.62 1101.26,-658.62 1097.77,-668.62 1104.77,-668.62"/>
</g>
<!-- Node18&#45;&gt;Node7 -->
<g id="edge44" class="edge">
<title>Node18&#45;&gt;Node7</title>
<path fill="none" stroke="midnightblue" d="M420.59,-543.98C496.81,-512.31 681.98,-438 843,-394 908.04,-376.23 984.04,-362.64 1036.63,-354.33"/>
<polygon fill="midnightblue" stroke="midnightblue" points="1037.48,-357.74 1046.82,-352.74 1036.4,-350.82 1037.48,-357.74"/>
</g>
</g>
</svg>
        <g id="navigator" transform="translate(0 0)" fill="#404254">
                <rect fill="#f2f5e9" fill-opacity="0.5" stroke="#606060" stroke-width=".5" x="0" y="0" width="60" height="60"/>
                <use id="zoomplus" xlink:href="#zoomPlus" x="17" y="9" onmousedown="handleZoom(evt,'in')"/>
                <use id="zoomminus" xlink:href="#zoomMin" x="42" y="9" onmousedown="handleZoom(evt,'out')"/>
                <use id="reset" xlink:href="#resetDef" x="30" y="36" onmousedown="handleReset()"/>
                <g id="arrowUp" xlink:href="#dirArrow" transform="translate(30 24)" onmousedown="handlePan(0,-1)">
                  <use xlink:href="#rim" fill="#404040">
                        <set attributeName="fill" to="#808080" begin="arrowUp.mouseover" end="arrowUp.mouseout"/>
                  </use>
                  <path fill="none" stroke="white" stroke-width="1.5" d="M0,-3.0v7 M-2.5,-0.5L0,-3.0L2.5,-0.5"/>
                </g>
                <g id="arrowRight" xlink:href="#dirArrow" transform="rotate(90) translate(36 -43)" onmousedown="handlePan(1,0)">
                  <use xlink:href="#rim" fill="#404040">
                        <set attributeName="fill" to="#808080" begin="arrowRight.mouseover" end="arrowRight.mouseout"/>
                  </use>
                  <path fill="none" stroke="white" stroke-width="1.5" d="M0,-3.0v7 M-2.5,-0.5L0,-3.0L2.5,-0.5"/>
                </g>
                <g id="arrowDown" xlink:href="#dirArrow" transform="rotate(180) translate(-30 -48)" onmousedown="handlePan(0,1)">
                  <use xlink:href="#rim" fill="#404040">
                        <set attributeName="fill" to="#808080" begin="arrowDown.mouseover" end="arrowDown.mouseout"/>
                  </use>
                  <path fill="none" stroke="white" stroke-width="1.5" d="M0,-3.0v7 M-2.5,-0.5L0,-3.0L2.5,-0.5"/>
                </g>
                <g id="arrowLeft" xlink:href="#dirArrow" transform="rotate(270) translate(-36 17)" onmousedown="handlePan(-1,0)">
                  <use xlink:href="#rim" fill="#404040">
                        <set attributeName="fill" to="#808080" begin="arrowLeft.mouseover" end="arrowLeft.mouseout"/>
                  </use>
                  <path fill="none" stroke="white" stroke-width="1.5" d="M0,-3.0v7 M-2.5,-0.5L0,-3.0L2.5,-0.5"/>
                </g>
        </g>
        <svg viewBox="0 0 15 15" width="100%" height="30px" preserveAspectRatio="xMaxYMin meet">
         <g id="arrow_out" transform="scale(0.3 0.3)">
          <a xlink:href="class_t_train_a84204e3d8492e73d1eebf0707c49f620_cgraph_org.svg" target="_base">
           <rect id="button" ry="5" rx="5" y="6" x="6" height="38" width="38"
                fill="#f2f5e9" fill-opacity="0.5" stroke="#606060" stroke-width="1.0"/>
           <path id="arrow"
             d="M 11.500037,31.436501 C 11.940474,20.09759 22.043105,11.32322 32.158766,21.979434 L 37.068811,17.246167 C 37.068811,17.246167 37.088388,32 37.088388,32 L 22.160133,31.978069 C 22.160133,31.978069 26.997745,27.140456 26.997745,27.140456 C 18.528582,18.264221 13.291696,25.230495 11.500037,31.436501 z"
             style="fill:#404040;"/>
          </a>
         </g>
        </svg>
</svg>
