<?xml version="1.0" encoding="UTF-8" standalone="no"?>
<!DOCTYPE svg PUBLIC "-//W3C//DTD SVG 1.1//EN"
 "http://www.w3.org/Graphics/SVG/1.1/DTD/svg11.dtd">
<!-- Generated by graphviz version 2.44.1 (20200629.0800)
 -->
<!-- Title: TTrack::WriteOperatingTrackToImage Pages: 1 -->
<svg width="313pt" height="39pt"
 viewBox="0.00 0.00 313.00 39.00" xmlns="http://www.w3.org/2000/svg" xmlns:xlink="http://www.w3.org/1999/xlink">
<g id="graph0" class="graph" transform="scale(1 1) rotate(0) translate(4 35)">
<title>TTrack::WriteOperatingTrackToImage</title>
<polygon fill="white" stroke="transparent" points="-4,4 -4,-35 309,-35 309,4 -4,4"/>
<!-- Node1 -->
<g id="node1" class="node">
<title>Node1</title>
<g id="a_node1"><a xlink:title="Called by TInterface::SaveOperatingImage1Click to add all track element graphics to the image file in...">
<polygon fill="#bfbfbf" stroke="black" points="164,-0.5 164,-30.5 305,-30.5 305,-0.5 164,-0.5"/>
<text text-anchor="start" x="172" y="-18.5" font-family="Helvetica,sans-Serif" font-size="10.00">TTrack::WriteOperatingTrack</text>
<text text-anchor="middle" x="234.5" y="-7.5" font-family="Helvetica,sans-Serif" font-size="10.00">ToImage</text>
</a>
</g>
</g>
<!-- Node2 -->
<g id="node2" class="node">
<title>Node2</title>
<g id="a_node2"><a xlink:href="class_t_interface.html#a4d75015545313004ffd5022c020f4edf" target="_top" xlink:title=" ">
<polygon fill="white" stroke="black" points="0,-0.5 0,-30.5 128,-30.5 128,-0.5 0,-0.5"/>
<text text-anchor="start" x="8" y="-18.5" font-family="Helvetica,sans-Serif" font-size="10.00">TInterface::SaveOperating</text>
<text text-anchor="middle" x="64" y="-7.5" font-family="Helvetica,sans-Serif" font-size="10.00">ImageMenuItemClick</text>
</a>
</g>
</g>
<!-- Node1&#45;&gt;Node2 -->
<g id="edge1" class="edge">
<title>Node1&#45;&gt;Node2</title>
<path fill="none" stroke="midnightblue" d="M153.9,-15.5C145.25,-15.5 136.55,-15.5 128.14,-15.5"/>
<polygon fill="midnightblue" stroke="midnightblue" points="153.99,-19 163.99,-15.5 153.99,-12 153.99,-19"/>
</g>
</g>
</svg>
