<?xml version="1.0" encoding="UTF-8" standalone="no"?>
<!DOCTYPE svg PUBLIC "-//W3C//DTD SVG 1.1//EN"
 "http://www.w3.org/Graphics/SVG/1.1/DTD/svg11.dtd">
<!-- Generated by graphviz version 2.44.1 (20200629.0800)
 -->
<!-- Title: TTrainController::SendPerformanceSummary Pages: 1 -->
<!--zoomable 124 -->
<svg id="main" version="1.1" xmlns="http://www.w3.org/2000/svg" xmlns:xlink="http://www.w3.org/1999/xlink" xml:space="preserve" onload="init(evt)">
<style type="text/css"><![CDATA[
.edge:hover path { stroke: red; }
.edge:hover polygon { stroke: red; fill: red; }
]]></style>
<script type="text/javascript"><![CDATA[
var edges = document.getElementsByTagName('g');
if (edges && edges.length) {
  for (var i=0;i<edges.length;i++) {
    if (edges[i].id.substr(0,4)=='edge') {
      edges[i].setAttribute('class','edge');
    }
  }
}
]]></script>
        <defs>
                <circle id="rim" cx="0" cy="0" r="7"/>
                <circle id="rim2" cx="0" cy="0" r="3.5"/>
                <g id="zoomPlus">
                        <use xlink:href="#rim" fill="#404040">
                                <set attributeName="fill" to="#808080" begin="zoomplus.mouseover" end="zoomplus.mouseout"/>
                        </use>
                        <path d="M-4,0h8M0,-4v8" fill="none" stroke="white" stroke-width="1.5" pointer-events="none"/>
                </g>
                <g id="zoomMin">
                        <use xlink:href="#rim" fill="#404040">
                                <set attributeName="fill" to="#808080" begin="zoomminus.mouseover" end="zoomminus.mouseout"/>
                        </use>
                        <path d="M-4,0h8" fill="none" stroke="white" stroke-width="1.5" pointer-events="none"/>
                </g>
                <g id="dirArrow">
                        <path fill="none" stroke="white" stroke-width="1.5" d="M0,-3.0v7 M-2.5,-0.5L0,-3.0L2.5,-0.5"/>
                </g>
               <g id="resetDef">
                       <use xlink:href="#rim2" fill="#404040">
                               <set attributeName="fill" to="#808080" begin="reset.mouseover" end="reset.mouseout"/>
                       </use>
               </g>
        </defs>

<script type="text/javascript">
var viewWidth = 703;
var viewHeight = 124;
var sectionId = 'dynsection-105';
</script>
<script xlink:href="svgpan.js"/>
<svg id="graph" class="graph">
<g id="viewport">
<title>TTrainController::SendPerformanceSummary</title>
<polygon fill="white" stroke="transparent" points="-4,4 -4,-119.86 699,-119.86 699,4 -4,4"/>
<!-- Node1 -->
<g id="node1" class="node">
<title>Node1</title>
<g id="a_node1"><a xlink:title="At the end of operation a summary of overall performance is sent to the performance file by this func...">
<polygon fill="#bfbfbf" stroke="black" points="0,-39.24 0,-69.24 167,-69.24 167,-39.24 0,-39.24"/>
<text text-anchor="start" x="8" y="-57.24" font-family="Helvetica,sans-Serif" font-size="10.00">TTrainController::SendPerformance</text>
<text text-anchor="middle" x="83.5" y="-46.24" font-family="Helvetica,sans-Serif" font-size="10.00">Summary</text>
</a>
</g>
</g>
<!-- Node2 -->
<g id="node2" class="node">
<title>Node2</title>
<g id="a_node2"><a xlink:href="class_t_train_controller.html#aadffada34a23350d7773bc7735e423a1" target="_top" xlink:title="calculates additional lateness values for trains that haven&#39;t reached their destinations yet">
<polygon fill="white" stroke="black" points="203,-39.24 203,-69.24 355,-69.24 355,-39.24 203,-39.24"/>
<text text-anchor="start" x="211" y="-57.24" font-family="Helvetica,sans-Serif" font-size="10.00">TTrainController::CalcOperating</text>
<text text-anchor="middle" x="279" y="-46.24" font-family="Helvetica,sans-Serif" font-size="10.00">AndNotStartedTrainLateness</text>
</a>
</g>
</g>
<!-- Node1&#45;&gt;Node2 -->
<g id="edge1" class="edge">
<title>Node1&#45;&gt;Node2</title>
<path fill="none" stroke="midnightblue" d="M167.12,-54.24C175.52,-54.24 184.06,-54.24 192.49,-54.24"/>
<polygon fill="midnightblue" stroke="midnightblue" points="192.7,-57.74 202.7,-54.24 192.7,-50.74 192.7,-57.74"/>
</g>
<!-- Node3 -->
<g id="node3" class="node">
<title>Node3</title>
<g id="a_node3"><a xlink:href="class_t_utilities.html#ae1eddca13cc3c492839e131f40ec21c0" target="_top" xlink:title="pops the last entry off the call stack, throws an error if called when empty">
<polygon fill="white" stroke="black" points="585,-82.74 585,-101.74 695,-101.74 695,-82.74 585,-82.74"/>
<text text-anchor="middle" x="640" y="-89.74" font-family="Helvetica,sans-Serif" font-size="10.00">TUtilities::CallLogPop</text>
</a>
</g>
</g>
<!-- Node1&#45;&gt;Node3 -->
<g id="edge10" class="edge">
<title>Node1&#45;&gt;Node3</title>
<path fill="none" stroke="midnightblue" d="M153.32,-69.3C169.58,-72.71 186.88,-76.22 203,-79.24 354.74,-107.75 395.36,-125.46 549,-110.24 562.39,-108.92 576.75,-106.51 589.97,-103.87"/>
<polygon fill="midnightblue" stroke="midnightblue" points="590.74,-107.29 599.82,-101.83 589.32,-100.43 590.74,-107.29"/>
</g>
<!-- Node5 -->
<g id="node5" class="node">
<title>Node5</title>
<g id="a_node5"><a xlink:href="class_t_utilities.html#a34bd6bb5305bc29afdf424f6d35a921c" target="_top" xlink:title="creates a string of the form &#39;hh:mm:ss&#39; for use in call &amp; event logging">
<polygon fill="white" stroke="black" points="585,-6.74 585,-25.74 695,-25.74 695,-6.74 585,-6.74"/>
<text text-anchor="middle" x="640" y="-13.74" font-family="Helvetica,sans-Serif" font-size="10.00">TUtilities::TimeStamp</text>
</a>
</g>
</g>
<!-- Node1&#45;&gt;Node5 -->
<g id="edge11" class="edge">
<title>Node1&#45;&gt;Node5</title>
<path fill="none" stroke="midnightblue" d="M151.39,-39.21C168.19,-35.69 186.21,-32.13 203,-29.24 354.95,-3.15 395.16,5.97 549,-4.24 557.37,-4.8 566.14,-5.64 574.79,-6.63"/>
<polygon fill="midnightblue" stroke="midnightblue" points="574.51,-10.12 584.86,-7.84 575.35,-3.17 574.51,-10.12"/>
</g>
<!-- Node2&#45;&gt;Node3 -->
<g id="edge2" class="edge">
<title>Node2&#45;&gt;Node3</title>
<path fill="none" stroke="midnightblue" d="M314.23,-69.25C335.8,-77.87 364.48,-87.83 391,-92.24 452.79,-102.53 524.44,-101.12 574.79,-97.99"/>
<polygon fill="midnightblue" stroke="midnightblue" points="575.13,-101.48 584.88,-97.33 574.67,-94.49 575.13,-101.48"/>
</g>
<!-- Node4 -->
<g id="node4" class="node">
<title>Node4</title>
<g id="a_node4"><a xlink:href="class_t_train_controller.html#a435ef46f062904e85ae9792faaecdcf7" target="_top" xlink:title="Return the repeating service time.">
<polygon fill="white" stroke="black" points="391,-25.74 391,-44.74 549,-44.74 549,-25.74 391,-25.74"/>
<text text-anchor="middle" x="470" y="-32.74" font-family="Helvetica,sans-Serif" font-size="10.00">TTrainController::GetRepeatTime</text>
</a>
</g>
</g>
<!-- Node2&#45;&gt;Node4 -->
<g id="edge3" class="edge">
<title>Node2&#45;&gt;Node4</title>
<path fill="none" stroke="midnightblue" d="M355.24,-46.68C363.68,-45.83 372.32,-44.96 380.9,-44.1"/>
<polygon fill="midnightblue" stroke="midnightblue" points="381.32,-47.58 390.92,-43.09 380.62,-40.61 381.32,-47.58"/>
</g>
<!-- Node2&#45;&gt;Node5 -->
<g id="edge6" class="edge">
<title>Node2&#45;&gt;Node5</title>
<path fill="none" stroke="midnightblue" d="M314.23,-39.24C335.8,-30.62 364.48,-20.66 391,-16.24 452.79,-5.96 524.44,-7.37 574.79,-10.49"/>
<polygon fill="midnightblue" stroke="midnightblue" points="574.67,-13.99 584.88,-11.16 575.13,-7.01 574.67,-13.99"/>
</g>
<!-- Node6 -->
<g id="node6" class="node">
<title>Node6</title>
<g id="a_node6"><a xlink:href="class_t_train_controller.html#aa09adf9c442406cccc270d6703867a1d" target="_top" xlink:title="Return a reference to the train at position VecPos in the TrainVector, carries out range checking on ...">
<polygon fill="white" stroke="black" points="395.5,-63.74 395.5,-82.74 544.5,-82.74 544.5,-63.74 395.5,-63.74"/>
<text text-anchor="middle" x="470" y="-70.74" font-family="Helvetica,sans-Serif" font-size="10.00">TTrainController::TrainVectorAt</text>
</a>
</g>
</g>
<!-- Node2&#45;&gt;Node6 -->
<g id="edge7" class="edge">
<title>Node2&#45;&gt;Node6</title>
<path fill="none" stroke="midnightblue" d="M355.24,-61.81C365.02,-62.79 375.09,-63.8 385,-64.8"/>
<polygon fill="midnightblue" stroke="midnightblue" points="384.95,-68.31 395.25,-65.83 385.65,-61.35 384.95,-68.31"/>
</g>
<!-- Node4&#45;&gt;Node3 -->
<g id="edge4" class="edge">
<title>Node4&#45;&gt;Node3</title>
<path fill="none" stroke="midnightblue" d="M515.49,-44.77C526.54,-47.5 538.28,-50.7 549,-54.24 569.6,-61.05 592.08,-70.54 609.42,-78.34"/>
<polygon fill="midnightblue" stroke="midnightblue" points="608.43,-81.73 618.98,-82.69 611.33,-75.36 608.43,-81.73"/>
</g>
<!-- Node4&#45;&gt;Node5 -->
<g id="edge5" class="edge">
<title>Node4&#45;&gt;Node5</title>
<path fill="none" stroke="midnightblue" d="M549.1,-26.41C557.63,-25.45 566.24,-24.47 574.57,-23.53"/>
<polygon fill="midnightblue" stroke="midnightblue" points="575.04,-27 584.59,-22.4 574.26,-20.04 575.04,-27"/>
</g>
<!-- Node6&#45;&gt;Node3 -->
<g id="edge8" class="edge">
<title>Node6&#45;&gt;Node3</title>
<path fill="none" stroke="midnightblue" d="M544.69,-81.58C554.7,-82.71 564.91,-83.86 574.74,-84.98"/>
<polygon fill="midnightblue" stroke="midnightblue" points="574.48,-88.47 584.81,-86.12 575.27,-81.51 574.48,-88.47"/>
</g>
<!-- Node6&#45;&gt;Node5 -->
<g id="edge9" class="edge">
<title>Node6&#45;&gt;Node5</title>
<path fill="none" stroke="midnightblue" d="M515.49,-63.71C526.54,-60.99 538.28,-57.79 549,-54.24 569.6,-47.44 592.08,-37.95 609.42,-30.15"/>
<polygon fill="midnightblue" stroke="midnightblue" points="611.33,-33.13 618.98,-25.79 608.43,-26.76 611.33,-33.13"/>
</g>
</g>
</svg>
        <g id="navigator" transform="translate(0 0)" fill="#404254">
                <rect fill="#f2f5e9" fill-opacity="0.5" stroke="#606060" stroke-width=".5" x="0" y="0" width="60" height="60"/>
                <use id="zoomplus" xlink:href="#zoomPlus" x="17" y="9" onmousedown="handleZoom(evt,'in')"/>
                <use id="zoomminus" xlink:href="#zoomMin" x="42" y="9" onmousedown="handleZoom(evt,'out')"/>
                <use id="reset" xlink:href="#resetDef" x="30" y="36" onmousedown="handleReset()"/>
                <g id="arrowUp" xlink:href="#dirArrow" transform="translate(30 24)" onmousedown="handlePan(0,-1)">
                  <use xlink:href="#rim" fill="#404040">
                        <set attributeName="fill" to="#808080" begin="arrowUp.mouseover" end="arrowUp.mouseout"/>
                  </use>
                  <path fill="none" stroke="white" stroke-width="1.5" d="M0,-3.0v7 M-2.5,-0.5L0,-3.0L2.5,-0.5"/>
                </g>
                <g id="arrowRight" xlink:href="#dirArrow" transform="rotate(90) translate(36 -43)" onmousedown="handlePan(1,0)">
                  <use xlink:href="#rim" fill="#404040">
                        <set attributeName="fill" to="#808080" begin="arrowRight.mouseover" end="arrowRight.mouseout"/>
                  </use>
                  <path fill="none" stroke="white" stroke-width="1.5" d="M0,-3.0v7 M-2.5,-0.5L0,-3.0L2.5,-0.5"/>
                </g>
                <g id="arrowDown" xlink:href="#dirArrow" transform="rotate(180) translate(-30 -48)" onmousedown="handlePan(0,1)">
                  <use xlink:href="#rim" fill="#404040">
                        <set attributeName="fill" to="#808080" begin="arrowDown.mouseover" end="arrowDown.mouseout"/>
                  </use>
                  <path fill="none" stroke="white" stroke-width="1.5" d="M0,-3.0v7 M-2.5,-0.5L0,-3.0L2.5,-0.5"/>
                </g>
                <g id="arrowLeft" xlink:href="#dirArrow" transform="rotate(270) translate(-36 17)" onmousedown="handlePan(-1,0)">
                  <use xlink:href="#rim" fill="#404040">
                        <set attributeName="fill" to="#808080" begin="arrowLeft.mouseover" end="arrowLeft.mouseout"/>
                  </use>
                  <path fill="none" stroke="white" stroke-width="1.5" d="M0,-3.0v7 M-2.5,-0.5L0,-3.0L2.5,-0.5"/>
                </g>
        </g>
        <svg viewBox="0 0 15 15" width="100%" height="30px" preserveAspectRatio="xMaxYMin meet">
         <g id="arrow_out" transform="scale(0.3 0.3)">
          <a xlink:href="class_t_train_controller_af6c6e1e1236559f07b29b069d4377690_cgraph_org.svg" target="_base">
           <rect id="button" ry="5" rx="5" y="6" x="6" height="38" width="38"
                fill="#f2f5e9" fill-opacity="0.5" stroke="#606060" stroke-width="1.0"/>
           <path id="arrow"
             d="M 11.500037,31.436501 C 11.940474,20.09759 22.043105,11.32322 32.158766,21.979434 L 37.068811,17.246167 C 37.068811,17.246167 37.088388,32 37.088388,32 L 22.160133,31.978069 C 22.160133,31.978069 26.997745,27.140456 26.997745,27.140456 C 18.528582,18.264221 13.291696,25.230495 11.500037,31.436501 z"
             style="fill:#404040;"/>
          </a>
         </g>
        </svg>
</svg>
