<?xml version="1.0" encoding="UTF-8" standalone="no"?>
<!DOCTYPE svg PUBLIC "-//W3C//DTD SVG 1.1//EN"
 "http://www.w3.org/Graphics/SVG/1.1/DTD/svg11.dtd">
<!-- Generated by graphviz version 2.44.1 (20200629.0800)
 -->
<!-- Title: TInterface::SetInitialTrackModeEditMenu Pages: 1 -->
<svg width="608pt" height="78pt"
 viewBox="0.00 0.00 608.00 77.50" xmlns="http://www.w3.org/2000/svg" xmlns:xlink="http://www.w3.org/1999/xlink">
<g id="graph0" class="graph" transform="scale(1 1) rotate(0) translate(4 73.5)">
<title>TInterface::SetInitialTrackModeEditMenu</title>
<polygon fill="white" stroke="transparent" points="-4,4 -4,-73.5 604,-73.5 604,4 -4,4"/>
<!-- Node1 -->
<g id="node1" class="node">
<title>Node1</title>
<g id="a_node1"><a xlink:title="Enables or disables the initial Edit mode submenu items in Track mode.">
<polygon fill="#bfbfbf" stroke="black" points="0,-17 0,-47 126,-47 126,-17 0,-17"/>
<text text-anchor="start" x="8" y="-35" font-family="Helvetica,sans-Serif" font-size="10.00">TInterface::SetInitialTrack</text>
<text text-anchor="middle" x="63" y="-24" font-family="Helvetica,sans-Serif" font-size="10.00">ModeEditMenu</text>
</a>
</g>
</g>
<!-- Node2 -->
<g id="node2" class="node">
<title>Node2</title>
<g id="a_node2"><a xlink:href="class_t_interface.html#a488e772a2e2a52820fdbe1d1695e0118" target="_top" xlink:title="Returns true if there are no track elements and no text.">
<polygon fill="white" stroke="black" points="162,-22.5 162,-41.5 272,-41.5 272,-22.5 162,-22.5"/>
<text text-anchor="middle" x="217" y="-29.5" font-family="Helvetica,sans-Serif" font-size="10.00">TInterface::NoRailway</text>
</a>
</g>
</g>
<!-- Node1&#45;&gt;Node2 -->
<g id="edge1" class="edge">
<title>Node1&#45;&gt;Node2</title>
<path fill="none" stroke="midnightblue" d="M126.26,-32C134.66,-32 143.28,-32 151.71,-32"/>
<polygon fill="midnightblue" stroke="midnightblue" points="151.86,-35.5 161.86,-32 151.86,-28.5 151.86,-35.5"/>
</g>
<!-- Node3 -->
<g id="node3" class="node">
<title>Node3</title>
<g id="a_node3"><a xlink:href="class_t_track.html#ab20c55ecbc1801614695279daa8da0ba" target="_top" xlink:title="True if there is no active or inactive track in the railway.">
<polygon fill="white" stroke="black" points="314.5,-39 314.5,-69 447.5,-69 447.5,-39 314.5,-39"/>
<text text-anchor="start" x="322.5" y="-57" font-family="Helvetica,sans-Serif" font-size="10.00">TTrack::NoActiveOrInactive</text>
<text text-anchor="middle" x="381" y="-46" font-family="Helvetica,sans-Serif" font-size="10.00">Track</text>
</a>
</g>
</g>
<!-- Node2&#45;&gt;Node3 -->
<g id="edge2" class="edge">
<title>Node2&#45;&gt;Node3</title>
<path fill="none" stroke="midnightblue" d="M272.39,-39.39C282.56,-40.77 293.36,-42.23 304.05,-43.69"/>
<polygon fill="midnightblue" stroke="midnightblue" points="303.85,-47.19 314.23,-45.07 304.79,-40.25 303.85,-47.19"/>
</g>
<!-- Node6 -->
<g id="node6" class="node">
<title>Node6</title>
<g id="a_node6"><a xlink:href="class_t_text_handler.html#a7dfd4e30235878fb01e7387715e0cb0f" target="_top" xlink:title="return the number of items in TextVector">
<polygon fill="white" stroke="black" points="308,-0.5 308,-19.5 454,-19.5 454,-0.5 308,-0.5"/>
<text text-anchor="middle" x="381" y="-7.5" font-family="Helvetica,sans-Serif" font-size="10.00">TTextHandler::TextVectorSize</text>
</a>
</g>
</g>
<!-- Node2&#45;&gt;Node6 -->
<g id="edge5" class="edge">
<title>Node2&#45;&gt;Node6</title>
<path fill="none" stroke="midnightblue" d="M272.39,-24.61C281.24,-23.41 290.56,-22.15 299.86,-20.88"/>
<polygon fill="midnightblue" stroke="midnightblue" points="300.49,-24.33 309.93,-19.52 299.55,-17.39 300.49,-24.33"/>
</g>
<!-- Node4 -->
<g id="node4" class="node">
<title>Node4</title>
<g id="a_node4"><a xlink:href="class_t_utilities.html#ae1eddca13cc3c492839e131f40ec21c0" target="_top" xlink:title="pops the last entry off the call stack, throws an error if called when empty">
<polygon fill="white" stroke="black" points="490,-42.5 490,-61.5 600,-61.5 600,-42.5 490,-42.5"/>
<text text-anchor="middle" x="545" y="-49.5" font-family="Helvetica,sans-Serif" font-size="10.00">TUtilities::CallLogPop</text>
</a>
</g>
</g>
<!-- Node3&#45;&gt;Node4 -->
<g id="edge3" class="edge">
<title>Node3&#45;&gt;Node4</title>
<path fill="none" stroke="midnightblue" d="M447.89,-53.19C458.34,-53.06 469.13,-52.92 479.54,-52.8"/>
<polygon fill="midnightblue" stroke="midnightblue" points="479.85,-56.29 489.8,-52.67 479.76,-49.29 479.85,-56.29"/>
</g>
<!-- Node5 -->
<g id="node5" class="node">
<title>Node5</title>
<g id="a_node5"><a xlink:href="class_t_utilities.html#a34bd6bb5305bc29afdf424f6d35a921c" target="_top" xlink:title="creates a string of the form &#39;hh:mm:ss&#39; for use in call &amp; event logging">
<polygon fill="white" stroke="black" points="490,-3.5 490,-22.5 600,-22.5 600,-3.5 490,-3.5"/>
<text text-anchor="middle" x="545" y="-10.5" font-family="Helvetica,sans-Serif" font-size="10.00">TUtilities::TimeStamp</text>
</a>
</g>
</g>
<!-- Node3&#45;&gt;Node5 -->
<g id="edge4" class="edge">
<title>Node3&#45;&gt;Node5</title>
<path fill="none" stroke="midnightblue" d="M441.4,-38.97C459.52,-34.38 479.19,-29.4 496.42,-25.04"/>
<polygon fill="midnightblue" stroke="midnightblue" points="497.41,-28.4 506.25,-22.55 495.7,-21.62 497.41,-28.4"/>
</g>
<!-- Node6&#45;&gt;Node4 -->
<g id="edge6" class="edge">
<title>Node6&#45;&gt;Node4</title>
<path fill="none" stroke="midnightblue" d="M418.76,-19.53C441.98,-25.55 472.2,-33.38 497.13,-39.85"/>
<polygon fill="midnightblue" stroke="midnightblue" points="496.55,-43.31 507.11,-42.43 498.3,-36.54 496.55,-43.31"/>
</g>
<!-- Node6&#45;&gt;Node5 -->
<g id="edge7" class="edge">
<title>Node6&#45;&gt;Node5</title>
<path fill="none" stroke="midnightblue" d="M454.47,-11.34C462.76,-11.5 471.18,-11.65 479.36,-11.8"/>
<polygon fill="midnightblue" stroke="midnightblue" points="479.51,-15.31 489.57,-11.99 479.64,-8.31 479.51,-15.31"/>
</g>
</g>
</svg>
