<?xml version="1.0" encoding="UTF-8" standalone="no"?>
<!DOCTYPE svg PUBLIC "-//W3C//DTD SVG 1.1//EN"
 "http://www.w3.org/Graphics/SVG/1.1/DTD/svg11.dtd">
<!-- Generated by graphviz version 2.44.1 (20200629.0800)
 -->
<!-- Title: TTrain::PlotStartPosition Pages: 1 -->
<svg width="1148pt" height="368pt"
 viewBox="0.00 0.00 1148.00 367.50" xmlns="http://www.w3.org/2000/svg" xmlns:xlink="http://www.w3.org/1999/xlink">
<g id="graph0" class="graph" transform="scale(1 1) rotate(0) translate(4 363.5)">
<title>TTrain::PlotStartPosition</title>
<polygon fill="white" stroke="transparent" points="-4,4 -4,-363.5 1144,-363.5 1144,4 -4,4"/>
<!-- Node1 -->
<g id="node1" class="node">
<title>Node1</title>
<g id="a_node1"><a xlink:title="Plots the train and sets up all relevant members for a new train when it is introduced into the railw...">
<polygon fill="#bfbfbf" stroke="black" points="1018,-182 1018,-201 1140,-201 1140,-182 1018,-182"/>
<text text-anchor="middle" x="1079" y="-189" font-family="Helvetica,sans-Serif" font-size="10.00">TTrain::PlotStartPosition</text>
</a>
</g>
</g>
<!-- Node2 -->
<g id="node2" class="node">
<title>Node2</title>
<g id="a_node2"><a xlink:href="class_t_train_controller.html#aa895b60238810a9d134cd5b9c886da56" target="_top" xlink:title="Introduce a new train to the railway, with the characteristics specified, returns true for success,...">
<polygon fill="white" stroke="black" points="848,-340 848,-359 976,-359 976,-340 848,-340"/>
<text text-anchor="middle" x="912" y="-347" font-family="Helvetica,sans-Serif" font-size="10.00">TTrainController::AddTrain</text>
</a>
</g>
</g>
<!-- Node1&#45;&gt;Node2 -->
<g id="edge1" class="edge">
<title>Node1&#45;&gt;Node2</title>
<path fill="none" stroke="midnightblue" d="M1069.17,-210.52C1054.84,-239.4 1023.85,-294.22 982,-325.5 973.67,-331.73 963.6,-336.43 953.75,-339.94"/>
<polygon fill="midnightblue" stroke="midnightblue" points="1072.49,-211.68 1073.68,-201.15 1066.19,-208.64 1072.49,-211.68"/>
</g>
<!-- Node3 -->
<g id="node3" class="node">
<title>Node3</title>
<g id="a_node3"><a xlink:href="class_t_train.html#ad666fb061d1da7c44a72ec963c2098aa" target="_top" xlink:title="Carry out the actions needed when a train is to split from the front.">
<polygon fill="white" stroke="black" points="663,-302 663,-321 775,-321 775,-302 663,-302"/>
<text text-anchor="middle" x="719" y="-309" font-family="Helvetica,sans-Serif" font-size="10.00">TTrain::FrontTrainSplit</text>
</a>
</g>
</g>
<!-- Node1&#45;&gt;Node3 -->
<g id="edge12" class="edge">
<title>Node1&#45;&gt;Node3</title>
<path fill="none" stroke="midnightblue" d="M1061.29,-208.23C1043.31,-225.2 1013.09,-250.85 982,-264.5 914.62,-294.09 829.68,-305.06 775.11,-309.12"/>
<polygon fill="midnightblue" stroke="midnightblue" points="1063.89,-210.59 1068.65,-201.12 1059.03,-205.55 1063.89,-210.59"/>
</g>
<!-- Node8 -->
<g id="node8" class="node">
<title>Node8</title>
<g id="a_node8"><a xlink:href="class_t_train.html#ad64c5823265b0c611c2e5f0613317aa5" target="_top" xlink:title="Carry out the actions needed when a train is to split from the rear.">
<polygon fill="white" stroke="black" points="664,-264 664,-283 774,-283 774,-264 664,-264"/>
<text text-anchor="middle" x="719" y="-271" font-family="Helvetica,sans-Serif" font-size="10.00">TTrain::RearTrainSplit</text>
</a>
</g>
</g>
<!-- Node1&#45;&gt;Node8 -->
<g id="edge17" class="edge">
<title>Node1&#45;&gt;Node8</title>
<path fill="none" stroke="midnightblue" d="M1052.75,-205.89C1033.85,-216.01 1007.05,-229.04 982,-236.5 912,-257.34 827.88,-266.56 774.19,-270.56"/>
<polygon fill="midnightblue" stroke="midnightblue" points="1054.51,-208.91 1061.61,-201.04 1051.15,-202.77 1054.51,-208.91"/>
</g>
<!-- Node9 -->
<g id="node9" class="node">
<title>Node9</title>
<g id="a_node9"><a xlink:href="class_t_train.html#a406c172a0ba96802ada1aa04d78948d0" target="_top" xlink:title="Reverses the direction of motion of the train.">
<polygon fill="white" stroke="black" points="648.5,-223 648.5,-242 789.5,-242 789.5,-223 648.5,-223"/>
<text text-anchor="middle" x="719" y="-230" font-family="Helvetica,sans-Serif" font-size="10.00">TTrain::ChangeTrainDirection</text>
</a>
</g>
</g>
<!-- Node1&#45;&gt;Node9 -->
<g id="edge10" class="edge">
<title>Node1&#45;&gt;Node9</title>
<path fill="none" stroke="midnightblue" d="M1035.89,-203.77C1019.24,-208.16 999.85,-212.71 982,-215.5 917.26,-225.61 842.62,-229.72 789.6,-231.39"/>
<polygon fill="midnightblue" stroke="midnightblue" points="1037.12,-207.07 1045.86,-201.08 1035.29,-200.31 1037.12,-207.07"/>
</g>
<!-- Node10 -->
<g id="node10" class="node">
<title>Node10</title>
<g id="a_node10"><a xlink:href="class_t_train.html#a56fcfe4b9a3cef988bbeb4f4766372aa" target="_top" xlink:title="Carry out the actions needed when a new shuttle service is created from a non&#45;repeating (F&#45;nshs) serv...">
<polygon fill="white" stroke="black" points="843,-176.5 843,-206.5 981,-206.5 981,-176.5 843,-176.5"/>
<text text-anchor="start" x="851" y="-194.5" font-family="Helvetica,sans-Serif" font-size="10.00">TTrain::NewShuttleFromNon</text>
<text text-anchor="middle" x="912" y="-183.5" font-family="Helvetica,sans-Serif" font-size="10.00">RepeatService</text>
</a>
</g>
</g>
<!-- Node1&#45;&gt;Node10 -->
<g id="edge13" class="edge">
<title>Node1&#45;&gt;Node10</title>
<path fill="none" stroke="midnightblue" d="M1007.72,-191.5C998.9,-191.5 989.88,-191.5 981.1,-191.5"/>
<polygon fill="midnightblue" stroke="midnightblue" points="1007.96,-195 1017.96,-191.5 1007.96,-188 1007.96,-195"/>
</g>
<!-- Node11 -->
<g id="node11" class="node">
<title>Node11</title>
<g id="a_node11"><a xlink:href="class_t_train.html#a75a2e9017b96e2a8f2a1edbd01c2cd68" target="_top" xlink:title="Carry out the actions needed when a train forms a new service (code Fns)">
<polygon fill="white" stroke="black" points="852,-138 852,-157 972,-157 972,-138 852,-138"/>
<text text-anchor="middle" x="912" y="-145" font-family="Helvetica,sans-Serif" font-size="10.00">TTrain::NewTrainService</text>
</a>
</g>
</g>
<!-- Node1&#45;&gt;Node11 -->
<g id="edge15" class="edge">
<title>Node1&#45;&gt;Node11</title>
<path fill="none" stroke="midnightblue" d="M1032.42,-179.35C1006.02,-172.3 973.26,-163.57 948.73,-157.03"/>
<polygon fill="midnightblue" stroke="midnightblue" points="1031.63,-182.76 1042.2,-181.95 1033.44,-175.99 1031.63,-182.76"/>
</g>
<!-- Node12 -->
<g id="node12" class="node">
<title>Node12</title>
<g id="a_node12"><a xlink:href="class_t_train.html#a8262f447ec811db7e524c7bb885226c5" target="_top" xlink:title="Carry out the actions needed to create either a new shuttle service or (if all repeats have finished)...">
<polygon fill="white" stroke="black" points="842,-88.5 842,-118.5 982,-118.5 982,-88.5 842,-88.5"/>
<text text-anchor="start" x="850" y="-106.5" font-family="Helvetica,sans-Serif" font-size="10.00">TTrain::RepeatShuttleOrNew</text>
<text text-anchor="middle" x="912" y="-95.5" font-family="Helvetica,sans-Serif" font-size="10.00">NonRepeatService</text>
</a>
</g>
</g>
<!-- Node1&#45;&gt;Node12 -->
<g id="edge18" class="edge">
<title>Node1&#45;&gt;Node12</title>
<path fill="none" stroke="midnightblue" d="M1057.37,-175.92C1038.49,-162.16 1009.39,-142.21 982,-128.5 974.82,-124.91 967,-121.57 959.28,-118.58"/>
<polygon fill="midnightblue" stroke="midnightblue" points="1055.41,-178.82 1065.53,-181.94 1059.56,-173.19 1055.41,-178.82"/>
</g>
<!-- Node13 -->
<g id="node13" class="node">
<title>Node13</title>
<g id="a_node13"><a xlink:href="class_t_train.html#ac6f5cda912103fda4da31bdca611e4b5" target="_top" xlink:title="Carry out the actions needed to create either a new shuttle service or (if all repeats have finished)...">
<polygon fill="white" stroke="black" points="632,-57 632,-76 806,-76 806,-57 632,-57"/>
<text text-anchor="middle" x="719" y="-64" font-family="Helvetica,sans-Serif" font-size="10.00">TTrain::RepeatShuttleOrRemainHere</text>
</a>
</g>
</g>
<!-- Node1&#45;&gt;Node13 -->
<g id="edge20" class="edge">
<title>Node1&#45;&gt;Node13</title>
<path fill="none" stroke="midnightblue" d="M1068.64,-172.93C1054.16,-146.49 1023.6,-98.91 982,-78.5 915.88,-46.06 828.72,-49.82 773.5,-56.99"/>
<polygon fill="midnightblue" stroke="midnightblue" points="1065.63,-174.73 1073.39,-181.94 1071.82,-171.46 1065.63,-174.73"/>
</g>
<!-- Node14 -->
<g id="node14" class="node">
<title>Node14</title>
<g id="a_node14"><a xlink:href="class_t_train.html#affbb94aa088370056f8ca8c45a1fdd48" target="_top" xlink:title="Unplots &amp; replots train, which checks for facing signal and sets StoppedAtSignal if req&#39;d.">
<polygon fill="white" stroke="black" points="842,-0.5 842,-30.5 982,-30.5 982,-0.5 842,-0.5"/>
<text text-anchor="start" x="850" y="-18.5" font-family="Helvetica,sans-Serif" font-size="10.00">TTrain::SignallerChangeTrain</text>
<text text-anchor="middle" x="912" y="-7.5" font-family="Helvetica,sans-Serif" font-size="10.00">Direction</text>
</a>
</g>
</g>
<!-- Node1&#45;&gt;Node14 -->
<g id="edge22" class="edge">
<title>Node1&#45;&gt;Node14</title>
<path fill="none" stroke="midnightblue" d="M1069.89,-172.46C1056.01,-141.9 1024.98,-81.67 982,-45.5 974.9,-39.53 966.44,-34.56 957.91,-30.5"/>
<polygon fill="midnightblue" stroke="midnightblue" points="1066.84,-174.21 1074.08,-181.95 1073.24,-171.38 1066.84,-174.21"/>
</g>
<!-- Node2&#45;&gt;Node3 -->
<g id="edge2" class="edge">
<title>Node2&#45;&gt;Node3</title>
<path fill="none" stroke="midnightblue" d="M852.65,-337.89C825.48,-332.49 793.57,-326.14 767.85,-321.02"/>
<polygon fill="midnightblue" stroke="midnightblue" points="852.31,-341.39 862.8,-339.91 853.68,-334.53 852.31,-341.39"/>
</g>
<!-- Node5 -->
<g id="node5" class="node">
<title>Node5</title>
<g id="a_node5"><a xlink:href="class_t_train_controller.html#a20a1576dea1d86ed78fc5e9f46343481" target="_top" xlink:title="called every clock tick to introduce new trains and update existing trains">
<polygon fill="white" stroke="black" points="334,-261 334,-280 459,-280 459,-261 334,-261"/>
<text text-anchor="middle" x="396.5" y="-268" font-family="Helvetica,sans-Serif" font-size="10.00">TTrainController::Operate</text>
</a>
</g>
</g>
<!-- Node2&#45;&gt;Node5 -->
<g id="edge7" class="edge">
<title>Node2&#45;&gt;Node5</title>
<path fill="none" stroke="midnightblue" d="M837.47,-348.15C780.98,-346.23 701.16,-341.61 632,-330.5 557.32,-318.51 471.72,-293.72 427.48,-280.05"/>
<polygon fill="midnightblue" stroke="midnightblue" points="837.64,-351.66 847.75,-348.48 837.86,-344.66 837.64,-351.66"/>
</g>
<!-- Node2&#45;&gt;Node8 -->
<g id="edge8" class="edge">
<title>Node2&#45;&gt;Node8</title>
<path fill="none" stroke="midnightblue" d="M887.62,-334.32C866.91,-321.5 835.49,-303.51 806,-292.5 795.97,-288.76 785,-285.64 774.35,-283.09"/>
<polygon fill="midnightblue" stroke="midnightblue" points="886,-337.44 896.33,-339.81 889.73,-331.52 886,-337.44"/>
</g>
<!-- Node4 -->
<g id="node4" class="node">
<title>Node4</title>
<g id="a_node4"><a xlink:href="class_t_train.html#a89ad640ecf8f5163c40727b4e28575fc" target="_top" xlink:title="Major function called at each clock tick for each train &amp; handles all train movement &amp; associated act...">
<polygon fill="white" stroke="black" points="495,-203 495,-222 596,-222 596,-203 495,-203"/>
<text text-anchor="middle" x="545.5" y="-210" font-family="Helvetica,sans-Serif" font-size="10.00">TTrain::UpdateTrain</text>
</a>
</g>
</g>
<!-- Node3&#45;&gt;Node4 -->
<g id="edge3" class="edge">
<title>Node3&#45;&gt;Node4</title>
<path fill="none" stroke="midnightblue" d="M652.85,-301.05C645.61,-298.74 638.51,-295.93 632,-292.5 597.83,-274.5 567.28,-239.15 553.8,-222.12"/>
<polygon fill="midnightblue" stroke="midnightblue" points="652.19,-304.5 662.77,-303.88 654.12,-297.77 652.19,-304.5"/>
</g>
<!-- Node4&#45;&gt;Node5 -->
<g id="edge4" class="edge">
<title>Node4&#45;&gt;Node5</title>
<path fill="none" stroke="midnightblue" d="M510.73,-225.82C483.58,-236.54 446.08,-251.33 421.81,-260.91"/>
<polygon fill="midnightblue" stroke="midnightblue" points="512.21,-229 520.23,-222.08 509.64,-222.49 512.21,-229"/>
</g>
<!-- Node6 -->
<g id="node6" class="node">
<title>Node6</title>
<g id="a_node6"><a xlink:href="class_t_interface.html#a6139ffb52492eb89e5487a8a3cd647b5" target="_top" xlink:title="The main loop, called every clock tick via MasterClockTimer.">
<polygon fill="white" stroke="black" points="179,-261 179,-280 298,-280 298,-261 179,-261"/>
<text text-anchor="middle" x="238.5" y="-268" font-family="Helvetica,sans-Serif" font-size="10.00">TInterface::ClockTimer2</text>
</a>
</g>
</g>
<!-- Node5&#45;&gt;Node6 -->
<g id="edge5" class="edge">
<title>Node5&#45;&gt;Node6</title>
<path fill="none" stroke="midnightblue" d="M323.83,-270.5C315.24,-270.5 306.54,-270.5 298.16,-270.5"/>
<polygon fill="midnightblue" stroke="midnightblue" points="323.84,-274 333.84,-270.5 323.84,-267 323.84,-274"/>
</g>
<!-- Node7 -->
<g id="node7" class="node">
<title>Node7</title>
<g id="a_node7"><a xlink:href="class_t_interface.html#ace30a12d923fc7fb489afabb0a09aa4f" target="_top" xlink:title=" ">
<polygon fill="white" stroke="black" points="0,-261 0,-280 143,-280 143,-261 0,-261"/>
<text text-anchor="middle" x="71.5" y="-268" font-family="Helvetica,sans-Serif" font-size="10.00">TInterface::MasterClockTimer</text>
</a>
</g>
</g>
<!-- Node6&#45;&gt;Node7 -->
<g id="edge6" class="edge">
<title>Node6&#45;&gt;Node7</title>
<path fill="none" stroke="midnightblue" d="M168.67,-270.5C160.22,-270.5 151.57,-270.5 143.09,-270.5"/>
<polygon fill="midnightblue" stroke="midnightblue" points="168.86,-274 178.86,-270.5 168.86,-267 168.86,-274"/>
</g>
<!-- Node8&#45;&gt;Node4 -->
<g id="edge9" class="edge">
<title>Node8&#45;&gt;Node4</title>
<path fill="none" stroke="midnightblue" d="M664.43,-261.37C653.59,-258.47 642.35,-255.15 632,-251.5 608.31,-243.14 582.18,-230.73 565.12,-222.16"/>
<polygon fill="midnightblue" stroke="midnightblue" points="663.68,-264.79 674.24,-263.9 665.44,-258.01 663.68,-264.79"/>
</g>
<!-- Node9&#45;&gt;Node4 -->
<g id="edge11" class="edge">
<title>Node9&#45;&gt;Node4</title>
<path fill="none" stroke="midnightblue" d="M637.95,-223.16C623.72,-221.51 609.29,-219.82 596.22,-218.3"/>
<polygon fill="midnightblue" stroke="midnightblue" points="637.91,-226.68 648.24,-224.37 638.72,-219.73 637.91,-226.68"/>
</g>
<!-- Node10&#45;&gt;Node4 -->
<g id="edge14" class="edge">
<title>Node10&#45;&gt;Node4</title>
<path fill="none" stroke="midnightblue" d="M832.53,-196.02C760.85,-200.15 657.02,-206.13 596.17,-209.64"/>
<polygon fill="midnightblue" stroke="midnightblue" points="833.09,-199.49 842.87,-195.43 832.68,-192.51 833.09,-199.49"/>
</g>
<!-- Node11&#45;&gt;Node4 -->
<g id="edge16" class="edge">
<title>Node11&#45;&gt;Node4</title>
<path fill="none" stroke="midnightblue" d="M841.92,-158.34C785.37,-167.4 703.37,-180.98 632,-194.5 618.44,-197.07 603.71,-200.09 590.37,-202.91"/>
<polygon fill="midnightblue" stroke="midnightblue" points="842.5,-161.79 851.82,-156.75 841.39,-154.88 842.5,-161.79"/>
</g>
<!-- Node12&#45;&gt;Node4 -->
<g id="edge19" class="edge">
<title>Node12&#45;&gt;Node4</title>
<path fill="none" stroke="midnightblue" d="M831.72,-112.29C774.71,-120.37 696.8,-135.07 632,-160.5 604.18,-171.42 575.15,-191.14 559.09,-202.9"/>
<polygon fill="midnightblue" stroke="midnightblue" points="832.32,-115.74 841.75,-110.91 831.37,-108.81 832.32,-115.74"/>
</g>
<!-- Node13&#45;&gt;Node4 -->
<g id="edge21" class="edge">
<title>Node13&#45;&gt;Node4</title>
<path fill="none" stroke="midnightblue" d="M659.02,-79.42C649.48,-83.05 640.08,-87.65 632,-93.5 590.36,-123.61 561.2,-180.29 550.75,-202.87"/>
<polygon fill="midnightblue" stroke="midnightblue" points="660.27,-82.69 668.58,-76.11 657.98,-76.08 660.27,-82.69"/>
</g>
<!-- Node15 -->
<g id="node15" class="node">
<title>Node15</title>
<g id="a_node15"><a xlink:href="class_t_interface.html#aaaf32c3c815553f7ba70698e0f0071bb" target="_top" xlink:title=" ">
<polygon fill="white" stroke="black" points="651,-0.5 651,-30.5 787,-30.5 787,-0.5 651,-0.5"/>
<text text-anchor="start" x="659" y="-18.5" font-family="Helvetica,sans-Serif" font-size="10.00">TInterface::ChangeDirection</text>
<text text-anchor="middle" x="719" y="-7.5" font-family="Helvetica,sans-Serif" font-size="10.00">MenuItemClick</text>
</a>
</g>
</g>
<!-- Node14&#45;&gt;Node15 -->
<g id="edge23" class="edge">
<title>Node14&#45;&gt;Node15</title>
<path fill="none" stroke="midnightblue" d="M831.62,-15.5C816.81,-15.5 801.47,-15.5 787.07,-15.5"/>
<polygon fill="midnightblue" stroke="midnightblue" points="831.77,-19 841.77,-15.5 831.77,-12 831.77,-19"/>
</g>
</g>
</svg>
