<?xml version="1.0" encoding="UTF-8" standalone="no"?>
<!DOCTYPE svg PUBLIC "-//W3C//DTD SVG 1.1//EN"
 "http://www.w3.org/Graphics/SVG/1.1/DTD/svg11.dtd">
<!-- Generated by graphviz version 2.44.1 (20200629.0800)
 -->
<!-- Title: TTrain::FloatingLabelNextString Pages: 1 -->
<!--zoomable 710 -->
<svg id="main" version="1.1" xmlns="http://www.w3.org/2000/svg" xmlns:xlink="http://www.w3.org/1999/xlink" xml:space="preserve" onload="init(evt)">
<style type="text/css"><![CDATA[
.edge:hover path { stroke: red; }
.edge:hover polygon { stroke: red; fill: red; }
]]></style>
<script type="text/javascript"><![CDATA[
var edges = document.getElementsByTagName('g');
if (edges && edges.length) {
  for (var i=0;i<edges.length;i++) {
    if (edges[i].id.substr(0,4)=='edge') {
      edges[i].setAttribute('class','edge');
    }
  }
}
]]></script>
        <defs>
                <circle id="rim" cx="0" cy="0" r="7"/>
                <circle id="rim2" cx="0" cy="0" r="3.5"/>
                <g id="zoomPlus">
                        <use xlink:href="#rim" fill="#404040">
                                <set attributeName="fill" to="#808080" begin="zoomplus.mouseover" end="zoomplus.mouseout"/>
                        </use>
                        <path d="M-4,0h8M0,-4v8" fill="none" stroke="white" stroke-width="1.5" pointer-events="none"/>
                </g>
                <g id="zoomMin">
                        <use xlink:href="#rim" fill="#404040">
                                <set attributeName="fill" to="#808080" begin="zoomminus.mouseover" end="zoomminus.mouseout"/>
                        </use>
                        <path d="M-4,0h8" fill="none" stroke="white" stroke-width="1.5" pointer-events="none"/>
                </g>
                <g id="dirArrow">
                        <path fill="none" stroke="white" stroke-width="1.5" d="M0,-3.0v7 M-2.5,-0.5L0,-3.0L2.5,-0.5"/>
                </g>
               <g id="resetDef">
                       <use xlink:href="#rim2" fill="#404040">
                               <set attributeName="fill" to="#808080" begin="reset.mouseover" end="reset.mouseout"/>
                       </use>
               </g>
        </defs>

<script type="text/javascript">
var viewWidth = 869;
var viewHeight = 710;
var sectionId = 'dynsection-25';
</script>
<script xlink:href="svgpan.js"/>
<svg id="graph" class="graph">
<g id="viewport">
<title>TTrain::FloatingLabelNextString</title>
<polygon fill="white" stroke="transparent" points="-4,4 -4,-706.23 865,-706.23 865,4 -4,4"/>
<!-- Node1 -->
<g id="node1" class="node">
<title>Node1</title>
<g id="a_node1"><a xlink:title="Used in the floating window to display the &#39;Next&#39; action.">
<polygon fill="#bfbfbf" stroke="black" points="0,-270.34 0,-300.34 127,-300.34 127,-270.34 0,-270.34"/>
<text text-anchor="start" x="8" y="-288.34" font-family="Helvetica,sans-Serif" font-size="10.00">TTrain::FloatingLabelNext</text>
<text text-anchor="middle" x="63.5" y="-277.34" font-family="Helvetica,sans-Serif" font-size="10.00">String</text>
</a>
</g>
</g>
<!-- Node2 -->
<g id="node2" class="node">
<title>Node2</title>
<g id="a_node2"><a xlink:href="class_t_utilities.html#ae1eddca13cc3c492839e131f40ec21c0" target="_top" xlink:title="&lt; specifies whether no delays or minor, moderate or major random delays are to be applied">
<polygon fill="white" stroke="black" points="751,-423.84 751,-442.84 861,-442.84 861,-423.84 751,-423.84"/>
<text text-anchor="middle" x="806" y="-430.84" font-family="Helvetica,sans-Serif" font-size="10.00">TUtilities::CallLogPop</text>
</a>
</g>
</g>
<!-- Node1&#45;&gt;Node2 -->
<g id="edge1" class="edge">
<title>Node1&#45;&gt;Node2</title>
<path fill="none" stroke="midnightblue" d="M68.91,-300.49C79.78,-335.73 110.88,-424.44 163,-480.34 296.12,-623.09 362.58,-642.17 554,-680.34 624.17,-694.33 656.38,-721.37 715,-680.34 791.33,-626.91 803.15,-501.64 804.81,-453.07"/>
<polygon fill="midnightblue" stroke="midnightblue" points="808.32,-453.02 805.04,-442.94 801.32,-452.86 808.32,-453.02"/>
</g>
<!-- Node3 -->
<g id="node3" class="node">
<title>Node3</title>
<g id="a_node3"><a xlink:href="class_t_utilities.html#a6dc0e83b149563fdf43f068fd26cead8" target="_top" xlink:title="formats a TDateTime into an AnsiString of the form hh:mm where hh runs from 00 to 95 &amp; resets when it...">
<polygon fill="white" stroke="black" points="379,-31.84 379,-50.84 510,-50.84 510,-31.84 379,-31.84"/>
<text text-anchor="middle" x="444.5" y="-38.84" font-family="Helvetica,sans-Serif" font-size="10.00">TUtilities::Format96HHMM</text>
</a>
</g>
</g>
<!-- Node1&#45;&gt;Node3 -->
<g id="edge2" class="edge">
<title>Node1&#45;&gt;Node3</title>
<path fill="none" stroke="midnightblue" d="M71.8,-269.99C85.79,-242.1 118.92,-182.8 163,-148.34 229.32,-96.49 323.6,-67.47 384.17,-53.12"/>
<polygon fill="midnightblue" stroke="midnightblue" points="385.01,-56.52 393.96,-50.85 383.43,-49.7 385.01,-56.52"/>
</g>
<!-- Node4 -->
<g id="node4" class="node">
<title>Node4</title>
<g id="a_node4"><a xlink:href="class_t_train_controller.html#ab6b9585304d792300f5ca7f9c7a0ad06" target="_top" xlink:title="Check all timetable names in ExitList, if all same return &quot; at [name]&quot; + AllowableExits = elements,...">
<polygon fill="white" stroke="black" points="383,-435.34 383,-465.34 506,-465.34 506,-435.34 383,-435.34"/>
<text text-anchor="start" x="391" y="-453.34" font-family="Helvetica,sans-Serif" font-size="10.00">TTrainController::GetExit</text>
<text text-anchor="middle" x="444.5" y="-442.34" font-family="Helvetica,sans-Serif" font-size="10.00">LocationAndAt</text>
</a>
</g>
</g>
<!-- Node1&#45;&gt;Node4 -->
<g id="edge3" class="edge">
<title>Node1&#45;&gt;Node4</title>
<path fill="none" stroke="midnightblue" d="M99.14,-300.42C168.27,-330.51 323.25,-397.99 399.47,-431.17"/>
<polygon fill="midnightblue" stroke="midnightblue" points="398.24,-434.45 408.81,-435.23 401.03,-428.03 398.24,-434.45"/>
</g>
<!-- Node5 -->
<g id="node5" class="node">
<title>Node5</title>
<g id="a_node5"><a xlink:href="class_t_utilities.html#a34bd6bb5305bc29afdf424f6d35a921c" target="_top" xlink:title="creates a string of the form &#39;hh:mm:ss&#39; for use in call &amp; event logging">
<polygon fill="white" stroke="black" points="751,-202.84 751,-221.84 861,-221.84 861,-202.84 751,-202.84"/>
<text text-anchor="middle" x="806" y="-209.84" font-family="Helvetica,sans-Serif" font-size="10.00">TUtilities::TimeStamp</text>
</a>
</g>
</g>
<!-- Node1&#45;&gt;Node5 -->
<g id="edge32" class="edge">
<title>Node1&#45;&gt;Node5</title>
<path fill="none" stroke="midnightblue" d="M66.49,-270.12C72.62,-229.64 95.14,-118.7 163,-64.34 236.61,-5.37 277.16,-31.72 371,-22.34 523.83,-7.06 588.94,32.41 715,-55.34 763.86,-89.35 789.7,-159.03 799.83,-192.94"/>
<polygon fill="midnightblue" stroke="midnightblue" points="796.47,-193.94 802.57,-202.6 803.21,-192.03 796.47,-193.94"/>
</g>
<!-- Node7 -->
<g id="node7" class="node">
<title>Node7</title>
<g id="a_node7"><a xlink:href="class_t_train.html#a7b2441ac62bba8e9cc46f7e0511e5695" target="_top" xlink:title="called during FloatingLabelNextString to find the next service departure time &amp; next location">
<polygon fill="white" stroke="black" points="163,-199.84 163,-218.84 335,-218.84 335,-199.84 163,-199.84"/>
<text text-anchor="middle" x="249" y="-206.84" font-family="Helvetica,sans-Serif" font-size="10.00">TTrain::GetNewServiceDepartureInfo</text>
</a>
</g>
</g>
<!-- Node1&#45;&gt;Node7 -->
<g id="edge9" class="edge">
<title>Node1&#45;&gt;Node7</title>
<path fill="none" stroke="midnightblue" d="M100.75,-270.32C134.17,-256.48 183.31,-236.13 215.48,-222.81"/>
<polygon fill="midnightblue" stroke="midnightblue" points="216.99,-225.97 224.89,-218.91 214.31,-219.5 216.99,-225.97"/>
</g>
<!-- Node11 -->
<g id="node11" class="node">
<title>Node11</title>
<g id="a_node11"><a xlink:href="class_t_train_controller.html#afb0e8fd36435809350cb323ab9fe2213" target="_top" xlink:title="Return the service headcode for the repeat service.">
<polygon fill="white" stroke="black" points="376,-319.34 376,-349.34 513,-349.34 513,-319.34 376,-319.34"/>
<text text-anchor="start" x="384" y="-337.34" font-family="Helvetica,sans-Serif" font-size="10.00">TTrainController::GetRepeat</text>
<text text-anchor="middle" x="444.5" y="-326.34" font-family="Helvetica,sans-Serif" font-size="10.00">HeadCode</text>
</a>
</g>
</g>
<!-- Node1&#45;&gt;Node11 -->
<g id="edge21" class="edge">
<title>Node1&#45;&gt;Node11</title>
<path fill="none" stroke="midnightblue" d="M127.08,-293.43C192.41,-301.87 294.98,-315.14 365.53,-324.26"/>
<polygon fill="midnightblue" stroke="midnightblue" points="365.34,-327.76 375.7,-325.57 366.23,-320.82 365.34,-327.76"/>
</g>
<!-- Node13 -->
<g id="node13" class="node">
<title>Node13</title>
<g id="a_node13"><a xlink:href="class_t_train.html#ad249f34f6862e604b8e141d1b25fe57d" target="_top" xlink:title="Returns the timetable action time corresponding to &#39;Time&#39; for this train, i.e. it adjusts the time va...">
<polygon fill="white" stroke="black" points="391,-142.84 391,-161.84 498,-161.84 498,-142.84 391,-142.84"/>
<text text-anchor="middle" x="444.5" y="-149.84" font-family="Helvetica,sans-Serif" font-size="10.00">TTrain::GetTrainTime</text>
</a>
</g>
</g>
<!-- Node1&#45;&gt;Node13 -->
<g id="edge27" class="edge">
<title>Node1&#45;&gt;Node13</title>
<path fill="none" stroke="midnightblue" d="M75.21,-270.12C91.45,-248.37 124.51,-208.98 163,-190.34 232.16,-156.85 321.48,-150.09 380.53,-149.91"/>
<polygon fill="midnightblue" stroke="midnightblue" points="380.82,-153.41 390.83,-149.94 380.84,-146.41 380.82,-153.41"/>
</g>
<!-- Node14 -->
<g id="node14" class="node">
<title>Node14</title>
<g id="a_node14"><a xlink:href="class_t_train.html#a935bb43db57a3f2b635be9dfc6a7988b" target="_top" xlink:title="True when the train is stopped at a timetabled location.">
<polygon fill="white" stroke="black" points="386.5,-575.84 386.5,-594.84 502.5,-594.84 502.5,-575.84 386.5,-575.84"/>
<text text-anchor="middle" x="444.5" y="-582.84" font-family="Helvetica,sans-Serif" font-size="10.00">TTrain::TrainAtLocation</text>
</a>
</g>
</g>
<!-- Node1&#45;&gt;Node14 -->
<g id="edge33" class="edge">
<title>Node1&#45;&gt;Node14</title>
<path fill="none" stroke="midnightblue" d="M77.14,-300.66C116.05,-346.89 239.41,-486.36 371,-561.34 378.53,-565.63 386.95,-569.3 395.31,-572.38"/>
<polygon fill="midnightblue" stroke="midnightblue" points="394.44,-575.78 405.03,-575.72 396.72,-569.16 394.44,-575.78"/>
</g>
<!-- Node4&#45;&gt;Node2 -->
<g id="edge4" class="edge">
<title>Node4&#45;&gt;Node2</title>
<path fill="none" stroke="midnightblue" d="M477.42,-465.51C498.6,-474.71 527.32,-485.58 554,-490.34 624.44,-502.91 646.28,-510.27 715,-490.34 742.23,-482.44 769.12,-463.57 786.31,-449.69"/>
<polygon fill="midnightblue" stroke="midnightblue" points="788.93,-452.06 794.37,-442.97 784.44,-446.69 788.93,-452.06"/>
</g>
<!-- Node4&#45;&gt;Node5 -->
<g id="edge5" class="edge">
<title>Node4&#45;&gt;Node5</title>
<path fill="none" stroke="midnightblue" d="M506.18,-447.11C565.16,-441.12 654.46,-424.15 715,-376.34 763.3,-338.2 789.41,-266.66 799.71,-232.07"/>
<polygon fill="midnightblue" stroke="midnightblue" points="803.14,-232.8 802.51,-222.23 796.41,-230.89 803.14,-232.8"/>
</g>
<!-- Node6 -->
<g id="node6" class="node">
<title>Node6</title>
<g id="a_node6"><a xlink:href="class_t_track.html#ad377e5a1f152f2e89832c0f9bcfd261f" target="_top" xlink:title="A range&#45;checked version of TrackVector.at(At)">
<polygon fill="white" stroke="black" points="573.5,-461.84 573.5,-480.84 695.5,-480.84 695.5,-461.84 573.5,-461.84"/>
<text text-anchor="middle" x="634.5" y="-468.84" font-family="Helvetica,sans-Serif" font-size="10.00">TTrack::TrackElementAt</text>
</a>
</g>
</g>
<!-- Node4&#45;&gt;Node6 -->
<g id="edge6" class="edge">
<title>Node4&#45;&gt;Node6</title>
<path fill="none" stroke="midnightblue" d="M506.02,-457.1C524.31,-459.14 544.54,-461.4 563.4,-463.51"/>
<polygon fill="midnightblue" stroke="midnightblue" points="563.09,-466.99 573.42,-464.63 563.87,-460.04 563.09,-466.99"/>
</g>
<!-- Node6&#45;&gt;Node2 -->
<g id="edge7" class="edge">
<title>Node6&#45;&gt;Node2</title>
<path fill="none" stroke="midnightblue" d="M678.27,-461.75C700.84,-456.69 728.72,-450.44 752.58,-445.09"/>
<polygon fill="midnightblue" stroke="midnightblue" points="753.54,-448.46 762.54,-442.86 752.01,-441.63 753.54,-448.46"/>
</g>
<!-- Node6&#45;&gt;Node5 -->
<g id="edge8" class="edge">
<title>Node6&#45;&gt;Node5</title>
<path fill="none" stroke="midnightblue" d="M691.18,-461.69C699.9,-458.26 708.24,-453.62 715,-447.34 779.16,-387.67 798.03,-277.27 803.19,-232.24"/>
<polygon fill="midnightblue" stroke="midnightblue" points="806.7,-232.35 804.25,-222.05 799.74,-231.63 806.7,-232.35"/>
</g>
<!-- Node7&#45;&gt;Node2 -->
<g id="edge10" class="edge">
<title>Node7&#45;&gt;Node2</title>
<path fill="none" stroke="midnightblue" d="M254.72,-219.15C267.77,-246.36 305.36,-325.13 335,-391.34 351.6,-428.41 339.35,-449.88 371,-475.34 490.74,-571.66 570.84,-563.59 715,-510.34 746.95,-498.54 775.23,-469.77 791.22,-450.94"/>
<polygon fill="midnightblue" stroke="midnightblue" points="794.03,-453.03 797.67,-443.08 788.62,-448.59 794.03,-453.03"/>
</g>
<!-- Node7&#45;&gt;Node3 -->
<g id="edge11" class="edge">
<title>Node7&#45;&gt;Node3</title>
<path fill="none" stroke="midnightblue" d="M256.96,-199.76C278.17,-170.77 342.35,-84.76 371,-65.34 377.26,-61.09 384.33,-57.55 391.55,-54.6"/>
<polygon fill="midnightblue" stroke="midnightblue" points="393.24,-57.7 401.4,-50.94 390.81,-51.14 393.24,-57.7"/>
</g>
<!-- Node7&#45;&gt;Node5 -->
<g id="edge19" class="edge">
<title>Node7&#45;&gt;Node5</title>
<path fill="none" stroke="midnightblue" d="M262.79,-199.73C284.2,-184.01 329.09,-152.63 371,-133.34 448.38,-97.72 469.78,-89.15 554,-76.34 624.74,-65.58 651.97,-42.47 715,-76.34 761.4,-101.27 787.9,-161.8 798.91,-193.02"/>
<polygon fill="midnightblue" stroke="midnightblue" points="795.67,-194.36 802.17,-202.73 802.3,-192.13 795.67,-194.36"/>
</g>
<!-- Node7&#45;&gt;Node6 -->
<g id="edge20" class="edge">
<title>Node7&#45;&gt;Node6</title>
<path fill="none" stroke="midnightblue" d="M255.56,-219.05C270.83,-244.99 315.99,-316.72 371,-358.34 390.34,-372.96 533.18,-431.13 599.65,-457.82"/>
<polygon fill="midnightblue" stroke="midnightblue" points="598.67,-461.2 609.26,-461.68 601.28,-454.71 598.67,-461.2"/>
</g>
<!-- Node8 -->
<g id="node8" class="node">
<title>Node8</title>
<g id="a_node8"><a xlink:href="class_t_train_controller.html#a2713e7d4bb329d65df8b3fa0ad59b6cf" target="_top" xlink:title="Get the interval between repeats.">
<polygon fill="white" stroke="black" points="371,-181.34 371,-211.34 518,-211.34 518,-181.34 371,-181.34"/>
<text text-anchor="start" x="379" y="-199.34" font-family="Helvetica,sans-Serif" font-size="10.00">TTrainController::GetController</text>
<text text-anchor="middle" x="444.5" y="-188.34" font-family="Helvetica,sans-Serif" font-size="10.00">TrainTime</text>
</a>
</g>
</g>
<!-- Node7&#45;&gt;Node8 -->
<g id="edge12" class="edge">
<title>Node7&#45;&gt;Node8</title>
<path fill="none" stroke="midnightblue" d="M335.15,-203.62C343.59,-203.05 352.14,-202.48 360.55,-201.91"/>
<polygon fill="midnightblue" stroke="midnightblue" points="360.98,-205.39 370.72,-201.23 360.51,-198.41 360.98,-205.39"/>
</g>
<!-- Node8&#45;&gt;Node2 -->
<g id="edge13" class="edge">
<title>Node8&#45;&gt;Node2</title>
<path fill="none" stroke="midnightblue" d="M460.23,-211.56C479.86,-230.99 516.51,-264.37 554,-283.34 620.09,-316.78 652.5,-286.61 715,-326.34 750.83,-349.11 779.71,-390.71 794.41,-414.78"/>
<polygon fill="midnightblue" stroke="midnightblue" points="791.55,-416.82 799.66,-423.64 797.57,-413.25 791.55,-416.82"/>
</g>
<!-- Node8&#45;&gt;Node5 -->
<g id="edge18" class="edge">
<title>Node8&#45;&gt;Node5</title>
<path fill="none" stroke="midnightblue" d="M518.25,-199.58C583.45,-202.48 678.19,-206.69 740.68,-209.47"/>
<polygon fill="midnightblue" stroke="midnightblue" points="740.66,-212.98 750.81,-209.93 740.97,-205.98 740.66,-212.98"/>
</g>
<!-- Node9 -->
<g id="node9" class="node">
<title>Node9</title>
<g id="a_node9"><a xlink:href="class_t_utilities.html#a2dfbe3d4ed11770bc1a902b51afdc10c" target="_top" xlink:title="formats a TDateTime into an AnsiString of the form hh:mm:ss where hh runs from 00 to 95 &amp; resets when...">
<polygon fill="white" stroke="black" points="562,-107.84 562,-126.84 707,-126.84 707,-107.84 562,-107.84"/>
<text text-anchor="middle" x="634.5" y="-114.84" font-family="Helvetica,sans-Serif" font-size="10.00">TUtilities::Format96HHMMSS</text>
</a>
</g>
</g>
<!-- Node8&#45;&gt;Node9 -->
<g id="edge14" class="edge">
<title>Node8&#45;&gt;Node9</title>
<path fill="none" stroke="midnightblue" d="M498.25,-181.24C505.11,-178.4 511.88,-175.11 518,-171.34 537,-159.64 534.45,-147.09 554,-136.34 558.21,-134.02 562.69,-131.99 567.31,-130.2"/>
<polygon fill="midnightblue" stroke="midnightblue" points="568.62,-133.45 576.92,-126.86 566.32,-126.84 568.62,-133.45"/>
</g>
<!-- Node10 -->
<g id="node10" class="node">
<title>Node10</title>
<g id="a_node10"><a xlink:href="class_t_train_controller.html#a435ef46f062904e85ae9792faaecdcf7" target="_top" xlink:title="Return the repeating service time.">
<polygon fill="white" stroke="black" points="555.5,-145.84 555.5,-164.84 713.5,-164.84 713.5,-145.84 555.5,-145.84"/>
<text text-anchor="middle" x="634.5" y="-152.84" font-family="Helvetica,sans-Serif" font-size="10.00">TTrainController::GetRepeatTime</text>
</a>
</g>
</g>
<!-- Node8&#45;&gt;Node10 -->
<g id="edge15" class="edge">
<title>Node8&#45;&gt;Node10</title>
<path fill="none" stroke="midnightblue" d="M514.44,-181.3C535.95,-176.61 559.36,-171.51 579.68,-167.08"/>
<polygon fill="midnightblue" stroke="midnightblue" points="580.66,-170.44 589.69,-164.89 579.17,-163.6 580.66,-170.44"/>
</g>
<!-- Node10&#45;&gt;Node2 -->
<g id="edge16" class="edge">
<title>Node10&#45;&gt;Node2</title>
<path fill="none" stroke="midnightblue" d="M644.34,-165.05C659.83,-182.36 692.38,-220.04 715,-255.34 750.24,-310.32 782.4,-380.89 796.89,-414.25"/>
<polygon fill="midnightblue" stroke="midnightblue" points="793.8,-415.9 800.96,-423.7 800.23,-413.13 793.8,-415.9"/>
</g>
<!-- Node10&#45;&gt;Node5 -->
<g id="edge17" class="edge">
<title>Node10&#45;&gt;Node5</title>
<path fill="none" stroke="midnightblue" d="M668.9,-164.95C683.16,-169.18 699.96,-174.31 715,-179.34 733.47,-185.51 753.87,-192.93 770.56,-199.18"/>
<polygon fill="midnightblue" stroke="midnightblue" points="769.33,-202.45 779.92,-202.7 771.79,-195.9 769.33,-202.45"/>
</g>
<!-- Node11&#45;&gt;Node2 -->
<g id="edge22" class="edge">
<title>Node11&#45;&gt;Node2</title>
<path fill="none" stroke="midnightblue" d="M480.71,-349.47C501.72,-358.12 529.08,-368.73 554,-376.34 617.51,-395.73 691.85,-411.81 743.06,-421.9"/>
<polygon fill="midnightblue" stroke="midnightblue" points="742.5,-425.35 752.99,-423.83 743.84,-418.48 742.5,-425.35"/>
</g>
<!-- Node11&#45;&gt;Node5 -->
<g id="edge26" class="edge">
<title>Node11&#45;&gt;Node5</title>
<path fill="none" stroke="midnightblue" d="M489.94,-319.26C561.24,-295.06 699.95,-247.99 766.95,-225.25"/>
<polygon fill="midnightblue" stroke="midnightblue" points="768.34,-228.47 776.69,-221.95 766.09,-221.84 768.34,-228.47"/>
</g>
<!-- Node12 -->
<g id="node12" class="node">
<title>Node12</title>
<g id="a_node12"><a xlink:href="class_t_train_controller.html#a6fc210d266e7672ccc648c0a9ab4e542" target="_top" xlink:title="Checks the last two characters in HeadCode and returns true if both are digits.">
<polygon fill="white" stroke="black" points="554,-336.34 554,-366.34 715,-366.34 715,-336.34 554,-336.34"/>
<text text-anchor="start" x="562" y="-354.34" font-family="Helvetica,sans-Serif" font-size="10.00">TTrainController::Last2Characters</text>
<text text-anchor="middle" x="634.5" y="-343.34" font-family="Helvetica,sans-Serif" font-size="10.00">BothDigits</text>
</a>
</g>
</g>
<!-- Node11&#45;&gt;Node12 -->
<g id="edge23" class="edge">
<title>Node11&#45;&gt;Node12</title>
<path fill="none" stroke="midnightblue" d="M513.11,-340.45C522.98,-341.34 533.27,-342.27 543.5,-343.2"/>
<polygon fill="midnightblue" stroke="midnightblue" points="543.41,-346.71 553.68,-344.12 544.04,-339.73 543.41,-346.71"/>
</g>
<!-- Node12&#45;&gt;Node2 -->
<g id="edge24" class="edge">
<title>Node12&#45;&gt;Node2</title>
<path fill="none" stroke="midnightblue" d="M679.36,-366.43C691.1,-370.86 703.67,-375.97 715,-381.34 738.33,-392.39 763.69,-407.33 781.53,-418.36"/>
<polygon fill="midnightblue" stroke="midnightblue" points="779.78,-421.4 790.12,-423.73 783.5,-415.46 779.78,-421.4"/>
</g>
<!-- Node12&#45;&gt;Node5 -->
<g id="edge25" class="edge">
<title>Node12&#45;&gt;Node5</title>
<path fill="none" stroke="midnightblue" d="M653.96,-336.2C686.1,-309.84 752.04,-255.77 785.13,-228.63"/>
<polygon fill="midnightblue" stroke="midnightblue" points="787.66,-231.09 793.17,-222.04 783.22,-225.67 787.66,-231.09"/>
</g>
<!-- Node13&#45;&gt;Node2 -->
<g id="edge28" class="edge">
<title>Node13&#45;&gt;Node2</title>
<path fill="none" stroke="midnightblue" d="M489.42,-161.88C499,-164.5 508.96,-167.66 518,-171.34 611.28,-209.31 642.95,-212.96 715,-283.34 755.23,-322.63 784.35,-383.56 797.38,-414.27"/>
<polygon fill="midnightblue" stroke="midnightblue" points="794.26,-415.88 801.31,-423.78 800.73,-413.2 794.26,-415.88"/>
</g>
<!-- Node13&#45;&gt;Node5 -->
<g id="edge31" class="edge">
<title>Node13&#45;&gt;Node5</title>
<path fill="none" stroke="midnightblue" d="M459.43,-142.74C479.33,-129.67 517.54,-106.91 554,-98.34 623.66,-81.96 650.61,-67.13 715,-98.34 755.85,-118.13 783.75,-166.45 796.71,-193.4"/>
<polygon fill="midnightblue" stroke="midnightblue" points="793.58,-194.96 800.95,-202.57 799.94,-192.03 793.58,-194.96"/>
</g>
<!-- Node13&#45;&gt;Node9 -->
<g id="edge29" class="edge">
<title>Node13&#45;&gt;Node9</title>
<path fill="none" stroke="midnightblue" d="M496.87,-142.77C520.19,-138.43 547.94,-133.27 572.32,-128.73"/>
<polygon fill="midnightblue" stroke="midnightblue" points="573,-132.16 582.19,-126.89 571.72,-125.28 573,-132.16"/>
</g>
<!-- Node13&#45;&gt;Node10 -->
<g id="edge30" class="edge">
<title>Node13&#45;&gt;Node10</title>
<path fill="none" stroke="midnightblue" d="M498.12,-153.18C512.64,-153.41 528.81,-153.67 544.78,-153.92"/>
<polygon fill="midnightblue" stroke="midnightblue" points="545.17,-157.43 555.23,-154.09 545.28,-150.43 545.17,-157.43"/>
</g>
<!-- Node14&#45;&gt;Node2 -->
<g id="edge34" class="edge">
<title>Node14&#45;&gt;Node2</title>
<path fill="none" stroke="midnightblue" d="M469.59,-594.89C519.45,-612.98 635.89,-646.43 715,-599.34 769.12,-567.12 792.7,-489.76 801.09,-453.17"/>
<polygon fill="midnightblue" stroke="midnightblue" points="804.55,-453.72 803.23,-443.21 797.71,-452.26 804.55,-453.72"/>
</g>
<!-- Node14&#45;&gt;Node5 -->
<g id="edge36" class="edge">
<title>Node14&#45;&gt;Node5</title>
<path fill="none" stroke="midnightblue" d="M502.62,-579.96C563.3,-571.27 658.13,-548.69 715,-490.34 733.83,-471.01 783.53,-291.79 799.78,-231.8"/>
<polygon fill="midnightblue" stroke="midnightblue" points="803.18,-232.62 802.41,-222.05 796.42,-230.79 803.18,-232.62"/>
</g>
<!-- Node14&#45;&gt;Node6 -->
<g id="edge37" class="edge">
<title>Node14&#45;&gt;Node6</title>
<path fill="none" stroke="midnightblue" d="M461.21,-575.81C493.97,-555.95 569.8,-509.96 609.02,-486.18"/>
<polygon fill="midnightblue" stroke="midnightblue" points="610.97,-489.09 617.71,-480.91 607.34,-483.11 610.97,-489.09"/>
</g>
<!-- Node15 -->
<g id="node15" class="node">
<title>Node15</title>
<g id="a_node15"><a xlink:href="class_t_train.html#a77e1368fb80820dd2c3350858c28ceab" target="_top" xlink:title=" ">
<polygon fill="white" stroke="black" points="562.5,-651.84 562.5,-670.84 706.5,-670.84 706.5,-651.84 562.5,-651.84"/>
<text text-anchor="middle" x="634.5" y="-658.84" font-family="Helvetica,sans-Serif" font-size="10.00">TTrain::RevisedStoppedAtLoc</text>
</a>
</g>
</g>
<!-- Node14&#45;&gt;Node15 -->
<g id="edge35" class="edge">
<title>Node14&#45;&gt;Node15</title>
<path fill="none" stroke="midnightblue" d="M463.17,-594.85C484.35,-606 521.09,-624.57 554,-637.34 564.81,-641.53 576.68,-645.46 587.87,-648.87"/>
<polygon fill="midnightblue" stroke="midnightblue" points="586.9,-652.24 597.49,-651.74 588.9,-645.53 586.9,-652.24"/>
</g>
</g>
</svg>
        <g id="navigator" transform="translate(0 0)" fill="#404254">
                <rect fill="#f2f5e9" fill-opacity="0.5" stroke="#606060" stroke-width=".5" x="0" y="0" width="60" height="60"/>
                <use id="zoomplus" xlink:href="#zoomPlus" x="17" y="9" onmousedown="handleZoom(evt,'in')"/>
                <use id="zoomminus" xlink:href="#zoomMin" x="42" y="9" onmousedown="handleZoom(evt,'out')"/>
                <use id="reset" xlink:href="#resetDef" x="30" y="36" onmousedown="handleReset()"/>
                <g id="arrowUp" xlink:href="#dirArrow" transform="translate(30 24)" onmousedown="handlePan(0,-1)">
                  <use xlink:href="#rim" fill="#404040">
                        <set attributeName="fill" to="#808080" begin="arrowUp.mouseover" end="arrowUp.mouseout"/>
                  </use>
                  <path fill="none" stroke="white" stroke-width="1.5" d="M0,-3.0v7 M-2.5,-0.5L0,-3.0L2.5,-0.5"/>
                </g>
                <g id="arrowRight" xlink:href="#dirArrow" transform="rotate(90) translate(36 -43)" onmousedown="handlePan(1,0)">
                  <use xlink:href="#rim" fill="#404040">
                        <set attributeName="fill" to="#808080" begin="arrowRight.mouseover" end="arrowRight.mouseout"/>
                  </use>
                  <path fill="none" stroke="white" stroke-width="1.5" d="M0,-3.0v7 M-2.5,-0.5L0,-3.0L2.5,-0.5"/>
                </g>
                <g id="arrowDown" xlink:href="#dirArrow" transform="rotate(180) translate(-30 -48)" onmousedown="handlePan(0,1)">
                  <use xlink:href="#rim" fill="#404040">
                        <set attributeName="fill" to="#808080" begin="arrowDown.mouseover" end="arrowDown.mouseout"/>
                  </use>
                  <path fill="none" stroke="white" stroke-width="1.5" d="M0,-3.0v7 M-2.5,-0.5L0,-3.0L2.5,-0.5"/>
                </g>
                <g id="arrowLeft" xlink:href="#dirArrow" transform="rotate(270) translate(-36 17)" onmousedown="handlePan(-1,0)">
                  <use xlink:href="#rim" fill="#404040">
                        <set attributeName="fill" to="#808080" begin="arrowLeft.mouseover" end="arrowLeft.mouseout"/>
                  </use>
                  <path fill="none" stroke="white" stroke-width="1.5" d="M0,-3.0v7 M-2.5,-0.5L0,-3.0L2.5,-0.5"/>
                </g>
        </g>
        <svg viewBox="0 0 15 15" width="100%" height="30px" preserveAspectRatio="xMaxYMin meet">
         <g id="arrow_out" transform="scale(0.3 0.3)">
          <a xlink:href="class_t_train_a221da69cd80d206a06f840f4cd463cf9_cgraph_org.svg" target="_base">
           <rect id="button" ry="5" rx="5" y="6" x="6" height="38" width="38"
                fill="#f2f5e9" fill-opacity="0.5" stroke="#606060" stroke-width="1.0"/>
           <path id="arrow"
             d="M 11.500037,31.436501 C 11.940474,20.09759 22.043105,11.32322 32.158766,21.979434 L 37.068811,17.246167 C 37.068811,17.246167 37.088388,32 37.088388,32 L 22.160133,31.978069 C 22.160133,31.978069 26.997745,27.140456 26.997745,27.140456 C 18.528582,18.264221 13.291696,25.230495 11.500037,31.436501 z"
             style="fill:#404040;"/>
          </a>
         </g>
        </svg>
</svg>
