<?xml version="1.0" encoding="UTF-8" standalone="no"?>
<!DOCTYPE svg PUBLIC "-//W3C//DTD SVG 1.1//EN"
 "http://www.w3.org/Graphics/SVG/1.1/DTD/svg11.dtd">
<!-- Generated by graphviz version 2.44.1 (20200629.0800)
 -->
<!-- Title: TTrain::CallingOnAllowed Pages: 1 -->
<svg width="990pt" height="883pt"
 viewBox="0.00 0.00 990.00 883.39" xmlns="http://www.w3.org/2000/svg" xmlns:xlink="http://www.w3.org/1999/xlink">
<g id="graph0" class="graph" transform="scale(1 1) rotate(0) translate(4 879.39)">
<title>TTrain::CallingOnAllowed</title>
<polygon fill="white" stroke="transparent" points="-4,4 -4,-879.39 986,-879.39 986,4 -4,4"/>
<!-- Node1 -->
<g id="node1" class="node">
<title>Node1</title>
<g id="a_node1"><a xlink:title="True if the train can be called on at its current position &#45; see detail in .cpp file.">
<polygon fill="#bfbfbf" stroke="black" points="0,-214 0,-233 125,-233 125,-214 0,-214"/>
<text text-anchor="middle" x="62.5" y="-221" font-family="Helvetica,sans-Serif" font-size="10.00">TTrain::CallingOnAllowed</text>
</a>
</g>
</g>
<!-- Node2 -->
<g id="node2" class="node">
<title>Node2</title>
<g id="a_node2"><a xlink:href="class_t_utilities.html#ae1eddca13cc3c492839e131f40ec21c0" target="_top" xlink:title="pops the last entry off the call stack, throws an error if called when empty">
<polygon fill="white" stroke="black" points="872,-578 872,-597 982,-597 982,-578 872,-578"/>
<text text-anchor="middle" x="927" y="-585" font-family="Helvetica,sans-Serif" font-size="10.00">TUtilities::CallLogPop</text>
</a>
</g>
</g>
<!-- Node1&#45;&gt;Node2 -->
<g id="edge1" class="edge">
<title>Node1&#45;&gt;Node2</title>
<path fill="none" stroke="midnightblue" d="M64.44,-233.2C70.49,-293.88 105.33,-621.31 161,-702.5 232.33,-806.52 273.88,-855.5 400,-855.5 400,-855.5 400,-855.5 560.5,-855.5 683.24,-855.5 738.03,-910.43 836,-836.5 910.9,-779.98 923.58,-655.27 925.64,-607.06"/>
<polygon fill="midnightblue" stroke="midnightblue" points="929.14,-607.12 925.96,-597.01 922.14,-606.9 929.14,-607.12"/>
</g>
<!-- Node3 -->
<g id="node3" class="node">
<title>Node3</title>
<g id="a_node3"><a xlink:href="class_t_all_routes.html#a2341a7e860e716e60b733f45814e4499" target="_top" xlink:title="The track geometry allows diagonals to cross without occupying the same track element,...">
<polygon fill="white" stroke="black" points="168.5,-594.5 168.5,-624.5 305.5,-624.5 305.5,-594.5 168.5,-594.5"/>
<text text-anchor="start" x="176.5" y="-612.5" font-family="Helvetica,sans-Serif" font-size="10.00">TAllRoutes::DiagonalFouled</text>
<text text-anchor="middle" x="237" y="-601.5" font-family="Helvetica,sans-Serif" font-size="10.00">ByRouteOrTrain</text>
</a>
</g>
</g>
<!-- Node1&#45;&gt;Node3 -->
<g id="edge2" class="edge">
<title>Node1&#45;&gt;Node3</title>
<path fill="none" stroke="midnightblue" d="M67.11,-233.19C79.38,-265.87 120.87,-374.91 161,-462.5 181.15,-506.5 207.36,-556.43 222.86,-585.31"/>
<polygon fill="midnightblue" stroke="midnightblue" points="219.86,-587.12 227.68,-594.26 226.02,-583.8 219.86,-587.12"/>
</g>
<!-- Node5 -->
<g id="node5" class="node">
<title>Node5</title>
<g id="a_node5"><a xlink:href="class_t_utilities.html#a34bd6bb5305bc29afdf424f6d35a921c" target="_top" xlink:title="creates a string of the form &#39;hh:mm:ss&#39; for use in call &amp; event logging">
<polygon fill="white" stroke="black" points="872,-376 872,-395 982,-395 982,-376 872,-376"/>
<text text-anchor="middle" x="927" y="-383" font-family="Helvetica,sans-Serif" font-size="10.00">TUtilities::TimeStamp</text>
</a>
</g>
</g>
<!-- Node1&#45;&gt;Node5 -->
<g id="edge41" class="edge">
<title>Node1&#45;&gt;Node5</title>
<path fill="none" stroke="midnightblue" d="M72.56,-213.82C88.81,-196.97 124.62,-162.09 161,-141.5 258.74,-86.2 287.7,-59.5 400,-59.5 400,-59.5 400,-59.5 560.5,-59.5 685.02,-59.5 742.28,-28.5 836,-110.5 913.69,-178.47 924.65,-314.51 925.94,-365.55"/>
<polygon fill="midnightblue" stroke="midnightblue" points="922.45,-365.91 926.1,-375.85 929.45,-365.8 922.45,-365.91"/>
</g>
<!-- Node11 -->
<g id="node11" class="node">
<title>Node11</title>
<g id="a_node11"><a xlink:href="class_t_track.html#ad377e5a1f152f2e89832c0f9bcfd261f" target="_top" xlink:title="A range&#45;checked version of TrackElement.at(At)">
<polygon fill="white" stroke="black" points="690,-240 690,-259 812,-259 812,-240 690,-240"/>
<text text-anchor="middle" x="751" y="-247" font-family="Helvetica,sans-Serif" font-size="10.00">TTrack::TrackElementAt</text>
</a>
</g>
</g>
<!-- Node1&#45;&gt;Node11 -->
<g id="edge42" class="edge">
<title>Node1&#45;&gt;Node11</title>
<path fill="none" stroke="midnightblue" d="M110.88,-213.97C209.12,-195.94 441.56,-162.24 630,-204.5 647.27,-208.37 649.58,-214.91 666,-221.5 679.66,-226.98 694.86,-232.28 708.53,-236.76"/>
<polygon fill="midnightblue" stroke="midnightblue" points="707.57,-240.13 718.16,-239.88 709.72,-233.47 707.57,-240.13"/>
</g>
<!-- Node12 -->
<g id="node12" class="node">
<title>Node12</title>
<g id="a_node12"><a xlink:href="class_t_train_controller.html#a4d5de42d6e9e92191241963599581210" target="_top" xlink:title="Return a reference to the train with ID TrainID, carries out validity checking on TrainID.">
<polygon fill="white" stroke="black" points="489.5,-436.5 489.5,-466.5 629.5,-466.5 629.5,-436.5 489.5,-436.5"/>
<text text-anchor="start" x="497.5" y="-454.5" font-family="Helvetica,sans-Serif" font-size="10.00">TTrainController::TrainVector</text>
<text text-anchor="middle" x="559.5" y="-443.5" font-family="Helvetica,sans-Serif" font-size="10.00">AtIdent</text>
</a>
</g>
</g>
<!-- Node1&#45;&gt;Node12 -->
<g id="edge47" class="edge">
<title>Node1&#45;&gt;Node12</title>
<path fill="none" stroke="midnightblue" d="M73.26,-233.35C107.45,-267.2 226.45,-379.19 349,-426.5 390.27,-442.43 439.22,-448.9 479.43,-451.28"/>
<polygon fill="midnightblue" stroke="midnightblue" points="479.28,-454.78 489.45,-451.8 479.65,-447.79 479.28,-454.78"/>
</g>
<!-- Node14 -->
<g id="node14" class="node">
<title>Node14</title>
<g id="a_node14"><a xlink:href="class_t_track.html#aeb515d40cb9b08ed55ce877ffdbc51a5" target="_top" xlink:title="Return the corresponding link position (track always occupies either links 0 &amp; 1 or 2 &amp; 3)">
<polygon fill="white" stroke="black" points="161,-0.5 161,-30.5 313,-30.5 313,-0.5 161,-0.5"/>
<text text-anchor="start" x="169" y="-18.5" font-family="Helvetica,sans-Serif" font-size="10.00">TTrack::GetNonPointsOpposite</text>
<text text-anchor="middle" x="237" y="-7.5" font-family="Helvetica,sans-Serif" font-size="10.00">LinkPos</text>
</a>
</g>
</g>
<!-- Node1&#45;&gt;Node14 -->
<g id="edge33" class="edge">
<title>Node1&#45;&gt;Node14</title>
<path fill="none" stroke="midnightblue" d="M66.2,-213.92C74.92,-184.6 105.09,-95.04 161,-45.5 165.37,-41.63 170.3,-38.22 175.5,-35.23"/>
<polygon fill="midnightblue" stroke="midnightblue" points="177.18,-38.3 184.44,-30.58 173.96,-32.09 177.18,-38.3"/>
</g>
<!-- Node15 -->
<g id="node15" class="node">
<title>Node15</title>
<g id="a_node15"><a xlink:href="class_t_all_routes.html#a0a9ccbc84687f85806115877aa86dcfd" target="_top" xlink:title="Examines Route2MultiMap and if the element at TrackVectorPosition with LinkPos (can be entry or exit)...">
<polygon fill="white" stroke="black" points="493.5,-126.5 493.5,-156.5 625.5,-156.5 625.5,-126.5 493.5,-126.5"/>
<text text-anchor="start" x="501.5" y="-144.5" font-family="Helvetica,sans-Serif" font-size="10.00">TAllRoutes::GetRouteType</text>
<text text-anchor="middle" x="559.5" y="-133.5" font-family="Helvetica,sans-Serif" font-size="10.00">AndNumber</text>
</a>
</g>
</g>
<!-- Node1&#45;&gt;Node15 -->
<g id="edge34" class="edge">
<title>Node1&#45;&gt;Node15</title>
<path fill="none" stroke="midnightblue" d="M76.92,-213.99C95.04,-201.72 128.76,-180.86 161,-171.5 269.83,-139.89 402.07,-136.45 483.24,-138.07"/>
<polygon fill="midnightblue" stroke="midnightblue" points="483.29,-141.57 493.37,-138.3 483.45,-134.57 483.29,-141.57"/>
</g>
<!-- Node16 -->
<g id="node16" class="node">
<title>Node16</title>
<g id="a_node16"><a xlink:href="class_t_train.html#a7a54125a3a5052cb25e17014075a686b" target="_top" xlink:title="Returns the number by which the train ActionVectorEntryPtr needs to be incremented to point to the lo...">
<polygon fill="white" stroke="black" points="666,-808 666,-827 836,-827 836,-808 666,-808"/>
<text text-anchor="middle" x="751" y="-815" font-family="Helvetica,sans-Serif" font-size="10.00">TTrain::NameInTimetableBeforeCDT</text>
</a>
</g>
</g>
<!-- Node1&#45;&gt;Node16 -->
<g id="edge38" class="edge">
<title>Node1&#45;&gt;Node16</title>
<path fill="none" stroke="midnightblue" d="M64.67,-233.31C71.51,-289.3 107.88,-568.25 161,-633.5 282.28,-782.49 522.67,-813.03 655.78,-817.97"/>
<polygon fill="midnightblue" stroke="midnightblue" points="655.86,-821.47 665.97,-818.3 656.09,-814.47 655.86,-821.47"/>
</g>
<!-- Node17 -->
<g id="node17" class="node">
<title>Node17</title>
<g id="a_node17"><a xlink:href="class_t_all_routes.html#aace498b67ccef13364a1afa1f5f15311" target="_top" xlink:title="Examines Route2MultiMap and if the element at TrackVectorPosition with LinkPos (can be entry or exit)...">
<polygon fill="white" stroke="black" points="489,-214 489,-233 630,-233 630,-214 489,-214"/>
<text text-anchor="middle" x="559.5" y="-221" font-family="Helvetica,sans-Serif" font-size="10.00">TAllRoutes::TrackIsInARoute</text>
</a>
</g>
</g>
<!-- Node1&#45;&gt;Node17 -->
<g id="edge43" class="edge">
<title>Node1&#45;&gt;Node17</title>
<path fill="none" stroke="midnightblue" d="M125.19,-223.5C214.55,-223.5 380.07,-223.5 478.64,-223.5"/>
<polygon fill="midnightblue" stroke="midnightblue" points="478.85,-227 488.85,-223.5 478.85,-220 478.85,-227"/>
</g>
<!-- Node3&#45;&gt;Node2 -->
<g id="edge3" class="edge">
<title>Node3&#45;&gt;Node2</title>
<path fill="none" stroke="midnightblue" d="M258.97,-624.58C339.5,-680.49 634.43,-866.75 836,-748.5 888.84,-717.5 912.96,-642.93 921.78,-607.22"/>
<polygon fill="midnightblue" stroke="midnightblue" points="925.28,-607.62 924.13,-597.09 918.46,-606.04 925.28,-607.62"/>
</g>
<!-- Node4 -->
<g id="node4" class="node">
<title>Node4</title>
<g id="a_node4"><a xlink:href="class_t_one_pref_dir.html#a5b67e5aaa86d324229aedc68f32f32b8" target="_top" xlink:title="Return a non&#45;modifiable element at PrefDirVector position &#39;At&#39;.">
<polygon fill="white" stroke="black" points="685,-682.5 685,-712.5 817,-712.5 817,-682.5 685,-682.5"/>
<text text-anchor="start" x="693" y="-700.5" font-family="Helvetica,sans-Serif" font-size="10.00">TOnePrefDir::GetFixedPref</text>
<text text-anchor="middle" x="751" y="-689.5" font-family="Helvetica,sans-Serif" font-size="10.00">DirElementAt</text>
</a>
</g>
</g>
<!-- Node3&#45;&gt;Node4 -->
<g id="edge4" class="edge">
<title>Node3&#45;&gt;Node4</title>
<path fill="none" stroke="midnightblue" d="M282.96,-624.57C302.99,-630.84 326.99,-637.75 349,-642.5 461.31,-666.75 593.74,-682.46 674.77,-690.65"/>
<polygon fill="midnightblue" stroke="midnightblue" points="674.58,-694.14 684.88,-691.65 675.28,-687.18 674.58,-694.14"/>
</g>
<!-- Node3&#45;&gt;Node5 -->
<g id="edge13" class="edge">
<title>Node3&#45;&gt;Node5</title>
<path fill="none" stroke="midnightblue" d="M240.1,-594.04C250.67,-523.27 304.92,-228.78 489,-116.5 534.19,-88.93 828.14,-131.37 836,-137.5 909.57,-194.85 923.05,-317.92 925.48,-365.84"/>
<polygon fill="midnightblue" stroke="midnightblue" points="921.98,-365.99 925.88,-375.84 928.98,-365.71 921.98,-365.99"/>
</g>
<!-- Node6 -->
<g id="node6" class="node">
<title>Node6</title>
<g id="a_node6"><a xlink:href="class_t_all_routes.html#a7d9f820738af6314f2b9a4a1f52bb64a" target="_top" xlink:title="Returns a constant reference to the route at AllRoutesVector position &#39;At&#39;, after performing range ch...">
<polygon fill="white" stroke="black" points="678.5,-644 678.5,-663 823.5,-663 823.5,-644 678.5,-644"/>
<text text-anchor="middle" x="751" y="-651" font-family="Helvetica,sans-Serif" font-size="10.00">TAllRoutes::GetFixedRouteAt</text>
</a>
</g>
</g>
<!-- Node3&#45;&gt;Node6 -->
<g id="edge7" class="edge">
<title>Node3&#45;&gt;Node6</title>
<path fill="none" stroke="midnightblue" d="M305.74,-618.6C320.01,-620.36 334.99,-622.09 349,-623.5 459.25,-634.57 586.92,-643.44 668.04,-648.59"/>
<polygon fill="midnightblue" stroke="midnightblue" points="667.99,-652.09 678.19,-649.23 668.43,-645.11 667.99,-652.09"/>
</g>
<!-- Node7 -->
<g id="node7" class="node">
<title>Node7</title>
<g id="a_node7"><a xlink:href="class_t_all_routes.html#a7eda7a4b535c7538e217bbbc4d878071" target="_top" xlink:title="Retrieve up to two TRouteElementPair entries from Route2MultiMap at H &amp; V, the first as a function re...">
<polygon fill="white" stroke="black" points="677.5,-594.5 677.5,-624.5 824.5,-624.5 824.5,-594.5 677.5,-594.5"/>
<text text-anchor="start" x="685.5" y="-612.5" font-family="Helvetica,sans-Serif" font-size="10.00">TAllRoutes::GetRouteElement</text>
<text text-anchor="middle" x="751" y="-601.5" font-family="Helvetica,sans-Serif" font-size="10.00">DataFromRoute2MultiMap</text>
</a>
</g>
</g>
<!-- Node3&#45;&gt;Node7 -->
<g id="edge10" class="edge">
<title>Node3&#45;&gt;Node7</title>
<path fill="none" stroke="midnightblue" d="M305.73,-609.5C398.87,-609.5 566.39,-609.5 666.97,-609.5"/>
<polygon fill="midnightblue" stroke="midnightblue" points="667.09,-613 677.09,-609.5 667.09,-606 667.09,-613"/>
</g>
<!-- Node8 -->
<g id="node8" class="node">
<title>Node8</title>
<g id="a_node8"><a xlink:href="class_t_track.html#a12d4069a6a201e13a83347c555a465b2" target="_top" xlink:title="New at v1.2.0; checks whether a train present at input location and link and returns its ID if so.">
<polygon fill="white" stroke="black" points="349,-398 349,-417 453,-417 453,-398 349,-398"/>
<text text-anchor="middle" x="401" y="-405" font-family="Helvetica,sans-Serif" font-size="10.00">TTrack::TrainOnLink</text>
</a>
</g>
</g>
<!-- Node3&#45;&gt;Node8 -->
<g id="edge14" class="edge">
<title>Node3&#45;&gt;Node8</title>
<path fill="none" stroke="midnightblue" d="M250.18,-594.32C279.59,-557.64 354.41,-464.35 385.8,-425.21"/>
<polygon fill="midnightblue" stroke="midnightblue" points="388.61,-427.3 392.14,-417.3 383.15,-422.92 388.61,-427.3"/>
</g>
<!-- Node4&#45;&gt;Node2 -->
<g id="edge5" class="edge">
<title>Node4&#45;&gt;Node2</title>
<path fill="none" stroke="midnightblue" d="M814.84,-682.37C822.19,-679.57 829.41,-676.3 836,-672.5 866.98,-654.64 895.7,-624.09 912.02,-604.89"/>
<polygon fill="midnightblue" stroke="midnightblue" points="914.72,-607.12 918.42,-597.19 909.34,-602.65 914.72,-607.12"/>
</g>
<!-- Node4&#45;&gt;Node5 -->
<g id="edge6" class="edge">
<title>Node4&#45;&gt;Node5</title>
<path fill="none" stroke="midnightblue" d="M817.11,-685.36C824.08,-682.05 830.58,-677.84 836,-672.5 841,-667.57 901.11,-468.38 920.21,-404.8"/>
<polygon fill="midnightblue" stroke="midnightblue" points="923.58,-405.77 923.1,-395.19 916.87,-403.76 923.58,-405.77"/>
</g>
<!-- Node6&#45;&gt;Node2 -->
<g id="edge8" class="edge">
<title>Node6&#45;&gt;Node2</title>
<path fill="none" stroke="midnightblue" d="M801,-643.91C812.63,-641.07 824.89,-637.6 836,-633.5 858.92,-625.05 883.53,-612.19 901.21,-602.21"/>
<polygon fill="midnightblue" stroke="midnightblue" points="903.34,-605.02 910.27,-597.01 899.85,-598.95 903.34,-605.02"/>
</g>
<!-- Node6&#45;&gt;Node5 -->
<g id="edge9" class="edge">
<title>Node6&#45;&gt;Node5</title>
<path fill="none" stroke="midnightblue" d="M819.69,-643.91C825.62,-641.2 831.19,-637.79 836,-633.5 853.99,-617.46 903.23,-460.17 920.18,-404.72"/>
<polygon fill="midnightblue" stroke="midnightblue" points="923.56,-405.65 923.12,-395.06 916.86,-403.61 923.56,-405.65"/>
</g>
<!-- Node7&#45;&gt;Node2 -->
<g id="edge11" class="edge">
<title>Node7&#45;&gt;Node2</title>
<path fill="none" stroke="midnightblue" d="M824.53,-600.33C836.92,-598.76 849.7,-597.15 861.85,-595.61"/>
<polygon fill="midnightblue" stroke="midnightblue" points="862.4,-599.07 871.88,-594.34 861.52,-592.12 862.4,-599.07"/>
</g>
<!-- Node7&#45;&gt;Node5 -->
<g id="edge12" class="edge">
<title>Node7&#45;&gt;Node5</title>
<path fill="none" stroke="midnightblue" d="M777.38,-594.5C795.32,-583 819.08,-565.85 836,-546.5 875.39,-501.45 905.23,-436.38 918.47,-404.52"/>
<polygon fill="midnightblue" stroke="midnightblue" points="921.79,-405.65 922.32,-395.07 915.31,-403.01 921.79,-405.65"/>
</g>
<!-- Node8&#45;&gt;Node2 -->
<g id="edge15" class="edge">
<title>Node8&#45;&gt;Node2</title>
<path fill="none" stroke="midnightblue" d="M406.29,-417.22C426.88,-462.56 520.73,-653.85 666,-721.5 734.49,-753.4 769.32,-757.04 836,-721.5 881.79,-697.09 908.43,-637.89 919.66,-606.99"/>
<polygon fill="midnightblue" stroke="midnightblue" points="923.03,-607.94 923,-597.35 916.42,-605.66 923.03,-607.94"/>
</g>
<!-- Node8&#45;&gt;Node5 -->
<g id="edge25" class="edge">
<title>Node8&#45;&gt;Node5</title>
<path fill="none" stroke="midnightblue" d="M411.61,-397.85C426.6,-383.57 457.12,-357.43 489,-347.5 631.48,-303.13 811.88,-348.95 888.67,-372.89"/>
<polygon fill="midnightblue" stroke="midnightblue" points="887.78,-376.28 898.37,-375.97 889.9,-369.6 887.78,-376.28"/>
</g>
<!-- Node9 -->
<g id="node9" class="node">
<title>Node9</title>
<g id="a_node9"><a xlink:href="class_t_track.html#aa0812972d1ae27198c5fbca8aa7b6134" target="_top" xlink:title="Returns the track vector position corresponding to the Hloc &amp; VLoc positions, FoundFlag indicates whe...">
<polygon fill="white" stroke="black" points="685.5,-392.5 685.5,-422.5 816.5,-422.5 816.5,-392.5 685.5,-392.5"/>
<text text-anchor="start" x="693.5" y="-410.5" font-family="Helvetica,sans-Serif" font-size="10.00">TTrack::GetVectorPosition</text>
<text text-anchor="middle" x="751" y="-399.5" font-family="Helvetica,sans-Serif" font-size="10.00">FromTrackMap</text>
</a>
</g>
</g>
<!-- Node8&#45;&gt;Node9 -->
<g id="edge16" class="edge">
<title>Node8&#45;&gt;Node9</title>
<path fill="none" stroke="midnightblue" d="M453.35,-407.5C511.97,-407.5 608.4,-407.5 675.33,-407.5"/>
<polygon fill="midnightblue" stroke="midnightblue" points="675.4,-411 685.4,-407.5 675.4,-404 675.4,-411"/>
</g>
<!-- Node10 -->
<g id="node10" class="node">
<title>Node10</title>
<g id="a_node10"><a xlink:href="class_t_train.html#aef32cd9a007874ab09ceeac907e7c88b" target="_top" xlink:title="Added at v1.2.0: true if any part of train on specific link, false otherwise, including no link prese...">
<polygon fill="white" stroke="black" points="505.5,-357 505.5,-376 613.5,-376 613.5,-357 505.5,-357"/>
<text text-anchor="middle" x="559.5" y="-364" font-family="Helvetica,sans-Serif" font-size="10.00">TTrain::LinkOccupied</text>
</a>
</g>
</g>
<!-- Node8&#45;&gt;Node10 -->
<g id="edge19" class="edge">
<title>Node8&#45;&gt;Node10</title>
<path fill="none" stroke="midnightblue" d="M438.3,-397.99C460.34,-392.22 488.69,-384.79 512.32,-378.6"/>
<polygon fill="midnightblue" stroke="midnightblue" points="513.34,-381.95 522.13,-376.03 511.57,-375.18 513.34,-381.95"/>
</g>
<!-- Node8&#45;&gt;Node11 -->
<g id="edge26" class="edge">
<title>Node8&#45;&gt;Node11</title>
<path fill="none" stroke="midnightblue" d="M405.69,-397.84C415.31,-374.13 443.6,-312.98 489,-285.5 546.56,-250.67 624.15,-243.98 679.74,-244.59"/>
<polygon fill="midnightblue" stroke="midnightblue" points="679.79,-248.09 689.85,-244.78 679.92,-241.09 679.79,-248.09"/>
</g>
<!-- Node8&#45;&gt;Node12 -->
<g id="edge27" class="edge">
<title>Node8&#45;&gt;Node12</title>
<path fill="none" stroke="midnightblue" d="M435.96,-417.05C453.26,-421.91 474.88,-427.99 495.12,-433.68"/>
<polygon fill="midnightblue" stroke="midnightblue" points="494.34,-437.1 504.92,-436.43 496.24,-430.36 494.34,-437.1"/>
</g>
<!-- Node9&#45;&gt;Node2 -->
<g id="edge17" class="edge">
<title>Node9&#45;&gt;Node2</title>
<path fill="none" stroke="midnightblue" d="M773.06,-422.57C790.71,-435.64 816.13,-455.56 836,-475.5 866.48,-506.09 896.9,-546.54 913.4,-569.51"/>
<polygon fill="midnightblue" stroke="midnightblue" points="910.74,-571.82 919.39,-577.94 916.45,-567.76 910.74,-571.82"/>
</g>
<!-- Node9&#45;&gt;Node5 -->
<g id="edge18" class="edge">
<title>Node9&#45;&gt;Node5</title>
<path fill="none" stroke="midnightblue" d="M816.79,-399.31C831.55,-397.44 847.22,-395.46 861.95,-393.6"/>
<polygon fill="midnightblue" stroke="midnightblue" points="862.49,-397.06 871.97,-392.33 861.61,-390.11 862.49,-397.06"/>
</g>
<!-- Node10&#45;&gt;Node2 -->
<g id="edge20" class="edge">
<title>Node10&#45;&gt;Node2</title>
<path fill="none" stroke="midnightblue" d="M574.83,-376.14C594.82,-389.39 632.38,-413.62 666,-431.5 739.23,-470.44 766.3,-463.54 836,-508.5 864.33,-526.77 892.88,-553.6 910.01,-570.8"/>
<polygon fill="midnightblue" stroke="midnightblue" points="907.53,-573.28 917.03,-577.97 912.53,-568.38 907.53,-573.28"/>
</g>
<!-- Node10&#45;&gt;Node5 -->
<g id="edge21" class="edge">
<title>Node10&#45;&gt;Node5</title>
<path fill="none" stroke="midnightblue" d="M613.65,-369.26C679.41,-372.68 791.31,-378.5 861.8,-382.16"/>
<polygon fill="midnightblue" stroke="midnightblue" points="861.73,-385.66 871.89,-382.69 862.09,-378.67 861.73,-385.66"/>
</g>
<!-- Node10&#45;&gt;Node11 -->
<g id="edge22" class="edge">
<title>Node10&#45;&gt;Node11</title>
<path fill="none" stroke="midnightblue" d="M576.01,-356.93C608.99,-336.56 686.29,-288.83 725.81,-264.44"/>
<polygon fill="midnightblue" stroke="midnightblue" points="727.87,-267.27 734.54,-259.04 724.2,-261.32 727.87,-267.27"/>
</g>
<!-- Node11&#45;&gt;Node2 -->
<g id="edge23" class="edge">
<title>Node11&#45;&gt;Node2</title>
<path fill="none" stroke="midnightblue" d="M771.06,-259C790.1,-269.41 818.92,-287.84 836,-311.5 851.65,-333.19 903.25,-508.75 920.4,-568.03"/>
<polygon fill="midnightblue" stroke="midnightblue" points="917.13,-569.33 923.27,-577.97 923.86,-567.39 917.13,-569.33"/>
</g>
<!-- Node11&#45;&gt;Node5 -->
<g id="edge24" class="edge">
<title>Node11&#45;&gt;Node5</title>
<path fill="none" stroke="midnightblue" d="M804.38,-259.09C815.39,-262.54 826.52,-267.21 836,-273.5 872.69,-297.86 901.58,-341.89 915.98,-366.88"/>
<polygon fill="midnightblue" stroke="midnightblue" points="912.99,-368.71 920.93,-375.73 919.1,-365.29 912.99,-368.71"/>
</g>
<!-- Node12&#45;&gt;Node2 -->
<g id="edge28" class="edge">
<title>Node12&#45;&gt;Node2</title>
<path fill="none" stroke="midnightblue" d="M572.28,-466.6C590.06,-488.2 625.95,-527.41 666,-546.5 699.67,-562.55 796.15,-574.8 861.62,-581.58"/>
<polygon fill="midnightblue" stroke="midnightblue" points="861.55,-585.09 871.85,-582.62 862.25,-578.12 861.55,-585.09"/>
</g>
<!-- Node12&#45;&gt;Node5 -->
<g id="edge29" class="edge">
<title>Node12&#45;&gt;Node5</title>
<path fill="none" stroke="midnightblue" d="M629.73,-454.02C686.24,-454.3 767.64,-450.6 836,-431.5 860.1,-424.77 885.27,-411.26 902.85,-400.62"/>
<polygon fill="midnightblue" stroke="midnightblue" points="905.14,-403.32 911.78,-395.06 901.44,-397.38 905.14,-403.32"/>
</g>
<!-- Node13 -->
<g id="node13" class="node">
<title>Node13</title>
<g id="a_node13"><a xlink:href="class_t_train_controller.html#aa09adf9c442406cccc270d6703867a1d" target="_top" xlink:title="Return a reference to the train at position VecPos in the TrainVector, carries out range checking on ...">
<polygon fill="white" stroke="black" points="676.5,-518 676.5,-537 825.5,-537 825.5,-518 676.5,-518"/>
<text text-anchor="middle" x="751" y="-525" font-family="Helvetica,sans-Serif" font-size="10.00">TTrainController::TrainVectorAt</text>
</a>
</g>
</g>
<!-- Node12&#45;&gt;Node13 -->
<g id="edge30" class="edge">
<title>Node12&#45;&gt;Node13</title>
<path fill="none" stroke="midnightblue" d="M587.66,-466.57C608.61,-477.79 638.57,-492.92 666,-503.5 677.28,-507.85 689.67,-511.82 701.4,-515.22"/>
<polygon fill="midnightblue" stroke="midnightblue" points="700.47,-518.59 711.05,-517.94 702.37,-511.86 700.47,-518.59"/>
</g>
<!-- Node13&#45;&gt;Node2 -->
<g id="edge31" class="edge">
<title>Node13&#45;&gt;Node2</title>
<path fill="none" stroke="midnightblue" d="M788.64,-537.09C803.45,-541.2 820.64,-546.25 836,-551.5 855.7,-558.23 877.38,-566.87 894.52,-573.99"/>
<polygon fill="midnightblue" stroke="midnightblue" points="893.47,-577.34 904.04,-577.99 896.18,-570.89 893.47,-577.34"/>
</g>
<!-- Node13&#45;&gt;Node5 -->
<g id="edge32" class="edge">
<title>Node13&#45;&gt;Node5</title>
<path fill="none" stroke="midnightblue" d="M765.67,-517.99C782.53,-506.13 811.92,-485.02 836,-465.5 861.91,-444.49 890.49,-418.59 908.34,-402.06"/>
<polygon fill="midnightblue" stroke="midnightblue" points="910.8,-404.55 915.74,-395.18 906.03,-399.43 910.8,-404.55"/>
</g>
<!-- Node15&#45;&gt;Node2 -->
<g id="edge35" class="edge">
<title>Node15&#45;&gt;Node2</title>
<path fill="none" stroke="midnightblue" d="M595.79,-156.67C616.12,-165.12 642.27,-175.52 666,-183.5 740.3,-208.48 782.42,-173.28 836,-230.5 889.98,-288.15 852.81,-327.9 872,-404.5 887.04,-464.55 908.9,-534.44 919.61,-567.81"/>
<polygon fill="midnightblue" stroke="midnightblue" points="916.38,-569.22 922.78,-577.66 923.04,-567.07 916.38,-569.22"/>
</g>
<!-- Node15&#45;&gt;Node5 -->
<g id="edge36" class="edge">
<title>Node15&#45;&gt;Node5</title>
<path fill="none" stroke="midnightblue" d="M625.71,-139.01C686.22,-140.05 775.77,-150.52 836,-197.5 891.57,-240.85 914.68,-327.06 922.56,-365.82"/>
<polygon fill="midnightblue" stroke="midnightblue" points="919.15,-366.66 924.46,-375.83 926.03,-365.35 919.15,-366.66"/>
</g>
<!-- Node15&#45;&gt;Node11 -->
<g id="edge37" class="edge">
<title>Node15&#45;&gt;Node11</title>
<path fill="none" stroke="midnightblue" d="M606.06,-156.67C614.54,-160.69 622.94,-165.61 630,-171.5 652.15,-189.97 642.7,-208.49 666,-225.5 671.98,-229.86 678.73,-233.44 685.75,-236.36"/>
<polygon fill="midnightblue" stroke="midnightblue" points="684.83,-239.76 695.43,-239.96 687.27,-233.2 684.83,-239.76"/>
</g>
<!-- Node16&#45;&gt;Node2 -->
<g id="edge39" class="edge">
<title>Node16&#45;&gt;Node2</title>
<path fill="none" stroke="midnightblue" d="M810.98,-807.87C820.07,-804.44 828.81,-799.79 836,-793.5 893.73,-743.01 915.87,-648.64 923.03,-607.51"/>
<polygon fill="midnightblue" stroke="midnightblue" points="926.53,-607.84 924.67,-597.41 919.62,-606.72 926.53,-607.84"/>
</g>
<!-- Node16&#45;&gt;Node5 -->
<g id="edge40" class="edge">
<title>Node16&#45;&gt;Node5</title>
<path fill="none" stroke="midnightblue" d="M763.48,-807.85C781.74,-791.84 817.26,-757.94 836,-721.5 867.95,-659.38 854.11,-636.03 872,-568.5 887.86,-508.66 909.34,-438.67 919.78,-405.23"/>
<polygon fill="midnightblue" stroke="midnightblue" points="923.23,-405.95 922.88,-395.36 916.55,-403.86 923.23,-405.95"/>
</g>
<!-- Node17&#45;&gt;Node2 -->
<g id="edge44" class="edge">
<title>Node17&#45;&gt;Node2</title>
<path fill="none" stroke="midnightblue" d="M580.65,-233.07C637.47,-260.36 797.4,-339.41 836,-382.5 886.62,-439.01 912.37,-528.52 921.75,-567.86"/>
<polygon fill="midnightblue" stroke="midnightblue" points="918.37,-568.79 924.01,-577.76 925.19,-567.23 918.37,-568.79"/>
</g>
<!-- Node17&#45;&gt;Node5 -->
<g id="edge45" class="edge">
<title>Node17&#45;&gt;Node5</title>
<path fill="none" stroke="midnightblue" d="M596.56,-213.99C652.26,-201.46 760.68,-185.85 836,-230.5 886.96,-260.71 911.9,-331.72 921.34,-366.13"/>
<polygon fill="midnightblue" stroke="midnightblue" points="917.98,-367.11 923.87,-375.92 924.75,-365.36 917.98,-367.11"/>
</g>
<!-- Node17&#45;&gt;Node11 -->
<g id="edge46" class="edge">
<title>Node17&#45;&gt;Node11</title>
<path fill="none" stroke="midnightblue" d="M629.99,-233.03C646.26,-235.27 663.6,-237.65 679.9,-239.88"/>
<polygon fill="midnightblue" stroke="midnightblue" points="679.51,-243.36 689.89,-241.25 680.46,-236.43 679.51,-243.36"/>
</g>
</g>
</svg>
