<?xml version="1.0" encoding="UTF-8" standalone="no"?>
<!DOCTYPE svg PUBLIC "-//W3C//DTD SVG 1.1//EN"
 "http://www.w3.org/Graphics/SVG/1.1/DTD/svg11.dtd">
<!-- Generated by graphviz version 2.44.1 (20200629.0800)
 -->
<!-- Title: TTrainController::CalcDistanceToRedSignalandStopTime Pages: 1 -->
<svg width="696pt" height="386pt"
 viewBox="0.00 0.00 696.00 386.05" xmlns="http://www.w3.org/2000/svg" xmlns:xlink="http://www.w3.org/1999/xlink">
<g id="graph0" class="graph" transform="scale(1 1) rotate(0) translate(4 382.05)">
<title>TTrainController::CalcDistanceToRedSignalandStopTime</title>
<polygon fill="white" stroke="transparent" points="-4,4 -4,-382.05 692,-382.05 692,4 -4,4"/>
<!-- Node1 -->
<g id="node1" class="node">
<title>Node1</title>
<g id="a_node1"><a xlink:title="new v2.2.0 (DistanceToExit added for multiplayer), calcs distances to red signal &amp; exit,...">
<polygon fill="#bfbfbf" stroke="black" points="0,-192 0,-222 148,-222 148,-192 0,-192"/>
<text text-anchor="start" x="8" y="-210" font-family="Helvetica,sans-Serif" font-size="10.00">TTrainController::CalcDistance</text>
<text text-anchor="middle" x="74" y="-199" font-family="Helvetica,sans-Serif" font-size="10.00">ToRedSignalandStopTime</text>
</a>
</g>
</g>
<!-- Node2 -->
<g id="node2" class="node">
<title>Node2</title>
<g id="a_node2"><a xlink:href="class_t_utilities.html#ae1eddca13cc3c492839e131f40ec21c0" target="_top" xlink:title="&lt; specifies whether no delays or minor, moderate or major random delays are to be applied">
<polygon fill="white" stroke="black" points="578,-297.5 578,-316.5 688,-316.5 688,-297.5 578,-297.5"/>
<text text-anchor="middle" x="633" y="-304.5" font-family="Helvetica,sans-Serif" font-size="10.00">TUtilities::CallLogPop</text>
</a>
</g>
</g>
<!-- Node1&#45;&gt;Node2 -->
<g id="edge1" class="edge">
<title>Node1&#45;&gt;Node2</title>
<path fill="none" stroke="midnightblue" d="M84.67,-222.29C101.56,-247.66 138.96,-298.19 184,-324 258.29,-366.56 286.9,-356.61 372,-366 447.1,-374.29 469.6,-387.62 542,-366 569.75,-357.72 596.88,-337.84 613.98,-323.44"/>
<polygon fill="midnightblue" stroke="midnightblue" points="616.71,-325.71 621.95,-316.5 612.11,-320.42 616.71,-325.71"/>
</g>
<!-- Node3 -->
<g id="node3" class="node">
<title>Node3</title>
<g id="a_node3"><a xlink:href="class_t_track.html#aeb515d40cb9b08ed55ce877ffdbc51a5" target="_top" xlink:title="Return the corresponding link position (track always occupies either links 0 &amp; 1 or 2 &amp; 3)">
<polygon fill="white" stroke="black" points="184,-39 184,-69 336,-69 336,-39 184,-39"/>
<text text-anchor="start" x="192" y="-57" font-family="Helvetica,sans-Serif" font-size="10.00">TTrack::GetNonPointsOpposite</text>
<text text-anchor="middle" x="260" y="-46" font-family="Helvetica,sans-Serif" font-size="10.00">LinkPos</text>
</a>
</g>
</g>
<!-- Node1&#45;&gt;Node3 -->
<g id="edge2" class="edge">
<title>Node1&#45;&gt;Node3</title>
<path fill="none" stroke="midnightblue" d="M84.98,-191.7C102.32,-166.18 140.36,-114.7 184,-84 189.63,-80.04 195.85,-76.5 202.23,-73.36"/>
<polygon fill="midnightblue" stroke="midnightblue" points="204.02,-76.39 211.65,-69.04 201.1,-70.03 204.02,-76.39"/>
</g>
<!-- Node4 -->
<g id="node4" class="node">
<title>Node4</title>
<g id="a_node4"><a xlink:href="class_t_all_routes.html#a0a9ccbc84687f85806115877aa86dcfd" target="_top" xlink:title="Examines Route2MultiMap and if the element at TrackVectorPosition with LinkPos (can be entry or exit)...">
<polygon fill="white" stroke="black" points="194,-255 194,-285 326,-285 326,-255 194,-255"/>
<text text-anchor="start" x="202" y="-273" font-family="Helvetica,sans-Serif" font-size="10.00">TAllRoutes::GetRouteType</text>
<text text-anchor="middle" x="260" y="-262" font-family="Helvetica,sans-Serif" font-size="10.00">AndNumber</text>
</a>
</g>
</g>
<!-- Node1&#45;&gt;Node4 -->
<g id="edge3" class="edge">
<title>Node1&#45;&gt;Node4</title>
<path fill="none" stroke="midnightblue" d="M119.07,-222.09C144.92,-230.94 177.78,-242.19 205.15,-251.56"/>
<polygon fill="midnightblue" stroke="midnightblue" points="204.37,-255 214.97,-254.92 206.64,-248.37 204.37,-255"/>
</g>
<!-- Node5 -->
<g id="node5" class="node">
<title>Node5</title>
<g id="a_node5"><a xlink:href="class_t_utilities.html#a34bd6bb5305bc29afdf424f6d35a921c" target="_top" xlink:title="creates a string of the form &#39;hh:mm:ss&#39; for use in call &amp; event logging">
<polygon fill="white" stroke="black" points="578,-202.5 578,-221.5 688,-221.5 688,-202.5 578,-202.5"/>
<text text-anchor="middle" x="633" y="-209.5" font-family="Helvetica,sans-Serif" font-size="10.00">TUtilities::TimeStamp</text>
</a>
</g>
</g>
<!-- Node1&#45;&gt;Node5 -->
<g id="edge13" class="edge">
<title>Node1&#45;&gt;Node5</title>
<path fill="none" stroke="midnightblue" d="M96.79,-192C117.99,-178.29 151.67,-158.86 184,-150 337.51,-107.93 391.8,-87.31 542,-140 572.67,-150.76 600.65,-176.85 617.01,-194.48"/>
<polygon fill="midnightblue" stroke="midnightblue" points="614.79,-197.25 624.07,-202.36 620,-192.58 614.79,-197.25"/>
</g>
<!-- Node6 -->
<g id="node6" class="node">
<title>Node6</title>
<g id="a_node6"><a xlink:href="class_t_track.html#ad377e5a1f152f2e89832c0f9bcfd261f" target="_top" xlink:title="A range&#45;checked version of TrackVector.at(At)">
<polygon fill="white" stroke="black" points="396,-278.5 396,-297.5 518,-297.5 518,-278.5 396,-278.5"/>
<text text-anchor="middle" x="457" y="-285.5" font-family="Helvetica,sans-Serif" font-size="10.00">TTrack::TrackElementAt</text>
</a>
</g>
</g>
<!-- Node1&#45;&gt;Node6 -->
<g id="edge14" class="edge">
<title>Node1&#45;&gt;Node6</title>
<path fill="none" stroke="midnightblue" d="M148,-214.18C200.74,-220.27 273.4,-230.52 336,-246 366.18,-253.47 399.49,-265.43 423.34,-274.69"/>
<polygon fill="midnightblue" stroke="midnightblue" points="422.35,-278.06 432.94,-278.47 424.92,-271.55 422.35,-278.06"/>
</g>
<!-- Node7 -->
<g id="node7" class="node">
<title>Node7</title>
<g id="a_node7"><a xlink:href="class_t_train.html#a7a54125a3a5052cb25e17014075a686b" target="_top" xlink:title="Returns the number by which the train ActionVectorEntryPtr needs to be incremented to point to the lo...">
<polygon fill="white" stroke="black" points="372,-316.5 372,-335.5 542,-335.5 542,-316.5 372,-316.5"/>
<text text-anchor="middle" x="457" y="-323.5" font-family="Helvetica,sans-Serif" font-size="10.00">TTrain::NameInTimetableBeforeCDT</text>
</a>
</g>
</g>
<!-- Node1&#45;&gt;Node7 -->
<g id="edge9" class="edge">
<title>Node1&#45;&gt;Node7</title>
<path fill="none" stroke="midnightblue" d="M88.39,-222.22C107.38,-242.68 144.29,-278.38 184,-295 239.91,-318.4 307.62,-326.18 361.5,-328.09"/>
<polygon fill="midnightblue" stroke="midnightblue" points="361.63,-331.6 371.73,-328.39 361.84,-324.6 361.63,-331.6"/>
</g>
<!-- Node8 -->
<g id="node8" class="node">
<title>Node8</title>
<g id="a_node8"><a xlink:href="class_t_train.html#a77e1368fb80820dd2c3350858c28ceab" target="_top" xlink:title=" ">
<polygon fill="white" stroke="black" points="188,-0.5 188,-19.5 332,-19.5 332,-0.5 188,-0.5"/>
<text text-anchor="middle" x="260" y="-7.5" font-family="Helvetica,sans-Serif" font-size="10.00">TTrain::RevisedStoppedAtLoc</text>
</a>
</g>
</g>
<!-- Node1&#45;&gt;Node8 -->
<g id="edge12" class="edge">
<title>Node1&#45;&gt;Node8</title>
<path fill="none" stroke="midnightblue" d="M79.81,-191.86C91.6,-157.29 125.35,-72.19 184,-29 186.65,-27.05 189.48,-25.3 192.43,-23.72"/>
<polygon fill="midnightblue" stroke="midnightblue" points="193.96,-26.87 201.59,-19.52 191.04,-20.51 193.96,-26.87"/>
</g>
<!-- Node9 -->
<g id="node9" class="node">
<title>Node9</title>
<g id="a_node9"><a xlink:href="class_t_train_controller.html#a4d5de42d6e9e92191241963599581210" target="_top" xlink:title="Return a reference to the train with ID TrainID, carries out validity checking on TrainID.">
<polygon fill="white" stroke="black" points="190,-160 190,-190 330,-190 330,-160 190,-160"/>
<text text-anchor="start" x="198" y="-178" font-family="Helvetica,sans-Serif" font-size="10.00">TTrainController::TrainVector</text>
<text text-anchor="middle" x="260" y="-167" font-family="Helvetica,sans-Serif" font-size="10.00">AtIdent</text>
</a>
</g>
</g>
<!-- Node1&#45;&gt;Node9 -->
<g id="edge15" class="edge">
<title>Node1&#45;&gt;Node9</title>
<path fill="none" stroke="midnightblue" d="M148.25,-194.26C158.66,-192.45 169.39,-190.58 179.9,-188.76"/>
<polygon fill="midnightblue" stroke="midnightblue" points="180.64,-192.18 189.89,-187.02 179.44,-185.28 180.64,-192.18"/>
</g>
<!-- Node4&#45;&gt;Node2 -->
<g id="edge4" class="edge">
<title>Node4&#45;&gt;Node2</title>
<path fill="none" stroke="midnightblue" d="M276.66,-285.14C296.79,-303.46 333.75,-333.29 372,-345 444.25,-367.12 467.95,-359.99 542,-345 564.58,-340.43 588.54,-330.01 606.06,-321.23"/>
<polygon fill="midnightblue" stroke="midnightblue" points="607.79,-324.28 615.07,-316.58 604.58,-318.06 607.79,-324.28"/>
</g>
<!-- Node4&#45;&gt;Node5 -->
<g id="edge5" class="edge">
<title>Node4&#45;&gt;Node5</title>
<path fill="none" stroke="midnightblue" d="M326.05,-259.83C394.05,-249.2 500.09,-232.62 567.78,-222.04"/>
<polygon fill="midnightblue" stroke="midnightblue" points="568.55,-225.46 577.89,-220.46 567.47,-218.55 568.55,-225.46"/>
</g>
<!-- Node4&#45;&gt;Node6 -->
<g id="edge6" class="edge">
<title>Node4&#45;&gt;Node6</title>
<path fill="none" stroke="midnightblue" d="M326.2,-276.02C345.34,-277.79 366.35,-279.73 385.79,-281.52"/>
<polygon fill="midnightblue" stroke="midnightblue" points="385.52,-285.01 395.79,-282.44 386.16,-278.04 385.52,-285.01"/>
</g>
<!-- Node6&#45;&gt;Node2 -->
<g id="edge7" class="edge">
<title>Node6&#45;&gt;Node2</title>
<path fill="none" stroke="midnightblue" d="M518.37,-294.59C534.23,-296.32 551.4,-298.2 567.47,-299.95"/>
<polygon fill="midnightblue" stroke="midnightblue" points="567.53,-303.48 577.85,-301.09 568.29,-296.52 567.53,-303.48"/>
</g>
<!-- Node6&#45;&gt;Node5 -->
<g id="edge8" class="edge">
<title>Node6&#45;&gt;Node5</title>
<path fill="none" stroke="midnightblue" d="M498.86,-278.49C512.8,-274.68 528.32,-269.8 542,-264 566.05,-253.8 591.68,-238.51 609.41,-227.14"/>
<polygon fill="midnightblue" stroke="midnightblue" points="611.45,-230 617.92,-221.61 607.63,-224.13 611.45,-230"/>
</g>
<!-- Node7&#45;&gt;Node2 -->
<g id="edge10" class="edge">
<title>Node7&#45;&gt;Node2</title>
<path fill="none" stroke="midnightblue" d="M542.2,-316.81C550.83,-315.86 559.5,-314.92 567.87,-314"/>
<polygon fill="midnightblue" stroke="midnightblue" points="568.34,-317.47 577.9,-312.91 567.58,-310.51 568.34,-317.47"/>
</g>
<!-- Node7&#45;&gt;Node5 -->
<g id="edge11" class="edge">
<title>Node7&#45;&gt;Node5</title>
<path fill="none" stroke="midnightblue" d="M520.14,-316.36C527.77,-313.91 535.24,-310.85 542,-307 575.86,-287.73 604.75,-251.64 620.12,-229.92"/>
<polygon fill="midnightblue" stroke="midnightblue" points="623.08,-231.8 625.86,-221.58 617.31,-227.83 623.08,-231.8"/>
</g>
<!-- Node9&#45;&gt;Node2 -->
<g id="edge16" class="edge">
<title>Node9&#45;&gt;Node2</title>
<path fill="none" stroke="midnightblue" d="M309.63,-190.02C365.97,-207.71 461.39,-238.55 542,-269 561.9,-276.52 583.89,-285.78 601.16,-293.29"/>
<polygon fill="midnightblue" stroke="midnightblue" points="600.16,-296.67 610.73,-297.47 602.97,-290.26 600.16,-296.67"/>
</g>
<!-- Node9&#45;&gt;Node5 -->
<g id="edge17" class="edge">
<title>Node9&#45;&gt;Node5</title>
<path fill="none" stroke="midnightblue" d="M316.06,-159.96C373.59,-146.8 465.9,-132.93 542,-155 569.23,-162.9 596.12,-181.77 613.31,-195.65"/>
<polygon fill="midnightblue" stroke="midnightblue" points="611.44,-198.65 621.37,-202.36 615.93,-193.27 611.44,-198.65"/>
</g>
<!-- Node10 -->
<g id="node10" class="node">
<title>Node10</title>
<g id="a_node10"><a xlink:href="class_t_train_controller.html#aa09adf9c442406cccc270d6703867a1d" target="_top" xlink:title="Return a reference to the train at position VecPos in the TrainVector, carries out range checking on ...">
<polygon fill="white" stroke="black" points="382.5,-164.5 382.5,-183.5 531.5,-183.5 531.5,-164.5 382.5,-164.5"/>
<text text-anchor="middle" x="457" y="-171.5" font-family="Helvetica,sans-Serif" font-size="10.00">TTrainController::TrainVectorAt</text>
</a>
</g>
</g>
<!-- Node9&#45;&gt;Node10 -->
<g id="edge18" class="edge">
<title>Node9&#45;&gt;Node10</title>
<path fill="none" stroke="midnightblue" d="M330.02,-174.65C343.69,-174.58 358.17,-174.5 372.26,-174.43"/>
<polygon fill="midnightblue" stroke="midnightblue" points="372.46,-177.93 382.44,-174.38 372.42,-170.93 372.46,-177.93"/>
</g>
<!-- Node10&#45;&gt;Node2 -->
<g id="edge19" class="edge">
<title>Node10&#45;&gt;Node2</title>
<path fill="none" stroke="midnightblue" d="M509.88,-183.55C521.03,-187.01 532.35,-191.69 542,-198 560.91,-210.37 599.2,-261.36 619.19,-289"/>
<polygon fill="midnightblue" stroke="midnightblue" points="616.54,-291.31 625.21,-297.39 622.22,-287.22 616.54,-291.31"/>
</g>
<!-- Node10&#45;&gt;Node5 -->
<g id="edge20" class="edge">
<title>Node10&#45;&gt;Node5</title>
<path fill="none" stroke="midnightblue" d="M501.91,-183.59C525.18,-188.67 553.95,-194.96 578.52,-200.32"/>
<polygon fill="midnightblue" stroke="midnightblue" points="577.89,-203.77 588.41,-202.48 579.39,-196.93 577.89,-203.77"/>
</g>
</g>
</svg>
