<?xml version="1.0" encoding="UTF-8" standalone="no"?>
<!DOCTYPE svg PUBLIC "-//W3C//DTD SVG 1.1//EN"
 "http://www.w3.org/Graphics/SVG/1.1/DTD/svg11.dtd">
<!-- Generated by graphviz version 2.44.1 (20200629.0800)
 -->
<!-- Title: TTrack::SetLCAttributeAtHV Pages: 1 -->
<svg width="1296pt" height="211pt"
 viewBox="0.00 0.00 1296.00 211.19" xmlns="http://www.w3.org/2000/svg" xmlns:xlink="http://www.w3.org/1999/xlink">
<g id="graph0" class="graph" transform="scale(1 1) rotate(0) translate(4 207.19)">
<title>TTrack::SetLCAttributeAtHV</title>
<polygon fill="white" stroke="transparent" points="-4,4 -4,-207.19 1292,-207.19 1292,4 -4,4"/>
<!-- Node1 -->
<g id="node1" class="node">
<title>Node1</title>
<g id="a_node1"><a xlink:title="Set LC attribute at H &amp; V; 0=closed to trains, 1 = open to trains, 2 = changing state = closed to tra...">
<polygon fill="#bfbfbf" stroke="black" points="1149,-82 1149,-101 1288,-101 1288,-82 1149,-82"/>
<text text-anchor="middle" x="1218.5" y="-89" font-family="Helvetica,sans-Serif" font-size="10.00">TTrack::SetLCAttributeAtHV</text>
</a>
</g>
</g>
<!-- Node2 -->
<g id="node2" class="node">
<title>Node2</title>
<g id="a_node2"><a xlink:href="class_t_track.html#a57723388cbfcaf525bf982d8e095949e" target="_top" xlink:title="Set linked LC attributes; 0=closed to trains, 1 = open to trains, 2 = changing state = closed to trai...">
<polygon fill="white" stroke="black" points="958,-76.5 958,-106.5 1113,-106.5 1113,-76.5 958,-76.5"/>
<text text-anchor="start" x="966" y="-94.5" font-family="Helvetica,sans-Serif" font-size="10.00">TTrack::SetLinkedLevelCrossing</text>
<text text-anchor="middle" x="1035.5" y="-83.5" font-family="Helvetica,sans-Serif" font-size="10.00">BarrierAttributes</text>
</a>
</g>
</g>
<!-- Node1&#45;&gt;Node2 -->
<g id="edge1" class="edge">
<title>Node1&#45;&gt;Node2</title>
<path fill="none" stroke="midnightblue" d="M1138.56,-91.5C1130.08,-91.5 1121.46,-91.5 1113.01,-91.5"/>
<polygon fill="midnightblue" stroke="midnightblue" points="1138.81,-95 1148.81,-91.5 1138.81,-88 1138.81,-95"/>
</g>
<!-- Node3 -->
<g id="node3" class="node">
<title>Node3</title>
<g id="a_node3"><a xlink:href="class_t_interface.html#a6139ffb52492eb89e5487a8a3cd647b5" target="_top" xlink:title="The main loop, called every clock tick via MasterClockTimer.">
<polygon fill="white" stroke="black" points="204.5,-161 204.5,-180 323.5,-180 323.5,-161 204.5,-161"/>
<text text-anchor="middle" x="264" y="-168" font-family="Helvetica,sans-Serif" font-size="10.00">TInterface::ClockTimer2</text>
</a>
</g>
</g>
<!-- Node2&#45;&gt;Node3 -->
<g id="edge2" class="edge">
<title>Node2&#45;&gt;Node3</title>
<path fill="none" stroke="midnightblue" d="M1009.29,-112.96C987.68,-129.91 954.92,-152.34 922,-162.5 707.55,-228.69 434.66,-197.87 319.83,-180.05"/>
<polygon fill="midnightblue" stroke="midnightblue" points="1011.67,-115.53 1017.27,-106.54 1007.29,-110.07 1011.67,-115.53"/>
</g>
<!-- Node5 -->
<g id="node5" class="node">
<title>Node5</title>
<g id="a_node5"><a xlink:href="class_t_interface.html#a7e6535742855a19cb3e35b1711a7ab59" target="_top" xlink:title="Deal with any warning graphics that need to flash (call on, signal stop, crash etc),...">
<polygon fill="white" stroke="black" points="388,-71 388,-90 528,-90 528,-71 388,-71"/>
<text text-anchor="middle" x="458" y="-78" font-family="Helvetica,sans-Serif" font-size="10.00">TInterface::FlashingGraphics</text>
</a>
</g>
</g>
<!-- Node2&#45;&gt;Node5 -->
<g id="edge4" class="edge">
<title>Node2&#45;&gt;Node5</title>
<path fill="none" stroke="midnightblue" d="M954.27,-74.6C860.97,-57.3 702.44,-35.23 567,-52.5 539.52,-56 509.04,-64.33 487.49,-71"/>
<polygon fill="midnightblue" stroke="midnightblue" points="953.73,-78.06 964.21,-76.47 955.03,-71.18 953.73,-78.06"/>
</g>
<!-- Node6 -->
<g id="node6" class="node">
<title>Node6</title>
<g id="a_node6"><a xlink:href="class_t_interface.html#a636b1b4bd29f2678a3290ed2d282f1c2" target="_top" xlink:title="Load a session file.">
<polygon fill="white" stroke="black" points="781,-134 781,-153 902,-153 902,-134 781,-134"/>
<text text-anchor="middle" x="841.5" y="-141" font-family="Helvetica,sans-Serif" font-size="10.00">TInterface::LoadSession</text>
</a>
</g>
</g>
<!-- Node2&#45;&gt;Node6 -->
<g id="edge6" class="edge">
<title>Node2&#45;&gt;Node6</title>
<path fill="none" stroke="midnightblue" d="M969.19,-109.19C938.53,-117.49 903.2,-127.06 877.65,-133.98"/>
<polygon fill="midnightblue" stroke="midnightblue" points="970.23,-112.53 978.97,-106.54 968.4,-105.78 970.23,-112.53"/>
</g>
<!-- Node7 -->
<g id="node7" class="node">
<title>Node7</title>
<g id="a_node7"><a xlink:href="class_t_interface.html#abf07d5edc1507de381825f17620748b2" target="_top" xlink:title="Called when mouse button clicked in zoom&#45;in mode.">
<polygon fill="white" stroke="black" points="385,-0.5 385,-30.5 531,-30.5 531,-0.5 385,-0.5"/>
<text text-anchor="start" x="393" y="-18.5" font-family="Helvetica,sans-Serif" font-size="10.00">TInterface::MainScreenMouse</text>
<text text-anchor="middle" x="458" y="-7.5" font-family="Helvetica,sans-Serif" font-size="10.00">Down2</text>
</a>
</g>
</g>
<!-- Node2&#45;&gt;Node7 -->
<g id="edge8" class="edge">
<title>Node2&#45;&gt;Node7</title>
<path fill="none" stroke="midnightblue" d="M995.01,-72.16C973.87,-62.73 947.08,-52.21 922,-46.5 786.49,-15.67 623.38,-12.32 531.39,-13.4"/>
<polygon fill="midnightblue" stroke="midnightblue" points="993.75,-75.43 1004.3,-76.4 996.65,-69.06 993.75,-75.43"/>
</g>
<!-- Node9 -->
<g id="node9" class="node">
<title>Node9</title>
<g id="a_node9"><a xlink:href="class_t_one_route.html#a92dbe2a2df334da0b20e54683c0fba8e" target="_top" xlink:title="After a route has been selected successfully this function sets all LC change values appropriately fo...">
<polygon fill="white" stroke="black" points="761,-82 761,-101 922,-101 922,-82 761,-82"/>
<text text-anchor="middle" x="841.5" y="-89" font-family="Helvetica,sans-Serif" font-size="10.00">TOneRoute::SetLCChangeValues</text>
</a>
</g>
</g>
<!-- Node2&#45;&gt;Node9 -->
<g id="edge10" class="edge">
<title>Node2&#45;&gt;Node9</title>
<path fill="none" stroke="midnightblue" d="M947.56,-91.5C939.12,-91.5 930.59,-91.5 922.23,-91.5"/>
<polygon fill="midnightblue" stroke="midnightblue" points="947.79,-95 957.79,-91.5 947.79,-88 947.79,-95"/>
</g>
<!-- Node4 -->
<g id="node4" class="node">
<title>Node4</title>
<g id="a_node4"><a xlink:href="class_t_interface.html#ace30a12d923fc7fb489afabb0a09aa4f" target="_top" xlink:title=" ">
<polygon fill="white" stroke="black" points="0,-161 0,-180 143,-180 143,-161 0,-161"/>
<text text-anchor="middle" x="71.5" y="-168" font-family="Helvetica,sans-Serif" font-size="10.00">TInterface::MasterClockTimer</text>
</a>
</g>
</g>
<!-- Node3&#45;&gt;Node4 -->
<g id="edge3" class="edge">
<title>Node3&#45;&gt;Node4</title>
<path fill="none" stroke="midnightblue" d="M194.12,-170.5C177.52,-170.5 159.76,-170.5 143.08,-170.5"/>
<polygon fill="midnightblue" stroke="midnightblue" points="194.29,-174 204.29,-170.5 194.29,-167 194.29,-174"/>
</g>
<!-- Node5&#45;&gt;Node3 -->
<g id="edge5" class="edge">
<title>Node5&#45;&gt;Node3</title>
<path fill="none" stroke="midnightblue" d="M408.1,-93.05C400.26,-95.55 392.33,-98.38 385,-101.5 344.76,-118.65 301.09,-146.29 279.2,-160.83"/>
<polygon fill="midnightblue" stroke="midnightblue" points="409.37,-96.32 417.92,-90.07 407.33,-89.63 409.37,-96.32"/>
</g>
<!-- Node6&#45;&gt;Node3 -->
<g id="edge7" class="edge">
<title>Node6&#45;&gt;Node3</title>
<path fill="none" stroke="midnightblue" d="M770.6,-147.93C755.56,-148.83 739.75,-149.73 725,-150.5 580.91,-158 411.33,-164.87 323.83,-168.26"/>
<polygon fill="midnightblue" stroke="midnightblue" points="771.09,-151.41 780.86,-147.31 770.67,-144.42 771.09,-151.41"/>
</g>
<!-- Node8 -->
<g id="node8" class="node">
<title>Node8</title>
<g id="a_node8"><a xlink:href="class_t_interface.html#a7f37862fb9e01e1328d9fd3fd8c50094" target="_top" xlink:title=" ">
<polygon fill="white" stroke="black" points="179,-6 179,-25 349,-25 349,-6 179,-6"/>
<text text-anchor="middle" x="264" y="-13" font-family="Helvetica,sans-Serif" font-size="10.00">TInterface::MainScreenMouseDown</text>
</a>
</g>
</g>
<!-- Node7&#45;&gt;Node8 -->
<g id="edge9" class="edge">
<title>Node7&#45;&gt;Node8</title>
<path fill="none" stroke="midnightblue" d="M374.7,-15.5C366.22,-15.5 357.58,-15.5 349.08,-15.5"/>
<polygon fill="midnightblue" stroke="midnightblue" points="374.96,-19 384.96,-15.5 374.96,-12 374.96,-19"/>
</g>
<!-- Node10 -->
<g id="node10" class="node">
<title>Node10</title>
<g id="a_node10"><a xlink:href="class_t_one_route.html#a53496c398dcdb3a644801c4e74d47d01" target="_top" xlink:title="Called after a non&#45;preferred (i.e. unrestricted) route has been selected and has finished flashing,...">
<polygon fill="white" stroke="black" points="567,-62.5 567,-92.5 725,-92.5 725,-62.5 567,-62.5"/>
<text text-anchor="start" x="575" y="-80.5" font-family="Helvetica,sans-Serif" font-size="10.00">TOneRoute::ConvertAndAdd</text>
<text text-anchor="middle" x="646" y="-69.5" font-family="Helvetica,sans-Serif" font-size="10.00">NonPreferredRouteSearchVector</text>
</a>
</g>
</g>
<!-- Node9&#45;&gt;Node10 -->
<g id="edge11" class="edge">
<title>Node9&#45;&gt;Node10</title>
<path fill="none" stroke="midnightblue" d="M750.95,-85.02C742.39,-84.4 733.74,-83.78 725.3,-83.16"/>
<polygon fill="midnightblue" stroke="midnightblue" points="750.73,-88.51 760.96,-85.75 751.24,-81.53 750.73,-88.51"/>
</g>
<!-- Node11 -->
<g id="node11" class="node">
<title>Node11</title>
<g id="a_node11"><a xlink:href="class_t_one_route.html#a36ba8adc8b4a47908ee4e1b8e75792ca" target="_top" xlink:title="Called after a preferred (i.e. preferred direction or automatic signals) route has been selected and ...">
<polygon fill="white" stroke="black" points="576,-111.5 576,-141.5 716,-141.5 716,-111.5 576,-111.5"/>
<text text-anchor="start" x="584" y="-129.5" font-family="Helvetica,sans-Serif" font-size="10.00">TOneRoute::ConvertAndAdd</text>
<text text-anchor="middle" x="646" y="-118.5" font-family="Helvetica,sans-Serif" font-size="10.00">PreferredRouteSearchVector</text>
</a>
</g>
</g>
<!-- Node9&#45;&gt;Node11 -->
<g id="edge14" class="edge">
<title>Node9&#45;&gt;Node11</title>
<path fill="none" stroke="midnightblue" d="M777.83,-102.84C758.19,-106.39 736.4,-110.33 716.33,-113.96"/>
<polygon fill="midnightblue" stroke="midnightblue" points="778.66,-106.24 787.88,-101.02 777.42,-99.35 778.66,-106.24"/>
</g>
<!-- Node10&#45;&gt;Node5 -->
<g id="edge12" class="edge">
<title>Node10&#45;&gt;Node5</title>
<path fill="none" stroke="midnightblue" d="M556.87,-78.92C547.18,-79.08 537.42,-79.24 528,-79.39"/>
<polygon fill="midnightblue" stroke="midnightblue" points="556.99,-82.42 566.93,-78.76 556.87,-75.42 556.99,-82.42"/>
</g>
<!-- Node10&#45;&gt;Node7 -->
<g id="edge13" class="edge">
<title>Node10&#45;&gt;Node7</title>
<path fill="none" stroke="midnightblue" d="M590.16,-59.22C562.82,-50.11 530.15,-39.22 504.26,-30.59"/>
<polygon fill="midnightblue" stroke="midnightblue" points="589.38,-62.65 599.97,-62.49 591.59,-56.01 589.38,-62.65"/>
</g>
<!-- Node11&#45;&gt;Node5 -->
<g id="edge15" class="edge">
<title>Node11&#45;&gt;Node5</title>
<path fill="none" stroke="midnightblue" d="M574.25,-109C548.2,-102.56 519.68,-95.51 497.53,-90.03"/>
<polygon fill="midnightblue" stroke="midnightblue" points="573.55,-112.43 584.1,-111.44 575.23,-105.64 573.55,-112.43"/>
</g>
<!-- Node12 -->
<g id="node12" class="node">
<title>Node12</title>
<g id="a_node12"><a xlink:href="class_t_interface.html#aa639148521a793641e694b15486b5055" target="_top" xlink:title=" ">
<polygon fill="white" stroke="black" points="394,-111.5 394,-141.5 522,-141.5 522,-111.5 394,-111.5"/>
<text text-anchor="start" x="402" y="-129.5" font-family="Helvetica,sans-Serif" font-size="10.00">TInterface::PresetAutoSig</text>
<text text-anchor="middle" x="458" y="-118.5" font-family="Helvetica,sans-Serif" font-size="10.00">RoutesButtonClick</text>
</a>
</g>
</g>
<!-- Node11&#45;&gt;Node12 -->
<g id="edge16" class="edge">
<title>Node11&#45;&gt;Node12</title>
<path fill="none" stroke="midnightblue" d="M565.33,-126.5C550.91,-126.5 536.05,-126.5 522.17,-126.5"/>
<polygon fill="midnightblue" stroke="midnightblue" points="565.74,-130 575.74,-126.5 565.74,-123 565.74,-130"/>
</g>
</g>
</svg>
