<?xml version="1.0" encoding="UTF-8" standalone="no"?>
<!DOCTYPE svg PUBLIC "-//W3C//DTD SVG 1.1//EN"
 "http://www.w3.org/Graphics/SVG/1.1/DTD/svg11.dtd">
<!-- Generated by graphviz version 2.44.1 (20200629.0800)
 -->
<!-- Title: TTextHandler::WriteTextToImage Pages: 1 -->
<svg width="318pt" height="186pt"
 viewBox="0.00 0.00 318.00 186.00" xmlns="http://www.w3.org/2000/svg" xmlns:xlink="http://www.w3.org/1999/xlink">
<g id="graph0" class="graph" transform="scale(1 1) rotate(0) translate(4 182)">
<title>TTextHandler::WriteTextToImage</title>
<polygon fill="white" stroke="transparent" points="-4,4 -4,-182 314,-182 314,4 -4,4"/>
<!-- Node1 -->
<g id="node1" class="node">
<title>Node1</title>
<g id="a_node1"><a xlink:title="write all items in TextVector to the railway image in &#39;Bitmap&#39;">
<polygon fill="#bfbfbf" stroke="black" points="178,-73.5 178,-103.5 310,-103.5 310,-73.5 178,-73.5"/>
<text text-anchor="start" x="186" y="-91.5" font-family="Helvetica,sans-Serif" font-size="10.00">TTextHandler::WriteTextTo</text>
<text text-anchor="middle" x="244" y="-80.5" font-family="Helvetica,sans-Serif" font-size="10.00">Image</text>
</a>
</g>
</g>
<!-- Node2 -->
<g id="node2" class="node">
<title>Node2</title>
<g id="a_node2"><a xlink:href="class_t_interface.html#a14d8976ee13c85f12eab634de845baf1" target="_top" xlink:title=" ">
<polygon fill="white" stroke="black" points="6.5,-147.5 6.5,-177.5 135.5,-177.5 135.5,-147.5 6.5,-147.5"/>
<text text-anchor="start" x="14.5" y="-165.5" font-family="Helvetica,sans-Serif" font-size="10.00">TInterface::SaveImageAnd</text>
<text text-anchor="middle" x="71" y="-154.5" font-family="Helvetica,sans-Serif" font-size="10.00">GridMenuItemClick</text>
</a>
</g>
</g>
<!-- Node1&#45;&gt;Node2 -->
<g id="edge1" class="edge">
<title>Node1&#45;&gt;Node2</title>
<path fill="none" stroke="midnightblue" d="M206.27,-108.12C187.34,-117.85 163.73,-129.44 142,-138.5 134.53,-141.61 126.5,-144.65 118.63,-147.46"/>
<polygon fill="midnightblue" stroke="midnightblue" points="207.89,-111.22 215.15,-103.5 204.67,-105 207.89,-111.22"/>
</g>
<!-- Node3 -->
<g id="node3" class="node">
<title>Node3</title>
<g id="a_node3"><a xlink:href="class_t_interface.html#ab73377784e302350bcc4f1fed4f8d90a" target="_top" xlink:title=" ">
<polygon fill="white" stroke="black" points="6.5,-98.5 6.5,-128.5 135.5,-128.5 135.5,-98.5 6.5,-98.5"/>
<text text-anchor="start" x="14.5" y="-116.5" font-family="Helvetica,sans-Serif" font-size="10.00">TInterface::SaveImageAnd</text>
<text text-anchor="middle" x="71" y="-105.5" font-family="Helvetica,sans-Serif" font-size="10.00">PrefDirsMenuItemClick</text>
</a>
</g>
</g>
<!-- Node1&#45;&gt;Node3 -->
<g id="edge2" class="edge">
<title>Node1&#45;&gt;Node3</title>
<path fill="none" stroke="midnightblue" d="M167.67,-99.51C156.95,-101.08 146.01,-102.68 135.54,-104.21"/>
<polygon fill="midnightblue" stroke="midnightblue" points="168.48,-102.93 177.86,-98.02 167.46,-96.01 168.48,-102.93"/>
</g>
<!-- Node4 -->
<g id="node4" class="node">
<title>Node4</title>
<g id="a_node4"><a xlink:href="class_t_interface.html#a69b645fe4cc36d0bea7de3fca553bd6a" target="_top" xlink:title=" ">
<polygon fill="white" stroke="black" points="0,-49.5 0,-79.5 142,-79.5 142,-49.5 0,-49.5"/>
<text text-anchor="start" x="8" y="-67.5" font-family="Helvetica,sans-Serif" font-size="10.00">TInterface::SaveImageNoGrid</text>
<text text-anchor="middle" x="71" y="-56.5" font-family="Helvetica,sans-Serif" font-size="10.00">MenuItemClick</text>
</a>
</g>
</g>
<!-- Node1&#45;&gt;Node4 -->
<g id="edge3" class="edge">
<title>Node1&#45;&gt;Node4</title>
<path fill="none" stroke="midnightblue" d="M167.88,-77.96C159.31,-76.75 150.59,-75.53 142.08,-74.34"/>
<polygon fill="midnightblue" stroke="midnightblue" points="167.47,-81.43 177.86,-79.36 168.45,-74.5 167.47,-81.43"/>
</g>
<!-- Node5 -->
<g id="node5" class="node">
<title>Node5</title>
<g id="a_node5"><a xlink:href="class_t_interface.html#a4d75015545313004ffd5022c020f4edf" target="_top" xlink:title=" ">
<polygon fill="white" stroke="black" points="7,-0.5 7,-30.5 135,-30.5 135,-0.5 7,-0.5"/>
<text text-anchor="start" x="15" y="-18.5" font-family="Helvetica,sans-Serif" font-size="10.00">TInterface::SaveOperating</text>
<text text-anchor="middle" x="71" y="-7.5" font-family="Helvetica,sans-Serif" font-size="10.00">ImageMenuItemClick</text>
</a>
</g>
</g>
<!-- Node1&#45;&gt;Node5 -->
<g id="edge4" class="edge">
<title>Node1&#45;&gt;Node5</title>
<path fill="none" stroke="midnightblue" d="M204.25,-68.96C185.62,-59.86 162.86,-49.16 142,-40.5 133.78,-37.09 124.9,-33.7 116.32,-30.57"/>
<polygon fill="midnightblue" stroke="midnightblue" points="202.79,-72.14 213.3,-73.42 205.88,-65.86 202.79,-72.14"/>
</g>
</g>
</svg>
