<?xml version="1.0" encoding="UTF-8" standalone="no"?>
<!DOCTYPE svg PUBLIC "-//W3C//DTD SVG 1.1//EN"
 "http://www.w3.org/Graphics/SVG/1.1/DTD/svg11.dtd">
<!-- Generated by graphviz version 2.44.1 (20200629.0800)
 -->
<!-- Title: TTextHandler::SelectTextVectorSize Pages: 1 -->
<svg width="308pt" height="235pt"
 viewBox="0.00 0.00 308.00 235.00" xmlns="http://www.w3.org/2000/svg" xmlns:xlink="http://www.w3.org/1999/xlink">
<g id="graph0" class="graph" transform="scale(1 1) rotate(0) translate(4 231)">
<title>TTextHandler::SelectTextVectorSize</title>
<polygon fill="white" stroke="transparent" points="-4,4 -4,-231 304,-231 304,4 -4,4"/>
<!-- Node1 -->
<g id="node1" class="node">
<title>Node1</title>
<g id="a_node1"><a xlink:title="return the number of items in SelectTextVector">
<polygon fill="#bfbfbf" stroke="black" points="174,-98.5 174,-128.5 300,-128.5 300,-98.5 174,-98.5"/>
<text text-anchor="start" x="182" y="-116.5" font-family="Helvetica,sans-Serif" font-size="10.00">TTextHandler::SelectText</text>
<text text-anchor="middle" x="237" y="-105.5" font-family="Helvetica,sans-Serif" font-size="10.00">VectorSize</text>
</a>
</g>
</g>
<!-- Node2 -->
<g id="node2" class="node">
<title>Node2</title>
<g id="a_node2"><a xlink:href="class_t_interface.html#add5fbdbceae6285c2cc440905b270491" target="_top" xlink:title=" ">
<polygon fill="white" stroke="black" points="7.5,-196.5 7.5,-226.5 130.5,-226.5 130.5,-196.5 7.5,-196.5"/>
<text text-anchor="start" x="15.5" y="-214.5" font-family="Helvetica,sans-Serif" font-size="10.00">TInterface::FlipMenuItem</text>
<text text-anchor="middle" x="69" y="-203.5" font-family="Helvetica,sans-Serif" font-size="10.00">Click</text>
</a>
</g>
</g>
<!-- Node1&#45;&gt;Node2 -->
<g id="edge1" class="edge">
<title>Node1&#45;&gt;Node2</title>
<path fill="none" stroke="midnightblue" d="M211.82,-135.13C192.82,-151.26 165.11,-172.93 138,-187.5 131.93,-190.76 125.34,-193.73 118.71,-196.37"/>
<polygon fill="midnightblue" stroke="midnightblue" points="214.11,-137.77 219.4,-128.59 209.54,-132.47 214.11,-137.77"/>
</g>
<!-- Node3 -->
<g id="node3" class="node">
<title>Node3</title>
<g id="a_node3"><a xlink:href="class_t_interface.html#a4ee6afffbc33eab918cba315ab65ee6e" target="_top" xlink:title=" ">
<polygon fill="white" stroke="black" points="3,-147.5 3,-177.5 135,-177.5 135,-147.5 3,-147.5"/>
<text text-anchor="start" x="11" y="-165.5" font-family="Helvetica,sans-Serif" font-size="10.00">TInterface::MirrorMenuItem</text>
<text text-anchor="middle" x="69" y="-154.5" font-family="Helvetica,sans-Serif" font-size="10.00">Click</text>
</a>
</g>
</g>
<!-- Node1&#45;&gt;Node3 -->
<g id="edge2" class="edge">
<title>Node1&#45;&gt;Node3</title>
<path fill="none" stroke="midnightblue" d="M175.13,-131.47C157.35,-136.72 138.1,-142.4 120.99,-147.45"/>
<polygon fill="midnightblue" stroke="midnightblue" points="176.24,-134.79 184.84,-128.6 174.26,-128.08 176.24,-134.79"/>
</g>
<!-- Node4 -->
<g id="node4" class="node">
<title>Node4</title>
<g id="a_node4"><a xlink:href="class_t_interface.html#a02e91aba36e2b91354abd2884f658510" target="_top" xlink:title=" ">
<polygon fill="white" stroke="black" points="1,-98.5 1,-128.5 137,-128.5 137,-98.5 1,-98.5"/>
<text text-anchor="start" x="9" y="-116.5" font-family="Helvetica,sans-Serif" font-size="10.00">TInterface::RotateMenuItem</text>
<text text-anchor="middle" x="69" y="-105.5" font-family="Helvetica,sans-Serif" font-size="10.00">Click</text>
</a>
</g>
</g>
<!-- Node1&#45;&gt;Node4 -->
<g id="edge3" class="edge">
<title>Node1&#45;&gt;Node4</title>
<path fill="none" stroke="midnightblue" d="M163.5,-113.5C154.72,-113.5 145.78,-113.5 137.08,-113.5"/>
<polygon fill="midnightblue" stroke="midnightblue" points="163.72,-117 173.72,-113.5 163.72,-110 163.72,-117"/>
</g>
<!-- Node5 -->
<g id="node5" class="node">
<title>Node5</title>
<g id="a_node5"><a xlink:href="class_t_interface.html#a3cf2db0424e05908b20a97130895d056" target="_top" xlink:title=" ">
<polygon fill="white" stroke="black" points="0,-49.5 0,-79.5 138,-79.5 138,-49.5 0,-49.5"/>
<text text-anchor="start" x="8" y="-67.5" font-family="Helvetica,sans-Serif" font-size="10.00">TInterface::RotLeftMenuItem</text>
<text text-anchor="middle" x="69" y="-56.5" font-family="Helvetica,sans-Serif" font-size="10.00">Click</text>
</a>
</g>
</g>
<!-- Node1&#45;&gt;Node5 -->
<g id="edge4" class="edge">
<title>Node1&#45;&gt;Node5</title>
<path fill="none" stroke="midnightblue" d="M175.13,-95.53C157.35,-90.28 138.1,-84.6 120.99,-79.55"/>
<polygon fill="midnightblue" stroke="midnightblue" points="174.26,-98.92 184.84,-98.4 176.24,-92.21 174.26,-98.92"/>
</g>
<!-- Node6 -->
<g id="node6" class="node">
<title>Node6</title>
<g id="a_node6"><a xlink:href="class_t_interface.html#aa6e7359ece526e43589456e9a31851a0" target="_top" xlink:title=" ">
<polygon fill="white" stroke="black" points="6,-0.5 6,-30.5 132,-30.5 132,-0.5 6,-0.5"/>
<text text-anchor="start" x="14" y="-18.5" font-family="Helvetica,sans-Serif" font-size="10.00">TInterface::RotRightMenu</text>
<text text-anchor="middle" x="69" y="-7.5" font-family="Helvetica,sans-Serif" font-size="10.00">ItemClick</text>
</a>
</g>
</g>
<!-- Node1&#45;&gt;Node6 -->
<g id="edge5" class="edge">
<title>Node1&#45;&gt;Node6</title>
<path fill="none" stroke="midnightblue" d="M211.11,-91.78C192.08,-75.99 164.65,-54.93 138,-40.5 131.25,-36.85 123.86,-33.51 116.51,-30.56"/>
<polygon fill="midnightblue" stroke="midnightblue" points="209.08,-94.65 218.98,-98.41 213.59,-89.29 209.08,-94.65"/>
</g>
</g>
</svg>
