<?xml version="1.0" encoding="UTF-8" standalone="no"?>
<!DOCTYPE svg PUBLIC "-//W3C//DTD SVG 1.1//EN"
 "http://www.w3.org/Graphics/SVG/1.1/DTD/svg11.dtd">
<!-- Generated by graphviz version 2.44.1 (20200629.0800)
 -->
<!-- Title: TTrainController::TimetableMessage Pages: 1 -->
<svg width="1721pt" height="438pt"
 viewBox="0.00 0.00 1721.00 438.00" xmlns="http://www.w3.org/2000/svg" xmlns:xlink="http://www.w3.org/1999/xlink">
<g id="graph0" class="graph" transform="scale(1 1) rotate(0) translate(4 434)">
<title>TTrainController::TimetableMessage</title>
<polygon fill="white" stroke="transparent" points="-4,4 -4,-434 1717,-434 1717,4 -4,4"/>
<!-- Node1 -->
<g id="node1" class="node">
<title>Node1</title>
<g id="a_node1"><a xlink:title="Sends a message to the user if GiveMessages is true, including ServiceReference (see above) if not nu...">
<polygon fill="#bfbfbf" stroke="black" points="1581,-219.5 1581,-249.5 1713,-249.5 1713,-219.5 1581,-219.5"/>
<text text-anchor="start" x="1589" y="-237.5" font-family="Helvetica,sans-Serif" font-size="10.00">TTrainController::Timetable</text>
<text text-anchor="middle" x="1647" y="-226.5" font-family="Helvetica,sans-Serif" font-size="10.00">Message</text>
</a>
</g>
</g>
<!-- Node2 -->
<g id="node2" class="node">
<title>Node2</title>
<g id="a_node2"><a xlink:href="class_t_train_controller.html#a3733e089b5f58d8b5e8355298653b53a" target="_top" xlink:title="Used to compile ExitList from a string list of element IDs, returns true for success or gives a messa...">
<polygon fill="white" stroke="black" points="1400,-301.5 1400,-331.5 1535,-331.5 1535,-301.5 1400,-301.5"/>
<text text-anchor="start" x="1408" y="-319.5" font-family="Helvetica,sans-Serif" font-size="10.00">TTrainController::CheckAnd</text>
<text text-anchor="middle" x="1467.5" y="-308.5" font-family="Helvetica,sans-Serif" font-size="10.00">PopulateListOfIDs</text>
</a>
</g>
</g>
<!-- Node1&#45;&gt;Node2 -->
<g id="edge1" class="edge">
<title>Node1&#45;&gt;Node2</title>
<path fill="none" stroke="midnightblue" d="M1613.47,-255.04C1594.08,-266.72 1568.7,-281.06 1545,-291.5 1536.82,-295.1 1527.94,-298.47 1519.24,-301.49"/>
<polygon fill="midnightblue" stroke="midnightblue" points="1615.49,-257.91 1622.21,-249.71 1611.85,-251.93 1615.49,-257.91"/>
</g>
<!-- Node4 -->
<g id="node4" class="node">
<title>Node4</title>
<g id="a_node4"><a xlink:href="class_t_train_controller.html#a5c51eb1e0018e189966ffdbc5d251990" target="_top" xlink:title="Carry out preliminary (mainly syntax) validity checks on a single timetable service entry and (if Fin...">
<polygon fill="white" stroke="black" points="1043,-246.5 1043,-276.5 1169,-276.5 1169,-246.5 1043,-246.5"/>
<text text-anchor="start" x="1051" y="-264.5" font-family="Helvetica,sans-Serif" font-size="10.00">TTrainController::Process</text>
<text text-anchor="middle" x="1106" y="-253.5" font-family="Helvetica,sans-Serif" font-size="10.00">OneTimetableLine</text>
</a>
</g>
</g>
<!-- Node1&#45;&gt;Node4 -->
<g id="edge39" class="edge">
<title>Node1&#45;&gt;Node4</title>
<path fill="none" stroke="midnightblue" d="M1570.89,-238.26C1463.74,-243.63 1268.96,-253.39 1169.33,-258.38"/>
<polygon fill="midnightblue" stroke="midnightblue" points="1571.17,-241.75 1580.98,-237.76 1570.82,-234.76 1571.17,-241.75"/>
</g>
<!-- Node14 -->
<g id="node14" class="node">
<title>Node14</title>
<g id="a_node14"><a xlink:href="class_t_train_controller.html#ac51af4807fe6bba453f8ab9bba42e2b5" target="_top" xlink:title="Checks overall timetable integrity, calls many other specific checking functions, returns true for su...">
<polygon fill="white" stroke="black" points="863.5,-209.5 863.5,-239.5 995.5,-239.5 995.5,-209.5 863.5,-209.5"/>
<text text-anchor="start" x="871.5" y="-227.5" font-family="Helvetica,sans-Serif" font-size="10.00">TTrainController::Timetable</text>
<text text-anchor="middle" x="929.5" y="-216.5" font-family="Helvetica,sans-Serif" font-size="10.00">IntegrityCheck</text>
</a>
</g>
</g>
<!-- Node1&#45;&gt;Node14 -->
<g id="edge43" class="edge">
<title>Node1&#45;&gt;Node14</title>
<path fill="none" stroke="midnightblue" d="M1632.15,-210.95C1615.32,-184.91 1584.24,-144.42 1545,-127.5 1441.95,-83.06 1135.46,-68.5 1040,-127.5 1009.57,-146.31 1030.96,-175.98 1004,-199.5 999.53,-203.4 994.43,-206.7 989.04,-209.48"/>
<polygon fill="midnightblue" stroke="midnightblue" points="1629.23,-212.87 1637.5,-219.49 1635.16,-209.16 1629.23,-212.87"/>
</g>
<!-- Node16 -->
<g id="node16" class="node">
<title>Node16</title>
<g id="a_node16"><a xlink:href="class_t_train_controller.html#a1ccd6c8f2c24e7417889e1a91cb9ca2f" target="_top" xlink:title="Returns true if the headcode complies with requirements.">
<polygon fill="white" stroke="black" points="1397.5,-137.5 1397.5,-167.5 1537.5,-167.5 1537.5,-137.5 1397.5,-137.5"/>
<text text-anchor="start" x="1405.5" y="-155.5" font-family="Helvetica,sans-Serif" font-size="10.00">TTrainController::CheckHead</text>
<text text-anchor="middle" x="1467.5" y="-144.5" font-family="Helvetica,sans-Serif" font-size="10.00">CodeValidity</text>
</a>
</g>
</g>
<!-- Node1&#45;&gt;Node16 -->
<g id="edge19" class="edge">
<title>Node1&#45;&gt;Node16</title>
<path fill="none" stroke="midnightblue" d="M1621.56,-213.78C1601.31,-201.09 1571.65,-185.55 1545,-173.5 1540.58,-171.5 1535.99,-169.51 1531.34,-167.57"/>
<polygon fill="midnightblue" stroke="midnightblue" points="1619.87,-216.85 1630.15,-219.39 1623.69,-210.99 1619.87,-216.85"/>
</g>
<!-- Node25 -->
<g id="node25" class="node">
<title>Node25</title>
<g id="a_node25"><a xlink:href="class_t_train_controller.html#a53410afbc9dd5e8c2cd4a443bfb01034" target="_top" xlink:title="Parse a train information entry, return true for success; PowerAtRail changed to double&amp; from int&amp; at...">
<polygon fill="white" stroke="black" points="1208,-187 1208,-206 1354,-206 1354,-187 1208,-187"/>
<text text-anchor="middle" x="1281" y="-194" font-family="Helvetica,sans-Serif" font-size="10.00">TTrainController::SplitTrainInfo</text>
</a>
</g>
</g>
<!-- Node1&#45;&gt;Node25 -->
<g id="edge42" class="edge">
<title>Node1&#45;&gt;Node25</title>
<path fill="none" stroke="midnightblue" d="M1570.73,-223.67C1562.06,-222.54 1553.34,-221.46 1545,-220.5 1480.55,-213.1 1406.99,-206.54 1354.09,-202.17"/>
<polygon fill="midnightblue" stroke="midnightblue" points="1570.49,-227.17 1580.86,-225.02 1571.41,-220.23 1570.49,-227.17"/>
</g>
<!-- Node26 -->
<g id="node26" class="node">
<title>Node26</title>
<g id="a_node26"><a xlink:href="class_t_train_controller.html#a1925032d5e41decf4befc07b35521d3c" target="_top" xlink:title="Returns true if the location name complies with requirements.">
<polygon fill="white" stroke="black" points="1390,-399.5 1390,-429.5 1545,-429.5 1545,-399.5 1390,-399.5"/>
<text text-anchor="start" x="1398" y="-417.5" font-family="Helvetica,sans-Serif" font-size="10.00">TTrainController::CheckLocation</text>
<text text-anchor="middle" x="1467.5" y="-406.5" font-family="Helvetica,sans-Serif" font-size="10.00">Validity</text>
</a>
</g>
</g>
<!-- Node1&#45;&gt;Node26 -->
<g id="edge32" class="edge">
<title>Node1&#45;&gt;Node26</title>
<path fill="none" stroke="midnightblue" d="M1636.41,-259.21C1621.82,-293.63 1590.82,-355.66 1545,-390.5 1540.46,-393.95 1535.41,-396.92 1530.13,-399.46"/>
<polygon fill="midnightblue" stroke="midnightblue" points="1639.68,-260.46 1640.25,-249.88 1633.21,-257.8 1639.68,-260.46"/>
</g>
<!-- Node29 -->
<g id="node29" class="node">
<title>Node29</title>
<g id="a_node29"><a xlink:href="class_t_train_controller.html#a5c9711cc69c8332cf7db5e0b2696ca45" target="_top" xlink:title="A timetable validation function where train starting positions are checked for validity,...">
<polygon fill="white" stroke="black" points="1398,-350.5 1398,-380.5 1537,-380.5 1537,-350.5 1398,-350.5"/>
<text text-anchor="start" x="1406" y="-368.5" font-family="Helvetica,sans-Serif" font-size="10.00">TTrainController::CheckStart</text>
<text text-anchor="middle" x="1467.5" y="-357.5" font-family="Helvetica,sans-Serif" font-size="10.00">PositionValidity</text>
</a>
</g>
</g>
<!-- Node1&#45;&gt;Node29 -->
<g id="edge37" class="edge">
<title>Node1&#45;&gt;Node29</title>
<path fill="none" stroke="midnightblue" d="M1629.67,-257.87C1611.59,-282.08 1580.29,-319.42 1545,-341.5 1539.57,-344.9 1533.62,-347.85 1527.52,-350.4"/>
<polygon fill="midnightblue" stroke="midnightblue" points="1632.64,-259.73 1635.71,-249.59 1626.99,-255.6 1632.64,-259.73"/>
</g>
<!-- Node30 -->
<g id="node30" class="node">
<title>Node30</title>
<g id="a_node30"><a xlink:href="class_t_train_controller.html#a03d63b7579e50c092cca3b5200d9dafb" target="_top" xlink:title="Parse a timetable repeat entry, return true for success.">
<polygon fill="white" stroke="black" points="1397.5,-263 1397.5,-282 1537.5,-282 1537.5,-263 1397.5,-263"/>
<text text-anchor="middle" x="1467.5" y="-270" font-family="Helvetica,sans-Serif" font-size="10.00">TTrainController::SplitRepeat</text>
</a>
</g>
</g>
<!-- Node1&#45;&gt;Node30 -->
<g id="edge40" class="edge">
<title>Node1&#45;&gt;Node30</title>
<path fill="none" stroke="midnightblue" d="M1571.01,-250.55C1551.29,-254.78 1530.63,-259.2 1513.07,-262.96"/>
<polygon fill="midnightblue" stroke="midnightblue" points="1571.87,-253.95 1580.91,-248.43 1570.4,-247.11 1571.87,-253.95"/>
</g>
<!-- Node3 -->
<g id="node3" class="node">
<title>Node3</title>
<g id="a_node3"><a xlink:href="class_t_train_controller.html#a23ca27d36d711136e0529ba8ae4f22f0" target="_top" xlink:title="Parse a single timetable service action, return true for success.">
<polygon fill="white" stroke="black" points="1214.5,-307 1214.5,-326 1347.5,-326 1347.5,-307 1214.5,-307"/>
<text text-anchor="middle" x="1281" y="-314" font-family="Helvetica,sans-Serif" font-size="10.00">TTrainController::SplitEntry</text>
</a>
</g>
</g>
<!-- Node2&#45;&gt;Node3 -->
<g id="edge2" class="edge">
<title>Node2&#45;&gt;Node3</title>
<path fill="none" stroke="midnightblue" d="M1389.79,-316.5C1375.76,-316.5 1361.25,-316.5 1347.58,-316.5"/>
<polygon fill="midnightblue" stroke="midnightblue" points="1389.89,-320 1399.89,-316.5 1389.89,-313 1389.89,-320"/>
</g>
<!-- Node3&#45;&gt;Node4 -->
<g id="edge3" class="edge">
<title>Node3&#45;&gt;Node4</title>
<path fill="none" stroke="midnightblue" d="M1240.13,-303.83C1214.58,-295.7 1181.29,-285.12 1154.39,-276.57"/>
<polygon fill="midnightblue" stroke="midnightblue" points="1239.28,-307.23 1249.87,-306.92 1241.4,-300.55 1239.28,-307.23"/>
</g>
<!-- Node5 -->
<g id="node5" class="node">
<title>Node5</title>
<g id="a_node5"><a xlink:href="class_t_interface.html#a148e3f99d39f596dbd7d490403936154" target="_top" xlink:title="Convert a stored timetable file (either as a stand alone file or within a session file) to a loaded t...">
<polygon fill="white" stroke="black" points="865.5,-160.5 865.5,-190.5 993.5,-190.5 993.5,-160.5 865.5,-160.5"/>
<text text-anchor="start" x="873.5" y="-178.5" font-family="Helvetica,sans-Serif" font-size="10.00">TInterface::BuildTrainData</text>
<text text-anchor="middle" x="929.5" y="-167.5" font-family="Helvetica,sans-Serif" font-size="10.00">VectorForLoadFile</text>
</a>
</g>
</g>
<!-- Node4&#45;&gt;Node5 -->
<g id="edge4" class="edge">
<title>Node4&#45;&gt;Node5</title>
<path fill="none" stroke="midnightblue" d="M1065.86,-241.65C1057.2,-236.92 1048.18,-231.73 1040,-226.5 1023.15,-215.73 1021.74,-208.73 1004,-199.5 997.69,-196.22 990.84,-193.27 983.95,-190.65"/>
<polygon fill="midnightblue" stroke="midnightblue" points="1064.23,-244.74 1074.69,-246.38 1067.53,-238.58 1064.23,-244.74"/>
</g>
<!-- Node12 -->
<g id="node12" class="node">
<title>Node12</title>
<g id="a_node12"><a xlink:href="class_t_interface.html#a4ffe7e6eb2421577f670a52f556aef97" target="_top" xlink:title="Check the integrity of a stored timetable file (either as a stand alone file or within a session file...">
<polygon fill="white" stroke="black" points="865.5,-307.5 865.5,-337.5 993.5,-337.5 993.5,-307.5 865.5,-307.5"/>
<text text-anchor="start" x="873.5" y="-325.5" font-family="Helvetica,sans-Serif" font-size="10.00">TInterface::BuildTrainData</text>
<text text-anchor="middle" x="929.5" y="-314.5" font-family="Helvetica,sans-Serif" font-size="10.00">VectorForValidateFile</text>
</a>
</g>
</g>
<!-- Node4&#45;&gt;Node12 -->
<g id="edge12" class="edge">
<title>Node4&#45;&gt;Node12</title>
<path fill="none" stroke="midnightblue" d="M1054.99,-280.22C1038.77,-286.18 1020.66,-292.73 1004,-298.5 995.5,-301.44 986.42,-304.49 977.64,-307.38"/>
<polygon fill="midnightblue" stroke="midnightblue" points="1056.65,-283.34 1064.82,-276.59 1054.22,-276.77 1056.65,-283.34"/>
</g>
<!-- Node4&#45;&gt;Node14 -->
<g id="edge14" class="edge">
<title>Node4&#45;&gt;Node14</title>
<path fill="none" stroke="midnightblue" d="M1033.12,-246.26C1020.68,-243.62 1007.81,-240.89 995.56,-238.3"/>
<polygon fill="midnightblue" stroke="midnightblue" points="1032.48,-249.7 1042.99,-248.35 1033.93,-242.85 1032.48,-249.7"/>
</g>
<!-- Node15 -->
<g id="node15" class="node">
<title>Node15</title>
<g id="a_node15"><a xlink:href="class_t_interface.html#a003b10236c2b4316dc57be370c715c44" target="_top" xlink:title=" ">
<polygon fill="white" stroke="black" points="861,-258.5 861,-288.5 998,-288.5 998,-258.5 861,-258.5"/>
<text text-anchor="start" x="869" y="-276.5" font-family="Helvetica,sans-Serif" font-size="10.00">TInterface::TTServiceSyntax</text>
<text text-anchor="middle" x="929.5" y="-265.5" font-family="Helvetica,sans-Serif" font-size="10.00">CheckButtonClick</text>
</a>
</g>
</g>
<!-- Node4&#45;&gt;Node15 -->
<g id="edge18" class="edge">
<title>Node4&#45;&gt;Node15</title>
<path fill="none" stroke="midnightblue" d="M1033,-266.45C1021.5,-267.24 1009.63,-268.06 998.24,-268.84"/>
<polygon fill="midnightblue" stroke="midnightblue" points="1033.25,-269.94 1042.99,-265.76 1032.77,-262.96 1033.25,-269.94"/>
</g>
<!-- Node6 -->
<g id="node6" class="node">
<title>Node6</title>
<g id="a_node6"><a xlink:href="class_t_interface.html#a92d5a9e07b9362dee2296b7759a1c83d" target="_top" xlink:title="Loads timetable into memory from a session file, true if successful.">
<polygon fill="white" stroke="black" points="684,-160.5 684,-190.5 812,-190.5 812,-160.5 684,-160.5"/>
<text text-anchor="start" x="692" y="-178.5" font-family="Helvetica,sans-Serif" font-size="10.00">TInterface::LoadTimetable</text>
<text text-anchor="middle" x="748" y="-167.5" font-family="Helvetica,sans-Serif" font-size="10.00">FromSessionFile</text>
</a>
</g>
</g>
<!-- Node5&#45;&gt;Node6 -->
<g id="edge5" class="edge">
<title>Node5&#45;&gt;Node6</title>
<path fill="none" stroke="midnightblue" d="M855.2,-175.5C840.93,-175.5 826.09,-175.5 812.18,-175.5"/>
<polygon fill="midnightblue" stroke="midnightblue" points="855.47,-179 865.47,-175.5 855.47,-172 855.47,-179"/>
</g>
<!-- Node11 -->
<g id="node11" class="node">
<title>Node11</title>
<g id="a_node11"><a xlink:href="class_t_interface.html#a15a2f5ad77e4f6c2b0cc6314224dfb78" target="_top" xlink:title=" ">
<polygon fill="white" stroke="black" points="684,-209.5 684,-239.5 812,-239.5 812,-209.5 684,-209.5"/>
<text text-anchor="start" x="692" y="-227.5" font-family="Helvetica,sans-Serif" font-size="10.00">TInterface::LoadTimetable</text>
<text text-anchor="middle" x="748" y="-216.5" font-family="Helvetica,sans-Serif" font-size="10.00">MenuItemClick</text>
</a>
</g>
</g>
<!-- Node5&#45;&gt;Node11 -->
<g id="edge11" class="edge">
<title>Node5&#45;&gt;Node11</title>
<path fill="none" stroke="midnightblue" d="M863.48,-193.25C844.03,-198.56 822.89,-204.33 804.14,-209.45"/>
<polygon fill="midnightblue" stroke="midnightblue" points="864.45,-196.61 873.18,-190.6 862.61,-189.86 864.45,-196.61"/>
</g>
<!-- Node7 -->
<g id="node7" class="node">
<title>Node7</title>
<g id="a_node7"><a xlink:href="class_t_interface.html#a636b1b4bd29f2678a3290ed2d282f1c2" target="_top" xlink:title="Load a session file.">
<polygon fill="white" stroke="black" points="334,-210 334,-229 455,-229 455,-210 334,-210"/>
<text text-anchor="middle" x="394.5" y="-217" font-family="Helvetica,sans-Serif" font-size="10.00">TInterface::LoadSession</text>
</a>
</g>
</g>
<!-- Node6&#45;&gt;Node7 -->
<g id="edge6" class="edge">
<title>Node6&#45;&gt;Node7</title>
<path fill="none" stroke="midnightblue" d="M673.73,-177.4C622.31,-179.6 552.1,-184.32 491,-194.5 469.02,-198.16 444.74,-204.55 426.16,-209.95"/>
<polygon fill="midnightblue" stroke="midnightblue" points="673.91,-180.9 683.76,-176.99 673.62,-173.9 673.91,-180.9"/>
</g>
<!-- Node10 -->
<g id="node10" class="node">
<title>Node10</title>
<g id="a_node10"><a xlink:href="class_t_interface.html#a3904f26b67b9512507960187b37b6f7b" target="_top" xlink:title="Checks session file integrity prior to loading, true for success.">
<polygon fill="white" stroke="black" points="491,-204.5 491,-234.5 641,-234.5 641,-204.5 491,-204.5"/>
<text text-anchor="start" x="499" y="-222.5" font-family="Helvetica,sans-Serif" font-size="10.00">TInterface::SessionFileIntegrity</text>
<text text-anchor="middle" x="566" y="-211.5" font-family="Helvetica,sans-Serif" font-size="10.00">Check</text>
</a>
</g>
</g>
<!-- Node6&#45;&gt;Node10 -->
<g id="edge9" class="edge">
<title>Node6&#45;&gt;Node10</title>
<path fill="none" stroke="midnightblue" d="M675.47,-192.99C659.92,-196.79 643.59,-200.78 628.47,-204.47"/>
<polygon fill="midnightblue" stroke="midnightblue" points="676.67,-196.29 685.56,-190.52 675.01,-189.49 676.67,-196.29"/>
</g>
<!-- Node8 -->
<g id="node8" class="node">
<title>Node8</title>
<g id="a_node8"><a xlink:href="class_t_interface.html#a6139ffb52492eb89e5487a8a3cd647b5" target="_top" xlink:title="The main loop, called every clock tick via MasterClockTimer.">
<polygon fill="white" stroke="black" points="179,-210 179,-229 298,-229 298,-210 179,-210"/>
<text text-anchor="middle" x="238.5" y="-217" font-family="Helvetica,sans-Serif" font-size="10.00">TInterface::ClockTimer2</text>
</a>
</g>
</g>
<!-- Node7&#45;&gt;Node8 -->
<g id="edge7" class="edge">
<title>Node7&#45;&gt;Node8</title>
<path fill="none" stroke="midnightblue" d="M323.92,-219.5C315.3,-219.5 306.56,-219.5 298.12,-219.5"/>
<polygon fill="midnightblue" stroke="midnightblue" points="323.96,-223 333.96,-219.5 323.96,-216 323.96,-223"/>
</g>
<!-- Node9 -->
<g id="node9" class="node">
<title>Node9</title>
<g id="a_node9"><a xlink:href="class_t_interface.html#ace30a12d923fc7fb489afabb0a09aa4f" target="_top" xlink:title=" ">
<polygon fill="white" stroke="black" points="0,-210 0,-229 143,-229 143,-210 0,-210"/>
<text text-anchor="middle" x="71.5" y="-217" font-family="Helvetica,sans-Serif" font-size="10.00">TInterface::MasterClockTimer</text>
</a>
</g>
</g>
<!-- Node8&#45;&gt;Node9 -->
<g id="edge8" class="edge">
<title>Node8&#45;&gt;Node9</title>
<path fill="none" stroke="midnightblue" d="M168.67,-219.5C160.22,-219.5 151.57,-219.5 143.09,-219.5"/>
<polygon fill="midnightblue" stroke="midnightblue" points="168.86,-223 178.86,-219.5 168.86,-216 168.86,-223"/>
</g>
<!-- Node10&#45;&gt;Node7 -->
<g id="edge10" class="edge">
<title>Node10&#45;&gt;Node7</title>
<path fill="none" stroke="midnightblue" d="M480.55,-219.5C471.93,-219.5 463.3,-219.5 455.02,-219.5"/>
<polygon fill="midnightblue" stroke="midnightblue" points="480.65,-223 490.65,-219.5 480.65,-216 480.65,-223"/>
</g>
<!-- Node13 -->
<g id="node13" class="node">
<title>Node13</title>
<g id="a_node13"><a xlink:href="class_t_interface.html#a2f501868bbee2310af99bf2e8e265c59" target="_top" xlink:title=" ">
<polygon fill="white" stroke="black" points="677,-283.5 677,-313.5 819,-313.5 819,-283.5 677,-283.5"/>
<text text-anchor="start" x="685" y="-301.5" font-family="Helvetica,sans-Serif" font-size="10.00">TInterface::ValidateTimetable</text>
<text text-anchor="middle" x="748" y="-290.5" font-family="Helvetica,sans-Serif" font-size="10.00">ButtonClick</text>
</a>
</g>
</g>
<!-- Node12&#45;&gt;Node13 -->
<g id="edge13" class="edge">
<title>Node12&#45;&gt;Node13</title>
<path fill="none" stroke="midnightblue" d="M855.52,-312.74C843.54,-311.14 831.14,-309.48 819.23,-307.89"/>
<polygon fill="midnightblue" stroke="midnightblue" points="855.09,-316.22 865.47,-314.07 856.02,-309.28 855.09,-316.22"/>
</g>
<!-- Node14&#45;&gt;Node6 -->
<g id="edge15" class="edge">
<title>Node14&#45;&gt;Node6</title>
<path fill="none" stroke="midnightblue" d="M863.48,-206.75C844.03,-201.44 822.89,-195.67 804.14,-190.55"/>
<polygon fill="midnightblue" stroke="midnightblue" points="862.61,-210.14 873.18,-209.4 864.45,-203.39 862.61,-210.14"/>
</g>
<!-- Node14&#45;&gt;Node11 -->
<g id="edge16" class="edge">
<title>Node14&#45;&gt;Node11</title>
<path fill="none" stroke="midnightblue" d="M853.1,-224.5C839.43,-224.5 825.3,-224.5 812.04,-224.5"/>
<polygon fill="midnightblue" stroke="midnightblue" points="853.44,-228 863.44,-224.5 853.44,-221 853.44,-228"/>
</g>
<!-- Node14&#45;&gt;Node13 -->
<g id="edge17" class="edge">
<title>Node14&#45;&gt;Node13</title>
<path fill="none" stroke="midnightblue" d="M872.18,-242.98C866.34,-245.09 860.53,-247.29 855,-249.5 829.02,-259.89 800.25,-273.32 779.24,-283.49"/>
<polygon fill="midnightblue" stroke="midnightblue" points="873.71,-246.15 881.96,-239.5 871.37,-239.55 873.71,-246.15"/>
</g>
<!-- Node16&#45;&gt;Node1 -->
<g id="edge31" class="edge">
<title>Node16&#45;&gt;Node1</title>
<path fill="none" stroke="midnightblue" d="M1498.81,-171.75C1512.98,-177.96 1530,-184.72 1545,-191.5 1564.23,-200.19 1585.03,-210.7 1602.73,-219.34"/>
<polygon fill="midnightblue" stroke="midnightblue" points="1500.07,-168.48 1489.52,-167.55 1497.19,-174.86 1500.07,-168.48"/>
</g>
<!-- Node16&#45;&gt;Node3 -->
<g id="edge28" class="edge">
<title>Node16&#45;&gt;Node3</title>
<path fill="none" stroke="midnightblue" d="M1441.91,-174.35C1401.4,-210.36 1322.22,-280.75 1293.09,-306.64"/>
<polygon fill="midnightblue" stroke="midnightblue" points="1444.32,-176.89 1449.47,-167.63 1439.67,-171.66 1444.32,-176.89"/>
</g>
<!-- Node17 -->
<g id="node17" class="node">
<title>Node17</title>
<g id="a_node17"><a xlink:href="class_t_interface_1_1_t_service_info.html#a8d793f56e3f1752f520ef780ab868915" target="_top" xlink:title=" ">
<polygon fill="white" stroke="black" points="1223,-49.5 1223,-79.5 1339,-79.5 1339,-49.5 1223,-49.5"/>
<text text-anchor="start" x="1231" y="-67.5" font-family="Helvetica,sans-Serif" font-size="10.00">TInterface::TServiceInfo</text>
<text text-anchor="middle" x="1281" y="-56.5" font-family="Helvetica,sans-Serif" font-size="10.00">::CheckOK</text>
</a>
</g>
</g>
<!-- Node16&#45;&gt;Node17 -->
<g id="edge20" class="edge">
<title>Node16&#45;&gt;Node17</title>
<path fill="none" stroke="midnightblue" d="M1425.64,-133.01C1391.85,-116.89 1344.56,-94.34 1313.61,-79.58"/>
<polygon fill="midnightblue" stroke="midnightblue" points="1424.25,-136.23 1434.78,-137.37 1427.26,-129.91 1424.25,-136.23"/>
</g>
<!-- Node22 -->
<g id="node22" class="node">
<title>Node22</title>
<g id="a_node22"><a xlink:href="class_t_train_controller.html#a4ab4b6a568064d27c65f0770e5a5ccd0" target="_top" xlink:title="Examines the internal timetable (TrainDataVector) and creates from it a chronological (....">
<polygon fill="white" stroke="black" points="1221.5,-137.5 1221.5,-167.5 1340.5,-167.5 1340.5,-137.5 1221.5,-137.5"/>
<text text-anchor="start" x="1229.5" y="-155.5" font-family="Helvetica,sans-Serif" font-size="10.00">TTrainController::Create</text>
<text text-anchor="middle" x="1281" y="-144.5" font-family="Helvetica,sans-Serif" font-size="10.00">FormattedTimetable</text>
</a>
</g>
</g>
<!-- Node16&#45;&gt;Node22 -->
<g id="edge25" class="edge">
<title>Node16&#45;&gt;Node22</title>
<path fill="none" stroke="midnightblue" d="M1387.13,-152.5C1371.56,-152.5 1355.49,-152.5 1340.74,-152.5"/>
<polygon fill="midnightblue" stroke="midnightblue" points="1387.27,-156 1397.27,-152.5 1387.27,-149 1387.27,-156"/>
</g>
<!-- Node16&#45;&gt;Node25 -->
<g id="edge29" class="edge">
<title>Node16&#45;&gt;Node25</title>
<path fill="none" stroke="midnightblue" d="M1393.55,-169.9C1369.13,-175.72 1342.82,-182 1321.89,-186.99"/>
<polygon fill="midnightblue" stroke="midnightblue" points="1394.61,-173.24 1403.52,-167.52 1392.98,-166.43 1394.61,-173.24"/>
</g>
<!-- Node18 -->
<g id="node18" class="node">
<title>Node18</title>
<g id="a_node18"><a xlink:href="class_t_interface.html#a9eecc715486e2c2f7adf3be4c3dfb7a4" target="_top" xlink:title="converse of BuildDatagramFromHostMap">
<polygon fill="white" stroke="black" points="1043.5,-49.5 1043.5,-79.5 1168.5,-79.5 1168.5,-49.5 1043.5,-49.5"/>
<text text-anchor="start" x="1051.5" y="-67.5" font-family="Helvetica,sans-Serif" font-size="10.00">TInterface::BuildDynamic</text>
<text text-anchor="middle" x="1106" y="-56.5" font-family="Helvetica,sans-Serif" font-size="10.00">MapFromHostDatagram</text>
</a>
</g>
</g>
<!-- Node17&#45;&gt;Node18 -->
<g id="edge21" class="edge">
<title>Node17&#45;&gt;Node18</title>
<path fill="none" stroke="midnightblue" d="M1212.49,-64.5C1198,-64.5 1182.77,-64.5 1168.53,-64.5"/>
<polygon fill="midnightblue" stroke="midnightblue" points="1212.87,-68 1222.87,-64.5 1212.87,-61 1212.87,-68"/>
</g>
<!-- Node20 -->
<g id="node20" class="node">
<title>Node20</title>
<g id="a_node20"><a xlink:href="class_t_interface.html#a3093de3a7faf5666443a5b8aba59ba7a" target="_top" xlink:title="Converse of BuildDatagramFromPlayerMap.">
<polygon fill="white" stroke="black" points="1042,-0.5 1042,-30.5 1170,-30.5 1170,-0.5 1042,-0.5"/>
<text text-anchor="start" x="1050" y="-18.5" font-family="Helvetica,sans-Serif" font-size="10.00">TInterface::BuildDynamic</text>
<text text-anchor="middle" x="1106" y="-7.5" font-family="Helvetica,sans-Serif" font-size="10.00">MapFromPlayerDatagram</text>
</a>
</g>
</g>
<!-- Node17&#45;&gt;Node20 -->
<g id="edge23" class="edge">
<title>Node17&#45;&gt;Node20</title>
<path fill="none" stroke="midnightblue" d="M1216.82,-46.61C1198.22,-41.34 1178.05,-35.62 1160.14,-30.55"/>
<polygon fill="midnightblue" stroke="midnightblue" points="1216.11,-50.04 1226.68,-49.4 1218.01,-43.31 1216.11,-50.04"/>
</g>
<!-- Node19 -->
<g id="node19" class="node">
<title>Node19</title>
<g id="a_node19"><a xlink:href="class_t_interface.html#a7026d6ca5ea0bad9f6e0f8a0494ff2c9" target="_top" xlink:title="called in ClockTimer2 if player multiplay in progress">
<polygon fill="white" stroke="black" points="855,-49.5 855,-79.5 1004,-79.5 1004,-49.5 855,-49.5"/>
<text text-anchor="start" x="863" y="-67.5" font-family="Helvetica,sans-Serif" font-size="10.00">TInterface::PlayerHandshaking</text>
<text text-anchor="middle" x="929.5" y="-56.5" font-family="Helvetica,sans-Serif" font-size="10.00">Actions</text>
</a>
</g>
</g>
<!-- Node18&#45;&gt;Node19 -->
<g id="edge22" class="edge">
<title>Node18&#45;&gt;Node19</title>
<path fill="none" stroke="midnightblue" d="M1033.47,-64.5C1023.76,-64.5 1013.77,-64.5 1004.02,-64.5"/>
<polygon fill="midnightblue" stroke="midnightblue" points="1033.48,-68 1043.48,-64.5 1033.48,-61 1033.48,-68"/>
</g>
<!-- Node21 -->
<g id="node21" class="node">
<title>Node21</title>
<g id="a_node21"><a xlink:href="class_t_interface.html#acac9a55c2f96cb2c2d0bb8b8f0bf3d19" target="_top" xlink:title="called in ClockTimer2 if host multiplay in progress">
<polygon fill="white" stroke="black" points="859,-0.5 859,-30.5 1000,-30.5 1000,-0.5 859,-0.5"/>
<text text-anchor="start" x="867" y="-18.5" font-family="Helvetica,sans-Serif" font-size="10.00">TInterface::HostHandshaking</text>
<text text-anchor="middle" x="929.5" y="-7.5" font-family="Helvetica,sans-Serif" font-size="10.00">Actions</text>
</a>
</g>
</g>
<!-- Node20&#45;&gt;Node21 -->
<g id="edge24" class="edge">
<title>Node20&#45;&gt;Node21</title>
<path fill="none" stroke="midnightblue" d="M1031.29,-15.5C1020.97,-15.5 1010.38,-15.5 1000.14,-15.5"/>
<polygon fill="midnightblue" stroke="midnightblue" points="1031.51,-19 1041.51,-15.5 1031.51,-12 1031.51,-19"/>
</g>
<!-- Node23 -->
<g id="node23" class="node">
<title>Node23</title>
<g id="a_node23"><a xlink:href="class_t_interface.html#ab7c52bd31930036c95b9b71c2f1f0426" target="_top" xlink:title=" ">
<polygon fill="white" stroke="black" points="1040,-186.5 1040,-216.5 1172,-216.5 1172,-186.5 1040,-186.5"/>
<text text-anchor="start" x="1048" y="-204.5" font-family="Helvetica,sans-Serif" font-size="10.00">TInterface::ExportTTButton</text>
<text text-anchor="middle" x="1106" y="-193.5" font-family="Helvetica,sans-Serif" font-size="10.00">Click</text>
</a>
</g>
</g>
<!-- Node22&#45;&gt;Node23 -->
<g id="edge26" class="edge">
<title>Node22&#45;&gt;Node23</title>
<path fill="none" stroke="midnightblue" d="M1216.82,-170.39C1198.22,-175.66 1178.05,-181.38 1160.14,-186.45"/>
<polygon fill="midnightblue" stroke="midnightblue" points="1218.01,-173.69 1226.68,-167.6 1216.11,-166.96 1218.01,-173.69"/>
</g>
<!-- Node24 -->
<g id="node24" class="node">
<title>Node24</title>
<g id="a_node24"><a xlink:href="class_t_interface.html#a1bf4807428bf9fa4504be97d28642597" target="_top" xlink:title=" ">
<polygon fill="white" stroke="black" points="1042,-137.5 1042,-167.5 1170,-167.5 1170,-137.5 1042,-137.5"/>
<text text-anchor="start" x="1050" y="-155.5" font-family="Helvetica,sans-Serif" font-size="10.00">TInterface::ExportTTMenu</text>
<text text-anchor="middle" x="1106" y="-144.5" font-family="Helvetica,sans-Serif" font-size="10.00">ItemClick</text>
</a>
</g>
</g>
<!-- Node22&#45;&gt;Node24 -->
<g id="edge27" class="edge">
<title>Node22&#45;&gt;Node24</title>
<path fill="none" stroke="midnightblue" d="M1211.23,-152.5C1197.71,-152.5 1183.58,-152.5 1170.25,-152.5"/>
<polygon fill="midnightblue" stroke="midnightblue" points="1211.43,-156 1221.43,-152.5 1211.43,-149 1211.43,-156"/>
</g>
<!-- Node25&#45;&gt;Node4 -->
<g id="edge30" class="edge">
<title>Node25&#45;&gt;Node4</title>
<path fill="none" stroke="midnightblue" d="M1240.27,-209.24C1229.74,-212.75 1218.4,-216.66 1208,-220.5 1186.16,-228.56 1161.99,-238.34 1142.78,-246.33"/>
<polygon fill="midnightblue" stroke="midnightblue" points="1241.68,-212.46 1250.08,-206 1239.48,-205.81 1241.68,-212.46"/>
</g>
<!-- Node26&#45;&gt;Node3 -->
<g id="edge36" class="edge">
<title>Node26&#45;&gt;Node3</title>
<path fill="none" stroke="midnightblue" d="M1401.84,-395.74C1397.78,-394.1 1393.8,-392.35 1390,-390.5 1352.18,-372.12 1312.62,-341.66 1293.59,-326.18"/>
<polygon fill="midnightblue" stroke="midnightblue" points="1400.81,-399.1 1411.4,-399.39 1403.31,-392.55 1400.81,-399.1"/>
</g>
<!-- Node27 -->
<g id="node27" class="node">
<title>Node27</title>
<g id="a_node27"><a xlink:href="class_t_train.html#a23c65e7f2b2130ae87811f70afb6d5bf" target="_top" xlink:title="Create one train with relevant member values from the sesion file.">
<polygon fill="white" stroke="black" points="1209,-381 1209,-400 1353,-400 1353,-381 1209,-381"/>
<text text-anchor="middle" x="1281" y="-388" font-family="Helvetica,sans-Serif" font-size="10.00">TTrain::LoadOneSessionTrain</text>
</a>
</g>
</g>
<!-- Node26&#45;&gt;Node27 -->
<g id="edge33" class="edge">
<title>Node26&#45;&gt;Node27</title>
<path fill="none" stroke="midnightblue" d="M1379.8,-403.22C1370.85,-402.06 1361.84,-400.89 1353.09,-399.75"/>
<polygon fill="midnightblue" stroke="midnightblue" points="1379.49,-406.71 1389.86,-404.53 1380.39,-399.77 1379.49,-406.71"/>
</g>
<!-- Node28 -->
<g id="node28" class="node">
<title>Node28</title>
<g id="a_node28"><a xlink:href="class_t_train_controller.html#a853ddf9799c9fd7063c81ffa1dc754d7" target="_top" xlink:title="load trains from a session file">
<polygon fill="white" stroke="black" points="493,-302.5 493,-332.5 639,-332.5 639,-302.5 493,-302.5"/>
<text text-anchor="start" x="501" y="-320.5" font-family="Helvetica,sans-Serif" font-size="10.00">TTrainController::LoadSession</text>
<text text-anchor="middle" x="566" y="-309.5" font-family="Helvetica,sans-Serif" font-size="10.00">Trains</text>
</a>
</g>
</g>
<!-- Node27&#45;&gt;Node28 -->
<g id="edge34" class="edge">
<title>Node27&#45;&gt;Node28</title>
<path fill="none" stroke="midnightblue" d="M1198.77,-382.35C1113.23,-373.76 974.63,-359.78 855,-347.5 781.49,-339.95 697.44,-331.18 639.19,-325.08"/>
<polygon fill="midnightblue" stroke="midnightblue" points="1198.63,-385.86 1208.93,-383.37 1199.33,-378.89 1198.63,-385.86"/>
</g>
<!-- Node28&#45;&gt;Node7 -->
<g id="edge35" class="edge">
<title>Node28&#45;&gt;Node7</title>
<path fill="none" stroke="midnightblue" d="M530.16,-297.36C494.13,-276.52 439.4,-244.88 412.14,-229.12"/>
<polygon fill="midnightblue" stroke="midnightblue" points="528.48,-300.43 538.89,-302.4 531.98,-294.37 528.48,-300.43"/>
</g>
<!-- Node29&#45;&gt;Node3 -->
<g id="edge38" class="edge">
<title>Node29&#45;&gt;Node3</title>
<path fill="none" stroke="midnightblue" d="M1399.86,-347.8C1372.17,-340.45 1341.14,-332.21 1317.88,-326.03"/>
<polygon fill="midnightblue" stroke="midnightblue" points="1399.33,-351.28 1409.89,-350.47 1401.12,-344.52 1399.33,-351.28"/>
</g>
<!-- Node30&#45;&gt;Node4 -->
<g id="edge41" class="edge">
<title>Node30&#45;&gt;Node4</title>
<path fill="none" stroke="midnightblue" d="M1386.89,-270.06C1321.27,-268.06 1229.51,-265.25 1169.2,-263.4"/>
<polygon fill="midnightblue" stroke="midnightblue" points="1387.08,-273.57 1397.18,-270.38 1387.3,-266.57 1387.08,-273.57"/>
</g>
</g>
</svg>
