<?xml version="1.0" encoding="UTF-8" standalone="no"?>
<!DOCTYPE svg PUBLIC "-//W3C//DTD SVG 1.1//EN"
 "http://www.w3.org/Graphics/SVG/1.1/DTD/svg11.dtd">
<!-- Generated by graphviz version 2.44.1 (20200629.0800)
 -->
<!-- Title: TTrack::TrackClear Pages: 1 -->
<svg width="595pt" height="165pt"
 viewBox="0.00 0.00 595.00 164.80" xmlns="http://www.w3.org/2000/svg" xmlns:xlink="http://www.w3.org/1999/xlink">
<g id="graph0" class="graph" transform="scale(1 1) rotate(0) translate(4 160.8)">
<title>TTrack::TrackClear</title>
<polygon fill="white" stroke="transparent" points="-4,4 -4,-160.8 591,-160.8 591,4 -4,4"/>
<!-- Node1 -->
<g id="node1" class="node">
<title>Node1</title>
<g id="a_node1"><a xlink:title="Empty the track and inactive track vectors, the corresponding track maps, and LocationNameMultiMap.">
<polygon fill="#bfbfbf" stroke="black" points="0,-65.24 0,-84.24 98,-84.24 98,-65.24 0,-65.24"/>
<text text-anchor="middle" x="49" y="-72.24" font-family="Helvetica,sans-Serif" font-size="10.00">TTrack::TrackClear</text>
</a>
</g>
</g>
<!-- Node2 -->
<g id="node2" class="node">
<title>Node2</title>
<g id="a_node2"><a xlink:href="class_t_track.html#a20a28eaf0308f7aedcfc78ba9eeadea9" target="_top" xlink:title="Examine TrackVector, InactiveTrackVector and TextVector, and set the values that indicate the extent ...">
<polygon fill="white" stroke="black" points="134,-65.24 134,-84.24 259,-84.24 259,-65.24 134,-65.24"/>
<text text-anchor="middle" x="196.5" y="-72.24" font-family="Helvetica,sans-Serif" font-size="10.00">TTrack::CalcHLocMinEtc</text>
</a>
</g>
</g>
<!-- Node1&#45;&gt;Node2 -->
<g id="edge1" class="edge">
<title>Node1&#45;&gt;Node2</title>
<path fill="none" stroke="midnightblue" d="M98.05,-74.74C106.26,-74.74 114.94,-74.74 123.61,-74.74"/>
<polygon fill="midnightblue" stroke="midnightblue" points="123.75,-78.24 133.75,-74.74 123.75,-71.24 123.75,-78.24"/>
</g>
<!-- Node3 -->
<g id="node3" class="node">
<title>Node3</title>
<g id="a_node3"><a xlink:href="class_t_utilities.html#ae1eddca13cc3c492839e131f40ec21c0" target="_top" xlink:title="pops the last entry off the call stack, throws an error if called when empty">
<polygon fill="white" stroke="black" points="477,-103.24 477,-122.24 587,-122.24 587,-103.24 477,-103.24"/>
<text text-anchor="middle" x="532" y="-110.24" font-family="Helvetica,sans-Serif" font-size="10.00">TUtilities::CallLogPop</text>
</a>
</g>
</g>
<!-- Node1&#45;&gt;Node3 -->
<g id="edge13" class="edge">
<title>Node1&#45;&gt;Node3</title>
<path fill="none" stroke="midnightblue" d="M70.79,-84.41C129.17,-110.36 299.62,-177.67 441,-149.74 463.23,-145.35 486.88,-135.4 504.35,-126.92"/>
<polygon fill="midnightblue" stroke="midnightblue" points="506,-130.01 513.38,-122.41 502.87,-123.75 506,-130.01"/>
</g>
<!-- Node5 -->
<g id="node5" class="node">
<title>Node5</title>
<g id="a_node5"><a xlink:href="class_t_utilities.html#a34bd6bb5305bc29afdf424f6d35a921c" target="_top" xlink:title="creates a string of the form &#39;hh:mm:ss&#39; for use in call &amp; event logging">
<polygon fill="white" stroke="black" points="477,-27.24 477,-46.24 587,-46.24 587,-27.24 477,-27.24"/>
<text text-anchor="middle" x="532" y="-34.24" font-family="Helvetica,sans-Serif" font-size="10.00">TUtilities::TimeStamp</text>
</a>
</g>
</g>
<!-- Node1&#45;&gt;Node5 -->
<g id="edge14" class="edge">
<title>Node1&#45;&gt;Node5</title>
<path fill="none" stroke="midnightblue" d="M72.89,-65.19C133.11,-41.26 300.95,17.7 441,-5.74 461.3,-9.14 483.15,-16.57 500.24,-23.3"/>
<polygon fill="midnightblue" stroke="midnightblue" points="499.12,-26.63 509.7,-27.15 501.76,-20.14 499.12,-26.63"/>
</g>
<!-- Node2&#45;&gt;Node3 -->
<g id="edge2" class="edge">
<title>Node2&#45;&gt;Node3</title>
<path fill="none" stroke="midnightblue" d="M209.17,-84.39C226.57,-98.08 260.93,-122.52 295,-131.74 360.93,-149.6 440.71,-136.27 488.58,-124.71"/>
<polygon fill="midnightblue" stroke="midnightblue" points="489.44,-128.11 498.29,-122.29 487.74,-121.31 489.44,-128.11"/>
</g>
<!-- Node4 -->
<g id="node4" class="node">
<title>Node4</title>
<g id="a_node4"><a xlink:href="class_t_text_handler.html#ac478536f458d9cda8a841953672f6525" target="_top" xlink:title="return the text item at position &#39;At&#39; in TextVector (carries out range checking)">
<polygon fill="white" stroke="black" points="307.5,-103.24 307.5,-122.24 428.5,-122.24 428.5,-103.24 307.5,-103.24"/>
<text text-anchor="middle" x="368" y="-110.24" font-family="Helvetica,sans-Serif" font-size="10.00">TTextHandler::TextPtrAt</text>
</a>
</g>
</g>
<!-- Node2&#45;&gt;Node4 -->
<g id="edge3" class="edge">
<title>Node2&#45;&gt;Node4</title>
<path fill="none" stroke="midnightblue" d="M240.27,-84.33C262.84,-89.39 290.72,-95.64 314.58,-100.99"/>
<polygon fill="midnightblue" stroke="midnightblue" points="314.01,-104.45 324.54,-103.22 315.54,-97.62 314.01,-104.45"/>
</g>
<!-- Node2&#45;&gt;Node5 -->
<g id="edge9" class="edge">
<title>Node2&#45;&gt;Node5</title>
<path fill="none" stroke="midnightblue" d="M209.17,-65.09C226.57,-51.4 260.93,-26.97 295,-17.74 360.93,0.12 440.71,-13.22 488.58,-24.77"/>
<polygon fill="midnightblue" stroke="midnightblue" points="487.74,-28.17 498.29,-27.2 489.44,-21.38 487.74,-28.17"/>
</g>
<!-- Node6 -->
<g id="node6" class="node">
<title>Node6</title>
<g id="a_node6"><a xlink:href="class_t_text_handler.html#a7dfd4e30235878fb01e7387715e0cb0f" target="_top" xlink:title="return the number of items in TextVector">
<polygon fill="white" stroke="black" points="295,-65.24 295,-84.24 441,-84.24 441,-65.24 295,-65.24"/>
<text text-anchor="middle" x="368" y="-72.24" font-family="Helvetica,sans-Serif" font-size="10.00">TTextHandler::TextVectorSize</text>
</a>
</g>
</g>
<!-- Node2&#45;&gt;Node6 -->
<g id="edge6" class="edge">
<title>Node2&#45;&gt;Node6</title>
<path fill="none" stroke="midnightblue" d="M259.17,-74.74C267.47,-74.74 276.09,-74.74 284.68,-74.74"/>
<polygon fill="midnightblue" stroke="midnightblue" points="284.72,-78.24 294.72,-74.74 284.72,-71.24 284.72,-78.24"/>
</g>
<!-- Node7 -->
<g id="node7" class="node">
<title>Node7</title>
<g id="a_node7"><a xlink:href="class_t_track.html#a1092232428ee654facf8f53340c13f74" target="_top" xlink:title="A range&#45;checked version of UserGraphicVector.at(At)">
<polygon fill="white" stroke="black" points="296,-27.24 296,-46.24 440,-46.24 440,-27.24 296,-27.24"/>
<text text-anchor="middle" x="368" y="-34.24" font-family="Helvetica,sans-Serif" font-size="10.00">TTrack::UserGraphicVectorAt</text>
</a>
</g>
</g>
<!-- Node2&#45;&gt;Node7 -->
<g id="edge10" class="edge">
<title>Node2&#45;&gt;Node7</title>
<path fill="none" stroke="midnightblue" d="M240.27,-65.15C262.84,-60.09 290.72,-53.84 314.58,-48.49"/>
<polygon fill="midnightblue" stroke="midnightblue" points="315.54,-51.87 324.54,-46.26 314.01,-45.03 315.54,-51.87"/>
</g>
<!-- Node4&#45;&gt;Node3 -->
<g id="edge4" class="edge">
<title>Node4&#45;&gt;Node3</title>
<path fill="none" stroke="midnightblue" d="M428.86,-112.74C441.11,-112.74 454.06,-112.74 466.47,-112.74"/>
<polygon fill="midnightblue" stroke="midnightblue" points="466.74,-116.24 476.74,-112.74 466.74,-109.24 466.74,-116.24"/>
</g>
<!-- Node4&#45;&gt;Node5 -->
<g id="edge5" class="edge">
<title>Node4&#45;&gt;Node5</title>
<path fill="none" stroke="midnightblue" d="M413.89,-103.17C423.04,-100.59 432.47,-97.46 441,-93.74 466.26,-82.72 492.61,-65.22 510.22,-52.51"/>
<polygon fill="midnightblue" stroke="midnightblue" points="512.6,-55.11 518.58,-46.36 508.45,-49.47 512.6,-55.11"/>
</g>
<!-- Node6&#45;&gt;Node3 -->
<g id="edge7" class="edge">
<title>Node6&#45;&gt;Node3</title>
<path fill="none" stroke="midnightblue" d="M409.88,-84.33C431.35,-89.37 457.86,-95.59 480.6,-100.92"/>
<polygon fill="midnightblue" stroke="midnightblue" points="479.88,-104.35 490.41,-103.22 481.48,-97.53 479.88,-104.35"/>
</g>
<!-- Node6&#45;&gt;Node5 -->
<g id="edge8" class="edge">
<title>Node6&#45;&gt;Node5</title>
<path fill="none" stroke="midnightblue" d="M409.88,-65.15C431.35,-60.12 457.86,-53.9 480.6,-48.57"/>
<polygon fill="midnightblue" stroke="midnightblue" points="481.48,-51.95 490.41,-46.26 479.88,-45.14 481.48,-51.95"/>
</g>
<!-- Node7&#45;&gt;Node3 -->
<g id="edge11" class="edge">
<title>Node7&#45;&gt;Node3</title>
<path fill="none" stroke="midnightblue" d="M413.89,-46.31C423.04,-48.89 432.47,-52.02 441,-55.74 466.26,-66.76 492.61,-84.27 510.22,-96.97"/>
<polygon fill="midnightblue" stroke="midnightblue" points="508.45,-100.02 518.58,-103.12 512.6,-94.38 508.45,-100.02"/>
</g>
<!-- Node7&#45;&gt;Node5 -->
<g id="edge12" class="edge">
<title>Node7&#45;&gt;Node5</title>
<path fill="none" stroke="midnightblue" d="M440.06,-36.74C448.85,-36.74 457.81,-36.74 466.51,-36.74"/>
<polygon fill="midnightblue" stroke="midnightblue" points="466.56,-40.24 476.56,-36.74 466.56,-33.24 466.56,-40.24"/>
</g>
</g>
</svg>
