<?xml version="1.0" encoding="UTF-8" standalone="no"?>
<!DOCTYPE svg PUBLIC "-//W3C//DTD SVG 1.1//EN"
 "http://www.w3.org/Graphics/SVG/1.1/DTD/svg11.dtd">
<!-- Generated by graphviz version 2.44.1 (20200629.0800)
 -->
<!-- Title: TRailGraphics::ChangeSpecificColour Pages: 1 -->
<!--zoomable 357 -->
<svg id="main" version="1.1" xmlns="http://www.w3.org/2000/svg" xmlns:xlink="http://www.w3.org/1999/xlink" xml:space="preserve" onload="init(evt)">
<style type="text/css"><![CDATA[
.edge:hover path { stroke: red; }
.edge:hover polygon { stroke: red; fill: red; }
]]></style>
<script type="text/javascript"><![CDATA[
var edges = document.getElementsByTagName('g');
if (edges && edges.length) {
  for (var i=0;i<edges.length;i++) {
    if (edges[i].id.substr(0,4)=='edge') {
      edges[i].setAttribute('class','edge');
    }
  }
}
]]></script>
        <defs>
                <circle id="rim" cx="0" cy="0" r="7"/>
                <circle id="rim2" cx="0" cy="0" r="3.5"/>
                <g id="zoomPlus">
                        <use xlink:href="#rim" fill="#404040">
                                <set attributeName="fill" to="#808080" begin="zoomplus.mouseover" end="zoomplus.mouseout"/>
                        </use>
                        <path d="M-4,0h8M0,-4v8" fill="none" stroke="white" stroke-width="1.5" pointer-events="none"/>
                </g>
                <g id="zoomMin">
                        <use xlink:href="#rim" fill="#404040">
                                <set attributeName="fill" to="#808080" begin="zoomminus.mouseover" end="zoomminus.mouseout"/>
                        </use>
                        <path d="M-4,0h8" fill="none" stroke="white" stroke-width="1.5" pointer-events="none"/>
                </g>
                <g id="dirArrow">
                        <path fill="none" stroke="white" stroke-width="1.5" d="M0,-3.0v7 M-2.5,-0.5L0,-3.0L2.5,-0.5"/>
                </g>
               <g id="resetDef">
                       <use xlink:href="#rim2" fill="#404040">
                               <set attributeName="fill" to="#808080" begin="reset.mouseover" end="reset.mouseout"/>
                       </use>
               </g>
        </defs>

<script type="text/javascript">
var viewWidth = 857;
var viewHeight = 357;
var sectionId = 'dynsection-13';
</script>
<script xlink:href="svgpan.js"/>
<svg id="graph" class="graph">
<g id="viewport">
<title>TRailGraphics::ChangeSpecificColour</title>
<polygon fill="white" stroke="transparent" points="-4,4 -4,-352.5 853,-352.5 853,4 -4,4"/>
<!-- Node1 -->
<g id="node1" class="node">
<title>Node1</title>
<g id="a_node1"><a xlink:title=" ">
<polygon fill="#bfbfbf" stroke="black" points="698,-116 698,-146 849,-146 849,-116 698,-116"/>
<text text-anchor="start" x="706" y="-134" font-family="Helvetica,sans-Serif" font-size="10.00">TRailGraphics::ChangeSpecific</text>
<text text-anchor="middle" x="773.5" y="-123" font-family="Helvetica,sans-Serif" font-size="10.00">Colour</text>
</a>
</g>
</g>
<!-- Node2 -->
<g id="node2" class="node">
<title>Node2</title>
<g id="a_node2"><a xlink:href="class_t_rail_graphics.html#a5121c6d8b8fa69eefc293ca51cddce88" target="_top" xlink:title=" ">
<polygon fill="white" stroke="black" points="534,-181 534,-211 662,-211 662,-181 534,-181"/>
<text text-anchor="start" x="542" y="-199" font-family="Helvetica,sans-Serif" font-size="10.00">TRailGraphics::ChangeAll</text>
<text text-anchor="middle" x="598" y="-188" font-family="Helvetica,sans-Serif" font-size="10.00">TransparentColours</text>
</a>
</g>
</g>
<!-- Node1&#45;&gt;Node2 -->
<g id="edge1" class="edge">
<title>Node1&#45;&gt;Node2</title>
<path fill="none" stroke="midnightblue" d="M722.79,-149.62C696.33,-159.54 664.21,-171.57 639.32,-180.89"/>
<polygon fill="midnightblue" stroke="midnightblue" points="724.12,-152.86 732.26,-146.08 721.67,-146.31 724.12,-152.86"/>
</g>
<!-- Node13 -->
<g id="node13" class="node">
<title>Node13</title>
<g id="a_node13"><a xlink:href="class_t_train.html#a89ad640ecf8f5163c40727b4e28575fc" target="_top" xlink:title="Major function called at each clock tick for each train &amp; handles all train movement &amp; associated act...">
<polygon fill="white" stroke="black" points="547.5,-99.5 547.5,-118.5 648.5,-118.5 648.5,-99.5 547.5,-99.5"/>
<text text-anchor="middle" x="598" y="-106.5" font-family="Helvetica,sans-Serif" font-size="10.00">TTrain::UpdateTrain</text>
</a>
</g>
</g>
<!-- Node1&#45;&gt;Node13 -->
<g id="edge12" class="edge">
<title>Node1&#45;&gt;Node13</title>
<path fill="none" stroke="midnightblue" d="M687.73,-120.25C674.37,-118.56 660.94,-116.85 648.73,-115.31"/>
<polygon fill="midnightblue" stroke="midnightblue" points="687.55,-123.76 697.91,-121.54 688.43,-116.81 687.55,-123.76"/>
</g>
<!-- Node3 -->
<g id="node3" class="node">
<title>Node3</title>
<g id="a_node3"><a xlink:href="class_t_interface.html#a237c151513ca8adca6cd1006cc2fc66f" target="_top" xlink:title=" ">
<polygon fill="white" stroke="black" points="359.5,-318 359.5,-348 495.5,-348 495.5,-318 359.5,-318"/>
<text text-anchor="start" x="367.5" y="-336" font-family="Helvetica,sans-Serif" font-size="10.00">TInterface::BlackBgndMenu</text>
<text text-anchor="middle" x="427.5" y="-325" font-family="Helvetica,sans-Serif" font-size="10.00">ItemClick</text>
</a>
</g>
</g>
<!-- Node2&#45;&gt;Node3 -->
<g id="edge2" class="edge">
<title>Node2&#45;&gt;Node3</title>
<path fill="none" stroke="midnightblue" d="M582.06,-219.36C564.7,-244.75 533.82,-284.92 498,-309 492.92,-312.42 487.29,-315.4 481.52,-317.99"/>
<polygon fill="midnightblue" stroke="midnightblue" points="584.97,-221.3 587.62,-211.04 579.15,-217.41 584.97,-221.3"/>
</g>
<!-- Node4 -->
<g id="node4" class="node">
<title>Node4</title>
<g id="a_node4"><a xlink:href="class_t_interface.html#a24d79aa4745e495daa07bb5ce412e75f" target="_top" xlink:title=" ">
<polygon fill="white" stroke="black" points="362,-269 362,-299 493,-299 493,-269 362,-269"/>
<text text-anchor="start" x="370" y="-287" font-family="Helvetica,sans-Serif" font-size="10.00">TInterface::BlueBgndMenu</text>
<text text-anchor="middle" x="427.5" y="-276" font-family="Helvetica,sans-Serif" font-size="10.00">ItemClick</text>
</a>
</g>
</g>
<!-- Node2&#45;&gt;Node4 -->
<g id="edge3" class="edge">
<title>Node2&#45;&gt;Node4</title>
<path fill="none" stroke="midnightblue" d="M567.85,-216.97C548.65,-230.18 522.59,-246.94 498,-259 490.75,-262.56 482.85,-265.88 475.08,-268.86"/>
<polygon fill="midnightblue" stroke="midnightblue" points="569.96,-219.77 576.17,-211.19 565.96,-214.03 569.96,-219.77"/>
</g>
<!-- Node5 -->
<g id="node5" class="node">
<title>Node5</title>
<g id="a_node5"><a xlink:href="class_t_interface.html#a0659e748042e378f3e325652c9c2e6d2" target="_top" xlink:title="constructor">
<polygon fill="white" stroke="black" points="374,-230.5 374,-249.5 481,-249.5 481,-230.5 374,-230.5"/>
<text text-anchor="middle" x="427.5" y="-237.5" font-family="Helvetica,sans-Serif" font-size="10.00">TInterface::TInterface</text>
</a>
</g>
</g>
<!-- Node2&#45;&gt;Node5 -->
<g id="edge4" class="edge">
<title>Node2&#45;&gt;Node5</title>
<path fill="none" stroke="midnightblue" d="M529.78,-213.55C507.65,-219.33 483.88,-225.54 464.93,-230.49"/>
<polygon fill="midnightblue" stroke="midnightblue" points="530.69,-216.93 539.48,-211.02 528.92,-210.16 530.69,-216.93"/>
</g>
<!-- Node6 -->
<g id="node6" class="node">
<title>Node6</title>
<g id="a_node6"><a xlink:href="class_t_interface.html#a3a9f9cf4b530f7958ee3d14047fd951a" target="_top" xlink:title=" ">
<polygon fill="white" stroke="black" points="359,-181 359,-211 496,-211 496,-181 359,-181"/>
<text text-anchor="start" x="367" y="-199" font-family="Helvetica,sans-Serif" font-size="10.00">TInterface::WhiteBgndMenu</text>
<text text-anchor="middle" x="427.5" y="-188" font-family="Helvetica,sans-Serif" font-size="10.00">ItemClick</text>
</a>
</g>
</g>
<!-- Node2&#45;&gt;Node6 -->
<g id="edge5" class="edge">
<title>Node2&#45;&gt;Node6</title>
<path fill="none" stroke="midnightblue" d="M523.55,-196C514.4,-196 505.08,-196 496.02,-196"/>
<polygon fill="midnightblue" stroke="midnightblue" points="523.78,-199.5 533.78,-196 523.78,-192.5 523.78,-199.5"/>
</g>
<!-- Node7 -->
<g id="node7" class="node">
<title>Node7</title>
<g id="a_node7"><a xlink:href="class_t_track.html#afb6bf873ba2e4107cf462f9d42dbe33f" target="_top" xlink:title="Called by TInterface::SaveOperatingImage1Click to add all track element graphics to the image file in...">
<polygon fill="white" stroke="black" points="357,-132 357,-162 498,-162 498,-132 357,-132"/>
<text text-anchor="start" x="365" y="-150" font-family="Helvetica,sans-Serif" font-size="10.00">TTrack::WriteOperatingTrack</text>
<text text-anchor="middle" x="427.5" y="-139" font-family="Helvetica,sans-Serif" font-size="10.00">ToImage</text>
</a>
</g>
</g>
<!-- Node2&#45;&gt;Node7 -->
<g id="edge6" class="edge">
<title>Node2&#45;&gt;Node7</title>
<path fill="none" stroke="midnightblue" d="M535.47,-178.11C517.34,-172.84 497.7,-167.12 480.26,-162.05"/>
<polygon fill="midnightblue" stroke="midnightblue" points="534.49,-181.47 545.07,-180.9 536.44,-174.75 534.49,-181.47"/>
</g>
<!-- Node9 -->
<g id="node9" class="node">
<title>Node9</title>
<g id="a_node9"><a xlink:href="class_t_track.html#ab3530b4af2a4b2a9cd1c1b480a19298d" target="_top" xlink:title="Called by TInterface::SaveImageNoGrid1Click, TInterface::SaveImageAndGrid1Click and TInterface::SaveI...">
<polygon fill="white" stroke="black" points="359.5,-93.5 359.5,-112.5 495.5,-112.5 495.5,-93.5 359.5,-93.5"/>
<text text-anchor="middle" x="427.5" y="-100.5" font-family="Helvetica,sans-Serif" font-size="10.00">TTrack::WriteTrackToImage</text>
</a>
</g>
</g>
<!-- Node2&#45;&gt;Node9 -->
<g id="edge8" class="edge">
<title>Node2&#45;&gt;Node9</title>
<path fill="none" stroke="midnightblue" d="M572.72,-174.24C553.61,-158.1 525.66,-136.63 498,-123 489.44,-118.78 479.84,-115.31 470.57,-112.5"/>
<polygon fill="midnightblue" stroke="midnightblue" points="570.48,-176.93 580.35,-180.79 575.04,-171.62 570.48,-176.93"/>
</g>
<!-- Node8 -->
<g id="node8" class="node">
<title>Node8</title>
<g id="a_node8"><a xlink:href="class_t_interface.html#a4d75015545313004ffd5022c020f4edf" target="_top" xlink:title=" ">
<polygon fill="white" stroke="black" points="186,-186 186,-216 314,-216 314,-186 186,-186"/>
<text text-anchor="start" x="194" y="-204" font-family="Helvetica,sans-Serif" font-size="10.00">TInterface::SaveOperating</text>
<text text-anchor="middle" x="250" y="-193" font-family="Helvetica,sans-Serif" font-size="10.00">ImageMenuItemClick</text>
</a>
</g>
</g>
<!-- Node7&#45;&gt;Node8 -->
<g id="edge7" class="edge">
<title>Node7&#45;&gt;Node8</title>
<path fill="none" stroke="midnightblue" d="M368.01,-165C345.93,-171.79 321.05,-179.45 299.93,-185.95"/>
<polygon fill="midnightblue" stroke="midnightblue" points="369.08,-168.33 377.61,-162.04 367.03,-161.64 369.08,-168.33"/>
</g>
<!-- Node10 -->
<g id="node10" class="node">
<title>Node10</title>
<g id="a_node10"><a xlink:href="class_t_interface.html#a14d8976ee13c85f12eab634de845baf1" target="_top" xlink:title=" ">
<polygon fill="white" stroke="black" points="185.5,-137 185.5,-167 314.5,-167 314.5,-137 185.5,-137"/>
<text text-anchor="start" x="193.5" y="-155" font-family="Helvetica,sans-Serif" font-size="10.00">TInterface::SaveImageAnd</text>
<text text-anchor="middle" x="250" y="-144" font-family="Helvetica,sans-Serif" font-size="10.00">GridMenuItemClick</text>
</a>
</g>
</g>
<!-- Node9&#45;&gt;Node10 -->
<g id="edge9" class="edge">
<title>Node9&#45;&gt;Node10</title>
<path fill="none" stroke="midnightblue" d="M382.53,-115.28C358.97,-121.85 329.76,-130.01 304.86,-136.96"/>
<polygon fill="midnightblue" stroke="midnightblue" points="383.55,-118.62 392.25,-112.56 381.67,-111.88 383.55,-118.62"/>
</g>
<!-- Node11 -->
<g id="node11" class="node">
<title>Node11</title>
<g id="a_node11"><a xlink:href="class_t_interface.html#ab73377784e302350bcc4f1fed4f8d90a" target="_top" xlink:title=" ">
<polygon fill="white" stroke="black" points="185.5,-88 185.5,-118 314.5,-118 314.5,-88 185.5,-88"/>
<text text-anchor="start" x="193.5" y="-106" font-family="Helvetica,sans-Serif" font-size="10.00">TInterface::SaveImageAnd</text>
<text text-anchor="middle" x="250" y="-95" font-family="Helvetica,sans-Serif" font-size="10.00">PrefDirsMenuItemClick</text>
</a>
</g>
</g>
<!-- Node9&#45;&gt;Node11 -->
<g id="edge10" class="edge">
<title>Node9&#45;&gt;Node11</title>
<path fill="none" stroke="midnightblue" d="M349.3,-103C337.7,-103 325.86,-103 314.6,-103"/>
<polygon fill="midnightblue" stroke="midnightblue" points="349.4,-106.5 359.4,-103 349.4,-99.5 349.4,-106.5"/>
</g>
<!-- Node12 -->
<g id="node12" class="node">
<title>Node12</title>
<g id="a_node12"><a xlink:href="class_t_interface.html#a69b645fe4cc36d0bea7de3fca553bd6a" target="_top" xlink:title=" ">
<polygon fill="white" stroke="black" points="179,-39 179,-69 321,-69 321,-39 179,-39"/>
<text text-anchor="start" x="187" y="-57" font-family="Helvetica,sans-Serif" font-size="10.00">TInterface::SaveImageNoGrid</text>
<text text-anchor="middle" x="250" y="-46" font-family="Helvetica,sans-Serif" font-size="10.00">MenuItemClick</text>
</a>
</g>
</g>
<!-- Node9&#45;&gt;Node12 -->
<g id="edge11" class="edge">
<title>Node9&#45;&gt;Node12</title>
<path fill="none" stroke="midnightblue" d="M382.53,-90.72C358.97,-84.15 329.76,-75.99 304.86,-69.04"/>
<polygon fill="midnightblue" stroke="midnightblue" points="381.67,-94.12 392.25,-93.44 383.55,-87.38 381.67,-94.12"/>
</g>
<!-- Node14 -->
<g id="node14" class="node">
<title>Node14</title>
<g id="a_node14"><a xlink:href="class_t_train_controller.html#a20a1576dea1d86ed78fc5e9f46343481" target="_top" xlink:title="called every clock tick to introduce new trains and update existing trains">
<polygon fill="white" stroke="black" points="365,-28.5 365,-47.5 490,-47.5 490,-28.5 365,-28.5"/>
<text text-anchor="middle" x="427.5" y="-35.5" font-family="Helvetica,sans-Serif" font-size="10.00">TTrainController::Operate</text>
</a>
</g>
</g>
<!-- Node13&#45;&gt;Node14 -->
<g id="edge13" class="edge">
<title>Node13&#45;&gt;Node14</title>
<path fill="none" stroke="midnightblue" d="M564.98,-95.51C531.69,-81.48 480.44,-59.89 451.13,-47.54"/>
<polygon fill="midnightblue" stroke="midnightblue" points="563.7,-98.77 574.28,-99.42 566.42,-92.32 563.7,-98.77"/>
</g>
<!-- Node15 -->
<g id="node15" class="node">
<title>Node15</title>
<g id="a_node15"><a xlink:href="class_t_interface.html#a6139ffb52492eb89e5487a8a3cd647b5" target="_top" xlink:title="The main loop, called every clock tick via MasterClockTimer.">
<polygon fill="white" stroke="black" points="190.5,-0.5 190.5,-19.5 309.5,-19.5 309.5,-0.5 190.5,-0.5"/>
<text text-anchor="middle" x="250" y="-7.5" font-family="Helvetica,sans-Serif" font-size="10.00">TInterface::ClockTimer2</text>
</a>
</g>
</g>
<!-- Node14&#45;&gt;Node15 -->
<g id="edge14" class="edge">
<title>Node14&#45;&gt;Node15</title>
<path fill="none" stroke="midnightblue" d="M356.54,-26.84C341.03,-24.36 324.75,-21.77 309.74,-19.37"/>
<polygon fill="midnightblue" stroke="midnightblue" points="356.17,-30.32 366.59,-28.44 357.27,-23.41 356.17,-30.32"/>
</g>
<!-- Node16 -->
<g id="node16" class="node">
<title>Node16</title>
<g id="a_node16"><a xlink:href="class_t_interface.html#ace30a12d923fc7fb489afabb0a09aa4f" target="_top" xlink:title=" ">
<polygon fill="white" stroke="black" points="0,-0.5 0,-19.5 143,-19.5 143,-0.5 0,-0.5"/>
<text text-anchor="middle" x="71.5" y="-7.5" font-family="Helvetica,sans-Serif" font-size="10.00">TInterface::MasterClockTimer</text>
</a>
</g>
</g>
<!-- Node15&#45;&gt;Node16 -->
<g id="edge15" class="edge">
<title>Node15&#45;&gt;Node16</title>
<path fill="none" stroke="midnightblue" d="M180.19,-10C168.08,-10 155.45,-10 143.28,-10"/>
<polygon fill="midnightblue" stroke="midnightblue" points="180.23,-13.5 190.23,-10 180.23,-6.5 180.23,-13.5"/>
</g>
</g>
</svg>
        <g id="navigator" transform="translate(0 0)" fill="#404254">
                <rect fill="#f2f5e9" fill-opacity="0.5" stroke="#606060" stroke-width=".5" x="0" y="0" width="60" height="60"/>
                <use id="zoomplus" xlink:href="#zoomPlus" x="17" y="9" onmousedown="handleZoom(evt,'in')"/>
                <use id="zoomminus" xlink:href="#zoomMin" x="42" y="9" onmousedown="handleZoom(evt,'out')"/>
                <use id="reset" xlink:href="#resetDef" x="30" y="36" onmousedown="handleReset()"/>
                <g id="arrowUp" xlink:href="#dirArrow" transform="translate(30 24)" onmousedown="handlePan(0,-1)">
                  <use xlink:href="#rim" fill="#404040">
                        <set attributeName="fill" to="#808080" begin="arrowUp.mouseover" end="arrowUp.mouseout"/>
                  </use>
                  <path fill="none" stroke="white" stroke-width="1.5" d="M0,-3.0v7 M-2.5,-0.5L0,-3.0L2.5,-0.5"/>
                </g>
                <g id="arrowRight" xlink:href="#dirArrow" transform="rotate(90) translate(36 -43)" onmousedown="handlePan(1,0)">
                  <use xlink:href="#rim" fill="#404040">
                        <set attributeName="fill" to="#808080" begin="arrowRight.mouseover" end="arrowRight.mouseout"/>
                  </use>
                  <path fill="none" stroke="white" stroke-width="1.5" d="M0,-3.0v7 M-2.5,-0.5L0,-3.0L2.5,-0.5"/>
                </g>
                <g id="arrowDown" xlink:href="#dirArrow" transform="rotate(180) translate(-30 -48)" onmousedown="handlePan(0,1)">
                  <use xlink:href="#rim" fill="#404040">
                        <set attributeName="fill" to="#808080" begin="arrowDown.mouseover" end="arrowDown.mouseout"/>
                  </use>
                  <path fill="none" stroke="white" stroke-width="1.5" d="M0,-3.0v7 M-2.5,-0.5L0,-3.0L2.5,-0.5"/>
                </g>
                <g id="arrowLeft" xlink:href="#dirArrow" transform="rotate(270) translate(-36 17)" onmousedown="handlePan(-1,0)">
                  <use xlink:href="#rim" fill="#404040">
                        <set attributeName="fill" to="#808080" begin="arrowLeft.mouseover" end="arrowLeft.mouseout"/>
                  </use>
                  <path fill="none" stroke="white" stroke-width="1.5" d="M0,-3.0v7 M-2.5,-0.5L0,-3.0L2.5,-0.5"/>
                </g>
        </g>
        <svg viewBox="0 0 15 15" width="100%" height="30px" preserveAspectRatio="xMaxYMin meet">
         <g id="arrow_out" transform="scale(0.3 0.3)">
          <a xlink:href="class_t_rail_graphics_ac4e48e6ee19e01724adb0d490762d548_icgraph_org.svg" target="_base">
           <rect id="button" ry="5" rx="5" y="6" x="6" height="38" width="38"
                fill="#f2f5e9" fill-opacity="0.5" stroke="#606060" stroke-width="1.0"/>
           <path id="arrow"
             d="M 11.500037,31.436501 C 11.940474,20.09759 22.043105,11.32322 32.158766,21.979434 L 37.068811,17.246167 C 37.068811,17.246167 37.088388,32 37.088388,32 L 22.160133,31.978069 C 22.160133,31.978069 26.997745,27.140456 26.997745,27.140456 C 18.528582,18.264221 13.291696,25.230495 11.500037,31.436501 z"
             style="fill:#404040;"/>
          </a>
         </g>
        </svg>
</svg>
