<?xml version="1.0" encoding="UTF-8" standalone="no"?>
<!DOCTYPE svg PUBLIC "-//W3C//DTD SVG 1.1//EN"
 "http://www.w3.org/Graphics/SVG/1.1/DTD/svg11.dtd">
<!-- Generated by graphviz version 2.44.1 (20200629.0800)
 -->
<!-- Title: TTrain::ResetTrainElementID Pages: 1 -->
<svg width="1159pt" height="427pt"
 viewBox="0.00 0.00 1159.00 426.57" xmlns="http://www.w3.org/2000/svg" xmlns:xlink="http://www.w3.org/1999/xlink">
<g id="graph0" class="graph" transform="scale(1 1) rotate(0) translate(4 422.57)">
<title>TTrain::ResetTrainElementID</title>
<polygon fill="white" stroke="transparent" points="-4,4 -4,-422.57 1155,-422.57 1155,4 -4,4"/>
<!-- Node1 -->
<g id="node1" class="node">
<title>Node1</title>
<g id="a_node1"><a xlink:title="After a train has moved off an element that element has its TrainIDOnElement value set back to &#45;1 to ...">
<polygon fill="#bfbfbf" stroke="black" points="1011,-307 1011,-326 1151,-326 1151,-307 1011,-307"/>
<text text-anchor="middle" x="1081" y="-314" font-family="Helvetica,sans-Serif" font-size="10.00">TTrain::ResetTrainElementID</text>
</a>
</g>
</g>
<!-- Node2 -->
<g id="node2" class="node">
<title>Node2</title>
<g id="a_node2"><a xlink:href="class_t_train.html#a4978a3050ca943076eb6cbd03eeee1d4" target="_top" xlink:title="Unplot train from screen in zoomed&#45;in mode.">
<polygon fill="white" stroke="black" points="877,-225 877,-244 975,-244 975,-225 877,-225"/>
<text text-anchor="middle" x="926" y="-232" font-family="Helvetica,sans-Serif" font-size="10.00">TTrain::UnplotTrain</text>
</a>
</g>
</g>
<!-- Node1&#45;&gt;Node2 -->
<g id="edge1" class="edge">
<title>Node1&#45;&gt;Node2</title>
<path fill="none" stroke="midnightblue" d="M1053.14,-302.1C1021.95,-285.39 971.39,-258.29 944.74,-244.01"/>
<polygon fill="midnightblue" stroke="midnightblue" points="1051.68,-305.29 1062.15,-306.93 1054.99,-299.12 1051.68,-305.29"/>
</g>
<!-- Node4 -->
<g id="node4" class="node">
<title>Node4</title>
<g id="a_node4"><a xlink:href="class_t_train.html#a89ad640ecf8f5163c40727b4e28575fc" target="_top" xlink:title="Major function called at each clock tick for each train &amp; handles all train movement &amp; associated act...">
<polygon fill="white" stroke="black" points="512.5,-269 512.5,-288 613.5,-288 613.5,-269 512.5,-269"/>
<text text-anchor="middle" x="563" y="-276" font-family="Helvetica,sans-Serif" font-size="10.00">TTrain::UpdateTrain</text>
</a>
</g>
</g>
<!-- Node1&#45;&gt;Node4 -->
<g id="edge24" class="edge">
<title>Node1&#45;&gt;Node4</title>
<path fill="none" stroke="midnightblue" d="M1051.77,-330.63C983.16,-362.93 803.31,-435.18 667,-379.5 620.63,-360.56 583.85,-309.57 569.97,-288.17"/>
<polygon fill="midnightblue" stroke="midnightblue" points="1053.56,-333.66 1061.06,-326.18 1050.53,-327.34 1053.56,-333.66"/>
</g>
<!-- Node3 -->
<g id="node3" class="node">
<title>Node3</title>
<g id="a_node3"><a xlink:href="class_t_train.html#a406c172a0ba96802ada1aa04d78948d0" target="_top" xlink:title="Reverses the direction of motion of the train.">
<polygon fill="white" stroke="black" points="683.5,-351 683.5,-370 824.5,-370 824.5,-351 683.5,-351"/>
<text text-anchor="middle" x="754" y="-358" font-family="Helvetica,sans-Serif" font-size="10.00">TTrain::ChangeTrainDirection</text>
</a>
</g>
</g>
<!-- Node2&#45;&gt;Node3 -->
<g id="edge2" class="edge">
<title>Node2&#45;&gt;Node3</title>
<path fill="none" stroke="midnightblue" d="M915.78,-252.93C902.63,-277.2 876.14,-319.4 841,-341.5 834.79,-345.41 827.88,-348.52 820.76,-350.99"/>
<polygon fill="midnightblue" stroke="midnightblue" points="918.91,-254.49 920.44,-244.01 912.7,-251.25 918.91,-254.49"/>
</g>
<!-- Node5 -->
<g id="node5" class="node">
<title>Node5</title>
<g id="a_node5"><a xlink:href="class_t_train_controller.html#a20a1576dea1d86ed78fc5e9f46343481" target="_top" xlink:title="called every clock tick to introduce new trains and update existing trains">
<polygon fill="white" stroke="black" points="334,-348 334,-367 459,-367 459,-348 334,-348"/>
<text text-anchor="middle" x="396.5" y="-355" font-family="Helvetica,sans-Serif" font-size="10.00">TTrainController::Operate</text>
</a>
</g>
</g>
<!-- Node2&#45;&gt;Node5 -->
<g id="edge13" class="edge">
<title>Node2&#45;&gt;Node5</title>
<path fill="none" stroke="midnightblue" d="M920.37,-254.09C911.42,-286.95 888.33,-352.22 841,-379.5 700.4,-460.54 491.16,-393.43 421.23,-367.02"/>
<polygon fill="midnightblue" stroke="midnightblue" points="923.78,-254.85 922.87,-244.3 917,-253.12 923.78,-254.85"/>
</g>
<!-- Node8 -->
<g id="node8" class="node">
<title>Node8</title>
<g id="a_node8"><a xlink:href="class_t_train.html#ad666fb061d1da7c44a72ec963c2098aa" target="_top" xlink:title="Carry out the actions needed when a train is to split from the front.">
<polygon fill="white" stroke="black" points="698,-313 698,-332 810,-332 810,-313 698,-313"/>
<text text-anchor="middle" x="754" y="-320" font-family="Helvetica,sans-Serif" font-size="10.00">TTrain::FrontTrainSplit</text>
</a>
</g>
</g>
<!-- Node2&#45;&gt;Node8 -->
<g id="edge7" class="edge">
<title>Node2&#45;&gt;Node8</title>
<path fill="none" stroke="midnightblue" d="M908.89,-251.76C893.1,-267.62 867.59,-290.57 841,-303.5 831.51,-308.11 820.89,-311.62 810.44,-314.28"/>
<polygon fill="midnightblue" stroke="midnightblue" points="911.77,-253.82 916.21,-244.2 906.74,-248.95 911.77,-253.82"/>
</g>
<!-- Node9 -->
<g id="node9" class="node">
<title>Node9</title>
<g id="a_node9"><a xlink:href="class_t_train.html#a56fcfe4b9a3cef988bbeb4f4766372aa" target="_top" xlink:title="Carry out the actions needed when a new shuttle service is created from a non&#45;repeating (F&#45;nshs) serv...">
<polygon fill="white" stroke="black" points="685,-263.5 685,-293.5 823,-293.5 823,-263.5 685,-263.5"/>
<text text-anchor="start" x="693" y="-281.5" font-family="Helvetica,sans-Serif" font-size="10.00">TTrain::NewShuttleFromNon</text>
<text text-anchor="middle" x="754" y="-270.5" font-family="Helvetica,sans-Serif" font-size="10.00">RepeatService</text>
</a>
</g>
</g>
<!-- Node2&#45;&gt;Node9 -->
<g id="edge9" class="edge">
<title>Node2&#45;&gt;Node9</title>
<path fill="none" stroke="midnightblue" d="M878.26,-246.6C858.15,-251.8 834.44,-257.94 813.21,-263.43"/>
<polygon fill="midnightblue" stroke="midnightblue" points="879.31,-249.94 888.11,-244.05 877.55,-243.16 879.31,-249.94"/>
</g>
<!-- Node10 -->
<g id="node10" class="node">
<title>Node10</title>
<g id="a_node10"><a xlink:href="class_t_train.html#a75a2e9017b96e2a8f2a1edbd01c2cd68" target="_top" xlink:title="Carry out the actions needed when a train forms a new service (code Fns)">
<polygon fill="white" stroke="black" points="694,-225 694,-244 814,-244 814,-225 694,-225"/>
<text text-anchor="middle" x="754" y="-232" font-family="Helvetica,sans-Serif" font-size="10.00">TTrain::NewTrainService</text>
</a>
</g>
</g>
<!-- Node2&#45;&gt;Node10 -->
<g id="edge11" class="edge">
<title>Node2&#45;&gt;Node10</title>
<path fill="none" stroke="midnightblue" d="M866.46,-234.5C849.6,-234.5 831.18,-234.5 814.27,-234.5"/>
<polygon fill="midnightblue" stroke="midnightblue" points="866.74,-238 876.74,-234.5 866.74,-231 866.74,-238"/>
</g>
<!-- Node11 -->
<g id="node11" class="node">
<title>Node11</title>
<g id="a_node11"><a xlink:href="class_t_train.html#ad64c5823265b0c611c2e5f0613317aa5" target="_top" xlink:title="Carry out the actions needed when a train is to split from the rear.">
<polygon fill="white" stroke="black" points="699,-187 699,-206 809,-206 809,-187 699,-187"/>
<text text-anchor="middle" x="754" y="-194" font-family="Helvetica,sans-Serif" font-size="10.00">TTrain::RearTrainSplit</text>
</a>
</g>
</g>
<!-- Node2&#45;&gt;Node11 -->
<g id="edge14" class="edge">
<title>Node2&#45;&gt;Node11</title>
<path fill="none" stroke="midnightblue" d="M873.14,-222.73C862.51,-220.33 851.39,-217.82 841,-215.5 827.12,-212.4 811.98,-209.04 798.32,-206.03"/>
<polygon fill="midnightblue" stroke="midnightblue" points="872.61,-226.2 883.14,-224.99 874.16,-219.37 872.61,-226.2"/>
</g>
<!-- Node12 -->
<g id="node12" class="node">
<title>Node12</title>
<g id="a_node12"><a xlink:href="class_t_train.html#a8262f447ec811db7e524c7bb885226c5" target="_top" xlink:title="Carry out the actions needed to create either a new shuttle service or (if all repeats have finished)...">
<polygon fill="white" stroke="black" points="684,-137.5 684,-167.5 824,-167.5 824,-137.5 684,-137.5"/>
<text text-anchor="start" x="692" y="-155.5" font-family="Helvetica,sans-Serif" font-size="10.00">TTrain::RepeatShuttleOrNew</text>
<text text-anchor="middle" x="754" y="-144.5" font-family="Helvetica,sans-Serif" font-size="10.00">NonRepeatService</text>
</a>
</g>
</g>
<!-- Node2&#45;&gt;Node12 -->
<g id="edge16" class="edge">
<title>Node2&#45;&gt;Node12</title>
<path fill="none" stroke="midnightblue" d="M905.25,-218.46C888.88,-205.84 864.55,-188.57 841,-177.5 833.12,-173.79 824.57,-170.51 816.03,-167.65"/>
<polygon fill="midnightblue" stroke="midnightblue" points="903.45,-221.5 913.48,-224.93 907.78,-216 903.45,-221.5"/>
</g>
<!-- Node13 -->
<g id="node13" class="node">
<title>Node13</title>
<g id="a_node13"><a xlink:href="class_t_train.html#ac6f5cda912103fda4da31bdca611e4b5" target="_top" xlink:title="Carry out the actions needed to create either a new shuttle service or (if all repeats have finished)...">
<polygon fill="white" stroke="black" points="667,-99 667,-118 841,-118 841,-99 667,-99"/>
<text text-anchor="middle" x="754" y="-106" font-family="Helvetica,sans-Serif" font-size="10.00">TTrain::RepeatShuttleOrRemainHere</text>
</a>
</g>
</g>
<!-- Node2&#45;&gt;Node13 -->
<g id="edge18" class="edge">
<title>Node2&#45;&gt;Node13</title>
<path fill="none" stroke="midnightblue" d="M915.5,-215.94C902.19,-191.9 875.69,-150.47 841,-128.5 834.14,-124.15 826.43,-120.75 818.52,-118.08"/>
<polygon fill="midnightblue" stroke="midnightblue" points="912.43,-217.63 920.23,-224.79 918.6,-214.32 912.43,-217.63"/>
</g>
<!-- Node14 -->
<g id="node14" class="node">
<title>Node14</title>
<g id="a_node14"><a xlink:href="class_t_train.html#affbb94aa088370056f8ca8c45a1fdd48" target="_top" xlink:title="Unplots &amp; replots train, which checks for facing signal and sets StoppedAtSignal if req&#39;d.">
<polygon fill="white" stroke="black" points="684,-49.5 684,-79.5 824,-79.5 824,-49.5 684,-49.5"/>
<text text-anchor="start" x="692" y="-67.5" font-family="Helvetica,sans-Serif" font-size="10.00">TTrain::SignallerChangeTrain</text>
<text text-anchor="middle" x="754" y="-56.5" font-family="Helvetica,sans-Serif" font-size="10.00">Direction</text>
</a>
</g>
</g>
<!-- Node2&#45;&gt;Node14 -->
<g id="edge20" class="edge">
<title>Node2&#45;&gt;Node14</title>
<path fill="none" stroke="midnightblue" d="M919.01,-214.97C908.42,-183.74 883.41,-122.71 841,-89.5 835.86,-85.47 830.09,-82.1 824.04,-79.26"/>
<polygon fill="midnightblue" stroke="midnightblue" points="915.74,-216.25 922.16,-224.68 922.4,-214.09 915.74,-216.25"/>
</g>
<!-- Node16 -->
<g id="node16" class="node">
<title>Node16</title>
<g id="a_node16"><a xlink:href="class_t_train_controller.html#a7e2abfcc38e51933883d959c4155aca0" target="_top" xlink:title="unplot all trains from screen">
<polygon fill="white" stroke="black" points="695,-0.5 695,-30.5 813,-30.5 813,-0.5 695,-0.5"/>
<text text-anchor="start" x="703" y="-18.5" font-family="Helvetica,sans-Serif" font-size="10.00">TTrainController::Unplot</text>
<text text-anchor="middle" x="754" y="-7.5" font-family="Helvetica,sans-Serif" font-size="10.00">Trains</text>
</a>
</g>
</g>
<!-- Node2&#45;&gt;Node16 -->
<g id="edge22" class="edge">
<title>Node2&#45;&gt;Node16</title>
<path fill="none" stroke="midnightblue" d="M922.2,-214.73C915.57,-175.35 895.18,-86.84 841,-39.5 833.06,-32.56 823.27,-27.62 813.18,-24.1"/>
<polygon fill="midnightblue" stroke="midnightblue" points="918.75,-215.33 923.76,-224.67 925.67,-214.25 918.75,-215.33"/>
</g>
<!-- Node3&#45;&gt;Node4 -->
<g id="edge3" class="edge">
<title>Node3&#45;&gt;Node4</title>
<path fill="none" stroke="midnightblue" d="M687.05,-348.3C680.18,-346.33 673.38,-344.07 667,-341.5 632.01,-327.39 595.3,-301.98 576.59,-288.13"/>
<polygon fill="midnightblue" stroke="midnightblue" points="686.56,-351.79 697.13,-350.99 688.37,-345.03 686.56,-351.79"/>
</g>
<!-- Node4&#45;&gt;Node5 -->
<g id="edge4" class="edge">
<title>Node4&#45;&gt;Node5</title>
<path fill="none" stroke="midnightblue" d="M532.96,-292.45C499.74,-308.4 446.23,-334.1 417.41,-347.94"/>
<polygon fill="midnightblue" stroke="midnightblue" points="534.66,-295.51 542.16,-288.03 531.63,-289.2 534.66,-295.51"/>
</g>
<!-- Node6 -->
<g id="node6" class="node">
<title>Node6</title>
<g id="a_node6"><a xlink:href="class_t_interface.html#a6139ffb52492eb89e5487a8a3cd647b5" target="_top" xlink:title="The main loop, called every clock tick via MasterClockTimer.">
<polygon fill="white" stroke="black" points="179,-348 179,-367 298,-367 298,-348 179,-348"/>
<text text-anchor="middle" x="238.5" y="-355" font-family="Helvetica,sans-Serif" font-size="10.00">TInterface::ClockTimer2</text>
</a>
</g>
</g>
<!-- Node5&#45;&gt;Node6 -->
<g id="edge5" class="edge">
<title>Node5&#45;&gt;Node6</title>
<path fill="none" stroke="midnightblue" d="M323.83,-357.5C315.24,-357.5 306.54,-357.5 298.16,-357.5"/>
<polygon fill="midnightblue" stroke="midnightblue" points="323.84,-361 333.84,-357.5 323.84,-354 323.84,-361"/>
</g>
<!-- Node7 -->
<g id="node7" class="node">
<title>Node7</title>
<g id="a_node7"><a xlink:href="class_t_interface.html#ace30a12d923fc7fb489afabb0a09aa4f" target="_top" xlink:title=" ">
<polygon fill="white" stroke="black" points="0,-348 0,-367 143,-367 143,-348 0,-348"/>
<text text-anchor="middle" x="71.5" y="-355" font-family="Helvetica,sans-Serif" font-size="10.00">TInterface::MasterClockTimer</text>
</a>
</g>
</g>
<!-- Node6&#45;&gt;Node7 -->
<g id="edge6" class="edge">
<title>Node6&#45;&gt;Node7</title>
<path fill="none" stroke="midnightblue" d="M168.67,-357.5C160.22,-357.5 151.57,-357.5 143.09,-357.5"/>
<polygon fill="midnightblue" stroke="midnightblue" points="168.86,-361 178.86,-357.5 168.86,-354 168.86,-361"/>
</g>
<!-- Node8&#45;&gt;Node4 -->
<g id="edge8" class="edge">
<title>Node8&#45;&gt;Node4</title>
<path fill="none" stroke="midnightblue" d="M698.81,-310.71C688.25,-308.36 677.27,-305.88 667,-303.5 645.67,-298.56 621.91,-292.81 602.59,-288.07"/>
<polygon fill="midnightblue" stroke="midnightblue" points="698.25,-314.17 708.77,-312.91 699.76,-307.33 698.25,-314.17"/>
</g>
<!-- Node9&#45;&gt;Node4 -->
<g id="edge10" class="edge">
<title>Node9&#45;&gt;Node4</title>
<path fill="none" stroke="midnightblue" d="M674.74,-278.5C654.11,-278.5 632.42,-278.5 613.75,-278.5"/>
<polygon fill="midnightblue" stroke="midnightblue" points="674.77,-282 684.77,-278.5 674.77,-275 674.77,-282"/>
</g>
<!-- Node10&#45;&gt;Node4 -->
<g id="edge12" class="edge">
<title>Node10&#45;&gt;Node4</title>
<path fill="none" stroke="midnightblue" d="M701.97,-246.36C690.47,-249.04 678.32,-251.87 667,-254.5 646.61,-259.25 623.96,-264.52 605.1,-268.92"/>
<polygon fill="midnightblue" stroke="midnightblue" points="702.93,-249.73 711.88,-244.06 701.35,-242.92 702.93,-249.73"/>
</g>
<!-- Node11&#45;&gt;Node4 -->
<g id="edge15" class="edge">
<title>Node11&#45;&gt;Node4</title>
<path fill="none" stroke="midnightblue" d="M689.04,-208.14C681.5,-210.24 674,-212.68 667,-215.5 632.01,-229.61 595.3,-255.02 576.59,-268.87"/>
<polygon fill="midnightblue" stroke="midnightblue" points="690.15,-211.47 698.95,-205.57 688.39,-204.69 690.15,-211.47"/>
</g>
<!-- Node12&#45;&gt;Node4 -->
<g id="edge17" class="edge">
<title>Node12&#45;&gt;Node4</title>
<path fill="none" stroke="midnightblue" d="M678.61,-171.52C674.6,-173.35 670.7,-175.34 667,-177.5 624.41,-202.41 586.38,-248.79 571.1,-268.85"/>
<polygon fill="midnightblue" stroke="midnightblue" points="680.26,-174.63 688.15,-167.56 677.57,-168.17 680.26,-174.63"/>
</g>
<!-- Node13&#45;&gt;Node4 -->
<g id="edge19" class="edge">
<title>Node13&#45;&gt;Node4</title>
<path fill="none" stroke="midnightblue" d="M678.35,-122.05C674.38,-123.93 670.56,-126.07 667,-128.5 612.46,-165.71 578.32,-242.14 567.63,-268.95"/>
<polygon fill="midnightblue" stroke="midnightblue" points="679.96,-125.18 687.86,-118.12 677.28,-118.71 679.96,-125.18"/>
</g>
<!-- Node15 -->
<g id="node15" class="node">
<title>Node15</title>
<g id="a_node15"><a xlink:href="class_t_interface.html#aaaf32c3c815553f7ba70698e0f0071bb" target="_top" xlink:title=" ">
<polygon fill="white" stroke="black" points="495,-49.5 495,-79.5 631,-79.5 631,-49.5 495,-49.5"/>
<text text-anchor="start" x="503" y="-67.5" font-family="Helvetica,sans-Serif" font-size="10.00">TInterface::ChangeDirection</text>
<text text-anchor="middle" x="563" y="-56.5" font-family="Helvetica,sans-Serif" font-size="10.00">MenuItemClick</text>
</a>
</g>
</g>
<!-- Node14&#45;&gt;Node15 -->
<g id="edge21" class="edge">
<title>Node14&#45;&gt;Node15</title>
<path fill="none" stroke="midnightblue" d="M673.77,-64.5C659.64,-64.5 645.03,-64.5 631.27,-64.5"/>
<polygon fill="midnightblue" stroke="midnightblue" points="673.96,-68 683.96,-64.5 673.96,-61 673.96,-68"/>
</g>
<!-- Node17 -->
<g id="node17" class="node">
<title>Node17</title>
<g id="a_node17"><a xlink:href="class_t_interface.html#a3e59d6f1f39ffe34a9d6e7bf930acbff" target="_top" xlink:title=" ">
<polygon fill="white" stroke="black" points="501,-0.5 501,-30.5 625,-30.5 625,-0.5 501,-0.5"/>
<text text-anchor="start" x="509" y="-18.5" font-family="Helvetica,sans-Serif" font-size="10.00">TInterface::ExitOperation</text>
<text text-anchor="middle" x="563" y="-7.5" font-family="Helvetica,sans-Serif" font-size="10.00">ButtonClick</text>
</a>
</g>
</g>
<!-- Node16&#45;&gt;Node17 -->
<g id="edge23" class="edge">
<title>Node16&#45;&gt;Node17</title>
<path fill="none" stroke="midnightblue" d="M684.49,-15.5C665.15,-15.5 644.23,-15.5 625.33,-15.5"/>
<polygon fill="midnightblue" stroke="midnightblue" points="684.75,-19 694.75,-15.5 684.75,-12 684.75,-19"/>
</g>
</g>
</svg>
