<?xml version="1.0" encoding="UTF-8" standalone="no"?>
<!DOCTYPE svg PUBLIC "-//W3C//DTD SVG 1.1//EN"
 "http://www.w3.org/Graphics/SVG/1.1/DTD/svg11.dtd">
<!-- Generated by graphviz version 2.44.1 (20200629.0800)
 -->
<!-- Title: TTrain::SetTrainMovementValues Pages: 1 -->
<svg width="1385pt" height="487pt"
 viewBox="0.00 0.00 1385.00 487.00" xmlns="http://www.w3.org/2000/svg" xmlns:xlink="http://www.w3.org/1999/xlink">
<g id="graph0" class="graph" transform="scale(1 1) rotate(0) translate(4 483)">
<title>TTrain::SetTrainMovementValues</title>
<polygon fill="white" stroke="transparent" points="-4,4 -4,-483 1381,-483 1381,4 -4,4"/>
<!-- Node1 -->
<g id="node1" class="node">
<title>Node1</title>
<g id="a_node1"><a xlink:title="Calculates train speeds and times for the element that the train is about to enter....">
<polygon fill="#bfbfbf" stroke="black" points="1248,-224.5 1248,-254.5 1377,-254.5 1377,-224.5 1248,-224.5"/>
<text text-anchor="start" x="1256" y="-242.5" font-family="Helvetica,sans-Serif" font-size="10.00">TTrain::SetTrainMovement</text>
<text text-anchor="middle" x="1312.5" y="-231.5" font-family="Helvetica,sans-Serif" font-size="10.00">Values</text>
</a>
</g>
</g>
<!-- Node2 -->
<g id="node2" class="node">
<title>Node2</title>
<g id="a_node2"><a xlink:href="class_t_interface.html#a50478cade5cae721121f5902528987a7" target="_top" xlink:title=" ">
<polygon fill="white" stroke="black" points="1077,-448.5 1077,-478.5 1204,-478.5 1204,-448.5 1077,-448.5"/>
<text text-anchor="start" x="1085" y="-466.5" font-family="Helvetica,sans-Serif" font-size="10.00">TInterface::MoveForwards</text>
<text text-anchor="middle" x="1140.5" y="-455.5" font-family="Helvetica,sans-Serif" font-size="10.00">MenuItemClick</text>
</a>
</g>
</g>
<!-- Node1&#45;&gt;Node2 -->
<g id="edge1" class="edge">
<title>Node1&#45;&gt;Node2</title>
<path fill="none" stroke="midnightblue" d="M1304.79,-264.4C1292.67,-304.95 1263.5,-385.56 1212,-433.5 1205.57,-439.48 1197.78,-444.37 1189.74,-448.34"/>
<polygon fill="midnightblue" stroke="midnightblue" points="1308.22,-265.11 1307.63,-254.53 1301.5,-263.17 1308.22,-265.11"/>
</g>
<!-- Node3 -->
<g id="node3" class="node">
<title>Node3</title>
<g id="a_node3"><a xlink:href="class_t_train.html#a43cd691f12297c4c13a19791329dd627" target="_top" xlink:title="Plots the train and sets up all relevant members for a new train when it is introduced into the railw...">
<polygon fill="white" stroke="black" points="1079.5,-252 1079.5,-271 1201.5,-271 1201.5,-252 1079.5,-252"/>
<text text-anchor="middle" x="1140.5" y="-259" font-family="Helvetica,sans-Serif" font-size="10.00">TTrain::PlotStartPosition</text>
</a>
</g>
</g>
<!-- Node1&#45;&gt;Node3 -->
<g id="edge2" class="edge">
<title>Node1&#45;&gt;Node3</title>
<path fill="none" stroke="midnightblue" d="M1237.71,-249.05C1225.68,-250.61 1213.35,-252.2 1201.7,-253.71"/>
<polygon fill="midnightblue" stroke="midnightblue" points="1238.25,-252.51 1247.71,-247.75 1237.35,-245.57 1238.25,-252.51"/>
</g>
<!-- Node6 -->
<g id="node6" class="node">
<title>Node6</title>
<g id="a_node6"><a xlink:href="class_t_train.html#a89ad640ecf8f5163c40727b4e28575fc" target="_top" xlink:title="Major function called at each clock tick for each train &amp; handles all train movement &amp; associated act...">
<polygon fill="white" stroke="black" points="520,-226 520,-245 621,-245 621,-226 520,-226"/>
<text text-anchor="middle" x="570.5" y="-233" font-family="Helvetica,sans-Serif" font-size="10.00">TTrain::UpdateTrain</text>
</a>
</g>
</g>
<!-- Node1&#45;&gt;Node6 -->
<g id="edge35" class="edge">
<title>Node1&#45;&gt;Node6</title>
<path fill="none" stroke="midnightblue" d="M1285.66,-260.83C1238.84,-297.94 1135.28,-373.06 1033,-400.5 882.08,-440.98 818.58,-456.41 682,-380.5 624.18,-348.36 587.12,-272.05 575.46,-245.12"/>
<polygon fill="midnightblue" stroke="midnightblue" points="1287.86,-263.56 1293.47,-254.57 1283.48,-258.09 1287.86,-263.56"/>
</g>
<!-- Node20 -->
<g id="node20" class="node">
<title>Node20</title>
<g id="a_node20"><a xlink:href="class_t_interface.html#ad3ddf42d51934815002002a770df766a" target="_top" xlink:title=" ">
<polygon fill="white" stroke="black" points="1081,-202.5 1081,-232.5 1200,-232.5 1200,-202.5 1081,-202.5"/>
<text text-anchor="start" x="1089" y="-220.5" font-family="Helvetica,sans-Serif" font-size="10.00">TInterface::RepairFailed</text>
<text text-anchor="middle" x="1140.5" y="-209.5" font-family="Helvetica,sans-Serif" font-size="10.00">TrainMenuItemClick</text>
</a>
</g>
</g>
<!-- Node1&#45;&gt;Node20 -->
<g id="edge32" class="edge">
<title>Node1&#45;&gt;Node20</title>
<path fill="none" stroke="midnightblue" d="M1237.7,-229.95C1225.1,-228.32 1212.17,-226.65 1200.03,-225.07"/>
<polygon fill="midnightblue" stroke="midnightblue" points="1237.35,-233.43 1247.71,-231.25 1238.25,-226.49 1237.35,-233.43"/>
</g>
<!-- Node21 -->
<g id="node21" class="node">
<title>Node21</title>
<g id="a_node21"><a xlink:href="class_t_interface.html#a0cc484aa9bc0445312ef9191d8212f14" target="_top" xlink:title=" ">
<polygon fill="white" stroke="black" points="1069,-153.5 1069,-183.5 1212,-183.5 1212,-153.5 1069,-153.5"/>
<text text-anchor="start" x="1077" y="-171.5" font-family="Helvetica,sans-Serif" font-size="10.00">TInterface::StepForwardMenu</text>
<text text-anchor="middle" x="1140.5" y="-160.5" font-family="Helvetica,sans-Serif" font-size="10.00">ItemClick</text>
</a>
</g>
</g>
<!-- Node1&#45;&gt;Node21 -->
<g id="edge33" class="edge">
<title>Node1&#45;&gt;Node21</title>
<path fill="none" stroke="midnightblue" d="M1272.71,-219.93C1254.5,-211.06 1232.36,-200.74 1212,-192.5 1204.33,-189.39 1196.09,-186.34 1188.04,-183.51"/>
<polygon fill="midnightblue" stroke="midnightblue" points="1271.33,-223.15 1281.85,-224.41 1274.41,-216.86 1271.33,-223.15"/>
</g>
<!-- Node22 -->
<g id="node22" class="node">
<title>Node22</title>
<g id="a_node22"><a xlink:href="class_t_interface.html#aec12f0e481024f1268fad36e7188b7a4" target="_top" xlink:title=" ">
<polygon fill="white" stroke="black" points="1072,-104.5 1072,-134.5 1209,-134.5 1209,-104.5 1072,-104.5"/>
<text text-anchor="start" x="1080" y="-122.5" font-family="Helvetica,sans-Serif" font-size="10.00">TInterface::TimetableControl</text>
<text text-anchor="middle" x="1140.5" y="-111.5" font-family="Helvetica,sans-Serif" font-size="10.00">MenuItemClick</text>
</a>
</g>
</g>
<!-- Node1&#45;&gt;Node22 -->
<g id="edge34" class="edge">
<title>Node1&#45;&gt;Node22</title>
<path fill="none" stroke="midnightblue" d="M1293.1,-216.68C1274.63,-195.13 1244.34,-163.23 1212,-143.5 1206.48,-140.13 1200.43,-137.17 1194.26,-134.57"/>
<polygon fill="midnightblue" stroke="midnightblue" points="1290.46,-218.99 1299.58,-224.39 1295.82,-214.48 1290.46,-218.99"/>
</g>
<!-- Node4 -->
<g id="node4" class="node">
<title>Node4</title>
<g id="a_node4"><a xlink:href="class_t_train_controller.html#aa895b60238810a9d134cd5b9c886da56" target="_top" xlink:title="Introduce a new train to the railway, with the characteristics specified, returns true for success,...">
<polygon fill="white" stroke="black" points="898.5,-372 898.5,-391 1026.5,-391 1026.5,-372 898.5,-372"/>
<text text-anchor="middle" x="962.5" y="-379" font-family="Helvetica,sans-Serif" font-size="10.00">TTrainController::AddTrain</text>
</a>
</g>
</g>
<!-- Node3&#45;&gt;Node4 -->
<g id="edge3" class="edge">
<title>Node3&#45;&gt;Node4</title>
<path fill="none" stroke="midnightblue" d="M1124.59,-278.64C1105.34,-299.82 1069.91,-335.72 1033,-357.5 1022.89,-363.47 1011.06,-368.25 1000.07,-371.92"/>
<polygon fill="midnightblue" stroke="midnightblue" points="1127.31,-280.84 1131.36,-271.05 1122.09,-276.18 1127.31,-280.84"/>
</g>
<!-- Node5 -->
<g id="node5" class="node">
<title>Node5</title>
<g id="a_node5"><a xlink:href="class_t_train.html#ad666fb061d1da7c44a72ec963c2098aa" target="_top" xlink:title="Carry out the actions needed when a train is to split from the front.">
<polygon fill="white" stroke="black" points="713,-352 713,-371 825,-371 825,-352 713,-352"/>
<text text-anchor="middle" x="769" y="-359" font-family="Helvetica,sans-Serif" font-size="10.00">TTrain::FrontTrainSplit</text>
</a>
</g>
</g>
<!-- Node3&#45;&gt;Node5 -->
<g id="edge16" class="edge">
<title>Node3&#45;&gt;Node5</title>
<path fill="none" stroke="midnightblue" d="M1112.94,-275.89C1091.82,-286.8 1061.23,-301.42 1033,-310.5 962.94,-333.05 879,-347.21 825.11,-354.73"/>
<polygon fill="midnightblue" stroke="midnightblue" points="1114.71,-278.92 1121.94,-271.18 1111.45,-272.72 1114.71,-278.92"/>
</g>
<!-- Node10 -->
<g id="node10" class="node">
<title>Node10</title>
<g id="a_node10"><a xlink:href="class_t_train.html#ad64c5823265b0c611c2e5f0613317aa5" target="_top" xlink:title="Carry out the actions needed when a train is to split from the rear.">
<polygon fill="white" stroke="black" points="714,-314 714,-333 824,-333 824,-314 714,-314"/>
<text text-anchor="middle" x="769" y="-321" font-family="Helvetica,sans-Serif" font-size="10.00">TTrain::RearTrainSplit</text>
</a>
</g>
</g>
<!-- Node3&#45;&gt;Node10 -->
<g id="edge23" class="edge">
<title>Node3&#45;&gt;Node10</title>
<path fill="none" stroke="midnightblue" d="M1090.94,-273.28C1072.82,-277.46 1052.03,-281.99 1033,-285.5 961.09,-298.78 877.41,-310.18 824.1,-316.94"/>
<polygon fill="midnightblue" stroke="midnightblue" points="1091.76,-276.69 1100.7,-271.01 1090.17,-269.87 1091.76,-276.69"/>
</g>
<!-- Node11 -->
<g id="node11" class="node">
<title>Node11</title>
<g id="a_node11"><a xlink:href="class_t_train.html#aaac04c1b5e358a69e1930bae9ca6f429" target="_top" xlink:title="Reverses the direction of motion of the train.">
<polygon fill="white" stroke="black" points="892,-208 892,-227 1033,-227 1033,-208 892,-208"/>
<text text-anchor="middle" x="962.5" y="-215" font-family="Helvetica,sans-Serif" font-size="10.00">TTrain::ChangeTrainDirection</text>
</a>
</g>
</g>
<!-- Node3&#45;&gt;Node11 -->
<g id="edge12" class="edge">
<title>Node3&#45;&gt;Node11</title>
<path fill="none" stroke="midnightblue" d="M1091.25,-249.44C1063.03,-242.38 1027.89,-233.6 1001.61,-227.03"/>
<polygon fill="midnightblue" stroke="midnightblue" points="1090.76,-252.92 1101.31,-251.95 1092.46,-246.13 1090.76,-252.92"/>
</g>
<!-- Node14 -->
<g id="node14" class="node">
<title>Node14</title>
<g id="a_node14"><a xlink:href="class_t_train.html#a2bde9b347632a790874abfee29758d32" target="_top" xlink:title="Carry out the actions needed when a new shuttle service is created from a non&#45;repeating (F&#45;nshs) serv...">
<polygon fill="white" stroke="black" points="700,-88.5 700,-118.5 838,-118.5 838,-88.5 700,-88.5"/>
<text text-anchor="start" x="708" y="-106.5" font-family="Helvetica,sans-Serif" font-size="10.00">TTrain::NewShuttleFromNon</text>
<text text-anchor="middle" x="769" y="-95.5" font-family="Helvetica,sans-Serif" font-size="10.00">RepeatService</text>
</a>
</g>
</g>
<!-- Node3&#45;&gt;Node14 -->
<g id="edge17" class="edge">
<title>Node3&#45;&gt;Node14</title>
<path fill="none" stroke="midnightblue" d="M1075.83,-246.99C1073.4,-245.35 1071.1,-243.53 1069,-241.5 1031.65,-205.52 1073.34,-163.1 1033,-130.5 978.74,-86.64 896.2,-85.35 838.08,-91.53"/>
<polygon fill="midnightblue" stroke="midnightblue" points="1074.13,-250.05 1084.57,-251.9 1077.56,-243.95 1074.13,-250.05"/>
</g>
<!-- Node15 -->
<g id="node15" class="node">
<title>Node15</title>
<g id="a_node15"><a xlink:href="class_t_train.html#a68bda28987bb7b9d7e52b35abb2399de" target="_top" xlink:title="Carry out the actions needed when a train forms a new service (code Fns)">
<polygon fill="white" stroke="black" points="709,-138 709,-157 829,-157 829,-138 709,-138"/>
<text text-anchor="middle" x="769" y="-145" font-family="Helvetica,sans-Serif" font-size="10.00">TTrain::NewTrainService</text>
</a>
</g>
</g>
<!-- Node3&#45;&gt;Node15 -->
<g id="edge20" class="edge">
<title>Node3&#45;&gt;Node15</title>
<path fill="none" stroke="midnightblue" d="M1077.84,-247.52C1074.71,-245.75 1071.73,-243.75 1069,-241.5 1041.69,-219.01 1062.31,-190.31 1033,-170.5 970.63,-128.34 880.03,-130.81 823.1,-138"/>
<polygon fill="midnightblue" stroke="midnightblue" points="1076.47,-250.75 1086.99,-251.95 1079.51,-244.45 1076.47,-250.75"/>
</g>
<!-- Node16 -->
<g id="node16" class="node">
<title>Node16</title>
<g id="a_node16"><a xlink:href="class_t_train.html#a648f31ead801d51160c024f1ead459c8" target="_top" xlink:title="Carry out the actions needed to create either a new shuttle service or (if all repeats have finished)...">
<polygon fill="white" stroke="black" points="699,-176.5 699,-206.5 839,-206.5 839,-176.5 699,-176.5"/>
<text text-anchor="start" x="707" y="-194.5" font-family="Helvetica,sans-Serif" font-size="10.00">TTrain::RepeatShuttleOrNew</text>
<text text-anchor="middle" x="769" y="-183.5" font-family="Helvetica,sans-Serif" font-size="10.00">NonRepeatService</text>
</a>
</g>
</g>
<!-- Node3&#45;&gt;Node16 -->
<g id="edge24" class="edge">
<title>Node3&#45;&gt;Node16</title>
<path fill="none" stroke="midnightblue" d="M1081.81,-248.32C1077.33,-246.35 1072.99,-244.09 1069,-241.5 1048.08,-227.94 1055.44,-209.35 1033,-198.5 972.44,-169.23 894.54,-171.32 839.28,-178.37"/>
<polygon fill="midnightblue" stroke="midnightblue" points="1080.59,-251.6 1091.18,-251.97 1083.13,-245.08 1080.59,-251.6"/>
</g>
<!-- Node17 -->
<g id="node17" class="node">
<title>Node17</title>
<g id="a_node17"><a xlink:href="class_t_train.html#a1f4b4616c1167ff2ef83b2df48545c6b" target="_top" xlink:title="Carry out the actions needed to create either a new shuttle service or (if all repeats have finished)...">
<polygon fill="white" stroke="black" points="682,-50 682,-69 856,-69 856,-50 682,-50"/>
<text text-anchor="middle" x="769" y="-57" font-family="Helvetica,sans-Serif" font-size="10.00">TTrain::RepeatShuttleOrRemainHere</text>
</a>
</g>
</g>
<!-- Node3&#45;&gt;Node17 -->
<g id="edge27" class="edge">
<title>Node3&#45;&gt;Node17</title>
<path fill="none" stroke="midnightblue" d="M1074.87,-246.68C1072.77,-245.11 1070.8,-243.4 1069,-241.5 1019.95,-189.95 1086.44,-132.49 1033,-85.5 972.18,-32.02 870.21,-39.93 812.74,-49.99"/>
<polygon fill="midnightblue" stroke="midnightblue" points="1073.14,-249.72 1083.5,-251.94 1076.78,-243.74 1073.14,-249.72"/>
</g>
<!-- Node18 -->
<g id="node18" class="node">
<title>Node18</title>
<g id="a_node18"><a xlink:href="class_t_train.html#affbb94aa088370056f8ca8c45a1fdd48" target="_top" xlink:title="Unplots &amp; replots train, which checks for facing signal and sets StoppedAtSignal if req&#39;d.">
<polygon fill="white" stroke="black" points="892.5,-246.5 892.5,-276.5 1032.5,-276.5 1032.5,-246.5 892.5,-246.5"/>
<text text-anchor="start" x="900.5" y="-264.5" font-family="Helvetica,sans-Serif" font-size="10.00">TTrain::SignallerChangeTrain</text>
<text text-anchor="middle" x="962.5" y="-253.5" font-family="Helvetica,sans-Serif" font-size="10.00">Direction</text>
</a>
</g>
</g>
<!-- Node3&#45;&gt;Node18 -->
<g id="edge30" class="edge">
<title>Node3&#45;&gt;Node18</title>
<path fill="none" stroke="midnightblue" d="M1069.4,-261.5C1057.32,-261.5 1044.76,-261.5 1032.7,-261.5"/>
<polygon fill="midnightblue" stroke="midnightblue" points="1069.42,-265 1079.42,-261.5 1069.42,-258 1069.42,-265"/>
</g>
<!-- Node4&#45;&gt;Node5 -->
<g id="edge4" class="edge">
<title>Node4&#45;&gt;Node5</title>
<path fill="none" stroke="midnightblue" d="M888.13,-373.84C867.21,-371.65 844.77,-369.31 825.13,-367.26"/>
<polygon fill="midnightblue" stroke="midnightblue" points="887.96,-377.34 898.27,-374.9 888.68,-370.38 887.96,-377.34"/>
</g>
<!-- Node7 -->
<g id="node7" class="node">
<title>Node7</title>
<g id="a_node7"><a xlink:href="class_t_train_controller.html#a20a1576dea1d86ed78fc5e9f46343481" target="_top" xlink:title="called every clock tick to introduce new trains and update existing trains">
<polygon fill="white" stroke="black" points="334,-337 334,-356 459,-356 459,-337 334,-337"/>
<text text-anchor="middle" x="396.5" y="-344" font-family="Helvetica,sans-Serif" font-size="10.00">TTrainController::Operate</text>
</a>
</g>
</g>
<!-- Node4&#45;&gt;Node7 -->
<g id="edge9" class="edge">
<title>Node4&#45;&gt;Node7</title>
<path fill="none" stroke="midnightblue" d="M888.18,-383.54C831.76,-384.56 751.88,-384.79 682,-380.5 604.92,-375.77 516.7,-364.27 459.19,-355.96"/>
<polygon fill="midnightblue" stroke="midnightblue" points="888.51,-387.04 898.44,-383.35 888.37,-380.04 888.51,-387.04"/>
</g>
<!-- Node4&#45;&gt;Node10 -->
<g id="edge10" class="edge">
<title>Node4&#45;&gt;Node10</title>
<path fill="none" stroke="midnightblue" d="M928.79,-368.09C908.15,-359.96 880.8,-349.78 856,-342.5 843.97,-338.97 830.82,-335.75 818.51,-333"/>
<polygon fill="midnightblue" stroke="midnightblue" points="927.76,-371.45 938.34,-371.9 930.35,-364.94 927.76,-371.45"/>
</g>
<!-- Node5&#45;&gt;Node6 -->
<g id="edge5" class="edge">
<title>Node5&#45;&gt;Node6</title>
<path fill="none" stroke="midnightblue" d="M702.79,-351.16C695.56,-348.83 688.48,-345.99 682,-342.5 635.2,-317.33 594.39,-266.64 578.53,-245.31"/>
<polygon fill="midnightblue" stroke="midnightblue" points="702.12,-354.6 712.7,-354.01 704.06,-347.88 702.12,-354.6"/>
</g>
<!-- Node6&#45;&gt;Node7 -->
<g id="edge6" class="edge">
<title>Node6&#45;&gt;Node7</title>
<path fill="none" stroke="midnightblue" d="M545.69,-250.87C509.7,-274.09 442.48,-317.47 412.55,-336.79"/>
<polygon fill="midnightblue" stroke="midnightblue" points="548.03,-253.52 554.54,-245.16 544.24,-247.64 548.03,-253.52"/>
</g>
<!-- Node8 -->
<g id="node8" class="node">
<title>Node8</title>
<g id="a_node8"><a xlink:href="class_t_interface.html#a6139ffb52492eb89e5487a8a3cd647b5" target="_top" xlink:title="The main loop, called every clock tick via MasterClockTimer.">
<polygon fill="white" stroke="black" points="179,-337 179,-356 298,-356 298,-337 179,-337"/>
<text text-anchor="middle" x="238.5" y="-344" font-family="Helvetica,sans-Serif" font-size="10.00">TInterface::ClockTimer2</text>
</a>
</g>
</g>
<!-- Node7&#45;&gt;Node8 -->
<g id="edge7" class="edge">
<title>Node7&#45;&gt;Node8</title>
<path fill="none" stroke="midnightblue" d="M323.83,-346.5C315.24,-346.5 306.54,-346.5 298.16,-346.5"/>
<polygon fill="midnightblue" stroke="midnightblue" points="323.84,-350 333.84,-346.5 323.84,-343 323.84,-350"/>
</g>
<!-- Node9 -->
<g id="node9" class="node">
<title>Node9</title>
<g id="a_node9"><a xlink:href="class_t_interface.html#ace30a12d923fc7fb489afabb0a09aa4f" target="_top" xlink:title=" ">
<polygon fill="white" stroke="black" points="0,-337 0,-356 143,-356 143,-337 0,-337"/>
<text text-anchor="middle" x="71.5" y="-344" font-family="Helvetica,sans-Serif" font-size="10.00">TInterface::MasterClockTimer</text>
</a>
</g>
</g>
<!-- Node8&#45;&gt;Node9 -->
<g id="edge8" class="edge">
<title>Node8&#45;&gt;Node9</title>
<path fill="none" stroke="midnightblue" d="M168.67,-346.5C160.22,-346.5 151.57,-346.5 143.09,-346.5"/>
<polygon fill="midnightblue" stroke="midnightblue" points="168.86,-350 178.86,-346.5 168.86,-343 168.86,-350"/>
</g>
<!-- Node10&#45;&gt;Node6 -->
<g id="edge11" class="edge">
<title>Node10&#45;&gt;Node6</title>
<path fill="none" stroke="midnightblue" d="M704.94,-311.33C697.09,-309.09 689.28,-306.49 682,-303.5 643.87,-287.83 603.79,-259.81 584.03,-245.11"/>
<polygon fill="midnightblue" stroke="midnightblue" points="704.29,-314.78 714.86,-313.97 706.1,-308.01 704.29,-314.78"/>
</g>
<!-- Node11&#45;&gt;Node6 -->
<g id="edge15" class="edge">
<title>Node11&#45;&gt;Node6</title>
<path fill="none" stroke="midnightblue" d="M881.49,-221.19C803.32,-224.8 686.81,-230.18 621.15,-233.21"/>
<polygon fill="midnightblue" stroke="midnightblue" points="881.95,-224.68 891.78,-220.72 881.63,-217.68 881.95,-224.68"/>
</g>
<!-- Node12 -->
<g id="node12" class="node">
<title>Node12</title>
<g id="a_node12"><a xlink:href="class_t_interface.html#a528675bee2f8940b6fb3de82ebdd9cc1" target="_top" xlink:title="&lt; used when change early to the next service (Fns, Fns&#45;sh, Frh&#45;sh or F&#45;nshs) to advance the action po...">
<polygon fill="white" stroke="black" points="698.5,-0.5 698.5,-30.5 839.5,-30.5 839.5,-0.5 698.5,-0.5"/>
<text text-anchor="start" x="706.5" y="-18.5" font-family="Helvetica,sans-Serif" font-size="10.00">TInterface::SkipEventsBefore</text>
<text text-anchor="middle" x="769" y="-7.5" font-family="Helvetica,sans-Serif" font-size="10.00">SameLoc</text>
</a>
</g>
</g>
<!-- Node11&#45;&gt;Node12 -->
<g id="edge13" class="edge">
<title>Node11&#45;&gt;Node12</title>
<path fill="none" stroke="midnightblue" d="M955.23,-197.79C942.56,-161.17 910.38,-82.54 856,-40.5 850.96,-36.6 845.32,-33.31 839.42,-30.53"/>
<polygon fill="midnightblue" stroke="midnightblue" points="952.06,-199.34 958.54,-207.72 958.7,-197.13 952.06,-199.34"/>
</g>
<!-- Node13 -->
<g id="node13" class="node">
<title>Node13</title>
<g id="a_node13"><a xlink:href="class_t_interface.html#a0e9af41ff305fe2813385fce38b73206" target="_top" xlink:title=" ">
<polygon fill="white" stroke="black" points="495,-88.5 495,-118.5 646,-118.5 646,-88.5 495,-88.5"/>
<text text-anchor="start" x="503" y="-106.5" font-family="Helvetica,sans-Serif" font-size="10.00">TInterface::BecomeNewService</text>
<text text-anchor="middle" x="570.5" y="-95.5" font-family="Helvetica,sans-Serif" font-size="10.00">MenuItemClick</text>
</a>
</g>
</g>
<!-- Node12&#45;&gt;Node13 -->
<g id="edge14" class="edge">
<title>Node12&#45;&gt;Node13</title>
<path fill="none" stroke="midnightblue" d="M699.16,-33.93C693.29,-35.98 687.5,-38.17 682,-40.5 650.28,-53.93 616.18,-74.39 594.39,-88.32"/>
<polygon fill="midnightblue" stroke="midnightblue" points="700.69,-37.11 709.07,-30.63 698.47,-30.47 700.69,-37.11"/>
</g>
<!-- Node14&#45;&gt;Node6 -->
<g id="edge19" class="edge">
<title>Node14&#45;&gt;Node6</title>
<path fill="none" stroke="midnightblue" d="M693.63,-122.55C689.61,-124.37 685.71,-126.35 682,-128.5 636.05,-155.19 594.76,-205.04 578.66,-225.92"/>
<polygon fill="midnightblue" stroke="midnightblue" points="695.27,-125.66 703.17,-118.6 692.59,-119.19 695.27,-125.66"/>
</g>
<!-- Node14&#45;&gt;Node13 -->
<g id="edge18" class="edge">
<title>Node14&#45;&gt;Node13</title>
<path fill="none" stroke="midnightblue" d="M689.55,-103.5C675.28,-103.5 660.43,-103.5 646.27,-103.5"/>
<polygon fill="midnightblue" stroke="midnightblue" points="689.83,-107 699.83,-103.5 689.83,-100 689.83,-107"/>
</g>
<!-- Node15&#45;&gt;Node6 -->
<g id="edge22" class="edge">
<title>Node15&#45;&gt;Node6</title>
<path fill="none" stroke="midnightblue" d="M701.72,-159.73C694.96,-161.69 688.28,-163.94 682,-166.5 643.48,-182.24 603.25,-211 583.66,-225.93"/>
<polygon fill="midnightblue" stroke="midnightblue" points="702.89,-163.04 711.64,-157.06 701.07,-156.28 702.89,-163.04"/>
</g>
<!-- Node15&#45;&gt;Node13 -->
<g id="edge21" class="edge">
<title>Node15&#45;&gt;Node13</title>
<path fill="none" stroke="midnightblue" d="M715.56,-135.76C691.99,-130.48 663.88,-124.19 638.78,-118.57"/>
<polygon fill="midnightblue" stroke="midnightblue" points="714.84,-139.18 725.36,-137.95 716.37,-132.35 714.84,-139.18"/>
</g>
<!-- Node16&#45;&gt;Node6 -->
<g id="edge26" class="edge">
<title>Node16&#45;&gt;Node6</title>
<path fill="none" stroke="midnightblue" d="M691,-208.74C664.8,-214.61 636.47,-220.95 613.98,-225.99"/>
<polygon fill="midnightblue" stroke="midnightblue" points="691.93,-212.12 700.93,-206.52 690.4,-205.29 691.93,-212.12"/>
</g>
<!-- Node16&#45;&gt;Node13 -->
<g id="edge25" class="edge">
<title>Node16&#45;&gt;Node13</title>
<path fill="none" stroke="midnightblue" d="M699.16,-173.07C693.29,-171.02 687.5,-168.83 682,-166.5 650.28,-153.07 616.18,-132.61 594.39,-118.68"/>
<polygon fill="midnightblue" stroke="midnightblue" points="698.47,-176.53 709.07,-176.37 700.69,-169.89 698.47,-176.53"/>
</g>
<!-- Node17&#45;&gt;Node6 -->
<g id="edge29" class="edge">
<title>Node17&#45;&gt;Node6</title>
<path fill="none" stroke="midnightblue" d="M691.84,-72.93C688.41,-74.58 685.11,-76.43 682,-78.5 678.24,-81.01 601.46,-192.07 578.15,-225.85"/>
<polygon fill="midnightblue" stroke="midnightblue" points="693.29,-76.11 701.15,-69.01 690.58,-69.66 693.29,-76.11"/>
</g>
<!-- Node17&#45;&gt;Node13 -->
<g id="edge28" class="edge">
<title>Node17&#45;&gt;Node13</title>
<path fill="none" stroke="midnightblue" d="M714.87,-71.19C703.99,-73.6 692.63,-76.12 682,-78.5 667.7,-81.7 652.36,-85.15 637.81,-88.44"/>
<polygon fill="midnightblue" stroke="midnightblue" points="715.67,-74.6 724.68,-69.03 714.16,-67.77 715.67,-74.6"/>
</g>
<!-- Node19 -->
<g id="node19" class="node">
<title>Node19</title>
<g id="a_node19"><a xlink:href="class_t_interface.html#aaaf32c3c815553f7ba70698e0f0071bb" target="_top" xlink:title=" ">
<polygon fill="white" stroke="black" points="701,-264.5 701,-294.5 837,-294.5 837,-264.5 701,-264.5"/>
<text text-anchor="start" x="709" y="-282.5" font-family="Helvetica,sans-Serif" font-size="10.00">TInterface::ChangeDirection</text>
<text text-anchor="middle" x="769" y="-271.5" font-family="Helvetica,sans-Serif" font-size="10.00">MenuItemClick</text>
</a>
</g>
</g>
<!-- Node18&#45;&gt;Node19 -->
<g id="edge31" class="edge">
<title>Node18&#45;&gt;Node19</title>
<path fill="none" stroke="midnightblue" d="M882.11,-268.96C867.16,-270.37 851.65,-271.83 837.11,-273.19"/>
<polygon fill="midnightblue" stroke="midnightblue" points="882.74,-272.42 892.36,-268 882.08,-265.45 882.74,-272.42"/>
</g>
</g>
</svg>
