<?xml version="1.0" encoding="UTF-8" standalone="no"?>
<!DOCTYPE svg PUBLIC "-//W3C//DTD SVG 1.1//EN"
 "http://www.w3.org/Graphics/SVG/1.1/DTD/svg11.dtd">
<!-- Generated by graphviz version 2.44.1 (20200629.0800)
 -->
<!-- Title: TTrain::SetHeadCodeGraphics Pages: 1 -->
<svg width="1375pt" height="407pt"
 viewBox="0.00 0.00 1375.00 407.05" xmlns="http://www.w3.org/2000/svg" xmlns:xlink="http://www.w3.org/1999/xlink">
<g id="graph0" class="graph" transform="scale(1 1) rotate(0) translate(4 403.05)">
<title>TTrain::SetHeadCodeGraphics</title>
<polygon fill="white" stroke="transparent" points="-4,4 -4,-403.05 1371,-403.05 1371,4 -4,4"/>
<!-- Node1 -->
<g id="node1" class="node">
<title>Node1</title>
<g id="a_node1"><a xlink:title="Set the four HeadCodeGrPtr[4] pointers to the appropriate character graphics with the current backgro...">
<polygon fill="#bfbfbf" stroke="black" points="1219,-207.05 1219,-226.05 1367,-226.05 1367,-207.05 1219,-207.05"/>
<text text-anchor="middle" x="1293" y="-214.05" font-family="Helvetica,sans-Serif" font-size="10.00">TTrain::SetHeadCodeGraphics</text>
</a>
</g>
</g>
<!-- Node2 -->
<g id="node2" class="node">
<title>Node2</title>
<g id="a_node2"><a xlink:href="class_t_train.html#a23c65e7f2b2130ae87811f70afb6d5bf" target="_top" xlink:title="Create one train with relevant member values from the sesion file.">
<polygon fill="white" stroke="black" points="1039,-300.05 1039,-319.05 1183,-319.05 1183,-300.05 1039,-300.05"/>
<text text-anchor="middle" x="1111" y="-307.05" font-family="Helvetica,sans-Serif" font-size="10.00">TTrain::LoadOneSessionTrain</text>
</a>
</g>
</g>
<!-- Node1&#45;&gt;Node2 -->
<g id="edge1" class="edge">
<title>Node1&#45;&gt;Node2</title>
<path fill="none" stroke="midnightblue" d="M1264.16,-230.94C1226.98,-250.14 1162.16,-283.64 1130.48,-300"/>
<polygon fill="midnightblue" stroke="midnightblue" points="1266.14,-233.85 1273.41,-226.15 1262.92,-227.63 1266.14,-233.85"/>
</g>
<!-- Node7 -->
<g id="node7" class="node">
<title>Node7</title>
<g id="a_node7"><a xlink:href="class_t_train.html#a43cd691f12297c4c13a19791329dd627" target="_top" xlink:title="Plots the train and sets up all relevant members for a new train when it is introduced into the railw...">
<polygon fill="white" stroke="black" points="1050,-188.05 1050,-207.05 1172,-207.05 1172,-188.05 1050,-188.05"/>
<text text-anchor="middle" x="1111" y="-195.05" font-family="Helvetica,sans-Serif" font-size="10.00">TTrain::PlotStartPosition</text>
</a>
</g>
</g>
<!-- Node1&#45;&gt;Node7 -->
<g id="edge6" class="edge">
<title>Node1&#45;&gt;Node7</title>
<path fill="none" stroke="midnightblue" d="M1208.55,-207.74C1196.3,-206.45 1183.88,-205.14 1172.22,-203.91"/>
<polygon fill="midnightblue" stroke="midnightblue" points="1208.47,-211.25 1218.79,-208.82 1209.21,-204.29 1208.47,-211.25"/>
</g>
<!-- Node3 -->
<g id="node3" class="node">
<title>Node3</title>
<g id="a_node3"><a xlink:href="class_t_train_controller.html#a853ddf9799c9fd7063c81ffa1dc754d7" target="_top" xlink:title="load trains from a session file">
<polygon fill="white" stroke="black" points="843,-368.55 843,-398.55 989,-398.55 989,-368.55 843,-368.55"/>
<text text-anchor="start" x="851" y="-386.55" font-family="Helvetica,sans-Serif" font-size="10.00">TTrainController::LoadSession</text>
<text text-anchor="middle" x="916" y="-375.55" font-family="Helvetica,sans-Serif" font-size="10.00">Trains</text>
</a>
</g>
</g>
<!-- Node2&#45;&gt;Node3 -->
<g id="edge2" class="edge">
<title>Node2&#45;&gt;Node3</title>
<path fill="none" stroke="midnightblue" d="M1082.29,-323.6C1060.96,-334.08 1030.57,-348.3 1003,-358.55 993.53,-362.08 983.32,-365.42 973.36,-368.45"/>
<polygon fill="midnightblue" stroke="midnightblue" points="1084.01,-326.66 1091.41,-319.08 1080.9,-320.39 1084.01,-326.66"/>
</g>
<!-- Node4 -->
<g id="node4" class="node">
<title>Node4</title>
<g id="a_node4"><a xlink:href="class_t_interface.html#a636b1b4bd29f2678a3290ed2d282f1c2" target="_top" xlink:title="Load a session file.">
<polygon fill="white" stroke="black" points="495,-372.05 495,-391.05 616,-391.05 616,-372.05 495,-372.05"/>
<text text-anchor="middle" x="555.5" y="-379.05" font-family="Helvetica,sans-Serif" font-size="10.00">TInterface::LoadSession</text>
</a>
</g>
</g>
<!-- Node3&#45;&gt;Node4 -->
<g id="edge3" class="edge">
<title>Node3&#45;&gt;Node4</title>
<path fill="none" stroke="midnightblue" d="M832.5,-383.09C766.38,-382.72 675.19,-382.21 616.03,-381.88"/>
<polygon fill="midnightblue" stroke="midnightblue" points="832.86,-386.59 842.88,-383.15 832.9,-379.59 832.86,-386.59"/>
</g>
<!-- Node5 -->
<g id="node5" class="node">
<title>Node5</title>
<g id="a_node5"><a xlink:href="class_t_interface.html#a6139ffb52492eb89e5487a8a3cd647b5" target="_top" xlink:title="The main loop, called every clock tick via MasterClockTimer.">
<polygon fill="white" stroke="black" points="179,-349.05 179,-368.05 298,-368.05 298,-349.05 179,-349.05"/>
<text text-anchor="middle" x="238.5" y="-356.05" font-family="Helvetica,sans-Serif" font-size="10.00">TInterface::ClockTimer2</text>
</a>
</g>
</g>
<!-- Node4&#45;&gt;Node5 -->
<g id="edge4" class="edge">
<title>Node4&#45;&gt;Node5</title>
<path fill="none" stroke="midnightblue" d="M484.68,-376.45C428.65,-372.36 350.89,-366.68 298.08,-362.83"/>
<polygon fill="midnightblue" stroke="midnightblue" points="484.65,-379.96 494.88,-377.2 485.16,-372.98 484.65,-379.96"/>
</g>
<!-- Node6 -->
<g id="node6" class="node">
<title>Node6</title>
<g id="a_node6"><a xlink:href="class_t_interface.html#ace30a12d923fc7fb489afabb0a09aa4f" target="_top" xlink:title=" ">
<polygon fill="white" stroke="black" points="0,-349.05 0,-368.05 143,-368.05 143,-349.05 0,-349.05"/>
<text text-anchor="middle" x="71.5" y="-356.05" font-family="Helvetica,sans-Serif" font-size="10.00">TInterface::MasterClockTimer</text>
</a>
</g>
</g>
<!-- Node5&#45;&gt;Node6 -->
<g id="edge5" class="edge">
<title>Node5&#45;&gt;Node6</title>
<path fill="none" stroke="midnightblue" d="M168.67,-358.55C160.22,-358.55 151.57,-358.55 143.09,-358.55"/>
<polygon fill="midnightblue" stroke="midnightblue" points="168.86,-362.05 178.86,-358.55 168.86,-355.05 168.86,-362.05"/>
</g>
<!-- Node8 -->
<g id="node8" class="node">
<title>Node8</title>
<g id="a_node8"><a xlink:href="class_t_train_controller.html#aa895b60238810a9d134cd5b9c886da56" target="_top" xlink:title="Introduce a new train to the railway, with the characteristics specified, returns true for success,...">
<polygon fill="white" stroke="black" points="852,-330.05 852,-349.05 980,-349.05 980,-330.05 852,-330.05"/>
<text text-anchor="middle" x="916" y="-337.05" font-family="Helvetica,sans-Serif" font-size="10.00">TTrainController::AddTrain</text>
</a>
</g>
</g>
<!-- Node7&#45;&gt;Node8 -->
<g id="edge7" class="edge">
<title>Node7&#45;&gt;Node8</title>
<path fill="none" stroke="midnightblue" d="M1098.48,-215.7C1081.01,-241.73 1045.33,-289.41 1003,-315.55 992.84,-321.82 981.02,-326.49 969.44,-329.96"/>
<polygon fill="midnightblue" stroke="midnightblue" points="1101.52,-217.45 1104.07,-207.17 1095.66,-213.62 1101.52,-217.45"/>
</g>
<!-- Node9 -->
<g id="node9" class="node">
<title>Node9</title>
<g id="a_node9"><a xlink:href="class_t_train.html#ad666fb061d1da7c44a72ec963c2098aa" target="_top" xlink:title="Carry out the actions needed when a train is to split from the front.">
<polygon fill="white" stroke="black" points="666.5,-292.05 666.5,-311.05 778.5,-311.05 778.5,-292.05 666.5,-292.05"/>
<text text-anchor="middle" x="722.5" y="-299.05" font-family="Helvetica,sans-Serif" font-size="10.00">TTrain::FrontTrainSplit</text>
</a>
</g>
</g>
<!-- Node7&#45;&gt;Node9 -->
<g id="edge17" class="edge">
<title>Node7&#45;&gt;Node9</title>
<path fill="none" stroke="midnightblue" d="M1091.64,-213.7C1071.43,-230.48 1037.25,-255.99 1003,-268.55 928.57,-295.86 836.22,-301.81 778.55,-302.5"/>
<polygon fill="midnightblue" stroke="midnightblue" points="1094.04,-216.25 1099.4,-207.11 1089.51,-210.92 1094.04,-216.25"/>
</g>
<!-- Node12 -->
<g id="node12" class="node">
<title>Node12</title>
<g id="a_node12"><a xlink:href="class_t_train.html#ad64c5823265b0c611c2e5f0613317aa5" target="_top" xlink:title="Carry out the actions needed when a train is to split from the rear.">
<polygon fill="white" stroke="black" points="667.5,-254.05 667.5,-273.05 777.5,-273.05 777.5,-254.05 667.5,-254.05"/>
<text text-anchor="middle" x="722.5" y="-261.05" font-family="Helvetica,sans-Serif" font-size="10.00">TTrain::RearTrainSplit</text>
</a>
</g>
</g>
<!-- Node7&#45;&gt;Node12 -->
<g id="edge22" class="edge">
<title>Node7&#45;&gt;Node12</title>
<path fill="none" stroke="midnightblue" d="M1084.26,-211.89C1063.12,-222.91 1032.05,-237.42 1003,-244.55 926.37,-263.38 834.6,-265.97 777.67,-265.35"/>
<polygon fill="midnightblue" stroke="midnightblue" points="1086.05,-214.91 1093.23,-207.11 1082.76,-208.73 1086.05,-214.91"/>
</g>
<!-- Node13 -->
<g id="node13" class="node">
<title>Node13</title>
<g id="a_node13"><a xlink:href="class_t_train.html#a406c172a0ba96802ada1aa04d78948d0" target="_top" xlink:title="Reverses the direction of motion of the train.">
<polygon fill="white" stroke="black" points="652,-166.05 652,-185.05 793,-185.05 793,-166.05 652,-166.05"/>
<text text-anchor="middle" x="722.5" y="-173.05" font-family="Helvetica,sans-Serif" font-size="10.00">TTrain::ChangeTrainDirection</text>
</a>
</g>
</g>
<!-- Node7&#45;&gt;Node13 -->
<g id="edge15" class="edge">
<title>Node7&#45;&gt;Node13</title>
<path fill="none" stroke="midnightblue" d="M1039.56,-193.54C969.61,-189.56 862.99,-183.49 793.27,-179.52"/>
<polygon fill="midnightblue" stroke="midnightblue" points="1039.43,-197.04 1049.61,-194.11 1039.82,-190.05 1039.43,-197.04"/>
</g>
<!-- Node14 -->
<g id="node14" class="node">
<title>Node14</title>
<g id="a_node14"><a xlink:href="class_t_train.html#a56fcfe4b9a3cef988bbeb4f4766372aa" target="_top" xlink:title="Carry out the actions needed when a new shuttle service is created from a non&#45;repeating (F&#45;nshs) serv...">
<polygon fill="white" stroke="black" points="847,-116.55 847,-146.55 985,-146.55 985,-116.55 847,-116.55"/>
<text text-anchor="start" x="855" y="-134.55" font-family="Helvetica,sans-Serif" font-size="10.00">TTrain::NewShuttleFromNon</text>
<text text-anchor="middle" x="916" y="-123.55" font-family="Helvetica,sans-Serif" font-size="10.00">RepeatService</text>
</a>
</g>
</g>
<!-- Node7&#45;&gt;Node14 -->
<g id="edge18" class="edge">
<title>Node7&#45;&gt;Node14</title>
<path fill="none" stroke="midnightblue" d="M1072.11,-184.59C1040.25,-173.7 994.68,-158.12 961.18,-146.66"/>
<polygon fill="midnightblue" stroke="midnightblue" points="1071.34,-188.03 1081.94,-187.95 1073.61,-181.41 1071.34,-188.03"/>
</g>
<!-- Node15 -->
<g id="node15" class="node">
<title>Node15</title>
<g id="a_node15"><a xlink:href="class_t_train.html#a75a2e9017b96e2a8f2a1edbd01c2cd68" target="_top" xlink:title="Carry out the actions needed when a train forms a new service (code Fns)">
<polygon fill="white" stroke="black" points="856,-78.05 856,-97.05 976,-97.05 976,-78.05 856,-78.05"/>
<text text-anchor="middle" x="916" y="-85.05" font-family="Helvetica,sans-Serif" font-size="10.00">TTrain::NewTrainService</text>
</a>
</g>
</g>
<!-- Node7&#45;&gt;Node15 -->
<g id="edge20" class="edge">
<title>Node7&#45;&gt;Node15</title>
<path fill="none" stroke="midnightblue" d="M1094.81,-180.61C1075.5,-160.15 1040.18,-126.15 1003,-107.55 994.36,-103.23 984.77,-99.82 975.21,-97.15"/>
<polygon fill="midnightblue" stroke="midnightblue" points="1092.26,-183.01 1101.62,-187.98 1097.4,-178.26 1092.26,-183.01"/>
</g>
<!-- Node16 -->
<g id="node16" class="node">
<title>Node16</title>
<g id="a_node16"><a xlink:href="class_t_train.html#a8262f447ec811db7e524c7bb885226c5" target="_top" xlink:title="Carry out the actions needed to create either a new shuttle service or (if all repeats have finished)...">
<polygon fill="white" stroke="black" points="652.5,-40.55 652.5,-70.55 792.5,-70.55 792.5,-40.55 652.5,-40.55"/>
<text text-anchor="start" x="660.5" y="-58.55" font-family="Helvetica,sans-Serif" font-size="10.00">TTrain::RepeatShuttleOrNew</text>
<text text-anchor="middle" x="722.5" y="-47.55" font-family="Helvetica,sans-Serif" font-size="10.00">NonRepeatService</text>
</a>
</g>
</g>
<!-- Node7&#45;&gt;Node16 -->
<g id="edge23" class="edge">
<title>Node7&#45;&gt;Node16</title>
<path fill="none" stroke="midnightblue" d="M1100.81,-178.48C1085.33,-148.79 1050.99,-92.47 1003,-68.55 937.24,-35.77 851.62,-37.19 792.56,-43.84"/>
<polygon fill="midnightblue" stroke="midnightblue" points="1097.86,-180.41 1105.49,-187.77 1104.12,-177.27 1097.86,-180.41"/>
</g>
<!-- Node17 -->
<g id="node17" class="node">
<title>Node17</title>
<g id="a_node17"><a xlink:href="class_t_train.html#ac6f5cda912103fda4da31bdca611e4b5" target="_top" xlink:title="Carry out the actions needed to create either a new shuttle service or (if all repeats have finished)...">
<polygon fill="white" stroke="black" points="829,-2.05 829,-21.05 1003,-21.05 1003,-2.05 829,-2.05"/>
<text text-anchor="middle" x="916" y="-9.05" font-family="Helvetica,sans-Serif" font-size="10.00">TTrain::RepeatShuttleOrRemainHere</text>
</a>
</g>
</g>
<!-- Node7&#45;&gt;Node17 -->
<g id="edge25" class="edge">
<title>Node7&#45;&gt;Node17</title>
<path fill="none" stroke="midnightblue" d="M1102.54,-178.05C1088.45,-143.85 1054.62,-73.16 1003,-35.55 994.36,-29.25 984.12,-24.61 973.79,-21.18"/>
<polygon fill="midnightblue" stroke="midnightblue" points="1099.46,-179.78 1106.42,-187.78 1105.97,-177.19 1099.46,-179.78"/>
</g>
<!-- Node18 -->
<g id="node18" class="node">
<title>Node18</title>
<g id="a_node18"><a xlink:href="class_t_train.html#affbb94aa088370056f8ca8c45a1fdd48" target="_top" xlink:title="Unplots &amp; replots train, which checks for facing signal and sets StoppedAtSignal if req&#39;d.">
<polygon fill="white" stroke="black" points="846,-204.55 846,-234.55 986,-234.55 986,-204.55 846,-204.55"/>
<text text-anchor="start" x="854" y="-222.55" font-family="Helvetica,sans-Serif" font-size="10.00">TTrain::SignallerChangeTrain</text>
<text text-anchor="middle" x="916" y="-211.55" font-family="Helvetica,sans-Serif" font-size="10.00">Direction</text>
</a>
</g>
</g>
<!-- Node7&#45;&gt;Node18 -->
<g id="edge27" class="edge">
<title>Node7&#45;&gt;Node18</title>
<path fill="none" stroke="midnightblue" d="M1039.84,-205.55C1022.32,-207.55 1003.55,-209.69 986.08,-211.68"/>
<polygon fill="midnightblue" stroke="midnightblue" points="1040.45,-209 1049.99,-204.39 1039.66,-202.05 1040.45,-209"/>
</g>
<!-- Node8&#45;&gt;Node9 -->
<g id="edge8" class="edge">
<title>Node8&#45;&gt;Node9</title>
<path fill="none" stroke="midnightblue" d="M856.85,-328.01C829.54,-322.59 797.37,-316.21 771.48,-311.07"/>
<polygon fill="midnightblue" stroke="midnightblue" points="856.19,-331.45 866.68,-329.96 857.55,-324.58 856.19,-331.45"/>
</g>
<!-- Node11 -->
<g id="node11" class="node">
<title>Node11</title>
<g id="a_node11"><a xlink:href="class_t_train_controller.html#a20a1576dea1d86ed78fc5e9f46343481" target="_top" xlink:title="called every clock tick to introduce new trains and update existing trains">
<polygon fill="white" stroke="black" points="334,-330.05 334,-349.05 459,-349.05 459,-330.05 334,-330.05"/>
<text text-anchor="middle" x="396.5" y="-337.05" font-family="Helvetica,sans-Serif" font-size="10.00">TTrainController::Operate</text>
</a>
</g>
</g>
<!-- Node8&#45;&gt;Node11 -->
<g id="edge12" class="edge">
<title>Node8&#45;&gt;Node11</title>
<path fill="none" stroke="midnightblue" d="M841.54,-339.55C739.02,-339.55 554.88,-339.55 459.13,-339.55"/>
<polygon fill="midnightblue" stroke="midnightblue" points="841.8,-343.05 851.8,-339.55 841.8,-336.05 841.8,-343.05"/>
</g>
<!-- Node8&#45;&gt;Node12 -->
<g id="edge13" class="edge">
<title>Node8&#45;&gt;Node12</title>
<path fill="none" stroke="midnightblue" d="M887.82,-325.22C863.46,-312.77 826.52,-294.86 793,-282.55 783.49,-279.06 773.04,-275.87 763.2,-273.15"/>
<polygon fill="midnightblue" stroke="midnightblue" points="886.32,-328.38 896.82,-329.86 889.53,-322.16 886.32,-328.38"/>
</g>
<!-- Node10 -->
<g id="node10" class="node">
<title>Node10</title>
<g id="a_node10"><a xlink:href="class_t_train.html#a89ad640ecf8f5163c40727b4e28575fc" target="_top" xlink:title="Major function called at each clock tick for each train &amp; handles all train movement &amp; associated act...">
<polygon fill="white" stroke="black" points="505,-147.05 505,-166.05 606,-166.05 606,-147.05 505,-147.05"/>
<text text-anchor="middle" x="555.5" y="-154.05" font-family="Helvetica,sans-Serif" font-size="10.00">TTrain::UpdateTrain</text>
</a>
</g>
</g>
<!-- Node9&#45;&gt;Node10 -->
<g id="edge9" class="edge">
<title>Node9&#45;&gt;Node10</title>
<path fill="none" stroke="midnightblue" d="M661.34,-287.91C658.08,-286.32 654.94,-284.54 652,-282.55 605.61,-251.19 572.51,-189.8 560.98,-166.15"/>
<polygon fill="midnightblue" stroke="midnightblue" points="660.21,-291.24 670.79,-291.93 662.96,-284.8 660.21,-291.24"/>
</g>
<!-- Node10&#45;&gt;Node11 -->
<g id="edge10" class="edge">
<title>Node10&#45;&gt;Node11</title>
<path fill="none" stroke="midnightblue" d="M539.75,-173.74C507.5,-211.34 431.52,-299.89 406.02,-329.62"/>
<polygon fill="midnightblue" stroke="midnightblue" points="542.43,-176 546.28,-166.13 537.11,-171.44 542.43,-176"/>
</g>
<!-- Node11&#45;&gt;Node5 -->
<g id="edge11" class="edge">
<title>Node11&#45;&gt;Node5</title>
<path fill="none" stroke="midnightblue" d="M323.83,-348.28C315.24,-349.33 306.54,-350.39 298.16,-351.41"/>
<polygon fill="midnightblue" stroke="midnightblue" points="324.34,-351.74 333.84,-347.06 323.49,-344.8 324.34,-351.74"/>
</g>
<!-- Node12&#45;&gt;Node10 -->
<g id="edge14" class="edge">
<title>Node12&#45;&gt;Node10</title>
<path fill="none" stroke="midnightblue" d="M664.62,-250.47C660.24,-248.72 655.99,-246.76 652,-244.55 613.93,-223.47 578.98,-184.16 564.09,-166.09"/>
<polygon fill="midnightblue" stroke="midnightblue" points="663.72,-253.86 674.31,-253.95 666.08,-247.27 663.72,-253.86"/>
</g>
<!-- Node13&#45;&gt;Node10 -->
<g id="edge16" class="edge">
<title>Node13&#45;&gt;Node10</title>
<path fill="none" stroke="midnightblue" d="M641.43,-166.33C629.37,-164.94 617.25,-163.55 606.08,-162.26"/>
<polygon fill="midnightblue" stroke="midnightblue" points="641.19,-169.83 651.53,-167.49 641.99,-162.87 641.19,-169.83"/>
</g>
<!-- Node14&#45;&gt;Node10 -->
<g id="edge19" class="edge">
<title>Node14&#45;&gt;Node10</title>
<path fill="none" stroke="midnightblue" d="M836.6,-137.02C766.42,-141.91 665.67,-148.94 606.07,-153.09"/>
<polygon fill="midnightblue" stroke="midnightblue" points="836.99,-140.5 846.73,-136.31 836.51,-133.52 836.99,-140.5"/>
</g>
<!-- Node15&#45;&gt;Node10 -->
<g id="edge21" class="edge">
<title>Node15&#45;&gt;Node10</title>
<path fill="none" stroke="midnightblue" d="M849.48,-98.84C796.19,-108.17 719.11,-122.05 652,-135.55 634.36,-139.1 614.95,-143.31 598.27,-147.03"/>
<polygon fill="midnightblue" stroke="midnightblue" points="850.23,-102.26 859.48,-97.09 849.02,-95.36 850.23,-102.26"/>
</g>
<!-- Node16&#45;&gt;Node10 -->
<g id="edge24" class="edge">
<title>Node16&#45;&gt;Node10</title>
<path fill="none" stroke="midnightblue" d="M672.59,-74.95C665.55,-78.24 658.5,-81.8 652,-85.55 619.43,-104.35 584.9,-132.3 567.66,-146.89"/>
<polygon fill="midnightblue" stroke="midnightblue" points="674.44,-77.96 682.12,-70.67 671.57,-71.57 674.44,-77.96"/>
</g>
<!-- Node17&#45;&gt;Node10 -->
<g id="edge26" class="edge">
<title>Node17&#45;&gt;Node10</title>
<path fill="none" stroke="midnightblue" d="M836.69,-1.32C781.76,2.14 708.36,-0.97 652,-31.55 602.79,-58.25 571.15,-122.35 560.5,-146.82"/>
<polygon fill="midnightblue" stroke="midnightblue" points="836.5,-4.81 846.72,-2.04 836.99,2.17 836.5,-4.81"/>
</g>
<!-- Node19 -->
<g id="node19" class="node">
<title>Node19</title>
<g id="a_node19"><a xlink:href="class_t_interface.html#aaaf32c3c815553f7ba70698e0f0071bb" target="_top" xlink:title=" ">
<polygon fill="white" stroke="black" points="654.5,-204.55 654.5,-234.55 790.5,-234.55 790.5,-204.55 654.5,-204.55"/>
<text text-anchor="start" x="662.5" y="-222.55" font-family="Helvetica,sans-Serif" font-size="10.00">TInterface::ChangeDirection</text>
<text text-anchor="middle" x="722.5" y="-211.55" font-family="Helvetica,sans-Serif" font-size="10.00">MenuItemClick</text>
</a>
</g>
</g>
<!-- Node18&#45;&gt;Node19 -->
<g id="edge28" class="edge">
<title>Node18&#45;&gt;Node19</title>
<path fill="none" stroke="midnightblue" d="M835.61,-219.55C820.66,-219.55 805.15,-219.55 790.61,-219.55"/>
<polygon fill="midnightblue" stroke="midnightblue" points="835.86,-223.05 845.86,-219.55 835.86,-216.05 835.86,-223.05"/>
</g>
</g>
</svg>
