<?xml version="1.0" encoding="UTF-8" standalone="no"?>
<!DOCTYPE svg PUBLIC "-//W3C//DTD SVG 1.1//EN"
 "http://www.w3.org/Graphics/SVG/1.1/DTD/svg11.dtd">
<!-- Generated by graphviz version 2.44.1 (20200629.0800)
 -->
<!-- Title: TTrack::LinkTrackNoMessages Pages: 1 -->
<svg width="1197pt" height="121pt"
 viewBox="0.00 0.00 1197.00 121.00" xmlns="http://www.w3.org/2000/svg" xmlns:xlink="http://www.w3.org/1999/xlink">
<g id="graph0" class="graph" transform="scale(1 1) rotate(0) translate(4 117)">
<title>TTrack::LinkTrackNoMessages</title>
<polygon fill="white" stroke="transparent" points="-4,4 -4,-117 1193,-117 1193,4 -4,4"/>
<!-- Node1 -->
<g id="node1" class="node">
<title>Node1</title>
<g id="a_node1"><a xlink:title="Attempt to link the track and return true if successful, don&#39;t issue any screen messages....">
<polygon fill="#bfbfbf" stroke="black" points="1038,-28 1038,-47 1189,-47 1189,-28 1038,-28"/>
<text text-anchor="middle" x="1113.5" y="-35" font-family="Helvetica,sans-Serif" font-size="10.00">TTrack::LinkTrackNoMessages</text>
</a>
</g>
</g>
<!-- Node2 -->
<g id="node2" class="node">
<title>Node2</title>
<g id="a_node2"><a xlink:href="class_t_track.html#ac1dc75f1df6278c62f13e23469b80982" target="_top" xlink:title="Handles all tasks associated with track linking, returns true if successful (see also LinkTrack &amp; Lin...">
<polygon fill="white" stroke="black" points="866,-28 866,-47 1002,-47 1002,-28 866,-28"/>
<text text-anchor="middle" x="934" y="-35" font-family="Helvetica,sans-Serif" font-size="10.00">TTrack::TryToConnectTrack</text>
</a>
</g>
</g>
<!-- Node1&#45;&gt;Node2 -->
<g id="edge1" class="edge">
<title>Node1&#45;&gt;Node2</title>
<path fill="none" stroke="midnightblue" d="M1027.93,-37.5C1019.31,-37.5 1010.64,-37.5 1002.25,-37.5"/>
<polygon fill="midnightblue" stroke="midnightblue" points="1028,-41 1038,-37.5 1028,-34 1028,-41"/>
</g>
<!-- Node3 -->
<g id="node3" class="node">
<title>Node3</title>
<g id="a_node3"><a xlink:href="class_t_track.html#a09140dd23c45ccd541f056c3dd257c13" target="_top" xlink:title="Load track elements (active &amp; inactive) from the file into the relevant vectors and maps,...">
<polygon fill="white" stroke="black" points="716,-50 716,-69 813,-69 813,-50 716,-50"/>
<text text-anchor="middle" x="764.5" y="-57" font-family="Helvetica,sans-Serif" font-size="10.00">TTrack::LoadTrack</text>
</a>
</g>
</g>
<!-- Node2&#45;&gt;Node3 -->
<g id="edge2" class="edge">
<title>Node2&#45;&gt;Node3</title>
<path fill="none" stroke="midnightblue" d="M855.82,-47.64C841.25,-49.55 826.42,-51.5 813.1,-53.25"/>
<polygon fill="midnightblue" stroke="midnightblue" points="856.38,-51.09 865.84,-46.32 855.47,-44.15 856.38,-51.09"/>
</g>
<!-- Node10 -->
<g id="node10" class="node">
<title>Node10</title>
<g id="a_node10"><a xlink:href="class_t_interface.html#aab42b12ff3ba43ad2f70994b5399dd90" target="_top" xlink:title=" ">
<polygon fill="white" stroke="black" points="699,-0.5 699,-30.5 830,-30.5 830,-0.5 699,-0.5"/>
<text text-anchor="start" x="707" y="-18.5" font-family="Helvetica,sans-Serif" font-size="10.00">TInterface::TrackOKButton</text>
<text text-anchor="middle" x="764.5" y="-7.5" font-family="Helvetica,sans-Serif" font-size="10.00">Click</text>
</a>
</g>
</g>
<!-- Node2&#45;&gt;Node10 -->
<g id="edge10" class="edge">
<title>Node2&#45;&gt;Node10</title>
<path fill="none" stroke="midnightblue" d="M855.84,-27.37C847.28,-26.24 838.62,-25.1 830.23,-24"/>
<polygon fill="midnightblue" stroke="midnightblue" points="855.47,-30.85 865.84,-28.68 856.38,-23.91 855.47,-30.85"/>
</g>
<!-- Node4 -->
<g id="node4" class="node">
<title>Node4</title>
<g id="a_node4"><a xlink:href="class_t_interface.html#a95c3545a30171ca5a08e34c58160079c" target="_top" xlink:title="Load a railway file. The Active elements marker now has a &#39;1&#39; at the end if there are user graphics t...">
<polygon fill="white" stroke="black" points="528.5,-88 528.5,-107 647.5,-107 647.5,-88 528.5,-88"/>
<text text-anchor="middle" x="588" y="-95" font-family="Helvetica,sans-Serif" font-size="10.00">TInterface::LoadRailway</text>
</a>
</g>
</g>
<!-- Node3&#45;&gt;Node4 -->
<g id="edge3" class="edge">
<title>Node3&#45;&gt;Node4</title>
<path fill="none" stroke="midnightblue" d="M709.53,-71.25C684.86,-76.63 656.01,-82.91 632.72,-87.98"/>
<polygon fill="midnightblue" stroke="midnightblue" points="710.44,-74.64 719.47,-69.09 708.95,-67.8 710.44,-74.64"/>
</g>
<!-- Node6 -->
<g id="node6" class="node">
<title>Node6</title>
<g id="a_node6"><a xlink:href="class_t_interface.html#a636b1b4bd29f2678a3290ed2d282f1c2" target="_top" xlink:title="Load a session file.">
<polygon fill="white" stroke="black" points="345,-25 345,-44 466,-44 466,-25 345,-25"/>
<text text-anchor="middle" x="405.5" y="-32" font-family="Helvetica,sans-Serif" font-size="10.00">TInterface::LoadSession</text>
</a>
</g>
</g>
<!-- Node3&#45;&gt;Node6 -->
<g id="edge5" class="edge">
<title>Node3&#45;&gt;Node6</title>
<path fill="none" stroke="midnightblue" d="M705.52,-55.44C639.66,-50.83 532.74,-43.34 466.18,-38.68"/>
<polygon fill="midnightblue" stroke="midnightblue" points="705.5,-58.95 715.72,-56.15 705.99,-51.96 705.5,-58.95"/>
</g>
<!-- Node9 -->
<g id="node9" class="node">
<title>Node9</title>
<g id="a_node9"><a xlink:href="class_t_interface.html#a3904f26b67b9512507960187b37b6f7b" target="_top" xlink:title="Checks session file integrity prior to loading, true for success.">
<polygon fill="white" stroke="black" points="513,-0.5 513,-30.5 663,-30.5 663,-0.5 513,-0.5"/>
<text text-anchor="start" x="521" y="-18.5" font-family="Helvetica,sans-Serif" font-size="10.00">TInterface::SessionFileIntegrity</text>
<text text-anchor="middle" x="588" y="-7.5" font-family="Helvetica,sans-Serif" font-size="10.00">Check</text>
</a>
</g>
</g>
<!-- Node3&#45;&gt;Node9 -->
<g id="edge8" class="edge">
<title>Node3&#45;&gt;Node9</title>
<path fill="none" stroke="midnightblue" d="M715.81,-47.47C695.11,-42.25 670.64,-36.09 648.75,-30.57"/>
<polygon fill="midnightblue" stroke="midnightblue" points="715.08,-50.9 725.64,-49.95 716.8,-44.11 715.08,-50.9"/>
</g>
<!-- Node5 -->
<g id="node5" class="node">
<title>Node5</title>
<g id="a_node5"><a xlink:href="class_t_interface.html#a96249c7622a9d55541de186483e04d2e" target="_top" xlink:title=" ">
<polygon fill="white" stroke="black" points="334,-82.5 334,-112.5 477,-112.5 477,-82.5 334,-82.5"/>
<text text-anchor="start" x="342" y="-100.5" font-family="Helvetica,sans-Serif" font-size="10.00">TInterface::LoadRailwayMenu</text>
<text text-anchor="middle" x="405.5" y="-89.5" font-family="Helvetica,sans-Serif" font-size="10.00">ItemClick</text>
</a>
</g>
</g>
<!-- Node4&#45;&gt;Node5 -->
<g id="edge4" class="edge">
<title>Node4&#45;&gt;Node5</title>
<path fill="none" stroke="midnightblue" d="M518.25,-97.5C504.77,-97.5 490.62,-97.5 477.09,-97.5"/>
<polygon fill="midnightblue" stroke="midnightblue" points="518.4,-101 528.4,-97.5 518.4,-94 518.4,-101"/>
</g>
<!-- Node7 -->
<g id="node7" class="node">
<title>Node7</title>
<g id="a_node7"><a xlink:href="class_t_interface.html#a6139ffb52492eb89e5487a8a3cd647b5" target="_top" xlink:title="The main loop, called every clock tick via MasterClockTimer.">
<polygon fill="white" stroke="black" points="179,-25 179,-44 298,-44 298,-25 179,-25"/>
<text text-anchor="middle" x="238.5" y="-32" font-family="Helvetica,sans-Serif" font-size="10.00">TInterface::ClockTimer2</text>
</a>
</g>
</g>
<!-- Node6&#45;&gt;Node7 -->
<g id="edge6" class="edge">
<title>Node6&#45;&gt;Node7</title>
<path fill="none" stroke="midnightblue" d="M334.8,-34.5C322.6,-34.5 310.01,-34.5 298.15,-34.5"/>
<polygon fill="midnightblue" stroke="midnightblue" points="334.93,-38 344.93,-34.5 334.93,-31 334.93,-38"/>
</g>
<!-- Node8 -->
<g id="node8" class="node">
<title>Node8</title>
<g id="a_node8"><a xlink:href="class_t_interface.html#ace30a12d923fc7fb489afabb0a09aa4f" target="_top" xlink:title=" ">
<polygon fill="white" stroke="black" points="0,-25 0,-44 143,-44 143,-25 0,-25"/>
<text text-anchor="middle" x="71.5" y="-32" font-family="Helvetica,sans-Serif" font-size="10.00">TInterface::MasterClockTimer</text>
</a>
</g>
</g>
<!-- Node7&#45;&gt;Node8 -->
<g id="edge7" class="edge">
<title>Node7&#45;&gt;Node8</title>
<path fill="none" stroke="midnightblue" d="M168.67,-34.5C160.22,-34.5 151.57,-34.5 143.09,-34.5"/>
<polygon fill="midnightblue" stroke="midnightblue" points="168.86,-38 178.86,-34.5 168.86,-31 168.86,-38"/>
</g>
<!-- Node9&#45;&gt;Node6 -->
<g id="edge9" class="edge">
<title>Node9&#45;&gt;Node6</title>
<path fill="none" stroke="midnightblue" d="M502.52,-24.39C490.21,-25.69 477.76,-27 466.09,-28.23"/>
<polygon fill="midnightblue" stroke="midnightblue" points="503.22,-27.84 512.8,-23.31 502.49,-20.88 503.22,-27.84"/>
</g>
</g>
</svg>
