<?xml version="1.0" encoding="UTF-8" standalone="no"?>
<!DOCTYPE svg PUBLIC "-//W3C//DTD SVG 1.1//EN"
 "http://www.w3.org/Graphics/SVG/1.1/DTD/svg11.dtd">
<!-- Generated by graphviz version 2.44.1 (20200629.0800)
 -->
<!-- Title: TInterface::BuildTrainDataVectorForLoadFile Pages: 1 -->
<svg width="977pt" height="88pt"
 viewBox="0.00 0.00 977.00 88.00" xmlns="http://www.w3.org/2000/svg" xmlns:xlink="http://www.w3.org/1999/xlink">
<g id="graph0" class="graph" transform="scale(1 1) rotate(0) translate(4 84)">
<title>TInterface::BuildTrainDataVectorForLoadFile</title>
<polygon fill="white" stroke="transparent" points="-4,4 -4,-84 973,-84 973,4 -4,4"/>
<!-- Node1 -->
<g id="node1" class="node">
<title>Node1</title>
<g id="a_node1"><a xlink:title="Convert a stored timetable file (either as a stand alone file or within a session file) to a loaded t...">
<polygon fill="#bfbfbf" stroke="black" points="841,-24.5 841,-54.5 969,-54.5 969,-24.5 841,-24.5"/>
<text text-anchor="start" x="849" y="-42.5" font-family="Helvetica,sans-Serif" font-size="10.00">TInterface::BuildTrainData</text>
<text text-anchor="middle" x="905" y="-31.5" font-family="Helvetica,sans-Serif" font-size="10.00">VectorForLoadFile</text>
</a>
</g>
</g>
<!-- Node2 -->
<g id="node2" class="node">
<title>Node2</title>
<g id="a_node2"><a xlink:href="class_t_interface.html#a92d5a9e07b9362dee2296b7759a1c83d" target="_top" xlink:title="Loads timetable into memory from a session file, true if successful.">
<polygon fill="white" stroke="black" points="677,-49.5 677,-79.5 805,-79.5 805,-49.5 677,-49.5"/>
<text text-anchor="start" x="685" y="-67.5" font-family="Helvetica,sans-Serif" font-size="10.00">TInterface::LoadTimetable</text>
<text text-anchor="middle" x="741" y="-56.5" font-family="Helvetica,sans-Serif" font-size="10.00">FromSessionFile</text>
</a>
</g>
</g>
<!-- Node1&#45;&gt;Node2 -->
<g id="edge1" class="edge">
<title>Node1&#45;&gt;Node2</title>
<path fill="none" stroke="midnightblue" d="M830.91,-50.78C822.32,-52.1 813.62,-53.45 805.19,-54.75"/>
<polygon fill="midnightblue" stroke="midnightblue" points="831.55,-54.22 840.9,-49.24 830.49,-47.3 831.55,-54.22"/>
</g>
<!-- Node7 -->
<g id="node7" class="node">
<title>Node7</title>
<g id="a_node7"><a xlink:href="class_t_interface.html#a15a2f5ad77e4f6c2b0cc6314224dfb78" target="_top" xlink:title=" ">
<polygon fill="white" stroke="black" points="677,-0.5 677,-30.5 805,-30.5 805,-0.5 677,-0.5"/>
<text text-anchor="start" x="685" y="-18.5" font-family="Helvetica,sans-Serif" font-size="10.00">TInterface::LoadTimetable</text>
<text text-anchor="middle" x="741" y="-7.5" font-family="Helvetica,sans-Serif" font-size="10.00">MenuItemClick</text>
</a>
</g>
</g>
<!-- Node1&#45;&gt;Node7 -->
<g id="edge7" class="edge">
<title>Node1&#45;&gt;Node7</title>
<path fill="none" stroke="midnightblue" d="M830.91,-28.67C822.32,-27.4 813.62,-26.11 805.19,-24.86"/>
<polygon fill="midnightblue" stroke="midnightblue" points="830.5,-32.15 840.9,-30.15 831.52,-25.22 830.5,-32.15"/>
</g>
<!-- Node3 -->
<g id="node3" class="node">
<title>Node3</title>
<g id="a_node3"><a xlink:href="class_t_interface.html#a636b1b4bd29f2678a3290ed2d282f1c2" target="_top" xlink:title="Load a session file.">
<polygon fill="white" stroke="black" points="334,-55 334,-74 455,-74 455,-55 334,-55"/>
<text text-anchor="middle" x="394.5" y="-62" font-family="Helvetica,sans-Serif" font-size="10.00">TInterface::LoadSession</text>
</a>
</g>
</g>
<!-- Node2&#45;&gt;Node3 -->
<g id="edge2" class="edge">
<title>Node2&#45;&gt;Node3</title>
<path fill="none" stroke="midnightblue" d="M666.75,-66.15C658.07,-66.29 649.34,-66.42 641,-66.5 574.34,-67.17 557.66,-67.2 491,-66.5 479.39,-66.38 466.99,-66.17 455.1,-65.94"/>
<polygon fill="midnightblue" stroke="midnightblue" points="666.96,-69.64 676.89,-65.97 666.83,-62.64 666.96,-69.64"/>
</g>
<!-- Node6 -->
<g id="node6" class="node">
<title>Node6</title>
<g id="a_node6"><a xlink:href="class_t_interface.html#a3904f26b67b9512507960187b37b6f7b" target="_top" xlink:title="Checks session file integrity prior to loading, true for success.">
<polygon fill="white" stroke="black" points="491,-27.5 491,-57.5 641,-57.5 641,-27.5 491,-27.5"/>
<text text-anchor="start" x="499" y="-45.5" font-family="Helvetica,sans-Serif" font-size="10.00">TInterface::SessionFileIntegrity</text>
<text text-anchor="middle" x="566" y="-34.5" font-family="Helvetica,sans-Serif" font-size="10.00">Check</text>
</a>
</g>
</g>
<!-- Node2&#45;&gt;Node6 -->
<g id="edge5" class="edge">
<title>Node2&#45;&gt;Node6</title>
<path fill="none" stroke="midnightblue" d="M666.49,-55.15C658.14,-54.09 649.63,-53.01 641.28,-51.95"/>
<polygon fill="midnightblue" stroke="midnightblue" points="666.2,-58.64 676.56,-56.43 667.08,-51.7 666.2,-58.64"/>
</g>
<!-- Node4 -->
<g id="node4" class="node">
<title>Node4</title>
<g id="a_node4"><a xlink:href="class_t_interface.html#a6139ffb52492eb89e5487a8a3cd647b5" target="_top" xlink:title="The main loop, called every clock tick via MasterClockTimer.">
<polygon fill="white" stroke="black" points="179,-55 179,-74 298,-74 298,-55 179,-55"/>
<text text-anchor="middle" x="238.5" y="-62" font-family="Helvetica,sans-Serif" font-size="10.00">TInterface::ClockTimer2</text>
</a>
</g>
</g>
<!-- Node3&#45;&gt;Node4 -->
<g id="edge3" class="edge">
<title>Node3&#45;&gt;Node4</title>
<path fill="none" stroke="midnightblue" d="M323.92,-64.5C315.3,-64.5 306.56,-64.5 298.12,-64.5"/>
<polygon fill="midnightblue" stroke="midnightblue" points="323.96,-68 333.96,-64.5 323.96,-61 323.96,-68"/>
</g>
<!-- Node5 -->
<g id="node5" class="node">
<title>Node5</title>
<g id="a_node5"><a xlink:href="class_t_interface.html#ace30a12d923fc7fb489afabb0a09aa4f" target="_top" xlink:title=" ">
<polygon fill="white" stroke="black" points="0,-55 0,-74 143,-74 143,-55 0,-55"/>
<text text-anchor="middle" x="71.5" y="-62" font-family="Helvetica,sans-Serif" font-size="10.00">TInterface::MasterClockTimer</text>
</a>
</g>
</g>
<!-- Node4&#45;&gt;Node5 -->
<g id="edge4" class="edge">
<title>Node4&#45;&gt;Node5</title>
<path fill="none" stroke="midnightblue" d="M168.67,-64.5C160.22,-64.5 151.57,-64.5 143.09,-64.5"/>
<polygon fill="midnightblue" stroke="midnightblue" points="168.86,-68 178.86,-64.5 168.86,-61 168.86,-68"/>
</g>
<!-- Node6&#45;&gt;Node3 -->
<g id="edge6" class="edge">
<title>Node6&#45;&gt;Node3</title>
<path fill="none" stroke="midnightblue" d="M480.55,-53.46C471.93,-54.58 463.3,-55.7 455.02,-56.77"/>
<polygon fill="midnightblue" stroke="midnightblue" points="481.19,-56.91 490.65,-52.15 480.29,-49.97 481.19,-56.91"/>
</g>
</g>
</svg>
