<?xml version="1.0" encoding="UTF-8" standalone="no"?>
<!DOCTYPE svg PUBLIC "-//W3C//DTD SVG 1.1//EN"
 "http://www.w3.org/Graphics/SVG/1.1/DTD/svg11.dtd">
<!-- Generated by graphviz version 2.44.1 (20200629.0800)
 -->
<!-- Title: TTrack::RepositionAndMapTrack Pages: 1 -->
<svg width="861pt" height="732pt"
 viewBox="0.00 0.00 861.00 732.05" xmlns="http://www.w3.org/2000/svg" xmlns:xlink="http://www.w3.org/1999/xlink">
<g id="graph0" class="graph" transform="scale(1 1) rotate(0) translate(4 728.05)">
<title>TTrack::RepositionAndMapTrack</title>
<polygon fill="white" stroke="transparent" points="-4,4 -4,-728.05 857,-728.05 857,4 -4,4"/>
<!-- Node1 -->
<g id="node1" class="node">
<title>Node1</title>
<g id="a_node1"><a xlink:title="When track is being built it is entered into the TrackVector in the order in which it is built,...">
<polygon fill="#bfbfbf" stroke="black" points="0,-391.28 0,-421.28 134,-421.28 134,-391.28 0,-391.28"/>
<text text-anchor="start" x="8" y="-409.28" font-family="Helvetica,sans-Serif" font-size="10.00">TTrack::RepositionAndMap</text>
<text text-anchor="middle" x="67" y="-398.28" font-family="Helvetica,sans-Serif" font-size="10.00">Track</text>
</a>
</g>
</g>
<!-- Node2 -->
<g id="node2" class="node">
<title>Node2</title>
<g id="a_node2"><a xlink:href="class_t_utilities.html#ae1eddca13cc3c492839e131f40ec21c0" target="_top" xlink:title="pops the last entry off the call stack, throws an error if called when empty">
<polygon fill="white" stroke="black" points="743,-527.78 743,-546.78 853,-546.78 853,-527.78 743,-527.78"/>
<text text-anchor="middle" x="798" y="-534.78" font-family="Helvetica,sans-Serif" font-size="10.00">TUtilities::CallLogPop</text>
</a>
</g>
</g>
<!-- Node1&#45;&gt;Node2 -->
<g id="edge1" class="edge">
<title>Node1&#45;&gt;Node2</title>
<path fill="none" stroke="midnightblue" d="M81.68,-421.61C100.5,-442.28 135.93,-479.65 170,-507.28 318.85,-627.96 364.36,-671.59 553,-705.28 620.38,-717.31 648.28,-740.44 707,-705.28 761.8,-672.47 785.13,-593.62 793.29,-556.82"/>
<polygon fill="midnightblue" stroke="midnightblue" points="796.75,-557.34 795.35,-546.84 789.9,-555.92 796.75,-557.34"/>
</g>
<!-- Node3 -->
<g id="node3" class="node">
<title>Node3</title>
<g id="a_node3"><a xlink:href="class_t_track.html#aaf3f48b8df9877499aaf4c05f804426c" target="_top" xlink:title="Validity test.">
<polygon fill="white" stroke="black" points="370.5,-533.28 370.5,-563.28 512.5,-563.28 512.5,-533.28 370.5,-533.28"/>
<text text-anchor="start" x="378.5" y="-551.28" font-family="Helvetica,sans-Serif" font-size="10.00">TTrack::CheckLocationName</text>
<text text-anchor="middle" x="441.5" y="-540.28" font-family="Helvetica,sans-Serif" font-size="10.00">MultiMap</text>
</a>
</g>
</g>
<!-- Node1&#45;&gt;Node3 -->
<g id="edge2" class="edge">
<title>Node1&#45;&gt;Node3</title>
<path fill="none" stroke="midnightblue" d="M90.27,-421.47C110.4,-434.69 141.21,-453.66 170,-466.28 234.02,-494.34 310.55,-516.56 365.84,-530.75"/>
<polygon fill="midnightblue" stroke="midnightblue" points="365.01,-534.15 375.56,-533.22 366.73,-527.37 365.01,-534.15"/>
</g>
<!-- Node5 -->
<g id="node5" class="node">
<title>Node5</title>
<g id="a_node5"><a xlink:href="class_t_utilities.html#a34bd6bb5305bc29afdf424f6d35a921c" target="_top" xlink:title="creates a string of the form &#39;hh:mm:ss&#39; for use in call &amp; event logging">
<polygon fill="white" stroke="black" points="743,-254.78 743,-273.78 853,-273.78 853,-254.78 743,-254.78"/>
<text text-anchor="middle" x="798" y="-261.78" font-family="Helvetica,sans-Serif" font-size="10.00">TUtilities::TimeStamp</text>
</a>
</g>
</g>
<!-- Node1&#45;&gt;Node5 -->
<g id="edge38" class="edge">
<title>Node1&#45;&gt;Node5</title>
<path fill="none" stroke="midnightblue" d="M76.17,-391.22C106.47,-336.92 218.32,-149.73 366,-61.28 439.08,-17.51 468.34,-28.67 553,-19.28 621.03,-11.73 650.88,19.9 707,-19.28 782.85,-72.22 794.96,-196.51 796.75,-244.7"/>
<polygon fill="midnightblue" stroke="midnightblue" points="793.26,-244.84 797.01,-254.75 800.25,-244.66 793.26,-244.84"/>
</g>
<!-- Node8 -->
<g id="node8" class="node">
<title>Node8</title>
<g id="a_node8"><a xlink:href="class_t_track.html#a6fa2d4f2c6c94e2c6b4f7218f5356108" target="_top" xlink:title="Validity test.">
<polygon fill="white" stroke="black" points="367.5,-461.28 367.5,-491.28 515.5,-491.28 515.5,-461.28 367.5,-461.28"/>
<text text-anchor="start" x="375.5" y="-479.28" font-family="Helvetica,sans-Serif" font-size="10.00">TTrack::CheckMapAndInactive</text>
<text text-anchor="middle" x="441.5" y="-468.28" font-family="Helvetica,sans-Serif" font-size="10.00">Track</text>
</a>
</g>
</g>
<!-- Node1&#45;&gt;Node8 -->
<g id="edge14" class="edge">
<title>Node1&#45;&gt;Node8</title>
<path fill="none" stroke="midnightblue" d="M108.73,-421.28C127.22,-427.62 149.5,-434.6 170,-439.28 231.97,-453.42 303.25,-462.9 357.07,-468.72"/>
<polygon fill="midnightblue" stroke="midnightblue" points="356.94,-472.23 367.25,-469.8 357.68,-465.27 356.94,-472.23"/>
</g>
<!-- Node9 -->
<g id="node9" class="node">
<title>Node9</title>
<g id="a_node9"><a xlink:href="class_t_track.html#a4045fe3f4a71f30a137a7e4581d39231" target="_top" xlink:title="Validity test.">
<polygon fill="white" stroke="black" points="371.5,-363.78 371.5,-382.78 511.5,-382.78 511.5,-363.78 371.5,-363.78"/>
<text text-anchor="middle" x="441.5" y="-370.78" font-family="Helvetica,sans-Serif" font-size="10.00">TTrack::CheckMapAndTrack</text>
</a>
</g>
</g>
<!-- Node1&#45;&gt;Node9 -->
<g id="edge18" class="edge">
<title>Node1&#45;&gt;Node9</title>
<path fill="none" stroke="midnightblue" d="M134.17,-400.42C197.7,-394.79 293.74,-386.28 361.31,-380.29"/>
<polygon fill="midnightblue" stroke="midnightblue" points="361.83,-383.76 371.48,-379.39 361.21,-376.79 361.83,-383.76"/>
</g>
<!-- Node11 -->
<g id="node11" class="node">
<title>Node11</title>
<g id="a_node11"><a xlink:href="class_t_track.html#a4a948544c9ac877232ec721db8bfc914" target="_top" xlink:title="Clears the existing LocationNameMultiMap and rebuilds it from TrackVector and InactiveTrackVector....">
<polygon fill="white" stroke="black" points="557,-410.28 557,-440.28 703,-440.28 703,-410.28 557,-410.28"/>
<text text-anchor="start" x="565" y="-428.28" font-family="Helvetica,sans-Serif" font-size="10.00">TTrack::RebuildLocationName</text>
<text text-anchor="middle" x="630" y="-417.28" font-family="Helvetica,sans-Serif" font-size="10.00">MultiMap</text>
</a>
</g>
</g>
<!-- Node1&#45;&gt;Node11 -->
<g id="edge24" class="edge">
<title>Node1&#45;&gt;Node11</title>
<path fill="none" stroke="midnightblue" d="M134,-408.51C236.66,-411.99 434.4,-418.69 546.38,-422.48"/>
<polygon fill="midnightblue" stroke="midnightblue" points="546.5,-425.99 556.61,-422.83 546.74,-418.99 546.5,-425.99"/>
</g>
<!-- Node12 -->
<g id="node12" class="node">
<title>Node12</title>
<g id="a_node12"><a xlink:href="class_t_track.html#a1be0a43c6b1dc736d981fe7d883d7f01" target="_top" xlink:title="Called by RepositionAndMapTrack to reset the connecting elements of all set gaps (their TrackVector p...">
<polygon fill="white" stroke="black" points="170,-301.78 170,-320.78 330,-320.78 330,-301.78 170,-301.78"/>
<text text-anchor="middle" x="250" y="-308.78" font-family="Helvetica,sans-Serif" font-size="10.00">TTrack::ResetGapsFromGapMap</text>
</a>
</g>
</g>
<!-- Node1&#45;&gt;Node12 -->
<g id="edge27" class="edge">
<title>Node1&#45;&gt;Node12</title>
<path fill="none" stroke="midnightblue" d="M86.07,-391.05C105.66,-375.21 138.36,-350.62 170,-335.28 179.09,-330.87 189.17,-327.07 199,-323.87"/>
<polygon fill="midnightblue" stroke="midnightblue" points="200.17,-327.17 208.7,-320.88 198.11,-320.49 200.17,-327.17"/>
</g>
<!-- Node15 -->
<g id="node15" class="node">
<title>Node15</title>
<g id="a_node15"><a xlink:href="class_t_track.html#ad377e5a1f152f2e89832c0f9bcfd261f" target="_top" xlink:title="A range&#45;checked version of TrackElement.at(At)">
<polygon fill="white" stroke="black" points="380.5,-317.78 380.5,-336.78 502.5,-336.78 502.5,-317.78 380.5,-317.78"/>
<text text-anchor="middle" x="441.5" y="-324.78" font-family="Helvetica,sans-Serif" font-size="10.00">TTrack::TrackElementAt</text>
</a>
</g>
</g>
<!-- Node1&#45;&gt;Node15 -->
<g id="edge39" class="edge">
<title>Node1&#45;&gt;Node15</title>
<path fill="none" stroke="midnightblue" d="M124.51,-391.27C139.28,-387.52 155.2,-383.61 170,-380.28 240.65,-364.37 322.3,-348.75 377.25,-338.63"/>
<polygon fill="midnightblue" stroke="midnightblue" points="377.99,-342.06 387.19,-336.81 376.72,-335.17 377.99,-342.06"/>
</g>
<!-- Node3&#45;&gt;Node2 -->
<g id="edge3" class="edge">
<title>Node3&#45;&gt;Node2</title>
<path fill="none" stroke="midnightblue" d="M451.79,-563.33C468.42,-588.64 505.96,-638.86 553,-658.28 616.26,-684.4 645.84,-689.01 707,-658.28 749.52,-636.91 777.04,-584.88 789.41,-556.51"/>
<polygon fill="midnightblue" stroke="midnightblue" points="792.8,-557.48 793.42,-546.9 786.34,-554.79 792.8,-557.48"/>
</g>
<!-- Node4 -->
<g id="node4" class="node">
<title>Node4</title>
<g id="a_node4"><a xlink:href="class_t_track.html#a694370e3ec67d43da1d8333e06d9ebba" target="_top" xlink:title="Searches LocationNameMultiMap to check if the element pointed to by the TTrackVectorIterator has the ...">
<polygon fill="white" stroke="black" points="561.5,-547.28 561.5,-577.28 698.5,-577.28 698.5,-547.28 561.5,-547.28"/>
<text text-anchor="start" x="569.5" y="-565.28" font-family="Helvetica,sans-Serif" font-size="10.00">TTrack::FindNamedElement</text>
<text text-anchor="middle" x="630" y="-554.28" font-family="Helvetica,sans-Serif" font-size="10.00">InLocationNameMultiMap</text>
</a>
</g>
</g>
<!-- Node3&#45;&gt;Node4 -->
<g id="edge4" class="edge">
<title>Node3&#45;&gt;Node4</title>
<path fill="none" stroke="midnightblue" d="M512.74,-553.55C525.29,-554.49 538.43,-555.48 551.17,-556.44"/>
<polygon fill="midnightblue" stroke="midnightblue" points="551.06,-559.94 561.29,-557.2 551.58,-552.96 551.06,-559.94"/>
</g>
<!-- Node3&#45;&gt;Node5 -->
<g id="edge13" class="edge">
<title>Node3&#45;&gt;Node5</title>
<path fill="none" stroke="midnightblue" d="M466.7,-533.14C488.56,-520.02 521.97,-501.29 553,-489.28 618.85,-463.8 652.28,-494.9 707,-450.28 760.9,-406.33 784.78,-322.28 793.19,-284.06"/>
<polygon fill="midnightblue" stroke="midnightblue" points="796.64,-284.67 795.25,-274.17 789.79,-283.25 796.64,-284.67"/>
</g>
<!-- Node6 -->
<g id="node6" class="node">
<title>Node6</title>
<g id="a_node6"><a xlink:href="class_t_track.html#a418966e6fefb71b9d0c9b941197832da" target="_top" xlink:title="Similar to GetVectorPositionFromTrackMap but for inactive elements, a pair is returned because there ...">
<polygon fill="white" stroke="black" points="561.5,-498.28 561.5,-528.28 698.5,-528.28 698.5,-498.28 561.5,-498.28"/>
<text text-anchor="start" x="569.5" y="-516.28" font-family="Helvetica,sans-Serif" font-size="10.00">TTrack::GetVectorPositions</text>
<text text-anchor="middle" x="630" y="-505.28" font-family="Helvetica,sans-Serif" font-size="10.00">FromInactiveTrackMap</text>
</a>
</g>
</g>
<!-- Node3&#45;&gt;Node6 -->
<g id="edge7" class="edge">
<title>Node3&#45;&gt;Node6</title>
<path fill="none" stroke="midnightblue" d="M512.74,-535.1C525.29,-532.74 538.43,-530.28 551.17,-527.88"/>
<polygon fill="midnightblue" stroke="midnightblue" points="552.11,-531.27 561.29,-525.98 550.82,-524.39 552.11,-531.27"/>
</g>
<!-- Node7 -->
<g id="node7" class="node">
<title>Node7</title>
<g id="a_node7"><a xlink:href="class_t_track.html#a51f89cf70e94b037f6378cd78003d82b" target="_top" xlink:title="A range&#45;checked version of InactiveTrackElement.at(At)">
<polygon fill="white" stroke="black" points="553,-596.78 553,-615.78 707,-615.78 707,-596.78 553,-596.78"/>
<text text-anchor="middle" x="630" y="-603.78" font-family="Helvetica,sans-Serif" font-size="10.00">TTrack::InactiveTrackElementAt</text>
</a>
</g>
</g>
<!-- Node3&#45;&gt;Node7 -->
<g id="edge10" class="edge">
<title>Node3&#45;&gt;Node7</title>
<path fill="none" stroke="midnightblue" d="M482.35,-563.37C503.24,-571.01 529.33,-580.16 553,-587.28 561.05,-589.7 569.64,-592.06 578.05,-594.25"/>
<polygon fill="midnightblue" stroke="midnightblue" points="577.23,-597.65 587.79,-596.73 578.96,-590.87 577.23,-597.65"/>
</g>
<!-- Node4&#45;&gt;Node2 -->
<g id="edge5" class="edge">
<title>Node4&#45;&gt;Node2</title>
<path fill="none" stroke="midnightblue" d="M698.52,-552.11C709.79,-550.41 721.45,-548.66 732.64,-546.97"/>
<polygon fill="midnightblue" stroke="midnightblue" points="733.39,-550.4 742.76,-545.45 732.35,-543.47 733.39,-550.4"/>
</g>
<!-- Node4&#45;&gt;Node5 -->
<g id="edge6" class="edge">
<title>Node4&#45;&gt;Node5</title>
<path fill="none" stroke="midnightblue" d="M695.43,-547.11C699.63,-544.61 703.56,-541.68 707,-538.28 780.01,-466.11 793.8,-333.79 796.4,-283.96"/>
<polygon fill="midnightblue" stroke="midnightblue" points="799.9,-284.02 796.83,-273.88 792.91,-283.72 799.9,-284.02"/>
</g>
<!-- Node6&#45;&gt;Node2 -->
<g id="edge8" class="edge">
<title>Node6&#45;&gt;Node2</title>
<path fill="none" stroke="midnightblue" d="M698.52,-523.04C709.79,-524.67 721.45,-526.36 732.64,-527.97"/>
<polygon fill="midnightblue" stroke="midnightblue" points="732.36,-531.47 742.76,-529.44 733.36,-524.54 732.36,-531.47"/>
</g>
<!-- Node6&#45;&gt;Node5 -->
<g id="edge9" class="edge">
<title>Node6&#45;&gt;Node5</title>
<path fill="none" stroke="midnightblue" d="M685.39,-498.15C693.3,-494.24 700.84,-489.35 707,-483.28 764.91,-426.17 787.07,-326.52 794.14,-284.2"/>
<polygon fill="midnightblue" stroke="midnightblue" points="797.64,-284.5 795.73,-274.08 790.72,-283.42 797.64,-284.5"/>
</g>
<!-- Node7&#45;&gt;Node2 -->
<g id="edge11" class="edge">
<title>Node7&#45;&gt;Node2</title>
<path fill="none" stroke="midnightblue" d="M677.43,-596.73C687.34,-594.12 697.64,-590.97 707,-587.28 730.93,-577.83 756.39,-563.2 774.11,-552.21"/>
<polygon fill="midnightblue" stroke="midnightblue" points="776.03,-555.13 782.62,-546.83 772.29,-549.21 776.03,-555.13"/>
</g>
<!-- Node7&#45;&gt;Node5 -->
<g id="edge12" class="edge">
<title>Node7&#45;&gt;Node5</title>
<path fill="none" stroke="midnightblue" d="M693.69,-596.63C698.57,-594.15 703.1,-591.07 707,-587.28 751.57,-543.89 784.44,-347.86 794.09,-284.27"/>
<polygon fill="midnightblue" stroke="midnightblue" points="797.61,-284.41 795.62,-274 790.68,-283.37 797.61,-284.41"/>
</g>
<!-- Node8&#45;&gt;Node2 -->
<g id="edge15" class="edge">
<title>Node8&#45;&gt;Node2</title>
<path fill="none" stroke="midnightblue" d="M475.4,-491.3C489.86,-499.32 506.01,-510.41 517,-524.28 546.61,-561.62 514.05,-597.81 553,-625.28 608.94,-664.72 643.62,-651.11 707,-625.28 741.55,-611.19 770.05,-576.75 785.2,-555.37"/>
<polygon fill="midnightblue" stroke="midnightblue" points="788.27,-557.08 791.02,-546.85 782.49,-553.13 788.27,-557.08"/>
</g>
<!-- Node8&#45;&gt;Node5 -->
<g id="edge17" class="edge">
<title>Node8&#45;&gt;Node5</title>
<path fill="none" stroke="midnightblue" d="M463.29,-461.11C485.21,-445.32 520.95,-420.17 553,-400.28 629.55,-352.76 723.5,-302.59 769.28,-278.64"/>
<polygon fill="midnightblue" stroke="midnightblue" points="771.05,-281.66 778.29,-273.93 767.81,-275.46 771.05,-281.66"/>
</g>
<!-- Node8&#45;&gt;Node6 -->
<g id="edge16" class="edge">
<title>Node8&#45;&gt;Node6</title>
<path fill="none" stroke="midnightblue" d="M515.67,-490.8C527.39,-493.12 539.56,-495.53 551.38,-497.88"/>
<polygon fill="midnightblue" stroke="midnightblue" points="550.72,-501.32 561.21,-499.83 552.08,-494.45 550.72,-501.32"/>
</g>
<!-- Node9&#45;&gt;Node2 -->
<g id="edge19" class="edge">
<title>Node9&#45;&gt;Node2</title>
<path fill="none" stroke="midnightblue" d="M511.68,-364.78C568.25,-361.29 648.21,-364.59 707,-400.28 752.04,-427.63 779.01,-487.09 790.49,-517.9"/>
<polygon fill="midnightblue" stroke="midnightblue" points="787.26,-519.25 793.9,-527.5 793.85,-516.91 787.26,-519.25"/>
</g>
<!-- Node9&#45;&gt;Node5 -->
<g id="edge23" class="edge">
<title>Node9&#45;&gt;Node5</title>
<path fill="none" stroke="midnightblue" d="M490.46,-363.71C500.37,-359.75 509.93,-354.17 517,-346.28 562.19,-295.87 499.77,-240.11 553,-198.28 606.81,-155.98 641.95,-176.98 707,-198.28 736.43,-207.91 764.2,-231.25 780.9,-247.42"/>
<polygon fill="midnightblue" stroke="midnightblue" points="778.63,-250.09 788.18,-254.69 783.58,-245.14 778.63,-250.09"/>
</g>
<!-- Node10 -->
<g id="node10" class="node">
<title>Node10</title>
<g id="a_node10"><a xlink:href="class_t_track.html#aa0812972d1ae27198c5fbca8aa7b6134" target="_top" xlink:title="Returns the track vector position corresponding to the Hloc &amp; VLoc positions, FoundFlag indicates whe...">
<polygon fill="white" stroke="black" points="564.5,-208.28 564.5,-238.28 695.5,-238.28 695.5,-208.28 564.5,-208.28"/>
<text text-anchor="start" x="572.5" y="-226.28" font-family="Helvetica,sans-Serif" font-size="10.00">TTrack::GetVectorPosition</text>
<text text-anchor="middle" x="630" y="-215.28" font-family="Helvetica,sans-Serif" font-size="10.00">FromTrackMap</text>
</a>
</g>
</g>
<!-- Node9&#45;&gt;Node10 -->
<g id="edge20" class="edge">
<title>Node9&#45;&gt;Node10</title>
<path fill="none" stroke="midnightblue" d="M483.22,-363.77C494.93,-359.7 507.18,-354.05 517,-346.28 539.91,-328.15 533.95,-313.43 553,-291.28 567.51,-274.4 586.1,-257.7 601.26,-245.07"/>
<polygon fill="midnightblue" stroke="midnightblue" points="603.76,-247.55 609.28,-238.5 599.33,-242.13 603.76,-247.55"/>
</g>
<!-- Node10&#45;&gt;Node2 -->
<g id="edge21" class="edge">
<title>Node10&#45;&gt;Node2</title>
<path fill="none" stroke="midnightblue" d="M686.61,-238.36C694.17,-242.27 701.29,-247.16 707,-253.28 779.52,-330.98 793.6,-466.93 796.34,-517.55"/>
<polygon fill="midnightblue" stroke="midnightblue" points="792.85,-517.92 796.8,-527.76 799.85,-517.61 792.85,-517.92"/>
</g>
<!-- Node10&#45;&gt;Node5 -->
<g id="edge22" class="edge">
<title>Node10&#45;&gt;Node5</title>
<path fill="none" stroke="midnightblue" d="M691.87,-238.31C710.43,-242.9 730.59,-247.88 748.24,-252.24"/>
<polygon fill="midnightblue" stroke="midnightblue" points="747.77,-255.72 758.32,-254.72 749.45,-248.93 747.77,-255.72"/>
</g>
<!-- Node11&#45;&gt;Node2 -->
<g id="edge25" class="edge">
<title>Node11&#45;&gt;Node2</title>
<path fill="none" stroke="midnightblue" d="M653.39,-440.38C684.96,-461.69 742.27,-500.35 774.11,-521.84"/>
<polygon fill="midnightblue" stroke="midnightblue" points="772.5,-524.97 782.75,-527.66 776.42,-519.17 772.5,-524.97"/>
</g>
<!-- Node11&#45;&gt;Node5 -->
<g id="edge26" class="edge">
<title>Node11&#45;&gt;Node5</title>
<path fill="none" stroke="midnightblue" d="M646.62,-410.13C677.72,-379.97 747.19,-312.59 779.65,-281.1"/>
<polygon fill="midnightblue" stroke="midnightblue" points="782.32,-283.39 787.07,-273.91 777.45,-278.36 782.32,-283.39"/>
</g>
<!-- Node12&#45;&gt;Node2 -->
<g id="edge28" class="edge">
<title>Node12&#45;&gt;Node2</title>
<path fill="none" stroke="midnightblue" d="M252.97,-321.03C260.91,-358.07 293.59,-492.09 366,-573.28 430.03,-645.07 460.13,-657.19 553,-682.28 619.08,-700.13 647.19,-715.55 707,-682.28 755.62,-655.23 781.34,-589.85 791.59,-556.92"/>
<polygon fill="midnightblue" stroke="midnightblue" points="795.01,-557.68 794.49,-547.1 788.3,-555.7 795.01,-557.68"/>
</g>
<!-- Node12&#45;&gt;Node5 -->
<g id="edge34" class="edge">
<title>Node12&#45;&gt;Node5</title>
<path fill="none" stroke="midnightblue" d="M257.67,-301.59C286.72,-260.42 407.25,-99.61 553,-46.28 617.28,-22.76 650.11,-8.22 707,-46.28 775.25,-91.94 791.8,-199.84 795.77,-244.45"/>
<polygon fill="midnightblue" stroke="midnightblue" points="792.29,-244.87 796.54,-254.57 799.27,-244.34 792.29,-244.87"/>
</g>
<!-- Node13 -->
<g id="node13" class="node">
<title>Node13</title>
<g id="a_node13"><a xlink:href="class_t_track.html#ad55e3329a208e84e9e7519cc024b7aec" target="_top" xlink:title="True if find a non&#45;platform element at HLoc &amp; VLoc, and if so return its TrackVector position and a r...">
<polygon fill="white" stroke="black" points="366,-213.78 366,-232.78 517,-232.78 517,-213.78 366,-213.78"/>
<text text-anchor="middle" x="441.5" y="-220.78" font-family="Helvetica,sans-Serif" font-size="10.00">TTrack::FindNonPlatformMatch</text>
</a>
</g>
</g>
<!-- Node12&#45;&gt;Node13 -->
<g id="edge29" class="edge">
<title>Node12&#45;&gt;Node13</title>
<path fill="none" stroke="midnightblue" d="M271.64,-301.69C305.24,-286.09 371.91,-255.13 410.67,-237.13"/>
<polygon fill="midnightblue" stroke="midnightblue" points="412.29,-240.24 419.88,-232.85 409.34,-233.89 412.29,-240.24"/>
</g>
<!-- Node12&#45;&gt;Node15 -->
<g id="edge35" class="edge">
<title>Node12&#45;&gt;Node15</title>
<path fill="none" stroke="midnightblue" d="M330.27,-317.97C343.47,-319.09 357.09,-320.24 370.05,-321.33"/>
<polygon fill="midnightblue" stroke="midnightblue" points="370.03,-324.84 380.29,-322.19 370.62,-317.87 370.03,-324.84"/>
</g>
<!-- Node13&#45;&gt;Node2 -->
<g id="edge30" class="edge">
<title>Node13&#45;&gt;Node2</title>
<path fill="none" stroke="midnightblue" d="M482.35,-232.83C547.77,-249.21 674.01,-283.91 707,-315.28 767.04,-372.36 788.13,-475.02 794.54,-517.77"/>
<polygon fill="midnightblue" stroke="midnightblue" points="791.08,-518.3 795.92,-527.72 798.01,-517.33 791.08,-518.3"/>
</g>
<!-- Node13&#45;&gt;Node5 -->
<g id="edge33" class="edge">
<title>Node13&#45;&gt;Node5</title>
<path fill="none" stroke="midnightblue" d="M449.45,-213.75C465.13,-193.17 505.63,-144.98 553,-127.28 617.11,-103.32 646.76,-94.78 707,-127.28 753.6,-152.42 780,-213.39 790.95,-244.82"/>
<polygon fill="midnightblue" stroke="midnightblue" points="787.72,-246.21 794.19,-254.6 794.37,-244.01 787.72,-246.21"/>
</g>
<!-- Node13&#45;&gt;Node10 -->
<g id="edge31" class="edge">
<title>Node13&#45;&gt;Node10</title>
<path fill="none" stroke="midnightblue" d="M517.01,-223.28C529.22,-223.28 541.87,-223.28 554.09,-223.28"/>
<polygon fill="midnightblue" stroke="midnightblue" points="554.23,-226.78 564.23,-223.28 554.23,-219.78 554.23,-226.78"/>
</g>
<!-- Node14 -->
<g id="node14" class="node">
<title>Node14</title>
<g id="a_node14"><a xlink:href="class_t_track_element.html#a100bff829c4dca820927affde4cb9e57" target="_top" xlink:title="Used to log track parameters for call stack logging.">
<polygon fill="white" stroke="black" points="566,-55.78 566,-74.78 694,-74.78 694,-55.78 566,-55.78"/>
<text text-anchor="middle" x="630" y="-62.78" font-family="Helvetica,sans-Serif" font-size="10.00">TTrackElement::LogTrack</text>
</a>
</g>
</g>
<!-- Node13&#45;&gt;Node14 -->
<g id="edge32" class="edge">
<title>Node13&#45;&gt;Node14</title>
<path fill="none" stroke="midnightblue" d="M447.81,-213.56C461.73,-188.98 501.76,-123.85 553,-89.28 559.53,-84.87 566.92,-81.24 574.46,-78.25"/>
<polygon fill="midnightblue" stroke="midnightblue" points="575.81,-81.48 584.04,-74.8 573.44,-74.9 575.81,-81.48"/>
</g>
<!-- Node15&#45;&gt;Node2 -->
<g id="edge36" class="edge">
<title>Node15&#45;&gt;Node2</title>
<path fill="none" stroke="midnightblue" d="M502.53,-319.63C560.16,-315.53 647.07,-318.19 707,-360.28 761.46,-398.52 784.96,-479.73 793.23,-517.36"/>
<polygon fill="midnightblue" stroke="midnightblue" points="789.88,-518.46 795.32,-527.55 796.74,-517.05 789.88,-518.46"/>
</g>
<!-- Node15&#45;&gt;Node5 -->
<g id="edge37" class="edge">
<title>Node15&#45;&gt;Node5</title>
<path fill="none" stroke="midnightblue" d="M452.68,-317.57C468.06,-302.53 497.47,-272.18 517,-242.28 537.66,-210.65 521.13,-185.56 553,-165.28 610.74,-128.53 644.41,-137.59 707,-165.28 744.15,-181.71 772.55,-221.9 786.81,-245.72"/>
<polygon fill="midnightblue" stroke="midnightblue" points="783.86,-247.61 791.89,-254.52 789.93,-244.11 783.86,-247.61"/>
</g>
</g>
</svg>
