<?xml version="1.0" encoding="UTF-8" standalone="no"?>
<!DOCTYPE svg PUBLIC "-//W3C//DTD SVG 1.1//EN"
 "http://www.w3.org/Graphics/SVG/1.1/DTD/svg11.dtd">
<!-- Generated by graphviz version 2.44.1 (20200629.0800)
 -->
<!-- Title: TPrefDirElement::GetDirectionPrefDirGraphicPtr Pages: 1 -->
<!--zoomable 167 -->
<svg id="main" version="1.1" xmlns="http://www.w3.org/2000/svg" xmlns:xlink="http://www.w3.org/1999/xlink" xml:space="preserve" onload="init(evt)">
<style type="text/css"><![CDATA[
.edge:hover path { stroke: red; }
.edge:hover polygon { stroke: red; fill: red; }
]]></style>
<script type="text/javascript"><![CDATA[
var edges = document.getElementsByTagName('g');
if (edges && edges.length) {
  for (var i=0;i<edges.length;i++) {
    if (edges[i].id.substr(0,4)=='edge') {
      edges[i].setAttribute('class','edge');
    }
  }
}
]]></script>
        <defs>
                <circle id="rim" cx="0" cy="0" r="7"/>
                <circle id="rim2" cx="0" cy="0" r="3.5"/>
                <g id="zoomPlus">
                        <use xlink:href="#rim" fill="#404040">
                                <set attributeName="fill" to="#808080" begin="zoomplus.mouseover" end="zoomplus.mouseout"/>
                        </use>
                        <path d="M-4,0h8M0,-4v8" fill="none" stroke="white" stroke-width="1.5" pointer-events="none"/>
                </g>
                <g id="zoomMin">
                        <use xlink:href="#rim" fill="#404040">
                                <set attributeName="fill" to="#808080" begin="zoomminus.mouseover" end="zoomminus.mouseout"/>
                        </use>
                        <path d="M-4,0h8" fill="none" stroke="white" stroke-width="1.5" pointer-events="none"/>
                </g>
                <g id="dirArrow">
                        <path fill="none" stroke="white" stroke-width="1.5" d="M0,-3.0v7 M-2.5,-0.5L0,-3.0L2.5,-0.5"/>
                </g>
               <g id="resetDef">
                       <use xlink:href="#rim2" fill="#404040">
                               <set attributeName="fill" to="#808080" begin="reset.mouseover" end="reset.mouseout"/>
                       </use>
               </g>
        </defs>

<script type="text/javascript">
var viewWidth = 1062;
var viewHeight = 167;
var sectionId = 'dynsection-5';
</script>
<script xlink:href="svgpan.js"/>
<svg id="graph" class="graph">
<g id="viewport">
<title>TPrefDirElement::GetDirectionPrefDirGraphicPtr</title>
<polygon fill="white" stroke="transparent" points="-4,4 -4,-163 1058,-163 1058,4 -4,4"/>
<!-- Node1 -->
<g id="node1" class="node">
<title>Node1</title>
<g id="a_node1"><a xlink:title="picks up the EntryDirectionGraphicPtr for preferred directions">
<polygon fill="#bfbfbf" stroke="black" points="907,-63.5 907,-93.5 1054,-93.5 1054,-63.5 907,-63.5"/>
<text text-anchor="start" x="915" y="-81.5" font-family="Helvetica,sans-Serif" font-size="10.00">TPrefDirElement::GetDirection</text>
<text text-anchor="middle" x="980.5" y="-70.5" font-family="Helvetica,sans-Serif" font-size="10.00">PrefDirGraphicPtr</text>
</a>
</g>
</g>
<!-- Node2 -->
<g id="node2" class="node">
<title>Node2</title>
<g id="a_node2"><a xlink:href="class_t_one_pref_dir.html#a482d1c69a674eec4db0190b78659c495" target="_top" xlink:title="Called after a successful search to add the elements from the search vector to the pref dir vector.">
<polygon fill="white" stroke="black" points="738.5,-127.5 738.5,-157.5 863.5,-157.5 863.5,-127.5 738.5,-127.5"/>
<text text-anchor="start" x="746.5" y="-145.5" font-family="Helvetica,sans-Serif" font-size="10.00">TOnePrefDir::ConvertPref</text>
<text text-anchor="middle" x="801" y="-134.5" font-family="Helvetica,sans-Serif" font-size="10.00">DirSearchVector</text>
</a>
</g>
</g>
<!-- Node1&#45;&gt;Node2 -->
<g id="edge1" class="edge">
<title>Node1&#45;&gt;Node2</title>
<path fill="none" stroke="midnightblue" d="M928.27,-96.97C901.42,-106.65 868.95,-118.36 843.66,-127.48"/>
<polygon fill="midnightblue" stroke="midnightblue" points="929.66,-100.19 937.88,-93.51 927.29,-93.6 929.66,-100.19"/>
</g>
<!-- Node6 -->
<g id="node6" class="node">
<title>Node6</title>
<g id="a_node6"><a xlink:href="class_t_one_pref_dir.html#a614933ff3958e4b8c9be9bc78159d9e8" target="_top" xlink:title="Old version of LoadPrefDir, used during development when the save format changed so the old files cou...">
<polygon fill="white" stroke="black" points="731,-88 731,-107 871,-107 871,-88 731,-88"/>
<text text-anchor="middle" x="801" y="-95" font-family="Helvetica,sans-Serif" font-size="10.00">TOnePrefDir::LoadOldPrefDir</text>
</a>
</g>
</g>
<!-- Node1&#45;&gt;Node6 -->
<g id="edge5" class="edge">
<title>Node1&#45;&gt;Node6</title>
<path fill="none" stroke="midnightblue" d="M896.78,-87.35C888.21,-88.27 879.56,-89.2 871.16,-90.1"/>
<polygon fill="midnightblue" stroke="midnightblue" points="897.22,-90.83 906.79,-86.28 896.48,-83.87 897.22,-90.83"/>
</g>
<!-- Node7 -->
<g id="node7" class="node">
<title>Node7</title>
<g id="a_node7"><a xlink:href="class_t_one_pref_dir.html#a0779c9edd1ba268356590aac4719166d" target="_top" xlink:title="Load a vector and map of preferred directions from the file.">
<polygon fill="white" stroke="black" points="738.5,-50 738.5,-69 863.5,-69 863.5,-50 738.5,-50"/>
<text text-anchor="middle" x="801" y="-57" font-family="Helvetica,sans-Serif" font-size="10.00">TOnePrefDir::LoadPrefDir</text>
</a>
</g>
</g>
<!-- Node1&#45;&gt;Node7 -->
<g id="edge6" class="edge">
<title>Node1&#45;&gt;Node7</title>
<path fill="none" stroke="midnightblue" d="M896.62,-69.63C885.48,-68.44 874.22,-67.23 863.54,-66.09"/>
<polygon fill="midnightblue" stroke="midnightblue" points="896.48,-73.13 906.79,-70.72 897.22,-66.17 896.48,-73.13"/>
</g>
<!-- Node14 -->
<g id="node14" class="node">
<title>Node14</title>
<g id="a_node14"><a xlink:href="class_t_pref_dir_element.html#a05688db45c02484229e4d226454ed8f3" target="_top" xlink:title="Constructs a PrefDirElement from supplied values.">
<polygon fill="white" stroke="black" points="737,-0.5 737,-30.5 865,-30.5 865,-0.5 737,-0.5"/>
<text text-anchor="start" x="745" y="-18.5" font-family="Helvetica,sans-Serif" font-size="10.00">TPrefDirElement::TPrefDir</text>
<text text-anchor="middle" x="801" y="-7.5" font-family="Helvetica,sans-Serif" font-size="10.00">Element</text>
</a>
</g>
</g>
<!-- Node1&#45;&gt;Node14 -->
<g id="edge14" class="edge">
<title>Node1&#45;&gt;Node14</title>
<path fill="none" stroke="midnightblue" d="M927.51,-60.05C901.1,-50.67 869.41,-39.42 844.48,-30.58"/>
<polygon fill="midnightblue" stroke="midnightblue" points="926.39,-63.36 936.98,-63.41 928.73,-56.77 926.39,-63.36"/>
</g>
<!-- Node3 -->
<g id="node3" class="node">
<title>Node3</title>
<g id="a_node3"><a xlink:href="class_t_one_pref_dir.html#a06cd3491535362fccbba4e76b9a120e9" target="_top" xlink:title="Used when continuing a chain of preferred directions or element lengths. Tries to find a set of linke...">
<polygon fill="white" stroke="black" points="567,-127.5 567,-157.5 695,-157.5 695,-127.5 567,-127.5"/>
<text text-anchor="start" x="575" y="-145.5" font-family="Helvetica,sans-Serif" font-size="10.00">TOnePrefDir::GetNextPref</text>
<text text-anchor="middle" x="631" y="-134.5" font-family="Helvetica,sans-Serif" font-size="10.00">DirElement</text>
</a>
</g>
</g>
<!-- Node2&#45;&gt;Node3 -->
<g id="edge2" class="edge">
<title>Node2&#45;&gt;Node3</title>
<path fill="none" stroke="midnightblue" d="M728.33,-142.5C717.25,-142.5 705.87,-142.5 695,-142.5"/>
<polygon fill="midnightblue" stroke="midnightblue" points="728.4,-146 738.4,-142.5 728.4,-139 728.4,-146"/>
</g>
<!-- Node4 -->
<g id="node4" class="node">
<title>Node4</title>
<g id="a_node4"><a xlink:href="class_t_interface.html#abf07d5edc1507de381825f17620748b2" target="_top" xlink:title="Called when mouse button clicked in zoom&#45;in mode.">
<polygon fill="white" stroke="black" points="385,-128.5 385,-158.5 531,-158.5 531,-128.5 385,-128.5"/>
<text text-anchor="start" x="393" y="-146.5" font-family="Helvetica,sans-Serif" font-size="10.00">TInterface::MainScreenMouse</text>
<text text-anchor="middle" x="458" y="-135.5" font-family="Helvetica,sans-Serif" font-size="10.00">Down2</text>
</a>
</g>
</g>
<!-- Node3&#45;&gt;Node4 -->
<g id="edge3" class="edge">
<title>Node3&#45;&gt;Node4</title>
<path fill="none" stroke="midnightblue" d="M556.62,-142.93C548.18,-142.98 539.58,-143.03 531.16,-143.08"/>
<polygon fill="midnightblue" stroke="midnightblue" points="556.83,-146.43 566.81,-142.87 556.79,-139.43 556.83,-146.43"/>
</g>
<!-- Node5 -->
<g id="node5" class="node">
<title>Node5</title>
<g id="a_node5"><a xlink:href="class_t_interface.html#a7f37862fb9e01e1328d9fd3fd8c50094" target="_top" xlink:title=" ">
<polygon fill="white" stroke="black" points="179,-134 179,-153 349,-153 349,-134 179,-134"/>
<text text-anchor="middle" x="264" y="-141" font-family="Helvetica,sans-Serif" font-size="10.00">TInterface::MainScreenMouseDown</text>
</a>
</g>
</g>
<!-- Node4&#45;&gt;Node5 -->
<g id="edge4" class="edge">
<title>Node4&#45;&gt;Node5</title>
<path fill="none" stroke="midnightblue" d="M374.7,-143.5C366.22,-143.5 357.58,-143.5 349.08,-143.5"/>
<polygon fill="midnightblue" stroke="midnightblue" points="374.96,-147 384.96,-143.5 374.96,-140 374.96,-147"/>
</g>
<!-- Node8 -->
<g id="node8" class="node">
<title>Node8</title>
<g id="a_node8"><a xlink:href="class_t_interface.html#a95c3545a30171ca5a08e34c58160079c" target="_top" xlink:title="Load a railway file. The Active elements marker now has a &#39;1&#39; at the end if there are user graphics t...">
<polygon fill="white" stroke="black" points="571.5,-87 571.5,-106 690.5,-106 690.5,-87 571.5,-87"/>
<text text-anchor="middle" x="631" y="-94" font-family="Helvetica,sans-Serif" font-size="10.00">TInterface::LoadRailway</text>
</a>
</g>
</g>
<!-- Node7&#45;&gt;Node8 -->
<g id="edge7" class="edge">
<title>Node7&#45;&gt;Node8</title>
<path fill="none" stroke="midnightblue" d="M746.78,-71.22C723.78,-76.29 697.2,-82.14 675.41,-86.94"/>
<polygon fill="midnightblue" stroke="midnightblue" points="747.72,-74.6 756.74,-69.03 746.22,-67.76 747.72,-74.6"/>
</g>
<!-- Node10 -->
<g id="node10" class="node">
<title>Node10</title>
<g id="a_node10"><a xlink:href="class_t_all_routes.html#adadd08bb4cbbcaeba918f20c6c103a39" target="_top" xlink:title="Loads the routes from a session file.">
<polygon fill="white" stroke="black" points="570,-49 570,-68 692,-68 692,-49 570,-49"/>
<text text-anchor="middle" x="631" y="-56" font-family="Helvetica,sans-Serif" font-size="10.00">TAllRoutes::LoadRoutes</text>
</a>
</g>
</g>
<!-- Node7&#45;&gt;Node10 -->
<g id="edge9" class="edge">
<title>Node7&#45;&gt;Node10</title>
<path fill="none" stroke="midnightblue" d="M728.38,-59.07C716.32,-59 703.92,-58.93 692.19,-58.86"/>
<polygon fill="midnightblue" stroke="midnightblue" points="728.38,-62.57 738.4,-59.13 728.42,-55.57 728.38,-62.57"/>
</g>
<!-- Node11 -->
<g id="node11" class="node">
<title>Node11</title>
<g id="a_node11"><a xlink:href="class_t_interface.html#a636b1b4bd29f2678a3290ed2d282f1c2" target="_top" xlink:title="Load a session file.">
<polygon fill="white" stroke="black" points="397.5,-27 397.5,-46 518.5,-46 518.5,-27 397.5,-27"/>
<text text-anchor="middle" x="458" y="-34" font-family="Helvetica,sans-Serif" font-size="10.00">TInterface::LoadSession</text>
</a>
</g>
</g>
<!-- Node7&#45;&gt;Node11 -->
<g id="edge13" class="edge">
<title>Node7&#45;&gt;Node11</title>
<path fill="none" stroke="midnightblue" d="M749.29,-47.98C732.14,-44.58 712.83,-41.3 695,-39.5 635.27,-33.48 566.62,-33.37 518.81,-34.37"/>
<polygon fill="midnightblue" stroke="midnightblue" points="748.61,-51.41 759.1,-49.98 750.01,-44.55 748.61,-51.41"/>
</g>
<!-- Node9 -->
<g id="node9" class="node">
<title>Node9</title>
<g id="a_node9"><a xlink:href="class_t_interface.html#a96249c7622a9d55541de186483e04d2e" target="_top" xlink:title=" ">
<polygon fill="white" stroke="black" points="386.5,-79.5 386.5,-109.5 529.5,-109.5 529.5,-79.5 386.5,-79.5"/>
<text text-anchor="start" x="394.5" y="-97.5" font-family="Helvetica,sans-Serif" font-size="10.00">TInterface::LoadRailwayMenu</text>
<text text-anchor="middle" x="458" y="-86.5" font-family="Helvetica,sans-Serif" font-size="10.00">ItemClick</text>
</a>
</g>
</g>
<!-- Node8&#45;&gt;Node9 -->
<g id="edge8" class="edge">
<title>Node8&#45;&gt;Node9</title>
<path fill="none" stroke="midnightblue" d="M561,-95.69C550.71,-95.57 540.08,-95.45 529.76,-95.33"/>
<polygon fill="midnightblue" stroke="midnightblue" points="561.11,-99.19 571.15,-95.81 561.19,-92.19 561.11,-99.19"/>
</g>
<!-- Node10&#45;&gt;Node11 -->
<g id="edge10" class="edge">
<title>Node10&#45;&gt;Node11</title>
<path fill="none" stroke="midnightblue" d="M559.49,-49.43C545.95,-47.69 531.9,-45.88 518.74,-44.19"/>
<polygon fill="midnightblue" stroke="midnightblue" points="559.35,-52.94 569.71,-50.74 560.24,-46 559.35,-52.94"/>
</g>
<!-- Node12 -->
<g id="node12" class="node">
<title>Node12</title>
<g id="a_node12"><a xlink:href="class_t_interface.html#a6139ffb52492eb89e5487a8a3cd647b5" target="_top" xlink:title="The main loop, called every clock tick via MasterClockTimer.">
<polygon fill="white" stroke="black" points="204.5,-27 204.5,-46 323.5,-46 323.5,-27 204.5,-27"/>
<text text-anchor="middle" x="264" y="-34" font-family="Helvetica,sans-Serif" font-size="10.00">TInterface::ClockTimer2</text>
</a>
</g>
</g>
<!-- Node11&#45;&gt;Node12 -->
<g id="edge11" class="edge">
<title>Node11&#45;&gt;Node12</title>
<path fill="none" stroke="midnightblue" d="M387.23,-36.5C366.38,-36.5 343.74,-36.5 323.67,-36.5"/>
<polygon fill="midnightblue" stroke="midnightblue" points="387.3,-40 397.3,-36.5 387.3,-33 387.3,-40"/>
</g>
<!-- Node13 -->
<g id="node13" class="node">
<title>Node13</title>
<g id="a_node13"><a xlink:href="class_t_interface.html#ace30a12d923fc7fb489afabb0a09aa4f" target="_top" xlink:title=" ">
<polygon fill="white" stroke="black" points="0,-27 0,-46 143,-46 143,-27 0,-27"/>
<text text-anchor="middle" x="71.5" y="-34" font-family="Helvetica,sans-Serif" font-size="10.00">TInterface::MasterClockTimer</text>
</a>
</g>
</g>
<!-- Node12&#45;&gt;Node13 -->
<g id="edge12" class="edge">
<title>Node12&#45;&gt;Node13</title>
<path fill="none" stroke="midnightblue" d="M194.12,-36.5C177.52,-36.5 159.76,-36.5 143.08,-36.5"/>
<polygon fill="midnightblue" stroke="midnightblue" points="194.29,-40 204.29,-36.5 194.29,-33 194.29,-40"/>
</g>
</g>
</svg>
        <g id="navigator" transform="translate(0 0)" fill="#404254">
                <rect fill="#f2f5e9" fill-opacity="0.5" stroke="#606060" stroke-width=".5" x="0" y="0" width="60" height="60"/>
                <use id="zoomplus" xlink:href="#zoomPlus" x="17" y="9" onmousedown="handleZoom(evt,'in')"/>
                <use id="zoomminus" xlink:href="#zoomMin" x="42" y="9" onmousedown="handleZoom(evt,'out')"/>
                <use id="reset" xlink:href="#resetDef" x="30" y="36" onmousedown="handleReset()"/>
                <g id="arrowUp" xlink:href="#dirArrow" transform="translate(30 24)" onmousedown="handlePan(0,-1)">
                  <use xlink:href="#rim" fill="#404040">
                        <set attributeName="fill" to="#808080" begin="arrowUp.mouseover" end="arrowUp.mouseout"/>
                  </use>
                  <path fill="none" stroke="white" stroke-width="1.5" d="M0,-3.0v7 M-2.5,-0.5L0,-3.0L2.5,-0.5"/>
                </g>
                <g id="arrowRight" xlink:href="#dirArrow" transform="rotate(90) translate(36 -43)" onmousedown="handlePan(1,0)">
                  <use xlink:href="#rim" fill="#404040">
                        <set attributeName="fill" to="#808080" begin="arrowRight.mouseover" end="arrowRight.mouseout"/>
                  </use>
                  <path fill="none" stroke="white" stroke-width="1.5" d="M0,-3.0v7 M-2.5,-0.5L0,-3.0L2.5,-0.5"/>
                </g>
                <g id="arrowDown" xlink:href="#dirArrow" transform="rotate(180) translate(-30 -48)" onmousedown="handlePan(0,1)">
                  <use xlink:href="#rim" fill="#404040">
                        <set attributeName="fill" to="#808080" begin="arrowDown.mouseover" end="arrowDown.mouseout"/>
                  </use>
                  <path fill="none" stroke="white" stroke-width="1.5" d="M0,-3.0v7 M-2.5,-0.5L0,-3.0L2.5,-0.5"/>
                </g>
                <g id="arrowLeft" xlink:href="#dirArrow" transform="rotate(270) translate(-36 17)" onmousedown="handlePan(-1,0)">
                  <use xlink:href="#rim" fill="#404040">
                        <set attributeName="fill" to="#808080" begin="arrowLeft.mouseover" end="arrowLeft.mouseout"/>
                  </use>
                  <path fill="none" stroke="white" stroke-width="1.5" d="M0,-3.0v7 M-2.5,-0.5L0,-3.0L2.5,-0.5"/>
                </g>
        </g>
        <svg viewBox="0 0 15 15" width="100%" height="30px" preserveAspectRatio="xMaxYMin meet">
         <g id="arrow_out" transform="scale(0.3 0.3)">
          <a xlink:href="class_t_pref_dir_element_a13526cb4ee94a708a7bfef517abaa605_icgraph_org.svg" target="_base">
           <rect id="button" ry="5" rx="5" y="6" x="6" height="38" width="38"
                fill="#f2f5e9" fill-opacity="0.5" stroke="#606060" stroke-width="1.0"/>
           <path id="arrow"
             d="M 11.500037,31.436501 C 11.940474,20.09759 22.043105,11.32322 32.158766,21.979434 L 37.068811,17.246167 C 37.068811,17.246167 37.088388,32 37.088388,32 L 22.160133,31.978069 C 22.160133,31.978069 26.997745,27.140456 26.997745,27.140456 C 18.528582,18.264221 13.291696,25.230495 11.500037,31.436501 z"
             style="fill:#404040;"/>
          </a>
         </g>
        </svg>
</svg>
