<?xml version="1.0" encoding="UTF-8" standalone="no"?>
<!DOCTYPE svg PUBLIC "-//W3C//DTD SVG 1.1//EN"
 "http://www.w3.org/Graphics/SVG/1.1/DTD/svg11.dtd">
<!-- Generated by graphviz version 2.44.1 (20200629.0800)
 -->
<!-- Title: TTrack::OneNamedLocationElementAtLocation Pages: 1 -->
<svg width="481pt" height="75pt"
 viewBox="0.00 0.00 481.00 75.00" xmlns="http://www.w3.org/2000/svg" xmlns:xlink="http://www.w3.org/1999/xlink">
<g id="graph0" class="graph" transform="scale(1 1) rotate(0) translate(4 71)">
<title>TTrack::OneNamedLocationElementAtLocation</title>
<polygon fill="white" stroke="transparent" points="-4,4 -4,-71 477,-71 477,4 -4,4"/>
<!-- Node1 -->
<g id="node1" class="node">
<title>Node1</title>
<g id="a_node1"><a xlink:title="True if there is at least one named location element with name &#39;LocationName&#39;, used in timetable inte...">
<polygon fill="#bfbfbf" stroke="black" points="0,-23 0,-53 137,-53 137,-23 0,-23"/>
<text text-anchor="start" x="8" y="-41" font-family="Helvetica,sans-Serif" font-size="10.00">TTrack::OneNamedLocation</text>
<text text-anchor="middle" x="68.5" y="-30" font-family="Helvetica,sans-Serif" font-size="10.00">ElementAtLocation</text>
</a>
</g>
</g>
<!-- Node2 -->
<g id="node2" class="node">
<title>Node2</title>
<g id="a_node2"><a xlink:href="class_t_utilities.html#ae1eddca13cc3c492839e131f40ec21c0" target="_top" xlink:title="pops the last entry off the call stack, throws an error if called when empty">
<polygon fill="white" stroke="black" points="363,-47.5 363,-66.5 473,-66.5 473,-47.5 363,-47.5"/>
<text text-anchor="middle" x="418" y="-54.5" font-family="Helvetica,sans-Serif" font-size="10.00">TUtilities::CallLogPop</text>
</a>
</g>
</g>
<!-- Node1&#45;&gt;Node2 -->
<g id="edge1" class="edge">
<title>Node1&#45;&gt;Node2</title>
<path fill="none" stroke="midnightblue" d="M137.18,-52.24C149.07,-54.22 161.36,-55.94 173,-57 233.65,-62.52 303.14,-61.84 352.41,-60.18"/>
<polygon fill="midnightblue" stroke="midnightblue" points="352.73,-63.67 362.6,-59.82 352.48,-56.68 352.73,-63.67"/>
</g>
<!-- Node3 -->
<g id="node3" class="node">
<title>Node3</title>
<g id="a_node3"><a xlink:href="class_t_track.html#a51f89cf70e94b037f6378cd78003d82b" target="_top" xlink:title="A range&#45;checked version of InactiveTrackVector.at(At)">
<polygon fill="white" stroke="black" points="173,-28.5 173,-47.5 327,-47.5 327,-28.5 173,-28.5"/>
<text text-anchor="middle" x="250" y="-35.5" font-family="Helvetica,sans-Serif" font-size="10.00">TTrack::InactiveTrackElementAt</text>
</a>
</g>
</g>
<!-- Node1&#45;&gt;Node3 -->
<g id="edge2" class="edge">
<title>Node1&#45;&gt;Node3</title>
<path fill="none" stroke="midnightblue" d="M137.11,-38C145.46,-38 154.09,-38 162.68,-38"/>
<polygon fill="midnightblue" stroke="midnightblue" points="162.73,-41.5 172.73,-38 162.73,-34.5 162.73,-41.5"/>
</g>
<!-- Node4 -->
<g id="node4" class="node">
<title>Node4</title>
<g id="a_node4"><a xlink:href="class_t_utilities.html#a34bd6bb5305bc29afdf424f6d35a921c" target="_top" xlink:title="creates a string of the form &#39;hh:mm:ss&#39; for use in call &amp; event logging">
<polygon fill="white" stroke="black" points="363,-0.5 363,-19.5 473,-19.5 473,-0.5 363,-0.5"/>
<text text-anchor="middle" x="418" y="-7.5" font-family="Helvetica,sans-Serif" font-size="10.00">TUtilities::TimeStamp</text>
</a>
</g>
</g>
<!-- Node1&#45;&gt;Node4 -->
<g id="edge5" class="edge">
<title>Node1&#45;&gt;Node4</title>
<path fill="none" stroke="midnightblue" d="M137.22,-24.12C149.1,-22.1 161.38,-20.27 173,-19 233.58,-12.36 303.08,-10.34 352.37,-9.84"/>
<polygon fill="midnightblue" stroke="midnightblue" points="352.59,-13.34 362.57,-9.76 352.54,-6.34 352.59,-13.34"/>
</g>
<!-- Node3&#45;&gt;Node2 -->
<g id="edge3" class="edge">
<title>Node3&#45;&gt;Node2</title>
<path fill="none" stroke="midnightblue" d="M327.2,-46.72C335.68,-47.69 344.26,-48.67 352.58,-49.63"/>
<polygon fill="midnightblue" stroke="midnightblue" points="352.23,-53.11 362.57,-50.77 353.03,-46.16 352.23,-53.11"/>
</g>
<!-- Node3&#45;&gt;Node4 -->
<g id="edge4" class="edge">
<title>Node3&#45;&gt;Node4</title>
<path fill="none" stroke="midnightblue" d="M307.66,-28.44C322.16,-26 337.86,-23.35 352.71,-20.84"/>
<polygon fill="midnightblue" stroke="midnightblue" points="353.56,-24.25 362.83,-19.14 352.39,-17.35 353.56,-24.25"/>
</g>
</g>
</svg>
