<?xml version="1.0" encoding="UTF-8" standalone="no"?>
<!DOCTYPE svg PUBLIC "-//W3C//DTD SVG 1.1//EN"
 "http://www.w3.org/Graphics/SVG/1.1/DTD/svg11.dtd">
<!-- Generated by graphviz version 2.44.1 (20200629.0800)
 -->
<!-- Title: TTrack::ThisNamedLocationLongEnoughForSplit Pages: 1 -->
<svg width="481pt" height="171pt"
 viewBox="0.00 0.00 481.00 171.47" xmlns="http://www.w3.org/2000/svg" xmlns:xlink="http://www.w3.org/1999/xlink">
<g id="graph0" class="graph" transform="scale(1 1) rotate(0) translate(4 167.47)">
<title>TTrack::ThisNamedLocationLongEnoughForSplit</title>
<polygon fill="white" stroke="transparent" points="-4,4 -4,-167.47 477,-167.47 477,4 -4,4"/>
<!-- Node1 -->
<g id="node1" class="node">
<title>Node1</title>
<g id="a_node1"><a xlink:title="See above under &#39;OneNamedLocationLongEnoughForSplit&#39;.">
<polygon fill="#bfbfbf" stroke="black" points="0,-82.5 0,-112.5 137,-112.5 137,-82.5 0,-82.5"/>
<text text-anchor="start" x="8" y="-100.5" font-family="Helvetica,sans-Serif" font-size="10.00">TTrack::ThisNamedLocation</text>
<text text-anchor="middle" x="68.5" y="-89.5" font-family="Helvetica,sans-Serif" font-size="10.00">LongEnoughForSplit</text>
</a>
</g>
</g>
<!-- Node2 -->
<g id="node2" class="node">
<title>Node2</title>
<g id="a_node2"><a xlink:href="class_t_utilities.html#ae1eddca13cc3c492839e131f40ec21c0" target="_top" xlink:title="pops the last entry off the call stack, throws an error if called when empty">
<polygon fill="white" stroke="black" points="363,-126 363,-145 473,-145 473,-126 363,-126"/>
<text text-anchor="middle" x="418" y="-133" font-family="Helvetica,sans-Serif" font-size="10.00">TUtilities::CallLogPop</text>
</a>
</g>
</g>
<!-- Node1&#45;&gt;Node2 -->
<g id="edge1" class="edge">
<title>Node1&#45;&gt;Node2</title>
<path fill="none" stroke="midnightblue" d="M89.59,-112.62C109.54,-126.61 141.61,-146.43 173,-154.5 241.33,-172.07 323.68,-158.85 373.11,-147.39"/>
<polygon fill="midnightblue" stroke="midnightblue" points="373.94,-150.8 382.85,-145.06 372.31,-143.99 373.94,-150.8"/>
</g>
<!-- Node3 -->
<g id="node3" class="node">
<title>Node3</title>
<g id="a_node3"><a xlink:href="class_t_track.html#aeb515d40cb9b08ed55ce877ffdbc51a5" target="_top" xlink:title="Return the corresponding link position (track always occupies either links 0 &amp; 1 or 2 &amp; 3)">
<polygon fill="white" stroke="black" points="174,-0.5 174,-30.5 326,-30.5 326,-0.5 174,-0.5"/>
<text text-anchor="start" x="182" y="-18.5" font-family="Helvetica,sans-Serif" font-size="10.00">TTrack::GetNonPointsOpposite</text>
<text text-anchor="middle" x="250" y="-7.5" font-family="Helvetica,sans-Serif" font-size="10.00">LinkPos</text>
</a>
</g>
</g>
<!-- Node1&#45;&gt;Node3 -->
<g id="edge2" class="edge">
<title>Node1&#45;&gt;Node3</title>
<path fill="none" stroke="midnightblue" d="M97.73,-82.46C118.35,-71.68 147.12,-57.08 173,-45.5 181.46,-41.71 190.56,-37.9 199.41,-34.33"/>
<polygon fill="midnightblue" stroke="midnightblue" points="200.89,-37.51 208.88,-30.56 198.3,-31.01 200.89,-37.51"/>
</g>
<!-- Node4 -->
<g id="node4" class="node">
<title>Node4</title>
<g id="a_node4"><a xlink:href="class_t_track.html#a51f89cf70e94b037f6378cd78003d82b" target="_top" xlink:title="A range&#45;checked version of InactiveTrackVector.at(At)">
<polygon fill="white" stroke="black" points="173,-88 173,-107 327,-107 327,-88 173,-88"/>
<text text-anchor="middle" x="250" y="-95" font-family="Helvetica,sans-Serif" font-size="10.00">TTrack::InactiveTrackElementAt</text>
</a>
</g>
</g>
<!-- Node1&#45;&gt;Node4 -->
<g id="edge3" class="edge">
<title>Node1&#45;&gt;Node4</title>
<path fill="none" stroke="midnightblue" d="M137.11,-97.5C145.46,-97.5 154.09,-97.5 162.68,-97.5"/>
<polygon fill="midnightblue" stroke="midnightblue" points="162.73,-101 172.73,-97.5 162.73,-94 162.73,-101"/>
</g>
<!-- Node5 -->
<g id="node5" class="node">
<title>Node5</title>
<g id="a_node5"><a xlink:href="class_t_utilities.html#a34bd6bb5305bc29afdf424f6d35a921c" target="_top" xlink:title="creates a string of the form &#39;hh:mm:ss&#39; for use in call &amp; event logging">
<polygon fill="white" stroke="black" points="363,-88 363,-107 473,-107 473,-88 363,-88"/>
<text text-anchor="middle" x="418" y="-95" font-family="Helvetica,sans-Serif" font-size="10.00">TUtilities::TimeStamp</text>
</a>
</g>
</g>
<!-- Node1&#45;&gt;Node5 -->
<g id="edge6" class="edge">
<title>Node1&#45;&gt;Node5</title>
<path fill="none" stroke="midnightblue" d="M137.18,-83.26C149.07,-81.28 161.36,-79.56 173,-78.5 241.16,-72.3 258.93,-71.39 327,-78.5 341.31,-79.99 356.7,-82.79 370.64,-85.79"/>
<polygon fill="midnightblue" stroke="midnightblue" points="369.97,-89.23 380.49,-87.99 371.5,-82.39 369.97,-89.23"/>
</g>
<!-- Node6 -->
<g id="node6" class="node">
<title>Node6</title>
<g id="a_node6"><a xlink:href="class_t_track.html#ad377e5a1f152f2e89832c0f9bcfd261f" target="_top" xlink:title="A range&#45;checked version of TrackVector.at(At)">
<polygon fill="white" stroke="black" points="189,-126 189,-145 311,-145 311,-126 189,-126"/>
<text text-anchor="middle" x="250" y="-133" font-family="Helvetica,sans-Serif" font-size="10.00">TTrack::TrackElementAt</text>
</a>
</g>
</g>
<!-- Node1&#45;&gt;Node6 -->
<g id="edge7" class="edge">
<title>Node1&#45;&gt;Node6</title>
<path fill="none" stroke="midnightblue" d="M137.11,-111.81C155.88,-115.79 176.04,-120.06 194.01,-123.86"/>
<polygon fill="midnightblue" stroke="midnightblue" points="193.51,-127.33 204.02,-125.98 194.96,-120.48 193.51,-127.33"/>
</g>
<!-- Node4&#45;&gt;Node2 -->
<g id="edge4" class="edge">
<title>Node4&#45;&gt;Node2</title>
<path fill="none" stroke="midnightblue" d="M292.89,-107.09C314.89,-112.13 342.05,-118.34 365.35,-123.68"/>
<polygon fill="midnightblue" stroke="midnightblue" points="364.88,-127.16 375.41,-125.98 366.45,-120.34 364.88,-127.16"/>
</g>
<!-- Node4&#45;&gt;Node5 -->
<g id="edge5" class="edge">
<title>Node4&#45;&gt;Node5</title>
<path fill="none" stroke="midnightblue" d="M327.2,-97.5C335.59,-97.5 344.07,-97.5 352.3,-97.5"/>
<polygon fill="midnightblue" stroke="midnightblue" points="352.57,-101 362.57,-97.5 352.57,-94 352.57,-101"/>
</g>
<!-- Node6&#45;&gt;Node2 -->
<g id="edge8" class="edge">
<title>Node6&#45;&gt;Node2</title>
<path fill="none" stroke="midnightblue" d="M311.4,-135.5C324.84,-135.5 339.15,-135.5 352.74,-135.5"/>
<polygon fill="midnightblue" stroke="midnightblue" points="352.97,-139 362.97,-135.5 352.97,-132 352.97,-139"/>
</g>
<!-- Node6&#45;&gt;Node5 -->
<g id="edge9" class="edge">
<title>Node6&#45;&gt;Node5</title>
<path fill="none" stroke="midnightblue" d="M292.89,-125.91C314.89,-120.87 342.05,-114.66 365.35,-109.32"/>
<polygon fill="midnightblue" stroke="midnightblue" points="366.45,-112.66 375.41,-107.02 364.88,-105.84 366.45,-112.66"/>
</g>
</g>
</svg>
