<?xml version="1.0" encoding="UTF-8" standalone="no"?>
<!DOCTYPE svg PUBLIC "-//W3C//DTD SVG 1.1//EN"
 "http://www.w3.org/Graphics/SVG/1.1/DTD/svg11.dtd">
<!-- Generated by graphviz version 2.44.1 (20200629.0800)
 -->
<!-- Title: TTrainController::SaveSessionTrains Pages: 1 -->
<!--zoomable 218 -->
<svg id="main" version="1.1" xmlns="http://www.w3.org/2000/svg" xmlns:xlink="http://www.w3.org/1999/xlink" xml:space="preserve" onload="init(evt)">
<style type="text/css"><![CDATA[
.edge:hover path { stroke: red; }
.edge:hover polygon { stroke: red; fill: red; }
]]></style>
<script type="text/javascript"><![CDATA[
var edges = document.getElementsByTagName('g');
if (edges && edges.length) {
  for (var i=0;i<edges.length;i++) {
    if (edges[i].id.substr(0,4)=='edge') {
      edges[i].setAttribute('class','edge');
    }
  }
}
]]></script>
        <defs>
                <circle id="rim" cx="0" cy="0" r="7"/>
                <circle id="rim2" cx="0" cy="0" r="3.5"/>
                <g id="zoomPlus">
                        <use xlink:href="#rim" fill="#404040">
                                <set attributeName="fill" to="#808080" begin="zoomplus.mouseover" end="zoomplus.mouseout"/>
                        </use>
                        <path d="M-4,0h8M0,-4v8" fill="none" stroke="white" stroke-width="1.5" pointer-events="none"/>
                </g>
                <g id="zoomMin">
                        <use xlink:href="#rim" fill="#404040">
                                <set attributeName="fill" to="#808080" begin="zoomminus.mouseover" end="zoomminus.mouseout"/>
                        </use>
                        <path d="M-4,0h8" fill="none" stroke="white" stroke-width="1.5" pointer-events="none"/>
                </g>
                <g id="dirArrow">
                        <path fill="none" stroke="white" stroke-width="1.5" d="M0,-3.0v7 M-2.5,-0.5L0,-3.0L2.5,-0.5"/>
                </g>
               <g id="resetDef">
                       <use xlink:href="#rim2" fill="#404040">
                               <set attributeName="fill" to="#808080" begin="reset.mouseover" end="reset.mouseout"/>
                       </use>
               </g>
        </defs>

<script type="text/javascript">
var viewWidth = 660;
var viewHeight = 218;
var sectionId = 'dynsection-103';
</script>
<script xlink:href="svgpan.js"/>
<svg id="graph" class="graph">
<g id="viewport">
<title>TTrainController::SaveSessionTrains</title>
<polygon fill="white" stroke="transparent" points="-4,4 -4,-214 656,-214 656,4 -4,4"/>
<!-- Node1 -->
<g id="node1" class="node">
<title>Node1</title>
<g id="a_node1"><a xlink:title="save trains to a session file">
<polygon fill="#bfbfbf" stroke="black" points="0,-71 0,-101 146,-101 146,-71 0,-71"/>
<text text-anchor="start" x="8" y="-89" font-family="Helvetica,sans-Serif" font-size="10.00">TTrainController::SaveSession</text>
<text text-anchor="middle" x="73" y="-78" font-family="Helvetica,sans-Serif" font-size="10.00">Trains</text>
</a>
</g>
</g>
<!-- Node2 -->
<g id="node2" class="node">
<title>Node2</title>
<g id="a_node2"><a xlink:href="class_t_utilities.html#ae1eddca13cc3c492839e131f40ec21c0" target="_top" xlink:title="pops the last entry off the call stack, throws an error if called when empty">
<polygon fill="white" stroke="black" points="375.5,-38.5 375.5,-57.5 485.5,-57.5 485.5,-38.5 375.5,-38.5"/>
<text text-anchor="middle" x="430.5" y="-45.5" font-family="Helvetica,sans-Serif" font-size="10.00">TUtilities::CallLogPop</text>
</a>
</g>
</g>
<!-- Node1&#45;&gt;Node2 -->
<g id="edge1" class="edge">
<title>Node1&#45;&gt;Node2</title>
<path fill="none" stroke="midnightblue" d="M146.24,-82.92C197.87,-80.16 268.91,-75.25 331,-67 345.73,-65.04 361.58,-62.28 376.17,-59.46"/>
<polygon fill="midnightblue" stroke="midnightblue" points="376.91,-62.89 386.04,-57.52 375.55,-56.02 376.91,-62.89"/>
</g>
<!-- Node3 -->
<g id="node3" class="node">
<title>Node3</title>
<g id="a_node3"><a xlink:href="class_t_utilities.html#a86ed634e8a9d7ca534a324954f4a7a2f" target="_top" xlink:title="stores the int value to the file, then a CR">
<polygon fill="white" stroke="black" points="377,-190.5 377,-209.5 484,-209.5 484,-190.5 377,-190.5"/>
<text text-anchor="middle" x="430.5" y="-197.5" font-family="Helvetica,sans-Serif" font-size="10.00">TUtilities::SaveFileInt</text>
</a>
</g>
</g>
<!-- Node1&#45;&gt;Node3 -->
<g id="edge2" class="edge">
<title>Node1&#45;&gt;Node3</title>
<path fill="none" stroke="midnightblue" d="M98.04,-101.02C119.38,-113.78 151.79,-131.77 182,-143 243.02,-165.69 315.99,-181.17 366.82,-190.21"/>
<polygon fill="midnightblue" stroke="midnightblue" points="366.23,-193.66 376.68,-191.93 367.43,-186.76 366.23,-193.66"/>
</g>
<!-- Node4 -->
<g id="node4" class="node">
<title>Node4</title>
<g id="a_node4"><a xlink:href="class_t_train.html#ac414e9e4fd7e25c11e09678dd4dc7944" target="_top" xlink:title="Data for a single train is saved to a session file.">
<polygon fill="white" stroke="black" points="184.5,-114.5 184.5,-133.5 328.5,-133.5 328.5,-114.5 184.5,-114.5"/>
<text text-anchor="middle" x="256.5" y="-121.5" font-family="Helvetica,sans-Serif" font-size="10.00">TTrain::SaveOneSessionTrain</text>
</a>
</g>
</g>
<!-- Node1&#45;&gt;Node4 -->
<g id="edge3" class="edge">
<title>Node1&#45;&gt;Node4</title>
<path fill="none" stroke="midnightblue" d="M145.73,-101.02C163.87,-104.82 183.07,-108.84 200.26,-112.43"/>
<polygon fill="midnightblue" stroke="midnightblue" points="199.62,-115.88 210.12,-114.5 201.05,-109.02 199.62,-115.88"/>
</g>
<!-- Node8 -->
<g id="node8" class="node">
<title>Node8</title>
<g id="a_node8"><a xlink:href="class_t_utilities.html#a34bd6bb5305bc29afdf424f6d35a921c" target="_top" xlink:title="creates a string of the form &#39;hh:mm:ss&#39; for use in call &amp; event logging">
<polygon fill="white" stroke="black" points="375.5,-0.5 375.5,-19.5 485.5,-19.5 485.5,-0.5 375.5,-0.5"/>
<text text-anchor="middle" x="430.5" y="-7.5" font-family="Helvetica,sans-Serif" font-size="10.00">TUtilities::TimeStamp</text>
</a>
</g>
</g>
<!-- Node1&#45;&gt;Node8 -->
<g id="edge11" class="edge">
<title>Node1&#45;&gt;Node8</title>
<path fill="none" stroke="midnightblue" d="M96.02,-70.9C117.07,-57.33 150.22,-38.18 182,-29 242.43,-11.55 314.4,-7.82 365.11,-7.84"/>
<polygon fill="midnightblue" stroke="midnightblue" points="365.26,-11.34 375.27,-7.89 365.29,-4.34 365.26,-11.34"/>
</g>
<!-- Node9 -->
<g id="node9" class="node">
<title>Node9</title>
<g id="a_node9"><a xlink:href="class_t_train_controller.html#aa09adf9c442406cccc270d6703867a1d" target="_top" xlink:title="Return a reference to the train at position VecPos in the TrainVector, carries out range checking on ...">
<polygon fill="white" stroke="black" points="182,-38.5 182,-57.5 331,-57.5 331,-38.5 182,-38.5"/>
<text text-anchor="middle" x="256.5" y="-45.5" font-family="Helvetica,sans-Serif" font-size="10.00">TTrainController::TrainVectorAt</text>
</a>
</g>
</g>
<!-- Node1&#45;&gt;Node9 -->
<g id="edge12" class="edge">
<title>Node1&#45;&gt;Node9</title>
<path fill="none" stroke="midnightblue" d="M145.73,-70.98C163.87,-67.18 183.07,-63.16 200.26,-59.57"/>
<polygon fill="midnightblue" stroke="midnightblue" points="201.05,-62.98 210.12,-57.5 199.62,-56.12 201.05,-62.98"/>
</g>
<!-- Node4&#45;&gt;Node2 -->
<g id="edge4" class="edge">
<title>Node4&#45;&gt;Node2</title>
<path fill="none" stroke="midnightblue" d="M297.36,-114.38C308.66,-110.76 320.68,-106.03 331,-100 349.74,-89.05 348.15,-77.76 367,-67 370.87,-64.79 375.03,-62.81 379.29,-61.04"/>
<polygon fill="midnightblue" stroke="midnightblue" points="380.59,-64.3 388.72,-57.51 378.13,-57.74 380.59,-64.3"/>
</g>
<!-- Node4&#45;&gt;Node3 -->
<g id="edge8" class="edge">
<title>Node4&#45;&gt;Node3</title>
<path fill="none" stroke="midnightblue" d="M273.74,-133.67C294.73,-145.88 332.67,-166.99 367,-181 372.52,-183.25 378.4,-185.38 384.27,-187.34"/>
<polygon fill="midnightblue" stroke="midnightblue" points="383.47,-190.76 394.06,-190.47 385.6,-184.09 383.47,-190.76"/>
</g>
<!-- Node5 -->
<g id="node5" class="node">
<title>Node5</title>
<g id="a_node5"><a xlink:href="class_t_utilities.html#a06a211ebaa112f3fac0edc5b238ef876" target="_top" xlink:title="stores &#39;1&#39; if the bool is true or &#39;0&#39; if false to the file, then a CR">
<polygon fill="white" stroke="black" points="372.5,-76.5 372.5,-95.5 488.5,-95.5 488.5,-76.5 372.5,-76.5"/>
<text text-anchor="middle" x="430.5" y="-83.5" font-family="Helvetica,sans-Serif" font-size="10.00">TUtilities::SaveFileBool</text>
</a>
</g>
</g>
<!-- Node4&#45;&gt;Node5 -->
<g id="edge5" class="edge">
<title>Node4&#45;&gt;Node5</title>
<path fill="none" stroke="midnightblue" d="M300.9,-114.41C323.91,-109.33 352.35,-103.04 376.63,-97.68"/>
<polygon fill="midnightblue" stroke="midnightblue" points="377.4,-101.09 386.41,-95.52 375.89,-94.26 377.4,-101.09"/>
</g>
<!-- Node6 -->
<g id="node6" class="node">
<title>Node6</title>
<g id="a_node6"><a xlink:href="class_t_utilities.html#a92b5adfb8ad3a937a8d208bfd90a5741" target="_top" xlink:title="converts the double value to a string (if double stored directly it is truncated to 6 digits) then st...">
<polygon fill="white" stroke="black" points="367,-152.5 367,-171.5 494,-171.5 494,-152.5 367,-152.5"/>
<text text-anchor="middle" x="430.5" y="-159.5" font-family="Helvetica,sans-Serif" font-size="10.00">TUtilities::SaveFileDouble</text>
</a>
</g>
</g>
<!-- Node4&#45;&gt;Node6 -->
<g id="edge6" class="edge">
<title>Node4&#45;&gt;Node6</title>
<path fill="none" stroke="midnightblue" d="M300.9,-133.59C323.91,-138.67 352.35,-144.96 376.63,-150.32"/>
<polygon fill="midnightblue" stroke="midnightblue" points="375.89,-153.74 386.41,-152.48 377.4,-146.91 375.89,-153.74"/>
</g>
<!-- Node7 -->
<g id="node7" class="node">
<title>Node7</title>
<g id="a_node7"><a xlink:href="class_t_utilities.html#a60531c6cb1a6a33dd71299d3a5b6cc21" target="_top" xlink:title="stores the string value to the file, then a &#39;0&#39; delimiter then a CR">
<polygon fill="white" stroke="black" points="530,-133.5 530,-152.5 652,-152.5 652,-133.5 530,-133.5"/>
<text text-anchor="middle" x="591" y="-140.5" font-family="Helvetica,sans-Serif" font-size="10.00">TUtilities::SaveFileString</text>
</a>
</g>
</g>
<!-- Node4&#45;&gt;Node7 -->
<g id="edge9" class="edge">
<title>Node4&#45;&gt;Node7</title>
<path fill="none" stroke="midnightblue" d="M328.83,-128.08C385.24,-131.3 463.57,-135.78 519.7,-138.98"/>
<polygon fill="midnightblue" stroke="midnightblue" points="519.73,-142.49 529.92,-139.57 520.13,-135.5 519.73,-142.49"/>
</g>
<!-- Node4&#45;&gt;Node8 -->
<g id="edge10" class="edge">
<title>Node4&#45;&gt;Node8</title>
<path fill="none" stroke="midnightblue" d="M271,-114.49C286.13,-103.62 311.13,-85 331,-67 348.24,-51.38 347.21,-41.23 367,-29 370.38,-26.91 374,-25.04 377.73,-23.36"/>
<polygon fill="midnightblue" stroke="midnightblue" points="379.2,-26.55 387.18,-19.59 376.6,-20.05 379.2,-26.55"/>
</g>
<!-- Node6&#45;&gt;Node7 -->
<g id="edge7" class="edge">
<title>Node6&#45;&gt;Node7</title>
<path fill="none" stroke="midnightblue" d="M494.14,-154.49C502.6,-153.48 511.32,-152.43 519.9,-151.4"/>
<polygon fill="midnightblue" stroke="midnightblue" points="520.37,-154.87 529.88,-150.21 519.53,-147.92 520.37,-154.87"/>
</g>
<!-- Node9&#45;&gt;Node2 -->
<g id="edge13" class="edge">
<title>Node9&#45;&gt;Node2</title>
<path fill="none" stroke="midnightblue" d="M331.44,-48C342.62,-48 354.07,-48 365.03,-48"/>
<polygon fill="midnightblue" stroke="midnightblue" points="365.36,-51.5 375.36,-48 365.36,-44.5 365.36,-51.5"/>
</g>
<!-- Node9&#45;&gt;Node8 -->
<g id="edge14" class="edge">
<title>Node9&#45;&gt;Node8</title>
<path fill="none" stroke="midnightblue" d="M300.9,-38.41C323.91,-33.33 352.35,-27.04 376.63,-21.68"/>
<polygon fill="midnightblue" stroke="midnightblue" points="377.4,-25.09 386.41,-19.52 375.89,-18.26 377.4,-25.09"/>
</g>
</g>
</svg>
        <g id="navigator" transform="translate(0 0)" fill="#404254">
                <rect fill="#f2f5e9" fill-opacity="0.5" stroke="#606060" stroke-width=".5" x="0" y="0" width="60" height="60"/>
                <use id="zoomplus" xlink:href="#zoomPlus" x="17" y="9" onmousedown="handleZoom(evt,'in')"/>
                <use id="zoomminus" xlink:href="#zoomMin" x="42" y="9" onmousedown="handleZoom(evt,'out')"/>
                <use id="reset" xlink:href="#resetDef" x="30" y="36" onmousedown="handleReset()"/>
                <g id="arrowUp" xlink:href="#dirArrow" transform="translate(30 24)" onmousedown="handlePan(0,-1)">
                  <use xlink:href="#rim" fill="#404040">
                        <set attributeName="fill" to="#808080" begin="arrowUp.mouseover" end="arrowUp.mouseout"/>
                  </use>
                  <path fill="none" stroke="white" stroke-width="1.5" d="M0,-3.0v7 M-2.5,-0.5L0,-3.0L2.5,-0.5"/>
                </g>
                <g id="arrowRight" xlink:href="#dirArrow" transform="rotate(90) translate(36 -43)" onmousedown="handlePan(1,0)">
                  <use xlink:href="#rim" fill="#404040">
                        <set attributeName="fill" to="#808080" begin="arrowRight.mouseover" end="arrowRight.mouseout"/>
                  </use>
                  <path fill="none" stroke="white" stroke-width="1.5" d="M0,-3.0v7 M-2.5,-0.5L0,-3.0L2.5,-0.5"/>
                </g>
                <g id="arrowDown" xlink:href="#dirArrow" transform="rotate(180) translate(-30 -48)" onmousedown="handlePan(0,1)">
                  <use xlink:href="#rim" fill="#404040">
                        <set attributeName="fill" to="#808080" begin="arrowDown.mouseover" end="arrowDown.mouseout"/>
                  </use>
                  <path fill="none" stroke="white" stroke-width="1.5" d="M0,-3.0v7 M-2.5,-0.5L0,-3.0L2.5,-0.5"/>
                </g>
                <g id="arrowLeft" xlink:href="#dirArrow" transform="rotate(270) translate(-36 17)" onmousedown="handlePan(-1,0)">
                  <use xlink:href="#rim" fill="#404040">
                        <set attributeName="fill" to="#808080" begin="arrowLeft.mouseover" end="arrowLeft.mouseout"/>
                  </use>
                  <path fill="none" stroke="white" stroke-width="1.5" d="M0,-3.0v7 M-2.5,-0.5L0,-3.0L2.5,-0.5"/>
                </g>
        </g>
        <svg viewBox="0 0 15 15" width="100%" height="30px" preserveAspectRatio="xMaxYMin meet">
         <g id="arrow_out" transform="scale(0.3 0.3)">
          <a xlink:href="class_t_train_controller_afa594bfc6b628d21d02a31c3a13c3a0a_cgraph_org.svg" target="_base">
           <rect id="button" ry="5" rx="5" y="6" x="6" height="38" width="38"
                fill="#f2f5e9" fill-opacity="0.5" stroke="#606060" stroke-width="1.0"/>
           <path id="arrow"
             d="M 11.500037,31.436501 C 11.940474,20.09759 22.043105,11.32322 32.158766,21.979434 L 37.068811,17.246167 C 37.068811,17.246167 37.088388,32 37.088388,32 L 22.160133,31.978069 C 22.160133,31.978069 26.997745,27.140456 26.997745,27.140456 C 18.528582,18.264221 13.291696,25.230495 11.500037,31.436501 z"
             style="fill:#404040;"/>
          </a>
         </g>
        </svg>
</svg>
