<?xml version="1.0" encoding="UTF-8" standalone="no"?>
<!DOCTYPE svg PUBLIC "-//W3C//DTD SVG 1.1//EN"
 "http://www.w3.org/Graphics/SVG/1.1/DTD/svg11.dtd">
<!-- Generated by graphviz version 2.44.1 (20200629.0800)
 -->
<!-- Title: TAllRoutes::DiagonalFouledByRoute Pages: 1 -->
<svg width="474pt" height="173pt"
 viewBox="0.00 0.00 474.00 172.55" xmlns="http://www.w3.org/2000/svg" xmlns:xlink="http://www.w3.org/1999/xlink">
<g id="graph0" class="graph" transform="scale(1 1) rotate(0) translate(4 168.55)">
<title>TAllRoutes::DiagonalFouledByRoute</title>
<polygon fill="white" stroke="transparent" points="-4,4 -4,-168.55 470,-168.55 470,4 -4,4"/>
<!-- Node1 -->
<g id="node1" class="node">
<title>Node1</title>
<g id="a_node1"><a xlink:title="As above but only checks for a route (may or may not be a train present (new at v1....">
<polygon fill="#bfbfbf" stroke="black" points="0,-67.23 0,-97.23 137,-97.23 137,-67.23 0,-67.23"/>
<text text-anchor="start" x="8" y="-85.23" font-family="Helvetica,sans-Serif" font-size="10.00">TAllRoutes::DiagonalFouled</text>
<text text-anchor="middle" x="68.5" y="-74.23" font-family="Helvetica,sans-Serif" font-size="10.00">ByRoute</text>
</a>
</g>
</g>
<!-- Node2 -->
<g id="node2" class="node">
<title>Node2</title>
<g id="a_node2"><a xlink:href="class_t_utilities.html#ae1eddca13cc3c492839e131f40ec21c0" target="_top" xlink:title="&lt; specifies whether no delays or minor, moderate or major random delays are to be applied">
<polygon fill="white" stroke="black" points="356,-92.73 356,-111.73 466,-111.73 466,-92.73 356,-92.73"/>
<text text-anchor="middle" x="411" y="-99.73" font-family="Helvetica,sans-Serif" font-size="10.00">TUtilities::CallLogPop</text>
</a>
</g>
</g>
<!-- Node1&#45;&gt;Node2 -->
<g id="edge1" class="edge">
<title>Node1&#45;&gt;Node2</title>
<path fill="none" stroke="midnightblue" d="M85.47,-97.36C104.55,-114.29 138.28,-140.72 173,-151.23 235.53,-170.17 256.69,-167.35 320,-151.23 345.55,-144.73 371.67,-129.34 389.15,-117.53"/>
<polygon fill="midnightblue" stroke="midnightblue" points="391.24,-120.33 397.45,-111.75 387.24,-114.59 391.24,-120.33"/>
</g>
<!-- Node3 -->
<g id="node3" class="node">
<title>Node3</title>
<g id="a_node3"><a xlink:href="class_t_one_pref_dir.html#a5b67e5aaa86d324229aedc68f32f32b8" target="_top" xlink:title="Return a non&#45;modifiable element at PrefDirVector position &#39;At&#39;.">
<polygon fill="white" stroke="black" points="180.5,-111.23 180.5,-141.23 312.5,-141.23 312.5,-111.23 180.5,-111.23"/>
<text text-anchor="start" x="188.5" y="-129.23" font-family="Helvetica,sans-Serif" font-size="10.00">TOnePrefDir::GetFixedPref</text>
<text text-anchor="middle" x="246.5" y="-118.23" font-family="Helvetica,sans-Serif" font-size="10.00">DirElementAt</text>
</a>
</g>
</g>
<!-- Node1&#45;&gt;Node3 -->
<g id="edge2" class="edge">
<title>Node1&#45;&gt;Node3</title>
<path fill="none" stroke="midnightblue" d="M129.58,-97.25C144.36,-100.95 160.32,-104.94 175.53,-108.74"/>
<polygon fill="midnightblue" stroke="midnightblue" points="174.84,-112.18 185.4,-111.21 176.54,-105.39 174.84,-112.18"/>
</g>
<!-- Node4 -->
<g id="node4" class="node">
<title>Node4</title>
<g id="a_node4"><a xlink:href="class_t_utilities.html#a34bd6bb5305bc29afdf424f6d35a921c" target="_top" xlink:title="creates a string of the form &#39;hh:mm:ss&#39; for use in call &amp; event logging">
<polygon fill="white" stroke="black" points="356,-51.73 356,-70.73 466,-70.73 466,-51.73 356,-51.73"/>
<text text-anchor="middle" x="411" y="-58.73" font-family="Helvetica,sans-Serif" font-size="10.00">TUtilities::TimeStamp</text>
</a>
</g>
</g>
<!-- Node1&#45;&gt;Node4 -->
<g id="edge11" class="edge">
<title>Node1&#45;&gt;Node4</title>
<path fill="none" stroke="midnightblue" d="M85.47,-67.11C104.55,-50.18 138.28,-23.75 173,-13.23 235.53,5.7 256.62,2.61 320,-13.23 345.31,-19.56 371.29,-34.5 388.8,-46.05"/>
<polygon fill="midnightblue" stroke="midnightblue" points="386.89,-48.98 397.13,-51.71 390.82,-43.2 386.89,-48.98"/>
</g>
<!-- Node5 -->
<g id="node5" class="node">
<title>Node5</title>
<g id="a_node5"><a xlink:href="class_t_all_routes.html#a7d9f820738af6314f2b9a4a1f52bb64a" target="_top" xlink:title="Returns a constant reference to the route at AllRoutesVector position &#39;At&#39;, after performing range ch...">
<polygon fill="white" stroke="black" points="174,-72.73 174,-91.73 319,-91.73 319,-72.73 174,-72.73"/>
<text text-anchor="middle" x="246.5" y="-79.73" font-family="Helvetica,sans-Serif" font-size="10.00">TAllRoutes::GetFixedRouteAt</text>
</a>
</g>
</g>
<!-- Node1&#45;&gt;Node5 -->
<g id="edge5" class="edge">
<title>Node1&#45;&gt;Node5</title>
<path fill="none" stroke="midnightblue" d="M137.04,-82.23C145.78,-82.23 154.79,-82.23 163.73,-82.23"/>
<polygon fill="midnightblue" stroke="midnightblue" points="163.76,-85.73 173.76,-82.23 163.76,-78.73 163.76,-85.73"/>
</g>
<!-- Node6 -->
<g id="node6" class="node">
<title>Node6</title>
<g id="a_node6"><a xlink:href="class_t_all_routes.html#a7eda7a4b535c7538e217bbbc4d878071" target="_top" xlink:title="Retrieve up to two TRouteElementPair entries from Route2MultiMap at H &amp; V, the first as a function re...">
<polygon fill="white" stroke="black" points="173,-23.23 173,-53.23 320,-53.23 320,-23.23 173,-23.23"/>
<text text-anchor="start" x="181" y="-41.23" font-family="Helvetica,sans-Serif" font-size="10.00">TAllRoutes::GetRouteElement</text>
<text text-anchor="middle" x="246.5" y="-30.23" font-family="Helvetica,sans-Serif" font-size="10.00">DataFromRoute2MultiMap</text>
</a>
</g>
</g>
<!-- Node1&#45;&gt;Node6 -->
<g id="edge8" class="edge">
<title>Node1&#45;&gt;Node6</title>
<path fill="none" stroke="midnightblue" d="M129.58,-67.22C144.36,-63.52 160.32,-59.53 175.53,-55.73"/>
<polygon fill="midnightblue" stroke="midnightblue" points="176.54,-59.08 185.4,-53.26 174.84,-52.29 176.54,-59.08"/>
</g>
<!-- Node3&#45;&gt;Node2 -->
<g id="edge3" class="edge">
<title>Node3&#45;&gt;Node2</title>
<path fill="none" stroke="midnightblue" d="M312.66,-116.61C323.5,-115.01 334.74,-113.35 345.56,-111.75"/>
<polygon fill="midnightblue" stroke="midnightblue" points="346.4,-115.17 355.78,-110.24 345.38,-108.24 346.4,-115.17"/>
</g>
<!-- Node3&#45;&gt;Node4 -->
<g id="edge4" class="edge">
<title>Node3&#45;&gt;Node4</title>
<path fill="none" stroke="midnightblue" d="M294.25,-111.13C302.89,-108.05 311.78,-104.69 320,-101.23 336.49,-94.3 339.7,-90.61 356,-83.23 362.38,-80.34 369.26,-77.41 375.9,-74.66"/>
<polygon fill="midnightblue" stroke="midnightblue" points="377.43,-77.82 385.37,-70.81 374.79,-71.34 377.43,-77.82"/>
</g>
<!-- Node5&#45;&gt;Node2 -->
<g id="edge6" class="edge">
<title>Node5&#45;&gt;Node2</title>
<path fill="none" stroke="midnightblue" d="M319.25,-91.07C328.05,-92.15 337,-93.25 345.68,-94.32"/>
<polygon fill="midnightblue" stroke="midnightblue" points="345.37,-97.81 355.72,-95.55 346.22,-90.86 345.37,-97.81"/>
</g>
<!-- Node5&#45;&gt;Node4 -->
<g id="edge7" class="edge">
<title>Node5&#45;&gt;Node4</title>
<path fill="none" stroke="midnightblue" d="M319.25,-72.96C328.05,-71.83 337,-70.67 345.68,-69.55"/>
<polygon fill="midnightblue" stroke="midnightblue" points="346.25,-73 355.72,-68.25 345.35,-66.06 346.25,-73"/>
</g>
<!-- Node6&#45;&gt;Node2 -->
<g id="edge9" class="edge">
<title>Node6&#45;&gt;Node2</title>
<path fill="none" stroke="midnightblue" d="M293.8,-53.36C302.57,-56.46 311.61,-59.82 320,-63.23 336.39,-69.91 339.8,-73.12 356,-80.23 362.48,-83.08 369.44,-86.01 376.14,-88.77"/>
<polygon fill="midnightblue" stroke="midnightblue" points="375.11,-92.13 385.69,-92.66 377.75,-85.64 375.11,-92.13"/>
</g>
<!-- Node6&#45;&gt;Node4 -->
<g id="edge10" class="edge">
<title>Node6&#45;&gt;Node4</title>
<path fill="none" stroke="midnightblue" d="M320.19,-48.52C328.73,-49.73 337.38,-50.96 345.79,-52.15"/>
<polygon fill="midnightblue" stroke="midnightblue" points="345.49,-55.64 355.89,-53.58 346.48,-48.71 345.49,-55.64"/>
</g>
</g>
</svg>
