<?xml version="1.0" encoding="UTF-8" standalone="no"?>
<!DOCTYPE svg PUBLIC "-//W3C//DTD SVG 1.1//EN"
 "http://www.w3.org/Graphics/SVG/1.1/DTD/svg11.dtd">
<!-- Generated by graphviz version 2.44.1 (20200629.0800)
 -->
<!-- Title: TRailGraphics::ChangeTransparentColour Pages: 1 -->
<!--zoomable 359 -->
<svg id="main" version="1.1" xmlns="http://www.w3.org/2000/svg" xmlns:xlink="http://www.w3.org/1999/xlink" xml:space="preserve" onload="init(evt)">
<style type="text/css"><![CDATA[
.edge:hover path { stroke: red; }
.edge:hover polygon { stroke: red; fill: red; }
]]></style>
<script type="text/javascript"><![CDATA[
var edges = document.getElementsByTagName('g');
if (edges && edges.length) {
  for (var i=0;i<edges.length;i++) {
    if (edges[i].id.substr(0,4)=='edge') {
      edges[i].setAttribute('class','edge');
    }
  }
}
]]></script>
        <defs>
                <circle id="rim" cx="0" cy="0" r="7"/>
                <circle id="rim2" cx="0" cy="0" r="3.5"/>
                <g id="zoomPlus">
                        <use xlink:href="#rim" fill="#404040">
                                <set attributeName="fill" to="#808080" begin="zoomplus.mouseover" end="zoomplus.mouseout"/>
                        </use>
                        <path d="M-4,0h8M0,-4v8" fill="none" stroke="white" stroke-width="1.5" pointer-events="none"/>
                </g>
                <g id="zoomMin">
                        <use xlink:href="#rim" fill="#404040">
                                <set attributeName="fill" to="#808080" begin="zoomminus.mouseover" end="zoomminus.mouseout"/>
                        </use>
                        <path d="M-4,0h8" fill="none" stroke="white" stroke-width="1.5" pointer-events="none"/>
                </g>
                <g id="dirArrow">
                        <path fill="none" stroke="white" stroke-width="1.5" d="M0,-3.0v7 M-2.5,-0.5L0,-3.0L2.5,-0.5"/>
                </g>
               <g id="resetDef">
                       <use xlink:href="#rim2" fill="#404040">
                               <set attributeName="fill" to="#808080" begin="reset.mouseover" end="reset.mouseout"/>
                       </use>
               </g>
        </defs>

<script type="text/javascript">
var viewWidth = 694;
var viewHeight = 359;
var sectionId = 'dynsection-15';
</script>
<script xlink:href="svgpan.js"/>
<svg id="graph" class="graph">
<g id="viewport">
<title>TRailGraphics::ChangeTransparentColour</title>
<polygon fill="white" stroke="transparent" points="-4,4 -4,-355 690,-355 690,4 -4,4"/>
<!-- Node1 -->
<g id="node1" class="node">
<title>Node1</title>
<g id="a_node1"><a xlink:title=" ">
<polygon fill="#bfbfbf" stroke="black" points="519,-205.5 519,-235.5 686,-235.5 686,-205.5 519,-205.5"/>
<text text-anchor="start" x="527" y="-223.5" font-family="Helvetica,sans-Serif" font-size="10.00">TRailGraphics::ChangeTransparent</text>
<text text-anchor="middle" x="602.5" y="-212.5" font-family="Helvetica,sans-Serif" font-size="10.00">Colour</text>
</a>
</g>
</g>
<!-- Node2 -->
<g id="node2" class="node">
<title>Node2</title>
<g id="a_node2"><a xlink:href="class_t_rail_graphics.html#a5121c6d8b8fa69eefc293ca51cddce88" target="_top" xlink:title=" ">
<polygon fill="white" stroke="black" points="355,-205.5 355,-235.5 483,-235.5 483,-205.5 355,-205.5"/>
<text text-anchor="start" x="363" y="-223.5" font-family="Helvetica,sans-Serif" font-size="10.00">TRailGraphics::ChangeAll</text>
<text text-anchor="middle" x="419" y="-212.5" font-family="Helvetica,sans-Serif" font-size="10.00">TransparentColours</text>
</a>
</g>
</g>
<!-- Node1&#45;&gt;Node2 -->
<g id="edge1" class="edge">
<title>Node1&#45;&gt;Node2</title>
<path fill="none" stroke="midnightblue" d="M508.76,-220.5C500.05,-220.5 491.36,-220.5 483.02,-220.5"/>
<polygon fill="midnightblue" stroke="midnightblue" points="508.98,-224 518.98,-220.5 508.98,-217 508.98,-224"/>
</g>
<!-- Node3 -->
<g id="node3" class="node">
<title>Node3</title>
<g id="a_node3"><a xlink:href="class_t_interface.html#a237c151513ca8adca6cd1006cc2fc66f" target="_top" xlink:title=" ">
<polygon fill="white" stroke="black" points="180.5,-320.5 180.5,-350.5 316.5,-350.5 316.5,-320.5 180.5,-320.5"/>
<text text-anchor="start" x="188.5" y="-338.5" font-family="Helvetica,sans-Serif" font-size="10.00">TInterface::BlackBgndMenu</text>
<text text-anchor="middle" x="248.5" y="-327.5" font-family="Helvetica,sans-Serif" font-size="10.00">ItemClick</text>
</a>
</g>
</g>
<!-- Node2&#45;&gt;Node3 -->
<g id="edge2" class="edge">
<title>Node2&#45;&gt;Node3</title>
<path fill="none" stroke="midnightblue" d="M398.26,-243.36C379.62,-263.7 349.97,-293.02 319,-311.5 313.41,-314.84 307.29,-317.79 301.07,-320.39"/>
<polygon fill="midnightblue" stroke="midnightblue" points="400.99,-245.55 405.08,-235.78 395.79,-240.87 400.99,-245.55"/>
</g>
<!-- Node4 -->
<g id="node4" class="node">
<title>Node4</title>
<g id="a_node4"><a xlink:href="class_t_interface.html#a24d79aa4745e495daa07bb5ce412e75f" target="_top" xlink:title=" ">
<polygon fill="white" stroke="black" points="183,-271.5 183,-301.5 314,-301.5 314,-271.5 183,-271.5"/>
<text text-anchor="start" x="191" y="-289.5" font-family="Helvetica,sans-Serif" font-size="10.00">TInterface::BlueBgndMenu</text>
<text text-anchor="middle" x="248.5" y="-278.5" font-family="Helvetica,sans-Serif" font-size="10.00">ItemClick</text>
</a>
</g>
</g>
<!-- Node2&#45;&gt;Node4 -->
<g id="edge3" class="edge">
<title>Node2&#45;&gt;Node4</title>
<path fill="none" stroke="midnightblue" d="M373.24,-239.56C356.32,-246.63 336.84,-254.6 319,-261.5 310.39,-264.83 301.12,-268.26 292.25,-271.48"/>
<polygon fill="midnightblue" stroke="midnightblue" points="375.01,-242.61 382.88,-235.52 372.31,-236.16 375.01,-242.61"/>
</g>
<!-- Node5 -->
<g id="node5" class="node">
<title>Node5</title>
<g id="a_node5"><a xlink:href="class_t_interface.html#a0659e748042e378f3e325652c9c2e6d2" target="_top" xlink:title="constructor">
<polygon fill="white" stroke="black" points="195,-233 195,-252 302,-252 302,-233 195,-233"/>
<text text-anchor="middle" x="248.5" y="-240" font-family="Helvetica,sans-Serif" font-size="10.00">TInterface::TInterface</text>
</a>
</g>
</g>
<!-- Node2&#45;&gt;Node5 -->
<g id="edge4" class="edge">
<title>Node2&#45;&gt;Node5</title>
<path fill="none" stroke="midnightblue" d="M344.48,-230.1C330.2,-231.96 315.5,-233.88 302.07,-235.64"/>
<polygon fill="midnightblue" stroke="midnightblue" points="345.31,-233.52 354.78,-228.75 344.41,-226.58 345.31,-233.52"/>
</g>
<!-- Node6 -->
<g id="node6" class="node">
<title>Node6</title>
<g id="a_node6"><a xlink:href="class_t_interface.html#a3a9f9cf4b530f7958ee3d14047fd951a" target="_top" xlink:title=" ">
<polygon fill="white" stroke="black" points="180,-183.5 180,-213.5 317,-213.5 317,-183.5 180,-183.5"/>
<text text-anchor="start" x="188" y="-201.5" font-family="Helvetica,sans-Serif" font-size="10.00">TInterface::WhiteBgndMenu</text>
<text text-anchor="middle" x="248.5" y="-190.5" font-family="Helvetica,sans-Serif" font-size="10.00">ItemClick</text>
</a>
</g>
</g>
<!-- Node2&#45;&gt;Node6 -->
<g id="edge5" class="edge">
<title>Node2&#45;&gt;Node6</title>
<path fill="none" stroke="midnightblue" d="M344.84,-210.95C335.6,-209.74 326.17,-208.51 317.02,-207.32"/>
<polygon fill="midnightblue" stroke="midnightblue" points="344.41,-214.42 354.78,-212.25 345.31,-207.48 344.41,-214.42"/>
</g>
<!-- Node7 -->
<g id="node7" class="node">
<title>Node7</title>
<g id="a_node7"><a xlink:href="class_t_track.html#a98b1632a5246785adc1003ebcb3e91a4" target="_top" xlink:title="Called by TInterface::SaveOperatingImage1Click to add all track &amp; text to the image file in their ope...">
<polygon fill="white" stroke="black" points="178,-134.5 178,-164.5 319,-164.5 319,-134.5 178,-134.5"/>
<text text-anchor="start" x="186" y="-152.5" font-family="Helvetica,sans-Serif" font-size="10.00">TTrack::WriteOperatingTrack</text>
<text text-anchor="middle" x="248.5" y="-141.5" font-family="Helvetica,sans-Serif" font-size="10.00">AndTextToImage</text>
</a>
</g>
</g>
<!-- Node2&#45;&gt;Node7 -->
<g id="edge6" class="edge">
<title>Node2&#45;&gt;Node7</title>
<path fill="none" stroke="midnightblue" d="M378.5,-201.16C360.52,-192.61 338.85,-182.66 319,-174.5 310.7,-171.09 301.74,-167.67 293.11,-164.51"/>
<polygon fill="midnightblue" stroke="midnightblue" points="377.01,-204.33 387.54,-205.49 380.04,-198.01 377.01,-204.33"/>
</g>
<!-- Node9 -->
<g id="node9" class="node">
<title>Node9</title>
<g id="a_node9"><a xlink:href="class_t_track.html#a909e96ff6b77c266ab82313e30018cd4" target="_top" xlink:title="Called by TInterface::SaveImageNoGrid1Click, TInterface::SaveImageAndGrid1Click and TInterface::SaveI...">
<polygon fill="white" stroke="black" points="181,-73.5 181,-103.5 316,-103.5 316,-73.5 181,-73.5"/>
<text text-anchor="start" x="189" y="-91.5" font-family="Helvetica,sans-Serif" font-size="10.00">TTrack::WriteTrackAndText</text>
<text text-anchor="middle" x="248.5" y="-80.5" font-family="Helvetica,sans-Serif" font-size="10.00">ToImage</text>
</a>
</g>
</g>
<!-- Node2&#45;&gt;Node9 -->
<g id="edge8" class="edge">
<title>Node2&#45;&gt;Node9</title>
<path fill="none" stroke="midnightblue" d="M397.7,-197.72C378.69,-177.22 348.8,-147.09 319,-125.5 307.71,-117.32 294.38,-109.78 282.43,-103.68"/>
<polygon fill="midnightblue" stroke="midnightblue" points="395.34,-200.32 404.68,-205.33 400.5,-195.59 395.34,-200.32"/>
</g>
<!-- Node8 -->
<g id="node8" class="node">
<title>Node8</title>
<g id="a_node8"><a xlink:href="class_t_interface.html#a4d75015545313004ffd5022c020f4edf" target="_top" xlink:title=" ">
<polygon fill="white" stroke="black" points="7,-147.5 7,-177.5 135,-177.5 135,-147.5 7,-147.5"/>
<text text-anchor="start" x="15" y="-165.5" font-family="Helvetica,sans-Serif" font-size="10.00">TInterface::SaveOperating</text>
<text text-anchor="middle" x="71" y="-154.5" font-family="Helvetica,sans-Serif" font-size="10.00">ImageMenuItemClick</text>
</a>
</g>
</g>
<!-- Node7&#45;&gt;Node8 -->
<g id="edge7" class="edge">
<title>Node7&#45;&gt;Node8</title>
<path fill="none" stroke="midnightblue" d="M167.91,-155.4C156.97,-156.21 145.86,-157.03 135.26,-157.81"/>
<polygon fill="midnightblue" stroke="midnightblue" points="168.17,-158.89 177.89,-154.66 167.65,-151.9 168.17,-158.89"/>
</g>
<!-- Node10 -->
<g id="node10" class="node">
<title>Node10</title>
<g id="a_node10"><a xlink:href="class_t_interface.html#a14d8976ee13c85f12eab634de845baf1" target="_top" xlink:title=" ">
<polygon fill="white" stroke="black" points="6.5,-98.5 6.5,-128.5 135.5,-128.5 135.5,-98.5 6.5,-98.5"/>
<text text-anchor="start" x="14.5" y="-116.5" font-family="Helvetica,sans-Serif" font-size="10.00">TInterface::SaveImageAnd</text>
<text text-anchor="middle" x="71" y="-105.5" font-family="Helvetica,sans-Serif" font-size="10.00">GridMenuItemClick</text>
</a>
</g>
</g>
<!-- Node9&#45;&gt;Node10 -->
<g id="edge9" class="edge">
<title>Node9&#45;&gt;Node10</title>
<path fill="none" stroke="midnightblue" d="M170.71,-99.44C159,-101.11 147.04,-102.81 135.66,-104.43"/>
<polygon fill="midnightblue" stroke="midnightblue" points="171.49,-102.86 180.9,-97.99 170.51,-95.93 171.49,-102.86"/>
</g>
<!-- Node11 -->
<g id="node11" class="node">
<title>Node11</title>
<g id="a_node11"><a xlink:href="class_t_interface.html#ab73377784e302350bcc4f1fed4f8d90a" target="_top" xlink:title=" ">
<polygon fill="white" stroke="black" points="6.5,-49.5 6.5,-79.5 135.5,-79.5 135.5,-49.5 6.5,-49.5"/>
<text text-anchor="start" x="14.5" y="-67.5" font-family="Helvetica,sans-Serif" font-size="10.00">TInterface::SaveImageAnd</text>
<text text-anchor="middle" x="71" y="-56.5" font-family="Helvetica,sans-Serif" font-size="10.00">PrefDirsMenuItemClick</text>
</a>
</g>
</g>
<!-- Node9&#45;&gt;Node11 -->
<g id="edge10" class="edge">
<title>Node9&#45;&gt;Node11</title>
<path fill="none" stroke="midnightblue" d="M170.71,-78C159,-76.4 147.04,-74.76 135.66,-73.21"/>
<polygon fill="midnightblue" stroke="midnightblue" points="170.52,-81.51 180.9,-79.39 171.47,-74.57 170.52,-81.51"/>
</g>
<!-- Node12 -->
<g id="node12" class="node">
<title>Node12</title>
<g id="a_node12"><a xlink:href="class_t_interface.html#a69b645fe4cc36d0bea7de3fca553bd6a" target="_top" xlink:title=" ">
<polygon fill="white" stroke="black" points="0,-0.5 0,-30.5 142,-30.5 142,-0.5 0,-0.5"/>
<text text-anchor="start" x="8" y="-18.5" font-family="Helvetica,sans-Serif" font-size="10.00">TInterface::SaveImageNoGrid</text>
<text text-anchor="middle" x="71" y="-7.5" font-family="Helvetica,sans-Serif" font-size="10.00">MenuItemClick</text>
</a>
</g>
</g>
<!-- Node9&#45;&gt;Node12 -->
<g id="edge11" class="edge">
<title>Node9&#45;&gt;Node12</title>
<path fill="none" stroke="midnightblue" d="M208.15,-69.03C188.49,-59.61 164.22,-48.44 142,-39.5 134.37,-36.43 126.18,-33.4 118.19,-30.57"/>
<polygon fill="midnightblue" stroke="midnightblue" points="206.87,-72.3 217.4,-73.5 209.91,-66 206.87,-72.3"/>
</g>
</g>
</svg>
        <g id="navigator" transform="translate(0 0)" fill="#404254">
                <rect fill="#f2f5e9" fill-opacity="0.5" stroke="#606060" stroke-width=".5" x="0" y="0" width="60" height="60"/>
                <use id="zoomplus" xlink:href="#zoomPlus" x="17" y="9" onmousedown="handleZoom(evt,'in')"/>
                <use id="zoomminus" xlink:href="#zoomMin" x="42" y="9" onmousedown="handleZoom(evt,'out')"/>
                <use id="reset" xlink:href="#resetDef" x="30" y="36" onmousedown="handleReset()"/>
                <g id="arrowUp" xlink:href="#dirArrow" transform="translate(30 24)" onmousedown="handlePan(0,-1)">
                  <use xlink:href="#rim" fill="#404040">
                        <set attributeName="fill" to="#808080" begin="arrowUp.mouseover" end="arrowUp.mouseout"/>
                  </use>
                  <path fill="none" stroke="white" stroke-width="1.5" d="M0,-3.0v7 M-2.5,-0.5L0,-3.0L2.5,-0.5"/>
                </g>
                <g id="arrowRight" xlink:href="#dirArrow" transform="rotate(90) translate(36 -43)" onmousedown="handlePan(1,0)">
                  <use xlink:href="#rim" fill="#404040">
                        <set attributeName="fill" to="#808080" begin="arrowRight.mouseover" end="arrowRight.mouseout"/>
                  </use>
                  <path fill="none" stroke="white" stroke-width="1.5" d="M0,-3.0v7 M-2.5,-0.5L0,-3.0L2.5,-0.5"/>
                </g>
                <g id="arrowDown" xlink:href="#dirArrow" transform="rotate(180) translate(-30 -48)" onmousedown="handlePan(0,1)">
                  <use xlink:href="#rim" fill="#404040">
                        <set attributeName="fill" to="#808080" begin="arrowDown.mouseover" end="arrowDown.mouseout"/>
                  </use>
                  <path fill="none" stroke="white" stroke-width="1.5" d="M0,-3.0v7 M-2.5,-0.5L0,-3.0L2.5,-0.5"/>
                </g>
                <g id="arrowLeft" xlink:href="#dirArrow" transform="rotate(270) translate(-36 17)" onmousedown="handlePan(-1,0)">
                  <use xlink:href="#rim" fill="#404040">
                        <set attributeName="fill" to="#808080" begin="arrowLeft.mouseover" end="arrowLeft.mouseout"/>
                  </use>
                  <path fill="none" stroke="white" stroke-width="1.5" d="M0,-3.0v7 M-2.5,-0.5L0,-3.0L2.5,-0.5"/>
                </g>
        </g>
        <svg viewBox="0 0 15 15" width="100%" height="30px" preserveAspectRatio="xMaxYMin meet">
         <g id="arrow_out" transform="scale(0.3 0.3)">
          <a xlink:href="class_t_rail_graphics_a89a3e3a91129c4d02f4606478781b519_icgraph_org.svg" target="_base">
           <rect id="button" ry="5" rx="5" y="6" x="6" height="38" width="38"
                fill="#f2f5e9" fill-opacity="0.5" stroke="#606060" stroke-width="1.0"/>
           <path id="arrow"
             d="M 11.500037,31.436501 C 11.940474,20.09759 22.043105,11.32322 32.158766,21.979434 L 37.068811,17.246167 C 37.068811,17.246167 37.088388,32 37.088388,32 L 22.160133,31.978069 C 22.160133,31.978069 26.997745,27.140456 26.997745,27.140456 C 18.528582,18.264221 13.291696,25.230495 11.500037,31.436501 z"
             style="fill:#404040;"/>
          </a>
         </g>
        </svg>
</svg>
