<?xml version="1.0" encoding="UTF-8" standalone="no"?>
<!DOCTYPE svg PUBLIC "-//W3C//DTD SVG 1.1//EN"
 "http://www.w3.org/Graphics/SVG/1.1/DTD/svg11.dtd">
<!-- Generated by graphviz version 2.44.1 (20200629.0800)
 -->
<!-- Title: TTrainController::SendPerformanceSummary Pages: 1 -->
<svg width="703pt" height="206pt"
 viewBox="0.00 0.00 703.00 206.15" xmlns="http://www.w3.org/2000/svg" xmlns:xlink="http://www.w3.org/1999/xlink">
<g id="graph0" class="graph" transform="scale(1 1) rotate(0) translate(4 202.15)">
<title>TTrainController::SendPerformanceSummary</title>
<polygon fill="white" stroke="transparent" points="-4,4 -4,-202.15 699,-202.15 699,4 -4,4"/>
<!-- Node1 -->
<g id="node1" class="node">
<title>Node1</title>
<g id="a_node1"><a xlink:title="At the end of operation a summary of overall performance is sent to the performance file by this func...">
<polygon fill="#bfbfbf" stroke="black" points="0,-62.71 0,-92.71 167,-92.71 167,-62.71 0,-62.71"/>
<text text-anchor="start" x="8" y="-80.71" font-family="Helvetica,sans-Serif" font-size="10.00">TTrainController::SendPerformance</text>
<text text-anchor="middle" x="83.5" y="-69.71" font-family="Helvetica,sans-Serif" font-size="10.00">Summary</text>
</a>
</g>
</g>
<!-- Node2 -->
<g id="node2" class="node">
<title>Node2</title>
<g id="a_node2"><a xlink:href="class_t_train_controller.html#aadffada34a23350d7773bc7735e423a1" target="_top" xlink:title="calculates additional lateness values for trains that haven&#39;t reached their destinations yet">
<polygon fill="white" stroke="black" points="203,-76.71 203,-106.71 355,-106.71 355,-76.71 203,-76.71"/>
<text text-anchor="start" x="211" y="-94.71" font-family="Helvetica,sans-Serif" font-size="10.00">TTrainController::CalcOperating</text>
<text text-anchor="middle" x="279" y="-83.71" font-family="Helvetica,sans-Serif" font-size="10.00">AndNotStartedTrainLateness</text>
</a>
</g>
</g>
<!-- Node1&#45;&gt;Node2 -->
<g id="edge1" class="edge">
<title>Node1&#45;&gt;Node2</title>
<path fill="none" stroke="midnightblue" d="M167.12,-83.69C175.52,-84.3 184.06,-84.92 192.49,-85.53"/>
<polygon fill="midnightblue" stroke="midnightblue" points="192.47,-89.04 202.7,-86.27 192.98,-82.05 192.47,-89.04"/>
</g>
<!-- Node3 -->
<g id="node3" class="node">
<title>Node3</title>
<g id="a_node3"><a xlink:href="class_t_utilities.html#ae1eddca13cc3c492839e131f40ec21c0" target="_top" xlink:title="&lt; specifies whether no delays or minor, moderate or major random delays are to be applied">
<polygon fill="white" stroke="black" points="585,-107.21 585,-126.21 695,-126.21 695,-107.21 585,-107.21"/>
<text text-anchor="middle" x="640" y="-114.21" font-family="Helvetica,sans-Serif" font-size="10.00">TUtilities::CallLogPop</text>
</a>
</g>
</g>
<!-- Node1&#45;&gt;Node3 -->
<g id="edge11" class="edge">
<title>Node1&#45;&gt;Node3</title>
<path fill="none" stroke="midnightblue" d="M116.21,-92.8C170.82,-117.86 286.81,-167.05 391,-184.71 460.23,-196.45 482.42,-207.04 549,-184.71 578.84,-174.71 606.68,-150.47 623.27,-133.81"/>
<polygon fill="midnightblue" stroke="midnightblue" points="626.06,-135.96 630.48,-126.33 621.02,-131.11 626.06,-135.96"/>
</g>
<!-- Node5 -->
<g id="node5" class="node">
<title>Node5</title>
<g id="a_node5"><a xlink:href="class_t_utilities.html#a34bd6bb5305bc29afdf424f6d35a921c" target="_top" xlink:title="creates a string of the form &#39;hh:mm:ss&#39; for use in call &amp; event logging">
<polygon fill="white" stroke="black" points="585,-50.21 585,-69.21 695,-69.21 695,-50.21 585,-50.21"/>
<text text-anchor="middle" x="640" y="-57.21" font-family="Helvetica,sans-Serif" font-size="10.00">TUtilities::TimeStamp</text>
</a>
</g>
</g>
<!-- Node1&#45;&gt;Node5 -->
<g id="edge12" class="edge">
<title>Node1&#45;&gt;Node5</title>
<path fill="none" stroke="midnightblue" d="M122.93,-62.63C203.09,-33.29 393.6,25.42 549,-12.71 574.07,-18.87 599.92,-33.36 617.44,-44.64"/>
<polygon fill="midnightblue" stroke="midnightblue" points="615.53,-47.58 625.8,-50.19 619.4,-41.74 615.53,-47.58"/>
</g>
<!-- Node7 -->
<g id="node7" class="node">
<title>Node7</title>
<g id="a_node7"><a xlink:href="class_t_train_controller.html#aa09adf9c442406cccc270d6703867a1d" target="_top" xlink:title="Return a reference to the train at position VecPos in the TrainVector, carries out range checking on ...">
<polygon fill="white" stroke="black" points="395.5,-22.21 395.5,-41.21 544.5,-41.21 544.5,-22.21 395.5,-22.21"/>
<text text-anchor="middle" x="470" y="-29.21" font-family="Helvetica,sans-Serif" font-size="10.00">TTrainController::TrainVectorAt</text>
</a>
</g>
</g>
<!-- Node1&#45;&gt;Node7 -->
<g id="edge13" class="edge">
<title>Node1&#45;&gt;Node7</title>
<path fill="none" stroke="midnightblue" d="M167.46,-67.79C231.79,-60.09 320.58,-49.47 385.14,-41.75"/>
<polygon fill="midnightblue" stroke="midnightblue" points="385.77,-45.2 395.28,-40.53 384.94,-38.25 385.77,-45.2"/>
</g>
<!-- Node2&#45;&gt;Node3 -->
<g id="edge2" class="edge">
<title>Node2&#45;&gt;Node3</title>
<path fill="none" stroke="midnightblue" d="M296.09,-106.77C316.38,-124.63 353.22,-153.4 391,-164.71 458.27,-184.85 480.87,-181.75 549,-164.71 574.31,-158.39 600.29,-143.45 617.8,-131.9"/>
<polygon fill="midnightblue" stroke="midnightblue" points="619.82,-134.75 626.13,-126.24 615.89,-128.96 619.82,-134.75"/>
</g>
<!-- Node4 -->
<g id="node4" class="node">
<title>Node4</title>
<g id="a_node4"><a xlink:href="class_t_train_controller.html#a435ef46f062904e85ae9792faaecdcf7" target="_top" xlink:title="Return the repeating service time.">
<polygon fill="white" stroke="black" points="391,-98.21 391,-117.21 549,-117.21 549,-98.21 391,-98.21"/>
<text text-anchor="middle" x="470" y="-105.21" font-family="Helvetica,sans-Serif" font-size="10.00">TTrainController::GetRepeatTime</text>
</a>
</g>
</g>
<!-- Node2&#45;&gt;Node4 -->
<g id="edge3" class="edge">
<title>Node2&#45;&gt;Node4</title>
<path fill="none" stroke="midnightblue" d="M355.24,-98.08C363.68,-98.8 372.32,-99.53 380.9,-100.26"/>
<polygon fill="midnightblue" stroke="midnightblue" points="380.66,-103.75 390.92,-101.1 381.25,-96.77 380.66,-103.75"/>
</g>
<!-- Node2&#45;&gt;Node5 -->
<g id="edge7" class="edge">
<title>Node2&#45;&gt;Node5</title>
<path fill="none" stroke="midnightblue" d="M355.26,-85.01C420.31,-79.21 513.31,-70.92 574.88,-65.43"/>
<polygon fill="midnightblue" stroke="midnightblue" points="575.21,-68.91 584.86,-64.54 574.59,-61.94 575.21,-68.91"/>
</g>
<!-- Node6 -->
<g id="node6" class="node">
<title>Node6</title>
<g id="a_node6"><a xlink:href="class_t_train.html#a77e1368fb80820dd2c3350858c28ceab" target="_top" xlink:title=" ">
<polygon fill="white" stroke="black" points="398,-136.21 398,-155.21 542,-155.21 542,-136.21 398,-136.21"/>
<text text-anchor="middle" x="470" y="-143.21" font-family="Helvetica,sans-Serif" font-size="10.00">TTrain::RevisedStoppedAtLoc</text>
</a>
</g>
</g>
<!-- Node2&#45;&gt;Node6 -->
<g id="edge6" class="edge">
<title>Node2&#45;&gt;Node6</title>
<path fill="none" stroke="midnightblue" d="M325.43,-106.79C345.45,-113.24 369.3,-120.66 391,-126.71 399.58,-129.11 408.74,-131.49 417.66,-133.72"/>
<polygon fill="midnightblue" stroke="midnightblue" points="417.03,-137.17 427.58,-136.17 418.7,-130.38 417.03,-137.17"/>
</g>
<!-- Node2&#45;&gt;Node7 -->
<g id="edge8" class="edge">
<title>Node2&#45;&gt;Node7</title>
<path fill="none" stroke="midnightblue" d="M325.85,-76.67C345.84,-70.16 369.56,-62.49 391,-55.71 402.93,-51.95 415.9,-47.92 427.79,-44.27"/>
<polygon fill="midnightblue" stroke="midnightblue" points="428.93,-47.58 437.47,-41.3 426.88,-40.89 428.93,-47.58"/>
</g>
<!-- Node4&#45;&gt;Node3 -->
<g id="edge4" class="edge">
<title>Node4&#45;&gt;Node3</title>
<path fill="none" stroke="midnightblue" d="M549.1,-111.9C557.63,-112.35 566.24,-112.82 574.57,-113.26"/>
<polygon fill="midnightblue" stroke="midnightblue" points="574.41,-116.76 584.59,-113.8 574.79,-109.77 574.41,-116.76"/>
</g>
<!-- Node4&#45;&gt;Node5 -->
<g id="edge5" class="edge">
<title>Node4&#45;&gt;Node5</title>
<path fill="none" stroke="midnightblue" d="M504.59,-98.12C530.8,-90.63 567.41,-80.17 595.8,-72.06"/>
<polygon fill="midnightblue" stroke="midnightblue" points="596.81,-75.41 605.46,-69.3 594.89,-68.68 596.81,-75.41"/>
</g>
<!-- Node7&#45;&gt;Node3 -->
<g id="edge9" class="edge">
<title>Node7&#45;&gt;Node3</title>
<path fill="none" stroke="midnightblue" d="M489.95,-41.3C519.52,-56.26 576.8,-85.25 611.1,-102.6"/>
<polygon fill="midnightblue" stroke="midnightblue" points="609.62,-105.77 620.12,-107.16 612.78,-99.53 609.62,-105.77"/>
</g>
<!-- Node7&#45;&gt;Node5 -->
<g id="edge10" class="edge">
<title>Node7&#45;&gt;Node5</title>
<path fill="none" stroke="midnightblue" d="M528.35,-41.27C543.32,-43.77 559.55,-46.47 574.85,-49.02"/>
<polygon fill="midnightblue" stroke="midnightblue" points="574.31,-52.48 584.75,-50.67 575.46,-45.58 574.31,-52.48"/>
</g>
</g>
</svg>
