<?xml version="1.0" encoding="UTF-8" standalone="no"?>
<!DOCTYPE svg PUBLIC "-//W3C//DTD SVG 1.1//EN"
 "http://www.w3.org/Graphics/SVG/1.1/DTD/svg11.dtd">
<!-- Generated by graphviz version 2.44.1 (20200629.0800)
 -->
<!-- Title: TTrack::FindAndHighlightAnUnsetGap Pages: 1 -->
<svg width="605pt" height="163pt"
 viewBox="0.00 0.00 605.00 162.97" xmlns="http://www.w3.org/2000/svg" xmlns:xlink="http://www.w3.org/1999/xlink">
<g id="graph0" class="graph" transform="scale(1 1) rotate(0) translate(4 158.97)">
<title>TTrack::FindAndHighlightAnUnsetGap</title>
<polygon fill="white" stroke="transparent" points="-4,4 -4,-158.97 601,-158.97 601,4 -4,4"/>
<!-- Node1 -->
<g id="node1" class="node">
<title>Node1</title>
<g id="a_node1"><a xlink:title="True if there is an unset gap, and if so it is marked with a red circle, used during gap setting.">
<polygon fill="#bfbfbf" stroke="black" points="0,-62.97 0,-92.97 125,-92.97 125,-62.97 0,-62.97"/>
<text text-anchor="start" x="8" y="-80.97" font-family="Helvetica,sans-Serif" font-size="10.00">TTrack::FindAndHighlight</text>
<text text-anchor="middle" x="62.5" y="-69.97" font-family="Helvetica,sans-Serif" font-size="10.00">AnUnsetGap</text>
</a>
</g>
</g>
<!-- Node2 -->
<g id="node2" class="node">
<title>Node2</title>
<g id="a_node2"><a xlink:href="class_t_utilities.html#ae1eddca13cc3c492839e131f40ec21c0" target="_top" xlink:title="&lt; specifies whether no delays or minor, moderate or major random delays are to be applied">
<polygon fill="white" stroke="black" points="487,-135.47 487,-154.47 597,-154.47 597,-135.47 487,-135.47"/>
<text text-anchor="middle" x="542" y="-142.47" font-family="Helvetica,sans-Serif" font-size="10.00">TUtilities::CallLogPop</text>
</a>
</g>
</g>
<!-- Node1&#45;&gt;Node2 -->
<g id="edge1" class="edge">
<title>Node1&#45;&gt;Node2</title>
<path fill="none" stroke="midnightblue" d="M96.31,-93.04C114.95,-101.11 138.91,-110.65 161,-116.97 285.58,-152.61 321.43,-148.41 451,-146.97 459.31,-146.88 468.06,-146.74 476.69,-146.57"/>
<polygon fill="midnightblue" stroke="midnightblue" points="476.82,-150.07 486.75,-146.37 476.68,-143.07 476.82,-150.07"/>
</g>
<!-- Node3 -->
<g id="node3" class="node">
<title>Node3</title>
<g id="a_node3"><a xlink:href="class_t_track.html#a7fe1e2c641e38da6ab3fdbf20e529d2c" target="_top" xlink:title="Called during gap setting to mark a gap with a red circle &#45; after which the program awaits user selec...">
<polygon fill="white" stroke="black" points="161,-88.47 161,-107.47 293,-107.47 293,-88.47 161,-88.47"/>
<text text-anchor="middle" x="227" y="-95.47" font-family="Helvetica,sans-Serif" font-size="10.00">TTrack::ShowSelectedGap</text>
</a>
</g>
</g>
<!-- Node1&#45;&gt;Node3 -->
<g id="edge2" class="edge">
<title>Node1&#45;&gt;Node3</title>
<path fill="none" stroke="midnightblue" d="M125.4,-85.59C133.71,-86.61 142.32,-87.67 150.83,-88.72"/>
<polygon fill="midnightblue" stroke="midnightblue" points="150.41,-92.19 160.76,-89.94 151.26,-85.24 150.41,-92.19"/>
</g>
<!-- Node5 -->
<g id="node5" class="node">
<title>Node5</title>
<g id="a_node5"><a xlink:href="class_t_utilities.html#a34bd6bb5305bc29afdf424f6d35a921c" target="_top" xlink:title="creates a string of the form &#39;hh:mm:ss&#39; for use in call &amp; event logging">
<polygon fill="white" stroke="black" points="487,-40.47 487,-59.47 597,-59.47 597,-40.47 487,-40.47"/>
<text text-anchor="middle" x="542" y="-47.47" font-family="Helvetica,sans-Serif" font-size="10.00">TUtilities::TimeStamp</text>
</a>
</g>
</g>
<!-- Node1&#45;&gt;Node5 -->
<g id="edge9" class="edge">
<title>Node1&#45;&gt;Node5</title>
<path fill="none" stroke="midnightblue" d="M97.21,-62.84C115.72,-55.05 139.28,-45.94 161,-39.97 285.85,-5.63 324.09,13.73 451,-11.97 473.58,-16.54 497.54,-26.96 515.06,-35.74"/>
<polygon fill="midnightblue" stroke="midnightblue" points="513.58,-38.91 524.07,-40.39 516.79,-32.69 513.58,-38.91"/>
</g>
<!-- Node7 -->
<g id="node7" class="node">
<title>Node7</title>
<g id="a_node7"><a xlink:href="class_t_track.html#ad377e5a1f152f2e89832c0f9bcfd261f" target="_top" xlink:title="A range&#45;checked version of TrackVector.at(At)">
<polygon fill="white" stroke="black" points="329,-21.47 329,-40.47 451,-40.47 451,-21.47 329,-21.47"/>
<text text-anchor="middle" x="390" y="-28.47" font-family="Helvetica,sans-Serif" font-size="10.00">TTrack::TrackElementAt</text>
</a>
</g>
</g>
<!-- Node1&#45;&gt;Node7 -->
<g id="edge10" class="edge">
<title>Node1&#45;&gt;Node7</title>
<path fill="none" stroke="midnightblue" d="M125.11,-69.07C180.22,-61.12 260.98,-49.45 318.62,-41.13"/>
<polygon fill="midnightblue" stroke="midnightblue" points="319.35,-44.56 328.75,-39.67 318.35,-37.63 319.35,-44.56"/>
</g>
<!-- Node3&#45;&gt;Node2 -->
<g id="edge3" class="edge">
<title>Node3&#45;&gt;Node2</title>
<path fill="none" stroke="midnightblue" d="M257.28,-107.6C277.27,-113.8 304.47,-121.51 329,-125.97 378.04,-134.89 434.25,-139.68 476.47,-142.22"/>
<polygon fill="midnightblue" stroke="midnightblue" points="476.43,-145.73 486.61,-142.81 476.83,-138.74 476.43,-145.73"/>
</g>
<!-- Node4 -->
<g id="node4" class="node">
<title>Node4</title>
<g id="a_node4"><a xlink:href="class_t_display.html#ac97de4f74b0b295de941320578d6da28" target="_top" xlink:title="Plot an ellipse at the defined position and with the defined colour.">
<polygon fill="white" stroke="black" points="345.5,-97.47 345.5,-116.47 434.5,-116.47 434.5,-97.47 345.5,-97.47"/>
<text text-anchor="middle" x="390" y="-104.47" font-family="Helvetica,sans-Serif" font-size="10.00">TDisplay::Ellipse</text>
</a>
</g>
</g>
<!-- Node3&#45;&gt;Node4 -->
<g id="edge4" class="edge">
<title>Node3&#45;&gt;Node4</title>
<path fill="none" stroke="midnightblue" d="M293.02,-101.6C307.07,-102.39 321.77,-103.21 335.33,-103.97"/>
<polygon fill="midnightblue" stroke="midnightblue" points="335.26,-107.47 345.44,-104.53 335.65,-100.48 335.26,-107.47"/>
</g>
<!-- Node3&#45;&gt;Node5 -->
<g id="edge8" class="edge">
<title>Node3&#45;&gt;Node5</title>
<path fill="none" stroke="midnightblue" d="M290.21,-88.43C344.34,-80.13 422.46,-68.15 477.08,-59.77"/>
<polygon fill="midnightblue" stroke="midnightblue" points="477.64,-63.23 487,-58.25 476.58,-56.31 477.64,-63.23"/>
</g>
<!-- Node4&#45;&gt;Node2 -->
<g id="edge5" class="edge">
<title>Node4&#45;&gt;Node2</title>
<path fill="none" stroke="midnightblue" d="M428.85,-116.56C448.47,-121.53 472.62,-127.65 493.48,-132.93"/>
<polygon fill="midnightblue" stroke="midnightblue" points="492.87,-136.39 503.42,-135.45 494.59,-129.6 492.87,-136.39"/>
</g>
<!-- Node4&#45;&gt;Node5 -->
<g id="edge6" class="edge">
<title>Node4&#45;&gt;Node5</title>
<path fill="none" stroke="midnightblue" d="M416.11,-97.43C440.77,-88.06 478.6,-73.68 506.16,-63.21"/>
<polygon fill="midnightblue" stroke="midnightblue" points="507.71,-66.36 515.81,-59.54 505.22,-59.82 507.71,-66.36"/>
</g>
<!-- Node6 -->
<g id="node6" class="node">
<title>Node6</title>
<g id="a_node6"><a xlink:href="class_t_display.html#aa4f37ab2a4df6437a2219f303e1de40b" target="_top" xlink:title="Repaint the screen display.">
<polygon fill="white" stroke="black" points="496.5,-97.47 496.5,-116.47 587.5,-116.47 587.5,-97.47 496.5,-97.47"/>
<text text-anchor="middle" x="542" y="-104.47" font-family="Helvetica,sans-Serif" font-size="10.00">TDisplay::Update</text>
</a>
</g>
</g>
<!-- Node4&#45;&gt;Node6 -->
<g id="edge7" class="edge">
<title>Node4&#45;&gt;Node6</title>
<path fill="none" stroke="midnightblue" d="M434.79,-106.97C450.83,-106.97 469.19,-106.97 486.08,-106.97"/>
<polygon fill="midnightblue" stroke="midnightblue" points="486.38,-110.47 496.38,-106.97 486.38,-103.47 486.38,-110.47"/>
</g>
<!-- Node7&#45;&gt;Node2 -->
<g id="edge11" class="edge">
<title>Node7&#45;&gt;Node2</title>
<path fill="none" stroke="midnightblue" d="M401.35,-40.49C413.43,-51.68 433.94,-70.89 451,-87.97 467.44,-104.43 467.48,-113.31 487,-125.97 490.1,-127.98 493.44,-129.81 496.88,-131.46"/>
<polygon fill="midnightblue" stroke="midnightblue" points="495.58,-134.71 506.15,-135.45 498.35,-128.28 495.58,-134.71"/>
</g>
<!-- Node7&#45;&gt;Node5 -->
<g id="edge12" class="edge">
<title>Node7&#45;&gt;Node5</title>
<path fill="none" stroke="midnightblue" d="M451.15,-38.59C459.49,-39.64 468.09,-40.73 476.51,-41.8"/>
<polygon fill="midnightblue" stroke="midnightblue" points="476.3,-45.3 486.66,-43.09 477.18,-38.36 476.3,-45.3"/>
</g>
</g>
</svg>
