<?xml version="1.0" encoding="UTF-8" standalone="no"?>
<!DOCTYPE svg PUBLIC "-//W3C//DTD SVG 1.1//EN"
 "http://www.w3.org/Graphics/SVG/1.1/DTD/svg11.dtd">
<!-- Generated by graphviz version 2.44.1 (20200629.0800)
 -->
<!-- Title: TTrain::LogAction Pages: 1 -->
<!--zoomable 956 -->
<svg id="main" version="1.1" xmlns="http://www.w3.org/2000/svg" xmlns:xlink="http://www.w3.org/1999/xlink" xml:space="preserve" onload="init(evt)">
<style type="text/css"><![CDATA[
.edge:hover path { stroke: red; }
.edge:hover polygon { stroke: red; fill: red; }
]]></style>
<script type="text/javascript"><![CDATA[
var edges = document.getElementsByTagName('g');
if (edges && edges.length) {
  for (var i=0;i<edges.length;i++) {
    if (edges[i].id.substr(0,4)=='edge') {
      edges[i].setAttribute('class','edge');
    }
  }
}
]]></script>
        <defs>
                <circle id="rim" cx="0" cy="0" r="7"/>
                <circle id="rim2" cx="0" cy="0" r="3.5"/>
                <g id="zoomPlus">
                        <use xlink:href="#rim" fill="#404040">
                                <set attributeName="fill" to="#808080" begin="zoomplus.mouseover" end="zoomplus.mouseout"/>
                        </use>
                        <path d="M-4,0h8M0,-4v8" fill="none" stroke="white" stroke-width="1.5" pointer-events="none"/>
                </g>
                <g id="zoomMin">
                        <use xlink:href="#rim" fill="#404040">
                                <set attributeName="fill" to="#808080" begin="zoomminus.mouseover" end="zoomminus.mouseout"/>
                        </use>
                        <path d="M-4,0h8" fill="none" stroke="white" stroke-width="1.5" pointer-events="none"/>
                </g>
                <g id="dirArrow">
                        <path fill="none" stroke="white" stroke-width="1.5" d="M0,-3.0v7 M-2.5,-0.5L0,-3.0L2.5,-0.5"/>
                </g>
               <g id="resetDef">
                       <use xlink:href="#rim2" fill="#404040">
                               <set attributeName="fill" to="#808080" begin="reset.mouseover" end="reset.mouseout"/>
                       </use>
               </g>
        </defs>

<script type="text/javascript">
var viewWidth = 1172;
var viewHeight = 956;
var sectionId = 'dynsection-55';
</script>
<script xlink:href="svgpan.js"/>
<svg id="graph" class="graph">
<g id="viewport">
<title>TTrain::LogAction</title>
<polygon fill="white" stroke="transparent" points="-4,4 -4,-951.99 1168,-951.99 1168,4 -4,4"/>
<!-- Node1 -->
<g id="node1" class="node">
<title>Node1</title>
<g id="a_node1"><a xlink:title="Send a message to the performance log and performance file, and if the message is flagged as a warnin...">
<polygon fill="#bfbfbf" stroke="black" points="1072,-481.95 1072,-500.95 1164,-500.95 1164,-481.95 1072,-481.95"/>
<text text-anchor="middle" x="1118" y="-488.95" font-family="Helvetica,sans-Serif" font-size="10.00">TTrain::LogAction</text>
</a>
</g>
</g>
<!-- Node2 -->
<g id="node2" class="node">
<title>Node2</title>
<g id="a_node2"><a xlink:href="class_t_train_controller.html#aa895b60238810a9d134cd5b9c886da56" target="_top" xlink:title="Introduce a new train to the railway, with the characteristics specified, returns true for success,...">
<polygon fill="white" stroke="black" points="900,-279.95 900,-298.95 1028,-298.95 1028,-279.95 900,-279.95"/>
<text text-anchor="middle" x="964" y="-286.95" font-family="Helvetica,sans-Serif" font-size="10.00">TTrainController::AddTrain</text>
</a>
</g>
</g>
<!-- Node1&#45;&gt;Node2 -->
<g id="edge1" class="edge">
<title>Node1&#45;&gt;Node2</title>
<path fill="none" stroke="midnightblue" d="M1113.43,-471.9C1105.77,-435.53 1084.4,-357.18 1036,-313.45 1029.05,-307.17 1020.39,-302.52 1011.54,-299.08"/>
<polygon fill="midnightblue" stroke="midnightblue" points="1110,-472.63 1115.38,-481.76 1116.87,-471.27 1110,-472.63"/>
</g>
<!-- Node3 -->
<g id="node3" class="node">
<title>Node3</title>
<g id="a_node3"><a xlink:href="class_t_train.html#ad666fb061d1da7c44a72ec963c2098aa" target="_top" xlink:title="Carry out the actions needed when a train is to split from the front.">
<polygon fill="white" stroke="black" points="713,-503.95 713,-522.95 825,-522.95 825,-503.95 713,-503.95"/>
<text text-anchor="middle" x="769" y="-510.95" font-family="Helvetica,sans-Serif" font-size="10.00">TTrain::FrontTrainSplit</text>
</a>
</g>
</g>
<!-- Node1&#45;&gt;Node3 -->
<g id="edge15" class="edge">
<title>Node1&#45;&gt;Node3</title>
<path fill="none" stroke="midnightblue" d="M1061.97,-494.94C997.15,-499.05 890.13,-505.83 825.23,-509.94"/>
<polygon fill="midnightblue" stroke="midnightblue" points="1062.23,-498.43 1071.99,-494.3 1061.79,-491.44 1062.23,-498.43"/>
</g>
<!-- Node4 -->
<g id="node4" class="node">
<title>Node4</title>
<g id="a_node4"><a xlink:href="class_t_train.html#a89ad640ecf8f5163c40727b4e28575fc" target="_top" xlink:title="Major function called at each clock tick for each train &amp; handles all train movement &amp; associated act...">
<polygon fill="white" stroke="black" points="520,-642.95 520,-661.95 621,-661.95 621,-642.95 520,-642.95"/>
<text text-anchor="middle" x="570.5" y="-649.95" font-family="Helvetica,sans-Serif" font-size="10.00">TTrain::UpdateTrain</text>
</a>
</g>
</g>
<!-- Node1&#45;&gt;Node4 -->
<g id="edge43" class="edge">
<title>Node1&#45;&gt;Node4</title>
<path fill="none" stroke="midnightblue" d="M1111.2,-510.64C1101.19,-540.07 1077.63,-595.53 1036,-620.45 1001.11,-641.34 734.01,-649.16 621.36,-651.55"/>
<polygon fill="midnightblue" stroke="midnightblue" points="1114.55,-511.68 1114.29,-501.09 1107.89,-509.53 1114.55,-511.68"/>
</g>
<!-- Node5 -->
<g id="node5" class="node">
<title>Node5</title>
<g id="a_node5"><a xlink:href="class_t_train_controller.html#a20a1576dea1d86ed78fc5e9f46343481" target="_top" xlink:title="called every clock tick to introduce new trains and update existing trains">
<polygon fill="white" stroke="black" points="334,-642.95 334,-661.95 459,-661.95 459,-642.95 334,-642.95"/>
<text text-anchor="middle" x="396.5" y="-649.95" font-family="Helvetica,sans-Serif" font-size="10.00">TTrainController::Operate</text>
</a>
</g>
</g>
<!-- Node1&#45;&gt;Node5 -->
<g id="edge25" class="edge">
<title>Node1&#45;&gt;Node5</title>
<path fill="none" stroke="midnightblue" d="M1115.54,-511.2C1109.94,-581.66 1087.48,-819.24 1036,-871.45 924.79,-984.22 836.19,-948.67 682,-912.45 591.64,-891.22 562.79,-882.85 495,-819.45 443.51,-771.29 410.89,-689.76 400.83,-662.02"/>
<polygon fill="midnightblue" stroke="midnightblue" points="1119.05,-511.29 1116.32,-501.05 1112.07,-510.75 1119.05,-511.29"/>
</g>
<!-- Node8 -->
<g id="node8" class="node">
<title>Node8</title>
<g id="a_node8"><a xlink:href="class_t_train.html#ad64c5823265b0c611c2e5f0613317aa5" target="_top" xlink:title="Carry out the actions needed when a train is to split from the rear.">
<polygon fill="white" stroke="black" points="714,-317.95 714,-336.95 824,-336.95 824,-317.95 714,-317.95"/>
<text text-anchor="middle" x="769" y="-324.95" font-family="Helvetica,sans-Serif" font-size="10.00">TTrain::RearTrainSplit</text>
</a>
</g>
</g>
<!-- Node1&#45;&gt;Node8 -->
<g id="edge27" class="edge">
<title>Node1&#45;&gt;Node8</title>
<path fill="none" stroke="midnightblue" d="M1112.43,-471.81C1103.74,-439.38 1081.49,-375.37 1036,-346.45 970.17,-304.59 875.76,-309.6 818.91,-317.92"/>
<polygon fill="midnightblue" stroke="midnightblue" points="1109.12,-473 1114.95,-481.85 1115.91,-471.3 1109.12,-473"/>
</g>
<!-- Node9 -->
<g id="node9" class="node">
<title>Node9</title>
<g id="a_node9"><a xlink:href="class_t_interface.html#aaaf32c3c815553f7ba70698e0f0071bb" target="_top" xlink:title=" ">
<polygon fill="white" stroke="black" points="896,-706.45 896,-736.45 1032,-736.45 1032,-706.45 896,-706.45"/>
<text text-anchor="start" x="904" y="-724.45" font-family="Helvetica,sans-Serif" font-size="10.00">TInterface::ChangeDirection</text>
<text text-anchor="middle" x="964" y="-713.45" font-family="Helvetica,sans-Serif" font-size="10.00">MenuItemClick</text>
</a>
</g>
</g>
<!-- Node1&#45;&gt;Node9 -->
<g id="edge10" class="edge">
<title>Node1&#45;&gt;Node9</title>
<path fill="none" stroke="midnightblue" d="M1114.15,-511.12C1107.47,-550.43 1087.32,-639.36 1036,-691.45 1029.99,-697.55 1022.55,-702.47 1014.76,-706.43"/>
<polygon fill="midnightblue" stroke="midnightblue" points="1117.61,-511.64 1115.72,-501.22 1110.69,-510.55 1117.61,-511.64"/>
</g>
<!-- Node10 -->
<g id="node10" class="node">
<title>Node10</title>
<g id="a_node10"><a xlink:href="class_t_train.html#aaac04c1b5e358a69e1930bae9ca6f429" target="_top" xlink:title="Reverses the direction of motion of the train.">
<polygon fill="white" stroke="black" points="893.5,-755.95 893.5,-774.95 1034.5,-774.95 1034.5,-755.95 893.5,-755.95"/>
<text text-anchor="middle" x="964" y="-762.95" font-family="Helvetica,sans-Serif" font-size="10.00">TTrain::ChangeTrainDirection</text>
</a>
</g>
</g>
<!-- Node1&#45;&gt;Node10 -->
<g id="edge11" class="edge">
<title>Node1&#45;&gt;Node10</title>
<path fill="none" stroke="midnightblue" d="M1116.8,-511.17C1115.2,-558.85 1104.28,-681.25 1036,-746.45 1031.94,-750.32 1027.18,-753.43 1022.07,-755.92"/>
<polygon fill="midnightblue" stroke="midnightblue" points="1120.3,-511.05 1117.03,-500.97 1113.3,-510.89 1120.3,-511.05"/>
</g>
<!-- Node13 -->
<g id="node13" class="node">
<title>Node13</title>
<g id="a_node13"><a xlink:href="class_t_train.html#a6c3479378d35f9041c38d80f03686b41" target="_top" xlink:title="Carry out the actions needed when a train is waiting to be joined by another train.">
<polygon fill="white" stroke="black" points="724.5,-118.95 724.5,-137.95 813.5,-137.95 813.5,-118.95 724.5,-118.95"/>
<text text-anchor="middle" x="769" y="-125.95" font-family="Helvetica,sans-Serif" font-size="10.00">TTrain::JoinedBy</text>
</a>
</g>
</g>
<!-- Node1&#45;&gt;Node13 -->
<g id="edge16" class="edge">
<title>Node1&#45;&gt;Node13</title>
<path fill="none" stroke="midnightblue" d="M1116.78,-471.6C1115.44,-390.15 1105.76,-83.15 1036,-24.45 987.03,16.76 952.05,-2.32 892,-24.45 839.51,-43.78 794.23,-96.87 777.21,-118.79"/>
<polygon fill="midnightblue" stroke="midnightblue" points="1113.29,-471.97 1116.93,-481.92 1120.29,-471.87 1113.29,-471.97"/>
</g>
<!-- Node14 -->
<g id="node14" class="node">
<title>Node14</title>
<g id="a_node14"><a xlink:href="class_t_interface.html#a50478cade5cae721121f5902528987a7" target="_top" xlink:title=" ">
<polygon fill="white" stroke="black" points="900.5,-580.45 900.5,-610.45 1027.5,-610.45 1027.5,-580.45 900.5,-580.45"/>
<text text-anchor="start" x="908.5" y="-598.45" font-family="Helvetica,sans-Serif" font-size="10.00">TInterface::MoveForwards</text>
<text text-anchor="middle" x="964" y="-587.45" font-family="Helvetica,sans-Serif" font-size="10.00">MenuItemClick</text>
</a>
</g>
</g>
<!-- Node1&#45;&gt;Node14 -->
<g id="edge18" class="edge">
<title>Node1&#45;&gt;Node14</title>
<path fill="none" stroke="midnightblue" d="M1101.23,-508.94C1085.84,-525.23 1061.13,-549.34 1036,-565.45 1027.1,-571.15 1016.93,-576.19 1007.13,-580.44"/>
<polygon fill="midnightblue" stroke="midnightblue" points="1104.15,-510.94 1108.38,-501.23 1099.02,-506.18 1104.15,-510.94"/>
</g>
<!-- Node15 -->
<g id="node15" class="node">
<title>Node15</title>
<g id="a_node15"><a xlink:href="class_t_train.html#a2bde9b347632a790874abfee29758d32" target="_top" xlink:title="Carry out the actions needed when a new shuttle service is created from a non&#45;repeating (F&#45;nshs) serv...">
<polygon fill="white" stroke="black" points="700,-872.45 700,-902.45 838,-902.45 838,-872.45 700,-872.45"/>
<text text-anchor="start" x="708" y="-890.45" font-family="Helvetica,sans-Serif" font-size="10.00">TTrain::NewShuttleFromNon</text>
<text text-anchor="middle" x="769" y="-879.45" font-family="Helvetica,sans-Serif" font-size="10.00">RepeatService</text>
</a>
</g>
</g>
<!-- Node1&#45;&gt;Node15 -->
<g id="edge19" class="edge">
<title>Node1&#45;&gt;Node15</title>
<path fill="none" stroke="midnightblue" d="M1115.01,-511.11C1108,-576.34 1082.36,-784.03 1036,-829.45 984,-880.39 898.31,-891.03 838.27,-891.42"/>
<polygon fill="midnightblue" stroke="midnightblue" points="1118.51,-511.28 1116.07,-500.96 1111.55,-510.55 1118.51,-511.28"/>
</g>
<!-- Node16 -->
<g id="node16" class="node">
<title>Node16</title>
<g id="a_node16"><a xlink:href="class_t_train.html#a68bda28987bb7b9d7e52b35abb2399de" target="_top" xlink:title="Carry out the actions needed when a train forms a new service (code Fns)">
<polygon fill="white" stroke="black" points="709,-746.95 709,-765.95 829,-765.95 829,-746.95 709,-746.95"/>
<text text-anchor="middle" x="769" y="-753.95" font-family="Helvetica,sans-Serif" font-size="10.00">TTrain::NewTrainService</text>
</a>
</g>
</g>
<!-- Node1&#45;&gt;Node16 -->
<g id="edge22" class="edge">
<title>Node1&#45;&gt;Node16</title>
<path fill="none" stroke="midnightblue" d="M1114.62,-511.17C1106.93,-571.33 1080.58,-750.52 1036,-784.45 972.26,-832.96 933.97,-793.8 856,-775.45 842.46,-772.26 827.67,-768.94 814.25,-765.98"/>
<polygon fill="midnightblue" stroke="midnightblue" points="1118.12,-511.44 1115.88,-501.09 1111.17,-510.58 1118.12,-511.44"/>
</g>
<!-- Node17 -->
<g id="node17" class="node">
<title>Node17</title>
<g id="a_node17"><a xlink:href="class_t_interface.html#ad7aaed58c91a9ad9598e17fa615024da" target="_top" xlink:title=" ">
<polygon fill="white" stroke="black" points="898.5,-454.45 898.5,-484.45 1029.5,-484.45 1029.5,-454.45 898.5,-454.45"/>
<text text-anchor="start" x="906.5" y="-472.45" font-family="Helvetica,sans-Serif" font-size="10.00">TInterface::PassRedSignal</text>
<text text-anchor="middle" x="964" y="-461.45" font-family="Helvetica,sans-Serif" font-size="10.00">MenuItemClick</text>
</a>
</g>
</g>
<!-- Node1&#45;&gt;Node17 -->
<g id="edge26" class="edge">
<title>Node1&#45;&gt;Node17</title>
<path fill="none" stroke="midnightblue" d="M1061.65,-483.44C1051.27,-481.93 1040.34,-480.35 1029.71,-478.81"/>
<polygon fill="midnightblue" stroke="midnightblue" points="1061.41,-486.94 1071.81,-484.91 1062.41,-480.01 1061.41,-486.94"/>
</g>
<!-- Node18 -->
<g id="node18" class="node">
<title>Node18</title>
<g id="a_node18"><a xlink:href="class_t_interface.html#a921ff57bd9af8acdd79a7c99d4839218" target="_top" xlink:title=" ">
<polygon fill="white" stroke="black" points="892,-405.45 892,-435.45 1036,-435.45 1036,-405.45 892,-405.45"/>
<text text-anchor="start" x="900" y="-423.45" font-family="Helvetica,sans-Serif" font-size="10.00">TInterface::RemoveTrainMenu</text>
<text text-anchor="middle" x="964" y="-412.45" font-family="Helvetica,sans-Serif" font-size="10.00">ItemClick</text>
</a>
</g>
</g>
<!-- Node1&#45;&gt;Node18 -->
<g id="edge28" class="edge">
<title>Node1&#45;&gt;Node18</title>
<path fill="none" stroke="midnightblue" d="M1093.95,-476.41C1078.09,-466.48 1056.3,-453.65 1036,-444.45 1029.01,-441.28 1021.47,-438.29 1014,-435.58"/>
<polygon fill="midnightblue" stroke="midnightblue" points="1092.23,-479.46 1102.54,-481.87 1095.98,-473.55 1092.23,-479.46"/>
</g>
<!-- Node19 -->
<g id="node19" class="node">
<title>Node19</title>
<g id="a_node19"><a xlink:href="class_t_interface.html#ad3ddf42d51934815002002a770df766a" target="_top" xlink:title=" ">
<polygon fill="white" stroke="black" points="904.5,-356.45 904.5,-386.45 1023.5,-386.45 1023.5,-356.45 904.5,-356.45"/>
<text text-anchor="start" x="912.5" y="-374.45" font-family="Helvetica,sans-Serif" font-size="10.00">TInterface::RepairFailed</text>
<text text-anchor="middle" x="964" y="-363.45" font-family="Helvetica,sans-Serif" font-size="10.00">TrainMenuItemClick</text>
</a>
</g>
</g>
<!-- Node1&#45;&gt;Node19 -->
<g id="edge29" class="edge">
<title>Node1&#45;&gt;Node19</title>
<path fill="none" stroke="midnightblue" d="M1106.06,-473.24C1092.26,-451.75 1066.61,-416.3 1036,-395.45 1031.05,-392.08 1025.59,-389.14 1019.96,-386.6"/>
<polygon fill="midnightblue" stroke="midnightblue" points="1103.12,-475.14 1111.38,-481.77 1109.06,-471.43 1103.12,-475.14"/>
</g>
<!-- Node20 -->
<g id="node20" class="node">
<title>Node20</title>
<g id="a_node20"><a xlink:href="class_t_train.html#a648f31ead801d51160c024f1ead459c8" target="_top" xlink:title="Carry out the actions needed to create either a new shuttle service or (if all repeats have finished)...">
<polygon fill="white" stroke="black" points="699,-659.45 699,-689.45 839,-689.45 839,-659.45 699,-659.45"/>
<text text-anchor="start" x="707" y="-677.45" font-family="Helvetica,sans-Serif" font-size="10.00">TTrain::RepeatShuttleOrNew</text>
<text text-anchor="middle" x="769" y="-666.45" font-family="Helvetica,sans-Serif" font-size="10.00">NonRepeatService</text>
</a>
</g>
</g>
<!-- Node1&#45;&gt;Node20 -->
<g id="edge30" class="edge">
<title>Node1&#45;&gt;Node20</title>
<path fill="none" stroke="midnightblue" d="M1113.55,-511.32C1106.25,-546.69 1085.65,-619.99 1036,-653.45 978.28,-692.34 896.68,-692.81 839.12,-686.57"/>
<polygon fill="midnightblue" stroke="midnightblue" points="1117.03,-511.75 1115.47,-501.27 1110.16,-510.43 1117.03,-511.75"/>
</g>
<!-- Node21 -->
<g id="node21" class="node">
<title>Node21</title>
<g id="a_node21"><a xlink:href="class_t_train.html#a1f4b4616c1167ff2ef83b2df48545c6b" target="_top" xlink:title="Carry out the actions needed to create either a new shuttle service or (if all repeats have finished)...">
<polygon fill="white" stroke="black" points="682,-784.95 682,-803.95 856,-803.95 856,-784.95 682,-784.95"/>
<text text-anchor="middle" x="769" y="-791.95" font-family="Helvetica,sans-Serif" font-size="10.00">TTrain::RepeatShuttleOrRemainHere</text>
</a>
</g>
</g>
<!-- Node1&#45;&gt;Node21 -->
<g id="edge33" class="edge">
<title>Node1&#45;&gt;Node21</title>
<path fill="none" stroke="midnightblue" d="M1115.03,-511.57C1108.33,-575.51 1084.06,-772.09 1036,-809.45 1002.77,-835.28 882.34,-816.8 815.5,-803.96"/>
<polygon fill="midnightblue" stroke="midnightblue" points="1118.55,-511.54 1116.08,-501.24 1111.59,-510.83 1118.55,-511.54"/>
</g>
<!-- Node22 -->
<g id="node22" class="node">
<title>Node22</title>
<g id="a_node22"><a xlink:href="class_t_interface.html#a2313bac2c5c5ac3f8b91c46166e35b97" target="_top" xlink:title=" ">
<polygon fill="white" stroke="black" points="897.5,-230.45 897.5,-260.45 1030.5,-260.45 1030.5,-230.45 897.5,-230.45"/>
<text text-anchor="start" x="905.5" y="-248.45" font-family="Helvetica,sans-Serif" font-size="10.00">TInterface::SignallerControl</text>
<text text-anchor="middle" x="964" y="-237.45" font-family="Helvetica,sans-Serif" font-size="10.00">StopMenuItemClick</text>
</a>
</g>
</g>
<!-- Node1&#45;&gt;Node22 -->
<g id="edge36" class="edge">
<title>Node1&#45;&gt;Node22</title>
<path fill="none" stroke="midnightblue" d="M1115.3,-471.49C1110.59,-428.7 1093.66,-327.37 1036,-270.45 1032.09,-266.59 1027.56,-263.33 1022.71,-260.56"/>
<polygon fill="midnightblue" stroke="midnightblue" points="1111.82,-471.88 1116.29,-481.49 1118.78,-471.19 1111.82,-471.88"/>
</g>
<!-- Node23 -->
<g id="node23" class="node">
<title>Node23</title>
<g id="a_node23"><a xlink:href="class_t_interface.html#ad493289c9c9aa2e4d4e39329e80cc47c" target="_top" xlink:title=" ">
<polygon fill="white" stroke="black" points="899,-181.45 899,-211.45 1029,-211.45 1029,-181.45 899,-181.45"/>
<text text-anchor="start" x="907" y="-199.45" font-family="Helvetica,sans-Serif" font-size="10.00">TInterface::SignallerJoined</text>
<text text-anchor="middle" x="964" y="-188.45" font-family="Helvetica,sans-Serif" font-size="10.00">ByMenuItemClick</text>
</a>
</g>
</g>
<!-- Node1&#45;&gt;Node23 -->
<g id="edge37" class="edge">
<title>Node1&#45;&gt;Node23</title>
<path fill="none" stroke="midnightblue" d="M1116.94,-471.47C1115.71,-421.99 1105.61,-292.58 1036,-220.45 1032.66,-216.98 1028.8,-214.02 1024.64,-211.48"/>
<polygon fill="midnightblue" stroke="midnightblue" points="1113.45,-471.81 1117.1,-481.75 1120.45,-471.7 1113.45,-471.81"/>
</g>
<!-- Node24 -->
<g id="node24" class="node">
<title>Node24</title>
<g id="a_node24"><a xlink:href="class_t_interface.html#a0cc484aa9bc0445312ef9191d8212f14" target="_top" xlink:title=" ">
<polygon fill="white" stroke="black" points="892.5,-132.45 892.5,-162.45 1035.5,-162.45 1035.5,-132.45 892.5,-132.45"/>
<text text-anchor="start" x="900.5" y="-150.45" font-family="Helvetica,sans-Serif" font-size="10.00">TInterface::StepForwardMenu</text>
<text text-anchor="middle" x="964" y="-139.45" font-family="Helvetica,sans-Serif" font-size="10.00">ItemClick</text>
</a>
</g>
</g>
<!-- Node1&#45;&gt;Node24 -->
<g id="edge38" class="edge">
<title>Node1&#45;&gt;Node24</title>
<path fill="none" stroke="midnightblue" d="M1114.5,-471.81C1106.18,-409.29 1077.58,-216.4 1036,-171.45 1032.82,-168.01 1029.13,-165.06 1025.14,-162.54"/>
<polygon fill="midnightblue" stroke="midnightblue" points="1111.05,-472.43 1115.82,-481.9 1117.99,-471.53 1111.05,-472.43"/>
</g>
<!-- Node25 -->
<g id="node25" class="node">
<title>Node25</title>
<g id="a_node25"><a xlink:href="class_t_interface.html#ab5b80c76a8cc8d2c87f21d323f61c1ce" target="_top" xlink:title=" ">
<polygon fill="white" stroke="black" points="902.5,-83.45 902.5,-113.45 1025.5,-113.45 1025.5,-83.45 902.5,-83.45"/>
<text text-anchor="start" x="910.5" y="-101.45" font-family="Helvetica,sans-Serif" font-size="10.00">TInterface::TakeSignaller</text>
<text text-anchor="middle" x="964" y="-90.45" font-family="Helvetica,sans-Serif" font-size="10.00">ControlMenuItemClick</text>
</a>
</g>
</g>
<!-- Node1&#45;&gt;Node25 -->
<g id="edge39" class="edge">
<title>Node1&#45;&gt;Node25</title>
<path fill="none" stroke="midnightblue" d="M1115.19,-471.56C1108.55,-402.63 1083.37,-175.33 1036,-122.45 1032.96,-119.05 1029.43,-116.14 1025.59,-113.64"/>
<polygon fill="midnightblue" stroke="midnightblue" points="1111.74,-472.24 1116.16,-481.87 1118.71,-471.58 1111.74,-472.24"/>
</g>
<!-- Node26 -->
<g id="node26" class="node">
<title>Node26</title>
<g id="a_node26"><a xlink:href="class_t_interface.html#aec12f0e481024f1268fad36e7188b7a4" target="_top" xlink:title=" ">
<polygon fill="white" stroke="black" points="895.5,-34.45 895.5,-64.45 1032.5,-64.45 1032.5,-34.45 895.5,-34.45"/>
<text text-anchor="start" x="903.5" y="-52.45" font-family="Helvetica,sans-Serif" font-size="10.00">TInterface::TimetableControl</text>
<text text-anchor="middle" x="964" y="-41.45" font-family="Helvetica,sans-Serif" font-size="10.00">MenuItemClick</text>
</a>
</g>
</g>
<!-- Node1&#45;&gt;Node26 -->
<g id="edge40" class="edge">
<title>Node1&#45;&gt;Node26</title>
<path fill="none" stroke="midnightblue" d="M1115.74,-471.39C1110.63,-396.48 1089.21,-134.34 1036,-73.45 1033,-70.02 1029.5,-67.08 1025.68,-64.56"/>
<polygon fill="midnightblue" stroke="midnightblue" points="1112.27,-471.99 1116.42,-481.74 1119.25,-471.53 1112.27,-471.99"/>
</g>
<!-- Node27 -->
<g id="node27" class="node">
<title>Node27</title>
<g id="a_node27"><a xlink:href="class_t_train.html#a84204e3d8492e73d1eebf0707c49f620" target="_top" xlink:title="Called when there is a random train failure.">
<polygon fill="white" stroke="black" points="712.5,-561.95 712.5,-580.95 825.5,-580.95 825.5,-561.95 712.5,-561.95"/>
<text text-anchor="middle" x="769" y="-568.95" font-family="Helvetica,sans-Serif" font-size="10.00">TTrain::TrainHasFailed</text>
</a>
</g>
</g>
<!-- Node1&#45;&gt;Node27 -->
<g id="edge41" class="edge">
<title>Node1&#45;&gt;Node27</title>
<path fill="none" stroke="midnightblue" d="M1077.14,-503.95C1064.09,-507.86 1049.48,-512.04 1036,-515.45 961.88,-534.2 875.05,-551.64 821.28,-561.92"/>
<polygon fill="midnightblue" stroke="midnightblue" points="1078.22,-507.28 1086.77,-501.03 1076.19,-500.58 1078.22,-507.28"/>
</g>
<!-- Node2&#45;&gt;Node3 -->
<g id="edge2" class="edge">
<title>Node2&#45;&gt;Node3</title>
<path fill="none" stroke="midnightblue" d="M940.55,-305.08C925.91,-315.83 906.83,-330.92 892,-346.45 840.41,-400.44 792.11,-476.94 775.82,-503.73"/>
<polygon fill="midnightblue" stroke="midnightblue" points="942.95,-307.66 949.02,-298.98 938.86,-301.98 942.95,-307.66"/>
</g>
<!-- Node2&#45;&gt;Node5 -->
<g id="edge7" class="edge">
<title>Node2&#45;&gt;Node5</title>
<path fill="none" stroke="midnightblue" d="M889.76,-279.13C830.46,-274.24 746.48,-275.4 682,-308.45 526.13,-388.34 423.74,-595.27 401.88,-642.67"/>
<polygon fill="midnightblue" stroke="midnightblue" points="889.52,-282.62 899.8,-280.04 890.15,-275.65 889.52,-282.62"/>
</g>
<!-- Node2&#45;&gt;Node8 -->
<g id="edge8" class="edge">
<title>Node2&#45;&gt;Node8</title>
<path fill="none" stroke="midnightblue" d="M904.4,-300.98C876.87,-306.4 844.45,-312.79 818.35,-317.93"/>
<polygon fill="midnightblue" stroke="midnightblue" points="905.16,-304.4 914.3,-299.04 903.81,-297.53 905.16,-304.4"/>
</g>
<!-- Node3&#45;&gt;Node4 -->
<g id="edge3" class="edge">
<title>Node3&#45;&gt;Node4</title>
<path fill="none" stroke="midnightblue" d="M731.82,-526.91C715.94,-533.55 697.44,-542.32 682,-552.45 639.82,-580.12 597.78,-623.66 580.15,-642.83"/>
<polygon fill="midnightblue" stroke="midnightblue" points="733.36,-530.06 741.31,-523.06 730.73,-523.58 733.36,-530.06"/>
</g>
<!-- Node4&#45;&gt;Node5 -->
<g id="edge4" class="edge">
<title>Node4&#45;&gt;Node5</title>
<path fill="none" stroke="midnightblue" d="M509.75,-652.45C493.35,-652.45 475.55,-652.45 459.06,-652.45"/>
<polygon fill="midnightblue" stroke="midnightblue" points="509.75,-655.95 519.75,-652.45 509.75,-648.95 509.75,-655.95"/>
</g>
<!-- Node6 -->
<g id="node6" class="node">
<title>Node6</title>
<g id="a_node6"><a xlink:href="class_t_interface.html#a6139ffb52492eb89e5487a8a3cd647b5" target="_top" xlink:title="The main loop, called every clock tick via MasterClockTimer.">
<polygon fill="white" stroke="black" points="179,-642.95 179,-661.95 298,-661.95 298,-642.95 179,-642.95"/>
<text text-anchor="middle" x="238.5" y="-649.95" font-family="Helvetica,sans-Serif" font-size="10.00">TInterface::ClockTimer2</text>
</a>
</g>
</g>
<!-- Node5&#45;&gt;Node6 -->
<g id="edge5" class="edge">
<title>Node5&#45;&gt;Node6</title>
<path fill="none" stroke="midnightblue" d="M323.83,-652.45C315.24,-652.45 306.54,-652.45 298.16,-652.45"/>
<polygon fill="midnightblue" stroke="midnightblue" points="323.84,-655.95 333.84,-652.45 323.84,-648.95 323.84,-655.95"/>
</g>
<!-- Node7 -->
<g id="node7" class="node">
<title>Node7</title>
<g id="a_node7"><a xlink:href="class_t_interface.html#ace30a12d923fc7fb489afabb0a09aa4f" target="_top" xlink:title=" ">
<polygon fill="white" stroke="black" points="0,-642.95 0,-661.95 143,-661.95 143,-642.95 0,-642.95"/>
<text text-anchor="middle" x="71.5" y="-649.95" font-family="Helvetica,sans-Serif" font-size="10.00">TInterface::MasterClockTimer</text>
</a>
</g>
</g>
<!-- Node6&#45;&gt;Node7 -->
<g id="edge6" class="edge">
<title>Node6&#45;&gt;Node7</title>
<path fill="none" stroke="midnightblue" d="M168.67,-652.45C160.22,-652.45 151.57,-652.45 143.09,-652.45"/>
<polygon fill="midnightblue" stroke="midnightblue" points="168.86,-655.95 178.86,-652.45 168.86,-648.95 168.86,-655.95"/>
</g>
<!-- Node8&#45;&gt;Node4 -->
<g id="edge9" class="edge">
<title>Node8&#45;&gt;Node4</title>
<path fill="none" stroke="midnightblue" d="M756.75,-346.05C720.07,-406.71 604.71,-597.52 577.36,-642.76"/>
<polygon fill="midnightblue" stroke="midnightblue" points="759.94,-347.54 762.12,-337.17 753.95,-343.92 759.94,-347.54"/>
</g>
<!-- Node10&#45;&gt;Node4 -->
<g id="edge14" class="edge">
<title>Node10&#45;&gt;Node4</title>
<path fill="none" stroke="midnightblue" d="M917.35,-753.3C893.87,-747.1 867.76,-740.27 856,-737.45 779.03,-718.98 757.42,-723.49 682,-699.45 649.23,-689 612.8,-672.49 591.04,-662.08"/>
<polygon fill="midnightblue" stroke="midnightblue" points="916.64,-756.73 927.2,-755.91 918.43,-749.97 916.64,-756.73"/>
</g>
<!-- Node11 -->
<g id="node11" class="node">
<title>Node11</title>
<g id="a_node11"><a xlink:href="class_t_interface.html#a528675bee2f8940b6fb3de82ebdd9cc1" target="_top" xlink:title="&lt; used when change early to the next service (Fns, Fns&#45;sh, Frh&#45;sh or F&#45;nshs) to advance the action po...">
<polygon fill="white" stroke="black" points="698.5,-823.45 698.5,-853.45 839.5,-853.45 839.5,-823.45 698.5,-823.45"/>
<text text-anchor="start" x="706.5" y="-841.45" font-family="Helvetica,sans-Serif" font-size="10.00">TInterface::SkipEventsBefore</text>
<text text-anchor="middle" x="769" y="-830.45" font-family="Helvetica,sans-Serif" font-size="10.00">SameLoc</text>
</a>
</g>
</g>
<!-- Node10&#45;&gt;Node11 -->
<g id="edge12" class="edge">
<title>Node10&#45;&gt;Node11</title>
<path fill="none" stroke="midnightblue" d="M934.48,-779.54C913.18,-789.75 883.18,-803.46 856,-813.45 846.37,-816.99 835.99,-820.36 825.88,-823.43"/>
<polygon fill="midnightblue" stroke="midnightblue" points="936.14,-782.63 943.62,-775.12 933.09,-776.33 936.14,-782.63"/>
</g>
<!-- Node12 -->
<g id="node12" class="node">
<title>Node12</title>
<g id="a_node12"><a xlink:href="class_t_interface.html#a0e9af41ff305fe2813385fce38b73206" target="_top" xlink:title=" ">
<polygon fill="white" stroke="black" points="495,-779.45 495,-809.45 646,-809.45 646,-779.45 495,-779.45"/>
<text text-anchor="start" x="503" y="-797.45" font-family="Helvetica,sans-Serif" font-size="10.00">TInterface::BecomeNewService</text>
<text text-anchor="middle" x="570.5" y="-786.45" font-family="Helvetica,sans-Serif" font-size="10.00">MenuItemClick</text>
</a>
</g>
</g>
<!-- Node11&#45;&gt;Node12 -->
<g id="edge13" class="edge">
<title>Node11&#45;&gt;Node12</title>
<path fill="none" stroke="midnightblue" d="M690.88,-821.18C673.61,-817.31 655.43,-813.24 638.61,-809.47"/>
<polygon fill="midnightblue" stroke="midnightblue" points="690.4,-824.66 700.93,-823.43 691.93,-817.83 690.4,-824.66"/>
</g>
<!-- Node13&#45;&gt;Node4 -->
<g id="edge17" class="edge">
<title>Node13&#45;&gt;Node4</title>
<path fill="none" stroke="midnightblue" d="M758.03,-147.15C741.04,-179.45 706.01,-248.04 682,-308.45 630.57,-437.86 585.24,-601.51 574.11,-642.7"/>
<polygon fill="midnightblue" stroke="midnightblue" points="761.29,-148.47 762.87,-138 755.1,-145.2 761.29,-148.47"/>
</g>
<!-- Node15&#45;&gt;Node4 -->
<g id="edge21" class="edge">
<title>Node15&#45;&gt;Node4</title>
<path fill="none" stroke="midnightblue" d="M691.09,-870.31C687.86,-868.27 684.81,-865.99 682,-863.45 649.17,-833.67 665.92,-810.04 646,-770.45 624.76,-728.25 592.65,-681.87 578.56,-662.17"/>
<polygon fill="midnightblue" stroke="midnightblue" points="689.54,-873.45 699.99,-875.17 692.89,-867.3 689.54,-873.45"/>
</g>
<!-- Node15&#45;&gt;Node12 -->
<g id="edge20" class="edge">
<title>Node15&#45;&gt;Node12</title>
<path fill="none" stroke="midnightblue" d="M695.88,-868.99C691.13,-867.26 686.46,-865.41 682,-863.45 648.47,-848.67 613.13,-824.96 591.69,-809.55"/>
<polygon fill="midnightblue" stroke="midnightblue" points="695.12,-872.43 705.71,-872.36 697.39,-865.8 695.12,-872.43"/>
</g>
<!-- Node16&#45;&gt;Node4 -->
<g id="edge24" class="edge">
<title>Node16&#45;&gt;Node4</title>
<path fill="none" stroke="midnightblue" d="M712.43,-744.06C702.08,-740.89 691.52,-737.04 682,-732.45 641.68,-713 600.67,-678.66 581.96,-662.02"/>
<polygon fill="midnightblue" stroke="midnightblue" points="711.69,-747.49 722.26,-746.9 713.63,-740.77 711.69,-747.49"/>
</g>
<!-- Node16&#45;&gt;Node12 -->
<g id="edge23" class="edge">
<title>Node16&#45;&gt;Node12</title>
<path fill="none" stroke="midnightblue" d="M708.63,-767.93C688.96,-771.73 666.81,-776.01 646.15,-780.01"/>
<polygon fill="midnightblue" stroke="midnightblue" points="709.51,-771.32 718.67,-765.99 708.19,-764.45 709.51,-771.32"/>
</g>
<!-- Node20&#45;&gt;Node4 -->
<g id="edge32" class="edge">
<title>Node20&#45;&gt;Node4</title>
<path fill="none" stroke="midnightblue" d="M688.95,-665.6C666.06,-663.03 641.72,-660.31 621.17,-658.01"/>
<polygon fill="midnightblue" stroke="midnightblue" points="688.67,-669.09 699,-666.72 689.45,-662.13 688.67,-669.09"/>
</g>
<!-- Node20&#45;&gt;Node12 -->
<g id="edge31" class="edge">
<title>Node20&#45;&gt;Node12</title>
<path fill="none" stroke="midnightblue" d="M734.17,-695.11C694.9,-719.09 631.07,-758.07 596.18,-779.37"/>
<polygon fill="midnightblue" stroke="midnightblue" points="736.4,-697.84 743.11,-689.64 732.75,-691.87 736.4,-697.84"/>
</g>
<!-- Node21&#45;&gt;Node4 -->
<g id="edge35" class="edge">
<title>Node21&#45;&gt;Node4</title>
<path fill="none" stroke="midnightblue" d="M693.72,-781.24C689.65,-779.53 685.71,-777.61 682,-775.45 631.42,-745.94 591.28,-685.35 577.06,-661.96"/>
<polygon fill="midnightblue" stroke="midnightblue" points="692.8,-784.63 703.39,-784.82 695.23,-778.06 692.8,-784.63"/>
</g>
<!-- Node21&#45;&gt;Node12 -->
<g id="edge34" class="edge">
<title>Node21&#45;&gt;Node12</title>
<path fill="none" stroke="midnightblue" d="M671.77,-794.45C663.19,-794.45 654.59,-794.45 646.23,-794.45"/>
<polygon fill="midnightblue" stroke="midnightblue" points="671.81,-797.95 681.81,-794.45 671.81,-790.95 671.81,-797.95"/>
</g>
<!-- Node27&#45;&gt;Node4 -->
<g id="edge42" class="edge">
<title>Node27&#45;&gt;Node4</title>
<path fill="none" stroke="midnightblue" d="M735.19,-584.97C695.48,-601.34 629.63,-628.49 594.78,-642.85"/>
<polygon fill="midnightblue" stroke="midnightblue" points="736.78,-588.1 744.69,-581.06 734.11,-581.63 736.78,-588.1"/>
</g>
</g>
</svg>
        <g id="navigator" transform="translate(0 0)" fill="#404254">
                <rect fill="#f2f5e9" fill-opacity="0.5" stroke="#606060" stroke-width=".5" x="0" y="0" width="60" height="60"/>
                <use id="zoomplus" xlink:href="#zoomPlus" x="17" y="9" onmousedown="handleZoom(evt,'in')"/>
                <use id="zoomminus" xlink:href="#zoomMin" x="42" y="9" onmousedown="handleZoom(evt,'out')"/>
                <use id="reset" xlink:href="#resetDef" x="30" y="36" onmousedown="handleReset()"/>
                <g id="arrowUp" xlink:href="#dirArrow" transform="translate(30 24)" onmousedown="handlePan(0,-1)">
                  <use xlink:href="#rim" fill="#404040">
                        <set attributeName="fill" to="#808080" begin="arrowUp.mouseover" end="arrowUp.mouseout"/>
                  </use>
                  <path fill="none" stroke="white" stroke-width="1.5" d="M0,-3.0v7 M-2.5,-0.5L0,-3.0L2.5,-0.5"/>
                </g>
                <g id="arrowRight" xlink:href="#dirArrow" transform="rotate(90) translate(36 -43)" onmousedown="handlePan(1,0)">
                  <use xlink:href="#rim" fill="#404040">
                        <set attributeName="fill" to="#808080" begin="arrowRight.mouseover" end="arrowRight.mouseout"/>
                  </use>
                  <path fill="none" stroke="white" stroke-width="1.5" d="M0,-3.0v7 M-2.5,-0.5L0,-3.0L2.5,-0.5"/>
                </g>
                <g id="arrowDown" xlink:href="#dirArrow" transform="rotate(180) translate(-30 -48)" onmousedown="handlePan(0,1)">
                  <use xlink:href="#rim" fill="#404040">
                        <set attributeName="fill" to="#808080" begin="arrowDown.mouseover" end="arrowDown.mouseout"/>
                  </use>
                  <path fill="none" stroke="white" stroke-width="1.5" d="M0,-3.0v7 M-2.5,-0.5L0,-3.0L2.5,-0.5"/>
                </g>
                <g id="arrowLeft" xlink:href="#dirArrow" transform="rotate(270) translate(-36 17)" onmousedown="handlePan(-1,0)">
                  <use xlink:href="#rim" fill="#404040">
                        <set attributeName="fill" to="#808080" begin="arrowLeft.mouseover" end="arrowLeft.mouseout"/>
                  </use>
                  <path fill="none" stroke="white" stroke-width="1.5" d="M0,-3.0v7 M-2.5,-0.5L0,-3.0L2.5,-0.5"/>
                </g>
        </g>
        <svg viewBox="0 0 15 15" width="100%" height="30px" preserveAspectRatio="xMaxYMin meet">
         <g id="arrow_out" transform="scale(0.3 0.3)">
          <a xlink:href="class_t_train_a493ab1c185d29bf28ec8fded2356e9fc_icgraph_org.svg" target="_base">
           <rect id="button" ry="5" rx="5" y="6" x="6" height="38" width="38"
                fill="#f2f5e9" fill-opacity="0.5" stroke="#606060" stroke-width="1.0"/>
           <path id="arrow"
             d="M 11.500037,31.436501 C 11.940474,20.09759 22.043105,11.32322 32.158766,21.979434 L 37.068811,17.246167 C 37.068811,17.246167 37.088388,32 37.088388,32 L 22.160133,31.978069 C 22.160133,31.978069 26.997745,27.140456 26.997745,27.140456 C 18.528582,18.264221 13.291696,25.230495 11.500037,31.436501 z"
             style="fill:#404040;"/>
          </a>
         </g>
        </svg>
</svg>
