<?xml version="1.0" encoding="UTF-8" standalone="no"?>
<!DOCTYPE svg PUBLIC "-//W3C//DTD SVG 1.1//EN"
 "http://www.w3.org/Graphics/SVG/1.1/DTD/svg11.dtd">
<!-- Generated by graphviz version 2.44.1 (20200629.0800)
 -->
<!-- Title: TTrack::SetLCAttributeAtHV Pages: 1 -->
<svg width="483pt" height="113pt"
 viewBox="0.00 0.00 483.00 112.96" xmlns="http://www.w3.org/2000/svg" xmlns:xlink="http://www.w3.org/1999/xlink">
<g id="graph0" class="graph" transform="scale(1 1) rotate(0) translate(4 108.96)">
<title>TTrack::SetLCAttributeAtHV</title>
<polygon fill="white" stroke="transparent" points="-4,4 -4,-108.96 479,-108.96 479,4 -4,4"/>
<!-- Node1 -->
<g id="node1" class="node">
<title>Node1</title>
<g id="a_node1"><a xlink:title="Set LC attribute at H &amp; V; 0=closed to trains, 1 = open to trains, 2 = changing state = closed to tra...">
<polygon fill="#bfbfbf" stroke="black" points="0,-39.29 0,-58.29 139,-58.29 139,-39.29 0,-39.29"/>
<text text-anchor="middle" x="69.5" y="-46.29" font-family="Helvetica,sans-Serif" font-size="10.00">TTrack::SetLCAttributeAtHV</text>
</a>
</g>
</g>
<!-- Node2 -->
<g id="node2" class="node">
<title>Node2</title>
<g id="a_node2"><a xlink:href="class_t_utilities.html#ae1eddca13cc3c492839e131f40ec21c0" target="_top" xlink:title="pops the last entry off the call stack, throws an error if called when empty">
<polygon fill="white" stroke="black" points="365,-61.29 365,-80.29 475,-80.29 475,-61.29 365,-61.29"/>
<text text-anchor="middle" x="420" y="-68.29" font-family="Helvetica,sans-Serif" font-size="10.00">TUtilities::CallLogPop</text>
</a>
</g>
</g>
<!-- Node1&#45;&gt;Node2 -->
<g id="edge1" class="edge">
<title>Node1&#45;&gt;Node2</title>
<path fill="none" stroke="midnightblue" d="M86.06,-58.33C105.87,-69.86 141.55,-88.61 175,-95.79 241.92,-110.14 261.18,-105.03 329,-95.79 346.83,-93.36 366.11,-88.34 382.24,-83.43"/>
<polygon fill="midnightblue" stroke="midnightblue" points="383.34,-86.75 391.83,-80.41 381.24,-80.07 383.34,-86.75"/>
</g>
<!-- Node3 -->
<g id="node3" class="node">
<title>Node3</title>
<g id="a_node3"><a xlink:href="class_t_track.html#a418966e6fefb71b9d0c9b941197832da" target="_top" xlink:title="Similar to GetVectorPositionFromTrackMap but for inactive elements, a pair is returned because there ...">
<polygon fill="white" stroke="black" points="183.5,-55.79 183.5,-85.79 320.5,-85.79 320.5,-55.79 183.5,-55.79"/>
<text text-anchor="start" x="191.5" y="-73.79" font-family="Helvetica,sans-Serif" font-size="10.00">TTrack::GetVectorPositions</text>
<text text-anchor="middle" x="252" y="-62.79" font-family="Helvetica,sans-Serif" font-size="10.00">FromInactiveTrackMap</text>
</a>
</g>
</g>
<!-- Node1&#45;&gt;Node3 -->
<g id="edge2" class="edge">
<title>Node1&#45;&gt;Node3</title>
<path fill="none" stroke="midnightblue" d="M139.25,-57.17C150.31,-58.51 161.83,-59.92 173.09,-61.29"/>
<polygon fill="midnightblue" stroke="midnightblue" points="172.98,-64.8 183.33,-62.54 173.83,-57.85 172.98,-64.8"/>
</g>
<!-- Node4 -->
<g id="node4" class="node">
<title>Node4</title>
<g id="a_node4"><a xlink:href="class_t_utilities.html#a34bd6bb5305bc29afdf424f6d35a921c" target="_top" xlink:title="creates a string of the form &#39;hh:mm:ss&#39; for use in call &amp; event logging">
<polygon fill="white" stroke="black" points="365,-17.29 365,-36.29 475,-36.29 475,-17.29 365,-17.29"/>
<text text-anchor="middle" x="420" y="-24.29" font-family="Helvetica,sans-Serif" font-size="10.00">TUtilities::TimeStamp</text>
</a>
</g>
</g>
<!-- Node1&#45;&gt;Node4 -->
<g id="edge8" class="edge">
<title>Node1&#45;&gt;Node4</title>
<path fill="none" stroke="midnightblue" d="M88.75,-39.19C109.13,-29.07 143.4,-13.76 175,-7.79 242.25,4.93 260.93,-0.68 329,-7.79 343.31,-9.28 358.7,-12.08 372.64,-15.08"/>
<polygon fill="midnightblue" stroke="midnightblue" points="371.97,-18.51 382.49,-17.28 373.5,-11.68 371.97,-18.51"/>
</g>
<!-- Node5 -->
<g id="node5" class="node">
<title>Node5</title>
<g id="a_node5"><a xlink:href="class_t_track.html#a51f89cf70e94b037f6378cd78003d82b" target="_top" xlink:title="A range&#45;checked version of InactiveTrackElement.at(At)">
<polygon fill="white" stroke="black" points="175,-17.29 175,-36.29 329,-36.29 329,-17.29 175,-17.29"/>
<text text-anchor="middle" x="252" y="-24.29" font-family="Helvetica,sans-Serif" font-size="10.00">TTrack::InactiveTrackElementAt</text>
</a>
</g>
</g>
<!-- Node1&#45;&gt;Node5 -->
<g id="edge5" class="edge">
<title>Node1&#45;&gt;Node5</title>
<path fill="none" stroke="midnightblue" d="M139.25,-40.41C147.63,-39.39 156.27,-38.33 164.86,-37.29"/>
<polygon fill="midnightblue" stroke="midnightblue" points="165.4,-40.75 174.91,-36.06 164.56,-33.8 165.4,-40.75"/>
</g>
<!-- Node3&#45;&gt;Node2 -->
<g id="edge3" class="edge">
<title>Node3&#45;&gt;Node2</title>
<path fill="none" stroke="midnightblue" d="M320.52,-70.79C331.79,-70.79 343.45,-70.79 354.64,-70.79"/>
<polygon fill="midnightblue" stroke="midnightblue" points="354.76,-74.29 364.76,-70.79 354.76,-67.29 354.76,-74.29"/>
</g>
<!-- Node3&#45;&gt;Node4 -->
<g id="edge4" class="edge">
<title>Node3&#45;&gt;Node4</title>
<path fill="none" stroke="midnightblue" d="M309.66,-55.77C330.3,-50.3 353.36,-44.19 372.96,-38.99"/>
<polygon fill="midnightblue" stroke="midnightblue" points="374.09,-42.31 382.86,-36.36 372.3,-35.54 374.09,-42.31"/>
</g>
<!-- Node5&#45;&gt;Node2 -->
<g id="edge6" class="edge">
<title>Node5&#45;&gt;Node2</title>
<path fill="none" stroke="midnightblue" d="M292.1,-36.36C303.97,-39.32 317.03,-42.63 329,-45.79 344.16,-49.79 360.71,-54.33 375.43,-58.44"/>
<polygon fill="midnightblue" stroke="midnightblue" points="374.72,-61.87 385.29,-61.2 376.61,-55.13 374.72,-61.87"/>
</g>
<!-- Node5&#45;&gt;Node4 -->
<g id="edge7" class="edge">
<title>Node5&#45;&gt;Node4</title>
<path fill="none" stroke="midnightblue" d="M329.2,-26.79C337.59,-26.79 346.07,-26.79 354.3,-26.79"/>
<polygon fill="midnightblue" stroke="midnightblue" points="354.57,-30.29 364.57,-26.79 354.57,-23.29 354.57,-30.29"/>
</g>
</g>
</svg>
