<?xml version="1.0" encoding="UTF-8" standalone="no"?>
<!DOCTYPE svg PUBLIC "-//W3C//DTD SVG 1.1//EN"
 "http://www.w3.org/Graphics/SVG/1.1/DTD/svg11.dtd">
<!-- Generated by graphviz version 2.44.1 (20200629.0800)
 -->
<!-- Title: TTrack::GetFilletGraphic Pages: 1 -->
<svg width="1522pt" height="444pt"
 viewBox="0.00 0.00 1522.00 443.50" xmlns="http://www.w3.org/2000/svg" xmlns:xlink="http://www.w3.org/1999/xlink">
<g id="graph0" class="graph" transform="scale(1 1) rotate(0) translate(4 439.5)">
<title>TTrack::GetFilletGraphic</title>
<polygon fill="white" stroke="transparent" points="-4,4 -4,-439.5 1518,-439.5 1518,4 -4,4"/>
<!-- Node1 -->
<g id="node1" class="node">
<title>Node1</title>
<g id="a_node1"><a xlink:title="Return a pointer to the point fillet (the bit that appears to move when points are changed) for the p...">
<polygon fill="#bfbfbf" stroke="black" points="1392,-366.5 1392,-385.5 1514,-385.5 1514,-366.5 1392,-366.5"/>
<text text-anchor="middle" x="1453" y="-373.5" font-family="Helvetica,sans-Serif" font-size="10.00">TTrack::GetFilletGraphic</text>
</a>
</g>
</g>
<!-- Node2 -->
<g id="node2" class="node">
<title>Node2</title>
<g id="a_node2"><a xlink:href="class_t_train.html#af92ae73f1be23475e7ae424306cd4866" target="_top" xlink:title="Store the background bitmap pointer (BackgroundPtr &#45; see above) prior to being overwritten by the tra...">
<polygon fill="white" stroke="black" points="1224,-361 1224,-391 1356,-391 1356,-361 1224,-361"/>
<text text-anchor="start" x="1232" y="-379" font-family="Helvetica,sans-Serif" font-size="10.00">TTrain::PickUpBackground</text>
<text text-anchor="middle" x="1290" y="-368" font-family="Helvetica,sans-Serif" font-size="10.00">Bitmap</text>
</a>
</g>
</g>
<!-- Node1&#45;&gt;Node2 -->
<g id="edge1" class="edge">
<title>Node1&#45;&gt;Node2</title>
<path fill="none" stroke="midnightblue" d="M1381.41,-376C1372.98,-376 1364.4,-376 1356.06,-376"/>
<polygon fill="midnightblue" stroke="midnightblue" points="1381.59,-379.5 1391.59,-376 1381.59,-372.5 1381.59,-379.5"/>
</g>
<!-- Node3 -->
<g id="node3" class="node">
<title>Node3</title>
<g id="a_node3"><a xlink:href="class_t_train.html#a23c65e7f2b2130ae87811f70afb6d5bf" target="_top" xlink:title="Create one train with relevant member values from the sesion file.">
<polygon fill="white" stroke="black" points="1044,-407.5 1044,-426.5 1188,-426.5 1188,-407.5 1044,-407.5"/>
<text text-anchor="middle" x="1116" y="-414.5" font-family="Helvetica,sans-Serif" font-size="10.00">TTrain::LoadOneSessionTrain</text>
</a>
</g>
</g>
<!-- Node2&#45;&gt;Node3 -->
<g id="edge2" class="edge">
<title>Node2&#45;&gt;Node3</title>
<path fill="none" stroke="midnightblue" d="M1216.1,-393.38C1195.88,-398.2 1174.67,-403.25 1157.08,-407.45"/>
<polygon fill="midnightblue" stroke="midnightblue" points="1217.01,-396.76 1225.93,-391.03 1215.39,-389.95 1217.01,-396.76"/>
</g>
<!-- Node8 -->
<g id="node8" class="node">
<title>Node8</title>
<g id="a_node8"><a xlink:href="class_t_train.html#a43cd691f12297c4c13a19791329dd627" target="_top" xlink:title="Plots the train and sets up all relevant members for a new train when it is introduced into the railw...">
<polygon fill="white" stroke="black" points="1055,-174.5 1055,-193.5 1177,-193.5 1177,-174.5 1055,-174.5"/>
<text text-anchor="middle" x="1116" y="-181.5" font-family="Helvetica,sans-Serif" font-size="10.00">TTrain::PlotStartPosition</text>
</a>
</g>
</g>
<!-- Node2&#45;&gt;Node8 -->
<g id="edge7" class="edge">
<title>Node2&#45;&gt;Node8</title>
<path fill="none" stroke="midnightblue" d="M1268.78,-353.43C1231.17,-311.45 1151.93,-222.99 1125.66,-193.67"/>
<polygon fill="midnightblue" stroke="midnightblue" points="1266.22,-355.82 1275.5,-360.93 1271.44,-351.15 1266.22,-355.82"/>
</g>
<!-- Node11 -->
<g id="node11" class="node">
<title>Node11</title>
<g id="a_node11"><a xlink:href="class_t_train.html#a89ad640ecf8f5163c40727b4e28575fc" target="_top" xlink:title="Major function called at each clock tick for each train &amp; handles all train movement &amp; associated act...">
<polygon fill="white" stroke="black" points="505,-185.5 505,-204.5 606,-204.5 606,-185.5 505,-185.5"/>
<text text-anchor="middle" x="555.5" y="-192.5" font-family="Helvetica,sans-Serif" font-size="10.00">TTrain::UpdateTrain</text>
</a>
</g>
</g>
<!-- Node2&#45;&gt;Node11 -->
<g id="edge30" class="edge">
<title>Node2&#45;&gt;Node11</title>
<path fill="none" stroke="midnightblue" d="M1213.66,-378.5C1065.94,-382.07 744.61,-382.92 652,-327 602.12,-296.88 570.68,-229.76 560.3,-204.69"/>
<polygon fill="midnightblue" stroke="midnightblue" points="1214.08,-381.99 1223.99,-378.24 1213.9,-374.99 1214.08,-381.99"/>
</g>
<!-- Node4 -->
<g id="node4" class="node">
<title>Node4</title>
<g id="a_node4"><a xlink:href="class_t_train_controller.html#a853ddf9799c9fd7063c81ffa1dc754d7" target="_top" xlink:title="load trains from a session file">
<polygon fill="white" stroke="black" points="862,-405 862,-435 1008,-435 1008,-405 862,-405"/>
<text text-anchor="start" x="870" y="-423" font-family="Helvetica,sans-Serif" font-size="10.00">TTrainController::LoadSession</text>
<text text-anchor="middle" x="935" y="-412" font-family="Helvetica,sans-Serif" font-size="10.00">Trains</text>
</a>
</g>
</g>
<!-- Node3&#45;&gt;Node4 -->
<g id="edge3" class="edge">
<title>Node3&#45;&gt;Node4</title>
<path fill="none" stroke="midnightblue" d="M1033.94,-418.36C1025.32,-418.5 1016.6,-418.65 1008.09,-418.79"/>
<polygon fill="midnightblue" stroke="midnightblue" points="1034.06,-421.86 1044,-418.19 1033.94,-414.86 1034.06,-421.86"/>
</g>
<!-- Node5 -->
<g id="node5" class="node">
<title>Node5</title>
<g id="a_node5"><a xlink:href="class_t_interface.html#a636b1b4bd29f2678a3290ed2d282f1c2" target="_top" xlink:title="Load a session file.">
<polygon fill="white" stroke="black" points="495,-379.5 495,-398.5 616,-398.5 616,-379.5 495,-379.5"/>
<text text-anchor="middle" x="555.5" y="-386.5" font-family="Helvetica,sans-Serif" font-size="10.00">TInterface::LoadSession</text>
</a>
</g>
</g>
<!-- Node4&#45;&gt;Node5 -->
<g id="edge4" class="edge">
<title>Node4&#45;&gt;Node5</title>
<path fill="none" stroke="midnightblue" d="M851.4,-413.22C780.37,-407.38 679.61,-399.11 616.18,-393.9"/>
<polygon fill="midnightblue" stroke="midnightblue" points="851.41,-416.73 861.66,-414.06 851.98,-409.75 851.41,-416.73"/>
</g>
<!-- Node6 -->
<g id="node6" class="node">
<title>Node6</title>
<g id="a_node6"><a xlink:href="class_t_interface.html#a6139ffb52492eb89e5487a8a3cd647b5" target="_top" xlink:title="The main loop, called every clock tick via MasterClockTimer.">
<polygon fill="white" stroke="black" points="179,-204.5 179,-223.5 298,-223.5 298,-204.5 179,-204.5"/>
<text text-anchor="middle" x="238.5" y="-211.5" font-family="Helvetica,sans-Serif" font-size="10.00">TInterface::ClockTimer2</text>
</a>
</g>
</g>
<!-- Node5&#45;&gt;Node6 -->
<g id="edge5" class="edge">
<title>Node5&#45;&gt;Node6</title>
<path fill="none" stroke="midnightblue" d="M528.25,-374.42C465.69,-339.66 309.14,-252.69 256.83,-223.63"/>
<polygon fill="midnightblue" stroke="midnightblue" points="526.67,-377.55 537.12,-379.34 530.07,-371.43 526.67,-377.55"/>
</g>
<!-- Node7 -->
<g id="node7" class="node">
<title>Node7</title>
<g id="a_node7"><a xlink:href="class_t_interface.html#ace30a12d923fc7fb489afabb0a09aa4f" target="_top" xlink:title=" ">
<polygon fill="white" stroke="black" points="0,-204.5 0,-223.5 143,-223.5 143,-204.5 0,-204.5"/>
<text text-anchor="middle" x="71.5" y="-211.5" font-family="Helvetica,sans-Serif" font-size="10.00">TInterface::MasterClockTimer</text>
</a>
</g>
</g>
<!-- Node6&#45;&gt;Node7 -->
<g id="edge6" class="edge">
<title>Node6&#45;&gt;Node7</title>
<path fill="none" stroke="midnightblue" d="M168.67,-214C160.22,-214 151.57,-214 143.09,-214"/>
<polygon fill="midnightblue" stroke="midnightblue" points="168.86,-217.5 178.86,-214 168.86,-210.5 168.86,-217.5"/>
</g>
<!-- Node9 -->
<g id="node9" class="node">
<title>Node9</title>
<g id="a_node9"><a xlink:href="class_t_train_controller.html#aa895b60238810a9d134cd5b9c886da56" target="_top" xlink:title="Introduce a new train to the railway, with the characteristics specified, returns true for success,...">
<polygon fill="white" stroke="black" points="871,-0.5 871,-19.5 999,-19.5 999,-0.5 871,-0.5"/>
<text text-anchor="middle" x="935" y="-7.5" font-family="Helvetica,sans-Serif" font-size="10.00">TTrainController::AddTrain</text>
</a>
</g>
</g>
<!-- Node8&#45;&gt;Node9 -->
<g id="edge8" class="edge">
<title>Node8&#45;&gt;Node9</title>
<path fill="none" stroke="midnightblue" d="M1106.32,-164.87C1090.98,-133.12 1056.07,-69.53 1008,-34 999.52,-27.73 989.31,-23.04 979.28,-19.55"/>
<polygon fill="midnightblue" stroke="midnightblue" points="1103.35,-166.77 1110.77,-174.33 1109.68,-163.79 1103.35,-166.77"/>
</g>
<!-- Node10 -->
<g id="node10" class="node">
<title>Node10</title>
<g id="a_node10"><a xlink:href="class_t_train.html#ad666fb061d1da7c44a72ec963c2098aa" target="_top" xlink:title="Carry out the actions needed when a train is to split from the front.">
<polygon fill="white" stroke="black" points="683,-76.5 683,-95.5 795,-95.5 795,-76.5 683,-76.5"/>
<text text-anchor="middle" x="739" y="-83.5" font-family="Helvetica,sans-Serif" font-size="10.00">TTrain::FrontTrainSplit</text>
</a>
</g>
</g>
<!-- Node8&#45;&gt;Node10 -->
<g id="edge18" class="edge">
<title>Node8&#45;&gt;Node10</title>
<path fill="none" stroke="midnightblue" d="M1085.07,-170.29C1063.9,-161 1034.65,-149.02 1008,-141 935.68,-119.24 849.81,-103.29 795.12,-94.33"/>
<polygon fill="midnightblue" stroke="midnightblue" points="1083.92,-173.61 1094.48,-174.47 1086.76,-167.21 1083.92,-173.61"/>
</g>
<!-- Node13 -->
<g id="node13" class="node">
<title>Node13</title>
<g id="a_node13"><a xlink:href="class_t_train.html#ad64c5823265b0c611c2e5f0613317aa5" target="_top" xlink:title="Carry out the actions needed when a train is to split from the rear.">
<polygon fill="white" stroke="black" points="684,-38.5 684,-57.5 794,-57.5 794,-38.5 684,-38.5"/>
<text text-anchor="middle" x="739" y="-45.5" font-family="Helvetica,sans-Serif" font-size="10.00">TTrain::RearTrainSplit</text>
</a>
</g>
</g>
<!-- Node8&#45;&gt;Node13 -->
<g id="edge23" class="edge">
<title>Node8&#45;&gt;Node13</title>
<path fill="none" stroke="midnightblue" d="M1098.41,-167.31C1078.64,-148.45 1043.77,-118.25 1008,-102 938.21,-70.3 849.82,-57.11 794.07,-51.68"/>
<polygon fill="midnightblue" stroke="midnightblue" points="1096.08,-169.93 1105.68,-174.4 1100.96,-164.92 1096.08,-169.93"/>
</g>
<!-- Node14 -->
<g id="node14" class="node">
<title>Node14</title>
<g id="a_node14"><a xlink:href="class_t_train.html#a406c172a0ba96802ada1aa04d78948d0" target="_top" xlink:title="Reverses the direction of motion of the train.">
<polygon fill="white" stroke="black" points="864.5,-328.5 864.5,-347.5 1005.5,-347.5 1005.5,-328.5 864.5,-328.5"/>
<text text-anchor="middle" x="935" y="-335.5" font-family="Helvetica,sans-Serif" font-size="10.00">TTrain::ChangeTrainDirection</text>
</a>
</g>
</g>
<!-- Node8&#45;&gt;Node14 -->
<g id="edge16" class="edge">
<title>Node8&#45;&gt;Node14</title>
<path fill="none" stroke="midnightblue" d="M1105.37,-202.75C1089.28,-232.15 1054.12,-288.83 1008,-319 1002.05,-322.89 995.33,-325.99 988.45,-328.45"/>
<polygon fill="midnightblue" stroke="midnightblue" points="1108.64,-204.05 1110.25,-193.58 1102.46,-200.76 1108.64,-204.05"/>
</g>
<!-- Node15 -->
<g id="node15" class="node">
<title>Node15</title>
<g id="a_node15"><a xlink:href="class_t_train.html#a56fcfe4b9a3cef988bbeb4f4766372aa" target="_top" xlink:title="Carry out the actions needed when a new shuttle service is created from a non&#45;repeating (F&#45;nshs) serv...">
<polygon fill="white" stroke="black" points="866,-279 866,-309 1004,-309 1004,-279 866,-279"/>
<text text-anchor="start" x="874" y="-297" font-family="Helvetica,sans-Serif" font-size="10.00">TTrain::NewShuttleFromNon</text>
<text text-anchor="middle" x="935" y="-286" font-family="Helvetica,sans-Serif" font-size="10.00">RepeatService</text>
</a>
</g>
</g>
<!-- Node8&#45;&gt;Node15 -->
<g id="edge19" class="edge">
<title>Node8&#45;&gt;Node15</title>
<path fill="none" stroke="midnightblue" d="M1097.78,-200.76C1077.67,-219.56 1042.72,-249.91 1008,-269 1001.28,-272.7 993.9,-276 986.52,-278.9"/>
<polygon fill="midnightblue" stroke="midnightblue" points="1100.37,-203.13 1105.21,-193.71 1095.55,-198.05 1100.37,-203.13"/>
</g>
<!-- Node16 -->
<g id="node16" class="node">
<title>Node16</title>
<g id="a_node16"><a xlink:href="class_t_train.html#a75a2e9017b96e2a8f2a1edbd01c2cd68" target="_top" xlink:title="Carry out the actions needed when a train forms a new service (code Fns)">
<polygon fill="white" stroke="black" points="875,-240.5 875,-259.5 995,-259.5 995,-240.5 875,-240.5"/>
<text text-anchor="middle" x="935" y="-247.5" font-family="Helvetica,sans-Serif" font-size="10.00">TTrain::NewTrainService</text>
</a>
</g>
</g>
<!-- Node8&#45;&gt;Node16 -->
<g id="edge21" class="edge">
<title>Node8&#45;&gt;Node16</title>
<path fill="none" stroke="midnightblue" d="M1086.52,-197.96C1065.24,-208.04 1035.24,-221.49 1008,-231 997.99,-234.49 987.01,-237.7 976.7,-240.44"/>
<polygon fill="midnightblue" stroke="midnightblue" points="1088.14,-201.07 1095.65,-193.6 1085.12,-194.76 1088.14,-201.07"/>
</g>
<!-- Node17 -->
<g id="node17" class="node">
<title>Node17</title>
<g id="a_node17"><a xlink:href="class_t_train.html#a8262f447ec811db7e524c7bb885226c5" target="_top" xlink:title="Carry out the actions needed to create either a new shuttle service or (if all repeats have finished)...">
<polygon fill="white" stroke="black" points="669,-153 669,-183 809,-183 809,-153 669,-153"/>
<text text-anchor="start" x="677" y="-171" font-family="Helvetica,sans-Serif" font-size="10.00">TTrain::RepeatShuttleOrNew</text>
<text text-anchor="middle" x="739" y="-160" font-family="Helvetica,sans-Serif" font-size="10.00">NonRepeatService</text>
</a>
</g>
</g>
<!-- Node8&#45;&gt;Node17 -->
<g id="edge24" class="edge">
<title>Node8&#45;&gt;Node17</title>
<path fill="none" stroke="midnightblue" d="M1044.64,-181C977.19,-178.12 876.01,-173.8 809.01,-170.94"/>
<polygon fill="midnightblue" stroke="midnightblue" points="1044.61,-184.5 1054.75,-181.43 1044.91,-177.51 1044.61,-184.5"/>
</g>
<!-- Node18 -->
<g id="node18" class="node">
<title>Node18</title>
<g id="a_node18"><a xlink:href="class_t_train.html#ac6f5cda912103fda4da31bdca611e4b5" target="_top" xlink:title="Carry out the actions needed to create either a new shuttle service or (if all repeats have finished)...">
<polygon fill="white" stroke="black" points="652,-114.5 652,-133.5 826,-133.5 826,-114.5 652,-114.5"/>
<text text-anchor="middle" x="739" y="-121.5" font-family="Helvetica,sans-Serif" font-size="10.00">TTrain::RepeatShuttleOrRemainHere</text>
</a>
</g>
</g>
<!-- Node8&#45;&gt;Node18 -->
<g id="edge26" class="edge">
<title>Node8&#45;&gt;Node18</title>
<path fill="none" stroke="midnightblue" d="M1045.43,-172.87C974.7,-161.55 866.29,-144.21 799.45,-133.51"/>
<polygon fill="midnightblue" stroke="midnightblue" points="1045.15,-176.37 1055.58,-174.49 1046.26,-169.46 1045.15,-176.37"/>
</g>
<!-- Node19 -->
<g id="node19" class="node">
<title>Node19</title>
<g id="a_node19"><a xlink:href="class_t_train.html#affbb94aa088370056f8ca8c45a1fdd48" target="_top" xlink:title="Unplots &amp; replots train, which checks for facing signal and sets StoppedAtSignal if req&#39;d.">
<polygon fill="white" stroke="black" points="865,-191 865,-221 1005,-221 1005,-191 865,-191"/>
<text text-anchor="start" x="873" y="-209" font-family="Helvetica,sans-Serif" font-size="10.00">TTrain::SignallerChangeTrain</text>
<text text-anchor="middle" x="935" y="-198" font-family="Helvetica,sans-Serif" font-size="10.00">Direction</text>
</a>
</g>
</g>
<!-- Node8&#45;&gt;Node19 -->
<g id="edge28" class="edge">
<title>Node8&#45;&gt;Node19</title>
<path fill="none" stroke="midnightblue" d="M1044.64,-192.65C1031.68,-194.24 1018.15,-195.9 1005.22,-197.49"/>
<polygon fill="midnightblue" stroke="midnightblue" points="1045.4,-196.08 1054.9,-191.39 1044.55,-189.13 1045.4,-196.08"/>
</g>
<!-- Node9&#45;&gt;Node10 -->
<g id="edge9" class="edge">
<title>Node9&#45;&gt;Node10</title>
<path fill="none" stroke="midnightblue" d="M910.17,-24.97C888.84,-37.78 856.34,-55.87 826,-67 815.81,-70.74 804.65,-73.86 793.86,-76.43"/>
<polygon fill="midnightblue" stroke="midnightblue" points="912.15,-27.87 918.87,-19.67 908.51,-21.89 912.15,-27.87"/>
</g>
<!-- Node12 -->
<g id="node12" class="node">
<title>Node12</title>
<g id="a_node12"><a xlink:href="class_t_train_controller.html#a20a1576dea1d86ed78fc5e9f46343481" target="_top" xlink:title="called every clock tick to introduce new trains and update existing trains">
<polygon fill="white" stroke="black" points="334,-185.5 334,-204.5 459,-204.5 459,-185.5 334,-185.5"/>
<text text-anchor="middle" x="396.5" y="-192.5" font-family="Helvetica,sans-Serif" font-size="10.00">TTrainController::Operate</text>
</a>
</g>
</g>
<!-- Node9&#45;&gt;Node12 -->
<g id="edge13" class="edge">
<title>Node9&#45;&gt;Node12</title>
<path fill="none" stroke="midnightblue" d="M860.72,-4.94C802.63,-3.28 720.16,-6.22 652,-29 545.94,-64.46 441.01,-155.03 408.07,-185.12"/>
<polygon fill="midnightblue" stroke="midnightblue" points="860.8,-8.45 870.92,-5.29 861.04,-1.45 860.8,-8.45"/>
</g>
<!-- Node9&#45;&gt;Node13 -->
<g id="edge14" class="edge">
<title>Node9&#45;&gt;Node13</title>
<path fill="none" stroke="midnightblue" d="M875.09,-21.54C847.42,-26.96 814.84,-33.34 788.6,-38.48"/>
<polygon fill="midnightblue" stroke="midnightblue" points="875.9,-24.95 885.05,-19.59 874.56,-18.08 875.9,-24.95"/>
</g>
<!-- Node10&#45;&gt;Node11 -->
<g id="edge10" class="edge">
<title>Node10&#45;&gt;Node11</title>
<path fill="none" stroke="midnightblue" d="M672.84,-96.43C665.6,-98.74 658.5,-101.56 652,-105 612.93,-125.67 578.23,-166.7 563.72,-185.36"/>
<polygon fill="midnightblue" stroke="midnightblue" points="674.11,-99.71 682.76,-93.59 672.18,-92.98 674.11,-99.71"/>
</g>
<!-- Node11&#45;&gt;Node12 -->
<g id="edge11" class="edge">
<title>Node11&#45;&gt;Node12</title>
<path fill="none" stroke="midnightblue" d="M494.79,-195C483.16,-195 470.96,-195 459.27,-195"/>
<polygon fill="midnightblue" stroke="midnightblue" points="494.82,-198.5 504.82,-195 494.82,-191.5 494.82,-198.5"/>
</g>
<!-- Node12&#45;&gt;Node6 -->
<g id="edge12" class="edge">
<title>Node12&#45;&gt;Node6</title>
<path fill="none" stroke="midnightblue" d="M323.83,-203.73C315.24,-204.78 306.54,-205.83 298.16,-206.85"/>
<polygon fill="midnightblue" stroke="midnightblue" points="324.34,-207.19 333.84,-202.51 323.49,-200.24 324.34,-207.19"/>
</g>
<!-- Node13&#45;&gt;Node11 -->
<g id="edge15" class="edge">
<title>Node13&#45;&gt;Node11</title>
<path fill="none" stroke="midnightblue" d="M674.2,-56.66C666.37,-59.26 658.76,-62.63 652,-67 604.26,-97.84 571.74,-161.37 560.68,-185.46"/>
<polygon fill="midnightblue" stroke="midnightblue" points="675.2,-60.01 683.81,-53.84 673.23,-53.29 675.2,-60.01"/>
</g>
<!-- Node14&#45;&gt;Node11 -->
<g id="edge17" class="edge">
<title>Node14&#45;&gt;Node11</title>
<path fill="none" stroke="midnightblue" d="M854.47,-338.08C795.59,-335.13 714.99,-324.59 652,-292 610.65,-270.61 576.39,-224.7 562.79,-204.67"/>
<polygon fill="midnightblue" stroke="midnightblue" points="854.32,-341.57 864.47,-338.51 854.63,-334.58 854.32,-341.57"/>
</g>
<!-- Node15&#45;&gt;Node11 -->
<g id="edge20" class="edge">
<title>Node15&#45;&gt;Node11</title>
<path fill="none" stroke="midnightblue" d="M855.76,-295.87C797.74,-294.79 717.67,-288.03 652,-263 616.81,-249.59 582.61,-220.05 566.34,-204.7"/>
<polygon fill="midnightblue" stroke="midnightblue" points="855.91,-299.37 865.96,-296 856.01,-292.37 855.91,-299.37"/>
</g>
<!-- Node16&#45;&gt;Node11 -->
<g id="edge22" class="edge">
<title>Node16&#45;&gt;Node11</title>
<path fill="none" stroke="midnightblue" d="M864.85,-256.15C807.07,-259.38 722.97,-259.58 652,-242 621.33,-234.4 589.02,-215.98 570.95,-204.59"/>
<polygon fill="midnightblue" stroke="midnightblue" points="865.19,-259.64 874.96,-255.54 864.77,-252.65 865.19,-259.64"/>
</g>
<!-- Node17&#45;&gt;Node11 -->
<g id="edge25" class="edge">
<title>Node17&#45;&gt;Node11</title>
<path fill="none" stroke="midnightblue" d="M658.5,-179.83C640.75,-182.47 622.41,-185.2 606.26,-187.6"/>
<polygon fill="midnightblue" stroke="midnightblue" points="659.49,-183.22 668.86,-178.28 658.46,-176.29 659.49,-183.22"/>
</g>
<!-- Node18&#45;&gt;Node11 -->
<g id="edge27" class="edge">
<title>Node18&#45;&gt;Node11</title>
<path fill="none" stroke="midnightblue" d="M676.96,-136.1C668.47,-138.39 659.94,-141.02 652,-144 622.09,-155.24 589.79,-174.04 571.46,-185.41"/>
<polygon fill="midnightblue" stroke="midnightblue" points="678.04,-139.43 686.87,-133.57 676.31,-132.65 678.04,-139.43"/>
</g>
<!-- Node20 -->
<g id="node20" class="node">
<title>Node20</title>
<g id="a_node20"><a xlink:href="class_t_interface.html#aaaf32c3c815553f7ba70698e0f0071bb" target="_top" xlink:title=" ">
<polygon fill="white" stroke="black" points="671,-202 671,-232 807,-232 807,-202 671,-202"/>
<text text-anchor="start" x="679" y="-220" font-family="Helvetica,sans-Serif" font-size="10.00">TInterface::ChangeDirection</text>
<text text-anchor="middle" x="739" y="-209" font-family="Helvetica,sans-Serif" font-size="10.00">MenuItemClick</text>
</a>
</g>
</g>
<!-- Node19&#45;&gt;Node20 -->
<g id="edge29" class="edge">
<title>Node19&#45;&gt;Node20</title>
<path fill="none" stroke="midnightblue" d="M854.57,-210.5C838.85,-211.4 822.5,-212.32 807.24,-213.19"/>
<polygon fill="midnightblue" stroke="midnightblue" points="855,-213.99 864.78,-209.92 854.6,-207 855,-213.99"/>
</g>
</g>
</svg>
