<?xml version="1.0" encoding="UTF-8" standalone="no"?>
<!DOCTYPE svg PUBLIC "-//W3C//DTD SVG 1.1//EN"
 "http://www.w3.org/Graphics/SVG/1.1/DTD/svg11.dtd">
<!-- Generated by graphviz version 2.44.1 (20200629.0800)
 -->
<!-- Title: TTrainController::GetExitLocationAndAt Pages: 1 -->
<svg width="984pt" height="274pt"
 viewBox="0.00 0.00 984.00 274.00" xmlns="http://www.w3.org/2000/svg" xmlns:xlink="http://www.w3.org/1999/xlink">
<g id="graph0" class="graph" transform="scale(1 1) rotate(0) translate(4 270)">
<title>TTrainController::GetExitLocationAndAt</title>
<polygon fill="white" stroke="transparent" points="-4,4 -4,-270 980,-270 980,4 -4,4"/>
<!-- Node1 -->
<g id="node1" class="node">
<title>Node1</title>
<g id="a_node1"><a xlink:title="Check all timetable names in ExitList, if all same return &quot; at [name]&quot; + AllowableExits = elements,...">
<polygon fill="#bfbfbf" stroke="black" points="853,-114.5 853,-144.5 976,-144.5 976,-114.5 853,-114.5"/>
<text text-anchor="start" x="861" y="-132.5" font-family="Helvetica,sans-Serif" font-size="10.00">TTrainController::GetExit</text>
<text text-anchor="middle" x="914.5" y="-121.5" font-family="Helvetica,sans-Serif" font-size="10.00">LocationAndAt</text>
</a>
</g>
</g>
<!-- Node2 -->
<g id="node2" class="node">
<title>Node2</title>
<g id="a_node2"><a xlink:href="class_t_train_controller.html#a9c531d3df66921ada4e698bcf47f72f3" target="_top" xlink:title="Build string for use in floating window for expected trains at continuations.">
<polygon fill="white" stroke="black" points="673,-212.5 673,-242.5 817,-242.5 817,-212.5 673,-212.5"/>
<text text-anchor="start" x="681" y="-230.5" font-family="Helvetica,sans-Serif" font-size="10.00">TTrainController::Continuation</text>
<text text-anchor="middle" x="745" y="-219.5" font-family="Helvetica,sans-Serif" font-size="10.00">EntryFloatingTTString</text>
</a>
</g>
</g>
<!-- Node1&#45;&gt;Node2 -->
<g id="edge1" class="edge">
<title>Node1&#45;&gt;Node2</title>
<path fill="none" stroke="midnightblue" d="M878.72,-149.85C846.89,-168.47 800.49,-195.62 771.83,-212.39"/>
<polygon fill="midnightblue" stroke="midnightblue" points="880.83,-152.67 887.7,-144.6 877.3,-146.63 880.83,-152.67"/>
</g>
<!-- Node7 -->
<g id="node7" class="node">
<title>Node7</title>
<g id="a_node7"><a xlink:href="class_t_train_controller.html#a4ab4b6a568064d27c65f0770e5a5ccd0" target="_top" xlink:title="Examines the internal timetable (TrainDataVector) and creates from it a chronological (....">
<polygon fill="white" stroke="black" points="685.5,-139.5 685.5,-169.5 804.5,-169.5 804.5,-139.5 685.5,-139.5"/>
<text text-anchor="start" x="693.5" y="-157.5" font-family="Helvetica,sans-Serif" font-size="10.00">TTrainController::Create</text>
<text text-anchor="middle" x="745" y="-146.5" font-family="Helvetica,sans-Serif" font-size="10.00">FormattedTimetable</text>
</a>
</g>
</g>
<!-- Node1&#45;&gt;Node7 -->
<g id="edge6" class="edge">
<title>Node1&#45;&gt;Node7</title>
<path fill="none" stroke="midnightblue" d="M842.54,-140.09C829.92,-141.98 816.9,-143.92 804.66,-145.74"/>
<polygon fill="midnightblue" stroke="midnightblue" points="843.18,-143.53 852.55,-138.6 842.15,-136.61 843.18,-143.53"/>
</g>
<!-- Node10 -->
<g id="node10" class="node">
<title>Node10</title>
<g id="a_node10"><a xlink:href="class_t_train.html#a221da69cd80d206a06f840f4cd463cf9" target="_top" xlink:title="Used in the floating window to display the &#39;Next&#39; action.">
<polygon fill="white" stroke="black" points="681.5,-90.5 681.5,-120.5 808.5,-120.5 808.5,-90.5 681.5,-90.5"/>
<text text-anchor="start" x="689.5" y="-108.5" font-family="Helvetica,sans-Serif" font-size="10.00">TTrain::FloatingLabelNext</text>
<text text-anchor="middle" x="745" y="-97.5" font-family="Helvetica,sans-Serif" font-size="10.00">String</text>
</a>
</g>
</g>
<!-- Node1&#45;&gt;Node10 -->
<g id="edge9" class="edge">
<title>Node1&#45;&gt;Node10</title>
<path fill="none" stroke="midnightblue" d="M842.36,-119.31C831.13,-117.7 819.6,-116.05 808.59,-114.47"/>
<polygon fill="midnightblue" stroke="midnightblue" points="842.16,-122.81 852.55,-120.77 843.15,-115.88 842.16,-122.81"/>
</g>
<!-- Node12 -->
<g id="node12" class="node">
<title>Node12</title>
<g id="a_node12"><a xlink:href="class_t_train.html#a81bf61b47a2867f0c6901b1ea6f47177" target="_top" xlink:title="Used in the floating window to display the timetable.">
<polygon fill="white" stroke="black" points="682.5,-41.5 682.5,-71.5 807.5,-71.5 807.5,-41.5 682.5,-41.5"/>
<text text-anchor="start" x="690.5" y="-59.5" font-family="Helvetica,sans-Serif" font-size="10.00">TTrain::FloatingTimetable</text>
<text text-anchor="middle" x="745" y="-48.5" font-family="Helvetica,sans-Serif" font-size="10.00">String</text>
</a>
</g>
</g>
<!-- Node1&#45;&gt;Node12 -->
<g id="edge12" class="edge">
<title>Node1&#45;&gt;Node12</title>
<path fill="none" stroke="midnightblue" d="M877.59,-109.71C859.68,-100.24 837.5,-89.12 817,-80.5 809.56,-77.37 801.56,-74.35 793.71,-71.57"/>
<polygon fill="midnightblue" stroke="midnightblue" points="876.07,-112.87 886.54,-114.49 879.37,-106.69 876.07,-112.87"/>
</g>
<!-- Node3 -->
<g id="node3" class="node">
<title>Node3</title>
<g id="a_node3"><a xlink:href="class_t_interface.html#adc9ce6e5ee756279efbe92fd749355bf" target="_top" xlink:title="Called when floating train info needed and train hasn&#39;t entered yet.">
<polygon fill="white" stroke="black" points="501,-235.5 501,-265.5 637,-265.5 637,-235.5 501,-235.5"/>
<text text-anchor="start" x="509" y="-253.5" font-family="Helvetica,sans-Serif" font-size="10.00">TInterface::GetTrainFloating</text>
<text text-anchor="middle" x="569" y="-242.5" font-family="Helvetica,sans-Serif" font-size="10.00">InfoFromContinuation</text>
</a>
</g>
</g>
<!-- Node2&#45;&gt;Node3 -->
<g id="edge2" class="edge">
<title>Node2&#45;&gt;Node3</title>
<path fill="none" stroke="midnightblue" d="M662.91,-238.22C654.29,-239.36 645.59,-240.51 637.15,-241.62"/>
<polygon fill="midnightblue" stroke="midnightblue" points="663.52,-241.67 672.98,-236.89 662.6,-234.73 663.52,-241.67"/>
</g>
<!-- Node4 -->
<g id="node4" class="node">
<title>Node4</title>
<g id="a_node4"><a xlink:href="class_t_interface.html#a9aaa19d39382a32701d7ded3b8c1802b" target="_top" xlink:title="Controls the floating window function, called during the ClockTimer2 function.">
<polygon fill="white" stroke="black" points="334,-94 334,-113 465,-113 465,-94 334,-94"/>
<text text-anchor="middle" x="399.5" y="-101" font-family="Helvetica,sans-Serif" font-size="10.00">TInterface::TrackTrainFloat</text>
</a>
</g>
</g>
<!-- Node3&#45;&gt;Node4 -->
<g id="edge3" class="edge">
<title>Node3&#45;&gt;Node4</title>
<path fill="none" stroke="midnightblue" d="M507.64,-230.74C505.34,-229.41 503.12,-228 501,-226.5 455.5,-194.37 419.23,-136.36 405.95,-113.32"/>
<polygon fill="midnightblue" stroke="midnightblue" points="506.29,-233.99 516.78,-235.49 509.52,-227.77 506.29,-233.99"/>
</g>
<!-- Node5 -->
<g id="node5" class="node">
<title>Node5</title>
<g id="a_node5"><a xlink:href="class_t_interface.html#a6139ffb52492eb89e5487a8a3cd647b5" target="_top" xlink:title="The main loop, called every clock tick via MasterClockTimer.">
<polygon fill="white" stroke="black" points="179,-94 179,-113 298,-113 298,-94 179,-94"/>
<text text-anchor="middle" x="238.5" y="-101" font-family="Helvetica,sans-Serif" font-size="10.00">TInterface::ClockTimer2</text>
</a>
</g>
</g>
<!-- Node4&#45;&gt;Node5 -->
<g id="edge4" class="edge">
<title>Node4&#45;&gt;Node5</title>
<path fill="none" stroke="midnightblue" d="M323.81,-103.5C315.22,-103.5 306.56,-103.5 298.23,-103.5"/>
<polygon fill="midnightblue" stroke="midnightblue" points="323.83,-107 333.83,-103.5 323.83,-100 323.83,-107"/>
</g>
<!-- Node6 -->
<g id="node6" class="node">
<title>Node6</title>
<g id="a_node6"><a xlink:href="class_t_interface.html#ace30a12d923fc7fb489afabb0a09aa4f" target="_top" xlink:title=" ">
<polygon fill="white" stroke="black" points="0,-94 0,-113 143,-113 143,-94 0,-94"/>
<text text-anchor="middle" x="71.5" y="-101" font-family="Helvetica,sans-Serif" font-size="10.00">TInterface::MasterClockTimer</text>
</a>
</g>
</g>
<!-- Node5&#45;&gt;Node6 -->
<g id="edge5" class="edge">
<title>Node5&#45;&gt;Node6</title>
<path fill="none" stroke="midnightblue" d="M168.67,-103.5C160.22,-103.5 151.57,-103.5 143.09,-103.5"/>
<polygon fill="midnightblue" stroke="midnightblue" points="168.86,-107 178.86,-103.5 168.86,-100 168.86,-107"/>
</g>
<!-- Node8 -->
<g id="node8" class="node">
<title>Node8</title>
<g id="a_node8"><a xlink:href="class_t_interface.html#ab7c52bd31930036c95b9b71c2f1f0426" target="_top" xlink:title=" ">
<polygon fill="white" stroke="black" points="503,-186.5 503,-216.5 635,-216.5 635,-186.5 503,-186.5"/>
<text text-anchor="start" x="511" y="-204.5" font-family="Helvetica,sans-Serif" font-size="10.00">TInterface::ExportTTButton</text>
<text text-anchor="middle" x="569" y="-193.5" font-family="Helvetica,sans-Serif" font-size="10.00">Click</text>
</a>
</g>
</g>
<!-- Node7&#45;&gt;Node8 -->
<g id="edge7" class="edge">
<title>Node7&#45;&gt;Node8</title>
<path fill="none" stroke="midnightblue" d="M678.39,-172.22C661,-176.92 642.4,-181.94 625.6,-186.48"/>
<polygon fill="midnightblue" stroke="midnightblue" points="679.73,-175.49 688.47,-169.5 677.9,-168.73 679.73,-175.49"/>
</g>
<!-- Node9 -->
<g id="node9" class="node">
<title>Node9</title>
<g id="a_node9"><a xlink:href="class_t_interface.html#a1bf4807428bf9fa4504be97d28642597" target="_top" xlink:title=" ">
<polygon fill="white" stroke="black" points="505,-137.5 505,-167.5 633,-167.5 633,-137.5 505,-137.5"/>
<text text-anchor="start" x="513" y="-155.5" font-family="Helvetica,sans-Serif" font-size="10.00">TInterface::ExportTTMenu</text>
<text text-anchor="middle" x="569" y="-144.5" font-family="Helvetica,sans-Serif" font-size="10.00">ItemClick</text>
</a>
</g>
</g>
<!-- Node7&#45;&gt;Node9 -->
<g id="edge8" class="edge">
<title>Node7&#45;&gt;Node9</title>
<path fill="none" stroke="midnightblue" d="M674.71,-153.7C660.94,-153.55 646.56,-153.38 633.02,-153.22"/>
<polygon fill="midnightblue" stroke="midnightblue" points="675.05,-157.21 685.09,-153.82 675.13,-150.21 675.05,-157.21"/>
</g>
<!-- Node11 -->
<g id="node11" class="node">
<title>Node11</title>
<g id="a_node11"><a xlink:href="class_t_interface.html#a51b94ffa3dc90fe4e3bec2f1ae28074e" target="_top" xlink:title="used for floating window to display train status">
<polygon fill="white" stroke="black" points="504,-88.5 504,-118.5 634,-118.5 634,-88.5 504,-88.5"/>
<text text-anchor="start" x="512" y="-106.5" font-family="Helvetica,sans-Serif" font-size="10.00">TInterface::GetTrainStatus</text>
<text text-anchor="middle" x="569" y="-95.5" font-family="Helvetica,sans-Serif" font-size="10.00">Float</text>
</a>
</g>
</g>
<!-- Node10&#45;&gt;Node11 -->
<g id="edge10" class="edge">
<title>Node10&#45;&gt;Node11</title>
<path fill="none" stroke="midnightblue" d="M671.02,-104.66C658.79,-104.52 646.18,-104.38 634.19,-104.24"/>
<polygon fill="midnightblue" stroke="midnightblue" points="671.14,-108.16 681.18,-104.78 671.22,-101.16 671.14,-108.16"/>
</g>
<!-- Node11&#45;&gt;Node4 -->
<g id="edge11" class="edge">
<title>Node11&#45;&gt;Node4</title>
<path fill="none" stroke="midnightblue" d="M493.54,-103.5C484.08,-103.5 474.45,-103.5 465.16,-103.5"/>
<polygon fill="midnightblue" stroke="midnightblue" points="493.72,-107 503.72,-103.5 493.72,-100 493.72,-107"/>
</g>
<!-- Node12&#45;&gt;Node4 -->
<g id="edge14" class="edge">
<title>Node12&#45;&gt;Node4</title>
<path fill="none" stroke="midnightblue" d="M672.39,-60.09C623.8,-63.23 558.23,-68.85 501,-78.5 478.13,-82.36 452.79,-88.67 433.27,-93.99"/>
<polygon fill="midnightblue" stroke="midnightblue" points="672.74,-63.57 682.5,-59.45 672.3,-56.59 672.74,-63.57"/>
</g>
<!-- Node13 -->
<g id="node13" class="node">
<title>Node13</title>
<g id="a_node13"><a xlink:href="class_t_interface.html#a40232083747ef274344eed7021c6f43c" target="_top" xlink:title=" ">
<polygon fill="white" stroke="black" points="503.5,-0.5 503.5,-30.5 634.5,-30.5 634.5,-0.5 503.5,-0.5"/>
<text text-anchor="start" x="511.5" y="-18.5" font-family="Helvetica,sans-Serif" font-size="10.00">TInterface::SkipTimetabled</text>
<text text-anchor="middle" x="569" y="-7.5" font-family="Helvetica,sans-Serif" font-size="10.00">ActionsMenuItemClick</text>
</a>
</g>
</g>
<!-- Node12&#45;&gt;Node13 -->
<g id="edge13" class="edge">
<title>Node12&#45;&gt;Node13</title>
<path fill="none" stroke="midnightblue" d="M672.07,-39.55C659.35,-36.55 646.17,-33.45 633.69,-30.51"/>
<polygon fill="midnightblue" stroke="midnightblue" points="671.63,-43.04 682.16,-41.93 673.23,-36.23 671.63,-43.04"/>
</g>
</g>
</svg>
