<?xml version="1.0" encoding="UTF-8" standalone="no"?>
<!DOCTYPE svg PUBLIC "-//W3C//DTD SVG 1.1//EN"
 "http://www.w3.org/Graphics/SVG/1.1/DTD/svg11.dtd">
<!-- Generated by graphviz version 2.44.1 (20200629.0800)
 -->
<!-- Title: TTrainController::SplitTrainInfo Pages: 1 -->
<svg width="498pt" height="133pt"
 viewBox="0.00 0.00 498.00 132.90" xmlns="http://www.w3.org/2000/svg" xmlns:xlink="http://www.w3.org/1999/xlink">
<g id="graph0" class="graph" transform="scale(1 1) rotate(0) translate(4 128.9)">
<title>TTrainController::SplitTrainInfo</title>
<polygon fill="white" stroke="transparent" points="-4,4 -4,-128.9 494,-128.9 494,4 -4,4"/>
<!-- Node1 -->
<g id="node1" class="node">
<title>Node1</title>
<g id="a_node1"><a xlink:title="Parse a train information entry, return true for success; PowerAtRail changed to double&amp; from int&amp; at...">
<polygon fill="#bfbfbf" stroke="black" points="0,-45.4 0,-64.4 146,-64.4 146,-45.4 0,-45.4"/>
<text text-anchor="middle" x="73" y="-52.4" font-family="Helvetica,sans-Serif" font-size="10.00">TTrainController::SplitTrainInfo</text>
</a>
</g>
</g>
<!-- Node2 -->
<g id="node2" class="node">
<title>Node2</title>
<g id="a_node2"><a xlink:href="class_t_utilities.html#ae1eddca13cc3c492839e131f40ec21c0" target="_top" xlink:title="pops the last entry off the call stack, throws an error if called when empty">
<polygon fill="white" stroke="black" points="369,-105.4 369,-124.4 479,-124.4 479,-105.4 369,-105.4"/>
<text text-anchor="middle" x="424" y="-112.4" font-family="Helvetica,sans-Serif" font-size="10.00">TUtilities::CallLogPop</text>
</a>
</g>
</g>
<!-- Node1&#45;&gt;Node2 -->
<g id="edge1" class="edge">
<title>Node1&#45;&gt;Node2</title>
<path fill="none" stroke="midnightblue" d="M111.82,-64.47C132.47,-69.49 158.55,-75.49 182,-79.9 241.55,-91.1 309.95,-100.73 358.63,-107.03"/>
<polygon fill="midnightblue" stroke="midnightblue" points="358.34,-110.53 368.71,-108.33 359.23,-103.58 358.34,-110.53"/>
</g>
<!-- Node3 -->
<g id="node3" class="node">
<title>Node3</title>
<g id="a_node3"><a xlink:href="class_t_train_controller.html#a1ccd6c8f2c24e7417889e1a91cb9ca2f" target="_top" xlink:title="Returns true if the headcode complies with requirements.">
<polygon fill="white" stroke="black" points="182,-17.9 182,-47.9 322,-47.9 322,-17.9 182,-17.9"/>
<text text-anchor="start" x="190" y="-35.9" font-family="Helvetica,sans-Serif" font-size="10.00">TTrainController::CheckHead</text>
<text text-anchor="middle" x="252" y="-24.9" font-family="Helvetica,sans-Serif" font-size="10.00">CodeValidity</text>
</a>
</g>
</g>
<!-- Node1&#45;&gt;Node3 -->
<g id="edge2" class="edge">
<title>Node1&#45;&gt;Node3</title>
<path fill="none" stroke="midnightblue" d="M146.25,-45.92C154.7,-44.87 163.35,-43.79 171.89,-42.73"/>
<polygon fill="midnightblue" stroke="midnightblue" points="172.35,-46.2 181.84,-41.5 171.49,-39.26 172.35,-46.2"/>
</g>
<!-- Node4 -->
<g id="node4" class="node">
<title>Node4</title>
<g id="a_node4"><a xlink:href="class_t_utilities.html#a34bd6bb5305bc29afdf424f6d35a921c" target="_top" xlink:title="creates a string of the form &#39;hh:mm:ss&#39; for use in call &amp; event logging">
<polygon fill="white" stroke="black" points="369,-67.4 369,-86.4 479,-86.4 479,-67.4 369,-67.4"/>
<text text-anchor="middle" x="424" y="-74.4" font-family="Helvetica,sans-Serif" font-size="10.00">TUtilities::TimeStamp</text>
</a>
</g>
</g>
<!-- Node1&#45;&gt;Node4 -->
<g id="edge7" class="edge">
<title>Node1&#45;&gt;Node4</title>
<path fill="none" stroke="midnightblue" d="M146.31,-59.46C208.88,-63.4 298.51,-69.05 358.63,-72.84"/>
<polygon fill="midnightblue" stroke="midnightblue" points="358.56,-76.35 368.76,-73.48 359,-69.36 358.56,-76.35"/>
</g>
<!-- Node5 -->
<g id="node5" class="node">
<title>Node5</title>
<g id="a_node5"><a xlink:href="class_t_train_controller.html#a68d2124bc8f7df43e973299e0afb3dcd" target="_top" xlink:title="Sends a message to the user if GiveMessages is true, including ServiceReference (see above) if not nu...">
<polygon fill="white" stroke="black" points="358,-17.9 358,-47.9 490,-47.9 490,-17.9 358,-17.9"/>
<text text-anchor="start" x="366" y="-35.9" font-family="Helvetica,sans-Serif" font-size="10.00">TTrainController::Timetable</text>
<text text-anchor="middle" x="424" y="-24.9" font-family="Helvetica,sans-Serif" font-size="10.00">Message</text>
</a>
</g>
</g>
<!-- Node1&#45;&gt;Node5 -->
<g id="edge8" class="edge">
<title>Node1&#45;&gt;Node5</title>
<path fill="none" stroke="midnightblue" d="M90.13,-45.36C110.65,-33.82 147.57,-15.07 182,-7.9 242.92,4.78 260.24,-0.37 322,-7.9 335.29,-9.52 349.35,-12.3 362.62,-15.43"/>
<polygon fill="midnightblue" stroke="midnightblue" points="362.04,-18.89 372.59,-17.87 363.71,-12.09 362.04,-18.89"/>
</g>
<!-- Node3&#45;&gt;Node2 -->
<g id="edge3" class="edge">
<title>Node3&#45;&gt;Node2</title>
<path fill="none" stroke="midnightblue" d="M274.64,-48.15C295.27,-62.12 327.62,-82.61 358,-95.9 363.31,-98.23 368.99,-100.36 374.7,-102.29"/>
<polygon fill="midnightblue" stroke="midnightblue" points="373.68,-105.64 384.27,-105.35 375.81,-98.97 373.68,-105.64"/>
</g>
<!-- Node3&#45;&gt;Node4 -->
<g id="edge4" class="edge">
<title>Node3&#45;&gt;Node4</title>
<path fill="none" stroke="midnightblue" d="M311.03,-47.92C332.34,-53.44 356.18,-59.61 376.36,-64.83"/>
<polygon fill="midnightblue" stroke="midnightblue" points="375.69,-68.27 386.25,-67.39 377.44,-61.49 375.69,-68.27"/>
</g>
<!-- Node3&#45;&gt;Node5 -->
<g id="edge5" class="edge">
<title>Node3&#45;&gt;Node5</title>
<path fill="none" stroke="midnightblue" d="M322.15,-26.26C330.51,-26.14 339.09,-26.12 347.54,-26.19"/>
<polygon fill="midnightblue" stroke="midnightblue" points="347.72,-29.69 357.76,-26.32 347.8,-22.69 347.72,-29.69"/>
</g>
<!-- Node5&#45;&gt;Node3 -->
<g id="edge6" class="edge">
<title>Node5&#45;&gt;Node3</title>
<path fill="none" stroke="midnightblue" d="M357.76,-39.49C349.38,-39.63 340.73,-39.68 332.15,-39.64"/>
<polygon fill="midnightblue" stroke="midnightblue" points="332.18,-36.14 322.15,-39.55 332.11,-43.14 332.18,-36.14"/>
</g>
</g>
</svg>
