<?xml version="1.0" encoding="UTF-8" standalone="no"?>
<!DOCTYPE svg PUBLIC "-//W3C//DTD SVG 1.1//EN"
 "http://www.w3.org/Graphics/SVG/1.1/DTD/svg11.dtd">
<!-- Generated by graphviz version 2.44.1 (20200629.0800)
 -->
<!-- Title: TPrefDirElement::TPrefDirElement Pages: 1 -->
<svg width="635pt" height="104pt"
 viewBox="0.00 0.00 635.00 103.88" xmlns="http://www.w3.org/2000/svg" xmlns:xlink="http://www.w3.org/1999/xlink">
<g id="graph0" class="graph" transform="scale(1 1) rotate(0) translate(4 99.88)">
<title>TPrefDirElement::TPrefDirElement</title>
<polygon fill="white" stroke="transparent" points="-4,4 -4,-99.88 631,-99.88 631,4 -4,4"/>
<!-- Node1 -->
<g id="node1" class="node">
<title>Node1</title>
<g id="a_node1"><a xlink:title="Constructs a PrefDirElement from supplied values.">
<polygon fill="#bfbfbf" stroke="black" points="0,-49.5 0,-79.5 128,-79.5 128,-49.5 0,-49.5"/>
<text text-anchor="start" x="8" y="-67.5" font-family="Helvetica,sans-Serif" font-size="10.00">TPrefDirElement::TPrefDir</text>
<text text-anchor="middle" x="64" y="-56.5" font-family="Helvetica,sans-Serif" font-size="10.00">Element</text>
</a>
</g>
</g>
<!-- Node2 -->
<g id="node2" class="node">
<title>Node2</title>
<g id="a_node2"><a xlink:href="class_t_pref_dir_element.html#ae8ee9f59578f80d23aebfdb9fff041d4" target="_top" xlink:title="determines and loads EXNumber (see above)">
<polygon fill="white" stroke="black" points="347,-46.5 347,-76.5 481,-76.5 481,-46.5 347,-46.5"/>
<text text-anchor="start" x="355" y="-64.5" font-family="Helvetica,sans-Serif" font-size="10.00">TPrefDirElement::EntryExit</text>
<text text-anchor="middle" x="414" y="-53.5" font-family="Helvetica,sans-Serif" font-size="10.00">Number</text>
</a>
</g>
</g>
<!-- Node1&#45;&gt;Node2 -->
<g id="edge1" class="edge">
<title>Node1&#45;&gt;Node2</title>
<path fill="none" stroke="midnightblue" d="M114.4,-79.53C130.1,-83.61 147.64,-87.47 164,-89.5 228.83,-97.56 246.25,-98.23 311,-89.5 326.68,-87.39 343.35,-83.53 358.58,-79.33"/>
<polygon fill="midnightblue" stroke="midnightblue" points="359.69,-82.65 368.35,-76.55 357.77,-75.92 359.69,-82.65"/>
</g>
<!-- Node5 -->
<g id="node5" class="node">
<title>Node5</title>
<g id="a_node5"><a xlink:href="class_t_pref_dir_element.html#a13526cb4ee94a708a7bfef517abaa605" target="_top" xlink:title="picks up the EntryDirectionGraphicPtr for preferred directions">
<polygon fill="white" stroke="black" points="164,-49.5 164,-79.5 311,-79.5 311,-49.5 164,-49.5"/>
<text text-anchor="start" x="172" y="-67.5" font-family="Helvetica,sans-Serif" font-size="10.00">TPrefDirElement::GetDirection</text>
<text text-anchor="middle" x="237.5" y="-56.5" font-family="Helvetica,sans-Serif" font-size="10.00">PrefDirGraphicPtr</text>
</a>
</g>
</g>
<!-- Node1&#45;&gt;Node5 -->
<g id="edge4" class="edge">
<title>Node1&#45;&gt;Node5</title>
<path fill="none" stroke="midnightblue" d="M128.37,-64.5C136.67,-64.5 145.27,-64.5 153.83,-64.5"/>
<polygon fill="midnightblue" stroke="midnightblue" points="153.84,-68 163.84,-64.5 153.84,-61 153.84,-68"/>
</g>
<!-- Node6 -->
<g id="node6" class="node">
<title>Node6</title>
<g id="a_node6"><a xlink:href="class_t_pref_dir_element.html#a10b4ff375e779de7cc2a16344959bb31" target="_top" xlink:title="picks up the EXGraphicPtr for preferred directions">
<polygon fill="white" stroke="black" points="174.5,-0.5 174.5,-30.5 300.5,-30.5 300.5,-0.5 174.5,-0.5"/>
<text text-anchor="start" x="182.5" y="-18.5" font-family="Helvetica,sans-Serif" font-size="10.00">TPrefDirElement::GetPref</text>
<text text-anchor="middle" x="237.5" y="-7.5" font-family="Helvetica,sans-Serif" font-size="10.00">DirGraphicPtr</text>
</a>
</g>
</g>
<!-- Node1&#45;&gt;Node6 -->
<g id="edge5" class="edge">
<title>Node1&#45;&gt;Node6</title>
<path fill="none" stroke="midnightblue" d="M117.86,-49.4C135.62,-44.32 155.62,-38.61 174.05,-33.34"/>
<polygon fill="midnightblue" stroke="midnightblue" points="175.17,-36.66 183.82,-30.55 173.24,-29.93 175.17,-36.66"/>
</g>
<!-- Node3 -->
<g id="node3" class="node">
<title>Node3</title>
<g id="a_node3"><a xlink:href="class_t_utilities.html#ae1eddca13cc3c492839e131f40ec21c0" target="_top" xlink:title="&lt; specifies whether no delays or minor, moderate or major random delays are to be applied">
<polygon fill="white" stroke="black" points="517,-71 517,-90 627,-90 627,-71 517,-71"/>
<text text-anchor="middle" x="572" y="-78" font-family="Helvetica,sans-Serif" font-size="10.00">TUtilities::CallLogPop</text>
</a>
</g>
</g>
<!-- Node2&#45;&gt;Node3 -->
<g id="edge2" class="edge">
<title>Node2&#45;&gt;Node3</title>
<path fill="none" stroke="midnightblue" d="M481.16,-69.56C489.54,-70.58 498.11,-71.62 506.47,-72.64"/>
<polygon fill="midnightblue" stroke="midnightblue" points="506.18,-76.13 516.53,-73.87 507.03,-69.18 506.18,-76.13"/>
</g>
<!-- Node4 -->
<g id="node4" class="node">
<title>Node4</title>
<g id="a_node4"><a xlink:href="class_t_utilities.html#a34bd6bb5305bc29afdf424f6d35a921c" target="_top" xlink:title="creates a string of the form &#39;hh:mm:ss&#39; for use in call &amp; event logging">
<polygon fill="white" stroke="black" points="517,-33 517,-52 627,-52 627,-33 517,-33"/>
<text text-anchor="middle" x="572" y="-40" font-family="Helvetica,sans-Serif" font-size="10.00">TUtilities::TimeStamp</text>
</a>
</g>
</g>
<!-- Node2&#45;&gt;Node4 -->
<g id="edge3" class="edge">
<title>Node2&#45;&gt;Node4</title>
<path fill="none" stroke="midnightblue" d="M481.16,-53.44C489.54,-52.42 498.11,-51.38 506.47,-50.36"/>
<polygon fill="midnightblue" stroke="midnightblue" points="507.03,-53.82 516.53,-49.13 506.18,-46.87 507.03,-53.82"/>
</g>
<!-- Node6&#45;&gt;Node2 -->
<g id="edge6" class="edge">
<title>Node6&#45;&gt;Node2</title>
<path fill="none" stroke="midnightblue" d="M295.64,-30.56C311.84,-34.83 329.62,-39.52 346.34,-43.93"/>
<polygon fill="midnightblue" stroke="midnightblue" points="345.47,-47.32 356.03,-46.48 347.25,-40.55 345.47,-47.32"/>
</g>
</g>
</svg>
