<?xml version="1.0" encoding="UTF-8" standalone="no"?>
<!DOCTYPE svg PUBLIC "-//W3C//DTD SVG 1.1//EN"
 "http://www.w3.org/Graphics/SVG/1.1/DTD/svg11.dtd">
<!-- Generated by graphviz version 2.44.1 (20200629.0800)
 -->
<!-- Title: TTrack::PlotAndAddTrackElement Pages: 1 -->
<svg width="1244pt" height="2576pt"
 viewBox="0.00 0.00 1244.00 2576.28" xmlns="http://www.w3.org/2000/svg" xmlns:xlink="http://www.w3.org/1999/xlink">
<g id="graph0" class="graph" transform="scale(1 1) rotate(0) translate(4 2572.28)">
<title>TTrack::PlotAndAddTrackElement</title>
<polygon fill="white" stroke="transparent" points="-4,4 -4,-2572.28 1240,-2572.28 1240,4 -4,4"/>
<!-- Node1 -->
<g id="node1" class="node">
<title>Node1</title>
<g id="a_node1"><a xlink:title="Called during track building or pasting, when an element identified by CurrentTag (i....">
<polygon fill="#bfbfbf" stroke="black" points="0,-1577.84 0,-1596.84 164,-1596.84 164,-1577.84 0,-1577.84"/>
<text text-anchor="middle" x="82" y="-1584.84" font-family="Helvetica,sans-Serif" font-size="10.00">TTrack::PlotAndAddTrackElement</text>
</a>
</g>
</g>
<!-- Node2 -->
<g id="node2" class="node">
<title>Node2</title>
<g id="a_node2"><a xlink:href="class_t_utilities.html#ae1eddca13cc3c492839e131f40ec21c0" target="_top" xlink:title="pops the last entry off the call stack, throws an error if called when empty">
<polygon fill="white" stroke="black" points="1126,-1545.84 1126,-1564.84 1236,-1564.84 1236,-1545.84 1126,-1545.84"/>
<text text-anchor="middle" x="1181" y="-1552.84" font-family="Helvetica,sans-Serif" font-size="10.00">TUtilities::CallLogPop</text>
</a>
</g>
</g>
<!-- Node1&#45;&gt;Node2 -->
<g id="edge1" class="edge">
<title>Node1&#45;&gt;Node2</title>
<path fill="none" stroke="midnightblue" d="M83.59,-1597.07C87.34,-1654.4 110.62,-1953.28 200,-2176.34 276.59,-2367.47 242.6,-2567.34 448.5,-2567.34 448.5,-2567.34 448.5,-2567.34 814.5,-2567.34 942.51,-2567.34 1008.94,-2582.41 1090,-2483.34 1149.64,-2410.45 1175.23,-1703.1 1179.38,-1575.14"/>
<polygon fill="midnightblue" stroke="midnightblue" points="1182.89,-1574.99 1179.71,-1564.88 1175.89,-1574.77 1182.89,-1574.99"/>
</g>
<!-- Node3 -->
<g id="node3" class="node">
<title>Node3</title>
<g id="a_node3"><a xlink:href="class_t_track.html#aaf3f48b8df9877499aaf4c05f804426c" target="_top" xlink:title="Validity test.">
<polygon fill="white" stroke="black" points="742.5,-1215.34 742.5,-1245.34 884.5,-1245.34 884.5,-1215.34 742.5,-1215.34"/>
<text text-anchor="start" x="750.5" y="-1233.34" font-family="Helvetica,sans-Serif" font-size="10.00">TTrack::CheckLocationName</text>
<text text-anchor="middle" x="813.5" y="-1222.34" font-family="Helvetica,sans-Serif" font-size="10.00">MultiMap</text>
</a>
</g>
</g>
<!-- Node1&#45;&gt;Node3 -->
<g id="edge2" class="edge">
<title>Node1&#45;&gt;Node3</title>
<path fill="none" stroke="midnightblue" d="M94.07,-1577.76C113.86,-1561.17 157.27,-1527.26 200,-1510.34 407.61,-1428.13 534.24,-1579.32 695,-1424.34 750.6,-1370.74 678.55,-1311.03 731,-1254.34 732.03,-1253.23 733.12,-1252.16 734.24,-1251.14"/>
<polygon fill="midnightblue" stroke="midnightblue" points="736.36,-1253.93 742.24,-1245.12 732.15,-1248.34 736.36,-1253.93"/>
</g>
<!-- Node5 -->
<g id="node5" class="node">
<title>Node5</title>
<g id="a_node5"><a xlink:href="class_t_utilities.html#a34bd6bb5305bc29afdf424f6d35a921c" target="_top" xlink:title="creates a string of the form &#39;hh:mm:ss&#39; for use in call &amp; event logging">
<polygon fill="white" stroke="black" points="1126,-913.84 1126,-932.84 1236,-932.84 1236,-913.84 1126,-913.84"/>
<text text-anchor="middle" x="1181" y="-920.84" font-family="Helvetica,sans-Serif" font-size="10.00">TUtilities::TimeStamp</text>
</a>
</g>
</g>
<!-- Node1&#45;&gt;Node5 -->
<g id="edge169" class="edge">
<title>Node1&#45;&gt;Node5</title>
<path fill="none" stroke="midnightblue" d="M83.31,-1577.55C87.08,-1459.94 125.49,-320.51 200,-193.34 267.4,-78.32 315.18,-25.34 448.5,-25.34 448.5,-25.34 448.5,-25.34 814.5,-25.34 937.21,-25.34 1001.66,41.82 1090,-43.34 1154.2,-105.23 1175.99,-779.11 1179.48,-903.62"/>
<polygon fill="midnightblue" stroke="midnightblue" points="1175.98,-903.74 1179.75,-913.64 1182.98,-903.55 1175.98,-903.74"/>
</g>
<!-- Node6 -->
<g id="node6" class="node">
<title>Node6</title>
<g id="a_node6"><a xlink:href="class_t_track.html#a418966e6fefb71b9d0c9b941197832da" target="_top" xlink:title="Similar to GetVectorPositionFromTrackMap but for inactive elements, a pair is returned because there ...">
<polygon fill="white" stroke="black" points="942.5,-1584.34 942.5,-1614.34 1079.5,-1614.34 1079.5,-1584.34 942.5,-1584.34"/>
<text text-anchor="start" x="950.5" y="-1602.34" font-family="Helvetica,sans-Serif" font-size="10.00">TTrack::GetVectorPositions</text>
<text text-anchor="middle" x="1011" y="-1591.34" font-family="Helvetica,sans-Serif" font-size="10.00">FromInactiveTrackMap</text>
</a>
</g>
</g>
<!-- Node1&#45;&gt;Node6 -->
<g id="edge30" class="edge">
<title>Node1&#45;&gt;Node6</title>
<path fill="none" stroke="midnightblue" d="M115.93,-1596.91C179.59,-1614.53 324.23,-1650.34 448.5,-1650.34 448.5,-1650.34 448.5,-1650.34 625.5,-1650.34 732.48,-1650.34 854.76,-1630.7 932.15,-1615.8"/>
<polygon fill="midnightblue" stroke="midnightblue" points="933.15,-1619.17 942.29,-1613.82 931.81,-1612.3 933.15,-1619.17"/>
</g>
<!-- Node7 -->
<g id="node7" class="node">
<title>Node7</title>
<g id="a_node7"><a xlink:href="class_t_track.html#a51f89cf70e94b037f6378cd78003d82b" target="_top" xlink:title="A range&#45;checked version of InactiveTrackVector.at(At)">
<polygon fill="white" stroke="black" points="934,-1469.84 934,-1488.84 1088,-1488.84 1088,-1469.84 934,-1469.84"/>
<text text-anchor="middle" x="1011" y="-1476.84" font-family="Helvetica,sans-Serif" font-size="10.00">TTrack::InactiveTrackElementAt</text>
</a>
</g>
</g>
<!-- Node1&#45;&gt;Node7 -->
<g id="edge31" class="edge">
<title>Node1&#45;&gt;Node7</title>
<path fill="none" stroke="midnightblue" d="M152.44,-1577.79C270.95,-1561.67 519.93,-1528.53 731,-1505.34 795.53,-1498.25 868.59,-1491.49 923.76,-1486.64"/>
<polygon fill="midnightblue" stroke="midnightblue" points="924.19,-1490.12 933.85,-1485.76 923.58,-1483.14 924.19,-1490.12"/>
</g>
<!-- Node8 -->
<g id="node8" class="node">
<title>Node8</title>
<g id="a_node8"><a xlink:href="class_t_track.html#ad377e5a1f152f2e89832c0f9bcfd261f" target="_top" xlink:title="A range&#45;checked version of TrackVector.at(At)">
<polygon fill="white" stroke="black" points="950,-875.84 950,-894.84 1072,-894.84 1072,-875.84 950,-875.84"/>
<text text-anchor="middle" x="1011" y="-882.84" font-family="Helvetica,sans-Serif" font-size="10.00">TTrack::TrackElementAt</text>
</a>
</g>
</g>
<!-- Node1&#45;&gt;Node8 -->
<g id="edge170" class="edge">
<title>Node1&#45;&gt;Node8</title>
<path fill="none" stroke="midnightblue" d="M83.24,-1577.65C84.94,-1523.03 98.41,-1249.37 200,-1059.34 304.01,-864.77 348.44,-791.46 554,-711.34 705.66,-652.24 760.1,-752.76 896,-842.34 912.06,-852.93 914.39,-858.62 932,-866.34 937.7,-868.84 943.78,-871.05 949.93,-872.98"/>
<polygon fill="midnightblue" stroke="midnightblue" points="949.05,-876.37 959.63,-875.81 951.01,-869.65 949.05,-876.37"/>
</g>
<!-- Node9 -->
<g id="node9" class="node">
<title>Node9</title>
<g id="a_node9"><a xlink:href="class_t_track.html#a6fa2d4f2c6c94e2c6b4f7218f5356108" target="_top" xlink:title="Validity test.">
<polygon fill="white" stroke="black" points="739.5,-1679.34 739.5,-1709.34 887.5,-1709.34 887.5,-1679.34 739.5,-1679.34"/>
<text text-anchor="start" x="747.5" y="-1697.34" font-family="Helvetica,sans-Serif" font-size="10.00">TTrack::CheckMapAndInactive</text>
<text text-anchor="middle" x="813.5" y="-1686.34" font-family="Helvetica,sans-Serif" font-size="10.00">Track</text>
</a>
</g>
</g>
<!-- Node1&#45;&gt;Node9 -->
<g id="edge17" class="edge">
<title>Node1&#45;&gt;Node9</title>
<path fill="none" stroke="midnightblue" d="M93.26,-1596.93C112.45,-1614.16 155.85,-1649.93 200,-1664.34 381.2,-1723.49 608.52,-1714.58 728.83,-1703.88"/>
<polygon fill="midnightblue" stroke="midnightblue" points="729.44,-1707.34 739.07,-1702.94 728.8,-1700.36 729.44,-1707.34"/>
</g>
<!-- Node10 -->
<g id="node10" class="node">
<title>Node10</title>
<g id="a_node10"><a xlink:href="class_t_track.html#a4045fe3f4a71f30a137a7e4581d39231" target="_top" xlink:title="Validity test.">
<polygon fill="white" stroke="black" points="743.5,-547.84 743.5,-566.84 883.5,-566.84 883.5,-547.84 743.5,-547.84"/>
<text text-anchor="middle" x="813.5" y="-554.84" font-family="Helvetica,sans-Serif" font-size="10.00">TTrack::CheckMapAndTrack</text>
</a>
</g>
</g>
<!-- Node1&#45;&gt;Node10 -->
<g id="edge22" class="edge">
<title>Node1&#45;&gt;Node10</title>
<path fill="none" stroke="midnightblue" d="M83.48,-1577.83C88.35,-1483.11 130.06,-711.11 200,-640.34 351.35,-487.2 641.73,-523.13 760.21,-545.83"/>
<polygon fill="midnightblue" stroke="midnightblue" points="759.64,-549.28 770.13,-547.77 760.99,-542.41 759.64,-549.28"/>
</g>
<!-- Node11 -->
<g id="node11" class="node">
<title>Node11</title>
<g id="a_node11"><a xlink:href="class_t_track.html#aa0812972d1ae27198c5fbca8aa7b6134" target="_top" xlink:title="Returns the track vector position corresponding to the Hloc &amp; VLoc positions, FoundFlag indicates whe...">
<polygon fill="white" stroke="black" points="945.5,-282.34 945.5,-312.34 1076.5,-312.34 1076.5,-282.34 945.5,-282.34"/>
<text text-anchor="start" x="953.5" y="-300.34" font-family="Helvetica,sans-Serif" font-size="10.00">TTrack::GetVectorPosition</text>
<text text-anchor="middle" x="1011" y="-289.34" font-family="Helvetica,sans-Serif" font-size="10.00">FromTrackMap</text>
</a>
</g>
</g>
<!-- Node1&#45;&gt;Node11 -->
<g id="edge29" class="edge">
<title>Node1&#45;&gt;Node11</title>
<path fill="none" stroke="midnightblue" d="M83.26,-1577.71C86.9,-1452.08 132.51,-139.34 448.5,-139.34 448.5,-139.34 448.5,-139.34 625.5,-139.34 767.89,-139.34 919.18,-233.19 981.08,-276.23"/>
<polygon fill="midnightblue" stroke="midnightblue" points="979.36,-279.3 989.55,-282.19 983.39,-273.57 979.36,-279.3"/>
</g>
<!-- Node12 -->
<g id="node12" class="node">
<title>Node12</title>
<g id="a_node12"><a xlink:href="class_t_track.html#af56adb319c7003b8ddac8e55afaee3d2" target="_top" xlink:title="Plot points on screen according to how they are set (Attribute value), or, with both fillets if BothF...">
<polygon fill="white" stroke="black" points="765,-2056.84 765,-2075.84 862,-2075.84 862,-2056.84 765,-2056.84"/>
<text text-anchor="middle" x="813.5" y="-2063.84" font-family="Helvetica,sans-Serif" font-size="10.00">TTrack::PlotPoints</text>
</a>
</g>
</g>
<!-- Node1&#45;&gt;Node12 -->
<g id="edge32" class="edge">
<title>Node1&#45;&gt;Node12</title>
<path fill="none" stroke="midnightblue" d="M83.95,-1597.02C90.11,-1657.51 126.38,-1982.91 200,-2042.34 372.27,-2181.4 669.05,-2110.3 774.2,-2078.77"/>
<polygon fill="midnightblue" stroke="midnightblue" points="775.22,-2082.12 783.77,-2075.85 773.18,-2075.43 775.22,-2082.12"/>
</g>
<!-- Node17 -->
<g id="node17" class="node">
<title>Node17</title>
<g id="a_node17"><a xlink:href="class_t_track_element.html#a453377f8db5e108cb274464333e1100f" target="_top" xlink:title="Plot the element on the display &#39;variable&#39; indicates that the element may be named and if so may be p...">
<polygon fill="white" stroke="black" points="941,-1976.34 941,-2006.34 1081,-2006.34 1081,-1976.34 941,-1976.34"/>
<text text-anchor="start" x="949" y="-1994.34" font-family="Helvetica,sans-Serif" font-size="10.00">TTrackElement::PlotVariable</text>
<text text-anchor="middle" x="1011" y="-1983.34" font-family="Helvetica,sans-Serif" font-size="10.00">TrackElement</text>
</a>
</g>
</g>
<!-- Node1&#45;&gt;Node17 -->
<g id="edge73" class="edge">
<title>Node1&#45;&gt;Node17</title>
<path fill="none" stroke="midnightblue" d="M85.59,-1596.96C103.61,-1661.46 216.31,-2028.34 448.5,-2028.34 448.5,-2028.34 448.5,-2028.34 625.5,-2028.34 731.4,-2028.34 852.95,-2014.26 930.55,-2003.48"/>
<polygon fill="midnightblue" stroke="midnightblue" points="931.32,-2006.9 940.73,-2002.04 930.34,-1999.97 931.32,-2006.9"/>
</g>
<!-- Node18 -->
<g id="node18" class="node">
<title>Node18</title>
<g id="a_node18"><a xlink:href="class_t_track.html#adbaf9ab8b709af9d194603892ac91133" target="_top" xlink:title="Plot &amp; close (to trains) all level crossings linked to TrackElement &#45; always plots as red &#45; auto.">
<polygon fill="white" stroke="black" points="560.5,-1893.34 560.5,-1923.34 688.5,-1923.34 688.5,-1893.34 560.5,-1893.34"/>
<text text-anchor="start" x="568.5" y="-1911.34" font-family="Helvetica,sans-Serif" font-size="10.00">TTrack::PlotRaisedLinked</text>
<text text-anchor="middle" x="624.5" y="-1900.34" font-family="Helvetica,sans-Serif" font-size="10.00">LevelCrossingBarriers</text>
</a>
</g>
</g>
<!-- Node1&#45;&gt;Node18 -->
<g id="edge48" class="edge">
<title>Node1&#45;&gt;Node18</title>
<path fill="none" stroke="midnightblue" d="M87.3,-1597.11C100.22,-1625.36 141.42,-1708.06 200,-1753.34 306.27,-1835.5 460.32,-1877.15 550.37,-1895.69"/>
<polygon fill="midnightblue" stroke="midnightblue" points="549.72,-1899.13 560.22,-1897.68 551.11,-1892.27 549.72,-1899.13"/>
</g>
<!-- Node21 -->
<g id="node21" class="node">
<title>Node21</title>
<g id="a_node21"><a xlink:href="class_t_track.html#aa5742fbc2eb3f8743dde84005499f89e" target="_top" xlink:title="Plot signals on screen according to their aspect (Attribute value)">
<polygon fill="white" stroke="black" points="576.5,-1838.84 576.5,-1857.84 672.5,-1857.84 672.5,-1838.84 576.5,-1838.84"/>
<text text-anchor="middle" x="624.5" y="-1845.84" font-family="Helvetica,sans-Serif" font-size="10.00">TTrack::PlotSignal</text>
</a>
</g>
</g>
<!-- Node1&#45;&gt;Node21 -->
<g id="edge58" class="edge">
<title>Node1&#45;&gt;Node21</title>
<path fill="none" stroke="midnightblue" d="M90.07,-1597.09C106.73,-1619.41 150.8,-1674.66 200,-1705.34 319.11,-1779.63 481.35,-1820.33 566.29,-1837.82"/>
<polygon fill="midnightblue" stroke="midnightblue" points="565.76,-1841.29 576.26,-1839.84 567.15,-1834.43 565.76,-1841.29"/>
</g>
<!-- Node24 -->
<g id="node24" class="node">
<title>Node24</title>
<g id="a_node24"><a xlink:href="class_t_track.html#a68519138e3b39b6ab9433cc9f7862c64" target="_top" xlink:title="Checks all locations that are adjacent to the one entered for linked named location elements.">
<polygon fill="white" stroke="black" points="200,-1069.34 200,-1099.34 345,-1099.34 345,-1069.34 200,-1069.34"/>
<text text-anchor="start" x="208" y="-1087.34" font-family="Helvetica,sans-Serif" font-size="10.00">TTrack::SearchForAndUpdate</text>
<text text-anchor="middle" x="272.5" y="-1076.34" font-family="Helvetica,sans-Serif" font-size="10.00">LocationName</text>
</a>
</g>
</g>
<!-- Node1&#45;&gt;Node24 -->
<g id="edge74" class="edge">
<title>Node1&#45;&gt;Node24</title>
<path fill="none" stroke="midnightblue" d="M86.6,-1577.74C108.85,-1518.37 227.9,-1200.7 262.23,-1109.09"/>
<polygon fill="midnightblue" stroke="midnightblue" points="265.58,-1110.12 265.81,-1099.53 259.02,-1107.66 265.58,-1110.12"/>
</g>
<!-- Node44 -->
<g id="node44" class="node">
<title>Node44</title>
<g id="a_node44"><a xlink:href="class_t_track.html#a31296f2176bd672769e1852ca90ddd51" target="_top" xlink:title="Convert the position values for the TrackElement into an identification string and load in ElementID.">
<polygon fill="white" stroke="black" points="757.5,-2405.84 757.5,-2424.84 869.5,-2424.84 869.5,-2405.84 757.5,-2405.84"/>
<text text-anchor="middle" x="813.5" y="-2412.84" font-family="Helvetica,sans-Serif" font-size="10.00">TTrack::SetElementID</text>
</a>
</g>
</g>
<!-- Node1&#45;&gt;Node44 -->
<g id="edge165" class="edge">
<title>Node1&#45;&gt;Node44</title>
<path fill="none" stroke="midnightblue" d="M82.57,-1597.06C80.65,-1651.73 77.72,-1924.34 200,-2089.34 362.31,-2308.36 477.5,-2296.08 731,-2396.34 737.35,-2398.86 744.12,-2401.09 750.94,-2403.05"/>
<polygon fill="midnightblue" stroke="midnightblue" points="750.36,-2406.52 760.93,-2405.75 752.18,-2399.76 750.36,-2406.52"/>
</g>
<!-- Node45 -->
<g id="node45" class="node">
<title>Node45</title>
<g id="a_node45"><a xlink:href="class_t_track.html#a2d8f9445f873689b8e71d3f8efc7c7d3" target="_top" xlink:title="Insert TrackElement into the relevant vector and map, and, if named, insert the name in LocationNameM...">
<polygon fill="white" stroke="black" points="764.5,-1100.84 764.5,-1119.84 862.5,-1119.84 862.5,-1100.84 764.5,-1100.84"/>
<text text-anchor="middle" x="813.5" y="-1107.84" font-family="Helvetica,sans-Serif" font-size="10.00">TTrack::TrackPush</text>
</a>
</g>
</g>
<!-- Node1&#45;&gt;Node45 -->
<g id="edge171" class="edge">
<title>Node1&#45;&gt;Node45</title>
<path fill="none" stroke="midnightblue" d="M92.55,-1577.63C111.95,-1558.16 157.68,-1513.35 200,-1480.34 423.07,-1306.35 471.16,-1241.22 731,-1129.34 738.4,-1126.16 746.42,-1123.46 754.44,-1121.19"/>
<polygon fill="midnightblue" stroke="midnightblue" points="755.4,-1124.55 764.18,-1118.63 753.62,-1117.78 755.4,-1124.55"/>
</g>
<!-- Node3&#45;&gt;Node2 -->
<g id="edge3" class="edge">
<title>Node3&#45;&gt;Node2</title>
<path fill="none" stroke="midnightblue" d="M867.9,-1245.39C938.61,-1266.25 1058.1,-1305.03 1090,-1337.34 1146.92,-1394.99 1169.62,-1493.75 1176.99,-1535.64"/>
<polygon fill="midnightblue" stroke="midnightblue" points="1173.56,-1536.35 1178.65,-1545.65 1180.47,-1535.21 1173.56,-1536.35"/>
</g>
<!-- Node4 -->
<g id="node4" class="node">
<title>Node4</title>
<g id="a_node4"><a xlink:href="class_t_track.html#a694370e3ec67d43da1d8333e06d9ebba" target="_top" xlink:title="Searches LocationNameMultiMap to check if the element pointed to by the TTrackVectorIterator has the ...">
<polygon fill="white" stroke="black" points="942.5,-1116.34 942.5,-1146.34 1079.5,-1146.34 1079.5,-1116.34 942.5,-1116.34"/>
<text text-anchor="start" x="950.5" y="-1134.34" font-family="Helvetica,sans-Serif" font-size="10.00">TTrack::FindNamedElement</text>
<text text-anchor="middle" x="1011" y="-1123.34" font-family="Helvetica,sans-Serif" font-size="10.00">InLocationNameMultiMap</text>
</a>
</g>
</g>
<!-- Node3&#45;&gt;Node4 -->
<g id="edge4" class="edge">
<title>Node3&#45;&gt;Node4</title>
<path fill="none" stroke="midnightblue" d="M860.4,-1215.19C872.19,-1210.83 884.72,-1205.77 896,-1200.34 925.45,-1186.17 957.1,-1166.63 979.57,-1151.96"/>
<polygon fill="midnightblue" stroke="midnightblue" points="981.58,-1154.83 988,-1146.4 977.73,-1148.99 981.58,-1154.83"/>
</g>
<!-- Node3&#45;&gt;Node5 -->
<g id="edge13" class="edge">
<title>Node3&#45;&gt;Node5</title>
<path fill="none" stroke="midnightblue" d="M871.24,-1215.16C880.33,-1210.84 889.02,-1205.33 896,-1198.34 927.03,-1167.28 898.99,-1135.29 932,-1106.34 986.38,-1058.65 1031.43,-1109.79 1090,-1067.34 1134.2,-1035.31 1161.55,-974.28 1173.29,-942.96"/>
<polygon fill="midnightblue" stroke="midnightblue" points="1176.71,-943.81 1176.8,-933.21 1170.12,-941.44 1176.71,-943.81"/>
</g>
<!-- Node3&#45;&gt;Node6 -->
<g id="edge7" class="edge">
<title>Node3&#45;&gt;Node6</title>
<path fill="none" stroke="midnightblue" d="M884.65,-1244.64C888.86,-1247.35 892.71,-1250.56 896,-1254.34 967.9,-1337.08 889.11,-1397.46 932,-1498.34 944.88,-1528.63 969.07,-1557.77 987.11,-1576.9"/>
<polygon fill="midnightblue" stroke="midnightblue" points="984.71,-1579.45 994.17,-1584.21 989.75,-1574.59 984.71,-1579.45"/>
</g>
<!-- Node3&#45;&gt;Node7 -->
<g id="edge10" class="edge">
<title>Node3&#45;&gt;Node7</title>
<path fill="none" stroke="midnightblue" d="M882.58,-1245.53C887.37,-1248.03 891.92,-1250.95 896,-1254.34 930.65,-1283.18 983.3,-1411.17 1002.59,-1460.17"/>
<polygon fill="midnightblue" stroke="midnightblue" points="999.38,-1461.57 1006.28,-1469.61 1005.9,-1459.02 999.38,-1461.57"/>
</g>
<!-- Node3&#45;&gt;Node8 -->
<g id="edge14" class="edge">
<title>Node3&#45;&gt;Node8</title>
<path fill="none" stroke="midnightblue" d="M842.72,-1215.25C860.6,-1204.26 882.77,-1187.75 896,-1167.34 933.04,-1110.17 906.49,-1081.52 932,-1018.34 949.6,-974.76 979.74,-928.4 996.95,-903.57"/>
<polygon fill="midnightblue" stroke="midnightblue" points="999.97,-905.36 1002.86,-895.16 994.25,-901.33 999.97,-905.36"/>
</g>
<!-- Node4&#45;&gt;Node2 -->
<g id="edge5" class="edge">
<title>Node4&#45;&gt;Node2</title>
<path fill="none" stroke="midnightblue" d="M1070.69,-1146.42C1077.95,-1150.31 1084.68,-1155.2 1090,-1161.34 1140.05,-1219.1 1170.09,-1463.87 1177.93,-1535.54"/>
<polygon fill="midnightblue" stroke="midnightblue" points="1174.46,-1535.94 1179,-1545.51 1181.42,-1535.19 1174.46,-1535.94"/>
</g>
<!-- Node4&#45;&gt;Node5 -->
<g id="edge6" class="edge">
<title>Node4&#45;&gt;Node5</title>
<path fill="none" stroke="midnightblue" d="M1066.99,-1116.16C1075.31,-1112.24 1083.33,-1107.37 1090,-1101.34 1139.36,-1056.73 1165.32,-978.83 1175.21,-942.73"/>
<polygon fill="midnightblue" stroke="midnightblue" points="1178.62,-943.51 1177.76,-932.95 1171.85,-941.74 1178.62,-943.51"/>
</g>
<!-- Node6&#45;&gt;Node2 -->
<g id="edge8" class="edge">
<title>Node6&#45;&gt;Node2</title>
<path fill="none" stroke="midnightblue" d="M1069.35,-1584.32C1090.41,-1578.81 1113.96,-1572.64 1133.91,-1567.41"/>
<polygon fill="midnightblue" stroke="midnightblue" points="1134.89,-1570.77 1143.68,-1564.85 1133.12,-1564 1134.89,-1570.77"/>
</g>
<!-- Node6&#45;&gt;Node5 -->
<g id="edge9" class="edge">
<title>Node6&#45;&gt;Node5</title>
<path fill="none" stroke="midnightblue" d="M1037.35,-1584.21C1055.1,-1572.2 1077.76,-1553.73 1090,-1531.34 1147.62,-1425.96 1173.5,-1035.78 1178.9,-943.16"/>
<polygon fill="midnightblue" stroke="midnightblue" points="1182.4,-943.35 1179.47,-933.16 1175.41,-942.95 1182.4,-943.35"/>
</g>
<!-- Node7&#45;&gt;Node2 -->
<g id="edge11" class="edge">
<title>Node7&#45;&gt;Node2</title>
<path fill="none" stroke="midnightblue" d="M1033.28,-1488.97C1062.69,-1502.27 1115.94,-1526.36 1149.56,-1541.57"/>
<polygon fill="midnightblue" stroke="midnightblue" points="1148.34,-1544.86 1158.9,-1545.8 1151.23,-1538.48 1148.34,-1544.86"/>
</g>
<!-- Node7&#45;&gt;Node5 -->
<g id="edge12" class="edge">
<title>Node7&#45;&gt;Node5</title>
<path fill="none" stroke="midnightblue" d="M1022.22,-1469.63C1039.16,-1452.89 1072.89,-1416.79 1090,-1379.34 1161.82,-1222.18 1176.46,-1008.87 1179.33,-943.32"/>
<polygon fill="midnightblue" stroke="midnightblue" points="1182.83,-943.29 1179.73,-933.16 1175.84,-943.01 1182.83,-943.29"/>
</g>
<!-- Node8&#45;&gt;Node2 -->
<g id="edge15" class="edge">
<title>Node8&#45;&gt;Node2</title>
<path fill="none" stroke="midnightblue" d="M1019.41,-895.06C1035.14,-916.21 1071.91,-968.52 1090,-1018.34 1160.13,-1211.51 1176.05,-1463.86 1179.26,-1535.57"/>
<polygon fill="midnightblue" stroke="midnightblue" points="1175.78,-1535.98 1179.69,-1545.83 1182.77,-1535.69 1175.78,-1535.98"/>
</g>
<!-- Node8&#45;&gt;Node5 -->
<g id="edge16" class="edge">
<title>Node8&#45;&gt;Node5</title>
<path fill="none" stroke="midnightblue" d="M1054.39,-894.93C1076.76,-899.99 1104.4,-906.24 1128.05,-911.59"/>
<polygon fill="midnightblue" stroke="midnightblue" points="1127.39,-915.03 1137.91,-913.82 1128.93,-908.2 1127.39,-915.03"/>
</g>
<!-- Node9&#45;&gt;Node2 -->
<g id="edge18" class="edge">
<title>Node9&#45;&gt;Node2</title>
<path fill="none" stroke="midnightblue" d="M887.77,-1698.11C945.88,-1698.01 1027.43,-1690.77 1090,-1657.34 1126.43,-1637.88 1155.09,-1597.4 1169.6,-1573.71"/>
<polygon fill="midnightblue" stroke="midnightblue" points="1172.69,-1575.36 1174.77,-1564.97 1166.66,-1571.79 1172.69,-1575.36"/>
</g>
<!-- Node9&#45;&gt;Node5 -->
<g id="edge21" class="edge">
<title>Node9&#45;&gt;Node5</title>
<path fill="none" stroke="midnightblue" d="M880.37,-1679.32C959.6,-1660.96 1082.93,-1631.35 1090,-1623.34 1136.45,-1570.72 1171.86,-1051.44 1178.77,-943.09"/>
<polygon fill="midnightblue" stroke="midnightblue" points="1182.28,-943.13 1179.41,-932.93 1175.29,-942.69 1182.28,-943.13"/>
</g>
<!-- Node9&#45;&gt;Node6 -->
<g id="edge19" class="edge">
<title>Node9&#45;&gt;Node6</title>
<path fill="none" stroke="midnightblue" d="M865.62,-1679.26C876.06,-1675.17 886.69,-1670.21 896,-1664.34 914.88,-1652.45 913.2,-1641.37 932,-1629.34 938.22,-1625.36 945.04,-1621.78 951.99,-1618.6"/>
<polygon fill="midnightblue" stroke="midnightblue" points="953.7,-1621.67 961.5,-1614.5 950.93,-1615.24 953.7,-1621.67"/>
</g>
<!-- Node9&#45;&gt;Node7 -->
<g id="edge20" class="edge">
<title>Node9&#45;&gt;Node7</title>
<path fill="none" stroke="midnightblue" d="M828.25,-1679.22C863.54,-1640.41 957.16,-1537.46 994.4,-1496.5"/>
<polygon fill="midnightblue" stroke="midnightblue" points="997.12,-1498.71 1001.26,-1488.96 991.94,-1494 997.12,-1498.71"/>
</g>
<!-- Node10&#45;&gt;Node2 -->
<g id="edge23" class="edge">
<title>Node10&#45;&gt;Node2</title>
<path fill="none" stroke="midnightblue" d="M875.09,-566.94C882.7,-570.01 889.92,-574.05 896,-579.34 926.93,-606.3 900.31,-638.29 932,-664.34 987.42,-709.9 1041.91,-644.11 1090,-697.34 1104.59,-713.49 1166.91,-1407.97 1178.23,-1535.37"/>
<polygon fill="midnightblue" stroke="midnightblue" points="1174.77,-1535.96 1179.14,-1545.61 1181.74,-1535.34 1174.77,-1535.96"/>
</g>
<!-- Node10&#45;&gt;Node5 -->
<g id="edge27" class="edge">
<title>Node10&#45;&gt;Node5</title>
<path fill="none" stroke="midnightblue" d="M865.96,-547.7C876.49,-544.26 887.06,-539.61 896,-533.34 918.12,-517.82 907.89,-496.55 932,-484.34 994.65,-452.63 1035.59,-439.95 1090,-484.34 1156.37,-538.49 1175.15,-824.28 1179.11,-903.16"/>
<polygon fill="midnightblue" stroke="midnightblue" points="1175.63,-903.79 1179.6,-913.61 1182.62,-903.46 1175.63,-903.79"/>
</g>
<!-- Node10&#45;&gt;Node8 -->
<g id="edge28" class="edge">
<title>Node10&#45;&gt;Node8</title>
<path fill="none" stroke="midnightblue" d="M879.73,-567C885.87,-570.12 891.48,-574.15 896,-579.34 980.38,-676.33 846.43,-770.4 932,-866.34 934.61,-869.27 937.59,-871.79 940.83,-873.94"/>
<polygon fill="midnightblue" stroke="midnightblue" points="939.46,-877.18 949.92,-878.85 942.78,-871.02 939.46,-877.18"/>
</g>
<!-- Node10&#45;&gt;Node11 -->
<g id="edge24" class="edge">
<title>Node10&#45;&gt;Node11</title>
<path fill="none" stroke="midnightblue" d="M821.69,-547.78C849.61,-510.65 951.34,-375.36 992.52,-320.59"/>
<polygon fill="midnightblue" stroke="midnightblue" points="995.37,-322.62 998.59,-312.52 989.78,-318.41 995.37,-322.62"/>
</g>
<!-- Node11&#45;&gt;Node2 -->
<g id="edge25" class="edge">
<title>Node11&#45;&gt;Node2</title>
<path fill="none" stroke="midnightblue" d="M1017.89,-312.46C1032.74,-351.27 1071.82,-457.89 1090,-550.34 1092.48,-562.93 1165.88,-1395.1 1178.24,-1535.37"/>
<polygon fill="midnightblue" stroke="midnightblue" points="1174.77,-1535.87 1179.14,-1545.53 1181.74,-1535.26 1174.77,-1535.87"/>
</g>
<!-- Node11&#45;&gt;Node5 -->
<g id="edge26" class="edge">
<title>Node11&#45;&gt;Node5</title>
<path fill="none" stroke="midnightblue" d="M1071.89,-312.49C1078.79,-316.37 1085.09,-321.23 1090,-327.34 1163.76,-419.17 1177.39,-810.35 1179.61,-903.42"/>
<polygon fill="midnightblue" stroke="midnightblue" points="1176.11,-903.54 1179.83,-913.46 1183.11,-903.39 1176.11,-903.54"/>
</g>
<!-- Node12&#45;&gt;Node2 -->
<g id="edge33" class="edge">
<title>Node12&#45;&gt;Node2</title>
<path fill="none" stroke="midnightblue" d="M845,-2075.93C901.04,-2091.45 1020.95,-2114.65 1090,-2054.34 1163.85,-1989.84 1177.32,-1659.76 1179.58,-1575.13"/>
<polygon fill="midnightblue" stroke="midnightblue" points="1183.08,-1575.15 1179.82,-1565.07 1176.08,-1574.98 1183.08,-1575.15"/>
</g>
<!-- Node12&#45;&gt;Node5 -->
<g id="edge47" class="edge">
<title>Node12&#45;&gt;Node5</title>
<path fill="none" stroke="midnightblue" d="M822.89,-2056.79C840.84,-2036.96 885.17,-1991.19 932,-1967.34 996.45,-1934.52 1042.9,-1983.24 1090,-1928.34 1092.09,-1925.9 1165.97,-1083.55 1178.27,-943.09"/>
<polygon fill="midnightblue" stroke="midnightblue" points="1181.77,-943.21 1179.16,-932.94 1174.8,-942.6 1181.77,-943.21"/>
</g>
<!-- Node12&#45;&gt;Node6 -->
<g id="edge35" class="edge">
<title>Node12&#45;&gt;Node6</title>
<path fill="none" stroke="midnightblue" d="M818.58,-2056.59C842.37,-1999.77 963.27,-1710.96 999.64,-1624.09"/>
<polygon fill="midnightblue" stroke="midnightblue" points="1002.92,-1625.33 1003.55,-1614.75 996.46,-1622.62 1002.92,-1625.33"/>
</g>
<!-- Node12&#45;&gt;Node7 -->
<g id="edge36" class="edge">
<title>Node12&#45;&gt;Node7</title>
<path fill="none" stroke="midnightblue" d="M818.36,-2056.39C831.25,-2022.73 873.33,-1909.93 896,-1813.34 920.55,-1708.76 888.35,-1672.49 932,-1574.34 945.91,-1543.06 973.02,-1513.68 991.32,-1496.1"/>
<polygon fill="midnightblue" stroke="midnightblue" points="994.12,-1498.27 999.03,-1488.89 989.34,-1493.16 994.12,-1498.27"/>
</g>
<!-- Node13 -->
<g id="node13" class="node">
<title>Node13</title>
<g id="a_node13"><a xlink:href="class_t_display.html#a33f7067eea9e638bdc363bd0af70d7d5" target="_top" xlink:title="Return a pointer to the screen image.">
<polygon fill="white" stroke="black" points="960,-2215.84 960,-2234.84 1062,-2234.84 1062,-2215.84 960,-2215.84"/>
<text text-anchor="middle" x="1011" y="-2222.84" font-family="Helvetica,sans-Serif" font-size="10.00">TDisplay::GetImage</text>
</a>
</g>
</g>
<!-- Node12&#45;&gt;Node13 -->
<g id="edge34" class="edge">
<title>Node12&#45;&gt;Node13</title>
<path fill="none" stroke="midnightblue" d="M826.44,-2076.05C859.1,-2102.61 950.18,-2176.69 990.44,-2209.44"/>
<polygon fill="midnightblue" stroke="midnightblue" points="988.25,-2212.17 998.22,-2215.76 992.67,-2206.74 988.25,-2212.17"/>
</g>
<!-- Node14 -->
<g id="node14" class="node">
<title>Node14</title>
<g id="a_node14"><a xlink:href="class_t_track_element.html#a100bff829c4dca820927affde4cb9e57" target="_top" xlink:title="Used to log track parameters for call stack logging.">
<polygon fill="white" stroke="black" points="947,-2291.84 947,-2310.84 1075,-2310.84 1075,-2291.84 947,-2291.84"/>
<text text-anchor="middle" x="1011" y="-2298.84" font-family="Helvetica,sans-Serif" font-size="10.00">TTrackElement::LogTrack</text>
</a>
</g>
</g>
<!-- Node12&#45;&gt;Node14 -->
<g id="edge37" class="edge">
<title>Node12&#45;&gt;Node14</title>
<path fill="none" stroke="midnightblue" d="M819.32,-2076.07C833.65,-2104.34 878.34,-2188.06 932,-2244.34 947.72,-2260.83 968.72,-2275.87 984.97,-2286.36"/>
<polygon fill="midnightblue" stroke="midnightblue" points="983.12,-2289.33 993.45,-2291.69 986.85,-2283.4 983.12,-2289.33"/>
</g>
<!-- Node15 -->
<g id="node15" class="node">
<title>Node15</title>
<g id="a_node15"><a xlink:href="class_t_display.html#a9ab49e52c7eb92b32ae2c34547183439" target="_top" xlink:title="Plot the graphic at screen position HPos &amp; VPos.">
<polygon fill="white" stroke="black" points="957.5,-1899.84 957.5,-1918.84 1064.5,-1918.84 1064.5,-1899.84 957.5,-1899.84"/>
<text text-anchor="middle" x="1011" y="-1906.84" font-family="Helvetica,sans-Serif" font-size="10.00">TDisplay::PlotOutput</text>
</a>
</g>
</g>
<!-- Node12&#45;&gt;Node15 -->
<g id="edge38" class="edge">
<title>Node12&#45;&gt;Node15</title>
<path fill="none" stroke="midnightblue" d="M820.31,-2056.69C835.5,-2032.27 878.92,-1967.58 932,-1933.34 938.86,-1928.92 946.58,-1925.27 954.42,-1922.28"/>
<polygon fill="midnightblue" stroke="midnightblue" points="955.71,-1925.53 964.01,-1918.93 953.41,-1918.92 955.71,-1925.53"/>
</g>
<!-- Node16 -->
<g id="node16" class="node">
<title>Node16</title>
<g id="a_node16"><a xlink:href="class_t_display.html#aab35e517eba56f1c95f500958ce431ae" target="_top" xlink:title=" ">
<polygon fill="white" stroke="black" points="948.5,-2025.84 948.5,-2044.84 1073.5,-2044.84 1073.5,-2025.84 948.5,-2025.84"/>
<text text-anchor="middle" x="1011" y="-2032.84" font-family="Helvetica,sans-Serif" font-size="10.00">TDisplay::PlotPointBlank</text>
</a>
</g>
</g>
<!-- Node12&#45;&gt;Node16 -->
<g id="edge41" class="edge">
<title>Node12&#45;&gt;Node16</title>
<path fill="none" stroke="midnightblue" d="M862.07,-2058.8C885.42,-2055.1 914.01,-2050.56 939.81,-2046.47"/>
<polygon fill="midnightblue" stroke="midnightblue" points="940.59,-2049.89 949.92,-2044.87 939.49,-2042.98 940.59,-2049.89"/>
</g>
<!-- Node12&#45;&gt;Node17 -->
<g id="edge44" class="edge">
<title>Node12&#45;&gt;Node17</title>
<path fill="none" stroke="midnightblue" d="M856.99,-2056.77C869.86,-2053.1 883.82,-2048.32 896,-2042.34 913.72,-2033.65 914.38,-2025.24 932,-2016.34 936.49,-2014.08 941.22,-2011.96 946.05,-2009.99"/>
<polygon fill="midnightblue" stroke="midnightblue" points="947.33,-2013.25 955.41,-2006.4 944.82,-2006.72 947.33,-2013.25"/>
</g>
<!-- Node15&#45;&gt;Node2 -->
<g id="edge39" class="edge">
<title>Node15&#45;&gt;Node2</title>
<path fill="none" stroke="midnightblue" d="M1064.64,-1904.62C1074.03,-1901.67 1083.02,-1897.16 1090,-1890.34 1136.23,-1845.19 1168.2,-1640.3 1177.33,-1575.24"/>
<polygon fill="midnightblue" stroke="midnightblue" points="1180.83,-1575.48 1178.72,-1565.09 1173.89,-1574.52 1180.83,-1575.48"/>
</g>
<!-- Node15&#45;&gt;Node5 -->
<g id="edge40" class="edge">
<title>Node15&#45;&gt;Node5</title>
<path fill="none" stroke="midnightblue" d="M1064.8,-1905.78C1074.4,-1902.76 1083.44,-1897.94 1090,-1890.34 1094.03,-1885.67 1166,-1080.4 1178.24,-943.13"/>
<polygon fill="midnightblue" stroke="midnightblue" points="1181.75,-943.13 1179.15,-932.86 1174.78,-942.51 1181.75,-943.13"/>
</g>
<!-- Node16&#45;&gt;Node2 -->
<g id="edge42" class="edge">
<title>Node16&#45;&gt;Node2</title>
<path fill="none" stroke="midnightblue" d="M1073.65,-2027.68C1079.75,-2024.87 1085.38,-2021.18 1090,-2016.34 1152.26,-1951.14 1174.11,-1654.63 1178.91,-1575.05"/>
<polygon fill="midnightblue" stroke="midnightblue" points="1182.41,-1575.12 1179.5,-1564.93 1175.42,-1574.71 1182.41,-1575.12"/>
</g>
<!-- Node16&#45;&gt;Node5 -->
<g id="edge43" class="edge">
<title>Node16&#45;&gt;Node5</title>
<path fill="none" stroke="midnightblue" d="M1073.86,-2028.38C1080,-2025.46 1085.58,-2021.55 1090,-2016.34 1124.59,-1975.55 1121.65,-1589.65 1126,-1536.34 1145.04,-1302.89 1171.07,-1019.69 1178.16,-943.18"/>
<polygon fill="midnightblue" stroke="midnightblue" points="1181.66,-943.35 1179.1,-933.07 1174.69,-942.71 1181.66,-943.35"/>
</g>
<!-- Node17&#45;&gt;Node2 -->
<g id="edge45" class="edge">
<title>Node17&#45;&gt;Node2</title>
<path fill="none" stroke="midnightblue" d="M1070.73,-1976.29C1077.98,-1972.4 1084.7,-1967.5 1090,-1961.34 1141.42,-1901.62 1170.59,-1648.48 1178.07,-1575.26"/>
<polygon fill="midnightblue" stroke="midnightblue" points="1181.57,-1575.41 1179.08,-1565.11 1174.6,-1574.71 1181.57,-1575.41"/>
</g>
<!-- Node17&#45;&gt;Node5 -->
<g id="edge46" class="edge">
<title>Node17&#45;&gt;Node5</title>
<path fill="none" stroke="midnightblue" d="M1072.64,-1976.27C1079.33,-1972.38 1085.38,-1967.49 1090,-1961.34 1118.46,-1923.45 1121.92,-1583.56 1126,-1536.34 1146.16,-1302.98 1171.4,-1019.72 1178.23,-943.19"/>
<polygon fill="midnightblue" stroke="midnightblue" points="1181.73,-943.35 1179.13,-933.07 1174.75,-942.72 1181.73,-943.35"/>
</g>
<!-- Node18&#45;&gt;Node2 -->
<g id="edge49" class="edge">
<title>Node18&#45;&gt;Node2</title>
<path fill="none" stroke="midnightblue" d="M678.33,-1923.47C684.81,-1927.36 690.66,-1932.24 695,-1938.34 759.02,-2028.42 650.08,-2359.08 731,-2434.34 748.56,-2450.67 1082.27,-2434.58 1090,-2427.34 1154.47,-2367.04 1176.01,-1699.78 1179.48,-1575.28"/>
<polygon fill="midnightblue" stroke="midnightblue" points="1182.98,-1575.06 1179.76,-1564.97 1175.99,-1574.87 1182.98,-1575.06"/>
</g>
<!-- Node18&#45;&gt;Node5 -->
<g id="edge56" class="edge">
<title>Node18&#45;&gt;Node5</title>
<path fill="none" stroke="midnightblue" d="M666.1,-1893.3C677.41,-1887.05 688.39,-1878.57 695,-1867.34 769.99,-1740.07 639.75,-654.51 731,-538.34 777.95,-478.57 831.53,-533.61 896,-493.34 916.57,-480.5 909.91,-462.34 932,-452.34 995.97,-423.38 1035.89,-407.59 1090,-452.34 1161.08,-511.13 1176.54,-821.07 1179.41,-903.3"/>
<polygon fill="midnightblue" stroke="midnightblue" points="1175.93,-903.84 1179.75,-913.72 1182.92,-903.62 1175.93,-903.84"/>
</g>
<!-- Node18&#45;&gt;Node15 -->
<g id="edge55" class="edge">
<title>Node18&#45;&gt;Node15</title>
<path fill="none" stroke="midnightblue" d="M688.56,-1908.51C760.04,-1908.69 875.86,-1908.99 947.22,-1909.18"/>
<polygon fill="midnightblue" stroke="midnightblue" points="947.41,-1912.68 957.42,-1909.21 947.43,-1905.68 947.41,-1912.68"/>
</g>
<!-- Node19 -->
<g id="node19" class="node">
<title>Node19</title>
<g id="a_node19"><a xlink:href="class_t_track.html#a73e781d0ada0b77618b886557f79b115" target="_top" xlink:title="True if a level crossing is found at H &amp; V.">
<polygon fill="white" stroke="black" points="766,-1728.84 766,-1747.84 861,-1747.84 861,-1728.84 766,-1728.84"/>
<text text-anchor="middle" x="813.5" y="-1735.84" font-family="Helvetica,sans-Serif" font-size="10.00">TTrack::IsLCAtHV</text>
</a>
</g>
</g>
<!-- Node18&#45;&gt;Node19 -->
<g id="edge50" class="edge">
<title>Node18&#45;&gt;Node19</title>
<path fill="none" stroke="midnightblue" d="M660.99,-1893.3C673.07,-1886.77 685.83,-1878.11 695,-1867.34 723.47,-1833.91 700.79,-1807.2 731,-1775.34 740.89,-1764.91 754.28,-1757.18 767.35,-1751.57"/>
<polygon fill="midnightblue" stroke="midnightblue" points="768.74,-1754.78 776.75,-1747.85 766.17,-1748.27 768.74,-1754.78"/>
</g>
<!-- Node20 -->
<g id="node20" class="node">
<title>Node20</title>
<g id="a_node20"><a xlink:href="class_t_display.html#aa4f37ab2a4df6437a2219f303e1de40b" target="_top" xlink:title="Repaint the screen display.">
<polygon fill="white" stroke="black" points="768,-2367.84 768,-2386.84 859,-2386.84 859,-2367.84 768,-2367.84"/>
<text text-anchor="middle" x="813.5" y="-2374.84" font-family="Helvetica,sans-Serif" font-size="10.00">TDisplay::Update</text>
</a>
</g>
</g>
<!-- Node18&#45;&gt;Node20 -->
<g id="edge57" class="edge">
<title>Node18&#45;&gt;Node20</title>
<path fill="none" stroke="midnightblue" d="M678.25,-1923.53C684.74,-1927.41 690.62,-1932.27 695,-1938.34 749.16,-2013.42 672.4,-2281.68 731,-2353.34 737.93,-2361.82 747.7,-2367.4 758.08,-2371.05"/>
<polygon fill="midnightblue" stroke="midnightblue" points="757.14,-2374.42 767.72,-2373.89 759.11,-2367.71 757.14,-2374.42"/>
</g>
<!-- Node19&#45;&gt;Node2 -->
<g id="edge51" class="edge">
<title>Node19&#45;&gt;Node2</title>
<path fill="none" stroke="midnightblue" d="M861.17,-1740.95C919.43,-1741.95 1019.94,-1736.01 1090,-1690.34 1133.48,-1662 1161,-1604.51 1173,-1574.52"/>
<polygon fill="midnightblue" stroke="midnightblue" points="1176.28,-1575.74 1176.6,-1565.15 1169.75,-1573.23 1176.28,-1575.74"/>
</g>
<!-- Node19&#45;&gt;Node5 -->
<g id="edge54" class="edge">
<title>Node19&#45;&gt;Node5</title>
<path fill="none" stroke="midnightblue" d="M860.5,-1728.82C872.17,-1726.08 884.62,-1722.86 896,-1719.34 912.4,-1714.27 915.74,-1710.86 932,-1705.34 1001.26,-1681.84 1042.63,-1715.06 1090,-1659.34 1137.92,-1602.98 1172.35,-1054.44 1178.88,-943.03"/>
<polygon fill="midnightblue" stroke="midnightblue" points="1182.38,-943.07 1179.46,-932.88 1175.39,-942.66 1182.38,-943.07"/>
</g>
<!-- Node19&#45;&gt;Node6 -->
<g id="edge52" class="edge">
<title>Node19&#45;&gt;Node6</title>
<path fill="none" stroke="midnightblue" d="M861.34,-1733.53C873.37,-1730.71 885.79,-1726.29 896,-1719.34 919.24,-1703.54 913.26,-1688.29 932,-1667.34 947.06,-1650.51 966.14,-1633.81 981.66,-1621.17"/>
<polygon fill="midnightblue" stroke="midnightblue" points="984.25,-1623.58 989.86,-1614.59 979.87,-1618.12 984.25,-1623.58"/>
</g>
<!-- Node19&#45;&gt;Node7 -->
<g id="edge53" class="edge">
<title>Node19&#45;&gt;Node7</title>
<path fill="none" stroke="midnightblue" d="M861.12,-1736.32C873.85,-1733.6 886.69,-1728.52 896,-1719.34 943.29,-1672.73 902.2,-1633.68 932,-1574.34 947.36,-1543.75 974.1,-1514.19 991.93,-1496.39"/>
<polygon fill="midnightblue" stroke="midnightblue" points="994.71,-1498.56 999.42,-1489.07 989.82,-1493.55 994.71,-1498.56"/>
</g>
<!-- Node21&#45;&gt;Node2 -->
<g id="edge59" class="edge">
<title>Node21&#45;&gt;Node2</title>
<path fill="none" stroke="midnightblue" d="M659.04,-1857.86C672.41,-1863.39 686.59,-1871.82 695,-1884.34 744.75,-1958.44 670.71,-2218.54 731,-2284.34 785.16,-2343.46 1030.09,-2373.62 1090,-2320.34 1147.55,-2269.17 1174.4,-1690.76 1179.2,-1575.32"/>
<polygon fill="midnightblue" stroke="midnightblue" points="1182.71,-1575.24 1179.62,-1565.1 1175.72,-1574.95 1182.71,-1575.24"/>
</g>
<!-- Node21&#45;&gt;Node5 -->
<g id="edge72" class="edge">
<title>Node21&#45;&gt;Node5</title>
<path fill="none" stroke="midnightblue" d="M626.45,-1838.61C632.9,-1772.51 670.66,-1382.48 695,-1064.34 699.75,-1002.28 692.6,-554.32 731,-505.34 778.44,-444.83 833.69,-498.39 896,-453.34 918.19,-437.3 907.63,-415.83 932,-403.34 994.5,-371.33 1036.28,-358.12 1090,-403.34 1168.32,-469.27 1178.48,-816.33 1179.8,-903.48"/>
<polygon fill="midnightblue" stroke="midnightblue" points="1176.31,-903.64 1179.93,-913.59 1183.3,-903.55 1176.31,-903.64"/>
</g>
<!-- Node21&#45;&gt;Node13 -->
<g id="edge60" class="edge">
<title>Node21&#45;&gt;Node13</title>
<path fill="none" stroke="midnightblue" d="M658.9,-1857.95C672.24,-1863.5 686.45,-1871.92 695,-1884.34 735.21,-1942.74 680.19,-2151.9 731,-2201.34 792.72,-2261.4 902.61,-2249.84 964.45,-2237.01"/>
<polygon fill="midnightblue" stroke="midnightblue" points="965.29,-2240.41 974.32,-2234.87 963.81,-2233.57 965.29,-2240.41"/>
</g>
<!-- Node21&#45;&gt;Node14 -->
<g id="edge61" class="edge">
<title>Node21&#45;&gt;Node14</title>
<path fill="none" stroke="midnightblue" d="M658.97,-1857.9C672.32,-1863.45 686.52,-1871.87 695,-1884.34 739.34,-1949.54 678.8,-2178.24 731,-2237.34 781.74,-2294.8 872.63,-2306.25 936.86,-2306.28"/>
<polygon fill="midnightblue" stroke="midnightblue" points="936.96,-2309.78 946.93,-2306.19 936.9,-2302.78 936.96,-2309.78"/>
</g>
<!-- Node21&#45;&gt;Node15 -->
<g id="edge62" class="edge">
<title>Node21&#45;&gt;Node15</title>
<path fill="none" stroke="midnightblue" d="M672.65,-1855.82C741.64,-1866.77 870.24,-1887.17 947.19,-1899.38"/>
<polygon fill="midnightblue" stroke="midnightblue" points="946.81,-1902.86 957.23,-1900.97 947.9,-1895.95 946.81,-1902.86"/>
</g>
<!-- Node22 -->
<g id="node22" class="node">
<title>Node22</title>
<g id="a_node22"><a xlink:href="class_t_display.html#a6e970089a9419e6bdd12576b6e860c95" target="_top" xlink:title=" ">
<polygon fill="white" stroke="black" points="946.5,-1861.84 946.5,-1880.84 1075.5,-1880.84 1075.5,-1861.84 946.5,-1861.84"/>
<text text-anchor="middle" x="1011" y="-1868.84" font-family="Helvetica,sans-Serif" font-size="10.00">TDisplay::PlotSignalBlank</text>
</a>
</g>
</g>
<!-- Node21&#45;&gt;Node22 -->
<g id="edge63" class="edge">
<title>Node21&#45;&gt;Node22</title>
<path fill="none" stroke="midnightblue" d="M672.9,-1851.11C726.91,-1854.28 817.81,-1859.63 896,-1864.34 909.01,-1865.13 922.86,-1865.97 936.25,-1866.79"/>
<polygon fill="midnightblue" stroke="midnightblue" points="936.19,-1870.29 946.39,-1867.41 936.62,-1863.31 936.19,-1870.29"/>
</g>
<!-- Node23 -->
<g id="node23" class="node">
<title>Node23</title>
<g id="a_node23"><a xlink:href="class_t_track.html#a2830b22db25712a80fa55b1546b5df9b" target="_top" xlink:title="Plot platforms if any for a signal graphic &#45; plotted before signal so shows through transparent signa...">
<polygon fill="white" stroke="black" points="745,-1784.84 745,-1803.84 882,-1803.84 882,-1784.84 745,-1784.84"/>
<text text-anchor="middle" x="813.5" y="-1791.84" font-family="Helvetica,sans-Serif" font-size="10.00">TTrack::PlotSignalPlatforms</text>
</a>
</g>
</g>
<!-- Node21&#45;&gt;Node23 -->
<g id="edge66" class="edge">
<title>Node21&#45;&gt;Node23</title>
<path fill="none" stroke="midnightblue" d="M658.5,-1838.81C689.52,-1829.86 736.1,-1816.41 769.9,-1806.64"/>
<polygon fill="midnightblue" stroke="midnightblue" points="770.88,-1810 779.51,-1803.87 768.94,-1803.28 770.88,-1810"/>
</g>
<!-- Node22&#45;&gt;Node2 -->
<g id="edge64" class="edge">
<title>Node22&#45;&gt;Node2</title>
<path fill="none" stroke="midnightblue" d="M1067.39,-1861.75C1075.76,-1858.31 1083.69,-1853.65 1090,-1847.34 1167.44,-1769.94 1178.51,-1627.55 1179.89,-1575.27"/>
<polygon fill="midnightblue" stroke="midnightblue" points="1183.4,-1575.08 1180.07,-1565.02 1176.4,-1574.96 1183.4,-1575.08"/>
</g>
<!-- Node22&#45;&gt;Node5 -->
<g id="edge65" class="edge">
<title>Node22&#45;&gt;Node5</title>
<path fill="none" stroke="midnightblue" d="M1019.37,-1861.62C1035.37,-1839.94 1073.16,-1785.45 1090,-1733.34 1115.11,-1655.65 1168.1,-1059.6 1178.29,-943.06"/>
<polygon fill="midnightblue" stroke="midnightblue" points="1181.78,-943.32 1179.16,-933.05 1174.8,-942.71 1181.78,-943.32"/>
</g>
<!-- Node23&#45;&gt;Node2 -->
<g id="edge67" class="edge">
<title>Node23&#45;&gt;Node2</title>
<path fill="none" stroke="midnightblue" d="M882.12,-1793.17C942.43,-1788.85 1030.19,-1774.11 1090,-1727.34 1141.01,-1687.46 1166.14,-1610.56 1175.51,-1574.67"/>
<polygon fill="midnightblue" stroke="midnightblue" points="1178.92,-1575.49 1177.93,-1564.94 1172.12,-1573.8 1178.92,-1575.49"/>
</g>
<!-- Node23&#45;&gt;Node5 -->
<g id="edge71" class="edge">
<title>Node23&#45;&gt;Node5</title>
<path fill="none" stroke="midnightblue" d="M838.18,-1784.79C854.71,-1777.84 877.12,-1767.83 896,-1757.34 912.81,-1748 914.36,-1740.99 932,-1733.34 998.17,-1704.66 1041.99,-1750.17 1090,-1696.34 1115.97,-1667.22 1168.38,-1060.97 1178.34,-943.1"/>
<polygon fill="midnightblue" stroke="midnightblue" points="1181.84,-943.25 1179.19,-932.99 1174.87,-942.66 1181.84,-943.25"/>
</g>
<!-- Node23&#45;&gt;Node6 -->
<g id="edge68" class="edge">
<title>Node23&#45;&gt;Node6</title>
<path fill="none" stroke="midnightblue" d="M845.36,-1784.83C861.63,-1778.76 881.21,-1769.69 896,-1757.34 917.58,-1739.33 915.67,-1728.22 932,-1705.34 952.42,-1676.74 976.46,-1644.24 992.4,-1622.86"/>
<polygon fill="midnightblue" stroke="midnightblue" points="995.32,-1624.8 998.49,-1614.69 989.71,-1620.61 995.32,-1624.8"/>
</g>
<!-- Node23&#45;&gt;Node7 -->
<g id="edge69" class="edge">
<title>Node23&#45;&gt;Node7</title>
<path fill="none" stroke="midnightblue" d="M854.28,-1784.74C869.45,-1779.14 885.59,-1770.5 896,-1757.34 947.44,-1692.34 896.63,-1649.31 932,-1574.34 946.61,-1543.38 973.54,-1513.92 991.61,-1496.23"/>
<polygon fill="midnightblue" stroke="midnightblue" points="994.4,-1498.41 999.22,-1488.97 989.57,-1493.35 994.4,-1498.41"/>
</g>
<!-- Node23&#45;&gt;Node15 -->
<g id="edge70" class="edge">
<title>Node23&#45;&gt;Node15</title>
<path fill="none" stroke="midnightblue" d="M825.59,-1803.87C852.5,-1826.95 919.97,-1884.35 932,-1890.34 936.91,-1892.79 942.16,-1894.93 947.52,-1896.81"/>
<polygon fill="midnightblue" stroke="midnightblue" points="946.66,-1900.21 957.25,-1899.9 948.78,-1893.53 946.66,-1900.21"/>
</g>
<!-- Node24&#45;&gt;Node2 -->
<g id="edge82" class="edge">
<title>Node24&#45;&gt;Node2</title>
<path fill="none" stroke="midnightblue" d="M276.02,-1099.53C299.45,-1238.87 484.05,-2293.79 731,-2468.34 747.2,-2479.79 1080.94,-2473.67 1090,-2465.34 1157.9,-2402.86 1176.7,-1703.32 1179.58,-1575.37"/>
<polygon fill="midnightblue" stroke="midnightblue" points="1183.09,-1575.17 1179.8,-1565.1 1176.09,-1575.02 1183.09,-1575.17"/>
</g>
<!-- Node24&#45;&gt;Node5 -->
<g id="edge163" class="edge">
<title>Node24&#45;&gt;Node5</title>
<path fill="none" stroke="midnightblue" d="M273.04,-1069.34C271.21,-992.31 269.36,-634.73 381,-374.34 430.43,-259.05 450.17,-221.73 554,-151.34 621.76,-105.4 649.97,-111.99 731,-100.34 888.93,-77.64 971.21,7.18 1090,-99.34 1151.95,-154.9 1175.43,-782.72 1179.38,-903.36"/>
<polygon fill="midnightblue" stroke="midnightblue" points="1175.89,-903.8 1179.71,-913.68 1182.89,-903.58 1175.89,-903.8"/>
</g>
<!-- Node24&#45;&gt;Node6 -->
<g id="edge161" class="edge">
<title>Node24&#45;&gt;Node6</title>
<path fill="none" stroke="midnightblue" d="M280.93,-1099.81C317.24,-1173.31 484.32,-1487.78 731,-1589.34 795.05,-1615.71 874.55,-1615.76 932.27,-1610.65"/>
<polygon fill="midnightblue" stroke="midnightblue" points="932.81,-1614.11 942.43,-1609.68 932.14,-1607.15 932.81,-1614.11"/>
</g>
<!-- Node24&#45;&gt;Node7 -->
<g id="edge162" class="edge">
<title>Node24&#45;&gt;Node7</title>
<path fill="none" stroke="midnightblue" d="M286.95,-1099.48C337.97,-1155.67 527.08,-1352.77 731,-1425.34 793.57,-1447.61 867.49,-1461.39 923.51,-1469.45"/>
<polygon fill="midnightblue" stroke="midnightblue" points="923.37,-1472.97 933.76,-1470.89 924.35,-1466.04 923.37,-1472.97"/>
</g>
<!-- Node24&#45;&gt;Node8 -->
<g id="edge164" class="edge">
<title>Node24&#45;&gt;Node8</title>
<path fill="none" stroke="midnightblue" d="M283.63,-1069.22C301.16,-1043.87 339.3,-992.29 381,-958.34 449.02,-902.96 469.03,-885.14 554,-863.34 698.23,-826.35 876.34,-855.5 960.94,-873.63"/>
<polygon fill="midnightblue" stroke="midnightblue" points="960.27,-877.07 970.78,-875.79 961.76,-870.23 960.27,-877.07"/>
</g>
<!-- Node24&#45;&gt;Node11 -->
<g id="edge160" class="edge">
<title>Node24&#45;&gt;Node11</title>
<path fill="none" stroke="midnightblue" d="M274.59,-1069.09C281.49,-983.44 326.61,-558.13 554,-334.34 657.85,-232.14 847.03,-257.41 945.91,-279.95"/>
<polygon fill="midnightblue" stroke="midnightblue" points="945.24,-283.38 955.77,-282.25 946.83,-276.57 945.24,-283.38"/>
</g>
<!-- Node25 -->
<g id="node25" class="node">
<title>Node25</title>
<g id="a_node25"><a xlink:href="class_t_track.html#a96a3a6bcd38491f4f00ec2a585c6f170" target="_top" xlink:title="Used in SearchForAndUpdateLocationName to check for adjacent named elements to a given element at HLo...">
<polygon fill="white" stroke="black" points="747,-1062.84 747,-1081.84 880,-1081.84 880,-1062.84 747,-1062.84"/>
<text text-anchor="middle" x="813.5" y="-1069.84" font-family="Helvetica,sans-Serif" font-size="10.00">TTrack::AdjNamedElement</text>
</a>
</g>
</g>
<!-- Node24&#45;&gt;Node25 -->
<g id="edge75" class="edge">
<title>Node24&#45;&gt;Node25</title>
<path fill="none" stroke="midnightblue" d="M345.08,-1082.75C446.92,-1080.48 632.82,-1076.34 736.85,-1074.03"/>
<polygon fill="midnightblue" stroke="midnightblue" points="737.05,-1077.52 746.97,-1073.8 736.89,-1070.52 737.05,-1077.52"/>
</g>
<!-- Node26 -->
<g id="node26" class="node">
<title>Node26</title>
<g id="a_node26"><a xlink:href="class_t_track.html#a433736aed04f76b3d0c39f0696c3bb18" target="_top" xlink:title="All platform, concourse, footcrossing &amp; non&#45;station named location elements are able to have a Locati...">
<polygon fill="white" stroke="black" points="381,-967.84 381,-986.84 518,-986.84 518,-967.84 381,-967.84"/>
<text text-anchor="middle" x="449.5" y="-974.84" font-family="Helvetica,sans-Serif" font-size="10.00">TTrack::EnterLocationName</text>
</a>
</g>
</g>
<!-- Node24&#45;&gt;Node26 -->
<g id="edge83" class="edge">
<title>Node24&#45;&gt;Node26</title>
<path fill="none" stroke="midnightblue" d="M298.2,-1069.24C331.62,-1048.81 390.85,-1012.59 424.11,-992.26"/>
<polygon fill="midnightblue" stroke="midnightblue" points="426.05,-995.17 432.76,-986.97 422.4,-989.2 426.05,-995.17"/>
</g>
<!-- Node25&#45;&gt;Node2 -->
<g id="edge76" class="edge">
<title>Node25&#45;&gt;Node2</title>
<path fill="none" stroke="midnightblue" d="M879.08,-1081.96C885.12,-1084.43 890.89,-1087.51 896,-1091.34 922.1,-1110.93 905.73,-1135.98 932,-1155.34 989.82,-1197.96 1038.47,-1139.3 1090,-1189.34 1140.81,-1238.69 1170.04,-1466.29 1177.86,-1535.39"/>
<polygon fill="midnightblue" stroke="midnightblue" points="1174.42,-1536.17 1179,-1545.73 1181.38,-1535.41 1174.42,-1536.17"/>
</g>
<!-- Node25&#45;&gt;Node5 -->
<g id="edge80" class="edge">
<title>Node25&#45;&gt;Node5</title>
<path fill="none" stroke="midnightblue" d="M872.53,-1062.71C881.15,-1059.27 889.35,-1054.63 896,-1048.34 930.63,-1015.6 894.42,-976.65 932,-947.34 985.19,-905.85 1065.61,-906.01 1120.34,-912.46"/>
<polygon fill="midnightblue" stroke="midnightblue" points="1120.23,-915.98 1130.59,-913.78 1121.12,-909.03 1120.23,-915.98"/>
</g>
<!-- Node25&#45;&gt;Node6 -->
<g id="edge78" class="edge">
<title>Node25&#45;&gt;Node6</title>
<path fill="none" stroke="midnightblue" d="M880.21,-1079.53C886.18,-1082.45 891.62,-1086.3 896,-1091.34 955.53,-1159.9 898.92,-1413.79 932,-1498.34 943.92,-1528.81 968.04,-1557.73 986.32,-1576.75"/>
<polygon fill="midnightblue" stroke="midnightblue" points="983.98,-1579.37 993.49,-1584.03 988.96,-1574.45 983.98,-1579.37"/>
</g>
<!-- Node25&#45;&gt;Node7 -->
<g id="edge79" class="edge">
<title>Node25&#45;&gt;Node7</title>
<path fill="none" stroke="midnightblue" d="M880.04,-1080.82C885.9,-1083.51 891.35,-1086.95 896,-1091.34 910.08,-1104.64 984.58,-1383.25 1004.88,-1459.95"/>
<polygon fill="midnightblue" stroke="midnightblue" points="1001.53,-1460.97 1007.47,-1469.74 1008.3,-1459.18 1001.53,-1460.97"/>
</g>
<!-- Node25&#45;&gt;Node8 -->
<g id="edge81" class="edge">
<title>Node25&#45;&gt;Node8</title>
<path fill="none" stroke="midnightblue" d="M874.26,-1062.69C882.36,-1059.24 889.95,-1054.6 896,-1048.34 940.38,-1002.48 887.9,-955.47 932,-909.34 935.7,-905.47 940,-902.22 944.66,-899.49"/>
<polygon fill="midnightblue" stroke="midnightblue" points="946.57,-902.45 953.97,-894.86 943.45,-896.18 946.57,-902.45"/>
</g>
<!-- Node25&#45;&gt;Node11 -->
<g id="edge77" class="edge">
<title>Node25&#45;&gt;Node11</title>
<path fill="none" stroke="midnightblue" d="M816.39,-1062.67C826.65,-1010.28 877.39,-755.46 932,-550.34 954.49,-465.87 986.61,-367.27 1001.64,-322.16"/>
<polygon fill="midnightblue" stroke="midnightblue" points="1004.98,-323.22 1004.83,-312.62 998.34,-321 1004.98,-323.22"/>
</g>
<!-- Node26&#45;&gt;Node2 -->
<g id="edge112" class="edge">
<title>Node26&#45;&gt;Node2</title>
<path fill="none" stroke="midnightblue" d="M450.9,-986.88C454.98,-1081.85 490.07,-1856.09 554,-1933.34 595.77,-1983.82 654.05,-1925.2 695,-1976.34 761.17,-2058.97 653.37,-2379.37 731,-2451.34 746.92,-2466.1 1080.51,-2455.15 1090,-2446.34 1156.25,-2384.88 1176.4,-1700.18 1179.54,-1574.95"/>
<polygon fill="midnightblue" stroke="midnightblue" points="1183.04,-1574.97 1179.78,-1564.89 1176.04,-1574.8 1183.04,-1574.97"/>
</g>
<!-- Node26&#45;&gt;Node3 -->
<g id="edge113" class="edge">
<title>Node26&#45;&gt;Node3</title>
<path fill="none" stroke="midnightblue" d="M460.35,-987.05C494.81,-1020.54 614.2,-1132.84 731,-1198.34 739.46,-1203.09 748.77,-1207.46 757.98,-1211.34"/>
<polygon fill="midnightblue" stroke="midnightblue" points="756.92,-1214.69 767.5,-1215.21 759.55,-1208.2 756.92,-1214.69"/>
</g>
<!-- Node26&#45;&gt;Node5 -->
<g id="edge157" class="edge">
<title>Node26&#45;&gt;Node5</title>
<path fill="none" stroke="midnightblue" d="M451.32,-967.49C457.44,-895.87 497.02,-454.36 554,-334.34 604.77,-227.41 623.01,-183.82 731,-135.34 803.78,-102.67 1030.47,-82.23 1090,-135.34 1149.29,-188.24 1174.83,-786.37 1179.28,-903.51"/>
<polygon fill="midnightblue" stroke="midnightblue" points="1175.79,-903.97 1179.66,-913.84 1182.79,-903.71 1175.79,-903.97"/>
</g>
<!-- Node26&#45;&gt;Node7 -->
<g id="edge127" class="edge">
<title>Node26&#45;&gt;Node7</title>
<path fill="none" stroke="midnightblue" d="M451.9,-986.85C457.91,-1024.87 484.41,-1168.35 554,-1260.34 612.57,-1337.76 643.54,-1346.2 731,-1388.34 799.58,-1421.39 825.27,-1406.19 896,-1434.34 912.81,-1441.03 915.36,-1446.24 932,-1453.34 943.38,-1458.2 956.01,-1462.76 967.72,-1466.65"/>
<polygon fill="midnightblue" stroke="midnightblue" points="966.71,-1470 977.3,-1469.76 968.87,-1463.34 966.71,-1470"/>
</g>
<!-- Node26&#45;&gt;Node8 -->
<g id="edge158" class="edge">
<title>Node26&#45;&gt;Node8</title>
<path fill="none" stroke="midnightblue" d="M471.85,-967.83C492.47,-959.04 524.77,-946.34 554,-939.34 563.27,-937.12 813.5,-908.05 939.26,-893.51"/>
<polygon fill="midnightblue" stroke="midnightblue" points="940.03,-896.94 949.56,-892.31 939.22,-889.99 940.03,-896.94"/>
</g>
<!-- Node26&#45;&gt;Node11 -->
<g id="edge126" class="edge">
<title>Node26&#45;&gt;Node11</title>
<path fill="none" stroke="midnightblue" d="M450.73,-967.64C453.02,-897 477.38,-460.06 731,-305.34 792.59,-267.77 876.91,-271.19 936.69,-280.64"/>
<polygon fill="midnightblue" stroke="midnightblue" points="936.37,-284.13 946.81,-282.33 937.52,-277.23 936.37,-284.13"/>
</g>
<!-- Node27 -->
<g id="node27" class="node">
<title>Node27</title>
<g id="a_node27"><a xlink:href="class_t_track.html#a306dfdff414c8edf6f974d21bd9b83ce" target="_top" xlink:title="TrackElement.LocationName becomes &#39;Name&#39; (for active and inactive elements) and, if TrackElement is a...">
<polygon fill="white" stroke="black" points="577,-948.84 577,-967.84 672,-967.84 672,-948.84 577,-948.84"/>
<text text-anchor="middle" x="624.5" y="-955.84" font-family="Helvetica,sans-Serif" font-size="10.00">TTrack::AddName</text>
</a>
</g>
</g>
<!-- Node26&#45;&gt;Node27 -->
<g id="edge84" class="edge">
<title>Node26&#45;&gt;Node27</title>
<path fill="none" stroke="midnightblue" d="M518.38,-969.89C534.45,-968.12 551.43,-966.26 566.94,-964.55"/>
<polygon fill="midnightblue" stroke="midnightblue" points="567.33,-968.03 576.89,-963.46 566.57,-961.07 567.33,-968.03"/>
</g>
<!-- Node29 -->
<g id="node29" class="node">
<title>Node29</title>
<g id="a_node29"><a xlink:href="class_t_track.html#a607c6164af3158c328dd7c3ae25236c7" target="_top" xlink:title="Used during location naming to check for adjacent named elements to a given element at HLoc &amp; VLoc wi...">
<polygon fill="white" stroke="black" points="573.5,-872.84 573.5,-891.84 675.5,-891.84 675.5,-872.84 573.5,-872.84"/>
<text text-anchor="middle" x="624.5" y="-879.84" font-family="Helvetica,sans-Serif" font-size="10.00">TTrack::AdjElement</text>
</a>
</g>
</g>
<!-- Node26&#45;&gt;Node29 -->
<g id="edge94" class="edge">
<title>Node26&#45;&gt;Node29</title>
<path fill="none" stroke="midnightblue" d="M462.26,-967.69C480.8,-952.86 518.39,-924.29 554,-906.34 562.29,-902.17 571.47,-898.42 580.38,-895.21"/>
<polygon fill="midnightblue" stroke="midnightblue" points="581.56,-898.5 589.88,-891.93 579.28,-891.89 581.56,-898.5"/>
</g>
<!-- Node30 -->
<g id="node30" class="node">
<title>Node30</title>
<g id="a_node30"><a xlink:href="class_t_track.html#a35cb615d02e6e4debe2fb2b764adc058" target="_top" xlink:title="True if the element defined by MapPos is present in LNDone2MultiMap, used during location naming.">
<polygon fill="white" stroke="black" points="943.5,-788.34 943.5,-818.34 1078.5,-818.34 1078.5,-788.34 943.5,-788.34"/>
<text text-anchor="start" x="951.5" y="-806.34" font-family="Helvetica,sans-Serif" font-size="10.00">TTrack::ElementInLNDone2</text>
<text text-anchor="middle" x="1011" y="-795.34" font-family="Helvetica,sans-Serif" font-size="10.00">MultiMap</text>
</a>
</g>
</g>
<!-- Node26&#45;&gt;Node30 -->
<g id="edge114" class="edge">
<title>Node26&#45;&gt;Node30</title>
<path fill="none" stroke="midnightblue" d="M456.38,-967.62C470.35,-945.41 507.8,-890.78 554,-863.34 672.07,-793.21 837.3,-790.23 933.04,-795.83"/>
<polygon fill="midnightblue" stroke="midnightblue" points="933.03,-799.33 943.23,-796.47 933.47,-792.35 933.03,-799.33"/>
</g>
<!-- Node33 -->
<g id="node33" class="node">
<title>Node33</title>
<g id="a_node33"><a xlink:href="class_t_text_handler.html#a0fb5dca23fd07e642c611381b6344746" target="_top" xlink:title="look in TextVector for text item &#39;Name&#39;, and if found return true and return its position in &amp;HPos an...">
<polygon fill="white" stroke="black" points="755,-588.84 755,-607.84 872,-607.84 872,-588.84 755,-588.84"/>
<text text-anchor="middle" x="813.5" y="-595.84" font-family="Helvetica,sans-Serif" font-size="10.00">TTextHandler::FindText</text>
</a>
</g>
</g>
<!-- Node26&#45;&gt;Node33 -->
<g id="edge115" class="edge">
<title>Node26&#45;&gt;Node33</title>
<path fill="none" stroke="midnightblue" d="M451.64,-967.76C456.57,-930.14 479.37,-790.81 554,-711.34 607.33,-654.56 694.17,-624.71 752.3,-610.25"/>
<polygon fill="midnightblue" stroke="midnightblue" points="753.19,-613.64 762.09,-607.9 751.55,-606.84 753.19,-613.64"/>
</g>
<!-- Node35 -->
<g id="node35" class="node">
<title>Node35</title>
<g id="a_node35"><a xlink:href="class_t_track.html#ae37fe26f1d8ed9ef0f498ae12347e0ac" target="_top" xlink:title="Takes an adjusted vector position value from either vector (if active, Position = &#45;TruePos &#45;1,...">
<polygon fill="white" stroke="black" points="738.5,-1264.34 738.5,-1294.34 888.5,-1294.34 888.5,-1264.34 738.5,-1264.34"/>
<text text-anchor="start" x="746.5" y="-1282.34" font-family="Helvetica,sans-Serif" font-size="10.00">TTrack::GetTrackVectorIterator</text>
<text text-anchor="middle" x="813.5" y="-1271.34" font-family="Helvetica,sans-Serif" font-size="10.00">FromNamePosition</text>
</a>
</g>
</g>
<!-- Node26&#45;&gt;Node35 -->
<g id="edge121" class="edge">
<title>Node26&#45;&gt;Node35</title>
<path fill="none" stroke="midnightblue" d="M454.89,-987.1C467.34,-1013.92 505.1,-1090.07 554,-1139.34 620.08,-1205.93 646,-1214.65 731,-1254.34 735.94,-1256.65 741.16,-1258.81 746.45,-1260.82"/>
<polygon fill="midnightblue" stroke="midnightblue" points="745.45,-1264.18 756.05,-1264.28 747.82,-1257.6 745.45,-1264.18"/>
</g>
<!-- Node36 -->
<g id="node36" class="node">
<title>Node36</title>
<g id="a_node36"><a xlink:href="class_t_track.html#a4a948544c9ac877232ec721db8bfc914" target="_top" xlink:title="Clears the existing LocationNameMultiMap and rebuilds it from TrackVector and InactiveTrackVector....">
<polygon fill="white" stroke="black" points="740.5,-1313.34 740.5,-1343.34 886.5,-1343.34 886.5,-1313.34 740.5,-1313.34"/>
<text text-anchor="start" x="748.5" y="-1331.34" font-family="Helvetica,sans-Serif" font-size="10.00">TTrack::RebuildLocationName</text>
<text text-anchor="middle" x="813.5" y="-1320.34" font-family="Helvetica,sans-Serif" font-size="10.00">MultiMap</text>
</a>
</g>
</g>
<!-- Node26&#45;&gt;Node36 -->
<g id="edge128" class="edge">
<title>Node26&#45;&gt;Node36</title>
<path fill="none" stroke="midnightblue" d="M452.7,-987.09C460.71,-1020.76 491.26,-1133.86 554,-1202.34 605.01,-1258.02 685.98,-1291.89 743.7,-1310.28"/>
<polygon fill="midnightblue" stroke="midnightblue" points="742.89,-1313.7 753.47,-1313.32 744.96,-1307.01 742.89,-1313.7"/>
</g>
<!-- Node37 -->
<g id="node37" class="node">
<title>Node37</title>
<g id="a_node37"><a xlink:href="class_t_track.html#a46b69ee08436c2ff5e41673df04bcf11" target="_top" xlink:title="Called when trying to link track and when a name changed when track already linked.">
<polygon fill="white" stroke="black" points="554,-1025.34 554,-1055.34 695,-1055.34 695,-1025.34 554,-1025.34"/>
<text text-anchor="start" x="562" y="-1043.34" font-family="Helvetica,sans-Serif" font-size="10.00">TTrack::SetStationEntryStop</text>
<text text-anchor="middle" x="624.5" y="-1032.34" font-family="Helvetica,sans-Serif" font-size="10.00">LinkPosses</text>
</a>
</g>
</g>
<!-- Node26&#45;&gt;Node37 -->
<g id="edge133" class="edge">
<title>Node26&#45;&gt;Node37</title>
<path fill="none" stroke="midnightblue" d="M476.43,-986.92C497.35,-994.63 527.55,-1005.73 554,-1015.34 559.85,-1017.47 565.99,-1019.69 572.08,-1021.89"/>
<polygon fill="midnightblue" stroke="midnightblue" points="570.99,-1025.22 581.59,-1025.32 573.37,-1018.63 570.99,-1025.22"/>
</g>
<!-- Node39 -->
<g id="node39" class="node">
<title>Node39</title>
<g id="a_node39"><a xlink:href="class_t_text_handler.html#a5741d1b36f1245b55926cb1243046307" target="_top" xlink:title="look for a text item in the vicinity of HPosInput &amp; VPosInput &amp; if TextToErase is null then erase any...">
<polygon fill="white" stroke="black" points="562.5,-720.84 562.5,-739.84 686.5,-739.84 686.5,-720.84 562.5,-720.84"/>
<text text-anchor="middle" x="624.5" y="-727.84" font-family="Helvetica,sans-Serif" font-size="10.00">TTextHandler::TextErase</text>
</a>
</g>
</g>
<!-- Node26&#45;&gt;Node39 -->
<g id="edge142" class="edge">
<title>Node26&#45;&gt;Node39</title>
<path fill="none" stroke="midnightblue" d="M454.46,-967.82C466.6,-939.31 505.4,-852.91 554,-792.34 568.13,-774.74 587.51,-757.9 602.22,-746.22"/>
<polygon fill="midnightblue" stroke="midnightblue" points="604.51,-748.87 610.27,-739.98 600.22,-743.34 604.51,-748.87"/>
</g>
<!-- Node43 -->
<g id="node43" class="node">
<title>Node43</title>
<g id="a_node43"><a xlink:href="class_t_track.html#a55d9415e3ecac804f3345dddd74f9bad" target="_top" xlink:title="Return the number of active track elements.">
<polygon fill="white" stroke="black" points="562.5,-986.84 562.5,-1005.84 686.5,-1005.84 686.5,-986.84 562.5,-986.84"/>
<text text-anchor="middle" x="624.5" y="-993.84" font-family="Helvetica,sans-Serif" font-size="10.00">TTrack::TrackVectorSize</text>
</a>
</g>
</g>
<!-- Node26&#45;&gt;Node43 -->
<g id="edge159" class="edge">
<title>Node26&#45;&gt;Node43</title>
<path fill="none" stroke="midnightblue" d="M518.38,-984.8C529.47,-986.01 540.98,-987.28 552.15,-988.51"/>
<polygon fill="midnightblue" stroke="midnightblue" points="551.97,-992.01 562.29,-989.62 552.73,-985.05 551.97,-992.01"/>
</g>
<!-- Node27&#45;&gt;Node2 -->
<g id="edge85" class="edge">
<title>Node27&#45;&gt;Node2</title>
<path fill="none" stroke="midnightblue" d="M672.25,-962.47C681.05,-965.42 689.27,-970.07 695,-977.34 776.57,-1080.91 636.37,-2071.54 731,-2163.34 759.63,-2191.12 1059.8,-2189.4 1090,-2163.34 1181.22,-2084.63 1181.54,-1671.69 1180.35,-1575.42"/>
<polygon fill="midnightblue" stroke="midnightblue" points="1183.84,-1575.24 1180.2,-1565.29 1176.84,-1575.34 1183.84,-1575.24"/>
</g>
<!-- Node27&#45;&gt;Node3 -->
<g id="edge89" class="edge">
<title>Node27&#45;&gt;Node3</title>
<path fill="none" stroke="midnightblue" d="M672.27,-963.3C680.85,-966.21 688.98,-970.64 695,-977.34 762.1,-1052.02 667.17,-1122.85 731,-1200.34 733.94,-1203.91 737.34,-1207.05 741.05,-1209.82"/>
<polygon fill="midnightblue" stroke="midnightblue" points="739.31,-1212.86 749.62,-1215.3 743.08,-1206.96 739.31,-1212.86"/>
</g>
<!-- Node27&#45;&gt;Node4 -->
<g id="edge90" class="edge">
<title>Node27&#45;&gt;Node4</title>
<path fill="none" stroke="midnightblue" d="M662.84,-967.85C673.31,-970.71 684.65,-973.98 695,-977.34 785.83,-1006.86 811.32,-1009.17 896,-1053.34 927.49,-1069.77 960.69,-1093.29 983.09,-1110.2"/>
<polygon fill="midnightblue" stroke="midnightblue" points="981.05,-1113.04 991.12,-1116.33 985.3,-1107.48 981.05,-1113.04"/>
</g>
<!-- Node27&#45;&gt;Node5 -->
<g id="edge92" class="edge">
<title>Node27&#45;&gt;Node5</title>
<path fill="none" stroke="midnightblue" d="M644.25,-948.77C660.79,-939.21 683.94,-922.85 695,-901.34 750.22,-794 661.42,-457.98 731,-359.34 778.31,-292.26 1028.11,-218.42 1090,-272.34 1139.02,-315.06 1172.1,-797.88 1178.76,-903.15"/>
<polygon fill="midnightblue" stroke="midnightblue" points="1175.28,-903.6 1179.4,-913.36 1182.27,-903.16 1175.28,-903.6"/>
</g>
<!-- Node27&#45;&gt;Node8 -->
<g id="edge93" class="edge">
<title>Node27&#45;&gt;Node8</title>
<path fill="none" stroke="midnightblue" d="M672.03,-961.32C727.2,-963.26 821.09,-961.49 896,-934.34 914.31,-927.7 914.48,-917.86 932,-909.34 941.08,-904.93 951.14,-901.11 960.95,-897.9"/>
<polygon fill="midnightblue" stroke="midnightblue" points="962.1,-901.21 970.61,-894.89 960.03,-894.52 962.1,-901.21"/>
</g>
<!-- Node27&#45;&gt;Node11 -->
<g id="edge91" class="edge">
<title>Node27&#45;&gt;Node11</title>
<path fill="none" stroke="midnightblue" d="M644.2,-948.74C660.71,-939.17 683.83,-922.8 695,-901.34 743.58,-808.04 668.75,-514.14 731,-429.34 777.74,-365.67 830.06,-406.82 896,-363.34 914.89,-350.89 913.03,-339.67 932,-327.34 938.19,-323.32 945,-319.71 951.94,-316.51"/>
<polygon fill="midnightblue" stroke="midnightblue" points="953.65,-319.59 961.43,-312.4 950.87,-313.16 953.65,-319.59"/>
</g>
<!-- Node28 -->
<g id="node28" class="node">
<title>Node28</title>
<g id="a_node28"><a xlink:href="class_t_track.html#aa081ea276995a63dfa00fc0ace24f5c5" target="_top" xlink:title="Changes the LocationName in the name multimap to NewName at the location pointed to by the TLocationN...">
<polygon fill="white" stroke="black" points="937.5,-1028.34 937.5,-1058.34 1084.5,-1058.34 1084.5,-1028.34 937.5,-1028.34"/>
<text text-anchor="start" x="945.5" y="-1046.34" font-family="Helvetica,sans-Serif" font-size="10.00">TTrack::ChangeLocationName</text>
<text text-anchor="middle" x="1011" y="-1035.34" font-family="Helvetica,sans-Serif" font-size="10.00">MultiMapEntry</text>
</a>
</g>
</g>
<!-- Node27&#45;&gt;Node28 -->
<g id="edge86" class="edge">
<title>Node27&#45;&gt;Node28</title>
<path fill="none" stroke="midnightblue" d="M672.13,-963.42C680.72,-966.33 688.89,-970.73 695,-977.34 753.31,-1040.49 664.81,-1112.52 731,-1167.34 787.48,-1214.12 835.58,-1208.9 896,-1167.34 932.86,-1141.99 900.39,-1105 932,-1073.34 935.69,-1069.65 939.87,-1066.41 944.35,-1063.55"/>
<polygon fill="midnightblue" stroke="midnightblue" points="946.27,-1066.49 953.27,-1058.54 942.83,-1060.39 946.27,-1066.49"/>
</g>
<!-- Node28&#45;&gt;Node2 -->
<g id="edge87" class="edge">
<title>Node28&#45;&gt;Node2</title>
<path fill="none" stroke="midnightblue" d="M1039.26,-1058.55C1056.49,-1069.58 1077.74,-1086.09 1090,-1106.34 1178.4,-1252.28 1181.83,-1469.09 1180.63,-1535.37"/>
<polygon fill="midnightblue" stroke="midnightblue" points="1177.13,-1535.56 1180.39,-1545.64 1184.13,-1535.73 1177.13,-1535.56"/>
</g>
<!-- Node28&#45;&gt;Node5 -->
<g id="edge88" class="edge">
<title>Node28&#45;&gt;Node5</title>
<path fill="none" stroke="midnightblue" d="M1060.57,-1028.28C1070.68,-1024.17 1081,-1019.19 1090,-1013.34 1120.99,-993.2 1149.9,-960.96 1166.22,-941.03"/>
<polygon fill="midnightblue" stroke="midnightblue" points="1169.08,-943.06 1172.61,-933.07 1163.62,-938.68 1169.08,-943.06"/>
</g>
<!-- Node29&#45;&gt;Node2 -->
<g id="edge95" class="edge">
<title>Node29&#45;&gt;Node2</title>
<path fill="none" stroke="midnightblue" d="M644.76,-892.01C661.4,-901.53 684.39,-917.78 695,-939.34 724.09,-998.49 683.69,-2079.44 731,-2125.34 759.63,-2153.12 1059.67,-2151.26 1090,-2125.34 1175.64,-2052.16 1180.27,-1667.7 1180.13,-1575.32"/>
<polygon fill="midnightblue" stroke="midnightblue" points="1183.63,-1575.1 1180.09,-1565.11 1176.63,-1575.13 1183.63,-1575.1"/>
</g>
<!-- Node29&#45;&gt;Node5 -->
<g id="edge110" class="edge">
<title>Node29&#45;&gt;Node5</title>
<path fill="none" stroke="midnightblue" d="M632.4,-872.59C647,-851.38 680.83,-798.94 695,-749.34 709.66,-698.02 693.72,-308.54 731,-270.34 786.81,-213.17 1029.87,-197.72 1090,-250.34 1140.71,-294.72 1172.64,-796.78 1178.88,-903.48"/>
<polygon fill="midnightblue" stroke="midnightblue" points="1175.38,-903.75 1179.45,-913.53 1182.37,-903.35 1175.38,-903.75"/>
</g>
<!-- Node29&#45;&gt;Node6 -->
<g id="edge103" class="edge">
<title>Node29&#45;&gt;Node6</title>
<path fill="none" stroke="midnightblue" d="M644.29,-891.89C660.86,-901.44 684.02,-917.79 695,-939.34 726.07,-1000.33 685.11,-1503.55 731,-1554.34 757.23,-1583.38 859.08,-1593.7 932.13,-1597.36"/>
<polygon fill="midnightblue" stroke="midnightblue" points="932.09,-1600.86 942.24,-1597.83 932.42,-1593.87 932.09,-1600.86"/>
</g>
<!-- Node29&#45;&gt;Node7 -->
<g id="edge104" class="edge">
<title>Node29&#45;&gt;Node7</title>
<path fill="none" stroke="midnightblue" d="M644.15,-891.97C660.62,-901.57 683.71,-917.95 695,-939.34 737.98,-1020.83 671.75,-1281.8 731,-1352.34 779.81,-1410.46 834.86,-1351.38 896,-1396.34 920.14,-1414.09 908.41,-1434.86 932,-1453.34 938.7,-1458.59 946.52,-1462.81 954.56,-1466.19"/>
<polygon fill="midnightblue" stroke="midnightblue" points="953.47,-1469.52 964.06,-1469.78 955.94,-1462.97 953.47,-1469.52"/>
</g>
<!-- Node29&#45;&gt;Node8 -->
<g id="edge111" class="edge">
<title>Node29&#45;&gt;Node8</title>
<path fill="none" stroke="midnightblue" d="M675.77,-882.73C743.27,-883.26 863.54,-884.2 939.91,-884.8"/>
<polygon fill="midnightblue" stroke="midnightblue" points="939.89,-888.3 949.92,-884.87 939.95,-881.3 939.89,-888.3"/>
</g>
<!-- Node29&#45;&gt;Node11 -->
<g id="edge102" class="edge">
<title>Node29&#45;&gt;Node11</title>
<path fill="none" stroke="midnightblue" d="M632.31,-872.56C646.72,-851.3 680.21,-798.76 695,-749.34 717.93,-672.74 681.16,-453.86 731,-391.34 779.92,-329.98 870.52,-308.41 935.2,-300.97"/>
<polygon fill="midnightblue" stroke="midnightblue" points="935.78,-304.43 945.35,-299.9 935.04,-297.47 935.78,-304.43"/>
</g>
<!-- Node29&#45;&gt;Node30 -->
<g id="edge96" class="edge">
<title>Node29&#45;&gt;Node30</title>
<path fill="none" stroke="midnightblue" d="M660.53,-872.76C680.99,-867.31 707.37,-860.56 731,-855.34 799.08,-840.3 877.14,-826 933.35,-816.22"/>
<polygon fill="midnightblue" stroke="midnightblue" points="933.97,-819.66 943.23,-814.51 932.78,-812.77 933.97,-819.66"/>
</g>
<!-- Node31 -->
<g id="node31" class="node">
<title>Node31</title>
<g id="a_node31"><a xlink:href="class_t_track.html#a977285544a4e0b017ed5c9670ac38d87" target="_top" xlink:title=" ">
<polygon fill="white" stroke="black" points="932,-837.84 932,-856.84 1090,-856.84 1090,-837.84 932,-837.84"/>
<text text-anchor="middle" x="1011" y="-844.84" font-family="Helvetica,sans-Serif" font-size="10.00">TTrack::ElementInLNPendingList</text>
</a>
</g>
</g>
<!-- Node29&#45;&gt;Node31 -->
<g id="edge99" class="edge">
<title>Node29&#45;&gt;Node31</title>
<path fill="none" stroke="midnightblue" d="M675.77,-877.77C738.11,-872.09 845.45,-862.32 921.66,-855.38"/>
<polygon fill="midnightblue" stroke="midnightblue" points="922.09,-858.86 931.73,-854.47 921.45,-851.89 922.09,-858.86"/>
</g>
<!-- Node32 -->
<g id="node32" class="node">
<title>Node32</title>
<g id="a_node32"><a xlink:href="class_t_track.html#a198ba6486ccb7cdfb25bdd8c30451d06" target="_top" xlink:title="True if the active or inactive TrackElement at HLoc &amp; VLoc has its FixedNamedLocationElement member t...">
<polygon fill="white" stroke="black" points="731,-1138.84 731,-1157.84 896,-1157.84 896,-1138.84 731,-1138.84"/>
<text text-anchor="middle" x="813.5" y="-1145.84" font-family="Helvetica,sans-Serif" font-size="10.00">TTrack::NamedLocationElementAt</text>
</a>
</g>
</g>
<!-- Node29&#45;&gt;Node32 -->
<g id="edge105" class="edge">
<title>Node29&#45;&gt;Node32</title>
<path fill="none" stroke="midnightblue" d="M643.03,-891.87C659.19,-901.61 682.5,-918.27 695,-939.34 738.86,-1013.25 671.51,-1067.31 731,-1129.34 732.24,-1130.64 733.56,-1131.86 734.93,-1133"/>
<polygon fill="midnightblue" stroke="midnightblue" points="733.16,-1136.02 743.4,-1138.73 737.08,-1130.22 733.16,-1136.02"/>
</g>
<!-- Node30&#45;&gt;Node2 -->
<g id="edge97" class="edge">
<title>Node30&#45;&gt;Node2</title>
<path fill="none" stroke="midnightblue" d="M1078.57,-818.26C1082.84,-821.07 1086.73,-824.4 1090,-828.34 1136.58,-884.56 1172.01,-1424.84 1178.81,-1535.57"/>
<polygon fill="midnightblue" stroke="midnightblue" points="1175.33,-1535.9 1179.43,-1545.67 1182.31,-1535.48 1175.33,-1535.9"/>
</g>
<!-- Node30&#45;&gt;Node5 -->
<g id="edge98" class="edge">
<title>Node30&#45;&gt;Node5</title>
<path fill="none" stroke="midnightblue" d="M1070.54,-818.5C1077.34,-821.3 1083.98,-824.56 1090,-828.34 1122.82,-848.98 1151.87,-884.31 1167.6,-905.58"/>
<polygon fill="midnightblue" stroke="midnightblue" points="1164.8,-907.69 1173.49,-913.75 1170.48,-903.59 1164.8,-907.69"/>
</g>
<!-- Node31&#45;&gt;Node2 -->
<g id="edge100" class="edge">
<title>Node31&#45;&gt;Node2</title>
<path fill="none" stroke="midnightblue" d="M1078.39,-857.04C1082.7,-859.55 1086.65,-862.61 1090,-866.34 1136.08,-917.75 1171.71,-1428.11 1178.74,-1535.55"/>
<polygon fill="midnightblue" stroke="midnightblue" points="1175.25,-1535.9 1179.39,-1545.65 1182.24,-1535.45 1175.25,-1535.9"/>
</g>
<!-- Node31&#45;&gt;Node5 -->
<g id="edge101" class="edge">
<title>Node31&#45;&gt;Node5</title>
<path fill="none" stroke="midnightblue" d="M1061.89,-856.93C1071.4,-859.47 1081.15,-862.58 1090,-866.34 1115.37,-877.12 1141.7,-894.67 1159.28,-907.45"/>
<polygon fill="midnightblue" stroke="midnightblue" points="1157.5,-910.49 1167.62,-913.64 1161.67,-904.87 1157.5,-910.49"/>
</g>
<!-- Node32&#45;&gt;Node2 -->
<g id="edge106" class="edge">
<title>Node32&#45;&gt;Node2</title>
<path fill="none" stroke="midnightblue" d="M828.15,-1157.92C856.66,-1177.87 920.86,-1222.45 932,-1227.34 998.12,-1256.39 1037.3,-1215.96 1090,-1265.34 1169.39,-1339.74 1179.27,-1482.67 1180.11,-1535.27"/>
<polygon fill="midnightblue" stroke="midnightblue" points="1176.62,-1535.61 1180.18,-1545.59 1183.62,-1535.57 1176.62,-1535.61"/>
</g>
<!-- Node32&#45;&gt;Node5 -->
<g id="edge108" class="edge">
<title>Node32&#45;&gt;Node5</title>
<path fill="none" stroke="midnightblue" d="M881.91,-1138.79C887.03,-1136.28 891.83,-1133.18 896,-1129.34 934.19,-1094.25 894.04,-1053.68 932,-1018.34 984.94,-969.06 1023.36,-1007.46 1090,-979.34 1115.27,-968.68 1141.62,-951.46 1159.22,-938.92"/>
<polygon fill="midnightblue" stroke="midnightblue" points="1161.55,-941.56 1167.58,-932.85 1157.43,-935.89 1161.55,-941.56"/>
</g>
<!-- Node32&#45;&gt;Node7 -->
<g id="edge107" class="edge">
<title>Node32&#45;&gt;Node7</title>
<path fill="none" stroke="midnightblue" d="M834.02,-1157.85C852.21,-1167.57 879.01,-1184.22 896,-1205.34 929.91,-1247.5 984.9,-1404.87 1003.56,-1460.06"/>
<polygon fill="midnightblue" stroke="midnightblue" points="1000.29,-1461.31 1006.8,-1469.68 1006.93,-1459.08 1000.29,-1461.31"/>
</g>
<!-- Node32&#45;&gt;Node8 -->
<g id="edge109" class="edge">
<title>Node32&#45;&gt;Node8</title>
<path fill="none" stroke="midnightblue" d="M882.97,-1138.7C887.74,-1136.19 892.17,-1133.11 896,-1129.34 943.02,-1083.07 903.09,-1044.64 932,-985.34 947.8,-952.93 975.31,-921.07 993.08,-902.31"/>
<polygon fill="midnightblue" stroke="midnightblue" points="995.82,-904.51 1000.25,-894.89 990.79,-899.64 995.82,-904.51"/>
</g>
<!-- Node33&#45;&gt;Node2 -->
<g id="edge116" class="edge">
<title>Node33&#45;&gt;Node2</title>
<path fill="none" stroke="midnightblue" d="M856.61,-607.97C870.33,-612.67 884.88,-619.52 896,-629.34 921.63,-651.99 904.98,-676.38 932,-697.34 989.06,-741.62 1042.27,-681.14 1090,-735.34 1117.42,-766.48 1168.96,-1413.38 1178.47,-1535.54"/>
<polygon fill="midnightblue" stroke="midnightblue" points="1175,-1535.98 1179.26,-1545.68 1181.97,-1535.44 1175,-1535.98"/>
</g>
<!-- Node33&#45;&gt;Node5 -->
<g id="edge120" class="edge">
<title>Node33&#45;&gt;Node5</title>
<path fill="none" stroke="midnightblue" d="M871.87,-588.83C880.48,-585.76 888.85,-581.7 896,-576.34 920.58,-557.92 905.21,-532.38 932,-517.34 993.24,-482.97 1035.24,-473.39 1090,-517.34 1151.6,-566.78 1173.64,-828.28 1178.75,-903.24"/>
<polygon fill="midnightblue" stroke="midnightblue" points="1175.29,-903.86 1179.43,-913.61 1182.27,-903.4 1175.29,-903.86"/>
</g>
<!-- Node34 -->
<g id="node34" class="node">
<title>Node34</title>
<g id="a_node34"><a xlink:href="class_t_text_handler.html#a7dfd4e30235878fb01e7387715e0cb0f" target="_top" xlink:title="return the number of items in TextVector">
<polygon fill="white" stroke="black" points="938,-559.84 938,-578.84 1084,-578.84 1084,-559.84 938,-559.84"/>
<text text-anchor="middle" x="1011" y="-566.84" font-family="Helvetica,sans-Serif" font-size="10.00">TTextHandler::TextVectorSize</text>
</a>
</g>
</g>
<!-- Node33&#45;&gt;Node34 -->
<g id="edge117" class="edge">
<title>Node33&#45;&gt;Node34</title>
<path fill="none" stroke="midnightblue" d="M872.1,-589.8C891.94,-586.85 914.46,-583.52 935.45,-580.4"/>
<polygon fill="midnightblue" stroke="midnightblue" points="936.24,-583.82 945.62,-578.89 935.22,-576.9 936.24,-583.82"/>
</g>
<!-- Node34&#45;&gt;Node2 -->
<g id="edge118" class="edge">
<title>Node34&#45;&gt;Node2</title>
<path fill="none" stroke="midnightblue" d="M1078.54,-578.91C1082.82,-581.44 1086.72,-584.54 1090,-588.34 1094.03,-593.01 1166,-1398.28 1178.24,-1535.56"/>
<polygon fill="midnightblue" stroke="midnightblue" points="1174.78,-1536.17 1179.15,-1545.82 1181.75,-1535.55 1174.78,-1536.17"/>
</g>
<!-- Node34&#45;&gt;Node5 -->
<g id="edge119" class="edge">
<title>Node34&#45;&gt;Node5</title>
<path fill="none" stroke="midnightblue" d="M1076.74,-578.97C1081.6,-581.46 1086.11,-584.54 1090,-588.34 1136.23,-633.5 1168.2,-838.38 1177.33,-903.45"/>
<polygon fill="midnightblue" stroke="midnightblue" points="1173.89,-904.16 1178.72,-913.59 1180.83,-903.21 1173.89,-904.16"/>
</g>
<!-- Node35&#45;&gt;Node2 -->
<g id="edge122" class="edge">
<title>Node35&#45;&gt;Node2</title>
<path fill="none" stroke="midnightblue" d="M878.22,-1294.49C884.43,-1297.02 890.47,-1299.95 896,-1303.34 915.84,-1315.49 913.21,-1327.63 932,-1341.34 994.95,-1387.27 1031.45,-1365.92 1090,-1417.34 1129.24,-1451.8 1158.29,-1507.3 1171.72,-1536.3"/>
<polygon fill="midnightblue" stroke="midnightblue" points="1168.66,-1538.02 1175.95,-1545.7 1175.04,-1535.15 1168.66,-1538.02"/>
</g>
<!-- Node35&#45;&gt;Node5 -->
<g id="edge124" class="edge">
<title>Node35&#45;&gt;Node5</title>
<path fill="none" stroke="midnightblue" d="M885.98,-1264.28C948.03,-1247.67 1036.13,-1215 1090,-1155.34 1147.68,-1091.47 1170.09,-986.53 1177.19,-943.11"/>
<polygon fill="midnightblue" stroke="midnightblue" points="1180.68,-943.43 1178.74,-933.01 1173.77,-942.36 1180.68,-943.43"/>
</g>
<!-- Node35&#45;&gt;Node7 -->
<g id="edge123" class="edge">
<title>Node35&#45;&gt;Node7</title>
<path fill="none" stroke="midnightblue" d="M884.38,-1294.49C888.59,-1297.01 892.52,-1299.93 896,-1303.34 933.94,-1340.54 901.89,-1373.57 932,-1417.34 945.4,-1436.82 966.73,-1453.18 983.7,-1464.19"/>
<polygon fill="midnightblue" stroke="midnightblue" points="982.26,-1467.42 992.6,-1469.74 985.97,-1461.48 982.26,-1467.42"/>
</g>
<!-- Node35&#45;&gt;Node8 -->
<g id="edge125" class="edge">
<title>Node35&#45;&gt;Node8</title>
<path fill="none" stroke="midnightblue" d="M884.65,-1264.14C888.86,-1261.39 892.71,-1258.15 896,-1254.34 965.34,-1174.04 896.53,-1118.34 932,-1018.34 947.71,-974.05 978.56,-927.95 996.39,-903.36"/>
<polygon fill="midnightblue" stroke="midnightblue" points="999.41,-905.16 1002.53,-895.04 993.78,-901.01 999.41,-905.16"/>
</g>
<!-- Node36&#45;&gt;Node2 -->
<g id="edge129" class="edge">
<title>Node36&#45;&gt;Node2</title>
<path fill="none" stroke="midnightblue" d="M871.11,-1343.5C880,-1347.43 888.66,-1352.31 896,-1358.34 919.73,-1377.84 907.44,-1398.89 932,-1417.34 990.19,-1461.06 1027.54,-1422.98 1090,-1460.34 1123.27,-1480.24 1152.17,-1515.82 1167.75,-1537.33"/>
<polygon fill="midnightblue" stroke="midnightblue" points="1164.96,-1539.45 1173.58,-1545.6 1170.68,-1535.42 1164.96,-1539.45"/>
</g>
<!-- Node36&#45;&gt;Node5 -->
<g id="edge131" class="edge">
<title>Node36&#45;&gt;Node5</title>
<path fill="none" stroke="midnightblue" d="M886.68,-1317.63C949.19,-1304.59 1037.58,-1276.48 1090,-1217.34 1162.92,-1135.09 1176.76,-994.93 1179.39,-943.25"/>
<polygon fill="midnightblue" stroke="midnightblue" points="1182.89,-943.24 1179.81,-933.1 1175.9,-942.95 1182.89,-943.24"/>
</g>
<!-- Node36&#45;&gt;Node7 -->
<g id="edge130" class="edge">
<title>Node36&#45;&gt;Node7</title>
<path fill="none" stroke="midnightblue" d="M874.65,-1343.54C882.5,-1347.42 889.91,-1352.27 896,-1358.34 928.56,-1390.81 898.57,-1423.76 932,-1455.34 936.29,-1459.39 941.25,-1462.76 946.54,-1465.56"/>
<polygon fill="midnightblue" stroke="midnightblue" points="945.16,-1468.78 955.71,-1469.76 948.08,-1462.42 945.16,-1468.78"/>
</g>
<!-- Node36&#45;&gt;Node8 -->
<g id="edge132" class="edge">
<title>Node36&#45;&gt;Node8</title>
<path fill="none" stroke="midnightblue" d="M884.76,-1313.24C888.94,-1310.46 892.76,-1307.19 896,-1303.34 937.1,-1254.49 911.43,-1078.78 932,-1018.34 947.14,-973.85 978.2,-927.83 996.22,-903.3"/>
<polygon fill="midnightblue" stroke="midnightblue" points="999.24,-905.11 1002.43,-895 993.64,-900.91 999.24,-905.11"/>
</g>
<!-- Node37&#45;&gt;Node2 -->
<g id="edge134" class="edge">
<title>Node37&#45;&gt;Node2</title>
<path fill="none" stroke="midnightblue" d="M626.8,-1055.37C638.56,-1190.77 725.99,-2195.69 731,-2201.34 738.58,-2209.89 920.64,-2243.14 932,-2244.34 1001.83,-2251.73 1037.23,-2290.67 1090,-2244.34 1141.94,-2198.75 1173.01,-1682.73 1178.95,-1574.99"/>
<polygon fill="midnightblue" stroke="midnightblue" points="1182.45,-1575.05 1179.5,-1564.88 1175.46,-1574.67 1182.45,-1575.05"/>
</g>
<!-- Node37&#45;&gt;Node5 -->
<g id="edge140" class="edge">
<title>Node37&#45;&gt;Node5</title>
<path fill="none" stroke="midnightblue" d="M684.48,-1025.3C688.48,-1022.52 692.07,-1019.23 695,-1015.34 768.42,-917.86 656.96,-564.36 731,-467.34 778.07,-405.67 832.6,-455.06 896,-410.34 916.93,-395.58 908.92,-376.44 932,-365.34 995.29,-334.92 1036.54,-319.81 1090,-365.34 1173.92,-436.81 1179.86,-812.56 1180.06,-903.51"/>
<polygon fill="midnightblue" stroke="midnightblue" points="1176.56,-903.77 1180.06,-913.77 1183.56,-903.77 1176.56,-903.77"/>
</g>
<!-- Node37&#45;&gt;Node8 -->
<g id="edge141" class="edge">
<title>Node37&#45;&gt;Node8</title>
<path fill="none" stroke="midnightblue" d="M695.2,-1034.07C753.76,-1025.77 837.08,-1006.59 896,-962.34 919.96,-944.35 907.78,-922.98 932,-905.34 935.28,-902.96 938.81,-900.86 942.5,-899.01"/>
<polygon fill="midnightblue" stroke="midnightblue" points="944.17,-902.1 951.95,-894.9 941.38,-895.68 944.17,-902.1"/>
</g>
<!-- Node38 -->
<g id="node38" class="node">
<title>Node38</title>
<g id="a_node38"><a xlink:href="class_t_track.html#a7867a4b41fbc25f35eccab0b03cab9ed" target="_top" xlink:title="True if a non&#45;station named location at HLoc &amp; VLoc.">
<polygon fill="white" stroke="black" points="744.5,-1515.34 744.5,-1545.34 882.5,-1545.34 882.5,-1515.34 744.5,-1515.34"/>
<text text-anchor="start" x="752.5" y="-1533.34" font-family="Helvetica,sans-Serif" font-size="10.00">TTrack::IsNamedNonStation</text>
<text text-anchor="middle" x="813.5" y="-1522.34" font-family="Helvetica,sans-Serif" font-size="10.00">LocationPresent</text>
</a>
</g>
</g>
<!-- Node37&#45;&gt;Node38 -->
<g id="edge135" class="edge">
<title>Node37&#45;&gt;Node38</title>
<path fill="none" stroke="midnightblue" d="M628.88,-1055.6C640.06,-1104.78 678.11,-1263.14 731,-1386.34 749.94,-1430.45 778.88,-1478.34 796.69,-1506.27"/>
<polygon fill="midnightblue" stroke="midnightblue" points="793.92,-1508.43 802.28,-1514.94 799.81,-1504.64 793.92,-1508.43"/>
</g>
<!-- Node38&#45;&gt;Node2 -->
<g id="edge136" class="edge">
<title>Node38&#45;&gt;Node2</title>
<path fill="none" stroke="midnightblue" d="M882.82,-1535.02C949.6,-1539.58 1050.49,-1546.48 1115.82,-1550.95"/>
<polygon fill="midnightblue" stroke="midnightblue" points="1115.77,-1554.46 1125.99,-1551.65 1116.25,-1547.47 1115.77,-1554.46"/>
</g>
<!-- Node38&#45;&gt;Node5 -->
<g id="edge139" class="edge">
<title>Node38&#45;&gt;Node5</title>
<path fill="none" stroke="midnightblue" d="M882.68,-1531.52C954.55,-1531.24 1061.27,-1525.95 1090,-1498.34 1171.91,-1419.61 1179.36,-1035.5 1179.96,-943.28"/>
<polygon fill="midnightblue" stroke="midnightblue" points="1183.47,-943.11 1180.01,-933.09 1176.47,-943.08 1183.47,-943.11"/>
</g>
<!-- Node38&#45;&gt;Node6 -->
<g id="edge137" class="edge">
<title>Node38&#45;&gt;Node6</title>
<path fill="none" stroke="midnightblue" d="M857.4,-1545.48C886.94,-1555.91 926.36,-1569.82 957.74,-1580.9"/>
<polygon fill="midnightblue" stroke="midnightblue" points="956.6,-1584.21 967.2,-1584.24 958.93,-1577.61 956.6,-1584.21"/>
</g>
<!-- Node38&#45;&gt;Node7 -->
<g id="edge138" class="edge">
<title>Node38&#45;&gt;Node7</title>
<path fill="none" stroke="midnightblue" d="M872.1,-1515.32C901.29,-1507.7 936.26,-1498.58 963.69,-1491.42"/>
<polygon fill="midnightblue" stroke="midnightblue" points="964.63,-1494.8 973.42,-1488.88 962.86,-1488.02 964.63,-1494.8"/>
</g>
<!-- Node39&#45;&gt;Node2 -->
<g id="edge155" class="edge">
<title>Node39&#45;&gt;Node2</title>
<path fill="none" stroke="midnightblue" d="M632.58,-740.04C647.52,-761.17 681.96,-813.43 695,-863.34 712.16,-929.06 682.51,-2037.79 731,-2085.34 759.48,-2113.27 1059.53,-2113.09 1090,-2087.34 1170.11,-2019.64 1178.94,-1663.27 1179.89,-1575.09"/>
<polygon fill="midnightblue" stroke="midnightblue" points="1183.39,-1574.92 1179.97,-1564.89 1176.39,-1574.86 1183.39,-1574.92"/>
</g>
<!-- Node39&#45;&gt;Node5 -->
<g id="edge156" class="edge">
<title>Node39&#45;&gt;Node5</title>
<path fill="none" stroke="midnightblue" d="M625.9,-720.7C628.8,-655.85 648.92,-283.97 731,-216.34 854.14,-114.88 970.28,-108.86 1090,-214.34 1143.39,-261.38 1173.36,-793.39 1179.02,-903.48"/>
<polygon fill="midnightblue" stroke="midnightblue" points="1175.54,-903.98 1179.54,-913.79 1182.53,-903.63 1175.54,-903.98"/>
</g>
<!-- Node40 -->
<g id="node40" class="node">
<title>Node40</title>
<g id="a_node40"><a xlink:href="class_t_track.html#a20a28eaf0308f7aedcfc78ba9eeadea9" target="_top" xlink:title="Examine TrackVector, InactiveTrackVector and TextVector, and set the values that indicate the extent ...">
<polygon fill="white" stroke="black" points="751,-638.84 751,-657.84 876,-657.84 876,-638.84 751,-638.84"/>
<text text-anchor="middle" x="813.5" y="-645.84" font-family="Helvetica,sans-Serif" font-size="10.00">TTrack::CalcHLocMinEtc</text>
</a>
</g>
</g>
<!-- Node39&#45;&gt;Node40 -->
<g id="edge143" class="edge">
<title>Node39&#45;&gt;Node40</title>
<path fill="none" stroke="midnightblue" d="M660.38,-720.78C671.76,-717.02 684.23,-712.18 695,-706.34 712.82,-696.68 713.28,-688.18 731,-678.34 743.08,-671.63 756.95,-665.89 769.79,-661.27"/>
<polygon fill="midnightblue" stroke="midnightblue" points="771.05,-664.53 779.36,-657.96 768.76,-657.92 771.05,-664.53"/>
</g>
<!-- Node40&#45;&gt;Node2 -->
<g id="edge144" class="edge">
<title>Node40&#45;&gt;Node2</title>
<path fill="none" stroke="midnightblue" d="M856.19,-657.9C869.88,-662.48 884.51,-669.05 896,-678.34 919.3,-697.18 907.91,-717.53 932,-735.34 990.52,-778.61 1042.55,-723.16 1090,-778.34 1115.57,-808.08 1168.3,-1417.1 1178.33,-1535.5"/>
<polygon fill="midnightblue" stroke="midnightblue" points="1174.86,-1535.98 1179.19,-1545.65 1181.84,-1535.39 1174.86,-1535.98"/>
</g>
<!-- Node40&#45;&gt;Node5 -->
<g id="edge150" class="edge">
<title>Node40&#45;&gt;Node5</title>
<path fill="none" stroke="midnightblue" d="M856.16,-638.82C870,-634.11 884.74,-627.23 896,-617.34 921.4,-595.04 902.99,-567.69 932,-550.34 992.27,-514.31 1034.83,-506.9 1090,-550.34 1146.89,-595.14 1172.06,-832.84 1178.36,-903.51"/>
<polygon fill="midnightblue" stroke="midnightblue" points="1174.89,-904.04 1179.24,-913.7 1181.86,-903.44 1174.89,-904.04"/>
</g>
<!-- Node40&#45;&gt;Node7 -->
<g id="edge145" class="edge">
<title>Node40&#45;&gt;Node7</title>
<path fill="none" stroke="midnightblue" d="M816.71,-658.02C828.44,-709.33 884.64,-954.85 932,-1155.34 959.33,-1271.03 993.03,-1409.72 1005.28,-1459.97"/>
<polygon fill="midnightblue" stroke="midnightblue" points="1001.9,-1460.92 1007.67,-1469.81 1008.71,-1459.26 1001.9,-1460.92"/>
</g>
<!-- Node40&#45;&gt;Node8 -->
<g id="edge151" class="edge">
<title>Node40&#45;&gt;Node8</title>
<path fill="none" stroke="midnightblue" d="M831.66,-658.01C850.39,-669.48 879.87,-690.35 896,-716.34 932.16,-774.59 883.6,-817.78 932,-866.34 934.67,-869.02 937.64,-871.34 940.83,-873.35"/>
<polygon fill="midnightblue" stroke="midnightblue" points="939.22,-876.46 949.71,-877.99 942.46,-870.26 939.22,-876.46"/>
</g>
<!-- Node40&#45;&gt;Node34 -->
<g id="edge149" class="edge">
<title>Node40&#45;&gt;Node34</title>
<path fill="none" stroke="midnightblue" d="M846.51,-638.78C861.98,-633.51 880.51,-626.23 896,-617.34 913.82,-607.12 913.58,-597.44 932,-588.34 936.84,-585.95 942.01,-583.85 947.28,-582"/>
<polygon fill="midnightblue" stroke="midnightblue" points="948.4,-585.32 956.86,-578.95 946.27,-578.65 948.4,-585.32"/>
</g>
<!-- Node41 -->
<g id="node41" class="node">
<title>Node41</title>
<g id="a_node41"><a xlink:href="class_t_text_handler.html#ac478536f458d9cda8a841953672f6525" target="_top" xlink:title="return the text item at position &#39;At&#39; in TextVector (carries out range checking)">
<polygon fill="white" stroke="black" points="950.5,-635.84 950.5,-654.84 1071.5,-654.84 1071.5,-635.84 950.5,-635.84"/>
<text text-anchor="middle" x="1011" y="-642.84" font-family="Helvetica,sans-Serif" font-size="10.00">TTextHandler::TextPtrAt</text>
</a>
</g>
</g>
<!-- Node40&#45;&gt;Node41 -->
<g id="edge146" class="edge">
<title>Node40&#45;&gt;Node41</title>
<path fill="none" stroke="midnightblue" d="M876.09,-647.4C896.48,-647.08 919.32,-646.73 940.27,-646.41"/>
<polygon fill="midnightblue" stroke="midnightblue" points="940.45,-649.91 950.39,-646.26 940.34,-642.91 940.45,-649.91"/>
</g>
<!-- Node42 -->
<g id="node42" class="node">
<title>Node42</title>
<g id="a_node42"><a xlink:href="class_t_track.html#a1092232428ee654facf8f53340c13f74" target="_top" xlink:title="A range&#45;checked version of UserGraphicVector.at(At)">
<polygon fill="white" stroke="black" points="939,-597.84 939,-616.84 1083,-616.84 1083,-597.84 939,-597.84"/>
<text text-anchor="middle" x="1011" y="-604.84" font-family="Helvetica,sans-Serif" font-size="10.00">TTrack::UserGraphicVectorAt</text>
</a>
</g>
</g>
<!-- Node40&#45;&gt;Node42 -->
<g id="edge152" class="edge">
<title>Node40&#45;&gt;Node42</title>
<path fill="none" stroke="midnightblue" d="M859.84,-638.83C888.12,-632.9 924.7,-625.23 954.67,-618.95"/>
<polygon fill="midnightblue" stroke="midnightblue" points="955.5,-622.35 964.56,-616.87 954.06,-615.5 955.5,-622.35"/>
</g>
<!-- Node41&#45;&gt;Node2 -->
<g id="edge147" class="edge">
<title>Node41&#45;&gt;Node2</title>
<path fill="none" stroke="midnightblue" d="M1070.84,-654.98C1078.17,-658.44 1084.88,-663.1 1090,-669.34 1104.27,-686.75 1167.1,-1406.23 1178.29,-1535.54"/>
<polygon fill="midnightblue" stroke="midnightblue" points="1174.81,-1535.94 1179.16,-1545.6 1181.79,-1535.34 1174.81,-1535.94"/>
</g>
<!-- Node41&#45;&gt;Node5 -->
<g id="edge148" class="edge">
<title>Node41&#45;&gt;Node5</title>
<path fill="none" stroke="midnightblue" d="M1066.37,-654.84C1075.05,-658.28 1083.35,-662.97 1090,-669.34 1158.48,-735 1174.94,-856.01 1178.83,-903.49"/>
<polygon fill="midnightblue" stroke="midnightblue" points="1175.35,-903.93 1179.55,-913.66 1182.33,-903.43 1175.35,-903.93"/>
</g>
<!-- Node42&#45;&gt;Node2 -->
<g id="edge153" class="edge">
<title>Node42&#45;&gt;Node2</title>
<path fill="none" stroke="midnightblue" d="M1078.52,-616.92C1082.81,-619.45 1086.71,-622.55 1090,-626.34 1097.75,-635.28 1166.35,-1402.03 1178.24,-1535.61"/>
<polygon fill="midnightblue" stroke="midnightblue" points="1174.77,-1535.99 1179.14,-1545.64 1181.74,-1535.37 1174.77,-1535.99"/>
</g>
<!-- Node42&#45;&gt;Node5 -->
<g id="edge154" class="edge">
<title>Node42&#45;&gt;Node5</title>
<path fill="none" stroke="midnightblue" d="M1076.23,-616.91C1081.26,-619.41 1085.95,-622.51 1090,-626.34 1171.13,-703.1 1179.88,-850.28 1180.28,-903.51"/>
<polygon fill="midnightblue" stroke="midnightblue" points="1176.78,-903.64 1180.25,-913.65 1183.78,-903.66 1176.78,-903.64"/>
</g>
<!-- Node44&#45;&gt;Node2 -->
<g id="edge166" class="edge">
<title>Node44&#45;&gt;Node2</title>
<path fill="none" stroke="midnightblue" d="M850.25,-2424.85C909.06,-2438.11 1026.04,-2454.01 1090,-2391.34 1150.35,-2332.21 1175.15,-1696.21 1179.34,-1575.17"/>
<polygon fill="midnightblue" stroke="midnightblue" points="1182.85,-1575.22 1179.69,-1565.1 1175.85,-1574.98 1182.85,-1575.22"/>
</g>
<!-- Node44&#45;&gt;Node5 -->
<g id="edge168" class="edge">
<title>Node44&#45;&gt;Node5</title>
<path fill="none" stroke="midnightblue" d="M862.06,-2405.82C933.49,-2390.44 1063,-2358.03 1090,-2320.34 1140.79,-2249.45 1120.17,-1623.35 1126,-1536.34 1141.65,-1302.63 1170.1,-1019.62 1177.95,-943.17"/>
<polygon fill="midnightblue" stroke="midnightblue" points="1181.45,-943.37 1178.99,-933.06 1174.48,-942.65 1181.45,-943.37"/>
</g>
<!-- Node44&#45;&gt;Node14 -->
<g id="edge167" class="edge">
<title>Node44&#45;&gt;Node14</title>
<path fill="none" stroke="midnightblue" d="M869.82,-2406.51C878.86,-2403.93 887.9,-2400.61 896,-2396.34 915.2,-2386.21 915.49,-2377.44 932,-2363.34 950.98,-2347.13 973.34,-2329.5 989.24,-2317.2"/>
<polygon fill="midnightblue" stroke="midnightblue" points="991.57,-2319.83 997.35,-2310.96 987.29,-2314.28 991.57,-2319.83"/>
</g>
<!-- Node45&#45;&gt;Node2 -->
<g id="edge172" class="edge">
<title>Node45&#45;&gt;Node2</title>
<path fill="none" stroke="midnightblue" d="M862.5,-1114.92C874.26,-1117.75 886.25,-1122.24 896,-1129.34 921.13,-1147.66 906.93,-1170.94 932,-1189.34 990.22,-1232.08 1038.12,-1177.09 1090,-1227.34 1135.51,-1271.43 1167.97,-1472.12 1177.27,-1535.85"/>
<polygon fill="midnightblue" stroke="midnightblue" points="1173.81,-1536.39 1178.7,-1545.79 1180.74,-1535.39 1173.81,-1536.39"/>
</g>
<!-- Node45&#45;&gt;Node5 -->
<g id="edge176" class="edge">
<title>Node45&#45;&gt;Node5</title>
<path fill="none" stroke="midnightblue" d="M862.76,-1107.34C874.79,-1104.52 886.85,-1099.63 896,-1091.34 932.87,-1057.93 895.4,-1019.04 932,-985.34 939.27,-978.64 1056.63,-951.22 1127.26,-935.18"/>
<polygon fill="midnightblue" stroke="midnightblue" points="1128.35,-938.52 1137.33,-932.9 1126.8,-931.69 1128.35,-938.52"/>
</g>
<!-- Node45&#45;&gt;Node6 -->
<g id="edge174" class="edge">
<title>Node45&#45;&gt;Node6</title>
<path fill="none" stroke="midnightblue" d="M862.84,-1111.73C875.31,-1114.48 887.57,-1119.73 896,-1129.34 950.3,-1191.31 901.64,-1421.75 932,-1498.34 944.13,-1528.93 968.44,-1558.03 986.72,-1577.06"/>
<polygon fill="midnightblue" stroke="midnightblue" points="984.37,-1579.67 993.88,-1584.34 989.36,-1574.76 984.37,-1579.67"/>
</g>
<!-- Node45&#45;&gt;Node7 -->
<g id="edge175" class="edge">
<title>Node45&#45;&gt;Node7</title>
<path fill="none" stroke="midnightblue" d="M862.83,-1113.27C874.86,-1116.09 886.9,-1120.99 896,-1129.34 902.45,-1135.26 981.47,-1387.76 1004.02,-1460.14"/>
<polygon fill="midnightblue" stroke="midnightblue" points="1000.72,-1461.29 1007.03,-1469.8 1007.4,-1459.21 1000.72,-1461.29"/>
</g>
<!-- Node45&#45;&gt;Node8 -->
<g id="edge177" class="edge">
<title>Node45&#45;&gt;Node8</title>
<path fill="none" stroke="midnightblue" d="M862.81,-1107.93C874.98,-1105.13 887.09,-1100.11 896,-1091.34 943.02,-1045.07 896.28,-1002.81 932,-947.34 944.72,-927.59 965.91,-911.34 982.99,-900.44"/>
<polygon fill="midnightblue" stroke="midnightblue" points="985.27,-903.15 991.98,-894.95 981.62,-897.17 985.27,-903.15"/>
</g>
<!-- Node45&#45;&gt;Node11 -->
<g id="edge173" class="edge">
<title>Node45&#45;&gt;Node11</title>
<path fill="none" stroke="midnightblue" d="M862.61,-1109.22C875.23,-1106.5 887.63,-1101.2 896,-1091.34 935,-1045.42 921.05,-609.58 932,-550.34 947.89,-464.38 983.22,-366.51 1000.33,-321.87"/>
<polygon fill="midnightblue" stroke="midnightblue" points="1003.64,-323.02 1003.99,-312.43 997.11,-320.5 1003.64,-323.02"/>
</g>
</g>
</svg>
