<?xml version="1.0" encoding="UTF-8" standalone="no"?>
<!DOCTYPE svg PUBLIC "-//W3C//DTD SVG 1.1//EN"
 "http://www.w3.org/Graphics/SVG/1.1/DTD/svg11.dtd">
<!-- Generated by graphviz version 2.44.1 (20200629.0800)
 -->
<!-- Title: TTrack::LCInSearchVector Pages: 1 -->
<svg width="721pt" height="78pt"
 viewBox="0.00 0.00 721.00 77.50" xmlns="http://www.w3.org/2000/svg" xmlns:xlink="http://www.w3.org/1999/xlink">
<g id="graph0" class="graph" transform="scale(1 1) rotate(0) translate(4 73.5)">
<title>TTrack::LCInSearchVector</title>
<polygon fill="white" stroke="transparent" points="-4,4 -4,-73.5 717,-73.5 717,4 -4,4"/>
<!-- Node1 -->
<g id="node1" class="node">
<title>Node1</title>
<g id="a_node1"><a xlink:title="checks for a route being set across an LC to prevent barriers raising">
<polygon fill="#bfbfbf" stroke="black" points="582,-28 582,-47 713,-47 713,-28 582,-28"/>
<text text-anchor="middle" x="647.5" y="-35" font-family="Helvetica,sans-Serif" font-size="10.00">TTrack::LCInSearchVector</text>
</a>
</g>
</g>
<!-- Node2 -->
<g id="node2" class="node">
<title>Node2</title>
<g id="a_node2"><a xlink:href="class_t_track.html#a0a99f8e9b1b6fc3f629d6292f2e14308" target="_top" xlink:title="True if a route or train present on any linked level crossing element.">
<polygon fill="white" stroke="black" points="388,-22.5 388,-52.5 546,-52.5 546,-22.5 388,-22.5"/>
<text text-anchor="start" x="396" y="-40.5" font-family="Helvetica,sans-Serif" font-size="10.00">TTrack::AnyLinkedLevelCrossing</text>
<text text-anchor="middle" x="467" y="-29.5" font-family="Helvetica,sans-Serif" font-size="10.00">ElementsWithRoutesOrTrains</text>
</a>
</g>
</g>
<!-- Node1&#45;&gt;Node2 -->
<g id="edge1" class="edge">
<title>Node1&#45;&gt;Node2</title>
<path fill="none" stroke="midnightblue" d="M571.64,-37.5C563.22,-37.5 554.62,-37.5 546.16,-37.5"/>
<polygon fill="midnightblue" stroke="midnightblue" points="571.81,-41 581.81,-37.5 571.8,-34 571.81,-41"/>
</g>
<!-- Node3 -->
<g id="node3" class="node">
<title>Node3</title>
<g id="a_node3"><a xlink:href="class_t_interface.html#a6139ffb52492eb89e5487a8a3cd647b5" target="_top" xlink:title="The main loop, called every clock tick via MasterClockTimer.">
<polygon fill="white" stroke="black" points="219.5,-50 219.5,-69 338.5,-69 338.5,-50 219.5,-50"/>
<text text-anchor="middle" x="279" y="-57" font-family="Helvetica,sans-Serif" font-size="10.00">TInterface::ClockTimer2</text>
</a>
</g>
</g>
<!-- Node2&#45;&gt;Node3 -->
<g id="edge2" class="edge">
<title>Node2&#45;&gt;Node3</title>
<path fill="none" stroke="midnightblue" d="M377.81,-47.93C364.52,-49.5 351.1,-51.09 338.64,-52.56"/>
<polygon fill="midnightblue" stroke="midnightblue" points="378.41,-51.38 387.93,-46.73 377.59,-44.43 378.41,-51.38"/>
</g>
<!-- Node5 -->
<g id="node5" class="node">
<title>Node5</title>
<g id="a_node5"><a xlink:href="class_t_interface.html#abf07d5edc1507de381825f17620748b2" target="_top" xlink:title="Called when mouse button clicked in zoom&#45;in mode.">
<polygon fill="white" stroke="black" points="206,-0.5 206,-30.5 352,-30.5 352,-0.5 206,-0.5"/>
<text text-anchor="start" x="214" y="-18.5" font-family="Helvetica,sans-Serif" font-size="10.00">TInterface::MainScreenMouse</text>
<text text-anchor="middle" x="279" y="-7.5" font-family="Helvetica,sans-Serif" font-size="10.00">Down2</text>
</a>
</g>
</g>
<!-- Node2&#45;&gt;Node5 -->
<g id="edge4" class="edge">
<title>Node2&#45;&gt;Node5</title>
<path fill="none" stroke="midnightblue" d="M377.88,-27.08C369.29,-26.06 360.65,-25.04 352.24,-24.04"/>
<polygon fill="midnightblue" stroke="midnightblue" points="377.59,-30.57 387.93,-28.27 378.41,-23.62 377.59,-30.57"/>
</g>
<!-- Node4 -->
<g id="node4" class="node">
<title>Node4</title>
<g id="a_node4"><a xlink:href="class_t_interface.html#ace30a12d923fc7fb489afabb0a09aa4f" target="_top" xlink:title=" ">
<polygon fill="white" stroke="black" points="13.5,-50 13.5,-69 156.5,-69 156.5,-50 13.5,-50"/>
<text text-anchor="middle" x="85" y="-57" font-family="Helvetica,sans-Serif" font-size="10.00">TInterface::MasterClockTimer</text>
</a>
</g>
</g>
<!-- Node3&#45;&gt;Node4 -->
<g id="edge3" class="edge">
<title>Node3&#45;&gt;Node4</title>
<path fill="none" stroke="midnightblue" d="M208.97,-59.5C192.02,-59.5 173.84,-59.5 156.8,-59.5"/>
<polygon fill="midnightblue" stroke="midnightblue" points="209.35,-63 219.35,-59.5 209.35,-56 209.35,-63"/>
</g>
<!-- Node6 -->
<g id="node6" class="node">
<title>Node6</title>
<g id="a_node6"><a xlink:href="class_t_interface.html#a7f37862fb9e01e1328d9fd3fd8c50094" target="_top" xlink:title=" ">
<polygon fill="white" stroke="black" points="0,-6 0,-25 170,-25 170,-6 0,-6"/>
<text text-anchor="middle" x="85" y="-13" font-family="Helvetica,sans-Serif" font-size="10.00">TInterface::MainScreenMouseDown</text>
</a>
</g>
</g>
<!-- Node5&#45;&gt;Node6 -->
<g id="edge5" class="edge">
<title>Node5&#45;&gt;Node6</title>
<path fill="none" stroke="midnightblue" d="M195.7,-15.5C187.22,-15.5 178.58,-15.5 170.08,-15.5"/>
<polygon fill="midnightblue" stroke="midnightblue" points="195.96,-19 205.96,-15.5 195.96,-12 195.96,-19"/>
</g>
</g>
</svg>
