<?xml version="1.0" encoding="UTF-8" standalone="no"?>
<!DOCTYPE svg PUBLIC "-//W3C//DTD SVG 1.1//EN"
 "http://www.w3.org/Graphics/SVG/1.1/DTD/svg11.dtd">
<!-- Generated by graphviz version 2.44.1 (20200629.0800)
 -->
<!-- Title: TInterface::SetLevel2OperMode Pages: 1 -->
<svg width="481pt" height="127pt"
 viewBox="0.00 0.00 481.00 127.00" xmlns="http://www.w3.org/2000/svg" xmlns:xlink="http://www.w3.org/1999/xlink">
<g id="graph0" class="graph" transform="scale(1 1) rotate(0) translate(4 123)">
<title>TInterface::SetLevel2OperMode</title>
<polygon fill="white" stroke="transparent" points="-4,4 -4,-123 477,-123 477,4 -4,4"/>
<!-- Node1 -->
<g id="node1" class="node">
<title>Node1</title>
<g id="a_node1"><a xlink:title="Sets the Level2OperMode user mode, using the Level2OperMode variable to determine the mode.">
<polygon fill="#bfbfbf" stroke="black" points="321,-50 321,-69 473,-69 473,-50 321,-50"/>
<text text-anchor="middle" x="397" y="-57" font-family="Helvetica,sans-Serif" font-size="10.00">TInterface::SetLevel2OperMode</text>
</a>
</g>
</g>
<!-- Node2 -->
<g id="node2" class="node">
<title>Node2</title>
<g id="a_node2"><a xlink:href="class_t_interface.html#a7ccec66d1d0a81f124397af39f43da32" target="_top" xlink:title=" ">
<polygon fill="white" stroke="black" points="152,-88.5 152,-118.5 285,-118.5 285,-88.5 152,-88.5"/>
<text text-anchor="start" x="160" y="-106.5" font-family="Helvetica,sans-Serif" font-size="10.00">TInterface::AboutMenuItem</text>
<text text-anchor="middle" x="218.5" y="-95.5" font-family="Helvetica,sans-Serif" font-size="10.00">Click</text>
</a>
</g>
</g>
<!-- Node1&#45;&gt;Node2 -->
<g id="edge1" class="edge">
<title>Node1&#45;&gt;Node2</title>
<path fill="none" stroke="midnightblue" d="M347.76,-71.53C326.82,-76.75 302.08,-82.91 279.93,-88.43"/>
<polygon fill="midnightblue" stroke="midnightblue" points="348.85,-74.86 357.7,-69.05 347.15,-68.07 348.85,-74.86"/>
</g>
<!-- Node3 -->
<g id="node3" class="node">
<title>Node3</title>
<g id="a_node3"><a xlink:href="class_t_interface.html#a75f68c918750c0e007ea7a85d718e2ab" target="_top" xlink:title=" ">
<polygon fill="white" stroke="black" points="155,-50 155,-69 282,-69 282,-50 155,-50"/>
<text text-anchor="middle" x="218.5" y="-57" font-family="Helvetica,sans-Serif" font-size="10.00">TInterface::AppDeactivate</text>
</a>
</g>
</g>
<!-- Node1&#45;&gt;Node3 -->
<g id="edge2" class="edge">
<title>Node1&#45;&gt;Node3</title>
<path fill="none" stroke="midnightblue" d="M310.82,-59.5C301.12,-59.5 291.37,-59.5 282.04,-59.5"/>
<polygon fill="midnightblue" stroke="midnightblue" points="310.89,-63 320.89,-59.5 310.89,-56 310.89,-63"/>
</g>
<!-- Node5 -->
<g id="node5" class="node">
<title>Node5</title>
<g id="a_node5"><a xlink:href="class_t_interface.html#a26619c94a8ad27b574e0963dd123dc2a" target="_top" xlink:title=" ">
<polygon fill="white" stroke="black" points="154.5,-0.5 154.5,-30.5 282.5,-30.5 282.5,-0.5 154.5,-0.5"/>
<text text-anchor="start" x="162.5" y="-18.5" font-family="Helvetica,sans-Serif" font-size="10.00">TInterface::OperateButton</text>
<text text-anchor="middle" x="218.5" y="-7.5" font-family="Helvetica,sans-Serif" font-size="10.00">Click</text>
</a>
</g>
</g>
<!-- Node1&#45;&gt;Node5 -->
<g id="edge4" class="edge">
<title>Node1&#45;&gt;Node5</title>
<path fill="none" stroke="midnightblue" d="M347.76,-47.47C326.82,-42.25 302.08,-36.09 279.93,-30.57"/>
<polygon fill="midnightblue" stroke="midnightblue" points="347.15,-50.93 357.7,-49.95 348.85,-44.14 347.15,-50.93"/>
</g>
<!-- Node4 -->
<g id="node4" class="node">
<title>Node4</title>
<g id="a_node4"><a xlink:href="class_t_interface.html#a9cef18571e29b70d02ba9a92a830b3b8" target="_top" xlink:title=" ">
<polygon fill="white" stroke="black" points="0,-50 0,-69 116,-69 116,-50 0,-50"/>
<text text-anchor="middle" x="58" y="-57" font-family="Helvetica,sans-Serif" font-size="10.00">TInterface::FormCreate</text>
</a>
</g>
</g>
<!-- Node3&#45;&gt;Node4 -->
<g id="edge3" class="edge">
<title>Node3&#45;&gt;Node4</title>
<path fill="none" stroke="midnightblue" d="M144.86,-59.5C135.19,-59.5 125.39,-59.5 116.04,-59.5"/>
<polygon fill="midnightblue" stroke="midnightblue" points="144.86,-63 154.86,-59.5 144.86,-56 144.86,-63"/>
</g>
</g>
</svg>
