<?xml version="1.0" encoding="UTF-8" standalone="no"?>
<!DOCTYPE svg PUBLIC "-//W3C//DTD SVG 1.1//EN"
 "http://www.w3.org/Graphics/SVG/1.1/DTD/svg11.dtd">
<!-- Generated by graphviz version 2.44.1 (20200629.0800)
 -->
<!-- Title: TInterface::CheckInterface Pages: 1 -->
<svg width="471pt" height="268pt"
 viewBox="0.00 0.00 471.00 268.00" xmlns="http://www.w3.org/2000/svg" xmlns:xlink="http://www.w3.org/1999/xlink">
<g id="graph0" class="graph" transform="scale(1 1) rotate(0) translate(4 264)">
<title>TInterface::CheckInterface</title>
<polygon fill="white" stroke="transparent" points="-4,4 -4,-264 467,-264 467,4 -4,4"/>
<!-- Node1 -->
<g id="node1" class="node">
<title>Node1</title>
<g id="a_node1"><a xlink:title="Check the interface part of a session file &amp; return false for error, called during SessionFileIntegri...">
<polygon fill="#bfbfbf" stroke="black" points="0,-126.5 0,-145.5 129,-145.5 129,-126.5 0,-126.5"/>
<text text-anchor="middle" x="64.5" y="-133.5" font-family="Helvetica,sans-Serif" font-size="10.00">TInterface::CheckInterface</text>
</a>
</g>
</g>
<!-- Node2 -->
<g id="node2" class="node">
<title>Node2</title>
<g id="a_node2"><a xlink:href="class_t_utilities.html#ae1eddca13cc3c492839e131f40ec21c0" target="_top" xlink:title="pops the last entry off the call stack, throws an error if called when empty">
<polygon fill="white" stroke="black" points="177,-240.5 177,-259.5 287,-259.5 287,-240.5 177,-240.5"/>
<text text-anchor="middle" x="232" y="-247.5" font-family="Helvetica,sans-Serif" font-size="10.00">TUtilities::CallLogPop</text>
</a>
</g>
</g>
<!-- Node1&#45;&gt;Node2 -->
<g id="edge1" class="edge">
<title>Node1&#45;&gt;Node2</title>
<path fill="none" stroke="midnightblue" d="M73.86,-145.74C89.88,-163.84 126.69,-202.93 165,-226 171.98,-230.2 179.81,-233.85 187.58,-236.94"/>
<polygon fill="midnightblue" stroke="midnightblue" points="186.36,-240.22 196.96,-240.43 188.81,-233.66 186.36,-240.22"/>
</g>
<!-- Node3 -->
<g id="node3" class="node">
<title>Node3</title>
<g id="a_node3"><a xlink:href="class_t_utilities.html#a0a0ef5bf2fc74c0026f2a8bec4151d37" target="_top" xlink:title="checks that the value is a string (&#39;0&#39; or &#39; &#39; (CRLF) accepted as delimiters), returns true for succes...">
<polygon fill="white" stroke="black" points="335,-140 335,-170 463,-170 463,-140 335,-140"/>
<text text-anchor="start" x="343" y="-158" font-family="Helvetica,sans-Serif" font-size="10.00">TUtilities::CheckAndRead</text>
<text text-anchor="middle" x="399" y="-147" font-family="Helvetica,sans-Serif" font-size="10.00">FileString</text>
</a>
</g>
</g>
<!-- Node1&#45;&gt;Node3 -->
<g id="edge2" class="edge">
<title>Node1&#45;&gt;Node3</title>
<path fill="none" stroke="midnightblue" d="M77.45,-145.65C95.25,-159.35 130.37,-183.78 165,-193 222.55,-208.32 240.44,-203.85 299,-193 319.01,-189.29 340.19,-181.7 357.81,-174.27"/>
<polygon fill="midnightblue" stroke="midnightblue" points="359.43,-177.39 367.2,-170.19 356.64,-170.97 359.43,-177.39"/>
</g>
<!-- Node4 -->
<g id="node4" class="node">
<title>Node4</title>
<g id="a_node4"><a xlink:href="class_t_utilities.html#a1b39fffcd392bfb0f5a2ca393de3a6bb" target="_top" xlink:title="checks that the value is a bool returns true for success">
<polygon fill="white" stroke="black" points="170.5,-164.5 170.5,-183.5 293.5,-183.5 293.5,-164.5 170.5,-164.5"/>
<text text-anchor="middle" x="232" y="-171.5" font-family="Helvetica,sans-Serif" font-size="10.00">TUtilities::CheckFileBool</text>
</a>
</g>
</g>
<!-- Node1&#45;&gt;Node4 -->
<g id="edge3" class="edge">
<title>Node1&#45;&gt;Node4</title>
<path fill="none" stroke="midnightblue" d="M107.26,-145.59C129.2,-150.63 156.28,-156.84 179.51,-162.18"/>
<polygon fill="midnightblue" stroke="midnightblue" points="179.01,-165.65 189.54,-164.48 180.57,-158.83 179.01,-165.65"/>
</g>
<!-- Node5 -->
<g id="node5" class="node">
<title>Node5</title>
<g id="a_node5"><a xlink:href="class_t_utilities.html#a5c7332a6b45894902f271f0ab9ab87db" target="_top" xlink:title="checks that the value is a double, returns true for success">
<polygon fill="white" stroke="black" points="165,-126.5 165,-145.5 299,-145.5 299,-126.5 165,-126.5"/>
<text text-anchor="middle" x="232" y="-133.5" font-family="Helvetica,sans-Serif" font-size="10.00">TUtilities::CheckFileDouble</text>
</a>
</g>
</g>
<!-- Node1&#45;&gt;Node5 -->
<g id="edge5" class="edge">
<title>Node1&#45;&gt;Node5</title>
<path fill="none" stroke="midnightblue" d="M129.01,-136C137.47,-136 146.2,-136 154.84,-136"/>
<polygon fill="midnightblue" stroke="midnightblue" points="154.91,-139.5 164.91,-136 154.91,-132.5 154.91,-139.5"/>
</g>
<!-- Node6 -->
<g id="node6" class="node">
<title>Node6</title>
<g id="a_node6"><a xlink:href="class_t_utilities.html#a4d229af6e8943da1936bcbcc1c83846b" target="_top" xlink:title="checks that the value is an int lying between Lowest &amp; Highest (inclusive), returns true for success">
<polygon fill="white" stroke="black" points="175,-88.5 175,-107.5 289,-107.5 289,-88.5 175,-88.5"/>
<text text-anchor="middle" x="232" y="-95.5" font-family="Helvetica,sans-Serif" font-size="10.00">TUtilities::CheckFileInt</text>
</a>
</g>
</g>
<!-- Node1&#45;&gt;Node6 -->
<g id="edge7" class="edge">
<title>Node1&#45;&gt;Node6</title>
<path fill="none" stroke="midnightblue" d="M107.26,-126.41C129.2,-121.37 156.28,-115.16 179.51,-109.82"/>
<polygon fill="midnightblue" stroke="midnightblue" points="180.57,-113.17 189.54,-107.52 179.01,-106.35 180.57,-113.17"/>
</g>
<!-- Node7 -->
<g id="node7" class="node">
<title>Node7</title>
<g id="a_node7"><a xlink:href="class_t_utilities.html#a8bc6745e0433d55022e016b6551f04a0" target="_top" xlink:title="checks that the value is a string (&#39;0&#39; only accepted as the delimiter), returns true for success">
<polygon fill="white" stroke="black" points="167.5,-39 167.5,-69 296.5,-69 296.5,-39 167.5,-39"/>
<text text-anchor="start" x="175.5" y="-57" font-family="Helvetica,sans-Serif" font-size="10.00">TUtilities::CheckFileString</text>
<text text-anchor="middle" x="232" y="-46" font-family="Helvetica,sans-Serif" font-size="10.00">ZeroDelimiter</text>
</a>
</g>
</g>
<!-- Node1&#45;&gt;Node7 -->
<g id="edge9" class="edge">
<title>Node1&#45;&gt;Node7</title>
<path fill="none" stroke="midnightblue" d="M80.61,-126.34C99.76,-114.33 134.04,-93.62 165,-79 169.41,-76.92 174.04,-74.88 178.72,-72.92"/>
<polygon fill="midnightblue" stroke="midnightblue" points="180.38,-76.03 188.33,-69.03 177.75,-69.54 180.38,-76.03"/>
</g>
<!-- Node8 -->
<g id="node8" class="node">
<title>Node8</title>
<g id="a_node8"><a xlink:href="class_t_utilities.html#a34bd6bb5305bc29afdf424f6d35a921c" target="_top" xlink:title="creates a string of the form &#39;hh:mm:ss&#39; for use in call &amp; event logging">
<polygon fill="white" stroke="black" points="177,-0.5 177,-19.5 287,-19.5 287,-0.5 177,-0.5"/>
<text text-anchor="middle" x="232" y="-7.5" font-family="Helvetica,sans-Serif" font-size="10.00">TUtilities::TimeStamp</text>
</a>
</g>
</g>
<!-- Node1&#45;&gt;Node8 -->
<g id="edge10" class="edge">
<title>Node1&#45;&gt;Node8</title>
<path fill="none" stroke="midnightblue" d="M71.97,-126.2C86.24,-105.35 122.54,-56.36 165,-30 169.11,-27.45 173.56,-25.21 178.15,-23.24"/>
<polygon fill="midnightblue" stroke="midnightblue" points="179.61,-26.43 187.69,-19.57 177.1,-19.89 179.61,-26.43"/>
</g>
<!-- Node4&#45;&gt;Node3 -->
<g id="edge4" class="edge">
<title>Node4&#45;&gt;Node3</title>
<path fill="none" stroke="midnightblue" d="M293.5,-167.03C303.68,-165.86 314.34,-164.63 324.79,-163.43"/>
<polygon fill="midnightblue" stroke="midnightblue" points="325.2,-166.91 334.73,-162.29 324.4,-159.95 325.2,-166.91"/>
</g>
<!-- Node5&#45;&gt;Node3 -->
<g id="edge6" class="edge">
<title>Node5&#45;&gt;Node3</title>
<path fill="none" stroke="midnightblue" d="M299.16,-143.62C307.6,-144.59 316.28,-145.59 324.83,-146.57"/>
<polygon fill="midnightblue" stroke="midnightblue" points="324.44,-150.05 334.77,-147.72 325.24,-143.1 324.44,-150.05"/>
</g>
<!-- Node6&#45;&gt;Node3 -->
<g id="edge8" class="edge">
<title>Node6&#45;&gt;Node3</title>
<path fill="none" stroke="midnightblue" d="M268.45,-107.6C278.39,-110.45 289.16,-113.7 299,-117 316.36,-122.82 335.18,-129.85 351.7,-136.28"/>
<polygon fill="midnightblue" stroke="midnightblue" points="350.55,-139.59 361.14,-139.98 353.1,-133.07 350.55,-139.59"/>
</g>
</g>
</svg>
