<?xml version="1.0" encoding="UTF-8" standalone="no"?>
<!DOCTYPE svg PUBLIC "-//W3C//DTD SVG 1.1//EN"
 "http://www.w3.org/Graphics/SVG/1.1/DTD/svg11.dtd">
<!-- Generated by graphviz version 2.44.1 (20200629.0800)
 -->
<!-- Title: TInterface::CheckTimetableFromSessionFile Pages: 1 -->
<svg width="470pt" height="192pt"
 viewBox="0.00 0.00 470.00 192.00" xmlns="http://www.w3.org/2000/svg" xmlns:xlink="http://www.w3.org/1999/xlink">
<g id="graph0" class="graph" transform="scale(1 1) rotate(0) translate(4 188)">
<title>TInterface::CheckTimetableFromSessionFile</title>
<polygon fill="white" stroke="transparent" points="-4,4 -4,-188 466,-188 466,4 -4,4"/>
<!-- Node1 -->
<g id="node1" class="node">
<title>Node1</title>
<g id="a_node1"><a xlink:title="Check the timetable file embedded within a session file &amp; return false for error, called during Sessi...">
<polygon fill="#bfbfbf" stroke="black" points="0,-71 0,-101 134,-101 134,-71 0,-71"/>
<text text-anchor="start" x="8" y="-89" font-family="Helvetica,sans-Serif" font-size="10.00">TInterface::CheckTimetable</text>
<text text-anchor="middle" x="67" y="-78" font-family="Helvetica,sans-Serif" font-size="10.00">FromSessionFile</text>
</a>
</g>
</g>
<!-- Node2 -->
<g id="node2" class="node">
<title>Node2</title>
<g id="a_node2"><a xlink:href="class_t_utilities.html#ae1eddca13cc3c492839e131f40ec21c0" target="_top" xlink:title="pops the last entry off the call stack, throws an error if called when empty">
<polygon fill="white" stroke="black" points="179,-164.5 179,-183.5 289,-183.5 289,-164.5 179,-164.5"/>
<text text-anchor="middle" x="234" y="-171.5" font-family="Helvetica,sans-Serif" font-size="10.00">TUtilities::CallLogPop</text>
</a>
</g>
</g>
<!-- Node1&#45;&gt;Node2 -->
<g id="edge1" class="edge">
<title>Node1&#45;&gt;Node2</title>
<path fill="none" stroke="midnightblue" d="M86.51,-101.06C106.18,-116.45 138.72,-140.13 170,-155 174.72,-157.24 179.75,-159.29 184.85,-161.14"/>
<polygon fill="midnightblue" stroke="midnightblue" points="184.06,-164.57 194.66,-164.45 186.31,-157.94 184.06,-164.57"/>
</g>
<!-- Node3 -->
<g id="node3" class="node">
<title>Node3</title>
<g id="a_node3"><a xlink:href="class_t_utilities.html#ab4b66aa7480fda73d554fe0bcca82b60" target="_top" xlink:title="checks that the value is an int lying between Lowest &amp; Highest (inclusive), returns true for success ...">
<polygon fill="white" stroke="black" points="170,-115 170,-145 298,-145 298,-115 170,-115"/>
<text text-anchor="start" x="178" y="-133" font-family="Helvetica,sans-Serif" font-size="10.00">TUtilities::CheckAndRead</text>
<text text-anchor="middle" x="234" y="-122" font-family="Helvetica,sans-Serif" font-size="10.00">FileInt</text>
</a>
</g>
</g>
<!-- Node1&#45;&gt;Node3 -->
<g id="edge2" class="edge">
<title>Node1&#45;&gt;Node3</title>
<path fill="none" stroke="midnightblue" d="M124.32,-101.02C137.92,-104.65 152.58,-108.55 166.59,-112.29"/>
<polygon fill="midnightblue" stroke="midnightblue" points="166.09,-115.78 176.65,-114.97 167.89,-109.02 166.09,-115.78"/>
</g>
<!-- Node4 -->
<g id="node4" class="node">
<title>Node4</title>
<g id="a_node4"><a xlink:href="class_t_utilities.html#a0a0ef5bf2fc74c0026f2a8bec4151d37" target="_top" xlink:title="checks that the value is a string (&#39;0&#39; or CR accepted as delimiters), returns true for success and re...">
<polygon fill="white" stroke="black" points="334,-71 334,-101 462,-101 462,-71 334,-71"/>
<text text-anchor="start" x="342" y="-89" font-family="Helvetica,sans-Serif" font-size="10.00">TUtilities::CheckAndRead</text>
<text text-anchor="middle" x="398" y="-78" font-family="Helvetica,sans-Serif" font-size="10.00">FileString</text>
</a>
</g>
</g>
<!-- Node1&#45;&gt;Node4 -->
<g id="edge4" class="edge">
<title>Node1&#45;&gt;Node4</title>
<path fill="none" stroke="midnightblue" d="M134.18,-86C189.03,-86 266.92,-86 323.66,-86"/>
<polygon fill="midnightblue" stroke="midnightblue" points="323.99,-89.5 333.99,-86 323.99,-82.5 323.99,-89.5"/>
</g>
<!-- Node5 -->
<g id="node5" class="node">
<title>Node5</title>
<g id="a_node5"><a xlink:href="class_t_utilities.html#a4d229af6e8943da1936bcbcc1c83846b" target="_top" xlink:title="checks that the value is an int lying between Lowest &amp; Highest (inclusive), returns true for success">
<polygon fill="white" stroke="black" points="177,-38.5 177,-57.5 291,-57.5 291,-38.5 177,-38.5"/>
<text text-anchor="middle" x="234" y="-45.5" font-family="Helvetica,sans-Serif" font-size="10.00">TUtilities::CheckFileInt</text>
</a>
</g>
</g>
<!-- Node1&#45;&gt;Node5 -->
<g id="edge5" class="edge">
<title>Node1&#45;&gt;Node5</title>
<path fill="none" stroke="midnightblue" d="M133.21,-70.98C149.32,-67.27 166.35,-63.35 181.69,-59.82"/>
<polygon fill="midnightblue" stroke="midnightblue" points="182.54,-63.21 191.5,-57.56 180.97,-56.39 182.54,-63.21"/>
</g>
<!-- Node6 -->
<g id="node6" class="node">
<title>Node6</title>
<g id="a_node6"><a xlink:href="class_t_utilities.html#a34bd6bb5305bc29afdf424f6d35a921c" target="_top" xlink:title="creates a string of the form &#39;hh:mm:ss&#39; for use in call &amp; event logging">
<polygon fill="white" stroke="black" points="179,-0.5 179,-19.5 289,-19.5 289,-0.5 179,-0.5"/>
<text text-anchor="middle" x="234" y="-7.5" font-family="Helvetica,sans-Serif" font-size="10.00">TUtilities::TimeStamp</text>
</a>
</g>
</g>
<!-- Node1&#45;&gt;Node6 -->
<g id="edge7" class="edge">
<title>Node1&#45;&gt;Node6</title>
<path fill="none" stroke="midnightblue" d="M91.57,-70.89C111.78,-58.41 141.99,-40.88 170,-29 175.39,-26.71 181.15,-24.58 186.91,-22.63"/>
<polygon fill="midnightblue" stroke="midnightblue" points="188.09,-25.93 196.54,-19.53 185.95,-19.26 188.09,-25.93"/>
</g>
<!-- Node3&#45;&gt;Node4 -->
<g id="edge3" class="edge">
<title>Node3&#45;&gt;Node4</title>
<path fill="none" stroke="midnightblue" d="M290.3,-114.98C303.65,-111.35 318.04,-107.45 331.79,-103.71"/>
<polygon fill="midnightblue" stroke="midnightblue" points="332.94,-107.03 341.68,-101.03 331.11,-100.27 332.94,-107.03"/>
</g>
<!-- Node5&#45;&gt;Node4 -->
<g id="edge6" class="edge">
<title>Node5&#45;&gt;Node4</title>
<path fill="none" stroke="midnightblue" d="M275.88,-57.59C290.39,-60.99 307.21,-64.94 323.61,-68.78"/>
<polygon fill="midnightblue" stroke="midnightblue" points="323.2,-72.28 333.74,-71.16 324.8,-65.47 323.2,-72.28"/>
</g>
</g>
</svg>
