<?xml version="1.0" encoding="UTF-8" standalone="no"?>
<!DOCTYPE svg PUBLIC "-//W3C//DTD SVG 1.1//EN"
 "http://www.w3.org/Graphics/SVG/1.1/DTD/svg11.dtd">
<!-- Generated by graphviz version 2.44.1 (20200629.0800)
 -->
<!-- Title: TTextHandler::EnterAndDisplayNewText Pages: 1 -->
<svg width="522pt" height="72pt"
 viewBox="0.00 0.00 522.00 71.50" xmlns="http://www.w3.org/2000/svg" xmlns:xlink="http://www.w3.org/1999/xlink">
<g id="graph0" class="graph" transform="scale(1 1) rotate(0) translate(4 67.5)">
<title>TTextHandler::EnterAndDisplayNewText</title>
<polygon fill="white" stroke="transparent" points="-4,4 -4,-67.5 518,-67.5 518,4 -4,4"/>
<!-- Node1 -->
<g id="node1" class="node">
<title>Node1</title>
<g id="a_node1"><a xlink:title="add Text to TextVector and display it on the screen">
<polygon fill="#bfbfbf" stroke="black" points="362,-14 362,-44 514,-44 514,-14 362,-14"/>
<text text-anchor="start" x="370" y="-32" font-family="Helvetica,sans-Serif" font-size="10.00">TTextHandler::EnterAndDisplay</text>
<text text-anchor="middle" x="438" y="-21" font-family="Helvetica,sans-Serif" font-size="10.00">NewText</text>
</a>
</g>
</g>
<!-- Node2 -->
<g id="node2" class="node">
<title>Node2</title>
<g id="a_node2"><a xlink:href="class_t_interface.html#a27f00bc593500756b06fb2aeae9d28e1" target="_top" xlink:title="Add &#39;Name&#39; to TextVector and display on screen at a position determined by the shape and size of the ...">
<polygon fill="white" stroke="black" points="163,-38.5 163,-57.5 326,-57.5 326,-38.5 163,-38.5"/>
<text text-anchor="middle" x="244.5" y="-45.5" font-family="Helvetica,sans-Serif" font-size="10.00">TInterface::AddLocationNameText</text>
</a>
</g>
</g>
<!-- Node1&#45;&gt;Node2 -->
<g id="edge1" class="edge">
<title>Node1&#45;&gt;Node2</title>
<path fill="none" stroke="midnightblue" d="M351.88,-37.45C343.31,-38.3 334.62,-39.16 326.11,-40"/>
<polygon fill="midnightblue" stroke="midnightblue" points="352.26,-40.93 361.86,-36.45 351.57,-33.96 352.26,-40.93"/>
</g>
<!-- Node4 -->
<g id="node4" class="node">
<title>Node4</title>
<g id="a_node4"><a xlink:href="class_t_interface.html#ad0ce61f7a8050fb57d19ebd049fa8b49" target="_top" xlink:title=" ">
<polygon fill="white" stroke="black" points="173,-0.5 173,-19.5 316,-19.5 316,-0.5 173,-0.5"/>
<text text-anchor="middle" x="244.5" y="-7.5" font-family="Helvetica,sans-Serif" font-size="10.00">TInterface::TextBoxKeyPress</text>
</a>
</g>
</g>
<!-- Node1&#45;&gt;Node4 -->
<g id="edge3" class="edge">
<title>Node1&#45;&gt;Node4</title>
<path fill="none" stroke="midnightblue" d="M351.88,-20.55C339.9,-19.37 327.7,-18.16 316.04,-17"/>
<polygon fill="midnightblue" stroke="midnightblue" points="351.57,-24.04 361.86,-21.55 352.26,-17.07 351.57,-24.04"/>
</g>
<!-- Node3 -->
<g id="node3" class="node">
<title>Node3</title>
<g id="a_node3"><a xlink:href="class_t_interface.html#ac666c9f62cdb68b29c2a7db123a43a28" target="_top" xlink:title=" ">
<polygon fill="white" stroke="black" points="0,-33 0,-63 127,-63 127,-33 0,-33"/>
<text text-anchor="start" x="8" y="-51" font-family="Helvetica,sans-Serif" font-size="10.00">TInterface::LocationName</text>
<text text-anchor="middle" x="63.5" y="-40" font-family="Helvetica,sans-Serif" font-size="10.00">KeyUp</text>
</a>
</g>
</g>
<!-- Node2&#45;&gt;Node3 -->
<g id="edge2" class="edge">
<title>Node2&#45;&gt;Node3</title>
<path fill="none" stroke="midnightblue" d="M152.77,-48C144.13,-48 135.5,-48 127.21,-48"/>
<polygon fill="midnightblue" stroke="midnightblue" points="152.9,-51.5 162.9,-48 152.9,-44.5 152.9,-51.5"/>
</g>
</g>
</svg>
