<?xml version="1.0" encoding="UTF-8" standalone="no"?>
<!DOCTYPE svg PUBLIC "-//W3C//DTD SVG 1.1//EN"
 "http://www.w3.org/Graphics/SVG/1.1/DTD/svg11.dtd">
<!-- Generated by graphviz version 2.44.1 (20200629.0800)
 -->
<!-- Title: TTrack::ResetConnClkCheckUnsetGapJumps Pages: 1 -->
<svg width="454pt" height="75pt"
 viewBox="0.00 0.00 454.00 75.00" xmlns="http://www.w3.org/2000/svg" xmlns:xlink="http://www.w3.org/1999/xlink">
<g id="graph0" class="graph" transform="scale(1 1) rotate(0) translate(4 71)">
<title>TTrack::ResetConnClkCheckUnsetGapJumps</title>
<polygon fill="white" stroke="transparent" points="-4,4 -4,-71 450,-71 450,4 -4,4"/>
<!-- Node1 -->
<g id="node1" class="node">
<title>Node1</title>
<g id="a_node1"><a xlink:title="Sets all Conns and CLks to &#45;1 except for gapjumps that match and are properly set,...">
<polygon fill="#bfbfbf" stroke="black" points="0,-23 0,-53 142,-53 142,-23 0,-23"/>
<text text-anchor="start" x="8" y="-41" font-family="Helvetica,sans-Serif" font-size="10.00">TTrack::ResetConnClkCheck</text>
<text text-anchor="middle" x="71" y="-30" font-family="Helvetica,sans-Serif" font-size="10.00">UnsetGapJumps</text>
</a>
</g>
</g>
<!-- Node2 -->
<g id="node2" class="node">
<title>Node2</title>
<g id="a_node2"><a xlink:href="class_t_utilities.html#ae1eddca13cc3c492839e131f40ec21c0" target="_top" xlink:title="pops the last entry off the call stack, throws an error if called when empty">
<polygon fill="white" stroke="black" points="336,-47.5 336,-66.5 446,-66.5 446,-47.5 336,-47.5"/>
<text text-anchor="middle" x="391" y="-54.5" font-family="Helvetica,sans-Serif" font-size="10.00">TUtilities::CallLogPop</text>
</a>
</g>
</g>
<!-- Node1&#45;&gt;Node2 -->
<g id="edge1" class="edge">
<title>Node1&#45;&gt;Node2</title>
<path fill="none" stroke="midnightblue" d="M142.18,-52.38C154.09,-54.3 166.36,-55.97 178,-57 227.45,-61.4 283.64,-61.16 325.74,-59.95"/>
<polygon fill="midnightblue" stroke="midnightblue" points="325.97,-63.45 335.86,-59.64 325.75,-56.45 325.97,-63.45"/>
</g>
<!-- Node3 -->
<g id="node3" class="node">
<title>Node3</title>
<g id="a_node3"><a xlink:href="class_t_utilities.html#a34bd6bb5305bc29afdf424f6d35a921c" target="_top" xlink:title="creates a string of the form &#39;hh:mm:ss&#39; for use in call &amp; event logging">
<polygon fill="white" stroke="black" points="336,-0.5 336,-19.5 446,-19.5 446,-0.5 336,-0.5"/>
<text text-anchor="middle" x="391" y="-7.5" font-family="Helvetica,sans-Serif" font-size="10.00">TUtilities::TimeStamp</text>
</a>
</g>
</g>
<!-- Node1&#45;&gt;Node3 -->
<g id="edge2" class="edge">
<title>Node1&#45;&gt;Node3</title>
<path fill="none" stroke="midnightblue" d="M142.22,-24.04C154.12,-22.07 166.39,-20.28 178,-19 227.39,-13.55 283.58,-11.35 325.7,-10.48"/>
<polygon fill="midnightblue" stroke="midnightblue" points="325.89,-13.98 335.82,-10.29 325.76,-6.98 325.89,-13.98"/>
</g>
<!-- Node4 -->
<g id="node4" class="node">
<title>Node4</title>
<g id="a_node4"><a xlink:href="class_t_track.html#ad377e5a1f152f2e89832c0f9bcfd261f" target="_top" xlink:title="A range&#45;checked version of TrackVector.at(At)">
<polygon fill="white" stroke="black" points="178,-28.5 178,-47.5 300,-47.5 300,-28.5 178,-28.5"/>
<text text-anchor="middle" x="239" y="-35.5" font-family="Helvetica,sans-Serif" font-size="10.00">TTrack::TrackElementAt</text>
</a>
</g>
</g>
<!-- Node1&#45;&gt;Node4 -->
<g id="edge3" class="edge">
<title>Node1&#45;&gt;Node4</title>
<path fill="none" stroke="midnightblue" d="M142.4,-38C150.82,-38 159.41,-38 167.83,-38"/>
<polygon fill="midnightblue" stroke="midnightblue" points="167.98,-41.5 177.98,-38 167.98,-34.5 167.98,-41.5"/>
</g>
<!-- Node4&#45;&gt;Node2 -->
<g id="edge4" class="edge">
<title>Node4&#45;&gt;Node2</title>
<path fill="none" stroke="midnightblue" d="M300.15,-45.62C308.49,-46.68 317.09,-47.76 325.51,-48.83"/>
<polygon fill="midnightblue" stroke="midnightblue" points="325.3,-52.33 335.66,-50.12 326.18,-45.39 325.3,-52.33"/>
</g>
<!-- Node4&#45;&gt;Node3 -->
<g id="edge5" class="edge">
<title>Node4&#45;&gt;Node3</title>
<path fill="none" stroke="midnightblue" d="M291.2,-28.44C303.39,-26.17 316.51,-23.72 329.09,-21.37"/>
<polygon fill="midnightblue" stroke="midnightblue" points="329.84,-24.79 339.03,-19.51 328.56,-17.91 329.84,-24.79"/>
</g>
</g>
</svg>
