<?xml version="1.0" encoding="UTF-8" standalone="no"?>
<!DOCTYPE svg PUBLIC "-//W3C//DTD SVG 1.1//EN"
 "http://www.w3.org/Graphics/SVG/1.1/DTD/svg11.dtd">
<!-- Generated by graphviz version 2.44.1 (20200629.0800)
 -->
<!-- Title: TInterface::SetInitialTrackModeEditMenu Pages: 1 -->
<svg width="720pt" height="2203pt"
 viewBox="0.00 0.00 720.00 2202.50" xmlns="http://www.w3.org/2000/svg" xmlns:xlink="http://www.w3.org/1999/xlink">
<g id="graph0" class="graph" transform="scale(1 1) rotate(0) translate(4 2198.5)">
<title>TInterface::SetInitialTrackModeEditMenu</title>
<polygon fill="white" stroke="transparent" points="-4,4 -4,-2198.5 716,-2198.5 716,4 -4,4"/>
<!-- Node1 -->
<g id="node1" class="node">
<title>Node1</title>
<g id="a_node1"><a xlink:title="Enables or disables the initial Edit mode submenu items in Track mode.">
<polygon fill="#bfbfbf" stroke="black" points="586,-1080 586,-1110 712,-1110 712,-1080 586,-1080"/>
<text text-anchor="start" x="594" y="-1098" font-family="Helvetica,sans-Serif" font-size="10.00">TInterface::SetInitialTrack</text>
<text text-anchor="middle" x="649" y="-1087" font-family="Helvetica,sans-Serif" font-size="10.00">ModeEditMenu</text>
</a>
</g>
</g>
<!-- Node2 -->
<g id="node2" class="node">
<title>Node2</title>
<g id="a_node2"><a xlink:href="class_t_interface.html#a8c96de45b013362b03ad0e8725a7c64b" target="_top" xlink:title="Called when mouse button clicked in zoom&#45;out mode.">
<polygon fill="white" stroke="black" points="208,-2164 208,-2194 354,-2194 354,-2164 208,-2164"/>
<text text-anchor="start" x="216" y="-2182" font-family="Helvetica,sans-Serif" font-size="10.00">TInterface::MainScreenMouse</text>
<text text-anchor="middle" x="281" y="-2171" font-family="Helvetica,sans-Serif" font-size="10.00">Down3</text>
</a>
</g>
</g>
<!-- Node1&#45;&gt;Node2 -->
<g id="edge1" class="edge">
<title>Node1&#45;&gt;Node2</title>
<path fill="none" stroke="midnightblue" d="M644.34,-1120.19C622.77,-1265.56 507.87,-1996.17 356,-2155 352.73,-2158.42 348.98,-2161.35 344.92,-2163.86"/>
<polygon fill="midnightblue" stroke="midnightblue" points="647.84,-1120.45 645.84,-1110.04 640.92,-1119.43 647.84,-1120.45"/>
</g>
<!-- Node4 -->
<g id="node4" class="node">
<title>Node4</title>
<g id="a_node4"><a xlink:href="class_t_interface.html#a03280ee86df28a9a7cf4473cdf7b9f8b" target="_top" xlink:title=" ">
<polygon fill="white" stroke="black" points="392,-1104.5 392,-1123.5 550,-1123.5 550,-1104.5 392,-1104.5"/>
<text text-anchor="middle" x="471" y="-1111.5" font-family="Helvetica,sans-Serif" font-size="10.00">TInterface::MainScreenMouseUp</text>
</a>
</g>
</g>
<!-- Node1&#45;&gt;Node4 -->
<g id="edge3" class="edge">
<title>Node1&#45;&gt;Node4</title>
<path fill="none" stroke="midnightblue" d="M575.76,-1102.8C567.32,-1103.71 558.67,-1104.64 550.14,-1105.56"/>
<polygon fill="midnightblue" stroke="midnightblue" points="576.38,-1106.25 585.95,-1101.7 575.63,-1099.29 576.38,-1106.25"/>
</g>
<!-- Node5 -->
<g id="node5" class="node">
<title>Node5</title>
<g id="a_node5"><a xlink:href="class_t_interface.html#acf77f2eeeac0775fde4f25ba46099e0b" target="_top" xlink:title="Sets the Level1 user mode, using the Level1Mode variable to determine the mode.">
<polygon fill="white" stroke="red" points="405.5,-1066.5 405.5,-1085.5 536.5,-1085.5 536.5,-1066.5 405.5,-1066.5"/>
<text text-anchor="middle" x="471" y="-1073.5" font-family="Helvetica,sans-Serif" font-size="10.00">TInterface::SetLevel1Mode</text>
</a>
</g>
</g>
<!-- Node1&#45;&gt;Node5 -->
<g id="edge4" class="edge">
<title>Node1&#45;&gt;Node5</title>
<path fill="none" stroke="midnightblue" d="M575.72,-1087.2C562.82,-1085.8 549.45,-1084.36 536.77,-1082.99"/>
<polygon fill="midnightblue" stroke="midnightblue" points="575.63,-1090.71 585.95,-1088.3 576.38,-1083.75 575.63,-1090.71"/>
</g>
<!-- Node81 -->
<g id="node50" class="node">
<title>Node81</title>
<g id="a_node50"><a xlink:href="class_t_interface.html#a08305797df7dfbdd16b3e8900c33e0bc" target="_top" xlink:title=" ">
<polygon fill="white" stroke="black" points="211.5,-0.5 211.5,-19.5 350.5,-19.5 350.5,-0.5 211.5,-0.5"/>
<text text-anchor="middle" x="281" y="-7.5" font-family="Helvetica,sans-Serif" font-size="10.00">TInterface::ZoomButtonClick</text>
</a>
</g>
</g>
<!-- Node1&#45;&gt;Node81 -->
<g id="edge53" class="edge">
<title>Node1&#45;&gt;Node81</title>
<path fill="none" stroke="midnightblue" d="M644.51,-1069.52C623.89,-922.52 513.46,-183.95 356,-29 352.12,-25.19 347.59,-22.11 342.71,-19.62"/>
<polygon fill="midnightblue" stroke="midnightblue" points="641.09,-1070.36 645.94,-1079.78 648.03,-1069.4 641.09,-1070.36"/>
</g>
<!-- Node3 -->
<g id="node3" class="node">
<title>Node3</title>
<g id="a_node3"><a xlink:href="class_t_interface.html#a7f37862fb9e01e1328d9fd3fd8c50094" target="_top" xlink:title=" ">
<polygon fill="white" stroke="black" points="0,-706.5 0,-725.5 170,-725.5 170,-706.5 0,-706.5"/>
<text text-anchor="middle" x="85" y="-713.5" font-family="Helvetica,sans-Serif" font-size="10.00">TInterface::MainScreenMouseDown</text>
</a>
</g>
</g>
<!-- Node2&#45;&gt;Node3 -->
<g id="edge2" class="edge">
<title>Node2&#45;&gt;Node3</title>
<path fill="none" stroke="midnightblue" d="M207.83,-2157.16C207.2,-2156.46 206.59,-2155.74 206,-2155 111.4,-2035.64 88.27,-846.32 86.17,-725.83"/>
<polygon fill="midnightblue" stroke="midnightblue" points="205.54,-2159.8 215.35,-2163.81 210.18,-2154.56 205.54,-2159.8"/>
</g>
<!-- Node5&#45;&gt;Node2 -->
<g id="edge42" class="edge">
<title>Node5&#45;&gt;Node2</title>
<path fill="none" stroke="midnightblue" d="M396.92,-1089.94C395.15,-1091.47 393.5,-1093.16 392,-1095 317.63,-1186.42 426.9,-2060.87 356,-2155 353.4,-2158.45 350.29,-2161.42 346.85,-2163.96"/>
<polygon fill="midnightblue" stroke="midnightblue" points="399.11,-1092.67 405.35,-1084.11 395.14,-1086.91 399.11,-1092.67"/>
</g>
<!-- Node6 -->
<g id="node6" class="node">
<title>Node6</title>
<g id="a_node6"><a xlink:href="class_t_interface.html#a30904d608111ce6452a9861d86b64267" target="_top" xlink:title=" ">
<polygon fill="white" stroke="black" points="215.5,-2017 215.5,-2047 346.5,-2047 346.5,-2017 215.5,-2017"/>
<text text-anchor="start" x="223.5" y="-2035" font-family="Helvetica,sans-Serif" font-size="10.00">TInterface::AddMinsButton</text>
<text text-anchor="middle" x="281" y="-2024" font-family="Helvetica,sans-Serif" font-size="10.00">Click</text>
</a>
</g>
</g>
<!-- Node5&#45;&gt;Node6 -->
<g id="edge5" class="edge">
<title>Node5&#45;&gt;Node6</title>
<path fill="none" stroke="midnightblue" d="M396.93,-1089.95C395.16,-1091.48 393.51,-1093.16 392,-1095 327.72,-1173.58 417.3,-1927.07 356,-2008 353.31,-2011.55 350.08,-2014.59 346.5,-2017.18"/>
<polygon fill="midnightblue" stroke="midnightblue" points="399.12,-1092.69 405.38,-1084.14 395.16,-1086.92 399.12,-1092.69"/>
</g>
<!-- Node7 -->
<g id="node7" class="node">
<title>Node7</title>
<g id="a_node7"><a xlink:href="class_t_interface.html#a1b1a4260e251c9bd5f48fd6c3432e7a5" target="_top" xlink:title=" ">
<polygon fill="white" stroke="black" points="211,-1968 211,-1998 351,-1998 351,-1968 211,-1968"/>
<text text-anchor="start" x="219" y="-1986" font-family="Helvetica,sans-Serif" font-size="10.00">TInterface::AddPrefDirButton</text>
<text text-anchor="middle" x="281" y="-1975" font-family="Helvetica,sans-Serif" font-size="10.00">Click</text>
</a>
</g>
</g>
<!-- Node5&#45;&gt;Node7 -->
<g id="edge6" class="edge">
<title>Node5&#45;&gt;Node7</title>
<path fill="none" stroke="midnightblue" d="M396.93,-1089.95C395.16,-1091.48 393.51,-1093.16 392,-1095 331.08,-1169.3 414.1,-1882.48 356,-1959 353.39,-1962.44 350.27,-1965.4 346.82,-1967.94"/>
<polygon fill="midnightblue" stroke="midnightblue" points="399.13,-1092.69 405.39,-1084.14 395.17,-1086.92 399.13,-1092.69"/>
</g>
<!-- Node8 -->
<g id="node8" class="node">
<title>Node8</title>
<g id="a_node8"><a xlink:href="class_t_interface.html#a0abab134f4994b02507e1e2d3f31cd77" target="_top" xlink:title=" ">
<polygon fill="white" stroke="black" points="212.5,-1919 212.5,-1949 349.5,-1949 349.5,-1919 212.5,-1919"/>
<text text-anchor="start" x="220.5" y="-1937" font-family="Helvetica,sans-Serif" font-size="10.00">TInterface::AddSubMinsBox</text>
<text text-anchor="middle" x="281" y="-1926" font-family="Helvetica,sans-Serif" font-size="10.00">KeyUp</text>
</a>
</g>
</g>
<!-- Node5&#45;&gt;Node8 -->
<g id="edge7" class="edge">
<title>Node5&#45;&gt;Node8</title>
<path fill="none" stroke="midnightblue" d="M396.94,-1089.96C395.17,-1091.49 393.51,-1093.16 392,-1095 334.44,-1165.02 410.9,-1837.88 356,-1910 353.38,-1913.44 350.26,-1916.39 346.81,-1918.93"/>
<polygon fill="midnightblue" stroke="midnightblue" points="399.13,-1092.7 405.4,-1084.15 395.18,-1086.92 399.13,-1092.7"/>
</g>
<!-- Node9 -->
<g id="node9" class="node">
<title>Node9</title>
<g id="a_node9"><a xlink:href="class_t_interface.html#aa20c05bf2d6c23035a10a89796334d0f" target="_top" xlink:title=" ">
<polygon fill="white" stroke="black" points="216.5,-1870 216.5,-1900 345.5,-1900 345.5,-1870 216.5,-1870"/>
<text text-anchor="start" x="224.5" y="-1888" font-family="Helvetica,sans-Serif" font-size="10.00">TInterface::AddTextButton</text>
<text text-anchor="middle" x="281" y="-1877" font-family="Helvetica,sans-Serif" font-size="10.00">Click</text>
</a>
</g>
</g>
<!-- Node5&#45;&gt;Node9 -->
<g id="edge8" class="edge">
<title>Node5&#45;&gt;Node9</title>
<path fill="none" stroke="midnightblue" d="M396.95,-1089.96C395.17,-1091.49 393.51,-1093.17 392,-1095 337.8,-1160.75 407.71,-1793.28 356,-1861 353.13,-1864.76 349.66,-1867.94 345.82,-1870.62"/>
<polygon fill="midnightblue" stroke="midnightblue" points="399.14,-1092.7 405.42,-1084.16 395.19,-1086.93 399.14,-1092.7"/>
</g>
<!-- Node10 -->
<g id="node10" class="node">
<title>Node10</title>
<g id="a_node10"><a xlink:href="class_t_interface.html#a10494e62a7bb4e7114ab4d98e18499f1" target="_top" xlink:title=" ">
<polygon fill="white" stroke="black" points="214,-1821 214,-1851 348,-1851 348,-1821 214,-1821"/>
<text text-anchor="start" x="222" y="-1839" font-family="Helvetica,sans-Serif" font-size="10.00">TInterface::AddTrackButton</text>
<text text-anchor="middle" x="281" y="-1828" font-family="Helvetica,sans-Serif" font-size="10.00">Click</text>
</a>
</g>
</g>
<!-- Node5&#45;&gt;Node10 -->
<g id="edge9" class="edge">
<title>Node5&#45;&gt;Node10</title>
<path fill="none" stroke="midnightblue" d="M396.95,-1089.97C395.18,-1091.49 393.52,-1093.17 392,-1095 290.33,-1217.94 453.01,-1685.35 356,-1812 353.37,-1815.43 350.24,-1818.38 346.78,-1820.91"/>
<polygon fill="midnightblue" stroke="midnightblue" points="399.15,-1092.71 405.43,-1084.18 395.2,-1086.93 399.15,-1092.71"/>
</g>
<!-- Node11 -->
<g id="node11" class="node">
<title>Node11</title>
<g id="a_node11"><a xlink:href="class_t_interface.html#a189a4b05f27d6b5ec8b9a90ec1a9cc50" target="_top" xlink:title=" ">
<polygon fill="white" stroke="black" points="214.5,-1772 214.5,-1802 347.5,-1802 347.5,-1772 214.5,-1772"/>
<text text-anchor="start" x="222.5" y="-1790" font-family="Helvetica,sans-Serif" font-size="10.00">TInterface::AllEntriesTTList</text>
<text text-anchor="middle" x="281" y="-1779" font-family="Helvetica,sans-Serif" font-size="10.00">BoxMouseUp</text>
</a>
</g>
</g>
<!-- Node5&#45;&gt;Node11 -->
<g id="edge10" class="edge">
<title>Node5&#45;&gt;Node11</title>
<path fill="none" stroke="midnightblue" d="M396.96,-1089.98C395.18,-1091.5 393.52,-1093.17 392,-1095 297.05,-1209.38 446.62,-1645.15 356,-1763 353.37,-1766.43 350.23,-1769.37 346.77,-1771.9"/>
<polygon fill="midnightblue" stroke="midnightblue" points="399.16,-1092.72 405.45,-1084.19 395.21,-1086.93 399.16,-1092.72"/>
</g>
<!-- Node12 -->
<g id="node12" class="node">
<title>Node12</title>
<g id="a_node12"><a xlink:href="class_t_interface.html#a28579472104533fb5fd01066a22fbb5b" target="_top" xlink:title=" ">
<polygon fill="white" stroke="black" points="216.5,-1723 216.5,-1753 345.5,-1753 345.5,-1723 216.5,-1723"/>
<text text-anchor="start" x="224.5" y="-1741" font-family="Helvetica,sans-Serif" font-size="10.00">TInterface::AZOrderButton</text>
<text text-anchor="middle" x="281" y="-1730" font-family="Helvetica,sans-Serif" font-size="10.00">Click</text>
</a>
</g>
</g>
<!-- Node5&#45;&gt;Node12 -->
<g id="edge11" class="edge">
<title>Node5&#45;&gt;Node12</title>
<path fill="none" stroke="midnightblue" d="M396.97,-1089.98C395.19,-1091.51 393.52,-1093.17 392,-1095 303.77,-1200.83 440.22,-1604.95 356,-1714 353.11,-1717.74 349.63,-1720.91 345.77,-1723.59"/>
<polygon fill="midnightblue" stroke="midnightblue" points="399.17,-1092.73 405.47,-1084.21 395.23,-1086.94 399.17,-1092.73"/>
</g>
<!-- Node13 -->
<g id="node13" class="node">
<title>Node13</title>
<g id="a_node13"><a xlink:href="class_t_interface.html#a237c151513ca8adca6cd1006cc2fc66f" target="_top" xlink:title=" ">
<polygon fill="white" stroke="black" points="213,-1674 213,-1704 349,-1704 349,-1674 213,-1674"/>
<text text-anchor="start" x="221" y="-1692" font-family="Helvetica,sans-Serif" font-size="10.00">TInterface::BlackBgndMenu</text>
<text text-anchor="middle" x="281" y="-1681" font-family="Helvetica,sans-Serif" font-size="10.00">ItemClick</text>
</a>
</g>
</g>
<!-- Node5&#45;&gt;Node13 -->
<g id="edge12" class="edge">
<title>Node5&#45;&gt;Node13</title>
<path fill="none" stroke="midnightblue" d="M396.99,-1089.99C395.2,-1091.51 393.53,-1093.18 392,-1095 310.48,-1192.28 433.83,-1564.74 356,-1665 353.35,-1668.41 350.21,-1671.35 346.73,-1673.87"/>
<polygon fill="midnightblue" stroke="midnightblue" points="399.18,-1092.74 405.49,-1084.23 395.25,-1086.94 399.18,-1092.74"/>
</g>
<!-- Node14 -->
<g id="node14" class="node">
<title>Node14</title>
<g id="a_node14"><a xlink:href="class_t_interface.html#a24d79aa4745e495daa07bb5ce412e75f" target="_top" xlink:title=" ">
<polygon fill="white" stroke="black" points="215.5,-1625 215.5,-1655 346.5,-1655 346.5,-1625 215.5,-1625"/>
<text text-anchor="start" x="223.5" y="-1643" font-family="Helvetica,sans-Serif" font-size="10.00">TInterface::BlueBgndMenu</text>
<text text-anchor="middle" x="281" y="-1632" font-family="Helvetica,sans-Serif" font-size="10.00">ItemClick</text>
</a>
</g>
</g>
<!-- Node5&#45;&gt;Node14 -->
<g id="edge13" class="edge">
<title>Node5&#45;&gt;Node14</title>
<path fill="none" stroke="midnightblue" d="M396.87,-1090.11C395.13,-1091.6 393.5,-1093.23 392,-1095 317.2,-1183.73 427.44,-1524.54 356,-1616 353.34,-1619.41 350.19,-1622.34 346.71,-1624.85"/>
<polygon fill="midnightblue" stroke="midnightblue" points="398.88,-1092.98 405.15,-1084.45 394.92,-1087.21 398.88,-1092.98"/>
</g>
<!-- Node15 -->
<g id="node15" class="node">
<title>Node15</title>
<g id="a_node15"><a xlink:href="class_t_interface.html#ab1799665ee1e4212186f80ab49acf1e1" target="_top" xlink:title=" ">
<polygon fill="white" stroke="black" points="214,-1576 214,-1606 348,-1606 348,-1576 214,-1576"/>
<text text-anchor="start" x="222" y="-1594" font-family="Helvetica,sans-Serif" font-size="10.00">TInterface::BuildTrackMenu</text>
<text text-anchor="middle" x="281" y="-1583" font-family="Helvetica,sans-Serif" font-size="10.00">ItemClick</text>
</a>
</g>
</g>
<!-- Node5&#45;&gt;Node15 -->
<g id="edge14" class="edge">
<title>Node5&#45;&gt;Node15</title>
<path fill="none" stroke="midnightblue" d="M396.89,-1090.13C395.14,-1091.61 393.5,-1093.23 392,-1095 323.91,-1175.19 421.05,-1484.33 356,-1567 353.33,-1570.4 350.17,-1573.32 346.68,-1575.83"/>
<polygon fill="midnightblue" stroke="midnightblue" points="398.89,-1093 405.19,-1084.48 394.95,-1087.21 398.89,-1093"/>
</g>
<!-- Node16 -->
<g id="node16" class="node">
<title>Node16</title>
<g id="a_node16"><a xlink:href="class_t_interface.html#a148e3f99d39f596dbd7d490403936154" target="_top" xlink:title="Convert a stored timetable file (either as a stand alone file or within a session file) to a loaded t...">
<polygon fill="white" stroke="red" points="217,-1527 217,-1557 345,-1557 345,-1527 217,-1527"/>
<text text-anchor="start" x="225" y="-1545" font-family="Helvetica,sans-Serif" font-size="10.00">TInterface::BuildTrainData</text>
<text text-anchor="middle" x="281" y="-1534" font-family="Helvetica,sans-Serif" font-size="10.00">VectorForLoadFile</text>
</a>
</g>
</g>
<!-- Node5&#45;&gt;Node16 -->
<g id="edge15" class="edge">
<title>Node5&#45;&gt;Node16</title>
<path fill="none" stroke="midnightblue" d="M396.91,-1090.15C395.15,-1091.62 393.51,-1093.24 392,-1095 330.62,-1166.64 414.66,-1444.12 356,-1518 352.98,-1521.81 349.34,-1525.02 345.32,-1527.73"/>
<polygon fill="midnightblue" stroke="midnightblue" points="398.91,-1093.02 405.23,-1084.51 394.99,-1087.22 398.91,-1093.02"/>
</g>
<!-- Node23 -->
<g id="node17" class="node">
<title>Node23</title>
<g id="a_node17"><a xlink:href="class_t_interface.html#a2fb2cd7dbddb7fa689ea994e9ffc10ff" target="_top" xlink:title=" ">
<polygon fill="white" stroke="black" points="213.5,-1478 213.5,-1508 348.5,-1508 348.5,-1478 213.5,-1478"/>
<text text-anchor="start" x="221.5" y="-1496" font-family="Helvetica,sans-Serif" font-size="10.00">TInterface::CancelSelection</text>
<text text-anchor="middle" x="281" y="-1485" font-family="Helvetica,sans-Serif" font-size="10.00">MenuItemClick</text>
</a>
</g>
</g>
<!-- Node5&#45;&gt;Node23 -->
<g id="edge16" class="edge">
<title>Node5&#45;&gt;Node23</title>
<path fill="none" stroke="midnightblue" d="M396.93,-1090.17C395.17,-1091.64 393.52,-1093.25 392,-1095 337.33,-1158.11 408.28,-1403.9 356,-1469 353.29,-1472.37 350.11,-1475.27 346.6,-1477.77"/>
<polygon fill="midnightblue" stroke="midnightblue" points="398.93,-1093.04 405.28,-1084.55 395.03,-1087.23 398.93,-1093.04"/>
</g>
<!-- Node24 -->
<g id="node18" class="node">
<title>Node24</title>
<g id="a_node18"><a xlink:href="class_t_interface.html#a6fb1db3295ef42cb1b6f20bc142fa502" target="_top" xlink:title=" ">
<polygon fill="white" stroke="black" points="217,-1429 217,-1459 345,-1459 345,-1429 217,-1429"/>
<text text-anchor="start" x="225" y="-1447" font-family="Helvetica,sans-Serif" font-size="10.00">TInterface::CancelTTEntry</text>
<text text-anchor="middle" x="281" y="-1436" font-family="Helvetica,sans-Serif" font-size="10.00">ButtonClick</text>
</a>
</g>
</g>
<!-- Node5&#45;&gt;Node24 -->
<g id="edge17" class="edge">
<title>Node5&#45;&gt;Node24</title>
<path fill="none" stroke="midnightblue" d="M396.97,-1090.2C395.2,-1091.66 393.53,-1093.26 392,-1095 296.05,-1204.15 447.8,-1307.34 356,-1420 352.93,-1423.77 349.26,-1426.95 345.22,-1429.64"/>
<polygon fill="midnightblue" stroke="midnightblue" points="398.97,-1093.07 405.34,-1084.61 395.08,-1087.25 398.97,-1093.07"/>
</g>
<!-- Node25 -->
<g id="node19" class="node">
<title>Node25</title>
<g id="a_node19"><a xlink:href="class_t_interface.html#a928eba983ac5132e1ae7799f8330451e" target="_top" xlink:title=" ">
<polygon fill="white" stroke="black" points="220,-1380 220,-1410 342,-1410 342,-1380 220,-1380"/>
<text text-anchor="start" x="228" y="-1398" font-family="Helvetica,sans-Serif" font-size="10.00">TInterface::ClearAllMenu</text>
<text text-anchor="middle" x="281" y="-1387" font-family="Helvetica,sans-Serif" font-size="10.00">ItemClick</text>
</a>
</g>
</g>
<!-- Node5&#45;&gt;Node25 -->
<g id="edge18" class="edge">
<title>Node5&#45;&gt;Node25</title>
<path fill="none" stroke="midnightblue" d="M397.01,-1090.24C395.23,-1091.69 393.55,-1093.27 392,-1095 309.43,-1187.12 435.07,-1275.86 356,-1371 352.12,-1375.67 347.31,-1379.45 342.03,-1382.49"/>
<polygon fill="midnightblue" stroke="midnightblue" points="399.01,-1093.11 405.43,-1084.69 395.16,-1087.27 399.01,-1093.11"/>
</g>
<!-- Node26 -->
<g id="node20" class="node">
<title>Node26</title>
<g id="a_node20"><a xlink:href="class_t_interface.html#adc0dd871fdd70ff11ada7a0ddd549e8e" target="_top" xlink:title=" ">
<polygon fill="white" stroke="black" points="206.5,-1331 206.5,-1361 355.5,-1361 355.5,-1331 206.5,-1331"/>
<text text-anchor="start" x="214.5" y="-1349" font-family="Helvetica,sans-Serif" font-size="10.00">TInterface::CopyTTEntryButton</text>
<text text-anchor="middle" x="281" y="-1338" font-family="Helvetica,sans-Serif" font-size="10.00">Click</text>
</a>
</g>
</g>
<!-- Node5&#45;&gt;Node26 -->
<g id="edge19" class="edge">
<title>Node5&#45;&gt;Node26</title>
<path fill="none" stroke="midnightblue" d="M396.54,-1090.72C394.94,-1092.04 393.42,-1093.46 392,-1095 322.78,-1170.12 422.37,-1244.35 356,-1322 353.1,-1325.39 349.73,-1328.3 346.04,-1330.81"/>
<polygon fill="midnightblue" stroke="midnightblue" points="398.78,-1093.44 405.19,-1085 394.92,-1087.6 398.78,-1093.44"/>
</g>
<!-- Node27 -->
<g id="node21" class="node">
<title>Node27</title>
<g id="a_node21"><a xlink:href="class_t_interface.html#a1c8fab7fa2f1be662f2d7418e95e3a63" target="_top" xlink:title=" ">
<polygon fill="white" stroke="black" points="213.5,-1282 213.5,-1312 348.5,-1312 348.5,-1282 213.5,-1282"/>
<text text-anchor="start" x="221.5" y="-1300" font-family="Helvetica,sans-Serif" font-size="10.00">TInterface::CreateTimetable</text>
<text text-anchor="middle" x="281" y="-1289" font-family="Helvetica,sans-Serif" font-size="10.00">MenuItemClick</text>
</a>
</g>
</g>
<!-- Node5&#45;&gt;Node27 -->
<g id="edge20" class="edge">
<title>Node5&#45;&gt;Node27</title>
<path fill="none" stroke="midnightblue" d="M396.62,-1090.8C395,-1092.1 393.45,-1093.49 392,-1095 336.06,-1153.19 409.73,-1212.77 356,-1273 352.94,-1276.43 349.39,-1279.37 345.53,-1281.89"/>
<polygon fill="midnightblue" stroke="midnightblue" points="398.86,-1093.53 405.37,-1085.17 395.07,-1087.64 398.86,-1093.53"/>
</g>
<!-- Node28 -->
<g id="node22" class="node">
<title>Node28</title>
<g id="a_node22"><a xlink:href="class_t_interface.html#acd41ae8fa5d16248a867472d9c8ae646" target="_top" xlink:title=" ">
<polygon fill="white" stroke="black" points="210,-1233 210,-1263 352,-1263 352,-1233 210,-1233"/>
<text text-anchor="start" x="218" y="-1251" font-family="Helvetica,sans-Serif" font-size="10.00">TInterface::CutTTEntryButton</text>
<text text-anchor="middle" x="281" y="-1240" font-family="Helvetica,sans-Serif" font-size="10.00">Click</text>
</a>
</g>
</g>
<!-- Node5&#45;&gt;Node28 -->
<g id="edge21" class="edge">
<title>Node5&#45;&gt;Node28</title>
<path fill="none" stroke="midnightblue" d="M396.64,-1091.04C395.02,-1092.27 393.47,-1093.58 392,-1095 349.22,-1136.39 397.21,-1181.05 356,-1224 352.73,-1227.41 348.97,-1230.34 344.91,-1232.85"/>
<polygon fill="midnightblue" stroke="midnightblue" points="398.65,-1093.91 405.3,-1085.67 394.96,-1087.97 398.65,-1093.91"/>
</g>
<!-- Node29 -->
<g id="node23" class="node">
<title>Node29</title>
<g id="a_node23"><a xlink:href="class_t_interface.html#af9cb95043f5276df55cb6809e104c93a" target="_top" xlink:title=" ">
<polygon fill="white" stroke="black" points="220.5,-1184 220.5,-1214 341.5,-1214 341.5,-1184 220.5,-1184"/>
<text text-anchor="start" x="228.5" y="-1202" font-family="Helvetica,sans-Serif" font-size="10.00">TInterface::DeleteAllPref</text>
<text text-anchor="middle" x="281" y="-1191" font-family="Helvetica,sans-Serif" font-size="10.00">DirButtonClick</text>
</a>
</g>
</g>
<!-- Node5&#45;&gt;Node29 -->
<g id="edge22" class="edge">
<title>Node5&#45;&gt;Node29</title>
<path fill="none" stroke="midnightblue" d="M398.39,-1090.39C396.16,-1091.79 394.02,-1093.32 392,-1095 362.01,-1119.92 385.03,-1148.98 356,-1175 351.78,-1178.79 346.95,-1181.98 341.82,-1184.66"/>
<polygon fill="midnightblue" stroke="midnightblue" points="400.23,-1093.38 407.43,-1085.62 396.96,-1087.19 400.23,-1093.38"/>
</g>
<!-- Node30 -->
<g id="node24" class="node">
<title>Node30</title>
<g id="a_node24"><a xlink:href="class_t_interface.html#a3136530959237eaa57486f4f48357855" target="_top" xlink:title=" ">
<polygon fill="white" stroke="black" points="217,-1135 217,-1165 345,-1165 345,-1135 217,-1135"/>
<text text-anchor="start" x="225" y="-1153" font-family="Helvetica,sans-Serif" font-size="10.00">TInterface::DeleteOnePref</text>
<text text-anchor="middle" x="281" y="-1142" font-family="Helvetica,sans-Serif" font-size="10.00">DirButtonClick</text>
</a>
</g>
</g>
<!-- Node5&#45;&gt;Node30 -->
<g id="edge23" class="edge">
<title>Node5&#45;&gt;Node30</title>
<path fill="none" stroke="midnightblue" d="M406.56,-1088.72C401.52,-1090.55 396.61,-1092.63 392,-1095 373.22,-1104.66 374.4,-1115.65 356,-1126 350,-1129.38 343.45,-1132.36 336.81,-1134.97"/>
<polygon fill="midnightblue" stroke="midnightblue" points="407.93,-1091.96 416.34,-1085.51 405.74,-1085.3 407.93,-1091.96"/>
</g>
<!-- Node31 -->
<g id="node25" class="node">
<title>Node31</title>
<g id="a_node25"><a xlink:href="class_t_interface.html#abdd4a70649a10a29c9a069d040072808" target="_top" xlink:title=" ">
<polygon fill="white" stroke="black" points="218,-1086 218,-1116 344,-1116 344,-1086 218,-1086"/>
<text text-anchor="start" x="226" y="-1104" font-family="Helvetica,sans-Serif" font-size="10.00">TInterface::DeleteTTEntry</text>
<text text-anchor="middle" x="281" y="-1093" font-family="Helvetica,sans-Serif" font-size="10.00">ButtonClick</text>
</a>
</g>
</g>
<!-- Node5&#45;&gt;Node31 -->
<g id="edge24" class="edge">
<title>Node5&#45;&gt;Node31</title>
<path fill="none" stroke="midnightblue" d="M394.96,-1085.98C378.16,-1088.21 360.5,-1090.56 344.28,-1092.72"/>
<polygon fill="midnightblue" stroke="midnightblue" points="395.85,-1089.39 405.3,-1084.6 394.93,-1082.45 395.85,-1089.39"/>
</g>
<!-- Node32 -->
<g id="node26" class="node">
<title>Node32</title>
<g id="a_node26"><a xlink:href="class_t_interface.html#a0cf35a6e4a6cfa72b63222acb51f9f74" target="_top" xlink:title=" ">
<polygon fill="white" stroke="black" points="219,-1037 219,-1067 343,-1067 343,-1037 219,-1037"/>
<text text-anchor="start" x="227" y="-1055" font-family="Helvetica,sans-Serif" font-size="10.00">TInterface::EditTimetable</text>
<text text-anchor="middle" x="281" y="-1044" font-family="Helvetica,sans-Serif" font-size="10.00">MenuItemClick</text>
</a>
</g>
</g>
<!-- Node5&#45;&gt;Node32 -->
<g id="edge25" class="edge">
<title>Node5&#45;&gt;Node32</title>
<path fill="none" stroke="midnightblue" d="M395.23,-1066.45C377.9,-1064.24 359.67,-1061.92 343.02,-1059.79"/>
<polygon fill="midnightblue" stroke="midnightblue" points="394.94,-1069.95 405.3,-1067.74 395.82,-1063 394.94,-1069.95"/>
</g>
<!-- Node33 -->
<g id="node27" class="node">
<title>Node33</title>
<g id="a_node27"><a xlink:href="class_t_interface.html#a3e59d6f1f39ffe34a9d6e7bf930acbff" target="_top" xlink:title=" ">
<polygon fill="white" stroke="black" points="219,-988 219,-1018 343,-1018 343,-988 219,-988"/>
<text text-anchor="start" x="227" y="-1006" font-family="Helvetica,sans-Serif" font-size="10.00">TInterface::ExitOperation</text>
<text text-anchor="middle" x="281" y="-995" font-family="Helvetica,sans-Serif" font-size="10.00">ButtonClick</text>
</a>
</g>
</g>
<!-- Node5&#45;&gt;Node33 -->
<g id="edge26" class="edge">
<title>Node5&#45;&gt;Node33</title>
<path fill="none" stroke="midnightblue" d="M439.16,-1062.3C416.36,-1052.34 384.47,-1038.78 356,-1028 347.12,-1024.64 337.57,-1021.24 328.37,-1018.09"/>
<polygon fill="midnightblue" stroke="midnightblue" points="437.77,-1065.51 448.34,-1066.32 440.58,-1059.1 437.77,-1065.51"/>
</g>
<!-- Node34 -->
<g id="node28" class="node">
<title>Node34</title>
<g id="a_node28"><a xlink:href="class_t_interface.html#ab2a25d27dcbae558b8f9a4ac62937523" target="_top" xlink:title=" ">
<polygon fill="white" stroke="black" points="211,-939 211,-969 351,-969 351,-939 211,-939"/>
<text text-anchor="start" x="219" y="-957" font-family="Helvetica,sans-Serif" font-size="10.00">TInterface::ExitPrefDirButton</text>
<text text-anchor="middle" x="281" y="-946" font-family="Helvetica,sans-Serif" font-size="10.00">Click</text>
</a>
</g>
</g>
<!-- Node5&#45;&gt;Node34 -->
<g id="edge27" class="edge">
<title>Node5&#45;&gt;Node34</title>
<path fill="none" stroke="midnightblue" d="M454.12,-1058.98C433.39,-1037.63 395.1,-1001.15 356,-979 349.39,-975.26 342.13,-971.96 334.83,-969.08"/>
<polygon fill="midnightblue" stroke="midnightblue" points="451.74,-1061.55 461.18,-1066.36 456.8,-1056.71 451.74,-1061.55"/>
</g>
<!-- Node35 -->
<g id="node29" class="node">
<title>Node35</title>
<g id="a_node29"><a xlink:href="class_t_interface.html#ad0fa9f32b059b346e066ab23d62a4bfc" target="_top" xlink:title=" ">
<polygon fill="white" stroke="black" points="214,-890 214,-920 348,-920 348,-890 214,-890"/>
<text text-anchor="start" x="222" y="-908" font-family="Helvetica,sans-Serif" font-size="10.00">TInterface::ExitTrackButton</text>
<text text-anchor="middle" x="281" y="-897" font-family="Helvetica,sans-Serif" font-size="10.00">Click</text>
</a>
</g>
</g>
<!-- Node5&#45;&gt;Node35 -->
<g id="edge28" class="edge">
<title>Node5&#45;&gt;Node35</title>
<path fill="none" stroke="midnightblue" d="M460.25,-1057.37C443.18,-1026.51 405,-964.75 356,-930 350.58,-926.16 344.52,-922.87 338.27,-920.06"/>
<polygon fill="midnightblue" stroke="midnightblue" points="457.21,-1059.1 465.04,-1066.23 463.36,-1055.77 457.21,-1059.1"/>
</g>
<!-- Node36 -->
<g id="node30" class="node">
<title>Node36</title>
<g id="a_node30"><a xlink:href="class_t_interface.html#aa78089df3d8323be6fde98c0ee48424c" target="_top" xlink:title=" ">
<polygon fill="white" stroke="black" points="208.5,-841 208.5,-871 353.5,-871 353.5,-841 208.5,-841"/>
<text text-anchor="start" x="216.5" y="-859" font-family="Helvetica,sans-Serif" font-size="10.00">TInterface::ExitTTModeButton</text>
<text text-anchor="middle" x="281" y="-848" font-family="Helvetica,sans-Serif" font-size="10.00">Click</text>
</a>
</g>
</g>
<!-- Node5&#45;&gt;Node36 -->
<g id="edge29" class="edge">
<title>Node5&#45;&gt;Node36</title>
<path fill="none" stroke="midnightblue" d="M463.89,-1056.66C450.61,-1017.71 415.46,-929.46 356,-881 351.27,-877.15 345.92,-873.87 340.3,-871.1"/>
<polygon fill="midnightblue" stroke="midnightblue" points="460.6,-1057.86 467.05,-1066.26 467.25,-1055.66 460.6,-1057.86"/>
</g>
<!-- Node37 -->
<g id="node31" class="node">
<title>Node37</title>
<g id="a_node31"><a xlink:href="class_t_interface.html#ab7c52bd31930036c95b9b71c2f1f0426" target="_top" xlink:title=" ">
<polygon fill="white" stroke="black" points="215,-792 215,-822 347,-822 347,-792 215,-792"/>
<text text-anchor="start" x="223" y="-810" font-family="Helvetica,sans-Serif" font-size="10.00">TInterface::ExportTTButton</text>
<text text-anchor="middle" x="281" y="-799" font-family="Helvetica,sans-Serif" font-size="10.00">Click</text>
</a>
</g>
</g>
<!-- Node5&#45;&gt;Node37 -->
<g id="edge30" class="edge">
<title>Node5&#45;&gt;Node37</title>
<path fill="none" stroke="midnightblue" d="M466.36,-1056.63C456.77,-1010.85 426.51,-895.07 356,-832 351.65,-828.11 346.68,-824.83 341.41,-822.05"/>
<polygon fill="midnightblue" stroke="midnightblue" points="462.94,-1057.34 468.33,-1066.46 469.8,-1055.97 462.94,-1057.34"/>
</g>
<!-- Node38 -->
<g id="node32" class="node">
<title>Node38</title>
<g id="a_node32"><a xlink:href="class_t_interface.html#a5e7eff5bd235780252147bb4878a4c95" target="_top" xlink:title=" ">
<polygon fill="white" stroke="black" points="219,-743 219,-773 343,-773 343,-743 219,-743"/>
<text text-anchor="start" x="227" y="-761" font-family="Helvetica,sans-Serif" font-size="10.00">TInterface::LengthCancel</text>
<text text-anchor="middle" x="281" y="-750" font-family="Helvetica,sans-Serif" font-size="10.00">ButtonClick</text>
</a>
</g>
</g>
<!-- Node5&#45;&gt;Node38 -->
<g id="edge31" class="edge">
<title>Node5&#45;&gt;Node38</title>
<path fill="none" stroke="midnightblue" d="M468.03,-1056.35C461.76,-1004.21 437.61,-861 356,-783 351.98,-779.16 347.35,-775.91 342.41,-773.15"/>
<polygon fill="midnightblue" stroke="midnightblue" points="464.55,-1056.75 469.14,-1066.3 471.51,-1055.97 464.55,-1056.75"/>
</g>
<!-- Node39 -->
<g id="node33" class="node">
<title>Node39</title>
<g id="a_node33"><a xlink:href="class_t_interface.html#ab34f55bab5984b72264d7275660a3463" target="_top" xlink:title=" ">
<polygon fill="white" stroke="black" points="212.5,-694 212.5,-724 349.5,-724 349.5,-694 212.5,-694"/>
<text text-anchor="start" x="220.5" y="-712" font-family="Helvetica,sans-Serif" font-size="10.00">TInterface::LengthOKButton</text>
<text text-anchor="middle" x="281" y="-701" font-family="Helvetica,sans-Serif" font-size="10.00">Click</text>
</a>
</g>
</g>
<!-- Node5&#45;&gt;Node39 -->
<g id="edge32" class="edge">
<title>Node5&#45;&gt;Node39</title>
<path fill="none" stroke="midnightblue" d="M469.29,-1056.25C466.12,-998.36 448.96,-827.33 356,-734 352.17,-730.16 347.73,-726.9 342.97,-724.15"/>
<polygon fill="midnightblue" stroke="midnightblue" points="465.79,-1056.44 469.75,-1066.26 472.78,-1056.11 465.79,-1056.44"/>
</g>
<!-- Node40 -->
<g id="node34" class="node">
<title>Node40</title>
<g id="a_node34"><a xlink:href="class_t_interface.html#a95c3545a30171ca5a08e34c58160079c" target="_top" xlink:title="Load a railway file. The Active elements marker now has a &#39;1&#39; at the end if there are user graphics t...">
<polygon fill="white" stroke="black" points="221.5,-382.5 221.5,-401.5 340.5,-401.5 340.5,-382.5 221.5,-382.5"/>
<text text-anchor="middle" x="281" y="-389.5" font-family="Helvetica,sans-Serif" font-size="10.00">TInterface::LoadRailway</text>
</a>
</g>
</g>
<!-- Node5&#45;&gt;Node40 -->
<g id="edge33" class="edge">
<title>Node5&#45;&gt;Node40</title>
<path fill="none" stroke="midnightblue" d="M467.2,-1056.1C451.92,-948.14 378.53,-436.75 356,-412 351.7,-407.28 346.41,-403.62 340.66,-400.8"/>
<polygon fill="midnightblue" stroke="midnightblue" points="463.77,-1056.84 468.63,-1066.25 470.7,-1055.86 463.77,-1056.84"/>
</g>
<!-- Node41 -->
<g id="node35" class="node">
<title>Node41</title>
<g id="a_node35"><a xlink:href="class_t_interface.html#a96249c7622a9d55541de186483e04d2e" target="_top" xlink:title=" ">
<polygon fill="white" stroke="black" points="13.5,-545 13.5,-575 156.5,-575 156.5,-545 13.5,-545"/>
<text text-anchor="start" x="21.5" y="-563" font-family="Helvetica,sans-Serif" font-size="10.00">TInterface::LoadRailwayMenu</text>
<text text-anchor="middle" x="85" y="-552" font-family="Helvetica,sans-Serif" font-size="10.00">ItemClick</text>
</a>
</g>
</g>
<!-- Node5&#45;&gt;Node41 -->
<g id="edge35" class="edge">
<title>Node5&#45;&gt;Node41</title>
<path fill="none" stroke="midnightblue" d="M467.54,-1056.19C457.52,-978.72 417.41,-697.46 356,-636 307.31,-587.27 272.26,-615.82 206,-597 181.88,-590.15 155.22,-581.99 133.16,-575.07"/>
<polygon fill="midnightblue" stroke="midnightblue" points="464.11,-1056.98 468.84,-1066.46 471.05,-1056.1 464.11,-1056.98"/>
</g>
<!-- Node18 -->
<g id="node36" class="node">
<title>Node18</title>
<g id="a_node36"><a xlink:href="class_t_interface.html#a636b1b4bd29f2678a3290ed2d282f1c2" target="_top" xlink:title="Load a session file.">
<polygon fill="white" stroke="red" points="220.5,-568.5 220.5,-587.5 341.5,-587.5 341.5,-568.5 220.5,-568.5"/>
<text text-anchor="middle" x="281" y="-575.5" font-family="Helvetica,sans-Serif" font-size="10.00">TInterface::LoadSession</text>
</a>
</g>
</g>
<!-- Node5&#45;&gt;Node18 -->
<g id="edge36" class="edge">
<title>Node5&#45;&gt;Node18</title>
<path fill="none" stroke="midnightblue" d="M467.77,-1055.83C458.37,-974.36 419.55,-670.69 356,-602 350.13,-595.66 342.57,-590.98 334.53,-587.54"/>
<polygon fill="midnightblue" stroke="midnightblue" points="464.34,-1056.64 468.94,-1066.18 471.29,-1055.85 464.34,-1056.64"/>
</g>
<!-- Node42 -->
<g id="node37" class="node">
<title>Node42</title>
<g id="a_node37"><a xlink:href="class_t_interface.html#aef9267dd01da25269797e2e8ca08a3f9" target="_top" xlink:title=" ">
<polygon fill="white" stroke="black" points="217.5,-519 217.5,-549 344.5,-549 344.5,-519 217.5,-519"/>
<text text-anchor="start" x="225.5" y="-537" font-family="Helvetica,sans-Serif" font-size="10.00">TInterface::LocationName</text>
<text text-anchor="middle" x="281" y="-526" font-family="Helvetica,sans-Serif" font-size="10.00">ButtonClick</text>
</a>
</g>
</g>
<!-- Node5&#45;&gt;Node42 -->
<g id="edge37" class="edge">
<title>Node5&#45;&gt;Node42</title>
<path fill="none" stroke="midnightblue" d="M468.19,-1055.97C460.07,-970.25 424.35,-635.22 356,-559 352.56,-555.16 348.51,-551.92 344.11,-549.16"/>
<polygon fill="midnightblue" stroke="midnightblue" points="464.73,-1056.53 469.14,-1066.16 471.7,-1055.88 464.73,-1056.53"/>
</g>
<!-- Node43 -->
<g id="node38" class="node">
<title>Node43</title>
<g id="a_node38"><a xlink:href="class_t_interface.html#a13fee6fa07e4a4e195e8b9c7dd303db0" target="_top" xlink:title=" ">
<polygon fill="white" stroke="black" points="217.5,-470 217.5,-500 344.5,-500 344.5,-470 217.5,-470"/>
<text text-anchor="start" x="225.5" y="-488" font-family="Helvetica,sans-Serif" font-size="10.00">TInterface::LocationName</text>
<text text-anchor="middle" x="281" y="-477" font-family="Helvetica,sans-Serif" font-size="10.00">ComboBoxClick</text>
</a>
</g>
</g>
<!-- Node5&#45;&gt;Node43 -->
<g id="edge38" class="edge">
<title>Node5&#45;&gt;Node43</title>
<path fill="none" stroke="midnightblue" d="M468.62,-1056.12C461.94,-965.74 430.32,-594.41 356,-510 352.59,-506.13 348.57,-502.86 344.18,-500.1"/>
<polygon fill="midnightblue" stroke="midnightblue" points="465.13,-1056.41 469.34,-1066.13 472.11,-1055.9 465.13,-1056.41"/>
</g>
<!-- Node44 -->
<g id="node39" class="node">
<title>Node44</title>
<g id="a_node39"><a xlink:href="class_t_interface.html#ac666c9f62cdb68b29c2a7db123a43a28" target="_top" xlink:title=" ">
<polygon fill="white" stroke="black" points="217.5,-421 217.5,-451 344.5,-451 344.5,-421 217.5,-421"/>
<text text-anchor="start" x="225.5" y="-439" font-family="Helvetica,sans-Serif" font-size="10.00">TInterface::LocationName</text>
<text text-anchor="middle" x="281" y="-428" font-family="Helvetica,sans-Serif" font-size="10.00">KeyUp</text>
</a>
</g>
</g>
<!-- Node5&#45;&gt;Node44 -->
<g id="edge39" class="edge">
<title>Node5&#45;&gt;Node44</title>
<path fill="none" stroke="midnightblue" d="M467.54,-1056.23C454.9,-956.06 396.41,-507.62 356,-461 352.62,-457.11 348.62,-453.82 344.25,-451.04"/>
<polygon fill="midnightblue" stroke="midnightblue" points="464.07,-1056.73 468.79,-1066.21 471.02,-1055.85 464.07,-1056.73"/>
</g>
<!-- Node45 -->
<g id="node40" class="node">
<title>Node45</title>
<g id="a_node40"><a xlink:href="class_t_interface.html#abf07d5edc1507de381825f17620748b2" target="_top" xlink:title="Called when mouse button clicked in zoom&#45;in mode.">
<polygon fill="white" stroke="black" points="208,-645 208,-675 354,-675 354,-645 208,-645"/>
<text text-anchor="start" x="216" y="-663" font-family="Helvetica,sans-Serif" font-size="10.00">TInterface::MainScreenMouse</text>
<text text-anchor="middle" x="281" y="-652" font-family="Helvetica,sans-Serif" font-size="10.00">Down2</text>
</a>
</g>
</g>
<!-- Node5&#45;&gt;Node45 -->
<g id="edge40" class="edge">
<title>Node5&#45;&gt;Node45</title>
<path fill="none" stroke="midnightblue" d="M470.25,-1056.02C469.96,-992.63 460.34,-793.83 356,-685 352.34,-681.18 348.08,-677.95 343.48,-675.21"/>
<polygon fill="midnightblue" stroke="midnightblue" points="466.75,-1056.21 470.22,-1066.23 473.75,-1056.24 466.75,-1056.21"/>
</g>
<!-- Node46 -->
<g id="node41" class="node">
<title>Node46</title>
<g id="a_node41"><a xlink:href="class_t_interface.html#a13e8cd35a6f61caf6794791f1a4fe7f6" target="_top" xlink:title=" ">
<polygon fill="white" stroke="black" points="206,-333 206,-363 356,-363 356,-333 206,-333"/>
<text text-anchor="start" x="214" y="-351" font-family="Helvetica,sans-Serif" font-size="10.00">TInterface::MoveTextOrGraphic</text>
<text text-anchor="middle" x="281" y="-340" font-family="Helvetica,sans-Serif" font-size="10.00">ButtonClick</text>
</a>
</g>
</g>
<!-- Node5&#45;&gt;Node46 -->
<g id="edge43" class="edge">
<title>Node5&#45;&gt;Node46</title>
<path fill="none" stroke="midnightblue" d="M467.09,-1056.28C450.42,-943.68 367.49,-386.57 356,-373 352.76,-369.17 348.91,-365.93 344.69,-363.18"/>
<polygon fill="midnightblue" stroke="midnightblue" points="463.64,-1056.89 468.56,-1066.27 470.56,-1055.87 463.64,-1056.89"/>
</g>
<!-- Node47 -->
<g id="node42" class="node">
<title>Node47</title>
<g id="a_node42"><a xlink:href="class_t_interface.html#a64926df4f293df9f038ce8c78e0201bb" target="_top" xlink:title=" ">
<polygon fill="white" stroke="black" points="208.5,-284 208.5,-314 353.5,-314 353.5,-284 208.5,-284"/>
<text text-anchor="start" x="216.5" y="-302" font-family="Helvetica,sans-Serif" font-size="10.00">TInterface::MoveTTEntryDown</text>
<text text-anchor="middle" x="281" y="-291" font-family="Helvetica,sans-Serif" font-size="10.00">ButtonClick</text>
</a>
</g>
</g>
<!-- Node5&#45;&gt;Node47 -->
<g id="edge44" class="edge">
<title>Node5&#45;&gt;Node47</title>
<path fill="none" stroke="midnightblue" d="M467.05,-1056.05C449.47,-937.12 359.09,-326.64 356,-323 353.12,-319.6 349.75,-316.68 346.06,-314.17"/>
<polygon fill="midnightblue" stroke="midnightblue" points="463.64,-1056.87 468.56,-1066.26 470.56,-1055.85 463.64,-1056.87"/>
</g>
<!-- Node48 -->
<g id="node43" class="node">
<title>Node48</title>
<g id="a_node43"><a xlink:href="class_t_interface.html#a768f6e8fb12c5a77b591e223ef10a46d" target="_top" xlink:title=" ">
<polygon fill="white" stroke="black" points="214.5,-235 214.5,-265 347.5,-265 347.5,-235 214.5,-235"/>
<text text-anchor="start" x="222.5" y="-253" font-family="Helvetica,sans-Serif" font-size="10.00">TInterface::MoveTTEntryUp</text>
<text text-anchor="middle" x="281" y="-242" font-family="Helvetica,sans-Serif" font-size="10.00">ButtonClick</text>
</a>
</g>
</g>
<!-- Node5&#45;&gt;Node48 -->
<g id="edge45" class="edge">
<title>Node5&#45;&gt;Node48</title>
<path fill="none" stroke="midnightblue" d="M466.96,-1056.39C456.28,-987.18 419.58,-747.91 392,-550 383.46,-488.74 395.54,-321.57 356,-274 353.15,-270.57 349.81,-267.63 346.14,-265.1"/>
<polygon fill="midnightblue" stroke="midnightblue" points="463.51,-1056.98 468.5,-1066.33 470.43,-1055.91 463.51,-1056.98"/>
</g>
<!-- Node49 -->
<g id="node44" class="node">
<title>Node49</title>
<g id="a_node44"><a xlink:href="class_t_interface.html#a889fff98fb93d17aefc0a341a8216e72" target="_top" xlink:title=" ">
<polygon fill="white" stroke="black" points="208,-186 208,-216 354,-216 354,-186 208,-186"/>
<text text-anchor="start" x="216" y="-204" font-family="Helvetica,sans-Serif" font-size="10.00">TInterface::NewTTEntryButton</text>
<text text-anchor="middle" x="281" y="-193" font-family="Helvetica,sans-Serif" font-size="10.00">Click</text>
</a>
</g>
</g>
<!-- Node5&#45;&gt;Node49 -->
<g id="edge46" class="edge">
<title>Node5&#45;&gt;Node49</title>
<path fill="none" stroke="midnightblue" d="M466.83,-1056.41C455.69,-987.26 417.66,-748.17 392,-550 382.67,-477.94 401.9,-281.33 356,-225 353.18,-221.54 349.87,-218.58 346.22,-216.04"/>
<polygon fill="midnightblue" stroke="midnightblue" points="463.38,-1057.02 468.43,-1066.34 470.29,-1055.91 463.38,-1057.02"/>
</g>
<!-- Node50 -->
<g id="node45" class="node">
<title>Node50</title>
<g id="a_node45"><a xlink:href="class_t_interface.html#a8d9fefd50730926d40c89801a70b8c95" target="_top" xlink:title=" ">
<polygon fill="white" stroke="black" points="207.5,-137 207.5,-167 354.5,-167 354.5,-137 207.5,-137"/>
<text text-anchor="start" x="215.5" y="-155" font-family="Helvetica,sans-Serif" font-size="10.00">TInterface::NextTTEntryButton</text>
<text text-anchor="middle" x="281" y="-144" font-family="Helvetica,sans-Serif" font-size="10.00">Click</text>
</a>
</g>
</g>
<!-- Node5&#45;&gt;Node50 -->
<g id="edge47" class="edge">
<title>Node5&#45;&gt;Node50</title>
<path fill="none" stroke="midnightblue" d="M466.73,-1056.42C455.25,-987.32 416.24,-748.35 392,-550 381.87,-467.12 408.28,-241.1 356,-176 353.29,-172.63 350.11,-169.73 346.6,-167.23"/>
<polygon fill="midnightblue" stroke="midnightblue" points="463.28,-1057.05 468.38,-1066.34 470.19,-1055.9 463.28,-1057.05"/>
</g>
<!-- Node51 -->
<g id="node46" class="node">
<title>Node51</title>
<g id="a_node46"><a xlink:href="class_t_interface.html#a8f417437f1683ddacce33c6e681571fc" target="_top" xlink:title=" ">
<polygon fill="white" stroke="black" points="207,-88 207,-118 355,-118 355,-88 207,-88"/>
<text text-anchor="start" x="215" y="-106" font-family="Helvetica,sans-Serif" font-size="10.00">TInterface::OneEntryTimetable</text>
<text text-anchor="middle" x="281" y="-95" font-family="Helvetica,sans-Serif" font-size="10.00">MemoKeyUp</text>
</a>
</g>
</g>
<!-- Node5&#45;&gt;Node51 -->
<g id="edge48" class="edge">
<title>Node5&#45;&gt;Node51</title>
<path fill="none" stroke="midnightblue" d="M466.65,-1056.43C454.91,-987.36 415.14,-748.48 392,-550 381.08,-456.29 414.66,-200.88 356,-127 353.31,-123.62 350.14,-120.7 346.65,-118.19"/>
<polygon fill="midnightblue" stroke="midnightblue" points="463.21,-1057.08 468.34,-1066.35 470.11,-1055.9 463.21,-1057.08"/>
</g>
<!-- Node52 -->
<g id="node47" class="node">
<title>Node52</title>
<g id="a_node47"><a xlink:href="class_t_interface.html#a472d8ac93d85b4d5605d5bbe39179d5a" target="_top" xlink:title=" ">
<polygon fill="white" stroke="black" points="214.5,-39 214.5,-69 347.5,-69 347.5,-39 214.5,-39"/>
<text text-anchor="start" x="222.5" y="-57" font-family="Helvetica,sans-Serif" font-size="10.00">TInterface::OperateRailway</text>
<text text-anchor="middle" x="281" y="-46" font-family="Helvetica,sans-Serif" font-size="10.00">MenuItemClick</text>
</a>
</g>
</g>
<!-- Node5&#45;&gt;Node52 -->
<g id="edge49" class="edge">
<title>Node5&#45;&gt;Node52</title>
<path fill="none" stroke="midnightblue" d="M466.58,-1056.43C454.64,-987.39 414.27,-748.58 392,-550 386.14,-497.73 388.52,-119.34 356,-78 353.33,-74.6 350.17,-71.68 346.68,-69.17"/>
<polygon fill="midnightblue" stroke="midnightblue" points="463.15,-1057.1 468.31,-1066.35 470.04,-1055.9 463.15,-1057.1"/>
</g>
<!-- Node53 -->
<g id="node48" class="node">
<title>Node53</title>
<g id="a_node48"><a xlink:href="class_t_interface.html#a02c5eb27baa019cb04e4704470371ae9" target="_top" xlink:title=" ">
<polygon fill="white" stroke="black" points="219,-2115 219,-2145 343,-2145 343,-2115 219,-2115"/>
<text text-anchor="start" x="227" y="-2133" font-family="Helvetica,sans-Serif" font-size="10.00">TInterface::PasteTTEntry</text>
<text text-anchor="middle" x="281" y="-2122" font-family="Helvetica,sans-Serif" font-size="10.00">ButtonClick</text>
</a>
</g>
</g>
<!-- Node5&#45;&gt;Node53 -->
<g id="edge50" class="edge">
<title>Node5&#45;&gt;Node53</title>
<path fill="none" stroke="midnightblue" d="M396.92,-1089.94C395.15,-1091.47 393.5,-1093.16 392,-1095 321,-1182.14 423.7,-2016.27 356,-2106 352.5,-2110.64 348.09,-2114.39 343.17,-2117.43"/>
<polygon fill="midnightblue" stroke="midnightblue" points="399.11,-1092.68 405.36,-1084.12 395.14,-1086.91 399.11,-1092.68"/>
</g>
<!-- Node54 -->
<g id="node49" class="node">
<title>Node54</title>
<g id="a_node49"><a xlink:href="class_t_interface.html#a0cd00a2df93531ea1534d280e00e85e0" target="_top" xlink:title=" ">
<polygon fill="white" stroke="black" points="221.5,-2066 221.5,-2096 340.5,-2096 340.5,-2066 221.5,-2066"/>
<text text-anchor="start" x="229.5" y="-2084" font-family="Helvetica,sans-Serif" font-size="10.00">TInterface::PlanPrefDirs</text>
<text text-anchor="middle" x="281" y="-2073" font-family="Helvetica,sans-Serif" font-size="10.00">MenuItemClick</text>
</a>
</g>
</g>
<!-- Node5&#45;&gt;Node54 -->
<g id="edge51" class="edge">
<title>Node5&#45;&gt;Node54</title>
<path fill="none" stroke="midnightblue" d="M396.92,-1089.94C395.15,-1091.48 393.5,-1093.16 392,-1095 324.36,-1177.86 420.5,-1971.67 356,-2057 351.93,-2062.39 346.62,-2066.59 340.72,-2069.85"/>
<polygon fill="midnightblue" stroke="midnightblue" points="399.12,-1092.68 405.37,-1084.13 395.15,-1086.92 399.12,-1092.68"/>
</g>
<!-- Node5&#45;&gt;Node81 -->
<g id="edge52" class="edge">
<title>Node5&#45;&gt;Node81</title>
<path fill="none" stroke="midnightblue" d="M466.53,-1056.44C454.42,-987.41 413.56,-748.66 392,-550 385.74,-492.31 393.13,-73.6 356,-29 352.86,-25.23 349.08,-22.15 344.92,-19.64"/>
<polygon fill="midnightblue" stroke="midnightblue" points="463.1,-1057.11 468.28,-1066.35 469.99,-1055.9 463.1,-1057.11"/>
</g>
<!-- Node40&#45;&gt;Node41 -->
<g id="edge34" class="edge">
<title>Node40&#45;&gt;Node41</title>
<path fill="none" stroke="midnightblue" d="M218.74,-405.2C214.28,-407.16 209.97,-409.41 206,-412 151.93,-447.17 110.61,-514.63 93.98,-544.79"/>
<polygon fill="midnightblue" stroke="midnightblue" points="220.01,-408.46 228.06,-401.56 217.47,-401.93 220.01,-408.46"/>
</g>
<!-- Node45&#45;&gt;Node3 -->
<g id="edge41" class="edge">
<title>Node45&#45;&gt;Node3</title>
<path fill="none" stroke="midnightblue" d="M218.02,-677.89C185.11,-687.39 145.99,-698.68 118.91,-706.5"/>
<polygon fill="midnightblue" stroke="midnightblue" points="219.37,-681.14 228.01,-675.01 217.43,-674.42 219.37,-681.14"/>
</g>
</g>
</svg>
