<?xml version="1.0" encoding="UTF-8" standalone="no"?>
<!DOCTYPE svg PUBLIC "-//W3C//DTD SVG 1.1//EN"
 "http://www.w3.org/Graphics/SVG/1.1/DTD/svg11.dtd">
<!-- Generated by graphviz version 2.44.1 (20200629.0800)
 -->
<!-- Title: TTrain::CalcTimeToAct Pages: 1 -->
<!--zoomable 389 -->
<svg id="main" version="1.1" xmlns="http://www.w3.org/2000/svg" xmlns:xlink="http://www.w3.org/1999/xlink" xml:space="preserve" onload="init(evt)">
<style type="text/css"><![CDATA[
.edge:hover path { stroke: red; }
.edge:hover polygon { stroke: red; fill: red; }
]]></style>
<script type="text/javascript"><![CDATA[
var edges = document.getElementsByTagName('g');
if (edges && edges.length) {
  for (var i=0;i<edges.length;i++) {
    if (edges[i].id.substr(0,4)=='edge') {
      edges[i].setAttribute('class','edge');
    }
  }
}
]]></script>
        <defs>
                <circle id="rim" cx="0" cy="0" r="7"/>
                <circle id="rim2" cx="0" cy="0" r="3.5"/>
                <g id="zoomPlus">
                        <use xlink:href="#rim" fill="#404040">
                                <set attributeName="fill" to="#808080" begin="zoomplus.mouseover" end="zoomplus.mouseout"/>
                        </use>
                        <path d="M-4,0h8M0,-4v8" fill="none" stroke="white" stroke-width="1.5" pointer-events="none"/>
                </g>
                <g id="zoomMin">
                        <use xlink:href="#rim" fill="#404040">
                                <set attributeName="fill" to="#808080" begin="zoomminus.mouseover" end="zoomminus.mouseout"/>
                        </use>
                        <path d="M-4,0h8" fill="none" stroke="white" stroke-width="1.5" pointer-events="none"/>
                </g>
                <g id="dirArrow">
                        <path fill="none" stroke="white" stroke-width="1.5" d="M0,-3.0v7 M-2.5,-0.5L0,-3.0L2.5,-0.5"/>
                </g>
               <g id="resetDef">
                       <use xlink:href="#rim2" fill="#404040">
                               <set attributeName="fill" to="#808080" begin="reset.mouseover" end="reset.mouseout"/>
                       </use>
               </g>
        </defs>

<script type="text/javascript">
var viewWidth = 826;
var viewHeight = 389;
var sectionId = 'dynsection-7';
</script>
<script xlink:href="svgpan.js"/>
<svg id="graph" class="graph">
<g id="viewport">
<title>TTrain::CalcTimeToAct</title>
<polygon fill="white" stroke="transparent" points="-4,4 -4,-384.7 822,-384.7 822,4 -4,4"/>
<!-- Node1 -->
<g id="node1" class="node">
<title>Node1</title>
<g id="a_node1"><a xlink:title="new v2.2.0 for operator action panel. Calculates the time left for operator action to avoid unnecessa...">
<polygon fill="#bfbfbf" stroke="black" points="0,-158.5 0,-177.5 115,-177.5 115,-158.5 0,-158.5"/>
<text text-anchor="middle" x="57.5" y="-165.5" font-family="Helvetica,sans-Serif" font-size="10.00">TTrain::CalcTimeToAct</text>
</a>
</g>
</g>
<!-- Node2 -->
<g id="node2" class="node">
<title>Node2</title>
<g id="a_node2"><a xlink:href="class_t_train_controller.html#ad81afe17a036ab3f96c340ab75a2d8e2" target="_top" xlink:title="new v2.2.0, calcs distance to red signal, returns &#45;1 for no signal found, for autosigs route after ne...">
<polygon fill="white" stroke="black" points="151,-197 151,-227 299,-227 299,-197 151,-197"/>
<text text-anchor="start" x="159" y="-215" font-family="Helvetica,sans-Serif" font-size="10.00">TTrainController::CalcDistance</text>
<text text-anchor="middle" x="225" y="-204" font-family="Helvetica,sans-Serif" font-size="10.00">ToRedSignalandStopTime</text>
</a>
</g>
</g>
<!-- Node1&#45;&gt;Node2 -->
<g id="edge1" class="edge">
<title>Node1&#45;&gt;Node2</title>
<path fill="none" stroke="midnightblue" d="M94.41,-177.55C112.88,-182.46 135.99,-188.6 157.55,-194.33"/>
<polygon fill="midnightblue" stroke="midnightblue" points="156.77,-197.75 167.33,-196.93 158.57,-190.98 156.77,-197.75"/>
</g>
<!-- Node3 -->
<g id="node3" class="node">
<title>Node3</title>
<g id="a_node3"><a xlink:href="class_t_utilities.html#ae1eddca13cc3c492839e131f40ec21c0" target="_top" xlink:title="pops the last entry off the call stack, throws an error if called when empty">
<polygon fill="white" stroke="black" points="708,-285.5 708,-304.5 818,-304.5 818,-285.5 708,-285.5"/>
<text text-anchor="middle" x="763" y="-292.5" font-family="Helvetica,sans-Serif" font-size="10.00">TUtilities::CallLogPop</text>
</a>
</g>
</g>
<!-- Node1&#45;&gt;Node3 -->
<g id="edge18" class="edge">
<title>Node1&#45;&gt;Node3</title>
<path fill="none" stroke="midnightblue" d="M64.3,-177.75C77.4,-199.09 111.24,-250.51 151,-282 222.21,-338.4 246.45,-350.71 335,-371 482.6,-404.82 661.82,-338.6 731.88,-308.65"/>
<polygon fill="midnightblue" stroke="midnightblue" points="733.64,-311.7 741.41,-304.51 730.85,-305.28 733.64,-311.7"/>
</g>
<!-- Node4 -->
<g id="node4" class="node">
<title>Node4</title>
<g id="a_node4"><a xlink:href="class_t_track.html#aeb515d40cb9b08ed55ce877ffdbc51a5" target="_top" xlink:title="Return the corresponding link position (track always occupies either links 0 &amp; 1 or 2 &amp; 3)">
<polygon fill="white" stroke="black" points="335,-331 335,-361 487,-361 487,-331 335,-331"/>
<text text-anchor="start" x="343" y="-349" font-family="Helvetica,sans-Serif" font-size="10.00">TTrack::GetNonPointsOpposite</text>
<text text-anchor="middle" x="411" y="-338" font-family="Helvetica,sans-Serif" font-size="10.00">LinkPos</text>
</a>
</g>
</g>
<!-- Node1&#45;&gt;Node4 -->
<g id="edge19" class="edge">
<title>Node1&#45;&gt;Node4</title>
<path fill="none" stroke="midnightblue" d="M69.58,-177.63C86.35,-191.89 119.59,-218.88 151,-237 228.09,-281.47 252.79,-281.92 335,-316 343.85,-319.67 353.31,-323.51 362.43,-327.18"/>
<polygon fill="midnightblue" stroke="midnightblue" points="361.19,-330.45 371.77,-330.92 363.79,-323.95 361.19,-330.45"/>
</g>
<!-- Node5 -->
<g id="node5" class="node">
<title>Node5</title>
<g id="a_node5"><a xlink:href="class_t_all_routes.html#a0a9ccbc84687f85806115877aa86dcfd" target="_top" xlink:title="Examines Route2MultiMap and if the element at TrackVectorPosition with LinkPos (can be entry or exit)...">
<polygon fill="white" stroke="black" points="345,-153 345,-183 477,-183 477,-153 345,-153"/>
<text text-anchor="start" x="353" y="-171" font-family="Helvetica,sans-Serif" font-size="10.00">TAllRoutes::GetRouteType</text>
<text text-anchor="middle" x="411" y="-160" font-family="Helvetica,sans-Serif" font-size="10.00">AndNumber</text>
</a>
</g>
</g>
<!-- Node1&#45;&gt;Node5 -->
<g id="edge20" class="edge">
<title>Node1&#45;&gt;Node5</title>
<path fill="none" stroke="midnightblue" d="M115.37,-168C174.94,-168 268.82,-168 334.55,-168"/>
<polygon fill="midnightblue" stroke="midnightblue" points="334.85,-171.5 344.85,-168 334.85,-164.5 334.85,-171.5"/>
</g>
<!-- Node6 -->
<g id="node6" class="node">
<title>Node6</title>
<g id="a_node6"><a xlink:href="class_t_utilities.html#a34bd6bb5305bc29afdf424f6d35a921c" target="_top" xlink:title="creates a string of the form &#39;hh:mm:ss&#39; for use in call &amp; event logging">
<polygon fill="white" stroke="black" points="708,-133.5 708,-152.5 818,-152.5 818,-133.5 708,-133.5"/>
<text text-anchor="middle" x="763" y="-140.5" font-family="Helvetica,sans-Serif" font-size="10.00">TUtilities::TimeStamp</text>
</a>
</g>
</g>
<!-- Node1&#45;&gt;Node6 -->
<g id="edge22" class="edge">
<title>Node1&#45;&gt;Node6</title>
<path fill="none" stroke="midnightblue" d="M84.88,-158.38C103.21,-152.03 128.32,-143.99 151,-139 377.4,-89.14 442.99,-78.01 672,-114 691.66,-117.09 712.88,-123.75 729.77,-129.92"/>
<polygon fill="midnightblue" stroke="midnightblue" points="728.58,-133.21 739.17,-133.46 731.05,-126.66 728.58,-133.21"/>
</g>
<!-- Node7 -->
<g id="node7" class="node">
<title>Node7</title>
<g id="a_node7"><a xlink:href="class_t_track.html#ad377e5a1f152f2e89832c0f9bcfd261f" target="_top" xlink:title="A range&#45;checked version of TrackElement.at(At)">
<polygon fill="white" stroke="black" points="536.5,-152.5 536.5,-171.5 658.5,-171.5 658.5,-152.5 536.5,-152.5"/>
<text text-anchor="middle" x="597.5" y="-159.5" font-family="Helvetica,sans-Serif" font-size="10.00">TTrack::TrackElementAt</text>
</a>
</g>
</g>
<!-- Node1&#45;&gt;Node7 -->
<g id="edge23" class="edge">
<title>Node1&#45;&gt;Node7</title>
<path fill="none" stroke="midnightblue" d="M115.07,-159.52C197.12,-148.39 353.92,-131.54 487,-143 505,-144.55 524.48,-147.51 541.95,-150.64"/>
<polygon fill="midnightblue" stroke="midnightblue" points="541.51,-154.11 551.97,-152.49 542.78,-147.23 541.51,-154.11"/>
</g>
<!-- Node10 -->
<g id="node10" class="node">
<title>Node10</title>
<g id="a_node10"><a xlink:href="class_t_train.html#a2a2d78164c9dc1881b2c77526f04903f" target="_top" xlink:title="True if the train has stopped for any reason.">
<polygon fill="white" stroke="black" points="182.5,-0.5 182.5,-19.5 267.5,-19.5 267.5,-0.5 182.5,-0.5"/>
<text text-anchor="middle" x="225" y="-7.5" font-family="Helvetica,sans-Serif" font-size="10.00">TTrain::Stopped</text>
</a>
</g>
</g>
<!-- Node1&#45;&gt;Node10 -->
<g id="edge21" class="edge">
<title>Node1&#45;&gt;Node10</title>
<path fill="none" stroke="midnightblue" d="M62.53,-158.3C73.19,-133.76 104.59,-68.71 151,-34 157.53,-29.11 165.11,-25.19 172.86,-22.06"/>
<polygon fill="midnightblue" stroke="midnightblue" points="174.14,-25.31 182.34,-18.6 171.74,-18.74 174.14,-25.31"/>
</g>
<!-- Node2&#45;&gt;Node3 -->
<g id="edge2" class="edge">
<title>Node2&#45;&gt;Node3</title>
<path fill="none" stroke="midnightblue" d="M288.98,-227.13C292.48,-228.88 295.85,-230.83 299,-233 320.95,-248.14 312.06,-267.4 335,-281 399.63,-319.3 597.06,-313.38 672,-308 680.38,-307.4 689.16,-306.49 697.81,-305.42"/>
<polygon fill="midnightblue" stroke="midnightblue" points="698.42,-308.87 707.88,-304.1 697.51,-301.93 698.42,-308.87"/>
</g>
<!-- Node2&#45;&gt;Node4 -->
<g id="edge3" class="edge">
<title>Node2&#45;&gt;Node4</title>
<path fill="none" stroke="midnightblue" d="M240.61,-227.3C265.23,-252.85 314.32,-302.71 335,-316 341.16,-319.96 347.94,-323.56 354.81,-326.77"/>
<polygon fill="midnightblue" stroke="midnightblue" points="353.64,-330.08 364.2,-330.91 356.47,-323.67 353.64,-330.08"/>
</g>
<!-- Node2&#45;&gt;Node5 -->
<g id="edge4" class="edge">
<title>Node2&#45;&gt;Node5</title>
<path fill="none" stroke="midnightblue" d="M288.81,-196.98C304.41,-193.25 321.27,-189.22 337.3,-185.38"/>
<polygon fill="midnightblue" stroke="midnightblue" points="338.25,-188.76 347.16,-183.03 336.62,-181.95 338.25,-188.76"/>
</g>
<!-- Node2&#45;&gt;Node6 -->
<g id="edge10" class="edge">
<title>Node2&#45;&gt;Node6</title>
<path fill="none" stroke="midnightblue" d="M243.43,-196.87C263.82,-180.2 299.34,-154.27 335,-143 460.66,-103.29 617.71,-118.73 701.95,-131.88"/>
<polygon fill="midnightblue" stroke="midnightblue" points="701.43,-135.34 711.86,-133.46 702.54,-128.42 701.43,-135.34"/>
</g>
<!-- Node2&#45;&gt;Node7 -->
<g id="edge11" class="edge">
<title>Node2&#45;&gt;Node7</title>
<path fill="none" stroke="midnightblue" d="M299.03,-210.13C351.62,-207.88 424.09,-202.92 487,-192 510.87,-187.86 537.05,-180.78 557.83,-174.54"/>
<polygon fill="midnightblue" stroke="midnightblue" points="559.03,-177.83 567.56,-171.56 556.98,-171.14 559.03,-177.83"/>
</g>
<!-- Node8 -->
<g id="node8" class="node">
<title>Node8</title>
<g id="a_node8"><a xlink:href="class_t_train_controller.html#a4d5de42d6e9e92191241963599581210" target="_top" xlink:title="Return a reference to the train with ID TrainID, carries out validity checking on TrainID.">
<polygon fill="white" stroke="black" points="341,-241 341,-271 481,-271 481,-241 341,-241"/>
<text text-anchor="start" x="349" y="-259" font-family="Helvetica,sans-Serif" font-size="10.00">TTrainController::TrainVector</text>
<text text-anchor="middle" x="411" y="-248" font-family="Helvetica,sans-Serif" font-size="10.00">AtIdent</text>
</a>
</g>
</g>
<!-- Node2&#45;&gt;Node8 -->
<g id="edge12" class="edge">
<title>Node2&#45;&gt;Node8</title>
<path fill="none" stroke="midnightblue" d="M288.81,-227.02C304.41,-230.75 321.27,-234.78 337.3,-238.62"/>
<polygon fill="midnightblue" stroke="midnightblue" points="336.62,-242.05 347.16,-240.97 338.25,-235.24 336.62,-242.05"/>
</g>
<!-- Node5&#45;&gt;Node3 -->
<g id="edge5" class="edge">
<title>Node5&#45;&gt;Node3</title>
<path fill="none" stroke="midnightblue" d="M430,-183.28C458.66,-207.47 512.5,-252.35 523,-257 553.46,-270.48 637.89,-281.84 697.74,-288.54"/>
<polygon fill="midnightblue" stroke="midnightblue" points="697.54,-292.04 707.86,-289.65 698.31,-285.08 697.54,-292.04"/>
</g>
<!-- Node5&#45;&gt;Node6 -->
<g id="edge6" class="edge">
<title>Node5&#45;&gt;Node6</title>
<path fill="none" stroke="midnightblue" d="M467.49,-152.97C485.1,-148.89 504.74,-145.03 523,-143 581.78,-136.46 649.2,-137.2 697.41,-139.15"/>
<polygon fill="midnightblue" stroke="midnightblue" points="697.56,-142.66 707.71,-139.59 697.87,-135.66 697.56,-142.66"/>
</g>
<!-- Node5&#45;&gt;Node7 -->
<g id="edge7" class="edge">
<title>Node5&#45;&gt;Node7</title>
<path fill="none" stroke="midnightblue" d="M477.05,-165.88C492.88,-165.37 509.88,-164.82 525.95,-164.29"/>
<polygon fill="midnightblue" stroke="midnightblue" points="526.48,-167.78 536.36,-163.96 526.25,-160.78 526.48,-167.78"/>
</g>
<!-- Node7&#45;&gt;Node3 -->
<g id="edge8" class="edge">
<title>Node7&#45;&gt;Node3</title>
<path fill="none" stroke="midnightblue" d="M611.11,-171.53C625.85,-182.72 650.91,-201.93 672,-219 696.86,-239.12 724.94,-263.03 743.02,-278.58"/>
<polygon fill="midnightblue" stroke="midnightblue" points="741.18,-281.61 751.04,-285.49 745.75,-276.31 741.18,-281.61"/>
</g>
<!-- Node7&#45;&gt;Node6 -->
<g id="edge9" class="edge">
<title>Node7&#45;&gt;Node6</title>
<path fill="none" stroke="midnightblue" d="M658.92,-154.98C671.55,-153.51 684.91,-151.96 697.68,-150.47"/>
<polygon fill="midnightblue" stroke="midnightblue" points="698.24,-153.93 707.77,-149.3 697.43,-146.98 698.24,-153.93"/>
</g>
<!-- Node8&#45;&gt;Node3 -->
<g id="edge13" class="edge">
<title>Node8&#45;&gt;Node3</title>
<path fill="none" stroke="midnightblue" d="M451.7,-271.08C472.59,-278.27 498.82,-286.12 523,-290 581.72,-299.42 649.6,-299.86 697.97,-298.42"/>
<polygon fill="midnightblue" stroke="midnightblue" points="698.11,-301.92 707.99,-298.09 697.88,-294.92 698.11,-301.92"/>
</g>
<!-- Node8&#45;&gt;Node6 -->
<g id="edge14" class="edge">
<title>Node8&#45;&gt;Node6</title>
<path fill="none" stroke="midnightblue" d="M454.73,-240.96C475.27,-233.93 500.29,-225.67 523,-219 588.57,-199.74 607.23,-202.8 672,-181 692.43,-174.13 714.75,-164.71 732.05,-156.98"/>
<polygon fill="midnightblue" stroke="midnightblue" points="733.94,-159.96 741.61,-152.65 731.05,-153.59 733.94,-159.96"/>
</g>
<!-- Node9 -->
<g id="node9" class="node">
<title>Node9</title>
<g id="a_node9"><a xlink:href="class_t_train_controller.html#aa09adf9c442406cccc270d6703867a1d" target="_top" xlink:title="Return a reference to the train at position VecPos in the TrainVector, carries out range checking on ...">
<polygon fill="white" stroke="black" points="523,-228.5 523,-247.5 672,-247.5 672,-228.5 523,-228.5"/>
<text text-anchor="middle" x="597.5" y="-235.5" font-family="Helvetica,sans-Serif" font-size="10.00">TTrainController::TrainVectorAt</text>
</a>
</g>
</g>
<!-- Node8&#45;&gt;Node9 -->
<g id="edge15" class="edge">
<title>Node8&#45;&gt;Node9</title>
<path fill="none" stroke="midnightblue" d="M481.23,-249.25C491.53,-248.24 502.25,-247.2 512.81,-246.16"/>
<polygon fill="midnightblue" stroke="midnightblue" points="513.26,-249.64 522.88,-245.18 512.58,-242.67 513.26,-249.64"/>
</g>
<!-- Node9&#45;&gt;Node3 -->
<g id="edge16" class="edge">
<title>Node9&#45;&gt;Node3</title>
<path fill="none" stroke="midnightblue" d="M628.62,-247.57C641.95,-251.87 657.79,-257.08 672,-262 690.1,-268.27 710.12,-275.58 726.67,-281.71"/>
<polygon fill="midnightblue" stroke="midnightblue" points="725.89,-285.16 736.48,-285.37 728.33,-278.6 725.89,-285.16"/>
</g>
<!-- Node9&#45;&gt;Node6 -->
<g id="edge17" class="edge">
<title>Node9&#45;&gt;Node6</title>
<path fill="none" stroke="midnightblue" d="M636.19,-228.49C648.01,-224.78 660.88,-219.96 672,-214 699.74,-199.14 727.55,-175.55 744.76,-159.68"/>
<polygon fill="midnightblue" stroke="midnightblue" points="747.42,-161.99 752.31,-152.59 742.62,-156.89 747.42,-161.99"/>
</g>
</g>
</svg>
        <g id="navigator" transform="translate(0 0)" fill="#404254">
                <rect fill="#f2f5e9" fill-opacity="0.5" stroke="#606060" stroke-width=".5" x="0" y="0" width="60" height="60"/>
                <use id="zoomplus" xlink:href="#zoomPlus" x="17" y="9" onmousedown="handleZoom(evt,'in')"/>
                <use id="zoomminus" xlink:href="#zoomMin" x="42" y="9" onmousedown="handleZoom(evt,'out')"/>
                <use id="reset" xlink:href="#resetDef" x="30" y="36" onmousedown="handleReset()"/>
                <g id="arrowUp" xlink:href="#dirArrow" transform="translate(30 24)" onmousedown="handlePan(0,-1)">
                  <use xlink:href="#rim" fill="#404040">
                        <set attributeName="fill" to="#808080" begin="arrowUp.mouseover" end="arrowUp.mouseout"/>
                  </use>
                  <path fill="none" stroke="white" stroke-width="1.5" d="M0,-3.0v7 M-2.5,-0.5L0,-3.0L2.5,-0.5"/>
                </g>
                <g id="arrowRight" xlink:href="#dirArrow" transform="rotate(90) translate(36 -43)" onmousedown="handlePan(1,0)">
                  <use xlink:href="#rim" fill="#404040">
                        <set attributeName="fill" to="#808080" begin="arrowRight.mouseover" end="arrowRight.mouseout"/>
                  </use>
                  <path fill="none" stroke="white" stroke-width="1.5" d="M0,-3.0v7 M-2.5,-0.5L0,-3.0L2.5,-0.5"/>
                </g>
                <g id="arrowDown" xlink:href="#dirArrow" transform="rotate(180) translate(-30 -48)" onmousedown="handlePan(0,1)">
                  <use xlink:href="#rim" fill="#404040">
                        <set attributeName="fill" to="#808080" begin="arrowDown.mouseover" end="arrowDown.mouseout"/>
                  </use>
                  <path fill="none" stroke="white" stroke-width="1.5" d="M0,-3.0v7 M-2.5,-0.5L0,-3.0L2.5,-0.5"/>
                </g>
                <g id="arrowLeft" xlink:href="#dirArrow" transform="rotate(270) translate(-36 17)" onmousedown="handlePan(-1,0)">
                  <use xlink:href="#rim" fill="#404040">
                        <set attributeName="fill" to="#808080" begin="arrowLeft.mouseover" end="arrowLeft.mouseout"/>
                  </use>
                  <path fill="none" stroke="white" stroke-width="1.5" d="M0,-3.0v7 M-2.5,-0.5L0,-3.0L2.5,-0.5"/>
                </g>
        </g>
        <svg viewBox="0 0 15 15" width="100%" height="30px" preserveAspectRatio="xMaxYMin meet">
         <g id="arrow_out" transform="scale(0.3 0.3)">
          <a xlink:href="class_t_train_ae34370de578ebd07a217c79d8b67312c_cgraph_org.svg" target="_base">
           <rect id="button" ry="5" rx="5" y="6" x="6" height="38" width="38"
                fill="#f2f5e9" fill-opacity="0.5" stroke="#606060" stroke-width="1.0"/>
           <path id="arrow"
             d="M 11.500037,31.436501 C 11.940474,20.09759 22.043105,11.32322 32.158766,21.979434 L 37.068811,17.246167 C 37.068811,17.246167 37.088388,32 37.088388,32 L 22.160133,31.978069 C 22.160133,31.978069 26.997745,27.140456 26.997745,27.140456 C 18.528582,18.264221 13.291696,25.230495 11.500037,31.436501 z"
             style="fill:#404040;"/>
          </a>
         </g>
        </svg>
</svg>
