<?xml version="1.0" encoding="UTF-8" standalone="no"?>
<!DOCTYPE svg PUBLIC "-//W3C//DTD SVG 1.1//EN"
 "http://www.w3.org/Graphics/SVG/1.1/DTD/svg11.dtd">
<!-- Generated by graphviz version 2.44.1 (20200629.0800)
 -->
<!-- Title: TTrack::IsTrackLinked Pages: 1 -->
<!--zoomable 372 -->
<svg id="main" version="1.1" xmlns="http://www.w3.org/2000/svg" xmlns:xlink="http://www.w3.org/1999/xlink" xml:space="preserve" onload="init(evt)">
<style type="text/css"><![CDATA[
.edge:hover path { stroke: red; }
.edge:hover polygon { stroke: red; fill: red; }
]]></style>
<script type="text/javascript"><![CDATA[
var edges = document.getElementsByTagName('g');
if (edges && edges.length) {
  for (var i=0;i<edges.length;i++) {
    if (edges[i].id.substr(0,4)=='edge') {
      edges[i].setAttribute('class','edge');
    }
  }
}
]]></script>
        <defs>
                <circle id="rim" cx="0" cy="0" r="7"/>
                <circle id="rim2" cx="0" cy="0" r="3.5"/>
                <g id="zoomPlus">
                        <use xlink:href="#rim" fill="#404040">
                                <set attributeName="fill" to="#808080" begin="zoomplus.mouseover" end="zoomplus.mouseout"/>
                        </use>
                        <path d="M-4,0h8M0,-4v8" fill="none" stroke="white" stroke-width="1.5" pointer-events="none"/>
                </g>
                <g id="zoomMin">
                        <use xlink:href="#rim" fill="#404040">
                                <set attributeName="fill" to="#808080" begin="zoomminus.mouseover" end="zoomminus.mouseout"/>
                        </use>
                        <path d="M-4,0h8" fill="none" stroke="white" stroke-width="1.5" pointer-events="none"/>
                </g>
                <g id="dirArrow">
                        <path fill="none" stroke="white" stroke-width="1.5" d="M0,-3.0v7 M-2.5,-0.5L0,-3.0L2.5,-0.5"/>
                </g>
               <g id="resetDef">
                       <use xlink:href="#rim2" fill="#404040">
                               <set attributeName="fill" to="#808080" begin="reset.mouseover" end="reset.mouseout"/>
                       </use>
               </g>
        </defs>

<script type="text/javascript">
var viewWidth = 796;
var viewHeight = 372;
var sectionId = 'dynsection-122';
</script>
<script xlink:href="svgpan.js"/>
<svg id="graph" class="graph">
<g id="viewport">
<title>TTrack::IsTrackLinked</title>
<polygon fill="white" stroke="transparent" points="-4,4 -4,-368.48 792,-368.48 792,4 -4,4"/>
<!-- Node1 -->
<g id="node1" class="node">
<title>Node1</title>
<g id="a_node1"><a xlink:title="True if track has been successfully linked (not used any more)">
<polygon fill="#bfbfbf" stroke="black" points="0,-219.91 0,-238.91 112,-238.91 112,-219.91 0,-219.91"/>
<text text-anchor="middle" x="56" y="-226.91" font-family="Helvetica,sans-Serif" font-size="10.00">TTrack::IsTrackLinked</text>
</a>
</g>
</g>
<!-- Node2 -->
<g id="node2" class="node">
<title>Node2</title>
<g id="a_node2"><a xlink:href="class_t_utilities.html#ae1eddca13cc3c492839e131f40ec21c0" target="_top" xlink:title="pops the last entry off the call stack, throws an error if called when empty">
<polygon fill="white" stroke="black" points="678,-216.91 678,-235.91 788,-235.91 788,-216.91 678,-216.91"/>
<text text-anchor="middle" x="733" y="-223.91" font-family="Helvetica,sans-Serif" font-size="10.00">TUtilities::CallLogPop</text>
</a>
</g>
</g>
<!-- Node1&#45;&gt;Node2 -->
<g id="edge1" class="edge">
<title>Node1&#45;&gt;Node2</title>
<path fill="none" stroke="midnightblue" d="M73.25,-238.92C144.29,-279.15 433.3,-428.99 642,-332.41 680.88,-314.42 709.1,-270.44 722.76,-245.14"/>
<polygon fill="midnightblue" stroke="midnightblue" points="725.92,-246.65 727.42,-236.16 719.71,-243.43 725.92,-246.65"/>
</g>
<!-- Node3 -->
<g id="node3" class="node">
<title>Node3</title>
<g id="a_node3"><a xlink:href="class_t_track.html#ab79158ff07bc54986fbaa34df0d7f2b2" target="_top" xlink:title="True if a footcrossing is linked properly at both ends.">
<polygon fill="white" stroke="black" points="148,-135.41 148,-165.41 285,-165.41 285,-135.41 148,-135.41"/>
<text text-anchor="start" x="156" y="-153.41" font-family="Helvetica,sans-Serif" font-size="10.00">TTrack::CheckFootCrossing</text>
<text text-anchor="middle" x="216.5" y="-142.41" font-family="Helvetica,sans-Serif" font-size="10.00">Links</text>
</a>
</g>
</g>
<!-- Node1&#45;&gt;Node3 -->
<g id="edge2" class="edge">
<title>Node1&#45;&gt;Node3</title>
<path fill="none" stroke="midnightblue" d="M76.12,-219.88C100.77,-207.59 144.26,-185.91 176.13,-170.03"/>
<polygon fill="midnightblue" stroke="midnightblue" points="177.8,-173.11 185.19,-165.51 174.68,-166.84 177.8,-173.11"/>
</g>
<!-- Node5 -->
<g id="node5" class="node">
<title>Node5</title>
<g id="a_node5"><a xlink:href="class_t_utilities.html#a34bd6bb5305bc29afdf424f6d35a921c" target="_top" xlink:title="creates a string of the form &#39;hh:mm:ss&#39; for use in call &amp; event logging">
<polygon fill="white" stroke="black" points="678,-64.91 678,-83.91 788,-83.91 788,-64.91 678,-64.91"/>
<text text-anchor="middle" x="733" y="-71.91" font-family="Helvetica,sans-Serif" font-size="10.00">TUtilities::TimeStamp</text>
</a>
</g>
</g>
<!-- Node1&#45;&gt;Node5 -->
<g id="edge20" class="edge">
<title>Node1&#45;&gt;Node5</title>
<path fill="none" stroke="midnightblue" d="M63.62,-219.82C77.51,-200.22 111.41,-154.95 148,-125.41 216.41,-70.17 236.14,-52.46 321,-29.41 458.69,8 503.73,9.79 642,-25.41 667.55,-31.91 693.67,-47.3 711.15,-59.11"/>
<polygon fill="midnightblue" stroke="midnightblue" points="709.24,-62.05 719.45,-64.9 713.24,-56.31 709.24,-62.05"/>
</g>
<!-- Node9 -->
<g id="node9" class="node">
<title>Node9</title>
<g id="a_node9"><a xlink:href="class_t_track.html#aa0812972d1ae27198c5fbca8aa7b6134" target="_top" xlink:title="Returns the track vector position corresponding to the Hloc &amp; VLoc positions, FoundFlag indicates whe...">
<polygon fill="white" stroke="black" points="499.5,-293.41 499.5,-323.41 630.5,-323.41 630.5,-293.41 499.5,-293.41"/>
<text text-anchor="start" x="507.5" y="-311.41" font-family="Helvetica,sans-Serif" font-size="10.00">TTrack::GetVectorPosition</text>
<text text-anchor="middle" x="565" y="-300.41" font-family="Helvetica,sans-Serif" font-size="10.00">FromTrackMap</text>
</a>
</g>
</g>
<!-- Node1&#45;&gt;Node9 -->
<g id="edge17" class="edge">
<title>Node1&#45;&gt;Node9</title>
<path fill="none" stroke="midnightblue" d="M112.22,-238.01C203.63,-252.26 386.46,-280.74 489.3,-296.77"/>
<polygon fill="midnightblue" stroke="midnightblue" points="488.89,-300.25 499.31,-298.33 489.96,-293.33 488.89,-300.25"/>
</g>
<!-- Node3&#45;&gt;Node2 -->
<g id="edge9" class="edge">
<title>Node3&#45;&gt;Node2</title>
<path fill="none" stroke="midnightblue" d="M256.61,-165.46C308.55,-184.57 403.55,-216.48 488,-228.41 555.77,-237.98 573.56,-229.17 642,-228.41 650.31,-228.32 659.06,-228.18 667.69,-228.01"/>
<polygon fill="midnightblue" stroke="midnightblue" points="667.82,-231.51 677.75,-227.81 667.68,-224.51 667.82,-231.51"/>
</g>
<!-- Node4 -->
<g id="node4" class="node">
<title>Node4</title>
<g id="a_node4"><a xlink:href="class_t_track.html#a0b0e7c333d860841aed4b66b94a6a955" target="_top" xlink:title="Used to check the validity of footcrossing links.">
<polygon fill="white" stroke="black" points="324,-140.91 324,-159.91 449,-159.91 449,-140.91 324,-140.91"/>
<text text-anchor="middle" x="386.5" y="-147.91" font-family="Helvetica,sans-Serif" font-size="10.00">TTrack::ActiveMapCheck</text>
</a>
</g>
</g>
<!-- Node3&#45;&gt;Node4 -->
<g id="edge3" class="edge">
<title>Node3&#45;&gt;Node4</title>
<path fill="none" stroke="midnightblue" d="M285.35,-150.41C294.71,-150.41 304.35,-150.41 313.78,-150.41"/>
<polygon fill="midnightblue" stroke="midnightblue" points="313.91,-153.91 323.91,-150.41 313.91,-146.91 313.91,-153.91"/>
</g>
<!-- Node3&#45;&gt;Node5 -->
<g id="edge16" class="edge">
<title>Node3&#45;&gt;Node5</title>
<path fill="none" stroke="midnightblue" d="M233.24,-135.19C252.36,-117.63 286.38,-89.27 321,-74.41 452.66,-17.88 500.56,-21.46 642,-44.41 661.98,-47.65 683.51,-54.69 700.51,-61.14"/>
<polygon fill="midnightblue" stroke="midnightblue" points="699.36,-64.45 709.94,-64.83 701.91,-57.93 699.36,-64.45"/>
</g>
<!-- Node7 -->
<g id="node7" class="node">
<title>Node7</title>
<g id="a_node7"><a xlink:href="class_t_track.html#a23030c22d4c98706d1738205242646d9" target="_top" xlink:title="Used to check the validity of footcrossing links.">
<polygon fill="white" stroke="black" points="321,-83.91 321,-102.91 452,-102.91 452,-83.91 321,-83.91"/>
<text text-anchor="middle" x="386.5" y="-90.91" font-family="Helvetica,sans-Serif" font-size="10.00">TTrack::InactiveMapCheck</text>
</a>
</g>
</g>
<!-- Node3&#45;&gt;Node7 -->
<g id="edge10" class="edge">
<title>Node3&#45;&gt;Node7</title>
<path fill="none" stroke="midnightblue" d="M262.08,-135.28C288.77,-126.23 322.32,-114.84 347.71,-106.23"/>
<polygon fill="midnightblue" stroke="midnightblue" points="349,-109.49 357.35,-102.96 346.75,-102.86 349,-109.49"/>
</g>
<!-- Node4&#45;&gt;Node2 -->
<g id="edge4" class="edge">
<title>Node4&#45;&gt;Node2</title>
<path fill="none" stroke="midnightblue" d="M401.74,-160.01C420.57,-172.17 455.22,-192.71 488,-202.41 547.19,-219.93 617.61,-225.3 667.55,-226.67"/>
<polygon fill="midnightblue" stroke="midnightblue" points="667.49,-230.16 677.57,-226.89 667.65,-223.17 667.49,-230.16"/>
</g>
<!-- Node4&#45;&gt;Node5 -->
<g id="edge5" class="edge">
<title>Node4&#45;&gt;Node5</title>
<path fill="none" stroke="midnightblue" d="M430.78,-140.86C493.78,-126.96 610.63,-101.18 678.8,-86.15"/>
<polygon fill="midnightblue" stroke="midnightblue" points="679.88,-89.49 688.89,-83.92 678.38,-82.65 679.88,-89.49"/>
</g>
<!-- Node6 -->
<g id="node6" class="node">
<title>Node6</title>
<g id="a_node6"><a xlink:href="class_t_track.html#ad377e5a1f152f2e89832c0f9bcfd261f" target="_top" xlink:title="A range&#45;checked version of TrackElement.at(At)">
<polygon fill="white" stroke="black" points="504,-140.91 504,-159.91 626,-159.91 626,-140.91 504,-140.91"/>
<text text-anchor="middle" x="565" y="-147.91" font-family="Helvetica,sans-Serif" font-size="10.00">TTrack::TrackElementAt</text>
</a>
</g>
</g>
<!-- Node4&#45;&gt;Node6 -->
<g id="edge6" class="edge">
<title>Node4&#45;&gt;Node6</title>
<path fill="none" stroke="midnightblue" d="M449.23,-150.41C463.61,-150.41 479.02,-150.41 493.74,-150.41"/>
<polygon fill="midnightblue" stroke="midnightblue" points="493.79,-153.91 503.79,-150.41 493.79,-146.91 493.79,-153.91"/>
</g>
<!-- Node6&#45;&gt;Node2 -->
<g id="edge7" class="edge">
<title>Node6&#45;&gt;Node2</title>
<path fill="none" stroke="midnightblue" d="M601.78,-159.95C614.68,-163.85 629.21,-168.78 642,-174.41 665.77,-184.88 691.25,-200.01 709.02,-211.25"/>
<polygon fill="midnightblue" stroke="midnightblue" points="707.25,-214.27 717.55,-216.73 711.03,-208.38 707.25,-214.27"/>
</g>
<!-- Node6&#45;&gt;Node5 -->
<g id="edge8" class="edge">
<title>Node6&#45;&gt;Node5</title>
<path fill="none" stroke="midnightblue" d="M601.78,-140.86C614.68,-136.97 629.21,-132.04 642,-126.41 665.77,-115.94 691.25,-100.81 709.02,-89.56"/>
<polygon fill="midnightblue" stroke="midnightblue" points="711.03,-92.43 717.55,-84.08 707.25,-86.54 711.03,-92.43"/>
</g>
<!-- Node7&#45;&gt;Node2 -->
<g id="edge11" class="edge">
<title>Node7&#45;&gt;Node2</title>
<path fill="none" stroke="midnightblue" d="M406.75,-102.91C420.07,-109.92 437.87,-120.16 452,-131.41 470.2,-145.9 467.72,-158.02 488,-169.41 549.03,-203.69 573.94,-186.05 642,-202.41 657.07,-206.03 673.48,-210.31 688.11,-214.24"/>
<polygon fill="midnightblue" stroke="midnightblue" points="687.34,-217.66 697.91,-216.89 689.17,-210.9 687.34,-217.66"/>
</g>
<!-- Node7&#45;&gt;Node5 -->
<g id="edge15" class="edge">
<title>Node7&#45;&gt;Node5</title>
<path fill="none" stroke="midnightblue" d="M406.54,-83.82C426.32,-74.45 458.46,-60.81 488,-55.41 555.33,-43.1 573.93,-48.3 642,-55.41 656.31,-56.9 671.7,-59.7 685.64,-62.7"/>
<polygon fill="midnightblue" stroke="midnightblue" points="684.97,-66.13 695.49,-64.9 686.5,-59.3 684.97,-66.13"/>
</g>
<!-- Node8 -->
<g id="node8" class="node">
<title>Node8</title>
<g id="a_node8"><a xlink:href="class_t_track.html#a51f89cf70e94b037f6378cd78003d82b" target="_top" xlink:title="A range&#45;checked version of InactiveTrackElement.at(At)">
<polygon fill="white" stroke="black" points="488,-64.91 488,-83.91 642,-83.91 642,-64.91 488,-64.91"/>
<text text-anchor="middle" x="565" y="-71.91" font-family="Helvetica,sans-Serif" font-size="10.00">TTrack::InactiveTrackElementAt</text>
</a>
</g>
</g>
<!-- Node7&#45;&gt;Node8 -->
<g id="edge12" class="edge">
<title>Node7&#45;&gt;Node8</title>
<path fill="none" stroke="midnightblue" d="M452.22,-86.44C460.56,-85.54 469.21,-84.61 477.83,-83.68"/>
<polygon fill="midnightblue" stroke="midnightblue" points="478.35,-87.15 487.92,-82.6 477.6,-80.19 478.35,-87.15"/>
</g>
<!-- Node8&#45;&gt;Node2 -->
<g id="edge13" class="edge">
<title>Node8&#45;&gt;Node2</title>
<path fill="none" stroke="midnightblue" d="M580.28,-84.03C595.98,-94.86 621.68,-113.3 642,-131.41 670.35,-156.67 700.04,-189.44 717.24,-209.14"/>
<polygon fill="midnightblue" stroke="midnightblue" points="714.61,-211.46 723.81,-216.73 719.91,-206.88 714.61,-211.46"/>
</g>
<!-- Node8&#45;&gt;Node5 -->
<g id="edge14" class="edge">
<title>Node8&#45;&gt;Node5</title>
<path fill="none" stroke="midnightblue" d="M642.2,-74.41C650.59,-74.41 659.07,-74.41 667.3,-74.41"/>
<polygon fill="midnightblue" stroke="midnightblue" points="667.57,-77.91 677.57,-74.41 667.57,-70.91 667.57,-77.91"/>
</g>
<!-- Node9&#45;&gt;Node2 -->
<g id="edge18" class="edge">
<title>Node9&#45;&gt;Node2</title>
<path fill="none" stroke="midnightblue" d="M607.5,-293.31C618.83,-288.84 631.01,-283.71 642,-278.41 665.25,-267.18 690.62,-252.26 708.48,-241.28"/>
<polygon fill="midnightblue" stroke="midnightblue" points="710.43,-244.19 717.08,-235.94 706.74,-238.24 710.43,-244.19"/>
</g>
<!-- Node9&#45;&gt;Node5 -->
<g id="edge19" class="edge">
<title>Node9&#45;&gt;Node5</title>
<path fill="none" stroke="midnightblue" d="M576.89,-293.06C606.39,-251.48 687.71,-136.85 719.26,-92.37"/>
<polygon fill="midnightblue" stroke="midnightblue" points="722.26,-94.18 725.2,-84 716.56,-90.13 722.26,-94.18"/>
</g>
</g>
</svg>
        <g id="navigator" transform="translate(0 0)" fill="#404254">
                <rect fill="#f2f5e9" fill-opacity="0.5" stroke="#606060" stroke-width=".5" x="0" y="0" width="60" height="60"/>
                <use id="zoomplus" xlink:href="#zoomPlus" x="17" y="9" onmousedown="handleZoom(evt,'in')"/>
                <use id="zoomminus" xlink:href="#zoomMin" x="42" y="9" onmousedown="handleZoom(evt,'out')"/>
                <use id="reset" xlink:href="#resetDef" x="30" y="36" onmousedown="handleReset()"/>
                <g id="arrowUp" xlink:href="#dirArrow" transform="translate(30 24)" onmousedown="handlePan(0,-1)">
                  <use xlink:href="#rim" fill="#404040">
                        <set attributeName="fill" to="#808080" begin="arrowUp.mouseover" end="arrowUp.mouseout"/>
                  </use>
                  <path fill="none" stroke="white" stroke-width="1.5" d="M0,-3.0v7 M-2.5,-0.5L0,-3.0L2.5,-0.5"/>
                </g>
                <g id="arrowRight" xlink:href="#dirArrow" transform="rotate(90) translate(36 -43)" onmousedown="handlePan(1,0)">
                  <use xlink:href="#rim" fill="#404040">
                        <set attributeName="fill" to="#808080" begin="arrowRight.mouseover" end="arrowRight.mouseout"/>
                  </use>
                  <path fill="none" stroke="white" stroke-width="1.5" d="M0,-3.0v7 M-2.5,-0.5L0,-3.0L2.5,-0.5"/>
                </g>
                <g id="arrowDown" xlink:href="#dirArrow" transform="rotate(180) translate(-30 -48)" onmousedown="handlePan(0,1)">
                  <use xlink:href="#rim" fill="#404040">
                        <set attributeName="fill" to="#808080" begin="arrowDown.mouseover" end="arrowDown.mouseout"/>
                  </use>
                  <path fill="none" stroke="white" stroke-width="1.5" d="M0,-3.0v7 M-2.5,-0.5L0,-3.0L2.5,-0.5"/>
                </g>
                <g id="arrowLeft" xlink:href="#dirArrow" transform="rotate(270) translate(-36 17)" onmousedown="handlePan(-1,0)">
                  <use xlink:href="#rim" fill="#404040">
                        <set attributeName="fill" to="#808080" begin="arrowLeft.mouseover" end="arrowLeft.mouseout"/>
                  </use>
                  <path fill="none" stroke="white" stroke-width="1.5" d="M0,-3.0v7 M-2.5,-0.5L0,-3.0L2.5,-0.5"/>
                </g>
        </g>
        <svg viewBox="0 0 15 15" width="100%" height="30px" preserveAspectRatio="xMaxYMin meet">
         <g id="arrow_out" transform="scale(0.3 0.3)">
          <a xlink:href="class_t_track_ac0c7fcb151e24dd265a94136db9b6a58_cgraph_org.svg" target="_base">
           <rect id="button" ry="5" rx="5" y="6" x="6" height="38" width="38"
                fill="#f2f5e9" fill-opacity="0.5" stroke="#606060" stroke-width="1.0"/>
           <path id="arrow"
             d="M 11.500037,31.436501 C 11.940474,20.09759 22.043105,11.32322 32.158766,21.979434 L 37.068811,17.246167 C 37.068811,17.246167 37.088388,32 37.088388,32 L 22.160133,31.978069 C 22.160133,31.978069 26.997745,27.140456 26.997745,27.140456 C 18.528582,18.264221 13.291696,25.230495 11.500037,31.436501 z"
             style="fill:#404040;"/>
          </a>
         </g>
        </svg>
</svg>
