<?xml version="1.0" encoding="UTF-8" standalone="no"?>
<!DOCTYPE svg PUBLIC "-//W3C//DTD SVG 1.1//EN"
 "http://www.w3.org/Graphics/SVG/1.1/DTD/svg11.dtd">
<!-- Generated by graphviz version 2.44.1 (20200629.0800)
 -->
<!-- Title: TTextHandler::SaveText Pages: 1 -->
<svg width="650pt" height="2134pt"
 viewBox="0.00 0.00 650.00 2134.00" xmlns="http://www.w3.org/2000/svg" xmlns:xlink="http://www.w3.org/1999/xlink">
<g id="graph0" class="graph" transform="scale(1 1) rotate(0) translate(4 2130)">
<title>TTextHandler::SaveText</title>
<polygon fill="white" stroke="transparent" points="-4,4 -4,-2130 646,-2130 646,4 -4,4"/>
<!-- Node1 -->
<g id="node1" class="node">
<title>Node1</title>
<g id="a_node1"><a xlink:title="save the railway&#39;s text to VecFile">
<polygon fill="#bfbfbf" stroke="black" points="523,-1048 523,-1067 642,-1067 642,-1048 523,-1048"/>
<text text-anchor="middle" x="582.5" y="-1055" font-family="Helvetica,sans-Serif" font-size="10.00">TTextHandler::SaveText</text>
</a>
</g>
</g>
<!-- Node2 -->
<g id="node2" class="node">
<title>Node2</title>
<g id="a_node2"><a xlink:href="class_t_interface.html#a1b3189e6a50555f5952652d12b978e57" target="_top" xlink:title="Used to save a railway when not already saved &#45; e.g. when not already named or when the &#39;Save as&#39; men...">
<polygon fill="white" stroke="black" points="185,-2052 185,-2071 329,-2071 329,-2052 185,-2052"/>
<text text-anchor="middle" x="257" y="-2059" font-family="Helvetica,sans-Serif" font-size="10.00">TInterface::SaveAsSubroutine</text>
</a>
</g>
</g>
<!-- Node1&#45;&gt;Node2 -->
<g id="edge1" class="edge">
<title>Node1&#45;&gt;Node2</title>
<path fill="none" stroke="midnightblue" d="M575.23,-1076.95C533.07,-1207.8 291.5,-1957.52 261.14,-2051.77"/>
<polygon fill="midnightblue" stroke="midnightblue" points="578.67,-1077.71 578.4,-1067.11 572,-1075.56 578.67,-1077.71"/>
</g>
<!-- Node4 -->
<g id="node4" class="node">
<title>Node4</title>
<g id="a_node4"><a xlink:href="class_t_interface.html#a4f373f26e99a3dc0bc7effc71ca25dc0" target="_top" xlink:title=" ">
<polygon fill="white" stroke="black" points="1.5,-2095.5 1.5,-2125.5 147.5,-2125.5 147.5,-2095.5 1.5,-2095.5"/>
<text text-anchor="start" x="9.5" y="-2113.5" font-family="Helvetica,sans-Serif" font-size="10.00">TInterface::SaveHeaderMenu1</text>
<text text-anchor="middle" x="74.5" y="-2102.5" font-family="Helvetica,sans-Serif" font-size="10.00">Click</text>
</a>
</g>
</g>
<!-- Node1&#45;&gt;Node4 -->
<g id="edge51" class="edge">
<title>Node1&#45;&gt;Node4</title>
<path fill="none" stroke="midnightblue" d="M579.73,-1077.11C567.57,-1207.03 492.02,-1942.92 329,-2080.5 279.38,-2122.37 203.54,-2126.15 147.73,-2121.71"/>
<polygon fill="midnightblue" stroke="midnightblue" points="583.22,-1077.31 580.66,-1067.03 576.25,-1076.67 583.22,-1077.31"/>
</g>
<!-- Node5 -->
<g id="node5" class="node">
<title>Node5</title>
<g id="a_node5"><a xlink:href="class_t_interface.html#a0109f801142d4fa3becae22e23b84163" target="_top" xlink:title="Save the error log after an error has been thrown &#45; no need for a caller.">
<polygon fill="white" stroke="black" points="365,-1048 365,-1067 487,-1067 487,-1048 365,-1048"/>
<text text-anchor="middle" x="426" y="-1055" font-family="Helvetica,sans-Serif" font-size="10.00">TInterface::SaveErrorFile</text>
</a>
</g>
</g>
<!-- Node1&#45;&gt;Node5 -->
<g id="edge4" class="edge">
<title>Node1&#45;&gt;Node5</title>
<path fill="none" stroke="midnightblue" d="M512.47,-1057.5C504.05,-1057.5 495.5,-1057.5 487.22,-1057.5"/>
<polygon fill="midnightblue" stroke="midnightblue" points="512.65,-1061 522.65,-1057.5 512.65,-1054 512.65,-1061"/>
</g>
<!-- Node135 -->
<g id="node49" class="node">
<title>Node135</title>
<g id="a_node49"><a xlink:href="class_t_interface.html#a7699c9c408064623d335d3452b60f289" target="_top" xlink:title=" ">
<polygon fill="white" stroke="black" points="10.5,-0.5 10.5,-30.5 138.5,-30.5 138.5,-0.5 10.5,-0.5"/>
<text text-anchor="start" x="18.5" y="-18.5" font-family="Helvetica,sans-Serif" font-size="10.00">TInterface::SaveMenuItem</text>
<text text-anchor="middle" x="74.5" y="-7.5" font-family="Helvetica,sans-Serif" font-size="10.00">Click</text>
</a>
</g>
</g>
<!-- Node1&#45;&gt;Node135 -->
<g id="edge52" class="edge">
<title>Node1&#45;&gt;Node135</title>
<path fill="none" stroke="midnightblue" d="M577.83,-1037.81C560.29,-946.43 479.49,-556.12 329,-271.5 268.16,-156.44 255.05,-115.95 149,-40.5 143.62,-36.67 137.6,-33.39 131.4,-30.59"/>
<polygon fill="midnightblue" stroke="midnightblue" points="574.4,-1038.48 579.7,-1047.65 581.28,-1037.18 574.4,-1038.48"/>
</g>
<!-- Node198 -->
<g id="node50" class="node">
<title>Node198</title>
<g id="a_node50"><a xlink:href="class_t_interface.html#a3362cfff4fa746fdb4871fe9d6c5ba25" target="_top" xlink:title="Save a session file &#45; see LoadSession for details of additions to the session file.">
<polygon fill="white" stroke="black" points="365.5,-1010 365.5,-1029 486.5,-1029 486.5,-1010 365.5,-1010"/>
<text text-anchor="middle" x="426" y="-1017" font-family="Helvetica,sans-Serif" font-size="10.00">TInterface::SaveSession</text>
</a>
</g>
</g>
<!-- Node1&#45;&gt;Node198 -->
<g id="edge53" class="edge">
<title>Node1&#45;&gt;Node198</title>
<path fill="none" stroke="midnightblue" d="M532.55,-1045.46C510.96,-1040.15 485.96,-1034 465.71,-1029.02"/>
<polygon fill="midnightblue" stroke="midnightblue" points="531.97,-1048.92 542.51,-1047.91 533.64,-1042.12 531.97,-1048.92"/>
</g>
<!-- Node3 -->
<g id="node3" class="node">
<title>Node3</title>
<g id="a_node3"><a xlink:href="class_t_interface.html#a0be281457630fce07fc19cdbbfde79b1" target="_top" xlink:title=" ">
<polygon fill="white" stroke="black" points="4.5,-2046.5 4.5,-2076.5 144.5,-2076.5 144.5,-2046.5 4.5,-2046.5"/>
<text text-anchor="start" x="12.5" y="-2064.5" font-family="Helvetica,sans-Serif" font-size="10.00">TInterface::SaveAsMenuItem</text>
<text text-anchor="middle" x="74.5" y="-2053.5" font-family="Helvetica,sans-Serif" font-size="10.00">Click</text>
</a>
</g>
</g>
<!-- Node2&#45;&gt;Node3 -->
<g id="edge2" class="edge">
<title>Node2&#45;&gt;Node3</title>
<path fill="none" stroke="midnightblue" d="M174.92,-2061.5C164.84,-2061.5 154.62,-2061.5 144.74,-2061.5"/>
<polygon fill="midnightblue" stroke="midnightblue" points="174.92,-2065 184.92,-2061.5 174.92,-2058 174.92,-2065"/>
</g>
<!-- Node2&#45;&gt;Node4 -->
<g id="edge3" class="edge">
<title>Node2&#45;&gt;Node4</title>
<path fill="none" stroke="midnightblue" d="M211.1,-2073.69C186.82,-2080.28 156.62,-2088.48 130.89,-2095.46"/>
<polygon fill="midnightblue" stroke="midnightblue" points="212.04,-2077.06 220.77,-2071.06 210.2,-2070.31 212.04,-2077.06"/>
</g>
<!-- Node6 -->
<g id="node6" class="node">
<title>Node6</title>
<g id="a_node6"><a xlink:href="class_t_interface.html#a4f3a25665e2266441217849f947a1adf" target="_top" xlink:title="The error logging routine, called when an error is detected.">
<polygon fill="white" stroke="red" points="206.5,-1048 206.5,-1067 307.5,-1067 307.5,-1048 206.5,-1048"/>
<text text-anchor="middle" x="257" y="-1055" font-family="Helvetica,sans-Serif" font-size="10.00">TInterface::ErrorLog</text>
</a>
</g>
</g>
<!-- Node5&#45;&gt;Node6 -->
<g id="edge5" class="edge">
<title>Node5&#45;&gt;Node6</title>
<path fill="none" stroke="midnightblue" d="M354.5,-1057.5C338.78,-1057.5 322.44,-1057.5 307.77,-1057.5"/>
<polygon fill="midnightblue" stroke="midnightblue" points="354.71,-1061 364.71,-1057.5 354.71,-1054 354.71,-1061"/>
</g>
<!-- Node6&#45;&gt;Node3 -->
<g id="edge48" class="edge">
<title>Node6&#45;&gt;Node3</title>
<path fill="none" stroke="midnightblue" d="M255.1,-1077.57C249,-1210.42 211.9,-1960.03 149,-2037.5 146.21,-2040.94 142.91,-2043.89 139.29,-2046.42"/>
<polygon fill="midnightblue" stroke="midnightblue" points="258.61,-1077.41 255.57,-1067.27 251.62,-1077.1 258.61,-1077.41"/>
</g>
<!-- Node6&#45;&gt;Node4 -->
<g id="edge49" class="edge">
<title>Node6&#45;&gt;Node4</title>
<path fill="none" stroke="midnightblue" d="M255.22,-1077.3C249.73,-1213.17 215,-2004.78 149,-2086.5 146.22,-2089.95 142.93,-2092.9 139.31,-2095.44"/>
<polygon fill="midnightblue" stroke="midnightblue" points="258.73,-1077.26 255.63,-1067.12 251.73,-1076.98 258.73,-1077.26"/>
</g>
<!-- Node7 -->
<g id="node7" class="node">
<title>Node7</title>
<g id="a_node7"><a xlink:href="class_t_interface.html#a7ccec66d1d0a81f124397af39f43da32" target="_top" xlink:title=" ">
<polygon fill="white" stroke="black" points="8,-1419.5 8,-1449.5 141,-1449.5 141,-1419.5 8,-1419.5"/>
<text text-anchor="start" x="16" y="-1437.5" font-family="Helvetica,sans-Serif" font-size="10.00">TInterface::AboutMenuItem</text>
<text text-anchor="middle" x="74.5" y="-1426.5" font-family="Helvetica,sans-Serif" font-size="10.00">Click</text>
</a>
</g>
</g>
<!-- Node6&#45;&gt;Node7 -->
<g id="edge6" class="edge">
<title>Node6&#45;&gt;Node7</title>
<path fill="none" stroke="midnightblue" d="M255.93,-1077.38C254.63,-1136.43 242.7,-1312.68 149,-1409.5 145.25,-1413.37 140.88,-1416.65 136.17,-1419.41"/>
<polygon fill="midnightblue" stroke="midnightblue" points="259.43,-1077.24 256.07,-1067.19 252.43,-1077.14 259.43,-1077.24"/>
</g>
<!-- Node8 -->
<g id="node8" class="node">
<title>Node8</title>
<g id="a_node8"><a xlink:href="class_t_interface.html#adfe259347a82aae9fc9538bba9c51cb8" target="_top" xlink:title=" ">
<polygon fill="white" stroke="black" points="7.5,-1381 7.5,-1400 141.5,-1400 141.5,-1381 7.5,-1381"/>
<text text-anchor="middle" x="74.5" y="-1388" font-family="Helvetica,sans-Serif" font-size="10.00">TInterface::AcceptDragging</text>
</a>
</g>
</g>
<!-- Node6&#45;&gt;Node8 -->
<g id="edge7" class="edge">
<title>Node6&#45;&gt;Node8</title>
<path fill="none" stroke="midnightblue" d="M255.42,-1077.36C252.68,-1132.68 237.12,-1289.79 149,-1371.5 144.84,-1375.35 140.01,-1378.45 134.84,-1380.93"/>
<polygon fill="midnightblue" stroke="midnightblue" points="258.92,-1077.3 255.83,-1067.17 251.93,-1077.02 258.92,-1077.3"/>
</g>
<!-- Node9 -->
<g id="node9" class="node">
<title>Node9</title>
<g id="a_node9"><a xlink:href="class_t_interface.html#a30904d608111ce6452a9861d86b64267" target="_top" xlink:title=" ">
<polygon fill="white" stroke="black" points="9,-1331.5 9,-1361.5 140,-1361.5 140,-1331.5 9,-1331.5"/>
<text text-anchor="start" x="17" y="-1349.5" font-family="Helvetica,sans-Serif" font-size="10.00">TInterface::AddMinsButton</text>
<text text-anchor="middle" x="74.5" y="-1338.5" font-family="Helvetica,sans-Serif" font-size="10.00">Click</text>
</a>
</g>
</g>
<!-- Node6&#45;&gt;Node9 -->
<g id="edge8" class="edge">
<title>Node6&#45;&gt;Node9</title>
<path fill="none" stroke="midnightblue" d="M253.72,-1077.21C247.03,-1125.99 223.02,-1253.36 149,-1322.5 145.37,-1325.89 141.25,-1328.8 136.87,-1331.3"/>
<polygon fill="midnightblue" stroke="midnightblue" points="257.22,-1077.43 255.01,-1067.07 250.27,-1076.54 257.22,-1077.43"/>
</g>
<!-- Node10 -->
<g id="node10" class="node">
<title>Node10</title>
<g id="a_node10"><a xlink:href="class_t_interface.html#a1b1a4260e251c9bd5f48fd6c3432e7a5" target="_top" xlink:title=" ">
<polygon fill="white" stroke="black" points="4.5,-1282.5 4.5,-1312.5 144.5,-1312.5 144.5,-1282.5 4.5,-1282.5"/>
<text text-anchor="start" x="12.5" y="-1300.5" font-family="Helvetica,sans-Serif" font-size="10.00">TInterface::AddPrefDirButton</text>
<text text-anchor="middle" x="74.5" y="-1289.5" font-family="Helvetica,sans-Serif" font-size="10.00">Click</text>
</a>
</g>
</g>
<!-- Node6&#45;&gt;Node10 -->
<g id="edge9" class="edge">
<title>Node6&#45;&gt;Node10</title>
<path fill="none" stroke="midnightblue" d="M251.7,-1077.21C241.49,-1119.44 211.75,-1219.21 149,-1273.5 145.04,-1276.93 140.58,-1279.86 135.87,-1282.38"/>
<polygon fill="midnightblue" stroke="midnightblue" points="255.14,-1077.87 253.99,-1067.34 248.32,-1076.3 255.14,-1077.87"/>
</g>
<!-- Node11 -->
<g id="node11" class="node">
<title>Node11</title>
<g id="a_node11"><a xlink:href="class_t_interface.html#a0abab134f4994b02507e1e2d3f31cd77" target="_top" xlink:title=" ">
<polygon fill="white" stroke="black" points="6,-1233.5 6,-1263.5 143,-1263.5 143,-1233.5 6,-1233.5"/>
<text text-anchor="start" x="14" y="-1251.5" font-family="Helvetica,sans-Serif" font-size="10.00">TInterface::AddSubMinsBox</text>
<text text-anchor="middle" x="74.5" y="-1240.5" font-family="Helvetica,sans-Serif" font-size="10.00">KeyUp</text>
</a>
</g>
</g>
<!-- Node6&#45;&gt;Node11 -->
<g id="edge10" class="edge">
<title>Node6&#45;&gt;Node11</title>
<path fill="none" stroke="midnightblue" d="M248.92,-1076.43C235.06,-1110.94 201.08,-1184.22 149,-1224.5 144.54,-1227.95 139.57,-1230.91 134.36,-1233.46"/>
<polygon fill="midnightblue" stroke="midnightblue" points="252.21,-1077.63 252.57,-1067.05 245.68,-1075.1 252.21,-1077.63"/>
</g>
<!-- Node12 -->
<g id="node12" class="node">
<title>Node12</title>
<g id="a_node12"><a xlink:href="class_t_interface.html#aa20c05bf2d6c23035a10a89796334d0f" target="_top" xlink:title=" ">
<polygon fill="white" stroke="black" points="10,-1184.5 10,-1214.5 139,-1214.5 139,-1184.5 10,-1184.5"/>
<text text-anchor="start" x="18" y="-1202.5" font-family="Helvetica,sans-Serif" font-size="10.00">TInterface::AddTextButton</text>
<text text-anchor="middle" x="74.5" y="-1191.5" font-family="Helvetica,sans-Serif" font-size="10.00">Click</text>
</a>
</g>
</g>
<!-- Node6&#45;&gt;Node12 -->
<g id="edge11" class="edge">
<title>Node6&#45;&gt;Node12</title>
<path fill="none" stroke="midnightblue" d="M244.06,-1075.79C226.31,-1101.61 190.55,-1148.58 149,-1175.5 143.71,-1178.93 137.88,-1181.91 131.89,-1184.49"/>
<polygon fill="midnightblue" stroke="midnightblue" points="247.09,-1077.56 249.77,-1067.31 241.28,-1073.66 247.09,-1077.56"/>
</g>
<!-- Node13 -->
<g id="node13" class="node">
<title>Node13</title>
<g id="a_node13"><a xlink:href="class_t_interface.html#a10494e62a7bb4e7114ab4d98e18499f1" target="_top" xlink:title=" ">
<polygon fill="white" stroke="black" points="7.5,-1135.5 7.5,-1165.5 141.5,-1165.5 141.5,-1135.5 7.5,-1135.5"/>
<text text-anchor="start" x="15.5" y="-1153.5" font-family="Helvetica,sans-Serif" font-size="10.00">TInterface::AddTrackButton</text>
<text text-anchor="middle" x="74.5" y="-1142.5" font-family="Helvetica,sans-Serif" font-size="10.00">Click</text>
</a>
</g>
</g>
<!-- Node6&#45;&gt;Node13 -->
<g id="edge12" class="edge">
<title>Node6&#45;&gt;Node13</title>
<path fill="none" stroke="midnightblue" d="M235.32,-1073.14C214.43,-1088.37 180.78,-1111.37 149,-1126.5 142.09,-1129.79 134.62,-1132.8 127.17,-1135.5"/>
<polygon fill="midnightblue" stroke="midnightblue" points="237.49,-1075.89 243.45,-1067.13 233.33,-1070.26 237.49,-1075.89"/>
</g>
<!-- Node14 -->
<g id="node14" class="node">
<title>Node14</title>
<g id="a_node14"><a xlink:href="class_t_interface.html#a189a4b05f27d6b5ec8b9a90ec1a9cc50" target="_top" xlink:title=" ">
<polygon fill="white" stroke="black" points="8,-1086.5 8,-1116.5 141,-1116.5 141,-1086.5 8,-1086.5"/>
<text text-anchor="start" x="16" y="-1104.5" font-family="Helvetica,sans-Serif" font-size="10.00">TInterface::AllEntriesTTList</text>
<text text-anchor="middle" x="74.5" y="-1093.5" font-family="Helvetica,sans-Serif" font-size="10.00">BoxMouseUp</text>
</a>
</g>
</g>
<!-- Node6&#45;&gt;Node14 -->
<g id="edge13" class="edge">
<title>Node6&#45;&gt;Node14</title>
<path fill="none" stroke="midnightblue" d="M206.96,-1069.46C185.49,-1074.69 160.05,-1080.89 137.3,-1086.43"/>
<polygon fill="midnightblue" stroke="midnightblue" points="207.95,-1072.82 216.83,-1067.05 206.29,-1066.02 207.95,-1072.82"/>
</g>
<!-- Node15 -->
<g id="node15" class="node">
<title>Node15</title>
<g id="a_node15"><a xlink:href="class_t_interface.html#af99ae89b6c7a2d37bf49cf0b5fcc3f1f" target="_top" xlink:title=" ">
<polygon fill="white" stroke="red" points="16.5,-1048 16.5,-1067 132.5,-1067 132.5,-1048 16.5,-1048"/>
<text text-anchor="middle" x="74.5" y="-1055" font-family="Helvetica,sans-Serif" font-size="10.00">TInterface::AppActivate</text>
</a>
</g>
</g>
<!-- Node6&#45;&gt;Node15 -->
<g id="edge14" class="edge">
<title>Node6&#45;&gt;Node15</title>
<path fill="none" stroke="midnightblue" d="M196.09,-1057.5C175.7,-1057.5 152.97,-1057.5 132.79,-1057.5"/>
<polygon fill="midnightblue" stroke="midnightblue" points="196.2,-1061 206.2,-1057.5 196.2,-1054 196.2,-1061"/>
</g>
<!-- Node17 -->
<g id="node16" class="node">
<title>Node17</title>
<g id="a_node16"><a xlink:href="class_t_interface.html#a75f68c918750c0e007ea7a85d718e2ab" target="_top" xlink:title=" ">
<polygon fill="white" stroke="red" points="11,-1010 11,-1029 138,-1029 138,-1010 11,-1010"/>
<text text-anchor="middle" x="74.5" y="-1017" font-family="Helvetica,sans-Serif" font-size="10.00">TInterface::AppDeactivate</text>
</a>
</g>
</g>
<!-- Node6&#45;&gt;Node17 -->
<g id="edge15" class="edge">
<title>Node6&#45;&gt;Node17</title>
<path fill="none" stroke="midnightblue" d="M200.52,-1045.82C174.92,-1040.43 144.92,-1034.11 120.72,-1029.02"/>
<polygon fill="midnightblue" stroke="midnightblue" points="199.95,-1049.28 210.45,-1047.91 201.39,-1042.43 199.95,-1049.28"/>
</g>
<!-- Node18 -->
<g id="node17" class="node">
<title>Node18</title>
<g id="a_node17"><a xlink:href="class_t_interface.html#a36ad38f4b485bba874129aeb3a20d926" target="_top" xlink:title=" ">
<polygon fill="white" stroke="black" points="8,-960.5 8,-990.5 141,-990.5 141,-960.5 8,-960.5"/>
<text text-anchor="start" x="16" y="-978.5" font-family="Helvetica,sans-Serif" font-size="10.00">TInterface::AutoSigsButton</text>
<text text-anchor="middle" x="74.5" y="-967.5" font-family="Helvetica,sans-Serif" font-size="10.00">Click</text>
</a>
</g>
</g>
<!-- Node6&#45;&gt;Node18 -->
<g id="edge16" class="edge">
<title>Node6&#45;&gt;Node18</title>
<path fill="none" stroke="midnightblue" d="M231.36,-1042.9C210.02,-1030.62 178.11,-1013.1 149,-1000.5 140.84,-996.96 132,-993.59 123.37,-990.53"/>
<polygon fill="midnightblue" stroke="midnightblue" points="229.68,-1045.98 240.09,-1047.97 233.2,-1039.92 229.68,-1045.98"/>
</g>
<!-- Node19 -->
<g id="node18" class="node">
<title>Node19</title>
<g id="a_node18"><a xlink:href="class_t_interface.html#a28579472104533fb5fd01066a22fbb5b" target="_top" xlink:title=" ">
<polygon fill="white" stroke="black" points="10,-911.5 10,-941.5 139,-941.5 139,-911.5 10,-911.5"/>
<text text-anchor="start" x="18" y="-929.5" font-family="Helvetica,sans-Serif" font-size="10.00">TInterface::AZOrderButton</text>
<text text-anchor="middle" x="74.5" y="-918.5" font-family="Helvetica,sans-Serif" font-size="10.00">Click</text>
</a>
</g>
</g>
<!-- Node6&#45;&gt;Node19 -->
<g id="edge17" class="edge">
<title>Node6&#45;&gt;Node19</title>
<path fill="none" stroke="midnightblue" d="M242.59,-1039.6C224.03,-1015.99 188.31,-974.63 149,-950.5 143.51,-947.13 137.49,-944.18 131.34,-941.61"/>
<polygon fill="midnightblue" stroke="midnightblue" points="239.96,-1041.92 248.84,-1047.7 245.51,-1037.64 239.96,-1041.92"/>
</g>
<!-- Node20 -->
<g id="node19" class="node">
<title>Node20</title>
<g id="a_node19"><a xlink:href="class_t_interface.html#a237c151513ca8adca6cd1006cc2fc66f" target="_top" xlink:title=" ">
<polygon fill="white" stroke="black" points="6.5,-862.5 6.5,-892.5 142.5,-892.5 142.5,-862.5 6.5,-862.5"/>
<text text-anchor="start" x="14.5" y="-880.5" font-family="Helvetica,sans-Serif" font-size="10.00">TInterface::BlackBgndMenu</text>
<text text-anchor="middle" x="74.5" y="-869.5" font-family="Helvetica,sans-Serif" font-size="10.00">ItemClick</text>
</a>
</g>
</g>
<!-- Node6&#45;&gt;Node20 -->
<g id="edge18" class="edge">
<title>Node6&#45;&gt;Node20</title>
<path fill="none" stroke="midnightblue" d="M247.96,-1038.47C233.18,-1005.71 198.58,-938.62 149,-901.5 144.38,-898.04 139.24,-895.07 133.88,-892.51"/>
<polygon fill="midnightblue" stroke="midnightblue" points="244.84,-1040.06 252.06,-1047.82 251.25,-1037.25 244.84,-1040.06"/>
</g>
<!-- Node21 -->
<g id="node20" class="node">
<title>Node21</title>
<g id="a_node20"><a xlink:href="class_t_interface.html#a24d79aa4745e495daa07bb5ce412e75f" target="_top" xlink:title=" ">
<polygon fill="white" stroke="black" points="9,-813.5 9,-843.5 140,-843.5 140,-813.5 9,-813.5"/>
<text text-anchor="start" x="17" y="-831.5" font-family="Helvetica,sans-Serif" font-size="10.00">TInterface::BlueBgndMenu</text>
<text text-anchor="middle" x="74.5" y="-820.5" font-family="Helvetica,sans-Serif" font-size="10.00">ItemClick</text>
</a>
</g>
</g>
<!-- Node6&#45;&gt;Node21 -->
<g id="edge19" class="edge">
<title>Node6&#45;&gt;Node21</title>
<path fill="none" stroke="midnightblue" d="M251.18,-1037.96C240.16,-997.4 209.34,-903.6 149,-852.5 144.9,-849.03 140.29,-846.06 135.43,-843.51"/>
<polygon fill="midnightblue" stroke="midnightblue" points="247.81,-1038.91 253.71,-1047.7 254.58,-1037.14 247.81,-1038.91"/>
</g>
<!-- Node22 -->
<g id="node21" class="node">
<title>Node22</title>
<g id="a_node21"><a xlink:href="class_t_interface.html#ab1799665ee1e4212186f80ab49acf1e1" target="_top" xlink:title=" ">
<polygon fill="white" stroke="black" points="7.5,-764.5 7.5,-794.5 141.5,-794.5 141.5,-764.5 7.5,-764.5"/>
<text text-anchor="start" x="15.5" y="-782.5" font-family="Helvetica,sans-Serif" font-size="10.00">TInterface::BuildTrackMenu</text>
<text text-anchor="middle" x="74.5" y="-771.5" font-family="Helvetica,sans-Serif" font-size="10.00">ItemClick</text>
</a>
</g>
</g>
<!-- Node6&#45;&gt;Node22 -->
<g id="edge20" class="edge">
<title>Node6&#45;&gt;Node22</title>
<path fill="none" stroke="midnightblue" d="M253.31,-1037.65C245.82,-990.19 220.4,-869.2 149,-803.5 145.25,-800.05 140.99,-797.09 136.46,-794.56"/>
<polygon fill="midnightblue" stroke="midnightblue" points="249.89,-1038.44 254.81,-1047.82 256.81,-1037.42 249.89,-1038.44"/>
</g>
<!-- Node23 -->
<g id="node22" class="node">
<title>Node23</title>
<g id="a_node22"><a xlink:href="class_t_interface.html#ae758bf4183bb5aa2a7cd83e06acd89b6" target="_top" xlink:title=" ">
<polygon fill="white" stroke="black" points="7,-715.5 7,-745.5 142,-745.5 142,-715.5 7,-715.5"/>
<text text-anchor="start" x="15" y="-733.5" font-family="Helvetica,sans-Serif" font-size="10.00">TInterface::CallingOnButton</text>
<text text-anchor="middle" x="74.5" y="-722.5" font-family="Helvetica,sans-Serif" font-size="10.00">Click</text>
</a>
</g>
</g>
<!-- Node6&#45;&gt;Node23 -->
<g id="edge21" class="edge">
<title>Node6&#45;&gt;Node23</title>
<path fill="none" stroke="midnightblue" d="M254.84,-1037.54C250.64,-983.91 231.74,-835.29 149,-754.5 145.45,-751.03 141.38,-748.06 137.04,-745.52"/>
<polygon fill="midnightblue" stroke="midnightblue" points="251.36,-1038.01 255.55,-1047.75 258.35,-1037.53 251.36,-1038.01"/>
</g>
<!-- Node24 -->
<g id="node23" class="node">
<title>Node24</title>
<g id="a_node23"><a xlink:href="class_t_interface.html#a2fb2cd7dbddb7fa689ea994e9ffc10ff" target="_top" xlink:title=" ">
<polygon fill="white" stroke="black" points="7,-666.5 7,-696.5 142,-696.5 142,-666.5 7,-666.5"/>
<text text-anchor="start" x="15" y="-684.5" font-family="Helvetica,sans-Serif" font-size="10.00">TInterface::CancelSelection</text>
<text text-anchor="middle" x="74.5" y="-673.5" font-family="Helvetica,sans-Serif" font-size="10.00">MenuItemClick</text>
</a>
</g>
</g>
<!-- Node6&#45;&gt;Node24 -->
<g id="edge22" class="edge">
<title>Node6&#45;&gt;Node24</title>
<path fill="none" stroke="midnightblue" d="M251.2,-1038.03C233.74,-967.8 173.34,-730.35 149,-705.5 145.62,-702.05 141.73,-699.09 137.56,-696.56"/>
<polygon fill="midnightblue" stroke="midnightblue" points="247.82,-1038.94 253.62,-1047.81 254.62,-1037.26 247.82,-1038.94"/>
</g>
<!-- Node25 -->
<g id="node24" class="node">
<title>Node25</title>
<g id="a_node24"><a xlink:href="class_t_interface.html#a6fb1db3295ef42cb1b6f20bc142fa502" target="_top" xlink:title=" ">
<polygon fill="white" stroke="black" points="10.5,-617.5 10.5,-647.5 138.5,-647.5 138.5,-617.5 10.5,-617.5"/>
<text text-anchor="start" x="18.5" y="-635.5" font-family="Helvetica,sans-Serif" font-size="10.00">TInterface::CancelTTEntry</text>
<text text-anchor="middle" x="74.5" y="-624.5" font-family="Helvetica,sans-Serif" font-size="10.00">ButtonClick</text>
</a>
</g>
</g>
<!-- Node6&#45;&gt;Node25 -->
<g id="edge23" class="edge">
<title>Node6&#45;&gt;Node25</title>
<path fill="none" stroke="midnightblue" d="M250.75,-1037.97C238.95,-994.1 209.47,-884.38 185,-792.5 168.91,-732.08 191.94,-701.95 149,-656.5 145.77,-653.08 142.06,-650.15 138.04,-647.64"/>
<polygon fill="midnightblue" stroke="midnightblue" points="247.43,-1039.13 253.41,-1047.88 254.19,-1037.31 247.43,-1039.13"/>
</g>
<!-- Node26 -->
<g id="node25" class="node">
<title>Node26</title>
<g id="a_node25"><a xlink:href="class_t_interface.html#aaaf32c3c815553f7ba70698e0f0071bb" target="_top" xlink:title=" ">
<polygon fill="white" stroke="black" points="6.5,-568.5 6.5,-598.5 142.5,-598.5 142.5,-568.5 6.5,-568.5"/>
<text text-anchor="start" x="14.5" y="-586.5" font-family="Helvetica,sans-Serif" font-size="10.00">TInterface::ChangeDirection</text>
<text text-anchor="middle" x="74.5" y="-575.5" font-family="Helvetica,sans-Serif" font-size="10.00">MenuItemClick</text>
</a>
</g>
</g>
<!-- Node6&#45;&gt;Node26 -->
<g id="edge24" class="edge">
<title>Node6&#45;&gt;Node26</title>
<path fill="none" stroke="midnightblue" d="M250.3,-1038.08C237.6,-994.44 206.4,-885.14 185,-792.5 166.15,-710.88 204.46,-670.27 149,-607.5 145.98,-604.08 142.46,-601.14 138.64,-598.63"/>
<polygon fill="midnightblue" stroke="midnightblue" points="247.01,-1039.32 253.18,-1047.93 253.73,-1037.35 247.01,-1039.32"/>
</g>
<!-- Node27 -->
<g id="node26" class="node">
<title>Node27</title>
<g id="a_node26"><a xlink:href="class_t_interface.html#a928eba983ac5132e1ae7799f8330451e" target="_top" xlink:title=" ">
<polygon fill="white" stroke="black" points="13.5,-519.5 13.5,-549.5 135.5,-549.5 135.5,-519.5 13.5,-519.5"/>
<text text-anchor="start" x="21.5" y="-537.5" font-family="Helvetica,sans-Serif" font-size="10.00">TInterface::ClearAllMenu</text>
<text text-anchor="middle" x="74.5" y="-526.5" font-family="Helvetica,sans-Serif" font-size="10.00">ItemClick</text>
</a>
</g>
</g>
<!-- Node6&#45;&gt;Node27 -->
<g id="edge25" class="edge">
<title>Node6&#45;&gt;Node27</title>
<path fill="none" stroke="midnightblue" d="M250.03,-1038.14C236.79,-994.62 204.56,-885.55 185,-792.5 163.35,-689.53 217.1,-638.71 149,-558.5 145.26,-554.1 140.71,-550.5 135.72,-547.56"/>
<polygon fill="midnightblue" stroke="midnightblue" points="246.77,-1039.43 253.04,-1047.97 253.46,-1037.38 246.77,-1039.43"/>
</g>
<!-- Node28 -->
<g id="node27" class="node">
<title>Node28</title>
<g id="a_node27"><a xlink:href="class_t_interface.html#a6139ffb52492eb89e5487a8a3cd647b5" target="_top" xlink:title="The main loop, called every clock tick via MasterClockTimer.">
<polygon fill="white" stroke="red" points="15,-50 15,-69 134,-69 134,-50 15,-50"/>
<text text-anchor="middle" x="74.5" y="-57" font-family="Helvetica,sans-Serif" font-size="10.00">TInterface::ClockTimer2</text>
</a>
</g>
</g>
<!-- Node6&#45;&gt;Node28 -->
<g id="edge26" class="edge">
<title>Node6&#45;&gt;Node28</title>
<path fill="none" stroke="midnightblue" d="M249.23,-1037.95C234.51,-994.46 199.74,-886.19 185,-792.5 172.65,-714.03 199.2,-140.06 149,-78.5 145,-73.6 139.92,-69.86 134.3,-67.04"/>
<polygon fill="midnightblue" stroke="midnightblue" points="245.97,-1039.23 252.51,-1047.56 252.59,-1036.96 245.97,-1039.23"/>
</g>
<!-- Node30 -->
<g id="node28" class="node">
<title>Node30</title>
<g id="a_node28"><a xlink:href="class_t_interface.html#a77b4d0c5298ea6b8968af152fd8b7b8b" target="_top" xlink:title=" ">
<polygon fill="white" stroke="black" points="7.5,-470.5 7.5,-500.5 141.5,-500.5 141.5,-470.5 7.5,-470.5"/>
<text text-anchor="start" x="15.5" y="-488.5" font-family="Helvetica,sans-Serif" font-size="10.00">TInterface::ConflictAnalysis</text>
<text text-anchor="middle" x="74.5" y="-477.5" font-family="Helvetica,sans-Serif" font-size="10.00">ButtonClick</text>
</a>
</g>
</g>
<!-- Node6&#45;&gt;Node30 -->
<g id="edge27" class="edge">
<title>Node6&#45;&gt;Node30</title>
<path fill="none" stroke="midnightblue" d="M249.86,-1038.18C236.25,-994.72 203.34,-885.79 185,-792.5 172.77,-730.3 189.4,-558.36 149,-509.5 146.18,-506.09 142.86,-503.15 139.23,-500.63"/>
<polygon fill="midnightblue" stroke="midnightblue" points="246.6,-1039.5 252.95,-1047.98 253.28,-1037.39 246.6,-1039.5"/>
</g>
<!-- Node31 -->
<g id="node29" class="node">
<title>Node31</title>
<g id="a_node29"><a xlink:href="class_t_interface.html#a7aca81081a7983f1389c923e95c7afee" target="_top" xlink:title=" ">
<polygon fill="white" stroke="black" points="6.5,-421.5 6.5,-451.5 142.5,-451.5 142.5,-421.5 6.5,-421.5"/>
<text text-anchor="start" x="14.5" y="-439.5" font-family="Helvetica,sans-Serif" font-size="10.00">TInterface::ConvertToOther</text>
<text text-anchor="middle" x="74.5" y="-428.5" font-family="Helvetica,sans-Serif" font-size="10.00">HandSignalsMenuItemClick</text>
</a>
</g>
</g>
<!-- Node6&#45;&gt;Node31 -->
<g id="edge28" class="edge">
<title>Node6&#45;&gt;Node31</title>
<path fill="none" stroke="midnightblue" d="M249.73,-1038.2C235.87,-994.8 202.48,-885.96 185,-792.5 171.36,-719.55 195.75,-518.13 149,-460.5 146.21,-457.06 142.92,-454.11 139.3,-451.58"/>
<polygon fill="midnightblue" stroke="midnightblue" points="246.49,-1039.55 252.88,-1048 253.15,-1037.41 246.49,-1039.55"/>
</g>
<!-- Node32 -->
<g id="node30" class="node">
<title>Node32</title>
<g id="a_node30"><a xlink:href="class_t_interface.html#a424a7eb780461c1acb396feb21f52062" target="_top" xlink:title=" ">
<polygon fill="white" stroke="black" points="9.5,-372.5 9.5,-402.5 139.5,-402.5 139.5,-372.5 9.5,-372.5"/>
<text text-anchor="start" x="17.5" y="-390.5" font-family="Helvetica,sans-Serif" font-size="10.00">TInterface::CopyMenuItem</text>
<text text-anchor="middle" x="74.5" y="-379.5" font-family="Helvetica,sans-Serif" font-size="10.00">Click</text>
</a>
</g>
</g>
<!-- Node6&#45;&gt;Node32 -->
<g id="edge29" class="edge">
<title>Node6&#45;&gt;Node32</title>
<path fill="none" stroke="midnightblue" d="M249.53,-1037.89C235.42,-994.31 201.79,-885.84 185,-792.5 169.94,-708.8 202.12,-477.91 149,-411.5 146.23,-408.04 142.96,-405.07 139.35,-402.53"/>
<polygon fill="midnightblue" stroke="midnightblue" points="246.25,-1039.11 252.68,-1047.53 252.9,-1036.94 246.25,-1039.11"/>
</g>
<!-- Node33 -->
<g id="node31" class="node">
<title>Node33</title>
<g id="a_node31"><a xlink:href="class_t_interface.html#adc0dd871fdd70ff11ada7a0ddd549e8e" target="_top" xlink:title=" ">
<polygon fill="white" stroke="black" points="0,-323.5 0,-353.5 149,-353.5 149,-323.5 0,-323.5"/>
<text text-anchor="start" x="8" y="-341.5" font-family="Helvetica,sans-Serif" font-size="10.00">TInterface::CopyTTEntryButton</text>
<text text-anchor="middle" x="74.5" y="-330.5" font-family="Helvetica,sans-Serif" font-size="10.00">Click</text>
</a>
</g>
</g>
<!-- Node6&#45;&gt;Node33 -->
<g id="edge30" class="edge">
<title>Node6&#45;&gt;Node33</title>
<path fill="none" stroke="midnightblue" d="M249.46,-1037.91C235.2,-994.35 201.29,-885.93 185,-792.5 168.53,-698.04 208.5,-437.7 149,-362.5 146.33,-359.13 143.19,-356.23 139.72,-353.73"/>
<polygon fill="midnightblue" stroke="midnightblue" points="246.18,-1039.14 252.64,-1047.54 252.82,-1036.94 246.18,-1039.14"/>
</g>
<!-- Node34 -->
<g id="node32" class="node">
<title>Node34</title>
<g id="a_node32"><a xlink:href="class_t_interface.html#a117ba58c37a617edeeb033fcdff841e9" target="_top" xlink:title=" ">
<polygon fill="white" stroke="black" points="6,-274.5 6,-304.5 143,-304.5 143,-274.5 6,-274.5"/>
<text text-anchor="start" x="14" y="-292.5" font-family="Helvetica,sans-Serif" font-size="10.00">TInterface::CPCancelButton</text>
<text text-anchor="middle" x="74.5" y="-281.5" font-family="Helvetica,sans-Serif" font-size="10.00">Click</text>
</a>
</g>
</g>
<!-- Node6&#45;&gt;Node34 -->
<g id="edge31" class="edge">
<title>Node6&#45;&gt;Node34</title>
<path fill="none" stroke="midnightblue" d="M249.4,-1037.92C235.02,-994.38 200.9,-886 185,-792.5 176.05,-739.88 181.94,-355.5 149,-313.5 146.35,-310.12 143.21,-307.21 139.75,-304.71"/>
<polygon fill="midnightblue" stroke="midnightblue" points="246.12,-1039.16 252.6,-1047.54 252.76,-1036.95 246.12,-1039.16"/>
</g>
<!-- Node35 -->
<g id="node33" class="node">
<title>Node35</title>
<g id="a_node33"><a xlink:href="class_t_interface.html#a6379037c7970acda71188947cb3ba6b2" target="_top" xlink:title=" ">
<polygon fill="white" stroke="black" points="4.5,-225.5 4.5,-255.5 144.5,-255.5 144.5,-225.5 4.5,-225.5"/>
<text text-anchor="start" x="12.5" y="-243.5" font-family="Helvetica,sans-Serif" font-size="10.00">TInterface::CPGenFileButton</text>
<text text-anchor="middle" x="74.5" y="-232.5" font-family="Helvetica,sans-Serif" font-size="10.00">Click</text>
</a>
</g>
</g>
<!-- Node6&#45;&gt;Node35 -->
<g id="edge32" class="edge">
<title>Node6&#45;&gt;Node35</title>
<path fill="none" stroke="midnightblue" d="M249.35,-1037.93C234.88,-994.4 200.57,-886.06 185,-792.5 175.35,-734.5 185.13,-310.9 149,-264.5 146.36,-261.11 143.23,-258.19 139.78,-255.68"/>
<polygon fill="midnightblue" stroke="midnightblue" points="246.08,-1039.18 252.58,-1047.55 252.71,-1036.95 246.08,-1039.18"/>
</g>
<!-- Node36 -->
<g id="node34" class="node">
<title>Node36</title>
<g id="a_node34"><a xlink:href="class_t_interface.html#a1c8fab7fa2f1be662f2d7418e95e3a63" target="_top" xlink:title=" ">
<polygon fill="white" stroke="black" points="7,-176.5 7,-206.5 142,-206.5 142,-176.5 7,-176.5"/>
<text text-anchor="start" x="15" y="-194.5" font-family="Helvetica,sans-Serif" font-size="10.00">TInterface::CreateTimetable</text>
<text text-anchor="middle" x="74.5" y="-183.5" font-family="Helvetica,sans-Serif" font-size="10.00">MenuItemClick</text>
</a>
</g>
</g>
<!-- Node6&#45;&gt;Node36 -->
<g id="edge33" class="edge">
<title>Node6&#45;&gt;Node36</title>
<path fill="none" stroke="midnightblue" d="M249.31,-1037.93C234.76,-994.42 200.3,-886.1 185,-792.5 174.64,-729.11 188.32,-266.3 149,-215.5 146.37,-212.1 143.25,-209.18 139.8,-206.67"/>
<polygon fill="midnightblue" stroke="midnightblue" points="246.04,-1039.19 252.56,-1047.55 252.67,-1036.95 246.04,-1039.19"/>
</g>
<!-- Node37 -->
<g id="node35" class="node">
<title>Node37</title>
<g id="a_node35"><a xlink:href="class_t_interface.html#ae6e977c9dfdfbde9924ceefd19d7d0d3" target="_top" xlink:title=" ">
<polygon fill="white" stroke="black" points="2.5,-138 2.5,-157 146.5,-157 146.5,-138 2.5,-138"/>
<text text-anchor="middle" x="74.5" y="-145" font-family="Helvetica,sans-Serif" font-size="10.00">TInterface::CutMenuItemClick</text>
</a>
</g>
</g>
<!-- Node6&#45;&gt;Node37 -->
<g id="edge34" class="edge">
<title>Node6&#45;&gt;Node37</title>
<path fill="none" stroke="midnightblue" d="M249.28,-1037.94C234.65,-994.44 200.07,-886.14 185,-792.5 173.93,-723.72 193.22,-220.34 149,-166.5 145.9,-162.73 142.17,-159.66 138.04,-157.15"/>
<polygon fill="midnightblue" stroke="midnightblue" points="246.01,-1039.21 252.54,-1047.55 252.64,-1036.96 246.01,-1039.21"/>
</g>
<!-- Node38 -->
<g id="node36" class="node">
<title>Node38</title>
<g id="a_node36"><a xlink:href="class_t_interface.html#acd41ae8fa5d16248a867472d9c8ae646" target="_top" xlink:title=" ">
<polygon fill="white" stroke="black" points="3.5,-88.5 3.5,-118.5 145.5,-118.5 145.5,-88.5 3.5,-88.5"/>
<text text-anchor="start" x="11.5" y="-106.5" font-family="Helvetica,sans-Serif" font-size="10.00">TInterface::CutTTEntryButton</text>
<text text-anchor="middle" x="74.5" y="-95.5" font-family="Helvetica,sans-Serif" font-size="10.00">Click</text>
</a>
</g>
</g>
<!-- Node6&#45;&gt;Node38 -->
<g id="edge35" class="edge">
<title>Node6&#45;&gt;Node38</title>
<path fill="none" stroke="midnightblue" d="M249.25,-1037.94C234.59,-994.45 199.92,-886.16 185,-792.5 173.38,-719.53 193.63,-187.38 149,-128.5 146.07,-124.63 142.51,-121.36 138.55,-118.59"/>
<polygon fill="midnightblue" stroke="midnightblue" points="245.99,-1039.22 252.53,-1047.55 252.62,-1036.96 245.99,-1039.22"/>
</g>
<!-- Node39 -->
<g id="node37" class="node">
<title>Node39</title>
<g id="a_node37"><a xlink:href="class_t_interface.html#af9cb95043f5276df55cb6809e104c93a" target="_top" xlink:title=" ">
<polygon fill="white" stroke="black" points="14,-1997.5 14,-2027.5 135,-2027.5 135,-1997.5 14,-1997.5"/>
<text text-anchor="start" x="22" y="-2015.5" font-family="Helvetica,sans-Serif" font-size="10.00">TInterface::DeleteAllPref</text>
<text text-anchor="middle" x="74.5" y="-2004.5" font-family="Helvetica,sans-Serif" font-size="10.00">DirButtonClick</text>
</a>
</g>
</g>
<!-- Node6&#45;&gt;Node39 -->
<g id="edge36" class="edge">
<title>Node6&#45;&gt;Node39</title>
<path fill="none" stroke="midnightblue" d="M254.99,-1077.35C248.32,-1205.7 208.88,-1915.18 149,-1988.5 145.18,-1993.18 140.43,-1996.95 135.2,-2000"/>
<polygon fill="midnightblue" stroke="midnightblue" points="258.5,-1077.24 255.52,-1067.07 251.51,-1076.88 258.5,-1077.24"/>
</g>
<!-- Node40 -->
<g id="node38" class="node">
<title>Node40</title>
<g id="a_node38"><a xlink:href="class_t_interface.html#aff2c1cd6ed2d45fdcf6392a85a6d9415" target="_top" xlink:title=" ">
<polygon fill="white" stroke="black" points="7,-1948.5 7,-1978.5 142,-1978.5 142,-1948.5 7,-1948.5"/>
<text text-anchor="start" x="15" y="-1966.5" font-family="Helvetica,sans-Serif" font-size="10.00">TInterface::DeleteMenuItem</text>
<text text-anchor="middle" x="74.5" y="-1955.5" font-family="Helvetica,sans-Serif" font-size="10.00">Click</text>
</a>
</g>
</g>
<!-- Node6&#45;&gt;Node40 -->
<g id="edge37" class="edge">
<title>Node6&#45;&gt;Node40</title>
<path fill="none" stroke="midnightblue" d="M256.37,-1077.07C258.21,-1194.18 262.15,-1801.83 149,-1939.5 146.19,-1942.92 142.88,-1945.86 139.25,-1948.38"/>
<polygon fill="midnightblue" stroke="midnightblue" points="259.87,-1076.97 256.2,-1067.04 252.87,-1077.1 259.87,-1076.97"/>
</g>
<!-- Node41 -->
<g id="node39" class="node">
<title>Node41</title>
<g id="a_node39"><a xlink:href="class_t_interface.html#a3136530959237eaa57486f4f48357855" target="_top" xlink:title=" ">
<polygon fill="white" stroke="black" points="10.5,-1899.5 10.5,-1929.5 138.5,-1929.5 138.5,-1899.5 10.5,-1899.5"/>
<text text-anchor="start" x="18.5" y="-1917.5" font-family="Helvetica,sans-Serif" font-size="10.00">TInterface::DeleteOnePref</text>
<text text-anchor="middle" x="74.5" y="-1906.5" font-family="Helvetica,sans-Serif" font-size="10.00">DirButtonClick</text>
</a>
</g>
</g>
<!-- Node6&#45;&gt;Node41 -->
<g id="edge38" class="edge">
<title>Node6&#45;&gt;Node41</title>
<path fill="none" stroke="midnightblue" d="M256.22,-1077.03C257.09,-1190.19 256.08,-1761.15 149,-1890.5 146,-1894.12 142.45,-1897.2 138.56,-1899.81"/>
<polygon fill="midnightblue" stroke="midnightblue" points="259.72,-1077 256.13,-1067.03 252.72,-1077.06 259.72,-1077"/>
</g>
<!-- Node42 -->
<g id="node40" class="node">
<title>Node42</title>
<g id="a_node40"><a xlink:href="class_t_interface.html#abdd4a70649a10a29c9a069d040072808" target="_top" xlink:title=" ">
<polygon fill="white" stroke="black" points="11.5,-1850.5 11.5,-1880.5 137.5,-1880.5 137.5,-1850.5 11.5,-1850.5"/>
<text text-anchor="start" x="19.5" y="-1868.5" font-family="Helvetica,sans-Serif" font-size="10.00">TInterface::DeleteTTEntry</text>
<text text-anchor="middle" x="74.5" y="-1857.5" font-family="Helvetica,sans-Serif" font-size="10.00">ButtonClick</text>
</a>
</g>
</g>
<!-- Node6&#45;&gt;Node42 -->
<g id="edge39" class="edge">
<title>Node6&#45;&gt;Node42</title>
<path fill="none" stroke="midnightblue" d="M256.02,-1077.53C255.71,-1187.69 248.99,-1719.2 149,-1840.5 145.74,-1844.45 141.83,-1847.78 137.54,-1850.59"/>
<polygon fill="midnightblue" stroke="midnightblue" points="259.52,-1077.21 256.03,-1067.21 252.52,-1077.2 259.52,-1077.21"/>
</g>
<!-- Node43 -->
<g id="node41" class="node">
<title>Node43</title>
<g id="a_node41"><a xlink:href="class_t_interface.html#ac53c02024590fc44371ed3b7efc3ddde" target="_top" xlink:title=" ">
<polygon fill="white" stroke="black" points="10.5,-1812 10.5,-1831 138.5,-1831 138.5,-1812 10.5,-1812"/>
<text text-anchor="middle" x="74.5" y="-1819" font-family="Helvetica,sans-Serif" font-size="10.00">TInterface::EditMenuClick</text>
</a>
</g>
</g>
<!-- Node6&#45;&gt;Node43 -->
<g id="edge40" class="edge">
<title>Node6&#45;&gt;Node43</title>
<path fill="none" stroke="midnightblue" d="M256.01,-1077.36C255.65,-1184.32 248.66,-1691.2 149,-1802.5 145.57,-1806.33 141.48,-1809.43 137.01,-1811.94"/>
<polygon fill="midnightblue" stroke="midnightblue" points="259.51,-1077.3 256.03,-1067.3 252.51,-1077.29 259.51,-1077.3"/>
</g>
<!-- Node44 -->
<g id="node42" class="node">
<title>Node44</title>
<g id="a_node42"><a xlink:href="class_t_interface.html#a0cf35a6e4a6cfa72b63222acb51f9f74" target="_top" xlink:title=" ">
<polygon fill="white" stroke="black" points="12.5,-1762.5 12.5,-1792.5 136.5,-1792.5 136.5,-1762.5 12.5,-1762.5"/>
<text text-anchor="start" x="20.5" y="-1780.5" font-family="Helvetica,sans-Serif" font-size="10.00">TInterface::EditTimetable</text>
<text text-anchor="middle" x="74.5" y="-1769.5" font-family="Helvetica,sans-Serif" font-size="10.00">MenuItemClick</text>
</a>
</g>
</g>
<!-- Node6&#45;&gt;Node44 -->
<g id="edge41" class="edge">
<title>Node6&#45;&gt;Node44</title>
<path fill="none" stroke="midnightblue" d="M255.67,-1077.21C253.57,-1179.32 239.09,-1647.38 149,-1753.5 145.53,-1757.59 141.34,-1760.99 136.76,-1763.82"/>
<polygon fill="midnightblue" stroke="midnightblue" points="259.17,-1077.15 255.86,-1067.08 252.17,-1077.01 259.17,-1077.15"/>
</g>
<!-- Node45 -->
<g id="node43" class="node">
<title>Node45</title>
<g id="a_node43"><a xlink:href="class_t_interface.html#a9cfdb7521877f2c7ab124d0e4f47a0f6" target="_top" xlink:title=" ">
<polygon fill="white" stroke="black" points="12,-1713.5 12,-1743.5 137,-1743.5 137,-1713.5 12,-1713.5"/>
<text text-anchor="start" x="20" y="-1731.5" font-family="Helvetica,sans-Serif" font-size="10.00">TInterface::ExitMenuItem</text>
<text text-anchor="middle" x="74.5" y="-1720.5" font-family="Helvetica,sans-Serif" font-size="10.00">Click</text>
</a>
</g>
</g>
<!-- Node6&#45;&gt;Node45 -->
<g id="edge42" class="edge">
<title>Node6&#45;&gt;Node45</title>
<path fill="none" stroke="midnightblue" d="M255.41,-1077.36C252.13,-1175.36 233.01,-1606.67 149,-1704.5 145.59,-1708.47 141.51,-1711.79 137.05,-1714.56"/>
<polygon fill="midnightblue" stroke="midnightblue" points="258.91,-1077.43 255.73,-1067.33 251.92,-1077.21 258.91,-1077.43"/>
</g>
<!-- Node46 -->
<g id="node44" class="node">
<title>Node46</title>
<g id="a_node44"><a xlink:href="class_t_interface.html#a3e59d6f1f39ffe34a9d6e7bf930acbff" target="_top" xlink:title=" ">
<polygon fill="white" stroke="black" points="12.5,-1664.5 12.5,-1694.5 136.5,-1694.5 136.5,-1664.5 12.5,-1664.5"/>
<text text-anchor="start" x="20.5" y="-1682.5" font-family="Helvetica,sans-Serif" font-size="10.00">TInterface::ExitOperation</text>
<text text-anchor="middle" x="74.5" y="-1671.5" font-family="Helvetica,sans-Serif" font-size="10.00">ButtonClick</text>
</a>
</g>
</g>
<!-- Node6&#45;&gt;Node46 -->
<g id="edge43" class="edge">
<title>Node6&#45;&gt;Node46</title>
<path fill="none" stroke="midnightblue" d="M255.12,-1077.29C250.59,-1170.62 227.02,-1565.85 149,-1655.5 145.48,-1659.55 141.26,-1662.92 136.65,-1665.73"/>
<polygon fill="midnightblue" stroke="midnightblue" points="258.63,-1077.18 255.6,-1067.02 251.64,-1076.85 258.63,-1077.18"/>
</g>
<!-- Node47 -->
<g id="node45" class="node">
<title>Node47</title>
<g id="a_node45"><a xlink:href="class_t_interface.html#ab2a25d27dcbae558b8f9a4ac62937523" target="_top" xlink:title=" ">
<polygon fill="white" stroke="black" points="4.5,-1615.5 4.5,-1645.5 144.5,-1645.5 144.5,-1615.5 4.5,-1615.5"/>
<text text-anchor="start" x="12.5" y="-1633.5" font-family="Helvetica,sans-Serif" font-size="10.00">TInterface::ExitPrefDirButton</text>
<text text-anchor="middle" x="74.5" y="-1622.5" font-family="Helvetica,sans-Serif" font-size="10.00">Click</text>
</a>
</g>
</g>
<!-- Node6&#45;&gt;Node47 -->
<g id="edge44" class="edge">
<title>Node6&#45;&gt;Node47</title>
<path fill="none" stroke="midnightblue" d="M254.79,-1077.06C248.97,-1165.24 221.08,-1524.95 149,-1606.5 145.98,-1609.92 142.46,-1612.85 138.64,-1615.37"/>
<polygon fill="midnightblue" stroke="midnightblue" points="258.29,-1077.28 255.43,-1067.08 251.3,-1076.84 258.29,-1077.28"/>
</g>
<!-- Node48 -->
<g id="node46" class="node">
<title>Node48</title>
<g id="a_node46"><a xlink:href="class_t_interface.html#ad0fa9f32b059b346e066ab23d62a4bfc" target="_top" xlink:title=" ">
<polygon fill="white" stroke="black" points="7.5,-1566.5 7.5,-1596.5 141.5,-1596.5 141.5,-1566.5 7.5,-1566.5"/>
<text text-anchor="start" x="15.5" y="-1584.5" font-family="Helvetica,sans-Serif" font-size="10.00">TInterface::ExitTrackButton</text>
<text text-anchor="middle" x="74.5" y="-1573.5" font-family="Helvetica,sans-Serif" font-size="10.00">Click</text>
</a>
</g>
</g>
<!-- Node6&#45;&gt;Node48 -->
<g id="edge45" class="edge">
<title>Node6&#45;&gt;Node48</title>
<path fill="none" stroke="midnightblue" d="M254.38,-1077.14C247.13,-1160.49 215.09,-1484.1 149,-1557.5 145.95,-1560.89 142.41,-1563.81 138.57,-1566.31"/>
<polygon fill="midnightblue" stroke="midnightblue" points="257.88,-1077.28 255.24,-1067.02 250.91,-1076.69 257.88,-1077.28"/>
</g>
<!-- Node49 -->
<g id="node47" class="node">
<title>Node49</title>
<g id="a_node47"><a xlink:href="class_t_interface.html#aa78089df3d8323be6fde98c0ee48424c" target="_top" xlink:title=" ">
<polygon fill="white" stroke="black" points="2,-1517.5 2,-1547.5 147,-1547.5 147,-1517.5 2,-1517.5"/>
<text text-anchor="start" x="10" y="-1535.5" font-family="Helvetica,sans-Serif" font-size="10.00">TInterface::ExitTTModeButton</text>
<text text-anchor="middle" x="74.5" y="-1524.5" font-family="Helvetica,sans-Serif" font-size="10.00">Click</text>
</a>
</g>
</g>
<!-- Node6&#45;&gt;Node49 -->
<g id="edge46" class="edge">
<title>Node6&#45;&gt;Node49</title>
<path fill="none" stroke="midnightblue" d="M253.88,-1077.19C245.1,-1155.42 209.13,-1443.18 149,-1508.5 145.82,-1511.96 142.13,-1514.92 138.14,-1517.45"/>
<polygon fill="midnightblue" stroke="midnightblue" points="257.36,-1077.54 254.98,-1067.22 250.41,-1076.77 257.36,-1077.54"/>
</g>
<!-- Node50 -->
<g id="node48" class="node">
<title>Node50</title>
<g id="a_node48"><a xlink:href="class_t_interface.html#ab7c52bd31930036c95b9b71c2f1f0426" target="_top" xlink:title=" ">
<polygon fill="white" stroke="black" points="8.5,-1468.5 8.5,-1498.5 140.5,-1498.5 140.5,-1468.5 8.5,-1468.5"/>
<text text-anchor="start" x="16.5" y="-1486.5" font-family="Helvetica,sans-Serif" font-size="10.00">TInterface::ExportTTButton</text>
<text text-anchor="middle" x="74.5" y="-1475.5" font-family="Helvetica,sans-Serif" font-size="10.00">Click</text>
</a>
</g>
</g>
<!-- Node6&#45;&gt;Node50 -->
<g id="edge47" class="edge">
<title>Node6&#45;&gt;Node50</title>
<path fill="none" stroke="midnightblue" d="M253.25,-1077.34C242.77,-1150.27 203.18,-1402.23 149,-1459.5 145.77,-1462.91 142.05,-1465.84 138.04,-1468.35"/>
<polygon fill="midnightblue" stroke="midnightblue" points="256.74,-1077.62 254.68,-1067.23 249.81,-1076.64 256.74,-1077.62"/>
</g>
<!-- Node6&#45;&gt;Node135 -->
<g id="edge50" class="edge">
<title>Node6&#45;&gt;Node135</title>
<path fill="none" stroke="midnightblue" d="M254.23,-1037.89C241.61,-898.36 165.25,-60.85 149,-40.5 145.89,-36.6 142.14,-33.31 138.01,-30.53"/>
<polygon fill="midnightblue" stroke="midnightblue" points="250.76,-1038.32 255.14,-1047.97 257.73,-1037.69 250.76,-1038.32"/>
</g>
<!-- Node198&#45;&gt;Node28 -->
<g id="edge54" class="edge">
<title>Node198&#45;&gt;Node28</title>
<path fill="none" stroke="midnightblue" d="M417.87,-1000.36C386.56,-915.78 259.56,-566.65 185,-271.5 163.63,-186.9 208.55,-142.28 149,-78.5 144.77,-73.97 139.62,-70.47 134.02,-67.76"/>
<polygon fill="midnightblue" stroke="midnightblue" points="414.66,-1001.78 421.42,-1009.93 421.22,-999.34 414.66,-1001.78"/>
</g>
</g>
</svg>
