<?xml version="1.0" encoding="UTF-8" standalone="no"?>
<!DOCTYPE svg PUBLIC "-//W3C//DTD SVG 1.1//EN"
 "http://www.w3.org/Graphics/SVG/1.1/DTD/svg11.dtd">
<!-- Generated by graphviz version 2.44.1 (20200629.0800)
 -->
<!-- Title: TTrack::SetStationEntryStopLinkPosses Pages: 1 -->
<!--zoomable 208 -->
<svg id="main" version="1.1" xmlns="http://www.w3.org/2000/svg" xmlns:xlink="http://www.w3.org/1999/xlink" xml:space="preserve" onload="init(evt)">
<style type="text/css"><![CDATA[
.edge:hover path { stroke: red; }
.edge:hover polygon { stroke: red; fill: red; }
]]></style>
<script type="text/javascript"><![CDATA[
var edges = document.getElementsByTagName('g');
if (edges && edges.length) {
  for (var i=0;i<edges.length;i++) {
    if (edges[i].id.substr(0,4)=='edge') {
      edges[i].setAttribute('class','edge');
    }
  }
}
]]></script>
        <defs>
                <circle id="rim" cx="0" cy="0" r="7"/>
                <circle id="rim2" cx="0" cy="0" r="3.5"/>
                <g id="zoomPlus">
                        <use xlink:href="#rim" fill="#404040">
                                <set attributeName="fill" to="#808080" begin="zoomplus.mouseover" end="zoomplus.mouseout"/>
                        </use>
                        <path d="M-4,0h8M0,-4v8" fill="none" stroke="white" stroke-width="1.5" pointer-events="none"/>
                </g>
                <g id="zoomMin">
                        <use xlink:href="#rim" fill="#404040">
                                <set attributeName="fill" to="#808080" begin="zoomminus.mouseover" end="zoomminus.mouseout"/>
                        </use>
                        <path d="M-4,0h8" fill="none" stroke="white" stroke-width="1.5" pointer-events="none"/>
                </g>
                <g id="dirArrow">
                        <path fill="none" stroke="white" stroke-width="1.5" d="M0,-3.0v7 M-2.5,-0.5L0,-3.0L2.5,-0.5"/>
                </g>
               <g id="resetDef">
                       <use xlink:href="#rim2" fill="#404040">
                               <set attributeName="fill" to="#808080" begin="reset.mouseover" end="reset.mouseout"/>
                       </use>
               </g>
        </defs>

<script type="text/javascript">
var viewWidth = 659;
var viewHeight = 208;
var sectionId = 'dynsection-267';
</script>
<script xlink:href="svgpan.js"/>
<svg id="graph" class="graph">
<g id="viewport">
<title>TTrack::SetStationEntryStopLinkPosses</title>
<polygon fill="white" stroke="transparent" points="-4,4 -4,-203.77 655,-203.77 655,4 -4,4"/>
<!-- Node1 -->
<g id="node1" class="node">
<title>Node1</title>
<g id="a_node1"><a xlink:title="Called when trying to link track and when a name changed when track already linked.">
<polygon fill="#bfbfbf" stroke="black" points="0,-110.18 0,-140.18 141,-140.18 141,-110.18 0,-110.18"/>
<text text-anchor="start" x="8" y="-128.18" font-family="Helvetica,sans-Serif" font-size="10.00">TTrack::SetStationEntryStop</text>
<text text-anchor="middle" x="70.5" y="-117.18" font-family="Helvetica,sans-Serif" font-size="10.00">LinkPosses</text>
</a>
</g>
</g>
<!-- Node2 -->
<g id="node2" class="node">
<title>Node2</title>
<g id="a_node2"><a xlink:href="class_t_utilities.html#ae1eddca13cc3c492839e131f40ec21c0" target="_top" xlink:title="&lt; specifies whether no delays or minor, moderate or major random delays are to be applied">
<polygon fill="white" stroke="black" points="541,-118.68 541,-137.68 651,-137.68 651,-118.68 541,-118.68"/>
<text text-anchor="middle" x="596" y="-125.68" font-family="Helvetica,sans-Serif" font-size="10.00">TUtilities::CallLogPop</text>
</a>
</g>
</g>
<!-- Node1&#45;&gt;Node2 -->
<g id="edge1" class="edge">
<title>Node1&#45;&gt;Node2</title>
<path fill="none" stroke="midnightblue" d="M107.92,-140.25C183.39,-169.31 361.79,-226.72 505,-185.18 532.23,-177.29 559.12,-158.41 576.31,-144.54"/>
<polygon fill="midnightblue" stroke="midnightblue" points="578.93,-146.91 584.37,-137.82 574.44,-141.53 578.93,-146.91"/>
</g>
<!-- Node3 -->
<g id="node3" class="node">
<title>Node3</title>
<g id="a_node3"><a xlink:href="class_t_track.html#a7867a4b41fbc25f35eccab0b03cab9ed" target="_top" xlink:title="True if a non&#45;station named location at HLoc &amp; VLoc.">
<polygon fill="white" stroke="black" points="177,-69.18 177,-99.18 315,-99.18 315,-69.18 177,-69.18"/>
<text text-anchor="start" x="185" y="-87.18" font-family="Helvetica,sans-Serif" font-size="10.00">TTrack::IsNamedNonStation</text>
<text text-anchor="middle" x="246" y="-76.18" font-family="Helvetica,sans-Serif" font-size="10.00">LocationPresent</text>
</a>
</g>
</g>
<!-- Node1&#45;&gt;Node3 -->
<g id="edge2" class="edge">
<title>Node1&#45;&gt;Node3</title>
<path fill="none" stroke="midnightblue" d="M135.12,-110.15C146.91,-107.37 159.31,-104.43 171.36,-101.59"/>
<polygon fill="midnightblue" stroke="midnightblue" points="172.46,-104.92 181.39,-99.22 170.85,-98.11 172.46,-104.92"/>
</g>
<!-- Node5 -->
<g id="node5" class="node">
<title>Node5</title>
<g id="a_node5"><a xlink:href="class_t_utilities.html#a34bd6bb5305bc29afdf424f6d35a921c" target="_top" xlink:title="creates a string of the form &#39;hh:mm:ss&#39; for use in call &amp; event logging">
<polygon fill="white" stroke="black" points="541,-30.68 541,-49.68 651,-49.68 651,-30.68 541,-30.68"/>
<text text-anchor="middle" x="596" y="-37.68" font-family="Helvetica,sans-Serif" font-size="10.00">TUtilities::TimeStamp</text>
</a>
</g>
</g>
<!-- Node1&#45;&gt;Node5 -->
<g id="edge11" class="edge">
<title>Node1&#45;&gt;Node5</title>
<path fill="none" stroke="midnightblue" d="M92.41,-110.01C113.06,-95.59 145.98,-74.08 177,-60.18 250.66,-27.18 271.14,-19.86 351,-8.18 418.72,1.72 437.55,3.45 505,-8.18 525.63,-11.74 547.79,-19.57 564.97,-26.6"/>
<polygon fill="midnightblue" stroke="midnightblue" points="563.88,-29.93 574.45,-30.6 566.6,-23.49 563.88,-29.93"/>
</g>
<!-- Node7 -->
<g id="node7" class="node">
<title>Node7</title>
<g id="a_node7"><a xlink:href="class_t_track.html#ad377e5a1f152f2e89832c0f9bcfd261f" target="_top" xlink:title="A range&#45;checked version of TrackVector.at(At)">
<polygon fill="white" stroke="black" points="367,-156.68 367,-175.68 489,-175.68 489,-156.68 367,-156.68"/>
<text text-anchor="middle" x="428" y="-163.68" font-family="Helvetica,sans-Serif" font-size="10.00">TTrack::TrackElementAt</text>
</a>
</g>
</g>
<!-- Node1&#45;&gt;Node7 -->
<g id="edge12" class="edge">
<title>Node1&#45;&gt;Node7</title>
<path fill="none" stroke="midnightblue" d="M141.31,-133.24C203.56,-140.42 294.24,-150.87 356.66,-158.07"/>
<polygon fill="midnightblue" stroke="midnightblue" points="356.47,-161.57 366.81,-159.24 357.28,-154.62 356.47,-161.57"/>
</g>
<!-- Node3&#45;&gt;Node2 -->
<g id="edge3" class="edge">
<title>Node3&#45;&gt;Node2</title>
<path fill="none" stroke="midnightblue" d="M302.27,-99.19C317.92,-102.97 335.04,-106.66 351,-109.18 411.53,-118.76 481.32,-123.57 530.71,-125.96"/>
<polygon fill="midnightblue" stroke="midnightblue" points="530.77,-129.46 540.92,-126.43 531.1,-122.47 530.77,-129.46"/>
</g>
<!-- Node4 -->
<g id="node4" class="node">
<title>Node4</title>
<g id="a_node4"><a xlink:href="class_t_track.html#a418966e6fefb71b9d0c9b941197832da" target="_top" xlink:title="Similar to GetVectorPositionFromTrackMap but for inactive elements, a pair is returned because there ...">
<polygon fill="white" stroke="black" points="359.5,-69.18 359.5,-99.18 496.5,-99.18 496.5,-69.18 359.5,-69.18"/>
<text text-anchor="start" x="367.5" y="-87.18" font-family="Helvetica,sans-Serif" font-size="10.00">TTrack::GetVectorPositions</text>
<text text-anchor="middle" x="428" y="-76.18" font-family="Helvetica,sans-Serif" font-size="10.00">FromInactiveTrackMap</text>
</a>
</g>
</g>
<!-- Node3&#45;&gt;Node4 -->
<g id="edge4" class="edge">
<title>Node3&#45;&gt;Node4</title>
<path fill="none" stroke="midnightblue" d="M315.05,-84.18C326.18,-84.18 337.78,-84.18 349.13,-84.18"/>
<polygon fill="midnightblue" stroke="midnightblue" points="349.45,-87.68 359.45,-84.18 349.45,-80.68 349.45,-87.68"/>
</g>
<!-- Node3&#45;&gt;Node5 -->
<g id="edge10" class="edge">
<title>Node3&#45;&gt;Node5</title>
<path fill="none" stroke="midnightblue" d="M265.08,-68.95C284.76,-53.45 317.86,-30.44 351,-21.18 419.72,-1.99 503.28,-16.16 552.64,-28.17"/>
<polygon fill="midnightblue" stroke="midnightblue" points="551.78,-31.57 562.33,-30.61 553.49,-24.78 551.78,-31.57"/>
</g>
<!-- Node6 -->
<g id="node6" class="node">
<title>Node6</title>
<g id="a_node6"><a xlink:href="class_t_track.html#a51f89cf70e94b037f6378cd78003d82b" target="_top" xlink:title="A range&#45;checked version of InactiveTrackVector.at(At)">
<polygon fill="white" stroke="black" points="351,-30.68 351,-49.68 505,-49.68 505,-30.68 351,-30.68"/>
<text text-anchor="middle" x="428" y="-37.68" font-family="Helvetica,sans-Serif" font-size="10.00">TTrack::InactiveTrackElementAt</text>
</a>
</g>
</g>
<!-- Node3&#45;&gt;Node6 -->
<g id="edge7" class="edge">
<title>Node3&#45;&gt;Node6</title>
<path fill="none" stroke="midnightblue" d="M308.44,-69.17C331.21,-63.6 356.71,-57.37 378.2,-52.11"/>
<polygon fill="midnightblue" stroke="midnightblue" points="379.2,-55.47 388.09,-49.7 377.54,-48.67 379.2,-55.47"/>
</g>
<!-- Node4&#45;&gt;Node2 -->
<g id="edge5" class="edge">
<title>Node4&#45;&gt;Node2</title>
<path fill="none" stroke="midnightblue" d="M485.66,-99.2C506.3,-104.67 529.36,-110.79 548.96,-115.98"/>
<polygon fill="midnightblue" stroke="midnightblue" points="548.3,-119.43 558.86,-118.61 550.09,-112.66 548.3,-119.43"/>
</g>
<!-- Node4&#45;&gt;Node5 -->
<g id="edge6" class="edge">
<title>Node4&#45;&gt;Node5</title>
<path fill="none" stroke="midnightblue" d="M485.66,-69.17C506.3,-63.7 529.36,-57.58 548.96,-52.39"/>
<polygon fill="midnightblue" stroke="midnightblue" points="550.09,-55.71 558.86,-49.76 548.3,-48.94 550.09,-55.71"/>
</g>
<!-- Node6&#45;&gt;Node2 -->
<g id="edge8" class="edge">
<title>Node6&#45;&gt;Node2</title>
<path fill="none" stroke="midnightblue" d="M477.05,-49.79C486.56,-52.53 496.29,-55.95 505,-60.18 532.7,-73.64 560.33,-96.23 577.53,-111.65"/>
<polygon fill="midnightblue" stroke="midnightblue" points="575.34,-114.4 585.08,-118.57 580.07,-109.23 575.34,-114.4"/>
</g>
<!-- Node6&#45;&gt;Node5 -->
<g id="edge9" class="edge">
<title>Node6&#45;&gt;Node5</title>
<path fill="none" stroke="midnightblue" d="M505.2,-40.18C513.59,-40.18 522.07,-40.18 530.3,-40.18"/>
<polygon fill="midnightblue" stroke="midnightblue" points="530.57,-43.68 540.57,-40.18 530.57,-36.68 530.57,-43.68"/>
</g>
<!-- Node7&#45;&gt;Node2 -->
<g id="edge13" class="edge">
<title>Node7&#45;&gt;Node2</title>
<path fill="none" stroke="midnightblue" d="M470.89,-156.6C492.89,-151.56 520.05,-145.34 543.35,-140.01"/>
<polygon fill="midnightblue" stroke="midnightblue" points="544.45,-143.35 553.41,-137.7 542.88,-136.52 544.45,-143.35"/>
</g>
<!-- Node7&#45;&gt;Node5 -->
<g id="edge14" class="edge">
<title>Node7&#45;&gt;Node5</title>
<path fill="none" stroke="midnightblue" d="M441.94,-156.54C457.09,-145.24 482.92,-125.93 505,-109.18 528.86,-91.09 556.14,-70.14 574.35,-56.11"/>
<polygon fill="midnightblue" stroke="midnightblue" points="576.73,-58.7 582.51,-49.83 572.45,-53.16 576.73,-58.7"/>
</g>
</g>
</svg>
        <g id="navigator" transform="translate(0 0)" fill="#404254">
                <rect fill="#f2f5e9" fill-opacity="0.5" stroke="#606060" stroke-width=".5" x="0" y="0" width="60" height="60"/>
                <use id="zoomplus" xlink:href="#zoomPlus" x="17" y="9" onmousedown="handleZoom(evt,'in')"/>
                <use id="zoomminus" xlink:href="#zoomMin" x="42" y="9" onmousedown="handleZoom(evt,'out')"/>
                <use id="reset" xlink:href="#resetDef" x="30" y="36" onmousedown="handleReset()"/>
                <g id="arrowUp" xlink:href="#dirArrow" transform="translate(30 24)" onmousedown="handlePan(0,-1)">
                  <use xlink:href="#rim" fill="#404040">
                        <set attributeName="fill" to="#808080" begin="arrowUp.mouseover" end="arrowUp.mouseout"/>
                  </use>
                  <path fill="none" stroke="white" stroke-width="1.5" d="M0,-3.0v7 M-2.5,-0.5L0,-3.0L2.5,-0.5"/>
                </g>
                <g id="arrowRight" xlink:href="#dirArrow" transform="rotate(90) translate(36 -43)" onmousedown="handlePan(1,0)">
                  <use xlink:href="#rim" fill="#404040">
                        <set attributeName="fill" to="#808080" begin="arrowRight.mouseover" end="arrowRight.mouseout"/>
                  </use>
                  <path fill="none" stroke="white" stroke-width="1.5" d="M0,-3.0v7 M-2.5,-0.5L0,-3.0L2.5,-0.5"/>
                </g>
                <g id="arrowDown" xlink:href="#dirArrow" transform="rotate(180) translate(-30 -48)" onmousedown="handlePan(0,1)">
                  <use xlink:href="#rim" fill="#404040">
                        <set attributeName="fill" to="#808080" begin="arrowDown.mouseover" end="arrowDown.mouseout"/>
                  </use>
                  <path fill="none" stroke="white" stroke-width="1.5" d="M0,-3.0v7 M-2.5,-0.5L0,-3.0L2.5,-0.5"/>
                </g>
                <g id="arrowLeft" xlink:href="#dirArrow" transform="rotate(270) translate(-36 17)" onmousedown="handlePan(-1,0)">
                  <use xlink:href="#rim" fill="#404040">
                        <set attributeName="fill" to="#808080" begin="arrowLeft.mouseover" end="arrowLeft.mouseout"/>
                  </use>
                  <path fill="none" stroke="white" stroke-width="1.5" d="M0,-3.0v7 M-2.5,-0.5L0,-3.0L2.5,-0.5"/>
                </g>
        </g>
        <svg viewBox="0 0 15 15" width="100%" height="30px" preserveAspectRatio="xMaxYMin meet">
         <g id="arrow_out" transform="scale(0.3 0.3)">
          <a xlink:href="class_t_track_a46b69ee08436c2ff5e41673df04bcf11_cgraph_org.svg" target="_base">
           <rect id="button" ry="5" rx="5" y="6" x="6" height="38" width="38"
                fill="#f2f5e9" fill-opacity="0.5" stroke="#606060" stroke-width="1.0"/>
           <path id="arrow"
             d="M 11.500037,31.436501 C 11.940474,20.09759 22.043105,11.32322 32.158766,21.979434 L 37.068811,17.246167 C 37.068811,17.246167 37.088388,32 37.088388,32 L 22.160133,31.978069 C 22.160133,31.978069 26.997745,27.140456 26.997745,27.140456 C 18.528582,18.264221 13.291696,25.230495 11.500037,31.436501 z"
             style="fill:#404040;"/>
          </a>
         </g>
        </svg>
</svg>
