<?xml version="1.0" encoding="UTF-8" standalone="no"?>
<!DOCTYPE svg PUBLIC "-//W3C//DTD SVG 1.1//EN"
 "http://www.w3.org/Graphics/SVG/1.1/DTD/svg11.dtd">
<!-- Generated by graphviz version 2.44.1 (20200629.0800)
 -->
<!-- Title: TOnePrefDir::PresetAutoRouteDiagonalFouledByTrack Pages: 1 -->
<svg width="470pt" height="110pt"
 viewBox="0.00 0.00 470.00 110.01" xmlns="http://www.w3.org/2000/svg" xmlns:xlink="http://www.w3.org/1999/xlink">
<g id="graph0" class="graph" transform="scale(1 1) rotate(0) translate(4 106.01)">
<title>TOnePrefDir::PresetAutoRouteDiagonalFouledByTrack</title>
<polygon fill="white" stroke="transparent" points="-4,4 -4,-106.01 466,-106.01 466,4 -4,4"/>
<!-- Node1 -->
<g id="node1" class="node">
<title>Node1</title>
<g id="a_node1"><a xlink:title="Called by GetStartAndEndPrefDirElements...">
<polygon fill="#bfbfbf" stroke="black" points="0,-32.43 0,-62.43 149,-62.43 149,-32.43 0,-32.43"/>
<text text-anchor="start" x="8" y="-50.43" font-family="Helvetica,sans-Serif" font-size="10.00">TOnePrefDir::PresetAutoRoute</text>
<text text-anchor="middle" x="74.5" y="-39.43" font-family="Helvetica,sans-Serif" font-size="10.00">DiagonalFouledByTrack</text>
</a>
</g>
</g>
<!-- Node2 -->
<g id="node2" class="node">
<title>Node2</title>
<g id="a_node2"><a xlink:href="class_t_utilities.html#ae1eddca13cc3c492839e131f40ec21c0" target="_top" xlink:title="&lt; specifies whether no delays or minor, moderate or major random delays are to be applied">
<polygon fill="white" stroke="black" points="352,-59.93 352,-78.93 462,-78.93 462,-59.93 352,-59.93"/>
<text text-anchor="middle" x="407" y="-66.93" font-family="Helvetica,sans-Serif" font-size="10.00">TUtilities::CallLogPop</text>
</a>
</g>
</g>
<!-- Node1&#45;&gt;Node2 -->
<g id="edge1" class="edge">
<title>Node1&#45;&gt;Node2</title>
<path fill="none" stroke="midnightblue" d="M102.39,-62.64C123.96,-73.91 155.41,-88.35 185,-94.43 242.03,-106.15 258.31,-102.29 316,-94.43 333.83,-92 353.11,-86.98 369.24,-82.07"/>
<polygon fill="midnightblue" stroke="midnightblue" points="370.34,-85.39 378.83,-79.05 368.24,-78.71 370.34,-85.39"/>
</g>
<!-- Node3 -->
<g id="node3" class="node">
<title>Node3</title>
<g id="a_node3"><a xlink:href="class_t_track.html#aa0812972d1ae27198c5fbca8aa7b6134" target="_top" xlink:title="Returns the track vector position corresponding to the Hloc &amp; VLoc positions, FoundFlag indicates whe...">
<polygon fill="white" stroke="black" points="185,-54.43 185,-84.43 316,-84.43 316,-54.43 185,-54.43"/>
<text text-anchor="start" x="193" y="-72.43" font-family="Helvetica,sans-Serif" font-size="10.00">TTrack::GetVectorPosition</text>
<text text-anchor="middle" x="250.5" y="-61.43" font-family="Helvetica,sans-Serif" font-size="10.00">FromTrackMap</text>
</a>
</g>
</g>
<!-- Node1&#45;&gt;Node3 -->
<g id="edge2" class="edge">
<title>Node1&#45;&gt;Node3</title>
<path fill="none" stroke="midnightblue" d="M149.04,-56.73C157.57,-57.8 166.28,-58.91 174.83,-59.99"/>
<polygon fill="midnightblue" stroke="midnightblue" points="174.41,-63.46 184.77,-61.24 175.29,-56.52 174.41,-63.46"/>
</g>
<!-- Node4 -->
<g id="node4" class="node">
<title>Node4</title>
<g id="a_node4"><a xlink:href="class_t_utilities.html#a34bd6bb5305bc29afdf424f6d35a921c" target="_top" xlink:title="creates a string of the form &#39;hh:mm:ss&#39; for use in call &amp; event logging">
<polygon fill="white" stroke="black" points="352,-15.93 352,-34.93 462,-34.93 462,-15.93 352,-15.93"/>
<text text-anchor="middle" x="407" y="-22.93" font-family="Helvetica,sans-Serif" font-size="10.00">TUtilities::TimeStamp</text>
</a>
</g>
</g>
<!-- Node1&#45;&gt;Node4 -->
<g id="edge5" class="edge">
<title>Node1&#45;&gt;Node4</title>
<path fill="none" stroke="midnightblue" d="M106.75,-32.3C128.2,-22.78 157.63,-11.38 185,-6.43 242.29,3.95 258.09,-0.38 316,-6.43 330.31,-7.92 345.7,-10.72 359.64,-13.72"/>
<polygon fill="midnightblue" stroke="midnightblue" points="358.97,-17.15 369.49,-15.92 360.5,-10.32 358.97,-17.15"/>
</g>
<!-- Node5 -->
<g id="node5" class="node">
<title>Node5</title>
<g id="a_node5"><a xlink:href="class_t_track.html#ad377e5a1f152f2e89832c0f9bcfd261f" target="_top" xlink:title="A range&#45;checked version of TrackVector.at(At)">
<polygon fill="white" stroke="black" points="189.5,-15.93 189.5,-34.93 311.5,-34.93 311.5,-15.93 189.5,-15.93"/>
<text text-anchor="middle" x="250.5" y="-22.93" font-family="Helvetica,sans-Serif" font-size="10.00">TTrack::TrackElementAt</text>
</a>
</g>
</g>
<!-- Node1&#45;&gt;Node5 -->
<g id="edge6" class="edge">
<title>Node1&#45;&gt;Node5</title>
<path fill="none" stroke="midnightblue" d="M149.04,-38.13C159.02,-36.87 169.24,-35.58 179.17,-34.32"/>
<polygon fill="midnightblue" stroke="midnightblue" points="179.9,-37.76 189.38,-33.03 179.02,-30.81 179.9,-37.76"/>
</g>
<!-- Node3&#45;&gt;Node2 -->
<g id="edge3" class="edge">
<title>Node3&#45;&gt;Node2</title>
<path fill="none" stroke="midnightblue" d="M316.13,-69.43C324.59,-69.43 333.27,-69.43 341.72,-69.43"/>
<polygon fill="midnightblue" stroke="midnightblue" points="341.91,-72.93 351.91,-69.43 341.91,-65.93 341.91,-72.93"/>
</g>
<!-- Node3&#45;&gt;Node4 -->
<g id="edge4" class="edge">
<title>Node3&#45;&gt;Node4</title>
<path fill="none" stroke="midnightblue" d="M304.24,-54.41C323.27,-48.99 344.51,-42.94 362.65,-37.77"/>
<polygon fill="midnightblue" stroke="midnightblue" points="363.71,-41.11 372.37,-35.01 361.79,-34.38 363.71,-41.11"/>
</g>
<!-- Node5&#45;&gt;Node2 -->
<g id="edge7" class="edge">
<title>Node5&#45;&gt;Node2</title>
<path fill="none" stroke="midnightblue" d="M285.02,-34.98C307.8,-41.46 338.14,-50.1 362.74,-57.11"/>
<polygon fill="midnightblue" stroke="midnightblue" points="361.96,-60.53 372.54,-59.9 363.88,-53.79 361.96,-60.53"/>
</g>
<!-- Node5&#45;&gt;Node4 -->
<g id="edge8" class="edge">
<title>Node5&#45;&gt;Node4</title>
<path fill="none" stroke="midnightblue" d="M311.68,-25.43C321.49,-25.43 331.68,-25.43 341.59,-25.43"/>
<polygon fill="midnightblue" stroke="midnightblue" points="341.78,-28.93 351.78,-25.43 341.78,-21.93 341.78,-28.93"/>
</g>
</g>
</svg>
