<?xml version="1.0" encoding="UTF-8" standalone="no"?>
<!DOCTYPE svg PUBLIC "-//W3C//DTD SVG 1.1//EN"
 "http://www.w3.org/Graphics/SVG/1.1/DTD/svg11.dtd">
<!-- Generated by graphviz version 2.44.1 (20200629.0800)
 -->
<!-- Title: TTrainController::CheckAndPopulateListOfIDs Pages: 1 -->
<svg width="648pt" height="181pt"
 viewBox="0.00 0.00 648.00 181.05" xmlns="http://www.w3.org/2000/svg" xmlns:xlink="http://www.w3.org/1999/xlink">
<g id="graph0" class="graph" transform="scale(1 1) rotate(0) translate(4 177.05)">
<title>TTrainController::CheckAndPopulateListOfIDs</title>
<polygon fill="white" stroke="transparent" points="-4,4 -4,-177.05 644,-177.05 644,4 -4,4"/>
<!-- Node1 -->
<g id="node1" class="node">
<title>Node1</title>
<g id="a_node1"><a xlink:title="Used to compile ExitList from a string list of element IDs, returns true for success or gives a messa...">
<polygon fill="#bfbfbf" stroke="black" points="0,-64.71 0,-94.71 135,-94.71 135,-64.71 0,-64.71"/>
<text text-anchor="start" x="8" y="-82.71" font-family="Helvetica,sans-Serif" font-size="10.00">TTrainController::CheckAnd</text>
<text text-anchor="middle" x="67.5" y="-71.71" font-family="Helvetica,sans-Serif" font-size="10.00">PopulateListOfIDs</text>
</a>
</g>
</g>
<!-- Node2 -->
<g id="node2" class="node">
<title>Node2</title>
<g id="a_node2"><a xlink:href="class_t_utilities.html#ae1eddca13cc3c492839e131f40ec21c0" target="_top" xlink:title="pops the last entry off the call stack, throws an error if called when empty">
<polygon fill="white" stroke="black" points="530,-90.21 530,-109.21 640,-109.21 640,-90.21 530,-90.21"/>
<text text-anchor="middle" x="585" y="-97.21" font-family="Helvetica,sans-Serif" font-size="10.00">TUtilities::CallLogPop</text>
</a>
</g>
</g>
<!-- Node1&#45;&gt;Node2 -->
<g id="edge1" class="edge">
<title>Node1&#45;&gt;Node2</title>
<path fill="none" stroke="midnightblue" d="M96.9,-94.84C117.06,-104.98 145.05,-117.87 171,-125.71 308.93,-167.4 355.13,-192.18 494,-153.71 520.62,-146.34 547.27,-128.77 564.58,-115.66"/>
<polygon fill="midnightblue" stroke="midnightblue" points="567.01,-118.2 572.73,-109.29 562.7,-112.69 567.01,-118.2"/>
</g>
<!-- Node3 -->
<g id="node3" class="node">
<title>Node3</title>
<g id="a_node3"><a xlink:href="class_t_track.html#a54d3b9daeb9ec0b45b0672e7273bf575" target="_top" xlink:title="Takes the ElementID value (an AnsiString) (e.g. &quot;8&#45;13&quot;, &quot;N43&#45;N127&quot;, etc) and returns the correspondin...">
<polygon fill="white" stroke="black" points="339,-113.71 339,-143.71 494,-143.71 494,-113.71 339,-113.71"/>
<text text-anchor="start" x="347" y="-131.71" font-family="Helvetica,sans-Serif" font-size="10.00">TTrack::GetTrackVectorPosition</text>
<text text-anchor="middle" x="416.5" y="-120.71" font-family="Helvetica,sans-Serif" font-size="10.00">FromString</text>
</a>
</g>
</g>
<!-- Node1&#45;&gt;Node3 -->
<g id="edge2" class="edge">
<title>Node1&#45;&gt;Node3</title>
<path fill="none" stroke="midnightblue" d="M123.79,-94.71C139,-98.42 155.56,-102.09 171,-104.71 223,-113.56 281.82,-119.46 328.74,-123.2"/>
<polygon fill="midnightblue" stroke="midnightblue" points="328.62,-126.7 338.87,-123.98 329.17,-119.72 328.62,-126.7"/>
</g>
<!-- Node4 -->
<g id="node4" class="node">
<title>Node4</title>
<g id="a_node4"><a xlink:href="class_t_utilities.html#a34bd6bb5305bc29afdf424f6d35a921c" target="_top" xlink:title="creates a string of the form &#39;hh:mm:ss&#39; for use in call &amp; event logging">
<polygon fill="white" stroke="black" points="530,-49.21 530,-68.21 640,-68.21 640,-49.21 530,-49.21"/>
<text text-anchor="middle" x="585" y="-56.21" font-family="Helvetica,sans-Serif" font-size="10.00">TUtilities::TimeStamp</text>
</a>
</g>
</g>
<!-- Node1&#45;&gt;Node4 -->
<g id="edge5" class="edge">
<title>Node1&#45;&gt;Node4</title>
<path fill="none" stroke="midnightblue" d="M99.17,-64.64C119.16,-55.45 146.07,-44.25 171,-37.71 310.15,-1.2 353.56,14.45 494,-16.71 517.58,-21.94 542.3,-34.02 559.85,-43.89"/>
<polygon fill="midnightblue" stroke="midnightblue" points="558.4,-47.1 568.81,-49.09 561.92,-41.04 558.4,-47.1"/>
</g>
<!-- Node5 -->
<g id="node5" class="node">
<title>Node5</title>
<g id="a_node5"><a xlink:href="class_t_train_controller.html#a68d2124bc8f7df43e973299e0afb3dcd" target="_top" xlink:title="Sends a message to the user if GiveMessages is true, including ServiceReference (see above) if not nu...">
<polygon fill="white" stroke="black" points="171,-64.71 171,-94.71 303,-94.71 303,-64.71 171,-64.71"/>
<text text-anchor="start" x="179" y="-82.71" font-family="Helvetica,sans-Serif" font-size="10.00">TTrainController::Timetable</text>
<text text-anchor="middle" x="237" y="-71.71" font-family="Helvetica,sans-Serif" font-size="10.00">Message</text>
</a>
</g>
</g>
<!-- Node1&#45;&gt;Node5 -->
<g id="edge6" class="edge">
<title>Node1&#45;&gt;Node5</title>
<path fill="none" stroke="midnightblue" d="M135.18,-79.71C143.55,-79.71 152.15,-79.71 160.64,-79.71"/>
<polygon fill="midnightblue" stroke="midnightblue" points="160.91,-83.21 170.91,-79.71 160.91,-76.21 160.91,-83.21"/>
</g>
<!-- Node7 -->
<g id="node7" class="node">
<title>Node7</title>
<g id="a_node7"><a xlink:href="class_t_track.html#ad377e5a1f152f2e89832c0f9bcfd261f" target="_top" xlink:title="A range&#45;checked version of TrackElement.at(At)">
<polygon fill="white" stroke="black" points="355.5,-26.21 355.5,-45.21 477.5,-45.21 477.5,-26.21 355.5,-26.21"/>
<text text-anchor="middle" x="416.5" y="-33.21" font-family="Helvetica,sans-Serif" font-size="10.00">TTrack::TrackElementAt</text>
</a>
</g>
</g>
<!-- Node1&#45;&gt;Node7 -->
<g id="edge11" class="edge">
<title>Node1&#45;&gt;Node7</title>
<path fill="none" stroke="midnightblue" d="M125.94,-64.68C140.55,-61.3 156.29,-58.02 171,-55.71 229.33,-46.55 296.19,-41.45 345.23,-38.69"/>
<polygon fill="midnightblue" stroke="midnightblue" points="345.62,-42.18 355.42,-38.14 345.24,-35.19 345.62,-42.18"/>
</g>
<!-- Node3&#45;&gt;Node2 -->
<g id="edge3" class="edge">
<title>Node3&#45;&gt;Node2</title>
<path fill="none" stroke="midnightblue" d="M494.41,-115.32C502.89,-113.84 511.46,-112.35 519.77,-110.9"/>
<polygon fill="midnightblue" stroke="midnightblue" points="520.49,-114.33 529.74,-109.16 519.28,-107.43 520.49,-114.33"/>
</g>
<!-- Node3&#45;&gt;Node4 -->
<g id="edge4" class="edge">
<title>Node3&#45;&gt;Node4</title>
<path fill="none" stroke="midnightblue" d="M472.15,-113.67C479.62,-111.01 487.09,-108.01 494,-104.71 511.35,-96.42 513.01,-89.72 530,-80.71 535.69,-77.69 541.89,-74.82 548,-72.2"/>
<polygon fill="midnightblue" stroke="midnightblue" points="549.51,-75.36 557.42,-68.31 546.84,-68.89 549.51,-75.36"/>
</g>
<!-- Node6 -->
<g id="node6" class="node">
<title>Node6</title>
<g id="a_node6"><a xlink:href="class_t_train_controller.html#a1ccd6c8f2c24e7417889e1a91cb9ca2f" target="_top" xlink:title="Returns true if the headcode complies with requirements.">
<polygon fill="white" stroke="black" points="346.5,-64.71 346.5,-94.71 486.5,-94.71 486.5,-64.71 346.5,-64.71"/>
<text text-anchor="start" x="354.5" y="-82.71" font-family="Helvetica,sans-Serif" font-size="10.00">TTrainController::CheckHead</text>
<text text-anchor="middle" x="416.5" y="-71.71" font-family="Helvetica,sans-Serif" font-size="10.00">CodeValidity</text>
</a>
</g>
</g>
<!-- Node5&#45;&gt;Node6 -->
<g id="edge7" class="edge">
<title>Node5&#45;&gt;Node6</title>
<path fill="none" stroke="midnightblue" d="M303.09,-73.18C313.84,-72.98 325.1,-72.92 336.16,-73"/>
<polygon fill="midnightblue" stroke="midnightblue" points="336.2,-76.5 346.24,-73.11 336.28,-69.5 336.2,-76.5"/>
</g>
<!-- Node6&#45;&gt;Node2 -->
<g id="edge8" class="edge">
<title>Node6&#45;&gt;Node2</title>
<path fill="none" stroke="midnightblue" d="M486.66,-88.02C497.57,-89.33 508.8,-90.68 519.59,-91.97"/>
<polygon fill="midnightblue" stroke="midnightblue" points="519.42,-95.48 529.77,-93.2 520.26,-88.53 519.42,-95.48"/>
</g>
<!-- Node6&#45;&gt;Node4 -->
<g id="edge9" class="edge">
<title>Node6&#45;&gt;Node4</title>
<path fill="none" stroke="midnightblue" d="M486.66,-70.99C497.57,-69.61 508.8,-68.2 519.59,-66.84"/>
<polygon fill="midnightblue" stroke="midnightblue" points="520.28,-70.28 529.77,-65.55 519.41,-63.33 520.28,-70.28"/>
</g>
<!-- Node6&#45;&gt;Node5 -->
<g id="edge10" class="edge">
<title>Node6&#45;&gt;Node5</title>
<path fill="none" stroke="midnightblue" d="M346.24,-86.32C335.37,-86.48 324.08,-86.51 313.09,-86.39"/>
<polygon fill="midnightblue" stroke="midnightblue" points="313.14,-82.89 303.09,-86.24 313.03,-89.89 313.14,-82.89"/>
</g>
<!-- Node7&#45;&gt;Node2 -->
<g id="edge12" class="edge">
<title>Node7&#45;&gt;Node2</title>
<path fill="none" stroke="midnightblue" d="M463.13,-45.3C473.48,-48.12 484.27,-51.58 494,-55.71 511.26,-63.05 513.26,-69.26 530,-77.71 535.87,-80.68 542.24,-83.55 548.48,-86.2"/>
<polygon fill="midnightblue" stroke="midnightblue" points="547.49,-89.58 558.07,-90.14 550.15,-83.1 547.49,-89.58"/>
</g>
<!-- Node7&#45;&gt;Node4 -->
<g id="edge13" class="edge">
<title>Node7&#45;&gt;Node4</title>
<path fill="none" stroke="midnightblue" d="M477.61,-44.02C491.33,-45.91 505.95,-47.93 519.83,-49.85"/>
<polygon fill="midnightblue" stroke="midnightblue" points="519.4,-53.32 529.78,-51.22 520.36,-46.39 519.4,-53.32"/>
</g>
</g>
</svg>
