<?xml version="1.0" encoding="UTF-8" standalone="no"?>
<!DOCTYPE svg PUBLIC "-//W3C//DTD SVG 1.1//EN"
 "http://www.w3.org/Graphics/SVG/1.1/DTD/svg11.dtd">
<!-- Generated by graphviz version 2.44.1 (20200629.0800)
 -->
<!-- Title: TTrack::PlotPlainRaisedLinkedLevelCrossingBarriersAndSetMarkers Pages: 1 -->
<!--zoomable 369 -->
<svg id="main" version="1.1" xmlns="http://www.w3.org/2000/svg" xmlns:xlink="http://www.w3.org/1999/xlink" xml:space="preserve" onload="init(evt)">
<style type="text/css"><![CDATA[
.edge:hover path { stroke: red; }
.edge:hover polygon { stroke: red; fill: red; }
]]></style>
<script type="text/javascript"><![CDATA[
var edges = document.getElementsByTagName('g');
if (edges && edges.length) {
  for (var i=0;i<edges.length;i++) {
    if (edges[i].id.substr(0,4)=='edge') {
      edges[i].setAttribute('class','edge');
    }
  }
}
]]></script>
        <defs>
                <circle id="rim" cx="0" cy="0" r="7"/>
                <circle id="rim2" cx="0" cy="0" r="3.5"/>
                <g id="zoomPlus">
                        <use xlink:href="#rim" fill="#404040">
                                <set attributeName="fill" to="#808080" begin="zoomplus.mouseover" end="zoomplus.mouseout"/>
                        </use>
                        <path d="M-4,0h8M0,-4v8" fill="none" stroke="white" stroke-width="1.5" pointer-events="none"/>
                </g>
                <g id="zoomMin">
                        <use xlink:href="#rim" fill="#404040">
                                <set attributeName="fill" to="#808080" begin="zoomminus.mouseover" end="zoomminus.mouseout"/>
                        </use>
                        <path d="M-4,0h8" fill="none" stroke="white" stroke-width="1.5" pointer-events="none"/>
                </g>
                <g id="dirArrow">
                        <path fill="none" stroke="white" stroke-width="1.5" d="M0,-3.0v7 M-2.5,-0.5L0,-3.0L2.5,-0.5"/>
                </g>
               <g id="resetDef">
                       <use xlink:href="#rim2" fill="#404040">
                               <set attributeName="fill" to="#808080" begin="reset.mouseover" end="reset.mouseout"/>
                       </use>
               </g>
        </defs>

<script type="text/javascript">
var viewWidth = 682;
var viewHeight = 369;
var sectionId = 'dynsection-189';
</script>
<script xlink:href="svgpan.js"/>
<svg id="graph" class="graph">
<g id="viewport">
<title>TTrack::PlotPlainRaisedLinkedLevelCrossingBarriersAndSetMarkers</title>
<polygon fill="white" stroke="transparent" points="-4,4 -4,-364.85 678,-364.85 678,4 -4,4"/>
<!-- Node1 -->
<g id="node1" class="node">
<title>Node1</title>
<g id="a_node1"><a xlink:title="Plot LC elements without any base elements, and set LCPlotted true &#45; used in ClearandRebuildRailway.">
<polygon fill="#bfbfbf" stroke="black" points="0,-131 0,-161 178,-161 178,-131 0,-131"/>
<text text-anchor="start" x="8" y="-149" font-family="Helvetica,sans-Serif" font-size="10.00">TTrack::PlotPlainRaisedLinked</text>
<text text-anchor="middle" x="89" y="-138" font-family="Helvetica,sans-Serif" font-size="10.00">LevelCrossingBarriersAndSetMarkers</text>
</a>
</g>
</g>
<!-- Node2 -->
<g id="node2" class="node">
<title>Node2</title>
<g id="a_node2"><a xlink:href="class_t_utilities.html#ae1eddca13cc3c492839e131f40ec21c0" target="_top" xlink:title="pops the last entry off the call stack, throws an error if called when empty">
<polygon fill="white" stroke="black" points="564,-259.5 564,-278.5 674,-278.5 674,-259.5 564,-259.5"/>
<text text-anchor="middle" x="619" y="-266.5" font-family="Helvetica,sans-Serif" font-size="10.00">TUtilities::CallLogPop</text>
</a>
</g>
</g>
<!-- Node1&#45;&gt;Node2 -->
<g id="edge1" class="edge">
<title>Node1&#45;&gt;Node2</title>
<path fill="none" stroke="midnightblue" d="M103.73,-161.22C141.71,-201.94 253.38,-312.49 374,-345 440.09,-362.81 463.72,-368.51 528,-345 559.81,-333.36 588.13,-304.97 604.17,-286.38"/>
<polygon fill="midnightblue" stroke="midnightblue" points="606.92,-288.54 610.63,-278.62 601.54,-284.06 606.92,-288.54"/>
</g>
<!-- Node3 -->
<g id="node3" class="node">
<title>Node3</title>
<g id="a_node3"><a xlink:href="class_t_track.html#a224071baecc50be0a643711bf9005db2" target="_top" xlink:title="Return a reference to the inactive element at HLoc &amp; VLoc, if no element is found an error is thrown.">
<polygon fill="white" stroke="black" points="214,-109 214,-139 338,-139 338,-109 214,-109"/>
<text text-anchor="start" x="222" y="-127" font-family="Helvetica,sans-Serif" font-size="10.00">TTrack::GetInactiveTrack</text>
<text text-anchor="middle" x="276" y="-116" font-family="Helvetica,sans-Serif" font-size="10.00">ElementFromTrackMap</text>
</a>
</g>
</g>
<!-- Node1&#45;&gt;Node3 -->
<g id="edge2" class="edge">
<title>Node1&#45;&gt;Node3</title>
<path fill="none" stroke="midnightblue" d="M178.17,-135.52C186.77,-134.49 195.42,-133.46 203.82,-132.46"/>
<polygon fill="midnightblue" stroke="midnightblue" points="204.41,-135.92 213.93,-131.26 203.58,-128.97 204.41,-135.92"/>
</g>
<!-- Node5 -->
<g id="node5" class="node">
<title>Node5</title>
<g id="a_node5"><a xlink:href="class_t_utilities.html#a34bd6bb5305bc29afdf424f6d35a921c" target="_top" xlink:title="creates a string of the form &#39;hh:mm:ss&#39; for use in call &amp; event logging">
<polygon fill="white" stroke="black" points="564,-133.5 564,-152.5 674,-152.5 674,-133.5 564,-133.5"/>
<text text-anchor="middle" x="619" y="-140.5" font-family="Helvetica,sans-Serif" font-size="10.00">TUtilities::TimeStamp</text>
</a>
</g>
</g>
<!-- Node1&#45;&gt;Node5 -->
<g id="edge18" class="edge">
<title>Node1&#45;&gt;Node5</title>
<path fill="none" stroke="midnightblue" d="M120.99,-130.89C145.57,-119.75 181.13,-105.45 214,-99 350.96,-72.14 392.6,-61.15 528,-95 553.31,-101.33 579.29,-116.27 596.8,-127.81"/>
<polygon fill="midnightblue" stroke="midnightblue" points="594.89,-130.75 605.13,-133.48 598.82,-124.96 594.89,-130.75"/>
</g>
<!-- Node6 -->
<g id="node6" class="node">
<title>Node6</title>
<g id="a_node6"><a xlink:href="class_t_track.html#a73e781d0ada0b77618b886557f79b115" target="_top" xlink:title="True if a level crossing is found at H &amp; V.">
<polygon fill="white" stroke="black" points="228.5,-158.5 228.5,-177.5 323.5,-177.5 323.5,-158.5 228.5,-158.5"/>
<text text-anchor="middle" x="276" y="-165.5" font-family="Helvetica,sans-Serif" font-size="10.00">TTrack::IsLCAtHV</text>
</a>
</g>
</g>
<!-- Node1&#45;&gt;Node6 -->
<g id="edge8" class="edge">
<title>Node1&#45;&gt;Node6</title>
<path fill="none" stroke="midnightblue" d="M178.17,-156.48C191.82,-158.11 205.61,-159.75 218.33,-161.26"/>
<polygon fill="midnightblue" stroke="midnightblue" points="217.93,-164.74 228.27,-162.44 218.76,-157.79 217.93,-164.74"/>
</g>
<!-- Node8 -->
<g id="node8" class="node">
<title>Node8</title>
<g id="a_node8"><a xlink:href="class_t_display.html#a9ab49e52c7eb92b32ae2c34547183439" target="_top" xlink:title="Plot the graphic at screen position HPos &amp; VPos.">
<polygon fill="white" stroke="black" points="397.5,-316.5 397.5,-335.5 504.5,-335.5 504.5,-316.5 397.5,-316.5"/>
<text text-anchor="middle" x="451" y="-323.5" font-family="Helvetica,sans-Serif" font-size="10.00">TDisplay::PlotOutput</text>
</a>
</g>
</g>
<!-- Node1&#45;&gt;Node8 -->
<g id="edge15" class="edge">
<title>Node1&#45;&gt;Node8</title>
<path fill="none" stroke="midnightblue" d="M120.07,-161.04C188.53,-195.26 355.18,-278.59 421.8,-311.9"/>
<polygon fill="midnightblue" stroke="midnightblue" points="420.37,-315.1 430.88,-316.44 423.5,-308.84 420.37,-315.1"/>
</g>
<!-- Node9 -->
<g id="node9" class="node">
<title>Node9</title>
<g id="a_node9"><a xlink:href="class_t_display.html#aa4f37ab2a4df6437a2219f303e1de40b" target="_top" xlink:title="Repaint the screen display.">
<polygon fill="white" stroke="black" points="230.5,-0.5 230.5,-19.5 321.5,-19.5 321.5,-0.5 230.5,-0.5"/>
<text text-anchor="middle" x="276" y="-7.5" font-family="Helvetica,sans-Serif" font-size="10.00">TDisplay::Update</text>
</a>
</g>
</g>
<!-- Node1&#45;&gt;Node9 -->
<g id="edge19" class="edge">
<title>Node1&#45;&gt;Node9</title>
<path fill="none" stroke="midnightblue" d="M103.49,-130.69C124.9,-107.18 168.87,-61.96 214,-34 220.45,-30 227.68,-26.46 234.85,-23.4"/>
<polygon fill="midnightblue" stroke="midnightblue" points="236.51,-26.51 244.5,-19.55 233.91,-20.01 236.51,-26.51"/>
</g>
<!-- Node3&#45;&gt;Node2 -->
<g id="edge3" class="edge">
<title>Node3&#45;&gt;Node2</title>
<path fill="none" stroke="midnightblue" d="M324.58,-139.1C329.47,-141.89 334.07,-145.16 338,-149 366.49,-176.79 342.45,-206.73 374,-231 401.4,-252.08 491.11,-261.68 553.75,-265.9"/>
<polygon fill="midnightblue" stroke="midnightblue" points="553.74,-269.41 563.95,-266.56 554.19,-262.42 553.74,-269.41"/>
</g>
<!-- Node4 -->
<g id="node4" class="node">
<title>Node4</title>
<g id="a_node4"><a xlink:href="class_t_track.html#a51f89cf70e94b037f6378cd78003d82b" target="_top" xlink:title="A range&#45;checked version of InactiveTrackVector.at(At)">
<polygon fill="white" stroke="black" points="374,-114.5 374,-133.5 528,-133.5 528,-114.5 374,-114.5"/>
<text text-anchor="middle" x="451" y="-121.5" font-family="Helvetica,sans-Serif" font-size="10.00">TTrack::InactiveTrackElementAt</text>
</a>
</g>
</g>
<!-- Node3&#45;&gt;Node4 -->
<g id="edge4" class="edge">
<title>Node3&#45;&gt;Node4</title>
<path fill="none" stroke="midnightblue" d="M338.48,-124C346.72,-124 355.29,-124 363.85,-124"/>
<polygon fill="midnightblue" stroke="midnightblue" points="363.88,-127.5 373.88,-124 363.88,-120.5 363.88,-127.5"/>
</g>
<!-- Node3&#45;&gt;Node5 -->
<g id="edge7" class="edge">
<title>Node3&#45;&gt;Node5</title>
<path fill="none" stroke="midnightblue" d="M338.19,-110.09C389.37,-100.66 464.07,-92.06 528,-105 550.58,-109.57 574.54,-119.99 592.06,-128.77"/>
<polygon fill="midnightblue" stroke="midnightblue" points="590.58,-131.94 601.07,-133.42 593.79,-125.72 590.58,-131.94"/>
</g>
<!-- Node4&#45;&gt;Node2 -->
<g id="edge5" class="edge">
<title>Node4&#45;&gt;Node2</title>
<path fill="none" stroke="midnightblue" d="M465.55,-133.6C481.04,-144.75 506.98,-163.93 528,-182 554.86,-205.1 584.01,-234.06 601.64,-252.05"/>
<polygon fill="midnightblue" stroke="midnightblue" points="599.4,-254.76 608.88,-259.48 604.41,-249.88 599.4,-254.76"/>
</g>
<!-- Node4&#45;&gt;Node5 -->
<g id="edge6" class="edge">
<title>Node4&#45;&gt;Node5</title>
<path fill="none" stroke="midnightblue" d="M528.2,-132.72C536.68,-133.69 545.26,-134.67 553.58,-135.63"/>
<polygon fill="midnightblue" stroke="midnightblue" points="553.23,-139.11 563.57,-136.77 554.03,-132.16 553.23,-139.11"/>
</g>
<!-- Node6&#45;&gt;Node2 -->
<g id="edge9" class="edge">
<title>Node6&#45;&gt;Node2</title>
<path fill="none" stroke="midnightblue" d="M283.03,-177.73C296.4,-198.29 330.8,-245.72 374,-264 432.41,-288.72 505.93,-286.24 556.93,-279.92"/>
<polygon fill="midnightblue" stroke="midnightblue" points="557.68,-283.35 567.14,-278.56 556.76,-276.41 557.68,-283.35"/>
</g>
<!-- Node6&#45;&gt;Node4 -->
<g id="edge13" class="edge">
<title>Node6&#45;&gt;Node4</title>
<path fill="none" stroke="midnightblue" d="M314.54,-158.45C340.38,-151.88 374.92,-143.1 402.65,-136.04"/>
<polygon fill="midnightblue" stroke="midnightblue" points="403.71,-139.39 412.53,-133.53 401.98,-132.6 403.71,-139.39"/>
</g>
<!-- Node6&#45;&gt;Node5 -->
<g id="edge14" class="edge">
<title>Node6&#45;&gt;Node5</title>
<path fill="none" stroke="midnightblue" d="M323.7,-164.58C383.3,-160.21 486.68,-152.63 553.69,-147.71"/>
<polygon fill="midnightblue" stroke="midnightblue" points="554,-151.2 563.71,-146.98 553.48,-144.22 554,-151.2"/>
</g>
<!-- Node7 -->
<g id="node7" class="node">
<title>Node7</title>
<g id="a_node7"><a xlink:href="class_t_track.html#a418966e6fefb71b9d0c9b941197832da" target="_top" xlink:title="Similar to GetVectorPositionFromTrackMap but for inactive elements, a pair is returned because there ...">
<polygon fill="white" stroke="black" points="382.5,-191 382.5,-221 519.5,-221 519.5,-191 382.5,-191"/>
<text text-anchor="start" x="390.5" y="-209" font-family="Helvetica,sans-Serif" font-size="10.00">TTrack::GetVectorPositions</text>
<text text-anchor="middle" x="451" y="-198" font-family="Helvetica,sans-Serif" font-size="10.00">FromInactiveTrackMap</text>
</a>
</g>
</g>
<!-- Node6&#45;&gt;Node7 -->
<g id="edge10" class="edge">
<title>Node6&#45;&gt;Node7</title>
<path fill="none" stroke="midnightblue" d="M320.66,-177.59C336.45,-181.06 354.79,-185.09 372.61,-189"/>
<polygon fill="midnightblue" stroke="midnightblue" points="371.92,-192.43 382.44,-191.16 373.42,-185.6 371.92,-192.43"/>
</g>
<!-- Node7&#45;&gt;Node2 -->
<g id="edge11" class="edge">
<title>Node7&#45;&gt;Node2</title>
<path fill="none" stroke="midnightblue" d="M491.76,-221.09C519.49,-231.61 556.15,-245.53 582.81,-255.65"/>
<polygon fill="midnightblue" stroke="midnightblue" points="581.91,-259.05 592.5,-259.32 584.4,-252.5 581.91,-259.05"/>
</g>
<!-- Node7&#45;&gt;Node5 -->
<g id="edge12" class="edge">
<title>Node7&#45;&gt;Node5</title>
<path fill="none" stroke="midnightblue" d="M491.76,-190.91C519.49,-180.39 556.15,-166.47 582.81,-156.35"/>
<polygon fill="midnightblue" stroke="midnightblue" points="584.4,-159.5 592.5,-152.68 581.91,-152.95 584.4,-159.5"/>
</g>
<!-- Node8&#45;&gt;Node2 -->
<g id="edge16" class="edge">
<title>Node8&#45;&gt;Node2</title>
<path fill="none" stroke="midnightblue" d="M483.54,-316.39C497.24,-312.13 513.46,-306.96 528,-302 546.43,-295.71 566.82,-288.28 583.53,-282.06"/>
<polygon fill="midnightblue" stroke="midnightblue" points="584.75,-285.34 592.89,-278.55 582.3,-278.78 584.75,-285.34"/>
</g>
<!-- Node8&#45;&gt;Node5 -->
<g id="edge17" class="edge">
<title>Node8&#45;&gt;Node5</title>
<path fill="none" stroke="midnightblue" d="M460.69,-316.42C487.24,-287.16 567.53,-198.64 602,-160.64"/>
<polygon fill="midnightblue" stroke="midnightblue" points="604.87,-162.69 608.99,-152.93 599.68,-157.99 604.87,-162.69"/>
</g>
</g>
</svg>
        <g id="navigator" transform="translate(0 0)" fill="#404254">
                <rect fill="#f2f5e9" fill-opacity="0.5" stroke="#606060" stroke-width=".5" x="0" y="0" width="60" height="60"/>
                <use id="zoomplus" xlink:href="#zoomPlus" x="17" y="9" onmousedown="handleZoom(evt,'in')"/>
                <use id="zoomminus" xlink:href="#zoomMin" x="42" y="9" onmousedown="handleZoom(evt,'out')"/>
                <use id="reset" xlink:href="#resetDef" x="30" y="36" onmousedown="handleReset()"/>
                <g id="arrowUp" xlink:href="#dirArrow" transform="translate(30 24)" onmousedown="handlePan(0,-1)">
                  <use xlink:href="#rim" fill="#404040">
                        <set attributeName="fill" to="#808080" begin="arrowUp.mouseover" end="arrowUp.mouseout"/>
                  </use>
                  <path fill="none" stroke="white" stroke-width="1.5" d="M0,-3.0v7 M-2.5,-0.5L0,-3.0L2.5,-0.5"/>
                </g>
                <g id="arrowRight" xlink:href="#dirArrow" transform="rotate(90) translate(36 -43)" onmousedown="handlePan(1,0)">
                  <use xlink:href="#rim" fill="#404040">
                        <set attributeName="fill" to="#808080" begin="arrowRight.mouseover" end="arrowRight.mouseout"/>
                  </use>
                  <path fill="none" stroke="white" stroke-width="1.5" d="M0,-3.0v7 M-2.5,-0.5L0,-3.0L2.5,-0.5"/>
                </g>
                <g id="arrowDown" xlink:href="#dirArrow" transform="rotate(180) translate(-30 -48)" onmousedown="handlePan(0,1)">
                  <use xlink:href="#rim" fill="#404040">
                        <set attributeName="fill" to="#808080" begin="arrowDown.mouseover" end="arrowDown.mouseout"/>
                  </use>
                  <path fill="none" stroke="white" stroke-width="1.5" d="M0,-3.0v7 M-2.5,-0.5L0,-3.0L2.5,-0.5"/>
                </g>
                <g id="arrowLeft" xlink:href="#dirArrow" transform="rotate(270) translate(-36 17)" onmousedown="handlePan(-1,0)">
                  <use xlink:href="#rim" fill="#404040">
                        <set attributeName="fill" to="#808080" begin="arrowLeft.mouseover" end="arrowLeft.mouseout"/>
                  </use>
                  <path fill="none" stroke="white" stroke-width="1.5" d="M0,-3.0v7 M-2.5,-0.5L0,-3.0L2.5,-0.5"/>
                </g>
        </g>
        <svg viewBox="0 0 15 15" width="100%" height="30px" preserveAspectRatio="xMaxYMin meet">
         <g id="arrow_out" transform="scale(0.3 0.3)">
          <a xlink:href="class_t_track_a1f59015a92ef00604156a44011b4f4c8_cgraph_org.svg" target="_base">
           <rect id="button" ry="5" rx="5" y="6" x="6" height="38" width="38"
                fill="#f2f5e9" fill-opacity="0.5" stroke="#606060" stroke-width="1.0"/>
           <path id="arrow"
             d="M 11.500037,31.436501 C 11.940474,20.09759 22.043105,11.32322 32.158766,21.979434 L 37.068811,17.246167 C 37.068811,17.246167 37.088388,32 37.088388,32 L 22.160133,31.978069 C 22.160133,31.978069 26.997745,27.140456 26.997745,27.140456 C 18.528582,18.264221 13.291696,25.230495 11.500037,31.436501 z"
             style="fill:#404040;"/>
          </a>
         </g>
        </svg>
</svg>
