<?xml version="1.0" encoding="UTF-8" standalone="no"?>
<!DOCTYPE svg PUBLIC "-//W3C//DTD SVG 1.1//EN"
 "http://www.w3.org/Graphics/SVG/1.1/DTD/svg11.dtd">
<!-- Generated by graphviz version 2.44.1 (20200629.0800)
 -->
<!-- Title: TUtilities::CheckAndReadFileString Pages: 1 -->
<svg width="1393pt" height="619pt"
 viewBox="0.00 0.00 1393.00 619.30" xmlns="http://www.w3.org/2000/svg" xmlns:xlink="http://www.w3.org/1999/xlink">
<g id="graph0" class="graph" transform="scale(1 1) rotate(0) translate(4 615.3)">
<title>TUtilities::CheckAndReadFileString</title>
<polygon fill="white" stroke="transparent" points="-4,4 -4,-615.3 1389,-615.3 1389,4 -4,4"/>
<!-- Node1 -->
<g id="node1" class="node">
<title>Node1</title>
<g id="a_node1"><a xlink:title="checks that the value is a string (&#39;0&#39; or &#39; &#39; (CRLF) accepted as delimiters), returns true for succes...">
<polygon fill="#bfbfbf" stroke="black" points="1257,-265.3 1257,-295.3 1385,-295.3 1385,-265.3 1257,-265.3"/>
<text text-anchor="start" x="1265" y="-283.3" font-family="Helvetica,sans-Serif" font-size="10.00">TUtilities::CheckAndRead</text>
<text text-anchor="middle" x="1321" y="-272.3" font-family="Helvetica,sans-Serif" font-size="10.00">FileString</text>
</a>
</g>
</g>
<!-- Node2 -->
<g id="node2" class="node">
<title>Node2</title>
<g id="a_node2"><a xlink:href="class_t_utilities.html#ab4b66aa7480fda73d554fe0bcca82b60" target="_top" xlink:title="checks that the value is an int lying between Lowest &amp; Highest (inclusive), returns true for success ...">
<polygon fill="white" stroke="black" points="1090,-427.3 1090,-457.3 1218,-457.3 1218,-427.3 1090,-427.3"/>
<text text-anchor="start" x="1098" y="-445.3" font-family="Helvetica,sans-Serif" font-size="10.00">TUtilities::CheckAndRead</text>
<text text-anchor="middle" x="1154" y="-434.3" font-family="Helvetica,sans-Serif" font-size="10.00">FileInt</text>
</a>
</g>
</g>
<!-- Node1&#45;&gt;Node2 -->
<g id="edge1" class="edge">
<title>Node1&#45;&gt;Node2</title>
<path fill="none" stroke="midnightblue" d="M1297.29,-302.6C1263.25,-336.02 1199.9,-398.22 1170.6,-426.98"/>
<polygon fill="midnightblue" stroke="midnightblue" points="1299.79,-305.04 1304.48,-295.54 1294.89,-300.05 1299.79,-305.04"/>
</g>
<!-- Node10 -->
<g id="node10" class="node">
<title>Node10</title>
<g id="a_node10"><a xlink:href="class_t_interface.html#a1c76c13d451cb6955d77d37e68614811" target="_top" xlink:title="Check the timetable file embedded within a session file &amp; return false for error, called during Sessi...">
<polygon fill="white" stroke="black" points="907.5,-504.3 907.5,-534.3 1041.5,-534.3 1041.5,-504.3 907.5,-504.3"/>
<text text-anchor="start" x="915.5" y="-522.3" font-family="Helvetica,sans-Serif" font-size="10.00">TInterface::CheckTimetable</text>
<text text-anchor="middle" x="974.5" y="-511.3" font-family="Helvetica,sans-Serif" font-size="10.00">FromSessionFile</text>
</a>
</g>
</g>
<!-- Node1&#45;&gt;Node10 -->
<g id="edge52" class="edge">
<title>Node1&#45;&gt;Node10</title>
<path fill="none" stroke="midnightblue" d="M1314,-305.29C1302.91,-345.77 1275.25,-425.3 1221,-466.3 1169.34,-505.34 1095.01,-516.92 1041.69,-519.76"/>
<polygon fill="midnightblue" stroke="midnightblue" points="1317.43,-305.98 1316.58,-295.42 1310.66,-304.21 1317.43,-305.98"/>
</g>
<!-- Node11 -->
<g id="node11" class="node">
<title>Node11</title>
<g id="a_node11"><a xlink:href="class_t_utilities.html#a1b39fffcd392bfb0f5a2ca393de3a6bb" target="_top" xlink:title="checks that the value is a bool returns true for success">
<polygon fill="white" stroke="black" points="1092.5,-270.8 1092.5,-289.8 1215.5,-289.8 1215.5,-270.8 1092.5,-270.8"/>
<text text-anchor="middle" x="1154" y="-277.8" font-family="Helvetica,sans-Serif" font-size="10.00">TUtilities::CheckFileBool</text>
</a>
</g>
</g>
<!-- Node1&#45;&gt;Node11 -->
<g id="edge14" class="edge">
<title>Node1&#45;&gt;Node11</title>
<path fill="none" stroke="midnightblue" d="M1246.48,-280.3C1236.19,-280.3 1225.72,-280.3 1215.71,-280.3"/>
<polygon fill="midnightblue" stroke="midnightblue" points="1246.68,-283.8 1256.68,-280.3 1246.68,-276.8 1246.68,-283.8"/>
</g>
<!-- Node13 -->
<g id="node13" class="node">
<title>Node13</title>
<g id="a_node13"><a xlink:href="class_t_interface.html#ae484cb4ac3ce536b922fff402e6689f7" target="_top" xlink:title="Check the interface part of a session file &amp; return false for error, called during SessionFileIntegri...">
<polygon fill="white" stroke="black" points="910,-213.8 910,-232.8 1039,-232.8 1039,-213.8 910,-213.8"/>
<text text-anchor="middle" x="974.5" y="-220.8" font-family="Helvetica,sans-Serif" font-size="10.00">TInterface::CheckInterface</text>
</a>
</g>
</g>
<!-- Node1&#45;&gt;Node13 -->
<g id="edge49" class="edge">
<title>Node1&#45;&gt;Node13</title>
<path fill="none" stroke="midnightblue" d="M1247.09,-266C1238.31,-264.37 1229.46,-262.77 1221,-261.3 1159.38,-250.62 1088.8,-239.85 1039.19,-232.51"/>
<polygon fill="midnightblue" stroke="midnightblue" points="1246.48,-269.44 1256.95,-267.85 1247.77,-262.56 1246.48,-269.44"/>
</g>
<!-- Node15 -->
<g id="node15" class="node">
<title>Node15</title>
<g id="a_node15"><a xlink:href="class_t_utilities.html#a5c7332a6b45894902f271f0ab9ab87db" target="_top" xlink:title="checks that the value is a double, returns true for success">
<polygon fill="white" stroke="black" points="1087,-308.8 1087,-327.8 1221,-327.8 1221,-308.8 1087,-308.8"/>
<text text-anchor="middle" x="1154" y="-315.8" font-family="Helvetica,sans-Serif" font-size="10.00">TUtilities::CheckFileDouble</text>
</a>
</g>
</g>
<!-- Node1&#45;&gt;Node15 -->
<g id="edge21" class="edge">
<title>Node1&#45;&gt;Node15</title>
<path fill="none" stroke="midnightblue" d="M1246.64,-297.2C1229.45,-301.15 1211.72,-305.24 1196.49,-308.75"/>
<polygon fill="midnightblue" stroke="midnightblue" points="1247.72,-300.54 1256.68,-294.88 1246.15,-293.72 1247.72,-300.54"/>
</g>
<!-- Node16 -->
<g id="node16" class="node">
<title>Node16</title>
<g id="a_node16"><a xlink:href="class_t_utilities.html#a4d229af6e8943da1936bcbcc1c83846b" target="_top" xlink:title="checks that the value is an int lying between Lowest &amp; Highest (inclusive), returns true for success">
<polygon fill="white" stroke="black" points="1097,-194.8 1097,-213.8 1211,-213.8 1211,-194.8 1097,-194.8"/>
<text text-anchor="middle" x="1154" y="-201.8" font-family="Helvetica,sans-Serif" font-size="10.00">TUtilities::CheckFileInt</text>
</a>
</g>
</g>
<!-- Node1&#45;&gt;Node16 -->
<g id="edge28" class="edge">
<title>Node1&#45;&gt;Node16</title>
<path fill="none" stroke="midnightblue" d="M1284.59,-260.21C1265.96,-250.03 1242.57,-237.84 1221,-228.3 1209.07,-223.03 1195.58,-217.97 1183.92,-213.87"/>
<polygon fill="midnightblue" stroke="midnightblue" points="1283.14,-263.41 1293.59,-265.18 1286.52,-257.28 1283.14,-263.41"/>
</g>
<!-- Node19 -->
<g id="node19" class="node">
<title>Node19</title>
<g id="a_node19"><a xlink:href="class_t_track.html#aaaeca0e8840e05572e9c27e76a04483a" target="_top" xlink:title="True if TrackElements in the file are all valid.">
<polygon fill="white" stroke="black" points="902,-88.3 902,-118.3 1047,-118.3 1047,-88.3 902,-88.3"/>
<text text-anchor="start" x="910" y="-106.3" font-family="Helvetica,sans-Serif" font-size="10.00">TTrack::CheckTrackElements</text>
<text text-anchor="middle" x="974.5" y="-95.3" font-family="Helvetica,sans-Serif" font-size="10.00">InFile</text>
</a>
</g>
</g>
<!-- Node1&#45;&gt;Node19 -->
<g id="edge53" class="edge">
<title>Node1&#45;&gt;Node19</title>
<path fill="none" stroke="midnightblue" d="M1301.37,-257.33C1282.96,-235.99 1252.99,-204.66 1221,-185.3 1166.89,-152.56 1098.07,-131.03 1047.07,-118.29"/>
<polygon fill="midnightblue" stroke="midnightblue" points="1298.71,-259.61 1307.84,-264.98 1304.05,-255.08 1298.71,-259.61"/>
</g>
<!-- Node23 -->
<g id="node23" class="node">
<title>Node23</title>
<g id="a_node23"><a xlink:href="class_t_track.html#af4ef9874b8b8208112da24ac282298b7" target="_top" xlink:title="checks all user graphics &amp; returns true for success">
<polygon fill="white" stroke="black" points="905,-11.8 905,-30.8 1044,-30.8 1044,-11.8 905,-11.8"/>
<text text-anchor="middle" x="974.5" y="-18.8" font-family="Helvetica,sans-Serif" font-size="10.00">TTrack::CheckUserGraphics</text>
</a>
</g>
</g>
<!-- Node1&#45;&gt;Node23 -->
<g id="edge54" class="edge">
<title>Node1&#45;&gt;Node23</title>
<path fill="none" stroke="midnightblue" d="M1309.22,-255.5C1293.82,-222.52 1262.71,-164.1 1221,-127.3 1160.95,-74.32 1070.36,-44.61 1017.65,-30.86"/>
<polygon fill="midnightblue" stroke="midnightblue" points="1306.16,-257.22 1313.49,-264.87 1312.53,-254.32 1306.16,-257.22"/>
</g>
<!-- Node24 -->
<g id="node24" class="node">
<title>Node24</title>
<g id="a_node24"><a xlink:href="class_t_interface.html#ace78190347eb85b1048e5309075d04b0" target="_top" xlink:title="Check the performance file embedded within a session file &amp; return false for error,...">
<polygon fill="white" stroke="black" points="699,-591.8 699,-610.8 862,-610.8 862,-591.8 699,-591.8"/>
<text text-anchor="middle" x="780.5" y="-598.8" font-family="Helvetica,sans-Serif" font-size="10.00">TInterface::CheckPerformanceFile</text>
</a>
</g>
</g>
<!-- Node1&#45;&gt;Node24 -->
<g id="edge50" class="edge">
<title>Node1&#45;&gt;Node24</title>
<path fill="none" stroke="midnightblue" d="M1315.68,-305.6C1306.5,-351.73 1280.82,-449.82 1221,-505.3 1123.08,-596.12 959.88,-608.44 862.3,-606.61"/>
<polygon fill="midnightblue" stroke="midnightblue" points="1319.16,-306.04 1317.57,-295.56 1312.28,-304.74 1319.16,-306.04"/>
</g>
<!-- Node3 -->
<g id="node3" class="node">
<title>Node3</title>
<g id="a_node3"><a xlink:href="class_t_train_controller.html#a96985493678231bbcad15b36c0c63579" target="_top" xlink:title="Part of the session file integrity check for ContinuationAutoSigEntries, true for success.">
<polygon fill="white" stroke="black" points="898,-328.3 898,-358.3 1051,-358.3 1051,-328.3 898,-328.3"/>
<text text-anchor="start" x="906" y="-346.3" font-family="Helvetica,sans-Serif" font-size="10.00">TTrainController::CheckSession</text>
<text text-anchor="middle" x="974.5" y="-335.3" font-family="Helvetica,sans-Serif" font-size="10.00">ContinuationAutoSigEntries</text>
</a>
</g>
</g>
<!-- Node2&#45;&gt;Node3 -->
<g id="edge2" class="edge">
<title>Node2&#45;&gt;Node3</title>
<path fill="none" stroke="midnightblue" d="M1116.93,-422.18C1083.01,-403.26 1032.99,-375.36 1002.42,-358.32"/>
<polygon fill="midnightblue" stroke="midnightblue" points="1115.6,-425.45 1126.04,-427.26 1119.01,-419.34 1115.6,-425.45"/>
</g>
<!-- Node4 -->
<g id="node4" class="node">
<title>Node4</title>
<g id="a_node4"><a xlink:href="class_t_interface.html#a3904f26b67b9512507960187b37b6f7b" target="_top" xlink:title="Checks session file integrity prior to loading, true for success.">
<polygon fill="white" stroke="black" points="513,-305.3 513,-335.3 663,-335.3 663,-305.3 513,-305.3"/>
<text text-anchor="start" x="521" y="-323.3" font-family="Helvetica,sans-Serif" font-size="10.00">TInterface::SessionFileIntegrity</text>
<text text-anchor="middle" x="588" y="-312.3" font-family="Helvetica,sans-Serif" font-size="10.00">Check</text>
</a>
</g>
</g>
<!-- Node2&#45;&gt;Node4 -->
<g id="edge13" class="edge">
<title>Node2&#45;&gt;Node4</title>
<path fill="none" stroke="midnightblue" d="M1137.55,-466.09C1119.98,-490.73 1088.77,-527.76 1051,-543.3 978.38,-573.17 763.7,-556.8 699,-512.3 634.43,-467.89 602.92,-372.34 592.78,-335.35"/>
<polygon fill="midnightblue" stroke="midnightblue" points="1140.59,-467.85 1143.4,-457.63 1134.83,-463.87 1140.59,-467.85"/>
</g>
<!-- Node8 -->
<g id="node8" class="node">
<title>Node8</title>
<g id="a_node8"><a xlink:href="class_t_train_controller.html#a4d5ebc5a4b6dda080840913822f3f238" target="_top" xlink:title="Part of the session file integrity check for locked routes, true for success.">
<polygon fill="white" stroke="black" points="898,-416.3 898,-446.3 1051,-446.3 1051,-416.3 898,-416.3"/>
<text text-anchor="start" x="906" y="-434.3" font-family="Helvetica,sans-Serif" font-size="10.00">TTrainController::CheckSession</text>
<text text-anchor="middle" x="974.5" y="-423.3" font-family="Helvetica,sans-Serif" font-size="10.00">LockedRoutes</text>
</a>
</g>
</g>
<!-- Node2&#45;&gt;Node8 -->
<g id="edge7" class="edge">
<title>Node2&#45;&gt;Node8</title>
<path fill="none" stroke="midnightblue" d="M1079.78,-437.76C1070.32,-437.18 1060.63,-436.58 1051.13,-435.99"/>
<polygon fill="midnightblue" stroke="midnightblue" points="1079.72,-441.27 1089.92,-438.39 1080.16,-434.28 1079.72,-441.27"/>
</g>
<!-- Node9 -->
<g id="node9" class="node">
<title>Node9</title>
<g id="a_node9"><a xlink:href="class_t_train_controller.html#a53fb58a1ae6103601a24ad2162f86f58" target="_top" xlink:title="Part of the session file integrity check for train entries, true for success.">
<polygon fill="white" stroke="black" points="704,-412.3 704,-442.3 857,-442.3 857,-412.3 704,-412.3"/>
<text text-anchor="start" x="712" y="-430.3" font-family="Helvetica,sans-Serif" font-size="10.00">TTrainController::CheckSession</text>
<text text-anchor="middle" x="780.5" y="-419.3" font-family="Helvetica,sans-Serif" font-size="10.00">Trains</text>
</a>
</g>
</g>
<!-- Node2&#45;&gt;Node9 -->
<g id="edge9" class="edge">
<title>Node2&#45;&gt;Node9</title>
<path fill="none" stroke="midnightblue" d="M1079.74,-452.77C1070.09,-453.82 1060.32,-454.71 1051,-455.3 983.14,-459.61 965.53,-463.3 898,-455.3 876.31,-452.73 852.81,-447.56 832.64,-442.35"/>
<polygon fill="midnightblue" stroke="midnightblue" points="1080.19,-456.24 1089.73,-451.63 1079.4,-449.29 1080.19,-456.24"/>
</g>
<!-- Node2&#45;&gt;Node10 -->
<g id="edge11" class="edge">
<title>Node2&#45;&gt;Node10</title>
<path fill="none" stroke="midnightblue" d="M1112.41,-461.61C1093.8,-470.3 1071.39,-480.56 1051,-489.3 1039.2,-494.36 1026.25,-499.61 1014.46,-504.28"/>
<polygon fill="midnightblue" stroke="midnightblue" points="1113.93,-464.76 1121.49,-457.35 1110.95,-458.43 1113.93,-464.76"/>
</g>
<!-- Node3&#45;&gt;Node4 -->
<g id="edge3" class="edge">
<title>Node3&#45;&gt;Node4</title>
<path fill="none" stroke="midnightblue" d="M887.81,-338.17C820.35,-334.14 727.28,-328.57 663.03,-324.73"/>
<polygon fill="midnightblue" stroke="midnightblue" points="887.8,-341.68 897.99,-338.78 888.22,-334.69 887.8,-341.68"/>
</g>
<!-- Node5 -->
<g id="node5" class="node">
<title>Node5</title>
<g id="a_node5"><a xlink:href="class_t_interface.html#a636b1b4bd29f2678a3290ed2d282f1c2" target="_top" xlink:title="Load a session file.">
<polygon fill="white" stroke="black" points="345,-310.8 345,-329.8 466,-329.8 466,-310.8 345,-310.8"/>
<text text-anchor="middle" x="405.5" y="-317.8" font-family="Helvetica,sans-Serif" font-size="10.00">TInterface::LoadSession</text>
</a>
</g>
</g>
<!-- Node4&#45;&gt;Node5 -->
<g id="edge4" class="edge">
<title>Node4&#45;&gt;Node5</title>
<path fill="none" stroke="midnightblue" d="M502.52,-320.3C490.21,-320.3 477.76,-320.3 466.09,-320.3"/>
<polygon fill="midnightblue" stroke="midnightblue" points="502.8,-323.8 512.8,-320.3 502.8,-316.8 502.8,-323.8"/>
</g>
<!-- Node6 -->
<g id="node6" class="node">
<title>Node6</title>
<g id="a_node6"><a xlink:href="class_t_interface.html#a6139ffb52492eb89e5487a8a3cd647b5" target="_top" xlink:title="The main loop, called every clock tick via MasterClockTimer.">
<polygon fill="white" stroke="black" points="179,-310.8 179,-329.8 298,-329.8 298,-310.8 179,-310.8"/>
<text text-anchor="middle" x="238.5" y="-317.8" font-family="Helvetica,sans-Serif" font-size="10.00">TInterface::ClockTimer2</text>
</a>
</g>
</g>
<!-- Node5&#45;&gt;Node6 -->
<g id="edge5" class="edge">
<title>Node5&#45;&gt;Node6</title>
<path fill="none" stroke="midnightblue" d="M334.8,-320.3C322.6,-320.3 310.01,-320.3 298.15,-320.3"/>
<polygon fill="midnightblue" stroke="midnightblue" points="334.93,-323.8 344.93,-320.3 334.93,-316.8 334.93,-323.8"/>
</g>
<!-- Node7 -->
<g id="node7" class="node">
<title>Node7</title>
<g id="a_node7"><a xlink:href="class_t_interface.html#ace30a12d923fc7fb489afabb0a09aa4f" target="_top" xlink:title=" ">
<polygon fill="white" stroke="black" points="0,-310.8 0,-329.8 143,-329.8 143,-310.8 0,-310.8"/>
<text text-anchor="middle" x="71.5" y="-317.8" font-family="Helvetica,sans-Serif" font-size="10.00">TInterface::MasterClockTimer</text>
</a>
</g>
</g>
<!-- Node6&#45;&gt;Node7 -->
<g id="edge6" class="edge">
<title>Node6&#45;&gt;Node7</title>
<path fill="none" stroke="midnightblue" d="M168.67,-320.3C160.22,-320.3 151.57,-320.3 143.09,-320.3"/>
<polygon fill="midnightblue" stroke="midnightblue" points="168.86,-323.8 178.86,-320.3 168.86,-316.8 168.86,-323.8"/>
</g>
<!-- Node8&#45;&gt;Node4 -->
<g id="edge8" class="edge">
<title>Node8&#45;&gt;Node4</title>
<path fill="none" stroke="midnightblue" d="M922.26,-449.39C865,-466.45 770.91,-484.82 699,-451.3 646.78,-426.96 610.54,-364.28 596.04,-335.35"/>
<polygon fill="midnightblue" stroke="midnightblue" points="923.64,-452.63 932.17,-446.35 921.58,-445.94 923.64,-452.63"/>
</g>
<!-- Node9&#45;&gt;Node4 -->
<g id="edge10" class="edge">
<title>Node9&#45;&gt;Node4</title>
<path fill="none" stroke="midnightblue" d="M723.63,-408.59C715.22,-405.17 706.77,-401.38 699,-397.3 664.74,-379.3 628.66,-352.27 607.53,-335.49"/>
<polygon fill="midnightblue" stroke="midnightblue" points="722.48,-411.9 733.07,-412.29 725.03,-405.38 722.48,-411.9"/>
</g>
<!-- Node10&#45;&gt;Node4 -->
<g id="edge12" class="edge">
<title>Node10&#45;&gt;Node4</title>
<path fill="none" stroke="midnightblue" d="M897,-522.5C838.65,-521.47 758.45,-512.26 699,-475.3 643.8,-440.98 608.41,-367.69 595.04,-335.73"/>
<polygon fill="midnightblue" stroke="midnightblue" points="897.23,-526 907.27,-522.6 897.3,-519 897.23,-526"/>
</g>
<!-- Node12 -->
<g id="node12" class="node">
<title>Node12</title>
<g id="a_node12"><a xlink:href="class_t_track.html#a3ff62ece81af00462951a989f3cee4e5" target="_top" xlink:title=" ">
<polygon fill="white" stroke="black" points="901.5,-251.8 901.5,-270.8 1047.5,-270.8 1047.5,-251.8 901.5,-251.8"/>
<text text-anchor="middle" x="974.5" y="-258.8" font-family="Helvetica,sans-Serif" font-size="10.00">TTrack::CheckActiveLCVector</text>
</a>
</g>
</g>
<!-- Node11&#45;&gt;Node12 -->
<g id="edge15" class="edge">
<title>Node11&#45;&gt;Node12</title>
<path fill="none" stroke="midnightblue" d="M1082.15,-272.72C1070.84,-271.51 1059.12,-270.25 1047.77,-269.04"/>
<polygon fill="midnightblue" stroke="midnightblue" points="1082.1,-276.23 1092.41,-273.81 1082.84,-269.27 1082.1,-276.23"/>
</g>
<!-- Node11&#45;&gt;Node13 -->
<g id="edge17" class="edge">
<title>Node11&#45;&gt;Node13</title>
<path fill="none" stroke="midnightblue" d="M1116.89,-267.33C1107.17,-263.8 1096.67,-259.94 1087,-256.3 1070.93,-250.26 1067.36,-247.52 1051,-242.3 1040.18,-238.85 1028.34,-235.62 1017.3,-232.83"/>
<polygon fill="midnightblue" stroke="midnightblue" points="1115.7,-270.63 1126.3,-270.74 1118.09,-264.04 1115.7,-270.63"/>
</g>
<!-- Node14 -->
<g id="node14" class="node">
<title>Node14</title>
<g id="a_node14"><a xlink:href="class_t_train.html#aad716bab6f8f4aa6dd49f35130d28dd9" target="_top" xlink:title="Carries out an integrity check for the train section of a session file, if fails a message is given a...">
<polygon fill="white" stroke="black" points="899,-289.8 899,-308.8 1050,-308.8 1050,-289.8 899,-289.8"/>
<text text-anchor="middle" x="974.5" y="-296.8" font-family="Helvetica,sans-Serif" font-size="10.00">TTrain::CheckOneSessionTrain</text>
</a>
</g>
</g>
<!-- Node11&#45;&gt;Node14 -->
<g id="edge19" class="edge">
<title>Node11&#45;&gt;Node14</title>
<path fill="none" stroke="midnightblue" d="M1082.41,-287.86C1071.84,-288.99 1060.91,-290.16 1050.26,-291.3"/>
<polygon fill="midnightblue" stroke="midnightblue" points="1082.84,-291.33 1092.41,-286.79 1082.1,-284.37 1082.84,-291.33"/>
</g>
<!-- Node12&#45;&gt;Node4 -->
<g id="edge16" class="edge">
<title>Node12&#45;&gt;Node4</title>
<path fill="none" stroke="midnightblue" d="M901.1,-272.41C833.12,-282.84 731.89,-298.37 663.3,-308.9"/>
<polygon fill="midnightblue" stroke="midnightblue" points="901.94,-275.82 911.3,-270.85 900.88,-268.9 901.94,-275.82"/>
</g>
<!-- Node13&#45;&gt;Node4 -->
<g id="edge18" class="edge">
<title>Node13&#45;&gt;Node4</title>
<path fill="none" stroke="midnightblue" d="M899.58,-233.67C843.8,-242.43 765.75,-256.7 699,-276.3 672.56,-284.07 643.66,-295.76 622.12,-305.14"/>
<polygon fill="midnightblue" stroke="midnightblue" points="900.38,-237.09 909.72,-232.1 899.31,-230.17 900.38,-237.09"/>
</g>
<!-- Node14&#45;&gt;Node9 -->
<g id="edge20" class="edge">
<title>Node14&#45;&gt;Node9</title>
<path fill="none" stroke="midnightblue" d="M911.38,-312.17C906.74,-313.96 902.23,-315.99 898,-318.3 853.26,-342.7 812.65,-388.34 793.35,-412.08"/>
<polygon fill="midnightblue" stroke="midnightblue" points="912.72,-315.41 921.02,-308.83 910.42,-308.8 912.72,-315.41"/>
</g>
<!-- Node15&#45;&gt;Node3 -->
<g id="edge25" class="edge">
<title>Node15&#45;&gt;Node3</title>
<path fill="none" stroke="midnightblue" d="M1076.98,-329.01C1068.44,-330.21 1059.75,-331.43 1051.22,-332.64"/>
<polygon fill="midnightblue" stroke="midnightblue" points="1077.49,-332.47 1086.91,-327.61 1076.52,-325.54 1077.49,-332.47"/>
</g>
<!-- Node15&#45;&gt;Node4 -->
<g id="edge27" class="edge">
<title>Node15&#45;&gt;Node4</title>
<path fill="none" stroke="midnightblue" d="M1129.88,-333.13C1109.9,-345.01 1079.77,-360.75 1051,-367.3 902.62,-401.09 721.89,-359.5 637.18,-335.32"/>
<polygon fill="midnightblue" stroke="midnightblue" points="1131.86,-336.02 1138.57,-327.83 1128.21,-330.05 1131.86,-336.02"/>
</g>
<!-- Node15&#45;&gt;Node8 -->
<g id="edge26" class="edge">
<title>Node15&#45;&gt;Node8</title>
<path fill="none" stroke="midnightblue" d="M1135.95,-334.96C1116.62,-353.14 1083.56,-382.19 1051,-401.3 1041.39,-406.94 1030.52,-411.96 1020.09,-416.2"/>
<polygon fill="midnightblue" stroke="midnightblue" points="1138.53,-337.33 1143.34,-327.89 1133.69,-332.27 1138.53,-337.33"/>
</g>
<!-- Node15&#45;&gt;Node12 -->
<g id="edge22" class="edge">
<title>Node15&#45;&gt;Node12</title>
<path fill="none" stroke="midnightblue" d="M1105.2,-305.8C1099.01,-303.82 1092.81,-301.64 1087,-299.3 1070.22,-292.54 1067.89,-286.78 1051,-280.3 1041.41,-276.62 1030.86,-273.46 1020.76,-270.82"/>
<polygon fill="midnightblue" stroke="midnightblue" points="1104.27,-309.18 1114.85,-308.76 1106.32,-302.49 1104.27,-309.18"/>
</g>
<!-- Node15&#45;&gt;Node13 -->
<g id="edge23" class="edge">
<title>Node15&#45;&gt;Node13</title>
<path fill="none" stroke="midnightblue" d="M1094.96,-304.38C1092.17,-302.86 1089.49,-301.17 1087,-299.3 1063.04,-281.31 1075.26,-259.88 1051,-242.3 1045.64,-238.41 1039.56,-235.32 1033.24,-232.86"/>
<polygon fill="midnightblue" stroke="midnightblue" points="1093.65,-307.63 1104.19,-308.7 1096.61,-301.29 1093.65,-307.63"/>
</g>
<!-- Node15&#45;&gt;Node14 -->
<g id="edge24" class="edge">
<title>Node15&#45;&gt;Node14</title>
<path fill="none" stroke="midnightblue" d="M1076.93,-310.16C1068.01,-309.2 1058.91,-308.23 1050.01,-307.28"/>
<polygon fill="midnightblue" stroke="midnightblue" points="1076.59,-313.64 1086.91,-311.23 1077.33,-306.68 1076.59,-313.64"/>
</g>
<!-- Node16&#45;&gt;Node3 -->
<g id="edge36" class="edge">
<title>Node16&#45;&gt;Node3</title>
<path fill="none" stroke="midnightblue" d="M1131.89,-219.89C1118.17,-230.63 1100.42,-245.72 1087,-261.3 1067.45,-284.01 1074.6,-299.84 1051,-318.3 1046.11,-322.13 1040.6,-325.38 1034.85,-328.15"/>
<polygon fill="midnightblue" stroke="midnightblue" points="1134.02,-222.66 1139.83,-213.8 1129.77,-217.11 1134.02,-222.66"/>
</g>
<!-- Node16&#45;&gt;Node4 -->
<g id="edge48" class="edge">
<title>Node16&#45;&gt;Node4</title>
<path fill="none" stroke="midnightblue" d="M1086.92,-201.42C1035.38,-199.87 962.02,-199.19 898,-204.3 808.7,-211.43 781.31,-200.94 699,-236.3 660.59,-252.81 623.57,-285.68 603.8,-305.05"/>
<polygon fill="midnightblue" stroke="midnightblue" points="1086.83,-204.92 1096.93,-201.74 1087.05,-197.92 1086.83,-204.92"/>
</g>
<!-- Node16&#45;&gt;Node8 -->
<g id="edge37" class="edge">
<title>Node16&#45;&gt;Node8</title>
<path fill="none" stroke="midnightblue" d="M1129.57,-219.68C1115.5,-229.98 1098.21,-244.66 1087,-261.3 1059.2,-302.56 1078.99,-326.17 1051,-367.3 1037.37,-387.33 1015.85,-404.71 999.27,-416.28"/>
<polygon fill="midnightblue" stroke="midnightblue" points="1131.67,-222.48 1137.83,-213.86 1127.64,-216.76 1131.67,-222.48"/>
</g>
<!-- Node16&#45;&gt;Node10 -->
<g id="edge38" class="edge">
<title>Node16&#45;&gt;Node10</title>
<path fill="none" stroke="midnightblue" d="M1128.17,-219.53C1113.88,-229.61 1096.86,-244.12 1087,-261.3 1043.35,-337.36 1095,-379.44 1051,-455.3 1039.1,-475.81 1018.09,-492.81 1001.25,-504.12"/>
<polygon fill="midnightblue" stroke="midnightblue" points="1130.28,-222.33 1136.62,-213.84 1126.37,-216.52 1130.28,-222.33"/>
</g>
<!-- Node16&#45;&gt;Node12 -->
<g id="edge29" class="edge">
<title>Node16&#45;&gt;Node12</title>
<path fill="none" stroke="midnightblue" d="M1119.86,-217.7C1100.07,-225.44 1074.31,-235.05 1051,-242.3 1040.03,-245.71 1028.02,-248.95 1016.87,-251.76"/>
<polygon fill="midnightblue" stroke="midnightblue" points="1121.33,-220.88 1129.35,-213.96 1118.76,-214.37 1121.33,-220.88"/>
</g>
<!-- Node16&#45;&gt;Node13 -->
<g id="edge30" class="edge">
<title>Node16&#45;&gt;Node13</title>
<path fill="none" stroke="midnightblue" d="M1086.74,-211.39C1071.12,-213.06 1054.51,-214.84 1039.02,-216.5"/>
<polygon fill="midnightblue" stroke="midnightblue" points="1087.27,-214.86 1096.84,-210.31 1086.52,-207.9 1087.27,-214.86"/>
</g>
<!-- Node16&#45;&gt;Node14 -->
<g id="edge35" class="edge">
<title>Node16&#45;&gt;Node14</title>
<path fill="none" stroke="midnightblue" d="M1135.49,-220.79C1116.22,-238.06 1083.64,-264.8 1051,-280.3 1042.94,-284.13 1034.02,-287.24 1025.22,-289.76"/>
<polygon fill="midnightblue" stroke="midnightblue" points="1137.87,-223.36 1142.89,-214.03 1133.15,-218.19 1137.87,-223.36"/>
</g>
<!-- Node17 -->
<g id="node17" class="node">
<title>Node17</title>
<g id="a_node17"><a xlink:href="class_t_one_pref_dir.html#a1896affce3465b84cfd5128cca122639" target="_top" xlink:title="Called before PrefDir loading as part of the FileIntegrityCheck function in case there is an error in...">
<polygon fill="white" stroke="black" points="899.5,-137.8 899.5,-156.8 1049.5,-156.8 1049.5,-137.8 899.5,-137.8"/>
<text text-anchor="middle" x="974.5" y="-144.8" font-family="Helvetica,sans-Serif" font-size="10.00">TOnePrefDir::CheckOnePrefDir</text>
</a>
</g>
</g>
<!-- Node16&#45;&gt;Node17 -->
<g id="edge31" class="edge">
<title>Node16&#45;&gt;Node17</title>
<path fill="none" stroke="midnightblue" d="M1114.03,-191.64C1095.03,-185.48 1071.83,-177.98 1051,-171.3 1036.07,-166.51 1019.46,-161.23 1005.64,-156.84"/>
<polygon fill="midnightblue" stroke="midnightblue" points="1112.96,-194.97 1123.55,-194.73 1115.12,-188.32 1112.96,-194.97"/>
</g>
<!-- Node16&#45;&gt;Node19 -->
<g id="edge39" class="edge">
<title>Node16&#45;&gt;Node19</title>
<path fill="none" stroke="midnightblue" d="M1130.28,-189.17C1117.39,-180.42 1101.07,-169.04 1087,-158.3 1070.44,-145.67 1069.2,-138.42 1051,-128.3 1044.24,-124.54 1036.83,-121.24 1029.37,-118.36"/>
<polygon fill="midnightblue" stroke="midnightblue" points="1128.34,-192.09 1138.59,-194.78 1132.25,-186.28 1128.34,-192.09"/>
</g>
<!-- Node20 -->
<g id="node20" class="node">
<title>Node20</title>
<g id="a_node20"><a xlink:href="class_t_interface.html#a1072fd152bca3234e6730efa17f84670" target="_top" xlink:title="Check integrity of a railway file prior to loading, return true for success.">
<polygon fill="white" stroke="black" points="723,-47.3 723,-77.3 838,-77.3 838,-47.3 723,-47.3"/>
<text text-anchor="start" x="731" y="-65.3" font-family="Helvetica,sans-Serif" font-size="10.00">TInterface::FileIntegrity</text>
<text text-anchor="middle" x="780.5" y="-54.3" font-family="Helvetica,sans-Serif" font-size="10.00">Check</text>
</a>
</g>
</g>
<!-- Node16&#45;&gt;Node20 -->
<g id="edge47" class="edge">
<title>Node16&#45;&gt;Node20</title>
<path fill="none" stroke="midnightblue" d="M1144.33,-185.75C1129.7,-156.87 1097.13,-102.01 1051,-78.3 984.09,-43.91 895.15,-46.35 838.1,-52.96"/>
<polygon fill="midnightblue" stroke="midnightblue" points="1141.21,-187.35 1148.75,-194.79 1147.5,-184.27 1141.21,-187.35"/>
</g>
<!-- Node16&#45;&gt;Node23 -->
<g id="edge44" class="edge">
<title>Node16&#45;&gt;Node23</title>
<path fill="none" stroke="midnightblue" d="M1145.72,-184.86C1132.2,-151.41 1100.08,-82.93 1051,-45.3 1042.81,-39.02 1032.94,-34.37 1023.08,-30.92"/>
<polygon fill="midnightblue" stroke="midnightblue" points="1142.55,-186.37 1149.45,-194.41 1149.07,-183.82 1142.55,-186.37"/>
</g>
<!-- Node17&#45;&gt;Node4 -->
<g id="edge34" class="edge">
<title>Node17&#45;&gt;Node4</title>
<path fill="none" stroke="midnightblue" d="M912.85,-136.42C854.27,-129.08 764.97,-126.49 699,-163.3 641.16,-195.57 606.78,-272.54 594.33,-305.22"/>
<polygon fill="midnightblue" stroke="midnightblue" points="912.68,-139.93 923.06,-137.78 913.61,-132.99 912.68,-139.93"/>
</g>
<!-- Node18 -->
<g id="node18" class="node">
<title>Node18</title>
<g id="a_node18"><a xlink:href="class_t_all_routes.html#ad151a9c7a0ad304f0f5c5c6b523ffb2e" target="_top" xlink:title="Performs an integrity check on the routes stored in a session file and returns false if there is an e...">
<polygon fill="white" stroke="black" points="716.5,-172.8 716.5,-191.8 844.5,-191.8 844.5,-172.8 716.5,-172.8"/>
<text text-anchor="middle" x="780.5" y="-179.8" font-family="Helvetica,sans-Serif" font-size="10.00">TAllRoutes::CheckRoutes</text>
</a>
</g>
</g>
<!-- Node17&#45;&gt;Node18 -->
<g id="edge32" class="edge">
<title>Node17&#45;&gt;Node18</title>
<path fill="none" stroke="midnightblue" d="M911.16,-158.66C886.14,-163.23 857.61,-168.43 833.7,-172.78"/>
<polygon fill="midnightblue" stroke="midnightblue" points="912.08,-162.05 921.29,-156.82 910.82,-155.17 912.08,-162.05"/>
</g>
<!-- Node18&#45;&gt;Node4 -->
<g id="edge33" class="edge">
<title>Node18&#45;&gt;Node4</title>
<path fill="none" stroke="midnightblue" d="M722.89,-195.13C714.57,-198.15 706.34,-201.83 699,-206.3 655.53,-232.74 617.44,-280.5 599.66,-304.96"/>
<polygon fill="midnightblue" stroke="midnightblue" points="724.27,-198.36 732.65,-191.88 722.05,-191.72 724.27,-198.36"/>
</g>
<!-- Node19&#45;&gt;Node4 -->
<g id="edge43" class="edge">
<title>Node19&#45;&gt;Node4</title>
<path fill="none" stroke="midnightblue" d="M891.5,-91.84C833.32,-87.97 755.79,-91.84 699,-128.3 632.89,-170.74 602.21,-267.9 592.54,-305.27"/>
<polygon fill="midnightblue" stroke="midnightblue" points="891.53,-95.35 901.76,-92.62 892.06,-88.37 891.53,-95.35"/>
</g>
<!-- Node19&#45;&gt;Node20 -->
<g id="edge40" class="edge">
<title>Node19&#45;&gt;Node20</title>
<path fill="none" stroke="midnightblue" d="M893.2,-86.15C874.68,-82.2 855.35,-78.07 838.08,-74.38"/>
<polygon fill="midnightblue" stroke="midnightblue" points="892.59,-89.6 903.1,-88.27 894.05,-82.76 892.59,-89.6"/>
</g>
<!-- Node21 -->
<g id="node21" class="node">
<title>Node21</title>
<g id="a_node21"><a xlink:href="class_t_interface.html#a95c3545a30171ca5a08e34c58160079c" target="_top" xlink:title="Load a railway file. The Active elements marker now has a &#39;1&#39; at the end if there are user graphics t...">
<polygon fill="white" stroke="black" points="528.5,-52.8 528.5,-71.8 647.5,-71.8 647.5,-52.8 528.5,-52.8"/>
<text text-anchor="middle" x="588" y="-59.8" font-family="Helvetica,sans-Serif" font-size="10.00">TInterface::LoadRailway</text>
</a>
</g>
</g>
<!-- Node20&#45;&gt;Node21 -->
<g id="edge41" class="edge">
<title>Node20&#45;&gt;Node21</title>
<path fill="none" stroke="midnightblue" d="M712.66,-62.3C691.5,-62.3 668.28,-62.3 647.74,-62.3"/>
<polygon fill="midnightblue" stroke="midnightblue" points="712.86,-65.8 722.86,-62.3 712.86,-58.8 712.86,-65.8"/>
</g>
<!-- Node22 -->
<g id="node22" class="node">
<title>Node22</title>
<g id="a_node22"><a xlink:href="class_t_interface.html#a96249c7622a9d55541de186483e04d2e" target="_top" xlink:title=" ">
<polygon fill="white" stroke="black" points="334,-47.3 334,-77.3 477,-77.3 477,-47.3 334,-47.3"/>
<text text-anchor="start" x="342" y="-65.3" font-family="Helvetica,sans-Serif" font-size="10.00">TInterface::LoadRailwayMenu</text>
<text text-anchor="middle" x="405.5" y="-54.3" font-family="Helvetica,sans-Serif" font-size="10.00">ItemClick</text>
</a>
</g>
</g>
<!-- Node21&#45;&gt;Node22 -->
<g id="edge42" class="edge">
<title>Node21&#45;&gt;Node22</title>
<path fill="none" stroke="midnightblue" d="M518.25,-62.3C504.77,-62.3 490.62,-62.3 477.09,-62.3"/>
<polygon fill="midnightblue" stroke="midnightblue" points="518.4,-65.8 528.4,-62.3 518.4,-58.8 518.4,-65.8"/>
</g>
<!-- Node23&#45;&gt;Node4 -->
<g id="edge46" class="edge">
<title>Node23&#45;&gt;Node4</title>
<path fill="none" stroke="midnightblue" d="M925.72,-9.74C866.53,1.63 765.4,11.03 699,-37.3 652.76,-70.96 605.87,-250.9 592.66,-304.94"/>
<polygon fill="midnightblue" stroke="midnightblue" points="925.07,-13.18 935.56,-11.72 926.45,-6.32 925.07,-13.18"/>
</g>
<!-- Node23&#45;&gt;Node20 -->
<g id="edge45" class="edge">
<title>Node23&#45;&gt;Node20</title>
<path fill="none" stroke="midnightblue" d="M919.17,-32.9C893.87,-38.3 863.78,-44.73 838.2,-50.19"/>
<polygon fill="midnightblue" stroke="midnightblue" points="919.92,-36.32 928.97,-30.81 918.46,-29.48 919.92,-36.32"/>
</g>
<!-- Node24&#45;&gt;Node4 -->
<g id="edge51" class="edge">
<title>Node24&#45;&gt;Node4</title>
<path fill="none" stroke="midnightblue" d="M714.23,-587.5C708.72,-584.7 703.53,-581.34 699,-577.3 622.74,-509.32 597.52,-379.37 590.96,-335.33"/>
<polygon fill="midnightblue" stroke="midnightblue" points="713.19,-590.86 723.75,-591.69 716.01,-584.46 713.19,-590.86"/>
</g>
</g>
</svg>
