<?xml version="1.0" encoding="UTF-8" standalone="no"?>
<!DOCTYPE svg PUBLIC "-//W3C//DTD SVG 1.1//EN"
 "http://www.w3.org/Graphics/SVG/1.1/DTD/svg11.dtd">
<!-- Generated by graphviz version 2.44.1 (20200629.0800)
 -->
<!-- Title: TInterface::MajorFailuresMenuItemClick Pages: 1 -->
<svg width="467pt" height="85pt"
 viewBox="0.00 0.00 467.00 85.00" xmlns="http://www.w3.org/2000/svg" xmlns:xlink="http://www.w3.org/1999/xlink">
<g id="graph0" class="graph" transform="scale(1 1) rotate(0) translate(4 81)">
<title>TInterface::MajorFailuresMenuItemClick</title>
<polygon fill="white" stroke="transparent" points="-4,4 -4,-81 463,-81 463,4 -4,4"/>
<!-- Node1 -->
<g id="node1" class="node">
<title>Node1</title>
<g id="a_node1"><a xlink:title=" ">
<polygon fill="#bfbfbf" stroke="black" points="0,-33 0,-63 123,-63 123,-33 0,-33"/>
<text text-anchor="start" x="8" y="-51" font-family="Helvetica,sans-Serif" font-size="10.00">TInterface::MajorFailures</text>
<text text-anchor="middle" x="61.5" y="-40" font-family="Helvetica,sans-Serif" font-size="10.00">MenuItemClick</text>
</a>
</g>
</g>
<!-- Node2 -->
<g id="node2" class="node">
<title>Node2</title>
<g id="a_node2"><a xlink:href="class_t_utilities.html#a2dfbe3d4ed11770bc1a902b51afdc10c" target="_top" xlink:title="formats a TDateTime into an AnsiString of the form hh:mm:ss where hh runs from 00 to 95 &amp; resets when...">
<polygon fill="white" stroke="black" points="163.5,-57.5 163.5,-76.5 308.5,-76.5 308.5,-57.5 163.5,-57.5"/>
<text text-anchor="middle" x="236" y="-64.5" font-family="Helvetica,sans-Serif" font-size="10.00">TUtilities::Format96HHMMSS</text>
</a>
</g>
</g>
<!-- Node1&#45;&gt;Node2 -->
<g id="edge1" class="edge">
<title>Node1&#45;&gt;Node2</title>
<path fill="none" stroke="midnightblue" d="M123.32,-54.7C132.99,-55.76 143.14,-56.88 153.2,-57.99"/>
<polygon fill="midnightblue" stroke="midnightblue" points="152.89,-61.48 163.22,-59.09 153.66,-54.52 152.89,-61.48"/>
</g>
<!-- Node3 -->
<g id="node3" class="node">
<title>Node3</title>
<g id="a_node3"><a xlink:href="class_t_perf_log_form.html#a72f06bf03353c15c94ceefbf420ff7b4" target="_top" xlink:title="Send Statement to the performance log on screen and to the file.">
<polygon fill="white" stroke="black" points="159,-19.5 159,-38.5 313,-38.5 313,-19.5 159,-19.5"/>
<text text-anchor="middle" x="236" y="-26.5" font-family="Helvetica,sans-Serif" font-size="10.00">TPerfLogForm::PerformanceLog</text>
</a>
</g>
</g>
<!-- Node1&#45;&gt;Node3 -->
<g id="edge2" class="edge">
<title>Node1&#45;&gt;Node3</title>
<path fill="none" stroke="midnightblue" d="M123.32,-41.3C131.54,-40.4 140.11,-39.45 148.68,-38.51"/>
<polygon fill="midnightblue" stroke="midnightblue" points="149.16,-41.98 158.71,-37.4 148.39,-35.02 149.16,-41.98"/>
</g>
<!-- Node4 -->
<g id="node4" class="node">
<title>Node4</title>
<g id="a_node4"><a xlink:href="class_t_utilities.html#ae1eddca13cc3c492839e131f40ec21c0" target="_top" xlink:title="pops the last entry off the call stack, throws an error if called when empty">
<polygon fill="white" stroke="black" points="349,-38.5 349,-57.5 459,-57.5 459,-38.5 349,-38.5"/>
<text text-anchor="middle" x="404" y="-45.5" font-family="Helvetica,sans-Serif" font-size="10.00">TUtilities::CallLogPop</text>
</a>
</g>
</g>
<!-- Node3&#45;&gt;Node4 -->
<g id="edge3" class="edge">
<title>Node3&#45;&gt;Node4</title>
<path fill="none" stroke="midnightblue" d="M313.2,-37.72C321.68,-38.69 330.26,-39.67 338.58,-40.63"/>
<polygon fill="midnightblue" stroke="midnightblue" points="338.23,-44.11 348.57,-41.77 339.03,-37.16 338.23,-44.11"/>
</g>
<!-- Node5 -->
<g id="node5" class="node">
<title>Node5</title>
<g id="a_node5"><a xlink:href="class_t_utilities.html#a34bd6bb5305bc29afdf424f6d35a921c" target="_top" xlink:title="creates a string of the form &#39;hh:mm:ss&#39; for use in call &amp; event logging">
<polygon fill="white" stroke="black" points="349,-0.5 349,-19.5 459,-19.5 459,-0.5 349,-0.5"/>
<text text-anchor="middle" x="404" y="-7.5" font-family="Helvetica,sans-Serif" font-size="10.00">TUtilities::TimeStamp</text>
</a>
</g>
</g>
<!-- Node3&#45;&gt;Node5 -->
<g id="edge4" class="edge">
<title>Node3&#45;&gt;Node5</title>
<path fill="none" stroke="midnightblue" d="M313.2,-20.28C321.68,-19.31 330.26,-18.33 338.58,-17.37"/>
<polygon fill="midnightblue" stroke="midnightblue" points="339.03,-20.84 348.57,-16.23 338.23,-13.89 339.03,-20.84"/>
</g>
</g>
</svg>
