<?xml version="1.0" encoding="UTF-8" standalone="no"?>
<!DOCTYPE svg PUBLIC "-//W3C//DTD SVG 1.1//EN"
 "http://www.w3.org/Graphics/SVG/1.1/DTD/svg11.dtd">
<!-- Generated by graphviz version 2.44.1 (20200629.0800)
 -->
<!-- Title: TAllRoutes::GetRouteElementDataFromRoute2MultiMap Pages: 1 -->
<!--zoomable 694 -->
<svg id="main" version="1.1" xmlns="http://www.w3.org/2000/svg" xmlns:xlink="http://www.w3.org/1999/xlink" xml:space="preserve" onload="init(evt)">
<style type="text/css"><![CDATA[
.edge:hover path { stroke: red; }
.edge:hover polygon { stroke: red; fill: red; }
]]></style>
<script type="text/javascript"><![CDATA[
var edges = document.getElementsByTagName('g');
if (edges && edges.length) {
  for (var i=0;i<edges.length;i++) {
    if (edges[i].id.substr(0,4)=='edge') {
      edges[i].setAttribute('class','edge');
    }
  }
}
]]></script>
        <defs>
                <circle id="rim" cx="0" cy="0" r="7"/>
                <circle id="rim2" cx="0" cy="0" r="3.5"/>
                <g id="zoomPlus">
                        <use xlink:href="#rim" fill="#404040">
                                <set attributeName="fill" to="#808080" begin="zoomplus.mouseover" end="zoomplus.mouseout"/>
                        </use>
                        <path d="M-4,0h8M0,-4v8" fill="none" stroke="white" stroke-width="1.5" pointer-events="none"/>
                </g>
                <g id="zoomMin">
                        <use xlink:href="#rim" fill="#404040">
                                <set attributeName="fill" to="#808080" begin="zoomminus.mouseover" end="zoomminus.mouseout"/>
                        </use>
                        <path d="M-4,0h8" fill="none" stroke="white" stroke-width="1.5" pointer-events="none"/>
                </g>
                <g id="dirArrow">
                        <path fill="none" stroke="white" stroke-width="1.5" d="M0,-3.0v7 M-2.5,-0.5L0,-3.0L2.5,-0.5"/>
                </g>
               <g id="resetDef">
                       <use xlink:href="#rim2" fill="#404040">
                               <set attributeName="fill" to="#808080" begin="reset.mouseover" end="reset.mouseout"/>
                       </use>
               </g>
        </defs>

<script type="text/javascript">
var viewWidth = 1680;
var viewHeight = 694;
var sectionId = 'dynsection-33';
</script>
<script xlink:href="svgpan.js"/>
<svg id="graph" class="graph">
<g id="viewport">
<title>TAllRoutes::GetRouteElementDataFromRoute2MultiMap</title>
<polygon fill="white" stroke="transparent" points="-4,4 -4,-689.5 1676,-689.5 1676,4 -4,4"/>
<!-- Node1 -->
<g id="node1" class="node">
<title>Node1</title>
<g id="a_node1"><a xlink:title="Retrieve up to two TRouteElementPair entries from Route2MultiMap at H &amp; V, the first as a function re...">
<polygon fill="#bfbfbf" stroke="black" points="1525,-251.5 1525,-281.5 1672,-281.5 1672,-251.5 1525,-251.5"/>
<text text-anchor="start" x="1533" y="-269.5" font-family="Helvetica,sans-Serif" font-size="10.00">TAllRoutes::GetRouteElement</text>
<text text-anchor="middle" x="1598.5" y="-258.5" font-family="Helvetica,sans-Serif" font-size="10.00">DataFromRoute2MultiMap</text>
</a>
</g>
</g>
<!-- Node2 -->
<g id="node2" class="node">
<title>Node2</title>
<g id="a_node2"><a xlink:href="class_t_train_controller.html#aa895b60238810a9d134cd5b9c886da56" target="_top" xlink:title="Introduce a new train to the railway, with the characteristics specified, returns true for success,...">
<polygon fill="white" stroke="black" points="955,-516 955,-535 1083,-535 1083,-516 955,-516"/>
<text text-anchor="middle" x="1019" y="-523" font-family="Helvetica,sans-Serif" font-size="10.00">TTrainController::AddTrain</text>
</a>
</g>
</g>
<!-- Node1&#45;&gt;Node2 -->
<g id="edge1" class="edge">
<title>Node1&#45;&gt;Node2</title>
<path fill="none" stroke="midnightblue" d="M1576.86,-288.99C1556.34,-310.2 1523.1,-341.62 1489,-361.5 1344.8,-445.56 1150.64,-496.24 1064.43,-515.98"/>
<polygon fill="midnightblue" stroke="midnightblue" points="1579.46,-291.34 1583.82,-281.68 1574.39,-286.51 1579.46,-291.34"/>
</g>
<!-- Node4 -->
<g id="node4" class="node">
<title>Node4</title>
<g id="a_node4"><a xlink:href="class_t_train.html#a89ad640ecf8f5163c40727b4e28575fc" target="_top" xlink:title="Major function called at each clock tick for each train &amp; handles all train movement &amp; associated act...">
<polygon fill="white" stroke="black" points="555.5,-410 555.5,-429 656.5,-429 656.5,-410 555.5,-410"/>
<text text-anchor="middle" x="606" y="-417" font-family="Helvetica,sans-Serif" font-size="10.00">TTrain::UpdateTrain</text>
</a>
</g>
</g>
<!-- Node1&#45;&gt;Node4 -->
<g id="edge60" class="edge">
<title>Node1&#45;&gt;Node4</title>
<path fill="none" stroke="midnightblue" d="M1591.85,-291.56C1579.95,-339.79 1548.35,-446.87 1489,-516.5 1398.51,-622.67 1364,-685.5 1224.5,-685.5 1224.5,-685.5 1224.5,-685.5 1018,-685.5 880.8,-685.5 837.19,-664.23 727,-582.5 667.73,-538.54 624.95,-457.02 611.49,-429.14"/>
<polygon fill="midnightblue" stroke="midnightblue" points="1595.3,-292.21 1594.22,-281.67 1588.49,-290.58 1595.3,-292.21"/>
</g>
<!-- Node9 -->
<g id="node9" class="node">
<title>Node9</title>
<g id="a_node9"><a xlink:href="class_t_all_routes.html#ae3fb64509afc46d5871c7843c7769f88" target="_top" xlink:title="As above but only checks for a route (may or may not be a train present (new at v1....">
<polygon fill="white" stroke="black" points="1349,-476.5 1349,-506.5 1486,-506.5 1486,-476.5 1349,-476.5"/>
<text text-anchor="start" x="1357" y="-494.5" font-family="Helvetica,sans-Serif" font-size="10.00">TAllRoutes::DiagonalFouled</text>
<text text-anchor="middle" x="1417.5" y="-483.5" font-family="Helvetica,sans-Serif" font-size="10.00">ByRoute</text>
</a>
</g>
</g>
<!-- Node1&#45;&gt;Node9 -->
<g id="edge10" class="edge">
<title>Node1&#45;&gt;Node9</title>
<path fill="none" stroke="midnightblue" d="M1586.7,-291.22C1569.82,-327.85 1534.37,-397.25 1489,-444.5 1476.88,-457.13 1460.79,-468.17 1447.04,-476.37"/>
<polygon fill="midnightblue" stroke="midnightblue" points="1590.02,-292.36 1590.96,-281.81 1583.65,-289.48 1590.02,-292.36"/>
</g>
<!-- Node11 -->
<g id="node11" class="node">
<title>Node11</title>
<g id="a_node11"><a xlink:href="class_t_all_routes.html#a2341a7e860e716e60b733f45814e4499" target="_top" xlink:title="The track geometry allows diagonals to cross without occupying the same track element,...">
<polygon fill="white" stroke="black" points="1349,-295.5 1349,-325.5 1486,-325.5 1486,-295.5 1349,-295.5"/>
<text text-anchor="start" x="1357" y="-313.5" font-family="Helvetica,sans-Serif" font-size="10.00">TAllRoutes::DiagonalFouled</text>
<text text-anchor="middle" x="1417.5" y="-302.5" font-family="Helvetica,sans-Serif" font-size="10.00">ByRouteOrTrain</text>
</a>
</g>
</g>
<!-- Node1&#45;&gt;Node11 -->
<g id="edge14" class="edge">
<title>Node1&#45;&gt;Node11</title>
<path fill="none" stroke="midnightblue" d="M1526.37,-283.99C1510.9,-287.79 1494.67,-291.78 1479.63,-295.47"/>
<polygon fill="midnightblue" stroke="midnightblue" points="1527.52,-287.31 1536.4,-281.52 1525.85,-280.51 1527.52,-287.31"/>
</g>
<!-- Node13 -->
<g id="node13" class="node">
<title>Node13</title>
<g id="a_node13"><a xlink:href="class_t_one_route.html#a69c8690ba3aae40ff99a5d2a629ba321" target="_top" xlink:title="Called by GetNextNonPreferredRouteElement to carry out the search for linked track,...">
<polygon fill="white" stroke="black" points="1137,-257.5 1137,-287.5 1310,-287.5 1310,-257.5 1137,-257.5"/>
<text text-anchor="start" x="1145" y="-275.5" font-family="Helvetica,sans-Serif" font-size="10.00">TOneRoute::SearchForNonPreferred</text>
<text text-anchor="middle" x="1223.5" y="-264.5" font-family="Helvetica,sans-Serif" font-size="10.00">Route</text>
</a>
</g>
</g>
<!-- Node1&#45;&gt;Node13 -->
<g id="edge58" class="edge">
<title>Node1&#45;&gt;Node13</title>
<path fill="none" stroke="midnightblue" d="M1514.38,-267.84C1453.64,-268.81 1371.52,-270.14 1310.19,-271.12"/>
<polygon fill="midnightblue" stroke="midnightblue" points="1514.75,-271.33 1524.7,-267.67 1514.64,-264.33 1514.75,-271.33"/>
</g>
<!-- Node14 -->
<g id="node14" class="node">
<title>Node14</title>
<g id="a_node14"><a xlink:href="class_t_one_route.html#a5ce1c3a064a656ca764b5ed98c63151a" target="_top" xlink:title="Try to find a set of linked tracks between the route start element and the one at HLoc &amp; VLoc....">
<polygon fill="white" stroke="black" points="937,-213.5 937,-243.5 1101,-243.5 1101,-213.5 937,-213.5"/>
<text text-anchor="start" x="945" y="-231.5" font-family="Helvetica,sans-Serif" font-size="10.00">TOneRoute::GetNextNonPreferred</text>
<text text-anchor="middle" x="1019" y="-220.5" font-family="Helvetica,sans-Serif" font-size="10.00">RouteElement</text>
</a>
</g>
</g>
<!-- Node1&#45;&gt;Node14 -->
<g id="edge25" class="edge">
<title>Node1&#45;&gt;Node14</title>
<path fill="none" stroke="midnightblue" d="M1514.87,-261.06C1404.6,-253.81 1210.55,-241.04 1101.08,-233.83"/>
<polygon fill="midnightblue" stroke="midnightblue" points="1514.74,-264.56 1524.94,-261.73 1515.2,-257.58 1514.74,-264.56"/>
</g>
<!-- Node17 -->
<g id="node17" class="node">
<title>Node17</title>
<g id="a_node17"><a xlink:href="class_t_one_route.html#a3bbf0add5e8c2b88fb09cb1be158d9ad" target="_top" xlink:title="Called by GetNextPreferredRouteElement to carry out the search for a valid route, and also called rec...">
<polygon fill="white" stroke="black" points="1146,-125.5 1146,-155.5 1301,-155.5 1301,-125.5 1146,-125.5"/>
<text text-anchor="start" x="1154" y="-143.5" font-family="Helvetica,sans-Serif" font-size="10.00">TOneRoute::SearchForPreferred</text>
<text text-anchor="middle" x="1223.5" y="-132.5" font-family="Helvetica,sans-Serif" font-size="10.00">Route</text>
</a>
</g>
</g>
<!-- Node1&#45;&gt;Node17 -->
<g id="edge59" class="edge">
<title>Node1&#45;&gt;Node17</title>
<path fill="none" stroke="midnightblue" d="M1581.66,-243.02C1562.91,-217.41 1529.1,-177.65 1489,-159.5 1429.97,-132.78 1355.89,-129.7 1301.16,-132.34"/>
<polygon fill="midnightblue" stroke="midnightblue" points="1579,-245.31 1587.65,-251.43 1584.7,-241.25 1579,-245.31"/>
</g>
<!-- Node18 -->
<g id="node18" class="node">
<title>Node18</title>
<g id="a_node18"><a xlink:href="class_t_one_route.html#a974ac7ab4cb5e6a5df33a3d7b3563315" target="_top" xlink:title="Try to find a set of linked tracks that lie on preferred directions between the route start element a...">
<polygon fill="white" stroke="black" points="946,-81.5 946,-111.5 1092,-111.5 1092,-81.5 946,-81.5"/>
<text text-anchor="start" x="954" y="-99.5" font-family="Helvetica,sans-Serif" font-size="10.00">TOneRoute::GetNextPreferred</text>
<text text-anchor="middle" x="1019" y="-88.5" font-family="Helvetica,sans-Serif" font-size="10.00">RouteElement</text>
</a>
</g>
</g>
<!-- Node1&#45;&gt;Node18 -->
<g id="edge26" class="edge">
<title>Node1&#45;&gt;Node18</title>
<path fill="none" stroke="midnightblue" d="M1586.41,-242.26C1570.16,-209.92 1536.56,-153.78 1489,-128.5 1362.34,-61.19 1188.54,-71.21 1092.03,-84.12"/>
<polygon fill="midnightblue" stroke="midnightblue" points="1583.37,-244.02 1590.89,-251.48 1589.67,-240.96 1583.37,-244.02"/>
</g>
<!-- Node20 -->
<g id="node20" class="node">
<title>Node20</title>
<g id="a_node20"><a xlink:href="class_t_one_route.html#a13dd08bfcc95ea1296f9ac4fd699e94d" target="_top" xlink:title="Set the starting conditions for a non&#45;preferred (i.e. unrestricted) route selection beginning on HLoc...">
<polygon fill="white" stroke="black" points="1346,-169.5 1346,-199.5 1489,-199.5 1489,-169.5 1346,-169.5"/>
<text text-anchor="start" x="1354" y="-187.5" font-family="Helvetica,sans-Serif" font-size="10.00">TOneRoute::GetNonPreferred</text>
<text text-anchor="middle" x="1417.5" y="-176.5" font-family="Helvetica,sans-Serif" font-size="10.00">RouteStartElement</text>
</a>
</g>
</g>
<!-- Node1&#45;&gt;Node20 -->
<g id="edge27" class="edge">
<title>Node1&#45;&gt;Node20</title>
<path fill="none" stroke="midnightblue" d="M1557.78,-246.94C1537.34,-237.01 1511.94,-224.87 1489,-214.5 1477.97,-209.51 1465.87,-204.28 1454.86,-199.61"/>
<polygon fill="midnightblue" stroke="midnightblue" points="1556.28,-250.1 1566.8,-251.34 1559.35,-243.81 1556.28,-250.1"/>
</g>
<!-- Node21 -->
<g id="node21" class="node">
<title>Node21</title>
<g id="a_node21"><a xlink:href="class_t_one_route.html#ab7ac58fe51393873e9054ffa724bc118" target="_top" xlink:title="Set the starting conditions for a preferred direction or automatic signal route selection beginning o...">
<polygon fill="white" stroke="black" points="943,-32.5 943,-62.5 1095,-62.5 1095,-32.5 943,-32.5"/>
<text text-anchor="start" x="951" y="-50.5" font-family="Helvetica,sans-Serif" font-size="10.00">TOneRoute::GetPreferredRoute</text>
<text text-anchor="middle" x="1019" y="-39.5" font-family="Helvetica,sans-Serif" font-size="10.00">StartElement</text>
</a>
</g>
</g>
<!-- Node1&#45;&gt;Node21 -->
<g id="edge29" class="edge">
<title>Node1&#45;&gt;Node21</title>
<path fill="none" stroke="midnightblue" d="M1591.08,-241.43C1578.96,-199.83 1548.43,-117.47 1489,-80.5 1367.88,-5.16 1193.58,-17.3 1095.14,-32.59"/>
<polygon fill="midnightblue" stroke="midnightblue" points="1587.78,-242.62 1593.83,-251.31 1594.52,-240.74 1587.78,-242.62"/>
</g>
<!-- Node22 -->
<g id="node22" class="node">
<title>Node22</title>
<g id="a_node22"><a xlink:href="class_t_train.html#aa21e18b3085773ca8351c446911611c1" target="_top" xlink:title="When a train moves off a bridge the other track may contain a route or have a train on it that has be...">
<polygon fill="white" stroke="black" points="1156,-345.5 1156,-375.5 1291,-375.5 1291,-345.5 1156,-345.5"/>
<text text-anchor="start" x="1164" y="-363.5" font-family="Helvetica,sans-Serif" font-size="10.00">TTrain::PlotAlternativeTrack</text>
<text text-anchor="middle" x="1223.5" y="-352.5" font-family="Helvetica,sans-Serif" font-size="10.00">RouteGraphic</text>
</a>
</g>
</g>
<!-- Node1&#45;&gt;Node22 -->
<g id="edge32" class="edge">
<title>Node1&#45;&gt;Node22</title>
<path fill="none" stroke="midnightblue" d="M1571.65,-287.95C1550.74,-304 1519.81,-324.94 1489,-335.5 1424.32,-357.68 1345.85,-362.55 1291.25,-362.73"/>
<polygon fill="midnightblue" stroke="midnightblue" points="1573.99,-290.56 1579.7,-281.63 1569.67,-285.05 1573.99,-290.56"/>
</g>
<!-- Node3 -->
<g id="node3" class="node">
<title>Node3</title>
<g id="a_node3"><a xlink:href="class_t_train.html#ad666fb061d1da7c44a72ec963c2098aa" target="_top" xlink:title="Carry out the actions needed when a train is to split from the front.">
<polygon fill="white" stroke="black" points="758,-524 758,-543 870,-543 870,-524 758,-524"/>
<text text-anchor="middle" x="814" y="-531" font-family="Helvetica,sans-Serif" font-size="10.00">TTrain::FrontTrainSplit</text>
</a>
</g>
</g>
<!-- Node2&#45;&gt;Node3 -->
<g id="edge2" class="edge">
<title>Node2&#45;&gt;Node3</title>
<path fill="none" stroke="midnightblue" d="M944.86,-528.38C920.23,-529.35 893.19,-530.42 870.18,-531.33"/>
<polygon fill="midnightblue" stroke="midnightblue" points="945.03,-531.88 954.88,-527.99 944.75,-524.88 945.03,-531.88"/>
</g>
<!-- Node5 -->
<g id="node5" class="node">
<title>Node5</title>
<g id="a_node5"><a xlink:href="class_t_train_controller.html#a20a1576dea1d86ed78fc5e9f46343481" target="_top" xlink:title="called every clock tick to introduce new trains and update existing trains">
<polygon fill="white" stroke="black" points="347,-600 347,-619 472,-619 472,-600 347,-600"/>
<text text-anchor="middle" x="409.5" y="-607" font-family="Helvetica,sans-Serif" font-size="10.00">TTrainController::Operate</text>
</a>
</g>
</g>
<!-- Node2&#45;&gt;Node5 -->
<g id="edge7" class="edge">
<title>Node2&#45;&gt;Node5</title>
<path fill="none" stroke="midnightblue" d="M1004.12,-543.07C984.24,-566.66 945.14,-607.46 901,-623.5 739.47,-682.21 527.9,-639.69 445.48,-619.03"/>
<polygon fill="midnightblue" stroke="midnightblue" points="1006.91,-545.18 1010.55,-535.23 1001.5,-540.74 1006.91,-545.18"/>
</g>
<!-- Node8 -->
<g id="node8" class="node">
<title>Node8</title>
<g id="a_node8"><a xlink:href="class_t_train.html#ad64c5823265b0c611c2e5f0613317aa5" target="_top" xlink:title="Carry out the actions needed when a train is to split from the rear.">
<polygon fill="white" stroke="black" points="759,-486 759,-505 869,-505 869,-486 759,-486"/>
<text text-anchor="middle" x="814" y="-493" font-family="Helvetica,sans-Serif" font-size="10.00">TTrain::RearTrainSplit</text>
</a>
</g>
</g>
<!-- Node2&#45;&gt;Node8 -->
<g id="edge8" class="edge">
<title>Node2&#45;&gt;Node8</title>
<path fill="none" stroke="midnightblue" d="M944.73,-514.67C919.78,-510.98 892.36,-506.93 869.18,-503.51"/>
<polygon fill="midnightblue" stroke="midnightblue" points="944.48,-518.17 954.88,-516.17 945.5,-511.25 944.48,-518.17"/>
</g>
<!-- Node3&#45;&gt;Node4 -->
<g id="edge3" class="edge">
<title>Node3&#45;&gt;Node4</title>
<path fill="none" stroke="midnightblue" d="M747.81,-522.41C740.63,-520.22 733.55,-517.61 727,-514.5 679.96,-492.15 634.61,-448.34 615.93,-429.03"/>
<polygon fill="midnightblue" stroke="midnightblue" points="747.06,-525.84 757.63,-525.14 748.93,-519.09 747.06,-525.84"/>
</g>
<!-- Node4&#45;&gt;Node5 -->
<g id="edge4" class="edge">
<title>Node4&#45;&gt;Node5</title>
<path fill="none" stroke="midnightblue" d="M587.76,-436.34C548.24,-474.95 452.06,-568.9 420.63,-599.61"/>
<polygon fill="midnightblue" stroke="midnightblue" points="590.38,-438.67 595.09,-429.18 585.49,-433.67 590.38,-438.67"/>
</g>
<!-- Node6 -->
<g id="node6" class="node">
<title>Node6</title>
<g id="a_node6"><a xlink:href="class_t_interface.html#a6139ffb52492eb89e5487a8a3cd647b5" target="_top" xlink:title="The main loop, called every clock tick via MasterClockTimer.">
<polygon fill="white" stroke="black" points="179,-600 179,-619 298,-619 298,-600 179,-600"/>
<text text-anchor="middle" x="238.5" y="-607" font-family="Helvetica,sans-Serif" font-size="10.00">TInterface::ClockTimer2</text>
</a>
</g>
</g>
<!-- Node5&#45;&gt;Node6 -->
<g id="edge5" class="edge">
<title>Node5&#45;&gt;Node6</title>
<path fill="none" stroke="midnightblue" d="M336.39,-609.5C323.61,-609.5 310.44,-609.5 298.09,-609.5"/>
<polygon fill="midnightblue" stroke="midnightblue" points="336.53,-613 346.53,-609.5 336.53,-606 336.53,-613"/>
</g>
<!-- Node7 -->
<g id="node7" class="node">
<title>Node7</title>
<g id="a_node7"><a xlink:href="class_t_interface.html#ace30a12d923fc7fb489afabb0a09aa4f" target="_top" xlink:title=" ">
<polygon fill="white" stroke="black" points="0,-600 0,-619 143,-619 143,-600 0,-600"/>
<text text-anchor="middle" x="71.5" y="-607" font-family="Helvetica,sans-Serif" font-size="10.00">TInterface::MasterClockTimer</text>
</a>
</g>
</g>
<!-- Node6&#45;&gt;Node7 -->
<g id="edge6" class="edge">
<title>Node6&#45;&gt;Node7</title>
<path fill="none" stroke="midnightblue" d="M168.67,-609.5C160.22,-609.5 151.57,-609.5 143.09,-609.5"/>
<polygon fill="midnightblue" stroke="midnightblue" points="168.86,-613 178.86,-609.5 168.86,-606 168.86,-613"/>
</g>
<!-- Node8&#45;&gt;Node4 -->
<g id="edge9" class="edge">
<title>Node8&#45;&gt;Node4</title>
<path fill="none" stroke="midnightblue" d="M764.81,-483.3C752.38,-479.82 739.11,-475.79 727,-471.5 691.05,-458.76 650.6,-440.35 627.04,-429.19"/>
<polygon fill="midnightblue" stroke="midnightblue" points="763.98,-486.7 774.55,-485.97 765.83,-479.95 763.98,-486.7"/>
</g>
<!-- Node10 -->
<g id="node10" class="node">
<title>Node10</title>
<g id="a_node10"><a xlink:href="class_t_train.html#a50997f7e8138a7e6a147fe3b5ad21b84" target="_top" xlink:title="Checks whether Element and EntryPos (where train is about to enter) is on an existing route (or cross...">
<polygon fill="white" stroke="black" points="1149,-510.5 1149,-540.5 1298,-540.5 1298,-510.5 1149,-510.5"/>
<text text-anchor="start" x="1157" y="-528.5" font-family="Helvetica,sans-Serif" font-size="10.00">TTrain::CheckAndCancelRoute</text>
<text text-anchor="middle" x="1223.5" y="-517.5" font-family="Helvetica,sans-Serif" font-size="10.00">ForWrongEndEntry</text>
</a>
</g>
</g>
<!-- Node9&#45;&gt;Node10 -->
<g id="edge11" class="edge">
<title>Node9&#45;&gt;Node10</title>
<path fill="none" stroke="midnightblue" d="M1338.68,-505.28C1325.28,-507.65 1311.39,-510.11 1298.11,-512.47"/>
<polygon fill="midnightblue" stroke="midnightblue" points="1339.57,-508.68 1348.81,-503.49 1338.35,-501.78 1339.57,-508.68"/>
</g>
<!-- Node10&#45;&gt;Node2 -->
<g id="edge12" class="edge">
<title>Node10&#45;&gt;Node2</title>
<path fill="none" stroke="midnightblue" d="M1138.63,-525.5C1120.12,-525.5 1100.81,-525.5 1083.27,-525.5"/>
<polygon fill="midnightblue" stroke="midnightblue" points="1138.82,-529 1148.82,-525.5 1138.82,-522 1138.82,-529"/>
</g>
<!-- Node10&#45;&gt;Node4 -->
<g id="edge13" class="edge">
<title>Node10&#45;&gt;Node4</title>
<path fill="none" stroke="midnightblue" d="M1169.47,-543.54C1075.59,-572.26 876.02,-618.76 727,-552.5 667.89,-526.22 625.62,-454.84 611.84,-429"/>
<polygon fill="midnightblue" stroke="midnightblue" points="1170.52,-546.87 1179.03,-540.56 1168.44,-540.19 1170.52,-546.87"/>
</g>
<!-- Node12 -->
<g id="node12" class="node">
<title>Node12</title>
<g id="a_node12"><a xlink:href="class_t_train.html#a4524b72ef62ef2c1375f58fac05929ee" target="_top" xlink:title="True if the train can be called on at its current position &#45; see detail in .cpp file.">
<polygon fill="white" stroke="black" points="1161,-307 1161,-326 1286,-326 1286,-307 1161,-307"/>
<text text-anchor="middle" x="1223.5" y="-314" font-family="Helvetica,sans-Serif" font-size="10.00">TTrain::CallingOnAllowed</text>
</a>
</g>
</g>
<!-- Node11&#45;&gt;Node12 -->
<g id="edge15" class="edge">
<title>Node11&#45;&gt;Node12</title>
<path fill="none" stroke="midnightblue" d="M1338.63,-312.93C1321.15,-313.48 1302.84,-314.05 1286.13,-314.57"/>
<polygon fill="midnightblue" stroke="midnightblue" points="1338.92,-316.43 1348.81,-312.62 1338.7,-309.43 1338.92,-316.43"/>
</g>
<!-- Node11&#45;&gt;Node13 -->
<g id="edge17" class="edge">
<title>Node11&#45;&gt;Node13</title>
<path fill="none" stroke="midnightblue" d="M1338.77,-295.12C1326.12,-292.61 1313.02,-290.02 1300.41,-287.52"/>
<polygon fill="midnightblue" stroke="midnightblue" points="1338.32,-298.59 1348.81,-297.1 1339.68,-291.73 1338.32,-298.59"/>
</g>
<!-- Node11&#45;&gt;Node17 -->
<g id="edge21" class="edge">
<title>Node11&#45;&gt;Node17</title>
<path fill="none" stroke="midnightblue" d="M1391.59,-288.44C1351.94,-253.33 1275.48,-185.64 1241.5,-155.55"/>
<polygon fill="midnightblue" stroke="midnightblue" points="1389.65,-291.4 1399.46,-295.41 1394.29,-286.16 1389.65,-291.4"/>
</g>
<!-- Node12&#45;&gt;Node4 -->
<g id="edge16" class="edge">
<title>Node12&#45;&gt;Node4</title>
<path fill="none" stroke="midnightblue" d="M1157.51,-328.82C1150.45,-331 1143.49,-333.54 1137,-336.5 1119.04,-344.69 1119.13,-354.69 1101,-362.5 949.35,-427.8 748.58,-427.35 656.72,-422.94"/>
<polygon fill="midnightblue" stroke="midnightblue" points="1158.5,-332.18 1167.15,-326.06 1156.58,-325.45 1158.5,-332.18"/>
</g>
<!-- Node13&#45;&gt;Node14 -->
<g id="edge18" class="edge">
<title>Node13&#45;&gt;Node14</title>
<path fill="none" stroke="midnightblue" d="M1143.52,-255.34C1125.58,-251.44 1106.65,-247.33 1089.15,-243.53"/>
<polygon fill="midnightblue" stroke="midnightblue" points="1142.86,-258.78 1153.38,-257.48 1144.35,-251.94 1142.86,-258.78"/>
</g>
<!-- Node15 -->
<g id="node15" class="node">
<title>Node15</title>
<g id="a_node15"><a xlink:href="class_t_interface.html#abf07d5edc1507de381825f17620748b2" target="_top" xlink:title="Called when mouse button clicked in zoom&#45;in mode.">
<polygon fill="white" stroke="black" points="741,-49.5 741,-79.5 887,-79.5 887,-49.5 741,-49.5"/>
<text text-anchor="start" x="749" y="-67.5" font-family="Helvetica,sans-Serif" font-size="10.00">TInterface::MainScreenMouse</text>
<text text-anchor="middle" x="814" y="-56.5" font-family="Helvetica,sans-Serif" font-size="10.00">Down2</text>
</a>
</g>
</g>
<!-- Node14&#45;&gt;Node15 -->
<g id="edge19" class="edge">
<title>Node14&#45;&gt;Node15</title>
<path fill="none" stroke="midnightblue" d="M949.16,-208.42C944.73,-205.54 940.61,-202.25 937,-198.5 901.33,-161.43 938.17,-124.06 901,-88.5 896.86,-84.53 892.11,-81.21 887.03,-78.44"/>
<polygon fill="midnightblue" stroke="midnightblue" points="947.58,-211.55 958,-213.46 951.05,-205.47 947.58,-211.55"/>
</g>
<!-- Node16 -->
<g id="node16" class="node">
<title>Node16</title>
<g id="a_node16"><a xlink:href="class_t_interface.html#a7f37862fb9e01e1328d9fd3fd8c50094" target="_top" xlink:title=" ">
<polygon fill="white" stroke="black" points="521,-55 521,-74 691,-74 691,-55 521,-55"/>
<text text-anchor="middle" x="606" y="-62" font-family="Helvetica,sans-Serif" font-size="10.00">TInterface::MainScreenMouseDown</text>
</a>
</g>
</g>
<!-- Node15&#45;&gt;Node16 -->
<g id="edge20" class="edge">
<title>Node15&#45;&gt;Node16</title>
<path fill="none" stroke="midnightblue" d="M730.61,-64.5C717.58,-64.5 704.09,-64.5 691.02,-64.5"/>
<polygon fill="midnightblue" stroke="midnightblue" points="730.95,-68 740.95,-64.5 730.95,-61 730.95,-68"/>
</g>
<!-- Node17&#45;&gt;Node18 -->
<g id="edge22" class="edge">
<title>Node17&#45;&gt;Node18</title>
<path fill="none" stroke="midnightblue" d="M1143.52,-123.34C1125.58,-119.44 1106.65,-115.33 1089.15,-111.53"/>
<polygon fill="midnightblue" stroke="midnightblue" points="1142.86,-126.78 1153.38,-125.48 1144.35,-119.94 1142.86,-126.78"/>
</g>
<!-- Node18&#45;&gt;Node15 -->
<g id="edge23" class="edge">
<title>Node18&#45;&gt;Node15</title>
<path fill="none" stroke="midnightblue" d="M935.93,-83.56C919.81,-81.02 903.02,-78.37 887.25,-75.89"/>
<polygon fill="midnightblue" stroke="midnightblue" points="935.44,-87.03 945.86,-85.13 936.53,-80.11 935.44,-87.03"/>
</g>
<!-- Node19 -->
<g id="node19" class="node">
<title>Node19</title>
<g id="a_node19"><a xlink:href="class_t_interface.html#aa639148521a793641e694b15486b5055" target="_top" xlink:title=" ">
<polygon fill="white" stroke="black" points="750,-0.5 750,-30.5 878,-30.5 878,-0.5 750,-0.5"/>
<text text-anchor="start" x="758" y="-18.5" font-family="Helvetica,sans-Serif" font-size="10.00">TInterface::PresetAutoSig</text>
<text text-anchor="middle" x="814" y="-7.5" font-family="Helvetica,sans-Serif" font-size="10.00">RoutesButtonClick</text>
</a>
</g>
</g>
<!-- Node18&#45;&gt;Node19 -->
<g id="edge24" class="edge">
<title>Node18&#45;&gt;Node19</title>
<path fill="none" stroke="midnightblue" d="M949.34,-77.63C945.08,-75.75 940.93,-73.71 937,-71.5 918.35,-60.99 919.79,-49.75 901,-39.5 893.92,-35.64 886.17,-32.36 878.32,-29.58"/>
<polygon fill="midnightblue" stroke="midnightblue" points="948.22,-80.96 958.8,-81.49 950.86,-74.48 948.22,-80.96"/>
</g>
<!-- Node20&#45;&gt;Node15 -->
<g id="edge28" class="edge">
<title>Node20&#45;&gt;Node15</title>
<path fill="none" stroke="midnightblue" d="M1335.66,-189.59C1236.29,-192.4 1065.08,-185.82 937,-120.5 917.93,-110.77 919.79,-98.75 901,-88.5 894.74,-85.09 887.95,-82.12 881.03,-79.56"/>
<polygon fill="midnightblue" stroke="midnightblue" points="1336.06,-193.08 1345.94,-189.26 1335.83,-186.08 1336.06,-193.08"/>
</g>
<!-- Node21&#45;&gt;Node15 -->
<g id="edge30" class="edge">
<title>Node21&#45;&gt;Node15</title>
<path fill="none" stroke="midnightblue" d="M933.02,-54.62C917.72,-55.9 901.9,-57.22 887.01,-58.47"/>
<polygon fill="midnightblue" stroke="midnightblue" points="933.31,-58.1 942.99,-53.78 932.73,-51.13 933.31,-58.1"/>
</g>
<!-- Node21&#45;&gt;Node19 -->
<g id="edge31" class="edge">
<title>Node21&#45;&gt;Node19</title>
<path fill="none" stroke="midnightblue" d="M932.87,-34.08C914.51,-31.19 895.4,-28.17 878.06,-25.44"/>
<polygon fill="midnightblue" stroke="midnightblue" points="932.56,-37.58 942.99,-35.68 933.65,-30.66 932.56,-37.58"/>
</g>
<!-- Node22&#45;&gt;Node4 -->
<g id="edge57" class="edge">
<title>Node22&#45;&gt;Node4</title>
<path fill="none" stroke="midnightblue" d="M1191.78,-381.56C1162.42,-401.21 1119.91,-428.26 1101,-433.5 939.57,-478.27 737.02,-446.6 649.98,-429.05"/>
<polygon fill="midnightblue" stroke="midnightblue" points="1194.1,-384.23 1200.43,-375.74 1190.18,-378.42 1194.1,-384.23"/>
</g>
<!-- Node23 -->
<g id="node23" class="node">
<title>Node23</title>
<g id="a_node23"><a xlink:href="class_t_train.html#a4978a3050ca943076eb6cbd03eeee1d4" target="_top" xlink:title="Unplot train from screen in zoomed&#45;in mode.">
<polygon fill="white" stroke="black" points="970,-334 970,-353 1068,-353 1068,-334 970,-334"/>
<text text-anchor="middle" x="1019" y="-341" font-family="Helvetica,sans-Serif" font-size="10.00">TTrain::UnplotTrain</text>
</a>
</g>
</g>
<!-- Node22&#45;&gt;Node23 -->
<g id="edge33" class="edge">
<title>Node22&#45;&gt;Node23</title>
<path fill="none" stroke="midnightblue" d="M1145.67,-354.05C1119.58,-351.86 1091.2,-349.48 1068.02,-347.53"/>
<polygon fill="midnightblue" stroke="midnightblue" points="1145.66,-357.56 1155.91,-354.91 1146.24,-350.59 1145.66,-357.56"/>
</g>
<!-- Node23&#45;&gt;Node3 -->
<g id="edge38" class="edge">
<title>Node23&#45;&gt;Node3</title>
<path fill="none" stroke="midnightblue" d="M1010.67,-362.44C995.8,-398.22 958.52,-475.65 901,-514.5 891.88,-520.66 881.08,-524.86 870.28,-527.71"/>
<polygon fill="midnightblue" stroke="midnightblue" points="1013.93,-363.72 1014.42,-353.14 1007.44,-361.1 1013.93,-363.72"/>
</g>
<!-- Node23&#45;&gt;Node5 -->
<g id="edge45" class="edge">
<title>Node23&#45;&gt;Node5</title>
<path fill="none" stroke="midnightblue" d="M1008.68,-362.38C984.22,-411.54 918.89,-540.57 901,-552.5 768.87,-640.6 571.12,-631.05 471.91,-619.03"/>
<polygon fill="midnightblue" stroke="midnightblue" points="1011.93,-363.68 1013.24,-353.17 1005.66,-360.57 1011.93,-363.68"/>
</g>
<!-- Node23&#45;&gt;Node8 -->
<g id="edge46" class="edge">
<title>Node23&#45;&gt;Node8</title>
<path fill="none" stroke="midnightblue" d="M997.18,-359.09C955.24,-390.49 861.72,-460.52 827.69,-486"/>
<polygon fill="midnightblue" stroke="midnightblue" points="999.39,-361.8 1005.3,-353.01 995.2,-356.2 999.39,-361.8"/>
</g>
<!-- Node24 -->
<g id="node24" class="node">
<title>Node24</title>
<g id="a_node24"><a xlink:href="class_t_train.html#aaac04c1b5e358a69e1930bae9ca6f429" target="_top" xlink:title="Reverses the direction of motion of the train.">
<polygon fill="white" stroke="black" points="743.5,-246 743.5,-265 884.5,-265 884.5,-246 743.5,-246"/>
<text text-anchor="middle" x="814" y="-253" font-family="Helvetica,sans-Serif" font-size="10.00">TTrain::ChangeTrainDirection</text>
</a>
</g>
</g>
<!-- Node23&#45;&gt;Node24 -->
<g id="edge34" class="edge">
<title>Node23&#45;&gt;Node24</title>
<path fill="none" stroke="midnightblue" d="M996.38,-328.28C973.63,-312.9 936.28,-289.49 901,-275.5 890.31,-271.26 878.51,-267.79 867.15,-265"/>
<polygon fill="midnightblue" stroke="midnightblue" points="994.41,-331.16 1004.63,-333.93 998.36,-325.39 994.41,-331.16"/>
</g>
<!-- Node27 -->
<g id="node27" class="node">
<title>Node27</title>
<g id="a_node27"><a xlink:href="class_t_train.html#a2bde9b347632a790874abfee29758d32" target="_top" xlink:title="Carry out the actions needed when a new shuttle service is created from a non&#45;repeating (F&#45;nshs) serv...">
<polygon fill="white" stroke="black" points="745,-196.5 745,-226.5 883,-226.5 883,-196.5 745,-196.5"/>
<text text-anchor="start" x="753" y="-214.5" font-family="Helvetica,sans-Serif" font-size="10.00">TTrain::NewShuttleFromNon</text>
<text text-anchor="middle" x="814" y="-203.5" font-family="Helvetica,sans-Serif" font-size="10.00">RepeatService</text>
</a>
</g>
</g>
<!-- Node23&#45;&gt;Node27 -->
<g id="edge39" class="edge">
<title>Node23&#45;&gt;Node27</title>
<path fill="none" stroke="midnightblue" d="M1003.67,-326.13C983.25,-302.49 943.53,-260.39 901,-236.5 894.22,-232.69 886.81,-229.42 879.27,-226.61"/>
<polygon fill="midnightblue" stroke="midnightblue" points="1001.15,-328.57 1010.28,-333.94 1006.49,-324.05 1001.15,-328.57"/>
</g>
<!-- Node28 -->
<g id="node28" class="node">
<title>Node28</title>
<g id="a_node28"><a xlink:href="class_t_train.html#a68bda28987bb7b9d7e52b35abb2399de" target="_top" xlink:title="Carry out the actions needed when a train forms a new service (code Fns)">
<polygon fill="white" stroke="black" points="754,-372 754,-391 874,-391 874,-372 754,-372"/>
<text text-anchor="middle" x="814" y="-379" font-family="Helvetica,sans-Serif" font-size="10.00">TTrain::NewTrainService</text>
</a>
</g>
</g>
<!-- Node23&#45;&gt;Node28 -->
<g id="edge42" class="edge">
<title>Node23&#45;&gt;Node28</title>
<path fill="none" stroke="midnightblue" d="M959.69,-354.41C930.09,-359.96 894.45,-366.63 865.95,-371.96"/>
<polygon fill="midnightblue" stroke="midnightblue" points="960.71,-357.79 969.89,-352.51 959.42,-350.91 960.71,-357.79"/>
</g>
<!-- Node29 -->
<g id="node29" class="node">
<title>Node29</title>
<g id="a_node29"><a xlink:href="class_t_train.html#a648f31ead801d51160c024f1ead459c8" target="_top" xlink:title="Carry out the actions needed to create either a new shuttle service or (if all repeats have finished)...">
<polygon fill="white" stroke="black" points="744,-284.5 744,-314.5 884,-314.5 884,-284.5 744,-284.5"/>
<text text-anchor="start" x="752" y="-302.5" font-family="Helvetica,sans-Serif" font-size="10.00">TTrain::RepeatShuttleOrNew</text>
<text text-anchor="middle" x="814" y="-291.5" font-family="Helvetica,sans-Serif" font-size="10.00">NonRepeatService</text>
</a>
</g>
</g>
<!-- Node23&#45;&gt;Node29 -->
<g id="edge47" class="edge">
<title>Node23&#45;&gt;Node29</title>
<path fill="none" stroke="midnightblue" d="M964.11,-331.82C939.57,-326.5 910.24,-320.14 884.11,-314.48"/>
<polygon fill="midnightblue" stroke="midnightblue" points="963.44,-335.25 973.95,-333.95 964.92,-328.41 963.44,-335.25"/>
</g>
<!-- Node30 -->
<g id="node30" class="node">
<title>Node30</title>
<g id="a_node30"><a xlink:href="class_t_train.html#a1f4b4616c1167ff2ef83b2df48545c6b" target="_top" xlink:title="Carry out the actions needed to create either a new shuttle service or (if all repeats have finished)...">
<polygon fill="white" stroke="black" points="727,-334 727,-353 901,-353 901,-334 727,-334"/>
<text text-anchor="middle" x="814" y="-341" font-family="Helvetica,sans-Serif" font-size="10.00">TTrain::RepeatShuttleOrRemainHere</text>
</a>
</g>
</g>
<!-- Node23&#45;&gt;Node30 -->
<g id="edge50" class="edge">
<title>Node23&#45;&gt;Node30</title>
<path fill="none" stroke="midnightblue" d="M959.74,-343.5C941.53,-343.5 921.03,-343.5 901.31,-343.5"/>
<polygon fill="midnightblue" stroke="midnightblue" points="959.89,-347 969.89,-343.5 959.89,-340 959.89,-347"/>
</g>
<!-- Node31 -->
<g id="node31" class="node">
<title>Node31</title>
<g id="a_node31"><a xlink:href="class_t_train.html#affbb94aa088370056f8ca8c45a1fdd48" target="_top" xlink:title="Unplots &amp; replots train, which checks for facing signal and sets StoppedAtSignal if req&#39;d.">
<polygon fill="white" stroke="black" points="744,-98.5 744,-128.5 884,-128.5 884,-98.5 744,-98.5"/>
<text text-anchor="start" x="752" y="-116.5" font-family="Helvetica,sans-Serif" font-size="10.00">TTrain::SignallerChangeTrain</text>
<text text-anchor="middle" x="814" y="-105.5" font-family="Helvetica,sans-Serif" font-size="10.00">Direction</text>
</a>
</g>
</g>
<!-- Node23&#45;&gt;Node31 -->
<g id="edge53" class="edge">
<title>Node23&#45;&gt;Node31</title>
<path fill="none" stroke="midnightblue" d="M998.93,-326.95C980.66,-310.13 953.49,-282.5 937,-253.5 910.32,-206.57 939.72,-175.12 901,-137.5 896.11,-132.75 890.36,-128.92 884.19,-125.84"/>
<polygon fill="midnightblue" stroke="midnightblue" points="996.86,-329.79 1006.63,-333.88 1001.54,-324.59 996.86,-329.79"/>
</g>
<!-- Node33 -->
<g id="node33" class="node">
<title>Node33</title>
<g id="a_node33"><a xlink:href="class_t_train_controller.html#a7e2abfcc38e51933883d959c4155aca0" target="_top" xlink:title="unplot all trains from screen">
<polygon fill="white" stroke="black" points="755,-147.5 755,-177.5 873,-177.5 873,-147.5 755,-147.5"/>
<text text-anchor="start" x="763" y="-165.5" font-family="Helvetica,sans-Serif" font-size="10.00">TTrainController::Unplot</text>
<text text-anchor="middle" x="814" y="-154.5" font-family="Helvetica,sans-Serif" font-size="10.00">Trains</text>
</a>
</g>
</g>
<!-- Node23&#45;&gt;Node33 -->
<g id="edge55" class="edge">
<title>Node23&#45;&gt;Node33</title>
<path fill="none" stroke="midnightblue" d="M1000.67,-326.77C983.3,-309.44 956.4,-281.09 937,-253.5 917.55,-225.85 927.39,-207.62 901,-186.5 892.89,-180.01 883.14,-175.27 873.15,-171.82"/>
<polygon fill="midnightblue" stroke="midnightblue" points="998.35,-329.39 1007.93,-333.91 1003.26,-324.4 998.35,-329.39"/>
</g>
<!-- Node24&#45;&gt;Node4 -->
<g id="edge37" class="edge">
<title>Node24&#45;&gt;Node4</title>
<path fill="none" stroke="midnightblue" d="M740.31,-268.72C735.67,-270.68 731.18,-272.92 727,-275.5 669.37,-311.01 626.17,-383.88 612,-409.96"/>
<polygon fill="midnightblue" stroke="midnightblue" points="741.88,-271.87 750.03,-265.09 739.44,-265.31 741.88,-271.87"/>
</g>
<!-- Node25 -->
<g id="node25" class="node">
<title>Node25</title>
<g id="a_node25"><a xlink:href="class_t_interface.html#a528675bee2f8940b6fb3de82ebdd9cc1" target="_top" xlink:title="&lt; used when change early to the next service (Fns, Fns&#45;sh, Frh&#45;sh or F&#45;nshs) to advance the action po...">
<polygon fill="white" stroke="black" points="535.5,-240.5 535.5,-270.5 676.5,-270.5 676.5,-240.5 535.5,-240.5"/>
<text text-anchor="start" x="543.5" y="-258.5" font-family="Helvetica,sans-Serif" font-size="10.00">TInterface::SkipEventsBefore</text>
<text text-anchor="middle" x="606" y="-247.5" font-family="Helvetica,sans-Serif" font-size="10.00">SameLoc</text>
</a>
</g>
</g>
<!-- Node24&#45;&gt;Node25 -->
<g id="edge35" class="edge">
<title>Node24&#45;&gt;Node25</title>
<path fill="none" stroke="midnightblue" d="M733.05,-255.5C714.45,-255.5 694.79,-255.5 676.67,-255.5"/>
<polygon fill="midnightblue" stroke="midnightblue" points="733.26,-259 743.26,-255.5 733.26,-252 733.26,-259"/>
</g>
<!-- Node26 -->
<g id="node26" class="node">
<title>Node26</title>
<g id="a_node26"><a xlink:href="class_t_interface.html#a0e9af41ff305fe2813385fce38b73206" target="_top" xlink:title=" ">
<polygon fill="white" stroke="black" points="334,-284.5 334,-314.5 485,-314.5 485,-284.5 334,-284.5"/>
<text text-anchor="start" x="342" y="-302.5" font-family="Helvetica,sans-Serif" font-size="10.00">TInterface::BecomeNewService</text>
<text text-anchor="middle" x="409.5" y="-291.5" font-family="Helvetica,sans-Serif" font-size="10.00">MenuItemClick</text>
</a>
</g>
</g>
<!-- Node25&#45;&gt;Node26 -->
<g id="edge36" class="edge">
<title>Node25&#45;&gt;Node26</title>
<path fill="none" stroke="midnightblue" d="M528.67,-272.77C511.57,-276.64 493.58,-280.71 476.92,-284.47"/>
<polygon fill="midnightblue" stroke="midnightblue" points="529.63,-276.14 538.61,-270.52 528.08,-269.31 529.63,-276.14"/>
</g>
<!-- Node27&#45;&gt;Node4 -->
<g id="edge41" class="edge">
<title>Node27&#45;&gt;Node4</title>
<path fill="none" stroke="midnightblue" d="M735.48,-231C732.53,-232.68 729.69,-234.51 727,-236.5 710.27,-248.87 634.35,-374 612.75,-409.91"/>
<polygon fill="midnightblue" stroke="midnightblue" points="737.29,-234.01 744.63,-226.37 734.13,-227.76 737.29,-234.01"/>
</g>
<!-- Node27&#45;&gt;Node26 -->
<g id="edge40" class="edge">
<title>Node27&#45;&gt;Node26</title>
<path fill="none" stroke="midnightblue" d="M734.74,-206.83C674.82,-205.62 590.87,-209.12 521,-231.5 485.39,-242.91 449.5,-268.11 428.67,-284.43"/>
<polygon fill="midnightblue" stroke="midnightblue" points="734.81,-210.33 744.89,-207.08 734.98,-203.33 734.81,-210.33"/>
</g>
<!-- Node28&#45;&gt;Node4 -->
<g id="edge44" class="edge">
<title>Node28&#45;&gt;Node4</title>
<path fill="none" stroke="midnightblue" d="M751.26,-392.89C721,-398.47 685.05,-405.1 656.61,-410.35"/>
<polygon fill="midnightblue" stroke="midnightblue" points="752.08,-396.3 761.28,-391.04 750.81,-389.41 752.08,-396.3"/>
</g>
<!-- Node28&#45;&gt;Node26 -->
<g id="edge43" class="edge">
<title>Node28&#45;&gt;Node26</title>
<path fill="none" stroke="midnightblue" d="M743.69,-373.73C684.14,-366.3 596.24,-353.56 521,-335.5 497.65,-329.9 472.13,-321.72 451.51,-314.58"/>
<polygon fill="midnightblue" stroke="midnightblue" points="743.38,-377.22 753.74,-374.96 744.24,-370.27 743.38,-377.22"/>
</g>
<!-- Node29&#45;&gt;Node4 -->
<g id="edge49" class="edge">
<title>Node29&#45;&gt;Node4</title>
<path fill="none" stroke="midnightblue" d="M740.98,-318.13C736.17,-320.08 731.46,-322.2 727,-324.5 680.95,-348.26 635.43,-390.94 616.35,-409.94"/>
<polygon fill="midnightblue" stroke="midnightblue" points="742.23,-321.41 750.35,-314.6 739.76,-314.86 742.23,-321.41"/>
</g>
<!-- Node29&#45;&gt;Node26 -->
<g id="edge48" class="edge">
<title>Node29&#45;&gt;Node26</title>
<path fill="none" stroke="midnightblue" d="M733.42,-299.5C661.31,-299.5 555.84,-299.5 485.27,-299.5"/>
<polygon fill="midnightblue" stroke="midnightblue" points="733.81,-303 743.81,-299.5 733.81,-296 733.81,-303"/>
</g>
<!-- Node30&#45;&gt;Node4 -->
<g id="edge52" class="edge">
<title>Node30&#45;&gt;Node4</title>
<path fill="none" stroke="midnightblue" d="M750.81,-355.48C742.72,-357.55 734.61,-359.89 727,-362.5 688.82,-375.6 646.76,-397.42 623.97,-409.93"/>
<polygon fill="midnightblue" stroke="midnightblue" points="751.74,-358.86 760.63,-353.09 750.09,-352.05 751.74,-358.86"/>
</g>
<!-- Node30&#45;&gt;Node26 -->
<g id="edge51" class="edge">
<title>Node30&#45;&gt;Node26</title>
<path fill="none" stroke="midnightblue" d="M716.63,-334.18C659.68,-328.52 586.19,-320.98 521,-313.5 509.38,-312.17 497.08,-310.68 485.07,-309.19"/>
<polygon fill="midnightblue" stroke="midnightblue" points="716.4,-337.67 726.7,-335.17 717.09,-330.71 716.4,-337.67"/>
</g>
<!-- Node32 -->
<g id="node32" class="node">
<title>Node32</title>
<g id="a_node32"><a xlink:href="class_t_interface.html#aaaf32c3c815553f7ba70698e0f0071bb" target="_top" xlink:title=" ">
<polygon fill="white" stroke="black" points="538,-98.5 538,-128.5 674,-128.5 674,-98.5 538,-98.5"/>
<text text-anchor="start" x="546" y="-116.5" font-family="Helvetica,sans-Serif" font-size="10.00">TInterface::ChangeDirection</text>
<text text-anchor="middle" x="606" y="-105.5" font-family="Helvetica,sans-Serif" font-size="10.00">MenuItemClick</text>
</a>
</g>
</g>
<!-- Node31&#45;&gt;Node32 -->
<g id="edge54" class="edge">
<title>Node31&#45;&gt;Node32</title>
<path fill="none" stroke="midnightblue" d="M733.7,-113.5C714.07,-113.5 693.23,-113.5 674.24,-113.5"/>
<polygon fill="midnightblue" stroke="midnightblue" points="733.83,-117 743.83,-113.5 733.83,-110 733.83,-117"/>
</g>
<!-- Node34 -->
<g id="node34" class="node">
<title>Node34</title>
<g id="a_node34"><a xlink:href="class_t_interface.html#a3e59d6f1f39ffe34a9d6e7bf930acbff" target="_top" xlink:title=" ">
<polygon fill="white" stroke="black" points="544,-147.5 544,-177.5 668,-177.5 668,-147.5 544,-147.5"/>
<text text-anchor="start" x="552" y="-165.5" font-family="Helvetica,sans-Serif" font-size="10.00">TInterface::ExitOperation</text>
<text text-anchor="middle" x="606" y="-154.5" font-family="Helvetica,sans-Serif" font-size="10.00">ButtonClick</text>
</a>
</g>
</g>
<!-- Node33&#45;&gt;Node34 -->
<g id="edge56" class="edge">
<title>Node33&#45;&gt;Node34</title>
<path fill="none" stroke="midnightblue" d="M744.78,-162.5C720.08,-162.5 692.36,-162.5 668.3,-162.5"/>
<polygon fill="midnightblue" stroke="midnightblue" points="744.79,-166 754.79,-162.5 744.79,-159 744.79,-166"/>
</g>
</g>
</svg>
        <g id="navigator" transform="translate(0 0)" fill="#404254">
                <rect fill="#f2f5e9" fill-opacity="0.5" stroke="#606060" stroke-width=".5" x="0" y="0" width="60" height="60"/>
                <use id="zoomplus" xlink:href="#zoomPlus" x="17" y="9" onmousedown="handleZoom(evt,'in')"/>
                <use id="zoomminus" xlink:href="#zoomMin" x="42" y="9" onmousedown="handleZoom(evt,'out')"/>
                <use id="reset" xlink:href="#resetDef" x="30" y="36" onmousedown="handleReset()"/>
                <g id="arrowUp" xlink:href="#dirArrow" transform="translate(30 24)" onmousedown="handlePan(0,-1)">
                  <use xlink:href="#rim" fill="#404040">
                        <set attributeName="fill" to="#808080" begin="arrowUp.mouseover" end="arrowUp.mouseout"/>
                  </use>
                  <path fill="none" stroke="white" stroke-width="1.5" d="M0,-3.0v7 M-2.5,-0.5L0,-3.0L2.5,-0.5"/>
                </g>
                <g id="arrowRight" xlink:href="#dirArrow" transform="rotate(90) translate(36 -43)" onmousedown="handlePan(1,0)">
                  <use xlink:href="#rim" fill="#404040">
                        <set attributeName="fill" to="#808080" begin="arrowRight.mouseover" end="arrowRight.mouseout"/>
                  </use>
                  <path fill="none" stroke="white" stroke-width="1.5" d="M0,-3.0v7 M-2.5,-0.5L0,-3.0L2.5,-0.5"/>
                </g>
                <g id="arrowDown" xlink:href="#dirArrow" transform="rotate(180) translate(-30 -48)" onmousedown="handlePan(0,1)">
                  <use xlink:href="#rim" fill="#404040">
                        <set attributeName="fill" to="#808080" begin="arrowDown.mouseover" end="arrowDown.mouseout"/>
                  </use>
                  <path fill="none" stroke="white" stroke-width="1.5" d="M0,-3.0v7 M-2.5,-0.5L0,-3.0L2.5,-0.5"/>
                </g>
                <g id="arrowLeft" xlink:href="#dirArrow" transform="rotate(270) translate(-36 17)" onmousedown="handlePan(-1,0)">
                  <use xlink:href="#rim" fill="#404040">
                        <set attributeName="fill" to="#808080" begin="arrowLeft.mouseover" end="arrowLeft.mouseout"/>
                  </use>
                  <path fill="none" stroke="white" stroke-width="1.5" d="M0,-3.0v7 M-2.5,-0.5L0,-3.0L2.5,-0.5"/>
                </g>
        </g>
        <svg viewBox="0 0 15 15" width="100%" height="30px" preserveAspectRatio="xMaxYMin meet">
         <g id="arrow_out" transform="scale(0.3 0.3)">
          <a xlink:href="class_t_all_routes_a7eda7a4b535c7538e217bbbc4d878071_icgraph_org.svg" target="_base">
           <rect id="button" ry="5" rx="5" y="6" x="6" height="38" width="38"
                fill="#f2f5e9" fill-opacity="0.5" stroke="#606060" stroke-width="1.0"/>
           <path id="arrow"
             d="M 11.500037,31.436501 C 11.940474,20.09759 22.043105,11.32322 32.158766,21.979434 L 37.068811,17.246167 C 37.068811,17.246167 37.088388,32 37.088388,32 L 22.160133,31.978069 C 22.160133,31.978069 26.997745,27.140456 26.997745,27.140456 C 18.528582,18.264221 13.291696,25.230495 11.500037,31.436501 z"
             style="fill:#404040;"/>
          </a>
         </g>
        </svg>
</svg>
