<?xml version="1.0" encoding="UTF-8" standalone="no"?>
<!DOCTYPE svg PUBLIC "-//W3C//DTD SVG 1.1//EN"
 "http://www.w3.org/Graphics/SVG/1.1/DTD/svg11.dtd">
<!-- Generated by graphviz version 2.44.1 (20200629.0800)
 -->
<!-- Title: TTrack::PlatformOnSignalSide Pages: 1 -->
<svg width="664pt" height="207pt"
 viewBox="0.00 0.00 664.00 207.11" xmlns="http://www.w3.org/2000/svg" xmlns:xlink="http://www.w3.org/1999/xlink">
<g id="graph0" class="graph" transform="scale(1 1) rotate(0) translate(4 203.11)">
<title>TTrack::PlatformOnSignalSide</title>
<polygon fill="white" stroke="transparent" points="-4,4 -4,-203.11 660,-203.11 660,4 -4,4"/>
<!-- Node1 -->
<g id="node1" class="node">
<title>Node1</title>
<g id="a_node1"><a xlink:title="Check whether there is a platform present at HLoc &amp; VLoc at the same side as the signal represented b...">
<polygon fill="#bfbfbf" stroke="black" points="0,-86.21 0,-105.21 147,-105.21 147,-86.21 0,-86.21"/>
<text text-anchor="middle" x="73.5" y="-93.21" font-family="Helvetica,sans-Serif" font-size="10.00">TTrack::PlatformOnSignalSide</text>
</a>
</g>
</g>
<!-- Node2 -->
<g id="node2" class="node">
<title>Node2</title>
<g id="a_node2"><a xlink:href="class_t_utilities.html#ae1eddca13cc3c492839e131f40ec21c0" target="_top" xlink:title="pops the last entry off the call stack, throws an error if called when empty">
<polygon fill="white" stroke="black" points="546,-127.21 546,-146.21 656,-146.21 656,-127.21 546,-127.21"/>
<text text-anchor="middle" x="601" y="-134.21" font-family="Helvetica,sans-Serif" font-size="10.00">TUtilities::CallLogPop</text>
</a>
</g>
</g>
<!-- Node1&#45;&gt;Node2 -->
<g id="edge1" class="edge">
<title>Node1&#45;&gt;Node2</title>
<path fill="none" stroke="midnightblue" d="M91.64,-105.31C112.6,-116.69 149.44,-135.5 183,-146.71 321.68,-193.02 367.85,-216.93 510,-182.71 534.61,-176.78 560.07,-162.92 577.6,-151.96"/>
<polygon fill="midnightblue" stroke="midnightblue" points="579.97,-154.59 586.47,-146.23 576.17,-148.71 579.97,-154.59"/>
</g>
<!-- Node3 -->
<g id="node3" class="node">
<title>Node3</title>
<g id="a_node3"><a xlink:href="class_t_track.html#a418966e6fefb71b9d0c9b941197832da" target="_top" xlink:title="Similar to GetVectorPositionFromTrackMap but for inactive elements, a pair is returned because there ...">
<polygon fill="white" stroke="black" points="364.5,-28.71 364.5,-58.71 501.5,-58.71 501.5,-28.71 364.5,-28.71"/>
<text text-anchor="start" x="372.5" y="-46.71" font-family="Helvetica,sans-Serif" font-size="10.00">TTrack::GetVectorPositions</text>
<text text-anchor="middle" x="433" y="-35.71" font-family="Helvetica,sans-Serif" font-size="10.00">FromInactiveTrackMap</text>
</a>
</g>
</g>
<!-- Node1&#45;&gt;Node3 -->
<g id="edge2" class="edge">
<title>Node1&#45;&gt;Node3</title>
<path fill="none" stroke="midnightblue" d="M112.97,-86.16C133.63,-81.29 159.59,-75.6 183,-71.71 239.99,-62.23 304.86,-55.05 354.1,-50.33"/>
<polygon fill="midnightblue" stroke="midnightblue" points="354.73,-53.79 364.36,-49.36 354.08,-46.82 354.73,-53.79"/>
</g>
<!-- Node4 -->
<g id="node4" class="node">
<title>Node4</title>
<g id="a_node4"><a xlink:href="class_t_utilities.html#a34bd6bb5305bc29afdf424f6d35a921c" target="_top" xlink:title="creates a string of the form &#39;hh:mm:ss&#39; for use in call &amp; event logging">
<polygon fill="white" stroke="black" points="546,-67.21 546,-86.21 656,-86.21 656,-67.21 546,-67.21"/>
<text text-anchor="middle" x="601" y="-74.21" font-family="Helvetica,sans-Serif" font-size="10.00">TUtilities::TimeStamp</text>
</a>
</g>
</g>
<!-- Node1&#45;&gt;Node4 -->
<g id="edge13" class="edge">
<title>Node1&#45;&gt;Node4</title>
<path fill="none" stroke="midnightblue" d="M93.22,-86.2C114.47,-75.79 150.42,-59.3 183,-49.71 323,-8.48 369.83,20.95 510,-19.71 537.23,-27.6 564.12,-46.48 581.31,-60.35"/>
<polygon fill="midnightblue" stroke="midnightblue" points="579.44,-63.36 589.37,-67.07 583.93,-57.98 579.44,-63.36"/>
</g>
<!-- Node5 -->
<g id="node5" class="node">
<title>Node5</title>
<g id="a_node5"><a xlink:href="class_t_track.html#a51f89cf70e94b037f6378cd78003d82b" target="_top" xlink:title="A range&#45;checked version of InactiveTrackElement.at(At)">
<polygon fill="white" stroke="black" points="356,-154.21 356,-173.21 510,-173.21 510,-154.21 356,-154.21"/>
<text text-anchor="middle" x="433" y="-161.21" font-family="Helvetica,sans-Serif" font-size="10.00">TTrack::InactiveTrackElementAt</text>
</a>
</g>
</g>
<!-- Node1&#45;&gt;Node5 -->
<g id="edge5" class="edge">
<title>Node1&#45;&gt;Node5</title>
<path fill="none" stroke="midnightblue" d="M113.56,-105.26C134.16,-110.15 159.88,-116.05 183,-120.71 242.85,-132.76 311.21,-144.41 361.14,-152.54"/>
<polygon fill="midnightblue" stroke="midnightblue" points="360.76,-156.03 371.19,-154.17 361.88,-149.12 360.76,-156.03"/>
</g>
<!-- Node6 -->
<g id="node6" class="node">
<title>Node6</title>
<g id="a_node6"><a xlink:href="class_t_track.html#adbec6561f4ecd2fa1dabf3e41502b085" target="_top" xlink:title="True if a non&#45;station named location or platform at HLoc &amp; VLoc.">
<polygon fill="white" stroke="black" points="183,-80.71 183,-110.71 320,-110.71 320,-80.71 183,-80.71"/>
<text text-anchor="start" x="191" y="-98.71" font-family="Helvetica,sans-Serif" font-size="10.00">TTrack::IsPlatformOrNamed</text>
<text text-anchor="middle" x="251.5" y="-87.71" font-family="Helvetica,sans-Serif" font-size="10.00">NonStationLocationPresent</text>
</a>
</g>
</g>
<!-- Node1&#45;&gt;Node6 -->
<g id="edge8" class="edge">
<title>Node1&#45;&gt;Node6</title>
<path fill="none" stroke="midnightblue" d="M147.1,-95.71C155.52,-95.71 164.13,-95.71 172.61,-95.71"/>
<polygon fill="midnightblue" stroke="midnightblue" points="172.87,-99.21 182.87,-95.71 172.87,-92.21 172.87,-99.21"/>
</g>
<!-- Node3&#45;&gt;Node2 -->
<g id="edge3" class="edge">
<title>Node3&#45;&gt;Node2</title>
<path fill="none" stroke="midnightblue" d="M461.04,-58.85C492.18,-76.3 542.99,-104.76 573.78,-122.01"/>
<polygon fill="midnightblue" stroke="midnightblue" points="572.21,-125.15 582.65,-126.98 575.63,-119.04 572.21,-125.15"/>
</g>
<!-- Node3&#45;&gt;Node4 -->
<g id="edge4" class="edge">
<title>Node3&#45;&gt;Node4</title>
<path fill="none" stroke="midnightblue" d="M501.52,-57.13C515.04,-59.82 529.12,-62.62 542.28,-65.23"/>
<polygon fill="midnightblue" stroke="midnightblue" points="541.63,-68.67 552.13,-67.19 543,-61.81 541.63,-68.67"/>
</g>
<!-- Node5&#45;&gt;Node2 -->
<g id="edge6" class="edge">
<title>Node5&#45;&gt;Node2</title>
<path fill="none" stroke="midnightblue" d="M492.53,-154.19C506.5,-151.91 521.48,-149.48 535.7,-147.16"/>
<polygon fill="midnightblue" stroke="midnightblue" points="536.58,-150.57 545.89,-145.51 535.46,-143.66 536.58,-150.57"/>
</g>
<!-- Node5&#45;&gt;Node4 -->
<g id="edge7" class="edge">
<title>Node5&#45;&gt;Node4</title>
<path fill="none" stroke="midnightblue" d="M452.4,-154.06C481.64,-138.74 538.89,-108.74 572.85,-90.93"/>
<polygon fill="midnightblue" stroke="midnightblue" points="574.54,-94 581.77,-86.26 571.29,-87.8 574.54,-94"/>
</g>
<!-- Node6&#45;&gt;Node2 -->
<g id="edge9" class="edge">
<title>Node6&#45;&gt;Node2</title>
<path fill="none" stroke="midnightblue" d="M320.33,-103.71C382.6,-111.06 474.22,-121.87 535.43,-129.09"/>
<polygon fill="midnightblue" stroke="midnightblue" points="535.4,-132.61 545.74,-130.3 536.22,-125.66 535.4,-132.61"/>
</g>
<!-- Node6&#45;&gt;Node3 -->
<g id="edge10" class="edge">
<title>Node6&#45;&gt;Node3</title>
<path fill="none" stroke="midnightblue" d="M304.42,-80.67C325.07,-74.68 348.99,-67.75 370.5,-61.52"/>
<polygon fill="midnightblue" stroke="midnightblue" points="371.57,-64.86 380.2,-58.71 369.62,-58.13 371.57,-64.86"/>
</g>
<!-- Node6&#45;&gt;Node4 -->
<g id="edge12" class="edge">
<title>Node6&#45;&gt;Node4</title>
<path fill="none" stroke="midnightblue" d="M320.33,-92C382.6,-88.59 474.22,-83.58 535.43,-80.24"/>
<polygon fill="midnightblue" stroke="midnightblue" points="535.95,-83.71 545.74,-79.67 535.57,-76.72 535.95,-83.71"/>
</g>
<!-- Node6&#45;&gt;Node5 -->
<g id="edge11" class="edge">
<title>Node6&#45;&gt;Node5</title>
<path fill="none" stroke="midnightblue" d="M285.73,-110.8C305.87,-119.7 332.19,-130.91 356,-139.71 366.73,-143.67 378.46,-147.58 389.42,-151.05"/>
<polygon fill="midnightblue" stroke="midnightblue" points="388.63,-154.47 399.22,-154.11 390.72,-147.79 388.63,-154.47"/>
</g>
</g>
</svg>
