<?xml version="1.0" encoding="UTF-8" standalone="no"?>
<!DOCTYPE svg PUBLIC "-//W3C//DTD SVG 1.1//EN"
 "http://www.w3.org/Graphics/SVG/1.1/DTD/svg11.dtd">
<!-- Generated by graphviz version 2.44.1 (20200629.0800)
 -->
<!-- Title: TUtilities::ReadOneLineFromCouplingFile Pages: 1 -->
<svg width="532pt" height="39pt"
 viewBox="0.00 0.00 532.00 39.00" xmlns="http://www.w3.org/2000/svg" xmlns:xlink="http://www.w3.org/1999/xlink">
<g id="graph0" class="graph" transform="scale(1 1) rotate(0) translate(4 35)">
<title>TUtilities::ReadOneLineFromCouplingFile</title>
<polygon fill="white" stroke="transparent" points="-4,4 -4,-35 528,-35 528,4 -4,4"/>
<!-- Node1 -->
<g id="node1" class="node">
<title>Node1</title>
<g id="a_node1"><a xlink:title="reads a single line from the multiplayer coupling file, returns true for success with OutString conta...">
<polygon fill="#bfbfbf" stroke="black" points="383,-0.5 383,-30.5 524,-30.5 524,-0.5 383,-0.5"/>
<text text-anchor="start" x="391" y="-18.5" font-family="Helvetica,sans-Serif" font-size="10.00">TUtilities::ReadOneLineFrom</text>
<text text-anchor="middle" x="453.5" y="-7.5" font-family="Helvetica,sans-Serif" font-size="10.00">CouplingFile</text>
</a>
</g>
</g>
<!-- Node2 -->
<g id="node2" class="node">
<title>Node2</title>
<g id="a_node2"><a xlink:href="class_t_interface.html#a8e15fdb2f391ad0fea755d4fa0ecd940" target="_top" xlink:title="Read couplingfile and convert into CouplingMap.">
<polygon fill="white" stroke="black" points="188,-6 188,-25 347,-25 347,-6 188,-6"/>
<text text-anchor="middle" x="267.5" y="-13" font-family="Helvetica,sans-Serif" font-size="10.00">TInterface::PopulateCouplingMap</text>
</a>
</g>
</g>
<!-- Node1&#45;&gt;Node2 -->
<g id="edge1" class="edge">
<title>Node1&#45;&gt;Node2</title>
<path fill="none" stroke="midnightblue" d="M372.68,-15.5C364.2,-15.5 355.57,-15.5 347.1,-15.5"/>
<polygon fill="midnightblue" stroke="midnightblue" points="372.94,-19 382.94,-15.5 372.94,-12 372.94,-19"/>
</g>
<!-- Node3 -->
<g id="node3" class="node">
<title>Node3</title>
<g id="a_node3"><a xlink:href="class_t_interface.html#a4080c828426c032b99d01e92f96ebe26" target="_top" xlink:title=" ">
<polygon fill="white" stroke="black" points="0,-0.5 0,-30.5 152,-30.5 152,-0.5 0,-0.5"/>
<text text-anchor="start" x="8" y="-18.5" font-family="Helvetica,sans-Serif" font-size="10.00">TInterface::MPHPLoadCoupling</text>
<text text-anchor="middle" x="76" y="-7.5" font-family="Helvetica,sans-Serif" font-size="10.00">FileButtonClick</text>
</a>
</g>
</g>
<!-- Node2&#45;&gt;Node3 -->
<g id="edge2" class="edge">
<title>Node2&#45;&gt;Node3</title>
<path fill="none" stroke="midnightblue" d="M177.76,-15.5C169.19,-15.5 160.55,-15.5 152.13,-15.5"/>
<polygon fill="midnightblue" stroke="midnightblue" points="177.78,-19 187.78,-15.5 177.78,-12 177.78,-19"/>
</g>
</g>
</svg>
