<?xml version="1.0" encoding="UTF-8" standalone="no"?>
<!DOCTYPE svg PUBLIC "-//W3C//DTD SVG 1.1//EN"
 "http://www.w3.org/Graphics/SVG/1.1/DTD/svg11.dtd">
<!-- Generated by graphviz version 2.44.1 (20200629.0800)
 -->
<!-- Title: TTrainController::GetExitLocationAndAt Pages: 1 -->
<svg width="435pt" height="75pt"
 viewBox="0.00 0.00 435.00 75.00" xmlns="http://www.w3.org/2000/svg" xmlns:xlink="http://www.w3.org/1999/xlink">
<g id="graph0" class="graph" transform="scale(1 1) rotate(0) translate(4 71)">
<title>TTrainController::GetExitLocationAndAt</title>
<polygon fill="white" stroke="transparent" points="-4,4 -4,-71 431,-71 431,4 -4,4"/>
<!-- Node1 -->
<g id="node1" class="node">
<title>Node1</title>
<g id="a_node1"><a xlink:title="Check all timetable names in ExitList, if all same return &quot; at [name]&quot; + AllowableExits = elements,...">
<polygon fill="#bfbfbf" stroke="black" points="0,-23 0,-53 123,-53 123,-23 0,-23"/>
<text text-anchor="start" x="8" y="-41" font-family="Helvetica,sans-Serif" font-size="10.00">TTrainController::GetExit</text>
<text text-anchor="middle" x="61.5" y="-30" font-family="Helvetica,sans-Serif" font-size="10.00">LocationAndAt</text>
</a>
</g>
</g>
<!-- Node2 -->
<g id="node2" class="node">
<title>Node2</title>
<g id="a_node2"><a xlink:href="class_t_utilities.html#ae1eddca13cc3c492839e131f40ec21c0" target="_top" xlink:title="&lt; specifies whether no delays or minor, moderate or major random delays are to be applied">
<polygon fill="white" stroke="black" points="317,-47.5 317,-66.5 427,-66.5 427,-47.5 317,-47.5"/>
<text text-anchor="middle" x="372" y="-54.5" font-family="Helvetica,sans-Serif" font-size="10.00">TUtilities::CallLogPop</text>
</a>
</g>
</g>
<!-- Node1&#45;&gt;Node2 -->
<g id="edge1" class="edge">
<title>Node1&#45;&gt;Node2</title>
<path fill="none" stroke="midnightblue" d="M123.24,-51.82C135.04,-53.98 147.36,-55.86 159,-57 208.41,-61.82 264.6,-61.56 306.72,-60.24"/>
<polygon fill="midnightblue" stroke="midnightblue" points="306.96,-63.73 316.84,-59.89 306.72,-56.73 306.96,-63.73"/>
</g>
<!-- Node3 -->
<g id="node3" class="node">
<title>Node3</title>
<g id="a_node3"><a xlink:href="class_t_utilities.html#a34bd6bb5305bc29afdf424f6d35a921c" target="_top" xlink:title="creates a string of the form &#39;hh:mm:ss&#39; for use in call &amp; event logging">
<polygon fill="white" stroke="black" points="317,-0.5 317,-19.5 427,-19.5 427,-0.5 317,-0.5"/>
<text text-anchor="middle" x="372" y="-7.5" font-family="Helvetica,sans-Serif" font-size="10.00">TUtilities::TimeStamp</text>
</a>
</g>
</g>
<!-- Node1&#45;&gt;Node3 -->
<g id="edge2" class="edge">
<title>Node1&#45;&gt;Node3</title>
<path fill="none" stroke="midnightblue" d="M123.02,-24.62C134.9,-22.41 147.3,-20.39 159,-19 208.34,-13.13 264.54,-10.95 306.67,-10.2"/>
<polygon fill="midnightblue" stroke="midnightblue" points="306.85,-13.69 316.79,-10.04 306.74,-6.69 306.85,-13.69"/>
</g>
<!-- Node4 -->
<g id="node4" class="node">
<title>Node4</title>
<g id="a_node4"><a xlink:href="class_t_track.html#ad377e5a1f152f2e89832c0f9bcfd261f" target="_top" xlink:title="A range&#45;checked version of TrackVector.at(At)">
<polygon fill="white" stroke="black" points="159,-28.5 159,-47.5 281,-47.5 281,-28.5 159,-28.5"/>
<text text-anchor="middle" x="220" y="-35.5" font-family="Helvetica,sans-Serif" font-size="10.00">TTrack::TrackElementAt</text>
</a>
</g>
</g>
<!-- Node1&#45;&gt;Node4 -->
<g id="edge3" class="edge">
<title>Node1&#45;&gt;Node4</title>
<path fill="none" stroke="midnightblue" d="M123.01,-38C131.48,-38 140.24,-38 148.87,-38"/>
<polygon fill="midnightblue" stroke="midnightblue" points="148.91,-41.5 158.91,-38 148.91,-34.5 148.91,-41.5"/>
</g>
<!-- Node4&#45;&gt;Node2 -->
<g id="edge4" class="edge">
<title>Node4&#45;&gt;Node2</title>
<path fill="none" stroke="midnightblue" d="M281.15,-45.62C289.49,-46.68 298.09,-47.76 306.51,-48.83"/>
<polygon fill="midnightblue" stroke="midnightblue" points="306.3,-52.33 316.66,-50.12 307.18,-45.39 306.3,-52.33"/>
</g>
<!-- Node4&#45;&gt;Node3 -->
<g id="edge5" class="edge">
<title>Node4&#45;&gt;Node3</title>
<path fill="none" stroke="midnightblue" d="M272.2,-28.44C284.39,-26.17 297.51,-23.72 310.09,-21.37"/>
<polygon fill="midnightblue" stroke="midnightblue" points="310.84,-24.79 320.03,-19.51 309.56,-17.91 310.84,-24.79"/>
</g>
</g>
</svg>
