<?xml version="1.0" encoding="UTF-8" standalone="no"?>
<!DOCTYPE svg PUBLIC "-//W3C//DTD SVG 1.1//EN"
 "http://www.w3.org/Graphics/SVG/1.1/DTD/svg11.dtd">
<!-- Generated by graphviz version 2.44.1 (20200629.0800)
 -->
<!-- Title: TTrain::SaveOneSessionTrain Pages: 1 -->
<svg width="836pt" height="2134pt"
 viewBox="0.00 0.00 836.00 2133.50" xmlns="http://www.w3.org/2000/svg" xmlns:xlink="http://www.w3.org/1999/xlink">
<g id="graph0" class="graph" transform="scale(1 1) rotate(0) translate(4 2129.5)">
<title>TTrain::SaveOneSessionTrain</title>
<polygon fill="white" stroke="transparent" points="-4,4 -4,-2129.5 832,-2129.5 832,4 -4,4"/>
<!-- Node1 -->
<g id="node1" class="node">
<title>Node1</title>
<g id="a_node1"><a xlink:title="Data for a single train is saved to a session file.">
<polygon fill="#bfbfbf" stroke="black" points="684,-1107 684,-1126 828,-1126 828,-1107 684,-1107"/>
<text text-anchor="middle" x="756" y="-1114" font-family="Helvetica,sans-Serif" font-size="10.00">TTrain::SaveOneSessionTrain</text>
</a>
</g>
</g>
<!-- Node2 -->
<g id="node2" class="node">
<title>Node2</title>
<g id="a_node2"><a xlink:href="class_t_train_controller.html#afa594bfc6b628d21d02a31c3a13c3a0a" target="_top" xlink:title="save trains to a session file">
<polygon fill="white" stroke="black" points="502,-1101.5 502,-1131.5 648,-1131.5 648,-1101.5 502,-1101.5"/>
<text text-anchor="start" x="510" y="-1119.5" font-family="Helvetica,sans-Serif" font-size="10.00">TTrainController::SaveSession</text>
<text text-anchor="middle" x="575" y="-1108.5" font-family="Helvetica,sans-Serif" font-size="10.00">Trains</text>
</a>
</g>
</g>
<!-- Node1&#45;&gt;Node2 -->
<g id="edge1" class="edge">
<title>Node1&#45;&gt;Node2</title>
<path fill="none" stroke="midnightblue" d="M673.94,-1116.5C665.32,-1116.5 656.6,-1116.5 648.09,-1116.5"/>
<polygon fill="midnightblue" stroke="midnightblue" points="674,-1120 684,-1116.5 674,-1113 674,-1120"/>
</g>
<!-- Node3 -->
<g id="node3" class="node">
<title>Node3</title>
<g id="a_node3"><a xlink:href="class_t_interface.html#a0109f801142d4fa3becae22e23b84163" target="_top" xlink:title="Save the error log after an error has been thrown &#45; no need for a caller.">
<polygon fill="white" stroke="black" points="344,-1088 344,-1107 466,-1107 466,-1088 344,-1088"/>
<text text-anchor="middle" x="405" y="-1095" font-family="Helvetica,sans-Serif" font-size="10.00">TInterface::SaveErrorFile</text>
</a>
</g>
</g>
<!-- Node2&#45;&gt;Node3 -->
<g id="edge2" class="edge">
<title>Node2&#45;&gt;Node3</title>
<path fill="none" stroke="midnightblue" d="M491.67,-1107.19C483.03,-1106.21 474.37,-1105.23 466.04,-1104.29"/>
<polygon fill="midnightblue" stroke="midnightblue" points="491.45,-1110.69 501.78,-1108.33 492.23,-1103.73 491.45,-1110.69"/>
</g>
<!-- Node201 -->
<g id="node50" class="node">
<title>Node201</title>
<g id="a_node50"><a xlink:href="class_t_interface.html#a3362cfff4fa746fdb4871fe9d6c5ba25" target="_top" xlink:title="Save a session file &#45; see LoadSession for details of additions to the session file.">
<polygon fill="white" stroke="black" points="187,-1616 187,-1635 308,-1635 308,-1616 187,-1616"/>
<text text-anchor="middle" x="247.5" y="-1623" font-family="Helvetica,sans-Serif" font-size="10.00">TInterface::SaveSession</text>
</a>
</g>
</g>
<!-- Node2&#45;&gt;Node201 -->
<g id="edge49" class="edge">
<title>Node2&#45;&gt;Node201</title>
<path fill="none" stroke="midnightblue" d="M558.81,-1140.26C500.64,-1231.22 293.45,-1555.21 254.75,-1615.73"/>
<polygon fill="midnightblue" stroke="midnightblue" points="561.82,-1142.04 564.26,-1131.73 555.92,-1138.27 561.82,-1142.04"/>
</g>
<!-- Node4 -->
<g id="node4" class="node">
<title>Node4</title>
<g id="a_node4"><a xlink:href="class_t_interface.html#a4f3a25665e2266441217849f947a1adf" target="_top" xlink:title="The error logging routine, called when an error is detected.">
<polygon fill="white" stroke="red" points="197,-1088 197,-1107 298,-1107 298,-1088 197,-1088"/>
<text text-anchor="middle" x="247.5" y="-1095" font-family="Helvetica,sans-Serif" font-size="10.00">TInterface::ErrorLog</text>
</a>
</g>
</g>
<!-- Node3&#45;&gt;Node4 -->
<g id="edge3" class="edge">
<title>Node3&#45;&gt;Node4</title>
<path fill="none" stroke="midnightblue" d="M333.54,-1097.5C321.68,-1097.5 309.59,-1097.5 298.38,-1097.5"/>
<polygon fill="midnightblue" stroke="midnightblue" points="333.88,-1101 343.88,-1097.5 333.88,-1094 333.88,-1101"/>
</g>
<!-- Node5 -->
<g id="node5" class="node">
<title>Node5</title>
<g id="a_node5"><a xlink:href="class_t_interface.html#a7ccec66d1d0a81f124397af39f43da32" target="_top" xlink:title=" ">
<polygon fill="white" stroke="black" points="9,-2056.5 9,-2086.5 142,-2086.5 142,-2056.5 9,-2056.5"/>
<text text-anchor="start" x="17" y="-2074.5" font-family="Helvetica,sans-Serif" font-size="10.00">TInterface::AboutMenuItem</text>
<text text-anchor="middle" x="75.5" y="-2063.5" font-family="Helvetica,sans-Serif" font-size="10.00">Click</text>
</a>
</g>
</g>
<!-- Node4&#45;&gt;Node5 -->
<g id="edge4" class="edge">
<title>Node4&#45;&gt;Node5</title>
<path fill="none" stroke="midnightblue" d="M243.93,-1117.33C235.17,-1185.38 205.95,-1415.68 187,-1606.5 182.15,-1655.31 181.24,-2007.88 151,-2046.5 147.97,-2050.37 144.32,-2053.64 140.29,-2056.41"/>
<polygon fill="midnightblue" stroke="midnightblue" points="247.43,-1117.56 245.24,-1107.19 240.49,-1116.66 247.43,-1117.56"/>
</g>
<!-- Node6 -->
<g id="node6" class="node">
<title>Node6</title>
<g id="a_node6"><a xlink:href="class_t_interface.html#adfe259347a82aae9fc9538bba9c51cb8" target="_top" xlink:title=" ">
<polygon fill="white" stroke="black" points="8.5,-2018 8.5,-2037 142.5,-2037 142.5,-2018 8.5,-2018"/>
<text text-anchor="middle" x="75.5" y="-2025" font-family="Helvetica,sans-Serif" font-size="10.00">TInterface::AcceptDragging</text>
</a>
</g>
</g>
<!-- Node4&#45;&gt;Node6 -->
<g id="edge5" class="edge">
<title>Node4&#45;&gt;Node6</title>
<path fill="none" stroke="midnightblue" d="M243.99,-1117.34C235.4,-1185.4 206.69,-1415.76 187,-1606.5 182.4,-1651.11 180.07,-1974.35 151,-2008.5 147.8,-2012.26 143.97,-2015.33 139.75,-2017.83"/>
<polygon fill="midnightblue" stroke="midnightblue" points="247.49,-1117.55 245.27,-1107.19 240.54,-1116.68 247.49,-1117.55"/>
</g>
<!-- Node7 -->
<g id="node7" class="node">
<title>Node7</title>
<g id="a_node7"><a xlink:href="class_t_interface.html#a30904d608111ce6452a9861d86b64267" target="_top" xlink:title=" ">
<polygon fill="white" stroke="black" points="10,-1968.5 10,-1998.5 141,-1998.5 141,-1968.5 10,-1968.5"/>
<text text-anchor="start" x="18" y="-1986.5" font-family="Helvetica,sans-Serif" font-size="10.00">TInterface::AddMinsButton</text>
<text text-anchor="middle" x="75.5" y="-1975.5" font-family="Helvetica,sans-Serif" font-size="10.00">Click</text>
</a>
</g>
</g>
<!-- Node4&#45;&gt;Node7 -->
<g id="edge6" class="edge">
<title>Node4&#45;&gt;Node7</title>
<path fill="none" stroke="midnightblue" d="M244.07,-1117.35C235.77,-1185.44 207.86,-1415.88 187,-1606.5 178.42,-1684.88 200.61,-1898.21 151,-1959.5 148.18,-1962.99 144.85,-1965.97 141.18,-1968.53"/>
<polygon fill="midnightblue" stroke="midnightblue" points="247.57,-1117.55 245.31,-1107.2 240.63,-1116.7 247.57,-1117.55"/>
</g>
<!-- Node8 -->
<g id="node8" class="node">
<title>Node8</title>
<g id="a_node8"><a xlink:href="class_t_interface.html#a1b1a4260e251c9bd5f48fd6c3432e7a5" target="_top" xlink:title=" ">
<polygon fill="white" stroke="black" points="5.5,-1919.5 5.5,-1949.5 145.5,-1949.5 145.5,-1919.5 5.5,-1919.5"/>
<text text-anchor="start" x="13.5" y="-1937.5" font-family="Helvetica,sans-Serif" font-size="10.00">TInterface::AddPrefDirButton</text>
<text text-anchor="middle" x="75.5" y="-1926.5" font-family="Helvetica,sans-Serif" font-size="10.00">Click</text>
</a>
</g>
</g>
<!-- Node4&#45;&gt;Node8 -->
<g id="edge7" class="edge">
<title>Node4&#45;&gt;Node8</title>
<path fill="none" stroke="midnightblue" d="M244.2,-1117.18C229.68,-1241.26 151.41,-1910 151,-1910.5 148.15,-1913.96 144.8,-1916.93 141.12,-1919.48"/>
<polygon fill="midnightblue" stroke="midnightblue" points="247.68,-1117.53 245.37,-1107.19 240.73,-1116.72 247.68,-1117.53"/>
</g>
<!-- Node9 -->
<g id="node9" class="node">
<title>Node9</title>
<g id="a_node9"><a xlink:href="class_t_interface.html#a0abab134f4994b02507e1e2d3f31cd77" target="_top" xlink:title=" ">
<polygon fill="white" stroke="black" points="7,-1870.5 7,-1900.5 144,-1900.5 144,-1870.5 7,-1870.5"/>
<text text-anchor="start" x="15" y="-1888.5" font-family="Helvetica,sans-Serif" font-size="10.00">TInterface::AddSubMinsBox</text>
<text text-anchor="middle" x="75.5" y="-1877.5" font-family="Helvetica,sans-Serif" font-size="10.00">KeyUp</text>
</a>
</g>
</g>
<!-- Node4&#45;&gt;Node9 -->
<g id="edge8" class="edge">
<title>Node4&#45;&gt;Node9</title>
<path fill="none" stroke="midnightblue" d="M244.18,-1117.26C230.15,-1236.39 157.16,-1854.06 151,-1861.5 148.14,-1864.95 144.78,-1867.92 141.09,-1870.46"/>
<polygon fill="midnightblue" stroke="midnightblue" points="247.68,-1117.4 245.38,-1107.06 240.73,-1116.58 247.68,-1117.4"/>
</g>
<!-- Node10 -->
<g id="node10" class="node">
<title>Node10</title>
<g id="a_node10"><a xlink:href="class_t_interface.html#aa20c05bf2d6c23035a10a89796334d0f" target="_top" xlink:title=" ">
<polygon fill="white" stroke="black" points="11,-1821.5 11,-1851.5 140,-1851.5 140,-1821.5 11,-1821.5"/>
<text text-anchor="start" x="19" y="-1839.5" font-family="Helvetica,sans-Serif" font-size="10.00">TInterface::AddTextButton</text>
<text text-anchor="middle" x="75.5" y="-1828.5" font-family="Helvetica,sans-Serif" font-size="10.00">Click</text>
</a>
</g>
</g>
<!-- Node4&#45;&gt;Node10 -->
<g id="edge9" class="edge">
<title>Node4&#45;&gt;Node10</title>
<path fill="none" stroke="midnightblue" d="M244.16,-1117.19C230.63,-1230.88 162.56,-1798.66 151,-1812.5 147.86,-1816.25 144.14,-1819.43 140.05,-1822.11"/>
<polygon fill="midnightblue" stroke="midnightblue" points="247.65,-1117.47 245.36,-1107.13 240.7,-1116.65 247.65,-1117.47"/>
</g>
<!-- Node11 -->
<g id="node11" class="node">
<title>Node11</title>
<g id="a_node11"><a xlink:href="class_t_interface.html#a10494e62a7bb4e7114ab4d98e18499f1" target="_top" xlink:title=" ">
<polygon fill="white" stroke="black" points="8.5,-1772.5 8.5,-1802.5 142.5,-1802.5 142.5,-1772.5 8.5,-1772.5"/>
<text text-anchor="start" x="16.5" y="-1790.5" font-family="Helvetica,sans-Serif" font-size="10.00">TInterface::AddTrackButton</text>
<text text-anchor="middle" x="75.5" y="-1779.5" font-family="Helvetica,sans-Serif" font-size="10.00">Click</text>
</a>
</g>
</g>
<!-- Node4&#45;&gt;Node11 -->
<g id="edge10" class="edge">
<title>Node4&#45;&gt;Node11</title>
<path fill="none" stroke="midnightblue" d="M244.28,-1117.1C232.04,-1224.51 172.57,-1737.93 151,-1763.5 148.11,-1766.93 144.72,-1769.87 141.02,-1772.4"/>
<polygon fill="midnightblue" stroke="midnightblue" points="247.77,-1117.35 245.43,-1107.02 240.82,-1116.56 247.77,-1117.35"/>
</g>
<!-- Node12 -->
<g id="node12" class="node">
<title>Node12</title>
<g id="a_node12"><a xlink:href="class_t_interface.html#a189a4b05f27d6b5ec8b9a90ec1a9cc50" target="_top" xlink:title=" ">
<polygon fill="white" stroke="black" points="9,-1723.5 9,-1753.5 142,-1753.5 142,-1723.5 9,-1723.5"/>
<text text-anchor="start" x="17" y="-1741.5" font-family="Helvetica,sans-Serif" font-size="10.00">TInterface::AllEntriesTTList</text>
<text text-anchor="middle" x="75.5" y="-1730.5" font-family="Helvetica,sans-Serif" font-size="10.00">BoxMouseUp</text>
</a>
</g>
</g>
<!-- Node4&#45;&gt;Node12 -->
<g id="edge11" class="edge">
<title>Node4&#45;&gt;Node12</title>
<path fill="none" stroke="midnightblue" d="M244.66,-1117.29C235.15,-1217.56 190.63,-1666.49 151,-1713.5 147.75,-1717.36 143.88,-1720.63 139.64,-1723.39"/>
<polygon fill="midnightblue" stroke="midnightblue" points="248.14,-1117.58 245.6,-1107.3 241.17,-1116.93 248.14,-1117.58"/>
</g>
<!-- Node13 -->
<g id="node13" class="node">
<title>Node13</title>
<g id="a_node13"><a xlink:href="class_t_interface.html#af99ae89b6c7a2d37bf49cf0b5fcc3f1f" target="_top" xlink:title=" ">
<polygon fill="white" stroke="red" points="17.5,-1685 17.5,-1704 133.5,-1704 133.5,-1685 17.5,-1685"/>
<text text-anchor="middle" x="75.5" y="-1692" font-family="Helvetica,sans-Serif" font-size="10.00">TInterface::AppActivate</text>
</a>
</g>
</g>
<!-- Node4&#45;&gt;Node13 -->
<g id="edge12" class="edge">
<title>Node4&#45;&gt;Node13</title>
<path fill="none" stroke="midnightblue" d="M246.04,-1117.31C243.49,-1208.99 228.32,-1591.23 151,-1675.5 146.22,-1680.71 140.22,-1684.58 133.72,-1687.44"/>
<polygon fill="midnightblue" stroke="midnightblue" points="249.54,-1117.27 246.3,-1107.19 242.54,-1117.09 249.54,-1117.27"/>
</g>
<!-- Node15 -->
<g id="node14" class="node">
<title>Node15</title>
<g id="a_node14"><a xlink:href="class_t_interface.html#a75f68c918750c0e007ea7a85d718e2ab" target="_top" xlink:title=" ">
<polygon fill="white" stroke="red" points="12,-1647 12,-1666 139,-1666 139,-1647 12,-1647"/>
<text text-anchor="middle" x="75.5" y="-1654" font-family="Helvetica,sans-Serif" font-size="10.00">TInterface::AppDeactivate</text>
</a>
</g>
</g>
<!-- Node4&#45;&gt;Node15 -->
<g id="edge13" class="edge">
<title>Node4&#45;&gt;Node15</title>
<path fill="none" stroke="midnightblue" d="M245.78,-1117.4C242.2,-1205.49 223.43,-1559.45 151,-1637.5 147.46,-1641.32 143.27,-1644.41 138.71,-1646.91"/>
<polygon fill="midnightblue" stroke="midnightblue" points="249.28,-1117.52 246.17,-1107.39 242.28,-1117.25 249.28,-1117.52"/>
</g>
<!-- Node16 -->
<g id="node15" class="node">
<title>Node16</title>
<g id="a_node15"><a xlink:href="class_t_interface.html#a36ad38f4b485bba874129aeb3a20d926" target="_top" xlink:title=" ">
<polygon fill="white" stroke="black" points="9,-1597.5 9,-1627.5 142,-1627.5 142,-1597.5 9,-1597.5"/>
<text text-anchor="start" x="17" y="-1615.5" font-family="Helvetica,sans-Serif" font-size="10.00">TInterface::AutoSigsButton</text>
<text text-anchor="middle" x="75.5" y="-1604.5" font-family="Helvetica,sans-Serif" font-size="10.00">Click</text>
</a>
</g>
</g>
<!-- Node4&#45;&gt;Node16 -->
<g id="edge14" class="edge">
<title>Node4&#45;&gt;Node16</title>
<path fill="none" stroke="midnightblue" d="M245.28,-1117.3C239.82,-1199.95 214.98,-1516.37 151,-1588.5 147.93,-1591.96 144.37,-1594.92 140.49,-1597.46"/>
<polygon fill="midnightblue" stroke="midnightblue" points="248.78,-1117.45 245.93,-1107.24 241.8,-1117 248.78,-1117.45"/>
</g>
<!-- Node17 -->
<g id="node16" class="node">
<title>Node17</title>
<g id="a_node16"><a xlink:href="class_t_interface.html#a28579472104533fb5fd01066a22fbb5b" target="_top" xlink:title=" ">
<polygon fill="white" stroke="black" points="11,-1548.5 11,-1578.5 140,-1578.5 140,-1548.5 11,-1548.5"/>
<text text-anchor="start" x="19" y="-1566.5" font-family="Helvetica,sans-Serif" font-size="10.00">TInterface::AZOrderButton</text>
<text text-anchor="middle" x="75.5" y="-1555.5" font-family="Helvetica,sans-Serif" font-size="10.00">Click</text>
</a>
</g>
</g>
<!-- Node4&#45;&gt;Node17 -->
<g id="edge15" class="edge">
<title>Node4&#45;&gt;Node17</title>
<path fill="none" stroke="midnightblue" d="M244.82,-1117.26C237.89,-1194.57 209.02,-1475.44 151,-1539.5 147.81,-1543.03 144.09,-1546.03 140.06,-1548.6"/>
<polygon fill="midnightblue" stroke="midnightblue" points="248.33,-1117.29 245.72,-1107.02 241.36,-1116.68 248.33,-1117.29"/>
</g>
<!-- Node18 -->
<g id="node17" class="node">
<title>Node18</title>
<g id="a_node17"><a xlink:href="class_t_interface.html#a0e9af41ff305fe2813385fce38b73206" target="_top" xlink:title=" ">
<polygon fill="white" stroke="black" points="0,-1499.5 0,-1529.5 151,-1529.5 151,-1499.5 0,-1499.5"/>
<text text-anchor="start" x="8" y="-1517.5" font-family="Helvetica,sans-Serif" font-size="10.00">TInterface::BecomeNewService</text>
<text text-anchor="middle" x="75.5" y="-1506.5" font-family="Helvetica,sans-Serif" font-size="10.00">MenuItemClick</text>
</a>
</g>
</g>
<!-- Node4&#45;&gt;Node18 -->
<g id="edge16" class="edge">
<title>Node4&#45;&gt;Node18</title>
<path fill="none" stroke="midnightblue" d="M244.24,-1117.33C235.68,-1189.16 203.07,-1434.47 151,-1490.5 147.85,-1493.88 144.23,-1496.79 140.31,-1499.29"/>
<polygon fill="midnightblue" stroke="midnightblue" points="247.76,-1117.35 245.45,-1107.01 240.81,-1116.53 247.76,-1117.35"/>
</g>
<!-- Node19 -->
<g id="node18" class="node">
<title>Node19</title>
<g id="a_node18"><a xlink:href="class_t_interface.html#a237c151513ca8adca6cd1006cc2fc66f" target="_top" xlink:title=" ">
<polygon fill="white" stroke="black" points="7.5,-1450.5 7.5,-1480.5 143.5,-1480.5 143.5,-1450.5 7.5,-1450.5"/>
<text text-anchor="start" x="15.5" y="-1468.5" font-family="Helvetica,sans-Serif" font-size="10.00">TInterface::BlackBgndMenu</text>
<text text-anchor="middle" x="75.5" y="-1457.5" font-family="Helvetica,sans-Serif" font-size="10.00">ItemClick</text>
</a>
</g>
</g>
<!-- Node4&#45;&gt;Node19 -->
<g id="edge17" class="edge">
<title>Node4&#45;&gt;Node19</title>
<path fill="none" stroke="midnightblue" d="M247.08,-1117.34C247.69,-1175.51 241.34,-1347.39 151,-1441.5 147.71,-1444.93 143.92,-1447.87 139.84,-1450.39"/>
<polygon fill="midnightblue" stroke="midnightblue" points="250.58,-1117.22 246.89,-1107.28 243.58,-1117.35 250.58,-1117.22"/>
</g>
<!-- Node20 -->
<g id="node19" class="node">
<title>Node20</title>
<g id="a_node19"><a xlink:href="class_t_interface.html#a24d79aa4745e495daa07bb5ce412e75f" target="_top" xlink:title=" ">
<polygon fill="white" stroke="black" points="10,-1401.5 10,-1431.5 141,-1431.5 141,-1401.5 10,-1401.5"/>
<text text-anchor="start" x="18" y="-1419.5" font-family="Helvetica,sans-Serif" font-size="10.00">TInterface::BlueBgndMenu</text>
<text text-anchor="middle" x="75.5" y="-1408.5" font-family="Helvetica,sans-Serif" font-size="10.00">ItemClick</text>
</a>
</g>
</g>
<!-- Node4&#45;&gt;Node20 -->
<g id="edge18" class="edge">
<title>Node4&#45;&gt;Node20</title>
<path fill="none" stroke="midnightblue" d="M246,-1117.27C243.6,-1169.72 229.78,-1313.83 151,-1392.5 147.54,-1395.96 143.58,-1398.92 139.33,-1401.45"/>
<polygon fill="midnightblue" stroke="midnightblue" points="249.5,-1117.38 246.37,-1107.26 242.51,-1117.13 249.5,-1117.38"/>
</g>
<!-- Node21 -->
<g id="node20" class="node">
<title>Node21</title>
<g id="a_node20"><a xlink:href="class_t_interface.html#ab1799665ee1e4212186f80ab49acf1e1" target="_top" xlink:title=" ">
<polygon fill="white" stroke="black" points="8.5,-1352.5 8.5,-1382.5 142.5,-1382.5 142.5,-1352.5 8.5,-1352.5"/>
<text text-anchor="start" x="16.5" y="-1370.5" font-family="Helvetica,sans-Serif" font-size="10.00">TInterface::BuildTrackMenu</text>
<text text-anchor="middle" x="75.5" y="-1359.5" font-family="Helvetica,sans-Serif" font-size="10.00">ItemClick</text>
</a>
</g>
</g>
<!-- Node4&#45;&gt;Node21 -->
<g id="edge19" class="edge">
<title>Node4&#45;&gt;Node21</title>
<path fill="none" stroke="midnightblue" d="M244.52,-1117.32C238.84,-1163.68 218.29,-1280.04 151,-1343.5 147.34,-1346.95 143.19,-1349.9 138.75,-1352.43"/>
<polygon fill="midnightblue" stroke="midnightblue" points="248.03,-1117.44 245.67,-1107.12 241.07,-1116.67 248.03,-1117.44"/>
</g>
<!-- Node22 -->
<g id="node21" class="node">
<title>Node22</title>
<g id="a_node21"><a xlink:href="class_t_interface.html#ae758bf4183bb5aa2a7cd83e06acd89b6" target="_top" xlink:title=" ">
<polygon fill="white" stroke="black" points="8,-1303.5 8,-1333.5 143,-1333.5 143,-1303.5 8,-1303.5"/>
<text text-anchor="start" x="16" y="-1321.5" font-family="Helvetica,sans-Serif" font-size="10.00">TInterface::CallingOnButton</text>
<text text-anchor="middle" x="75.5" y="-1310.5" font-family="Helvetica,sans-Serif" font-size="10.00">Click</text>
</a>
</g>
</g>
<!-- Node4&#45;&gt;Node22 -->
<g id="edge20" class="edge">
<title>Node4&#45;&gt;Node22</title>
<path fill="none" stroke="midnightblue" d="M242.37,-1117.33C233.12,-1156.85 206.99,-1245.83 151,-1294.5 147,-1297.98 142.49,-1300.95 137.72,-1303.5"/>
<polygon fill="midnightblue" stroke="midnightblue" points="245.84,-1117.88 244.59,-1107.36 239,-1116.36 245.84,-1117.88"/>
</g>
<!-- Node23 -->
<g id="node22" class="node">
<title>Node23</title>
<g id="a_node22"><a xlink:href="class_t_interface.html#a2fb2cd7dbddb7fa689ea994e9ffc10ff" target="_top" xlink:title=" ">
<polygon fill="white" stroke="black" points="8,-1254.5 8,-1284.5 143,-1284.5 143,-1254.5 8,-1254.5"/>
<text text-anchor="start" x="16" y="-1272.5" font-family="Helvetica,sans-Serif" font-size="10.00">TInterface::CancelSelection</text>
<text text-anchor="middle" x="75.5" y="-1261.5" font-family="Helvetica,sans-Serif" font-size="10.00">MenuItemClick</text>
</a>
</g>
</g>
<!-- Node4&#45;&gt;Node23 -->
<g id="edge21" class="edge">
<title>Node4&#45;&gt;Node23</title>
<path fill="none" stroke="midnightblue" d="M239.29,-1116.43C226.37,-1147.84 196.33,-1210.7 151,-1245.5 146.58,-1248.89 141.67,-1251.81 136.53,-1254.33"/>
<polygon fill="midnightblue" stroke="midnightblue" points="242.57,-1117.66 243.01,-1107.07 236.06,-1115.07 242.57,-1117.66"/>
</g>
<!-- Node24 -->
<g id="node23" class="node">
<title>Node24</title>
<g id="a_node23"><a xlink:href="class_t_interface.html#a6fb1db3295ef42cb1b6f20bc142fa502" target="_top" xlink:title=" ">
<polygon fill="white" stroke="black" points="11.5,-1205.5 11.5,-1235.5 139.5,-1235.5 139.5,-1205.5 11.5,-1205.5"/>
<text text-anchor="start" x="19.5" y="-1223.5" font-family="Helvetica,sans-Serif" font-size="10.00">TInterface::CancelTTEntry</text>
<text text-anchor="middle" x="75.5" y="-1212.5" font-family="Helvetica,sans-Serif" font-size="10.00">ButtonClick</text>
</a>
</g>
</g>
<!-- Node4&#45;&gt;Node24 -->
<g id="edge22" class="edge">
<title>Node4&#45;&gt;Node24</title>
<path fill="none" stroke="midnightblue" d="M233.74,-1115.36C217.08,-1137.43 185.91,-1174.73 151,-1196.5 145.58,-1199.88 139.64,-1202.83 133.55,-1205.39"/>
<polygon fill="midnightblue" stroke="midnightblue" points="236.65,-1117.31 239.77,-1107.18 231.01,-1113.15 236.65,-1117.31"/>
</g>
<!-- Node25 -->
<g id="node24" class="node">
<title>Node25</title>
<g id="a_node24"><a xlink:href="class_t_interface.html#aaaf32c3c815553f7ba70698e0f0071bb" target="_top" xlink:title=" ">
<polygon fill="white" stroke="black" points="7.5,-1156.5 7.5,-1186.5 143.5,-1186.5 143.5,-1156.5 7.5,-1156.5"/>
<text text-anchor="start" x="15.5" y="-1174.5" font-family="Helvetica,sans-Serif" font-size="10.00">TInterface::ChangeDirection</text>
<text text-anchor="middle" x="75.5" y="-1163.5" font-family="Helvetica,sans-Serif" font-size="10.00">MenuItemClick</text>
</a>
</g>
</g>
<!-- Node4&#45;&gt;Node25 -->
<g id="edge23" class="edge">
<title>Node4&#45;&gt;Node25</title>
<path fill="none" stroke="midnightblue" d="M221.48,-1112.11C202.54,-1122.79 175.66,-1137.16 151,-1147.5 143.48,-1150.65 135.39,-1153.65 127.42,-1156.38"/>
<polygon fill="midnightblue" stroke="midnightblue" points="223.4,-1115.04 230.35,-1107.05 219.93,-1108.96 223.4,-1115.04"/>
</g>
<!-- Node26 -->
<g id="node25" class="node">
<title>Node26</title>
<g id="a_node25"><a xlink:href="class_t_interface.html#a928eba983ac5132e1ae7799f8330451e" target="_top" xlink:title=" ">
<polygon fill="white" stroke="black" points="14.5,-1107.5 14.5,-1137.5 136.5,-1137.5 136.5,-1107.5 14.5,-1107.5"/>
<text text-anchor="start" x="22.5" y="-1125.5" font-family="Helvetica,sans-Serif" font-size="10.00">TInterface::ClearAllMenu</text>
<text text-anchor="middle" x="75.5" y="-1114.5" font-family="Helvetica,sans-Serif" font-size="10.00">ItemClick</text>
</a>
</g>
</g>
<!-- Node4&#45;&gt;Node26 -->
<g id="edge24" class="edge">
<title>Node4&#45;&gt;Node26</title>
<path fill="none" stroke="midnightblue" d="M186.94,-1106.26C170.68,-1108.65 153.04,-1111.24 136.73,-1113.64"/>
<polygon fill="midnightblue" stroke="midnightblue" points="187.49,-1109.72 196.87,-1104.8 186.47,-1102.79 187.49,-1109.72"/>
</g>
<!-- Node27 -->
<g id="node26" class="node">
<title>Node27</title>
<g id="a_node26"><a xlink:href="class_t_interface.html#a6139ffb52492eb89e5487a8a3cd647b5" target="_top" xlink:title="The main loop, called every clock tick via MasterClockTimer.">
<polygon fill="white" stroke="red" points="16,-2106 16,-2125 135,-2125 135,-2106 16,-2106"/>
<text text-anchor="middle" x="75.5" y="-2113" font-family="Helvetica,sans-Serif" font-size="10.00">TInterface::ClockTimer2</text>
</a>
</g>
</g>
<!-- Node4&#45;&gt;Node27 -->
<g id="edge25" class="edge">
<title>Node4&#45;&gt;Node27</title>
<path fill="none" stroke="midnightblue" d="M243.87,-1117.33C234.92,-1185.35 205.16,-1415.6 187,-1606.5 181.83,-1660.85 186.05,-2054.65 151,-2096.5 146.71,-2101.62 141.26,-2105.46 135.26,-2108.33"/>
<polygon fill="midnightblue" stroke="midnightblue" points="247.37,-1117.56 245.21,-1107.19 240.43,-1116.64 247.37,-1117.56"/>
</g>
<!-- Node29 -->
<g id="node27" class="node">
<title>Node29</title>
<g id="a_node27"><a xlink:href="class_t_interface.html#a77b4d0c5298ea6b8968af152fd8b7b8b" target="_top" xlink:title=" ">
<polygon fill="white" stroke="black" points="8.5,-1058.5 8.5,-1088.5 142.5,-1088.5 142.5,-1058.5 8.5,-1058.5"/>
<text text-anchor="start" x="16.5" y="-1076.5" font-family="Helvetica,sans-Serif" font-size="10.00">TInterface::ConflictAnalysis</text>
<text text-anchor="middle" x="75.5" y="-1065.5" font-family="Helvetica,sans-Serif" font-size="10.00">ButtonClick</text>
</a>
</g>
</g>
<!-- Node4&#45;&gt;Node29 -->
<g id="edge26" class="edge">
<title>Node4&#45;&gt;Node29</title>
<path fill="none" stroke="midnightblue" d="M186.7,-1089.06C172.45,-1087.05 157.15,-1084.89 142.63,-1082.84"/>
<polygon fill="midnightblue" stroke="midnightblue" points="186.48,-1092.56 196.87,-1090.49 187.46,-1085.63 186.48,-1092.56"/>
</g>
<!-- Node30 -->
<g id="node28" class="node">
<title>Node30</title>
<g id="a_node28"><a xlink:href="class_t_interface.html#a7aca81081a7983f1389c923e95c7afee" target="_top" xlink:title=" ">
<polygon fill="white" stroke="black" points="7.5,-1009.5 7.5,-1039.5 143.5,-1039.5 143.5,-1009.5 7.5,-1009.5"/>
<text text-anchor="start" x="15.5" y="-1027.5" font-family="Helvetica,sans-Serif" font-size="10.00">TInterface::ConvertToOther</text>
<text text-anchor="middle" x="75.5" y="-1016.5" font-family="Helvetica,sans-Serif" font-size="10.00">HandSignalsMenuItemClick</text>
</a>
</g>
</g>
<!-- Node4&#45;&gt;Node30 -->
<g id="edge27" class="edge">
<title>Node4&#45;&gt;Node30</title>
<path fill="none" stroke="midnightblue" d="M221.1,-1083.03C202.16,-1072.6 175.45,-1058.63 151,-1048.5 143.34,-1045.33 135.1,-1042.3 127,-1039.54"/>
<polygon fill="midnightblue" stroke="midnightblue" points="219.55,-1086.17 229.99,-1087.98 222.95,-1080.06 219.55,-1086.17"/>
</g>
<!-- Node31 -->
<g id="node29" class="node">
<title>Node31</title>
<g id="a_node29"><a xlink:href="class_t_interface.html#a424a7eb780461c1acb396feb21f52062" target="_top" xlink:title=" ">
<polygon fill="white" stroke="black" points="10.5,-960.5 10.5,-990.5 140.5,-990.5 140.5,-960.5 10.5,-960.5"/>
<text text-anchor="start" x="18.5" y="-978.5" font-family="Helvetica,sans-Serif" font-size="10.00">TInterface::CopyMenuItem</text>
<text text-anchor="middle" x="75.5" y="-967.5" font-family="Helvetica,sans-Serif" font-size="10.00">Click</text>
</a>
</g>
</g>
<!-- Node4&#45;&gt;Node31 -->
<g id="edge28" class="edge">
<title>Node4&#45;&gt;Node31</title>
<path fill="none" stroke="midnightblue" d="M233.7,-1079.83C217,-1057.98 185.78,-1021.06 151,-999.5 145.57,-996.13 139.63,-993.2 133.53,-990.64"/>
<polygon fill="midnightblue" stroke="midnightblue" points="230.95,-1082 239.74,-1087.92 236.56,-1077.81 230.95,-1082"/>
</g>
<!-- Node32 -->
<g id="node30" class="node">
<title>Node32</title>
<g id="a_node30"><a xlink:href="class_t_interface.html#adc0dd871fdd70ff11ada7a0ddd549e8e" target="_top" xlink:title=" ">
<polygon fill="white" stroke="black" points="1,-911.5 1,-941.5 150,-941.5 150,-911.5 1,-911.5"/>
<text text-anchor="start" x="9" y="-929.5" font-family="Helvetica,sans-Serif" font-size="10.00">TInterface::CopyTTEntryButton</text>
<text text-anchor="middle" x="75.5" y="-918.5" font-family="Helvetica,sans-Serif" font-size="10.00">Click</text>
</a>
</g>
</g>
<!-- Node4&#45;&gt;Node32 -->
<g id="edge29" class="edge">
<title>Node4&#45;&gt;Node32</title>
<path fill="none" stroke="midnightblue" d="M239.25,-1078.69C226.28,-1047.5 196.17,-985.06 151,-950.5 146.47,-947.03 141.42,-944.06 136.14,-941.5"/>
<polygon fill="midnightblue" stroke="midnightblue" points="236.01,-1080.02 242.99,-1087.99 242.51,-1077.41 236.01,-1080.02"/>
</g>
<!-- Node33 -->
<g id="node31" class="node">
<title>Node33</title>
<g id="a_node31"><a xlink:href="class_t_interface.html#a117ba58c37a617edeeb033fcdff841e9" target="_top" xlink:title=" ">
<polygon fill="white" stroke="black" points="7,-862.5 7,-892.5 144,-892.5 144,-862.5 7,-862.5"/>
<text text-anchor="start" x="15" y="-880.5" font-family="Helvetica,sans-Serif" font-size="10.00">TInterface::CPCancelButton</text>
<text text-anchor="middle" x="75.5" y="-869.5" font-family="Helvetica,sans-Serif" font-size="10.00">Click</text>
</a>
</g>
</g>
<!-- Node4&#45;&gt;Node33 -->
<g id="edge30" class="edge">
<title>Node4&#45;&gt;Node33</title>
<path fill="none" stroke="midnightblue" d="M242.34,-1077.77C233.03,-1038.45 206.81,-949.91 151,-901.5 147,-898.03 142.48,-895.06 137.71,-892.51"/>
<polygon fill="midnightblue" stroke="midnightblue" points="238.96,-1078.7 244.57,-1087.69 245.79,-1077.17 238.96,-1078.7"/>
</g>
<!-- Node34 -->
<g id="node32" class="node">
<title>Node34</title>
<g id="a_node32"><a xlink:href="class_t_interface.html#a6379037c7970acda71188947cb3ba6b2" target="_top" xlink:title=" ">
<polygon fill="white" stroke="black" points="5.5,-813.5 5.5,-843.5 145.5,-843.5 145.5,-813.5 5.5,-813.5"/>
<text text-anchor="start" x="13.5" y="-831.5" font-family="Helvetica,sans-Serif" font-size="10.00">TInterface::CPGenFileButton</text>
<text text-anchor="middle" x="75.5" y="-820.5" font-family="Helvetica,sans-Serif" font-size="10.00">Click</text>
</a>
</g>
</g>
<!-- Node4&#45;&gt;Node34 -->
<g id="edge31" class="edge">
<title>Node4&#45;&gt;Node34</title>
<path fill="none" stroke="midnightblue" d="M244.5,-1077.76C238.76,-1031.59 218.1,-915.69 151,-852.5 147.34,-849.05 143.18,-846.1 138.75,-843.57"/>
<polygon fill="midnightblue" stroke="midnightblue" points="241.05,-1078.38 245.65,-1087.92 248,-1077.59 241.05,-1078.38"/>
</g>
<!-- Node35 -->
<g id="node33" class="node">
<title>Node35</title>
<g id="a_node33"><a xlink:href="class_t_interface.html#a1c8fab7fa2f1be662f2d7418e95e3a63" target="_top" xlink:title=" ">
<polygon fill="white" stroke="black" points="8,-764.5 8,-794.5 143,-794.5 143,-764.5 8,-764.5"/>
<text text-anchor="start" x="16" y="-782.5" font-family="Helvetica,sans-Serif" font-size="10.00">TInterface::CreateTimetable</text>
<text text-anchor="middle" x="75.5" y="-771.5" font-family="Helvetica,sans-Serif" font-size="10.00">MenuItemClick</text>
</a>
</g>
</g>
<!-- Node4&#45;&gt;Node35 -->
<g id="edge32" class="edge">
<title>Node4&#45;&gt;Node35</title>
<path fill="none" stroke="midnightblue" d="M245.97,-1077.47C243.47,-1024.91 229.42,-881.73 151,-803.5 147.54,-800.05 143.57,-797.09 139.32,-794.56"/>
<polygon fill="midnightblue" stroke="midnightblue" points="242.48,-1077.91 246.36,-1087.77 249.47,-1077.65 242.48,-1077.91"/>
</g>
<!-- Node36 -->
<g id="node34" class="node">
<title>Node36</title>
<g id="a_node34"><a xlink:href="class_t_interface.html#ae6e977c9dfdfbde9924ceefd19d7d0d3" target="_top" xlink:title=" ">
<polygon fill="white" stroke="black" points="3.5,-726 3.5,-745 147.5,-745 147.5,-726 3.5,-726"/>
<text text-anchor="middle" x="75.5" y="-733" font-family="Helvetica,sans-Serif" font-size="10.00">TInterface::CutMenuItemClick</text>
</a>
</g>
</g>
<!-- Node4&#45;&gt;Node36 -->
<g id="edge33" class="edge">
<title>Node4&#45;&gt;Node36</title>
<path fill="none" stroke="midnightblue" d="M247.33,-1077.83C248.65,-1019.48 244.2,-845.69 151,-754.5 147.09,-750.67 142.52,-747.58 137.6,-745.1"/>
<polygon fill="midnightblue" stroke="midnightblue" points="243.83,-1077.8 247.01,-1087.91 250.82,-1078.02 243.83,-1077.8"/>
</g>
<!-- Node37 -->
<g id="node35" class="node">
<title>Node37</title>
<g id="a_node35"><a xlink:href="class_t_interface.html#acd41ae8fa5d16248a867472d9c8ae646" target="_top" xlink:title=" ">
<polygon fill="white" stroke="black" points="4.5,-676.5 4.5,-706.5 146.5,-706.5 146.5,-676.5 4.5,-676.5"/>
<text text-anchor="start" x="12.5" y="-694.5" font-family="Helvetica,sans-Serif" font-size="10.00">TInterface::CutTTEntryButton</text>
<text text-anchor="middle" x="75.5" y="-683.5" font-family="Helvetica,sans-Serif" font-size="10.00">Click</text>
</a>
</g>
</g>
<!-- Node4&#45;&gt;Node37 -->
<g id="edge34" class="edge">
<title>Node4&#45;&gt;Node37</title>
<path fill="none" stroke="midnightblue" d="M244.07,-1077.84C235.05,-1007.67 201.33,-770.92 151,-716.5 147.39,-712.59 143.15,-709.3 138.55,-706.52"/>
<polygon fill="midnightblue" stroke="midnightblue" points="240.62,-1078.46 245.35,-1087.94 247.57,-1077.58 240.62,-1078.46"/>
</g>
<!-- Node38 -->
<g id="node36" class="node">
<title>Node38</title>
<g id="a_node36"><a xlink:href="class_t_interface.html#af9cb95043f5276df55cb6809e104c93a" target="_top" xlink:title=" ">
<polygon fill="white" stroke="black" points="15,-627.5 15,-657.5 136,-657.5 136,-627.5 15,-627.5"/>
<text text-anchor="start" x="23" y="-645.5" font-family="Helvetica,sans-Serif" font-size="10.00">TInterface::DeleteAllPref</text>
<text text-anchor="middle" x="75.5" y="-634.5" font-family="Helvetica,sans-Serif" font-size="10.00">DirButtonClick</text>
</a>
</g>
</g>
<!-- Node4&#45;&gt;Node38 -->
<g id="edge35" class="edge">
<title>Node4&#45;&gt;Node38</title>
<path fill="none" stroke="midnightblue" d="M244.71,-1077.74C237.42,-1001.64 207.69,-728.76 151,-666.5 146.79,-661.88 141.69,-658.14 136.15,-655.12"/>
<polygon fill="midnightblue" stroke="midnightblue" points="241.23,-1078.21 245.65,-1087.84 248.2,-1077.56 241.23,-1078.21"/>
</g>
<!-- Node39 -->
<g id="node37" class="node">
<title>Node39</title>
<g id="a_node37"><a xlink:href="class_t_interface.html#aff2c1cd6ed2d45fdcf6392a85a6d9415" target="_top" xlink:title=" ">
<polygon fill="white" stroke="black" points="8,-578.5 8,-608.5 143,-608.5 143,-578.5 8,-578.5"/>
<text text-anchor="start" x="16" y="-596.5" font-family="Helvetica,sans-Serif" font-size="10.00">TInterface::DeleteMenuItem</text>
<text text-anchor="middle" x="75.5" y="-585.5" font-family="Helvetica,sans-Serif" font-size="10.00">Click</text>
</a>
</g>
</g>
<!-- Node4&#45;&gt;Node39 -->
<g id="edge36" class="edge">
<title>Node4&#45;&gt;Node39</title>
<path fill="none" stroke="midnightblue" d="M245.18,-1077.64C239.39,-996.06 213.63,-687.79 151,-617.5 147.93,-614.05 144.36,-611.09 140.47,-608.56"/>
<polygon fill="midnightblue" stroke="midnightblue" points="241.72,-1078.24 245.89,-1087.97 248.7,-1077.76 241.72,-1078.24"/>
</g>
<!-- Node40 -->
<g id="node38" class="node">
<title>Node40</title>
<g id="a_node38"><a xlink:href="class_t_interface.html#a3136530959237eaa57486f4f48357855" target="_top" xlink:title=" ">
<polygon fill="white" stroke="black" points="11.5,-529.5 11.5,-559.5 139.5,-559.5 139.5,-529.5 11.5,-529.5"/>
<text text-anchor="start" x="19.5" y="-547.5" font-family="Helvetica,sans-Serif" font-size="10.00">TInterface::DeleteOnePref</text>
<text text-anchor="middle" x="75.5" y="-536.5" font-family="Helvetica,sans-Serif" font-size="10.00">DirButtonClick</text>
</a>
</g>
</g>
<!-- Node4&#45;&gt;Node40 -->
<g id="edge37" class="edge">
<title>Node4&#45;&gt;Node40</title>
<path fill="none" stroke="midnightblue" d="M245.59,-1077.84C241.22,-991.53 219.67,-646.97 151,-568.5 147.69,-564.72 143.78,-561.53 139.51,-558.83"/>
<polygon fill="midnightblue" stroke="midnightblue" points="242.1,-1078.04 246.08,-1087.86 249.09,-1077.7 242.1,-1078.04"/>
</g>
<!-- Node41 -->
<g id="node39" class="node">
<title>Node41</title>
<g id="a_node39"><a xlink:href="class_t_interface.html#abdd4a70649a10a29c9a069d040072808" target="_top" xlink:title=" ">
<polygon fill="white" stroke="black" points="12.5,-480.5 12.5,-510.5 138.5,-510.5 138.5,-480.5 12.5,-480.5"/>
<text text-anchor="start" x="20.5" y="-498.5" font-family="Helvetica,sans-Serif" font-size="10.00">TInterface::DeleteTTEntry</text>
<text text-anchor="middle" x="75.5" y="-487.5" font-family="Helvetica,sans-Serif" font-size="10.00">ButtonClick</text>
</a>
</g>
</g>
<!-- Node4&#45;&gt;Node41 -->
<g id="edge38" class="edge">
<title>Node4&#45;&gt;Node41</title>
<path fill="none" stroke="midnightblue" d="M245.92,-1077.79C242.85,-986.58 225.67,-606.12 151,-519.5 147.45,-515.38 143.19,-511.97 138.53,-509.13"/>
<polygon fill="midnightblue" stroke="midnightblue" points="242.42,-1077.98 246.24,-1087.87 249.42,-1077.76 242.42,-1077.98"/>
</g>
<!-- Node42 -->
<g id="node40" class="node">
<title>Node42</title>
<g id="a_node40"><a xlink:href="class_t_interface.html#ac53c02024590fc44371ed3b7efc3ddde" target="_top" xlink:title=" ">
<polygon fill="white" stroke="black" points="11.5,-442 11.5,-461 139.5,-461 139.5,-442 11.5,-442"/>
<text text-anchor="middle" x="75.5" y="-449" font-family="Helvetica,sans-Serif" font-size="10.00">TInterface::EditMenuClick</text>
</a>
</g>
</g>
<!-- Node4&#45;&gt;Node42 -->
<g id="edge39" class="edge">
<title>Node4&#45;&gt;Node42</title>
<path fill="none" stroke="midnightblue" d="M246.32,-1077.87C245.04,-981.88 234.65,-562.83 151,-470.5 147.59,-466.74 143.56,-463.68 139.15,-461.19"/>
<polygon fill="midnightblue" stroke="midnightblue" points="242.82,-1077.97 246.44,-1087.93 249.82,-1077.89 242.82,-1077.97"/>
</g>
<!-- Node43 -->
<g id="node41" class="node">
<title>Node43</title>
<g id="a_node41"><a xlink:href="class_t_interface.html#a0cf35a6e4a6cfa72b63222acb51f9f74" target="_top" xlink:title=" ">
<polygon fill="white" stroke="black" points="13.5,-392.5 13.5,-422.5 137.5,-422.5 137.5,-392.5 13.5,-392.5"/>
<text text-anchor="start" x="21.5" y="-410.5" font-family="Helvetica,sans-Serif" font-size="10.00">TInterface::EditTimetable</text>
<text text-anchor="middle" x="75.5" y="-399.5" font-family="Helvetica,sans-Serif" font-size="10.00">MenuItemClick</text>
</a>
</g>
</g>
<!-- Node4&#45;&gt;Node43 -->
<g id="edge40" class="edge">
<title>Node4&#45;&gt;Node43</title>
<path fill="none" stroke="midnightblue" d="M246.36,-1077.76C245.29,-978.45 235.76,-534.2 151,-432.5 147.24,-427.99 142.65,-424.3 137.6,-421.26"/>
<polygon fill="midnightblue" stroke="midnightblue" points="242.87,-1077.93 246.46,-1087.89 249.87,-1077.86 242.87,-1077.93"/>
</g>
<!-- Node44 -->
<g id="node42" class="node">
<title>Node44</title>
<g id="a_node42"><a xlink:href="class_t_interface.html#a9cfdb7521877f2c7ab124d0e4f47a0f6" target="_top" xlink:title=" ">
<polygon fill="white" stroke="black" points="13,-343.5 13,-373.5 138,-373.5 138,-343.5 13,-343.5"/>
<text text-anchor="start" x="21" y="-361.5" font-family="Helvetica,sans-Serif" font-size="10.00">TInterface::ExitMenuItem</text>
<text text-anchor="middle" x="75.5" y="-350.5" font-family="Helvetica,sans-Serif" font-size="10.00">Click</text>
</a>
</g>
</g>
<!-- Node4&#45;&gt;Node44 -->
<g id="edge41" class="edge">
<title>Node4&#45;&gt;Node44</title>
<path fill="none" stroke="midnightblue" d="M246.61,-1077.58C246.77,-973.42 242.51,-492.04 151,-382.5 147.43,-378.22 143.09,-374.7 138.32,-371.8"/>
<polygon fill="midnightblue" stroke="midnightblue" points="243.11,-1077.65 246.57,-1087.66 250.11,-1077.68 243.11,-1077.65"/>
</g>
<!-- Node45 -->
<g id="node43" class="node">
<title>Node45</title>
<g id="a_node43"><a xlink:href="class_t_interface.html#a3e59d6f1f39ffe34a9d6e7bf930acbff" target="_top" xlink:title=" ">
<polygon fill="white" stroke="black" points="13.5,-294.5 13.5,-324.5 137.5,-324.5 137.5,-294.5 13.5,-294.5"/>
<text text-anchor="start" x="21.5" y="-312.5" font-family="Helvetica,sans-Serif" font-size="10.00">TInterface::ExitOperation</text>
<text text-anchor="middle" x="75.5" y="-301.5" font-family="Helvetica,sans-Serif" font-size="10.00">ButtonClick</text>
</a>
</g>
</g>
<!-- Node4&#45;&gt;Node45 -->
<g id="edge42" class="edge">
<title>Node4&#45;&gt;Node45</title>
<path fill="none" stroke="midnightblue" d="M246.8,-1077.6C248.01,-969.29 248.59,-451.32 151,-333.5 147.27,-329 142.7,-325.33 137.66,-322.35"/>
<polygon fill="midnightblue" stroke="midnightblue" points="243.29,-1077.73 246.67,-1087.77 250.29,-1077.82 243.29,-1077.73"/>
</g>
<!-- Node46 -->
<g id="node44" class="node">
<title>Node46</title>
<g id="a_node44"><a xlink:href="class_t_interface.html#ab2a25d27dcbae558b8f9a4ac62937523" target="_top" xlink:title=" ">
<polygon fill="white" stroke="black" points="5.5,-245.5 5.5,-275.5 145.5,-275.5 145.5,-245.5 5.5,-245.5"/>
<text text-anchor="start" x="13.5" y="-263.5" font-family="Helvetica,sans-Serif" font-size="10.00">TInterface::ExitPrefDirButton</text>
<text text-anchor="middle" x="75.5" y="-252.5" font-family="Helvetica,sans-Serif" font-size="10.00">Click</text>
</a>
</g>
</g>
<!-- Node4&#45;&gt;Node46 -->
<g id="edge43" class="edge">
<title>Node4&#45;&gt;Node46</title>
<path fill="none" stroke="midnightblue" d="M245.44,-1077.65C238.95,-959.14 203.13,-347.92 151,-284.5 148.15,-281.04 144.8,-278.07 141.12,-275.52"/>
<polygon fill="midnightblue" stroke="midnightblue" points="241.96,-1078.02 245.99,-1087.82 248.95,-1077.64 241.96,-1078.02"/>
</g>
<!-- Node47 -->
<g id="node45" class="node">
<title>Node47</title>
<g id="a_node45"><a xlink:href="class_t_interface.html#ad0fa9f32b059b346e066ab23d62a4bfc" target="_top" xlink:title=" ">
<polygon fill="white" stroke="black" points="8.5,-196.5 8.5,-226.5 142.5,-226.5 142.5,-196.5 8.5,-196.5"/>
<text text-anchor="start" x="16.5" y="-214.5" font-family="Helvetica,sans-Serif" font-size="10.00">TInterface::ExitTrackButton</text>
<text text-anchor="middle" x="75.5" y="-203.5" font-family="Helvetica,sans-Serif" font-size="10.00">Click</text>
</a>
</g>
</g>
<!-- Node4&#45;&gt;Node47 -->
<g id="edge44" class="edge">
<title>Node4&#45;&gt;Node47</title>
<path fill="none" stroke="midnightblue" d="M245.58,-1077.62C239.72,-954.86 206.18,-303.08 151,-235.5 148.25,-232.13 145.02,-229.23 141.48,-226.73"/>
<polygon fill="midnightblue" stroke="midnightblue" points="242.09,-1077.98 246.06,-1087.81 249.08,-1077.65 242.09,-1077.98"/>
</g>
<!-- Node48 -->
<g id="node46" class="node">
<title>Node48</title>
<g id="a_node46"><a xlink:href="class_t_interface.html#aa78089df3d8323be6fde98c0ee48424c" target="_top" xlink:title=" ">
<polygon fill="white" stroke="black" points="3,-147.5 3,-177.5 148,-177.5 148,-147.5 3,-147.5"/>
<text text-anchor="start" x="11" y="-165.5" font-family="Helvetica,sans-Serif" font-size="10.00">TInterface::ExitTTModeButton</text>
<text text-anchor="middle" x="75.5" y="-154.5" font-family="Helvetica,sans-Serif" font-size="10.00">Click</text>
</a>
</g>
</g>
<!-- Node4&#45;&gt;Node48 -->
<g id="edge45" class="edge">
<title>Node4&#45;&gt;Node48</title>
<path fill="none" stroke="midnightblue" d="M245.71,-1077.68C240.46,-951.05 209.25,-258.27 151,-186.5 148.26,-183.12 145.04,-180.22 141.5,-177.71"/>
<polygon fill="midnightblue" stroke="midnightblue" points="242.22,-1078 246.12,-1087.85 249.21,-1077.71 242.22,-1078"/>
</g>
<!-- Node49 -->
<g id="node47" class="node">
<title>Node49</title>
<g id="a_node47"><a xlink:href="class_t_interface.html#ab7c52bd31930036c95b9b71c2f1f0426" target="_top" xlink:title=" ">
<polygon fill="white" stroke="black" points="9.5,-98.5 9.5,-128.5 141.5,-128.5 141.5,-98.5 9.5,-98.5"/>
<text text-anchor="start" x="17.5" y="-116.5" font-family="Helvetica,sans-Serif" font-size="10.00">TInterface::ExportTTButton</text>
<text text-anchor="middle" x="75.5" y="-105.5" font-family="Helvetica,sans-Serif" font-size="10.00">Click</text>
</a>
</g>
</g>
<!-- Node4&#45;&gt;Node49 -->
<g id="edge46" class="edge">
<title>Node4&#45;&gt;Node49</title>
<path fill="none" stroke="midnightblue" d="M245.82,-1077.84C241.17,-947.72 212.34,-213.48 151,-137.5 148.27,-134.12 145.06,-131.2 141.53,-128.7"/>
<polygon fill="midnightblue" stroke="midnightblue" points="242.33,-1078.06 246.18,-1087.93 249.32,-1077.82 242.33,-1078.06"/>
</g>
<!-- Node50 -->
<g id="node48" class="node">
<title>Node50</title>
<g id="a_node48"><a xlink:href="class_t_interface.html#a1bf4807428bf9fa4504be97d28642597" target="_top" xlink:title=" ">
<polygon fill="white" stroke="black" points="11.5,-49.5 11.5,-79.5 139.5,-79.5 139.5,-49.5 11.5,-49.5"/>
<text text-anchor="start" x="19.5" y="-67.5" font-family="Helvetica,sans-Serif" font-size="10.00">TInterface::ExportTTMenu</text>
<text text-anchor="middle" x="75.5" y="-56.5" font-family="Helvetica,sans-Serif" font-size="10.00">ItemClick</text>
</a>
</g>
</g>
<!-- Node4&#45;&gt;Node50 -->
<g id="edge47" class="edge">
<title>Node4&#45;&gt;Node50</title>
<path fill="none" stroke="midnightblue" d="M245.92,-1077.67C241.8,-943.26 215.38,-168.64 151,-88.5 147.77,-84.47 143.85,-81.12 139.53,-78.31"/>
<polygon fill="midnightblue" stroke="midnightblue" points="242.42,-1077.87 246.22,-1087.76 249.42,-1077.66 242.42,-1077.87"/>
</g>
<!-- Node51 -->
<g id="node49" class="node">
<title>Node51</title>
<g id="a_node49"><a xlink:href="class_t_interface.html#add5fbdbceae6285c2cc440905b270491" target="_top" xlink:title=" ">
<polygon fill="white" stroke="black" points="14,-0.5 14,-30.5 137,-30.5 137,-0.5 14,-0.5"/>
<text text-anchor="start" x="22" y="-18.5" font-family="Helvetica,sans-Serif" font-size="10.00">TInterface::FlipMenuItem</text>
<text text-anchor="middle" x="75.5" y="-7.5" font-family="Helvetica,sans-Serif" font-size="10.00">Click</text>
</a>
</g>
</g>
<!-- Node4&#45;&gt;Node51 -->
<g id="edge48" class="edge">
<title>Node4&#45;&gt;Node51</title>
<path fill="none" stroke="midnightblue" d="M246.01,-1077.58C242.41,-939.17 218.44,-123.82 151,-39.5 147.18,-34.72 142.4,-30.89 137.12,-27.8"/>
<polygon fill="midnightblue" stroke="midnightblue" points="242.52,-1078.01 246.27,-1087.92 249.51,-1077.84 242.52,-1078.01"/>
</g>
<!-- Node201&#45;&gt;Node27 -->
<g id="edge50" class="edge">
<title>Node201&#45;&gt;Node27</title>
<path fill="none" stroke="midnightblue" d="M245.21,-1645.62C239.58,-1726.88 214.59,-2029.67 151,-2096.5 146.49,-2101.24 140.98,-2104.86 135.01,-2107.62"/>
<polygon fill="midnightblue" stroke="midnightblue" points="248.72,-1645.51 245.9,-1635.29 241.74,-1645.04 248.72,-1645.51"/>
</g>
</g>
</svg>
