<?xml version="1.0" encoding="UTF-8" standalone="no"?>
<!DOCTYPE svg PUBLIC "-//W3C//DTD SVG 1.1//EN"
 "http://www.w3.org/Graphics/SVG/1.1/DTD/svg11.dtd">
<!-- Generated by graphviz version 2.44.1 (20200629.0800)
 -->
<!-- Title: TTrain::GetTrainTime Pages: 1 -->
<!--zoomable 1128 -->
<svg id="main" version="1.1" xmlns="http://www.w3.org/2000/svg" xmlns:xlink="http://www.w3.org/1999/xlink" xml:space="preserve" onload="init(evt)">
<style type="text/css"><![CDATA[
.edge:hover path { stroke: red; }
.edge:hover polygon { stroke: red; fill: red; }
]]></style>
<script type="text/javascript"><![CDATA[
var edges = document.getElementsByTagName('g');
if (edges && edges.length) {
  for (var i=0;i<edges.length;i++) {
    if (edges[i].id.substr(0,4)=='edge') {
      edges[i].setAttribute('class','edge');
    }
  }
}
]]></script>
        <defs>
                <circle id="rim" cx="0" cy="0" r="7"/>
                <circle id="rim2" cx="0" cy="0" r="3.5"/>
                <g id="zoomPlus">
                        <use xlink:href="#rim" fill="#404040">
                                <set attributeName="fill" to="#808080" begin="zoomplus.mouseover" end="zoomplus.mouseout"/>
                        </use>
                        <path d="M-4,0h8M0,-4v8" fill="none" stroke="white" stroke-width="1.5" pointer-events="none"/>
                </g>
                <g id="zoomMin">
                        <use xlink:href="#rim" fill="#404040">
                                <set attributeName="fill" to="#808080" begin="zoomminus.mouseover" end="zoomminus.mouseout"/>
                        </use>
                        <path d="M-4,0h8" fill="none" stroke="white" stroke-width="1.5" pointer-events="none"/>
                </g>
                <g id="dirArrow">
                        <path fill="none" stroke="white" stroke-width="1.5" d="M0,-3.0v7 M-2.5,-0.5L0,-3.0L2.5,-0.5"/>
                </g>
               <g id="resetDef">
                       <use xlink:href="#rim2" fill="#404040">
                               <set attributeName="fill" to="#808080" begin="reset.mouseover" end="reset.mouseout"/>
                       </use>
               </g>
        </defs>

<script type="text/javascript">
var viewWidth = 1300;
var viewHeight = 1128;
var sectionId = 'dynsection-40';
</script>
<script xlink:href="svgpan.js"/>
<svg id="graph" class="graph">
<g id="viewport">
<title>TTrain::GetTrainTime</title>
<polygon fill="white" stroke="transparent" points="-4,4 -4,-1124.48 1296,-1124.48 1296,4 -4,4"/>
<!-- Node1 -->
<g id="node1" class="node">
<title>Node1</title>
<g id="a_node1"><a xlink:title="Returns the timetable action time corresponding to &#39;Time&#39; for this train, i.e. it adjusts the time va...">
<polygon fill="#bfbfbf" stroke="black" points="1185,-985.48 1185,-1004.48 1292,-1004.48 1292,-985.48 1185,-985.48"/>
<text text-anchor="middle" x="1238.5" y="-992.48" font-family="Helvetica,sans-Serif" font-size="10.00">TTrain::GetTrainTime</text>
</a>
</g>
</g>
<!-- Node2 -->
<g id="node2" class="node">
<title>Node2</title>
<g id="a_node2"><a xlink:href="class_t_train.html#a221da69cd80d206a06f840f4cd463cf9" target="_top" xlink:title="Used in the floating window to display the &#39;Next&#39; action.">
<polygon fill="white" stroke="black" points="1022,-1069.98 1022,-1099.98 1149,-1099.98 1149,-1069.98 1022,-1069.98"/>
<text text-anchor="start" x="1030" y="-1087.98" font-family="Helvetica,sans-Serif" font-size="10.00">TTrain::FloatingLabelNext</text>
<text text-anchor="middle" x="1085.5" y="-1076.98" font-family="Helvetica,sans-Serif" font-size="10.00">String</text>
</a>
</g>
</g>
<!-- Node1&#45;&gt;Node2 -->
<g id="edge1" class="edge">
<title>Node1&#45;&gt;Node2</title>
<path fill="none" stroke="midnightblue" d="M1212.59,-1009.82C1184.73,-1026.43 1139.83,-1053.19 1111.8,-1069.9"/>
<polygon fill="midnightblue" stroke="midnightblue" points="1214.54,-1012.73 1221.34,-1004.61 1210.96,-1006.72 1214.54,-1012.73"/>
</g>
<!-- Node7 -->
<g id="node7" class="node">
<title>Node7</title>
<g id="a_node7"><a xlink:href="class_t_train.html#a81bf61b47a2867f0c6901b1ea6f47177" target="_top" xlink:title="Used in the floating window to display the timetable.">
<polygon fill="white" stroke="black" points="1023,-1001.98 1023,-1031.98 1148,-1031.98 1148,-1001.98 1023,-1001.98"/>
<text text-anchor="start" x="1031" y="-1019.98" font-family="Helvetica,sans-Serif" font-size="10.00">TTrain::FloatingTimetable</text>
<text text-anchor="middle" x="1085.5" y="-1008.98" font-family="Helvetica,sans-Serif" font-size="10.00">String</text>
</a>
</g>
</g>
<!-- Node1&#45;&gt;Node7 -->
<g id="edge6" class="edge">
<title>Node1&#45;&gt;Node7</title>
<path fill="none" stroke="midnightblue" d="M1174.55,-1004.15C1165.8,-1005.42 1156.81,-1006.73 1148.08,-1008"/>
<polygon fill="midnightblue" stroke="midnightblue" points="1175.3,-1007.58 1184.69,-1002.67 1174.29,-1000.65 1175.3,-1007.58"/>
</g>
<!-- Node9 -->
<g id="node9" class="node">
<title>Node9</title>
<g id="a_node9"><a xlink:href="class_t_train.html#a493ab1c185d29bf28ec8fded2356e9fc" target="_top" xlink:title="Send a message to the performance log and performance file, and if the message is flagged as a warnin...">
<polygon fill="white" stroke="black" points="1039.5,-461.48 1039.5,-480.48 1131.5,-480.48 1131.5,-461.48 1039.5,-461.48"/>
<text text-anchor="middle" x="1085.5" y="-468.48" font-family="Helvetica,sans-Serif" font-size="10.00">TTrain::LogAction</text>
</a>
</g>
</g>
<!-- Node1&#45;&gt;Node9 -->
<g id="edge9" class="edge">
<title>Node1&#45;&gt;Node9</title>
<path fill="none" stroke="midnightblue" d="M1231.94,-975.68C1207.17,-889.74 1107.34,-543.3 1089.3,-480.7"/>
<polygon fill="midnightblue" stroke="midnightblue" points="1228.62,-976.79 1234.75,-985.43 1235.34,-974.85 1228.62,-976.79"/>
</g>
<!-- Node12 -->
<g id="node12" class="node">
<title>Node12</title>
<g id="a_node12"><a xlink:href="class_t_train.html#a89ad640ecf8f5163c40727b4e28575fc" target="_top" xlink:title="Major function called at each clock tick for each train &amp; handles all train movement &amp; associated act...">
<polygon fill="white" stroke="black" points="495,-264.48 495,-283.48 596,-283.48 596,-264.48 495,-264.48"/>
<text text-anchor="middle" x="545.5" y="-271.48" font-family="Helvetica,sans-Serif" font-size="10.00">TTrain::UpdateTrain</text>
</a>
</g>
</g>
<!-- Node1&#45;&gt;Node12 -->
<g id="edge46" class="edge">
<title>Node1&#45;&gt;Node12</title>
<path fill="none" stroke="midnightblue" d="M1174.32,-986.83C1094.62,-975.13 954.41,-949.76 842,-903.98 740.77,-862.75 693.36,-866.43 632,-775.98 574.3,-690.92 550.88,-346.29 547.07,-283.74"/>
<polygon fill="midnightblue" stroke="midnightblue" points="1174.28,-990.36 1184.68,-988.33 1175.28,-983.43 1174.28,-990.36"/>
</g>
<!-- Node3 -->
<g id="node3" class="node">
<title>Node3</title>
<g id="a_node3"><a xlink:href="class_t_interface.html#a51b94ffa3dc90fe4e3bec2f1ae28074e" target="_top" xlink:title="used for floating window to display train status">
<polygon fill="white" stroke="black" points="849,-1089.98 849,-1119.98 979,-1119.98 979,-1089.98 849,-1089.98"/>
<text text-anchor="start" x="857" y="-1107.98" font-family="Helvetica,sans-Serif" font-size="10.00">TInterface::GetTrainStatus</text>
<text text-anchor="middle" x="914" y="-1096.98" font-family="Helvetica,sans-Serif" font-size="10.00">Float</text>
</a>
</g>
</g>
<!-- Node2&#45;&gt;Node3 -->
<g id="edge2" class="edge">
<title>Node2&#45;&gt;Node3</title>
<path fill="none" stroke="midnightblue" d="M1011.93,-1093.54C1001.01,-1094.83 989.81,-1096.15 979.08,-1097.41"/>
<polygon fill="midnightblue" stroke="midnightblue" points="1012.35,-1097.01 1021.87,-1092.37 1011.52,-1090.06 1012.35,-1097.01"/>
</g>
<!-- Node4 -->
<g id="node4" class="node">
<title>Node4</title>
<g id="a_node4"><a xlink:href="class_t_interface.html#a9aaa19d39382a32701d7ded3b8c1802b" target="_top" xlink:title="Controls the floating window function, called during the ClockTimer2 function.">
<polygon fill="white" stroke="black" points="653.5,-1051.48 653.5,-1070.48 784.5,-1070.48 784.5,-1051.48 653.5,-1051.48"/>
<text text-anchor="middle" x="719" y="-1058.48" font-family="Helvetica,sans-Serif" font-size="10.00">TInterface::TrackTrainFloat</text>
</a>
</g>
</g>
<!-- Node3&#45;&gt;Node4 -->
<g id="edge3" class="edge">
<title>Node3&#45;&gt;Node4</title>
<path fill="none" stroke="midnightblue" d="M838.86,-1088.07C812.76,-1082.12 784.35,-1075.64 761.85,-1070.52"/>
<polygon fill="midnightblue" stroke="midnightblue" points="838.21,-1091.51 848.73,-1090.32 839.76,-1084.69 838.21,-1091.51"/>
</g>
<!-- Node5 -->
<g id="node5" class="node">
<title>Node5</title>
<g id="a_node5"><a xlink:href="class_t_interface.html#a6139ffb52492eb89e5487a8a3cd647b5" target="_top" xlink:title="The main loop, called every clock tick via MasterClockTimer.">
<polygon fill="white" stroke="black" points="179,-603.48 179,-622.48 298,-622.48 298,-603.48 179,-603.48"/>
<text text-anchor="middle" x="238.5" y="-610.48" font-family="Helvetica,sans-Serif" font-size="10.00">TInterface::ClockTimer2</text>
</a>
</g>
</g>
<!-- Node4&#45;&gt;Node5 -->
<g id="edge4" class="edge">
<title>Node4&#45;&gt;Node5</title>
<path fill="none" stroke="midnightblue" d="M680.06,-1048.02C633.08,-1030.69 552.25,-996.52 495,-948.98 368.72,-844.1 267.81,-665.51 244.56,-622.5"/>
<polygon fill="midnightblue" stroke="midnightblue" points="678.96,-1051.35 689.56,-1051.47 681.35,-1044.77 678.96,-1051.35"/>
</g>
<!-- Node6 -->
<g id="node6" class="node">
<title>Node6</title>
<g id="a_node6"><a xlink:href="class_t_interface.html#ace30a12d923fc7fb489afabb0a09aa4f" target="_top" xlink:title=" ">
<polygon fill="white" stroke="black" points="0,-603.48 0,-622.48 143,-622.48 143,-603.48 0,-603.48"/>
<text text-anchor="middle" x="71.5" y="-610.48" font-family="Helvetica,sans-Serif" font-size="10.00">TInterface::MasterClockTimer</text>
</a>
</g>
</g>
<!-- Node5&#45;&gt;Node6 -->
<g id="edge5" class="edge">
<title>Node5&#45;&gt;Node6</title>
<path fill="none" stroke="midnightblue" d="M168.67,-612.98C160.22,-612.98 151.57,-612.98 143.09,-612.98"/>
<polygon fill="midnightblue" stroke="midnightblue" points="168.86,-616.48 178.86,-612.98 168.86,-609.48 168.86,-616.48"/>
</g>
<!-- Node7&#45;&gt;Node4 -->
<g id="edge8" class="edge">
<title>Node7&#45;&gt;Node4</title>
<path fill="none" stroke="midnightblue" d="M1022.51,-1034.48C1010.48,-1037.38 997.91,-1040.05 986,-1041.98 917.78,-1052.98 838.69,-1057.61 784.6,-1059.56"/>
<polygon fill="midnightblue" stroke="midnightblue" points="1023.6,-1037.82 1032.46,-1032.01 1021.91,-1031.03 1023.6,-1037.82"/>
</g>
<!-- Node8 -->
<g id="node8" class="node">
<title>Node8</title>
<g id="a_node8"><a xlink:href="class_t_interface.html#a40232083747ef274344eed7021c6f43c" target="_top" xlink:title=" ">
<polygon fill="white" stroke="black" points="848.5,-1001.98 848.5,-1031.98 979.5,-1031.98 979.5,-1001.98 848.5,-1001.98"/>
<text text-anchor="start" x="856.5" y="-1019.98" font-family="Helvetica,sans-Serif" font-size="10.00">TInterface::SkipTimetabled</text>
<text text-anchor="middle" x="914" y="-1008.98" font-family="Helvetica,sans-Serif" font-size="10.00">ActionsMenuItemClick</text>
</a>
</g>
</g>
<!-- Node7&#45;&gt;Node8 -->
<g id="edge7" class="edge">
<title>Node7&#45;&gt;Node8</title>
<path fill="none" stroke="midnightblue" d="M1012.51,-1016.98C1001.64,-1016.98 990.48,-1016.98 979.76,-1016.98"/>
<polygon fill="midnightblue" stroke="midnightblue" points="1012.83,-1020.48 1022.83,-1016.98 1012.83,-1013.48 1012.83,-1020.48"/>
</g>
<!-- Node10 -->
<g id="node10" class="node">
<title>Node10</title>
<g id="a_node10"><a xlink:href="class_t_train_controller.html#aa895b60238810a9d134cd5b9c886da56" target="_top" xlink:title="Introduce a new train to the railway, with the characteristics specified, returns true for success,...">
<polygon fill="white" stroke="black" points="850,-52.48 850,-71.48 978,-71.48 978,-52.48 850,-52.48"/>
<text text-anchor="middle" x="914" y="-59.48" font-family="Helvetica,sans-Serif" font-size="10.00">TTrainController::AddTrain</text>
</a>
</g>
</g>
<!-- Node9&#45;&gt;Node10 -->
<g id="edge10" class="edge">
<title>Node9&#45;&gt;Node10</title>
<path fill="none" stroke="midnightblue" d="M1081.93,-451.1C1072.41,-380.21 1036.99,-140.97 986,-85.98 980.16,-79.68 972.61,-75.03 964.63,-71.61"/>
<polygon fill="midnightblue" stroke="midnightblue" points="1078.5,-451.86 1083.28,-461.32 1085.44,-450.95 1078.5,-451.86"/>
</g>
<!-- Node11 -->
<g id="node11" class="node">
<title>Node11</title>
<g id="a_node11"><a xlink:href="class_t_train.html#ad666fb061d1da7c44a72ec963c2098aa" target="_top" xlink:title="Carry out the actions needed when a train is to split from the front.">
<polygon fill="white" stroke="black" points="663,-128.48 663,-147.48 775,-147.48 775,-128.48 663,-128.48"/>
<text text-anchor="middle" x="719" y="-135.48" font-family="Helvetica,sans-Serif" font-size="10.00">TTrain::FrontTrainSplit</text>
</a>
</g>
</g>
<!-- Node9&#45;&gt;Node11 -->
<g id="edge21" class="edge">
<title>Node9&#45;&gt;Node11</title>
<path fill="none" stroke="midnightblue" d="M1085.04,-451.1C1085.37,-395.16 1077.85,-235.66 986,-161.98 922.71,-111.2 821.64,-118.63 764.03,-128.41"/>
<polygon fill="midnightblue" stroke="midnightblue" points="1081.54,-451.34 1084.88,-461.4 1088.54,-451.45 1081.54,-451.34"/>
</g>
<!-- Node9&#45;&gt;Node12 -->
<g id="edge45" class="edge">
<title>Node9&#45;&gt;Node12</title>
<path fill="none" stroke="midnightblue" d="M1084.55,-451.33C1083.48,-398.81 1072.44,-254.98 986,-193.98 967.26,-180.75 676.79,-177.33 632,-194.98 595.9,-209.2 565.86,-246.53 553.09,-264.3"/>
<polygon fill="midnightblue" stroke="midnightblue" points="1081.05,-451.39 1084.65,-461.35 1088.05,-451.32 1081.05,-451.39"/>
</g>
<!-- Node13 -->
<g id="node13" class="node">
<title>Node13</title>
<g id="a_node13"><a xlink:href="class_t_train_controller.html#a20a1576dea1d86ed78fc5e9f46343481" target="_top" xlink:title="called every clock tick to introduce new trains and update existing trains">
<polygon fill="white" stroke="black" points="334,-584.48 334,-603.48 459,-603.48 459,-584.48 334,-584.48"/>
<text text-anchor="middle" x="396.5" y="-591.48" font-family="Helvetica,sans-Serif" font-size="10.00">TTrainController::Operate</text>
</a>
</g>
</g>
<!-- Node9&#45;&gt;Node13 -->
<g id="edge29" class="edge">
<title>Node9&#45;&gt;Node13</title>
<path fill="none" stroke="midnightblue" d="M1083.15,-490.91C1077.43,-568.81 1052.34,-851.03 986,-903.98 774.34,-1072.89 456.65,-672.23 404.78,-603.74"/>
<polygon fill="midnightblue" stroke="midnightblue" points="1086.67,-490.81 1083.88,-480.58 1079.69,-490.31 1086.67,-490.81"/>
</g>
<!-- Node14 -->
<g id="node14" class="node">
<title>Node14</title>
<g id="a_node14"><a xlink:href="class_t_train.html#ad64c5823265b0c611c2e5f0613317aa5" target="_top" xlink:title="Carry out the actions needed when a train is to split from the rear.">
<polygon fill="white" stroke="black" points="664,-90.48 664,-109.48 774,-109.48 774,-90.48 664,-90.48"/>
<text text-anchor="middle" x="719" y="-97.48" font-family="Helvetica,sans-Serif" font-size="10.00">TTrain::RearTrainSplit</text>
</a>
</g>
</g>
<!-- Node9&#45;&gt;Node14 -->
<g id="edge31" class="edge">
<title>Node9&#45;&gt;Node14</title>
<path fill="none" stroke="midnightblue" d="M1081.94,-450.99C1072.78,-382.84 1039.3,-161.35 986,-117.98 954.68,-92.48 842.46,-93.38 774.19,-96.54"/>
<polygon fill="midnightblue" stroke="midnightblue" points="1078.51,-451.76 1083.29,-461.22 1085.45,-450.85 1078.51,-451.76"/>
</g>
<!-- Node15 -->
<g id="node15" class="node">
<title>Node15</title>
<g id="a_node15"><a xlink:href="class_t_interface.html#aaaf32c3c815553f7ba70698e0f0071bb" target="_top" xlink:title=" ">
<polygon fill="white" stroke="black" points="846,-837.98 846,-867.98 982,-867.98 982,-837.98 846,-837.98"/>
<text text-anchor="start" x="854" y="-855.98" font-family="Helvetica,sans-Serif" font-size="10.00">TInterface::ChangeDirection</text>
<text text-anchor="middle" x="914" y="-844.98" font-family="Helvetica,sans-Serif" font-size="10.00">MenuItemClick</text>
</a>
</g>
</g>
<!-- Node9&#45;&gt;Node15 -->
<g id="edge18" class="edge">
<title>Node9&#45;&gt;Node15</title>
<path fill="none" stroke="midnightblue" d="M1085.02,-491.05C1085.45,-550.68 1078.52,-728.81 986,-827.98 982.43,-831.8 978.25,-835.04 973.73,-837.78"/>
<polygon fill="midnightblue" stroke="midnightblue" points="1088.51,-490.7 1084.86,-480.76 1081.51,-490.81 1088.51,-490.7"/>
</g>
<!-- Node16 -->
<g id="node16" class="node">
<title>Node16</title>
<g id="a_node16"><a xlink:href="class_t_train.html#a406c172a0ba96802ada1aa04d78948d0" target="_top" xlink:title="Reverses the direction of motion of the train.">
<polygon fill="white" stroke="black" points="648.5,-747.48 648.5,-766.48 789.5,-766.48 789.5,-747.48 648.5,-747.48"/>
<text text-anchor="middle" x="719" y="-754.48" font-family="Helvetica,sans-Serif" font-size="10.00">TTrain::ChangeTrainDirection</text>
</a>
</g>
</g>
<!-- Node9&#45;&gt;Node16 -->
<g id="edge19" class="edge">
<title>Node9&#45;&gt;Node16</title>
<path fill="none" stroke="midnightblue" d="M1082.82,-491.1C1076.08,-566.15 1048.37,-827.93 986,-876.98 935.69,-916.54 901.23,-901.22 842,-876.98 785.64,-853.9 741.31,-790.83 725.89,-766.62"/>
<polygon fill="midnightblue" stroke="midnightblue" points="1086.34,-490.99 1083.72,-480.72 1079.36,-490.38 1086.34,-490.99"/>
</g>
<!-- Node17 -->
<g id="node17" class="node">
<title>Node17</title>
<g id="a_node17"><a xlink:href="class_t_train.html#a6c3479378d35f9041c38d80f03686b41" target="_top" xlink:title="Carry out the actions needed when a train is waiting to be joined by another train.">
<polygon fill="white" stroke="black" points="674.5,-349.48 674.5,-368.48 763.5,-368.48 763.5,-349.48 674.5,-349.48"/>
<text text-anchor="middle" x="719" y="-356.48" font-family="Helvetica,sans-Serif" font-size="10.00">TTrain::JoinedBy</text>
</a>
</g>
</g>
<!-- Node9&#45;&gt;Node17 -->
<g id="edge22" class="edge">
<title>Node9&#45;&gt;Node17</title>
<path fill="none" stroke="midnightblue" d="M1067.71,-454.07C1049.34,-436.69 1018.21,-410.33 986,-396.98 912.1,-366.33 817.83,-359.69 763.66,-358.65"/>
<polygon fill="midnightblue" stroke="midnightblue" points="1065.59,-456.89 1075.2,-461.35 1070.47,-451.87 1065.59,-456.89"/>
</g>
<!-- Node18 -->
<g id="node18" class="node">
<title>Node18</title>
<g id="a_node18"><a xlink:href="class_t_interface.html#a50478cade5cae721121f5902528987a7" target="_top" xlink:title=" ">
<polygon fill="white" stroke="black" points="850.5,-788.98 850.5,-818.98 977.5,-818.98 977.5,-788.98 850.5,-788.98"/>
<text text-anchor="start" x="858.5" y="-806.98" font-family="Helvetica,sans-Serif" font-size="10.00">TInterface::MoveForwards</text>
<text text-anchor="middle" x="914" y="-795.98" font-family="Helvetica,sans-Serif" font-size="10.00">MenuItemClick</text>
</a>
</g>
</g>
<!-- Node9&#45;&gt;Node18 -->
<g id="edge24" class="edge">
<title>Node9&#45;&gt;Node18</title>
<path fill="none" stroke="midnightblue" d="M1083.58,-490.54C1080.09,-543.17 1063.54,-689.51 986,-773.98 980.39,-780.09 973.33,-785 965.86,-788.93"/>
<polygon fill="midnightblue" stroke="midnightblue" points="1087.08,-490.71 1084.16,-480.53 1080.09,-490.31 1087.08,-490.71"/>
</g>
<!-- Node19 -->
<g id="node19" class="node">
<title>Node19</title>
<g id="a_node19"><a xlink:href="class_t_train.html#a56fcfe4b9a3cef988bbeb4f4766372aa" target="_top" xlink:title="Carry out the actions needed when a new shuttle service is created from a non&#45;repeating (F&#45;nshs) serv...">
<polygon fill="white" stroke="black" points="650,-2.98 650,-32.98 788,-32.98 788,-2.98 650,-2.98"/>
<text text-anchor="start" x="658" y="-20.98" font-family="Helvetica,sans-Serif" font-size="10.00">TTrain::NewShuttleFromNon</text>
<text text-anchor="middle" x="719" y="-9.98" font-family="Helvetica,sans-Serif" font-size="10.00">RepeatService</text>
</a>
</g>
</g>
<!-- Node9&#45;&gt;Node19 -->
<g id="edge25" class="edge">
<title>Node9&#45;&gt;Node19</title>
<path fill="none" stroke="midnightblue" d="M1082.92,-450.95C1076.42,-373.9 1049.02,-98.16 986,-42.98 932.43,3.93 847.47,3.57 788.02,-4.23"/>
<polygon fill="midnightblue" stroke="midnightblue" points="1079.46,-451.51 1083.76,-461.19 1086.43,-450.93 1079.46,-451.51"/>
</g>
<!-- Node20 -->
<g id="node20" class="node">
<title>Node20</title>
<g id="a_node20"><a xlink:href="class_t_train.html#a75a2e9017b96e2a8f2a1edbd01c2cd68" target="_top" xlink:title="Carry out the actions needed when a train forms a new service (code Fns)">
<polygon fill="white" stroke="black" points="659,-569.48 659,-588.48 779,-588.48 779,-569.48 659,-569.48"/>
<text text-anchor="middle" x="719" y="-576.48" font-family="Helvetica,sans-Serif" font-size="10.00">TTrain::NewTrainService</text>
</a>
</g>
</g>
<!-- Node9&#45;&gt;Node20 -->
<g id="edge27" class="edge">
<title>Node9&#45;&gt;Node20</title>
<path fill="none" stroke="midnightblue" d="M1084.32,-490.74C1082.63,-542.34 1070.14,-681.18 986,-739.98 933.54,-776.63 899.31,-768.46 842,-739.98 775.42,-706.89 735.45,-618.19 723.67,-588.68"/>
<polygon fill="midnightblue" stroke="midnightblue" points="1087.82,-490.68 1084.54,-480.6 1080.82,-490.52 1087.82,-490.68"/>
</g>
<!-- Node21 -->
<g id="node21" class="node">
<title>Node21</title>
<g id="a_node21"><a xlink:href="class_t_interface.html#ad7aaed58c91a9ad9598e17fa615024da" target="_top" xlink:title=" ">
<polygon fill="white" stroke="black" points="848.5,-700.98 848.5,-730.98 979.5,-730.98 979.5,-700.98 848.5,-700.98"/>
<text text-anchor="start" x="856.5" y="-718.98" font-family="Helvetica,sans-Serif" font-size="10.00">TInterface::PassRedSignal</text>
<text text-anchor="middle" x="914" y="-707.98" font-family="Helvetica,sans-Serif" font-size="10.00">MenuItemClick</text>
</a>
</g>
</g>
<!-- Node9&#45;&gt;Node21 -->
<g id="edge30" class="edge">
<title>Node9&#45;&gt;Node21</title>
<path fill="none" stroke="midnightblue" d="M1081.05,-490.91C1072.62,-533.65 1047.04,-634.77 986,-690.98 981.77,-694.87 976.9,-698.16 971.73,-700.95"/>
<polygon fill="midnightblue" stroke="midnightblue" points="1084.51,-491.4 1082.91,-480.93 1077.63,-490.11 1084.51,-491.4"/>
</g>
<!-- Node22 -->
<g id="node22" class="node">
<title>Node22</title>
<g id="a_node22"><a xlink:href="class_t_interface.html#a921ff57bd9af8acdd79a7c99d4839218" target="_top" xlink:title=" ">
<polygon fill="white" stroke="black" points="842,-651.98 842,-681.98 986,-681.98 986,-651.98 842,-651.98"/>
<text text-anchor="start" x="850" y="-669.98" font-family="Helvetica,sans-Serif" font-size="10.00">TInterface::RemoveTrainMenu</text>
<text text-anchor="middle" x="914" y="-658.98" font-family="Helvetica,sans-Serif" font-size="10.00">ItemClick</text>
</a>
</g>
</g>
<!-- Node9&#45;&gt;Node22 -->
<g id="edge32" class="edge">
<title>Node9&#45;&gt;Node22</title>
<path fill="none" stroke="midnightblue" d="M1078.45,-490.24C1066.46,-525.38 1036.39,-600.1 986,-641.98 981.38,-645.82 976.12,-649.09 970.61,-651.86"/>
<polygon fill="midnightblue" stroke="midnightblue" points="1081.79,-491.28 1081.59,-480.69 1075.14,-489.09 1081.79,-491.28"/>
</g>
<!-- Node23 -->
<g id="node23" class="node">
<title>Node23</title>
<g id="a_node23"><a xlink:href="class_t_interface.html#ad3ddf42d51934815002002a770df766a" target="_top" xlink:title=" ">
<polygon fill="white" stroke="black" points="854.5,-602.98 854.5,-632.98 973.5,-632.98 973.5,-602.98 854.5,-602.98"/>
<text text-anchor="start" x="862.5" y="-620.98" font-family="Helvetica,sans-Serif" font-size="10.00">TInterface::RepairFailed</text>
<text text-anchor="middle" x="914" y="-609.98" font-family="Helvetica,sans-Serif" font-size="10.00">TrainMenuItemClick</text>
</a>
</g>
</g>
<!-- Node9&#45;&gt;Node23 -->
<g id="edge33" class="edge">
<title>Node9&#45;&gt;Node23</title>
<path fill="none" stroke="midnightblue" d="M1074.17,-489.41C1058.43,-515.92 1026,-564.72 986,-592.98 980.56,-596.82 974.46,-600.13 968.2,-602.95"/>
<polygon fill="midnightblue" stroke="midnightblue" points="1077.21,-491.14 1079.2,-480.73 1071.15,-487.63 1077.21,-491.14"/>
</g>
<!-- Node24 -->
<g id="node24" class="node">
<title>Node24</title>
<g id="a_node24"><a xlink:href="class_t_train.html#a8262f447ec811db7e524c7bb885226c5" target="_top" xlink:title="Carry out the actions needed to create either a new shuttle service or (if all repeats have finished)...">
<polygon fill="white" stroke="black" points="649,-280.98 649,-310.98 789,-310.98 789,-280.98 649,-280.98"/>
<text text-anchor="start" x="657" y="-298.98" font-family="Helvetica,sans-Serif" font-size="10.00">TTrain::RepeatShuttleOrNew</text>
<text text-anchor="middle" x="719" y="-287.98" font-family="Helvetica,sans-Serif" font-size="10.00">NonRepeatService</text>
</a>
</g>
</g>
<!-- Node9&#45;&gt;Node24 -->
<g id="edge34" class="edge">
<title>Node9&#45;&gt;Node24</title>
<path fill="none" stroke="midnightblue" d="M1079.31,-451.79C1068.6,-416.35 1040.35,-341.31 986,-308.98 926.69,-273.69 846.13,-275.13 789.25,-282.47"/>
<polygon fill="midnightblue" stroke="midnightblue" points="1075.96,-452.78 1082.09,-461.43 1082.68,-450.85 1075.96,-452.78"/>
</g>
<!-- Node25 -->
<g id="node25" class="node">
<title>Node25</title>
<g id="a_node25"><a xlink:href="class_t_train.html#ac6f5cda912103fda4da31bdca611e4b5" target="_top" xlink:title="Carry out the actions needed to create either a new shuttle service or (if all repeats have finished)...">
<polygon fill="white" stroke="black" points="632,-242.48 632,-261.48 806,-261.48 806,-242.48 632,-242.48"/>
<text text-anchor="middle" x="719" y="-249.48" font-family="Helvetica,sans-Serif" font-size="10.00">TTrain::RepeatShuttleOrRemainHere</text>
</a>
</g>
</g>
<!-- Node9&#45;&gt;Node25 -->
<g id="edge36" class="edge">
<title>Node9&#45;&gt;Node25</title>
<path fill="none" stroke="midnightblue" d="M1081.05,-450.95C1072.83,-409.99 1047.95,-316.97 986,-274.98 922.4,-231.87 829.65,-234.94 772.16,-242.46"/>
<polygon fill="midnightblue" stroke="midnightblue" points="1077.66,-451.86 1082.95,-461.04 1084.54,-450.56 1077.66,-451.86"/>
</g>
<!-- Node26 -->
<g id="node26" class="node">
<title>Node26</title>
<g id="a_node26"><a xlink:href="class_t_interface.html#a2313bac2c5c5ac3f8b91c46166e35b97" target="_top" xlink:title=" ">
<polygon fill="white" stroke="black" points="847.5,-553.98 847.5,-583.98 980.5,-583.98 980.5,-553.98 847.5,-553.98"/>
<text text-anchor="start" x="855.5" y="-571.98" font-family="Helvetica,sans-Serif" font-size="10.00">TInterface::SignallerControl</text>
<text text-anchor="middle" x="914" y="-560.98" font-family="Helvetica,sans-Serif" font-size="10.00">StopMenuItemClick</text>
</a>
</g>
</g>
<!-- Node9&#45;&gt;Node26 -->
<g id="edge38" class="edge">
<title>Node9&#45;&gt;Node26</title>
<path fill="none" stroke="midnightblue" d="M1066.12,-487.25C1047.14,-503.39 1016.13,-527.97 986,-543.98 979.07,-547.65 971.5,-550.98 963.95,-553.92"/>
<polygon fill="midnightblue" stroke="midnightblue" points="1068.44,-489.88 1073.72,-480.69 1063.86,-484.58 1068.44,-489.88"/>
</g>
<!-- Node27 -->
<g id="node27" class="node">
<title>Node27</title>
<g id="a_node27"><a xlink:href="class_t_interface.html#ad493289c9c9aa2e4d4e39329e80cc47c" target="_top" xlink:title=" ">
<polygon fill="white" stroke="black" points="849,-504.98 849,-534.98 979,-534.98 979,-504.98 849,-504.98"/>
<text text-anchor="start" x="857" y="-522.98" font-family="Helvetica,sans-Serif" font-size="10.00">TInterface::SignallerJoined</text>
<text text-anchor="middle" x="914" y="-511.98" font-family="Helvetica,sans-Serif" font-size="10.00">ByMenuItemClick</text>
</a>
</g>
</g>
<!-- Node9&#45;&gt;Node27 -->
<g id="edge39" class="edge">
<title>Node9&#45;&gt;Node27</title>
<path fill="none" stroke="midnightblue" d="M1041.72,-483.34C1019.03,-489.9 990.96,-498.02 967.02,-504.94"/>
<polygon fill="midnightblue" stroke="midnightblue" points="1042.78,-486.68 1051.42,-480.54 1040.84,-479.95 1042.78,-486.68"/>
</g>
<!-- Node28 -->
<g id="node28" class="node">
<title>Node28</title>
<g id="a_node28"><a xlink:href="class_t_interface.html#a0cc484aa9bc0445312ef9191d8212f14" target="_top" xlink:title=" ">
<polygon fill="white" stroke="black" points="842.5,-455.98 842.5,-485.98 985.5,-485.98 985.5,-455.98 842.5,-455.98"/>
<text text-anchor="start" x="850.5" y="-473.98" font-family="Helvetica,sans-Serif" font-size="10.00">TInterface::StepForwardMenu</text>
<text text-anchor="middle" x="914" y="-462.98" font-family="Helvetica,sans-Serif" font-size="10.00">ItemClick</text>
</a>
</g>
</g>
<!-- Node9&#45;&gt;Node28 -->
<g id="edge40" class="edge">
<title>Node9&#45;&gt;Node28</title>
<path fill="none" stroke="midnightblue" d="M1028.81,-470.98C1015.06,-470.98 1000.15,-470.98 985.78,-470.98"/>
<polygon fill="midnightblue" stroke="midnightblue" points="1029.08,-474.48 1039.08,-470.98 1029.08,-467.48 1029.08,-474.48"/>
</g>
<!-- Node29 -->
<g id="node29" class="node">
<title>Node29</title>
<g id="a_node29"><a xlink:href="class_t_interface.html#ab5b80c76a8cc8d2c87f21d323f61c1ce" target="_top" xlink:title=" ">
<polygon fill="white" stroke="black" points="852.5,-406.98 852.5,-436.98 975.5,-436.98 975.5,-406.98 852.5,-406.98"/>
<text text-anchor="start" x="860.5" y="-424.98" font-family="Helvetica,sans-Serif" font-size="10.00">TInterface::TakeSignaller</text>
<text text-anchor="middle" x="914" y="-413.98" font-family="Helvetica,sans-Serif" font-size="10.00">ControlMenuItemClick</text>
</a>
</g>
</g>
<!-- Node9&#45;&gt;Node29 -->
<g id="edge41" class="edge">
<title>Node9&#45;&gt;Node29</title>
<path fill="none" stroke="midnightblue" d="M1041.72,-458.61C1019.03,-452.05 990.96,-443.94 967.02,-437.01"/>
<polygon fill="midnightblue" stroke="midnightblue" points="1040.84,-462 1051.42,-461.41 1042.78,-455.27 1040.84,-462"/>
</g>
<!-- Node30 -->
<g id="node30" class="node">
<title>Node30</title>
<g id="a_node30"><a xlink:href="class_t_interface.html#aec12f0e481024f1268fad36e7188b7a4" target="_top" xlink:title=" ">
<polygon fill="white" stroke="black" points="845.5,-318.98 845.5,-348.98 982.5,-348.98 982.5,-318.98 845.5,-318.98"/>
<text text-anchor="start" x="853.5" y="-336.98" font-family="Helvetica,sans-Serif" font-size="10.00">TInterface::TimetableControl</text>
<text text-anchor="middle" x="914" y="-325.98" font-family="Helvetica,sans-Serif" font-size="10.00">MenuItemClick</text>
</a>
</g>
</g>
<!-- Node9&#45;&gt;Node30 -->
<g id="edge42" class="edge">
<title>Node9&#45;&gt;Node30</title>
<path fill="none" stroke="midnightblue" d="M1071.95,-453.17C1054.82,-429.97 1022.09,-389.38 986,-363.98 977.79,-358.2 968.3,-353.23 958.98,-349.1"/>
<polygon fill="midnightblue" stroke="midnightblue" points="1069.22,-455.37 1077.92,-461.42 1074.89,-451.27 1069.22,-455.37"/>
</g>
<!-- Node31 -->
<g id="node31" class="node">
<title>Node31</title>
<g id="a_node31"><a xlink:href="class_t_train.html#a84204e3d8492e73d1eebf0707c49f620" target="_top" xlink:title="Called when there is a random train failure.">
<polygon fill="white" stroke="black" points="662.5,-204.48 662.5,-223.48 775.5,-223.48 775.5,-204.48 662.5,-204.48"/>
<text text-anchor="middle" x="719" y="-211.48" font-family="Helvetica,sans-Serif" font-size="10.00">TTrain::TrainHasFailed</text>
</a>
</g>
</g>
<!-- Node9&#45;&gt;Node31 -->
<g id="edge43" class="edge">
<title>Node9&#45;&gt;Node31</title>
<path fill="none" stroke="midnightblue" d="M1082.95,-451.47C1078.11,-405.02 1058.9,-287.8 986,-234.98 920.92,-187.81 821.87,-194.93 764.79,-204.42"/>
<polygon fill="midnightblue" stroke="midnightblue" points="1079.47,-451.8 1083.88,-461.44 1086.44,-451.16 1079.47,-451.8"/>
</g>
<!-- Node10&#45;&gt;Node11 -->
<g id="edge11" class="edge">
<title>Node10&#45;&gt;Node11</title>
<path fill="none" stroke="midnightblue" d="M889.42,-76.96C868.3,-89.78 836.1,-107.87 806,-118.98 795.81,-122.73 784.66,-125.87 773.87,-128.44"/>
<polygon fill="midnightblue" stroke="midnightblue" points="891.35,-79.88 898.02,-71.65 887.67,-73.92 891.35,-79.88"/>
</g>
<!-- Node10&#45;&gt;Node13 -->
<g id="edge15" class="edge">
<title>Node10&#45;&gt;Node13</title>
<path fill="none" stroke="midnightblue" d="M842.09,-51.47C782.54,-46.1 696.99,-46.67 632,-80.98 431.08,-187.03 401.74,-522.18 398,-584.09"/>
<polygon fill="midnightblue" stroke="midnightblue" points="841.86,-54.97 852.16,-52.46 842.55,-48 841.86,-54.97"/>
</g>
<!-- Node10&#45;&gt;Node14 -->
<g id="edge16" class="edge">
<title>Node10&#45;&gt;Node14</title>
<path fill="none" stroke="midnightblue" d="M854.4,-73.51C826.87,-78.93 794.45,-85.32 768.35,-90.46"/>
<polygon fill="midnightblue" stroke="midnightblue" points="855.16,-76.93 864.3,-71.56 853.81,-70.06 855.16,-76.93"/>
</g>
<!-- Node11&#45;&gt;Node12 -->
<g id="edge12" class="edge">
<title>Node11&#45;&gt;Node12</title>
<path fill="none" stroke="midnightblue" d="M653.87,-150.81C646.15,-153.79 638.66,-157.46 632,-161.98 591.5,-189.42 562.09,-242.34 551.17,-264.18"/>
<polygon fill="midnightblue" stroke="midnightblue" points="655.06,-154.1 663.35,-147.5 652.76,-147.49 655.06,-154.1"/>
</g>
<!-- Node12&#45;&gt;Node13 -->
<g id="edge13" class="edge">
<title>Node12&#45;&gt;Node13</title>
<path fill="none" stroke="midnightblue" d="M535.92,-292.66C508.29,-352.8 422.3,-539.98 401.88,-584.44"/>
<polygon fill="midnightblue" stroke="midnightblue" points="539.11,-294.1 540.1,-283.55 532.75,-291.18 539.11,-294.1"/>
</g>
<!-- Node13&#45;&gt;Node5 -->
<g id="edge14" class="edge">
<title>Node13&#45;&gt;Node5</title>
<path fill="none" stroke="midnightblue" d="M323.83,-602.7C315.24,-603.75 306.54,-604.81 298.16,-605.83"/>
<polygon fill="midnightblue" stroke="midnightblue" points="324.34,-606.17 333.84,-601.48 323.49,-599.22 324.34,-606.17"/>
</g>
<!-- Node14&#45;&gt;Node12 -->
<g id="edge17" class="edge">
<title>Node14&#45;&gt;Node12</title>
<path fill="none" stroke="midnightblue" d="M653.92,-107.66C646.07,-110.42 638.53,-114.09 632,-118.98 580.56,-157.44 556.12,-236.41 548.89,-264.11"/>
<polygon fill="midnightblue" stroke="midnightblue" points="655.03,-110.98 663.59,-104.74 653.01,-104.28 655.03,-110.98"/>
</g>
<!-- Node16&#45;&gt;Node12 -->
<g id="edge20" class="edge">
<title>Node16&#45;&gt;Node12</title>
<path fill="none" stroke="midnightblue" d="M706.25,-738.72C688.11,-709.86 653.17,-651.46 632,-597.98 584.57,-478.16 555.21,-323.13 548.16,-283.51"/>
<polygon fill="midnightblue" stroke="midnightblue" points="703.4,-740.76 711.71,-747.33 709.31,-737.01 703.4,-740.76"/>
</g>
<!-- Node17&#45;&gt;Node12 -->
<g id="edge23" class="edge">
<title>Node17&#45;&gt;Node12</title>
<path fill="none" stroke="midnightblue" d="M686.73,-345.41C670.31,-338.13 649.93,-328.85 632,-319.98 607.83,-308.01 580.47,-293.03 563.36,-283.48"/>
<polygon fill="midnightblue" stroke="midnightblue" points="685.33,-348.61 695.89,-349.44 688.15,-342.21 685.33,-348.61"/>
</g>
<!-- Node19&#45;&gt;Node12 -->
<g id="edge26" class="edge">
<title>Node19&#45;&gt;Node12</title>
<path fill="none" stroke="midnightblue" d="M681.7,-38.46C664.88,-49.37 645.64,-64.03 632,-80.98 583.28,-141.5 556.62,-234.14 548.89,-264.19"/>
<polygon fill="midnightblue" stroke="midnightblue" points="683.63,-41.39 690.24,-33.11 679.91,-35.46 683.63,-41.39"/>
</g>
<!-- Node20&#45;&gt;Node12 -->
<g id="edge28" class="edge">
<title>Node20&#45;&gt;Node12</title>
<path fill="none" stroke="midnightblue" d="M707.53,-560.35C674.95,-502.41 576.13,-326.68 551.91,-283.59"/>
<polygon fill="midnightblue" stroke="midnightblue" points="704.54,-562.17 712.49,-569.17 710.64,-558.74 704.54,-562.17"/>
</g>
<!-- Node24&#45;&gt;Node12 -->
<g id="edge35" class="edge">
<title>Node24&#45;&gt;Node12</title>
<path fill="none" stroke="midnightblue" d="M638.77,-285.81C624.3,-283.95 609.57,-282.07 596.25,-280.36"/>
<polygon fill="midnightblue" stroke="midnightblue" points="638.37,-289.29 648.74,-287.09 639.27,-282.35 638.37,-289.29"/>
</g>
<!-- Node25&#45;&gt;Node12 -->
<g id="edge37" class="edge">
<title>Node25&#45;&gt;Node12</title>
<path fill="none" stroke="midnightblue" d="M633.53,-262.81C620.71,-264.46 607.85,-266.1 596.11,-267.61"/>
<polygon fill="midnightblue" stroke="midnightblue" points="634.3,-266.24 643.78,-261.5 633.41,-259.3 634.3,-266.24"/>
</g>
<!-- Node31&#45;&gt;Node12 -->
<g id="edge44" class="edge">
<title>Node31&#45;&gt;Node12</title>
<path fill="none" stroke="midnightblue" d="M655.8,-225.93C647.72,-228 639.6,-230.35 632,-232.98 607.26,-241.51 580.27,-255.26 563.37,-264.45"/>
<polygon fill="midnightblue" stroke="midnightblue" points="656.74,-229.3 665.62,-223.53 655.08,-222.5 656.74,-229.3"/>
</g>
</g>
</svg>
        <g id="navigator" transform="translate(0 0)" fill="#404254">
                <rect fill="#f2f5e9" fill-opacity="0.5" stroke="#606060" stroke-width=".5" x="0" y="0" width="60" height="60"/>
                <use id="zoomplus" xlink:href="#zoomPlus" x="17" y="9" onmousedown="handleZoom(evt,'in')"/>
                <use id="zoomminus" xlink:href="#zoomMin" x="42" y="9" onmousedown="handleZoom(evt,'out')"/>
                <use id="reset" xlink:href="#resetDef" x="30" y="36" onmousedown="handleReset()"/>
                <g id="arrowUp" xlink:href="#dirArrow" transform="translate(30 24)" onmousedown="handlePan(0,-1)">
                  <use xlink:href="#rim" fill="#404040">
                        <set attributeName="fill" to="#808080" begin="arrowUp.mouseover" end="arrowUp.mouseout"/>
                  </use>
                  <path fill="none" stroke="white" stroke-width="1.5" d="M0,-3.0v7 M-2.5,-0.5L0,-3.0L2.5,-0.5"/>
                </g>
                <g id="arrowRight" xlink:href="#dirArrow" transform="rotate(90) translate(36 -43)" onmousedown="handlePan(1,0)">
                  <use xlink:href="#rim" fill="#404040">
                        <set attributeName="fill" to="#808080" begin="arrowRight.mouseover" end="arrowRight.mouseout"/>
                  </use>
                  <path fill="none" stroke="white" stroke-width="1.5" d="M0,-3.0v7 M-2.5,-0.5L0,-3.0L2.5,-0.5"/>
                </g>
                <g id="arrowDown" xlink:href="#dirArrow" transform="rotate(180) translate(-30 -48)" onmousedown="handlePan(0,1)">
                  <use xlink:href="#rim" fill="#404040">
                        <set attributeName="fill" to="#808080" begin="arrowDown.mouseover" end="arrowDown.mouseout"/>
                  </use>
                  <path fill="none" stroke="white" stroke-width="1.5" d="M0,-3.0v7 M-2.5,-0.5L0,-3.0L2.5,-0.5"/>
                </g>
                <g id="arrowLeft" xlink:href="#dirArrow" transform="rotate(270) translate(-36 17)" onmousedown="handlePan(-1,0)">
                  <use xlink:href="#rim" fill="#404040">
                        <set attributeName="fill" to="#808080" begin="arrowLeft.mouseover" end="arrowLeft.mouseout"/>
                  </use>
                  <path fill="none" stroke="white" stroke-width="1.5" d="M0,-3.0v7 M-2.5,-0.5L0,-3.0L2.5,-0.5"/>
                </g>
        </g>
        <svg viewBox="0 0 15 15" width="100%" height="30px" preserveAspectRatio="xMaxYMin meet">
         <g id="arrow_out" transform="scale(0.3 0.3)">
          <a xlink:href="class_t_train_ad249f34f6862e604b8e141d1b25fe57d_icgraph_org.svg" target="_base">
           <rect id="button" ry="5" rx="5" y="6" x="6" height="38" width="38"
                fill="#f2f5e9" fill-opacity="0.5" stroke="#606060" stroke-width="1.0"/>
           <path id="arrow"
             d="M 11.500037,31.436501 C 11.940474,20.09759 22.043105,11.32322 32.158766,21.979434 L 37.068811,17.246167 C 37.068811,17.246167 37.088388,32 37.088388,32 L 22.160133,31.978069 C 22.160133,31.978069 26.997745,27.140456 26.997745,27.140456 C 18.528582,18.264221 13.291696,25.230495 11.500037,31.436501 z"
             style="fill:#404040;"/>
          </a>
         </g>
        </svg>
</svg>
