<?xml version="1.0" encoding="UTF-8" standalone="no"?>
<!DOCTYPE svg PUBLIC "-//W3C//DTD SVG 1.1//EN"
 "http://www.w3.org/Graphics/SVG/1.1/DTD/svg11.dtd">
<!-- Generated by graphviz version 2.44.1 (20200629.0800)
 -->
<!-- Title: TTrainController::ConsolidateSARNTAtLoc Pages: 1 -->
<svg width="295pt" height="66pt"
 viewBox="0.00 0.00 295.00 66.00" xmlns="http://www.w3.org/2000/svg" xmlns:xlink="http://www.w3.org/1999/xlink">
<g id="graph0" class="graph" transform="scale(1 1) rotate(0) translate(4 62)">
<title>TTrainController::ConsolidateSARNTAtLoc</title>
<polygon fill="white" stroke="transparent" points="-4,4 -4,-62 291,-62 291,4 -4,4"/>
<!-- Node1 -->
<g id="node1" class="node">
<title>Node1</title>
<g id="a_node1"><a xlink:title="Removes duplicates from and sorts ServiceAndRepeatNumTotal into alphabetical order for AtLoc listing ...">
<polygon fill="#bfbfbf" stroke="black" points="0,-14 0,-44 141,-44 141,-14 0,-14"/>
<text text-anchor="start" x="8" y="-32" font-family="Helvetica,sans-Serif" font-size="10.00">TTrainController::Consolidate</text>
<text text-anchor="middle" x="70.5" y="-21" font-family="Helvetica,sans-Serif" font-size="10.00">SARNTAtLoc</text>
</a>
</g>
</g>
<!-- Node2 -->
<g id="node2" class="node">
<title>Node2</title>
<g id="a_node2"><a xlink:href="class_t_utilities.html#ae1eddca13cc3c492839e131f40ec21c0" target="_top" xlink:title="pops the last entry off the call stack, throws an error if called when empty">
<polygon fill="white" stroke="black" points="177,-38.5 177,-57.5 287,-57.5 287,-38.5 177,-38.5"/>
<text text-anchor="middle" x="232" y="-45.5" font-family="Helvetica,sans-Serif" font-size="10.00">TUtilities::CallLogPop</text>
</a>
</g>
</g>
<!-- Node1&#45;&gt;Node2 -->
<g id="edge1" class="edge">
<title>Node1&#45;&gt;Node2</title>
<path fill="none" stroke="midnightblue" d="M141.46,-37.33C149.91,-38.34 158.51,-39.36 166.87,-40.36"/>
<polygon fill="midnightblue" stroke="midnightblue" points="166.58,-43.85 176.92,-41.56 167.41,-36.9 166.58,-43.85"/>
</g>
<!-- Node3 -->
<g id="node3" class="node">
<title>Node3</title>
<g id="a_node3"><a xlink:href="class_t_utilities.html#a34bd6bb5305bc29afdf424f6d35a921c" target="_top" xlink:title="creates a string of the form &#39;hh:mm:ss&#39; for use in call &amp; event logging">
<polygon fill="white" stroke="black" points="177,-0.5 177,-19.5 287,-19.5 287,-0.5 177,-0.5"/>
<text text-anchor="middle" x="232" y="-7.5" font-family="Helvetica,sans-Serif" font-size="10.00">TUtilities::TimeStamp</text>
</a>
</g>
</g>
<!-- Node1&#45;&gt;Node3 -->
<g id="edge2" class="edge">
<title>Node1&#45;&gt;Node3</title>
<path fill="none" stroke="midnightblue" d="M141.46,-20.67C149.91,-19.66 158.51,-18.64 166.87,-17.64"/>
<polygon fill="midnightblue" stroke="midnightblue" points="167.41,-21.1 176.92,-16.44 166.58,-14.15 167.41,-21.1"/>
</g>
</g>
</svg>
