<?xml version="1.0" encoding="UTF-8" standalone="no"?>
<!DOCTYPE svg PUBLIC "-//W3C//DTD SVG 1.1//EN"
 "http://www.w3.org/Graphics/SVG/1.1/DTD/svg11.dtd">
<!-- Generated by graphviz version 2.44.1 (20200629.0800)
 -->
<!-- Title: TTrainController::RebuildOpTimeToActMultimap Pages: 1 -->
<svg width="833pt" height="306pt"
 viewBox="0.00 0.00 833.00 306.01" xmlns="http://www.w3.org/2000/svg" xmlns:xlink="http://www.w3.org/1999/xlink">
<g id="graph0" class="graph" transform="scale(1 1) rotate(0) translate(4 302.01)">
<title>TTrainController::RebuildOpTimeToActMultimap</title>
<polygon fill="white" stroke="transparent" points="-4,4 -4,-302.01 829,-302.01 829,4 -4,4"/>
<!-- Node1 -->
<g id="node1" class="node">
<title>Node1</title>
<g id="a_node1"><a xlink:title="new v2.2.0 for OperatorActionPanel">
<polygon fill="#bfbfbf" stroke="black" points="0,-109.18 0,-139.18 122,-139.18 122,-109.18 0,-109.18"/>
<text text-anchor="start" x="8" y="-127.18" font-family="Helvetica,sans-Serif" font-size="10.00">TTrainController::Rebuild</text>
<text text-anchor="middle" x="61" y="-116.18" font-family="Helvetica,sans-Serif" font-size="10.00">OpTimeToActMultimap</text>
</a>
</g>
</g>
<!-- Node2 -->
<g id="node2" class="node">
<title>Node2</title>
<g id="a_node2"><a xlink:href="class_t_train_controller.html#ad81afe17a036ab3f96c340ab75a2d8e2" target="_top" xlink:title="new v2.2.0, calcs distance to red signal, returns &#45;1 for no signal found, for autosigs route after ne...">
<polygon fill="white" stroke="black" points="158,-109.18 158,-139.18 306,-139.18 306,-109.18 158,-109.18"/>
<text text-anchor="start" x="166" y="-127.18" font-family="Helvetica,sans-Serif" font-size="10.00">TTrainController::CalcDistance</text>
<text text-anchor="middle" x="232" y="-116.18" font-family="Helvetica,sans-Serif" font-size="10.00">ToRedSignalandStopTime</text>
</a>
</g>
</g>
<!-- Node1&#45;&gt;Node2 -->
<g id="edge1" class="edge">
<title>Node1&#45;&gt;Node2</title>
<path fill="none" stroke="midnightblue" d="M122.06,-124.18C130.38,-124.18 139.04,-124.18 147.69,-124.18"/>
<polygon fill="midnightblue" stroke="midnightblue" points="147.81,-127.68 157.81,-124.18 147.81,-120.68 147.81,-127.68"/>
</g>
<!-- Node3 -->
<g id="node3" class="node">
<title>Node3</title>
<g id="a_node3"><a xlink:href="class_t_utilities.html#ae1eddca13cc3c492839e131f40ec21c0" target="_top" xlink:title="pops the last entry off the call stack, throws an error if called when empty">
<polygon fill="white" stroke="black" points="715,-63.68 715,-82.68 825,-82.68 825,-63.68 715,-63.68"/>
<text text-anchor="middle" x="770" y="-70.68" font-family="Helvetica,sans-Serif" font-size="10.00">TUtilities::CallLogPop</text>
</a>
</g>
</g>
<!-- Node1&#45;&gt;Node3 -->
<g id="edge18" class="edge">
<title>Node1&#45;&gt;Node3</title>
<path fill="none" stroke="midnightblue" d="M77.43,-108.95C95.22,-92.41 126.12,-66.69 158,-54.18 312.98,6.62 363.8,-19.98 530,-10.18 596.11,-6.29 615.84,9.72 679,-10.18 707.76,-19.25 735.33,-41.15 752.21,-56.58"/>
<polygon fill="midnightblue" stroke="midnightblue" points="749.91,-59.22 759.59,-63.54 754.72,-54.13 749.91,-59.22"/>
</g>
<!-- Node6 -->
<g id="node6" class="node">
<title>Node6</title>
<g id="a_node6"><a xlink:href="class_t_utilities.html#a34bd6bb5305bc29afdf424f6d35a921c" target="_top" xlink:title="creates a string of the form &#39;hh:mm:ss&#39; for use in call &amp; event logging">
<polygon fill="white" stroke="black" points="715,-215.68 715,-234.68 825,-234.68 825,-215.68 715,-215.68"/>
<text text-anchor="middle" x="770" y="-222.68" font-family="Helvetica,sans-Serif" font-size="10.00">TUtilities::TimeStamp</text>
</a>
</g>
</g>
<!-- Node1&#45;&gt;Node6 -->
<g id="edge19" class="edge">
<title>Node1&#45;&gt;Node6</title>
<path fill="none" stroke="midnightblue" d="M76.09,-139.44C93.57,-157.42 125.11,-186.93 158,-203.18 309.95,-278.29 361.48,-269.02 530,-287.18 595.84,-294.28 615.77,-306.86 679,-287.18 707.49,-278.32 734.94,-256.95 751.88,-241.78"/>
<polygon fill="midnightblue" stroke="midnightblue" points="754.34,-244.28 759.31,-234.92 749.59,-239.13 754.34,-244.28"/>
</g>
<!-- Node7 -->
<g id="node7" class="node">
<title>Node7</title>
<g id="a_node7"><a xlink:href="class_t_track.html#ad377e5a1f152f2e89832c0f9bcfd261f" target="_top" xlink:title="A range&#45;checked version of TrackElement.at(At)">
<polygon fill="white" stroke="black" points="543.5,-44.68 543.5,-63.68 665.5,-63.68 665.5,-44.68 543.5,-44.68"/>
<text text-anchor="middle" x="604.5" y="-51.68" font-family="Helvetica,sans-Serif" font-size="10.00">TTrack::TrackElementAt</text>
</a>
</g>
</g>
<!-- Node1&#45;&gt;Node7 -->
<g id="edge20" class="edge">
<title>Node1&#45;&gt;Node7</title>
<path fill="none" stroke="midnightblue" d="M105.45,-109.16C159.92,-91.18 256.54,-62.14 342,-51.18 409.01,-42.59 426.45,-50.26 494,-51.18 506.6,-51.36 520.02,-51.64 532.99,-51.97"/>
<polygon fill="midnightblue" stroke="midnightblue" points="533.17,-55.47 543.26,-52.24 533.36,-48.48 533.17,-55.47"/>
</g>
<!-- Node9 -->
<g id="node9" class="node">
<title>Node9</title>
<g id="a_node9"><a xlink:href="class_t_train_controller.html#aa09adf9c442406cccc270d6703867a1d" target="_top" xlink:title="Return a reference to the train at position VecPos in the TrainVector, carries out range checking on ...">
<polygon fill="white" stroke="black" points="530,-234.68 530,-253.68 679,-253.68 679,-234.68 530,-234.68"/>
<text text-anchor="middle" x="604.5" y="-241.68" font-family="Helvetica,sans-Serif" font-size="10.00">TTrainController::TrainVectorAt</text>
</a>
</g>
</g>
<!-- Node1&#45;&gt;Node9 -->
<g id="edge21" class="edge">
<title>Node1&#45;&gt;Node9</title>
<path fill="none" stroke="midnightblue" d="M96.11,-139.29C148.05,-161.57 250.58,-202.67 342,-222.18 400.58,-234.69 467.97,-240.15 519.67,-242.51"/>
<polygon fill="midnightblue" stroke="midnightblue" points="519.65,-246.01 529.79,-242.94 519.95,-239.02 519.65,-246.01"/>
</g>
<!-- Node2&#45;&gt;Node3 -->
<g id="edge2" class="edge">
<title>Node2&#45;&gt;Node3</title>
<path fill="none" stroke="midnightblue" d="M249.63,-109.04C269.81,-91.66 305.68,-63.93 342,-51.18 483.49,-1.53 532.04,-5.43 679,-35.18 701.58,-39.76 725.54,-50.18 743.06,-58.95"/>
<polygon fill="midnightblue" stroke="midnightblue" points="741.58,-62.13 752.07,-63.61 744.79,-55.91 741.58,-62.13"/>
</g>
<!-- Node4 -->
<g id="node4" class="node">
<title>Node4</title>
<g id="a_node4"><a xlink:href="class_t_track.html#aeb515d40cb9b08ed55ce877ffdbc51a5" target="_top" xlink:title="Return the corresponding link position (track always occupies either links 0 &amp; 1 or 2 &amp; 3)">
<polygon fill="white" stroke="black" points="342,-183.18 342,-213.18 494,-213.18 494,-183.18 342,-183.18"/>
<text text-anchor="start" x="350" y="-201.18" font-family="Helvetica,sans-Serif" font-size="10.00">TTrack::GetNonPointsOpposite</text>
<text text-anchor="middle" x="418" y="-190.18" font-family="Helvetica,sans-Serif" font-size="10.00">LinkPos</text>
</a>
</g>
</g>
<!-- Node2&#45;&gt;Node4 -->
<g id="edge3" class="edge">
<title>Node2&#45;&gt;Node4</title>
<path fill="none" stroke="midnightblue" d="M264.6,-139.41C286.17,-149.54 315.52,-162.85 342,-173.18 347.79,-175.44 353.88,-177.69 359.98,-179.85"/>
<polygon fill="midnightblue" stroke="midnightblue" points="358.94,-183.19 369.53,-183.17 361.23,-176.58 358.94,-183.19"/>
</g>
<!-- Node5 -->
<g id="node5" class="node">
<title>Node5</title>
<g id="a_node5"><a xlink:href="class_t_all_routes.html#a0a9ccbc84687f85806115877aa86dcfd" target="_top" xlink:title="Examines Route2MultiMap and if the element at TrackVectorPosition with LinkPos (can be entry or exit)...">
<polygon fill="white" stroke="black" points="352,-85.18 352,-115.18 484,-115.18 484,-85.18 352,-85.18"/>
<text text-anchor="start" x="360" y="-103.18" font-family="Helvetica,sans-Serif" font-size="10.00">TAllRoutes::GetRouteType</text>
<text text-anchor="middle" x="418" y="-92.18" font-family="Helvetica,sans-Serif" font-size="10.00">AndNumber</text>
</a>
</g>
</g>
<!-- Node2&#45;&gt;Node5 -->
<g id="edge4" class="edge">
<title>Node2&#45;&gt;Node5</title>
<path fill="none" stroke="midnightblue" d="M306.25,-114.63C317.88,-113.11 329.92,-111.54 341.6,-110.02"/>
<polygon fill="midnightblue" stroke="midnightblue" points="342.28,-113.46 351.74,-108.7 341.37,-106.52 342.28,-113.46"/>
</g>
<!-- Node2&#45;&gt;Node6 -->
<g id="edge10" class="edge">
<title>Node2&#45;&gt;Node6</title>
<path fill="none" stroke="midnightblue" d="M245.34,-139.44C263.91,-161.33 301.23,-201.3 342,-222.18 476.28,-290.99 531.12,-293.12 679,-263.18 701.58,-258.61 725.54,-248.19 743.06,-239.42"/>
<polygon fill="midnightblue" stroke="midnightblue" points="744.79,-242.46 752.07,-234.76 741.58,-236.24 744.79,-242.46"/>
</g>
<!-- Node2&#45;&gt;Node7 -->
<g id="edge11" class="edge">
<title>Node2&#45;&gt;Node7</title>
<path fill="none" stroke="midnightblue" d="M259.83,-108.99C281.33,-97.6 312.66,-82.72 342,-75.18 405.41,-58.91 480.05,-54.29 533.32,-53.37"/>
<polygon fill="midnightblue" stroke="midnightblue" points="533.4,-56.87 543.35,-53.23 533.3,-49.87 533.4,-56.87"/>
</g>
<!-- Node8 -->
<g id="node8" class="node">
<title>Node8</title>
<g id="a_node8"><a xlink:href="class_t_train_controller.html#a4d5de42d6e9e92191241963599581210" target="_top" xlink:title="Return a reference to the train with ID TrainID, carries out validity checking on TrainID.">
<polygon fill="white" stroke="black" points="348,-134.18 348,-164.18 488,-164.18 488,-134.18 348,-134.18"/>
<text text-anchor="start" x="356" y="-152.18" font-family="Helvetica,sans-Serif" font-size="10.00">TTrainController::TrainVector</text>
<text text-anchor="middle" x="418" y="-141.18" font-family="Helvetica,sans-Serif" font-size="10.00">AtIdent</text>
</a>
</g>
</g>
<!-- Node2&#45;&gt;Node8 -->
<g id="edge12" class="edge">
<title>Node2&#45;&gt;Node8</title>
<path fill="none" stroke="midnightblue" d="M306.25,-134.14C316.66,-135.55 327.39,-137.01 337.9,-138.44"/>
<polygon fill="midnightblue" stroke="midnightblue" points="337.51,-141.92 347.89,-139.79 338.45,-134.98 337.51,-141.92"/>
</g>
<!-- Node5&#45;&gt;Node3 -->
<g id="edge5" class="edge">
<title>Node5&#45;&gt;Node3</title>
<path fill="none" stroke="midnightblue" d="M484.01,-95.17C547.03,-90.31 642.04,-82.98 704.78,-78.14"/>
<polygon fill="midnightblue" stroke="midnightblue" points="705.25,-81.61 714.95,-77.35 704.71,-74.63 705.25,-81.61"/>
</g>
<!-- Node5&#45;&gt;Node6 -->
<g id="edge6" class="edge">
<title>Node5&#45;&gt;Node6</title>
<path fill="none" stroke="midnightblue" d="M474.31,-115.19C527.48,-130.18 609.76,-154.88 679,-182.18 700.48,-190.65 723.99,-201.96 741.6,-210.86"/>
<polygon fill="midnightblue" stroke="midnightblue" points="740.22,-214.09 750.72,-215.52 743.41,-207.85 740.22,-214.09"/>
</g>
<!-- Node5&#45;&gt;Node7 -->
<g id="edge7" class="edge">
<title>Node5&#45;&gt;Node7</title>
<path fill="none" stroke="midnightblue" d="M479.41,-85.12C504.04,-78.98 532.11,-71.98 555.32,-66.2"/>
<polygon fill="midnightblue" stroke="midnightblue" points="556.43,-69.53 565.28,-63.71 554.73,-62.74 556.43,-69.53"/>
</g>
<!-- Node7&#45;&gt;Node3 -->
<g id="edge8" class="edge">
<title>Node7&#45;&gt;Node3</title>
<path fill="none" stroke="midnightblue" d="M665.92,-61.21C678.55,-62.67 691.91,-64.23 704.68,-65.71"/>
<polygon fill="midnightblue" stroke="midnightblue" points="704.43,-69.2 714.77,-66.88 705.24,-62.25 704.43,-69.2"/>
</g>
<!-- Node7&#45;&gt;Node6 -->
<g id="edge9" class="edge">
<title>Node7&#45;&gt;Node6</title>
<path fill="none" stroke="midnightblue" d="M614.76,-63.87C641.4,-91.73 718.52,-172.38 752.54,-207.97"/>
<polygon fill="midnightblue" stroke="midnightblue" points="750.4,-210.8 759.84,-215.61 755.46,-205.96 750.4,-210.8"/>
</g>
<!-- Node8&#45;&gt;Node3 -->
<g id="edge13" class="edge">
<title>Node8&#45;&gt;Node3</title>
<path fill="none" stroke="midnightblue" d="M488.12,-138.19C540.76,-129.34 614.85,-115.81 679,-100.18 695.9,-96.07 714.34,-90.7 730.1,-85.83"/>
<polygon fill="midnightblue" stroke="midnightblue" points="731.53,-89.05 740.03,-82.72 729.44,-82.37 731.53,-89.05"/>
</g>
<!-- Node8&#45;&gt;Node6 -->
<g id="edge14" class="edge">
<title>Node8&#45;&gt;Node6</title>
<path fill="none" stroke="midnightblue" d="M465.41,-164.23C485.18,-170.32 508.58,-177.09 530,-182.18 588.59,-196.12 656.2,-207.89 704.53,-215.57"/>
<polygon fill="midnightblue" stroke="midnightblue" points="704.12,-219.05 714.54,-217.15 705.21,-212.14 704.12,-219.05"/>
</g>
<!-- Node8&#45;&gt;Node9 -->
<g id="edge15" class="edge">
<title>Node8&#45;&gt;Node9</title>
<path fill="none" stroke="midnightblue" d="M478.38,-164.35C483.89,-166.88 489.19,-169.8 494,-173.18 515.52,-188.33 508.53,-204.97 530,-220.18 536.1,-224.51 543.02,-228.08 550.12,-231.03"/>
<polygon fill="midnightblue" stroke="midnightblue" points="549.26,-234.45 559.86,-234.68 551.72,-227.9 549.26,-234.45"/>
</g>
<!-- Node9&#45;&gt;Node3 -->
<g id="edge16" class="edge">
<title>Node9&#45;&gt;Node3</title>
<path fill="none" stroke="midnightblue" d="M614.76,-234.5C641.4,-206.64 718.52,-125.99 752.54,-90.4"/>
<polygon fill="midnightblue" stroke="midnightblue" points="755.46,-92.41 759.84,-82.76 750.4,-87.57 755.46,-92.41"/>
</g>
<!-- Node9&#45;&gt;Node6 -->
<g id="edge17" class="edge">
<title>Node9&#45;&gt;Node6</title>
<path fill="none" stroke="midnightblue" d="M679.12,-235.63C687.68,-234.64 696.35,-233.63 704.77,-232.65"/>
<polygon fill="midnightblue" stroke="midnightblue" points="705.35,-236.1 714.88,-231.47 704.54,-229.15 705.35,-236.1"/>
</g>
</g>
</svg>
