<?xml version="1.0" encoding="UTF-8" standalone="no"?>
<!DOCTYPE svg PUBLIC "-//W3C//DTD SVG 1.1//EN"
 "http://www.w3.org/Graphics/SVG/1.1/DTD/svg11.dtd">
<!-- Generated by graphviz version 2.44.1 (20200629.0800)
 -->
<!-- Title: TGraphicElement::PlotOverlay Pages: 1 -->
<svg width="444pt" height="123pt"
 viewBox="0.00 0.00 444.00 123.00" xmlns="http://www.w3.org/2000/svg" xmlns:xlink="http://www.w3.org/1999/xlink">
<g id="graph0" class="graph" transform="scale(1 1) rotate(0) translate(4 119)">
<title>TGraphicElement::PlotOverlay</title>
<polygon fill="white" stroke="transparent" points="-4,4 -4,-119 440,-119 440,4 -4,4"/>
<!-- Node1 -->
<g id="node1" class="node">
<title>Node1</title>
<g id="a_node1"><a xlink:title="Plot the overlay graphic on screen.">
<polygon fill="#bfbfbf" stroke="black" points="0,-57.5 0,-76.5 147,-76.5 147,-57.5 0,-57.5"/>
<text text-anchor="middle" x="73.5" y="-64.5" font-family="Helvetica,sans-Serif" font-size="10.00">TGraphicElement::PlotOverlay</text>
</a>
</g>
</g>
<!-- Node2 -->
<g id="node2" class="node">
<title>Node2</title>
<g id="a_node2"><a xlink:href="class_t_utilities.html#ae1eddca13cc3c492839e131f40ec21c0" target="_top" xlink:title="pops the last entry off the call stack, throws an error if called when empty">
<polygon fill="white" stroke="black" points="326,-95.5 326,-114.5 436,-114.5 436,-95.5 326,-95.5"/>
<text text-anchor="middle" x="381" y="-102.5" font-family="Helvetica,sans-Serif" font-size="10.00">TUtilities::CallLogPop</text>
</a>
</g>
</g>
<!-- Node1&#45;&gt;Node2 -->
<g id="edge1" class="edge">
<title>Node1&#45;&gt;Node2</title>
<path fill="none" stroke="midnightblue" d="M95.15,-76.59C116.57,-85.97 151.32,-99.61 183,-105 226.8,-112.45 276.87,-112.34 315.57,-110.42"/>
<polygon fill="midnightblue" stroke="midnightblue" points="315.86,-113.91 325.66,-109.87 315.48,-106.92 315.86,-113.91"/>
</g>
<!-- Node3 -->
<g id="node3" class="node">
<title>Node3</title>
<g id="a_node3"><a xlink:href="class_t_display.html#a9ab49e52c7eb92b32ae2c34547183439" target="_top" xlink:title="Plot the graphic at screen position HPos &amp; VPos.">
<polygon fill="white" stroke="black" points="183,-76.5 183,-95.5 290,-95.5 290,-76.5 183,-76.5"/>
<text text-anchor="middle" x="236.5" y="-83.5" font-family="Helvetica,sans-Serif" font-size="10.00">TDisplay::PlotOutput</text>
</a>
</g>
</g>
<!-- Node1&#45;&gt;Node3 -->
<g id="edge2" class="edge">
<title>Node1&#45;&gt;Node3</title>
<path fill="none" stroke="midnightblue" d="M147.46,-75.61C155.77,-76.59 164.19,-77.58 172.35,-78.55"/>
<polygon fill="midnightblue" stroke="midnightblue" points="172.19,-82.05 182.53,-79.75 173.01,-75.1 172.19,-82.05"/>
</g>
<!-- Node4 -->
<g id="node4" class="node">
<title>Node4</title>
<g id="a_node4"><a xlink:href="class_t_utilities.html#a34bd6bb5305bc29afdf424f6d35a921c" target="_top" xlink:title="creates a string of the form &#39;hh:mm:ss&#39; for use in call &amp; event logging">
<polygon fill="white" stroke="black" points="326,-57.5 326,-76.5 436,-76.5 436,-57.5 326,-57.5"/>
<text text-anchor="middle" x="381" y="-64.5" font-family="Helvetica,sans-Serif" font-size="10.00">TUtilities::TimeStamp</text>
</a>
</g>
</g>
<!-- Node1&#45;&gt;Node4 -->
<g id="edge5" class="edge">
<title>Node1&#45;&gt;Node4</title>
<path fill="none" stroke="midnightblue" d="M147.29,-67C198.53,-67 266.49,-67 315.73,-67"/>
<polygon fill="midnightblue" stroke="midnightblue" points="315.94,-70.5 325.94,-67 315.94,-63.5 315.94,-70.5"/>
</g>
<!-- Node5 -->
<g id="node5" class="node">
<title>Node5</title>
<g id="a_node5"><a xlink:href="class_t_display.html#aa4f37ab2a4df6437a2219f303e1de40b" target="_top" xlink:title="Repaint the screen display.">
<polygon fill="white" stroke="black" points="191,-0.5 191,-19.5 282,-19.5 282,-0.5 191,-0.5"/>
<text text-anchor="middle" x="236.5" y="-7.5" font-family="Helvetica,sans-Serif" font-size="10.00">TDisplay::Update</text>
</a>
</g>
</g>
<!-- Node1&#45;&gt;Node5 -->
<g id="edge6" class="edge">
<title>Node1&#45;&gt;Node5</title>
<path fill="none" stroke="midnightblue" d="M101.45,-57.46C128.15,-48.01 169.24,-33.46 198.89,-22.96"/>
<polygon fill="midnightblue" stroke="midnightblue" points="200.21,-26.21 208.46,-19.57 197.87,-19.61 200.21,-26.21"/>
</g>
<!-- Node3&#45;&gt;Node2 -->
<g id="edge3" class="edge">
<title>Node3&#45;&gt;Node2</title>
<path fill="none" stroke="midnightblue" d="M290.16,-93.02C298.48,-94.13 307.16,-95.29 315.71,-96.43"/>
<polygon fill="midnightblue" stroke="midnightblue" points="315.28,-99.9 325.65,-97.75 316.2,-92.96 315.28,-99.9"/>
</g>
<!-- Node3&#45;&gt;Node4 -->
<g id="edge4" class="edge">
<title>Node3&#45;&gt;Node4</title>
<path fill="none" stroke="midnightblue" d="M290.16,-78.98C298.48,-77.87 307.16,-76.71 315.71,-75.57"/>
<polygon fill="midnightblue" stroke="midnightblue" points="316.2,-79.04 325.65,-74.25 315.28,-72.1 316.2,-79.04"/>
</g>
</g>
</svg>
