<?xml version="1.0" encoding="UTF-8" standalone="no"?>
<!DOCTYPE svg PUBLIC "-//W3C//DTD SVG 1.1//EN"
 "http://www.w3.org/Graphics/SVG/1.1/DTD/svg11.dtd">
<!-- Generated by graphviz version 2.44.1 (20200629.0800)
 -->
<!-- Title: TTextHandler::SaveText Pages: 1 -->
<svg width="455pt" height="256pt"
 viewBox="0.00 0.00 455.00 255.76" xmlns="http://www.w3.org/2000/svg" xmlns:xlink="http://www.w3.org/1999/xlink">
<g id="graph0" class="graph" transform="scale(1 1) rotate(0) translate(4 251.76)">
<title>TTextHandler::SaveText</title>
<polygon fill="white" stroke="transparent" points="-4,4 -4,-251.76 451,-251.76 451,4 -4,4"/>
<!-- Node1 -->
<g id="node1" class="node">
<title>Node1</title>
<g id="a_node1"><a xlink:title="save the railway&#39;s text to VecFile">
<polygon fill="#bfbfbf" stroke="black" points="0,-114.5 0,-133.5 119,-133.5 119,-114.5 0,-114.5"/>
<text text-anchor="middle" x="59.5" y="-121.5" font-family="Helvetica,sans-Serif" font-size="10.00">TTextHandler::SaveText</text>
</a>
</g>
</g>
<!-- Node2 -->
<g id="node2" class="node">
<title>Node2</title>
<g id="a_node2"><a xlink:href="class_t_utilities.html#ae1eddca13cc3c492839e131f40ec21c0" target="_top" xlink:title="pops the last entry off the call stack, throws an error if called when empty">
<polygon fill="white" stroke="black" points="337,-171.5 337,-190.5 447,-190.5 447,-171.5 337,-171.5"/>
<text text-anchor="middle" x="392" y="-178.5" font-family="Helvetica,sans-Serif" font-size="10.00">TUtilities::CallLogPop</text>
</a>
</g>
</g>
<!-- Node1&#45;&gt;Node2 -->
<g id="edge1" class="edge">
<title>Node1&#45;&gt;Node2</title>
<path fill="none" stroke="midnightblue" d="M65.25,-133.53C76.91,-155.7 109.36,-210.42 155,-231 214.15,-257.68 238.19,-247.28 301,-231 326.64,-224.36 352.75,-208.65 370.19,-196.6"/>
<polygon fill="midnightblue" stroke="midnightblue" points="372.37,-199.35 378.48,-190.7 368.3,-193.65 372.37,-199.35"/>
</g>
<!-- Node3 -->
<g id="node3" class="node">
<title>Node3</title>
<g id="a_node3"><a xlink:href="class_t_text_handler.html#a19a5042d87a979d56ba4678bee8b2abb" target="_top" xlink:title="retrieve the style of the font as a coded integer">
<polygon fill="white" stroke="black" points="159.5,-191 159.5,-221 296.5,-221 296.5,-191 159.5,-191"/>
<text text-anchor="start" x="167.5" y="-209" font-family="Helvetica,sans-Serif" font-size="10.00">TTextHandler::GetFontStyle</text>
<text text-anchor="middle" x="228" y="-198" font-family="Helvetica,sans-Serif" font-size="10.00">AsInt</text>
</a>
</g>
</g>
<!-- Node1&#45;&gt;Node3 -->
<g id="edge2" class="edge">
<title>Node1&#45;&gt;Node3</title>
<path fill="none" stroke="midnightblue" d="M74.4,-133.65C92.38,-145.84 124.99,-166.93 155,-181 159.67,-183.19 164.59,-185.29 169.58,-187.29"/>
<polygon fill="midnightblue" stroke="midnightblue" points="168.6,-190.66 179.19,-190.97 171.11,-184.12 168.6,-190.66"/>
</g>
<!-- Node4 -->
<g id="node4" class="node">
<title>Node4</title>
<g id="a_node4"><a xlink:href="class_t_utilities.html#a34bd6bb5305bc29afdf424f6d35a921c" target="_top" xlink:title="creates a string of the form &#39;hh:mm:ss&#39; for use in call &amp; event logging">
<polygon fill="white" stroke="black" points="337,-133.5 337,-152.5 447,-152.5 447,-133.5 337,-133.5"/>
<text text-anchor="middle" x="392" y="-140.5" font-family="Helvetica,sans-Serif" font-size="10.00">TUtilities::TimeStamp</text>
</a>
</g>
</g>
<!-- Node1&#45;&gt;Node4 -->
<g id="edge13" class="edge">
<title>Node1&#45;&gt;Node4</title>
<path fill="none" stroke="midnightblue" d="M98.8,-114.5C146.59,-104.12 230.6,-90.75 301,-105 323.58,-109.57 347.54,-119.99 365.06,-128.77"/>
<polygon fill="midnightblue" stroke="midnightblue" points="363.58,-131.94 374.07,-133.42 366.79,-125.72 363.58,-131.94"/>
</g>
<!-- Node5 -->
<g id="node5" class="node">
<title>Node5</title>
<g id="a_node5"><a xlink:href="class_t_utilities.html#a86ed634e8a9d7ca534a324954f4a7a2f" target="_top" xlink:title="stores the int value to the file, then a CR">
<polygon fill="white" stroke="black" points="174.5,-38.5 174.5,-57.5 281.5,-57.5 281.5,-38.5 174.5,-38.5"/>
<text text-anchor="middle" x="228" y="-45.5" font-family="Helvetica,sans-Serif" font-size="10.00">TUtilities::SaveFileInt</text>
</a>
</g>
</g>
<!-- Node1&#45;&gt;Node5 -->
<g id="edge5" class="edge">
<title>Node1&#45;&gt;Node5</title>
<path fill="none" stroke="midnightblue" d="M75.78,-114.46C94.11,-103.28 126.01,-84.68 155,-72 164.42,-67.88 174.78,-64.04 184.64,-60.7"/>
<polygon fill="midnightblue" stroke="midnightblue" points="185.87,-63.98 194.27,-57.53 183.68,-57.33 185.87,-63.98"/>
</g>
<!-- Node6 -->
<g id="node6" class="node">
<title>Node6</title>
<g id="a_node6"><a xlink:href="class_t_utilities.html#a60531c6cb1a6a33dd71299d3a5b6cc21" target="_top" xlink:title="stores the string value to the file, then a &#39;0&#39; delimiter then a CR">
<polygon fill="white" stroke="black" points="167,-0.5 167,-19.5 289,-19.5 289,-0.5 167,-0.5"/>
<text text-anchor="middle" x="228" y="-7.5" font-family="Helvetica,sans-Serif" font-size="10.00">TUtilities::SaveFileString</text>
</a>
</g>
</g>
<!-- Node1&#45;&gt;Node6 -->
<g id="edge6" class="edge">
<title>Node1&#45;&gt;Node6</title>
<path fill="none" stroke="midnightblue" d="M67.35,-114.25C81.44,-94.92 115.7,-51.66 155,-29 158.88,-26.76 163.04,-24.78 167.32,-23.03"/>
<polygon fill="midnightblue" stroke="midnightblue" points="168.64,-26.27 176.83,-19.54 166.23,-19.7 168.64,-26.27"/>
</g>
<!-- Node7 -->
<g id="node7" class="node">
<title>Node7</title>
<g id="a_node7"><a xlink:href="class_t_text_handler.html#ac478536f458d9cda8a841953672f6525" target="_top" xlink:title="return the text item at position &#39;At&#39; in TextVector (carries out range checking)">
<polygon fill="white" stroke="black" points="167.5,-152.5 167.5,-171.5 288.5,-171.5 288.5,-152.5 167.5,-152.5"/>
<text text-anchor="middle" x="228" y="-159.5" font-family="Helvetica,sans-Serif" font-size="10.00">TTextHandler::TextPtrAt</text>
</a>
</g>
</g>
<!-- Node1&#45;&gt;Node7 -->
<g id="edge7" class="edge">
<title>Node1&#45;&gt;Node7</title>
<path fill="none" stroke="midnightblue" d="M102.51,-133.59C124.68,-138.65 152.07,-144.9 175.51,-150.25"/>
<polygon fill="midnightblue" stroke="midnightblue" points="174.76,-153.67 185.29,-152.48 176.32,-146.84 174.76,-153.67"/>
</g>
<!-- Node8 -->
<g id="node8" class="node">
<title>Node8</title>
<g id="a_node8"><a xlink:href="class_t_text_handler.html#a7dfd4e30235878fb01e7387715e0cb0f" target="_top" xlink:title="return the number of items in TextVector">
<polygon fill="white" stroke="black" points="155,-114.5 155,-133.5 301,-133.5 301,-114.5 155,-114.5"/>
<text text-anchor="middle" x="228" y="-121.5" font-family="Helvetica,sans-Serif" font-size="10.00">TTextHandler::TextVectorSize</text>
</a>
</g>
</g>
<!-- Node1&#45;&gt;Node8 -->
<g id="edge10" class="edge">
<title>Node1&#45;&gt;Node8</title>
<path fill="none" stroke="midnightblue" d="M119.2,-124C127.48,-124 136.11,-124 144.73,-124"/>
<polygon fill="midnightblue" stroke="midnightblue" points="144.82,-127.5 154.82,-124 144.82,-120.5 144.82,-127.5"/>
</g>
<!-- Node3&#45;&gt;Node2 -->
<g id="edge3" class="edge">
<title>Node3&#45;&gt;Node2</title>
<path fill="none" stroke="midnightblue" d="M296.76,-195.54C306.67,-194.01 316.86,-192.44 326.69,-190.92"/>
<polygon fill="midnightblue" stroke="midnightblue" points="327.45,-194.35 336.8,-189.36 326.38,-187.43 327.45,-194.35"/>
</g>
<!-- Node3&#45;&gt;Node4 -->
<g id="edge4" class="edge">
<title>Node3&#45;&gt;Node4</title>
<path fill="none" stroke="midnightblue" d="M275.87,-190.88C284.32,-187.83 292.99,-184.48 301,-181 317.59,-173.79 320.42,-169.24 337,-162 341.72,-159.94 346.74,-157.93 351.74,-156.05"/>
<polygon fill="midnightblue" stroke="midnightblue" points="353.07,-159.29 361.27,-152.58 350.67,-152.71 353.07,-159.29"/>
</g>
<!-- Node7&#45;&gt;Node2 -->
<g id="edge8" class="edge">
<title>Node7&#45;&gt;Node2</title>
<path fill="none" stroke="midnightblue" d="M288.86,-169.02C301.11,-170.46 314.06,-171.98 326.47,-173.43"/>
<polygon fill="midnightblue" stroke="midnightblue" points="326.4,-176.95 336.74,-174.64 327.21,-169.99 326.4,-176.95"/>
</g>
<!-- Node7&#45;&gt;Node4 -->
<g id="edge9" class="edge">
<title>Node7&#45;&gt;Node4</title>
<path fill="none" stroke="midnightblue" d="M288.86,-154.98C301.11,-153.54 314.06,-152.02 326.47,-150.57"/>
<polygon fill="midnightblue" stroke="midnightblue" points="327.21,-154.01 336.74,-149.36 326.4,-147.05 327.21,-154.01"/>
</g>
<!-- Node8&#45;&gt;Node2 -->
<g id="edge11" class="edge">
<title>Node8&#45;&gt;Node2</title>
<path fill="none" stroke="midnightblue" d="M271.77,-133.57C281.52,-136.22 291.73,-139.38 301,-143 317.86,-149.57 320.42,-154.76 337,-162 341.72,-164.06 346.74,-166.07 351.74,-167.95"/>
<polygon fill="midnightblue" stroke="midnightblue" points="350.67,-171.29 361.27,-171.42 353.07,-164.71 350.67,-171.29"/>
</g>
<!-- Node8&#45;&gt;Node4 -->
<g id="edge12" class="edge">
<title>Node8&#45;&gt;Node4</title>
<path fill="none" stroke="midnightblue" d="M301.47,-132.5C309.86,-133.48 318.36,-134.48 326.63,-135.45"/>
<polygon fill="midnightblue" stroke="midnightblue" points="326.23,-138.93 336.57,-136.62 327.05,-131.98 326.23,-138.93"/>
</g>
</g>
</svg>
