<?xml version="1.0" encoding="UTF-8" standalone="no"?>
<!DOCTYPE svg PUBLIC "-//W3C//DTD SVG 1.1//EN"
 "http://www.w3.org/Graphics/SVG/1.1/DTD/svg11.dtd">
<!-- Generated by graphviz version 2.44.1 (20200629.0800)
 -->
<!-- Title: TOneRoute::SearchForNonPreferredRoute Pages: 1 -->
<!--zoomable 977 -->
<svg id="main" version="1.1" xmlns="http://www.w3.org/2000/svg" xmlns:xlink="http://www.w3.org/1999/xlink" xml:space="preserve" onload="init(evt)">
<style type="text/css"><![CDATA[
.edge:hover path { stroke: red; }
.edge:hover polygon { stroke: red; fill: red; }
]]></style>
<script type="text/javascript"><![CDATA[
var edges = document.getElementsByTagName('g');
if (edges && edges.length) {
  for (var i=0;i<edges.length;i++) {
    if (edges[i].id.substr(0,4)=='edge') {
      edges[i].setAttribute('class','edge');
    }
  }
}
]]></script>
        <defs>
                <circle id="rim" cx="0" cy="0" r="7"/>
                <circle id="rim2" cx="0" cy="0" r="3.5"/>
                <g id="zoomPlus">
                        <use xlink:href="#rim" fill="#404040">
                                <set attributeName="fill" to="#808080" begin="zoomplus.mouseover" end="zoomplus.mouseout"/>
                        </use>
                        <path d="M-4,0h8M0,-4v8" fill="none" stroke="white" stroke-width="1.5" pointer-events="none"/>
                </g>
                <g id="zoomMin">
                        <use xlink:href="#rim" fill="#404040">
                                <set attributeName="fill" to="#808080" begin="zoomminus.mouseover" end="zoomminus.mouseout"/>
                        </use>
                        <path d="M-4,0h8" fill="none" stroke="white" stroke-width="1.5" pointer-events="none"/>
                </g>
                <g id="dirArrow">
                        <path fill="none" stroke="white" stroke-width="1.5" d="M0,-3.0v7 M-2.5,-0.5L0,-3.0L2.5,-0.5"/>
                </g>
               <g id="resetDef">
                       <use xlink:href="#rim2" fill="#404040">
                               <set attributeName="fill" to="#808080" begin="reset.mouseover" end="reset.mouseout"/>
                       </use>
               </g>
        </defs>

<script type="text/javascript">
var viewWidth = 1069;
var viewHeight = 977;
var sectionId = 'dynsection-23';
</script>
<script xlink:href="svgpan.js"/>
<svg id="graph" class="graph">
<g id="viewport">
<title>TOneRoute::SearchForNonPreferredRoute</title>
<polygon fill="white" stroke="transparent" points="-4,4 -4,-973.35 1065,-973.35 1065,4 -4,4"/>
<!-- Node1 -->
<g id="node1" class="node">
<title>Node1</title>
<g id="a_node1"><a xlink:title="Called by GetNextNonPreferredRouteElement to carry out the search for linked track,...">
<polygon fill="#bfbfbf" stroke="black" points="0,-507 0,-537 173,-537 173,-507 0,-507"/>
<text text-anchor="start" x="8" y="-525" font-family="Helvetica,sans-Serif" font-size="10.00">TOneRoute::SearchForNonPreferred</text>
<text text-anchor="middle" x="86.5" y="-514" font-family="Helvetica,sans-Serif" font-size="10.00">Route</text>
</a>
</g>
</g>
<!-- Node2 -->
<g id="node2" class="node">
<title>Node2</title>
<g id="a_node2"><a xlink:href="class_t_utilities.html#ae1eddca13cc3c492839e131f40ec21c0" target="_top" xlink:title="pops the last entry off the call stack, throws an error if called when empty">
<polygon fill="white" stroke="black" points="951,-594.5 951,-613.5 1061,-613.5 1061,-594.5 951,-594.5"/>
<text text-anchor="middle" x="1006" y="-601.5" font-family="Helvetica,sans-Serif" font-size="10.00">TUtilities::CallLogPop</text>
</a>
</g>
</g>
<!-- Node1&#45;&gt;Node2 -->
<g id="edge1" class="edge">
<title>Node1&#45;&gt;Node2</title>
<path fill="none" stroke="midnightblue" d="M90.4,-537.28C99.84,-583.51 133.56,-724.05 209,-811 292.34,-907.06 327.32,-958 454.5,-958 454.5,-958 454.5,-958 646,-958 766.68,-958 823.91,-1000.16 915,-921 961.14,-880.9 992.96,-686.85 1002.22,-623.82"/>
<polygon fill="midnightblue" stroke="midnightblue" points="1005.72,-624.04 1003.68,-613.64 998.8,-623.04 1005.72,-624.04"/>
</g>
<!-- Node3 -->
<g id="node3" class="node">
<title>Node3</title>
<g id="a_node3"><a xlink:href="class_t_all_routes.html#a2341a7e860e716e60b733f45814e4499" target="_top" xlink:title="The track geometry allows diagonals to cross without occupying the same track element,...">
<polygon fill="white" stroke="black" points="209,-641 209,-671 346,-671 346,-641 209,-641"/>
<text text-anchor="start" x="217" y="-659" font-family="Helvetica,sans-Serif" font-size="10.00">TAllRoutes::DiagonalFouled</text>
<text text-anchor="middle" x="277.5" y="-648" font-family="Helvetica,sans-Serif" font-size="10.00">ByRouteOrTrain</text>
</a>
</g>
</g>
<!-- Node1&#45;&gt;Node3 -->
<g id="edge2" class="edge">
<title>Node1&#45;&gt;Node3</title>
<path fill="none" stroke="midnightblue" d="M108.81,-537.11C142.65,-561.1 208.74,-607.96 247.07,-635.13"/>
<polygon fill="midnightblue" stroke="midnightblue" points="245.08,-638.02 255.26,-640.94 249.13,-632.31 245.08,-638.02"/>
</g>
<!-- Node4 -->
<g id="node4" class="node">
<title>Node4</title>
<g id="a_node4"><a xlink:href="class_t_one_pref_dir.html#a5b67e5aaa86d324229aedc68f32f32b8" target="_top" xlink:title="Return a non&#45;modifiable element at PrefDirVector position &#39;At&#39;.">
<polygon fill="white" stroke="black" points="389.5,-823 389.5,-853 521.5,-853 521.5,-823 389.5,-823"/>
<text text-anchor="start" x="397.5" y="-841" font-family="Helvetica,sans-Serif" font-size="10.00">TOnePrefDir::GetFixedPref</text>
<text text-anchor="middle" x="455.5" y="-830" font-family="Helvetica,sans-Serif" font-size="10.00">DirElementAt</text>
</a>
</g>
</g>
<!-- Node1&#45;&gt;Node4 -->
<g id="edge33" class="edge">
<title>Node1&#45;&gt;Node4</title>
<path fill="none" stroke="midnightblue" d="M96.93,-537.19C115.83,-566.92 160.71,-633.99 209,-681 276.97,-747.17 299.71,-758.81 382,-806 389.8,-810.48 398.35,-814.75 406.75,-818.64"/>
<polygon fill="midnightblue" stroke="midnightblue" points="405.58,-821.95 416.13,-822.85 408.44,-815.56 405.58,-821.95"/>
</g>
<!-- Node5 -->
<g id="node5" class="node">
<title>Node5</title>
<g id="a_node5"><a xlink:href="class_t_utilities.html#a34bd6bb5305bc29afdf424f6d35a921c" target="_top" xlink:title="creates a string of the form &#39;hh:mm:ss&#39; for use in call &amp; event logging">
<polygon fill="white" stroke="black" points="951,-316.5 951,-335.5 1061,-335.5 1061,-316.5 951,-316.5"/>
<text text-anchor="middle" x="1006" y="-323.5" font-family="Helvetica,sans-Serif" font-size="10.00">TUtilities::TimeStamp</text>
</a>
</g>
</g>
<!-- Node1&#45;&gt;Node5 -->
<g id="edge50" class="edge">
<title>Node1&#45;&gt;Node5</title>
<path fill="none" stroke="midnightblue" d="M91.06,-506.77C111.02,-425.63 216.69,-48 454.5,-48 454.5,-48 454.5,-48 646,-48 766.07,-48 820.21,0.7 915,-73 990.13,-131.41 1002.67,-257.54 1004.67,-306.25"/>
<polygon fill="midnightblue" stroke="midnightblue" points="1001.17,-306.5 1004.97,-316.39 1008.17,-306.29 1001.17,-306.5"/>
</g>
<!-- Node6 -->
<g id="node6" class="node">
<title>Node6</title>
<g id="a_node6"><a xlink:href="class_t_all_routes.html#a7d9f820738af6314f2b9a4a1f52bb64a" target="_top" xlink:title="Returns a constant reference to the route at AllRoutesVector position &#39;At&#39;, after performing range ch...">
<polygon fill="white" stroke="black" points="572.5,-872.5 572.5,-891.5 717.5,-891.5 717.5,-872.5 572.5,-872.5"/>
<text text-anchor="middle" x="645" y="-879.5" font-family="Helvetica,sans-Serif" font-size="10.00">TAllRoutes::GetFixedRouteAt</text>
</a>
</g>
</g>
<!-- Node1&#45;&gt;Node6 -->
<g id="edge34" class="edge">
<title>Node1&#45;&gt;Node6</title>
<path fill="none" stroke="midnightblue" d="M92.79,-537.13C106.81,-575.59 148.08,-678.82 209,-746 271.35,-814.76 294.29,-832.61 382,-863 439.87,-883.05 509.13,-887.29 561.9,-886.8"/>
<polygon fill="midnightblue" stroke="midnightblue" points="562.28,-890.29 572.22,-886.64 562.17,-883.29 562.28,-890.29"/>
</g>
<!-- Node7 -->
<g id="node7" class="node">
<title>Node7</title>
<g id="a_node7"><a xlink:href="class_t_all_routes.html#a7eda7a4b535c7538e217bbbc4d878071" target="_top" xlink:title="Retrieve up to two TRouteElementPair entries from Route2MultiMap at H &amp; V, the first as a function re...">
<polygon fill="white" stroke="black" points="382,-551 382,-581 529,-581 529,-551 382,-551"/>
<text text-anchor="start" x="390" y="-569" font-family="Helvetica,sans-Serif" font-size="10.00">TAllRoutes::GetRouteElement</text>
<text text-anchor="middle" x="455.5" y="-558" font-family="Helvetica,sans-Serif" font-size="10.00">DataFromRoute2MultiMap</text>
</a>
</g>
</g>
<!-- Node1&#45;&gt;Node7 -->
<g id="edge36" class="edge">
<title>Node1&#45;&gt;Node7</title>
<path fill="none" stroke="midnightblue" d="M173.08,-532.26C232.95,-539.44 312.48,-548.97 371.72,-556.08"/>
<polygon fill="midnightblue" stroke="midnightblue" points="371.45,-559.57 381.79,-557.28 372.28,-552.62 371.45,-559.57"/>
</g>
<!-- Node11 -->
<g id="node11" class="node">
<title>Node11</title>
<g id="a_node11"><a xlink:href="class_t_track.html#ad377e5a1f152f2e89832c0f9bcfd261f" target="_top" xlink:title="A range&#45;checked version of TrackVector.at(At)">
<polygon fill="white" stroke="black" points="777,-594.5 777,-613.5 899,-613.5 899,-594.5 777,-594.5"/>
<text text-anchor="middle" x="838" y="-601.5" font-family="Helvetica,sans-Serif" font-size="10.00">TTrack::TrackElementAt</text>
</a>
</g>
</g>
<!-- Node1&#45;&gt;Node11 -->
<g id="edge51" class="edge">
<title>Node1&#45;&gt;Node11</title>
<path fill="none" stroke="midnightblue" d="M173.29,-521.67C262.5,-522.27 406.02,-525.87 529,-541 622.46,-552.5 729.83,-577.11 789.92,-591.94"/>
<polygon fill="midnightblue" stroke="midnightblue" points="789.31,-595.39 799.86,-594.41 791,-588.6 789.31,-595.39"/>
</g>
<!-- Node14 -->
<g id="node14" class="node">
<title>Node14</title>
<g id="a_node14"><a xlink:href="class_i_d_int.html#a3c40e609e12caab2063aa7f3ff8b8ea7" target="_top" xlink:title="get the internal integer">
<polygon fill="white" stroke="black" points="243.5,-436.5 243.5,-455.5 311.5,-455.5 311.5,-436.5 243.5,-436.5"/>
<text text-anchor="middle" x="277.5" y="-443.5" font-family="Helvetica,sans-Serif" font-size="10.00">IDInt::GetInt</text>
</a>
</g>
</g>
<!-- Node1&#45;&gt;Node14 -->
<g id="edge35" class="edge">
<title>Node1&#45;&gt;Node14</title>
<path fill="none" stroke="midnightblue" d="M121.05,-506.97C145.31,-496.26 178.98,-481.75 209,-470 218.64,-466.23 229.15,-462.37 238.94,-458.88"/>
<polygon fill="midnightblue" stroke="midnightblue" points="240.17,-462.16 248.44,-455.53 237.84,-455.56 240.17,-462.16"/>
</g>
<!-- Node15 -->
<g id="node15" class="node">
<title>Node15</title>
<g id="a_node15"><a xlink:href="class_t_all_routes.html#a1913c6b3db0107874816d94a4d77e7a8" target="_top" xlink:title="Returns a route&#39;s position in AllRoutesVector from its ID, throws an error if a matching route isn&#39;t ...">
<polygon fill="white" stroke="black" points="768,-267 768,-297 908,-297 908,-267 768,-267"/>
<text text-anchor="start" x="776" y="-285" font-family="Helvetica,sans-Serif" font-size="10.00">TAllRoutes::GetRouteVector</text>
<text text-anchor="middle" x="838" y="-274" font-family="Helvetica,sans-Serif" font-size="10.00">Number</text>
</a>
</g>
</g>
<!-- Node1&#45;&gt;Node15 -->
<g id="edge37" class="edge">
<title>Node1&#45;&gt;Node15</title>
<path fill="none" stroke="midnightblue" d="M102.12,-506.99C123.58,-485.86 165.74,-447.64 209,-427 393.66,-338.88 634.93,-302.66 757.73,-289.16"/>
<polygon fill="midnightblue" stroke="midnightblue" points="758.23,-292.63 767.8,-288.08 757.48,-285.67 758.23,-292.63"/>
</g>
<!-- Node16 -->
<g id="node16" class="node">
<title>Node16</title>
<g id="a_node16"><a xlink:href="class_t_track.html#a96468affb70f97173d882afefbec9fb2" target="_top" xlink:title="True if barrier is in process of opening or closing at H &amp; V.">
<polygon fill="white" stroke="black" points="565,-404.5 565,-423.5 725,-423.5 725,-404.5 565,-404.5"/>
<text text-anchor="middle" x="645" y="-411.5" font-family="Helvetica,sans-Serif" font-size="10.00">TTrack::IsLCBarrierFlashingAtHV</text>
</a>
</g>
</g>
<!-- Node1&#45;&gt;Node16 -->
<g id="edge40" class="edge">
<title>Node1&#45;&gt;Node16</title>
<path fill="none" stroke="midnightblue" d="M164.88,-506.98C277.34,-485.16 483.55,-445.14 584.77,-425.49"/>
<polygon fill="midnightblue" stroke="midnightblue" points="585.67,-428.89 594.82,-423.54 584.34,-422.01 585.67,-428.89"/>
</g>
<!-- Node19 -->
<g id="node19" class="node">
<title>Node19</title>
<g id="a_node19"><a xlink:href="class_t_track_element.html#a100bff829c4dca820927affde4cb9e57" target="_top" xlink:title="Used to log track parameters for call stack logging.">
<polygon fill="white" stroke="black" points="213.5,-0.5 213.5,-19.5 341.5,-19.5 341.5,-0.5 213.5,-0.5"/>
<text text-anchor="middle" x="277.5" y="-7.5" font-family="Helvetica,sans-Serif" font-size="10.00">TTrackElement::LogTrack</text>
</a>
</g>
</g>
<!-- Node1&#45;&gt;Node19 -->
<g id="edge49" class="edge">
<title>Node1&#45;&gt;Node19</title>
<path fill="none" stroke="midnightblue" d="M89.32,-506.97C98.58,-432.89 142.58,-107.24 209,-34 212.51,-30.13 216.69,-26.88 221.23,-24.15"/>
<polygon fill="midnightblue" stroke="midnightblue" points="222.97,-27.19 230.3,-19.53 219.8,-20.95 222.97,-27.19"/>
</g>
<!-- Node3&#45;&gt;Node2 -->
<g id="edge3" class="edge">
<title>Node3&#45;&gt;Node2</title>
<path fill="none" stroke="midnightblue" d="M329.2,-671.1C334.9,-673 340.6,-674.98 346,-677 588.47,-767.54 697.25,-940.92 915,-801 977.59,-760.78 997.19,-665.05 1002.87,-623.64"/>
<polygon fill="midnightblue" stroke="midnightblue" points="1006.34,-624.06 1004.1,-613.71 999.4,-623.2 1006.34,-624.06"/>
</g>
<!-- Node3&#45;&gt;Node4 -->
<g id="edge4" class="edge">
<title>Node3&#45;&gt;Node4</title>
<path fill="none" stroke="midnightblue" d="M288.43,-671.08C313.1,-708.47 375.65,-802.84 382,-808 386.67,-811.8 391.89,-815.18 397.33,-818.17"/>
<polygon fill="midnightblue" stroke="midnightblue" points="396.13,-821.49 406.64,-822.86 399.28,-815.23 396.13,-821.49"/>
</g>
<!-- Node3&#45;&gt;Node5 -->
<g id="edge13" class="edge">
<title>Node3&#45;&gt;Node5</title>
<path fill="none" stroke="midnightblue" d="M346.12,-642.64C416.15,-628.16 517.06,-605.21 529,-591 592.42,-515.57 492.54,-215.8 565,-149 575.77,-139.07 898.62,-139.92 915,-150 971.68,-184.88 994.14,-267.92 1001.69,-306.13"/>
<polygon fill="midnightblue" stroke="midnightblue" points="998.34,-307.24 1003.58,-316.45 1005.22,-305.98 998.34,-307.24"/>
</g>
<!-- Node3&#45;&gt;Node6 -->
<g id="edge7" class="edge">
<title>Node3&#45;&gt;Node6</title>
<path fill="none" stroke="midnightblue" d="M288.31,-671.36C304.74,-695.84 340.16,-743.64 382,-770 439.7,-806.35 472.25,-776.17 529,-814 550.02,-828.01 544,-843.94 565,-858 571.69,-862.48 579.25,-866.15 586.97,-869.15"/>
<polygon fill="midnightblue" stroke="midnightblue" points="585.83,-872.46 596.42,-872.48 588.15,-865.85 585.83,-872.46"/>
</g>
<!-- Node3&#45;&gt;Node7 -->
<g id="edge10" class="edge">
<title>Node3&#45;&gt;Node7</title>
<path fill="none" stroke="midnightblue" d="M302.67,-640.76C323.33,-628.03 354.07,-609.8 382,-596 389.64,-592.23 397.87,-588.51 405.95,-585.04"/>
<polygon fill="midnightblue" stroke="midnightblue" points="407.46,-588.2 415.32,-581.1 404.75,-581.75 407.46,-588.2"/>
</g>
<!-- Node8 -->
<g id="node8" class="node">
<title>Node8</title>
<g id="a_node8"><a xlink:href="class_t_track.html#a12d4069a6a201e13a83347c555a465b2" target="_top" xlink:title="New at v1.2.0; checks whether a train present at input location and link and returns its ID if so.">
<polygon fill="white" stroke="black" points="403.5,-646.5 403.5,-665.5 507.5,-665.5 507.5,-646.5 403.5,-646.5"/>
<text text-anchor="middle" x="455.5" y="-653.5" font-family="Helvetica,sans-Serif" font-size="10.00">TTrack::TrainOnLink</text>
</a>
</g>
</g>
<!-- Node3&#45;&gt;Node8 -->
<g id="edge14" class="edge">
<title>Node3&#45;&gt;Node8</title>
<path fill="none" stroke="midnightblue" d="M346.04,-656C361.48,-656 377.81,-656 392.98,-656"/>
<polygon fill="midnightblue" stroke="midnightblue" points="393.27,-659.5 403.27,-656 393.27,-652.5 393.27,-659.5"/>
</g>
<!-- Node4&#45;&gt;Node2 -->
<g id="edge5" class="edge">
<title>Node4&#45;&gt;Node2</title>
<path fill="none" stroke="midnightblue" d="M475.48,-853.25C496.1,-868.75 530.72,-891.77 565,-901 640.13,-921.23 853.42,-939.56 915,-892 1001.13,-825.48 1006.74,-677.25 1005.79,-623.74"/>
<polygon fill="midnightblue" stroke="midnightblue" points="1009.29,-623.46 1005.51,-613.56 1002.29,-623.66 1009.29,-623.46"/>
</g>
<!-- Node4&#45;&gt;Node5 -->
<g id="edge6" class="edge">
<title>Node4&#45;&gt;Node5</title>
<path fill="none" stroke="midnightblue" d="M465.06,-822.83C480.54,-794.66 513.04,-731.96 529,-675 562.85,-554.18 504.24,-504.78 565,-395 619.59,-296.37 654.87,-272 761,-234 825.44,-210.93 851.91,-207.46 915,-234 950.5,-248.93 979,-285.47 993.83,-307.74"/>
<polygon fill="midnightblue" stroke="midnightblue" points="990.98,-309.79 999.33,-316.31 996.87,-306.01 990.98,-309.79"/>
</g>
<!-- Node6&#45;&gt;Node2 -->
<g id="edge8" class="edge">
<title>Node6&#45;&gt;Node2</title>
<path fill="none" stroke="midnightblue" d="M691.27,-891.58C749.43,-901.12 850.53,-908 915,-858 990.47,-799.47 1002.81,-672.78 1004.71,-623.85"/>
<polygon fill="midnightblue" stroke="midnightblue" points="1008.21,-623.74 1004.99,-613.65 1001.21,-623.55 1008.21,-623.74"/>
</g>
<!-- Node6&#45;&gt;Node5 -->
<g id="edge9" class="edge">
<title>Node6&#45;&gt;Node5</title>
<path fill="none" stroke="midnightblue" d="M649.25,-872.36C659.98,-842.03 697.28,-747.72 761,-700 817.98,-657.33 864.97,-706.64 915,-656 959.79,-610.67 992.73,-409.42 1002.22,-345.53"/>
<polygon fill="midnightblue" stroke="midnightblue" points="1005.69,-345.97 1003.67,-335.57 998.76,-344.96 1005.69,-345.97"/>
</g>
<!-- Node7&#45;&gt;Node2 -->
<g id="edge11" class="edge">
<title>Node7&#45;&gt;Node2</title>
<path fill="none" stroke="midnightblue" d="M529.07,-565.29C619.73,-565.25 779.43,-568 915,-585 928.64,-586.71 943.28,-589.42 956.7,-592.26"/>
<polygon fill="midnightblue" stroke="midnightblue" points="956.18,-595.73 966.7,-594.44 957.68,-588.89 956.18,-595.73"/>
</g>
<!-- Node7&#45;&gt;Node5 -->
<g id="edge12" class="edge">
<title>Node7&#45;&gt;Node5</title>
<path fill="none" stroke="midnightblue" d="M457.69,-550.55C463.66,-477.37 493,-166.88 565,-110 626.03,-61.79 850.28,-66.86 915,-110 982.79,-155.19 999.6,-262.13 1003.7,-306.34"/>
<polygon fill="midnightblue" stroke="midnightblue" points="1000.22,-306.7 1004.51,-316.38 1007.2,-306.13 1000.22,-306.7"/>
</g>
<!-- Node8&#45;&gt;Node2 -->
<g id="edge15" class="edge">
<title>Node8&#45;&gt;Node2</title>
<path fill="none" stroke="midnightblue" d="M469.18,-665.75C525.56,-707.82 757.59,-867.51 915,-773 970.01,-739.97 993.23,-660.66 1001.33,-623.65"/>
<polygon fill="midnightblue" stroke="midnightblue" points="1004.81,-624.12 1003.37,-613.62 997.95,-622.72 1004.81,-624.12"/>
</g>
<!-- Node8&#45;&gt;Node5 -->
<g id="edge25" class="edge">
<title>Node8&#45;&gt;Node5</title>
<path fill="none" stroke="midnightblue" d="M497.84,-646.43C509.73,-641.65 521.5,-634.54 529,-624 585.63,-544.43 493.17,-252.17 565,-186 622.21,-133.3 846.73,-148.73 915,-186 962.39,-211.87 988.55,-274.58 999.22,-306.55"/>
<polygon fill="midnightblue" stroke="midnightblue" points="995.9,-307.64 1002.26,-316.12 1002.57,-305.53 995.9,-307.64"/>
</g>
<!-- Node9 -->
<g id="node9" class="node">
<title>Node9</title>
<g id="a_node9"><a xlink:href="class_t_track.html#aa0812972d1ae27198c5fbca8aa7b6134" target="_top" xlink:title="Returns the track vector position corresponding to the Hloc &amp; VLoc positions, FoundFlag indicates whe...">
<polygon fill="white" stroke="black" points="772.5,-709 772.5,-739 903.5,-739 903.5,-709 772.5,-709"/>
<text text-anchor="start" x="780.5" y="-727" font-family="Helvetica,sans-Serif" font-size="10.00">TTrack::GetVectorPosition</text>
<text text-anchor="middle" x="838" y="-716" font-family="Helvetica,sans-Serif" font-size="10.00">FromTrackMap</text>
</a>
</g>
</g>
<!-- Node8&#45;&gt;Node9 -->
<g id="edge16" class="edge">
<title>Node8&#45;&gt;Node9</title>
<path fill="none" stroke="midnightblue" d="M481.55,-665.6C503.31,-673.56 535.81,-684.58 565,-691 630.93,-705.49 707.36,-714.06 762.37,-718.82"/>
<polygon fill="midnightblue" stroke="midnightblue" points="762.13,-722.31 772.39,-719.66 762.72,-715.33 762.13,-722.31"/>
</g>
<!-- Node10 -->
<g id="node10" class="node">
<title>Node10</title>
<g id="a_node10"><a xlink:href="class_t_train.html#aef32cd9a007874ab09ceeac907e7c88b" target="_top" xlink:title="Added at v1.2.0: true if any part of train on specific link, false otherwise, including no link prese...">
<polygon fill="white" stroke="black" points="591,-662.5 591,-681.5 699,-681.5 699,-662.5 591,-662.5"/>
<text text-anchor="middle" x="645" y="-669.5" font-family="Helvetica,sans-Serif" font-size="10.00">TTrain::LinkOccupied</text>
</a>
</g>
</g>
<!-- Node8&#45;&gt;Node10 -->
<g id="edge19" class="edge">
<title>Node8&#45;&gt;Node10</title>
<path fill="none" stroke="midnightblue" d="M507.74,-660.37C530.32,-662.3 557.07,-664.58 580.87,-666.61"/>
<polygon fill="midnightblue" stroke="midnightblue" points="580.6,-670.1 590.87,-667.47 581.2,-663.13 580.6,-670.1"/>
</g>
<!-- Node8&#45;&gt;Node11 -->
<g id="edge26" class="edge">
<title>Node8&#45;&gt;Node11</title>
<path fill="none" stroke="midnightblue" d="M507.82,-648.99C574.56,-639.87 691.46,-623.89 766.5,-613.64"/>
<polygon fill="midnightblue" stroke="midnightblue" points="767.36,-617.05 776.8,-612.23 766.41,-610.11 767.36,-617.05"/>
</g>
<!-- Node12 -->
<g id="node12" class="node">
<title>Node12</title>
<g id="a_node12"><a xlink:href="class_t_train_controller.html#a4d5de42d6e9e92191241963599581210" target="_top" xlink:title="Return a reference to the train with ID TrainID, carries out validity checking on TrainID.">
<polygon fill="white" stroke="black" points="575,-483 575,-513 715,-513 715,-483 575,-483"/>
<text text-anchor="start" x="583" y="-501" font-family="Helvetica,sans-Serif" font-size="10.00">TTrainController::TrainVector</text>
<text text-anchor="middle" x="645" y="-490" font-family="Helvetica,sans-Serif" font-size="10.00">AtIdent</text>
</a>
</g>
</g>
<!-- Node8&#45;&gt;Node12 -->
<g id="edge27" class="edge">
<title>Node8&#45;&gt;Node12</title>
<path fill="none" stroke="midnightblue" d="M485.5,-646.39C499.38,-641.02 515.82,-633.48 529,-624 569.79,-594.67 607.02,-548.88 627.5,-521.33"/>
<polygon fill="midnightblue" stroke="midnightblue" points="630.46,-523.21 633.54,-513.07 624.81,-519.07 630.46,-523.21"/>
</g>
<!-- Node9&#45;&gt;Node2 -->
<g id="edge17" class="edge">
<title>Node9&#45;&gt;Node2</title>
<path fill="none" stroke="midnightblue" d="M885.91,-708.97C895.9,-704.83 906.1,-699.84 915,-694 945.9,-673.73 974.84,-641.53 991.19,-621.64"/>
<polygon fill="midnightblue" stroke="midnightblue" points="994.04,-623.68 997.59,-613.7 988.59,-619.29 994.04,-623.68"/>
</g>
<!-- Node9&#45;&gt;Node5 -->
<g id="edge18" class="edge">
<title>Node9&#45;&gt;Node5</title>
<path fill="none" stroke="midnightblue" d="M895.74,-708.84C902.97,-704.96 909.68,-700.09 915,-694 938.6,-666.95 987.4,-418.39 1001.26,-345.81"/>
<polygon fill="midnightblue" stroke="midnightblue" points="1004.74,-346.21 1003.17,-335.73 997.87,-344.91 1004.74,-346.21"/>
</g>
<!-- Node10&#45;&gt;Node2 -->
<g id="edge20" class="edge">
<title>Node10&#45;&gt;Node2</title>
<path fill="none" stroke="midnightblue" d="M655.69,-681.52C674.24,-698.98 716.86,-735.59 761,-749 826.49,-768.9 855.19,-782.27 915,-749 963.62,-721.95 989.34,-656.57 999.59,-623.64"/>
<polygon fill="midnightblue" stroke="midnightblue" points="1003.01,-624.41 1002.49,-613.82 996.3,-622.43 1003.01,-624.41"/>
</g>
<!-- Node10&#45;&gt;Node5 -->
<g id="edge21" class="edge">
<title>Node10&#45;&gt;Node5</title>
<path fill="none" stroke="midnightblue" d="M699.26,-668.78C768.37,-663.54 883.83,-650.81 915,-623 998.53,-548.49 1005.76,-399.31 1005.52,-345.73"/>
<polygon fill="midnightblue" stroke="midnightblue" points="1009.01,-345.49 1005.37,-335.55 1002.01,-345.6 1009.01,-345.49"/>
</g>
<!-- Node10&#45;&gt;Node11 -->
<g id="edge22" class="edge">
<title>Node10&#45;&gt;Node11</title>
<path fill="none" stroke="midnightblue" d="M683.15,-662.47C696.56,-658.58 711.67,-653.65 725,-648 741.85,-640.86 744.19,-635.24 761,-628 770.82,-623.77 781.64,-619.91 791.96,-616.58"/>
<polygon fill="midnightblue" stroke="midnightblue" points="793.15,-619.87 801.65,-613.55 791.07,-613.19 793.15,-619.87"/>
</g>
<!-- Node11&#45;&gt;Node2 -->
<g id="edge23" class="edge">
<title>Node11&#45;&gt;Node2</title>
<path fill="none" stroke="midnightblue" d="M899.4,-604C912.84,-604 927.15,-604 940.74,-604"/>
<polygon fill="midnightblue" stroke="midnightblue" points="940.97,-607.5 950.97,-604 940.97,-600.5 940.97,-607.5"/>
</g>
<!-- Node11&#45;&gt;Node5 -->
<g id="edge24" class="edge">
<title>Node11&#45;&gt;Node5</title>
<path fill="none" stroke="midnightblue" d="M847.97,-594.28C863.03,-577.66 893.82,-542.34 915,-509 950.97,-452.37 983,-379.31 997.22,-345.17"/>
<polygon fill="midnightblue" stroke="midnightblue" points="1000.62,-346.1 1001.19,-335.52 994.14,-343.44 1000.62,-346.1"/>
</g>
<!-- Node12&#45;&gt;Node2 -->
<g id="edge28" class="edge">
<title>Node12&#45;&gt;Node2</title>
<path fill="none" stroke="midnightblue" d="M715.15,-505.58C770.52,-513.13 849.49,-527.27 915,-552 939.73,-561.34 965.62,-577.01 983.25,-588.72"/>
<polygon fill="midnightblue" stroke="midnightblue" points="981.43,-591.71 991.67,-594.42 985.35,-585.91 981.43,-591.71"/>
</g>
<!-- Node12&#45;&gt;Node5 -->
<g id="edge29" class="edge">
<title>Node12&#45;&gt;Node5</title>
<path fill="none" stroke="midnightblue" d="M670.14,-482.89C687.36,-471.08 710.03,-453.3 725,-433 750.08,-398.99 726.86,-369.9 761,-345 815.51,-305.25 896.25,-307.5 949.73,-314.94"/>
<polygon fill="midnightblue" stroke="midnightblue" points="949.31,-318.41 959.71,-316.43 950.34,-311.49 949.31,-318.41"/>
</g>
<!-- Node13 -->
<g id="node13" class="node">
<title>Node13</title>
<g id="a_node13"><a xlink:href="class_t_train_controller.html#aa09adf9c442406cccc270d6703867a1d" target="_top" xlink:title="Return a reference to the train at position VecPos in the TrainVector, carries out range checking on ...">
<polygon fill="white" stroke="black" points="763.5,-480.5 763.5,-499.5 912.5,-499.5 912.5,-480.5 763.5,-480.5"/>
<text text-anchor="middle" x="838" y="-487.5" font-family="Helvetica,sans-Serif" font-size="10.00">TTrainController::TrainVectorAt</text>
</a>
</g>
</g>
<!-- Node12&#45;&gt;Node13 -->
<g id="edge30" class="edge">
<title>Node12&#45;&gt;Node13</title>
<path fill="none" stroke="midnightblue" d="M715.23,-495.1C727.52,-494.59 740.45,-494.04 753.11,-493.51"/>
<polygon fill="midnightblue" stroke="midnightblue" points="753.33,-497.01 763.18,-493.09 753.04,-490.01 753.33,-497.01"/>
</g>
<!-- Node13&#45;&gt;Node2 -->
<g id="edge31" class="edge">
<title>Node13&#45;&gt;Node2</title>
<path fill="none" stroke="midnightblue" d="M881.58,-499.52C892.91,-503.09 904.83,-507.82 915,-514 946.76,-533.28 975.62,-566.05 991.69,-586.28"/>
<polygon fill="midnightblue" stroke="midnightblue" points="989.06,-588.6 997.95,-594.35 994.59,-584.31 989.06,-588.6"/>
</g>
<!-- Node13&#45;&gt;Node5 -->
<g id="edge32" class="edge">
<title>Node13&#45;&gt;Node5</title>
<path fill="none" stroke="midnightblue" d="M853.78,-480.41C869.68,-469.75 895.35,-451.59 915,-433 945.23,-404.42 975.32,-366.15 991.91,-343.97"/>
<polygon fill="midnightblue" stroke="midnightblue" points="994.83,-345.91 997.96,-335.79 989.2,-341.75 994.83,-345.91"/>
</g>
<!-- Node15&#45;&gt;Node2 -->
<g id="edge38" class="edge">
<title>Node15&#45;&gt;Node2</title>
<path fill="none" stroke="midnightblue" d="M863.6,-297.18C880.18,-308.54 901.42,-325.43 915,-345 969.53,-423.6 993.91,-538.41 1001.87,-584.14"/>
<polygon fill="midnightblue" stroke="midnightblue" points="998.45,-584.92 1003.55,-594.21 1005.36,-583.77 998.45,-584.92"/>
</g>
<!-- Node15&#45;&gt;Node5 -->
<g id="edge39" class="edge">
<title>Node15&#45;&gt;Node5</title>
<path fill="none" stroke="midnightblue" d="M895.66,-297.02C916.3,-302.49 939.36,-308.6 958.96,-313.8"/>
<polygon fill="midnightblue" stroke="midnightblue" points="958.3,-317.24 968.86,-316.42 960.09,-310.48 958.3,-317.24"/>
</g>
<!-- Node16&#45;&gt;Node2 -->
<g id="edge41" class="edge">
<title>Node16&#45;&gt;Node2</title>
<path fill="none" stroke="midnightblue" d="M701.72,-423.51C775.25,-436.41 897.45,-459.19 915,-471 957.44,-499.56 985.27,-555.49 997.64,-584.9"/>
<polygon fill="midnightblue" stroke="midnightblue" points="994.5,-586.47 1001.49,-594.43 1000.99,-583.85 994.5,-586.47"/>
</g>
<!-- Node16&#45;&gt;Node5 -->
<g id="edge48" class="edge">
<title>Node16&#45;&gt;Node5</title>
<path fill="none" stroke="midnightblue" d="M649.52,-404.14C660.52,-374.99 697.42,-289.24 761,-257 822.04,-226.05 850.18,-235.01 915,-257 945.12,-267.22 973.07,-292.02 989.59,-308.93"/>
<polygon fill="midnightblue" stroke="midnightblue" points="987.33,-311.63 996.74,-316.5 992.42,-306.83 987.33,-311.63"/>
</g>
<!-- Node17 -->
<g id="node17" class="node">
<title>Node17</title>
<g id="a_node17"><a xlink:href="class_t_track.html#a418966e6fefb71b9d0c9b941197832da" target="_top" xlink:title="Similar to GetVectorPositionFromTrackMap but for inactive elements, a pair is returned because there ...">
<polygon fill="white" stroke="black" points="769.5,-355 769.5,-385 906.5,-385 906.5,-355 769.5,-355"/>
<text text-anchor="start" x="777.5" y="-373" font-family="Helvetica,sans-Serif" font-size="10.00">TTrack::GetVectorPositions</text>
<text text-anchor="middle" x="838" y="-362" font-family="Helvetica,sans-Serif" font-size="10.00">FromInactiveTrackMap</text>
</a>
</g>
</g>
<!-- Node16&#45;&gt;Node17 -->
<g id="edge42" class="edge">
<title>Node16&#45;&gt;Node17</title>
<path fill="none" stroke="midnightblue" d="M687.44,-404.45C709.14,-399.45 736.39,-393.18 761.66,-387.36"/>
<polygon fill="midnightblue" stroke="midnightblue" points="762.64,-390.72 771.6,-385.07 761.07,-383.9 762.64,-390.72"/>
</g>
<!-- Node18 -->
<g id="node18" class="node">
<title>Node18</title>
<g id="a_node18"><a xlink:href="class_t_track.html#a51f89cf70e94b037f6378cd78003d82b" target="_top" xlink:title="A range&#45;checked version of InactiveTrackVector.at(At)">
<polygon fill="white" stroke="black" points="761,-404.5 761,-423.5 915,-423.5 915,-404.5 761,-404.5"/>
<text text-anchor="middle" x="838" y="-411.5" font-family="Helvetica,sans-Serif" font-size="10.00">TTrack::InactiveTrackElementAt</text>
</a>
</g>
</g>
<!-- Node16&#45;&gt;Node18 -->
<g id="edge45" class="edge">
<title>Node16&#45;&gt;Node18</title>
<path fill="none" stroke="midnightblue" d="M725.07,-414C733.46,-414 742.02,-414 750.49,-414"/>
<polygon fill="midnightblue" stroke="midnightblue" points="750.76,-417.5 760.76,-414 750.76,-410.5 750.76,-417.5"/>
</g>
<!-- Node17&#45;&gt;Node2 -->
<g id="edge43" class="edge">
<title>Node17&#45;&gt;Node2</title>
<path fill="none" stroke="midnightblue" d="M900.89,-385.15C905.99,-387.9 910.8,-391.16 915,-395 972.4,-447.52 994.75,-542.93 1002.01,-584.15"/>
<polygon fill="midnightblue" stroke="midnightblue" points="998.56,-584.75 1003.64,-594.05 1005.46,-583.61 998.56,-584.75"/>
</g>
<!-- Node17&#45;&gt;Node5 -->
<g id="edge44" class="edge">
<title>Node17&#45;&gt;Node5</title>
<path fill="none" stroke="midnightblue" d="M895.66,-354.98C916.3,-349.51 939.36,-343.4 958.96,-338.2"/>
<polygon fill="midnightblue" stroke="midnightblue" points="960.09,-341.52 968.86,-335.58 958.3,-334.76 960.09,-341.52"/>
</g>
<!-- Node18&#45;&gt;Node2 -->
<g id="edge46" class="edge">
<title>Node18&#45;&gt;Node2</title>
<path fill="none" stroke="midnightblue" d="M888.44,-423.55C897.94,-426.99 907.32,-431.66 915,-438 963.14,-477.73 989.46,-550.18 999.78,-584.71"/>
<polygon fill="midnightblue" stroke="midnightblue" points="996.47,-585.84 1002.58,-594.5 1003.2,-583.92 996.47,-585.84"/>
</g>
<!-- Node18&#45;&gt;Node5 -->
<g id="edge47" class="edge">
<title>Node18&#45;&gt;Node5</title>
<path fill="none" stroke="midnightblue" d="M887.05,-404.39C896.56,-401.66 906.29,-398.23 915,-394 942.7,-380.54 970.33,-357.96 987.53,-342.54"/>
<polygon fill="midnightblue" stroke="midnightblue" points="990.07,-344.95 995.08,-335.61 985.34,-339.79 990.07,-344.95"/>
</g>
</g>
</svg>
        <g id="navigator" transform="translate(0 0)" fill="#404254">
                <rect fill="#f2f5e9" fill-opacity="0.5" stroke="#606060" stroke-width=".5" x="0" y="0" width="60" height="60"/>
                <use id="zoomplus" xlink:href="#zoomPlus" x="17" y="9" onmousedown="handleZoom(evt,'in')"/>
                <use id="zoomminus" xlink:href="#zoomMin" x="42" y="9" onmousedown="handleZoom(evt,'out')"/>
                <use id="reset" xlink:href="#resetDef" x="30" y="36" onmousedown="handleReset()"/>
                <g id="arrowUp" xlink:href="#dirArrow" transform="translate(30 24)" onmousedown="handlePan(0,-1)">
                  <use xlink:href="#rim" fill="#404040">
                        <set attributeName="fill" to="#808080" begin="arrowUp.mouseover" end="arrowUp.mouseout"/>
                  </use>
                  <path fill="none" stroke="white" stroke-width="1.5" d="M0,-3.0v7 M-2.5,-0.5L0,-3.0L2.5,-0.5"/>
                </g>
                <g id="arrowRight" xlink:href="#dirArrow" transform="rotate(90) translate(36 -43)" onmousedown="handlePan(1,0)">
                  <use xlink:href="#rim" fill="#404040">
                        <set attributeName="fill" to="#808080" begin="arrowRight.mouseover" end="arrowRight.mouseout"/>
                  </use>
                  <path fill="none" stroke="white" stroke-width="1.5" d="M0,-3.0v7 M-2.5,-0.5L0,-3.0L2.5,-0.5"/>
                </g>
                <g id="arrowDown" xlink:href="#dirArrow" transform="rotate(180) translate(-30 -48)" onmousedown="handlePan(0,1)">
                  <use xlink:href="#rim" fill="#404040">
                        <set attributeName="fill" to="#808080" begin="arrowDown.mouseover" end="arrowDown.mouseout"/>
                  </use>
                  <path fill="none" stroke="white" stroke-width="1.5" d="M0,-3.0v7 M-2.5,-0.5L0,-3.0L2.5,-0.5"/>
                </g>
                <g id="arrowLeft" xlink:href="#dirArrow" transform="rotate(270) translate(-36 17)" onmousedown="handlePan(-1,0)">
                  <use xlink:href="#rim" fill="#404040">
                        <set attributeName="fill" to="#808080" begin="arrowLeft.mouseover" end="arrowLeft.mouseout"/>
                  </use>
                  <path fill="none" stroke="white" stroke-width="1.5" d="M0,-3.0v7 M-2.5,-0.5L0,-3.0L2.5,-0.5"/>
                </g>
        </g>
        <svg viewBox="0 0 15 15" width="100%" height="30px" preserveAspectRatio="xMaxYMin meet">
         <g id="arrow_out" transform="scale(0.3 0.3)">
          <a xlink:href="class_t_one_route_a59270c9b68d679ea29086216c21decfb_cgraph_org.svg" target="_base">
           <rect id="button" ry="5" rx="5" y="6" x="6" height="38" width="38"
                fill="#f2f5e9" fill-opacity="0.5" stroke="#606060" stroke-width="1.0"/>
           <path id="arrow"
             d="M 11.500037,31.436501 C 11.940474,20.09759 22.043105,11.32322 32.158766,21.979434 L 37.068811,17.246167 C 37.068811,17.246167 37.088388,32 37.088388,32 L 22.160133,31.978069 C 22.160133,31.978069 26.997745,27.140456 26.997745,27.140456 C 18.528582,18.264221 13.291696,25.230495 11.500037,31.436501 z"
             style="fill:#404040;"/>
          </a>
         </g>
        </svg>
</svg>
