<?xml version="1.0" encoding="UTF-8" standalone="no"?>
<!DOCTYPE svg PUBLIC "-//W3C//DTD SVG 1.1//EN"
 "http://www.w3.org/Graphics/SVG/1.1/DTD/svg11.dtd">
<!-- Generated by graphviz version 2.44.1 (20200629.0800)
 -->
<!-- Title: TInterface::NoRailway Pages: 1 -->
<svg width="446pt" height="78pt"
 viewBox="0.00 0.00 446.00 77.50" xmlns="http://www.w3.org/2000/svg" xmlns:xlink="http://www.w3.org/1999/xlink">
<g id="graph0" class="graph" transform="scale(1 1) rotate(0) translate(4 73.5)">
<title>TInterface::NoRailway</title>
<polygon fill="white" stroke="transparent" points="-4,4 -4,-73.5 442,-73.5 442,4 -4,4"/>
<!-- Node1 -->
<g id="node1" class="node">
<title>Node1</title>
<g id="a_node1"><a xlink:title="Returns true if there are no track elements and no text.">
<polygon fill="#bfbfbf" stroke="black" points="0,-22.5 0,-41.5 110,-41.5 110,-22.5 0,-22.5"/>
<text text-anchor="middle" x="55" y="-29.5" font-family="Helvetica,sans-Serif" font-size="10.00">TInterface::NoRailway</text>
</a>
</g>
</g>
<!-- Node2 -->
<g id="node2" class="node">
<title>Node2</title>
<g id="a_node2"><a xlink:href="class_t_track.html#ab20c55ecbc1801614695279daa8da0ba" target="_top" xlink:title="True if there is no active or inactive track in the railway.">
<polygon fill="white" stroke="black" points="152.5,-39 152.5,-69 285.5,-69 285.5,-39 152.5,-39"/>
<text text-anchor="start" x="160.5" y="-57" font-family="Helvetica,sans-Serif" font-size="10.00">TTrack::NoActiveOrInactive</text>
<text text-anchor="middle" x="219" y="-46" font-family="Helvetica,sans-Serif" font-size="10.00">Track</text>
</a>
</g>
</g>
<!-- Node1&#45;&gt;Node2 -->
<g id="edge1" class="edge">
<title>Node1&#45;&gt;Node2</title>
<path fill="none" stroke="midnightblue" d="M110.39,-39.39C120.56,-40.77 131.36,-42.23 142.05,-43.69"/>
<polygon fill="midnightblue" stroke="midnightblue" points="141.85,-47.19 152.23,-45.07 142.79,-40.25 141.85,-47.19"/>
</g>
<!-- Node5 -->
<g id="node5" class="node">
<title>Node5</title>
<g id="a_node5"><a xlink:href="class_t_text_handler.html#a7dfd4e30235878fb01e7387715e0cb0f" target="_top" xlink:title="return the number of items in TextVector">
<polygon fill="white" stroke="black" points="146,-0.5 146,-19.5 292,-19.5 292,-0.5 146,-0.5"/>
<text text-anchor="middle" x="219" y="-7.5" font-family="Helvetica,sans-Serif" font-size="10.00">TTextHandler::TextVectorSize</text>
</a>
</g>
</g>
<!-- Node1&#45;&gt;Node5 -->
<g id="edge4" class="edge">
<title>Node1&#45;&gt;Node5</title>
<path fill="none" stroke="midnightblue" d="M110.39,-24.61C119.24,-23.41 128.56,-22.15 137.86,-20.88"/>
<polygon fill="midnightblue" stroke="midnightblue" points="138.49,-24.33 147.93,-19.52 137.55,-17.39 138.49,-24.33"/>
</g>
<!-- Node3 -->
<g id="node3" class="node">
<title>Node3</title>
<g id="a_node3"><a xlink:href="class_t_utilities.html#ae1eddca13cc3c492839e131f40ec21c0" target="_top" xlink:title="pops the last entry off the call stack, throws an error if called when empty">
<polygon fill="white" stroke="black" points="328,-42.5 328,-61.5 438,-61.5 438,-42.5 328,-42.5"/>
<text text-anchor="middle" x="383" y="-49.5" font-family="Helvetica,sans-Serif" font-size="10.00">TUtilities::CallLogPop</text>
</a>
</g>
</g>
<!-- Node2&#45;&gt;Node3 -->
<g id="edge2" class="edge">
<title>Node2&#45;&gt;Node3</title>
<path fill="none" stroke="midnightblue" d="M285.89,-53.19C296.34,-53.06 307.13,-52.92 317.54,-52.8"/>
<polygon fill="midnightblue" stroke="midnightblue" points="317.85,-56.29 327.8,-52.67 317.76,-49.29 317.85,-56.29"/>
</g>
<!-- Node4 -->
<g id="node4" class="node">
<title>Node4</title>
<g id="a_node4"><a xlink:href="class_t_utilities.html#a34bd6bb5305bc29afdf424f6d35a921c" target="_top" xlink:title="creates a string of the form &#39;hh:mm:ss&#39; for use in call &amp; event logging">
<polygon fill="white" stroke="black" points="328,-3.5 328,-22.5 438,-22.5 438,-3.5 328,-3.5"/>
<text text-anchor="middle" x="383" y="-10.5" font-family="Helvetica,sans-Serif" font-size="10.00">TUtilities::TimeStamp</text>
</a>
</g>
</g>
<!-- Node2&#45;&gt;Node4 -->
<g id="edge3" class="edge">
<title>Node2&#45;&gt;Node4</title>
<path fill="none" stroke="midnightblue" d="M279.4,-38.97C297.52,-34.38 317.19,-29.4 334.42,-25.04"/>
<polygon fill="midnightblue" stroke="midnightblue" points="335.41,-28.4 344.25,-22.55 333.7,-21.62 335.41,-28.4"/>
</g>
<!-- Node5&#45;&gt;Node3 -->
<g id="edge5" class="edge">
<title>Node5&#45;&gt;Node3</title>
<path fill="none" stroke="midnightblue" d="M256.76,-19.53C279.98,-25.55 310.2,-33.38 335.13,-39.85"/>
<polygon fill="midnightblue" stroke="midnightblue" points="334.55,-43.31 345.11,-42.43 336.3,-36.54 334.55,-43.31"/>
</g>
<!-- Node5&#45;&gt;Node4 -->
<g id="edge6" class="edge">
<title>Node5&#45;&gt;Node4</title>
<path fill="none" stroke="midnightblue" d="M292.47,-11.34C300.76,-11.5 309.18,-11.65 317.36,-11.8"/>
<polygon fill="midnightblue" stroke="midnightblue" points="317.51,-15.31 327.57,-11.99 317.64,-8.31 317.51,-15.31"/>
</g>
</g>
</svg>
