<?xml version="1.0" encoding="UTF-8" standalone="no"?>
<!DOCTYPE svg PUBLIC "-//W3C//DTD SVG 1.1//EN"
 "http://www.w3.org/Graphics/SVG/1.1/DTD/svg11.dtd">
<!-- Generated by graphviz version 2.44.1 (20200629.0800)
 -->
<!-- Title: TTrack::RebuildTrackAndText Pages: 1 -->
<!--zoomable 1075 -->
<svg id="main" version="1.1" xmlns="http://www.w3.org/2000/svg" xmlns:xlink="http://www.w3.org/1999/xlink" xml:space="preserve" onload="init(evt)">
<style type="text/css"><![CDATA[
.edge:hover path { stroke: red; }
.edge:hover polygon { stroke: red; fill: red; }
]]></style>
<script type="text/javascript"><![CDATA[
var edges = document.getElementsByTagName('g');
if (edges && edges.length) {
  for (var i=0;i<edges.length;i++) {
    if (edges[i].id.substr(0,4)=='edge') {
      edges[i].setAttribute('class','edge');
    }
  }
}
]]></script>
        <defs>
                <circle id="rim" cx="0" cy="0" r="7"/>
                <circle id="rim2" cx="0" cy="0" r="3.5"/>
                <g id="zoomPlus">
                        <use xlink:href="#rim" fill="#404040">
                                <set attributeName="fill" to="#808080" begin="zoomplus.mouseover" end="zoomplus.mouseout"/>
                        </use>
                        <path d="M-4,0h8M0,-4v8" fill="none" stroke="white" stroke-width="1.5" pointer-events="none"/>
                </g>
                <g id="zoomMin">
                        <use xlink:href="#rim" fill="#404040">
                                <set attributeName="fill" to="#808080" begin="zoomminus.mouseover" end="zoomminus.mouseout"/>
                        </use>
                        <path d="M-4,0h8" fill="none" stroke="white" stroke-width="1.5" pointer-events="none"/>
                </g>
                <g id="dirArrow">
                        <path fill="none" stroke="white" stroke-width="1.5" d="M0,-3.0v7 M-2.5,-0.5L0,-3.0L2.5,-0.5"/>
                </g>
               <g id="resetDef">
                       <use xlink:href="#rim2" fill="#404040">
                               <set attributeName="fill" to="#808080" begin="reset.mouseover" end="reset.mouseout"/>
                       </use>
               </g>
        </defs>

<script type="text/javascript">
var viewWidth = 813;
var viewHeight = 1075;
var sectionId = 'dynsection-197';
</script>
<script xlink:href="svgpan.js"/>
<svg id="graph" class="graph">
<g id="viewport">
<title>TTrack::RebuildTrackAndText</title>
<polygon fill="white" stroke="transparent" points="-4,4 -4,-1070.63 809,-1070.63 809,4 -4,4"/>
<!-- Node1 -->
<g id="node1" class="node">
<title>Node1</title>
<g id="a_node1"><a xlink:title="Called by TInterface::ClearandRebuildRailway to replot all the active and inactive track elements and...">
<polygon fill="#bfbfbf" stroke="black" points="0,-423.7 0,-442.7 144,-442.7 144,-423.7 0,-423.7"/>
<text text-anchor="middle" x="72" y="-430.7" font-family="Helvetica,sans-Serif" font-size="10.00">TTrack::RebuildTrackAndText</text>
</a>
</g>
</g>
<!-- Node2 -->
<g id="node2" class="node">
<title>Node2</title>
<g id="a_node2"><a xlink:href="class_t_utilities.html#ae1eddca13cc3c492839e131f40ec21c0" target="_top" xlink:title="pops the last entry off the call stack, throws an error if called when empty">
<polygon fill="white" stroke="black" points="695,-614.7 695,-633.7 805,-633.7 805,-614.7 695,-614.7"/>
<text text-anchor="middle" x="750" y="-621.7" font-family="Helvetica,sans-Serif" font-size="10.00">TUtilities::CallLogPop</text>
</a>
</g>
</g>
<!-- Node1&#45;&gt;Node2 -->
<g id="edge1" class="edge">
<title>Node1&#45;&gt;Node2</title>
<path fill="none" stroke="midnightblue" d="M73.04,-442.88C73.67,-493.05 81.97,-726.86 180,-879.2 220.27,-941.77 244.26,-951.38 312,-982.2 453.13,-1046.39 537.77,-1114.86 659,-1018.2 718.89,-970.45 742.09,-717.59 747.62,-644.19"/>
<polygon fill="midnightblue" stroke="midnightblue" points="751.12,-644.23 748.36,-634.01 744.14,-643.73 751.12,-644.23"/>
</g>
<!-- Node3 -->
<g id="node3" class="node">
<title>Node3</title>
<g id="a_node3"><a xlink:href="class_t_track.html#aeb60286bc570dbafab64fe6dc06af2e4" target="_top" xlink:title="Return a reference to the element at HLoc &amp; VLoc, if no element is found an error is thrown.">
<polygon fill="white" stroke="black" points="312,-292.2 312,-322.2 462,-322.2 462,-292.2 312,-292.2"/>
<text text-anchor="start" x="320" y="-310.2" font-family="Helvetica,sans-Serif" font-size="10.00">TTrack::GetTrackElementFrom</text>
<text text-anchor="middle" x="387" y="-299.2" font-family="Helvetica,sans-Serif" font-size="10.00">TrackMap</text>
</a>
</g>
</g>
<!-- Node1&#45;&gt;Node3 -->
<g id="edge2" class="edge">
<title>Node1&#45;&gt;Node3</title>
<path fill="none" stroke="midnightblue" d="M80.34,-423.57C96.11,-403.65 135.47,-358.04 180,-337.2 217.56,-319.61 262.83,-311.76 301.36,-308.45"/>
<polygon fill="midnightblue" stroke="midnightblue" points="301.82,-311.93 311.52,-307.67 301.28,-304.95 301.82,-311.93"/>
</g>
<!-- Node4 -->
<g id="node4" class="node">
<title>Node4</title>
<g id="a_node4"><a xlink:href="class_t_utilities.html#a34bd6bb5305bc29afdf424f6d35a921c" target="_top" xlink:title="creates a string of the form &#39;hh:mm:ss&#39; for use in call &amp; event logging">
<polygon fill="white" stroke="black" points="695,-368.7 695,-387.7 805,-387.7 805,-368.7 695,-368.7"/>
<text text-anchor="middle" x="750" y="-375.7" font-family="Helvetica,sans-Serif" font-size="10.00">TUtilities::TimeStamp</text>
</a>
</g>
</g>
<!-- Node1&#45;&gt;Node4 -->
<g id="edge67" class="edge">
<title>Node1&#45;&gt;Node4</title>
<path fill="none" stroke="midnightblue" d="M75.02,-423.58C83.06,-386.99 115.54,-253.98 180,-165.2 271.15,-39.64 343.48,-35.2 498,-21.2 569.26,-14.74 602.56,22.79 659,-21.2 713.57,-63.72 740.21,-289.6 747.13,-358.34"/>
<polygon fill="midnightblue" stroke="midnightblue" points="743.68,-359.01 748.13,-368.62 750.64,-358.33 743.68,-359.01"/>
</g>
<!-- Node6 -->
<g id="node6" class="node">
<title>Node6</title>
<g id="a_node6"><a xlink:href="class_t_track.html#aa638a7e118fb22e648d89adbe814a4a1" target="_top" xlink:title="Plots a gap on screen &#45; may be set or unset.">
<polygon fill="white" stroke="black" points="343.5,-892.7 343.5,-911.7 430.5,-911.7 430.5,-892.7 343.5,-892.7"/>
<text text-anchor="middle" x="387" y="-899.7" font-family="Helvetica,sans-Serif" font-size="10.00">TTrack::PlotGap</text>
</a>
</g>
</g>
<!-- Node1&#45;&gt;Node6 -->
<g id="edge8" class="edge">
<title>Node1&#45;&gt;Node6</title>
<path fill="none" stroke="midnightblue" d="M74.23,-442.7C81.6,-498.17 121.52,-779.61 180,-840.2 220.03,-881.66 286.66,-895.67 333.27,-900.25"/>
<polygon fill="midnightblue" stroke="midnightblue" points="333.22,-903.76 343.49,-901.13 333.83,-896.78 333.22,-903.76"/>
</g>
<!-- Node8 -->
<g id="node8" class="node">
<title>Node8</title>
<g id="a_node8"><a xlink:href="class_t_display.html#a9ab49e52c7eb92b32ae2c34547183439" target="_top" xlink:title="Plot the graphic at screen position HPos &amp; VPos.">
<polygon fill="white" stroke="black" points="525,-854.7 525,-873.7 632,-873.7 632,-854.7 525,-854.7"/>
<text text-anchor="middle" x="578.5" y="-861.7" font-family="Helvetica,sans-Serif" font-size="10.00">TDisplay::PlotOutput</text>
</a>
</g>
</g>
<!-- Node1&#45;&gt;Node8 -->
<g id="edge15" class="edge">
<title>Node1&#45;&gt;Node8</title>
<path fill="none" stroke="midnightblue" d="M72.96,-442.88C73.3,-487.39 80.79,-674.08 180,-769.2 271.17,-856.61 427.75,-868.39 514.69,-867.46"/>
<polygon fill="midnightblue" stroke="midnightblue" points="515,-870.95 524.94,-867.28 514.88,-863.95 515,-870.95"/>
</g>
<!-- Node9 -->
<g id="node9" class="node">
<title>Node9</title>
<g id="a_node9"><a xlink:href="class_t_track.html#af56adb319c7003b8ddac8e55afaee3d2" target="_top" xlink:title="Plot points on screen according to how they are set (Attribute value), or, with both fillets if BothF...">
<polygon fill="white" stroke="black" points="338.5,-696.7 338.5,-715.7 435.5,-715.7 435.5,-696.7 338.5,-696.7"/>
<text text-anchor="middle" x="387" y="-703.7" font-family="Helvetica,sans-Serif" font-size="10.00">TTrack::PlotPoints</text>
</a>
</g>
</g>
<!-- Node1&#45;&gt;Node9 -->
<g id="edge16" class="edge">
<title>Node1&#45;&gt;Node9</title>
<path fill="none" stroke="midnightblue" d="M84.14,-442.91C130.54,-483.38 308.73,-638.8 367.26,-689.85"/>
<polygon fill="midnightblue" stroke="midnightblue" points="365.16,-692.66 374.99,-696.6 369.76,-687.38 365.16,-692.66"/>
</g>
<!-- Node13 -->
<g id="node13" class="node">
<title>Node13</title>
<g id="a_node13"><a xlink:href="class_t_track_element.html#a453377f8db5e108cb274464333e1100f" target="_top" xlink:title="Plot the element on the display &#39;variable&#39; indicates that the element may be named and if so may be p...">
<polygon fill="white" stroke="black" points="508.5,-451.2 508.5,-481.2 648.5,-481.2 648.5,-451.2 508.5,-451.2"/>
<text text-anchor="start" x="516.5" y="-469.2" font-family="Helvetica,sans-Serif" font-size="10.00">TTrackElement::PlotVariable</text>
<text text-anchor="middle" x="578.5" y="-458.2" font-family="Helvetica,sans-Serif" font-size="10.00">TrackElement</text>
</a>
</g>
</g>
<!-- Node1&#45;&gt;Node13 -->
<g id="edge47" class="edge">
<title>Node1&#45;&gt;Node13</title>
<path fill="none" stroke="midnightblue" d="M144.21,-437.85C237.6,-443.96 400.96,-454.65 498.2,-461.01"/>
<polygon fill="midnightblue" stroke="midnightblue" points="498.06,-464.51 508.27,-461.67 498.52,-457.52 498.06,-464.51"/>
</g>
<!-- Node14 -->
<g id="node14" class="node">
<title>Node14</title>
<g id="a_node14"><a xlink:href="class_t_track.html#aa5742fbc2eb3f8743dde84005499f89e" target="_top" xlink:title="Plot signals on screen according to their aspect (Attribute value)">
<polygon fill="white" stroke="black" points="180,-740.7 180,-759.7 276,-759.7 276,-740.7 180,-740.7"/>
<text text-anchor="middle" x="228" y="-747.7" font-family="Helvetica,sans-Serif" font-size="10.00">TTrack::PlotSignal</text>
</a>
</g>
</g>
<!-- Node1&#45;&gt;Node14 -->
<g id="edge33" class="edge">
<title>Node1&#45;&gt;Node14</title>
<path fill="none" stroke="midnightblue" d="M77.78,-443.03C99.47,-487.68 188.88,-671.73 217.88,-731.42"/>
<polygon fill="midnightblue" stroke="midnightblue" points="214.76,-733.01 222.28,-740.48 221.06,-729.95 214.76,-733.01"/>
</g>
<!-- Node17 -->
<g id="node17" class="node">
<title>Node17</title>
<g id="a_node17"><a xlink:href="class_t_text_handler.html#a30f32d9d3267bc8c90298e0ecd3c26fd" target="_top" xlink:title="display all text items in TextVector on the screen">
<polygon fill="white" stroke="black" points="320,-167.2 320,-197.2 454,-197.2 454,-167.2 320,-167.2"/>
<text text-anchor="start" x="328" y="-185.2" font-family="Helvetica,sans-Serif" font-size="10.00">TTextHandler::RebuildFrom</text>
<text text-anchor="middle" x="387" y="-174.2" font-family="Helvetica,sans-Serif" font-size="10.00">TextVector</text>
</a>
</g>
</g>
<!-- Node1&#45;&gt;Node17 -->
<g id="edge48" class="edge">
<title>Node1&#45;&gt;Node17</title>
<path fill="none" stroke="midnightblue" d="M79.64,-423.52C95.26,-401.26 136.3,-345.44 180,-308.2 232.46,-263.48 302.52,-224.22 345.93,-201.86"/>
<polygon fill="midnightblue" stroke="midnightblue" points="347.71,-204.88 355.03,-197.21 344.53,-198.64 347.71,-204.88"/>
</g>
<!-- Node21 -->
<g id="node21" class="node">
<title>Node21</title>
<g id="a_node21"><a xlink:href="class_t_display.html#aa4f37ab2a4df6437a2219f303e1de40b" target="_top" xlink:title="Repaint the screen display.">
<polygon fill="white" stroke="black" points="533,-58.7 533,-77.7 624,-77.7 624,-58.7 533,-58.7"/>
<text text-anchor="middle" x="578.5" y="-65.7" font-family="Helvetica,sans-Serif" font-size="10.00">TDisplay::Update</text>
</a>
</g>
</g>
<!-- Node1&#45;&gt;Node21 -->
<g id="edge68" class="edge">
<title>Node1&#45;&gt;Node21</title>
<path fill="none" stroke="midnightblue" d="M76.45,-423.28C87.43,-392.83 124.17,-299.19 180,-240.2 274.86,-139.96 438.02,-95.04 522.79,-77.64"/>
<polygon fill="midnightblue" stroke="midnightblue" points="523.61,-81.05 532.73,-75.66 522.24,-74.18 523.61,-81.05"/>
</g>
<!-- Node22 -->
<g id="node22" class="node">
<title>Node22</title>
<g id="a_node22"><a xlink:href="class_t_track.html#a58a2afacadd0f564b474ac0faabc88d4" target="_top" xlink:title="Return a reference to the inactive track element pointed to by NextTrackElementPtr (during zoomed&#45;in ...">
<polygon fill="white" stroke="black" points="512,-363.2 512,-393.2 645,-393.2 645,-363.2 512,-363.2"/>
<text text-anchor="start" x="520" y="-381.2" font-family="Helvetica,sans-Serif" font-size="10.00">TTrack::ReturnNextInactive</text>
<text text-anchor="middle" x="578.5" y="-370.2" font-family="Helvetica,sans-Serif" font-size="10.00">TrackElement</text>
</a>
</g>
</g>
<!-- Node1&#45;&gt;Node22 -->
<g id="edge61" class="edge">
<title>Node1&#45;&gt;Node22</title>
<path fill="none" stroke="midnightblue" d="M144.21,-425.43C238.78,-415.12 405.1,-396.99 501.86,-386.44"/>
<polygon fill="midnightblue" stroke="midnightblue" points="502.3,-389.91 511.86,-385.35 501.54,-382.96 502.3,-389.91"/>
</g>
<!-- Node23 -->
<g id="node23" class="node">
<title>Node23</title>
<g id="a_node23"><a xlink:href="class_t_track.html#a90e1db27659603b72a703c017ee576c8" target="_top" xlink:title="Return a reference to the active track element pointed to by NextTrackElementPtr (during zoomed&#45;in or...">
<polygon fill="white" stroke="black" points="498,-324.7 498,-343.7 659,-343.7 659,-324.7 498,-324.7"/>
<text text-anchor="middle" x="578.5" y="-331.7" font-family="Helvetica,sans-Serif" font-size="10.00">TTrack::ReturnNextTrackElement</text>
</a>
</g>
</g>
<!-- Node1&#45;&gt;Node23 -->
<g id="edge64" class="edge">
<title>Node1&#45;&gt;Node23</title>
<path fill="none" stroke="midnightblue" d="M110.02,-423.65C130.57,-418.49 156.63,-412.18 180,-407.2 295.26,-382.63 430.38,-358.87 509.69,-345.44"/>
<polygon fill="midnightblue" stroke="midnightblue" points="510.75,-348.81 520.03,-343.7 509.59,-341.91 510.75,-348.81"/>
</g>
<!-- Node3&#45;&gt;Node2 -->
<g id="edge3" class="edge">
<title>Node3&#45;&gt;Node2</title>
<path fill="none" stroke="midnightblue" d="M388.44,-322.21C390.77,-371.52 405.46,-529.34 498,-600.2 552.31,-641.79 633.85,-641.54 689.13,-635.04"/>
<polygon fill="midnightblue" stroke="midnightblue" points="689.66,-638.5 699.14,-633.76 688.77,-631.56 689.66,-638.5"/>
</g>
<!-- Node3&#45;&gt;Node4 -->
<g id="edge4" class="edge">
<title>Node3&#45;&gt;Node4</title>
<path fill="none" stroke="midnightblue" d="M405.56,-291.97C426.11,-275.26 461.93,-249.44 498,-239.2 566.83,-219.64 596.14,-205.01 659,-239.2 705.99,-264.75 732.22,-326.58 743.04,-358.46"/>
<polygon fill="midnightblue" stroke="midnightblue" points="739.84,-359.94 746.23,-368.38 746.5,-357.79 739.84,-359.94"/>
</g>
<!-- Node5 -->
<g id="node5" class="node">
<title>Node5</title>
<g id="a_node5"><a xlink:href="class_t_track.html#ad377e5a1f152f2e89832c0f9bcfd261f" target="_top" xlink:title="A range&#45;checked version of TrackElement.at(At)">
<polygon fill="white" stroke="black" points="517.5,-286.7 517.5,-305.7 639.5,-305.7 639.5,-286.7 517.5,-286.7"/>
<text text-anchor="middle" x="578.5" y="-293.7" font-family="Helvetica,sans-Serif" font-size="10.00">TTrack::TrackElementAt</text>
</a>
</g>
</g>
<!-- Node3&#45;&gt;Node5 -->
<g id="edge5" class="edge">
<title>Node3&#45;&gt;Node5</title>
<path fill="none" stroke="midnightblue" d="M462.08,-302.89C476.92,-302.03 492.48,-301.13 507.19,-300.28"/>
<polygon fill="midnightblue" stroke="midnightblue" points="507.44,-303.77 517.22,-299.69 507.04,-296.78 507.44,-303.77"/>
</g>
<!-- Node5&#45;&gt;Node2 -->
<g id="edge6" class="edge">
<title>Node5&#45;&gt;Node2</title>
<path fill="none" stroke="midnightblue" d="M639.52,-303.14C646.71,-306.01 653.45,-309.91 659,-315.2 680.75,-335.91 729.47,-539.89 744.5,-604.6"/>
<polygon fill="midnightblue" stroke="midnightblue" points="741.1,-605.42 746.76,-614.37 747.92,-603.84 741.1,-605.42"/>
</g>
<!-- Node5&#45;&gt;Node4 -->
<g id="edge7" class="edge">
<title>Node5&#45;&gt;Node4</title>
<path fill="none" stroke="midnightblue" d="M631.76,-305.71C641.04,-308.23 650.46,-311.35 659,-315.2 685.91,-327.3 713.16,-347.78 730.51,-362.09"/>
<polygon fill="midnightblue" stroke="midnightblue" points="728.29,-364.79 738.19,-368.56 732.8,-359.44 728.29,-364.79"/>
</g>
<!-- Node6&#45;&gt;Node2 -->
<g id="edge9" class="edge">
<title>Node6&#45;&gt;Node2</title>
<path fill="none" stroke="midnightblue" d="M402.11,-911.74C445.41,-939.73 578.29,-1015.84 659,-954.2 709.75,-915.43 738.75,-708.86 746.73,-643.82"/>
<polygon fill="midnightblue" stroke="midnightblue" points="750.23,-644.04 747.94,-633.7 743.27,-643.21 750.23,-644.04"/>
</g>
<!-- Node6&#45;&gt;Node4 -->
<g id="edge14" class="edge">
<title>Node6&#45;&gt;Node4</title>
<path fill="none" stroke="midnightblue" d="M407.39,-911.82C456.48,-934.66 586.87,-985.58 659,-921.2 711.73,-874.13 682.8,-674.81 695,-605.2 708.59,-527.68 732.65,-437.08 743.47,-397.9"/>
<polygon fill="midnightblue" stroke="midnightblue" points="746.89,-398.64 746.2,-388.06 740.15,-396.76 746.89,-398.64"/>
</g>
<!-- Node7 -->
<g id="node7" class="node">
<title>Node7</title>
<g id="a_node7"><a xlink:href="class_t_track_element.html#a100bff829c4dca820927affde4cb9e57" target="_top" xlink:title="Used to log track parameters for call stack logging.">
<polygon fill="white" stroke="black" points="514.5,-892.7 514.5,-911.7 642.5,-911.7 642.5,-892.7 514.5,-892.7"/>
<text text-anchor="middle" x="578.5" y="-899.7" font-family="Helvetica,sans-Serif" font-size="10.00">TTrackElement::LogTrack</text>
</a>
</g>
</g>
<!-- Node6&#45;&gt;Node7 -->
<g id="edge10" class="edge">
<title>Node6&#45;&gt;Node7</title>
<path fill="none" stroke="midnightblue" d="M430.53,-902.2C452.2,-902.2 479.18,-902.2 504.08,-902.2"/>
<polygon fill="midnightblue" stroke="midnightblue" points="504.24,-905.7 514.24,-902.2 504.24,-898.7 504.24,-905.7"/>
</g>
<!-- Node6&#45;&gt;Node8 -->
<g id="edge11" class="edge">
<title>Node6&#45;&gt;Node8</title>
<path fill="none" stroke="midnightblue" d="M430.53,-893.67C456.98,-888.36 491.33,-881.47 520.17,-875.69"/>
<polygon fill="midnightblue" stroke="midnightblue" points="521,-879.09 530.12,-873.7 519.63,-872.23 521,-879.09"/>
</g>
<!-- Node8&#45;&gt;Node2 -->
<g id="edge12" class="edge">
<title>Node8&#45;&gt;Node2</title>
<path fill="none" stroke="midnightblue" d="M632.15,-855.46C641.91,-851.96 651.4,-847.06 659,-840.2 718.65,-786.32 739.86,-686.69 746.41,-644.22"/>
<polygon fill="midnightblue" stroke="midnightblue" points="749.91,-644.45 747.86,-634.06 742.98,-643.46 749.91,-644.45"/>
</g>
<!-- Node8&#45;&gt;Node4 -->
<g id="edge13" class="edge">
<title>Node8&#45;&gt;Node4</title>
<path fill="none" stroke="midnightblue" d="M590.41,-854.57C607.76,-838.62 641.46,-804.91 659,-769.2 691.89,-702.21 678.36,-677.94 695,-605.2 712.63,-528.11 734.77,-436.61 744.29,-397.49"/>
<polygon fill="midnightblue" stroke="midnightblue" points="747.71,-398.24 746.68,-387.7 740.91,-396.58 747.71,-398.24"/>
</g>
<!-- Node9&#45;&gt;Node2 -->
<g id="edge17" class="edge">
<title>Node9&#45;&gt;Node2</title>
<path fill="none" stroke="midnightblue" d="M428.02,-715.8C439.52,-719.58 451.72,-724.62 462,-731.2 481.6,-743.73 476.63,-760 498,-769.2 563.73,-797.47 596.47,-803.98 659,-769.2 707.62,-742.15 733.34,-676.77 743.59,-643.84"/>
<polygon fill="midnightblue" stroke="midnightblue" points="747.01,-644.6 746.49,-634.02 740.3,-642.62 747.01,-644.6"/>
</g>
<!-- Node9&#45;&gt;Node4 -->
<g id="edge32" class="edge">
<title>Node9&#45;&gt;Node4</title>
<path fill="none" stroke="midnightblue" d="M388.96,-696.47C393.3,-657.77 414.75,-513.3 498,-442.2 553.99,-394.38 587.74,-421.72 659,-403.2 674.3,-399.22 691,-394.64 705.82,-390.5"/>
<polygon fill="midnightblue" stroke="midnightblue" points="707.05,-393.79 715.73,-387.72 705.16,-387.05 707.05,-393.79"/>
</g>
<!-- Node9&#45;&gt;Node7 -->
<g id="edge24" class="edge">
<title>Node9&#45;&gt;Node7</title>
<path fill="none" stroke="midnightblue" d="M435.63,-714.45C445.47,-718.14 454.97,-723.48 462,-731.2 508.75,-782.52 448.96,-834.05 498,-883.2 500.36,-885.56 502.95,-887.64 505.72,-889.49"/>
<polygon fill="midnightblue" stroke="midnightblue" points="504.03,-892.55 514.48,-894.32 507.41,-886.43 504.03,-892.55"/>
</g>
<!-- Node9&#45;&gt;Node8 -->
<g id="edge25" class="edge">
<title>Node9&#45;&gt;Node8</title>
<path fill="none" stroke="midnightblue" d="M434.37,-715.75C444.27,-719.37 454.11,-724.36 462,-731.2 488.75,-754.36 475.51,-774.88 498,-802.2 513.4,-820.89 535.38,-837.49 552.32,-848.8"/>
<polygon fill="midnightblue" stroke="midnightblue" points="550.85,-852.01 561.15,-854.51 554.66,-846.14 550.85,-852.01"/>
</g>
<!-- Node10 -->
<g id="node10" class="node">
<title>Node10</title>
<g id="a_node10"><a xlink:href="class_t_track.html#a418966e6fefb71b9d0c9b941197832da" target="_top" xlink:title="Similar to GetVectorPositionFromTrackMap but for inactive elements, a pair is returned because there ...">
<polygon fill="white" stroke="black" points="510,-691.2 510,-721.2 647,-721.2 647,-691.2 510,-691.2"/>
<text text-anchor="start" x="518" y="-709.2" font-family="Helvetica,sans-Serif" font-size="10.00">TTrack::GetVectorPositions</text>
<text text-anchor="middle" x="578.5" y="-698.2" font-family="Helvetica,sans-Serif" font-size="10.00">FromInactiveTrackMap</text>
</a>
</g>
</g>
<!-- Node9&#45;&gt;Node10 -->
<g id="edge18" class="edge">
<title>Node9&#45;&gt;Node10</title>
<path fill="none" stroke="midnightblue" d="M435.82,-706.2C455.13,-706.2 477.92,-706.2 499.51,-706.2"/>
<polygon fill="midnightblue" stroke="midnightblue" points="499.65,-709.7 509.65,-706.2 499.65,-702.7 499.65,-709.7"/>
</g>
<!-- Node11 -->
<g id="node11" class="node">
<title>Node11</title>
<g id="a_node11"><a xlink:href="class_t_track.html#a51f89cf70e94b037f6378cd78003d82b" target="_top" xlink:title="A range&#45;checked version of InactiveTrackElement.at(At)">
<polygon fill="white" stroke="black" points="501.5,-740.7 501.5,-759.7 655.5,-759.7 655.5,-740.7 501.5,-740.7"/>
<text text-anchor="middle" x="578.5" y="-747.7" font-family="Helvetica,sans-Serif" font-size="10.00">TTrack::InactiveTrackElementAt</text>
</a>
</g>
</g>
<!-- Node9&#45;&gt;Node11 -->
<g id="edge21" class="edge">
<title>Node9&#45;&gt;Node11</title>
<path fill="none" stroke="midnightblue" d="M429.12,-715.74C457.68,-722.37 495.92,-731.25 526.44,-738.34"/>
<polygon fill="midnightblue" stroke="midnightblue" points="525.93,-741.81 536.46,-740.67 527.51,-735 525.93,-741.81"/>
</g>
<!-- Node12 -->
<g id="node12" class="node">
<title>Node12</title>
<g id="a_node12"><a xlink:href="class_t_display.html#aab35e517eba56f1c95f500958ce431ae" target="_top" xlink:title=" ">
<polygon fill="white" stroke="black" points="516,-652.7 516,-671.7 641,-671.7 641,-652.7 516,-652.7"/>
<text text-anchor="middle" x="578.5" y="-659.7" font-family="Helvetica,sans-Serif" font-size="10.00">TDisplay::PlotPointBlank</text>
</a>
</g>
</g>
<!-- Node9&#45;&gt;Node12 -->
<g id="edge26" class="edge">
<title>Node9&#45;&gt;Node12</title>
<path fill="none" stroke="midnightblue" d="M429.12,-696.65C457.68,-690.02 495.92,-681.14 526.44,-674.05"/>
<polygon fill="midnightblue" stroke="midnightblue" points="527.51,-677.39 536.46,-671.72 525.93,-670.58 527.51,-677.39"/>
</g>
<!-- Node9&#45;&gt;Node13 -->
<g id="edge29" class="edge">
<title>Node9&#45;&gt;Node13</title>
<path fill="none" stroke="midnightblue" d="M390.15,-696.37C398.07,-662.52 428.81,-549.63 498,-491.2 499.98,-489.52 502.08,-487.96 504.26,-486.5"/>
<polygon fill="midnightblue" stroke="midnightblue" points="506.17,-489.44 513.05,-481.38 502.65,-483.39 506.17,-489.44"/>
</g>
<!-- Node10&#45;&gt;Node2 -->
<g id="edge19" class="edge">
<title>Node10&#45;&gt;Node2</title>
<path fill="none" stroke="midnightblue" d="M634.1,-691.1C642.58,-688.17 651.13,-684.85 659,-681.2 683.86,-669.66 710.09,-652.38 727.78,-639.87"/>
<polygon fill="midnightblue" stroke="midnightblue" points="730.12,-642.5 736.2,-633.82 726.03,-636.82 730.12,-642.5"/>
</g>
<!-- Node10&#45;&gt;Node4 -->
<g id="edge20" class="edge">
<title>Node10&#45;&gt;Node4</title>
<path fill="none" stroke="midnightblue" d="M646.25,-690.99C650.91,-688.25 655.24,-685.01 659,-681.2 679.65,-660.21 728.93,-461.46 744.32,-397.75"/>
<polygon fill="midnightblue" stroke="midnightblue" points="747.78,-398.34 746.72,-387.8 740.97,-396.7 747.78,-398.34"/>
</g>
<!-- Node11&#45;&gt;Node2 -->
<g id="edge22" class="edge">
<title>Node11&#45;&gt;Node2</title>
<path fill="none" stroke="midnightblue" d="M638.53,-740.61C645.71,-738.16 652.72,-735.07 659,-731.2 695.13,-708.89 723.9,-667.12 738.5,-642.89"/>
<polygon fill="midnightblue" stroke="midnightblue" points="741.69,-644.37 743.71,-633.97 735.65,-640.84 741.69,-644.37"/>
</g>
<!-- Node11&#45;&gt;Node4 -->
<g id="edge23" class="edge">
<title>Node11&#45;&gt;Node4</title>
<path fill="none" stroke="midnightblue" d="M645.91,-740.56C650.71,-738.06 655.16,-734.98 659,-731.2 665.17,-725.11 726.78,-470.54 744.35,-397.56"/>
<polygon fill="midnightblue" stroke="midnightblue" points="747.76,-398.36 746.69,-387.81 740.95,-396.72 747.76,-398.36"/>
</g>
<!-- Node12&#45;&gt;Node2 -->
<g id="edge27" class="edge">
<title>Node12&#45;&gt;Node2</title>
<path fill="none" stroke="midnightblue" d="M622.27,-652.61C644.84,-647.55 672.72,-641.3 696.58,-635.95"/>
<polygon fill="midnightblue" stroke="midnightblue" points="697.54,-639.32 706.54,-633.72 696.01,-632.49 697.54,-639.32"/>
</g>
<!-- Node12&#45;&gt;Node4 -->
<g id="edge28" class="edge">
<title>Node12&#45;&gt;Node4</title>
<path fill="none" stroke="midnightblue" d="M588.39,-652.51C603.95,-635.25 636.62,-597.64 659,-562.2 694.98,-505.22 727.01,-431.78 741.22,-397.46"/>
<polygon fill="midnightblue" stroke="midnightblue" points="744.64,-398.35 745.19,-387.77 738.16,-395.69 744.64,-398.35"/>
</g>
<!-- Node13&#45;&gt;Node2 -->
<g id="edge30" class="edge">
<title>Node13&#45;&gt;Node2</title>
<path fill="none" stroke="midnightblue" d="M641.85,-481.22C647.94,-484.01 653.78,-487.31 659,-491.2 699.82,-521.61 728.19,-576.29 741.11,-605.15"/>
<polygon fill="midnightblue" stroke="midnightblue" points="737.98,-606.74 745.16,-614.53 744.41,-603.96 737.98,-606.74"/>
</g>
<!-- Node13&#45;&gt;Node4 -->
<g id="edge31" class="edge">
<title>Node13&#45;&gt;Node4</title>
<path fill="none" stroke="midnightblue" d="M624.37,-451.16C635.86,-446.79 648.06,-441.7 659,-436.2 683.6,-423.8 709.87,-406.33 727.64,-393.8"/>
<polygon fill="midnightblue" stroke="midnightblue" points="730,-396.42 736.1,-387.76 725.93,-390.72 730,-396.42"/>
</g>
<!-- Node14&#45;&gt;Node2 -->
<g id="edge34" class="edge">
<title>Node14&#45;&gt;Node2</title>
<path fill="none" stroke="midnightblue" d="M230.9,-759.98C237.06,-789.06 259.22,-875.78 312,-921.2 430.52,-1023.19 535.6,-1075.22 659,-979.2 713.31,-936.93 740.13,-712.3 747.11,-643.95"/>
<polygon fill="midnightblue" stroke="midnightblue" points="750.62,-644.01 748.13,-633.72 743.66,-643.32 750.62,-644.01"/>
</g>
<!-- Node14&#45;&gt;Node4 -->
<g id="edge46" class="edge">
<title>Node14&#45;&gt;Node4</title>
<path fill="none" stroke="midnightblue" d="M229.22,-740.49C230.93,-671.76 243.99,-258.35 312,-157.2 365.33,-77.87 405.7,-74.05 498,-49.2 567.09,-30.59 602.12,-5.78 659,-49.2 709.51,-87.75 738.59,-292.88 746.66,-358.2"/>
<polygon fill="midnightblue" stroke="midnightblue" points="743.22,-358.88 747.89,-368.39 750.17,-358.04 743.22,-358.88"/>
</g>
<!-- Node14&#45;&gt;Node7 -->
<g id="edge35" class="edge">
<title>Node14&#45;&gt;Node7</title>
<path fill="none" stroke="midnightblue" d="M241.75,-759.75C257.66,-771.4 285.93,-791.25 312,-805.2 391.04,-847.47 412.79,-855.35 498,-883.2 505.67,-885.7 513.86,-888.03 521.95,-890.14"/>
<polygon fill="midnightblue" stroke="midnightblue" points="521.19,-893.56 531.74,-892.6 522.89,-886.77 521.19,-893.56"/>
</g>
<!-- Node14&#45;&gt;Node8 -->
<g id="edge36" class="edge">
<title>Node14&#45;&gt;Node8</title>
<path fill="none" stroke="midnightblue" d="M268.32,-759.75C330.08,-774.89 444.61,-803.57 462,-812.2 480.16,-821.2 479.99,-830.89 498,-840.2 506.65,-844.67 516.27,-848.45 525.74,-851.6"/>
<polygon fill="midnightblue" stroke="midnightblue" points="524.93,-855.01 535.52,-854.65 527.02,-848.33 524.93,-855.01"/>
</g>
<!-- Node15 -->
<g id="node15" class="node">
<title>Node15</title>
<g id="a_node15"><a xlink:href="class_t_display.html#a6e970089a9419e6bdd12576b6e860c95" target="_top" xlink:title=" ">
<polygon fill="white" stroke="black" points="514,-500.7 514,-519.7 643,-519.7 643,-500.7 514,-500.7"/>
<text text-anchor="middle" x="578.5" y="-507.7" font-family="Helvetica,sans-Serif" font-size="10.00">TDisplay::PlotSignalBlank</text>
</a>
</g>
</g>
<!-- Node14&#45;&gt;Node15 -->
<g id="edge37" class="edge">
<title>Node14&#45;&gt;Node15</title>
<path fill="none" stroke="midnightblue" d="M238.27,-740.44C270.73,-706.81 383.54,-594.49 498,-534.2 506.52,-529.71 516.01,-525.93 525.38,-522.79"/>
<polygon fill="midnightblue" stroke="midnightblue" points="526.56,-526.09 535.05,-519.75 524.46,-519.41 526.56,-526.09"/>
</g>
<!-- Node16 -->
<g id="node16" class="node">
<title>Node16</title>
<g id="a_node16"><a xlink:href="class_t_track.html#a2830b22db25712a80fa55b1546b5df9b" target="_top" xlink:title="Plot platforms if any for a signal graphic &#45; plotted before signal so shows through transparent signa...">
<polygon fill="white" stroke="black" points="318.5,-740.7 318.5,-759.7 455.5,-759.7 455.5,-740.7 318.5,-740.7"/>
<text text-anchor="middle" x="387" y="-747.7" font-family="Helvetica,sans-Serif" font-size="10.00">TTrack::PlotSignalPlatforms</text>
</a>
</g>
</g>
<!-- Node14&#45;&gt;Node16 -->
<g id="edge40" class="edge">
<title>Node14&#45;&gt;Node16</title>
<path fill="none" stroke="midnightblue" d="M276.11,-750.2C286.27,-750.2 297.28,-750.2 308.26,-750.2"/>
<polygon fill="midnightblue" stroke="midnightblue" points="308.32,-753.7 318.32,-750.2 308.32,-746.7 308.32,-753.7"/>
</g>
<!-- Node15&#45;&gt;Node2 -->
<g id="edge38" class="edge">
<title>Node15&#45;&gt;Node2</title>
<path fill="none" stroke="midnightblue" d="M593.66,-519.72C623,-539.45 690.65,-584.95 726.21,-608.87"/>
<polygon fill="midnightblue" stroke="midnightblue" points="724.27,-611.78 734.52,-614.46 728.18,-605.97 724.27,-611.78"/>
</g>
<!-- Node15&#45;&gt;Node4 -->
<g id="edge39" class="edge">
<title>Node15&#45;&gt;Node4</title>
<path fill="none" stroke="midnightblue" d="M639.04,-500.63C646.06,-498.17 652.89,-495.08 659,-491.2 696.55,-467.31 725.29,-422.25 739.39,-396.84"/>
<polygon fill="midnightblue" stroke="midnightblue" points="742.56,-398.32 744.21,-387.86 736.4,-395.01 742.56,-398.32"/>
</g>
<!-- Node16&#45;&gt;Node2 -->
<g id="edge41" class="edge">
<title>Node16&#45;&gt;Node2</title>
<path fill="none" stroke="midnightblue" d="M441.84,-759.76C448.78,-761.8 455.66,-764.25 462,-767.2 480.14,-775.62 479.03,-787.87 498,-794.2 565.88,-816.82 597.7,-831.1 659,-794.2 714.23,-760.95 737.34,-681.18 745.37,-643.96"/>
<polygon fill="midnightblue" stroke="midnightblue" points="748.86,-644.36 747.39,-633.87 741.99,-642.98 748.86,-644.36"/>
</g>
<!-- Node16&#45;&gt;Node4 -->
<g id="edge45" class="edge">
<title>Node16&#45;&gt;Node4</title>
<path fill="none" stroke="midnightblue" d="M435.42,-740.68C445.04,-737.05 454.5,-732.06 462,-725.2 491.35,-698.31 472.84,-674.04 498,-643.2 553.42,-575.25 599.49,-593.58 659,-529.2 697.17,-487.9 727.02,-427.81 740.75,-397.39"/>
<polygon fill="midnightblue" stroke="midnightblue" points="744.09,-398.5 744.92,-387.94 737.68,-395.68 744.09,-398.5"/>
</g>
<!-- Node16&#45;&gt;Node8 -->
<g id="edge44" class="edge">
<title>Node16&#45;&gt;Node8</title>
<path fill="none" stroke="midnightblue" d="M435.75,-759.8C445.13,-763.24 454.41,-767.9 462,-774.2 487.72,-795.53 472.07,-819.12 498,-840.2 503.26,-844.47 509.27,-847.99 515.58,-850.87"/>
<polygon fill="midnightblue" stroke="midnightblue" points="514.4,-854.17 524.99,-854.68 517.03,-847.68 514.4,-854.17"/>
</g>
<!-- Node16&#45;&gt;Node10 -->
<g id="edge42" class="edge">
<title>Node16&#45;&gt;Node10</title>
<path fill="none" stroke="midnightblue" d="M429.12,-740.65C450.64,-735.65 477.68,-729.37 502.75,-723.55"/>
<polygon fill="midnightblue" stroke="midnightblue" points="503.67,-726.93 512.62,-721.26 502.08,-720.11 503.67,-726.93"/>
</g>
<!-- Node16&#45;&gt;Node11 -->
<g id="edge43" class="edge">
<title>Node16&#45;&gt;Node11</title>
<path fill="none" stroke="midnightblue" d="M455.61,-750.2C467.04,-750.2 479.04,-750.2 490.87,-750.2"/>
<polygon fill="midnightblue" stroke="midnightblue" points="491.21,-753.7 501.21,-750.2 491.21,-746.7 491.21,-753.7"/>
</g>
<!-- Node17&#45;&gt;Node2 -->
<g id="edge49" class="edge">
<title>Node17&#45;&gt;Node2</title>
<path fill="none" stroke="midnightblue" d="M403.01,-197.3C420.3,-215.68 448.09,-248.45 462,-282.2 504.27,-384.76 428.52,-442.71 498,-529.2 511.74,-546.3 641.11,-589.65 708.54,-611.38"/>
<polygon fill="midnightblue" stroke="midnightblue" points="707.82,-614.82 718.41,-614.54 709.96,-608.16 707.82,-614.82"/>
</g>
<!-- Node17&#45;&gt;Node4 -->
<g id="edge59" class="edge">
<title>Node17&#45;&gt;Node4</title>
<path fill="none" stroke="midnightblue" d="M410.32,-167.01C459.83,-135.4 580.63,-69.89 659,-125.2 736.93,-180.19 747.78,-308.88 749,-358.34"/>
<polygon fill="midnightblue" stroke="midnightblue" points="745.5,-358.68 749.13,-368.63 752.5,-358.59 745.5,-358.68"/>
</g>
<!-- Node18 -->
<g id="node18" class="node">
<title>Node18</title>
<g id="a_node18"><a xlink:href="class_t_display.html#adfff17bfef798b07b1e6bbfc6f5e0822" target="_top" xlink:title="Display TextString at the defined position with the defined font.">
<polygon fill="white" stroke="black" points="531,-172.7 531,-191.7 626,-191.7 626,-172.7 531,-172.7"/>
<text text-anchor="middle" x="578.5" y="-179.7" font-family="Helvetica,sans-Serif" font-size="10.00">TDisplay::TextOut</text>
</a>
</g>
</g>
<!-- Node17&#45;&gt;Node18 -->
<g id="edge50" class="edge">
<title>Node17&#45;&gt;Node18</title>
<path fill="none" stroke="midnightblue" d="M454.01,-182.2C475.77,-182.2 499.76,-182.2 520.76,-182.2"/>
<polygon fill="midnightblue" stroke="midnightblue" points="520.8,-185.7 530.8,-182.2 520.8,-178.7 520.8,-185.7"/>
</g>
<!-- Node19 -->
<g id="node19" class="node">
<title>Node19</title>
<g id="a_node19"><a xlink:href="class_t_text_handler.html#ac478536f458d9cda8a841953672f6525" target="_top" xlink:title="return the text item at position &#39;At&#39; in TextVector (carries out range checking)">
<polygon fill="white" stroke="black" points="518,-134.7 518,-153.7 639,-153.7 639,-134.7 518,-134.7"/>
<text text-anchor="middle" x="578.5" y="-141.7" font-family="Helvetica,sans-Serif" font-size="10.00">TTextHandler::TextPtrAt</text>
</a>
</g>
</g>
<!-- Node17&#45;&gt;Node19 -->
<g id="edge53" class="edge">
<title>Node17&#45;&gt;Node19</title>
<path fill="none" stroke="midnightblue" d="M454.01,-168.96C475.49,-164.65 499.15,-159.91 519.96,-155.73"/>
<polygon fill="midnightblue" stroke="midnightblue" points="520.81,-159.13 529.92,-153.74 519.43,-152.27 520.81,-159.13"/>
</g>
<!-- Node20 -->
<g id="node20" class="node">
<title>Node20</title>
<g id="a_node20"><a xlink:href="class_t_text_handler.html#a7dfd4e30235878fb01e7387715e0cb0f" target="_top" xlink:title="return the number of items in TextVector">
<polygon fill="white" stroke="black" points="505.5,-248.7 505.5,-267.7 651.5,-267.7 651.5,-248.7 505.5,-248.7"/>
<text text-anchor="middle" x="578.5" y="-255.7" font-family="Helvetica,sans-Serif" font-size="10.00">TTextHandler::TextVectorSize</text>
</a>
</g>
</g>
<!-- Node17&#45;&gt;Node20 -->
<g id="edge56" class="edge">
<title>Node17&#45;&gt;Node20</title>
<path fill="none" stroke="midnightblue" d="M425.44,-197.21C460.09,-211.11 511.13,-231.58 544.35,-244.9"/>
<polygon fill="midnightblue" stroke="midnightblue" points="543.05,-248.15 553.63,-248.62 545.65,-241.65 543.05,-248.15"/>
</g>
<!-- Node17&#45;&gt;Node21 -->
<g id="edge60" class="edge">
<title>Node17&#45;&gt;Node21</title>
<path fill="none" stroke="midnightblue" d="M404.87,-167C430.43,-144.24 478.07,-102.81 498,-92.2 506.41,-87.72 515.77,-83.95 525.03,-80.83"/>
<polygon fill="midnightblue" stroke="midnightblue" points="526.12,-84.16 534.6,-77.81 524.01,-77.48 526.12,-84.16"/>
</g>
<!-- Node18&#45;&gt;Node2 -->
<g id="edge51" class="edge">
<title>Node18&#45;&gt;Node2</title>
<path fill="none" stroke="midnightblue" d="M600.41,-191.76C618.7,-201.21 644.53,-217.41 659,-239.2 698.85,-299.19 678.67,-327.05 695,-397.2 712.93,-474.21 734.91,-565.75 744.34,-604.89"/>
<polygon fill="midnightblue" stroke="midnightblue" points="740.96,-605.79 746.7,-614.69 747.76,-604.15 740.96,-605.79"/>
</g>
<!-- Node18&#45;&gt;Node4 -->
<g id="edge52" class="edge">
<title>Node18&#45;&gt;Node4</title>
<path fill="none" stroke="midnightblue" d="M626.3,-189.69C637.9,-193.24 649.67,-198.48 659,-206.2 708.66,-247.26 734.35,-322.94 744.17,-358.62"/>
<polygon fill="midnightblue" stroke="midnightblue" points="740.79,-359.54 746.71,-368.32 747.56,-357.76 740.79,-359.54"/>
</g>
<!-- Node19&#45;&gt;Node2 -->
<g id="edge54" class="edge">
<title>Node19&#45;&gt;Node2</title>
<path fill="none" stroke="midnightblue" d="M639.39,-150.16C646.78,-153.15 653.62,-157.35 659,-163.2 694.65,-201.89 684.9,-345.56 695,-397.2 710.1,-474.43 733.38,-565.18 743.73,-604.44"/>
<polygon fill="midnightblue" stroke="midnightblue" points="740.4,-605.53 746.34,-614.3 747.16,-603.74 740.4,-605.53"/>
</g>
<!-- Node19&#45;&gt;Node4 -->
<g id="edge55" class="edge">
<title>Node19&#45;&gt;Node4</title>
<path fill="none" stroke="midnightblue" d="M639.38,-151.9C646.5,-154.66 653.27,-158.32 659,-163.2 720.13,-215.16 740.56,-315.61 746.66,-358.26"/>
<polygon fill="midnightblue" stroke="midnightblue" points="743.2,-358.78 747.97,-368.23 750.14,-357.86 743.2,-358.78"/>
</g>
<!-- Node20&#45;&gt;Node2 -->
<g id="edge57" class="edge">
<title>Node20&#45;&gt;Node2</title>
<path fill="none" stroke="midnightblue" d="M645.89,-267.85C650.69,-270.34 655.15,-273.42 659,-277.2 671.12,-289.09 728.03,-533.07 744.51,-604.63"/>
<polygon fill="midnightblue" stroke="midnightblue" points="741.15,-605.61 746.8,-614.57 747.97,-604.04 741.15,-605.61"/>
</g>
<!-- Node20&#45;&gt;Node4 -->
<g id="edge58" class="edge">
<title>Node20&#45;&gt;Node4</title>
<path fill="none" stroke="midnightblue" d="M638.01,-267.81C645.35,-270.26 652.54,-273.34 659,-277.2 694.08,-298.17 723.06,-337.3 738.02,-360.21"/>
<polygon fill="midnightblue" stroke="midnightblue" points="735.07,-362.1 743.38,-368.67 740.98,-358.35 735.07,-362.1"/>
</g>
<!-- Node22&#45;&gt;Node2 -->
<g id="edge62" class="edge">
<title>Node22&#45;&gt;Node2</title>
<path fill="none" stroke="midnightblue" d="M603.39,-393.29C620.52,-405.02 643.26,-422.57 659,-442.2 701,-494.54 730.31,-569.7 742.57,-604.78"/>
<polygon fill="midnightblue" stroke="midnightblue" points="739.41,-606.34 745.95,-614.68 746.03,-604.08 739.41,-606.34"/>
</g>
<!-- Node22&#45;&gt;Node4 -->
<g id="edge63" class="edge">
<title>Node22&#45;&gt;Node4</title>
<path fill="none" stroke="midnightblue" d="M645.03,-378.2C658.04,-378.2 671.69,-378.2 684.66,-378.2"/>
<polygon fill="midnightblue" stroke="midnightblue" points="684.89,-381.7 694.89,-378.2 684.89,-374.7 684.89,-381.7"/>
</g>
<!-- Node23&#45;&gt;Node2 -->
<g id="edge65" class="edge">
<title>Node23&#45;&gt;Node2</title>
<path fill="none" stroke="midnightblue" d="M643.32,-343.87C649.05,-346.55 654.41,-349.94 659,-354.2 733.28,-423.08 746.31,-554.81 748.55,-604.54"/>
<polygon fill="midnightblue" stroke="midnightblue" points="745.06,-604.73 748.9,-614.6 752.05,-604.48 745.06,-604.73"/>
</g>
<!-- Node23&#45;&gt;Node4 -->
<g id="edge66" class="edge">
<title>Node23&#45;&gt;Node4</title>
<path fill="none" stroke="midnightblue" d="M617.94,-343.75C630.99,-347.02 645.64,-350.73 659,-354.2 673.49,-357.95 689.26,-362.12 703.5,-365.93"/>
<polygon fill="midnightblue" stroke="midnightblue" points="702.99,-369.41 713.55,-368.62 704.8,-362.65 702.99,-369.41"/>
</g>
</g>
</svg>
        <g id="navigator" transform="translate(0 0)" fill="#404254">
                <rect fill="#f2f5e9" fill-opacity="0.5" stroke="#606060" stroke-width=".5" x="0" y="0" width="60" height="60"/>
                <use id="zoomplus" xlink:href="#zoomPlus" x="17" y="9" onmousedown="handleZoom(evt,'in')"/>
                <use id="zoomminus" xlink:href="#zoomMin" x="42" y="9" onmousedown="handleZoom(evt,'out')"/>
                <use id="reset" xlink:href="#resetDef" x="30" y="36" onmousedown="handleReset()"/>
                <g id="arrowUp" xlink:href="#dirArrow" transform="translate(30 24)" onmousedown="handlePan(0,-1)">
                  <use xlink:href="#rim" fill="#404040">
                        <set attributeName="fill" to="#808080" begin="arrowUp.mouseover" end="arrowUp.mouseout"/>
                  </use>
                  <path fill="none" stroke="white" stroke-width="1.5" d="M0,-3.0v7 M-2.5,-0.5L0,-3.0L2.5,-0.5"/>
                </g>
                <g id="arrowRight" xlink:href="#dirArrow" transform="rotate(90) translate(36 -43)" onmousedown="handlePan(1,0)">
                  <use xlink:href="#rim" fill="#404040">
                        <set attributeName="fill" to="#808080" begin="arrowRight.mouseover" end="arrowRight.mouseout"/>
                  </use>
                  <path fill="none" stroke="white" stroke-width="1.5" d="M0,-3.0v7 M-2.5,-0.5L0,-3.0L2.5,-0.5"/>
                </g>
                <g id="arrowDown" xlink:href="#dirArrow" transform="rotate(180) translate(-30 -48)" onmousedown="handlePan(0,1)">
                  <use xlink:href="#rim" fill="#404040">
                        <set attributeName="fill" to="#808080" begin="arrowDown.mouseover" end="arrowDown.mouseout"/>
                  </use>
                  <path fill="none" stroke="white" stroke-width="1.5" d="M0,-3.0v7 M-2.5,-0.5L0,-3.0L2.5,-0.5"/>
                </g>
                <g id="arrowLeft" xlink:href="#dirArrow" transform="rotate(270) translate(-36 17)" onmousedown="handlePan(-1,0)">
                  <use xlink:href="#rim" fill="#404040">
                        <set attributeName="fill" to="#808080" begin="arrowLeft.mouseover" end="arrowLeft.mouseout"/>
                  </use>
                  <path fill="none" stroke="white" stroke-width="1.5" d="M0,-3.0v7 M-2.5,-0.5L0,-3.0L2.5,-0.5"/>
                </g>
        </g>
        <svg viewBox="0 0 15 15" width="100%" height="30px" preserveAspectRatio="xMaxYMin meet">
         <g id="arrow_out" transform="scale(0.3 0.3)">
          <a xlink:href="class_t_track_a12569ed581bb1c76c1d201b3cf013da7_cgraph_org.svg" target="_base">
           <rect id="button" ry="5" rx="5" y="6" x="6" height="38" width="38"
                fill="#f2f5e9" fill-opacity="0.5" stroke="#606060" stroke-width="1.0"/>
           <path id="arrow"
             d="M 11.500037,31.436501 C 11.940474,20.09759 22.043105,11.32322 32.158766,21.979434 L 37.068811,17.246167 C 37.068811,17.246167 37.088388,32 37.088388,32 L 22.160133,31.978069 C 22.160133,31.978069 26.997745,27.140456 26.997745,27.140456 C 18.528582,18.264221 13.291696,25.230495 11.500037,31.436501 z"
             style="fill:#404040;"/>
          </a>
         </g>
        </svg>
</svg>
