<?xml version="1.0" encoding="UTF-8" standalone="no"?>
<!DOCTYPE svg PUBLIC "-//W3C//DTD SVG 1.1//EN"
 "http://www.w3.org/Graphics/SVG/1.1/DTD/svg11.dtd">
<!-- Generated by graphviz version 2.44.1 (20200629.0800)
 -->
<!-- Title: TTrack::BuildBasicElementFromSpeedTag Pages: 1 -->
<svg width="316pt" height="235pt"
 viewBox="0.00 0.00 316.00 235.00" xmlns="http://www.w3.org/2000/svg" xmlns:xlink="http://www.w3.org/1999/xlink">
<g id="graph0" class="graph" transform="scale(1 1) rotate(0) translate(4 231)">
<title>TTrack::BuildBasicElementFromSpeedTag</title>
<polygon fill="white" stroke="transparent" points="-4,4 -4,-231 312,-231 312,4 -4,4"/>
<!-- Node1 -->
<g id="node1" class="node">
<title>Node1</title>
<g id="a_node1"><a xlink:title="Return a basic track element from the SpeedTag new at v2.2.0 &#45; needed because Interface doesn&#39;t have ...">
<polygon fill="#bfbfbf" stroke="black" points="174,-98.5 174,-128.5 308,-128.5 308,-98.5 174,-98.5"/>
<text text-anchor="start" x="182" y="-116.5" font-family="Helvetica,sans-Serif" font-size="10.00">TTrack::BuildBasicElement</text>
<text text-anchor="middle" x="241" y="-105.5" font-family="Helvetica,sans-Serif" font-size="10.00">FromSpeedTag</text>
</a>
</g>
</g>
<!-- Node2 -->
<g id="node2" class="node">
<title>Node2</title>
<g id="a_node2"><a xlink:href="class_t_interface.html#add5fbdbceae6285c2cc440905b270491" target="_top" xlink:title=" ">
<polygon fill="white" stroke="black" points="7.5,-196.5 7.5,-226.5 130.5,-226.5 130.5,-196.5 7.5,-196.5"/>
<text text-anchor="start" x="15.5" y="-214.5" font-family="Helvetica,sans-Serif" font-size="10.00">TInterface::FlipMenuItem</text>
<text text-anchor="middle" x="69" y="-203.5" font-family="Helvetica,sans-Serif" font-size="10.00">Click</text>
</a>
</g>
</g>
<!-- Node1&#45;&gt;Node2 -->
<g id="edge1" class="edge">
<title>Node1&#45;&gt;Node2</title>
<path fill="none" stroke="midnightblue" d="M214.68,-135.06C194.83,-151.16 165.97,-172.82 138,-187.5 131.79,-190.76 125.05,-193.74 118.3,-196.41"/>
<polygon fill="midnightblue" stroke="midnightblue" points="217.11,-137.6 222.61,-128.54 212.67,-132.19 217.11,-137.6"/>
</g>
<!-- Node3 -->
<g id="node3" class="node">
<title>Node3</title>
<g id="a_node3"><a xlink:href="class_t_interface.html#a4ee6afffbc33eab918cba315ab65ee6e" target="_top" xlink:title=" ">
<polygon fill="white" stroke="black" points="3,-147.5 3,-177.5 135,-177.5 135,-147.5 3,-147.5"/>
<text text-anchor="start" x="11" y="-165.5" font-family="Helvetica,sans-Serif" font-size="10.00">TInterface::MirrorMenuItem</text>
<text text-anchor="middle" x="69" y="-154.5" font-family="Helvetica,sans-Serif" font-size="10.00">Click</text>
</a>
</g>
</g>
<!-- Node1&#45;&gt;Node3 -->
<g id="edge2" class="edge">
<title>Node1&#45;&gt;Node3</title>
<path fill="none" stroke="midnightblue" d="M177.92,-131.39C159.63,-136.66 139.82,-142.38 122.22,-147.45"/>
<polygon fill="midnightblue" stroke="midnightblue" points="178.97,-134.73 187.61,-128.6 177.03,-128.01 178.97,-134.73"/>
</g>
<!-- Node4 -->
<g id="node4" class="node">
<title>Node4</title>
<g id="a_node4"><a xlink:href="class_t_interface.html#a02e91aba36e2b91354abd2884f658510" target="_top" xlink:title=" ">
<polygon fill="white" stroke="black" points="1,-98.5 1,-128.5 137,-128.5 137,-98.5 1,-98.5"/>
<text text-anchor="start" x="9" y="-116.5" font-family="Helvetica,sans-Serif" font-size="10.00">TInterface::RotateMenuItem</text>
<text text-anchor="middle" x="69" y="-105.5" font-family="Helvetica,sans-Serif" font-size="10.00">Click</text>
</a>
</g>
</g>
<!-- Node1&#45;&gt;Node4 -->
<g id="edge3" class="edge">
<title>Node1&#45;&gt;Node4</title>
<path fill="none" stroke="midnightblue" d="M163.54,-113.5C154.74,-113.5 145.82,-113.5 137.15,-113.5"/>
<polygon fill="midnightblue" stroke="midnightblue" points="163.79,-117 173.79,-113.5 163.79,-110 163.79,-117"/>
</g>
<!-- Node5 -->
<g id="node5" class="node">
<title>Node5</title>
<g id="a_node5"><a xlink:href="class_t_interface.html#a3cf2db0424e05908b20a97130895d056" target="_top" xlink:title=" ">
<polygon fill="white" stroke="black" points="0,-49.5 0,-79.5 138,-79.5 138,-49.5 0,-49.5"/>
<text text-anchor="start" x="8" y="-67.5" font-family="Helvetica,sans-Serif" font-size="10.00">TInterface::RotLeftMenuItem</text>
<text text-anchor="middle" x="69" y="-56.5" font-family="Helvetica,sans-Serif" font-size="10.00">Click</text>
</a>
</g>
</g>
<!-- Node1&#45;&gt;Node5 -->
<g id="edge4" class="edge">
<title>Node1&#45;&gt;Node5</title>
<path fill="none" stroke="midnightblue" d="M177.92,-95.61C159.63,-90.34 139.82,-84.62 122.22,-79.55"/>
<polygon fill="midnightblue" stroke="midnightblue" points="177.03,-98.99 187.61,-98.4 178.97,-92.27 177.03,-98.99"/>
</g>
<!-- Node6 -->
<g id="node6" class="node">
<title>Node6</title>
<g id="a_node6"><a xlink:href="class_t_interface.html#aa6e7359ece526e43589456e9a31851a0" target="_top" xlink:title=" ">
<polygon fill="white" stroke="black" points="6,-0.5 6,-30.5 132,-30.5 132,-0.5 6,-0.5"/>
<text text-anchor="start" x="14" y="-18.5" font-family="Helvetica,sans-Serif" font-size="10.00">TInterface::RotRightMenu</text>
<text text-anchor="middle" x="69" y="-7.5" font-family="Helvetica,sans-Serif" font-size="10.00">ItemClick</text>
</a>
</g>
</g>
<!-- Node1&#45;&gt;Node6 -->
<g id="edge5" class="edge">
<title>Node1&#45;&gt;Node6</title>
<path fill="none" stroke="midnightblue" d="M214.22,-92.07C194.32,-76.28 165.62,-55.12 138,-40.5 131.11,-36.85 123.56,-33.51 116.09,-30.53"/>
<polygon fill="midnightblue" stroke="midnightblue" points="212.19,-94.93 222.18,-98.46 216.58,-89.47 212.19,-94.93"/>
</g>
</g>
</svg>
