<?xml version="1.0" encoding="UTF-8" standalone="no"?>
<!DOCTYPE svg PUBLIC "-//W3C//DTD SVG 1.1//EN"
 "http://www.w3.org/Graphics/SVG/1.1/DTD/svg11.dtd">
<!-- Generated by graphviz version 2.44.1 (20200629.0800)
 -->
<!-- Title: TTrainController::CalcOperatingAndNotStartedTrainLateness Pages: 1 -->
<svg width="500pt" height="99pt"
 viewBox="0.00 0.00 500.00 98.64" xmlns="http://www.w3.org/2000/svg" xmlns:xlink="http://www.w3.org/1999/xlink">
<g id="graph0" class="graph" transform="scale(1 1) rotate(0) translate(4 94.64)">
<title>TTrainController::CalcOperatingAndNotStartedTrainLateness</title>
<polygon fill="white" stroke="transparent" points="-4,4 -4,-94.64 496,-94.64 496,4 -4,4"/>
<!-- Node1 -->
<g id="node1" class="node">
<title>Node1</title>
<g id="a_node1"><a xlink:title="calculates additional lateness values for trains that haven&#39;t reached their destinations yet">
<polygon fill="#bfbfbf" stroke="black" points="0,-30.32 0,-60.32 152,-60.32 152,-30.32 0,-30.32"/>
<text text-anchor="start" x="8" y="-48.32" font-family="Helvetica,sans-Serif" font-size="10.00">TTrainController::CalcOperating</text>
<text text-anchor="middle" x="76" y="-37.32" font-family="Helvetica,sans-Serif" font-size="10.00">AndNotStartedTrainLateness</text>
</a>
</g>
</g>
<!-- Node2 -->
<g id="node2" class="node">
<title>Node2</title>
<g id="a_node2"><a xlink:href="class_t_utilities.html#ae1eddca13cc3c492839e131f40ec21c0" target="_top" xlink:title="pops the last entry off the call stack, throws an error if called when empty">
<polygon fill="white" stroke="black" points="382,-54.82 382,-73.82 492,-73.82 492,-54.82 382,-54.82"/>
<text text-anchor="middle" x="437" y="-61.82" font-family="Helvetica,sans-Serif" font-size="10.00">TUtilities::CallLogPop</text>
</a>
</g>
</g>
<!-- Node1&#45;&gt;Node2 -->
<g id="edge1" class="edge">
<title>Node1&#45;&gt;Node2</title>
<path fill="none" stroke="midnightblue" d="M111.23,-60.33C132.8,-68.94 161.48,-78.91 188,-83.32 257.27,-94.85 276.16,-90.61 346,-83.32 360.31,-81.83 375.7,-79.03 389.64,-76.03"/>
<polygon fill="midnightblue" stroke="midnightblue" points="390.5,-79.43 399.49,-73.83 388.97,-72.6 390.5,-79.43"/>
</g>
<!-- Node3 -->
<g id="node3" class="node">
<title>Node3</title>
<g id="a_node3"><a xlink:href="class_t_train_controller.html#a435ef46f062904e85ae9792faaecdcf7" target="_top" xlink:title="Return the repeating service time.">
<polygon fill="white" stroke="black" points="188,-54.82 188,-73.82 346,-73.82 346,-54.82 188,-54.82"/>
<text text-anchor="middle" x="267" y="-61.82" font-family="Helvetica,sans-Serif" font-size="10.00">TTrainController::GetRepeatTime</text>
</a>
</g>
</g>
<!-- Node1&#45;&gt;Node3 -->
<g id="edge2" class="edge">
<title>Node1&#45;&gt;Node3</title>
<path fill="none" stroke="midnightblue" d="M152.24,-52.89C160.68,-53.73 169.32,-54.6 177.9,-55.47"/>
<polygon fill="midnightblue" stroke="midnightblue" points="177.62,-58.96 187.92,-56.47 178.32,-51.99 177.62,-58.96"/>
</g>
<!-- Node4 -->
<g id="node4" class="node">
<title>Node4</title>
<g id="a_node4"><a xlink:href="class_t_utilities.html#a34bd6bb5305bc29afdf424f6d35a921c" target="_top" xlink:title="creates a string of the form &#39;hh:mm:ss&#39; for use in call &amp; event logging">
<polygon fill="white" stroke="black" points="382,-16.82 382,-35.82 492,-35.82 492,-16.82 382,-16.82"/>
<text text-anchor="middle" x="437" y="-23.82" font-family="Helvetica,sans-Serif" font-size="10.00">TUtilities::TimeStamp</text>
</a>
</g>
</g>
<!-- Node1&#45;&gt;Node4 -->
<g id="edge5" class="edge">
<title>Node1&#45;&gt;Node4</title>
<path fill="none" stroke="midnightblue" d="M111.23,-30.32C132.8,-21.7 161.48,-11.74 188,-7.32 257.27,4.21 276.16,-0.03 346,-7.32 360.31,-8.82 375.7,-11.61 389.64,-14.61"/>
<polygon fill="midnightblue" stroke="midnightblue" points="388.97,-18.05 399.49,-16.81 390.5,-11.22 388.97,-18.05"/>
</g>
<!-- Node5 -->
<g id="node5" class="node">
<title>Node5</title>
<g id="a_node5"><a xlink:href="class_t_train_controller.html#aa09adf9c442406cccc270d6703867a1d" target="_top" xlink:title="Return a reference to the train at position VecPos in the TrainVector, carries out range checking on ...">
<polygon fill="white" stroke="black" points="192.5,-16.82 192.5,-35.82 341.5,-35.82 341.5,-16.82 192.5,-16.82"/>
<text text-anchor="middle" x="267" y="-23.82" font-family="Helvetica,sans-Serif" font-size="10.00">TTrainController::TrainVectorAt</text>
</a>
</g>
</g>
<!-- Node1&#45;&gt;Node5 -->
<g id="edge6" class="edge">
<title>Node1&#45;&gt;Node5</title>
<path fill="none" stroke="midnightblue" d="M152.24,-37.76C162.02,-36.78 172.09,-35.76 182,-34.77"/>
<polygon fill="midnightblue" stroke="midnightblue" points="182.65,-38.22 192.25,-33.74 181.95,-31.25 182.65,-38.22"/>
</g>
<!-- Node3&#45;&gt;Node2 -->
<g id="edge3" class="edge">
<title>Node3&#45;&gt;Node2</title>
<path fill="none" stroke="midnightblue" d="M346.1,-64.32C354.63,-64.32 363.24,-64.32 371.57,-64.32"/>
<polygon fill="midnightblue" stroke="midnightblue" points="371.59,-67.82 381.59,-64.32 371.59,-60.82 371.59,-67.82"/>
</g>
<!-- Node3&#45;&gt;Node4 -->
<g id="edge4" class="edge">
<title>Node3&#45;&gt;Node4</title>
<path fill="none" stroke="midnightblue" d="M310.39,-54.73C332.76,-49.67 360.4,-43.42 384.05,-38.07"/>
<polygon fill="midnightblue" stroke="midnightblue" points="384.93,-41.46 393.91,-35.84 383.39,-34.63 384.93,-41.46"/>
</g>
<!-- Node5&#45;&gt;Node2 -->
<g id="edge7" class="edge">
<title>Node5&#45;&gt;Node2</title>
<path fill="none" stroke="midnightblue" d="M310.39,-35.91C332.76,-40.97 360.4,-47.22 384.05,-52.57"/>
<polygon fill="midnightblue" stroke="midnightblue" points="383.39,-56.01 393.91,-54.8 384.93,-49.18 383.39,-56.01"/>
</g>
<!-- Node5&#45;&gt;Node4 -->
<g id="edge8" class="edge">
<title>Node5&#45;&gt;Node4</title>
<path fill="none" stroke="midnightblue" d="M341.69,-26.32C351.7,-26.32 361.91,-26.32 371.74,-26.32"/>
<polygon fill="midnightblue" stroke="midnightblue" points="371.81,-29.82 381.81,-26.32 371.81,-22.82 371.81,-29.82"/>
</g>
</g>
</svg>
