<?xml version="1.0" encoding="UTF-8" standalone="no"?>
<!DOCTYPE svg PUBLIC "-//W3C//DTD SVG 1.1//EN"
 "http://www.w3.org/Graphics/SVG/1.1/DTD/svg11.dtd">
<!-- Generated by graphviz version 2.44.1 (20200629.0800)
 -->
<!-- Title: TTrainController::CheckHeadCodeValidity Pages: 1 -->
<svg width="1925pt" height="455pt"
 viewBox="0.00 0.00 1925.00 454.50" xmlns="http://www.w3.org/2000/svg" xmlns:xlink="http://www.w3.org/1999/xlink">
<g id="graph0" class="graph" transform="scale(1 1) rotate(0) translate(4 450.5)">
<title>TTrainController::CheckHeadCodeValidity</title>
<polygon fill="white" stroke="transparent" points="-4,4 -4,-450.5 1921,-450.5 1921,4 -4,4"/>
<!-- Node1 -->
<g id="node1" class="node">
<title>Node1</title>
<g id="a_node1"><a xlink:title="Returns true if the headcode complies with requirements.">
<polygon fill="#bfbfbf" stroke="black" points="1777,-207.5 1777,-237.5 1917,-237.5 1917,-207.5 1777,-207.5"/>
<text text-anchor="start" x="1785" y="-225.5" font-family="Helvetica,sans-Serif" font-size="10.00">TTrainController::CheckHead</text>
<text text-anchor="middle" x="1847" y="-214.5" font-family="Helvetica,sans-Serif" font-size="10.00">CodeValidity</text>
</a>
</g>
</g>
<!-- Node2 -->
<g id="node2" class="node">
<title>Node2</title>
<g id="a_node2"><a xlink:href="class_t_interface_1_1_t_service_info.html#a8d793f56e3f1752f520ef780ab868915" target="_top" xlink:title=" ">
<polygon fill="white" stroke="black" points="718,-366.5 718,-396.5 834,-396.5 834,-366.5 718,-366.5"/>
<text text-anchor="start" x="726" y="-384.5" font-family="Helvetica,sans-Serif" font-size="10.00">TInterface::TServiceInfo</text>
<text text-anchor="middle" x="776" y="-373.5" font-family="Helvetica,sans-Serif" font-size="10.00">::CheckOK</text>
</a>
</g>
</g>
<!-- Node1&#45;&gt;Node2 -->
<g id="edge1" class="edge">
<title>Node1&#45;&gt;Node2</title>
<path fill="none" stroke="midnightblue" d="M1832.55,-246.73C1815.03,-276.24 1781.77,-325.81 1741,-355.5 1647.27,-423.76 1612.45,-446.5 1496.5,-446.5 1496.5,-446.5 1496.5,-446.5 1128,-446.5 1018.93,-446.5 893.93,-415.78 826.45,-396.58"/>
<polygon fill="midnightblue" stroke="midnightblue" points="1835.68,-248.31 1837.67,-237.9 1829.62,-244.79 1835.68,-248.31"/>
</g>
<!-- Node9 -->
<g id="node9" class="node">
<title>Node9</title>
<g id="a_node9"><a xlink:href="class_t_train_controller.html#a4ab4b6a568064d27c65f0770e5a5ccd0" target="_top" xlink:title="Examines the internal timetable (TrainDataVector) and creates from it a chronological (....">
<polygon fill="white" stroke="black" points="1615.5,-49.5 1615.5,-79.5 1734.5,-79.5 1734.5,-49.5 1615.5,-49.5"/>
<text text-anchor="start" x="1623.5" y="-67.5" font-family="Helvetica,sans-Serif" font-size="10.00">TTrainController::Create</text>
<text text-anchor="middle" x="1675" y="-56.5" font-family="Helvetica,sans-Serif" font-size="10.00">FormattedTimetable</text>
</a>
</g>
</g>
<!-- Node1&#45;&gt;Node9 -->
<g id="edge9" class="edge">
<title>Node1&#45;&gt;Node9</title>
<path fill="none" stroke="midnightblue" d="M1822.28,-200.45C1787.21,-167.86 1722.42,-107.65 1692.25,-79.6"/>
<polygon fill="midnightblue" stroke="midnightblue" points="1819.99,-203.11 1829.7,-207.35 1824.76,-197.98 1819.99,-203.11"/>
</g>
<!-- Node12 -->
<g id="node12" class="node">
<title>Node12</title>
<g id="a_node12"><a xlink:href="class_t_train_controller.html#a23ca27d36d711136e0529ba8ae4f22f0" target="_top" xlink:title="Parse a single timetable service action, return true for success.">
<polygon fill="white" stroke="black" points="1243.5,-306 1243.5,-325 1376.5,-325 1376.5,-306 1243.5,-306"/>
<text text-anchor="middle" x="1310" y="-313" font-family="Helvetica,sans-Serif" font-size="10.00">TTrainController::SplitEntry</text>
</a>
</g>
</g>
<!-- Node1&#45;&gt;Node12 -->
<g id="edge12" class="edge">
<title>Node1&#45;&gt;Node12</title>
<path fill="none" stroke="midnightblue" d="M1821.3,-244.27C1775.95,-282.62 1674.7,-360.86 1573,-389.5 1506.69,-408.17 1483.76,-410.02 1418,-389.5 1377.04,-376.71 1337.94,-342.15 1320.5,-325.17"/>
<polygon fill="midnightblue" stroke="midnightblue" points="1823.78,-246.76 1829.1,-237.6 1819.23,-241.44 1823.78,-246.76"/>
</g>
<!-- Node23 -->
<g id="node23" class="node">
<title>Node23</title>
<g id="a_node23"><a xlink:href="class_t_train_controller.html#a53410afbc9dd5e8c2cd4a443bfb01034" target="_top" xlink:title="Parse a train information entry, return true for success; PowerAtRail changed to double&amp; from int&amp; at...">
<polygon fill="white" stroke="black" points="1422.5,-99 1422.5,-118 1568.5,-118 1568.5,-99 1422.5,-99"/>
<text text-anchor="middle" x="1495.5" y="-106" font-family="Helvetica,sans-Serif" font-size="10.00">TTrainController::SplitTrainInfo</text>
</a>
</g>
</g>
<!-- Node1&#45;&gt;Node23 -->
<g id="edge28" class="edge">
<title>Node1&#45;&gt;Node23</title>
<path fill="none" stroke="midnightblue" d="M1791.58,-204.3C1736.54,-185.96 1648.96,-156.94 1573,-132.5 1558.03,-127.68 1541.37,-122.44 1527.43,-118.09"/>
<polygon fill="midnightblue" stroke="midnightblue" points="1790.54,-207.65 1801.14,-207.49 1792.76,-201.01 1790.54,-207.65"/>
</g>
<!-- Node24 -->
<g id="node24" class="node">
<title>Node24</title>
<g id="a_node24"><a xlink:href="class_t_train_controller.html#a68d2124bc8f7df43e973299e0afb3dcd" target="_top" xlink:title="Sends a message to the user if GiveMessages is true, including ServiceReference (see above) if not nu...">
<polygon fill="white" stroke="black" points="1609,-207.5 1609,-237.5 1741,-237.5 1741,-207.5 1609,-207.5"/>
<text text-anchor="start" x="1617" y="-225.5" font-family="Helvetica,sans-Serif" font-size="10.00">TTrainController::Timetable</text>
<text text-anchor="middle" x="1675" y="-214.5" font-family="Helvetica,sans-Serif" font-size="10.00">Message</text>
</a>
</g>
</g>
<!-- Node1&#45;&gt;Node24 -->
<g id="edge30" class="edge">
<title>Node1&#45;&gt;Node24</title>
<path fill="none" stroke="midnightblue" d="M1766.85,-215.76C1758.27,-215.72 1749.62,-215.77 1741.24,-215.91"/>
<polygon fill="midnightblue" stroke="midnightblue" points="1766.82,-219.26 1776.85,-215.86 1766.89,-212.26 1766.82,-219.26"/>
</g>
<!-- Node3 -->
<g id="node3" class="node">
<title>Node3</title>
<g id="a_node3"><a xlink:href="class_t_interface.html#a9eecc715486e2c2f7adf3be4c3dfb7a4" target="_top" xlink:title="converse of BuildDatagramFromHostMap">
<polygon fill="white" stroke="black" points="531.5,-366.5 531.5,-396.5 656.5,-396.5 656.5,-366.5 531.5,-366.5"/>
<text text-anchor="start" x="539.5" y="-384.5" font-family="Helvetica,sans-Serif" font-size="10.00">TInterface::BuildDynamic</text>
<text text-anchor="middle" x="594" y="-373.5" font-family="Helvetica,sans-Serif" font-size="10.00">MapFromHostDatagram</text>
</a>
</g>
</g>
<!-- Node2&#45;&gt;Node3 -->
<g id="edge2" class="edge">
<title>Node2&#45;&gt;Node3</title>
<path fill="none" stroke="midnightblue" d="M707.34,-381.5C690.68,-381.5 672.92,-381.5 656.57,-381.5"/>
<polygon fill="midnightblue" stroke="midnightblue" points="707.55,-385 717.55,-381.5 707.55,-378 707.55,-385"/>
</g>
<!-- Node7 -->
<g id="node7" class="node">
<title>Node7</title>
<g id="a_node7"><a xlink:href="class_t_interface.html#a3093de3a7faf5666443a5b8aba59ba7a" target="_top" xlink:title="Converse of BuildDatagramFromPlayerMap.">
<polygon fill="white" stroke="black" points="530,-317.5 530,-347.5 658,-347.5 658,-317.5 530,-317.5"/>
<text text-anchor="start" x="538" y="-335.5" font-family="Helvetica,sans-Serif" font-size="10.00">TInterface::BuildDynamic</text>
<text text-anchor="middle" x="594" y="-324.5" font-family="Helvetica,sans-Serif" font-size="10.00">MapFromPlayerDatagram</text>
</a>
</g>
</g>
<!-- Node2&#45;&gt;Node7 -->
<g id="edge6" class="edge">
<title>Node2&#45;&gt;Node7</title>
<path fill="none" stroke="midnightblue" d="M709.8,-363.75C690.29,-358.44 669.1,-352.67 650.29,-347.55"/>
<polygon fill="midnightblue" stroke="midnightblue" points="708.96,-367.15 719.53,-366.4 710.8,-360.39 708.96,-367.15"/>
</g>
<!-- Node4 -->
<g id="node4" class="node">
<title>Node4</title>
<g id="a_node4"><a xlink:href="class_t_interface.html#a7026d6ca5ea0bad9f6e0f8a0494ff2c9" target="_top" xlink:title="called in ClockTimer2 if player multiplay in progress">
<polygon fill="white" stroke="black" points="334,-366.5 334,-396.5 483,-396.5 483,-366.5 334,-366.5"/>
<text text-anchor="start" x="342" y="-384.5" font-family="Helvetica,sans-Serif" font-size="10.00">TInterface::PlayerHandshaking</text>
<text text-anchor="middle" x="408.5" y="-373.5" font-family="Helvetica,sans-Serif" font-size="10.00">Actions</text>
</a>
</g>
</g>
<!-- Node3&#45;&gt;Node4 -->
<g id="edge3" class="edge">
<title>Node3&#45;&gt;Node4</title>
<path fill="none" stroke="midnightblue" d="M521.04,-381.5C508.56,-381.5 495.56,-381.5 483.03,-381.5"/>
<polygon fill="midnightblue" stroke="midnightblue" points="521.39,-385 531.39,-381.5 521.39,-378 521.39,-385"/>
</g>
<!-- Node5 -->
<g id="node5" class="node">
<title>Node5</title>
<g id="a_node5"><a xlink:href="class_t_interface.html#a6139ffb52492eb89e5487a8a3cd647b5" target="_top" xlink:title="The main loop, called every clock tick via MasterClockTimer.">
<polygon fill="white" stroke="black" points="179,-323 179,-342 298,-342 298,-323 179,-323"/>
<text text-anchor="middle" x="238.5" y="-330" font-family="Helvetica,sans-Serif" font-size="10.00">TInterface::ClockTimer2</text>
</a>
</g>
</g>
<!-- Node4&#45;&gt;Node5 -->
<g id="edge4" class="edge">
<title>Node4&#45;&gt;Node5</title>
<path fill="none" stroke="midnightblue" d="M345.93,-363.54C320.91,-356.25 293.03,-348.11 272.08,-342"/>
<polygon fill="midnightblue" stroke="midnightblue" points="345.14,-366.96 355.72,-366.4 347.1,-360.24 345.14,-366.96"/>
</g>
<!-- Node6 -->
<g id="node6" class="node">
<title>Node6</title>
<g id="a_node6"><a xlink:href="class_t_interface.html#ace30a12d923fc7fb489afabb0a09aa4f" target="_top" xlink:title=" ">
<polygon fill="white" stroke="black" points="0,-323 0,-342 143,-342 143,-323 0,-323"/>
<text text-anchor="middle" x="71.5" y="-330" font-family="Helvetica,sans-Serif" font-size="10.00">TInterface::MasterClockTimer</text>
</a>
</g>
</g>
<!-- Node5&#45;&gt;Node6 -->
<g id="edge5" class="edge">
<title>Node5&#45;&gt;Node6</title>
<path fill="none" stroke="midnightblue" d="M168.67,-332.5C160.22,-332.5 151.57,-332.5 143.09,-332.5"/>
<polygon fill="midnightblue" stroke="midnightblue" points="168.86,-336 178.86,-332.5 168.86,-329 168.86,-336"/>
</g>
<!-- Node8 -->
<g id="node8" class="node">
<title>Node8</title>
<g id="a_node8"><a xlink:href="class_t_interface.html#acac9a55c2f96cb2c2d0bb8b8f0bf3d19" target="_top" xlink:title="called in ClockTimer2 if host multiplay in progress">
<polygon fill="white" stroke="black" points="338,-317.5 338,-347.5 479,-347.5 479,-317.5 338,-317.5"/>
<text text-anchor="start" x="346" y="-335.5" font-family="Helvetica,sans-Serif" font-size="10.00">TInterface::HostHandshaking</text>
<text text-anchor="middle" x="408.5" y="-324.5" font-family="Helvetica,sans-Serif" font-size="10.00">Actions</text>
</a>
</g>
</g>
<!-- Node7&#45;&gt;Node8 -->
<g id="edge7" class="edge">
<title>Node7&#45;&gt;Node8</title>
<path fill="none" stroke="midnightblue" d="M519.72,-332.5C506.31,-332.5 492.35,-332.5 479.05,-332.5"/>
<polygon fill="midnightblue" stroke="midnightblue" points="519.85,-336 529.85,-332.5 519.85,-329 519.85,-336"/>
</g>
<!-- Node8&#45;&gt;Node5 -->
<g id="edge8" class="edge">
<title>Node8&#45;&gt;Node5</title>
<path fill="none" stroke="midnightblue" d="M327.46,-332.5C317.57,-332.5 307.61,-332.5 298.13,-332.5"/>
<polygon fill="midnightblue" stroke="midnightblue" points="327.71,-336 337.71,-332.5 327.71,-329 327.71,-336"/>
</g>
<!-- Node10 -->
<g id="node10" class="node">
<title>Node10</title>
<g id="a_node10"><a xlink:href="class_t_interface.html#ab7c52bd31930036c95b9b71c2f1f0426" target="_top" xlink:title=" ">
<polygon fill="white" stroke="black" points="1429.5,-49.5 1429.5,-79.5 1561.5,-79.5 1561.5,-49.5 1429.5,-49.5"/>
<text text-anchor="start" x="1437.5" y="-67.5" font-family="Helvetica,sans-Serif" font-size="10.00">TInterface::ExportTTButton</text>
<text text-anchor="middle" x="1495.5" y="-56.5" font-family="Helvetica,sans-Serif" font-size="10.00">Click</text>
</a>
</g>
</g>
<!-- Node9&#45;&gt;Node10 -->
<g id="edge10" class="edge">
<title>Node9&#45;&gt;Node10</title>
<path fill="none" stroke="midnightblue" d="M1605.16,-64.5C1590.9,-64.5 1575.92,-64.5 1561.79,-64.5"/>
<polygon fill="midnightblue" stroke="midnightblue" points="1605.39,-68 1615.39,-64.5 1605.39,-61 1605.39,-68"/>
</g>
<!-- Node11 -->
<g id="node11" class="node">
<title>Node11</title>
<g id="a_node11"><a xlink:href="class_t_interface.html#a1bf4807428bf9fa4504be97d28642597" target="_top" xlink:title=" ">
<polygon fill="white" stroke="black" points="1431.5,-0.5 1431.5,-30.5 1559.5,-30.5 1559.5,-0.5 1431.5,-0.5"/>
<text text-anchor="start" x="1439.5" y="-18.5" font-family="Helvetica,sans-Serif" font-size="10.00">TInterface::ExportTTMenu</text>
<text text-anchor="middle" x="1495.5" y="-7.5" font-family="Helvetica,sans-Serif" font-size="10.00">ItemClick</text>
</a>
</g>
</g>
<!-- Node9&#45;&gt;Node11 -->
<g id="edge11" class="edge">
<title>Node9&#45;&gt;Node11</title>
<path fill="none" stroke="midnightblue" d="M1609.44,-46.68C1590.28,-41.39 1569.48,-35.65 1551.02,-30.55"/>
<polygon fill="midnightblue" stroke="midnightblue" points="1608.72,-50.11 1619.3,-49.4 1610.59,-43.36 1608.72,-50.11"/>
</g>
<!-- Node13 -->
<g id="node13" class="node">
<title>Node13</title>
<g id="a_node13"><a xlink:href="class_t_train_controller.html#a5c51eb1e0018e189966ffdbc5d251990" target="_top" xlink:title="Carry out preliminary (mainly syntax) validity checks on a single timetable service entry and (if Fin...">
<polygon fill="white" stroke="black" points="1066,-177.5 1066,-207.5 1192,-207.5 1192,-177.5 1066,-177.5"/>
<text text-anchor="start" x="1074" y="-195.5" font-family="Helvetica,sans-Serif" font-size="10.00">TTrainController::Process</text>
<text text-anchor="middle" x="1129" y="-184.5" font-family="Helvetica,sans-Serif" font-size="10.00">OneTimetableLine</text>
</a>
</g>
</g>
<!-- Node12&#45;&gt;Node13 -->
<g id="edge13" class="edge">
<title>Node12&#45;&gt;Node13</title>
<path fill="none" stroke="midnightblue" d="M1260.81,-302.47C1252.91,-299.43 1245.02,-295.79 1238,-291.5 1218.96,-279.86 1218.34,-271.69 1202,-256.5 1183.63,-239.42 1162.07,-220.38 1147.36,-207.55"/>
<polygon fill="midnightblue" stroke="midnightblue" points="1259.8,-305.83 1270.39,-305.9 1262.15,-299.24 1259.8,-305.83"/>
</g>
<!-- Node14 -->
<g id="node14" class="node">
<title>Node14</title>
<g id="a_node14"><a xlink:href="class_t_interface.html#a148e3f99d39f596dbd7d490403936154" target="_top" xlink:title="Convert a stored timetable file (either as a stand alone file or within a session file) to a loaded t...">
<polygon fill="white" stroke="black" points="887.5,-82.5 887.5,-112.5 1015.5,-112.5 1015.5,-82.5 887.5,-82.5"/>
<text text-anchor="start" x="895.5" y="-100.5" font-family="Helvetica,sans-Serif" font-size="10.00">TInterface::BuildTrainData</text>
<text text-anchor="middle" x="951.5" y="-89.5" font-family="Helvetica,sans-Serif" font-size="10.00">VectorForLoadFile</text>
</a>
</g>
</g>
<!-- Node13&#45;&gt;Node14 -->
<g id="edge14" class="edge">
<title>Node13&#45;&gt;Node14</title>
<path fill="none" stroke="midnightblue" d="M1099.97,-171.37C1078.8,-156.09 1048.61,-135.73 1020,-121.5 1013.54,-118.29 1006.54,-115.3 999.58,-112.6"/>
<polygon fill="midnightblue" stroke="midnightblue" points="1098.03,-174.29 1108.17,-177.36 1102.16,-168.64 1098.03,-174.29"/>
</g>
<!-- Node19 -->
<g id="node19" class="node">
<title>Node19</title>
<g id="a_node19"><a xlink:href="class_t_interface.html#a4ffe7e6eb2421577f670a52f556aef97" target="_top" xlink:title="Check the integrity of a stored timetable file (either as a stand alone file or within a session file...">
<polygon fill="white" stroke="black" points="887.5,-180.5 887.5,-210.5 1015.5,-210.5 1015.5,-180.5 887.5,-180.5"/>
<text text-anchor="start" x="895.5" y="-198.5" font-family="Helvetica,sans-Serif" font-size="10.00">TInterface::BuildTrainData</text>
<text text-anchor="middle" x="951.5" y="-187.5" font-family="Helvetica,sans-Serif" font-size="10.00">VectorForValidateFile</text>
</a>
</g>
</g>
<!-- Node13&#45;&gt;Node19 -->
<g id="edge21" class="edge">
<title>Node13&#45;&gt;Node19</title>
<path fill="none" stroke="midnightblue" d="M1055.59,-193.74C1042.31,-193.96 1028.54,-194.2 1015.56,-194.42"/>
<polygon fill="midnightblue" stroke="midnightblue" points="1055.69,-197.24 1065.63,-193.57 1055.57,-190.24 1055.69,-197.24"/>
</g>
<!-- Node21 -->
<g id="node21" class="node">
<title>Node21</title>
<g id="a_node21"><a xlink:href="class_t_train_controller.html#ac51af4807fe6bba453f8ab9bba42e2b5" target="_top" xlink:title="Checks overall timetable integrity, calls many other specific checking functions, returns true for su...">
<polygon fill="white" stroke="black" points="885.5,-131.5 885.5,-161.5 1017.5,-161.5 1017.5,-131.5 885.5,-131.5"/>
<text text-anchor="start" x="893.5" y="-149.5" font-family="Helvetica,sans-Serif" font-size="10.00">TTrainController::Timetable</text>
<text text-anchor="middle" x="951.5" y="-138.5" font-family="Helvetica,sans-Serif" font-size="10.00">IntegrityCheck</text>
</a>
</g>
</g>
<!-- Node13&#45;&gt;Node21 -->
<g id="edge23" class="edge">
<title>Node13&#45;&gt;Node21</title>
<path fill="none" stroke="midnightblue" d="M1060.78,-174.88C1043.96,-170.47 1026.08,-165.79 1009.79,-161.52"/>
<polygon fill="midnightblue" stroke="midnightblue" points="1059.97,-178.29 1070.53,-177.44 1061.75,-171.52 1059.97,-178.29"/>
</g>
<!-- Node22 -->
<g id="node22" class="node">
<title>Node22</title>
<g id="a_node22"><a xlink:href="class_t_interface.html#a003b10236c2b4316dc57be370c715c44" target="_top" xlink:title=" ">
<polygon fill="white" stroke="black" points="883,-229.5 883,-259.5 1020,-259.5 1020,-229.5 883,-229.5"/>
<text text-anchor="start" x="891" y="-247.5" font-family="Helvetica,sans-Serif" font-size="10.00">TInterface::TTServiceSyntax</text>
<text text-anchor="middle" x="951.5" y="-236.5" font-family="Helvetica,sans-Serif" font-size="10.00">CheckButtonClick</text>
</a>
</g>
</g>
<!-- Node13&#45;&gt;Node22 -->
<g id="edge27" class="edge">
<title>Node13&#45;&gt;Node22</title>
<path fill="none" stroke="midnightblue" d="M1067.47,-210.43C1046.5,-216.65 1023.24,-223.54 1003.15,-229.49"/>
<polygon fill="midnightblue" stroke="midnightblue" points="1068.64,-213.74 1077.24,-207.54 1066.66,-207.03 1068.64,-213.74"/>
</g>
<!-- Node15 -->
<g id="node15" class="node">
<title>Node15</title>
<g id="a_node15"><a xlink:href="class_t_interface.html#a92d5a9e07b9362dee2296b7759a1c83d" target="_top" xlink:title="Loads timetable into memory from a session file, true if successful.">
<polygon fill="white" stroke="black" points="712,-131.5 712,-161.5 840,-161.5 840,-131.5 712,-131.5"/>
<text text-anchor="start" x="720" y="-149.5" font-family="Helvetica,sans-Serif" font-size="10.00">TInterface::LoadTimetable</text>
<text text-anchor="middle" x="776" y="-138.5" font-family="Helvetica,sans-Serif" font-size="10.00">FromSessionFile</text>
</a>
</g>
</g>
<!-- Node14&#45;&gt;Node15 -->
<g id="edge15" class="edge">
<title>Node14&#45;&gt;Node15</title>
<path fill="none" stroke="midnightblue" d="M887.4,-115.32C868.67,-120.61 848.34,-126.35 830.29,-131.45"/>
<polygon fill="midnightblue" stroke="midnightblue" points="888.36,-118.69 897.03,-112.6 886.45,-111.95 888.36,-118.69"/>
</g>
<!-- Node18 -->
<g id="node18" class="node">
<title>Node18</title>
<g id="a_node18"><a xlink:href="class_t_interface.html#a15a2f5ad77e4f6c2b0cc6314224dfb78" target="_top" xlink:title=" ">
<polygon fill="white" stroke="black" points="712,-82.5 712,-112.5 840,-112.5 840,-82.5 712,-82.5"/>
<text text-anchor="start" x="720" y="-100.5" font-family="Helvetica,sans-Serif" font-size="10.00">TInterface::LoadTimetable</text>
<text text-anchor="middle" x="776" y="-89.5" font-family="Helvetica,sans-Serif" font-size="10.00">MenuItemClick</text>
</a>
</g>
</g>
<!-- Node14&#45;&gt;Node18 -->
<g id="edge20" class="edge">
<title>Node14&#45;&gt;Node18</title>
<path fill="none" stroke="midnightblue" d="M877.13,-97.5C864.81,-97.5 852.12,-97.5 840.08,-97.5"/>
<polygon fill="midnightblue" stroke="midnightblue" points="877.37,-101 887.37,-97.5 877.37,-94 877.37,-101"/>
</g>
<!-- Node16 -->
<g id="node16" class="node">
<title>Node16</title>
<g id="a_node16"><a xlink:href="class_t_interface.html#a636b1b4bd29f2678a3290ed2d282f1c2" target="_top" xlink:title="Load a session file.">
<polygon fill="white" stroke="black" points="348,-251 348,-270 469,-270 469,-251 348,-251"/>
<text text-anchor="middle" x="408.5" y="-258" font-family="Helvetica,sans-Serif" font-size="10.00">TInterface::LoadSession</text>
</a>
</g>
</g>
<!-- Node15&#45;&gt;Node16 -->
<g id="edge16" class="edge">
<title>Node15&#45;&gt;Node16</title>
<path fill="none" stroke="midnightblue" d="M701.71,-159.57C649.85,-169.87 579.12,-186.08 519,-207.5 484.98,-219.62 447.55,-239.2 426.45,-250.86"/>
<polygon fill="midnightblue" stroke="midnightblue" points="702.69,-162.94 711.83,-157.58 701.34,-156.07 702.69,-162.94"/>
</g>
<!-- Node17 -->
<g id="node17" class="node">
<title>Node17</title>
<g id="a_node17"><a xlink:href="class_t_interface.html#a3904f26b67b9512507960187b37b6f7b" target="_top" xlink:title="Checks session file integrity prior to loading, true for success.">
<polygon fill="white" stroke="black" points="519,-216.5 519,-246.5 669,-246.5 669,-216.5 519,-216.5"/>
<text text-anchor="start" x="527" y="-234.5" font-family="Helvetica,sans-Serif" font-size="10.00">TInterface::SessionFileIntegrity</text>
<text text-anchor="middle" x="594" y="-223.5" font-family="Helvetica,sans-Serif" font-size="10.00">Check</text>
</a>
</g>
</g>
<!-- Node15&#45;&gt;Node17 -->
<g id="edge18" class="edge">
<title>Node15&#45;&gt;Node17</title>
<path fill="none" stroke="midnightblue" d="M717.85,-165.15C713.47,-166.87 709.14,-168.66 705,-170.5 674.47,-184.07 641.14,-203.21 619.27,-216.41"/>
<polygon fill="midnightblue" stroke="midnightblue" points="719.37,-168.32 727.49,-161.52 716.9,-161.77 719.37,-168.32"/>
</g>
<!-- Node16&#45;&gt;Node5 -->
<g id="edge17" class="edge">
<title>Node16&#45;&gt;Node5</title>
<path fill="none" stroke="midnightblue" d="M375.92,-274.03C342.68,-288.28 291.19,-310.35 261.9,-322.9"/>
<polygon fill="midnightblue" stroke="midnightblue" points="377.38,-277.22 385.19,-270.06 374.62,-270.78 377.38,-277.22"/>
</g>
<!-- Node17&#45;&gt;Node16 -->
<g id="edge19" class="edge">
<title>Node17&#45;&gt;Node16</title>
<path fill="none" stroke="midnightblue" d="M508.75,-244.81C495.41,-246.92 481.86,-249.06 469.23,-251.06"/>
<polygon fill="midnightblue" stroke="midnightblue" points="509.56,-248.23 518.89,-243.21 508.47,-241.32 509.56,-248.23"/>
</g>
<!-- Node20 -->
<g id="node20" class="node">
<title>Node20</title>
<g id="a_node20"><a xlink:href="class_t_interface.html#a2f501868bbee2310af99bf2e8e265c59" target="_top" xlink:title=" ">
<polygon fill="white" stroke="black" points="705,-180.5 705,-210.5 847,-210.5 847,-180.5 705,-180.5"/>
<text text-anchor="start" x="713" y="-198.5" font-family="Helvetica,sans-Serif" font-size="10.00">TInterface::ValidateTimetable</text>
<text text-anchor="middle" x="776" y="-187.5" font-family="Helvetica,sans-Serif" font-size="10.00">ButtonClick</text>
</a>
</g>
</g>
<!-- Node19&#45;&gt;Node20 -->
<g id="edge22" class="edge">
<title>Node19&#45;&gt;Node20</title>
<path fill="none" stroke="midnightblue" d="M877.12,-195.5C867.18,-195.5 857,-195.5 847.12,-195.5"/>
<polygon fill="midnightblue" stroke="midnightblue" points="877.37,-199 887.37,-195.5 877.37,-192 877.37,-199"/>
</g>
<!-- Node21&#45;&gt;Node15 -->
<g id="edge24" class="edge">
<title>Node21&#45;&gt;Node15</title>
<path fill="none" stroke="midnightblue" d="M875.22,-146.5C863.53,-146.5 851.55,-146.5 840.16,-146.5"/>
<polygon fill="midnightblue" stroke="midnightblue" points="875.4,-150 885.4,-146.5 875.4,-143 875.4,-150"/>
</g>
<!-- Node21&#45;&gt;Node18 -->
<g id="edge25" class="edge">
<title>Node21&#45;&gt;Node18</title>
<path fill="none" stroke="midnightblue" d="M887.4,-128.68C868.67,-123.39 848.34,-117.65 830.29,-112.55"/>
<polygon fill="midnightblue" stroke="midnightblue" points="886.45,-132.05 897.03,-131.4 888.36,-125.31 886.45,-132.05"/>
</g>
<!-- Node21&#45;&gt;Node20 -->
<g id="edge26" class="edge">
<title>Node21&#45;&gt;Node20</title>
<path fill="none" stroke="midnightblue" d="M887.4,-164.32C868.67,-169.61 848.34,-175.35 830.29,-180.45"/>
<polygon fill="midnightblue" stroke="midnightblue" points="888.36,-167.69 897.03,-161.6 886.45,-160.95 888.36,-167.69"/>
</g>
<!-- Node23&#45;&gt;Node13 -->
<g id="edge29" class="edge">
<title>Node23&#45;&gt;Node13</title>
<path fill="none" stroke="midnightblue" d="M1439.93,-120.19C1387.94,-131.43 1307.51,-149.09 1238,-165.5 1222.11,-169.25 1204.94,-173.47 1189.07,-177.43"/>
<polygon fill="midnightblue" stroke="midnightblue" points="1440.9,-123.56 1449.93,-118.03 1439.42,-116.72 1440.9,-123.56"/>
</g>
<!-- Node24&#45;&gt;Node1 -->
<g id="edge33" class="edge">
<title>Node24&#45;&gt;Node1</title>
<path fill="none" stroke="midnightblue" d="M1751.46,-229.21C1759.91,-229.28 1768.49,-229.26 1776.85,-229.14"/>
<polygon fill="midnightblue" stroke="midnightblue" points="1751.28,-225.71 1741.24,-229.09 1751.2,-232.71 1751.28,-225.71"/>
</g>
<!-- Node24&#45;&gt;Node13 -->
<g id="edge41" class="edge">
<title>Node24&#45;&gt;Node13</title>
<path fill="none" stroke="midnightblue" d="M1598.89,-220.55C1511.94,-217.98 1364.48,-212.69 1238,-203.5 1223.15,-202.42 1207.18,-200.96 1192.2,-199.46"/>
<polygon fill="midnightblue" stroke="midnightblue" points="1598.83,-224.05 1608.93,-220.84 1599.03,-217.05 1598.83,-224.05"/>
</g>
<!-- Node24&#45;&gt;Node21 -->
<g id="edge45" class="edge">
<title>Node24&#45;&gt;Node21</title>
<path fill="none" stroke="midnightblue" d="M1623.96,-204.06C1607.87,-198.7 1589.84,-193.27 1573,-189.5 1374.37,-145 1131.83,-142.72 1017.74,-144.61"/>
<polygon fill="midnightblue" stroke="midnightblue" points="1623.11,-207.47 1633.7,-207.38 1625.37,-200.84 1623.11,-207.47"/>
</g>
<!-- Node24&#45;&gt;Node23 -->
<g id="edge44" class="edge">
<title>Node24&#45;&gt;Node23</title>
<path fill="none" stroke="midnightblue" d="M1653.84,-199.71C1634.81,-179.47 1604.56,-150.4 1573,-132.5 1562.22,-126.39 1549.69,-121.63 1537.93,-118.01"/>
<polygon fill="midnightblue" stroke="midnightblue" points="1651.45,-202.28 1660.8,-207.26 1656.59,-197.54 1651.45,-202.28"/>
</g>
<!-- Node25 -->
<g id="node25" class="node">
<title>Node25</title>
<g id="a_node25"><a xlink:href="class_t_train_controller.html#a3733e089b5f58d8b5e8355298653b53a" target="_top" xlink:title="Used to compile ExitList from a string list of element IDs, returns true for success or gives a messa...">
<polygon fill="white" stroke="black" points="1428,-349.5 1428,-379.5 1563,-379.5 1563,-349.5 1428,-349.5"/>
<text text-anchor="start" x="1436" y="-367.5" font-family="Helvetica,sans-Serif" font-size="10.00">TTrainController::CheckAnd</text>
<text text-anchor="middle" x="1495.5" y="-356.5" font-family="Helvetica,sans-Serif" font-size="10.00">PopulateListOfIDs</text>
</a>
</g>
</g>
<!-- Node24&#45;&gt;Node25 -->
<g id="edge31" class="edge">
<title>Node24&#45;&gt;Node25</title>
<path fill="none" stroke="midnightblue" d="M1659.58,-246.24C1642.22,-272.89 1610.65,-315.65 1573,-340.5 1567.77,-343.95 1562.02,-346.93 1556.09,-349.5"/>
<polygon fill="midnightblue" stroke="midnightblue" points="1662.7,-247.86 1665.12,-237.54 1656.79,-244.1 1662.7,-247.86"/>
</g>
<!-- Node26 -->
<g id="node26" class="node">
<title>Node26</title>
<g id="a_node26"><a xlink:href="class_t_train_controller.html#a1925032d5e41decf4befc07b35521d3c" target="_top" xlink:title="Returns true if the location name complies with requirements.">
<polygon fill="white" stroke="black" points="1418,-251.5 1418,-281.5 1573,-281.5 1573,-251.5 1418,-251.5"/>
<text text-anchor="start" x="1426" y="-269.5" font-family="Helvetica,sans-Serif" font-size="10.00">TTrainController::CheckLocation</text>
<text text-anchor="middle" x="1495.5" y="-258.5" font-family="Helvetica,sans-Serif" font-size="10.00">Validity</text>
</a>
</g>
</g>
<!-- Node24&#45;&gt;Node26 -->
<g id="edge34" class="edge">
<title>Node24&#45;&gt;Node26</title>
<path fill="none" stroke="midnightblue" d="M1603.46,-239.99C1588.13,-243.79 1572.03,-247.78 1557.12,-251.47"/>
<polygon fill="midnightblue" stroke="midnightblue" points="1604.55,-243.32 1613.41,-237.52 1602.86,-236.53 1604.55,-243.32"/>
</g>
<!-- Node29 -->
<g id="node29" class="node">
<title>Node29</title>
<g id="a_node29"><a xlink:href="class_t_train_controller.html#a5c9711cc69c8332cf7db5e0b2696ca45" target="_top" xlink:title="A timetable validation function where train starting positions are checked for validity,...">
<polygon fill="white" stroke="black" points="1426,-300.5 1426,-330.5 1565,-330.5 1565,-300.5 1426,-300.5"/>
<text text-anchor="start" x="1434" y="-318.5" font-family="Helvetica,sans-Serif" font-size="10.00">TTrainController::CheckStart</text>
<text text-anchor="middle" x="1495.5" y="-307.5" font-family="Helvetica,sans-Serif" font-size="10.00">PositionValidity</text>
</a>
</g>
</g>
<!-- Node24&#45;&gt;Node29 -->
<g id="edge39" class="edge">
<title>Node24&#45;&gt;Node29</title>
<path fill="none" stroke="midnightblue" d="M1647.53,-243.81C1627.89,-258.79 1599.96,-278.42 1573,-291.5 1566.24,-294.78 1558.92,-297.75 1551.59,-300.38"/>
<polygon fill="midnightblue" stroke="midnightblue" points="1649.91,-246.4 1655.67,-237.5 1645.62,-240.86 1649.91,-246.4"/>
</g>
<!-- Node30 -->
<g id="node30" class="node">
<title>Node30</title>
<g id="a_node30"><a xlink:href="class_t_train_controller.html#a03d63b7579e50c092cca3b5200d9dafb" target="_top" xlink:title="Parse a timetable repeat entry, return true for success.">
<polygon fill="white" stroke="black" points="1240,-175 1240,-194 1380,-194 1380,-175 1240,-175"/>
<text text-anchor="middle" x="1310" y="-182" font-family="Helvetica,sans-Serif" font-size="10.00">TTrainController::SplitRepeat</text>
</a>
</g>
</g>
<!-- Node24&#45;&gt;Node30 -->
<g id="edge42" class="edge">
<title>Node24&#45;&gt;Node30</title>
<path fill="none" stroke="midnightblue" d="M1598.73,-211.68C1590.06,-210.54 1581.34,-209.46 1573,-208.5 1507.66,-200.98 1432.93,-194.33 1380.04,-189.95"/>
<polygon fill="midnightblue" stroke="midnightblue" points="1598.49,-215.17 1608.86,-213.02 1599.41,-208.23 1598.49,-215.17"/>
</g>
<!-- Node25&#45;&gt;Node12 -->
<g id="edge32" class="edge">
<title>Node25&#45;&gt;Node12</title>
<path fill="none" stroke="midnightblue" d="M1428.22,-346.8C1400.69,-339.45 1369.82,-331.21 1346.68,-325.03"/>
<polygon fill="midnightblue" stroke="midnightblue" points="1427.63,-350.27 1438.2,-349.47 1429.44,-343.5 1427.63,-350.27"/>
</g>
<!-- Node26&#45;&gt;Node12 -->
<g id="edge38" class="edge">
<title>Node26&#45;&gt;Node12</title>
<path fill="none" stroke="midnightblue" d="M1428.22,-284.2C1400.69,-291.55 1369.82,-299.79 1346.68,-305.97"/>
<polygon fill="midnightblue" stroke="midnightblue" points="1429.44,-287.5 1438.2,-281.53 1427.63,-280.73 1429.44,-287.5"/>
</g>
<!-- Node27 -->
<g id="node27" class="node">
<title>Node27</title>
<g id="a_node27"><a xlink:href="class_t_train.html#a23c65e7f2b2130ae87811f70afb6d5bf" target="_top" xlink:title="Create one train with relevant member values from the sesion file.">
<polygon fill="white" stroke="black" points="1238,-263 1238,-282 1382,-282 1382,-263 1238,-263"/>
<text text-anchor="middle" x="1310" y="-270" font-family="Helvetica,sans-Serif" font-size="10.00">TTrain::LoadOneSessionTrain</text>
</a>
</g>
</g>
<!-- Node26&#45;&gt;Node27 -->
<g id="edge35" class="edge">
<title>Node26&#45;&gt;Node27</title>
<path fill="none" stroke="midnightblue" d="M1407.74,-269.34C1399.17,-269.62 1390.55,-269.9 1382.18,-270.17"/>
<polygon fill="midnightblue" stroke="midnightblue" points="1407.86,-272.83 1417.74,-269.01 1407.63,-265.84 1407.86,-272.83"/>
</g>
<!-- Node28 -->
<g id="node28" class="node">
<title>Node28</title>
<g id="a_node28"><a xlink:href="class_t_train_controller.html#a853ddf9799c9fd7063c81ffa1dc754d7" target="_top" xlink:title="load trains from a session file">
<polygon fill="white" stroke="black" points="1056,-265.5 1056,-295.5 1202,-295.5 1202,-265.5 1056,-265.5"/>
<text text-anchor="start" x="1064" y="-283.5" font-family="Helvetica,sans-Serif" font-size="10.00">TTrainController::LoadSession</text>
<text text-anchor="middle" x="1129" y="-272.5" font-family="Helvetica,sans-Serif" font-size="10.00">Trains</text>
</a>
</g>
</g>
<!-- Node27&#45;&gt;Node28 -->
<g id="edge36" class="edge">
<title>Node27&#45;&gt;Node28</title>
<path fill="none" stroke="midnightblue" d="M1227.94,-276.12C1219.32,-276.51 1210.6,-276.9 1202.09,-277.28"/>
<polygon fill="midnightblue" stroke="midnightblue" points="1228.16,-279.62 1238,-275.67 1227.85,-272.62 1228.16,-279.62"/>
</g>
<!-- Node28&#45;&gt;Node16 -->
<g id="edge37" class="edge">
<title>Node28&#45;&gt;Node16</title>
<path fill="none" stroke="midnightblue" d="M1045.56,-278.21C899.25,-274.13 597.55,-265.73 469.3,-262.16"/>
<polygon fill="midnightblue" stroke="midnightblue" points="1045.72,-281.71 1055.82,-278.49 1045.92,-274.71 1045.72,-281.71"/>
</g>
<!-- Node29&#45;&gt;Node12 -->
<g id="edge40" class="edge">
<title>Node29&#45;&gt;Node12</title>
<path fill="none" stroke="midnightblue" d="M1415.62,-315.5C1402.66,-315.5 1389.36,-315.5 1376.77,-315.5"/>
<polygon fill="midnightblue" stroke="midnightblue" points="1415.91,-319 1425.91,-315.5 1415.91,-312 1415.91,-319"/>
</g>
<!-- Node30&#45;&gt;Node13 -->
<g id="edge43" class="edge">
<title>Node30&#45;&gt;Node13</title>
<path fill="none" stroke="midnightblue" d="M1229.73,-188.04C1217.09,-188.61 1204.18,-189.18 1192.01,-189.73"/>
<polygon fill="midnightblue" stroke="midnightblue" points="1229.96,-191.54 1239.79,-187.59 1229.65,-184.54 1229.96,-191.54"/>
</g>
</g>
</svg>
