<?xml version="1.0" encoding="UTF-8" standalone="no"?>
<!DOCTYPE svg PUBLIC "-//W3C//DTD SVG 1.1//EN"
 "http://www.w3.org/Graphics/SVG/1.1/DTD/svg11.dtd">
<!-- Generated by graphviz version 2.44.1 (20200629.0800)
 -->
<!-- Title: TInterface::EraseLocationNameText Pages: 1 -->
<svg width="784pt" height="345pt"
 viewBox="0.00 0.00 784.00 345.38" xmlns="http://www.w3.org/2000/svg" xmlns:xlink="http://www.w3.org/1999/xlink">
<g id="graph0" class="graph" transform="scale(1 1) rotate(0) translate(4 341.38)">
<title>TInterface::EraseLocationNameText</title>
<polygon fill="white" stroke="transparent" points="-4,4 -4,-341.38 780,-341.38 780,4 -4,4"/>
<!-- Node1 -->
<g id="node1" class="node">
<title>Node1</title>
<g id="a_node1"><a xlink:title="Erase a location name (providing it exists in LocationNameMultiMap) from TextVector,...">
<polygon fill="#bfbfbf" stroke="black" points="0,-128.22 0,-158.22 127,-158.22 127,-128.22 0,-128.22"/>
<text text-anchor="start" x="8" y="-146.22" font-family="Helvetica,sans-Serif" font-size="10.00">TInterface::EraseLocation</text>
<text text-anchor="middle" x="63.5" y="-135.22" font-family="Helvetica,sans-Serif" font-size="10.00">NameText</text>
</a>
</g>
</g>
<!-- Node2 -->
<g id="node2" class="node">
<title>Node2</title>
<g id="a_node2"><a xlink:href="class_t_utilities.html#ae1eddca13cc3c492839e131f40ec21c0" target="_top" xlink:title="pops the last entry off the call stack, throws an error if called when empty">
<polygon fill="white" stroke="black" points="666,-257.72 666,-276.72 776,-276.72 776,-257.72 666,-257.72"/>
<text text-anchor="middle" x="721" y="-264.72" font-family="Helvetica,sans-Serif" font-size="10.00">TUtilities::CallLogPop</text>
</a>
</g>
</g>
<!-- Node1&#45;&gt;Node2 -->
<g id="edge1" class="edge">
<title>Node1&#45;&gt;Node2</title>
<path fill="none" stroke="midnightblue" d="M87.29,-158.34C148.31,-197.63 321.78,-301.61 484,-326.22 548.15,-335.95 567.82,-344.78 630,-326.22 657.75,-317.94 684.88,-298.06 701.98,-283.66"/>
<polygon fill="midnightblue" stroke="midnightblue" points="704.71,-285.93 709.95,-276.72 700.11,-280.64 704.71,-285.93"/>
</g>
<!-- Node3 -->
<g id="node3" class="node">
<title>Node3</title>
<g id="a_node3"><a xlink:href="class_t_text_handler.html#a0fb5dca23fd07e642c611381b6344746" target="_top" xlink:title="look in TextVector for text item &#39;Name&#39;, and if found return true and return its position in &amp;HPos an...">
<polygon fill="white" stroke="black" points="327,-29.72 327,-48.72 444,-48.72 444,-29.72 327,-29.72"/>
<text text-anchor="middle" x="385.5" y="-36.72" font-family="Helvetica,sans-Serif" font-size="10.00">TTextHandler::FindText</text>
</a>
</g>
</g>
<!-- Node1&#45;&gt;Node3 -->
<g id="edge2" class="edge">
<title>Node1&#45;&gt;Node3</title>
<path fill="none" stroke="midnightblue" d="M110.69,-128.21C173.84,-107.68 286.05,-71.22 345.32,-51.95"/>
<polygon fill="midnightblue" stroke="midnightblue" points="346.62,-55.21 355.05,-48.79 344.46,-48.55 346.62,-55.21"/>
</g>
<!-- Node5 -->
<g id="node5" class="node">
<title>Node5</title>
<g id="a_node5"><a xlink:href="class_t_utilities.html#a34bd6bb5305bc29afdf424f6d35a921c" target="_top" xlink:title="creates a string of the form &#39;hh:mm:ss&#39; for use in call &amp; event logging">
<polygon fill="white" stroke="black" points="666,-105.72 666,-124.72 776,-124.72 776,-105.72 666,-105.72"/>
<text text-anchor="middle" x="721" y="-112.72" font-family="Helvetica,sans-Serif" font-size="10.00">TUtilities::TimeStamp</text>
</a>
</g>
</g>
<!-- Node1&#45;&gt;Node5 -->
<g id="edge21" class="edge">
<title>Node1&#45;&gt;Node5</title>
<path fill="none" stroke="midnightblue" d="M80.67,-127.93C99.23,-111.14 131.21,-84.41 163,-68.22 229.15,-34.52 249.54,-31 323,-20.22 458.16,-0.38 504.41,18.54 630,-35.22 662,-48.92 690.45,-78.64 706.42,-97.74"/>
<polygon fill="midnightblue" stroke="midnightblue" points="703.84,-100.12 712.86,-105.68 709.28,-95.71 703.84,-100.12"/>
</g>
<!-- Node6 -->
<g id="node6" class="node">
<title>Node6</title>
<g id="a_node6"><a xlink:href="class_t_text_handler.html#a5741d1b36f1245b55926cb1243046307" target="_top" xlink:title="look for a text item in the vicinity of HPosInput &amp; VPosInput &amp; if TextToErase is null then erase any...">
<polygon fill="white" stroke="black" points="163,-148.72 163,-167.72 287,-167.72 287,-148.72 163,-148.72"/>
<text text-anchor="middle" x="225" y="-155.72" font-family="Helvetica,sans-Serif" font-size="10.00">TTextHandler::TextErase</text>
</a>
</g>
</g>
<!-- Node1&#45;&gt;Node6 -->
<g id="edge8" class="edge">
<title>Node1&#45;&gt;Node6</title>
<path fill="none" stroke="midnightblue" d="M127.08,-149.1C135.55,-149.9 144.29,-150.72 152.89,-151.53"/>
<polygon fill="midnightblue" stroke="midnightblue" points="152.62,-155.02 162.91,-152.47 153.28,-148.05 152.62,-155.02"/>
</g>
<!-- Node3&#45;&gt;Node2 -->
<g id="edge3" class="edge">
<title>Node3&#45;&gt;Node2</title>
<path fill="none" stroke="midnightblue" d="M391.82,-49.03C411.09,-84.56 476.56,-204.62 484,-210.22 491.38,-215.77 599.26,-240.43 666.58,-255.44"/>
<polygon fill="midnightblue" stroke="midnightblue" points="666.08,-258.92 676.6,-257.67 667.6,-252.08 666.08,-258.92"/>
</g>
<!-- Node4 -->
<g id="node4" class="node">
<title>Node4</title>
<g id="a_node4"><a xlink:href="class_t_text_handler.html#a7dfd4e30235878fb01e7387715e0cb0f" target="_top" xlink:title="return the number of items in TextVector">
<polygon fill="white" stroke="black" points="484,-105.72 484,-124.72 630,-124.72 630,-105.72 484,-105.72"/>
<text text-anchor="middle" x="557" y="-112.72" font-family="Helvetica,sans-Serif" font-size="10.00">TTextHandler::TextVectorSize</text>
</a>
</g>
</g>
<!-- Node3&#45;&gt;Node4 -->
<g id="edge4" class="edge">
<title>Node3&#45;&gt;Node4</title>
<path fill="none" stroke="midnightblue" d="M407.97,-48.84C437.64,-62.15 491.37,-86.24 525.28,-101.45"/>
<polygon fill="midnightblue" stroke="midnightblue" points="524.15,-104.77 534.71,-105.67 527.01,-98.39 524.15,-104.77"/>
</g>
<!-- Node3&#45;&gt;Node5 -->
<g id="edge7" class="edge">
<title>Node3&#45;&gt;Node5</title>
<path fill="none" stroke="midnightblue" d="M444.47,-38.1C494.7,-38.73 568.73,-43.52 630,-63.22 655.46,-71.4 681.59,-87.53 699.1,-99.67"/>
<polygon fill="midnightblue" stroke="midnightblue" points="697.24,-102.64 707.41,-105.59 701.3,-96.94 697.24,-102.64"/>
</g>
<!-- Node4&#45;&gt;Node2 -->
<g id="edge5" class="edge">
<title>Node4&#45;&gt;Node2</title>
<path fill="none" stroke="midnightblue" d="M571.2,-124.78C586,-135.69 610.47,-154.35 630,-172.22 658.01,-197.85 687.81,-230.5 705.12,-250.09"/>
<polygon fill="midnightblue" stroke="midnightblue" points="702.5,-252.41 711.73,-257.62 707.77,-247.8 702.5,-252.41"/>
</g>
<!-- Node4&#45;&gt;Node5 -->
<g id="edge6" class="edge">
<title>Node4&#45;&gt;Node5</title>
<path fill="none" stroke="midnightblue" d="M630.47,-115.22C638.76,-115.22 647.18,-115.22 655.36,-115.22"/>
<polygon fill="midnightblue" stroke="midnightblue" points="655.57,-118.72 665.57,-115.22 655.57,-111.72 655.57,-118.72"/>
</g>
<!-- Node6&#45;&gt;Node2 -->
<g id="edge19" class="edge">
<title>Node6&#45;&gt;Node2</title>
<path fill="none" stroke="midnightblue" d="M237.34,-167.79C271.67,-196.07 378.58,-278.97 484,-307.22 546.68,-324.02 566.52,-320.69 630,-307.22 653.14,-302.31 677.56,-291.02 695.12,-281.68"/>
<polygon fill="midnightblue" stroke="midnightblue" points="697.03,-284.63 704.11,-276.75 693.66,-278.49 697.03,-284.63"/>
</g>
<!-- Node6&#45;&gt;Node5 -->
<g id="edge20" class="edge">
<title>Node6&#45;&gt;Node5</title>
<path fill="none" stroke="midnightblue" d="M255.77,-148.63C303.37,-133.86 399.83,-106.19 484,-96.22 548.44,-88.59 565.46,-89.48 630,-96.22 644.31,-97.71 659.7,-100.51 673.64,-103.51"/>
<polygon fill="midnightblue" stroke="midnightblue" points="672.97,-106.94 683.49,-105.71 674.5,-100.11 672.97,-106.94"/>
</g>
<!-- Node7 -->
<g id="node7" class="node">
<title>Node7</title>
<g id="a_node7"><a xlink:href="class_t_track.html#a20a28eaf0308f7aedcfc78ba9eeadea9" target="_top" xlink:title="Examine TrackVector, InactiveTrackVector and TextVector, and set the values that indicate the extent ...">
<polygon fill="white" stroke="black" points="323,-162.72 323,-181.72 448,-181.72 448,-162.72 323,-162.72"/>
<text text-anchor="middle" x="385.5" y="-169.72" font-family="Helvetica,sans-Serif" font-size="10.00">TTrack::CalcHLocMinEtc</text>
</a>
</g>
</g>
<!-- Node6&#45;&gt;Node7 -->
<g id="edge9" class="edge">
<title>Node6&#45;&gt;Node7</title>
<path fill="none" stroke="midnightblue" d="M287.28,-163.63C295.67,-164.37 304.34,-165.14 312.9,-165.9"/>
<polygon fill="midnightblue" stroke="midnightblue" points="312.59,-169.38 322.86,-166.77 313.21,-162.41 312.59,-169.38"/>
</g>
<!-- Node7&#45;&gt;Node2 -->
<g id="edge10" class="edge">
<title>Node7&#45;&gt;Node2</title>
<path fill="none" stroke="midnightblue" d="M391.13,-182.01C402.81,-205.38 435.98,-264.1 484,-286.22 550.4,-316.8 638.44,-295.72 686.01,-280"/>
<polygon fill="midnightblue" stroke="midnightblue" points="687.2,-283.3 695.53,-276.75 684.93,-276.67 687.2,-283.3"/>
</g>
<!-- Node7&#45;&gt;Node4 -->
<g id="edge14" class="edge">
<title>Node7&#45;&gt;Node4</title>
<path fill="none" stroke="midnightblue" d="M414.65,-162.65C434.12,-156.05 460.62,-147.07 484,-139.22 494.9,-135.56 506.74,-131.6 517.61,-127.98"/>
<polygon fill="midnightblue" stroke="midnightblue" points="518.88,-131.25 527.26,-124.77 516.67,-124.6 518.88,-131.25"/>
</g>
<!-- Node7&#45;&gt;Node5 -->
<g id="edge15" class="edge">
<title>Node7&#45;&gt;Node5</title>
<path fill="none" stroke="midnightblue" d="M448.2,-163.52C497.51,-156.34 568.35,-145.53 630,-134.22 642.03,-132.01 654.91,-129.43 667.06,-126.89"/>
<polygon fill="midnightblue" stroke="midnightblue" points="668,-130.26 677.06,-124.77 666.55,-123.42 668,-130.26"/>
</g>
<!-- Node8 -->
<g id="node8" class="node">
<title>Node8</title>
<g id="a_node8"><a xlink:href="class_t_text_handler.html#ac478536f458d9cda8a841953672f6525" target="_top" xlink:title="return the text item at position &#39;At&#39; in TextVector (carries out range checking)">
<polygon fill="white" stroke="black" points="496.5,-257.72 496.5,-276.72 617.5,-276.72 617.5,-257.72 496.5,-257.72"/>
<text text-anchor="middle" x="557" y="-264.72" font-family="Helvetica,sans-Serif" font-size="10.00">TTextHandler::TextPtrAt</text>
</a>
</g>
</g>
<!-- Node7&#45;&gt;Node8 -->
<g id="edge11" class="edge">
<title>Node7&#45;&gt;Node8</title>
<path fill="none" stroke="midnightblue" d="M397.17,-181.72C414.36,-196.62 449.75,-225.58 484,-243.22 492.34,-247.52 501.62,-251.28 510.66,-254.48"/>
<polygon fill="midnightblue" stroke="midnightblue" points="509.73,-257.86 520.33,-257.72 511.96,-251.22 509.73,-257.86"/>
</g>
<!-- Node9 -->
<g id="node9" class="node">
<title>Node9</title>
<g id="a_node9"><a xlink:href="class_t_track.html#a1092232428ee654facf8f53340c13f74" target="_top" xlink:title="A range&#45;checked version of UserGraphicVector.at(At)">
<polygon fill="white" stroke="black" points="485,-181.72 485,-200.72 629,-200.72 629,-181.72 485,-181.72"/>
<text text-anchor="middle" x="557" y="-188.72" font-family="Helvetica,sans-Serif" font-size="10.00">TTrack::UserGraphicVectorAt</text>
</a>
</g>
</g>
<!-- Node7&#45;&gt;Node9 -->
<g id="edge16" class="edge">
<title>Node7&#45;&gt;Node9</title>
<path fill="none" stroke="midnightblue" d="M448.17,-179.13C456.84,-180.1 465.85,-181.11 474.81,-182.12"/>
<polygon fill="midnightblue" stroke="midnightblue" points="474.56,-185.61 484.89,-183.25 475.34,-178.66 474.56,-185.61"/>
</g>
<!-- Node8&#45;&gt;Node2 -->
<g id="edge12" class="edge">
<title>Node8&#45;&gt;Node2</title>
<path fill="none" stroke="midnightblue" d="M617.86,-267.22C630.11,-267.22 643.06,-267.22 655.47,-267.22"/>
<polygon fill="midnightblue" stroke="midnightblue" points="655.74,-270.72 665.74,-267.22 655.74,-263.72 655.74,-270.72"/>
</g>
<!-- Node8&#45;&gt;Node5 -->
<g id="edge13" class="edge">
<title>Node8&#45;&gt;Node5</title>
<path fill="none" stroke="midnightblue" d="M571.2,-257.66C586,-246.75 610.47,-228.08 630,-210.22 658.01,-184.59 687.81,-151.93 705.12,-132.35"/>
<polygon fill="midnightblue" stroke="midnightblue" points="707.77,-134.64 711.73,-124.82 702.5,-130.02 707.77,-134.64"/>
</g>
<!-- Node9&#45;&gt;Node2 -->
<g id="edge17" class="edge">
<title>Node9&#45;&gt;Node2</title>
<path fill="none" stroke="midnightblue" d="M591.15,-200.72C603.55,-204.68 617.62,-209.65 630,-215.22 653.68,-225.88 679.18,-240.98 696.97,-252.17"/>
<polygon fill="midnightblue" stroke="midnightblue" points="695.2,-255.2 705.52,-257.62 698.97,-249.29 695.2,-255.2"/>
</g>
<!-- Node9&#45;&gt;Node5 -->
<g id="edge18" class="edge">
<title>Node9&#45;&gt;Node5</title>
<path fill="none" stroke="midnightblue" d="M591.15,-181.72C603.55,-177.76 617.62,-172.79 630,-167.22 653.68,-156.56 679.18,-141.45 696.97,-130.27"/>
<polygon fill="midnightblue" stroke="midnightblue" points="698.97,-133.14 705.52,-124.82 695.2,-127.24 698.97,-133.14"/>
</g>
</g>
</svg>
