<?xml version="1.0" encoding="UTF-8" standalone="no"?>
<!DOCTYPE svg PUBLIC "-//W3C//DTD SVG 1.1//EN"
 "http://www.w3.org/Graphics/SVG/1.1/DTD/svg11.dtd">
<!-- Generated by graphviz version 2.44.1 (20200629.0800)
 -->
<!-- Title: TTrain::UnplotTrainInZoomOutMode Pages: 1 -->
<!--zoomable 204 -->
<svg id="main" version="1.1" xmlns="http://www.w3.org/2000/svg" xmlns:xlink="http://www.w3.org/1999/xlink" xml:space="preserve" onload="init(evt)">
<style type="text/css"><![CDATA[
.edge:hover path { stroke: red; }
.edge:hover polygon { stroke: red; fill: red; }
]]></style>
<script type="text/javascript"><![CDATA[
var edges = document.getElementsByTagName('g');
if (edges && edges.length) {
  for (var i=0;i<edges.length;i++) {
    if (edges[i].id.substr(0,4)=='edge') {
      edges[i].setAttribute('class','edge');
    }
  }
}
]]></script>
        <defs>
                <circle id="rim" cx="0" cy="0" r="7"/>
                <circle id="rim2" cx="0" cy="0" r="3.5"/>
                <g id="zoomPlus">
                        <use xlink:href="#rim" fill="#404040">
                                <set attributeName="fill" to="#808080" begin="zoomplus.mouseover" end="zoomplus.mouseout"/>
                        </use>
                        <path d="M-4,0h8M0,-4v8" fill="none" stroke="white" stroke-width="1.5" pointer-events="none"/>
                </g>
                <g id="zoomMin">
                        <use xlink:href="#rim" fill="#404040">
                                <set attributeName="fill" to="#808080" begin="zoomminus.mouseover" end="zoomminus.mouseout"/>
                        </use>
                        <path d="M-4,0h8" fill="none" stroke="white" stroke-width="1.5" pointer-events="none"/>
                </g>
                <g id="dirArrow">
                        <path fill="none" stroke="white" stroke-width="1.5" d="M0,-3.0v7 M-2.5,-0.5L0,-3.0L2.5,-0.5"/>
                </g>
               <g id="resetDef">
                       <use xlink:href="#rim2" fill="#404040">
                               <set attributeName="fill" to="#808080" begin="reset.mouseover" end="reset.mouseout"/>
                       </use>
               </g>
        </defs>

<script type="text/javascript">
var viewWidth = 806;
var viewHeight = 204;
var sectionId = 'dynsection-117';
</script>
<script xlink:href="svgpan.js"/>
<svg id="graph" class="graph">
<g id="viewport">
<title>TTrain::UnplotTrainInZoomOutMode</title>
<polygon fill="white" stroke="transparent" points="-4,4 -4,-199.5 802,-199.5 802,4 -4,4"/>
<!-- Node1 -->
<g id="node1" class="node">
<title>Node1</title>
<g id="a_node1"><a xlink:title="Unplot train from screen in zoomed&#45;out mode.">
<polygon fill="#bfbfbf" stroke="black" points="669,-55 669,-85 798,-85 798,-55 669,-55"/>
<text text-anchor="start" x="677" y="-73" font-family="Helvetica,sans-Serif" font-size="10.00">TTrain::UnplotTrainInZoom</text>
<text text-anchor="middle" x="733.5" y="-62" font-family="Helvetica,sans-Serif" font-size="10.00">OutMode</text>
</a>
</g>
</g>
<!-- Node2 -->
<g id="node2" class="node">
<title>Node2</title>
<g id="a_node2"><a xlink:href="class_t_train.html#afd5d7ea375b8a878c31d81841acad159" target="_top" xlink:title="This is a housekeeping function to delete train heap objects (bitmaps) explicitly rather than by usin...">
<polygon fill="white" stroke="black" points="524.5,-104.5 524.5,-123.5 622.5,-123.5 622.5,-104.5 524.5,-104.5"/>
<text text-anchor="middle" x="573.5" y="-111.5" font-family="Helvetica,sans-Serif" font-size="10.00">TTrain::DeleteTrain</text>
</a>
</g>
</g>
<!-- Node1&#45;&gt;Node2 -->
<g id="edge1" class="edge">
<title>Node1&#45;&gt;Node2</title>
<path fill="none" stroke="midnightblue" d="M668.67,-87.77C648.24,-93.47 626.39,-99.55 608.89,-104.42"/>
<polygon fill="midnightblue" stroke="midnightblue" points="669.87,-91.07 678.57,-85.02 667.99,-84.33 669.87,-91.07"/>
</g>
<!-- Node9 -->
<g id="node9" class="node">
<title>Node9</title>
<g id="a_node9"><a xlink:href="class_t_train_controller.html#a2f9cd71b60b45de8380f5fad7bbd5dd8" target="_top" xlink:title="Plots all trains on screen in zoomed&#45;out mode, state of &#39;Flash&#39; determines whether the flashing train...">
<polygon fill="white" stroke="black" points="514,-33 514,-63 633,-63 633,-33 514,-33"/>
<text text-anchor="start" x="522" y="-51" font-family="Helvetica,sans-Serif" font-size="10.00">TTrainController::PlotAll</text>
<text text-anchor="middle" x="573.5" y="-40" font-family="Helvetica,sans-Serif" font-size="10.00">TrainsInZoomOutMode</text>
</a>
</g>
</g>
<!-- Node1&#45;&gt;Node9 -->
<g id="edge8" class="edge">
<title>Node1&#45;&gt;Node9</title>
<path fill="none" stroke="midnightblue" d="M658.7,-59.72C650.15,-58.53 641.5,-57.33 633.19,-56.17"/>
<polygon fill="midnightblue" stroke="midnightblue" points="658.3,-63.2 668.69,-61.12 659.27,-56.27 658.3,-63.2"/>
</g>
<!-- Node3 -->
<g id="node3" class="node">
<title>Node3</title>
<g id="a_node3"><a xlink:href="class_t_train_controller.html#a07d3d10bf08d4e916b652d676c917335" target="_top" xlink:title="called when exiting operation mode to delete all trains and timetable data etc">
<polygon fill="white" stroke="black" points="345,-165 345,-195 472,-195 472,-165 345,-165"/>
<text text-anchor="start" x="353" y="-183" font-family="Helvetica,sans-Serif" font-size="10.00">TTrainController::Finished</text>
<text text-anchor="middle" x="408.5" y="-172" font-family="Helvetica,sans-Serif" font-size="10.00">Operation</text>
</a>
</g>
</g>
<!-- Node2&#45;&gt;Node3 -->
<g id="edge2" class="edge">
<title>Node2&#45;&gt;Node3</title>
<path fill="none" stroke="midnightblue" d="M541.92,-127.82C523.51,-136 499.54,-146.4 478,-155 469.65,-158.33 460.67,-161.74 452.04,-164.92"/>
<polygon fill="midnightblue" stroke="midnightblue" points="543.55,-130.92 551.26,-123.65 540.7,-124.53 543.55,-130.92"/>
</g>
<!-- Node5 -->
<g id="node5" class="node">
<title>Node5</title>
<g id="a_node5"><a xlink:href="class_t_train_controller.html#a20a1576dea1d86ed78fc5e9f46343481" target="_top" xlink:title="called every clock tick to introduce new trains and update existing trains">
<polygon fill="white" stroke="black" points="346,-126.5 346,-145.5 471,-145.5 471,-126.5 346,-126.5"/>
<text text-anchor="middle" x="408.5" y="-133.5" font-family="Helvetica,sans-Serif" font-size="10.00">TTrainController::Operate</text>
</a>
</g>
</g>
<!-- Node2&#45;&gt;Node5 -->
<g id="edge4" class="edge">
<title>Node2&#45;&gt;Node5</title>
<path fill="none" stroke="midnightblue" d="M514.45,-121.84C500.39,-123.73 485.32,-125.77 471.11,-127.68"/>
<polygon fill="midnightblue" stroke="midnightblue" points="515.03,-125.29 524.48,-120.48 514.1,-118.35 515.03,-125.29"/>
</g>
<!-- Node8 -->
<g id="node8" class="node">
<title>Node8</title>
<g id="a_node8"><a xlink:href="class_t_train_controller.html#ad6cbfb50d0fddf2c6b43a1604da3b746" target="_top" xlink:title="Destructor.">
<polygon fill="white" stroke="black" points="363.5,-77 363.5,-107 453.5,-107 453.5,-77 363.5,-77"/>
<text text-anchor="start" x="371.5" y="-95" font-family="Helvetica,sans-Serif" font-size="10.00">TTrainController::</text>
<text text-anchor="middle" x="408.5" y="-84" font-family="Helvetica,sans-Serif" font-size="10.00">~TTrainController</text>
</a>
</g>
</g>
<!-- Node2&#45;&gt;Node8 -->
<g id="edge7" class="edge">
<title>Node2&#45;&gt;Node8</title>
<path fill="none" stroke="midnightblue" d="M514.51,-106.17C494.46,-103.47 472.32,-100.48 453.56,-97.95"/>
<polygon fill="midnightblue" stroke="midnightblue" points="514.1,-109.65 524.48,-107.52 515.03,-102.71 514.1,-109.65"/>
</g>
<!-- Node4 -->
<g id="node4" class="node">
<title>Node4</title>
<g id="a_node4"><a xlink:href="class_t_interface.html#a3e59d6f1f39ffe34a9d6e7bf930acbff" target="_top" xlink:title=" ">
<polygon fill="white" stroke="black" points="179,-165 179,-195 303,-195 303,-165 179,-165"/>
<text text-anchor="start" x="187" y="-183" font-family="Helvetica,sans-Serif" font-size="10.00">TInterface::ExitOperation</text>
<text text-anchor="middle" x="241" y="-172" font-family="Helvetica,sans-Serif" font-size="10.00">ButtonClick</text>
</a>
</g>
</g>
<!-- Node3&#45;&gt;Node4 -->
<g id="edge3" class="edge">
<title>Node3&#45;&gt;Node4</title>
<path fill="none" stroke="midnightblue" d="M334.84,-180C324.22,-180 313.37,-180 303.01,-180"/>
<polygon fill="midnightblue" stroke="midnightblue" points="334.93,-183.5 344.93,-180 334.93,-176.5 334.93,-183.5"/>
</g>
<!-- Node6 -->
<g id="node6" class="node">
<title>Node6</title>
<g id="a_node6"><a xlink:href="class_t_interface.html#a6139ffb52492eb89e5487a8a3cd647b5" target="_top" xlink:title="The main loop, called every clock tick via MasterClockTimer.">
<polygon fill="white" stroke="black" points="181.5,-82.5 181.5,-101.5 300.5,-101.5 300.5,-82.5 181.5,-82.5"/>
<text text-anchor="middle" x="241" y="-89.5" font-family="Helvetica,sans-Serif" font-size="10.00">TInterface::ClockTimer2</text>
</a>
</g>
</g>
<!-- Node5&#45;&gt;Node6 -->
<g id="edge5" class="edge">
<title>Node5&#45;&gt;Node6</title>
<path fill="none" stroke="midnightblue" d="M361.78,-123.85C335.3,-116.8 302.44,-108.07 277.84,-101.53"/>
<polygon fill="midnightblue" stroke="midnightblue" points="361.03,-127.27 371.59,-126.45 362.82,-120.5 361.03,-127.27"/>
</g>
<!-- Node7 -->
<g id="node7" class="node">
<title>Node7</title>
<g id="a_node7"><a xlink:href="class_t_interface.html#ace30a12d923fc7fb489afabb0a09aa4f" target="_top" xlink:title=" ">
<polygon fill="white" stroke="black" points="0,-82.5 0,-101.5 143,-101.5 143,-82.5 0,-82.5"/>
<text text-anchor="middle" x="71.5" y="-89.5" font-family="Helvetica,sans-Serif" font-size="10.00">TInterface::MasterClockTimer</text>
</a>
</g>
</g>
<!-- Node6&#45;&gt;Node7 -->
<g id="edge6" class="edge">
<title>Node6&#45;&gt;Node7</title>
<path fill="none" stroke="midnightblue" d="M171.12,-92C161.89,-92 152.41,-92 143.14,-92"/>
<polygon fill="midnightblue" stroke="midnightblue" points="171.42,-95.5 181.42,-92 171.42,-88.5 171.42,-95.5"/>
</g>
<!-- Node9&#45;&gt;Node6 -->
<g id="edge9" class="edge">
<title>Node9&#45;&gt;Node6</title>
<path fill="none" stroke="midnightblue" d="M503.64,-51.05C456.95,-53.82 393.97,-58.9 339,-68 317.43,-71.57 293.6,-77.44 274.95,-82.48"/>
<polygon fill="midnightblue" stroke="midnightblue" points="503.86,-54.54 513.65,-50.48 503.46,-47.56 503.86,-54.54"/>
</g>
<!-- Node10 -->
<g id="node10" class="node">
<title>Node10</title>
<g id="a_node10"><a xlink:href="class_t_interface.html#a08305797df7dfbdd16b3e8900c33e0bc" target="_top" xlink:title=" ">
<polygon fill="white" stroke="black" points="339,-0.5 339,-19.5 478,-19.5 478,-0.5 339,-0.5"/>
<text text-anchor="middle" x="408.5" y="-7.5" font-family="Helvetica,sans-Serif" font-size="10.00">TInterface::ZoomButtonClick</text>
</a>
</g>
</g>
<!-- Node9&#45;&gt;Node10 -->
<g id="edge10" class="edge">
<title>Node9&#45;&gt;Node10</title>
<path fill="none" stroke="midnightblue" d="M503.69,-31.96C485.54,-27.73 466.54,-23.3 450.4,-19.53"/>
<polygon fill="midnightblue" stroke="midnightblue" points="503.12,-35.42 513.65,-34.28 504.71,-28.6 503.12,-35.42"/>
</g>
</g>
</svg>
        <g id="navigator" transform="translate(0 0)" fill="#404254">
                <rect fill="#f2f5e9" fill-opacity="0.5" stroke="#606060" stroke-width=".5" x="0" y="0" width="60" height="60"/>
                <use id="zoomplus" xlink:href="#zoomPlus" x="17" y="9" onmousedown="handleZoom(evt,'in')"/>
                <use id="zoomminus" xlink:href="#zoomMin" x="42" y="9" onmousedown="handleZoom(evt,'out')"/>
                <use id="reset" xlink:href="#resetDef" x="30" y="36" onmousedown="handleReset()"/>
                <g id="arrowUp" xlink:href="#dirArrow" transform="translate(30 24)" onmousedown="handlePan(0,-1)">
                  <use xlink:href="#rim" fill="#404040">
                        <set attributeName="fill" to="#808080" begin="arrowUp.mouseover" end="arrowUp.mouseout"/>
                  </use>
                  <path fill="none" stroke="white" stroke-width="1.5" d="M0,-3.0v7 M-2.5,-0.5L0,-3.0L2.5,-0.5"/>
                </g>
                <g id="arrowRight" xlink:href="#dirArrow" transform="rotate(90) translate(36 -43)" onmousedown="handlePan(1,0)">
                  <use xlink:href="#rim" fill="#404040">
                        <set attributeName="fill" to="#808080" begin="arrowRight.mouseover" end="arrowRight.mouseout"/>
                  </use>
                  <path fill="none" stroke="white" stroke-width="1.5" d="M0,-3.0v7 M-2.5,-0.5L0,-3.0L2.5,-0.5"/>
                </g>
                <g id="arrowDown" xlink:href="#dirArrow" transform="rotate(180) translate(-30 -48)" onmousedown="handlePan(0,1)">
                  <use xlink:href="#rim" fill="#404040">
                        <set attributeName="fill" to="#808080" begin="arrowDown.mouseover" end="arrowDown.mouseout"/>
                  </use>
                  <path fill="none" stroke="white" stroke-width="1.5" d="M0,-3.0v7 M-2.5,-0.5L0,-3.0L2.5,-0.5"/>
                </g>
                <g id="arrowLeft" xlink:href="#dirArrow" transform="rotate(270) translate(-36 17)" onmousedown="handlePan(-1,0)">
                  <use xlink:href="#rim" fill="#404040">
                        <set attributeName="fill" to="#808080" begin="arrowLeft.mouseover" end="arrowLeft.mouseout"/>
                  </use>
                  <path fill="none" stroke="white" stroke-width="1.5" d="M0,-3.0v7 M-2.5,-0.5L0,-3.0L2.5,-0.5"/>
                </g>
        </g>
        <svg viewBox="0 0 15 15" width="100%" height="30px" preserveAspectRatio="xMaxYMin meet">
         <g id="arrow_out" transform="scale(0.3 0.3)">
          <a xlink:href="class_t_train_a439d2809c762a0981908a3b8a49520f2_icgraph_org.svg" target="_base">
           <rect id="button" ry="5" rx="5" y="6" x="6" height="38" width="38"
                fill="#f2f5e9" fill-opacity="0.5" stroke="#606060" stroke-width="1.0"/>
           <path id="arrow"
             d="M 11.500037,31.436501 C 11.940474,20.09759 22.043105,11.32322 32.158766,21.979434 L 37.068811,17.246167 C 37.068811,17.246167 37.088388,32 37.088388,32 L 22.160133,31.978069 C 22.160133,31.978069 26.997745,27.140456 26.997745,27.140456 C 18.528582,18.264221 13.291696,25.230495 11.500037,31.436501 z"
             style="fill:#404040;"/>
          </a>
         </g>
        </svg>
</svg>
