<?xml version="1.0" encoding="UTF-8" standalone="no"?>
<!DOCTYPE svg PUBLIC "-//W3C//DTD SVG 1.1//EN"
 "http://www.w3.org/Graphics/SVG/1.1/DTD/svg11.dtd">
<!-- Generated by graphviz version 2.44.1 (20200629.0800)
 -->
<!-- Title: TTrain::SignallerChangeTrainDirection Pages: 1 -->
<svg width="320pt" height="39pt"
 viewBox="0.00 0.00 320.00 39.00" xmlns="http://www.w3.org/2000/svg" xmlns:xlink="http://www.w3.org/1999/xlink">
<g id="graph0" class="graph" transform="scale(1 1) rotate(0) translate(4 35)">
<title>TTrain::SignallerChangeTrainDirection</title>
<polygon fill="white" stroke="transparent" points="-4,4 -4,-35 316,-35 316,4 -4,4"/>
<!-- Node1 -->
<g id="node1" class="node">
<title>Node1</title>
<g id="a_node1"><a xlink:title="Unplots &amp; replots train, which checks for facing signal and sets StoppedAtSignal if req&#39;d.">
<polygon fill="#bfbfbf" stroke="black" points="172,-0.5 172,-30.5 312,-30.5 312,-0.5 172,-0.5"/>
<text text-anchor="start" x="180" y="-18.5" font-family="Helvetica,sans-Serif" font-size="10.00">TTrain::SignallerChangeTrain</text>
<text text-anchor="middle" x="242" y="-7.5" font-family="Helvetica,sans-Serif" font-size="10.00">Direction</text>
</a>
</g>
</g>
<!-- Node2 -->
<g id="node2" class="node">
<title>Node2</title>
<g id="a_node2"><a xlink:href="class_t_interface.html#aaaf32c3c815553f7ba70698e0f0071bb" target="_top" xlink:title=" ">
<polygon fill="white" stroke="black" points="0,-0.5 0,-30.5 136,-30.5 136,-0.5 0,-0.5"/>
<text text-anchor="start" x="8" y="-18.5" font-family="Helvetica,sans-Serif" font-size="10.00">TInterface::ChangeDirection</text>
<text text-anchor="middle" x="68" y="-7.5" font-family="Helvetica,sans-Serif" font-size="10.00">MenuItemClick</text>
</a>
</g>
</g>
<!-- Node1&#45;&gt;Node2 -->
<g id="edge1" class="edge">
<title>Node1&#45;&gt;Node2</title>
<path fill="none" stroke="midnightblue" d="M161.35,-15.5C152.94,-15.5 144.45,-15.5 136.21,-15.5"/>
<polygon fill="midnightblue" stroke="midnightblue" points="161.54,-19 171.54,-15.5 161.54,-12 161.54,-19"/>
</g>
</g>
</svg>
