<?xml version="1.0" encoding="UTF-8" standalone="no"?>
<!DOCTYPE svg PUBLIC "-//W3C//DTD SVG 1.1//EN"
 "http://www.w3.org/Graphics/SVG/1.1/DTD/svg11.dtd">
<!-- Generated by graphviz version 2.44.1 (20200629.0800)
 -->
<!-- Title: TTrain::IsTrainIDOnBridgeTrackPos01 Pages: 1 -->
<svg width="439pt" height="75pt"
 viewBox="0.00 0.00 439.00 75.00" xmlns="http://www.w3.org/2000/svg" xmlns:xlink="http://www.w3.org/1999/xlink">
<g id="graph0" class="graph" transform="scale(1 1) rotate(0) translate(4 71)">
<title>TTrain::IsTrainIDOnBridgeTrackPos01</title>
<polygon fill="white" stroke="transparent" points="-4,4 -4,-71 435,-71 435,4 -4,4"/>
<!-- Node1 -->
<g id="node1" class="node">
<title>Node1</title>
<g id="a_node1"><a xlink:title="True if train is on a bridge on trackpos 0 &amp; 1.">
<polygon fill="#bfbfbf" stroke="black" points="0,-23 0,-53 127,-53 127,-23 0,-23"/>
<text text-anchor="start" x="8" y="-41" font-family="Helvetica,sans-Serif" font-size="10.00">TTrain::IsTrainIDOnBridge</text>
<text text-anchor="middle" x="63.5" y="-30" font-family="Helvetica,sans-Serif" font-size="10.00">TrackPos01</text>
</a>
</g>
</g>
<!-- Node2 -->
<g id="node2" class="node">
<title>Node2</title>
<g id="a_node2"><a xlink:href="class_t_utilities.html#ae1eddca13cc3c492839e131f40ec21c0" target="_top" xlink:title="&lt; specifies whether no delays or minor, moderate or major random delays are to be applied">
<polygon fill="white" stroke="black" points="321,-47.5 321,-66.5 431,-66.5 431,-47.5 321,-47.5"/>
<text text-anchor="middle" x="376" y="-54.5" font-family="Helvetica,sans-Serif" font-size="10.00">TUtilities::CallLogPop</text>
</a>
</g>
</g>
<!-- Node1&#45;&gt;Node2 -->
<g id="edge1" class="edge">
<title>Node1&#45;&gt;Node2</title>
<path fill="none" stroke="midnightblue" d="M127.03,-51.91C138.92,-54.03 151.3,-55.88 163,-57 212.42,-61.72 268.61,-61.47 310.72,-60.17"/>
<polygon fill="midnightblue" stroke="midnightblue" points="310.96,-63.67 320.84,-59.83 310.73,-56.67 310.96,-63.67"/>
</g>
<!-- Node3 -->
<g id="node3" class="node">
<title>Node3</title>
<g id="a_node3"><a xlink:href="class_t_utilities.html#a34bd6bb5305bc29afdf424f6d35a921c" target="_top" xlink:title="creates a string of the form &#39;hh:mm:ss&#39; for use in call &amp; event logging">
<polygon fill="white" stroke="black" points="321,-0.5 321,-19.5 431,-19.5 431,-0.5 321,-0.5"/>
<text text-anchor="middle" x="376" y="-7.5" font-family="Helvetica,sans-Serif" font-size="10.00">TUtilities::TimeStamp</text>
</a>
</g>
</g>
<!-- Node1&#45;&gt;Node3 -->
<g id="edge2" class="edge">
<title>Node1&#45;&gt;Node3</title>
<path fill="none" stroke="midnightblue" d="M127.08,-24.49C138.96,-22.33 151.32,-20.37 163,-19 212.35,-13.22 268.55,-11.04 310.68,-10.26"/>
<polygon fill="midnightblue" stroke="midnightblue" points="310.86,-13.76 320.8,-10.09 310.75,-6.76 310.86,-13.76"/>
</g>
<!-- Node4 -->
<g id="node4" class="node">
<title>Node4</title>
<g id="a_node4"><a xlink:href="class_t_track.html#ad377e5a1f152f2e89832c0f9bcfd261f" target="_top" xlink:title="A range&#45;checked version of TrackVector.at(At)">
<polygon fill="white" stroke="black" points="163,-28.5 163,-47.5 285,-47.5 285,-28.5 163,-28.5"/>
<text text-anchor="middle" x="224" y="-35.5" font-family="Helvetica,sans-Serif" font-size="10.00">TTrack::TrackElementAt</text>
</a>
</g>
</g>
<!-- Node1&#45;&gt;Node4 -->
<g id="edge3" class="edge">
<title>Node1&#45;&gt;Node4</title>
<path fill="none" stroke="midnightblue" d="M127.14,-38C135.51,-38 144.13,-38 152.62,-38"/>
<polygon fill="midnightblue" stroke="midnightblue" points="152.88,-41.5 162.88,-38 152.88,-34.5 152.88,-41.5"/>
</g>
<!-- Node4&#45;&gt;Node2 -->
<g id="edge4" class="edge">
<title>Node4&#45;&gt;Node2</title>
<path fill="none" stroke="midnightblue" d="M285.15,-45.62C293.49,-46.68 302.09,-47.76 310.51,-48.83"/>
<polygon fill="midnightblue" stroke="midnightblue" points="310.3,-52.33 320.66,-50.12 311.18,-45.39 310.3,-52.33"/>
</g>
<!-- Node4&#45;&gt;Node3 -->
<g id="edge5" class="edge">
<title>Node4&#45;&gt;Node3</title>
<path fill="none" stroke="midnightblue" d="M276.2,-28.44C288.39,-26.17 301.51,-23.72 314.09,-21.37"/>
<polygon fill="midnightblue" stroke="midnightblue" points="314.84,-24.79 324.03,-19.51 313.56,-17.91 314.84,-24.79"/>
</g>
</g>
</svg>
