<?xml version="1.0" encoding="UTF-8" standalone="no"?>
<!DOCTYPE svg PUBLIC "-//W3C//DTD SVG 1.1//EN"
 "http://www.w3.org/Graphics/SVG/1.1/DTD/svg11.dtd">
<!-- Generated by graphviz version 2.44.1 (20200629.0800)
 -->
<!-- Title: TTrain::SaveOneSessionTrain Pages: 1 -->
<svg width="473pt" height="218pt"
 viewBox="0.00 0.00 473.00 218.00" xmlns="http://www.w3.org/2000/svg" xmlns:xlink="http://www.w3.org/1999/xlink">
<g id="graph0" class="graph" transform="scale(1 1) rotate(0) translate(4 214)">
<title>TTrain::SaveOneSessionTrain</title>
<polygon fill="white" stroke="transparent" points="-4,4 -4,-214 469,-214 469,4 -4,4"/>
<!-- Node1 -->
<g id="node1" class="node">
<title>Node1</title>
<g id="a_node1"><a xlink:title="Data for a single train is saved to a session file.">
<polygon fill="#bfbfbf" stroke="black" points="0,-95.5 0,-114.5 144,-114.5 144,-95.5 0,-95.5"/>
<text text-anchor="middle" x="72" y="-102.5" font-family="Helvetica,sans-Serif" font-size="10.00">TTrain::SaveOneSessionTrain</text>
</a>
</g>
</g>
<!-- Node2 -->
<g id="node2" class="node">
<title>Node2</title>
<g id="a_node2"><a xlink:href="class_t_utilities.html#ae1eddca13cc3c492839e131f40ec21c0" target="_top" xlink:title="pops the last entry off the call stack, throws an error if called when empty">
<polygon fill="white" stroke="black" points="188.5,-190.5 188.5,-209.5 298.5,-209.5 298.5,-190.5 188.5,-190.5"/>
<text text-anchor="middle" x="243.5" y="-197.5" font-family="Helvetica,sans-Serif" font-size="10.00">TUtilities::CallLogPop</text>
</a>
</g>
</g>
<!-- Node1&#45;&gt;Node2 -->
<g id="edge1" class="edge">
<title>Node1&#45;&gt;Node2</title>
<path fill="none" stroke="midnightblue" d="M84.09,-114.75C102.71,-130.67 141.96,-162.32 180,-181 184.59,-183.25 189.5,-185.3 194.48,-187.15"/>
<polygon fill="midnightblue" stroke="midnightblue" points="193.48,-190.51 204.07,-190.45 195.76,-183.89 193.48,-190.51"/>
</g>
<!-- Node3 -->
<g id="node3" class="node">
<title>Node3</title>
<g id="a_node3"><a xlink:href="class_t_utilities.html#a06a211ebaa112f3fac0edc5b238ef876" target="_top" xlink:title="stores &#39;1&#39; if the bool is true or &#39;0&#39; if false to the file, then a CR">
<polygon fill="white" stroke="black" points="185.5,-152.5 185.5,-171.5 301.5,-171.5 301.5,-152.5 185.5,-152.5"/>
<text text-anchor="middle" x="243.5" y="-159.5" font-family="Helvetica,sans-Serif" font-size="10.00">TUtilities::SaveFileBool</text>
</a>
</g>
</g>
<!-- Node1&#45;&gt;Node3 -->
<g id="edge2" class="edge">
<title>Node1&#45;&gt;Node3</title>
<path fill="none" stroke="midnightblue" d="M98.83,-114.55C120.43,-122.45 152.1,-133.81 180,-143 186.51,-145.15 193.44,-147.34 200.21,-149.43"/>
<polygon fill="midnightblue" stroke="midnightblue" points="199.39,-152.84 209.97,-152.42 201.43,-146.15 199.39,-152.84"/>
</g>
<!-- Node4 -->
<g id="node4" class="node">
<title>Node4</title>
<g id="a_node4"><a xlink:href="class_t_utilities.html#a92b5adfb8ad3a937a8d208bfd90a5741" target="_top" xlink:title="converts the double value to a string (if double stored directly it is truncated to 6 digits) then st...">
<polygon fill="white" stroke="black" points="180,-114.5 180,-133.5 307,-133.5 307,-114.5 180,-114.5"/>
<text text-anchor="middle" x="243.5" y="-121.5" font-family="Helvetica,sans-Serif" font-size="10.00">TUtilities::SaveFileDouble</text>
</a>
</g>
</g>
<!-- Node1&#45;&gt;Node4 -->
<g id="edge3" class="edge">
<title>Node1&#45;&gt;Node4</title>
<path fill="none" stroke="midnightblue" d="M144.39,-113C152.75,-113.94 161.29,-114.9 169.67,-115.84"/>
<polygon fill="midnightblue" stroke="midnightblue" points="169.47,-119.34 179.8,-116.97 170.25,-112.38 169.47,-119.34"/>
</g>
<!-- Node5 -->
<g id="node5" class="node">
<title>Node5</title>
<g id="a_node5"><a xlink:href="class_t_utilities.html#a60531c6cb1a6a33dd71299d3a5b6cc21" target="_top" xlink:title="stores the string value to the file, then a &#39;0&#39; delimiter then a CR">
<polygon fill="white" stroke="black" points="343,-95.5 343,-114.5 465,-114.5 465,-95.5 343,-95.5"/>
<text text-anchor="middle" x="404" y="-102.5" font-family="Helvetica,sans-Serif" font-size="10.00">TUtilities::SaveFileString</text>
</a>
</g>
</g>
<!-- Node1&#45;&gt;Node5 -->
<g id="edge6" class="edge">
<title>Node1&#45;&gt;Node5</title>
<path fill="none" stroke="midnightblue" d="M144.2,-105C200.03,-105 277.32,-105 332.87,-105"/>
<polygon fill="midnightblue" stroke="midnightblue" points="332.98,-108.5 342.98,-105 332.98,-101.5 332.98,-108.5"/>
</g>
<!-- Node6 -->
<g id="node6" class="node">
<title>Node6</title>
<g id="a_node6"><a xlink:href="class_t_utilities.html#a86ed634e8a9d7ca534a324954f4a7a2f" target="_top" xlink:title="stores the int value to the file, then a CR">
<polygon fill="white" stroke="black" points="190,-38.5 190,-57.5 297,-57.5 297,-38.5 190,-38.5"/>
<text text-anchor="middle" x="243.5" y="-45.5" font-family="Helvetica,sans-Serif" font-size="10.00">TUtilities::SaveFileInt</text>
</a>
</g>
</g>
<!-- Node1&#45;&gt;Node6 -->
<g id="edge5" class="edge">
<title>Node1&#45;&gt;Node6</title>
<path fill="none" stroke="midnightblue" d="M101.37,-95.46C129.6,-85.97 173.11,-71.33 204.36,-60.83"/>
<polygon fill="midnightblue" stroke="midnightblue" points="205.67,-64.08 214.04,-57.57 203.44,-57.44 205.67,-64.08"/>
</g>
<!-- Node7 -->
<g id="node7" class="node">
<title>Node7</title>
<g id="a_node7"><a xlink:href="class_t_utilities.html#a34bd6bb5305bc29afdf424f6d35a921c" target="_top" xlink:title="creates a string of the form &#39;hh:mm:ss&#39; for use in call &amp; event logging">
<polygon fill="white" stroke="black" points="188.5,-0.5 188.5,-19.5 298.5,-19.5 298.5,-0.5 188.5,-0.5"/>
<text text-anchor="middle" x="243.5" y="-7.5" font-family="Helvetica,sans-Serif" font-size="10.00">TUtilities::TimeStamp</text>
</a>
</g>
</g>
<!-- Node1&#45;&gt;Node7 -->
<g id="edge7" class="edge">
<title>Node1&#45;&gt;Node7</title>
<path fill="none" stroke="midnightblue" d="M84.09,-95.25C102.71,-79.33 141.96,-47.68 180,-29 184.59,-26.75 189.5,-24.7 194.48,-22.85"/>
<polygon fill="midnightblue" stroke="midnightblue" points="195.76,-26.11 204.07,-19.55 193.48,-19.49 195.76,-26.11"/>
</g>
<!-- Node4&#45;&gt;Node5 -->
<g id="edge4" class="edge">
<title>Node4&#45;&gt;Node5</title>
<path fill="none" stroke="midnightblue" d="M307.14,-116.49C315.6,-115.48 324.32,-114.43 332.9,-113.4"/>
<polygon fill="midnightblue" stroke="midnightblue" points="333.37,-116.87 342.88,-112.21 332.53,-109.92 333.37,-116.87"/>
</g>
</g>
</svg>
