<?xml version="1.0" encoding="UTF-8" standalone="no"?>
<!DOCTYPE svg PUBLIC "-//W3C//DTD SVG 1.1//EN"
 "http://www.w3.org/Graphics/SVG/1.1/DTD/svg11.dtd">
<!-- Generated by graphviz version 2.44.1 (20200629.0800)
 -->
<!-- Title: TTrack::AddName Pages: 1 -->
<!--zoomable 415 -->
<svg id="main" version="1.1" xmlns="http://www.w3.org/2000/svg" xmlns:xlink="http://www.w3.org/1999/xlink" xml:space="preserve" onload="init(evt)">
<style type="text/css"><![CDATA[
.edge:hover path { stroke: red; }
.edge:hover polygon { stroke: red; fill: red; }
]]></style>
<script type="text/javascript"><![CDATA[
var edges = document.getElementsByTagName('g');
if (edges && edges.length) {
  for (var i=0;i<edges.length;i++) {
    if (edges[i].id.substr(0,4)=='edge') {
      edges[i].setAttribute('class','edge');
    }
  }
}
]]></script>
        <defs>
                <circle id="rim" cx="0" cy="0" r="7"/>
                <circle id="rim2" cx="0" cy="0" r="3.5"/>
                <g id="zoomPlus">
                        <use xlink:href="#rim" fill="#404040">
                                <set attributeName="fill" to="#808080" begin="zoomplus.mouseover" end="zoomplus.mouseout"/>
                        </use>
                        <path d="M-4,0h8M0,-4v8" fill="none" stroke="white" stroke-width="1.5" pointer-events="none"/>
                </g>
                <g id="zoomMin">
                        <use xlink:href="#rim" fill="#404040">
                                <set attributeName="fill" to="#808080" begin="zoomminus.mouseover" end="zoomminus.mouseout"/>
                        </use>
                        <path d="M-4,0h8" fill="none" stroke="white" stroke-width="1.5" pointer-events="none"/>
                </g>
                <g id="dirArrow">
                        <path fill="none" stroke="white" stroke-width="1.5" d="M0,-3.0v7 M-2.5,-0.5L0,-3.0L2.5,-0.5"/>
                </g>
               <g id="resetDef">
                       <use xlink:href="#rim2" fill="#404040">
                               <set attributeName="fill" to="#808080" begin="reset.mouseover" end="reset.mouseout"/>
                       </use>
               </g>
        </defs>

<script type="text/javascript">
var viewWidth = 617;
var viewHeight = 415;
var sectionId = 'dynsection-4';
</script>
<script xlink:href="svgpan.js"/>
<svg id="graph" class="graph">
<g id="viewport">
<title>TTrack::AddName</title>
<polygon fill="white" stroke="transparent" points="-4,4 -4,-411.12 613,-411.12 613,4 -4,4"/>
<!-- Node1 -->
<g id="node1" class="node">
<title>Node1</title>
<g id="a_node1"><a xlink:title="TrackElement.LocationName becomes &#39;Name&#39; (for active and inactive elements) and, if TrackElement is a...">
<polygon fill="#bfbfbf" stroke="black" points="0,-140.66 0,-159.66 95,-159.66 95,-140.66 0,-140.66"/>
<text text-anchor="middle" x="47.5" y="-147.66" font-family="Helvetica,sans-Serif" font-size="10.00">TTrack::AddName</text>
</a>
</g>
</g>
<!-- Node2 -->
<g id="node2" class="node">
<title>Node2</title>
<g id="a_node2"><a xlink:href="class_t_utilities.html#ae1eddca13cc3c492839e131f40ec21c0" target="_top" xlink:title="pops the last entry off the call stack, throws an error if called when empty">
<polygon fill="white" stroke="black" points="499,-233.66 499,-252.66 609,-252.66 609,-233.66 499,-233.66"/>
<text text-anchor="middle" x="554" y="-240.66" font-family="Helvetica,sans-Serif" font-size="10.00">TUtilities::CallLogPop</text>
</a>
</g>
</g>
<!-- Node1&#45;&gt;Node2 -->
<g id="edge1" class="edge">
<title>Node1&#45;&gt;Node2</title>
<path fill="none" stroke="midnightblue" d="M50.42,-159.99C56.63,-189.25 78.86,-276.64 131,-324.16 193.25,-380.89 226.07,-374.49 309,-389.16 376.4,-401.08 403.24,-422.52 463,-389.16 511.82,-361.9 537.44,-296.08 547.63,-262.93"/>
<polygon fill="midnightblue" stroke="midnightblue" points="551.08,-263.62 550.51,-253.04 544.35,-261.67 551.08,-263.62"/>
</g>
<!-- Node3 -->
<g id="node3" class="node">
<title>Node3</title>
<g id="a_node3"><a xlink:href="class_t_track.html#aa081ea276995a63dfa00fc0ace24f5c5" target="_top" xlink:title="Changes the LocationName in the name multimap to NewName at the location pointed to by the TLocationN...">
<polygon fill="white" stroke="black" points="312.5,-86.16 312.5,-116.16 459.5,-116.16 459.5,-86.16 312.5,-86.16"/>
<text text-anchor="start" x="320.5" y="-104.16" font-family="Helvetica,sans-Serif" font-size="10.00">TTrack::ChangeLocationName</text>
<text text-anchor="middle" x="386" y="-93.16" font-family="Helvetica,sans-Serif" font-size="10.00">MultiMapEntry</text>
</a>
</g>
</g>
<!-- Node1&#45;&gt;Node3 -->
<g id="edge2" class="edge">
<title>Node1&#45;&gt;Node3</title>
<path fill="none" stroke="midnightblue" d="M95.29,-143.34C148.69,-135.57 237.03,-122.7 302.15,-113.22"/>
<polygon fill="midnightblue" stroke="midnightblue" points="303,-116.63 312.39,-111.73 301.99,-109.71 303,-116.63"/>
</g>
<!-- Node4 -->
<g id="node4" class="node">
<title>Node4</title>
<g id="a_node4"><a xlink:href="class_t_utilities.html#a34bd6bb5305bc29afdf424f6d35a921c" target="_top" xlink:title="creates a string of the form &#39;hh:mm:ss&#39; for use in call &amp; event logging">
<polygon fill="white" stroke="black" points="499,-173.66 499,-192.66 609,-192.66 609,-173.66 499,-173.66"/>
<text text-anchor="middle" x="554" y="-180.66" font-family="Helvetica,sans-Serif" font-size="10.00">TUtilities::TimeStamp</text>
</a>
</g>
</g>
<!-- Node1&#45;&gt;Node4 -->
<g id="edge21" class="edge">
<title>Node1&#45;&gt;Node4</title>
<path fill="none" stroke="midnightblue" d="M55.97,-140.44C69.18,-123.99 98.39,-90.8 131,-74.16 263.19,-6.68 333.3,34 463,-38.16 511.62,-65.2 537.34,-130.58 547.59,-163.51"/>
<polygon fill="midnightblue" stroke="midnightblue" points="544.3,-164.73 550.49,-173.33 551.01,-162.75 544.3,-164.73"/>
</g>
<!-- Node5 -->
<g id="node5" class="node">
<title>Node5</title>
<g id="a_node5"><a xlink:href="class_t_track.html#aaf3f48b8df9877499aaf4c05f804426c" target="_top" xlink:title="Validity test.">
<polygon fill="white" stroke="black" points="131,-239.16 131,-269.16 273,-269.16 273,-239.16 131,-239.16"/>
<text text-anchor="start" x="139" y="-257.16" font-family="Helvetica,sans-Serif" font-size="10.00">TTrack::CheckLocationName</text>
<text text-anchor="middle" x="202" y="-246.16" font-family="Helvetica,sans-Serif" font-size="10.00">MultiMap</text>
</a>
</g>
</g>
<!-- Node1&#45;&gt;Node5 -->
<g id="edge5" class="edge">
<title>Node1&#45;&gt;Node5</title>
<path fill="none" stroke="midnightblue" d="M62.57,-159.75C87.01,-176.42 137.8,-211.06 170.6,-233.42"/>
<polygon fill="midnightblue" stroke="midnightblue" points="168.69,-236.36 178.93,-239.1 172.64,-230.58 168.69,-236.36"/>
</g>
<!-- Node6 -->
<g id="node6" class="node">
<title>Node6</title>
<g id="a_node6"><a xlink:href="class_t_track.html#a694370e3ec67d43da1d8333e06d9ebba" target="_top" xlink:title="Searches LocationNameMultiMap to check if the element pointed to by the TTrackVectorIterator has the ...">
<polygon fill="white" stroke="black" points="317.5,-349.16 317.5,-379.16 454.5,-379.16 454.5,-349.16 317.5,-349.16"/>
<text text-anchor="start" x="325.5" y="-367.16" font-family="Helvetica,sans-Serif" font-size="10.00">TTrack::FindNamedElement</text>
<text text-anchor="middle" x="386" y="-356.16" font-family="Helvetica,sans-Serif" font-size="10.00">InLocationNameMultiMap</text>
</a>
</g>
</g>
<!-- Node1&#45;&gt;Node6 -->
<g id="edge17" class="edge">
<title>Node1&#45;&gt;Node6</title>
<path fill="none" stroke="midnightblue" d="M52.04,-159.83C61.24,-183.69 88.24,-245.8 131,-279.16 182.35,-319.2 253.52,-340.87 307.47,-352.28"/>
<polygon fill="midnightblue" stroke="midnightblue" points="306.83,-355.73 317.33,-354.3 308.23,-348.87 306.83,-355.73"/>
</g>
<!-- Node9 -->
<g id="node9" class="node">
<title>Node9</title>
<g id="a_node9"><a xlink:href="class_t_track.html#aa0812972d1ae27198c5fbca8aa7b6134" target="_top" xlink:title="Returns the track vector position corresponding to the Hloc &amp; VLoc positions, FoundFlag indicates whe...">
<polygon fill="white" stroke="black" points="320.5,-135.16 320.5,-165.16 451.5,-165.16 451.5,-135.16 320.5,-135.16"/>
<text text-anchor="start" x="328.5" y="-153.16" font-family="Helvetica,sans-Serif" font-size="10.00">TTrack::GetVectorPosition</text>
<text text-anchor="middle" x="386" y="-142.16" font-family="Helvetica,sans-Serif" font-size="10.00">FromTrackMap</text>
</a>
</g>
</g>
<!-- Node1&#45;&gt;Node9 -->
<g id="edge18" class="edge">
<title>Node1&#45;&gt;Node9</title>
<path fill="none" stroke="midnightblue" d="M95.29,-150.16C150.91,-150.16 244.46,-150.16 310.18,-150.16"/>
<polygon fill="midnightblue" stroke="midnightblue" points="310.47,-153.66 320.47,-150.16 310.47,-146.66 310.47,-153.66"/>
</g>
<!-- Node10 -->
<g id="node10" class="node">
<title>Node10</title>
<g id="a_node10"><a xlink:href="class_t_track.html#ad377e5a1f152f2e89832c0f9bcfd261f" target="_top" xlink:title="A range&#45;checked version of TrackElement.at(At)">
<polygon fill="white" stroke="black" points="325,-47.66 325,-66.66 447,-66.66 447,-47.66 325,-47.66"/>
<text text-anchor="middle" x="386" y="-54.66" font-family="Helvetica,sans-Serif" font-size="10.00">TTrack::TrackElementAt</text>
</a>
</g>
</g>
<!-- Node1&#45;&gt;Node10 -->
<g id="edge22" class="edge">
<title>Node1&#45;&gt;Node10</title>
<path fill="none" stroke="midnightblue" d="M67.76,-140.5C84.23,-132.55 108.72,-121.44 131,-114.16 193.22,-93.81 266.34,-78.24 318.11,-68.55"/>
<polygon fill="midnightblue" stroke="midnightblue" points="318.98,-71.95 328.17,-66.69 317.7,-65.07 318.98,-71.95"/>
</g>
<!-- Node3&#45;&gt;Node2 -->
<g id="edge3" class="edge">
<title>Node3&#45;&gt;Node2</title>
<path fill="none" stroke="midnightblue" d="M448.36,-116.26C453.64,-119.03 458.63,-122.29 463,-126.16 491.02,-150.89 475.44,-173.14 499,-202.16 507.03,-212.05 517.93,-220.91 527.83,-227.84"/>
<polygon fill="midnightblue" stroke="midnightblue" points="525.92,-230.77 536.18,-233.41 529.81,-224.95 525.92,-230.77"/>
</g>
<!-- Node3&#45;&gt;Node4 -->
<g id="edge4" class="edge">
<title>Node3&#45;&gt;Node4</title>
<path fill="none" stroke="midnightblue" d="M438.77,-116.28C447.01,-119.22 455.34,-122.54 463,-126.16 487.78,-137.86 514.03,-155.11 531.74,-167.56"/>
<polygon fill="midnightblue" stroke="midnightblue" points="530,-170.62 540.17,-173.59 534.07,-164.93 530,-170.62"/>
</g>
<!-- Node5&#45;&gt;Node2 -->
<g id="edge6" class="edge">
<title>Node5&#45;&gt;Node2</title>
<path fill="none" stroke="midnightblue" d="M228.97,-269.36C249.81,-280.64 280.25,-295.07 309,-301.16 375.96,-315.33 397.34,-320.48 463,-301.16 490.49,-293.07 517.5,-273.69 534.65,-259.55"/>
<polygon fill="midnightblue" stroke="midnightblue" points="537.32,-261.88 542.66,-252.73 532.78,-256.55 537.32,-261.88"/>
</g>
<!-- Node5&#45;&gt;Node4 -->
<g id="edge16" class="edge">
<title>Node5&#45;&gt;Node4</title>
<path fill="none" stroke="midnightblue" d="M235.73,-239.07C256.34,-230.19 283.74,-219.49 309,-213.16 368.91,-198.13 439.05,-190.51 488.72,-186.72"/>
<polygon fill="midnightblue" stroke="midnightblue" points="489.28,-190.19 498.99,-185.97 488.76,-183.2 489.28,-190.19"/>
</g>
<!-- Node5&#45;&gt;Node6 -->
<g id="edge7" class="edge">
<title>Node5&#45;&gt;Node6</title>
<path fill="none" stroke="midnightblue" d="M223.61,-269.28C237.6,-279.59 256.49,-293.6 273,-306.16 289.14,-318.42 291.39,-324.11 309,-334.16 316.01,-338.15 323.65,-341.86 331.31,-345.2"/>
<polygon fill="midnightblue" stroke="midnightblue" points="330.03,-348.46 340.6,-349.09 332.73,-342 330.03,-348.46"/>
</g>
<!-- Node7 -->
<g id="node7" class="node">
<title>Node7</title>
<g id="a_node7"><a xlink:href="class_t_track.html#a418966e6fefb71b9d0c9b941197832da" target="_top" xlink:title="Similar to GetVectorPositionFromTrackMap but for inactive elements, a pair is returned because there ...">
<polygon fill="white" stroke="black" points="317.5,-261.16 317.5,-291.16 454.5,-291.16 454.5,-261.16 317.5,-261.16"/>
<text text-anchor="start" x="325.5" y="-279.16" font-family="Helvetica,sans-Serif" font-size="10.00">TTrack::GetVectorPositions</text>
<text text-anchor="middle" x="386" y="-268.16" font-family="Helvetica,sans-Serif" font-size="10.00">FromInactiveTrackMap</text>
</a>
</g>
</g>
<!-- Node5&#45;&gt;Node7 -->
<g id="edge10" class="edge">
<title>Node5&#45;&gt;Node7</title>
<path fill="none" stroke="midnightblue" d="M273.11,-262.63C284.22,-263.97 295.78,-265.37 307.06,-266.73"/>
<polygon fill="midnightblue" stroke="midnightblue" points="306.98,-270.25 317.33,-267.97 307.82,-263.3 306.98,-270.25"/>
</g>
<!-- Node8 -->
<g id="node8" class="node">
<title>Node8</title>
<g id="a_node8"><a xlink:href="class_t_track.html#a51f89cf70e94b037f6378cd78003d82b" target="_top" xlink:title="A range&#45;checked version of InactiveTrackElement.at(At)">
<polygon fill="white" stroke="black" points="309,-222.66 309,-241.66 463,-241.66 463,-222.66 309,-222.66"/>
<text text-anchor="middle" x="386" y="-229.66" font-family="Helvetica,sans-Serif" font-size="10.00">TTrack::InactiveTrackElementAt</text>
</a>
</g>
</g>
<!-- Node5&#45;&gt;Node8 -->
<g id="edge13" class="edge">
<title>Node5&#45;&gt;Node8</title>
<path fill="none" stroke="midnightblue" d="M273.11,-245.68C281.53,-244.66 290.2,-243.61 298.82,-242.57"/>
<polygon fill="midnightblue" stroke="midnightblue" points="299.38,-246.03 308.88,-241.36 298.54,-239.08 299.38,-246.03"/>
</g>
<!-- Node6&#45;&gt;Node2 -->
<g id="edge8" class="edge">
<title>Node6&#45;&gt;Node2</title>
<path fill="none" stroke="midnightblue" d="M434.34,-348.99C444.19,-344.88 454.24,-339.94 463,-334.16 494.18,-313.58 523.22,-280.78 539.49,-260.69"/>
<polygon fill="midnightblue" stroke="midnightblue" points="542.36,-262.69 545.83,-252.68 536.88,-258.34 542.36,-262.69"/>
</g>
<!-- Node6&#45;&gt;Node4 -->
<g id="edge9" class="edge">
<title>Node6&#45;&gt;Node4</title>
<path fill="none" stroke="midnightblue" d="M410.28,-349.01C426.67,-337.44 448.22,-320.28 463,-301.16 486.1,-271.26 475.26,-253.55 499,-224.16 507.01,-214.24 517.9,-205.38 527.81,-198.45"/>
<polygon fill="midnightblue" stroke="midnightblue" points="529.78,-201.34 536.16,-192.88 525.9,-195.52 529.78,-201.34"/>
</g>
<!-- Node7&#45;&gt;Node2 -->
<g id="edge11" class="edge">
<title>Node7&#45;&gt;Node2</title>
<path fill="none" stroke="midnightblue" d="M454.52,-262.73C468.04,-260.05 482.12,-257.24 495.28,-254.63"/>
<polygon fill="midnightblue" stroke="midnightblue" points="496,-258.06 505.13,-252.67 494.63,-251.19 496,-258.06"/>
</g>
<!-- Node7&#45;&gt;Node4 -->
<g id="edge12" class="edge">
<title>Node7&#45;&gt;Node4</title>
<path fill="none" stroke="midnightblue" d="M440.26,-261.13C448.06,-258.22 455.86,-254.89 463,-251.16 463.95,-250.66 505.75,-218.99 532.04,-199.05"/>
<polygon fill="midnightblue" stroke="midnightblue" points="534.43,-201.64 540.29,-192.8 530.2,-196.06 534.43,-201.64"/>
</g>
<!-- Node8&#45;&gt;Node2 -->
<g id="edge14" class="edge">
<title>Node8&#45;&gt;Node2</title>
<path fill="none" stroke="midnightblue" d="M463.2,-237.2C471.68,-237.77 480.26,-238.34 488.58,-238.89"/>
<polygon fill="midnightblue" stroke="midnightblue" points="488.36,-242.38 498.57,-239.55 488.82,-235.39 488.36,-242.38"/>
</g>
<!-- Node8&#45;&gt;Node4 -->
<g id="edge15" class="edge">
<title>Node8&#45;&gt;Node4</title>
<path fill="none" stroke="midnightblue" d="M419.4,-222.59C445.57,-214.87 482.58,-203.94 511.01,-195.55"/>
<polygon fill="midnightblue" stroke="midnightblue" points="512.08,-198.88 520.68,-192.7 510.1,-192.17 512.08,-198.88"/>
</g>
<!-- Node9&#45;&gt;Node2 -->
<g id="edge19" class="edge">
<title>Node9&#45;&gt;Node2</title>
<path fill="none" stroke="midnightblue" d="M414.04,-165.3C445.18,-182.75 495.99,-211.21 526.78,-228.46"/>
<polygon fill="midnightblue" stroke="midnightblue" points="525.21,-231.6 535.65,-233.43 528.63,-225.49 525.21,-231.6"/>
</g>
<!-- Node9&#45;&gt;Node4 -->
<g id="edge20" class="edge">
<title>Node9&#45;&gt;Node4</title>
<path fill="none" stroke="midnightblue" d="M451.66,-163.01C465.94,-165.85 480.99,-168.84 494.99,-171.62"/>
<polygon fill="midnightblue" stroke="midnightblue" points="494.48,-175.09 504.97,-173.61 495.85,-168.23 494.48,-175.09"/>
</g>
<!-- Node10&#45;&gt;Node2 -->
<g id="edge23" class="edge">
<title>Node10&#45;&gt;Node2</title>
<path fill="none" stroke="midnightblue" d="M447.08,-66.42C452.95,-69.16 458.41,-72.67 463,-77.16 504.35,-117.56 466.31,-154.47 499,-202.16 506.1,-212.52 516.67,-221.37 526.58,-228.16"/>
<polygon fill="midnightblue" stroke="midnightblue" points="524.71,-231.12 535.01,-233.59 528.5,-225.24 524.71,-231.12"/>
</g>
<!-- Node10&#45;&gt;Node4 -->
<g id="edge24" class="edge">
<title>Node10&#45;&gt;Node4</title>
<path fill="none" stroke="midnightblue" d="M440.25,-66.7C448.22,-69.38 456.07,-72.79 463,-77.16 498.73,-99.66 527.65,-140.89 542.38,-164.76"/>
<polygon fill="midnightblue" stroke="midnightblue" points="539.5,-166.76 547.65,-173.54 545.51,-163.16 539.5,-166.76"/>
</g>
</g>
</svg>
        <g id="navigator" transform="translate(0 0)" fill="#404254">
                <rect fill="#f2f5e9" fill-opacity="0.5" stroke="#606060" stroke-width=".5" x="0" y="0" width="60" height="60"/>
                <use id="zoomplus" xlink:href="#zoomPlus" x="17" y="9" onmousedown="handleZoom(evt,'in')"/>
                <use id="zoomminus" xlink:href="#zoomMin" x="42" y="9" onmousedown="handleZoom(evt,'out')"/>
                <use id="reset" xlink:href="#resetDef" x="30" y="36" onmousedown="handleReset()"/>
                <g id="arrowUp" xlink:href="#dirArrow" transform="translate(30 24)" onmousedown="handlePan(0,-1)">
                  <use xlink:href="#rim" fill="#404040">
                        <set attributeName="fill" to="#808080" begin="arrowUp.mouseover" end="arrowUp.mouseout"/>
                  </use>
                  <path fill="none" stroke="white" stroke-width="1.5" d="M0,-3.0v7 M-2.5,-0.5L0,-3.0L2.5,-0.5"/>
                </g>
                <g id="arrowRight" xlink:href="#dirArrow" transform="rotate(90) translate(36 -43)" onmousedown="handlePan(1,0)">
                  <use xlink:href="#rim" fill="#404040">
                        <set attributeName="fill" to="#808080" begin="arrowRight.mouseover" end="arrowRight.mouseout"/>
                  </use>
                  <path fill="none" stroke="white" stroke-width="1.5" d="M0,-3.0v7 M-2.5,-0.5L0,-3.0L2.5,-0.5"/>
                </g>
                <g id="arrowDown" xlink:href="#dirArrow" transform="rotate(180) translate(-30 -48)" onmousedown="handlePan(0,1)">
                  <use xlink:href="#rim" fill="#404040">
                        <set attributeName="fill" to="#808080" begin="arrowDown.mouseover" end="arrowDown.mouseout"/>
                  </use>
                  <path fill="none" stroke="white" stroke-width="1.5" d="M0,-3.0v7 M-2.5,-0.5L0,-3.0L2.5,-0.5"/>
                </g>
                <g id="arrowLeft" xlink:href="#dirArrow" transform="rotate(270) translate(-36 17)" onmousedown="handlePan(-1,0)">
                  <use xlink:href="#rim" fill="#404040">
                        <set attributeName="fill" to="#808080" begin="arrowLeft.mouseover" end="arrowLeft.mouseout"/>
                  </use>
                  <path fill="none" stroke="white" stroke-width="1.5" d="M0,-3.0v7 M-2.5,-0.5L0,-3.0L2.5,-0.5"/>
                </g>
        </g>
        <svg viewBox="0 0 15 15" width="100%" height="30px" preserveAspectRatio="xMaxYMin meet">
         <g id="arrow_out" transform="scale(0.3 0.3)">
          <a xlink:href="class_t_track_a306dfdff414c8edf6f974d21bd9b83ce_cgraph_org.svg" target="_base">
           <rect id="button" ry="5" rx="5" y="6" x="6" height="38" width="38"
                fill="#f2f5e9" fill-opacity="0.5" stroke="#606060" stroke-width="1.0"/>
           <path id="arrow"
             d="M 11.500037,31.436501 C 11.940474,20.09759 22.043105,11.32322 32.158766,21.979434 L 37.068811,17.246167 C 37.068811,17.246167 37.088388,32 37.088388,32 L 22.160133,31.978069 C 22.160133,31.978069 26.997745,27.140456 26.997745,27.140456 C 18.528582,18.264221 13.291696,25.230495 11.500037,31.436501 z"
             style="fill:#404040;"/>
          </a>
         </g>
        </svg>
</svg>
