<?xml version="1.0" encoding="UTF-8" standalone="no"?>
<!DOCTYPE svg PUBLIC "-//W3C//DTD SVG 1.1//EN"
 "http://www.w3.org/Graphics/SVG/1.1/DTD/svg11.dtd">
<!-- Generated by graphviz version 2.44.1 (20200629.0800)
 -->
<!-- Title: TTrack::FindAndHighlightAnUnsetGap Pages: 1 -->
<svg width="572pt" height="104pt"
 viewBox="0.00 0.00 572.00 104.00" xmlns="http://www.w3.org/2000/svg" xmlns:xlink="http://www.w3.org/1999/xlink">
<g id="graph0" class="graph" transform="scale(1 1) rotate(0) translate(4 100)">
<title>TTrack::FindAndHighlightAnUnsetGap</title>
<polygon fill="white" stroke="transparent" points="-4,4 -4,-100 568,-100 568,4 -4,4"/>
<!-- Node1 -->
<g id="node1" class="node">
<title>Node1</title>
<g id="a_node1"><a xlink:title="True if there is an unset gap, and if so it is marked with a red circle, used during gap setting.">
<polygon fill="#bfbfbf" stroke="black" points="0,-33 0,-63 125,-63 125,-33 0,-33"/>
<text text-anchor="start" x="8" y="-51" font-family="Helvetica,sans-Serif" font-size="10.00">TTrack::FindAndHighlight</text>
<text text-anchor="middle" x="62.5" y="-40" font-family="Helvetica,sans-Serif" font-size="10.00">AnUnsetGap</text>
</a>
</g>
</g>
<!-- Node2 -->
<g id="node2" class="node">
<title>Node2</title>
<g id="a_node2"><a xlink:href="class_t_utilities.html#ae1eddca13cc3c492839e131f40ec21c0" target="_top" xlink:title="pops the last entry off the call stack, throws an error if called when empty">
<polygon fill="white" stroke="black" points="454,-76.5 454,-95.5 564,-95.5 564,-76.5 454,-76.5"/>
<text text-anchor="middle" x="509" y="-83.5" font-family="Helvetica,sans-Serif" font-size="10.00">TUtilities::CallLogPop</text>
</a>
</g>
</g>
<!-- Node1&#45;&gt;Node2 -->
<g id="edge1" class="edge">
<title>Node1&#45;&gt;Node2</title>
<path fill="none" stroke="midnightblue" d="M125,-60.76C136.92,-63.01 149.32,-65.21 161,-67 235.27,-78.42 253.98,-81.77 329,-86 366.96,-88.14 409.52,-88.23 443.61,-87.75"/>
<polygon fill="midnightblue" stroke="midnightblue" points="443.97,-91.24 453.91,-87.58 443.85,-84.25 443.97,-91.24"/>
</g>
<!-- Node3 -->
<g id="node3" class="node">
<title>Node3</title>
<g id="a_node3"><a xlink:href="class_t_track.html#a7fe1e2c641e38da6ab3fdbf20e529d2c" target="_top" xlink:title="Called during gap setting to mark a gap with a red circle &#45; after which the program awaits user selec...">
<polygon fill="white" stroke="black" points="161,-38.5 161,-57.5 293,-57.5 293,-38.5 161,-38.5"/>
<text text-anchor="middle" x="227" y="-45.5" font-family="Helvetica,sans-Serif" font-size="10.00">TTrack::ShowSelectedGap</text>
</a>
</g>
</g>
<!-- Node1&#45;&gt;Node3 -->
<g id="edge2" class="edge">
<title>Node1&#45;&gt;Node3</title>
<path fill="none" stroke="midnightblue" d="M125.4,-48C133.62,-48 142.13,-48 150.55,-48"/>
<polygon fill="midnightblue" stroke="midnightblue" points="150.76,-51.5 160.76,-48 150.76,-44.5 150.76,-51.5"/>
</g>
<!-- Node5 -->
<g id="node5" class="node">
<title>Node5</title>
<g id="a_node5"><a xlink:href="class_t_utilities.html#a34bd6bb5305bc29afdf424f6d35a921c" target="_top" xlink:title="creates a string of the form &#39;hh:mm:ss&#39; for use in call &amp; event logging">
<polygon fill="white" stroke="black" points="454,-0.5 454,-19.5 564,-19.5 564,-0.5 454,-0.5"/>
<text text-anchor="middle" x="509" y="-7.5" font-family="Helvetica,sans-Serif" font-size="10.00">TUtilities::TimeStamp</text>
</a>
</g>
</g>
<!-- Node1&#45;&gt;Node5 -->
<g id="edge9" class="edge">
<title>Node1&#45;&gt;Node5</title>
<path fill="none" stroke="midnightblue" d="M125.23,-34.97C137.07,-32.76 149.39,-30.65 161,-29 258.87,-15.13 373.6,-11.23 443.52,-10.22"/>
<polygon fill="midnightblue" stroke="midnightblue" points="443.97,-13.72 453.92,-10.09 443.88,-6.72 443.97,-13.72"/>
</g>
<!-- Node3&#45;&gt;Node2 -->
<g id="edge3" class="edge">
<title>Node3&#45;&gt;Node2</title>
<path fill="none" stroke="midnightblue" d="M274.38,-57.53C291.5,-60.84 311.08,-64.37 329,-67 366.83,-72.56 409.38,-77.14 443.5,-80.41"/>
<polygon fill="midnightblue" stroke="midnightblue" points="443.52,-83.93 453.81,-81.39 444.18,-76.96 443.52,-83.93"/>
</g>
<!-- Node4 -->
<g id="node4" class="node">
<title>Node4</title>
<g id="a_node4"><a xlink:href="class_t_display.html#ac97de4f74b0b295de941320578d6da28" target="_top" xlink:title="Plot an ellipse at the defined position and with the defined colour.">
<polygon fill="white" stroke="black" points="329,-38.5 329,-57.5 418,-57.5 418,-38.5 329,-38.5"/>
<text text-anchor="middle" x="373.5" y="-45.5" font-family="Helvetica,sans-Serif" font-size="10.00">TDisplay::Ellipse</text>
</a>
</g>
</g>
<!-- Node3&#45;&gt;Node4 -->
<g id="edge4" class="edge">
<title>Node3&#45;&gt;Node4</title>
<path fill="none" stroke="midnightblue" d="M293.06,-48C301.69,-48 310.46,-48 318.86,-48"/>
<polygon fill="midnightblue" stroke="midnightblue" points="318.9,-51.5 328.9,-48 318.9,-44.5 318.9,-51.5"/>
</g>
<!-- Node3&#45;&gt;Node5 -->
<g id="edge8" class="edge">
<title>Node3&#45;&gt;Node5</title>
<path fill="none" stroke="midnightblue" d="M274.38,-38.47C291.5,-35.16 311.08,-31.63 329,-29 366.83,-23.44 409.38,-18.86 443.5,-15.59"/>
<polygon fill="midnightblue" stroke="midnightblue" points="444.18,-19.04 453.81,-14.61 443.52,-12.07 444.18,-19.04"/>
</g>
<!-- Node4&#45;&gt;Node2 -->
<g id="edge5" class="edge">
<title>Node4&#45;&gt;Node2</title>
<path fill="none" stroke="midnightblue" d="M408.19,-57.59C425.26,-62.45 446.2,-68.41 464.48,-73.61"/>
<polygon fill="midnightblue" stroke="midnightblue" points="463.75,-77.04 474.32,-76.41 465.66,-70.31 463.75,-77.04"/>
</g>
<!-- Node4&#45;&gt;Node5 -->
<g id="edge6" class="edge">
<title>Node4&#45;&gt;Node5</title>
<path fill="none" stroke="midnightblue" d="M408.19,-38.41C425.26,-33.55 446.2,-27.59 464.48,-22.39"/>
<polygon fill="midnightblue" stroke="midnightblue" points="465.66,-25.69 474.32,-19.59 463.75,-18.96 465.66,-25.69"/>
</g>
<!-- Node6 -->
<g id="node6" class="node">
<title>Node6</title>
<g id="a_node6"><a xlink:href="class_t_display.html#aa4f37ab2a4df6437a2219f303e1de40b" target="_top" xlink:title="Repaint the screen display.">
<polygon fill="white" stroke="black" points="463.5,-38.5 463.5,-57.5 554.5,-57.5 554.5,-38.5 463.5,-38.5"/>
<text text-anchor="middle" x="509" y="-45.5" font-family="Helvetica,sans-Serif" font-size="10.00">TDisplay::Update</text>
</a>
</g>
</g>
<!-- Node4&#45;&gt;Node6 -->
<g id="edge7" class="edge">
<title>Node4&#45;&gt;Node6</title>
<path fill="none" stroke="midnightblue" d="M418.21,-48C429.39,-48 441.54,-48 453.2,-48"/>
<polygon fill="midnightblue" stroke="midnightblue" points="453.27,-51.5 463.27,-48 453.27,-44.5 453.27,-51.5"/>
</g>
</g>
</svg>
