<?xml version="1.0" encoding="UTF-8" standalone="no"?>
<!DOCTYPE svg PUBLIC "-//W3C//DTD SVG 1.1//EN"
 "http://www.w3.org/Graphics/SVG/1.1/DTD/svg11.dtd">
<!-- Generated by graphviz version 2.44.1 (20200629.0800)
 -->
<!-- Title: TOneRoute::PointsToBeChanged Pages: 1 -->
<svg width="504pt" height="202pt"
 viewBox="0.00 0.00 504.00 201.86" xmlns="http://www.w3.org/2000/svg" xmlns:xlink="http://www.w3.org/1999/xlink">
<g id="graph0" class="graph" transform="scale(1 1) rotate(0) translate(4 197.86)">
<title>TOneRoute::PointsToBeChanged</title>
<polygon fill="white" stroke="transparent" points="-4,4 -4,-197.86 500,-197.86 500,4 -4,4"/>
<!-- Node1 -->
<g id="node1" class="node">
<title>Node1</title>
<g id="a_node1"><a xlink:title=" ">
<polygon fill="#bfbfbf" stroke="black" points="0,-95.5 0,-114.5 160,-114.5 160,-95.5 0,-95.5"/>
<text text-anchor="middle" x="80" y="-102.5" font-family="Helvetica,sans-Serif" font-size="10.00">TOneRoute::PointsToBeChanged</text>
</a>
</g>
</g>
<!-- Node2 -->
<g id="node2" class="node">
<title>Node2</title>
<g id="a_node2"><a xlink:href="class_t_utilities.html#ae1eddca13cc3c492839e131f40ec21c0" target="_top" xlink:title="pops the last entry off the call stack, throws an error if called when empty">
<polygon fill="white" stroke="black" points="386,-133.5 386,-152.5 496,-152.5 496,-133.5 386,-133.5"/>
<text text-anchor="middle" x="441" y="-140.5" font-family="Helvetica,sans-Serif" font-size="10.00">TUtilities::CallLogPop</text>
</a>
</g>
</g>
<!-- Node1&#45;&gt;Node2 -->
<g id="edge1" class="edge">
<title>Node1&#45;&gt;Node2</title>
<path fill="none" stroke="midnightblue" d="M91.01,-114.67C109.76,-132.01 152.23,-167.84 196,-181 261.55,-200.7 282.92,-194.58 350,-181 372.58,-176.43 396.54,-166.01 414.06,-157.23"/>
<polygon fill="midnightblue" stroke="midnightblue" points="415.79,-160.28 423.07,-152.58 412.58,-154.06 415.79,-160.28"/>
</g>
<!-- Node3 -->
<g id="node3" class="node">
<title>Node3</title>
<g id="a_node3"><a xlink:href="class_t_utilities.html#a2dfbe3d4ed11770bc1a902b51afdc10c" target="_top" xlink:title="formats a TDateTime into an AnsiString of the form hh:mm:ss where hh runs from 00 to 95 &amp; resets when...">
<polygon fill="white" stroke="black" points="200.5,-0.5 200.5,-19.5 345.5,-19.5 345.5,-0.5 200.5,-0.5"/>
<text text-anchor="middle" x="273" y="-7.5" font-family="Helvetica,sans-Serif" font-size="10.00">TUtilities::Format96HHMMSS</text>
</a>
</g>
</g>
<!-- Node1&#45;&gt;Node3 -->
<g id="edge2" class="edge">
<title>Node1&#45;&gt;Node3</title>
<path fill="none" stroke="midnightblue" d="M94.2,-95.33C114.97,-80.48 156.96,-51.88 196,-34 205.34,-29.72 215.66,-25.91 225.6,-22.65"/>
<polygon fill="midnightblue" stroke="midnightblue" points="226.87,-25.91 235.36,-19.57 224.77,-19.24 226.87,-25.91"/>
</g>
<!-- Node4 -->
<g id="node4" class="node">
<title>Node4</title>
<g id="a_node4"><a xlink:href="class_t_perf_log_form.html#a72f06bf03353c15c94ceefbf420ff7b4" target="_top" xlink:title="Send Statement to the performance log on screen and to the file.">
<polygon fill="white" stroke="black" points="196,-152.5 196,-171.5 350,-171.5 350,-152.5 196,-152.5"/>
<text text-anchor="middle" x="273" y="-159.5" font-family="Helvetica,sans-Serif" font-size="10.00">TPerfLogForm::PerformanceLog</text>
</a>
</g>
</g>
<!-- Node1&#45;&gt;Node4 -->
<g id="edge3" class="edge">
<title>Node1&#45;&gt;Node4</title>
<path fill="none" stroke="midnightblue" d="M108.24,-114.63C131.43,-122.68 165.71,-134.22 196,-143 204.26,-145.39 213.08,-147.77 221.68,-149.98"/>
<polygon fill="midnightblue" stroke="midnightblue" points="221.07,-153.43 231.62,-152.5 222.78,-146.65 221.07,-153.43"/>
</g>
<!-- Node5 -->
<g id="node5" class="node">
<title>Node5</title>
<g id="a_node5"><a xlink:href="class_t_utilities.html#a34bd6bb5305bc29afdf424f6d35a921c" target="_top" xlink:title="creates a string of the form &#39;hh:mm:ss&#39; for use in call &amp; event logging">
<polygon fill="white" stroke="black" points="386,-95.5 386,-114.5 496,-114.5 496,-95.5 386,-95.5"/>
<text text-anchor="middle" x="441" y="-102.5" font-family="Helvetica,sans-Serif" font-size="10.00">TUtilities::TimeStamp</text>
</a>
</g>
</g>
<!-- Node1&#45;&gt;Node5 -->
<g id="edge6" class="edge">
<title>Node1&#45;&gt;Node5</title>
<path fill="none" stroke="midnightblue" d="M102.95,-95.41C125.71,-86.02 162.58,-72.38 196,-67 263.57,-56.12 282.92,-53.42 350,-67 372.58,-71.57 396.54,-81.99 414.06,-90.77"/>
<polygon fill="midnightblue" stroke="midnightblue" points="412.58,-93.94 423.07,-95.42 415.79,-87.72 412.58,-93.94"/>
</g>
<!-- Node6 -->
<g id="node6" class="node">
<title>Node6</title>
<g id="a_node6"><a xlink:href="class_t_track.html#ad377e5a1f152f2e89832c0f9bcfd261f" target="_top" xlink:title="A range&#45;checked version of TrackVector.at(At)">
<polygon fill="white" stroke="black" points="212,-114.5 212,-133.5 334,-133.5 334,-114.5 212,-114.5"/>
<text text-anchor="middle" x="273" y="-121.5" font-family="Helvetica,sans-Serif" font-size="10.00">TTrack::TrackElementAt</text>
</a>
</g>
</g>
<!-- Node1&#45;&gt;Node6 -->
<g id="edge7" class="edge">
<title>Node1&#45;&gt;Node6</title>
<path fill="none" stroke="midnightblue" d="M160.07,-112.87C173.89,-114.24 188.18,-115.66 201.74,-117.01"/>
<polygon fill="midnightblue" stroke="midnightblue" points="201.66,-120.52 211.95,-118.03 202.35,-113.55 201.66,-120.52"/>
</g>
<!-- Node7 -->
<g id="node7" class="node">
<title>Node7</title>
<g id="a_node7"><a xlink:href="class_t_display.html#a604d491a723df459bdcd54a4b9d1d9f2" target="_top" xlink:title="Display warning message Statement in the bottom left hand warning position and scroll other messages ...">
<polygon fill="white" stroke="black" points="217,-76.5 217,-95.5 329,-95.5 329,-76.5 217,-76.5"/>
<text text-anchor="middle" x="273" y="-83.5" font-family="Helvetica,sans-Serif" font-size="10.00">TDisplay::WarningLog</text>
</a>
</g>
</g>
<!-- Node1&#45;&gt;Node7 -->
<g id="edge10" class="edge">
<title>Node1&#45;&gt;Node7</title>
<path fill="none" stroke="midnightblue" d="M160.07,-97.13C175.58,-95.59 191.68,-93.99 206.68,-92.5"/>
<polygon fill="midnightblue" stroke="midnightblue" points="207.26,-95.96 216.87,-91.48 206.57,-88.99 207.26,-95.96"/>
</g>
<!-- Node4&#45;&gt;Node2 -->
<g id="edge4" class="edge">
<title>Node4&#45;&gt;Node2</title>
<path fill="none" stroke="midnightblue" d="M350.2,-153.28C358.68,-152.31 367.26,-151.33 375.58,-150.37"/>
<polygon fill="midnightblue" stroke="midnightblue" points="376.03,-153.84 385.57,-149.23 375.23,-146.89 376.03,-153.84"/>
</g>
<!-- Node4&#45;&gt;Node5 -->
<g id="edge5" class="edge">
<title>Node4&#45;&gt;Node5</title>
<path fill="none" stroke="midnightblue" d="M319.96,-152.4C330,-149.78 340.47,-146.64 350,-143 366.9,-136.54 369.42,-131.24 386,-124 390.72,-121.94 395.74,-119.93 400.74,-118.05"/>
<polygon fill="midnightblue" stroke="midnightblue" points="402.07,-121.29 410.27,-114.58 399.67,-114.71 402.07,-121.29"/>
</g>
<!-- Node6&#45;&gt;Node2 -->
<g id="edge8" class="edge">
<title>Node6&#45;&gt;Node2</title>
<path fill="none" stroke="midnightblue" d="M334.4,-130.91C347.84,-132.45 362.15,-134.09 375.74,-135.64"/>
<polygon fill="midnightblue" stroke="midnightblue" points="375.64,-139.16 385.97,-136.82 376.43,-132.2 375.64,-139.16"/>
</g>
<!-- Node6&#45;&gt;Node5 -->
<g id="edge9" class="edge">
<title>Node6&#45;&gt;Node5</title>
<path fill="none" stroke="midnightblue" d="M334.4,-117.09C347.84,-115.55 362.15,-113.91 375.74,-112.36"/>
<polygon fill="midnightblue" stroke="midnightblue" points="376.43,-115.8 385.97,-111.18 375.64,-108.84 376.43,-115.8"/>
</g>
<!-- Node7&#45;&gt;Node2 -->
<g id="edge11" class="edge">
<title>Node7&#45;&gt;Node2</title>
<path fill="none" stroke="midnightblue" d="M319.96,-95.6C330,-98.22 340.47,-101.36 350,-105 366.9,-111.46 369.42,-116.76 386,-124 390.72,-126.06 395.74,-128.07 400.74,-129.95"/>
<polygon fill="midnightblue" stroke="midnightblue" points="399.67,-133.29 410.27,-133.42 402.07,-126.71 399.67,-133.29"/>
</g>
<!-- Node7&#45;&gt;Node5 -->
<g id="edge12" class="edge">
<title>Node7&#45;&gt;Node5</title>
<path fill="none" stroke="midnightblue" d="M329.28,-92.33C344.21,-94.04 360.49,-95.9 375.87,-97.66"/>
<polygon fill="midnightblue" stroke="midnightblue" points="375.48,-101.14 385.81,-98.8 376.28,-94.18 375.48,-101.14"/>
</g>
</g>
</svg>
