<?xml version="1.0" encoding="UTF-8" standalone="no"?>
<!DOCTYPE svg PUBLIC "-//W3C//DTD SVG 1.1//EN"
 "http://www.w3.org/Graphics/SVG/1.1/DTD/svg11.dtd">
<!-- Generated by graphviz version 2.44.1 (20200629.0800)
 -->
<!-- Title: TTrainController::SingleServiceOutput Pages: 1 -->
<svg width="438pt" height="112pt"
 viewBox="0.00 0.00 438.00 111.54" xmlns="http://www.w3.org/2000/svg" xmlns:xlink="http://www.w3.org/1999/xlink">
<g id="graph0" class="graph" transform="scale(1 1) rotate(0) translate(4 107.54)">
<title>TTrainController::SingleServiceOutput</title>
<polygon fill="white" stroke="transparent" points="-4,4 -4,-107.54 434,-107.54 434,4 -4,4"/>
<!-- Node1 -->
<g id="node1" class="node">
<title>Node1</title>
<g id="a_node1"><a xlink:title="Outputs the single service vector for train direction analysis purposes in timetable conflict analysi...">
<polygon fill="#bfbfbf" stroke="black" points="0,-42 0,-72 117,-72 117,-42 0,-42"/>
<text text-anchor="start" x="8" y="-60" font-family="Helvetica,sans-Serif" font-size="10.00">TTrainController::Single</text>
<text text-anchor="middle" x="58.5" y="-49" font-family="Helvetica,sans-Serif" font-size="10.00">ServiceOutput</text>
</a>
</g>
</g>
<!-- Node2 -->
<g id="node2" class="node">
<title>Node2</title>
<g id="a_node2"><a xlink:href="class_t_utilities.html#ae1eddca13cc3c492839e131f40ec21c0" target="_top" xlink:title="pops the last entry off the call stack, throws an error if called when empty">
<polygon fill="white" stroke="black" points="320,-47.5 320,-66.5 430,-66.5 430,-47.5 320,-47.5"/>
<text text-anchor="middle" x="375" y="-54.5" font-family="Helvetica,sans-Serif" font-size="10.00">TUtilities::CallLogPop</text>
</a>
</g>
</g>
<!-- Node1&#45;&gt;Node2 -->
<g id="edge1" class="edge">
<title>Node1&#45;&gt;Node2</title>
<path fill="none" stroke="midnightblue" d="M88.49,-72.18C106.52,-80.75 130.47,-90.6 153,-95 210.14,-106.17 226.94,-106.55 284,-95 306.58,-90.43 330.54,-80.01 348.06,-71.23"/>
<polygon fill="midnightblue" stroke="midnightblue" points="349.79,-74.28 357.07,-66.58 346.58,-68.06 349.79,-74.28"/>
</g>
<!-- Node3 -->
<g id="node3" class="node">
<title>Node3</title>
<g id="a_node3"><a xlink:href="class_t_utilities.html#a6dc0e83b149563fdf43f068fd26cead8" target="_top" xlink:title="formats a TDateTime into an AnsiString of the form hh:mm where hh runs from 00 to 95 &amp; resets when it...">
<polygon fill="white" stroke="black" points="153,-66.5 153,-85.5 284,-85.5 284,-66.5 153,-66.5"/>
<text text-anchor="middle" x="218.5" y="-73.5" font-family="Helvetica,sans-Serif" font-size="10.00">TUtilities::Format96HHMM</text>
</a>
</g>
</g>
<!-- Node1&#45;&gt;Node3 -->
<g id="edge2" class="edge">
<title>Node1&#45;&gt;Node3</title>
<path fill="none" stroke="midnightblue" d="M117.44,-63.97C125.73,-64.96 134.36,-66 142.91,-67.03"/>
<polygon fill="midnightblue" stroke="midnightblue" points="142.56,-70.51 152.9,-68.23 143.39,-63.56 142.56,-70.51"/>
</g>
<!-- Node4 -->
<g id="node4" class="node">
<title>Node4</title>
<g id="a_node4"><a xlink:href="class_t_utilities.html#a34bd6bb5305bc29afdf424f6d35a921c" target="_top" xlink:title="creates a string of the form &#39;hh:mm:ss&#39; for use in call &amp; event logging">
<polygon fill="white" stroke="black" points="320,-0.5 320,-19.5 430,-19.5 430,-0.5 320,-0.5"/>
<text text-anchor="middle" x="375" y="-7.5" font-family="Helvetica,sans-Serif" font-size="10.00">TUtilities::TimeStamp</text>
</a>
</g>
</g>
<!-- Node1&#45;&gt;Node4 -->
<g id="edge3" class="edge">
<title>Node1&#45;&gt;Node4</title>
<path fill="none" stroke="midnightblue" d="M88.98,-41.95C106.97,-33.55 130.74,-23.82 153,-19 204.88,-7.76 265.17,-6.03 309.66,-6.83"/>
<polygon fill="midnightblue" stroke="midnightblue" points="309.68,-10.33 319.76,-7.05 309.84,-3.33 309.68,-10.33"/>
</g>
<!-- Node5 -->
<g id="node5" class="node">
<title>Node5</title>
<g id="a_node5"><a xlink:href="class_t_track.html#ad377e5a1f152f2e89832c0f9bcfd261f" target="_top" xlink:title="A range&#45;checked version of TrackVector.at(At)">
<polygon fill="white" stroke="black" points="157.5,-28.5 157.5,-47.5 279.5,-47.5 279.5,-28.5 157.5,-28.5"/>
<text text-anchor="middle" x="218.5" y="-35.5" font-family="Helvetica,sans-Serif" font-size="10.00">TTrack::TrackElementAt</text>
</a>
</g>
</g>
<!-- Node1&#45;&gt;Node5 -->
<g id="edge4" class="edge">
<title>Node1&#45;&gt;Node5</title>
<path fill="none" stroke="midnightblue" d="M117.44,-50.03C127.21,-48.86 137.45,-47.63 147.5,-46.42"/>
<polygon fill="midnightblue" stroke="midnightblue" points="147.94,-49.89 157.45,-45.22 147.1,-42.94 147.94,-49.89"/>
</g>
<!-- Node5&#45;&gt;Node2 -->
<g id="edge5" class="edge">
<title>Node5&#45;&gt;Node2</title>
<path fill="none" stroke="midnightblue" d="M279.68,-45.4C289.49,-46.61 299.68,-47.86 309.59,-49.08"/>
<polygon fill="midnightblue" stroke="midnightblue" points="309.43,-52.59 319.78,-50.33 310.28,-45.64 309.43,-52.59"/>
</g>
<!-- Node5&#45;&gt;Node4 -->
<g id="edge6" class="edge">
<title>Node5&#45;&gt;Node4</title>
<path fill="none" stroke="midnightblue" d="M272.24,-28.44C284.92,-26.14 298.58,-23.67 311.65,-21.3"/>
<polygon fill="midnightblue" stroke="midnightblue" points="312.28,-24.74 321.5,-19.51 311.04,-17.85 312.28,-24.74"/>
</g>
</g>
</svg>
