<?xml version="1.0" encoding="UTF-8" standalone="no"?>
<!DOCTYPE svg PUBLIC "-//W3C//DTD SVG 1.1//EN"
 "http://www.w3.org/Graphics/SVG/1.1/DTD/svg11.dtd">
<!-- Generated by graphviz version 2.44.1 (20200629.0800)
 -->
<!-- Title: TTrack::IsPlatformOrNamedNonStationLocationPresent Pages: 1 -->
<!--zoomable 233 -->
<svg id="main" version="1.1" xmlns="http://www.w3.org/2000/svg" xmlns:xlink="http://www.w3.org/1999/xlink" xml:space="preserve" onload="init(evt)">
<style type="text/css"><![CDATA[
.edge:hover path { stroke: red; }
.edge:hover polygon { stroke: red; fill: red; }
]]></style>
<script type="text/javascript"><![CDATA[
var edges = document.getElementsByTagName('g');
if (edges && edges.length) {
  for (var i=0;i<edges.length;i++) {
    if (edges[i].id.substr(0,4)=='edge') {
      edges[i].setAttribute('class','edge');
    }
  }
}
]]></script>
        <defs>
                <circle id="rim" cx="0" cy="0" r="7"/>
                <circle id="rim2" cx="0" cy="0" r="3.5"/>
                <g id="zoomPlus">
                        <use xlink:href="#rim" fill="#404040">
                                <set attributeName="fill" to="#808080" begin="zoomplus.mouseover" end="zoomplus.mouseout"/>
                        </use>
                        <path d="M-4,0h8M0,-4v8" fill="none" stroke="white" stroke-width="1.5" pointer-events="none"/>
                </g>
                <g id="zoomMin">
                        <use xlink:href="#rim" fill="#404040">
                                <set attributeName="fill" to="#808080" begin="zoomminus.mouseover" end="zoomminus.mouseout"/>
                        </use>
                        <path d="M-4,0h8" fill="none" stroke="white" stroke-width="1.5" pointer-events="none"/>
                </g>
                <g id="dirArrow">
                        <path fill="none" stroke="white" stroke-width="1.5" d="M0,-3.0v7 M-2.5,-0.5L0,-3.0L2.5,-0.5"/>
                </g>
               <g id="resetDef">
                       <use xlink:href="#rim2" fill="#404040">
                               <set attributeName="fill" to="#808080" begin="reset.mouseover" end="reset.mouseout"/>
                       </use>
               </g>
        </defs>

<script type="text/javascript">
var viewWidth = 683;
var viewHeight = 233;
var sectionId = 'dynsection-118';
</script>
<script xlink:href="svgpan.js"/>
<svg id="graph" class="graph">
<g id="viewport">
<title>TTrack::IsPlatformOrNamedNonStationLocationPresent</title>
<polygon fill="white" stroke="transparent" points="-4,4 -4,-229 679,-229 679,4 -4,4"/>
<!-- Node1 -->
<g id="node1" class="node">
<title>Node1</title>
<g id="a_node1"><a xlink:title="True if a non&#45;station named location or platform at HLoc &amp; VLoc.">
<polygon fill="#bfbfbf" stroke="black" points="538,-163.5 538,-193.5 675,-193.5 675,-163.5 538,-163.5"/>
<text text-anchor="start" x="546" y="-181.5" font-family="Helvetica,sans-Serif" font-size="10.00">TTrack::IsPlatformOrNamed</text>
<text text-anchor="middle" x="606.5" y="-170.5" font-family="Helvetica,sans-Serif" font-size="10.00">NonStationLocationPresent</text>
</a>
</g>
</g>
<!-- Node2 -->
<g id="node2" class="node">
<title>Node2</title>
<g id="a_node2"><a xlink:href="class_t_interface.html#ab34f55bab5984b72264d7275660a3463" target="_top" xlink:title=" ">
<polygon fill="white" stroke="black" points="180,-194.5 180,-224.5 317,-224.5 317,-194.5 180,-194.5"/>
<text text-anchor="start" x="188" y="-212.5" font-family="Helvetica,sans-Serif" font-size="10.00">TInterface::LengthOKButton</text>
<text text-anchor="middle" x="248.5" y="-201.5" font-family="Helvetica,sans-Serif" font-size="10.00">Click</text>
</a>
</g>
</g>
<!-- Node1&#45;&gt;Node2 -->
<g id="edge1" class="edge">
<title>Node1&#45;&gt;Node2</title>
<path fill="none" stroke="midnightblue" d="M527.68,-193.94C519.04,-195.31 510.35,-196.54 502,-197.5 439.65,-204.67 368.17,-207.58 317.22,-208.74"/>
<polygon fill="midnightblue" stroke="midnightblue" points="528.48,-197.36 537.77,-192.28 527.34,-190.45 528.48,-197.36"/>
</g>
<!-- Node3 -->
<g id="node3" class="node">
<title>Node3</title>
<g id="a_node3"><a xlink:href="class_t_track.html#a7c2888cb7acea2b9c65c5f9cc538df66" target="_top" xlink:title="Check whether there is a platform present at HLoc &amp; VLoc at the same side as the signal represented b...">
<polygon fill="white" stroke="black" points="355,-131 355,-150 502,-150 502,-131 355,-131"/>
<text text-anchor="middle" x="428.5" y="-138" font-family="Helvetica,sans-Serif" font-size="10.00">TTrack::PlatformOnSignalSide</text>
</a>
</g>
</g>
<!-- Node1&#45;&gt;Node3 -->
<g id="edge2" class="edge">
<title>Node1&#45;&gt;Node3</title>
<path fill="none" stroke="midnightblue" d="M528.02,-161.77C509.44,-157.76 490.23,-153.61 473.76,-150.06"/>
<polygon fill="midnightblue" stroke="midnightblue" points="527.44,-165.23 537.96,-163.92 528.92,-158.39 527.44,-165.23"/>
</g>
<!-- Node10 -->
<g id="node10" class="node">
<title>Node10</title>
<g id="a_node10"><a xlink:href="class_t_interface.html#acc36eb15dae8d564e6d91f8c6596065c" target="_top" xlink:title="Called during track building when setting distances, to calculate and set the individual track elemen...">
<polygon fill="white" stroke="black" points="359.5,-169 359.5,-188 497.5,-188 497.5,-169 359.5,-169"/>
<text text-anchor="middle" x="428.5" y="-176" font-family="Helvetica,sans-Serif" font-size="10.00">TInterface::SetTrackLengths</text>
</a>
</g>
</g>
<!-- Node1&#45;&gt;Node10 -->
<g id="edge9" class="edge">
<title>Node1&#45;&gt;Node10</title>
<path fill="none" stroke="midnightblue" d="M527.65,-178.5C517.68,-178.5 507.54,-178.5 497.74,-178.5"/>
<polygon fill="midnightblue" stroke="midnightblue" points="527.96,-182 537.96,-178.5 527.96,-175 527.96,-182"/>
</g>
<!-- Node4 -->
<g id="node4" class="node">
<title>Node4</title>
<g id="a_node4"><a xlink:href="class_t_track.html#afb6bf873ba2e4107cf462f9d42dbe33f" target="_top" xlink:title="Called by TInterface::SaveOperatingImage1Click to add all track element graphics to the image file in...">
<polygon fill="white" stroke="black" points="178,-132.5 178,-162.5 319,-162.5 319,-132.5 178,-132.5"/>
<text text-anchor="start" x="186" y="-150.5" font-family="Helvetica,sans-Serif" font-size="10.00">TTrack::WriteOperatingTrack</text>
<text text-anchor="middle" x="248.5" y="-139.5" font-family="Helvetica,sans-Serif" font-size="10.00">ToImage</text>
</a>
</g>
</g>
<!-- Node3&#45;&gt;Node4 -->
<g id="edge3" class="edge">
<title>Node3&#45;&gt;Node4</title>
<path fill="none" stroke="midnightblue" d="M344.79,-143.75C336.18,-144.09 327.49,-144.43 319.05,-144.76"/>
<polygon fill="midnightblue" stroke="midnightblue" points="344.99,-147.25 354.84,-143.36 344.71,-140.25 344.99,-147.25"/>
</g>
<!-- Node6 -->
<g id="node6" class="node">
<title>Node6</title>
<g id="a_node6"><a xlink:href="class_t_track.html#ab3530b4af2a4b2a9cd1c1b480a19298d" target="_top" xlink:title="Called by TInterface::SaveImageNoGrid1Click, TInterface::SaveImageAndGrid1Click and TInterface::SaveI...">
<polygon fill="white" stroke="black" points="180.5,-79 180.5,-98 316.5,-98 316.5,-79 180.5,-79"/>
<text text-anchor="middle" x="248.5" y="-86" font-family="Helvetica,sans-Serif" font-size="10.00">TTrack::WriteTrackToImage</text>
</a>
</g>
</g>
<!-- Node3&#45;&gt;Node6 -->
<g id="edge5" class="edge">
<title>Node3&#45;&gt;Node6</title>
<path fill="none" stroke="midnightblue" d="M385.03,-128.09C353.51,-118.89 311.16,-106.51 282.24,-98.07"/>
<polygon fill="midnightblue" stroke="midnightblue" points="384.27,-131.52 394.85,-130.96 386.23,-124.8 384.27,-131.52"/>
</g>
<!-- Node5 -->
<g id="node5" class="node">
<title>Node5</title>
<g id="a_node5"><a xlink:href="class_t_interface.html#a4d75015545313004ffd5022c020f4edf" target="_top" xlink:title=" ">
<polygon fill="white" stroke="black" points="7,-147.5 7,-177.5 135,-177.5 135,-147.5 7,-147.5"/>
<text text-anchor="start" x="15" y="-165.5" font-family="Helvetica,sans-Serif" font-size="10.00">TInterface::SaveOperating</text>
<text text-anchor="middle" x="71" y="-154.5" font-family="Helvetica,sans-Serif" font-size="10.00">ImageMenuItemClick</text>
</a>
</g>
</g>
<!-- Node4&#45;&gt;Node5 -->
<g id="edge4" class="edge">
<title>Node4&#45;&gt;Node5</title>
<path fill="none" stroke="midnightblue" d="M167.91,-154.3C156.97,-155.24 145.86,-156.19 135.26,-157.09"/>
<polygon fill="midnightblue" stroke="midnightblue" points="168.22,-157.79 177.89,-153.45 167.62,-150.81 168.22,-157.79"/>
</g>
<!-- Node7 -->
<g id="node7" class="node">
<title>Node7</title>
<g id="a_node7"><a xlink:href="class_t_interface.html#a14d8976ee13c85f12eab634de845baf1" target="_top" xlink:title=" ">
<polygon fill="white" stroke="black" points="6.5,-98.5 6.5,-128.5 135.5,-128.5 135.5,-98.5 6.5,-98.5"/>
<text text-anchor="start" x="14.5" y="-116.5" font-family="Helvetica,sans-Serif" font-size="10.00">TInterface::SaveImageAnd</text>
<text text-anchor="middle" x="71" y="-105.5" font-family="Helvetica,sans-Serif" font-size="10.00">GridMenuItemClick</text>
</a>
</g>
</g>
<!-- Node6&#45;&gt;Node7 -->
<g id="edge6" class="edge">
<title>Node6&#45;&gt;Node7</title>
<path fill="none" stroke="midnightblue" d="M170.54,-99.46C158.93,-101.12 147.06,-102.81 135.77,-104.42"/>
<polygon fill="midnightblue" stroke="midnightblue" points="171.24,-102.9 180.65,-98.02 170.26,-95.97 171.24,-102.9"/>
</g>
<!-- Node8 -->
<g id="node8" class="node">
<title>Node8</title>
<g id="a_node8"><a xlink:href="class_t_interface.html#ab73377784e302350bcc4f1fed4f8d90a" target="_top" xlink:title=" ">
<polygon fill="white" stroke="black" points="6.5,-49.5 6.5,-79.5 135.5,-79.5 135.5,-49.5 6.5,-49.5"/>
<text text-anchor="start" x="14.5" y="-67.5" font-family="Helvetica,sans-Serif" font-size="10.00">TInterface::SaveImageAnd</text>
<text text-anchor="middle" x="71" y="-56.5" font-family="Helvetica,sans-Serif" font-size="10.00">PrefDirsMenuItemClick</text>
</a>
</g>
</g>
<!-- Node6&#45;&gt;Node8 -->
<g id="edge7" class="edge">
<title>Node6&#45;&gt;Node8</title>
<path fill="none" stroke="midnightblue" d="M170.3,-77.94C158.7,-76.36 146.86,-74.74 135.6,-73.2"/>
<polygon fill="midnightblue" stroke="midnightblue" points="170.02,-81.44 180.4,-79.32 170.97,-74.5 170.02,-81.44"/>
</g>
<!-- Node9 -->
<g id="node9" class="node">
<title>Node9</title>
<g id="a_node9"><a xlink:href="class_t_interface.html#a69b645fe4cc36d0bea7de3fca553bd6a" target="_top" xlink:title=" ">
<polygon fill="white" stroke="black" points="0,-0.5 0,-30.5 142,-30.5 142,-0.5 0,-0.5"/>
<text text-anchor="start" x="8" y="-18.5" font-family="Helvetica,sans-Serif" font-size="10.00">TInterface::SaveImageNoGrid</text>
<text text-anchor="middle" x="71" y="-7.5" font-family="Helvetica,sans-Serif" font-size="10.00">MenuItemClick</text>
</a>
</g>
</g>
<!-- Node6&#45;&gt;Node9 -->
<g id="edge8" class="edge">
<title>Node6&#45;&gt;Node9</title>
<path fill="none" stroke="midnightblue" d="M219.29,-74.42C198.25,-64.15 168.65,-50.22 142,-39.5 134.37,-36.43 126.18,-33.4 118.19,-30.57"/>
<polygon fill="midnightblue" stroke="midnightblue" points="217.8,-77.59 228.32,-78.85 220.89,-71.3 217.8,-77.59"/>
</g>
<!-- Node10&#45;&gt;Node2 -->
<g id="edge10" class="edge">
<title>Node10&#45;&gt;Node2</title>
<path fill="none" stroke="midnightblue" d="M362.56,-189.81C347.74,-192.39 331.97,-195.14 317.04,-197.74"/>
<polygon fill="midnightblue" stroke="midnightblue" points="363.39,-193.22 372.64,-188.05 362.19,-186.32 363.39,-193.22"/>
</g>
</g>
</svg>
        <g id="navigator" transform="translate(0 0)" fill="#404254">
                <rect fill="#f2f5e9" fill-opacity="0.5" stroke="#606060" stroke-width=".5" x="0" y="0" width="60" height="60"/>
                <use id="zoomplus" xlink:href="#zoomPlus" x="17" y="9" onmousedown="handleZoom(evt,'in')"/>
                <use id="zoomminus" xlink:href="#zoomMin" x="42" y="9" onmousedown="handleZoom(evt,'out')"/>
                <use id="reset" xlink:href="#resetDef" x="30" y="36" onmousedown="handleReset()"/>
                <g id="arrowUp" xlink:href="#dirArrow" transform="translate(30 24)" onmousedown="handlePan(0,-1)">
                  <use xlink:href="#rim" fill="#404040">
                        <set attributeName="fill" to="#808080" begin="arrowUp.mouseover" end="arrowUp.mouseout"/>
                  </use>
                  <path fill="none" stroke="white" stroke-width="1.5" d="M0,-3.0v7 M-2.5,-0.5L0,-3.0L2.5,-0.5"/>
                </g>
                <g id="arrowRight" xlink:href="#dirArrow" transform="rotate(90) translate(36 -43)" onmousedown="handlePan(1,0)">
                  <use xlink:href="#rim" fill="#404040">
                        <set attributeName="fill" to="#808080" begin="arrowRight.mouseover" end="arrowRight.mouseout"/>
                  </use>
                  <path fill="none" stroke="white" stroke-width="1.5" d="M0,-3.0v7 M-2.5,-0.5L0,-3.0L2.5,-0.5"/>
                </g>
                <g id="arrowDown" xlink:href="#dirArrow" transform="rotate(180) translate(-30 -48)" onmousedown="handlePan(0,1)">
                  <use xlink:href="#rim" fill="#404040">
                        <set attributeName="fill" to="#808080" begin="arrowDown.mouseover" end="arrowDown.mouseout"/>
                  </use>
                  <path fill="none" stroke="white" stroke-width="1.5" d="M0,-3.0v7 M-2.5,-0.5L0,-3.0L2.5,-0.5"/>
                </g>
                <g id="arrowLeft" xlink:href="#dirArrow" transform="rotate(270) translate(-36 17)" onmousedown="handlePan(-1,0)">
                  <use xlink:href="#rim" fill="#404040">
                        <set attributeName="fill" to="#808080" begin="arrowLeft.mouseover" end="arrowLeft.mouseout"/>
                  </use>
                  <path fill="none" stroke="white" stroke-width="1.5" d="M0,-3.0v7 M-2.5,-0.5L0,-3.0L2.5,-0.5"/>
                </g>
        </g>
        <svg viewBox="0 0 15 15" width="100%" height="30px" preserveAspectRatio="xMaxYMin meet">
         <g id="arrow_out" transform="scale(0.3 0.3)">
          <a xlink:href="class_t_track_adbec6561f4ecd2fa1dabf3e41502b085_icgraph_org.svg" target="_base">
           <rect id="button" ry="5" rx="5" y="6" x="6" height="38" width="38"
                fill="#f2f5e9" fill-opacity="0.5" stroke="#606060" stroke-width="1.0"/>
           <path id="arrow"
             d="M 11.500037,31.436501 C 11.940474,20.09759 22.043105,11.32322 32.158766,21.979434 L 37.068811,17.246167 C 37.068811,17.246167 37.088388,32 37.088388,32 L 22.160133,31.978069 C 22.160133,31.978069 26.997745,27.140456 26.997745,27.140456 C 18.528582,18.264221 13.291696,25.230495 11.500037,31.436501 z"
             style="fill:#404040;"/>
          </a>
         </g>
        </svg>
</svg>
