<?xml version="1.0" encoding="UTF-8" standalone="no"?>
<!DOCTYPE svg PUBLIC "-//W3C//DTD SVG 1.1//EN"
 "http://www.w3.org/Graphics/SVG/1.1/DTD/svg11.dtd">
<!-- Generated by graphviz version 2.44.1 (20200629.0800)
 -->
<!-- Title: TDisplay::GetImage Pages: 1 -->
<svg width="469pt" height="2134pt"
 viewBox="0.00 0.00 469.00 2133.50" xmlns="http://www.w3.org/2000/svg" xmlns:xlink="http://www.w3.org/1999/xlink">
<g id="graph0" class="graph" transform="scale(1 1) rotate(0) translate(4 2129.5)">
<title>TDisplay::GetImage</title>
<polygon fill="white" stroke="transparent" points="-4,4 -4,-2129.5 465,-2129.5 465,4 -4,4"/>
<!-- Node1 -->
<g id="node1" class="node">
<title>Node1</title>
<g id="a_node1"><a xlink:title="Return a pointer to the screen image.">
<polygon fill="#bfbfbf" stroke="black" points="359,-1034.5 359,-1053.5 461,-1053.5 461,-1034.5 359,-1034.5"/>
<text text-anchor="middle" x="410" y="-1041.5" font-family="Helvetica,sans-Serif" font-size="10.00">TDisplay::GetImage</text>
</a>
</g>
</g>
<!-- Node2 -->
<g id="node2" class="node">
<title>Node2</title>
<g id="a_node2"><a xlink:href="class_t_interface.html#adec6eee7e3b3314673198431c4b1f777" target="_top" xlink:title=" ">
<polygon fill="white" stroke="black" points="187,-1091.5 187,-1110.5 323,-1110.5 323,-1091.5 187,-1091.5"/>
<text text-anchor="middle" x="255" y="-1098.5" font-family="Helvetica,sans-Serif" font-size="10.00">TInterface::ErrorButtonClick</text>
</a>
</g>
</g>
<!-- Node1&#45;&gt;Node2 -->
<g id="edge1" class="edge">
<title>Node1&#45;&gt;Node2</title>
<path fill="none" stroke="midnightblue" d="M380.38,-1057.85C363.84,-1065.55 342.51,-1074.96 323,-1082 313.45,-1085.45 302.95,-1088.68 293.16,-1091.46"/>
<polygon fill="midnightblue" stroke="midnightblue" points="381.95,-1060.98 389.51,-1053.55 378.97,-1054.65 381.95,-1060.98"/>
</g>
<!-- Node3 -->
<g id="node3" class="node">
<title>Node3</title>
<g id="a_node3"><a xlink:href="class_t_interface.html#a4f3a25665e2266441217849f947a1adf" target="_top" xlink:title="The error logging routine, called when an error is detected.">
<polygon fill="white" stroke="red" points="204.5,-1053.5 204.5,-1072.5 305.5,-1072.5 305.5,-1053.5 204.5,-1053.5"/>
<text text-anchor="middle" x="255" y="-1060.5" font-family="Helvetica,sans-Serif" font-size="10.00">TInterface::ErrorLog</text>
</a>
</g>
</g>
<!-- Node1&#45;&gt;Node3 -->
<g id="edge2" class="edge">
<title>Node1&#45;&gt;Node3</title>
<path fill="none" stroke="midnightblue" d="M348.69,-1051.49C334.44,-1053.26 319.41,-1055.13 305.69,-1056.83"/>
<polygon fill="midnightblue" stroke="midnightblue" points="349.41,-1054.93 358.9,-1050.22 348.55,-1047.98 349.41,-1054.93"/>
</g>
<!-- Node190 -->
<g id="node49" class="node">
<title>Node190</title>
<g id="a_node49"><a xlink:href="class_t_track.html#af56adb319c7003b8ddac8e55afaee3d2" target="_top" xlink:title="Plot points on screen according to how they are set (Attribute value), or, with both fillets if BothF...">
<polygon fill="white" stroke="red" points="206.5,-1015.5 206.5,-1034.5 303.5,-1034.5 303.5,-1015.5 206.5,-1015.5"/>
<text text-anchor="middle" x="255" y="-1022.5" font-family="Helvetica,sans-Serif" font-size="10.00">TTrack::PlotPoints</text>
</a>
</g>
</g>
<!-- Node1&#45;&gt;Node190 -->
<g id="edge48" class="edge">
<title>Node1&#45;&gt;Node190</title>
<path fill="none" stroke="midnightblue" d="M348.7,-1036.51C333.73,-1034.65 317.88,-1032.68 303.61,-1030.91"/>
<polygon fill="midnightblue" stroke="midnightblue" points="348.55,-1040.02 358.9,-1037.78 349.41,-1033.07 348.55,-1040.02"/>
</g>
<!-- Node215 -->
<g id="node50" class="node">
<title>Node215</title>
<g id="a_node50"><a xlink:href="class_t_track.html#aa5742fbc2eb3f8743dde84005499f89e" target="_top" xlink:title="Plot signals on screen according to their aspect (Attribute value)">
<polygon fill="white" stroke="red" points="207,-977.5 207,-996.5 303,-996.5 303,-977.5 207,-977.5"/>
<text text-anchor="middle" x="255" y="-984.5" font-family="Helvetica,sans-Serif" font-size="10.00">TTrack::PlotSignal</text>
</a>
</g>
</g>
<!-- Node1&#45;&gt;Node215 -->
<g id="edge49" class="edge">
<title>Node1&#45;&gt;Node215</title>
<path fill="none" stroke="midnightblue" d="M380.38,-1030.15C363.84,-1022.45 342.51,-1013.04 323,-1006 313.45,-1002.55 302.95,-999.32 293.16,-996.54"/>
<polygon fill="midnightblue" stroke="midnightblue" points="378.97,-1033.35 389.51,-1034.45 381.95,-1027.02 378.97,-1033.35"/>
</g>
<!-- Node4 -->
<g id="node4" class="node">
<title>Node4</title>
<g id="a_node4"><a xlink:href="class_t_interface.html#a7ccec66d1d0a81f124397af39f43da32" target="_top" xlink:title=" ">
<polygon fill="white" stroke="black" points="9,-2095 9,-2125 142,-2125 142,-2095 9,-2095"/>
<text text-anchor="start" x="17" y="-2113" font-family="Helvetica,sans-Serif" font-size="10.00">TInterface::AboutMenuItem</text>
<text text-anchor="middle" x="75.5" y="-2102" font-family="Helvetica,sans-Serif" font-size="10.00">Click</text>
</a>
</g>
</g>
<!-- Node3&#45;&gt;Node4 -->
<g id="edge3" class="edge">
<title>Node3&#45;&gt;Node4</title>
<path fill="none" stroke="midnightblue" d="M195.33,-1074.22C192.2,-1076.4 189.38,-1078.97 187,-1082 118.11,-1169.83 218.33,-1996.97 151,-2086 148.38,-2089.47 145.25,-2092.44 141.77,-2095"/>
<polygon fill="midnightblue" stroke="midnightblue" points="197.13,-1077.22 204.19,-1069.32 193.74,-1071.09 197.13,-1077.22"/>
</g>
<!-- Node5 -->
<g id="node5" class="node">
<title>Node5</title>
<g id="a_node5"><a xlink:href="class_t_interface.html#a30904d608111ce6452a9861d86b64267" target="_top" xlink:title=" ">
<polygon fill="white" stroke="black" points="10,-2046 10,-2076 141,-2076 141,-2046 10,-2046"/>
<text text-anchor="start" x="18" y="-2064" font-family="Helvetica,sans-Serif" font-size="10.00">TInterface::AddMinsButton</text>
<text text-anchor="middle" x="75.5" y="-2053" font-family="Helvetica,sans-Serif" font-size="10.00">Click</text>
</a>
</g>
</g>
<!-- Node3&#45;&gt;Node5 -->
<g id="edge4" class="edge">
<title>Node3&#45;&gt;Node5</title>
<path fill="none" stroke="midnightblue" d="M195.33,-1074.22C192.21,-1076.4 189.38,-1078.97 187,-1082 121.39,-1165.49 215.13,-1952.36 151,-2037 148.21,-2040.68 144.85,-2043.81 141.11,-2046.47"/>
<polygon fill="midnightblue" stroke="midnightblue" points="197.14,-1077.22 204.2,-1069.33 193.75,-1071.1 197.14,-1077.22"/>
</g>
<!-- Node6 -->
<g id="node6" class="node">
<title>Node6</title>
<g id="a_node6"><a xlink:href="class_t_interface.html#a1b1a4260e251c9bd5f48fd6c3432e7a5" target="_top" xlink:title=" ">
<polygon fill="white" stroke="black" points="5.5,-1997 5.5,-2027 145.5,-2027 145.5,-1997 5.5,-1997"/>
<text text-anchor="start" x="13.5" y="-2015" font-family="Helvetica,sans-Serif" font-size="10.00">TInterface::AddPrefDirButton</text>
<text text-anchor="middle" x="75.5" y="-2004" font-family="Helvetica,sans-Serif" font-size="10.00">Click</text>
</a>
</g>
</g>
<!-- Node3&#45;&gt;Node6 -->
<g id="edge5" class="edge">
<title>Node3&#45;&gt;Node6</title>
<path fill="none" stroke="midnightblue" d="M195.34,-1074.23C192.21,-1076.4 189.38,-1078.97 187,-1082 124.67,-1161.15 211.92,-1907.76 151,-1988 148.37,-1991.46 145.23,-1994.44 141.76,-1996.99"/>
<polygon fill="midnightblue" stroke="midnightblue" points="197.14,-1077.23 204.21,-1069.34 193.76,-1071.1 197.14,-1077.23"/>
</g>
<!-- Node7 -->
<g id="node7" class="node">
<title>Node7</title>
<g id="a_node7"><a xlink:href="class_t_interface.html#a0abab134f4994b02507e1e2d3f31cd77" target="_top" xlink:title=" ">
<polygon fill="white" stroke="black" points="7,-1948 7,-1978 144,-1978 144,-1948 7,-1948"/>
<text text-anchor="start" x="15" y="-1966" font-family="Helvetica,sans-Serif" font-size="10.00">TInterface::AddSubMinsBox</text>
<text text-anchor="middle" x="75.5" y="-1955" font-family="Helvetica,sans-Serif" font-size="10.00">KeyUp</text>
</a>
</g>
</g>
<!-- Node3&#45;&gt;Node7 -->
<g id="edge6" class="edge">
<title>Node3&#45;&gt;Node7</title>
<path fill="none" stroke="midnightblue" d="M195.35,-1074.23C192.22,-1076.41 189.39,-1078.98 187,-1082 127.95,-1156.81 208.72,-1863.16 151,-1939 148.37,-1942.46 145.23,-1945.43 141.75,-1947.98"/>
<polygon fill="midnightblue" stroke="midnightblue" points="197.15,-1077.24 204.22,-1069.34 193.77,-1071.11 197.15,-1077.24"/>
</g>
<!-- Node8 -->
<g id="node8" class="node">
<title>Node8</title>
<g id="a_node8"><a xlink:href="class_t_interface.html#aa20c05bf2d6c23035a10a89796334d0f" target="_top" xlink:title=" ">
<polygon fill="white" stroke="black" points="11,-1899 11,-1929 140,-1929 140,-1899 11,-1899"/>
<text text-anchor="start" x="19" y="-1917" font-family="Helvetica,sans-Serif" font-size="10.00">TInterface::AddTextButton</text>
<text text-anchor="middle" x="75.5" y="-1906" font-family="Helvetica,sans-Serif" font-size="10.00">Click</text>
</a>
</g>
</g>
<!-- Node3&#45;&gt;Node8 -->
<g id="edge7" class="edge">
<title>Node3&#45;&gt;Node8</title>
<path fill="none" stroke="midnightblue" d="M195.36,-1074.24C192.23,-1076.41 189.39,-1078.98 187,-1082 131.23,-1152.47 205.52,-1818.56 151,-1890 147.95,-1894 144.23,-1897.34 140.08,-1900.13"/>
<polygon fill="midnightblue" stroke="midnightblue" points="197.16,-1077.24 204.23,-1069.35 193.78,-1071.11 197.16,-1077.24"/>
</g>
<!-- Node9 -->
<g id="node9" class="node">
<title>Node9</title>
<g id="a_node9"><a xlink:href="class_t_interface.html#a10494e62a7bb4e7114ab4d98e18499f1" target="_top" xlink:title=" ">
<polygon fill="white" stroke="black" points="8.5,-1850 8.5,-1880 142.5,-1880 142.5,-1850 8.5,-1850"/>
<text text-anchor="start" x="16.5" y="-1868" font-family="Helvetica,sans-Serif" font-size="10.00">TInterface::AddTrackButton</text>
<text text-anchor="middle" x="75.5" y="-1857" font-family="Helvetica,sans-Serif" font-size="10.00">Click</text>
</a>
</g>
</g>
<!-- Node3&#45;&gt;Node9 -->
<g id="edge8" class="edge">
<title>Node3&#45;&gt;Node9</title>
<path fill="none" stroke="midnightblue" d="M195.37,-1074.25C192.23,-1076.42 189.4,-1078.98 187,-1082 82.02,-1214.26 253.63,-1706.91 151,-1841 148.36,-1844.45 145.21,-1847.42 141.73,-1849.96"/>
<polygon fill="midnightblue" stroke="midnightblue" points="197.17,-1077.25 204.25,-1069.37 193.8,-1071.12 197.17,-1077.25"/>
</g>
<!-- Node10 -->
<g id="node10" class="node">
<title>Node10</title>
<g id="a_node10"><a xlink:href="class_t_interface.html#a189a4b05f27d6b5ec8b9a90ec1a9cc50" target="_top" xlink:title=" ">
<polygon fill="white" stroke="black" points="9,-1801 9,-1831 142,-1831 142,-1801 9,-1801"/>
<text text-anchor="start" x="17" y="-1819" font-family="Helvetica,sans-Serif" font-size="10.00">TInterface::AllEntriesTTList</text>
<text text-anchor="middle" x="75.5" y="-1808" font-family="Helvetica,sans-Serif" font-size="10.00">BoxMouseUp</text>
</a>
</g>
</g>
<!-- Node3&#45;&gt;Node10 -->
<g id="edge9" class="edge">
<title>Node3&#45;&gt;Node10</title>
<path fill="none" stroke="midnightblue" d="M195.38,-1074.26C192.24,-1076.43 189.4,-1078.99 187,-1082 88.71,-1205.4 246.33,-1665.3 151,-1791 148.11,-1794.8 144.63,-1798.04 140.75,-1800.78"/>
<polygon fill="midnightblue" stroke="midnightblue" points="197.18,-1077.26 204.26,-1069.38 193.81,-1071.12 197.18,-1077.26"/>
</g>
<!-- Node11 -->
<g id="node11" class="node">
<title>Node11</title>
<g id="a_node11"><a xlink:href="class_t_interface.html#af99ae89b6c7a2d37bf49cf0b5fcc3f1f" target="_top" xlink:title=" ">
<polygon fill="white" stroke="red" points="17.5,-1762.5 17.5,-1781.5 133.5,-1781.5 133.5,-1762.5 17.5,-1762.5"/>
<text text-anchor="middle" x="75.5" y="-1769.5" font-family="Helvetica,sans-Serif" font-size="10.00">TInterface::AppActivate</text>
</a>
</g>
</g>
<!-- Node3&#45;&gt;Node11 -->
<g id="edge10" class="edge">
<title>Node3&#45;&gt;Node11</title>
<path fill="none" stroke="midnightblue" d="M195.39,-1074.27C192.25,-1076.43 189.41,-1078.99 187,-1082 93.8,-1198.67 245.74,-1637.58 151,-1753 146.34,-1758.67 140.25,-1762.79 133.55,-1765.75"/>
<polygon fill="midnightblue" stroke="midnightblue" points="197.19,-1077.27 204.28,-1069.39 193.83,-1071.13 197.19,-1077.27"/>
</g>
<!-- Node13 -->
<g id="node12" class="node">
<title>Node13</title>
<g id="a_node12"><a xlink:href="class_t_interface.html#a75f68c918750c0e007ea7a85d718e2ab" target="_top" xlink:title=" ">
<polygon fill="white" stroke="red" points="12,-1724.5 12,-1743.5 139,-1743.5 139,-1724.5 12,-1724.5"/>
<text text-anchor="middle" x="75.5" y="-1731.5" font-family="Helvetica,sans-Serif" font-size="10.00">TInterface::AppDeactivate</text>
</a>
</g>
</g>
<!-- Node3&#45;&gt;Node13 -->
<g id="edge11" class="edge">
<title>Node3&#45;&gt;Node13</title>
<path fill="none" stroke="midnightblue" d="M195.4,-1074.27C192.26,-1076.44 189.41,-1078.99 187,-1082 98.89,-1191.94 240.57,-1606.24 151,-1715 147.69,-1719.02 143.66,-1722.25 139.21,-1724.85"/>
<polygon fill="midnightblue" stroke="midnightblue" points="197.2,-1077.28 204.29,-1069.4 193.84,-1071.14 197.2,-1077.28"/>
</g>
<!-- Node14 -->
<g id="node13" class="node">
<title>Node14</title>
<g id="a_node13"><a xlink:href="class_t_interface.html#a36ad38f4b485bba874129aeb3a20d926" target="_top" xlink:title=" ">
<polygon fill="white" stroke="black" points="9,-1675 9,-1705 142,-1705 142,-1675 9,-1675"/>
<text text-anchor="start" x="17" y="-1693" font-family="Helvetica,sans-Serif" font-size="10.00">TInterface::AutoSigsButton</text>
<text text-anchor="middle" x="75.5" y="-1682" font-family="Helvetica,sans-Serif" font-size="10.00">Click</text>
</a>
</g>
</g>
<!-- Node3&#45;&gt;Node14 -->
<g id="edge12" class="edge">
<title>Node3&#45;&gt;Node14</title>
<path fill="none" stroke="midnightblue" d="M195.42,-1074.29C192.27,-1076.45 189.42,-1079 187,-1082 105.44,-1183.27 230.76,-1563.31 151,-1666 148.33,-1669.43 145.17,-1672.38 141.67,-1674.92"/>
<polygon fill="midnightblue" stroke="midnightblue" points="197.22,-1077.29 204.32,-1069.42 193.86,-1071.15 197.22,-1077.29"/>
</g>
<!-- Node15 -->
<g id="node14" class="node">
<title>Node15</title>
<g id="a_node14"><a xlink:href="class_t_interface.html#a28579472104533fb5fd01066a22fbb5b" target="_top" xlink:title=" ">
<polygon fill="white" stroke="black" points="11,-1626 11,-1656 140,-1656 140,-1626 11,-1626"/>
<text text-anchor="start" x="19" y="-1644" font-family="Helvetica,sans-Serif" font-size="10.00">TInterface::AZOrderButton</text>
<text text-anchor="middle" x="75.5" y="-1633" font-family="Helvetica,sans-Serif" font-size="10.00">Click</text>
</a>
</g>
</g>
<!-- Node3&#45;&gt;Node15 -->
<g id="edge13" class="edge">
<title>Node3&#45;&gt;Node15</title>
<path fill="none" stroke="midnightblue" d="M195.44,-1074.3C192.29,-1076.46 189.43,-1079.01 187,-1082 112,-1174.59 224.36,-1523.1 151,-1617 147.99,-1620.86 144.35,-1624.1 140.32,-1626.83"/>
<polygon fill="midnightblue" stroke="midnightblue" points="197.24,-1077.31 204.35,-1069.45 193.89,-1071.16 197.24,-1077.31"/>
</g>
<!-- Node16 -->
<g id="node15" class="node">
<title>Node16</title>
<g id="a_node15"><a xlink:href="class_t_interface.html#a0e9af41ff305fe2813385fce38b73206" target="_top" xlink:title=" ">
<polygon fill="white" stroke="black" points="0,-1577 0,-1607 151,-1607 151,-1577 0,-1577"/>
<text text-anchor="start" x="8" y="-1595" font-family="Helvetica,sans-Serif" font-size="10.00">TInterface::BecomeNewService</text>
<text text-anchor="middle" x="75.5" y="-1584" font-family="Helvetica,sans-Serif" font-size="10.00">MenuItemClick</text>
</a>
</g>
</g>
<!-- Node3&#45;&gt;Node16 -->
<g id="edge14" class="edge">
<title>Node3&#45;&gt;Node16</title>
<path fill="none" stroke="midnightblue" d="M195.46,-1074.32C192.3,-1076.48 189.44,-1079.01 187,-1082 118.55,-1165.92 217.96,-1482.88 151,-1568 148.31,-1571.42 145.13,-1574.36 141.62,-1576.88"/>
<polygon fill="midnightblue" stroke="midnightblue" points="197.27,-1077.32 204.38,-1069.47 193.92,-1071.17 197.27,-1077.32"/>
</g>
<!-- Node17 -->
<g id="node16" class="node">
<title>Node17</title>
<g id="a_node16"><a xlink:href="class_t_interface.html#a237c151513ca8adca6cd1006cc2fc66f" target="_top" xlink:title=" ">
<polygon fill="white" stroke="black" points="7.5,-1528 7.5,-1558 143.5,-1558 143.5,-1528 7.5,-1528"/>
<text text-anchor="start" x="15.5" y="-1546" font-family="Helvetica,sans-Serif" font-size="10.00">TInterface::BlackBgndMenu</text>
<text text-anchor="middle" x="75.5" y="-1535" font-family="Helvetica,sans-Serif" font-size="10.00">ItemClick</text>
</a>
</g>
</g>
<!-- Node3&#45;&gt;Node17 -->
<g id="edge15" class="edge">
<title>Node3&#45;&gt;Node17</title>
<path fill="none" stroke="midnightblue" d="M195.49,-1074.35C192.33,-1076.49 189.45,-1079.02 187,-1082 125.1,-1157.25 211.56,-1442.66 151,-1519 148.3,-1522.41 145.11,-1525.34 141.59,-1527.86"/>
<polygon fill="midnightblue" stroke="midnightblue" points="197.29,-1077.35 204.42,-1069.51 193.96,-1071.19 197.29,-1077.35"/>
</g>
<!-- Node18 -->
<g id="node17" class="node">
<title>Node18</title>
<g id="a_node17"><a xlink:href="class_t_interface.html#a24d79aa4745e495daa07bb5ce412e75f" target="_top" xlink:title=" ">
<polygon fill="white" stroke="black" points="10,-1479 10,-1509 141,-1509 141,-1479 10,-1479"/>
<text text-anchor="start" x="18" y="-1497" font-family="Helvetica,sans-Serif" font-size="10.00">TInterface::BlueBgndMenu</text>
<text text-anchor="middle" x="75.5" y="-1486" font-family="Helvetica,sans-Serif" font-size="10.00">ItemClick</text>
</a>
</g>
</g>
<!-- Node3&#45;&gt;Node18 -->
<g id="edge16" class="edge">
<title>Node3&#45;&gt;Node18</title>
<path fill="none" stroke="midnightblue" d="M195.52,-1074.37C192.35,-1076.52 189.46,-1079.04 187,-1082 131.65,-1148.59 205.17,-1402.44 151,-1470 148.19,-1473.5 144.88,-1476.49 141.22,-1479.06"/>
<polygon fill="midnightblue" stroke="midnightblue" points="197.33,-1077.38 204.47,-1069.55 194.01,-1071.21 197.33,-1077.38"/>
</g>
<!-- Node19 -->
<g id="node18" class="node">
<title>Node19</title>
<g id="a_node18"><a xlink:href="class_t_interface.html#ab1799665ee1e4212186f80ab49acf1e1" target="_top" xlink:title=" ">
<polygon fill="white" stroke="black" points="8.5,-1430 8.5,-1460 142.5,-1460 142.5,-1430 8.5,-1430"/>
<text text-anchor="start" x="16.5" y="-1448" font-family="Helvetica,sans-Serif" font-size="10.00">TInterface::BuildTrackMenu</text>
<text text-anchor="middle" x="75.5" y="-1437" font-family="Helvetica,sans-Serif" font-size="10.00">ItemClick</text>
</a>
</g>
</g>
<!-- Node3&#45;&gt;Node19 -->
<g id="edge17" class="edge">
<title>Node3&#45;&gt;Node19</title>
<path fill="none" stroke="midnightblue" d="M195.41,-1074.52C192.29,-1076.63 189.44,-1079.1 187,-1082 89.38,-1197.87 246.56,-1303.42 151,-1421 148.26,-1424.37 145.04,-1427.28 141.5,-1429.78"/>
<polygon fill="midnightblue" stroke="midnightblue" points="197.08,-1077.59 204.2,-1069.75 193.74,-1071.44 197.08,-1077.59"/>
</g>
<!-- Node20 -->
<g id="node19" class="node">
<title>Node20</title>
<g id="a_node19"><a xlink:href="class_t_interface.html#ae758bf4183bb5aa2a7cd83e06acd89b6" target="_top" xlink:title=" ">
<polygon fill="white" stroke="black" points="8,-1381 8,-1411 143,-1411 143,-1381 8,-1381"/>
<text text-anchor="start" x="16" y="-1399" font-family="Helvetica,sans-Serif" font-size="10.00">TInterface::CallingOnButton</text>
<text text-anchor="middle" x="75.5" y="-1388" font-family="Helvetica,sans-Serif" font-size="10.00">Click</text>
</a>
</g>
</g>
<!-- Node3&#45;&gt;Node20 -->
<g id="edge18" class="edge">
<title>Node3&#45;&gt;Node20</title>
<path fill="none" stroke="midnightblue" d="M195.47,-1074.57C192.33,-1076.67 189.47,-1079.12 187,-1082 102.44,-1180.58 233.81,-1271.94 151,-1372 148.14,-1375.45 144.78,-1378.42 141.1,-1380.96"/>
<polygon fill="midnightblue" stroke="midnightblue" points="197.14,-1077.64 204.29,-1069.82 193.82,-1071.48 197.14,-1077.64"/>
</g>
<!-- Node21 -->
<g id="node20" class="node">
<title>Node21</title>
<g id="a_node20"><a xlink:href="class_t_interface.html#a2fb2cd7dbddb7fa689ea994e9ffc10ff" target="_top" xlink:title=" ">
<polygon fill="white" stroke="black" points="8,-1332 8,-1362 143,-1362 143,-1332 8,-1332"/>
<text text-anchor="start" x="16" y="-1350" font-family="Helvetica,sans-Serif" font-size="10.00">TInterface::CancelSelection</text>
<text text-anchor="middle" x="75.5" y="-1339" font-family="Helvetica,sans-Serif" font-size="10.00">MenuItemClick</text>
</a>
</g>
</g>
<!-- Node3&#45;&gt;Node21 -->
<g id="edge19" class="edge">
<title>Node3&#45;&gt;Node21</title>
<path fill="none" stroke="midnightblue" d="M195.55,-1074.64C192.4,-1076.72 189.5,-1079.15 187,-1082 115.48,-1163.32 221.08,-1240.43 151,-1323 148.1,-1326.42 144.71,-1329.36 141,-1331.88"/>
<polygon fill="midnightblue" stroke="midnightblue" points="197.23,-1077.71 204.41,-1069.92 193.93,-1071.54 197.23,-1077.71"/>
</g>
<!-- Node22 -->
<g id="node21" class="node">
<title>Node22</title>
<g id="a_node21"><a xlink:href="class_t_interface.html#a6fb1db3295ef42cb1b6f20bc142fa502" target="_top" xlink:title=" ">
<polygon fill="white" stroke="black" points="11.5,-1283 11.5,-1313 139.5,-1313 139.5,-1283 11.5,-1283"/>
<text text-anchor="start" x="19.5" y="-1301" font-family="Helvetica,sans-Serif" font-size="10.00">TInterface::CancelTTEntry</text>
<text text-anchor="middle" x="75.5" y="-1290" font-family="Helvetica,sans-Serif" font-size="10.00">ButtonClick</text>
</a>
</g>
</g>
<!-- Node3&#45;&gt;Node22 -->
<g id="edge20" class="edge">
<title>Node3&#45;&gt;Node22</title>
<path fill="none" stroke="midnightblue" d="M195.23,-1075.03C192.22,-1077.02 189.44,-1079.33 187,-1082 128.46,-1146.12 208.39,-1208.86 151,-1274 147.77,-1277.67 143.97,-1280.78 139.83,-1283.42"/>
<polygon fill="midnightblue" stroke="midnightblue" points="197.07,-1078.02 204.24,-1070.22 193.77,-1071.85 197.07,-1078.02"/>
</g>
<!-- Node23 -->
<g id="node22" class="node">
<title>Node23</title>
<g id="a_node22"><a xlink:href="class_t_interface.html#aaaf32c3c815553f7ba70698e0f0071bb" target="_top" xlink:title=" ">
<polygon fill="white" stroke="black" points="7.5,-1234 7.5,-1264 143.5,-1264 143.5,-1234 7.5,-1234"/>
<text text-anchor="start" x="15.5" y="-1252" font-family="Helvetica,sans-Serif" font-size="10.00">TInterface::ChangeDirection</text>
<text text-anchor="middle" x="75.5" y="-1241" font-family="Helvetica,sans-Serif" font-size="10.00">MenuItemClick</text>
</a>
</g>
</g>
<!-- Node3&#45;&gt;Node23 -->
<g id="edge21" class="edge">
<title>Node3&#45;&gt;Node23</title>
<path fill="none" stroke="midnightblue" d="M195.26,-1075.31C192.27,-1077.24 189.48,-1079.45 187,-1082 141.35,-1129.03 195.81,-1177.18 151,-1225 147.75,-1228.47 143.99,-1231.44 139.93,-1233.98"/>
<polygon fill="midnightblue" stroke="midnightblue" points="196.96,-1078.38 204.19,-1070.63 193.71,-1072.18 196.96,-1078.38"/>
</g>
<!-- Node24 -->
<g id="node23" class="node">
<title>Node24</title>
<g id="a_node23"><a xlink:href="class_t_interface.html#a928eba983ac5132e1ae7799f8330451e" target="_top" xlink:title=" ">
<polygon fill="white" stroke="black" points="14.5,-1185 14.5,-1215 136.5,-1215 136.5,-1185 14.5,-1185"/>
<text text-anchor="start" x="22.5" y="-1203" font-family="Helvetica,sans-Serif" font-size="10.00">TInterface::ClearAllMenu</text>
<text text-anchor="middle" x="75.5" y="-1192" font-family="Helvetica,sans-Serif" font-size="10.00">ItemClick</text>
</a>
</g>
</g>
<!-- Node3&#45;&gt;Node24 -->
<g id="edge22" class="edge">
<title>Node3&#45;&gt;Node24</title>
<path fill="none" stroke="midnightblue" d="M195.18,-1075.94C192.26,-1077.71 189.5,-1079.72 187,-1082 154.24,-1111.85 183.05,-1144.38 151,-1175 146.76,-1179.05 141.84,-1182.45 136.59,-1185.3"/>
<polygon fill="midnightblue" stroke="midnightblue" points="197.02,-1078.94 204.38,-1071.32 193.87,-1072.68 197.02,-1078.94"/>
</g>
<!-- Node25 -->
<g id="node24" class="node">
<title>Node25</title>
<g id="a_node24"><a xlink:href="class_t_interface.html#a6139ffb52492eb89e5487a8a3cd647b5" target="_top" xlink:title="The main loop, called every clock tick via MasterClockTimer.">
<polygon fill="white" stroke="red" points="16,-1146.5 16,-1165.5 135,-1165.5 135,-1146.5 16,-1146.5"/>
<text text-anchor="middle" x="75.5" y="-1153.5" font-family="Helvetica,sans-Serif" font-size="10.00">TInterface::ClockTimer2</text>
</a>
</g>
</g>
<!-- Node3&#45;&gt;Node25 -->
<g id="edge23" class="edge">
<title>Node3&#45;&gt;Node25</title>
<path fill="none" stroke="midnightblue" d="M195.39,-1076.77C192.45,-1078.33 189.63,-1080.07 187,-1082 163.46,-1099.3 174.77,-1120.01 151,-1137 145.57,-1140.88 139.42,-1143.97 133.04,-1146.43"/>
<polygon fill="midnightblue" stroke="midnightblue" points="196.87,-1079.94 204.51,-1072.6 193.96,-1073.58 196.87,-1079.94"/>
</g>
<!-- Node27 -->
<g id="node25" class="node">
<title>Node27</title>
<g id="a_node25"><a xlink:href="class_t_interface.html#a77b4d0c5298ea6b8968af152fd8b7b8b" target="_top" xlink:title=" ">
<polygon fill="white" stroke="black" points="8.5,-1097 8.5,-1127 142.5,-1127 142.5,-1097 8.5,-1097"/>
<text text-anchor="start" x="16.5" y="-1115" font-family="Helvetica,sans-Serif" font-size="10.00">TInterface::ConflictAnalysis</text>
<text text-anchor="middle" x="75.5" y="-1104" font-family="Helvetica,sans-Serif" font-size="10.00">ButtonClick</text>
</a>
</g>
</g>
<!-- Node3&#45;&gt;Node27 -->
<g id="edge24" class="edge">
<title>Node3&#45;&gt;Node27</title>
<path fill="none" stroke="midnightblue" d="M209.53,-1075.28C185.7,-1081.85 156.16,-1090.01 130.97,-1096.96"/>
<polygon fill="midnightblue" stroke="midnightblue" points="210.65,-1078.6 219.35,-1072.56 208.78,-1071.85 210.65,-1078.6"/>
</g>
<!-- Node28 -->
<g id="node26" class="node">
<title>Node28</title>
<g id="a_node26"><a xlink:href="class_t_interface.html#a7aca81081a7983f1389c923e95c7afee" target="_top" xlink:title=" ">
<polygon fill="white" stroke="black" points="7.5,-1048 7.5,-1078 143.5,-1078 143.5,-1048 7.5,-1048"/>
<text text-anchor="start" x="15.5" y="-1066" font-family="Helvetica,sans-Serif" font-size="10.00">TInterface::ConvertToOther</text>
<text text-anchor="middle" x="75.5" y="-1055" font-family="Helvetica,sans-Serif" font-size="10.00">HandSignalsMenuItemClick</text>
</a>
</g>
</g>
<!-- Node3&#45;&gt;Node28 -->
<g id="edge25" class="edge">
<title>Node3&#45;&gt;Node28</title>
<path fill="none" stroke="midnightblue" d="M193.72,-1063C177.59,-1063 160.06,-1063 143.59,-1063"/>
<polygon fill="midnightblue" stroke="midnightblue" points="194.08,-1066.5 204.08,-1063 194.08,-1059.5 194.08,-1066.5"/>
</g>
<!-- Node29 -->
<g id="node27" class="node">
<title>Node29</title>
<g id="a_node27"><a xlink:href="class_t_interface.html#a424a7eb780461c1acb396feb21f52062" target="_top" xlink:title=" ">
<polygon fill="white" stroke="black" points="10.5,-999 10.5,-1029 140.5,-1029 140.5,-999 10.5,-999"/>
<text text-anchor="start" x="18.5" y="-1017" font-family="Helvetica,sans-Serif" font-size="10.00">TInterface::CopyMenuItem</text>
<text text-anchor="middle" x="75.5" y="-1006" font-family="Helvetica,sans-Serif" font-size="10.00">Click</text>
</a>
</g>
</g>
<!-- Node3&#45;&gt;Node29 -->
<g id="edge26" class="edge">
<title>Node3&#45;&gt;Node29</title>
<path fill="none" stroke="midnightblue" d="M209.53,-1050.72C185.7,-1044.15 156.16,-1035.99 130.97,-1029.04"/>
<polygon fill="midnightblue" stroke="midnightblue" points="208.78,-1054.15 219.35,-1053.44 210.65,-1047.4 208.78,-1054.15"/>
</g>
<!-- Node30 -->
<g id="node28" class="node">
<title>Node30</title>
<g id="a_node28"><a xlink:href="class_t_interface.html#adc0dd871fdd70ff11ada7a0ddd549e8e" target="_top" xlink:title=" ">
<polygon fill="white" stroke="black" points="1,-950 1,-980 150,-980 150,-950 1,-950"/>
<text text-anchor="start" x="9" y="-968" font-family="Helvetica,sans-Serif" font-size="10.00">TInterface::CopyTTEntryButton</text>
<text text-anchor="middle" x="75.5" y="-957" font-family="Helvetica,sans-Serif" font-size="10.00">Click</text>
</a>
</g>
</g>
<!-- Node3&#45;&gt;Node30 -->
<g id="edge27" class="edge">
<title>Node3&#45;&gt;Node30</title>
<path fill="none" stroke="midnightblue" d="M195.58,-1049.29C192.57,-1047.71 189.69,-1045.96 187,-1044 163.69,-1027.02 173.91,-1007.53 151,-990 146.02,-986.19 140.42,-982.93 134.59,-980.17"/>
<polygon fill="midnightblue" stroke="midnightblue" points="194.34,-1052.57 204.89,-1053.5 197.22,-1046.19 194.34,-1052.57"/>
</g>
<!-- Node31 -->
<g id="node29" class="node">
<title>Node31</title>
<g id="a_node29"><a xlink:href="class_t_interface.html#a117ba58c37a617edeeb033fcdff841e9" target="_top" xlink:title=" ">
<polygon fill="white" stroke="black" points="7,-901 7,-931 144,-931 144,-901 7,-901"/>
<text text-anchor="start" x="15" y="-919" font-family="Helvetica,sans-Serif" font-size="10.00">TInterface::CPCancelButton</text>
<text text-anchor="middle" x="75.5" y="-908" font-family="Helvetica,sans-Serif" font-size="10.00">Click</text>
</a>
</g>
</g>
<!-- Node3&#45;&gt;Node31 -->
<g id="edge28" class="edge">
<title>Node3&#45;&gt;Node31</title>
<path fill="none" stroke="midnightblue" d="M195.09,-1050.16C192.19,-1048.36 189.46,-1046.32 187,-1044 151.7,-1010.75 185.5,-975.08 151,-941 147.12,-937.17 142.63,-933.92 137.82,-931.17"/>
<polygon fill="midnightblue" stroke="midnightblue" points="193.74,-1053.4 204.24,-1054.83 196.93,-1047.16 193.74,-1053.4"/>
</g>
<!-- Node32 -->
<g id="node30" class="node">
<title>Node32</title>
<g id="a_node30"><a xlink:href="class_t_interface.html#a6379037c7970acda71188947cb3ba6b2" target="_top" xlink:title=" ">
<polygon fill="white" stroke="black" points="5.5,-852 5.5,-882 145.5,-882 145.5,-852 5.5,-852"/>
<text text-anchor="start" x="13.5" y="-870" font-family="Helvetica,sans-Serif" font-size="10.00">TInterface::CPGenFileButton</text>
<text text-anchor="middle" x="75.5" y="-859" font-family="Helvetica,sans-Serif" font-size="10.00">Click</text>
</a>
</g>
</g>
<!-- Node3&#45;&gt;Node32 -->
<g id="edge29" class="edge">
<title>Node3&#45;&gt;Node32</title>
<path fill="none" stroke="midnightblue" d="M195.38,-1050.83C192.33,-1048.87 189.5,-1046.61 187,-1044 139,-993.85 197.8,-943.28 151,-892 147.51,-888.17 143.41,-884.93 138.96,-882.18"/>
<polygon fill="midnightblue" stroke="midnightblue" points="193.98,-1054.05 204.46,-1055.58 197.22,-1047.84 193.98,-1054.05"/>
</g>
<!-- Node33 -->
<g id="node31" class="node">
<title>Node33</title>
<g id="a_node31"><a xlink:href="class_t_interface.html#a1c8fab7fa2f1be662f2d7418e95e3a63" target="_top" xlink:title=" ">
<polygon fill="white" stroke="black" points="8,-803 8,-833 143,-833 143,-803 8,-803"/>
<text text-anchor="start" x="16" y="-821" font-family="Helvetica,sans-Serif" font-size="10.00">TInterface::CreateTimetable</text>
<text text-anchor="middle" x="75.5" y="-810" font-family="Helvetica,sans-Serif" font-size="10.00">MenuItemClick</text>
</a>
</g>
</g>
<!-- Node3&#45;&gt;Node33 -->
<g id="edge30" class="edge">
<title>Node3&#45;&gt;Node33</title>
<path fill="none" stroke="midnightblue" d="M195.21,-1050.99C192.2,-1048.99 189.43,-1046.68 187,-1044 126.08,-976.73 210.3,-911.7 151,-843 147.7,-839.18 143.8,-835.94 139.54,-833.2"/>
<polygon fill="midnightblue" stroke="midnightblue" points="193.74,-1054.17 204.21,-1055.81 197.05,-1048 193.74,-1054.17"/>
</g>
<!-- Node34 -->
<g id="node32" class="node">
<title>Node34</title>
<g id="a_node32"><a xlink:href="class_t_interface.html#ae6e977c9dfdfbde9924ceefd19d7d0d3" target="_top" xlink:title=" ">
<polygon fill="white" stroke="black" points="3.5,-764.5 3.5,-783.5 147.5,-783.5 147.5,-764.5 3.5,-764.5"/>
<text text-anchor="middle" x="75.5" y="-771.5" font-family="Helvetica,sans-Serif" font-size="10.00">TInterface::CutMenuItemClick</text>
</a>
</g>
</g>
<!-- Node3&#45;&gt;Node34 -->
<g id="edge31" class="edge">
<title>Node3&#45;&gt;Node34</title>
<path fill="none" stroke="midnightblue" d="M195.53,-1051.37C192.38,-1049.29 189.5,-1046.85 187,-1044 113.09,-959.51 225.51,-877.97 151,-794 147.18,-789.69 142.54,-786.27 137.46,-783.55"/>
<polygon fill="midnightblue" stroke="midnightblue" points="193.91,-1054.48 204.38,-1056.1 197.21,-1048.3 193.91,-1054.48"/>
</g>
<!-- Node35 -->
<g id="node33" class="node">
<title>Node35</title>
<g id="a_node33"><a xlink:href="class_t_interface.html#acd41ae8fa5d16248a867472d9c8ae646" target="_top" xlink:title=" ">
<polygon fill="white" stroke="black" points="4.5,-715 4.5,-745 146.5,-745 146.5,-715 4.5,-715"/>
<text text-anchor="start" x="12.5" y="-733" font-family="Helvetica,sans-Serif" font-size="10.00">TInterface::CutTTEntryButton</text>
<text text-anchor="middle" x="75.5" y="-722" font-family="Helvetica,sans-Serif" font-size="10.00">Click</text>
</a>
</g>
</g>
<!-- Node3&#45;&gt;Node35 -->
<g id="edge32" class="edge">
<title>Node3&#45;&gt;Node35</title>
<path fill="none" stroke="midnightblue" d="M195.47,-1051.43C192.34,-1049.33 189.47,-1046.88 187,-1044 102.71,-945.77 232.94,-855.2 151,-755 147.8,-751.09 143.98,-747.79 139.77,-745.01"/>
<polygon fill="midnightblue" stroke="midnightblue" points="193.82,-1054.52 204.29,-1056.18 197.14,-1048.36 193.82,-1054.52"/>
</g>
<!-- Node36 -->
<g id="node34" class="node">
<title>Node36</title>
<g id="a_node34"><a xlink:href="class_t_interface.html#af9cb95043f5276df55cb6809e104c93a" target="_top" xlink:title=" ">
<polygon fill="white" stroke="black" points="15,-666 15,-696 136,-696 136,-666 15,-666"/>
<text text-anchor="start" x="23" y="-684" font-family="Helvetica,sans-Serif" font-size="10.00">TInterface::DeleteAllPref</text>
<text text-anchor="middle" x="75.5" y="-673" font-family="Helvetica,sans-Serif" font-size="10.00">DirButtonClick</text>
</a>
</g>
</g>
<!-- Node3&#45;&gt;Node36 -->
<g id="edge33" class="edge">
<title>Node3&#45;&gt;Node36</title>
<path fill="none" stroke="midnightblue" d="M195.41,-1051.48C192.29,-1049.37 189.44,-1046.9 187,-1044 89.64,-928.48 245.59,-823.79 151,-706 146.9,-700.89 141.72,-696.82 136,-693.58"/>
<polygon fill="midnightblue" stroke="midnightblue" points="193.74,-1054.56 204.2,-1056.25 197.08,-1048.41 193.74,-1054.56"/>
</g>
<!-- Node37 -->
<g id="node35" class="node">
<title>Node37</title>
<g id="a_node35"><a xlink:href="class_t_interface.html#aff2c1cd6ed2d45fdcf6392a85a6d9415" target="_top" xlink:title=" ">
<polygon fill="white" stroke="black" points="8,-617 8,-647 143,-647 143,-617 8,-617"/>
<text text-anchor="start" x="16" y="-635" font-family="Helvetica,sans-Serif" font-size="10.00">TInterface::DeleteMenuItem</text>
<text text-anchor="middle" x="75.5" y="-624" font-family="Helvetica,sans-Serif" font-size="10.00">Click</text>
</a>
</g>
</g>
<!-- Node3&#45;&gt;Node37 -->
<g id="edge34" class="edge">
<title>Node3&#45;&gt;Node37</title>
<path fill="none" stroke="midnightblue" d="M195.52,-1051.62C192.35,-1049.48 189.46,-1046.96 187,-1044 131.78,-977.59 204.63,-724.71 151,-657 147.95,-653.15 144.29,-649.89 140.24,-647.13"/>
<polygon fill="midnightblue" stroke="midnightblue" points="194.01,-1054.78 204.47,-1056.45 197.33,-1048.62 194.01,-1054.78"/>
</g>
<!-- Node38 -->
<g id="node36" class="node">
<title>Node38</title>
<g id="a_node36"><a xlink:href="class_t_interface.html#a3136530959237eaa57486f4f48357855" target="_top" xlink:title=" ">
<polygon fill="white" stroke="black" points="11.5,-568 11.5,-598 139.5,-598 139.5,-568 11.5,-568"/>
<text text-anchor="start" x="19.5" y="-586" font-family="Helvetica,sans-Serif" font-size="10.00">TInterface::DeleteOnePref</text>
<text text-anchor="middle" x="75.5" y="-575" font-family="Helvetica,sans-Serif" font-size="10.00">DirButtonClick</text>
</a>
</g>
</g>
<!-- Node3&#45;&gt;Node38 -->
<g id="edge35" class="edge">
<title>Node3&#45;&gt;Node38</title>
<path fill="none" stroke="midnightblue" d="M195.49,-1051.65C192.33,-1049.51 189.45,-1046.98 187,-1044 125.23,-968.92 210.97,-684.52 151,-608 147.8,-603.92 143.91,-600.5 139.61,-597.63"/>
<polygon fill="midnightblue" stroke="midnightblue" points="193.96,-1054.81 204.42,-1056.49 197.3,-1048.65 193.96,-1054.81"/>
</g>
<!-- Node39 -->
<g id="node37" class="node">
<title>Node39</title>
<g id="a_node37"><a xlink:href="class_t_interface.html#abdd4a70649a10a29c9a069d040072808" target="_top" xlink:title=" ">
<polygon fill="white" stroke="black" points="12.5,-519 12.5,-549 138.5,-549 138.5,-519 12.5,-519"/>
<text text-anchor="start" x="20.5" y="-537" font-family="Helvetica,sans-Serif" font-size="10.00">TInterface::DeleteTTEntry</text>
<text text-anchor="middle" x="75.5" y="-526" font-family="Helvetica,sans-Serif" font-size="10.00">ButtonClick</text>
</a>
</g>
</g>
<!-- Node3&#45;&gt;Node39 -->
<g id="edge36" class="edge">
<title>Node3&#45;&gt;Node39</title>
<path fill="none" stroke="midnightblue" d="M195.46,-1051.68C192.3,-1049.52 189.44,-1046.99 187,-1044 118.68,-960.26 217.31,-644.34 151,-559 147.57,-554.58 143.32,-550.94 138.62,-547.94"/>
<polygon fill="midnightblue" stroke="midnightblue" points="193.92,-1054.83 204.38,-1056.53 197.27,-1048.68 193.92,-1054.83"/>
</g>
<!-- Node40 -->
<g id="node38" class="node">
<title>Node40</title>
<g id="a_node38"><a xlink:href="class_t_interface.html#ac53c02024590fc44371ed3b7efc3ddde" target="_top" xlink:title=" ">
<polygon fill="white" stroke="black" points="11.5,-480.5 11.5,-499.5 139.5,-499.5 139.5,-480.5 11.5,-480.5"/>
<text text-anchor="middle" x="75.5" y="-487.5" font-family="Helvetica,sans-Serif" font-size="10.00">TInterface::EditMenuClick</text>
</a>
</g>
</g>
<!-- Node3&#45;&gt;Node40 -->
<g id="edge37" class="edge">
<title>Node3&#45;&gt;Node40</title>
<path fill="none" stroke="midnightblue" d="M195.44,-1051.7C192.29,-1049.54 189.43,-1046.99 187,-1044 112.13,-951.59 226.52,-601.89 151,-510 147.51,-505.76 143.23,-502.36 138.5,-499.65"/>
<polygon fill="midnightblue" stroke="midnightblue" points="193.89,-1054.84 204.35,-1056.55 197.24,-1048.69 193.89,-1054.84"/>
</g>
<!-- Node41 -->
<g id="node39" class="node">
<title>Node41</title>
<g id="a_node39"><a xlink:href="class_t_interface.html#a0cf35a6e4a6cfa72b63222acb51f9f74" target="_top" xlink:title=" ">
<polygon fill="white" stroke="black" points="13.5,-431 13.5,-461 137.5,-461 137.5,-431 13.5,-431"/>
<text text-anchor="start" x="21.5" y="-449" font-family="Helvetica,sans-Serif" font-size="10.00">TInterface::EditTimetable</text>
<text text-anchor="middle" x="75.5" y="-438" font-family="Helvetica,sans-Serif" font-size="10.00">MenuItemClick</text>
</a>
</g>
</g>
<!-- Node3&#45;&gt;Node41 -->
<g id="edge38" class="edge">
<title>Node3&#45;&gt;Node41</title>
<path fill="none" stroke="midnightblue" d="M195.42,-1051.71C192.27,-1049.55 189.42,-1047 187,-1044 106.91,-944.68 228.71,-572.19 151,-471 147.34,-466.24 142.74,-462.38 137.63,-459.24"/>
<polygon fill="midnightblue" stroke="midnightblue" points="193.87,-1054.85 204.32,-1056.57 197.23,-1048.71 193.87,-1054.85"/>
</g>
<!-- Node42 -->
<g id="node40" class="node">
<title>Node42</title>
<g id="a_node40"><a xlink:href="class_t_interface.html#a9cfdb7521877f2c7ab124d0e4f47a0f6" target="_top" xlink:title=" ">
<polygon fill="white" stroke="black" points="13,-382 13,-412 138,-412 138,-382 13,-382"/>
<text text-anchor="start" x="21" y="-400" font-family="Helvetica,sans-Serif" font-size="10.00">TInterface::ExitMenuItem</text>
<text text-anchor="middle" x="75.5" y="-389" font-family="Helvetica,sans-Serif" font-size="10.00">Click</text>
</a>
</g>
</g>
<!-- Node3&#45;&gt;Node42 -->
<g id="edge39" class="edge">
<title>Node3&#45;&gt;Node42</title>
<path fill="none" stroke="midnightblue" d="M195.4,-1051.72C192.26,-1049.56 189.41,-1047.01 187,-1044 100.36,-936.01 235.06,-532.02 151,-422 147.44,-417.34 142.97,-413.54 138,-410.44"/>
<polygon fill="midnightblue" stroke="midnightblue" points="193.85,-1054.86 204.3,-1056.59 197.21,-1048.72 193.85,-1054.86"/>
</g>
<!-- Node43 -->
<g id="node41" class="node">
<title>Node43</title>
<g id="a_node41"><a xlink:href="class_t_interface.html#a3e59d6f1f39ffe34a9d6e7bf930acbff" target="_top" xlink:title=" ">
<polygon fill="white" stroke="black" points="13.5,-333 13.5,-363 137.5,-363 137.5,-333 13.5,-333"/>
<text text-anchor="start" x="21.5" y="-351" font-family="Helvetica,sans-Serif" font-size="10.00">TInterface::ExitOperation</text>
<text text-anchor="middle" x="75.5" y="-340" font-family="Helvetica,sans-Serif" font-size="10.00">ButtonClick</text>
</a>
</g>
</g>
<!-- Node3&#45;&gt;Node43 -->
<g id="edge40" class="edge">
<title>Node3&#45;&gt;Node43</title>
<path fill="none" stroke="midnightblue" d="M195.39,-1051.73C192.25,-1049.57 189.41,-1047.01 187,-1044 93.8,-927.33 241.41,-491.85 151,-373 147.37,-368.22 142.78,-364.35 137.68,-361.21"/>
<polygon fill="midnightblue" stroke="midnightblue" points="193.83,-1054.87 204.28,-1056.61 197.19,-1048.73 193.83,-1054.87"/>
</g>
<!-- Node44 -->
<g id="node42" class="node">
<title>Node44</title>
<g id="a_node42"><a xlink:href="class_t_interface.html#ab2a25d27dcbae558b8f9a4ac62937523" target="_top" xlink:title=" ">
<polygon fill="white" stroke="black" points="5.5,-284 5.5,-314 145.5,-314 145.5,-284 5.5,-284"/>
<text text-anchor="start" x="13.5" y="-302" font-family="Helvetica,sans-Serif" font-size="10.00">TInterface::ExitPrefDirButton</text>
<text text-anchor="middle" x="75.5" y="-291" font-family="Helvetica,sans-Serif" font-size="10.00">Click</text>
</a>
</g>
</g>
<!-- Node3&#45;&gt;Node44 -->
<g id="edge41" class="edge">
<title>Node3&#45;&gt;Node44</title>
<path fill="none" stroke="midnightblue" d="M195.38,-1051.74C192.24,-1049.57 189.4,-1047.02 187,-1044 87.24,-918.65 247.76,-451.68 151,-324 148.12,-320.19 144.63,-316.96 140.76,-314.22"/>
<polygon fill="midnightblue" stroke="midnightblue" points="193.81,-1054.88 204.26,-1056.62 197.18,-1048.74 193.81,-1054.88"/>
</g>
<!-- Node45 -->
<g id="node43" class="node">
<title>Node45</title>
<g id="a_node43"><a xlink:href="class_t_interface.html#ad0fa9f32b059b346e066ab23d62a4bfc" target="_top" xlink:title=" ">
<polygon fill="white" stroke="black" points="8.5,-235 8.5,-265 142.5,-265 142.5,-235 8.5,-235"/>
<text text-anchor="start" x="16.5" y="-253" font-family="Helvetica,sans-Serif" font-size="10.00">TInterface::ExitTrackButton</text>
<text text-anchor="middle" x="75.5" y="-242" font-family="Helvetica,sans-Serif" font-size="10.00">Click</text>
</a>
</g>
</g>
<!-- Node3&#45;&gt;Node45 -->
<g id="edge42" class="edge">
<title>Node3&#45;&gt;Node45</title>
<path fill="none" stroke="midnightblue" d="M195.36,-1051.75C192.23,-1049.58 189.4,-1047.02 187,-1044 80.68,-909.97 254.11,-411.51 151,-275 148.12,-271.19 144.64,-267.95 140.77,-265.21"/>
<polygon fill="midnightblue" stroke="midnightblue" points="193.8,-1054.88 204.24,-1056.64 197.17,-1048.75 193.8,-1054.88"/>
</g>
<!-- Node46 -->
<g id="node44" class="node">
<title>Node46</title>
<g id="a_node44"><a xlink:href="class_t_interface.html#aa78089df3d8323be6fde98c0ee48424c" target="_top" xlink:title=" ">
<polygon fill="white" stroke="black" points="3,-186 3,-216 148,-216 148,-186 3,-186"/>
<text text-anchor="start" x="11" y="-204" font-family="Helvetica,sans-Serif" font-size="10.00">TInterface::ExitTTModeButton</text>
<text text-anchor="middle" x="75.5" y="-193" font-family="Helvetica,sans-Serif" font-size="10.00">Click</text>
</a>
</g>
</g>
<!-- Node3&#45;&gt;Node46 -->
<g id="edge43" class="edge">
<title>Node3&#45;&gt;Node46</title>
<path fill="none" stroke="midnightblue" d="M195.36,-1051.76C192.23,-1049.59 189.39,-1047.02 187,-1044 130.56,-972.65 205.73,-298.67 151,-226 148.13,-222.19 144.65,-218.95 140.78,-216.2"/>
<polygon fill="midnightblue" stroke="midnightblue" points="193.78,-1054.89 204.23,-1056.65 197.16,-1048.76 193.78,-1054.89"/>
</g>
<!-- Node47 -->
<g id="node45" class="node">
<title>Node47</title>
<g id="a_node45"><a xlink:href="class_t_interface.html#ab7c52bd31930036c95b9b71c2f1f0426" target="_top" xlink:title=" ">
<polygon fill="white" stroke="black" points="9.5,-137 9.5,-167 141.5,-167 141.5,-137 9.5,-137"/>
<text text-anchor="start" x="17.5" y="-155" font-family="Helvetica,sans-Serif" font-size="10.00">TInterface::ExportTTButton</text>
<text text-anchor="middle" x="75.5" y="-144" font-family="Helvetica,sans-Serif" font-size="10.00">Click</text>
</a>
</g>
</g>
<!-- Node3&#45;&gt;Node47 -->
<g id="edge44" class="edge">
<title>Node3&#45;&gt;Node47</title>
<path fill="none" stroke="midnightblue" d="M195.35,-1051.77C192.22,-1049.59 189.39,-1047.03 187,-1044 127.28,-968.31 208.91,-254.09 151,-177 148.13,-173.18 144.66,-169.94 140.79,-167.19"/>
<polygon fill="midnightblue" stroke="midnightblue" points="193.77,-1054.9 204.22,-1056.66 197.15,-1048.76 193.77,-1054.9"/>
</g>
<!-- Node48 -->
<g id="node46" class="node">
<title>Node48</title>
<g id="a_node46"><a xlink:href="class_t_interface.html#a1bf4807428bf9fa4504be97d28642597" target="_top" xlink:title=" ">
<polygon fill="white" stroke="black" points="11.5,-88 11.5,-118 139.5,-118 139.5,-88 11.5,-88"/>
<text text-anchor="start" x="19.5" y="-106" font-family="Helvetica,sans-Serif" font-size="10.00">TInterface::ExportTTMenu</text>
<text text-anchor="middle" x="75.5" y="-95" font-family="Helvetica,sans-Serif" font-size="10.00">ItemClick</text>
</a>
</g>
</g>
<!-- Node3&#45;&gt;Node48 -->
<g id="edge45" class="edge">
<title>Node3&#45;&gt;Node48</title>
<path fill="none" stroke="midnightblue" d="M195.34,-1051.77C192.21,-1049.6 189.38,-1047.03 187,-1044 124,-963.97 212.09,-209.51 151,-128 147.89,-123.85 144.06,-120.38 139.8,-117.49"/>
<polygon fill="midnightblue" stroke="midnightblue" points="193.76,-1054.9 204.21,-1056.67 197.14,-1048.77 193.76,-1054.9"/>
</g>
<!-- Node49 -->
<g id="node47" class="node">
<title>Node49</title>
<g id="a_node47"><a xlink:href="class_t_interface.html#add5fbdbceae6285c2cc440905b270491" target="_top" xlink:title=" ">
<polygon fill="white" stroke="black" points="14,-39 14,-69 137,-69 137,-39 14,-39"/>
<text text-anchor="start" x="22" y="-57" font-family="Helvetica,sans-Serif" font-size="10.00">TInterface::FlipMenuItem</text>
<text text-anchor="middle" x="75.5" y="-46" font-family="Helvetica,sans-Serif" font-size="10.00">Click</text>
</a>
</g>
</g>
<!-- Node3&#45;&gt;Node49 -->
<g id="edge46" class="edge">
<title>Node3&#45;&gt;Node49</title>
<path fill="none" stroke="midnightblue" d="M195.33,-1051.78C192.21,-1049.6 189.38,-1047.03 187,-1044 120.72,-959.62 215.26,-164.92 151,-79 147.24,-73.97 142.43,-69.95 137.06,-66.72"/>
<polygon fill="midnightblue" stroke="midnightblue" points="193.75,-1054.9 204.2,-1056.67 197.13,-1048.78 193.75,-1054.9"/>
</g>
<!-- Node50 -->
<g id="node48" class="node">
<title>Node50</title>
<g id="a_node48"><a xlink:href="class_t_interface.html#a167410ef8c1ebe53abd0afee71943ecf" target="_top" xlink:title=" ">
<polygon fill="white" stroke="black" points="8.5,-0.5 8.5,-19.5 142.5,-19.5 142.5,-0.5 8.5,-0.5"/>
<text text-anchor="middle" x="75.5" y="-7.5" font-family="Helvetica,sans-Serif" font-size="10.00">TInterface::FontButtonClick</text>
</a>
</g>
</g>
<!-- Node3&#45;&gt;Node50 -->
<g id="edge47" class="edge">
<title>Node3&#45;&gt;Node50</title>
<path fill="none" stroke="midnightblue" d="M195.33,-1051.78C192.2,-1049.6 189.38,-1047.03 187,-1044 117.37,-955.19 221.81,-116.87 151,-29 147.98,-25.26 144.34,-22.19 140.31,-19.69"/>
<polygon fill="midnightblue" stroke="midnightblue" points="193.74,-1054.91 204.19,-1056.68 197.13,-1048.78 193.74,-1054.91"/>
</g>
</g>
</svg>
